<?xml version="1.0" encoding="UTF-8" standalone="no"?>
<!DOCTYPE svg PUBLIC "-//W3C//DTD SVG 1.1//EN"
 "http://www.w3.org/Graphics/SVG/1.1/DTD/svg11.dtd">
<!-- Generated by graphviz version 2.36.0 (20140111.2315)
 -->
<!-- Title: /home/travis/build/robotology/human&#45;dynamics&#45;estimation/build/ros&#45;msgs/_yarp_idl_/msgs/geometry_msgs_Vector3.h Pages: 1 -->
<svg width="614pt" height="472pt"
 viewBox="0.00 0.00 614.00 472.00" xmlns="http://www.w3.org/2000/svg" xmlns:xlink="http://www.w3.org/1999/xlink">
<g id="graph0" class="graph" transform="scale(1 1) rotate(0) translate(4 468)">
<title>/home/travis/build/robotology/human&#45;dynamics&#45;estimation/build/ros&#45;msgs/_yarp_idl_/msgs/geometry_msgs_Vector3.h</title>
<!-- Node1 -->
<g id="node1" class="node"><title>Node1</title>
<polygon fill="#bfbfbf" stroke="black" points="278,-400.5 278,-463.5 420,-463.5 420,-400.5 278,-400.5"/>
<text text-anchor="start" x="286" y="-451.5" font-family="Helvetica,sans-Serif" font-size="10.00">/home/travis/build</text>
<text text-anchor="start" x="286" y="-440.5" font-family="Helvetica,sans-Serif" font-size="10.00">/robotology/human&#45;dynamics</text>
<text text-anchor="start" x="286" y="-429.5" font-family="Helvetica,sans-Serif" font-size="10.00">&#45;estimation/build/ros&#45;msgs</text>
<text text-anchor="start" x="286" y="-418.5" font-family="Helvetica,sans-Serif" font-size="10.00">/_yarp_idl_/msgs/geometry</text>
<text text-anchor="middle" x="349" y="-407.5" font-family="Helvetica,sans-Serif" font-size="10.00">_msgs_Vector3.h</text>
</g>
<!-- Node2 -->
<g id="node2" class="node"><title>Node2</title>
<g id="a_node2"><a xlink:href="__yarp__idl___2msgs_2geometry__msgs___quaternion_8h.html" target="_top" xlink:title="/home/travis/build\l/robotology/human&#45;dynamics\l&#45;estimation/build/ros&#45;msgs\l/_yarp_idl_/msgs/geometry\l_msgs_Quaternion.h">
<polygon fill="none" stroke="black" points="179,-300.5 179,-363.5 321,-363.5 321,-300.5 179,-300.5"/>
<text text-anchor="start" x="187" y="-351.5" font-family="Helvetica,sans-Serif" font-size="10.00">/home/travis/build</text>
<text text-anchor="start" x="187" y="-340.5" font-family="Helvetica,sans-Serif" font-size="10.00">/robotology/human&#45;dynamics</text>
<text text-anchor="start" x="187" y="-329.5" font-family="Helvetica,sans-Serif" font-size="10.00">&#45;estimation/build/ros&#45;msgs</text>
<text text-anchor="start" x="187" y="-318.5" font-family="Helvetica,sans-Serif" font-size="10.00">/_yarp_idl_/msgs/geometry</text>
<text text-anchor="middle" x="250" y="-307.5" font-family="Helvetica,sans-Serif" font-size="10.00">_msgs_Quaternion.h</text>
</a>
</g>
</g>
<!-- Node1&#45;&gt;Node2 -->
<g id="edge1" class="edge"><title>Node1&#45;&gt;Node2</title>
<path fill="none" stroke="midnightblue" d="M310.586,-392.974C300.766,-383.253 290.333,-372.926 280.942,-363.63"/>
<polygon fill="midnightblue" stroke="midnightblue" points="308.378,-395.713 317.947,-400.261 313.303,-390.739 308.378,-395.713"/>
</g>
<!-- Node3 -->
<g id="node3" class="node"><title>Node3</title>
<g id="a_node3"><a xlink:href="__yarp__idl___2msgs_2geometry__msgs___transform_8h.html" target="_top" xlink:title="/home/travis/build\l/robotology/human&#45;dynamics\l&#45;estimation/build/ros&#45;msgs\l/_yarp_idl_/msgs/geometry\l_msgs_Transform.h">
<polygon fill="none" stroke="black" points="80,-200.5 80,-263.5 222,-263.5 222,-200.5 80,-200.5"/>
<text text-anchor="start" x="88" y="-251.5" font-family="Helvetica,sans-Serif" font-size="10.00">/home/travis/build</text>
<text text-anchor="start" x="88" y="-240.5" font-family="Helvetica,sans-Serif" font-size="10.00">/robotology/human&#45;dynamics</text>
<text text-anchor="start" x="88" y="-229.5" font-family="Helvetica,sans-Serif" font-size="10.00">&#45;estimation/build/ros&#45;msgs</text>
<text text-anchor="start" x="88" y="-218.5" font-family="Helvetica,sans-Serif" font-size="10.00">/_yarp_idl_/msgs/geometry</text>
<text text-anchor="middle" x="151" y="-207.5" font-family="Helvetica,sans-Serif" font-size="10.00">_msgs_Transform.h</text>
</a>
</g>
</g>
<!-- Node1&#45;&gt;Node3 -->
<g id="edge11" class="edge"><title>Node1&#45;&gt;Node3</title>
<path fill="none" stroke="midnightblue" d="M267.862,-419.495C232.614,-410.299 193.981,-393.756 170,-364 147.288,-335.818 145.33,-292.728 147.187,-263.741"/>
<polygon fill="midnightblue" stroke="midnightblue" points="267.154,-422.925 277.699,-421.899 268.815,-416.125 267.154,-422.925"/>
</g>
<!-- Node4 -->
<g id="node4" class="node"><title>Node4</title>
<g id="a_node4"><a xlink:href="__yarp__idl___2msgs_2geometry__msgs___transform_stamped_8h.html" target="_top" xlink:title="/home/travis/build\l/robotology/human&#45;dynamics\l&#45;estimation/build/ros&#45;msgs\l/_yarp_idl_/msgs/geometry\l_msgs_TransformStamped.h">
<polygon fill="none" stroke="black" points="156.5,-100.5 156.5,-163.5 299.5,-163.5 299.5,-100.5 156.5,-100.5"/>
<text text-anchor="start" x="164.5" y="-151.5" font-family="Helvetica,sans-Serif" font-size="10.00">/home/travis/build</text>
<text text-anchor="start" x="164.5" y="-140.5" font-family="Helvetica,sans-Serif" font-size="10.00">/robotology/human&#45;dynamics</text>
<text text-anchor="start" x="164.5" y="-129.5" font-family="Helvetica,sans-Serif" font-size="10.00">&#45;estimation/build/ros&#45;msgs</text>
<text text-anchor="start" x="164.5" y="-118.5" font-family="Helvetica,sans-Serif" font-size="10.00">/_yarp_idl_/msgs/geometry</text>
<text text-anchor="middle" x="228" y="-107.5" font-family="Helvetica,sans-Serif" font-size="10.00">_msgs_TransformStamped.h</text>
</a>
</g>
</g>
<!-- Node1&#45;&gt;Node4 -->
<g id="edge12" class="edge"><title>Node1&#45;&gt;Node4</title>
<path fill="none" stroke="midnightblue" d="M347.316,-390.209C345.209,-363.826 340.498,-329.104 330,-300 311.441,-248.548 275.883,-195.76 252.047,-163.668"/>
<polygon fill="midnightblue" stroke="midnightblue" points="343.829,-390.514 348.025,-400.242 350.811,-390.02 343.829,-390.514"/>
</g>
<!-- Node5 -->
<g id="node5" class="node"><title>Node5</title>
<g id="a_node5"><a xlink:href="__yarp__idl___2msgs_2tf2__msgs___t_f_message_8h.html" target="_top" xlink:title="/home/travis/build\l/robotology/human&#45;dynamics\l&#45;estimation/build/ros&#45;msgs\l/_yarp_idl_/msgs/tf2_msgs\l_TFMessage.h">
<polygon fill="none" stroke="black" points="0,-0.5 0,-63.5 142,-63.5 142,-0.5 0,-0.5"/>
<text text-anchor="start" x="8" y="-51.5" font-family="Helvetica,sans-Serif" font-size="10.00">/home/travis/build</text>
<text text-anchor="start" x="8" y="-40.5" font-family="Helvetica,sans-Serif" font-size="10.00">/robotology/human&#45;dynamics</text>
<text text-anchor="start" x="8" y="-29.5" font-family="Helvetica,sans-Serif" font-size="10.00">&#45;estimation/build/ros&#45;msgs</text>
<text text-anchor="start" x="8" y="-18.5" font-family="Helvetica,sans-Serif" font-size="10.00">/_yarp_idl_/msgs/tf2_msgs</text>
<text text-anchor="middle" x="71" y="-7.5" font-family="Helvetica,sans-Serif" font-size="10.00">_TFMessage.h</text>
</a>
</g>
</g>
<!-- Node1&#45;&gt;Node5 -->
<g id="edge16" class="edge"><title>Node1&#45;&gt;Node5</title>
<path fill="none" stroke="midnightblue" d="M267.52,-415.406C190.635,-395.53 81.6993,-352.501 44,-264 15.4326,-196.937 27.215,-171.379 42,-100 44.5451,-87.7128 49.4587,-74.909 54.5283,-63.8258"/>
<polygon fill="midnightblue" stroke="midnightblue" points="267.123,-418.914 277.673,-417.945 268.821,-412.124 267.123,-418.914"/>
</g>
<!-- Node6 -->
<g id="node6" class="node"><title>Node6</title>
<g id="a_node6"><a xlink:href="__yarp__idl___2msgs_2tf__tf_message_8h.html" target="_top" xlink:title="/home/travis/build\l/robotology/human&#45;dynamics\l&#45;estimation/build/ros&#45;msgs\l/_yarp_idl_/msgs/tf_tfMessage.h">
<polygon fill="none" stroke="black" points="198.5,-6 198.5,-58 357.5,-58 357.5,-6 198.5,-6"/>
<text text-anchor="start" x="206.5" y="-46" font-family="Helvetica,sans-Serif" font-size="10.00">/home/travis/build</text>
<text text-anchor="start" x="206.5" y="-35" font-family="Helvetica,sans-Serif" font-size="10.00">/robotology/human&#45;dynamics</text>
<text text-anchor="start" x="206.5" y="-24" font-family="Helvetica,sans-Serif" font-size="10.00">&#45;estimation/build/ros&#45;msgs</text>
<text text-anchor="middle" x="278" y="-13" font-family="Helvetica,sans-Serif" font-size="10.00">/_yarp_idl_/msgs/tf_tfMessage.h</text>
</a>
</g>
</g>
<!-- Node1&#45;&gt;Node6 -->
<g id="edge17" class="edge"><title>Node1&#45;&gt;Node6</title>
<path fill="none" stroke="midnightblue" d="M353.308,-390.396C358.514,-326.277 362.334,-198.723 324,-100 318.178,-85.0058 308.419,-70.0795 299.384,-58.134"/>
<polygon fill="midnightblue" stroke="midnightblue" points="349.809,-390.234 352.432,-400.499 356.782,-390.838 349.809,-390.234"/>
</g>
<!-- Node7 -->
<g id="node7" class="node"><title>Node7</title>
<g id="a_node7"><a xlink:href="__yarp__idl___2msgs_2geometry__msgs___wrench_8h.html" target="_top" xlink:title="/home/travis/build\l/robotology/human&#45;dynamics\l&#45;estimation/build/ros&#45;msgs\l/_yarp_idl_/msgs/geometry\l_msgs_Wrench.h">
<polygon fill="none" stroke="black" points="415,-300.5 415,-363.5 557,-363.5 557,-300.5 415,-300.5"/>
<text text-anchor="start" x="423" y="-351.5" font-family="Helvetica,sans-Serif" font-size="10.00">/home/travis/build</text>
<text text-anchor="start" x="423" y="-340.5" font-family="Helvetica,sans-Serif" font-size="10.00">/robotology/human&#45;dynamics</text>
<text text-anchor="start" x="423" y="-329.5" font-family="Helvetica,sans-Serif" font-size="10.00">&#45;estimation/build/ros&#45;msgs</text>
<text text-anchor="start" x="423" y="-318.5" font-family="Helvetica,sans-Serif" font-size="10.00">/_yarp_idl_/msgs/geometry</text>
<text text-anchor="middle" x="486" y="-307.5" font-family="Helvetica,sans-Serif" font-size="10.00">_msgs_Wrench.h</text>
</a>
</g>
</g>
<!-- Node1&#45;&gt;Node7 -->
<g id="edge13" class="edge"><title>Node1&#45;&gt;Node7</title>
<path fill="none" stroke="midnightblue" d="M400.168,-394.398C414.329,-384.268 429.548,-373.382 443.181,-363.63"/>
<polygon fill="midnightblue" stroke="midnightblue" points="398.069,-391.596 391.972,-400.261 402.141,-397.29 398.069,-391.596"/>
</g>
<!-- Node8 -->
<g id="node8" class="node"><title>Node8</title>
<g id="a_node8"><a xlink:href="__yarp__idl___2msgs_2geometry__msgs___wrench_stamped_8h.html" target="_top" xlink:title="/home/travis/build\l/robotology/human&#45;dynamics\l&#45;estimation/build/ros&#45;msgs\l/_yarp_idl_/msgs/geometry\l_msgs_WrenchStamped.h">
<polygon fill="none" stroke="black" points="464,-200.5 464,-263.5 606,-263.5 606,-200.5 464,-200.5"/>
<text text-anchor="start" x="472" y="-251.5" font-family="Helvetica,sans-Serif" font-size="10.00">/home/travis/build</text>
<text text-anchor="start" x="472" y="-240.5" font-family="Helvetica,sans-Serif" font-size="10.00">/robotology/human&#45;dynamics</text>
<text text-anchor="start" x="472" y="-229.5" font-family="Helvetica,sans-Serif" font-size="10.00">&#45;estimation/build/ros&#45;msgs</text>
<text text-anchor="start" x="472" y="-218.5" font-family="Helvetica,sans-Serif" font-size="10.00">/_yarp_idl_/msgs/geometry</text>
<text text-anchor="middle" x="535" y="-207.5" font-family="Helvetica,sans-Serif" font-size="10.00">_msgs_WrenchStamped.h</text>
</a>
</g>
</g>
<!-- Node1&#45;&gt;Node8 -->
<g id="edge15" class="edge"><title>Node1&#45;&gt;Node8</title>
<path fill="none" stroke="midnightblue" d="M430.301,-428.594C478.082,-422.468 535.021,-405.987 566,-364 587.716,-334.568 571.295,-292.164 555.25,-263.647"/>
<polygon fill="midnightblue" stroke="midnightblue" points="429.792,-425.13 420.257,-429.75 430.592,-432.084 429.792,-425.13"/>
</g>
<!-- Node2&#45;&gt;Node3 -->
<g id="edge2" class="edge"><title>Node2&#45;&gt;Node3</title>
<path fill="none" stroke="midnightblue" d="M211.586,-292.974C201.766,-283.253 191.333,-272.926 181.942,-263.63"/>
<polygon fill="midnightblue" stroke="midnightblue" points="209.378,-295.713 218.947,-300.261 214.303,-290.739 209.378,-295.713"/>
</g>
<!-- Node2&#45;&gt;Node4 -->
<g id="edge8" class="edge"><title>Node2&#45;&gt;Node4</title>
<path fill="none" stroke="midnightblue" d="M245.486,-290.375C241.303,-252.729 235.174,-197.563 231.393,-163.538"/>
<polygon fill="midnightblue" stroke="midnightblue" points="242.028,-290.944 246.611,-300.496 248.985,-290.171 242.028,-290.944"/>
</g>
<!-- Node2&#45;&gt;Node5 -->
<g id="edge9" class="edge"><title>Node2&#45;&gt;Node5</title>
<path fill="none" stroke="midnightblue" d="M168.558,-321.409C132.413,-312.639 93.1231,-295.903 71,-264 29.0643,-203.526 47.2474,-111.06 60.9098,-63.5368"/>
<polygon fill="midnightblue" stroke="midnightblue" points="168.128,-324.899 178.652,-323.677 169.663,-318.069 168.128,-324.899"/>
</g>
<!-- Node2&#45;&gt;Node6 -->
<g id="edge10" class="edge"><title>Node2&#45;&gt;Node6</title>
<path fill="none" stroke="midnightblue" d="M271.39,-291.135C293.352,-245.252 322.428,-167.527 308,-100 304.911,-85.5424 298.462,-70.4304 292.332,-58.2255"/>
<polygon fill="midnightblue" stroke="midnightblue" points="268.229,-289.632 266.968,-300.151 274.514,-292.714 268.229,-289.632"/>
</g>
<!-- Node3&#45;&gt;Node4 -->
<g id="edge3" class="edge"><title>Node3&#45;&gt;Node4</title>
<path fill="none" stroke="midnightblue" d="M181.553,-192.114C188.992,-182.647 196.844,-172.652 203.934,-163.63"/>
<polygon fill="midnightblue" stroke="midnightblue" points="178.578,-190.235 175.152,-200.261 184.082,-194.56 178.578,-190.235"/>
</g>
<!-- Node3&#45;&gt;Node5 -->
<g id="edge6" class="edge"><title>Node3&#45;&gt;Node5</title>
<path fill="none" stroke="midnightblue" d="M127.485,-191.305C122.704,-182.472 117.939,-173.041 114,-164 99.4204,-130.534 86.9519,-90.4528 79.2532,-63.5134"/>
<polygon fill="midnightblue" stroke="midnightblue" points="124.533,-193.2 132.439,-200.254 130.657,-189.81 124.533,-193.2"/>
</g>
<!-- Node3&#45;&gt;Node6 -->
<g id="edge7" class="edge"><title>Node3&#45;&gt;Node6</title>
<path fill="none" stroke="midnightblue" d="M138.775,-190.164C133.052,-162.7 130.628,-126.763 147,-100 158.798,-80.715 178.094,-66.7566 198.295,-56.7467"/>
<polygon fill="midnightblue" stroke="midnightblue" points="135.441,-191.28 141.098,-200.238 142.262,-189.708 135.441,-191.28"/>
</g>
<!-- Node4&#45;&gt;Node5 -->
<g id="edge4" class="edge"><title>Node4&#45;&gt;Node5</title>
<path fill="none" stroke="midnightblue" d="M170.271,-94.9656C153.787,-84.6757 135.985,-73.5639 120.07,-63.6299"/>
<polygon fill="midnightblue" stroke="midnightblue" points="168.419,-97.935 178.755,-100.261 172.125,-91.9968 168.419,-97.935"/>
</g>
<!-- Node4&#45;&gt;Node6 -->
<g id="edge5" class="edge"><title>Node4&#45;&gt;Node6</title>
<path fill="none" stroke="midnightblue" d="M248.364,-91.0861C254.063,-79.9173 260.094,-68.0958 265.218,-58.0536"/>
<polygon fill="midnightblue" stroke="midnightblue" points="245.11,-89.7628 243.683,-100.261 251.346,-92.9441 245.11,-89.7628"/>
</g>
<!-- Node7&#45;&gt;Node8 -->
<g id="edge14" class="edge"><title>Node7&#45;&gt;Node8</title>
<path fill="none" stroke="midnightblue" d="M505.874,-291.252C510.479,-282.042 515.31,-272.379 519.685,-263.63"/>
<polygon fill="midnightblue" stroke="midnightblue" points="502.711,-289.752 501.369,-300.261 508.972,-292.882 502.711,-289.752"/>
</g>
</g>
</svg>
