<?xml version="1.0" encoding="UTF-8" standalone="no"?>
<!DOCTYPE svg PUBLIC "-//W3C//DTD SVG 1.1//EN"
 "http://www.w3.org/Graphics/SVG/1.1/DTD/svg11.dtd">
<!-- Generated by graphviz version 2.36.0 (20140111.2315)
 -->
<!-- Title: /home/travis/build/robotology/human&#45;dynamics&#45;estimation/build/human&#45;forces&#45;provider/_yarp_idl_/thrifts/force6d/HumanForces.cpp Pages: 1 -->
<svg width="240pt" height="240pt"
 viewBox="0.00 0.00 240.00 240.00" xmlns="http://www.w3.org/2000/svg" xmlns:xlink="http://www.w3.org/1999/xlink">
<g id="graph0" class="graph" transform="scale(1 1) rotate(0) translate(4 236)">
<title>/home/travis/build/robotology/human&#45;dynamics&#45;estimation/build/human&#45;forces&#45;provider/_yarp_idl_/thrifts/force6d/HumanForces.cpp</title>
<!-- Node1 -->
<g id="node1" class="node"><title>Node1</title>
<polygon fill="#bfbfbf" stroke="black" points="22,-168.5 22,-231.5 190,-231.5 190,-168.5 22,-168.5"/>
<text text-anchor="start" x="30" y="-219.5" font-family="Helvetica,sans-Serif" font-size="10.00">/home/travis/build</text>
<text text-anchor="start" x="30" y="-208.5" font-family="Helvetica,sans-Serif" font-size="10.00">/robotology/human&#45;dynamics</text>
<text text-anchor="start" x="30" y="-197.5" font-family="Helvetica,sans-Serif" font-size="10.00">&#45;estimation/build/human</text>
<text text-anchor="start" x="30" y="-186.5" font-family="Helvetica,sans-Serif" font-size="10.00">&#45;forces&#45;provider/_yarp_idl</text>
<text text-anchor="middle" x="106" y="-175.5" font-family="Helvetica,sans-Serif" font-size="10.00">_/thrifts/force6d/HumanForces.cpp</text>
</g>
<!-- Node2 -->
<g id="node2" class="node"><title>Node2</title>
<g id="a_node2"><a xlink:href="autogenerated_2include_2thrifts_2_human_forces_8h.html" target="_top" xlink:title="thrifts/HumanForces.h">
<polygon fill="none" stroke="black" points="49,-112.5 49,-131.5 163,-131.5 163,-112.5 49,-112.5"/>
<text text-anchor="middle" x="106" y="-119.5" font-family="Helvetica,sans-Serif" font-size="10.00">thrifts/HumanForces.h</text>
</a>
</g>
</g>
<!-- Node1&#45;&gt;Node2 -->
<g id="edge1" class="edge"><title>Node1&#45;&gt;Node2</title>
<path fill="none" stroke="midnightblue" d="M106,-168.088C106,-159.15 106,-149.669 106,-141.719"/>
<polygon fill="midnightblue" stroke="midnightblue" points="109.5,-141.718 106,-131.718 102.5,-141.718 109.5,-141.718"/>
</g>
<!-- Node3 -->
<g id="node3" class="node"><title>Node3</title>
<polygon fill="none" stroke="#bfbfbf" points="0,-0.5 0,-19.5 80,-19.5 80,-0.5 0,-0.5"/>
<text text-anchor="middle" x="40" y="-7.5" font-family="Helvetica,sans-Serif" font-size="10.00">yarp/os/Wire.h</text>
</g>
<!-- Node2&#45;&gt;Node3 -->
<g id="edge2" class="edge"><title>Node2&#45;&gt;Node3</title>
<path fill="none" stroke="midnightblue" d="M90.6465,-112.37C78.1938,-104.534 61.243,-91.8003 52,-76 43.7611,-61.9162 40.9724,-43.4253 40.1213,-29.7676"/>
<polygon fill="midnightblue" stroke="midnightblue" points="43.6148,-29.5131 39.7849,-19.6348 36.6187,-29.7455 43.6148,-29.5131"/>
</g>
<!-- Node4 -->
<g id="node4" class="node"><title>Node4</title>
<polygon fill="none" stroke="#bfbfbf" points="112,-0.5 112,-19.5 232,-19.5 232,-0.5 112,-0.5"/>
<text text-anchor="middle" x="172" y="-7.5" font-family="Helvetica,sans-Serif" font-size="10.00">yarp/os/idl/WireTypes.h</text>
</g>
<!-- Node2&#45;&gt;Node4 -->
<g id="edge3" class="edge"><title>Node2&#45;&gt;Node4</title>
<path fill="none" stroke="midnightblue" d="M121.354,-112.37C133.806,-104.534 150.757,-91.8003 160,-76 168.239,-61.9162 171.028,-43.4253 171.879,-29.7676"/>
<polygon fill="midnightblue" stroke="midnightblue" points="175.381,-29.7455 172.215,-19.6348 168.385,-29.5131 175.381,-29.7455"/>
</g>
<!-- Node5 -->
<g id="node5" class="node"><title>Node5</title>
<g id="a_node5"><a xlink:href="autogenerated_2include_2thrifts_2_force6_d_8h.html" target="_top" xlink:title="thrifts/Force6D.h">
<polygon fill="none" stroke="black" points="61,-56.5 61,-75.5 151,-75.5 151,-56.5 61,-56.5"/>
<text text-anchor="middle" x="106" y="-63.5" font-family="Helvetica,sans-Serif" font-size="10.00">thrifts/Force6D.h</text>
</a>
</g>
</g>
<!-- Node2&#45;&gt;Node5 -->
<g id="edge4" class="edge"><title>Node2&#45;&gt;Node5</title>
<path fill="none" stroke="midnightblue" d="M106,-112.083C106,-105.006 106,-94.8611 106,-85.9865"/>
<polygon fill="midnightblue" stroke="midnightblue" points="109.5,-85.751 106,-75.7511 102.5,-85.7511 109.5,-85.751"/>
</g>
<!-- Node5&#45;&gt;Node3 -->
<g id="edge5" class="edge"><title>Node5&#45;&gt;Node3</title>
<path fill="none" stroke="midnightblue" d="M95.396,-56.324C85.5438,-48.2631 70.6491,-36.0765 58.7849,-26.3695"/>
<polygon fill="midnightblue" stroke="midnightblue" points="60.7529,-23.4575 50.797,-19.8339 56.3202,-28.8752 60.7529,-23.4575"/>
</g>
<!-- Node5&#45;&gt;Node4 -->
<g id="edge6" class="edge"><title>Node5&#45;&gt;Node4</title>
<path fill="none" stroke="midnightblue" d="M116.604,-56.324C126.456,-48.2631 141.351,-36.0765 153.215,-26.3695"/>
<polygon fill="midnightblue" stroke="midnightblue" points="155.68,-28.8752 161.203,-19.8339 151.247,-23.4575 155.68,-28.8752"/>
</g>
</g>
</svg>
