<?xml version="1.0" encoding="UTF-8" standalone="no"?>
<!DOCTYPE svg PUBLIC "-//W3C//DTD SVG 1.1//EN"
 "http://www.w3.org/Graphics/SVG/1.1/DTD/svg11.dtd">
<!-- Generated by graphviz version 2.36.0 (20140111.2315)
 -->
<!-- Title: /home/travis/build/robotology/human&#45;dynamics&#45;estimation/build/human&#45;viz&#45;bridge/_yarp_idl_/thrift/xsensframe/XsensSensorData.cpp Pages: 1 -->
<svg width="234pt" height="296pt"
 viewBox="0.00 0.00 234.00 296.00" xmlns="http://www.w3.org/2000/svg" xmlns:xlink="http://www.w3.org/1999/xlink">
<g id="graph0" class="graph" transform="scale(1 1) rotate(0) translate(4 292)">
<title>/home/travis/build/robotology/human&#45;dynamics&#45;estimation/build/human&#45;viz&#45;bridge/_yarp_idl_/thrift/xsensframe/XsensSensorData.cpp</title>
<!-- Node1 -->
<g id="node1" class="node"><title>Node1</title>
<polygon fill="#bfbfbf" stroke="black" points="0,-224.5 0,-287.5 172,-287.5 172,-224.5 0,-224.5"/>
<text text-anchor="start" x="8" y="-275.5" font-family="Helvetica,sans-Serif" font-size="10.00">/home/travis/build</text>
<text text-anchor="start" x="8" y="-264.5" font-family="Helvetica,sans-Serif" font-size="10.00">/robotology/human&#45;dynamics</text>
<text text-anchor="start" x="8" y="-253.5" font-family="Helvetica,sans-Serif" font-size="10.00">&#45;estimation/build/human</text>
<text text-anchor="start" x="8" y="-242.5" font-family="Helvetica,sans-Serif" font-size="10.00">&#45;viz&#45;bridge/_yarp_idl_/thrift</text>
<text text-anchor="middle" x="86" y="-231.5" font-family="Helvetica,sans-Serif" font-size="10.00">/xsensframe/XsensSensorData.cpp</text>
</g>
<!-- Node2 -->
<g id="node2" class="node"><title>Node2</title>
<g id="a_node2"><a xlink:href="autogenerated_2data_2include_2thrift_2_xsens_sensor_data_8h.html" target="_top" xlink:title="thrift/XsensSensorData.h">
<polygon fill="none" stroke="black" points="22.5,-168.5 22.5,-187.5 149.5,-187.5 149.5,-168.5 22.5,-168.5"/>
<text text-anchor="middle" x="86" y="-175.5" font-family="Helvetica,sans-Serif" font-size="10.00">thrift/XsensSensorData.h</text>
</a>
</g>
</g>
<!-- Node1&#45;&gt;Node2 -->
<g id="edge1" class="edge"><title>Node1&#45;&gt;Node2</title>
<path fill="none" stroke="midnightblue" d="M86,-224.088C86,-215.15 86,-205.669 86,-197.719"/>
<polygon fill="midnightblue" stroke="midnightblue" points="89.5001,-197.718 86,-187.718 82.5001,-197.718 89.5001,-197.718"/>
</g>
<!-- Node3 -->
<g id="node3" class="node"><title>Node3</title>
<polygon fill="none" stroke="#bfbfbf" points="9,-0.5 9,-19.5 89,-19.5 89,-0.5 9,-0.5"/>
<text text-anchor="middle" x="49" y="-7.5" font-family="Helvetica,sans-Serif" font-size="10.00">yarp/os/Wire.h</text>
</g>
<!-- Node2&#45;&gt;Node3 -->
<g id="edge2" class="edge"><title>Node2&#45;&gt;Node3</title>
<path fill="none" stroke="midnightblue" d="M75.4481,-168.356C56.9197,-152.41 19.1605,-116.291 5,-76 2.05266,-67.614 1.64456,-64.2312 5,-56 9.80001,-44.2251 19.3286,-33.8564 28.2948,-26.0486"/>
<polygon fill="midnightblue" stroke="midnightblue" points="30.6504,-28.6448 36.2191,-19.6314 26.245,-23.2048 30.6504,-28.6448"/>
</g>
<!-- Node4 -->
<g id="node4" class="node"><title>Node4</title>
<polygon fill="none" stroke="#bfbfbf" points="107,-0.5 107,-19.5 227,-19.5 227,-0.5 107,-0.5"/>
<text text-anchor="middle" x="167" y="-7.5" font-family="Helvetica,sans-Serif" font-size="10.00">yarp/os/idl/WireTypes.h</text>
</g>
<!-- Node2&#45;&gt;Node4 -->
<g id="edge3" class="edge"><title>Node2&#45;&gt;Node4</title>
<path fill="none" stroke="midnightblue" d="M126.147,-168.429C145.975,-161.953 168.138,-150.83 180,-132 200.003,-100.247 185.989,-54.3051 175.534,-29.1509"/>
<polygon fill="midnightblue" stroke="midnightblue" points="178.622,-27.479 171.38,-19.7452 172.218,-30.3068 178.622,-27.479"/>
</g>
<!-- Node5 -->
<g id="node5" class="node"><title>Node5</title>
<g id="a_node5"><a xlink:href="human-viz-bridge_2autogenerated_2data_2include_2thrift_2_quaternion_8h.html" target="_top" xlink:title="thrift/Quaternion.h">
<polygon fill="none" stroke="black" points="76.5,-112.5 76.5,-131.5 171.5,-131.5 171.5,-112.5 76.5,-112.5"/>
<text text-anchor="middle" x="124" y="-119.5" font-family="Helvetica,sans-Serif" font-size="10.00">thrift/Quaternion.h</text>
</a>
</g>
</g>
<!-- Node2&#45;&gt;Node5 -->
<g id="edge4" class="edge"><title>Node2&#45;&gt;Node5</title>
<path fill="none" stroke="midnightblue" d="M92.2749,-168.083C97.6425,-160.455 105.518,-149.264 112.079,-139.941"/>
<polygon fill="midnightblue" stroke="midnightblue" points="114.949,-141.943 117.842,-131.751 109.225,-137.915 114.949,-141.943"/>
</g>
<!-- Node6 -->
<g id="node6" class="node"><title>Node6</title>
<g id="a_node6"><a xlink:href="human-viz-bridge_2autogenerated_2data_2include_2thrift_2_vector3_8h.html" target="_top" xlink:title="thrift/Vector3.h">
<polygon fill="none" stroke="black" points="14.5,-56.5 14.5,-75.5 95.5,-75.5 95.5,-56.5 14.5,-56.5"/>
<text text-anchor="middle" x="55" y="-63.5" font-family="Helvetica,sans-Serif" font-size="10.00">thrift/Vector3.h</text>
</a>
</g>
</g>
<!-- Node2&#45;&gt;Node6 -->
<g id="edge10" class="edge"><title>Node2&#45;&gt;Node6</title>
<path fill="none" stroke="midnightblue" d="M81.6308,-168.245C77.342,-159.327 70.8934,-144.998 67,-132 62.4158,-116.696 59.2686,-98.8139 57.3513,-85.684"/>
<polygon fill="midnightblue" stroke="midnightblue" points="60.7896,-84.9921 55.9777,-75.553 53.8531,-85.9326 60.7896,-84.9921"/>
</g>
<!-- Node5&#45;&gt;Node3 -->
<g id="edge5" class="edge"><title>Node5&#45;&gt;Node3</title>
<path fill="none" stroke="midnightblue" d="M122.958,-112.317C121.039,-99.1635 115.987,-73.8343 104,-56 95.7455,-43.7191 83.1532,-33.0682 72.0995,-25.2155"/>
<polygon fill="midnightblue" stroke="midnightblue" points="73.9256,-22.2256 63.6768,-19.5401 70.014,-28.0307 73.9256,-22.2256"/>
</g>
<!-- Node5&#45;&gt;Node4 -->
<g id="edge6" class="edge"><title>Node5&#45;&gt;Node4</title>
<path fill="none" stroke="midnightblue" d="M127.374,-112.368C134.376,-94.4563 150.612,-52.9233 159.984,-28.9482"/>
<polygon fill="midnightblue" stroke="midnightblue" points="163.26,-30.1794 163.642,-19.5914 156.741,-27.6308 163.26,-30.1794"/>
</g>
<!-- Node5&#45;&gt;Node6 -->
<g id="edge7" class="edge"><title>Node5&#45;&gt;Node6</title>
<path fill="none" stroke="midnightblue" d="M112.914,-112.324C102.514,-104.185 86.7394,-91.8395 74.2784,-82.0874"/>
<polygon fill="midnightblue" stroke="midnightblue" points="76.3199,-79.2407 66.2878,-75.8339 72.0057,-84.7533 76.3199,-79.2407"/>
</g>
<!-- Node6&#45;&gt;Node3 -->
<g id="edge8" class="edge"><title>Node6&#45;&gt;Node3</title>
<path fill="none" stroke="midnightblue" d="M54.0092,-56.083C53.2141,-48.9272 52.0706,-38.6353 51.0768,-29.6911"/>
<polygon fill="midnightblue" stroke="midnightblue" points="54.5553,-29.3034 49.9723,-19.7511 47.5982,-30.0765 54.5553,-29.3034"/>
</g>
<!-- Node6&#45;&gt;Node4 -->
<g id="edge9" class="edge"><title>Node6&#45;&gt;Node4</title>
<path fill="none" stroke="midnightblue" d="M72.9947,-56.324C91.0377,-47.6247 119.047,-34.1202 139.803,-24.113"/>
<polygon fill="midnightblue" stroke="midnightblue" points="141.562,-27.1502 149.05,-19.6545 138.522,-20.8449 141.562,-27.1502"/>
</g>
</g>
</svg>
