<?xml version="1.0" encoding="UTF-8" standalone="no"?>
<!DOCTYPE svg PUBLIC "-//W3C//DTD SVG 1.1//EN"
 "http://www.w3.org/Graphics/SVG/1.1/DTD/svg11.dtd">
<!-- Generated by graphviz version 2.36.0 (20140111.2315)
 -->
<!-- Title: /home/travis/build/robotology/human&#45;dynamics&#45;estimation/build/human&#45;viz&#45;bridge/_yarp_idl_/thrift/xsensframe/XsensSensorData.h Pages: 1 -->
<svg width="231pt" height="240pt"
 viewBox="0.00 0.00 231.32 240.00" xmlns="http://www.w3.org/2000/svg" xmlns:xlink="http://www.w3.org/1999/xlink">
<g id="graph0" class="graph" transform="scale(1 1) rotate(0) translate(4 236)">
<title>/home/travis/build/robotology/human&#45;dynamics&#45;estimation/build/human&#45;viz&#45;bridge/_yarp_idl_/thrift/xsensframe/XsensSensorData.h</title>
<!-- Node1 -->
<g id="node1" class="node"><title>Node1</title>
<polygon fill="#bfbfbf" stroke="black" points="2.81568,-168.5 2.81568,-231.5 163.816,-231.5 163.816,-168.5 2.81568,-168.5"/>
<text text-anchor="start" x="10.8157" y="-219.5" font-family="Helvetica,sans-Serif" font-size="10.00">/home/travis/build</text>
<text text-anchor="start" x="10.8157" y="-208.5" font-family="Helvetica,sans-Serif" font-size="10.00">/robotology/human&#45;dynamics</text>
<text text-anchor="start" x="10.8157" y="-197.5" font-family="Helvetica,sans-Serif" font-size="10.00">&#45;estimation/build/human</text>
<text text-anchor="start" x="10.8157" y="-186.5" font-family="Helvetica,sans-Serif" font-size="10.00">&#45;viz&#45;bridge/_yarp_idl_/thrift</text>
<text text-anchor="middle" x="83.3157" y="-175.5" font-family="Helvetica,sans-Serif" font-size="10.00">/xsensframe/XsensSensorData.h</text>
</g>
<!-- Node2 -->
<g id="node2" class="node"><title>Node2</title>
<polygon fill="none" stroke="#bfbfbf" points="6.31568,-0.5 6.31568,-19.5 86.3157,-19.5 86.3157,-0.5 6.31568,-0.5"/>
<text text-anchor="middle" x="46.3157" y="-7.5" font-family="Helvetica,sans-Serif" font-size="10.00">yarp/os/Wire.h</text>
</g>
<!-- Node1&#45;&gt;Node2 -->
<g id="edge1" class="edge"><title>Node1&#45;&gt;Node2</title>
<path fill="none" stroke="midnightblue" d="M55.6345,-168.24C36.5207,-144.82 12.7388,-110.779 2.31568,-76 -0.236141,-67.4853 -1.03977,-64.2312 2.31568,-56 7.11568,-44.2251 16.6443,-33.8564 25.6105,-26.0486"/>
<polygon fill="midnightblue" stroke="midnightblue" points="27.9661,-28.6448 33.5348,-19.6314 23.5607,-23.2048 27.9661,-28.6448"/>
</g>
<!-- Node3 -->
<g id="node3" class="node"><title>Node3</title>
<polygon fill="none" stroke="#bfbfbf" points="104.316,-0.5 104.316,-19.5 224.316,-19.5 224.316,-0.5 104.316,-0.5"/>
<text text-anchor="middle" x="164.316" y="-7.5" font-family="Helvetica,sans-Serif" font-size="10.00">yarp/os/idl/WireTypes.h</text>
</g>
<!-- Node1&#45;&gt;Node3 -->
<g id="edge2" class="edge"><title>Node1&#45;&gt;Node3</title>
<path fill="none" stroke="midnightblue" d="M144.129,-168.465C157.439,-158.732 169.789,-146.608 177.316,-132 194.428,-98.7886 181.697,-53.7253 172.186,-29.0299"/>
<polygon fill="midnightblue" stroke="midnightblue" points="175.315,-27.4338 168.283,-19.509 168.838,-30.0892 175.315,-27.4338"/>
</g>
<!-- Node4 -->
<g id="node4" class="node"><title>Node4</title>
<g id="a_node4"><a xlink:href="human-viz-bridge_2autogenerated_2data_2include_2thrift_2_quaternion_8h.html" target="_top" xlink:title="thrift/Quaternion.h">
<polygon fill="none" stroke="black" points="73.8157,-112.5 73.8157,-131.5 168.816,-131.5 168.816,-112.5 73.8157,-112.5"/>
<text text-anchor="middle" x="121.316" y="-119.5" font-family="Helvetica,sans-Serif" font-size="10.00">thrift/Quaternion.h</text>
</a>
</g>
</g>
<!-- Node1&#45;&gt;Node4 -->
<g id="edge3" class="edge"><title>Node1&#45;&gt;Node4</title>
<path fill="none" stroke="midnightblue" d="M98.7717,-168.088C103.395,-158.841 108.309,-149.014 112.364,-140.903"/>
<polygon fill="midnightblue" stroke="midnightblue" points="115.615,-142.228 116.957,-131.718 109.354,-139.097 115.615,-142.228"/>
</g>
<!-- Node5 -->
<g id="node5" class="node"><title>Node5</title>
<g id="a_node5"><a xlink:href="human-viz-bridge_2autogenerated_2data_2include_2thrift_2_vector3_8h.html" target="_top" xlink:title="thrift/Vector3.h">
<polygon fill="none" stroke="black" points="11.8157,-56.5 11.8157,-75.5 92.8157,-75.5 92.8157,-56.5 11.8157,-56.5"/>
<text text-anchor="middle" x="52.3157" y="-63.5" font-family="Helvetica,sans-Serif" font-size="10.00">thrift/Vector3.h</text>
</a>
</g>
</g>
<!-- Node1&#45;&gt;Node5 -->
<g id="edge9" class="edge"><title>Node1&#45;&gt;Node5</title>
<path fill="none" stroke="midnightblue" d="M74.006,-168.471C70.7065,-157.085 67.1205,-144.009 64.3157,-132 60.7225,-116.616 57.5236,-98.9795 55.3339,-85.9629"/>
<polygon fill="midnightblue" stroke="midnightblue" points="58.754,-85.1894 53.685,-75.8859 51.8459,-86.3199 58.754,-85.1894"/>
</g>
<!-- Node4&#45;&gt;Node2 -->
<g id="edge4" class="edge"><title>Node4&#45;&gt;Node2</title>
<path fill="none" stroke="midnightblue" d="M120.273,-112.317C118.354,-99.1635 113.303,-73.8343 101.316,-56 93.0612,-43.7191 80.4689,-33.0682 69.4152,-25.2155"/>
<polygon fill="midnightblue" stroke="midnightblue" points="71.2413,-22.2256 60.9925,-19.5401 67.3297,-28.0307 71.2413,-22.2256"/>
</g>
<!-- Node4&#45;&gt;Node3 -->
<g id="edge5" class="edge"><title>Node4&#45;&gt;Node3</title>
<path fill="none" stroke="midnightblue" d="M124.69,-112.368C131.692,-94.4563 147.927,-52.9233 157.3,-28.9482"/>
<polygon fill="midnightblue" stroke="midnightblue" points="160.576,-30.1794 160.957,-19.5914 154.057,-27.6308 160.576,-30.1794"/>
</g>
<!-- Node4&#45;&gt;Node5 -->
<g id="edge6" class="edge"><title>Node4&#45;&gt;Node5</title>
<path fill="none" stroke="midnightblue" d="M110.23,-112.324C99.8297,-104.185 84.055,-91.8395 71.5941,-82.0874"/>
<polygon fill="midnightblue" stroke="midnightblue" points="73.6356,-79.2407 63.6034,-75.8339 69.3214,-84.7533 73.6356,-79.2407"/>
</g>
<!-- Node5&#45;&gt;Node2 -->
<g id="edge7" class="edge"><title>Node5&#45;&gt;Node2</title>
<path fill="none" stroke="midnightblue" d="M51.3249,-56.083C50.5298,-48.9272 49.3863,-38.6353 48.3925,-29.6911"/>
<polygon fill="midnightblue" stroke="midnightblue" points="51.871,-29.3034 47.288,-19.7511 44.9138,-30.0765 51.871,-29.3034"/>
</g>
<!-- Node5&#45;&gt;Node3 -->
<g id="edge8" class="edge"><title>Node5&#45;&gt;Node3</title>
<path fill="none" stroke="midnightblue" d="M70.3104,-56.324C88.3534,-47.6247 116.363,-34.1202 137.118,-24.113"/>
<polygon fill="midnightblue" stroke="midnightblue" points="138.878,-27.1502 146.366,-19.6545 135.838,-20.8449 138.878,-27.1502"/>
</g>
</g>
</svg>
