<?xml version="1.0" encoding="UTF-8" standalone="no"?>
<!DOCTYPE svg PUBLIC "-//W3C//DTD SVG 1.1//EN"
 "http://www.w3.org/Graphics/SVG/1.1/DTD/svg11.dtd">
<!-- Generated by graphviz version 2.36.0 (20140111.2315)
 -->
<!-- Title: /home/travis/build/robotology/human&#45;dynamics&#45;estimation/build/ros&#45;msgs/_yarp_idl_/msgs/TickTime.h Pages: 1 -->
<svg width="1101pt" height="662pt"
 viewBox="0.00 0.00 1101.00 662.00" xmlns="http://www.w3.org/2000/svg" xmlns:xlink="http://www.w3.org/1999/xlink">
<g id="graph0" class="graph" transform="scale(1 1) rotate(0) translate(4 658)">
<title>/home/travis/build/robotology/human&#45;dynamics&#45;estimation/build/ros&#45;msgs/_yarp_idl_/msgs/TickTime.h</title>
<!-- Node1 -->
<g id="node1" class="node"><title>Node1</title>
<polygon fill="#bfbfbf" stroke="black" points="472.5,-601 472.5,-653 615.5,-653 615.5,-601 472.5,-601"/>
<text text-anchor="start" x="480.5" y="-641" font-family="Helvetica,sans-Serif" font-size="10.00">/home/travis/build</text>
<text text-anchor="start" x="480.5" y="-630" font-family="Helvetica,sans-Serif" font-size="10.00">/robotology/human&#45;dynamics</text>
<text text-anchor="start" x="480.5" y="-619" font-family="Helvetica,sans-Serif" font-size="10.00">&#45;estimation/build/ros&#45;msgs</text>
<text text-anchor="middle" x="544" y="-608" font-family="Helvetica,sans-Serif" font-size="10.00">/_yarp_idl_/msgs/TickTime.h</text>
</g>
<!-- Node2 -->
<g id="node2" class="node"><title>Node2</title>
<g id="a_node2"><a xlink:href="__yarp__idl___2msgs_2geometry__msgs___quaternion_8h.html" target="_top" xlink:title="/home/travis/build\l/robotology/human&#45;dynamics\l&#45;estimation/build/ros&#45;msgs\l/_yarp_idl_/msgs/geometry\l_msgs_Quaternion.h">
<polygon fill="none" stroke="black" points="256,-300.5 256,-363.5 398,-363.5 398,-300.5 256,-300.5"/>
<text text-anchor="start" x="264" y="-351.5" font-family="Helvetica,sans-Serif" font-size="10.00">/home/travis/build</text>
<text text-anchor="start" x="264" y="-340.5" font-family="Helvetica,sans-Serif" font-size="10.00">/robotology/human&#45;dynamics</text>
<text text-anchor="start" x="264" y="-329.5" font-family="Helvetica,sans-Serif" font-size="10.00">&#45;estimation/build/ros&#45;msgs</text>
<text text-anchor="start" x="264" y="-318.5" font-family="Helvetica,sans-Serif" font-size="10.00">/_yarp_idl_/msgs/geometry</text>
<text text-anchor="middle" x="327" y="-307.5" font-family="Helvetica,sans-Serif" font-size="10.00">_msgs_Quaternion.h</text>
</a>
</g>
</g>
<!-- Node1&#45;&gt;Node2 -->
<g id="edge1" class="edge"><title>Node1&#45;&gt;Node2</title>
<path fill="none" stroke="midnightblue" d="M469.97,-596.597C416.421,-570.722 348.644,-527.229 320,-464 305.527,-432.051 311,-391.135 317.659,-363.602"/>
<polygon fill="midnightblue" stroke="midnightblue" points="468.573,-599.808 479.111,-600.912 471.561,-593.478 468.573,-599.808"/>
</g>
<!-- Node3 -->
<g id="node3" class="node"><title>Node3</title>
<g id="a_node3"><a xlink:href="__yarp__idl___2msgs_2geometry__msgs___transform_8h.html" target="_top" xlink:title="/home/travis/build\l/robotology/human&#45;dynamics\l&#45;estimation/build/ros&#45;msgs\l/_yarp_idl_/msgs/geometry\l_msgs_Transform.h">
<polygon fill="none" stroke="black" points="144,-200.5 144,-263.5 286,-263.5 286,-200.5 144,-200.5"/>
<text text-anchor="start" x="152" y="-251.5" font-family="Helvetica,sans-Serif" font-size="10.00">/home/travis/build</text>
<text text-anchor="start" x="152" y="-240.5" font-family="Helvetica,sans-Serif" font-size="10.00">/robotology/human&#45;dynamics</text>
<text text-anchor="start" x="152" y="-229.5" font-family="Helvetica,sans-Serif" font-size="10.00">&#45;estimation/build/ros&#45;msgs</text>
<text text-anchor="start" x="152" y="-218.5" font-family="Helvetica,sans-Serif" font-size="10.00">/_yarp_idl_/msgs/geometry</text>
<text text-anchor="middle" x="215" y="-207.5" font-family="Helvetica,sans-Serif" font-size="10.00">_msgs_Transform.h</text>
</a>
</g>
</g>
<!-- Node1&#45;&gt;Node3 -->
<g id="edge31" class="edge"><title>Node1&#45;&gt;Node3</title>
<path fill="none" stroke="midnightblue" d="M462.618,-613.783C423.371,-604.864 377.278,-589.664 342,-564 254.259,-500.169 234.62,-467.483 202,-364 191.522,-330.759 198.14,-290.634 205.205,-263.624"/>
<polygon fill="midnightblue" stroke="midnightblue" points="461.922,-617.213 472.438,-615.918 463.409,-610.373 461.922,-617.213"/>
</g>
<!-- Node4 -->
<g id="node4" class="node"><title>Node4</title>
<g id="a_node4"><a xlink:href="__yarp__idl___2msgs_2geometry__msgs___transform_stamped_8h.html" target="_top" xlink:title="/home/travis/build\l/robotology/human&#45;dynamics\l&#45;estimation/build/ros&#45;msgs\l/_yarp_idl_/msgs/geometry\l_msgs_TransformStamped.h">
<polygon fill="none" stroke="black" points="285.5,-100.5 285.5,-163.5 428.5,-163.5 428.5,-100.5 285.5,-100.5"/>
<text text-anchor="start" x="293.5" y="-151.5" font-family="Helvetica,sans-Serif" font-size="10.00">/home/travis/build</text>
<text text-anchor="start" x="293.5" y="-140.5" font-family="Helvetica,sans-Serif" font-size="10.00">/robotology/human&#45;dynamics</text>
<text text-anchor="start" x="293.5" y="-129.5" font-family="Helvetica,sans-Serif" font-size="10.00">&#45;estimation/build/ros&#45;msgs</text>
<text text-anchor="start" x="293.5" y="-118.5" font-family="Helvetica,sans-Serif" font-size="10.00">/_yarp_idl_/msgs/geometry</text>
<text text-anchor="middle" x="357" y="-107.5" font-family="Helvetica,sans-Serif" font-size="10.00">_msgs_TransformStamped.h</text>
</a>
</g>
</g>
<!-- Node1&#45;&gt;Node4 -->
<g id="edge32" class="edge"><title>Node1&#45;&gt;Node4</title>
<path fill="none" stroke="midnightblue" d="M462.149,-615.466C391.342,-604.997 295.656,-587.168 265,-564 213.221,-524.868 138.851,-284.977 135,-264 129.864,-236.023 118.04,-222.835 135,-200 153.184,-175.518 227.595,-156.548 285.315,-145.14"/>
<polygon fill="midnightblue" stroke="midnightblue" points="462.006,-618.982 472.405,-616.957 463.013,-612.055 462.006,-618.982"/>
</g>
<!-- Node5 -->
<g id="node5" class="node"><title>Node5</title>
<g id="a_node5"><a xlink:href="__yarp__idl___2msgs_2tf2__msgs___t_f_message_8h.html" target="_top" xlink:title="/home/travis/build\l/robotology/human&#45;dynamics\l&#45;estimation/build/ros&#45;msgs\l/_yarp_idl_/msgs/tf2_msgs\l_TFMessage.h">
<polygon fill="none" stroke="black" points="43,-0.5 43,-63.5 185,-63.5 185,-0.5 43,-0.5"/>
<text text-anchor="start" x="51" y="-51.5" font-family="Helvetica,sans-Serif" font-size="10.00">/home/travis/build</text>
<text text-anchor="start" x="51" y="-40.5" font-family="Helvetica,sans-Serif" font-size="10.00">/robotology/human&#45;dynamics</text>
<text text-anchor="start" x="51" y="-29.5" font-family="Helvetica,sans-Serif" font-size="10.00">&#45;estimation/build/ros&#45;msgs</text>
<text text-anchor="start" x="51" y="-18.5" font-family="Helvetica,sans-Serif" font-size="10.00">/_yarp_idl_/msgs/tf2_msgs</text>
<text text-anchor="middle" x="114" y="-7.5" font-family="Helvetica,sans-Serif" font-size="10.00">_TFMessage.h</text>
</a>
</g>
</g>
<!-- Node1&#45;&gt;Node5 -->
<g id="edge37" class="edge"><title>Node1&#45;&gt;Node5</title>
<path fill="none" stroke="midnightblue" d="M462.106,-614.372C310.185,-590.487 0,-529.859 0,-433 0,-433 0,-433 0,-231 0,-164.56 48.8039,-100.299 82.5472,-63.8078"/>
<polygon fill="midnightblue" stroke="midnightblue" points="461.903,-617.882 472.322,-615.96 462.979,-610.965 461.903,-617.882"/>
</g>
<!-- Node6 -->
<g id="node6" class="node"><title>Node6</title>
<g id="a_node6"><a xlink:href="__yarp__idl___2msgs_2tf__tf_message_8h.html" target="_top" xlink:title="/home/travis/build\l/robotology/human&#45;dynamics\l&#45;estimation/build/ros&#45;msgs\l/_yarp_idl_/msgs/tf_tfMessage.h">
<polygon fill="none" stroke="black" points="396.5,-6 396.5,-58 555.5,-58 555.5,-6 396.5,-6"/>
<text text-anchor="start" x="404.5" y="-46" font-family="Helvetica,sans-Serif" font-size="10.00">/home/travis/build</text>
<text text-anchor="start" x="404.5" y="-35" font-family="Helvetica,sans-Serif" font-size="10.00">/robotology/human&#45;dynamics</text>
<text text-anchor="start" x="404.5" y="-24" font-family="Helvetica,sans-Serif" font-size="10.00">&#45;estimation/build/ros&#45;msgs</text>
<text text-anchor="middle" x="476" y="-13" font-family="Helvetica,sans-Serif" font-size="10.00">/_yarp_idl_/msgs/tf_tfMessage.h</text>
</a>
</g>
</g>
<!-- Node1&#45;&gt;Node6 -->
<g id="edge38" class="edge"><title>Node1&#45;&gt;Node6</title>
<path fill="none" stroke="midnightblue" d="M625.536,-621.37C734.919,-613.994 922.337,-596.923 982,-564 1048.81,-527.13 1093,-509.313 1093,-433 1093,-433 1093,-433 1093,-231 1093,-119.416 722.508,-61.8714 555.714,-41.6192"/>
<polygon fill="midnightblue" stroke="midnightblue" points="625.273,-617.88 615.526,-622.033 625.735,-624.865 625.273,-617.88"/>
</g>
<!-- Node7 -->
<g id="node7" class="node"><title>Node7</title>
<g id="a_node7"><a xlink:href="__yarp__idl___2msgs_2std__msgs___header_8h.html" target="_top" xlink:title="/home/travis/build\l/robotology/human&#45;dynamics\l&#45;estimation/build/ros&#45;msgs\l/_yarp_idl_/msgs/std_msgs\l_Header.h">
<polygon fill="none" stroke="black" points="473,-500.5 473,-563.5 615,-563.5 615,-500.5 473,-500.5"/>
<text text-anchor="start" x="481" y="-551.5" font-family="Helvetica,sans-Serif" font-size="10.00">/home/travis/build</text>
<text text-anchor="start" x="481" y="-540.5" font-family="Helvetica,sans-Serif" font-size="10.00">/robotology/human&#45;dynamics</text>
<text text-anchor="start" x="481" y="-529.5" font-family="Helvetica,sans-Serif" font-size="10.00">&#45;estimation/build/ros&#45;msgs</text>
<text text-anchor="start" x="481" y="-518.5" font-family="Helvetica,sans-Serif" font-size="10.00">/_yarp_idl_/msgs/std_msgs</text>
<text text-anchor="middle" x="544" y="-507.5" font-family="Helvetica,sans-Serif" font-size="10.00">_Header.h</text>
</a>
</g>
</g>
<!-- Node1&#45;&gt;Node7 -->
<g id="edge11" class="edge"><title>Node1&#45;&gt;Node7</title>
<path fill="none" stroke="midnightblue" d="M544,-590.541C544,-581.691 544,-572.274 544,-563.677"/>
<polygon fill="midnightblue" stroke="midnightblue" points="540.5,-590.587 544,-600.587 547.5,-590.587 540.5,-590.587"/>
</g>
<!-- Node8 -->
<g id="node8" class="node"><title>Node8</title>
<g id="a_node8"><a xlink:href="__yarp__idl___2msgs_2geometry__msgs___vector3_8h.html" target="_top" xlink:title="/home/travis/build\l/robotology/human&#45;dynamics\l&#45;estimation/build/ros&#45;msgs\l/_yarp_idl_/msgs/geometry\l_msgs_Vector3.h">
<polygon fill="none" stroke="black" points="355,-400.5 355,-463.5 497,-463.5 497,-400.5 355,-400.5"/>
<text text-anchor="start" x="363" y="-451.5" font-family="Helvetica,sans-Serif" font-size="10.00">/home/travis/build</text>
<text text-anchor="start" x="363" y="-440.5" font-family="Helvetica,sans-Serif" font-size="10.00">/robotology/human&#45;dynamics</text>
<text text-anchor="start" x="363" y="-429.5" font-family="Helvetica,sans-Serif" font-size="10.00">&#45;estimation/build/ros&#45;msgs</text>
<text text-anchor="start" x="363" y="-418.5" font-family="Helvetica,sans-Serif" font-size="10.00">/_yarp_idl_/msgs/geometry</text>
<text text-anchor="middle" x="426" y="-407.5" font-family="Helvetica,sans-Serif" font-size="10.00">_msgs_Vector3.h</text>
</a>
</g>
</g>
<!-- Node1&#45;&gt;Node8 -->
<g id="edge30" class="edge"><title>Node1&#45;&gt;Node8</title>
<path fill="none" stroke="midnightblue" d="M493.619,-594.755C482.587,-585.954 471.868,-575.578 464,-564 443.302,-533.544 433.728,-491.754 429.401,-463.635"/>
<polygon fill="midnightblue" stroke="midnightblue" points="491.594,-597.611 501.672,-600.879 495.831,-592.04 491.594,-597.611"/>
</g>
<!-- Node9 -->
<g id="node9" class="node"><title>Node9</title>
<g id="a_node9"><a xlink:href="__yarp__idl___2msgs_2geometry__msgs___wrench_8h.html" target="_top" xlink:title="/home/travis/build\l/robotology/human&#45;dynamics\l&#45;estimation/build/ros&#45;msgs\l/_yarp_idl_/msgs/geometry\l_msgs_Wrench.h">
<polygon fill="none" stroke="black" points="606,-300.5 606,-363.5 748,-363.5 748,-300.5 606,-300.5"/>
<text text-anchor="start" x="614" y="-351.5" font-family="Helvetica,sans-Serif" font-size="10.00">/home/travis/build</text>
<text text-anchor="start" x="614" y="-340.5" font-family="Helvetica,sans-Serif" font-size="10.00">/robotology/human&#45;dynamics</text>
<text text-anchor="start" x="614" y="-329.5" font-family="Helvetica,sans-Serif" font-size="10.00">&#45;estimation/build/ros&#45;msgs</text>
<text text-anchor="start" x="614" y="-318.5" font-family="Helvetica,sans-Serif" font-size="10.00">/_yarp_idl_/msgs/geometry</text>
<text text-anchor="middle" x="677" y="-307.5" font-family="Helvetica,sans-Serif" font-size="10.00">_msgs_Wrench.h</text>
</a>
</g>
</g>
<!-- Node1&#45;&gt;Node9 -->
<g id="edge33" class="edge"><title>Node1&#45;&gt;Node9</title>
<path fill="none" stroke="midnightblue" d="M625.763,-624.04C732.461,-616.512 915.289,-585.454 998,-464 1014.01,-440.49 1016.53,-421.577 998,-400 963.431,-359.758 813.395,-377.153 762,-364 757.435,-362.832 752.772,-361.511 748.098,-360.091"/>
<polygon fill="midnightblue" stroke="midnightblue" points="625.432,-620.554 615.68,-624.697 625.887,-627.539 625.432,-620.554"/>
</g>
<!-- Node10 -->
<g id="node10" class="node"><title>Node10</title>
<g id="a_node10"><a xlink:href="__yarp__idl___2msgs_2geometry__msgs___wrench_stamped_8h.html" target="_top" xlink:title="/home/travis/build\l/robotology/human&#45;dynamics\l&#45;estimation/build/ros&#45;msgs\l/_yarp_idl_/msgs/geometry\l_msgs_WrenchStamped.h">
<polygon fill="none" stroke="black" points="587,-200.5 587,-263.5 729,-263.5 729,-200.5 587,-200.5"/>
<text text-anchor="start" x="595" y="-251.5" font-family="Helvetica,sans-Serif" font-size="10.00">/home/travis/build</text>
<text text-anchor="start" x="595" y="-240.5" font-family="Helvetica,sans-Serif" font-size="10.00">/robotology/human&#45;dynamics</text>
<text text-anchor="start" x="595" y="-229.5" font-family="Helvetica,sans-Serif" font-size="10.00">&#45;estimation/build/ros&#45;msgs</text>
<text text-anchor="start" x="595" y="-218.5" font-family="Helvetica,sans-Serif" font-size="10.00">/_yarp_idl_/msgs/geometry</text>
<text text-anchor="middle" x="658" y="-207.5" font-family="Helvetica,sans-Serif" font-size="10.00">_msgs_WrenchStamped.h</text>
</a>
</g>
</g>
<!-- Node1&#45;&gt;Node10 -->
<g id="edge34" class="edge"><title>Node1&#45;&gt;Node10</title>
<path fill="none" stroke="midnightblue" d="M625.804,-619.826C724.498,-611.215 883.589,-593.275 935,-564 985.192,-535.419 998.391,-518.328 1018,-464 1065.59,-332.159 847.299,-269.156 729.329,-245.153"/>
<polygon fill="midnightblue" stroke="midnightblue" points="625.225,-616.362 615.561,-620.705 625.823,-623.337 625.225,-616.362"/>
</g>
<!-- Node11 -->
<g id="node11" class="node"><title>Node11</title>
<g id="a_node11"><a xlink:href="__yarp__idl___2msgs_2sensor__msgs___joint_state_8h.html" target="_top" xlink:title="/home/travis/build\l/robotology/human&#45;dynamics\l&#45;estimation/build/ros&#45;msgs\l/_yarp_idl_/msgs/sensor_msgs\l_JointState.h">
<polygon fill="none" stroke="black" points="667,-400.5 667,-463.5 819,-463.5 819,-400.5 667,-400.5"/>
<text text-anchor="start" x="675" y="-451.5" font-family="Helvetica,sans-Serif" font-size="10.00">/home/travis/build</text>
<text text-anchor="start" x="675" y="-440.5" font-family="Helvetica,sans-Serif" font-size="10.00">/robotology/human&#45;dynamics</text>
<text text-anchor="start" x="675" y="-429.5" font-family="Helvetica,sans-Serif" font-size="10.00">&#45;estimation/build/ros&#45;msgs</text>
<text text-anchor="start" x="675" y="-418.5" font-family="Helvetica,sans-Serif" font-size="10.00">/_yarp_idl_/msgs/sensor_msgs</text>
<text text-anchor="middle" x="743" y="-407.5" font-family="Helvetica,sans-Serif" font-size="10.00">_JointState.h</text>
</a>
</g>
</g>
<!-- Node1&#45;&gt;Node11 -->
<g id="edge35" class="edge"><title>Node1&#45;&gt;Node11</title>
<path fill="none" stroke="midnightblue" d="M587.576,-594.426C599.72,-585.045 612.68,-574.469 624,-564 658.74,-531.874 694.747,-490.993 717.925,-463.517"/>
<polygon fill="midnightblue" stroke="midnightblue" points="585.159,-591.867 579.328,-600.713 589.403,-597.434 585.159,-591.867"/>
</g>
<!-- Node12 -->
<g id="node12" class="node"><title>Node12</title>
<g id="a_node12"><a xlink:href="__yarp__idl___2msgs_2sensor__msgs___temperature_8h.html" target="_top" xlink:title="/home/travis/build\l/robotology/human&#45;dynamics\l&#45;estimation/build/ros&#45;msgs\l/_yarp_idl_/msgs/sensor_msgs\l_Temperature.h">
<polygon fill="none" stroke="black" points="837,-400.5 837,-463.5 989,-463.5 989,-400.5 837,-400.5"/>
<text text-anchor="start" x="845" y="-451.5" font-family="Helvetica,sans-Serif" font-size="10.00">/home/travis/build</text>
<text text-anchor="start" x="845" y="-440.5" font-family="Helvetica,sans-Serif" font-size="10.00">/robotology/human&#45;dynamics</text>
<text text-anchor="start" x="845" y="-429.5" font-family="Helvetica,sans-Serif" font-size="10.00">&#45;estimation/build/ros&#45;msgs</text>
<text text-anchor="start" x="845" y="-418.5" font-family="Helvetica,sans-Serif" font-size="10.00">/_yarp_idl_/msgs/sensor_msgs</text>
<text text-anchor="middle" x="913" y="-407.5" font-family="Helvetica,sans-Serif" font-size="10.00">_Temperature.h</text>
</a>
</g>
</g>
<!-- Node1&#45;&gt;Node12 -->
<g id="edge36" class="edge"><title>Node1&#45;&gt;Node12</title>
<path fill="none" stroke="midnightblue" d="M604.794,-596.336C625.264,-586.218 648.187,-574.745 669,-564 733.938,-530.474 807.782,-490.578 857.063,-463.695"/>
<polygon fill="midnightblue" stroke="midnightblue" points="602.998,-593.32 595.578,-600.882 606.095,-599.597 602.998,-593.32"/>
</g>
<!-- Node2&#45;&gt;Node3 -->
<g id="edge2" class="edge"><title>Node2&#45;&gt;Node3</title>
<path fill="none" stroke="midnightblue" d="M284.194,-293.545C272.896,-283.659 260.838,-273.108 250.006,-263.63"/>
<polygon fill="midnightblue" stroke="midnightblue" points="282.039,-296.31 291.87,-300.261 286.649,-291.042 282.039,-296.31"/>
</g>
<!-- Node2&#45;&gt;Node4 -->
<g id="edge8" class="edge"><title>Node2&#45;&gt;Node4</title>
<path fill="none" stroke="midnightblue" d="M333.155,-290.375C338.859,-252.729 347.218,-197.563 352.373,-163.538"/>
<polygon fill="midnightblue" stroke="midnightblue" points="329.659,-290.085 331.622,-300.496 336.58,-291.134 329.659,-290.085"/>
</g>
<!-- Node2&#45;&gt;Node5 -->
<g id="edge9" class="edge"><title>Node2&#45;&gt;Node5</title>
<path fill="none" stroke="midnightblue" d="M323.242,-290.308C319.305,-263.205 311.286,-227.631 295,-200 261.241,-142.724 201.712,-93.4126 160.175,-63.523"/>
<polygon fill="midnightblue" stroke="midnightblue" points="319.776,-290.793 324.559,-300.246 326.715,-289.873 319.776,-290.793"/>
</g>
<!-- Node2&#45;&gt;Node6 -->
<g id="edge10" class="edge"><title>Node2&#45;&gt;Node6</title>
<path fill="none" stroke="midnightblue" d="M357.507,-291.947C381.816,-259.281 415.268,-210.656 437,-164 453.332,-128.938 464.677,-85.4163 470.765,-58.4225"/>
<polygon fill="midnightblue" stroke="midnightblue" points="354.432,-290.212 351.223,-300.309 360.029,-294.417 354.432,-290.212"/>
</g>
<!-- Node3&#45;&gt;Node4 -->
<g id="edge3" class="edge"><title>Node3&#45;&gt;Node4</title>
<path fill="none" stroke="midnightblue" d="M268.035,-194.398C282.713,-184.268 298.488,-173.382 312.618,-163.63"/>
<polygon fill="midnightblue" stroke="midnightblue" points="265.782,-191.7 259.54,-200.261 269.758,-197.462 265.782,-191.7"/>
</g>
<!-- Node3&#45;&gt;Node5 -->
<g id="edge6" class="edge"><title>Node3&#45;&gt;Node5</title>
<path fill="none" stroke="midnightblue" d="M194.768,-191.336C175.556,-153.673 147.082,-97.8537 129.578,-63.5382"/>
<polygon fill="midnightblue" stroke="midnightblue" points="191.778,-193.179 199.44,-200.496 198.014,-189.998 191.778,-193.179"/>
</g>
<!-- Node3&#45;&gt;Node6 -->
<g id="edge7" class="edge"><title>Node3&#45;&gt;Node6</title>
<path fill="none" stroke="midnightblue" d="M224.668,-190.463C233.519,-161.566 249.39,-123.772 276,-100 309.317,-70.2367 356.301,-53.6251 396.359,-44.3895"/>
<polygon fill="midnightblue" stroke="midnightblue" points="221.246,-189.697 221.824,-200.276 227.969,-191.646 221.246,-189.697"/>
</g>
<!-- Node4&#45;&gt;Node5 -->
<g id="edge4" class="edge"><title>Node4&#45;&gt;Node5</title>
<path fill="none" stroke="midnightblue" d="M275.991,-98.3296C246.572,-86.4654 213.578,-73.1591 185.082,-61.6668"/>
<polygon fill="midnightblue" stroke="midnightblue" points="274.823,-101.633 285.406,-102.127 277.441,-95.1406 274.823,-101.633"/>
</g>
<!-- Node4&#45;&gt;Node6 -->
<g id="edge5" class="edge"><title>Node4&#45;&gt;Node6</title>
<path fill="none" stroke="midnightblue" d="M402.229,-93.7529C416.718,-81.8201 432.408,-68.8991 445.578,-58.0536"/>
<polygon fill="midnightblue" stroke="midnightblue" points="399.82,-91.2022 394.326,-100.261 404.27,-96.6057 399.82,-91.2022"/>
</g>
<!-- Node7&#45;&gt;Node2 -->
<g id="edge12" class="edge"><title>Node7&#45;&gt;Node2</title>
<path fill="none" stroke="midnightblue" d="M462.658,-523.381C421.636,-515.201 374.636,-498.396 346,-464 322.768,-436.095 320.975,-392.735 323.008,-363.626"/>
<polygon fill="midnightblue" stroke="midnightblue" points="462.2,-526.856 472.67,-525.234 463.474,-519.973 462.2,-526.856"/>
</g>
<!-- Node7&#45;&gt;Node3 -->
<g id="edge22" class="edge"><title>Node7&#45;&gt;Node3</title>
<path fill="none" stroke="midnightblue" d="M463.028,-516.536C418.699,-506.28 364.002,-489.676 320,-464 264.616,-431.682 241.343,-422.903 216,-364 202.202,-331.931 204.591,-291.221 208.717,-263.762"/>
<polygon fill="midnightblue" stroke="midnightblue" points="462.375,-519.976 472.899,-518.755 463.91,-513.147 462.375,-519.976"/>
</g>
<!-- Node7&#45;&gt;Node4 -->
<g id="edge23" class="edge"><title>Node7&#45;&gt;Node4</title>
<path fill="none" stroke="midnightblue" d="M534.322,-490.314C527.572,-464.11 517.697,-429.545 506,-400 469.27,-307.225 455.444,-285.498 404,-200 396.675,-187.825 387.9,-174.939 379.927,-163.754"/>
<polygon fill="midnightblue" stroke="midnightblue" points="530.996,-491.44 536.841,-500.276 537.782,-489.723 530.996,-491.44"/>
</g>
<!-- Node7&#45;&gt;Node5 -->
<g id="edge28" class="edge"><title>Node7&#45;&gt;Node5</title>
<path fill="none" stroke="midnightblue" d="M462.923,-527.965C396.636,-522.254 302.657,-506.53 232,-464 108.098,-389.42 111.771,-308.501 106,-164 104.865,-135.578 104.311,-128.394 106,-100 106.71,-88.0722 108.124,-75.013 109.568,-63.6175"/>
<polygon fill="midnightblue" stroke="midnightblue" points="462.658,-531.455 472.906,-528.768 463.219,-524.477 462.658,-531.455"/>
</g>
<!-- Node7&#45;&gt;Node6 -->
<g id="edge29" class="edge"><title>Node7&#45;&gt;Node6</title>
<path fill="none" stroke="midnightblue" d="M590.303,-493.511C600.315,-484.375 610.452,-474.263 619,-464 640.318,-438.405 632.228,-421.104 658,-400 694.224,-370.338 730.14,-402.348 757,-364 773.318,-340.702 759.666,-328.319 757,-300 752.759,-254.96 763.378,-237.451 738,-200 691.024,-130.674 604.667,-84.0144 543.971,-58.0256"/>
<polygon fill="midnightblue" stroke="midnightblue" points="587.832,-491.024 582.699,-500.292 592.492,-496.248 587.832,-491.024"/>
</g>
<!-- Node7&#45;&gt;Node8 -->
<g id="edge13" class="edge"><title>Node7&#45;&gt;Node8</title>
<path fill="none" stroke="midnightblue" d="M499.244,-493.83C487.242,-483.862 474.403,-473.199 462.881,-463.63"/>
<polygon fill="midnightblue" stroke="midnightblue" points="497.059,-496.565 506.988,-500.261 501.531,-491.18 497.059,-496.565"/>
</g>
<!-- Node7&#45;&gt;Node9 -->
<g id="edge24" class="edge"><title>Node7&#45;&gt;Node9</title>
<path fill="none" stroke="midnightblue" d="M567.047,-491.305C582.706,-464.96 604.265,-429.865 625,-400 633.481,-387.784 643.365,-374.779 652.223,-363.508"/>
<polygon fill="midnightblue" stroke="midnightblue" points="563.844,-489.847 561.766,-500.236 569.869,-493.41 563.844,-489.847"/>
</g>
<!-- Node7&#45;&gt;Node10 -->
<g id="edge25" class="edge"><title>Node7&#45;&gt;Node10</title>
<path fill="none" stroke="midnightblue" d="M547.066,-490.126C552.048,-442.192 564.834,-361.477 597,-300 603.855,-286.898 613.9,-274.385 623.869,-263.794"/>
<polygon fill="midnightblue" stroke="midnightblue" points="543.578,-489.836 546.091,-500.128 550.545,-490.515 543.578,-489.836"/>
</g>
<!-- Node7&#45;&gt;Node11 -->
<g id="edge26" class="edge"><title>Node7&#45;&gt;Node11</title>
<path fill="none" stroke="midnightblue" d="M615.228,-495.923C636.723,-485.337 660.138,-473.806 680.983,-463.541"/>
<polygon fill="midnightblue" stroke="midnightblue" points="613.571,-492.837 606.146,-500.395 616.664,-499.117 613.571,-492.837"/>
</g>
<!-- Node7&#45;&gt;Node12 -->
<g id="edge27" class="edge"><title>Node7&#45;&gt;Node12</title>
<path fill="none" stroke="midnightblue" d="M625.287,-514.493C682.445,-502.239 760.468,-484.204 828,-464 830.859,-463.145 833.762,-462.245 836.687,-461.314"/>
<polygon fill="midnightblue" stroke="midnightblue" points="624.275,-511.13 615.224,-516.637 625.734,-517.977 624.275,-511.13"/>
</g>
<!-- Node8&#45;&gt;Node2 -->
<g id="edge14" class="edge"><title>Node8&#45;&gt;Node2</title>
<path fill="none" stroke="midnightblue" d="M387.586,-392.974C377.766,-383.253 367.333,-372.926 357.942,-363.63"/>
<polygon fill="midnightblue" stroke="midnightblue" points="385.378,-395.713 394.947,-400.261 390.303,-390.739 385.378,-395.713"/>
</g>
<!-- Node8&#45;&gt;Node3 -->
<g id="edge15" class="edge"><title>Node8&#45;&gt;Node3</title>
<path fill="none" stroke="midnightblue" d="M345.293,-418.199C310.533,-408.74 272.173,-392.35 247,-364 222.439,-336.34 216.006,-292.922 214.68,-263.734"/>
<polygon fill="midnightblue" stroke="midnightblue" points="344.432,-421.591 354.988,-420.687 346.172,-414.811 344.432,-421.591"/>
</g>
<!-- Node8&#45;&gt;Node4 -->
<g id="edge16" class="edge"><title>Node8&#45;&gt;Node4</title>
<path fill="none" stroke="midnightblue" d="M421.634,-390.095C418.477,-364.117 413.602,-329.879 407,-300 396.324,-251.683 378.89,-196.964 367.685,-163.729"/>
<polygon fill="midnightblue" stroke="midnightblue" points="418.194,-390.809 422.842,-400.33 425.146,-389.989 418.194,-390.809"/>
</g>
<!-- Node8&#45;&gt;Node5 -->
<g id="edge20" class="edge"><title>Node8&#45;&gt;Node5</title>
<path fill="none" stroke="midnightblue" d="M345.045,-416.732C303.839,-406.721 254.467,-390.283 216,-364 168.776,-331.733 156.519,-316.993 135,-264 107.652,-196.654 108.429,-109.438 111.266,-63.8522"/>
<polygon fill="midnightblue" stroke="midnightblue" points="344.252,-420.141 354.788,-419.018 345.851,-413.326 344.252,-420.141"/>
</g>
<!-- Node8&#45;&gt;Node6 -->
<g id="edge21" class="edge"><title>Node8&#45;&gt;Node6</title>
<path fill="none" stroke="midnightblue" d="M432.137,-390.324C439.911,-338.03 453.446,-244.379 463,-164 467.37,-127.234 471.415,-84.5409 473.797,-58.1451"/>
<polygon fill="midnightblue" stroke="midnightblue" points="428.675,-389.808 430.662,-400.215 435.599,-390.841 428.675,-389.808"/>
</g>
<!-- Node8&#45;&gt;Node9 -->
<g id="edge17" class="edge"><title>Node8&#45;&gt;Node9</title>
<path fill="none" stroke="midnightblue" d="M506.955,-399.392C538.699,-386.998 574.811,-372.899 605.567,-360.89"/>
<polygon fill="midnightblue" stroke="midnightblue" points="505.297,-396.282 497.255,-403.179 507.843,-402.803 505.297,-396.282"/>
</g>
<!-- Node8&#45;&gt;Node10 -->
<g id="edge19" class="edge"><title>Node8&#45;&gt;Node10</title>
<path fill="none" stroke="midnightblue" d="M463.164,-392.98C490.218,-365.995 528.233,-329.479 564,-300 579.156,-287.509 596.483,-274.763 612.098,-263.787"/>
<polygon fill="midnightblue" stroke="midnightblue" points="460.421,-390.774 455.835,-400.325 465.376,-395.718 460.421,-390.774"/>
</g>
<!-- Node9&#45;&gt;Node10 -->
<g id="edge18" class="edge"><title>Node9&#45;&gt;Node10</title>
<path fill="none" stroke="midnightblue" d="M669.126,-290.387C667.391,-281.439 665.582,-272.106 663.938,-263.63"/>
<polygon fill="midnightblue" stroke="midnightblue" points="665.701,-291.11 671.04,-300.261 672.573,-289.778 665.701,-291.11"/>
</g>
</g>
</svg>
