<?xml version="1.0" encoding="UTF-8" standalone="no"?>
<!DOCTYPE svg PUBLIC "-//W3C//DTD SVG 1.1//EN"
 "http://www.w3.org/Graphics/SVG/1.1/DTD/svg11.dtd">
<!-- Generated by graphviz version 2.36.0 (20140111.2315)
 -->
<!-- Title: /home/travis/build/robotology/human&#45;dynamics&#45;estimation/build/human&#45;viz&#45;bridge/_yarp_idl_/thrift/xsensframe/XsensSegmentData.cpp Pages: 1 -->
<svg width="238pt" height="296pt"
 viewBox="0.00 0.00 238.00 296.00" xmlns="http://www.w3.org/2000/svg" xmlns:xlink="http://www.w3.org/1999/xlink">
<g id="graph0" class="graph" transform="scale(1 1) rotate(0) translate(4 292)">
<title>/home/travis/build/robotology/human&#45;dynamics&#45;estimation/build/human&#45;viz&#45;bridge/_yarp_idl_/thrift/xsensframe/XsensSegmentData.cpp</title>
<!-- Node1 -->
<g id="node1" class="node"><title>Node1</title>
<polygon fill="#bfbfbf" stroke="black" points="0,-224.5 0,-287.5 180,-287.5 180,-224.5 0,-224.5"/>
<text text-anchor="start" x="8" y="-275.5" font-family="Helvetica,sans-Serif" font-size="10.00">/home/travis/build</text>
<text text-anchor="start" x="8" y="-264.5" font-family="Helvetica,sans-Serif" font-size="10.00">/robotology/human&#45;dynamics</text>
<text text-anchor="start" x="8" y="-253.5" font-family="Helvetica,sans-Serif" font-size="10.00">&#45;estimation/build/human</text>
<text text-anchor="start" x="8" y="-242.5" font-family="Helvetica,sans-Serif" font-size="10.00">&#45;viz&#45;bridge/_yarp_idl_/thrift</text>
<text text-anchor="middle" x="90" y="-231.5" font-family="Helvetica,sans-Serif" font-size="10.00">/xsensframe/XsensSegmentData.cpp</text>
</g>
<!-- Node2 -->
<g id="node2" class="node"><title>Node2</title>
<g id="a_node2"><a xlink:href="autogenerated_2data_2include_2thrift_2_xsens_segment_data_8h.html" target="_top" xlink:title="thrift/XsensSegmentData.h">
<polygon fill="none" stroke="black" points="22.5,-168.5 22.5,-187.5 157.5,-187.5 157.5,-168.5 22.5,-168.5"/>
<text text-anchor="middle" x="90" y="-175.5" font-family="Helvetica,sans-Serif" font-size="10.00">thrift/XsensSegmentData.h</text>
</a>
</g>
</g>
<!-- Node1&#45;&gt;Node2 -->
<g id="edge1" class="edge"><title>Node1&#45;&gt;Node2</title>
<path fill="none" stroke="midnightblue" d="M90,-224.088C90,-215.15 90,-205.669 90,-197.719"/>
<polygon fill="midnightblue" stroke="midnightblue" points="93.5001,-197.718 90,-187.718 86.5001,-197.718 93.5001,-197.718"/>
</g>
<!-- Node3 -->
<g id="node3" class="node"><title>Node3</title>
<polygon fill="none" stroke="#bfbfbf" points="13,-0.5 13,-19.5 93,-19.5 93,-0.5 13,-0.5"/>
<text text-anchor="middle" x="53" y="-7.5" font-family="Helvetica,sans-Serif" font-size="10.00">yarp/os/Wire.h</text>
</g>
<!-- Node2&#45;&gt;Node3 -->
<g id="edge2" class="edge"><title>Node2&#45;&gt;Node3</title>
<path fill="none" stroke="midnightblue" d="M79.4481,-168.356C60.9197,-152.41 23.1605,-116.291 9,-76 6.05266,-67.614 5.64456,-64.2312 9,-56 13.8,-44.2251 23.3286,-33.8564 32.2948,-26.0486"/>
<polygon fill="midnightblue" stroke="midnightblue" points="34.6504,-28.6448 40.2191,-19.6314 30.245,-23.2048 34.6504,-28.6448"/>
</g>
<!-- Node4 -->
<g id="node4" class="node"><title>Node4</title>
<polygon fill="none" stroke="#bfbfbf" points="111,-0.5 111,-19.5 231,-19.5 231,-0.5 111,-0.5"/>
<text text-anchor="middle" x="171" y="-7.5" font-family="Helvetica,sans-Serif" font-size="10.00">yarp/os/idl/WireTypes.h</text>
</g>
<!-- Node2&#45;&gt;Node4 -->
<g id="edge3" class="edge"><title>Node2&#45;&gt;Node4</title>
<path fill="none" stroke="midnightblue" d="M130.147,-168.429C149.975,-161.953 172.138,-150.83 184,-132 204.003,-100.247 189.989,-54.3051 179.534,-29.1509"/>
<polygon fill="midnightblue" stroke="midnightblue" points="182.622,-27.479 175.38,-19.7452 176.218,-30.3068 182.622,-27.479"/>
</g>
<!-- Node5 -->
<g id="node5" class="node"><title>Node5</title>
<g id="a_node5"><a xlink:href="human-viz-bridge_2autogenerated_2data_2include_2thrift_2_quaternion_8h.html" target="_top" xlink:title="thrift/Quaternion.h">
<polygon fill="none" stroke="black" points="80.5,-112.5 80.5,-131.5 175.5,-131.5 175.5,-112.5 80.5,-112.5"/>
<text text-anchor="middle" x="128" y="-119.5" font-family="Helvetica,sans-Serif" font-size="10.00">thrift/Quaternion.h</text>
</a>
</g>
</g>
<!-- Node2&#45;&gt;Node5 -->
<g id="edge4" class="edge"><title>Node2&#45;&gt;Node5</title>
<path fill="none" stroke="midnightblue" d="M96.2749,-168.083C101.642,-160.455 109.518,-149.264 116.079,-139.941"/>
<polygon fill="midnightblue" stroke="midnightblue" points="118.949,-141.943 121.842,-131.751 113.225,-137.915 118.949,-141.943"/>
</g>
<!-- Node6 -->
<g id="node6" class="node"><title>Node6</title>
<g id="a_node6"><a xlink:href="human-viz-bridge_2autogenerated_2data_2include_2thrift_2_vector3_8h.html" target="_top" xlink:title="thrift/Vector3.h">
<polygon fill="none" stroke="black" points="18.5,-56.5 18.5,-75.5 99.5,-75.5 99.5,-56.5 18.5,-56.5"/>
<text text-anchor="middle" x="59" y="-63.5" font-family="Helvetica,sans-Serif" font-size="10.00">thrift/Vector3.h</text>
</a>
</g>
</g>
<!-- Node2&#45;&gt;Node6 -->
<g id="edge10" class="edge"><title>Node2&#45;&gt;Node6</title>
<path fill="none" stroke="midnightblue" d="M85.6308,-168.245C81.342,-159.327 74.8934,-144.998 71,-132 66.4158,-116.696 63.2686,-98.8139 61.3513,-85.684"/>
<polygon fill="midnightblue" stroke="midnightblue" points="64.7896,-84.9921 59.9777,-75.553 57.8531,-85.9326 64.7896,-84.9921"/>
</g>
<!-- Node5&#45;&gt;Node3 -->
<g id="edge5" class="edge"><title>Node5&#45;&gt;Node3</title>
<path fill="none" stroke="midnightblue" d="M126.958,-112.317C125.039,-99.1635 119.987,-73.8343 108,-56 99.7455,-43.7191 87.1532,-33.0682 76.0995,-25.2155"/>
<polygon fill="midnightblue" stroke="midnightblue" points="77.9256,-22.2256 67.6768,-19.5401 74.014,-28.0307 77.9256,-22.2256"/>
</g>
<!-- Node5&#45;&gt;Node4 -->
<g id="edge6" class="edge"><title>Node5&#45;&gt;Node4</title>
<path fill="none" stroke="midnightblue" d="M131.374,-112.368C138.376,-94.4563 154.612,-52.9233 163.984,-28.9482"/>
<polygon fill="midnightblue" stroke="midnightblue" points="167.26,-30.1794 167.642,-19.5914 160.741,-27.6308 167.26,-30.1794"/>
</g>
<!-- Node5&#45;&gt;Node6 -->
<g id="edge7" class="edge"><title>Node5&#45;&gt;Node6</title>
<path fill="none" stroke="midnightblue" d="M116.914,-112.324C106.514,-104.185 90.7394,-91.8395 78.2784,-82.0874"/>
<polygon fill="midnightblue" stroke="midnightblue" points="80.3199,-79.2407 70.2878,-75.8339 76.0057,-84.7533 80.3199,-79.2407"/>
</g>
<!-- Node6&#45;&gt;Node3 -->
<g id="edge8" class="edge"><title>Node6&#45;&gt;Node3</title>
<path fill="none" stroke="midnightblue" d="M58.0092,-56.083C57.2141,-48.9272 56.0706,-38.6353 55.0768,-29.6911"/>
<polygon fill="midnightblue" stroke="midnightblue" points="58.5553,-29.3034 53.9723,-19.7511 51.5982,-30.0765 58.5553,-29.3034"/>
</g>
<!-- Node6&#45;&gt;Node4 -->
<g id="edge9" class="edge"><title>Node6&#45;&gt;Node4</title>
<path fill="none" stroke="midnightblue" d="M76.9947,-56.324C95.0377,-47.6247 123.047,-34.1202 143.803,-24.113"/>
<polygon fill="midnightblue" stroke="midnightblue" points="145.562,-27.1502 153.05,-19.6545 142.522,-20.8449 145.562,-27.1502"/>
</g>
</g>
</svg>
