<?xml version="1.0" encoding="UTF-8" standalone="no"?>
<!DOCTYPE svg PUBLIC "-//W3C//DTD SVG 1.1//EN"
 "http://www.w3.org/Graphics/SVG/1.1/DTD/svg11.dtd">
<!-- Generated by graphviz version 2.36.0 (20140111.2315)
 -->
<!-- Title: /home/travis/build/robotology/human&#45;dynamics&#45;estimation/build/human&#45;viz&#45;bridge/_yarp_idl_/thrift/xsensframe/XsensSegmentData.h Pages: 1 -->
<svg width="233pt" height="240pt"
 viewBox="0.00 0.00 233.00 240.00" xmlns="http://www.w3.org/2000/svg" xmlns:xlink="http://www.w3.org/1999/xlink">
<g id="graph0" class="graph" transform="scale(1 1) rotate(0) translate(4 236)">
<title>/home/travis/build/robotology/human&#45;dynamics&#45;estimation/build/human&#45;viz&#45;bridge/_yarp_idl_/thrift/xsensframe/XsensSegmentData.h</title>
<!-- Node1 -->
<g id="node1" class="node"><title>Node1</title>
<polygon fill="#bfbfbf" stroke="black" points="0,-168.5 0,-231.5 170,-231.5 170,-168.5 0,-168.5"/>
<text text-anchor="start" x="8" y="-219.5" font-family="Helvetica,sans-Serif" font-size="10.00">/home/travis/build</text>
<text text-anchor="start" x="8" y="-208.5" font-family="Helvetica,sans-Serif" font-size="10.00">/robotology/human&#45;dynamics</text>
<text text-anchor="start" x="8" y="-197.5" font-family="Helvetica,sans-Serif" font-size="10.00">&#45;estimation/build/human</text>
<text text-anchor="start" x="8" y="-186.5" font-family="Helvetica,sans-Serif" font-size="10.00">&#45;viz&#45;bridge/_yarp_idl_/thrift</text>
<text text-anchor="middle" x="85" y="-175.5" font-family="Helvetica,sans-Serif" font-size="10.00">/xsensframe/XsensSegmentData.h</text>
</g>
<!-- Node2 -->
<g id="node2" class="node"><title>Node2</title>
<polygon fill="none" stroke="#bfbfbf" points="8,-0.5 8,-19.5 88,-19.5 88,-0.5 8,-0.5"/>
<text text-anchor="middle" x="48" y="-7.5" font-family="Helvetica,sans-Serif" font-size="10.00">yarp/os/Wire.h</text>
</g>
<!-- Node1&#45;&gt;Node2 -->
<g id="edge1" class="edge"><title>Node1&#45;&gt;Node2</title>
<path fill="none" stroke="midnightblue" d="M57.3188,-168.24C38.205,-144.82 14.4231,-110.779 4,-76 1.44818,-67.4853 0.644557,-64.2312 4,-56 8.80001,-44.2251 18.3286,-33.8564 27.2948,-26.0486"/>
<polygon fill="midnightblue" stroke="midnightblue" points="29.6504,-28.6448 35.2191,-19.6314 25.245,-23.2048 29.6504,-28.6448"/>
</g>
<!-- Node3 -->
<g id="node3" class="node"><title>Node3</title>
<polygon fill="none" stroke="#bfbfbf" points="106,-0.5 106,-19.5 226,-19.5 226,-0.5 106,-0.5"/>
<text text-anchor="middle" x="166" y="-7.5" font-family="Helvetica,sans-Serif" font-size="10.00">yarp/os/idl/WireTypes.h</text>
</g>
<!-- Node1&#45;&gt;Node3 -->
<g id="edge2" class="edge"><title>Node1&#45;&gt;Node3</title>
<path fill="none" stroke="midnightblue" d="M145.813,-168.465C159.124,-158.732 171.473,-146.608 179,-132 196.112,-98.7886 183.381,-53.7253 173.87,-29.0299"/>
<polygon fill="midnightblue" stroke="midnightblue" points="176.999,-27.4338 169.967,-19.509 170.522,-30.0892 176.999,-27.4338"/>
</g>
<!-- Node4 -->
<g id="node4" class="node"><title>Node4</title>
<g id="a_node4"><a xlink:href="human-viz-bridge_2autogenerated_2data_2include_2thrift_2_quaternion_8h.html" target="_top" xlink:title="thrift/Quaternion.h">
<polygon fill="none" stroke="black" points="75.5,-112.5 75.5,-131.5 170.5,-131.5 170.5,-112.5 75.5,-112.5"/>
<text text-anchor="middle" x="123" y="-119.5" font-family="Helvetica,sans-Serif" font-size="10.00">thrift/Quaternion.h</text>
</a>
</g>
</g>
<!-- Node1&#45;&gt;Node4 -->
<g id="edge3" class="edge"><title>Node1&#45;&gt;Node4</title>
<path fill="none" stroke="midnightblue" d="M100.456,-168.088C105.079,-158.841 109.993,-149.014 114.049,-140.903"/>
<polygon fill="midnightblue" stroke="midnightblue" points="117.299,-142.228 118.641,-131.718 111.038,-139.097 117.299,-142.228"/>
</g>
<!-- Node5 -->
<g id="node5" class="node"><title>Node5</title>
<g id="a_node5"><a xlink:href="human-viz-bridge_2autogenerated_2data_2include_2thrift_2_vector3_8h.html" target="_top" xlink:title="thrift/Vector3.h">
<polygon fill="none" stroke="black" points="13.5,-56.5 13.5,-75.5 94.5,-75.5 94.5,-56.5 13.5,-56.5"/>
<text text-anchor="middle" x="54" y="-63.5" font-family="Helvetica,sans-Serif" font-size="10.00">thrift/Vector3.h</text>
</a>
</g>
</g>
<!-- Node1&#45;&gt;Node5 -->
<g id="edge9" class="edge"><title>Node1&#45;&gt;Node5</title>
<path fill="none" stroke="midnightblue" d="M75.6903,-168.471C72.3909,-157.085 68.8048,-144.009 66,-132 62.4069,-116.616 59.2079,-98.9795 57.0183,-85.9629"/>
<polygon fill="midnightblue" stroke="midnightblue" points="60.4383,-85.1894 55.3694,-75.8859 53.5302,-86.3199 60.4383,-85.1894"/>
</g>
<!-- Node4&#45;&gt;Node2 -->
<g id="edge4" class="edge"><title>Node4&#45;&gt;Node2</title>
<path fill="none" stroke="midnightblue" d="M121.958,-112.317C120.039,-99.1635 114.987,-73.8343 103,-56 94.7455,-43.7191 82.1532,-33.0682 71.0995,-25.2155"/>
<polygon fill="midnightblue" stroke="midnightblue" points="72.9256,-22.2256 62.6768,-19.5401 69.014,-28.0307 72.9256,-22.2256"/>
</g>
<!-- Node4&#45;&gt;Node3 -->
<g id="edge5" class="edge"><title>Node4&#45;&gt;Node3</title>
<path fill="none" stroke="midnightblue" d="M126.374,-112.368C133.376,-94.4563 149.612,-52.9233 158.984,-28.9482"/>
<polygon fill="midnightblue" stroke="midnightblue" points="162.26,-30.1794 162.642,-19.5914 155.741,-27.6308 162.26,-30.1794"/>
</g>
<!-- Node4&#45;&gt;Node5 -->
<g id="edge6" class="edge"><title>Node4&#45;&gt;Node5</title>
<path fill="none" stroke="midnightblue" d="M111.914,-112.324C101.514,-104.185 85.7394,-91.8395 73.2784,-82.0874"/>
<polygon fill="midnightblue" stroke="midnightblue" points="75.3199,-79.2407 65.2878,-75.8339 71.0057,-84.7533 75.3199,-79.2407"/>
</g>
<!-- Node5&#45;&gt;Node2 -->
<g id="edge7" class="edge"><title>Node5&#45;&gt;Node2</title>
<path fill="none" stroke="midnightblue" d="M53.0092,-56.083C52.2141,-48.9272 51.0706,-38.6353 50.0768,-29.6911"/>
<polygon fill="midnightblue" stroke="midnightblue" points="53.5553,-29.3034 48.9723,-19.7511 46.5982,-30.0765 53.5553,-29.3034"/>
</g>
<!-- Node5&#45;&gt;Node3 -->
<g id="edge8" class="edge"><title>Node5&#45;&gt;Node3</title>
<path fill="none" stroke="midnightblue" d="M71.9947,-56.324C90.0377,-47.6247 118.047,-34.1202 138.803,-24.113"/>
<polygon fill="midnightblue" stroke="midnightblue" points="140.562,-27.1502 148.05,-19.6545 137.522,-20.8449 140.562,-27.1502"/>
</g>
</g>
</svg>
