<?xml version="1.0" encoding="UTF-8" standalone="no"?>
<!DOCTYPE svg PUBLIC "-//W3C//DTD SVG 1.1//EN"
 "http://www.w3.org/Graphics/SVG/1.1/DTD/svg11.dtd">
<!-- Generated by graphviz version 2.36.0 (20140111.2315)
 -->
<!-- Title: /home/travis/build/robotology/human&#45;dynamics&#45;estimation/build/ros&#45;msgs/_yarp_idl_/msgs/TickTime.h Pages: 1 -->
<svg width="347pt" height="118pt"
 viewBox="0.00 0.00 347.00 118.00" xmlns="http://www.w3.org/2000/svg" xmlns:xlink="http://www.w3.org/1999/xlink">
<g id="graph0" class="graph" transform="scale(1 1) rotate(0) translate(4 114)">
<title>/home/travis/build/robotology/human&#45;dynamics&#45;estimation/build/ros&#45;msgs/_yarp_idl_/msgs/TickTime.h</title>
<!-- Node1 -->
<g id="node1" class="node"><title>Node1</title>
<polygon fill="#bfbfbf" stroke="black" points="49.5,-57 49.5,-109 192.5,-109 192.5,-57 49.5,-57"/>
<text text-anchor="start" x="57.5" y="-97" font-family="Helvetica,sans-Serif" font-size="10.00">/home/travis/build</text>
<text text-anchor="start" x="57.5" y="-86" font-family="Helvetica,sans-Serif" font-size="10.00">/robotology/human&#45;dynamics</text>
<text text-anchor="start" x="57.5" y="-75" font-family="Helvetica,sans-Serif" font-size="10.00">&#45;estimation/build/ros&#45;msgs</text>
<text text-anchor="middle" x="121" y="-64" font-family="Helvetica,sans-Serif" font-size="10.00">/_yarp_idl_/msgs/TickTime.h</text>
</g>
<!-- Node2 -->
<g id="node2" class="node"><title>Node2</title>
<polygon fill="none" stroke="#bfbfbf" points="-0.5,-0.5 -0.5,-19.5 40.5,-19.5 40.5,-0.5 -0.5,-0.5"/>
<text text-anchor="middle" x="20" y="-7.5" font-family="Helvetica,sans-Serif" font-size="10.00">string</text>
</g>
<!-- Node1&#45;&gt;Node2 -->
<g id="edge1" class="edge"><title>Node1&#45;&gt;Node2</title>
<path fill="none" stroke="midnightblue" d="M85.3912,-56.9681C70.4402,-46.4579 53.5767,-34.6034 40.7199,-25.5655"/>
<polygon fill="midnightblue" stroke="midnightblue" points="42.7256,-22.6972 32.5319,-19.8095 38.7,-28.4238 42.7256,-22.6972"/>
</g>
<!-- Node3 -->
<g id="node3" class="node"><title>Node3</title>
<polygon fill="none" stroke="#bfbfbf" points="59,-0.5 59,-19.5 103,-19.5 103,-0.5 59,-0.5"/>
<text text-anchor="middle" x="81" y="-7.5" font-family="Helvetica,sans-Serif" font-size="10.00">vector</text>
</g>
<!-- Node1&#45;&gt;Node3 -->
<g id="edge2" class="edge"><title>Node1&#45;&gt;Node3</title>
<path fill="none" stroke="midnightblue" d="M106.785,-56.7681C101.556,-47.4861 95.749,-37.1794 90.9721,-28.7004"/>
<polygon fill="midnightblue" stroke="midnightblue" points="93.8915,-26.7517 85.9336,-19.7572 87.7927,-30.1876 93.8915,-26.7517"/>
</g>
<!-- Node4 -->
<g id="node4" class="node"><title>Node4</title>
<polygon fill="none" stroke="#bfbfbf" points="121,-0.5 121,-19.5 201,-19.5 201,-0.5 121,-0.5"/>
<text text-anchor="middle" x="161" y="-7.5" font-family="Helvetica,sans-Serif" font-size="10.00">yarp/os/Wire.h</text>
</g>
<!-- Node1&#45;&gt;Node4 -->
<g id="edge3" class="edge"><title>Node1&#45;&gt;Node4</title>
<path fill="none" stroke="midnightblue" d="M135.215,-56.7681C140.444,-47.4861 146.251,-37.1794 151.028,-28.7004"/>
<polygon fill="midnightblue" stroke="midnightblue" points="154.207,-30.1876 156.066,-19.7572 148.109,-26.7517 154.207,-30.1876"/>
</g>
<!-- Node5 -->
<g id="node5" class="node"><title>Node5</title>
<polygon fill="none" stroke="#bfbfbf" points="219,-0.5 219,-19.5 339,-19.5 339,-0.5 219,-0.5"/>
<text text-anchor="middle" x="279" y="-7.5" font-family="Helvetica,sans-Serif" font-size="10.00">yarp/os/idl/WireTypes.h</text>
</g>
<!-- Node1&#45;&gt;Node5 -->
<g id="edge4" class="edge"><title>Node1&#45;&gt;Node5</title>
<path fill="none" stroke="midnightblue" d="M176.705,-56.9681C201.596,-45.783 229.875,-33.0753 250.382,-23.8601"/>
<polygon fill="midnightblue" stroke="midnightblue" points="252.089,-26.9303 259.775,-19.6389 249.219,-20.5453 252.089,-26.9303"/>
</g>
</g>
</svg>
