<?xml version="1.0" encoding="UTF-8" standalone="no"?>
<!DOCTYPE svg PUBLIC "-//W3C//DTD SVG 1.1//EN"
 "http://www.w3.org/Graphics/SVG/1.1/DTD/svg11.dtd">
<!-- Generated by graphviz version 2.36.0 (20140111.2315)
 -->
<!-- Title: /home/travis/build/robotology/human&#45;dynamics&#45;estimation/build/human&#45;state&#45;provider/_yarp_idl_/thrifts/humanstateproviderservice/HumanStateProviderService.cpp Pages: 1 -->
<svg width="230pt" height="208pt"
 viewBox="0.00 0.00 230.00 208.00" xmlns="http://www.w3.org/2000/svg" xmlns:xlink="http://www.w3.org/1999/xlink">
<g id="graph0" class="graph" transform="scale(1 1) rotate(0) translate(4 204)">
<title>/home/travis/build/robotology/human&#45;dynamics&#45;estimation/build/human&#45;state&#45;provider/_yarp_idl_/thrifts/humanstateproviderservice/HumanStateProviderService.cpp</title>
<!-- Node1 -->
<g id="node1" class="node"><title>Node1</title>
<polygon fill="#bfbfbf" stroke="black" points="30,-125 30,-199 200,-199 200,-125 30,-125"/>
<text text-anchor="start" x="38" y="-187" font-family="Helvetica,sans-Serif" font-size="10.00">/home/travis/build</text>
<text text-anchor="start" x="38" y="-176" font-family="Helvetica,sans-Serif" font-size="10.00">/robotology/human&#45;dynamics</text>
<text text-anchor="start" x="38" y="-165" font-family="Helvetica,sans-Serif" font-size="10.00">&#45;estimation/build/human</text>
<text text-anchor="start" x="38" y="-154" font-family="Helvetica,sans-Serif" font-size="10.00">&#45;state&#45;provider/_yarp_idl</text>
<text text-anchor="start" x="38" y="-143" font-family="Helvetica,sans-Serif" font-size="10.00">_/thrifts/humanstateproviderservice</text>
<text text-anchor="middle" x="115" y="-132" font-family="Helvetica,sans-Serif" font-size="10.00">/HumanStateProviderService.cpp</text>
</g>
<!-- Node2 -->
<g id="node2" class="node"><title>Node2</title>
<g id="a_node2"><a xlink:href="autogenerated_2include_2thrifts_2_human_state_provider_service_8h.html" target="_top" xlink:title="thrifts/HumanStateProvider\lService.h">
<polygon fill="none" stroke="black" points="-0.5,-57 -0.5,-87 134.5,-87 134.5,-57 -0.5,-57"/>
<text text-anchor="start" x="7.5" y="-75" font-family="Helvetica,sans-Serif" font-size="10.00">thrifts/HumanStateProvider</text>
<text text-anchor="middle" x="67" y="-64" font-family="Helvetica,sans-Serif" font-size="10.00">Service.h</text>
</a>
</g>
</g>
<!-- Node1&#45;&gt;Node2 -->
<g id="edge1" class="edge"><title>Node1&#45;&gt;Node2</title>
<path fill="none" stroke="midnightblue" d="M95.3381,-124.953C90.0144,-115.193 84.3961,-104.893 79.5785,-96.0606"/>
<polygon fill="midnightblue" stroke="midnightblue" points="82.5782,-94.2508 74.717,-87.1479 76.433,-97.6028 82.5782,-94.2508"/>
</g>
<!-- Node4 -->
<g id="node4" class="node"><title>Node4</title>
<polygon fill="none" stroke="#bfbfbf" points="103,-0.5 103,-19.5 223,-19.5 223,-0.5 103,-0.5"/>
<text text-anchor="middle" x="163" y="-7.5" font-family="Helvetica,sans-Serif" font-size="10.00">yarp/os/idl/WireTypes.h</text>
</g>
<!-- Node1&#45;&gt;Node4 -->
<g id="edge4" class="edge"><title>Node1&#45;&gt;Node4</title>
<path fill="none" stroke="midnightblue" d="M129.768,-124.896C134.296,-113.22 139.105,-100.151 143,-88 149.31,-68.3144 155.078,-45.3271 158.781,-29.6278"/>
<polygon fill="midnightblue" stroke="midnightblue" points="162.249,-30.1671 161.091,-19.6357 155.428,-28.5906 162.249,-30.1671"/>
</g>
<!-- Node3 -->
<g id="node3" class="node"><title>Node3</title>
<polygon fill="none" stroke="#bfbfbf" points="5,-0.5 5,-19.5 85,-19.5 85,-0.5 5,-0.5"/>
<text text-anchor="middle" x="45" y="-7.5" font-family="Helvetica,sans-Serif" font-size="10.00">yarp/os/Wire.h</text>
</g>
<!-- Node2&#45;&gt;Node3 -->
<g id="edge2" class="edge"><title>Node2&#45;&gt;Node3</title>
<path fill="none" stroke="midnightblue" d="M61.7863,-56.7808C58.7542,-48.5115 54.9022,-38.006 51.6531,-29.1448"/>
<polygon fill="midnightblue" stroke="midnightblue" points="54.9299,-27.9144 48.2012,-19.7305 48.3577,-30.3242 54.9299,-27.9144"/>
</g>
<!-- Node2&#45;&gt;Node4 -->
<g id="edge3" class="edge"><title>Node2&#45;&gt;Node4</title>
<path fill="none" stroke="midnightblue" d="M89.7507,-56.7808C105.087,-47.1958 125.23,-34.6062 140.511,-25.0555"/>
<polygon fill="midnightblue" stroke="midnightblue" points="142.686,-27.8237 149.311,-19.5557 138.976,-21.8877 142.686,-27.8237"/>
</g>
</g>
</svg>
