<?xml version="1.0" encoding="UTF-8" standalone="no"?>
<!DOCTYPE svg PUBLIC "-//W3C//DTD SVG 1.1//EN"
 "http://www.w3.org/Graphics/SVG/1.1/DTD/svg11.dtd">
<!-- Generated by graphviz version 2.36.0 (20140111.2315)
 -->
<!-- Title: /home/travis/build/robotology/human&#45;dynamics&#45;estimation/build/human&#45;viz&#45;bridge/_yarp_idl_/thrift/xsensdriverservice/XsensDriverService.cpp Pages: 1 -->
<svg width="288pt" height="240pt"
 viewBox="0.00 0.00 288.00 240.00" xmlns="http://www.w3.org/2000/svg" xmlns:xlink="http://www.w3.org/1999/xlink">
<g id="graph0" class="graph" transform="scale(1 1) rotate(0) translate(4 236)">
<title>/home/travis/build/robotology/human&#45;dynamics&#45;estimation/build/human&#45;viz&#45;bridge/_yarp_idl_/thrift/xsensdriverservice/XsensDriverService.cpp</title>
<!-- Node1 -->
<g id="node1" class="node"><title>Node1</title>
<polygon fill="#bfbfbf" stroke="black" points="70,-168.5 70,-231.5 280,-231.5 280,-168.5 70,-168.5"/>
<text text-anchor="start" x="78" y="-219.5" font-family="Helvetica,sans-Serif" font-size="10.00">/home/travis/build</text>
<text text-anchor="start" x="78" y="-208.5" font-family="Helvetica,sans-Serif" font-size="10.00">/robotology/human&#45;dynamics</text>
<text text-anchor="start" x="78" y="-197.5" font-family="Helvetica,sans-Serif" font-size="10.00">&#45;estimation/build/human</text>
<text text-anchor="start" x="78" y="-186.5" font-family="Helvetica,sans-Serif" font-size="10.00">&#45;viz&#45;bridge/_yarp_idl_/thrift</text>
<text text-anchor="middle" x="175" y="-175.5" font-family="Helvetica,sans-Serif" font-size="10.00">/xsensdriverservice/XsensDriverService.cpp</text>
</g>
<!-- Node2 -->
<g id="node2" class="node"><title>Node2</title>
<g id="a_node2"><a xlink:href="autogenerated_2services_2include_2thrift_2_xsens_driver_service_8h.html" target="_top" xlink:title="thrift/XsensDriverService.h">
<polygon fill="none" stroke="black" points="46,-112.5 46,-131.5 180,-131.5 180,-112.5 46,-112.5"/>
<text text-anchor="middle" x="113" y="-119.5" font-family="Helvetica,sans-Serif" font-size="10.00">thrift/XsensDriverService.h</text>
</a>
</g>
</g>
<!-- Node1&#45;&gt;Node2 -->
<g id="edge1" class="edge"><title>Node1&#45;&gt;Node2</title>
<path fill="none" stroke="midnightblue" d="M149.782,-168.088C141.82,-158.328 133.33,-147.921 126.515,-139.567"/>
<polygon fill="midnightblue" stroke="midnightblue" points="129.146,-137.254 120.112,-131.718 123.721,-141.679 129.146,-137.254"/>
</g>
<!-- Node4 -->
<g id="node4" class="node"><title>Node4</title>
<polygon fill="none" stroke="#bfbfbf" points="125,-0.5 125,-19.5 245,-19.5 245,-0.5 125,-0.5"/>
<text text-anchor="middle" x="185" y="-7.5" font-family="Helvetica,sans-Serif" font-size="10.00">yarp/os/idl/WireTypes.h</text>
</g>
<!-- Node1&#45;&gt;Node4 -->
<g id="edge7" class="edge"><title>Node1&#45;&gt;Node4</title>
<path fill="none" stroke="midnightblue" d="M182.825,-168.187C185.327,-156.886 187.766,-143.938 189,-132 192.733,-95.8864 189.607,-53.4189 187.179,-29.6137"/>
<polygon fill="midnightblue" stroke="midnightblue" points="190.643,-29.0962 186.076,-19.5364 183.685,-29.8578 190.643,-29.0962"/>
</g>
<!-- Node3 -->
<g id="node3" class="node"><title>Node3</title>
<polygon fill="none" stroke="#bfbfbf" points="0,-0.5 0,-19.5 80,-19.5 80,-0.5 0,-0.5"/>
<text text-anchor="middle" x="40" y="-7.5" font-family="Helvetica,sans-Serif" font-size="10.00">yarp/os/Wire.h</text>
</g>
<!-- Node2&#45;&gt;Node3 -->
<g id="edge2" class="edge"><title>Node2&#45;&gt;Node3</title>
<path fill="none" stroke="midnightblue" d="M81.9775,-112.436C63.9676,-105.694 42.7687,-94.3016 32,-76 23.6375,-61.7879 27.3178,-42.8169 32.0798,-29.0405"/>
<polygon fill="midnightblue" stroke="midnightblue" points="35.3568,-30.2706 35.7505,-19.683 28.8403,-27.7142 35.3568,-30.2706"/>
</g>
<!-- Node2&#45;&gt;Node4 -->
<g id="edge3" class="edge"><title>Node2&#45;&gt;Node4</title>
<path fill="none" stroke="midnightblue" d="M126.865,-112.279C138.613,-104.214 155.086,-91.1995 165,-76 174.172,-61.9389 179.325,-43.4455 182.094,-29.7811"/>
<polygon fill="midnightblue" stroke="midnightblue" points="185.592,-30.1002 183.895,-19.6421 178.7,-28.8756 185.592,-30.1002"/>
</g>
<!-- Node5 -->
<g id="node5" class="node"><title>Node5</title>
<g id="a_node5"><a xlink:href="autogenerated_2services_2include_2thrift_2_frame_referece_8h.html" target="_top" xlink:title="thrift/FrameReferece.h">
<polygon fill="none" stroke="black" points="41.5,-56.5 41.5,-75.5 156.5,-75.5 156.5,-56.5 41.5,-56.5"/>
<text text-anchor="middle" x="99" y="-63.5" font-family="Helvetica,sans-Serif" font-size="10.00">thrift/FrameReferece.h</text>
</a>
</g>
</g>
<!-- Node2&#45;&gt;Node5 -->
<g id="edge4" class="edge"><title>Node2&#45;&gt;Node5</title>
<path fill="none" stroke="midnightblue" d="M110.688,-112.083C108.833,-104.927 106.165,-94.6353 103.846,-85.6911"/>
<polygon fill="midnightblue" stroke="midnightblue" points="107.166,-84.5527 101.269,-75.7511 100.391,-86.3094 107.166,-84.5527"/>
</g>
<!-- Node5&#45;&gt;Node3 -->
<g id="edge5" class="edge"><title>Node5&#45;&gt;Node3</title>
<path fill="none" stroke="midnightblue" d="M89.5206,-56.324C80.7989,-48.3414 67.6565,-36.3128 57.1022,-26.6529"/>
<polygon fill="midnightblue" stroke="midnightblue" points="59.3917,-24.0036 49.6519,-19.8339 54.6655,-29.1674 59.3917,-24.0036"/>
</g>
<!-- Node5&#45;&gt;Node4 -->
<g id="edge6" class="edge"><title>Node5&#45;&gt;Node4</title>
<path fill="none" stroke="midnightblue" d="M112.817,-56.324C126.233,-47.9002 146.824,-34.9709 162.586,-25.0741"/>
<polygon fill="midnightblue" stroke="midnightblue" points="164.609,-27.9364 171.217,-19.6545 160.887,-22.0081 164.609,-27.9364"/>
</g>
</g>
</svg>
