<?xml version="1.0" encoding="UTF-8" standalone="no"?>
<!DOCTYPE svg PUBLIC "-//W3C//DTD SVG 1.1//EN"
 "http://www.w3.org/Graphics/SVG/1.1/DTD/svg11.dtd">
<!-- Generated by graphviz version 2.36.0 (20140111.2315)
 -->
<!-- Title: /home/travis/build/robotology/human&#45;dynamics&#45;estimation/build/ros&#45;msgs/_yarp_idl_/msgs/geometry_msgs_Transform.h Pages: 1 -->
<svg width="342pt" height="272pt"
 viewBox="0.00 0.00 342.00 272.00" xmlns="http://www.w3.org/2000/svg" xmlns:xlink="http://www.w3.org/1999/xlink">
<g id="graph0" class="graph" transform="scale(1 1) rotate(0) translate(4 268)">
<title>/home/travis/build/robotology/human&#45;dynamics&#45;estimation/build/ros&#45;msgs/_yarp_idl_/msgs/geometry_msgs_Transform.h</title>
<!-- Node1 -->
<g id="node1" class="node"><title>Node1</title>
<polygon fill="#bfbfbf" stroke="black" points="92,-200.5 92,-263.5 234,-263.5 234,-200.5 92,-200.5"/>
<text text-anchor="start" x="100" y="-251.5" font-family="Helvetica,sans-Serif" font-size="10.00">/home/travis/build</text>
<text text-anchor="start" x="100" y="-240.5" font-family="Helvetica,sans-Serif" font-size="10.00">/robotology/human&#45;dynamics</text>
<text text-anchor="start" x="100" y="-229.5" font-family="Helvetica,sans-Serif" font-size="10.00">&#45;estimation/build/ros&#45;msgs</text>
<text text-anchor="start" x="100" y="-218.5" font-family="Helvetica,sans-Serif" font-size="10.00">/_yarp_idl_/msgs/geometry</text>
<text text-anchor="middle" x="163" y="-207.5" font-family="Helvetica,sans-Serif" font-size="10.00">_msgs_Transform.h</text>
</g>
<!-- Node2 -->
<g id="node2" class="node"><title>Node2</title>
<g id="a_node2"><a xlink:href="__yarp__idl___2msgs_2geometry__msgs___transform_stamped_8h.html" target="_top" xlink:title="/home/travis/build\l/robotology/human&#45;dynamics\l&#45;estimation/build/ros&#45;msgs\l/_yarp_idl_/msgs/geometry\l_msgs_TransformStamped.h">
<polygon fill="none" stroke="black" points="91.5,-100.5 91.5,-163.5 234.5,-163.5 234.5,-100.5 91.5,-100.5"/>
<text text-anchor="start" x="99.5" y="-151.5" font-family="Helvetica,sans-Serif" font-size="10.00">/home/travis/build</text>
<text text-anchor="start" x="99.5" y="-140.5" font-family="Helvetica,sans-Serif" font-size="10.00">/robotology/human&#45;dynamics</text>
<text text-anchor="start" x="99.5" y="-129.5" font-family="Helvetica,sans-Serif" font-size="10.00">&#45;estimation/build/ros&#45;msgs</text>
<text text-anchor="start" x="99.5" y="-118.5" font-family="Helvetica,sans-Serif" font-size="10.00">/_yarp_idl_/msgs/geometry</text>
<text text-anchor="middle" x="163" y="-107.5" font-family="Helvetica,sans-Serif" font-size="10.00">_msgs_TransformStamped.h</text>
</a>
</g>
</g>
<!-- Node1&#45;&gt;Node2 -->
<g id="edge1" class="edge"><title>Node1&#45;&gt;Node2</title>
<path fill="none" stroke="midnightblue" d="M163,-190.099C163,-181.238 163,-172.015 163,-163.63"/>
<polygon fill="midnightblue" stroke="midnightblue" points="159.5,-190.261 163,-200.261 166.5,-190.261 159.5,-190.261"/>
</g>
<!-- Node3 -->
<g id="node3" class="node"><title>Node3</title>
<g id="a_node3"><a xlink:href="__yarp__idl___2msgs_2tf2__msgs___t_f_message_8h.html" target="_top" xlink:title="/home/travis/build\l/robotology/human&#45;dynamics\l&#45;estimation/build/ros&#45;msgs\l/_yarp_idl_/msgs/tf2_msgs\l_TFMessage.h">
<polygon fill="none" stroke="black" points="0,-0.5 0,-63.5 142,-63.5 142,-0.5 0,-0.5"/>
<text text-anchor="start" x="8" y="-51.5" font-family="Helvetica,sans-Serif" font-size="10.00">/home/travis/build</text>
<text text-anchor="start" x="8" y="-40.5" font-family="Helvetica,sans-Serif" font-size="10.00">/robotology/human&#45;dynamics</text>
<text text-anchor="start" x="8" y="-29.5" font-family="Helvetica,sans-Serif" font-size="10.00">&#45;estimation/build/ros&#45;msgs</text>
<text text-anchor="start" x="8" y="-18.5" font-family="Helvetica,sans-Serif" font-size="10.00">/_yarp_idl_/msgs/tf2_msgs</text>
<text text-anchor="middle" x="71" y="-7.5" font-family="Helvetica,sans-Serif" font-size="10.00">_TFMessage.h</text>
</a>
</g>
</g>
<!-- Node1&#45;&gt;Node3 -->
<g id="edge4" class="edge"><title>Node1&#45;&gt;Node3</title>
<path fill="none" stroke="midnightblue" d="M105.677,-193.709C96.3207,-185.068 87.8046,-175.102 82,-164 65.6624,-132.751 65.0383,-91.5066 67.1116,-63.713"/>
<polygon fill="midnightblue" stroke="midnightblue" points="103.479,-196.436 113.324,-200.351 108.069,-191.151 103.479,-196.436"/>
</g>
<!-- Node4 -->
<g id="node4" class="node"><title>Node4</title>
<g id="a_node4"><a xlink:href="__yarp__idl___2msgs_2tf__tf_message_8h.html" target="_top" xlink:title="/home/travis/build\l/robotology/human&#45;dynamics\l&#45;estimation/build/ros&#45;msgs\l/_yarp_idl_/msgs/tf_tfMessage.h">
<polygon fill="none" stroke="black" points="175.5,-6 175.5,-58 334.5,-58 334.5,-6 175.5,-6"/>
<text text-anchor="start" x="183.5" y="-46" font-family="Helvetica,sans-Serif" font-size="10.00">/home/travis/build</text>
<text text-anchor="start" x="183.5" y="-35" font-family="Helvetica,sans-Serif" font-size="10.00">/robotology/human&#45;dynamics</text>
<text text-anchor="start" x="183.5" y="-24" font-family="Helvetica,sans-Serif" font-size="10.00">&#45;estimation/build/ros&#45;msgs</text>
<text text-anchor="middle" x="255" y="-13" font-family="Helvetica,sans-Serif" font-size="10.00">/_yarp_idl_/msgs/tf_tfMessage.h</text>
</a>
</g>
</g>
<!-- Node1&#45;&gt;Node4 -->
<g id="edge5" class="edge"><title>Node1&#45;&gt;Node4</title>
<path fill="none" stroke="midnightblue" d="M219.556,-193.572C228.801,-184.943 237.23,-175.017 243,-164 260.484,-130.618 260.415,-85.8477 258.157,-58.2365"/>
<polygon fill="midnightblue" stroke="midnightblue" points="217.203,-190.979 212.001,-200.209 221.823,-196.238 217.203,-190.979"/>
</g>
<!-- Node2&#45;&gt;Node3 -->
<g id="edge2" class="edge"><title>Node2&#45;&gt;Node3</title>
<path fill="none" stroke="midnightblue" d="M127.033,-92.6875C117.987,-83.051 108.396,-72.8348 99.7546,-63.6299"/>
<polygon fill="midnightblue" stroke="midnightblue" points="124.747,-95.3659 134.143,-100.261 129.85,-90.5748 124.747,-95.3659"/>
</g>
<!-- Node2&#45;&gt;Node4 -->
<g id="edge3" class="edge"><title>Node2&#45;&gt;Node4</title>
<path fill="none" stroke="midnightblue" d="M198.902,-92.7563C209.841,-81.1039 221.582,-68.5979 231.48,-58.0536"/>
<polygon fill="midnightblue" stroke="midnightblue" points="196.15,-90.5748 191.857,-100.261 201.253,-95.3659 196.15,-90.5748"/>
</g>
</g>
</svg>
