<?xml version="1.0" encoding="UTF-8" standalone="no"?>
<!DOCTYPE svg PUBLIC "-//W3C//DTD SVG 1.1//EN"
 "http://www.w3.org/Graphics/SVG/1.1/DTD/svg11.dtd">
<!-- Generated by graphviz version 2.36.0 (20140111.2315)
 -->
<!-- Title: /home/travis/build/robotology/human&#45;dynamics&#45;estimation/build/human&#45;state&#45;provider/_yarp_idl_/thrifts/humanstate/HumanState.cpp Pages: 1 -->
<svg width="352pt" height="296pt"
 viewBox="0.00 0.00 352.00 296.00" xmlns="http://www.w3.org/2000/svg" xmlns:xlink="http://www.w3.org/1999/xlink">
<g id="graph0" class="graph" transform="scale(1 1) rotate(0) translate(4 292)">
<title>/home/travis/build/robotology/human&#45;dynamics&#45;estimation/build/human&#45;state&#45;provider/_yarp_idl_/thrifts/humanstate/HumanState.cpp</title>
<!-- Node1 -->
<g id="node1" class="node"><title>Node1</title>
<polygon fill="#bfbfbf" stroke="black" points="73,-224.5 73,-287.5 253,-287.5 253,-224.5 73,-224.5"/>
<text text-anchor="start" x="81" y="-275.5" font-family="Helvetica,sans-Serif" font-size="10.00">/home/travis/build</text>
<text text-anchor="start" x="81" y="-264.5" font-family="Helvetica,sans-Serif" font-size="10.00">/robotology/human&#45;dynamics</text>
<text text-anchor="start" x="81" y="-253.5" font-family="Helvetica,sans-Serif" font-size="10.00">&#45;estimation/build/human</text>
<text text-anchor="start" x="81" y="-242.5" font-family="Helvetica,sans-Serif" font-size="10.00">&#45;state&#45;provider/_yarp_idl</text>
<text text-anchor="middle" x="163" y="-231.5" font-family="Helvetica,sans-Serif" font-size="10.00">_/thrifts/humanstate/HumanState.cpp</text>
</g>
<!-- Node2 -->
<g id="node2" class="node"><title>Node2</title>
<g id="a_node2"><a xlink:href="autogenerated_2include_2thrifts_2_human_state_8h.html" target="_top" xlink:title="thrifts/HumanState.h">
<polygon fill="none" stroke="black" points="109.5,-168.5 109.5,-187.5 216.5,-187.5 216.5,-168.5 109.5,-168.5"/>
<text text-anchor="middle" x="163" y="-175.5" font-family="Helvetica,sans-Serif" font-size="10.00">thrifts/HumanState.h</text>
</a>
</g>
</g>
<!-- Node1&#45;&gt;Node2 -->
<g id="edge1" class="edge"><title>Node1&#45;&gt;Node2</title>
<path fill="none" stroke="midnightblue" d="M163,-224.088C163,-215.15 163,-205.669 163,-197.719"/>
<polygon fill="midnightblue" stroke="midnightblue" points="166.5,-197.718 163,-187.718 159.5,-197.718 166.5,-197.718"/>
</g>
<!-- Node3 -->
<g id="node3" class="node"><title>Node3</title>
<polygon fill="none" stroke="#bfbfbf" points="0,-0.5 0,-19.5 80,-19.5 80,-0.5 0,-0.5"/>
<text text-anchor="middle" x="40" y="-7.5" font-family="Helvetica,sans-Serif" font-size="10.00">yarp/os/Wire.h</text>
</g>
<!-- Node2&#45;&gt;Node3 -->
<g id="edge2" class="edge"><title>Node2&#45;&gt;Node3</title>
<path fill="none" stroke="midnightblue" d="M109.287,-174.077C79.5799,-169.38 44.9407,-158.158 26,-132 3.76269,-101.29 19.5419,-54.2429 30.9937,-28.8074"/>
<polygon fill="midnightblue" stroke="midnightblue" points="34.2276,-30.1571 35.37,-19.6241 27.9084,-27.1458 34.2276,-30.1571"/>
</g>
<!-- Node4 -->
<g id="node4" class="node"><title>Node4</title>
<polygon fill="none" stroke="#bfbfbf" points="98,-0.5 98,-19.5 218,-19.5 218,-0.5 98,-0.5"/>
<text text-anchor="middle" x="158" y="-7.5" font-family="Helvetica,sans-Serif" font-size="10.00">yarp/os/idl/WireTypes.h</text>
</g>
<!-- Node2&#45;&gt;Node4 -->
<g id="edge3" class="edge"><title>Node2&#45;&gt;Node4</title>
<path fill="none" stroke="midnightblue" d="M170.568,-168.338C187.146,-148.261 223.814,-97.118 206,-56 200.732,-43.8399 190.38,-33.4594 180.635,-25.7429"/>
<polygon fill="midnightblue" stroke="midnightblue" points="182.501,-22.7707 172.37,-19.6698 178.356,-28.4116 182.501,-22.7707"/>
</g>
<!-- Node5 -->
<g id="node5" class="node"><title>Node5</title>
<g id="a_node5"><a xlink:href="human-state-provider_2autogenerated_2include_2thrifts_2_quaternion_8h.html" target="_top" xlink:title="thrifts/Quaternion.h">
<polygon fill="none" stroke="black" points="35,-112.5 35,-131.5 135,-131.5 135,-112.5 35,-112.5"/>
<text text-anchor="middle" x="85" y="-119.5" font-family="Helvetica,sans-Serif" font-size="10.00">thrifts/Quaternion.h</text>
</a>
</g>
</g>
<!-- Node2&#45;&gt;Node5 -->
<g id="edge4" class="edge"><title>Node2&#45;&gt;Node5</title>
<path fill="none" stroke="midnightblue" d="M150.468,-168.324C138.414,-159.979 119.973,-147.212 105.731,-137.352"/>
<polygon fill="midnightblue" stroke="midnightblue" points="107.715,-134.469 97.5009,-131.655 103.731,-140.224 107.715,-134.469"/>
</g>
<!-- Node6 -->
<g id="node6" class="node"><title>Node6</title>
<g id="a_node6"><a xlink:href="human-state-provider_2autogenerated_2include_2thrifts_2_vector3_8h.html" target="_top" xlink:title="thrifts/Vector3.h">
<polygon fill="none" stroke="black" points="111,-56.5 111,-75.5 197,-75.5 197,-56.5 111,-56.5"/>
<text text-anchor="middle" x="154" y="-63.5" font-family="Helvetica,sans-Serif" font-size="10.00">thrifts/Vector3.h</text>
</a>
</g>
</g>
<!-- Node2&#45;&gt;Node6 -->
<g id="edge10" class="edge"><title>Node2&#45;&gt;Node6</title>
<path fill="none" stroke="midnightblue" d="M162.294,-168.368C160.841,-150.617 157.491,-109.666 155.522,-85.5974"/>
<polygon fill="midnightblue" stroke="midnightblue" points="159.007,-85.2727 154.703,-75.5914 152.03,-85.8436 159.007,-85.2727"/>
</g>
<!-- Node7 -->
<g id="node7" class="node"><title>Node7</title>
<polygon fill="none" stroke="#bfbfbf" points="253.5,-112.5 253.5,-131.5 344.5,-131.5 344.5,-112.5 253.5,-112.5"/>
<text text-anchor="middle" x="299" y="-119.5" font-family="Helvetica,sans-Serif" font-size="10.00">yarp/sig/Vector.h</text>
</g>
<!-- Node2&#45;&gt;Node7 -->
<g id="edge11" class="edge"><title>Node2&#45;&gt;Node7</title>
<path fill="none" stroke="midnightblue" d="M184.55,-168.444C207.031,-159.517 242.488,-145.439 267.98,-135.317"/>
<polygon fill="midnightblue" stroke="midnightblue" points="269.549,-138.46 277.551,-131.516 266.965,-131.954 269.549,-138.46"/>
</g>
<!-- Node5&#45;&gt;Node3 -->
<g id="edge5" class="edge"><title>Node5&#45;&gt;Node3</title>
<path fill="none" stroke="midnightblue" d="M81.4689,-112.368C74.1412,-94.4563 57.1504,-52.9233 47.3424,-28.9482"/>
<polygon fill="midnightblue" stroke="midnightblue" points="50.5405,-27.5217 43.5147,-19.5914 44.0616,-30.1721 50.5405,-27.5217"/>
</g>
<!-- Node5&#45;&gt;Node4 -->
<g id="edge6" class="edge"><title>Node5&#45;&gt;Node4</title>
<path fill="none" stroke="midnightblue" d="M85.5469,-112.312C86.7348,-99.1535 90.4577,-73.817 102,-56 110.08,-43.5279 122.769,-32.9176 134.027,-25.1377"/>
<polygon fill="midnightblue" stroke="midnightblue" points="136.17,-27.9187 142.633,-19.5237 132.346,-22.0557 136.17,-27.9187"/>
</g>
<!-- Node5&#45;&gt;Node6 -->
<g id="edge7" class="edge"><title>Node5&#45;&gt;Node6</title>
<path fill="none" stroke="midnightblue" d="M96.086,-112.324C106.486,-104.185 122.261,-91.8395 134.722,-82.0874"/>
<polygon fill="midnightblue" stroke="midnightblue" points="136.994,-84.7533 142.712,-75.8339 132.68,-79.2407 136.994,-84.7533"/>
</g>
<!-- Node6&#45;&gt;Node3 -->
<g id="edge8" class="edge"><title>Node6&#45;&gt;Node3</title>
<path fill="none" stroke="midnightblue" d="M135.936,-56.4435C117.425,-47.6751 88.4193,-33.9355 67.1445,-23.8579"/>
<polygon fill="midnightblue" stroke="midnightblue" points="68.5148,-20.6343 57.9791,-19.5164 65.5182,-26.9604 68.5148,-20.6343"/>
</g>
<!-- Node6&#45;&gt;Node4 -->
<g id="edge9" class="edge"><title>Node6&#45;&gt;Node4</title>
<path fill="none" stroke="midnightblue" d="M154.661,-56.083C155.185,-49.0059 155.936,-38.8611 156.594,-29.9865"/>
<polygon fill="midnightblue" stroke="midnightblue" points="160.103,-29.9823 157.352,-19.7511 153.123,-29.4652 160.103,-29.9823"/>
</g>
</g>
</svg>
