<?xml version="1.0" encoding="UTF-8" standalone="no"?>
<!DOCTYPE svg PUBLIC "-//W3C//DTD SVG 1.1//EN"
 "http://www.w3.org/Graphics/SVG/1.1/DTD/svg11.dtd">
<!-- Generated by graphviz version 2.36.0 (20140111.2315)
 -->
<!-- Title: /home/travis/build/robotology/human&#45;dynamics&#45;estimation/build/ros&#45;msgs/_yarp_idl_/msgs/std_msgs_Header.h Pages: 1 -->
<svg width="1060pt" height="572pt"
 viewBox="0.00 0.00 1060.00 572.00" xmlns="http://www.w3.org/2000/svg" xmlns:xlink="http://www.w3.org/1999/xlink">
<g id="graph0" class="graph" transform="scale(1 1) rotate(0) translate(4 568)">
<title>/home/travis/build/robotology/human&#45;dynamics&#45;estimation/build/ros&#45;msgs/_yarp_idl_/msgs/std_msgs_Header.h</title>
<!-- Node1 -->
<g id="node1" class="node"><title>Node1</title>
<polygon fill="#bfbfbf" stroke="black" points="383,-500.5 383,-563.5 525,-563.5 525,-500.5 383,-500.5"/>
<text text-anchor="start" x="391" y="-551.5" font-family="Helvetica,sans-Serif" font-size="10.00">/home/travis/build</text>
<text text-anchor="start" x="391" y="-540.5" font-family="Helvetica,sans-Serif" font-size="10.00">/robotology/human&#45;dynamics</text>
<text text-anchor="start" x="391" y="-529.5" font-family="Helvetica,sans-Serif" font-size="10.00">&#45;estimation/build/ros&#45;msgs</text>
<text text-anchor="start" x="391" y="-518.5" font-family="Helvetica,sans-Serif" font-size="10.00">/_yarp_idl_/msgs/std_msgs</text>
<text text-anchor="middle" x="454" y="-507.5" font-family="Helvetica,sans-Serif" font-size="10.00">_Header.h</text>
</g>
<!-- Node2 -->
<g id="node2" class="node"><title>Node2</title>
<g id="a_node2"><a xlink:href="__yarp__idl___2msgs_2geometry__msgs___quaternion_8h.html" target="_top" xlink:title="/home/travis/build\l/robotology/human&#45;dynamics\l&#45;estimation/build/ros&#45;msgs\l/_yarp_idl_/msgs/geometry\l_msgs_Quaternion.h">
<polygon fill="none" stroke="black" points="136,-300.5 136,-363.5 278,-363.5 278,-300.5 136,-300.5"/>
<text text-anchor="start" x="144" y="-351.5" font-family="Helvetica,sans-Serif" font-size="10.00">/home/travis/build</text>
<text text-anchor="start" x="144" y="-340.5" font-family="Helvetica,sans-Serif" font-size="10.00">/robotology/human&#45;dynamics</text>
<text text-anchor="start" x="144" y="-329.5" font-family="Helvetica,sans-Serif" font-size="10.00">&#45;estimation/build/ros&#45;msgs</text>
<text text-anchor="start" x="144" y="-318.5" font-family="Helvetica,sans-Serif" font-size="10.00">/_yarp_idl_/msgs/geometry</text>
<text text-anchor="middle" x="207" y="-307.5" font-family="Helvetica,sans-Serif" font-size="10.00">_msgs_Quaternion.h</text>
</a>
</g>
</g>
<!-- Node1&#45;&gt;Node2 -->
<g id="edge1" class="edge"><title>Node1&#45;&gt;Node2</title>
<path fill="none" stroke="midnightblue" d="M373.071,-508.42C345.352,-497.994 315.445,-483.496 292,-464 258.96,-436.525 234.249,-392.855 220.219,-363.576"/>
<polygon fill="midnightblue" stroke="midnightblue" points="372.176,-511.819 382.77,-511.94 374.564,-505.239 372.176,-511.819"/>
</g>
<!-- Node3 -->
<g id="node3" class="node"><title>Node3</title>
<g id="a_node3"><a xlink:href="__yarp__idl___2msgs_2geometry__msgs___transform_8h.html" target="_top" xlink:title="/home/travis/build\l/robotology/human&#45;dynamics\l&#45;estimation/build/ros&#45;msgs\l/_yarp_idl_/msgs/geometry\l_msgs_Transform.h">
<polygon fill="none" stroke="black" points="182,-200.5 182,-263.5 324,-263.5 324,-200.5 182,-200.5"/>
<text text-anchor="start" x="190" y="-251.5" font-family="Helvetica,sans-Serif" font-size="10.00">/home/travis/build</text>
<text text-anchor="start" x="190" y="-240.5" font-family="Helvetica,sans-Serif" font-size="10.00">/robotology/human&#45;dynamics</text>
<text text-anchor="start" x="190" y="-229.5" font-family="Helvetica,sans-Serif" font-size="10.00">&#45;estimation/build/ros&#45;msgs</text>
<text text-anchor="start" x="190" y="-218.5" font-family="Helvetica,sans-Serif" font-size="10.00">/_yarp_idl_/msgs/geometry</text>
<text text-anchor="middle" x="253" y="-207.5" font-family="Helvetica,sans-Serif" font-size="10.00">_msgs_Transform.h</text>
</a>
</g>
</g>
<!-- Node1&#45;&gt;Node3 -->
<g id="edge20" class="edge"><title>Node1&#45;&gt;Node3</title>
<path fill="none" stroke="midnightblue" d="M373.853,-502.906C355.507,-493.124 337.694,-480.365 325,-464 279.143,-404.88 312.56,-370.319 287,-300 282.544,-287.741 276.381,-274.836 270.525,-263.66"/>
<polygon fill="midnightblue" stroke="midnightblue" points="372.378,-506.082 382.881,-507.472 375.537,-499.835 372.378,-506.082"/>
</g>
<!-- Node4 -->
<g id="node4" class="node"><title>Node4</title>
<g id="a_node4"><a xlink:href="__yarp__idl___2msgs_2geometry__msgs___transform_stamped_8h.html" target="_top" xlink:title="/home/travis/build\l/robotology/human&#45;dynamics\l&#45;estimation/build/ros&#45;msgs\l/_yarp_idl_/msgs/geometry\l_msgs_TransformStamped.h">
<polygon fill="none" stroke="black" points="104.5,-100.5 104.5,-163.5 247.5,-163.5 247.5,-100.5 104.5,-100.5"/>
<text text-anchor="start" x="112.5" y="-151.5" font-family="Helvetica,sans-Serif" font-size="10.00">/home/travis/build</text>
<text text-anchor="start" x="112.5" y="-140.5" font-family="Helvetica,sans-Serif" font-size="10.00">/robotology/human&#45;dynamics</text>
<text text-anchor="start" x="112.5" y="-129.5" font-family="Helvetica,sans-Serif" font-size="10.00">&#45;estimation/build/ros&#45;msgs</text>
<text text-anchor="start" x="112.5" y="-118.5" font-family="Helvetica,sans-Serif" font-size="10.00">/_yarp_idl_/msgs/geometry</text>
<text text-anchor="middle" x="176" y="-107.5" font-family="Helvetica,sans-Serif" font-size="10.00">_msgs_TransformStamped.h</text>
</a>
</g>
</g>
<!-- Node1&#45;&gt;Node4 -->
<g id="edge21" class="edge"><title>Node1&#45;&gt;Node4</title>
<path fill="none" stroke="midnightblue" d="M372.797,-518.517C290.443,-500.736 169.28,-458.998 127,-364 96.9113,-296.395 133.612,-209.285 157.877,-163.784"/>
<polygon fill="midnightblue" stroke="midnightblue" points="372.136,-521.955 382.64,-520.569 373.565,-515.102 372.136,-521.955"/>
</g>
<!-- Node5 -->
<g id="node5" class="node"><title>Node5</title>
<g id="a_node5"><a xlink:href="__yarp__idl___2msgs_2tf2__msgs___t_f_message_8h.html" target="_top" xlink:title="/home/travis/build\l/robotology/human&#45;dynamics\l&#45;estimation/build/ros&#45;msgs\l/_yarp_idl_/msgs/tf2_msgs\l_TFMessage.h">
<polygon fill="none" stroke="black" points="5,-0.5 5,-63.5 147,-63.5 147,-0.5 5,-0.5"/>
<text text-anchor="start" x="13" y="-51.5" font-family="Helvetica,sans-Serif" font-size="10.00">/home/travis/build</text>
<text text-anchor="start" x="13" y="-40.5" font-family="Helvetica,sans-Serif" font-size="10.00">/robotology/human&#45;dynamics</text>
<text text-anchor="start" x="13" y="-29.5" font-family="Helvetica,sans-Serif" font-size="10.00">&#45;estimation/build/ros&#45;msgs</text>
<text text-anchor="start" x="13" y="-18.5" font-family="Helvetica,sans-Serif" font-size="10.00">/_yarp_idl_/msgs/tf2_msgs</text>
<text text-anchor="middle" x="76" y="-7.5" font-family="Helvetica,sans-Serif" font-size="10.00">_TFMessage.h</text>
</a>
</g>
</g>
<!-- Node1&#45;&gt;Node5 -->
<g id="edge26" class="edge"><title>Node1&#45;&gt;Node5</title>
<path fill="none" stroke="midnightblue" d="M372.448,-530.631C241.77,-525.269 0,-493.641 0,-333 0,-333 0,-333 0,-231 0,-168.406 33.5144,-101.63 56.0319,-63.83"/>
<polygon fill="midnightblue" stroke="midnightblue" points="372.691,-534.142 382.813,-531.011 372.948,-527.147 372.691,-534.142"/>
</g>
<!-- Node6 -->
<g id="node6" class="node"><title>Node6</title>
<g id="a_node6"><a xlink:href="__yarp__idl___2msgs_2tf__tf_message_8h.html" target="_top" xlink:title="/home/travis/build\l/robotology/human&#45;dynamics\l&#45;estimation/build/ros&#45;msgs\l/_yarp_idl_/msgs/tf_tfMessage.h">
<polygon fill="none" stroke="black" points="272.5,-6 272.5,-58 431.5,-58 431.5,-6 272.5,-6"/>
<text text-anchor="start" x="280.5" y="-46" font-family="Helvetica,sans-Serif" font-size="10.00">/home/travis/build</text>
<text text-anchor="start" x="280.5" y="-35" font-family="Helvetica,sans-Serif" font-size="10.00">/robotology/human&#45;dynamics</text>
<text text-anchor="start" x="280.5" y="-24" font-family="Helvetica,sans-Serif" font-size="10.00">&#45;estimation/build/ros&#45;msgs</text>
<text text-anchor="middle" x="352" y="-13" font-family="Helvetica,sans-Serif" font-size="10.00">/_yarp_idl_/msgs/tf_tfMessage.h</text>
</a>
</g>
</g>
<!-- Node1&#45;&gt;Node6 -->
<g id="edge27" class="edge"><title>Node1&#45;&gt;Node6</title>
<path fill="none" stroke="midnightblue" d="M474.722,-491.143C478.627,-482.382 482.32,-473.023 485,-464 501.749,-407.603 504,-391.831 504,-333 504,-333 504,-333 504,-231 504,-155.812 434.183,-91.5928 389.183,-58.0102"/>
<polygon fill="midnightblue" stroke="midnightblue" points="471.475,-489.826 470.44,-500.37 477.824,-492.773 471.475,-489.826"/>
</g>
<!-- Node7 -->
<g id="node7" class="node"><title>Node7</title>
<g id="a_node7"><a xlink:href="__yarp__idl___2msgs_2geometry__msgs___vector3_8h.html" target="_top" xlink:title="/home/travis/build\l/robotology/human&#45;dynamics\l&#45;estimation/build/ros&#45;msgs\l/_yarp_idl_/msgs/geometry\l_msgs_Vector3.h">
<polygon fill="none" stroke="black" points="334,-400.5 334,-463.5 476,-463.5 476,-400.5 334,-400.5"/>
<text text-anchor="start" x="342" y="-451.5" font-family="Helvetica,sans-Serif" font-size="10.00">/home/travis/build</text>
<text text-anchor="start" x="342" y="-440.5" font-family="Helvetica,sans-Serif" font-size="10.00">/robotology/human&#45;dynamics</text>
<text text-anchor="start" x="342" y="-429.5" font-family="Helvetica,sans-Serif" font-size="10.00">&#45;estimation/build/ros&#45;msgs</text>
<text text-anchor="start" x="342" y="-418.5" font-family="Helvetica,sans-Serif" font-size="10.00">/_yarp_idl_/msgs/geometry</text>
<text text-anchor="middle" x="405" y="-407.5" font-family="Helvetica,sans-Serif" font-size="10.00">_msgs_Vector3.h</text>
</a>
</g>
</g>
<!-- Node1&#45;&gt;Node7 -->
<g id="edge11" class="edge"><title>Node1&#45;&gt;Node7</title>
<path fill="none" stroke="midnightblue" d="M434.126,-491.252C429.521,-482.042 424.69,-472.379 420.315,-463.63"/>
<polygon fill="midnightblue" stroke="midnightblue" points="431.028,-492.882 438.631,-500.261 437.289,-489.752 431.028,-492.882"/>
</g>
<!-- Node8 -->
<g id="node8" class="node"><title>Node8</title>
<g id="a_node8"><a xlink:href="__yarp__idl___2msgs_2geometry__msgs___wrench_8h.html" target="_top" xlink:title="/home/travis/build\l/robotology/human&#45;dynamics\l&#45;estimation/build/ros&#45;msgs\l/_yarp_idl_/msgs/geometry\l_msgs_Wrench.h">
<polygon fill="none" stroke="black" points="532,-300.5 532,-363.5 674,-363.5 674,-300.5 532,-300.5"/>
<text text-anchor="start" x="540" y="-351.5" font-family="Helvetica,sans-Serif" font-size="10.00">/home/travis/build</text>
<text text-anchor="start" x="540" y="-340.5" font-family="Helvetica,sans-Serif" font-size="10.00">/robotology/human&#45;dynamics</text>
<text text-anchor="start" x="540" y="-329.5" font-family="Helvetica,sans-Serif" font-size="10.00">&#45;estimation/build/ros&#45;msgs</text>
<text text-anchor="start" x="540" y="-318.5" font-family="Helvetica,sans-Serif" font-size="10.00">/_yarp_idl_/msgs/geometry</text>
<text text-anchor="middle" x="603" y="-307.5" font-family="Helvetica,sans-Serif" font-size="10.00">_msgs_Wrench.h</text>
</a>
</g>
</g>
<!-- Node1&#45;&gt;Node8 -->
<g id="edge22" class="edge"><title>Node1&#45;&gt;Node8</title>
<path fill="none" stroke="midnightblue" d="M492.47,-493.186C501.21,-483.937 510.206,-473.857 518,-464 543.727,-431.462 569.064,-391.025 585.287,-363.753"/>
<polygon fill="midnightblue" stroke="midnightblue" points="489.941,-490.766 485.544,-500.405 494.993,-495.612 489.941,-490.766"/>
</g>
<!-- Node9 -->
<g id="node9" class="node"><title>Node9</title>
<g id="a_node9"><a xlink:href="__yarp__idl___2msgs_2geometry__msgs___wrench_stamped_8h.html" target="_top" xlink:title="/home/travis/build\l/robotology/human&#45;dynamics\l&#45;estimation/build/ros&#45;msgs\l/_yarp_idl_/msgs/geometry\l_msgs_WrenchStamped.h">
<polygon fill="none" stroke="black" points="532,-200.5 532,-263.5 674,-263.5 674,-200.5 532,-200.5"/>
<text text-anchor="start" x="540" y="-251.5" font-family="Helvetica,sans-Serif" font-size="10.00">/home/travis/build</text>
<text text-anchor="start" x="540" y="-240.5" font-family="Helvetica,sans-Serif" font-size="10.00">/robotology/human&#45;dynamics</text>
<text text-anchor="start" x="540" y="-229.5" font-family="Helvetica,sans-Serif" font-size="10.00">&#45;estimation/build/ros&#45;msgs</text>
<text text-anchor="start" x="540" y="-218.5" font-family="Helvetica,sans-Serif" font-size="10.00">/_yarp_idl_/msgs/geometry</text>
<text text-anchor="middle" x="603" y="-207.5" font-family="Helvetica,sans-Serif" font-size="10.00">_msgs_WrenchStamped.h</text>
</a>
</g>
</g>
<!-- Node1&#45;&gt;Node9 -->
<g id="edge23" class="edge"><title>Node1&#45;&gt;Node9</title>
<path fill="none" stroke="midnightblue" d="M534.221,-497.153C587.454,-469.848 652.872,-425.77 683,-364 695.47,-338.434 695.033,-325.774 683,-300 676.409,-285.883 665.218,-273.689 653.261,-263.72"/>
<polygon fill="midnightblue" stroke="midnightblue" points="532.482,-494.11 525.114,-501.723 535.621,-500.366 532.482,-494.11"/>
</g>
<!-- Node10 -->
<g id="node10" class="node"><title>Node10</title>
<g id="a_node10"><a xlink:href="__yarp__idl___2msgs_2sensor__msgs___joint_state_8h.html" target="_top" xlink:title="/home/travis/build\l/robotology/human&#45;dynamics\l&#45;estimation/build/ros&#45;msgs\l/_yarp_idl_/msgs/sensor_msgs\l_JointState.h">
<polygon fill="none" stroke="black" points="730,-400.5 730,-463.5 882,-463.5 882,-400.5 730,-400.5"/>
<text text-anchor="start" x="738" y="-451.5" font-family="Helvetica,sans-Serif" font-size="10.00">/home/travis/build</text>
<text text-anchor="start" x="738" y="-440.5" font-family="Helvetica,sans-Serif" font-size="10.00">/robotology/human&#45;dynamics</text>
<text text-anchor="start" x="738" y="-429.5" font-family="Helvetica,sans-Serif" font-size="10.00">&#45;estimation/build/ros&#45;msgs</text>
<text text-anchor="start" x="738" y="-418.5" font-family="Helvetica,sans-Serif" font-size="10.00">/_yarp_idl_/msgs/sensor_msgs</text>
<text text-anchor="middle" x="806" y="-407.5" font-family="Helvetica,sans-Serif" font-size="10.00">_JointState.h</text>
</a>
</g>
</g>
<!-- Node1&#45;&gt;Node10 -->
<g id="edge24" class="edge"><title>Node1&#45;&gt;Node10</title>
<path fill="none" stroke="midnightblue" d="M534.883,-512.118C586.905,-499.53 655.79,-482.035 716,-464 720.433,-462.672 724.972,-461.264 729.543,-459.809"/>
<polygon fill="midnightblue" stroke="midnightblue" points="533.943,-508.744 525.041,-514.489 535.583,-515.549 533.943,-508.744"/>
</g>
<!-- Node11 -->
<g id="node11" class="node"><title>Node11</title>
<g id="a_node11"><a xlink:href="__yarp__idl___2msgs_2sensor__msgs___temperature_8h.html" target="_top" xlink:title="/home/travis/build\l/robotology/human&#45;dynamics\l&#45;estimation/build/ros&#45;msgs\l/_yarp_idl_/msgs/sensor_msgs\l_Temperature.h">
<polygon fill="none" stroke="black" points="900,-400.5 900,-463.5 1052,-463.5 1052,-400.5 900,-400.5"/>
<text text-anchor="start" x="908" y="-451.5" font-family="Helvetica,sans-Serif" font-size="10.00">/home/travis/build</text>
<text text-anchor="start" x="908" y="-440.5" font-family="Helvetica,sans-Serif" font-size="10.00">/robotology/human&#45;dynamics</text>
<text text-anchor="start" x="908" y="-429.5" font-family="Helvetica,sans-Serif" font-size="10.00">&#45;estimation/build/ros&#45;msgs</text>
<text text-anchor="start" x="908" y="-418.5" font-family="Helvetica,sans-Serif" font-size="10.00">/_yarp_idl_/msgs/sensor_msgs</text>
<text text-anchor="middle" x="976" y="-407.5" font-family="Helvetica,sans-Serif" font-size="10.00">_Temperature.h</text>
</a>
</g>
</g>
<!-- Node1&#45;&gt;Node11 -->
<g id="edge25" class="edge"><title>Node1&#45;&gt;Node11</title>
<path fill="none" stroke="midnightblue" d="M535.227,-523.4C623.708,-514.001 768.936,-495.288 891,-464 893.891,-463.259 896.821,-462.457 899.769,-461.608"/>
<polygon fill="midnightblue" stroke="midnightblue" points="534.835,-519.922 525.255,-524.445 535.565,-526.883 534.835,-519.922"/>
</g>
<!-- Node2&#45;&gt;Node3 -->
<g id="edge2" class="edge"><title>Node2&#45;&gt;Node3</title>
<path fill="none" stroke="midnightblue" d="M225.792,-290.964C230.075,-281.841 234.559,-272.288 238.623,-263.63"/>
<polygon fill="midnightblue" stroke="midnightblue" points="222.509,-289.721 221.428,-300.261 228.846,-292.696 222.509,-289.721"/>
</g>
<!-- Node2&#45;&gt;Node4 -->
<g id="edge8" class="edge"><title>Node2&#45;&gt;Node4</title>
<path fill="none" stroke="midnightblue" d="M183.062,-291.327C178.902,-282.611 175.206,-273.223 173,-264 164.955,-230.37 167.521,-190.493 170.934,-163.643"/>
<polygon fill="midnightblue" stroke="midnightblue" points="180.063,-293.15 187.711,-300.481 186.304,-289.98 180.063,-293.15"/>
</g>
<!-- Node2&#45;&gt;Node5 -->
<g id="edge9" class="edge"><title>Node2&#45;&gt;Node5</title>
<path fill="none" stroke="midnightblue" d="M173.906,-292.631C148.074,-260.475 113.553,-212.206 95,-164 82.3706,-131.185 78.0506,-90.8023 76.6188,-63.6185"/>
<polygon fill="midnightblue" stroke="midnightblue" points="171.244,-294.904 180.272,-300.449 176.672,-290.485 171.244,-294.904"/>
</g>
<!-- Node2&#45;&gt;Node6 -->
<g id="edge10" class="edge"><title>Node2&#45;&gt;Node6</title>
<path fill="none" stroke="midnightblue" d="M287.462,-303.496C305.169,-293.729 321.923,-280.83 333,-264 375.142,-199.967 365.086,-103.318 357.181,-58.0527"/>
<polygon fill="midnightblue" stroke="midnightblue" points="285.411,-300.616 278.14,-308.322 288.63,-306.832 285.411,-300.616"/>
</g>
<!-- Node3&#45;&gt;Node4 -->
<g id="edge3" class="edge"><title>Node3&#45;&gt;Node4</title>
<path fill="none" stroke="midnightblue" d="M222.447,-192.114C215.008,-182.647 207.156,-172.652 200.066,-163.63"/>
<polygon fill="midnightblue" stroke="midnightblue" points="219.918,-194.56 228.848,-200.261 225.422,-190.235 219.918,-194.56"/>
</g>
<!-- Node3&#45;&gt;Node5 -->
<g id="edge6" class="edge"><title>Node3&#45;&gt;Node5</title>
<path fill="none" stroke="midnightblue" d="M265.564,-190.425C271.594,-162.558 274.093,-126.04 256,-100 231.551,-64.812 186.294,-48.0684 147.279,-40.1185"/>
<polygon fill="midnightblue" stroke="midnightblue" points="262.132,-189.725 263.214,-200.265 268.941,-191.351 262.132,-189.725"/>
</g>
<!-- Node3&#45;&gt;Node6 -->
<g id="edge7" class="edge"><title>Node3&#45;&gt;Node6</title>
<path fill="none" stroke="midnightblue" d="M275.529,-191.171C280.406,-182.284 285.46,-172.866 290,-164 308.58,-127.719 328.473,-84.8971 340.576,-58.3413"/>
<polygon fill="midnightblue" stroke="midnightblue" points="272.315,-189.75 270.539,-200.195 278.441,-193.137 272.315,-189.75"/>
</g>
<!-- Node4&#45;&gt;Node5 -->
<g id="edge4" class="edge"><title>Node4&#45;&gt;Node5</title>
<path fill="none" stroke="midnightblue" d="M137.489,-93.2592C127.486,-83.456 116.834,-73.017 107.255,-63.6299"/>
<polygon fill="midnightblue" stroke="midnightblue" points="135.042,-95.7615 144.634,-100.261 139.941,-90.762 135.042,-95.7615"/>
</g>
<!-- Node4&#45;&gt;Node6 -->
<g id="edge5" class="edge"><title>Node4&#45;&gt;Node6</title>
<path fill="none" stroke="midnightblue" d="M240.224,-95.2391C262.383,-82.9005 286.717,-69.351 307.006,-58.0536"/>
<polygon fill="midnightblue" stroke="midnightblue" points="238.239,-92.3383 231.205,-100.261 241.644,-98.4541 238.239,-92.3383"/>
</g>
<!-- Node7&#45;&gt;Node2 -->
<g id="edge12" class="edge"><title>Node7&#45;&gt;Node2</title>
<path fill="none" stroke="midnightblue" d="M334.13,-395.923C312.743,-385.337 289.445,-373.806 268.705,-363.541"/>
<polygon fill="midnightblue" stroke="midnightblue" points="332.651,-399.096 343.166,-400.395 335.756,-392.823 332.651,-399.096"/>
</g>
<!-- Node7&#45;&gt;Node3 -->
<g id="edge13" class="edge"><title>Node7&#45;&gt;Node3</title>
<path fill="none" stroke="midnightblue" d="M382.443,-391.643C366.371,-364.829 343.524,-329.061 320,-300 309.857,-287.47 297.661,-274.714 286.471,-263.742"/>
<polygon fill="midnightblue" stroke="midnightblue" points="379.51,-393.559 387.625,-400.371 385.529,-389.985 379.51,-393.559"/>
</g>
<!-- Node7&#45;&gt;Node4 -->
<g id="edge14" class="edge"><title>Node7&#45;&gt;Node4</title>
<path fill="none" stroke="midnightblue" d="M402.5,-390.243C397.337,-339.706 381.51,-253.686 333,-200 310.648,-175.263 277.622,-159.329 247.619,-149.237"/>
<polygon fill="midnightblue" stroke="midnightblue" points="399.039,-390.83 403.448,-400.464 406.009,-390.184 399.039,-390.83"/>
</g>
<!-- Node7&#45;&gt;Node5 -->
<g id="edge18" class="edge"><title>Node7&#45;&gt;Node5</title>
<path fill="none" stroke="midnightblue" d="M324.013,-420.878C252.206,-410.276 154.567,-391.334 127,-364 45.2506,-282.941 59.4488,-129.264 70.0786,-63.7901"/>
<polygon fill="midnightblue" stroke="midnightblue" points="323.565,-424.35 333.963,-422.319 324.568,-417.422 323.565,-424.35"/>
</g>
<!-- Node7&#45;&gt;Node6 -->
<g id="edge19" class="edge"><title>Node7&#45;&gt;Node6</title>
<path fill="none" stroke="midnightblue" d="M406.415,-390.086C406.659,-381.471 406.874,-372.438 407,-364 408.761,-245.974 408.013,-214.16 378,-100 374.257,-85.7609 368.44,-70.4134 363.257,-58.0047"/>
<polygon fill="midnightblue" stroke="midnightblue" points="402.91,-390.218 406.108,-400.318 409.907,-390.428 402.91,-390.218"/>
</g>
<!-- Node7&#45;&gt;Node8 -->
<g id="edge15" class="edge"><title>Node7&#45;&gt;Node8</title>
<path fill="none" stroke="midnightblue" d="M475.87,-395.923C497.257,-385.337 520.555,-373.806 541.295,-363.541"/>
<polygon fill="midnightblue" stroke="midnightblue" points="474.244,-392.823 466.834,-400.395 477.349,-399.096 474.244,-392.823"/>
</g>
<!-- Node7&#45;&gt;Node9 -->
<g id="edge17" class="edge"><title>Node7&#45;&gt;Node9</title>
<path fill="none" stroke="midnightblue" d="M437.098,-392.579C460.103,-365.752 492.322,-329.592 523,-300 535.909,-287.548 550.797,-274.708 564.204,-263.64"/>
<polygon fill="midnightblue" stroke="midnightblue" points="434.394,-390.356 430.565,-400.235 439.719,-394.9 434.394,-390.356"/>
</g>
<!-- Node8&#45;&gt;Node9 -->
<g id="edge16" class="edge"><title>Node8&#45;&gt;Node9</title>
<path fill="none" stroke="midnightblue" d="M603,-290.099C603,-281.238 603,-272.015 603,-263.63"/>
<polygon fill="midnightblue" stroke="midnightblue" points="599.5,-290.261 603,-300.261 606.5,-290.261 599.5,-290.261"/>
</g>
</g>
</svg>
