<?xml version="1.0" encoding="UTF-8" standalone="no"?>
<!DOCTYPE svg PUBLIC "-//W3C//DTD SVG 1.1//EN"
 "http://www.w3.org/Graphics/SVG/1.1/DTD/svg11.dtd">
<!-- Generated by graphviz version 2.36.0 (20140111.2315)
 -->
<!-- Title: /home/travis/build/robotology/human&#45;dynamics&#45;estimation/build/ros&#45;msgs/_yarp_idl_/msgs/geometry_msgs_Quaternion.h Pages: 1 -->
<svg width="335pt" height="372pt"
 viewBox="0.00 0.00 334.72 372.00" xmlns="http://www.w3.org/2000/svg" xmlns:xlink="http://www.w3.org/1999/xlink">
<g id="graph0" class="graph" transform="scale(1 1) rotate(0) translate(4 368)">
<title>/home/travis/build/robotology/human&#45;dynamics&#45;estimation/build/ros&#45;msgs/_yarp_idl_/msgs/geometry_msgs_Quaternion.h</title>
<!-- Node1 -->
<g id="node1" class="node"><title>Node1</title>
<polygon fill="#bfbfbf" stroke="black" points="60.719,-300.5 60.719,-363.5 202.719,-363.5 202.719,-300.5 60.719,-300.5"/>
<text text-anchor="start" x="68.719" y="-351.5" font-family="Helvetica,sans-Serif" font-size="10.00">/home/travis/build</text>
<text text-anchor="start" x="68.719" y="-340.5" font-family="Helvetica,sans-Serif" font-size="10.00">/robotology/human&#45;dynamics</text>
<text text-anchor="start" x="68.719" y="-329.5" font-family="Helvetica,sans-Serif" font-size="10.00">&#45;estimation/build/ros&#45;msgs</text>
<text text-anchor="start" x="68.719" y="-318.5" font-family="Helvetica,sans-Serif" font-size="10.00">/_yarp_idl_/msgs/geometry</text>
<text text-anchor="middle" x="131.719" y="-307.5" font-family="Helvetica,sans-Serif" font-size="10.00">_msgs_Quaternion.h</text>
</g>
<!-- Node2 -->
<g id="node2" class="node"><title>Node2</title>
<g id="a_node2"><a xlink:href="__yarp__idl___2msgs_2geometry__msgs___transform_8h.html" target="_top" xlink:title="/home/travis/build\l/robotology/human&#45;dynamics\l&#45;estimation/build/ros&#45;msgs\l/_yarp_idl_/msgs/geometry\l_msgs_Transform.h">
<polygon fill="none" stroke="black" points="110.719,-200.5 110.719,-263.5 252.719,-263.5 252.719,-200.5 110.719,-200.5"/>
<text text-anchor="start" x="118.719" y="-251.5" font-family="Helvetica,sans-Serif" font-size="10.00">/home/travis/build</text>
<text text-anchor="start" x="118.719" y="-240.5" font-family="Helvetica,sans-Serif" font-size="10.00">/robotology/human&#45;dynamics</text>
<text text-anchor="start" x="118.719" y="-229.5" font-family="Helvetica,sans-Serif" font-size="10.00">&#45;estimation/build/ros&#45;msgs</text>
<text text-anchor="start" x="118.719" y="-218.5" font-family="Helvetica,sans-Serif" font-size="10.00">/_yarp_idl_/msgs/geometry</text>
<text text-anchor="middle" x="181.719" y="-207.5" font-family="Helvetica,sans-Serif" font-size="10.00">_msgs_Transform.h</text>
</a>
</g>
</g>
<!-- Node1&#45;&gt;Node2 -->
<g id="edge1" class="edge"><title>Node1&#45;&gt;Node2</title>
<path fill="none" stroke="midnightblue" d="M151.998,-291.252C156.698,-282.042 161.628,-272.379 166.092,-263.63"/>
<polygon fill="midnightblue" stroke="midnightblue" points="148.829,-289.763 147.402,-300.261 155.065,-292.944 148.829,-289.763"/>
</g>
<!-- Node3 -->
<g id="node3" class="node"><title>Node3</title>
<g id="a_node3"><a xlink:href="__yarp__idl___2msgs_2geometry__msgs___transform_stamped_8h.html" target="_top" xlink:title="/home/travis/build\l/robotology/human&#45;dynamics\l&#45;estimation/build/ros&#45;msgs\l/_yarp_idl_/msgs/geometry\l_msgs_TransformStamped.h">
<polygon fill="none" stroke="black" points="17.219,-100.5 17.219,-163.5 160.219,-163.5 160.219,-100.5 17.219,-100.5"/>
<text text-anchor="start" x="25.219" y="-151.5" font-family="Helvetica,sans-Serif" font-size="10.00">/home/travis/build</text>
<text text-anchor="start" x="25.219" y="-140.5" font-family="Helvetica,sans-Serif" font-size="10.00">/robotology/human&#45;dynamics</text>
<text text-anchor="start" x="25.219" y="-129.5" font-family="Helvetica,sans-Serif" font-size="10.00">&#45;estimation/build/ros&#45;msgs</text>
<text text-anchor="start" x="25.219" y="-118.5" font-family="Helvetica,sans-Serif" font-size="10.00">/_yarp_idl_/msgs/geometry</text>
<text text-anchor="middle" x="88.719" y="-107.5" font-family="Helvetica,sans-Serif" font-size="10.00">_msgs_TransformStamped.h</text>
</a>
</g>
</g>
<!-- Node1&#45;&gt;Node3 -->
<g id="edge7" class="edge"><title>Node1&#45;&gt;Node3</title>
<path fill="none" stroke="midnightblue" d="M111.379,-291.177C107.619,-282.414 104.125,-273.045 101.719,-264 92.7898,-230.428 89.881,-190.54 88.9913,-163.672"/>
<polygon fill="midnightblue" stroke="midnightblue" points="108.234,-292.717 115.525,-300.404 114.619,-289.848 108.234,-292.717"/>
</g>
<!-- Node4 -->
<g id="node4" class="node"><title>Node4</title>
<g id="a_node4"><a xlink:href="__yarp__idl___2msgs_2tf2__msgs___t_f_message_8h.html" target="_top" xlink:title="/home/travis/build\l/robotology/human&#45;dynamics\l&#45;estimation/build/ros&#45;msgs\l/_yarp_idl_/msgs/tf2_msgs\l_TFMessage.h">
<polygon fill="none" stroke="black" points="7.71899,-0.5 7.71899,-63.5 149.719,-63.5 149.719,-0.5 7.71899,-0.5"/>
<text text-anchor="start" x="15.719" y="-51.5" font-family="Helvetica,sans-Serif" font-size="10.00">/home/travis/build</text>
<text text-anchor="start" x="15.719" y="-40.5" font-family="Helvetica,sans-Serif" font-size="10.00">/robotology/human&#45;dynamics</text>
<text text-anchor="start" x="15.719" y="-29.5" font-family="Helvetica,sans-Serif" font-size="10.00">&#45;estimation/build/ros&#45;msgs</text>
<text text-anchor="start" x="15.719" y="-18.5" font-family="Helvetica,sans-Serif" font-size="10.00">/_yarp_idl_/msgs/tf2_msgs</text>
<text text-anchor="middle" x="78.719" y="-7.5" font-family="Helvetica,sans-Serif" font-size="10.00">_TFMessage.h</text>
</a>
</g>
</g>
<!-- Node1&#45;&gt;Node4 -->
<g id="edge8" class="edge"><title>Node1&#45;&gt;Node4</title>
<path fill="none" stroke="midnightblue" d="M92.3263,-293.197C62.6592,-261.813 24.3546,-214.31 7.71899,-164 -1.21104,-136.994 -3.54582,-126.119 7.71899,-100 13.6927,-86.1494 24.0942,-73.8313 35.1228,-63.6543"/>
<polygon fill="midnightblue" stroke="midnightblue" points="89.8251,-295.646 99.2793,-300.428 94.8707,-290.794 89.8251,-295.646"/>
</g>
<!-- Node5 -->
<g id="node5" class="node"><title>Node5</title>
<g id="a_node5"><a xlink:href="__yarp__idl___2msgs_2tf__tf_message_8h.html" target="_top" xlink:title="/home/travis/build\l/robotology/human&#45;dynamics\l&#45;estimation/build/ros&#45;msgs\l/_yarp_idl_/msgs/tf_tfMessage.h">
<polygon fill="none" stroke="black" points="168.219,-6 168.219,-58 327.219,-58 327.219,-6 168.219,-6"/>
<text text-anchor="start" x="176.219" y="-46" font-family="Helvetica,sans-Serif" font-size="10.00">/home/travis/build</text>
<text text-anchor="start" x="176.219" y="-35" font-family="Helvetica,sans-Serif" font-size="10.00">/robotology/human&#45;dynamics</text>
<text text-anchor="start" x="176.219" y="-24" font-family="Helvetica,sans-Serif" font-size="10.00">&#45;estimation/build/ros&#45;msgs</text>
<text text-anchor="middle" x="247.719" y="-13" font-family="Helvetica,sans-Serif" font-size="10.00">/_yarp_idl_/msgs/tf_tfMessage.h</text>
</a>
</g>
</g>
<!-- Node1&#45;&gt;Node5 -->
<g id="edge9" class="edge"><title>Node1&#45;&gt;Node5</title>
<path fill="none" stroke="midnightblue" d="M212.039,-306.518C231.644,-296.552 250.258,-282.8 261.719,-264 301.454,-198.819 274.496,-103.146 257.954,-58.1477"/>
<polygon fill="midnightblue" stroke="midnightblue" points="210.504,-303.372 202.984,-310.835 213.517,-309.691 210.504,-303.372"/>
</g>
<!-- Node2&#45;&gt;Node3 -->
<g id="edge2" class="edge"><title>Node2&#45;&gt;Node3</title>
<path fill="none" stroke="midnightblue" d="M145.633,-192.974C136.408,-183.253 126.608,-172.926 117.786,-163.63"/>
<polygon fill="midnightblue" stroke="midnightblue" points="143.126,-195.417 152.548,-200.261 148.204,-190.598 143.126,-195.417"/>
</g>
<!-- Node2&#45;&gt;Node4 -->
<g id="edge5" class="edge"><title>Node2&#45;&gt;Node4</title>
<path fill="none" stroke="midnightblue" d="M185.89,-190.325C186.794,-163.082 184.187,-127.339 168.719,-100 160.661,-85.7588 148.202,-73.6498 135.096,-63.807"/>
<polygon fill="midnightblue" stroke="midnightblue" points="182.394,-190.153 185.391,-200.315 189.385,-190.502 182.394,-190.153"/>
</g>
<!-- Node2&#45;&gt;Node5 -->
<g id="edge6" class="edge"><title>Node2&#45;&gt;Node5</title>
<path fill="none" stroke="midnightblue" d="M195.099,-190.861C208.328,-151.172 228.164,-91.6653 239.32,-58.1962"/>
<polygon fill="midnightblue" stroke="midnightblue" points="191.729,-189.903 191.887,-200.496 198.37,-192.116 191.729,-189.903"/>
</g>
<!-- Node3&#45;&gt;Node4 -->
<g id="edge3" class="edge"><title>Node3&#45;&gt;Node4</title>
<path fill="none" stroke="midnightblue" d="M84.5454,-90.0987C83.6413,-81.2383 82.7001,-72.0145 81.8445,-63.6299"/>
<polygon fill="midnightblue" stroke="midnightblue" points="81.0852,-90.6681 85.5824,-100.261 88.0491,-89.9574 81.0852,-90.6681"/>
</g>
<!-- Node3&#45;&gt;Node5 -->
<g id="edge4" class="edge"><title>Node3&#45;&gt;Node5</title>
<path fill="none" stroke="midnightblue" d="M147.274,-94.9098C167.149,-82.6598 188.904,-69.2506 207.071,-58.0536"/>
<polygon fill="midnightblue" stroke="midnightblue" points="145.268,-92.0346 138.591,-100.261 148.941,-97.9936 145.268,-92.0346"/>
</g>
</g>
</svg>
