<?xml version="1.0" encoding="UTF-8" standalone="no"?>
<!DOCTYPE svg PUBLIC "-//W3C//DTD SVG 1.1//EN"
 "http://www.w3.org/Graphics/SVG/1.1/DTD/svg11.dtd">
<!-- Generated by graphviz version 2.36.0 (20140111.2315)
 -->
<!-- Title: /home/travis/build/robotology/human&#45;dynamics&#45;estimation/build/human&#45;dynamics&#45;estimator/_yarp_idl_/thrifts/humandynamics/LinkDynamicsEstimation.h Pages: 1 -->
<svg width="335pt" height="140pt"
 viewBox="0.00 0.00 335.00 140.00" xmlns="http://www.w3.org/2000/svg" xmlns:xlink="http://www.w3.org/1999/xlink">
<g id="graph0" class="graph" transform="scale(1 1) rotate(0) translate(4 136)">
<title>/home/travis/build/robotology/human&#45;dynamics&#45;estimation/build/human&#45;dynamics&#45;estimator/_yarp_idl_/thrifts/humandynamics/LinkDynamicsEstimation.h</title>
<!-- Node1 -->
<g id="node1" class="node"><title>Node1</title>
<polygon fill="#bfbfbf" stroke="black" points="87,-57 87,-131 229,-131 229,-57 87,-57"/>
<text text-anchor="start" x="95" y="-119" font-family="Helvetica,sans-Serif" font-size="10.00">/home/travis/build</text>
<text text-anchor="start" x="95" y="-108" font-family="Helvetica,sans-Serif" font-size="10.00">/robotology/human&#45;dynamics</text>
<text text-anchor="start" x="95" y="-97" font-family="Helvetica,sans-Serif" font-size="10.00">&#45;estimation/build/human</text>
<text text-anchor="start" x="95" y="-86" font-family="Helvetica,sans-Serif" font-size="10.00">&#45;dynamics&#45;estimator/_yarp</text>
<text text-anchor="start" x="95" y="-75" font-family="Helvetica,sans-Serif" font-size="10.00">_idl_/thrifts/humandynamics</text>
<text text-anchor="middle" x="158" y="-64" font-family="Helvetica,sans-Serif" font-size="10.00">/LinkDynamicsEstimation.h</text>
</g>
<!-- Node2 -->
<g id="node2" class="node"><title>Node2</title>
<polygon fill="none" stroke="#bfbfbf" points="0,-0.5 0,-19.5 80,-19.5 80,-0.5 0,-0.5"/>
<text text-anchor="middle" x="40" y="-7.5" font-family="Helvetica,sans-Serif" font-size="10.00">yarp/os/Wire.h</text>
</g>
<!-- Node1&#45;&gt;Node2 -->
<g id="edge1" class="edge"><title>Node1&#45;&gt;Node2</title>
<path fill="none" stroke="midnightblue" d="M105.9,-56.7949C90.0021,-45.7472 73.4266,-34.2287 60.8763,-25.5073"/>
<polygon fill="midnightblue" stroke="midnightblue" points="62.7256,-22.5302 52.5164,-19.6978 58.7309,-28.2786 62.7256,-22.5302"/>
</g>
<!-- Node3 -->
<g id="node3" class="node"><title>Node3</title>
<polygon fill="none" stroke="#bfbfbf" points="98,-0.5 98,-19.5 218,-19.5 218,-0.5 98,-0.5"/>
<text text-anchor="middle" x="158" y="-7.5" font-family="Helvetica,sans-Serif" font-size="10.00">yarp/os/idl/WireTypes.h</text>
</g>
<!-- Node1&#45;&gt;Node3 -->
<g id="edge2" class="edge"><title>Node1&#45;&gt;Node3</title>
<path fill="none" stroke="midnightblue" d="M158,-56.7949C158,-47.4634 158,-37.7959 158,-29.7618"/>
<polygon fill="midnightblue" stroke="midnightblue" points="161.5,-29.6978 158,-19.6978 154.5,-29.6978 161.5,-29.6978"/>
</g>
<!-- Node4 -->
<g id="node4" class="node"><title>Node4</title>
<polygon fill="none" stroke="#bfbfbf" points="236.5,-0.5 236.5,-19.5 327.5,-19.5 327.5,-0.5 236.5,-0.5"/>
<text text-anchor="middle" x="282" y="-7.5" font-family="Helvetica,sans-Serif" font-size="10.00">yarp/sig/Vector.h</text>
</g>
<!-- Node1&#45;&gt;Node4 -->
<g id="edge3" class="edge"><title>Node1&#45;&gt;Node4</title>
<path fill="none" stroke="midnightblue" d="M212.749,-56.7949C229.618,-45.64 247.212,-34.005 260.445,-25.254"/>
<polygon fill="midnightblue" stroke="midnightblue" points="262.437,-28.1332 268.847,-19.6978 258.575,-22.2944 262.437,-28.1332"/>
</g>
</g>
</svg>
