<?xml version="1.0" encoding="UTF-8" standalone="no"?>
<!DOCTYPE svg PUBLIC "-//W3C//DTD SVG 1.1//EN"
 "http://www.w3.org/Graphics/SVG/1.1/DTD/svg11.dtd">
<!-- Generated by graphviz version 2.36.0 (20140111.2315)
 -->
<!-- Title: /home/travis/build/robotology/human&#45;dynamics&#45;estimation/build/human&#45;forces&#45;provider/_yarp_idl_/thrifts/force6d/HumanForces.h Pages: 1 -->
<svg width="240pt" height="184pt"
 viewBox="0.00 0.00 240.00 184.00" xmlns="http://www.w3.org/2000/svg" xmlns:xlink="http://www.w3.org/1999/xlink">
<g id="graph0" class="graph" transform="scale(1 1) rotate(0) translate(4 180)">
<title>/home/travis/build/robotology/human&#45;dynamics&#45;estimation/build/human&#45;forces&#45;provider/_yarp_idl_/thrifts/force6d/HumanForces.h</title>
<!-- Node1 -->
<g id="node1" class="node"><title>Node1</title>
<polygon fill="#bfbfbf" stroke="black" points="27,-112.5 27,-175.5 185,-175.5 185,-112.5 27,-112.5"/>
<text text-anchor="start" x="35" y="-163.5" font-family="Helvetica,sans-Serif" font-size="10.00">/home/travis/build</text>
<text text-anchor="start" x="35" y="-152.5" font-family="Helvetica,sans-Serif" font-size="10.00">/robotology/human&#45;dynamics</text>
<text text-anchor="start" x="35" y="-141.5" font-family="Helvetica,sans-Serif" font-size="10.00">&#45;estimation/build/human</text>
<text text-anchor="start" x="35" y="-130.5" font-family="Helvetica,sans-Serif" font-size="10.00">&#45;forces&#45;provider/_yarp_idl</text>
<text text-anchor="middle" x="106" y="-119.5" font-family="Helvetica,sans-Serif" font-size="10.00">_/thrifts/force6d/HumanForces.h</text>
</g>
<!-- Node2 -->
<g id="node2" class="node"><title>Node2</title>
<polygon fill="none" stroke="#bfbfbf" points="0,-0.5 0,-19.5 80,-19.5 80,-0.5 0,-0.5"/>
<text text-anchor="middle" x="40" y="-7.5" font-family="Helvetica,sans-Serif" font-size="10.00">yarp/os/Wire.h</text>
</g>
<!-- Node1&#45;&gt;Node2 -->
<g id="edge1" class="edge"><title>Node1&#45;&gt;Node2</title>
<path fill="none" stroke="midnightblue" d="M76.0994,-112.473C67.0748,-101.714 57.9848,-89.0337 52,-76 45.3333,-61.4815 42.3687,-43.5307 41.0513,-30.1744"/>
<polygon fill="midnightblue" stroke="midnightblue" points="44.5124,-29.5282 40.2659,-19.8216 37.5324,-30.0577 44.5124,-29.5282"/>
</g>
<!-- Node3 -->
<g id="node3" class="node"><title>Node3</title>
<polygon fill="none" stroke="#bfbfbf" points="112,-0.5 112,-19.5 232,-19.5 232,-0.5 112,-0.5"/>
<text text-anchor="middle" x="172" y="-7.5" font-family="Helvetica,sans-Serif" font-size="10.00">yarp/os/idl/WireTypes.h</text>
</g>
<!-- Node1&#45;&gt;Node3 -->
<g id="edge2" class="edge"><title>Node1&#45;&gt;Node3</title>
<path fill="none" stroke="midnightblue" d="M135.901,-112.473C144.925,-101.714 154.015,-89.0337 160,-76 166.667,-61.4815 169.631,-43.5307 170.949,-30.1744"/>
<polygon fill="midnightblue" stroke="midnightblue" points="174.468,-30.0577 171.734,-19.8216 167.488,-29.5282 174.468,-30.0577"/>
</g>
<!-- Node4 -->
<g id="node4" class="node"><title>Node4</title>
<g id="a_node4"><a xlink:href="autogenerated_2include_2thrifts_2_force6_d_8h.html" target="_top" xlink:title="thrifts/Force6D.h">
<polygon fill="none" stroke="black" points="61,-56.5 61,-75.5 151,-75.5 151,-56.5 61,-56.5"/>
<text text-anchor="middle" x="106" y="-63.5" font-family="Helvetica,sans-Serif" font-size="10.00">thrifts/Force6D.h</text>
</a>
</g>
</g>
<!-- Node1&#45;&gt;Node4 -->
<g id="edge3" class="edge"><title>Node1&#45;&gt;Node4</title>
<path fill="none" stroke="midnightblue" d="M106,-112.088C106,-103.15 106,-93.6688 106,-85.7195"/>
<polygon fill="midnightblue" stroke="midnightblue" points="109.5,-85.7181 106,-75.7182 102.5,-85.7182 109.5,-85.7181"/>
</g>
<!-- Node4&#45;&gt;Node2 -->
<g id="edge4" class="edge"><title>Node4&#45;&gt;Node2</title>
<path fill="none" stroke="midnightblue" d="M95.396,-56.324C85.5438,-48.2631 70.6491,-36.0765 58.7849,-26.3695"/>
<polygon fill="midnightblue" stroke="midnightblue" points="60.7529,-23.4575 50.797,-19.8339 56.3202,-28.8752 60.7529,-23.4575"/>
</g>
<!-- Node4&#45;&gt;Node3 -->
<g id="edge5" class="edge"><title>Node4&#45;&gt;Node3</title>
<path fill="none" stroke="midnightblue" d="M116.604,-56.324C126.456,-48.2631 141.351,-36.0765 153.215,-26.3695"/>
<polygon fill="midnightblue" stroke="midnightblue" points="155.68,-28.8752 161.203,-19.8339 151.247,-23.4575 155.68,-28.8752"/>
</g>
</g>
</svg>
