<?xml version="1.0" encoding="UTF-8" standalone="no"?>
<!DOCTYPE svg PUBLIC "-//W3C//DTD SVG 1.1//EN"
 "http://www.w3.org/Graphics/SVG/1.1/DTD/svg11.dtd">
<!-- Generated by graphviz version 2.36.0 (20140111.2315)
 -->
<!-- Title: /home/travis/build/robotology/human&#45;dynamics&#45;estimation/build/human&#45;dynamics&#45;estimator/_yarp_idl_/thrifts/humandynamics/HumanDynamics.h Pages: 1 -->
<svg width="377pt" height="196pt"
 viewBox="0.00 0.00 376.87 196.00" xmlns="http://www.w3.org/2000/svg" xmlns:xlink="http://www.w3.org/1999/xlink">
<g id="graph0" class="graph" transform="scale(1 1) rotate(0) translate(4 192)">
<title>/home/travis/build/robotology/human&#45;dynamics&#45;estimation/build/human&#45;dynamics&#45;estimator/_yarp_idl_/thrifts/humandynamics/HumanDynamics.h</title>
<!-- Node1 -->
<g id="node1" class="node"><title>Node1</title>
<polygon fill="#bfbfbf" stroke="black" points="113.945,-113 113.945,-187 255.945,-187 255.945,-113 113.945,-113"/>
<text text-anchor="start" x="121.945" y="-175" font-family="Helvetica,sans-Serif" font-size="10.00">/home/travis/build</text>
<text text-anchor="start" x="121.945" y="-164" font-family="Helvetica,sans-Serif" font-size="10.00">/robotology/human&#45;dynamics</text>
<text text-anchor="start" x="121.945" y="-153" font-family="Helvetica,sans-Serif" font-size="10.00">&#45;estimation/build/human</text>
<text text-anchor="start" x="121.945" y="-142" font-family="Helvetica,sans-Serif" font-size="10.00">&#45;dynamics&#45;estimator/_yarp</text>
<text text-anchor="start" x="121.945" y="-131" font-family="Helvetica,sans-Serif" font-size="10.00">_idl_/thrifts/humandynamics</text>
<text text-anchor="middle" x="184.945" y="-120" font-family="Helvetica,sans-Serif" font-size="10.00">/HumanDynamics.h</text>
</g>
<!-- Node2 -->
<g id="node2" class="node"><title>Node2</title>
<polygon fill="none" stroke="#bfbfbf" points="30.9451,-0.5 30.9451,-19.5 110.945,-19.5 110.945,-0.5 30.9451,-0.5"/>
<text text-anchor="middle" x="70.9451" y="-7.5" font-family="Helvetica,sans-Serif" font-size="10.00">yarp/os/Wire.h</text>
</g>
<!-- Node1&#45;&gt;Node2 -->
<g id="edge1" class="edge"><title>Node1&#45;&gt;Node2</title>
<path fill="none" stroke="midnightblue" d="M113.56,-139.677C74.1668,-130.482 28.398,-112.229 3.94507,-76 -9.98209,-55.3658 16.9273,-36.0913 40.6808,-23.9739"/>
<polygon fill="midnightblue" stroke="midnightblue" points="42.3847,-27.038 49.8704,-19.5404 39.343,-20.7334 42.3847,-27.038"/>
</g>
<!-- Node3 -->
<g id="node3" class="node"><title>Node3</title>
<polygon fill="none" stroke="#bfbfbf" points="238.945,-0.5 238.945,-19.5 358.945,-19.5 358.945,-0.5 238.945,-0.5"/>
<text text-anchor="middle" x="298.945" y="-7.5" font-family="Helvetica,sans-Serif" font-size="10.00">yarp/os/idl/WireTypes.h</text>
</g>
<!-- Node1&#45;&gt;Node3 -->
<g id="edge2" class="edge"><title>Node1&#45;&gt;Node3</title>
<path fill="none" stroke="midnightblue" d="M255.948,-139.567C295.127,-130.335 340.643,-112.08 364.945,-76 378.746,-55.5105 352.222,-36.2071 328.797,-24.0434"/>
<polygon fill="midnightblue" stroke="midnightblue" points="330.252,-20.859 319.734,-19.5909 327.166,-27.1417 330.252,-20.859"/>
</g>
<!-- Node4 -->
<g id="node4" class="node"><title>Node4</title>
<g id="a_node4"><a xlink:href="autogenerated_2include_2thrifts_2_joint_dynamics_estimation_8h.html" target="_top" xlink:title="thrifts/JointDynamicsEstimation.h">
<polygon fill="none" stroke="black" points="12.9451,-56.5 12.9451,-75.5 176.945,-75.5 176.945,-56.5 12.9451,-56.5"/>
<text text-anchor="middle" x="94.9451" y="-63.5" font-family="Helvetica,sans-Serif" font-size="10.00">thrifts/JointDynamicsEstimation.h</text>
</a>
</g>
</g>
<!-- Node1&#45;&gt;Node4 -->
<g id="edge3" class="edge"><title>Node1&#45;&gt;Node4</title>
<path fill="none" stroke="midnightblue" d="M145.208,-112.795C133.553,-102.176 121.421,-91.1226 111.997,-82.5358"/>
<polygon fill="midnightblue" stroke="midnightblue" points="114.241,-79.8455 104.491,-75.6978 109.526,-85.0199 114.241,-79.8455"/>
</g>
<!-- Node6 -->
<g id="node6" class="node"><title>Node6</title>
<g id="a_node6"><a xlink:href="autogenerated_2include_2thrifts_2_link_dynamics_estimation_8h.html" target="_top" xlink:title="thrifts/LinkDynamicsEstimation.h">
<polygon fill="none" stroke="black" points="195.445,-56.5 195.445,-75.5 356.445,-75.5 356.445,-56.5 195.445,-56.5"/>
<text text-anchor="middle" x="275.945" y="-63.5" font-family="Helvetica,sans-Serif" font-size="10.00">thrifts/LinkDynamicsEstimation.h</text>
</a>
</g>
</g>
<!-- Node1&#45;&gt;Node6 -->
<g id="edge7" class="edge"><title>Node1&#45;&gt;Node6</title>
<path fill="none" stroke="midnightblue" d="M225.124,-112.795C236.908,-102.176 249.175,-91.1226 258.704,-82.5358"/>
<polygon fill="midnightblue" stroke="midnightblue" points="261.207,-84.9921 266.293,-75.6978 256.521,-79.7919 261.207,-84.9921"/>
</g>
<!-- Node4&#45;&gt;Node2 -->
<g id="edge4" class="edge"><title>Node4&#45;&gt;Node2</title>
<path fill="none" stroke="midnightblue" d="M90.982,-56.083C87.7317,-48.77 83.0257,-38.1814 78.991,-29.1034"/>
<polygon fill="midnightblue" stroke="midnightblue" points="82.0942,-27.4677 74.8344,-19.7511 75.6975,-30.3107 82.0942,-27.4677"/>
</g>
<!-- Node4&#45;&gt;Node3 -->
<g id="edge5" class="edge"><title>Node4&#45;&gt;Node3</title>
<path fill="none" stroke="midnightblue" d="M127.269,-56.4435C162.335,-47.1616 218.443,-32.3093 256.91,-22.127"/>
<polygon fill="midnightblue" stroke="midnightblue" points="258,-25.4589 266.772,-19.5164 256.209,-18.692 258,-25.4589"/>
</g>
<!-- Node5 -->
<g id="node5" class="node"><title>Node5</title>
<polygon fill="none" stroke="#bfbfbf" points="129.445,-0.5 129.445,-19.5 220.445,-19.5 220.445,-0.5 129.445,-0.5"/>
<text text-anchor="middle" x="174.945" y="-7.5" font-family="Helvetica,sans-Serif" font-size="10.00">yarp/sig/Vector.h</text>
</g>
<!-- Node4&#45;&gt;Node5 -->
<g id="edge6" class="edge"><title>Node4&#45;&gt;Node5</title>
<path fill="none" stroke="midnightblue" d="M107.798,-56.324C120.161,-47.979 139.075,-35.2122 153.682,-25.3524"/>
<polygon fill="midnightblue" stroke="midnightblue" points="155.793,-28.1503 162.124,-19.6545 151.877,-22.3483 155.793,-28.1503"/>
</g>
<!-- Node6&#45;&gt;Node2 -->
<g id="edge8" class="edge"><title>Node6&#45;&gt;Node2</title>
<path fill="none" stroke="midnightblue" d="M243.462,-56.4435C208.225,-47.1616 151.841,-32.3093 113.186,-22.127"/>
<polygon fill="midnightblue" stroke="midnightblue" points="113.838,-18.6792 103.276,-19.5164 112.055,-25.4483 113.838,-18.6792"/>
</g>
<!-- Node6&#45;&gt;Node3 -->
<g id="edge9" class="edge"><title>Node6&#45;&gt;Node3</title>
<path fill="none" stroke="midnightblue" d="M279.743,-56.083C282.858,-48.77 287.368,-38.1814 291.234,-29.1034"/>
<polygon fill="midnightblue" stroke="midnightblue" points="294.519,-30.3229 295.218,-19.7511 288.079,-27.5798 294.519,-30.3229"/>
</g>
<!-- Node6&#45;&gt;Node5 -->
<g id="edge10" class="edge"><title>Node6&#45;&gt;Node5</title>
<path fill="none" stroke="midnightblue" d="M259.718,-56.324C243.594,-47.7034 218.645,-34.3643 199.981,-24.3855"/>
<polygon fill="midnightblue" stroke="midnightblue" points="201.601,-21.283 191.132,-19.6545 198.301,-27.456 201.601,-21.283"/>
</g>
</g>
</svg>
