<?xml version="1.0" encoding="UTF-8" standalone="no"?>
<!DOCTYPE svg PUBLIC "-//W3C//DTD SVG 1.1//EN"
 "http://www.w3.org/Graphics/SVG/1.1/DTD/svg11.dtd">
<!-- Generated by graphviz version 2.36.0 (20140111.2315)
 -->
<!-- Title: /home/travis/build/robotology/human&#45;dynamics&#45;estimation/build/human&#45;viz&#45;bridge/_yarp_idl_/thrift/xsensdriverservice/XsensDriverService.h Pages: 1 -->
<svg width="252pt" height="184pt"
 viewBox="0.00 0.00 252.00 184.00" xmlns="http://www.w3.org/2000/svg" xmlns:xlink="http://www.w3.org/1999/xlink">
<g id="graph0" class="graph" transform="scale(1 1) rotate(0) translate(4 180)">
<title>/home/travis/build/robotology/human&#45;dynamics&#45;estimation/build/human&#45;viz&#45;bridge/_yarp_idl_/thrift/xsensdriverservice/XsensDriverService.h</title>
<!-- Node1 -->
<g id="node1" class="node"><title>Node1</title>
<polygon fill="#bfbfbf" stroke="black" points="13,-112.5 13,-175.5 213,-175.5 213,-112.5 13,-112.5"/>
<text text-anchor="start" x="21" y="-163.5" font-family="Helvetica,sans-Serif" font-size="10.00">/home/travis/build</text>
<text text-anchor="start" x="21" y="-152.5" font-family="Helvetica,sans-Serif" font-size="10.00">/robotology/human&#45;dynamics</text>
<text text-anchor="start" x="21" y="-141.5" font-family="Helvetica,sans-Serif" font-size="10.00">&#45;estimation/build/human</text>
<text text-anchor="start" x="21" y="-130.5" font-family="Helvetica,sans-Serif" font-size="10.00">&#45;viz&#45;bridge/_yarp_idl_/thrift</text>
<text text-anchor="middle" x="113" y="-119.5" font-family="Helvetica,sans-Serif" font-size="10.00">/xsensdriverservice/XsensDriverService.h</text>
</g>
<!-- Node2 -->
<g id="node2" class="node"><title>Node2</title>
<polygon fill="none" stroke="#bfbfbf" points="0,-0.5 0,-19.5 80,-19.5 80,-0.5 0,-0.5"/>
<text text-anchor="middle" x="40" y="-7.5" font-family="Helvetica,sans-Serif" font-size="10.00">yarp/os/Wire.h</text>
</g>
<!-- Node1&#45;&gt;Node2 -->
<g id="edge1" class="edge"><title>Node1&#45;&gt;Node2</title>
<path fill="none" stroke="midnightblue" d="M73.3039,-112.268C62.6629,-101.935 52.3588,-89.5519 46,-76 39.2304,-61.5727 38.0876,-43.382 38.4326,-29.916"/>
<polygon fill="midnightblue" stroke="midnightblue" points="41.9288,-30.0787 38.9814,-19.9021 34.9393,-29.6955 41.9288,-30.0787"/>
</g>
<!-- Node3 -->
<g id="node3" class="node"><title>Node3</title>
<polygon fill="none" stroke="#bfbfbf" points="125,-0.5 125,-19.5 245,-19.5 245,-0.5 125,-0.5"/>
<text text-anchor="middle" x="185" y="-7.5" font-family="Helvetica,sans-Serif" font-size="10.00">yarp/os/idl/WireTypes.h</text>
</g>
<!-- Node1&#45;&gt;Node3 -->
<g id="edge2" class="edge"><title>Node1&#45;&gt;Node3</title>
<path fill="none" stroke="midnightblue" d="M152.107,-112.172C162.59,-101.836 172.739,-89.4747 179,-76 185.715,-61.5473 186.863,-43.3592 186.534,-29.9005"/>
<polygon fill="midnightblue" stroke="midnightblue" points="190.028,-29.6927 186,-19.8935 183.038,-30.0659 190.028,-29.6927"/>
</g>
<!-- Node4 -->
<g id="node4" class="node"><title>Node4</title>
<g id="a_node4"><a xlink:href="autogenerated_2services_2include_2thrift_2_frame_referece_8h.html" target="_top" xlink:title="thrift/FrameReferece.h">
<polygon fill="none" stroke="black" points="55.5,-56.5 55.5,-75.5 170.5,-75.5 170.5,-56.5 55.5,-56.5"/>
<text text-anchor="middle" x="113" y="-63.5" font-family="Helvetica,sans-Serif" font-size="10.00">thrift/FrameReferece.h</text>
</a>
</g>
</g>
<!-- Node1&#45;&gt;Node4 -->
<g id="edge3" class="edge"><title>Node1&#45;&gt;Node4</title>
<path fill="none" stroke="midnightblue" d="M113,-112.088C113,-103.15 113,-93.6688 113,-85.7195"/>
<polygon fill="midnightblue" stroke="midnightblue" points="116.5,-85.7181 113,-75.7182 109.5,-85.7182 116.5,-85.7181"/>
</g>
<!-- Node4&#45;&gt;Node2 -->
<g id="edge4" class="edge"><title>Node4&#45;&gt;Node2</title>
<path fill="none" stroke="midnightblue" d="M101.271,-56.324C90.1626,-48.1066 73.2578,-35.6017 60.0167,-25.8069"/>
<polygon fill="midnightblue" stroke="midnightblue" points="62.0631,-22.9671 51.9421,-19.8339 57.9001,-28.5948 62.0631,-22.9671"/>
</g>
<!-- Node4&#45;&gt;Node3 -->
<g id="edge5" class="edge"><title>Node4&#45;&gt;Node3</title>
<path fill="none" stroke="midnightblue" d="M124.568,-56.324C135.42,-48.1849 151.881,-35.8395 164.883,-26.0874"/>
<polygon fill="midnightblue" stroke="midnightblue" points="167.321,-28.6339 173.221,-19.8339 163.121,-23.0339 167.321,-28.6339"/>
</g>
</g>
</svg>
