<?xml version="1.0" encoding="UTF-8" standalone="no"?>
<!DOCTYPE svg PUBLIC "-//W3C//DTD SVG 1.1//EN"
 "http://www.w3.org/Graphics/SVG/1.1/DTD/svg11.dtd">
<!-- Generated by graphviz version 2.36.0 (20140111.2315)
 -->
<!-- Title: /home/travis/build/robotology/human&#45;dynamics&#45;estimation/human&#45;forces&#45;provider/include/AbstractForceReader.h Pages: 1 -->
<!--zoomable 242 -->
<svg id="main" version="1.1" xmlns="http://www.w3.org/2000/svg" xmlns:xlink="http://www.w3.org/1999/xlink" xml:space="preserve" onload="init(evt)">
<style type="text/css"><![CDATA[
.edge:hover path { stroke: red; }
.edge:hover polygon { stroke: red; fill: red; }
]]></style>
<script type="text/javascript"><![CDATA[
var edges = document.getElementsByTagName('g');
if (edges && edges.length) {
  for (var i=0;i<edges.length;i++) {
    if (edges[i].id.substr(0,4)=='edge') {
      edges[i].setAttribute('class','edge');
    }
  }
}
]]></script>
        <defs>
                <circle id="rim" cx="0" cy="0" r="7"/>
                <circle id="rim2" cx="0" cy="0" r="3.5"/>
                <g id="zoomPlus">
                        <use xlink:href="#rim" fill="#404040">
                                <set attributeName="fill" to="#808080" begin="zoomplus.mouseover" end="zoomplus.mouseout"/>
                        </use>
                        <path d="M-4,0h8M0,-4v8" fill="none" stroke="white" stroke-width="1.5" pointer-events="none"/>
                </g>
                <g id="zoomMin">
                        <use xlink:href="#rim" fill="#404040">
                                <set attributeName="fill" to="#808080" begin="zoomminus.mouseover" end="zoomminus.mouseout"/>
                        </use>
                        <path d="M-4,0h8" fill="none" stroke="white" stroke-width="1.5" pointer-events="none"/>
                </g>
                <g id="dirArrow">
                        <path fill="none" stroke="white" stroke-width="1.5" d="M0,-3.0v7 M-2.5,-0.5L0,-3.0L2.5,-0.5"/>
                </g>
               <g id="resetDef">
                       <use xlink:href="#rim2" fill="#404040">
                               <set attributeName="fill" to="#808080" begin="reset.mouseover" end="reset.mouseout"/>
                       </use>
               </g>
        </defs>

<script type="text/javascript">
var viewWidth = 686;
var viewHeight = 242;
var sectionId = 'dynsection-1';
</script>
<script xlink:href="svgpan.js"/>
<svg id="graph" class="graph">
<g id="viewport">
<title>/home/travis/build/robotology/human&#45;dynamics&#45;estimation/human&#45;forces&#45;provider/include/AbstractForceReader.h</title>
<!-- Node1 -->
<g id="node1" class="node"><title>Node1</title>
<polygon fill="#bfbfbf" stroke="black" points="235,-181 235,-233 427,-233 427,-181 235,-181"/>
<text text-anchor="start" x="243" y="-221" font-family="Helvetica,sans-Serif" font-size="10.00">/home/travis/build</text>
<text text-anchor="start" x="243" y="-210" font-family="Helvetica,sans-Serif" font-size="10.00">/robotology/human&#45;dynamics</text>
<text text-anchor="start" x="243" y="-199" font-family="Helvetica,sans-Serif" font-size="10.00">&#45;estimation/human&#45;forces</text>
<text text-anchor="middle" x="331" y="-188" font-family="Helvetica,sans-Serif" font-size="10.00">&#45;provider/include/AbstractForceReader.h</text>
</g>
<!-- Node2 -->
<g id="node2" class="node"><title>Node2</title>
<g id="a_node2"><a xlink:href="_f_t_force_reader_8h.html" target="_top" xlink:title="/home/travis/build\l/robotology/human&#45;dynamics\l&#45;estimation/human&#45;forces\l&#45;provider/include/FTForceReader.h">
<polygon fill="none" stroke="black" points="79.5,-91 79.5,-143 246.5,-143 246.5,-91 79.5,-91"/>
<text text-anchor="start" x="87.5" y="-131" font-family="Helvetica,sans-Serif" font-size="10.00">/home/travis/build</text>
<text text-anchor="start" x="87.5" y="-120" font-family="Helvetica,sans-Serif" font-size="10.00">/robotology/human&#45;dynamics</text>
<text text-anchor="start" x="87.5" y="-109" font-family="Helvetica,sans-Serif" font-size="10.00">&#45;estimation/human&#45;forces</text>
<text text-anchor="middle" x="163" y="-98" font-family="Helvetica,sans-Serif" font-size="10.00">&#45;provider/include/FTForceReader.h</text>
</a>
</g>
</g>
<!-- Node1&#45;&gt;Node2 -->
<g id="edge1" class="edge"><title>Node1&#45;&gt;Node2</title>
<path fill="none" stroke="midnightblue" d="M273.927,-176.105C253.415,-165.36 230.507,-153.361 210.858,-143.069"/>
<polygon fill="midnightblue" stroke="midnightblue" points="272.376,-179.243 282.858,-180.783 275.624,-173.042 272.376,-179.243"/>
</g>
<!-- Node4 -->
<g id="node4" class="node"><title>Node4</title>
<g id="a_node4"><a xlink:href="_human_forces_provider_8cpp.html" target="_top" xlink:title="/home/travis/build\l/robotology/human&#45;dynamics\l&#45;estimation/human&#45;forces\l&#45;provider/src/HumanForcesProvider.cpp">
<polygon fill="none" stroke="black" points="179,-1 179,-53 369,-53 369,-1 179,-1"/>
<text text-anchor="start" x="187" y="-41" font-family="Helvetica,sans-Serif" font-size="10.00">/home/travis/build</text>
<text text-anchor="start" x="187" y="-30" font-family="Helvetica,sans-Serif" font-size="10.00">/robotology/human&#45;dynamics</text>
<text text-anchor="start" x="187" y="-19" font-family="Helvetica,sans-Serif" font-size="10.00">&#45;estimation/human&#45;forces</text>
<text text-anchor="middle" x="274" y="-8" font-family="Helvetica,sans-Serif" font-size="10.00">&#45;provider/src/HumanForcesProvider.cpp</text>
</a>
</g>
</g>
<!-- Node1&#45;&gt;Node4 -->
<g id="edge8" class="edge"><title>Node1&#45;&gt;Node4</title>
<path fill="none" stroke="midnightblue" d="M307.151,-172.374C301.773,-163.491 296.598,-153.673 293,-144 281.83,-113.971 277.215,-77.145 275.315,-53.1535"/>
<polygon fill="midnightblue" stroke="midnightblue" points="304.244,-174.325 312.546,-180.906 310.16,-170.584 304.244,-174.325"/>
</g>
<!-- Node5 -->
<g id="node5" class="node"><title>Node5</title>
<g id="a_node5"><a xlink:href="_port_force_reader_8h.html" target="_top" xlink:title="/home/travis/build\l/robotology/human&#45;dynamics\l&#45;estimation/human&#45;forces\l&#45;provider/include/PortForceReader.h">
<polygon fill="none" stroke="black" points="302.5,-91 302.5,-143 475.5,-143 475.5,-91 302.5,-91"/>
<text text-anchor="start" x="310.5" y="-131" font-family="Helvetica,sans-Serif" font-size="10.00">/home/travis/build</text>
<text text-anchor="start" x="310.5" y="-120" font-family="Helvetica,sans-Serif" font-size="10.00">/robotology/human&#45;dynamics</text>
<text text-anchor="start" x="310.5" y="-109" font-family="Helvetica,sans-Serif" font-size="10.00">&#45;estimation/human&#45;forces</text>
<text text-anchor="middle" x="389" y="-98" font-family="Helvetica,sans-Serif" font-size="10.00">&#45;provider/include/PortForceReader.h</text>
</a>
</g>
</g>
<!-- Node1&#45;&gt;Node5 -->
<g id="edge4" class="edge"><title>Node1&#45;&gt;Node5</title>
<path fill="none" stroke="midnightblue" d="M353.432,-171.965C359.766,-162.354 366.542,-152.074 372.462,-143.092"/>
<polygon fill="midnightblue" stroke="midnightblue" points="350.357,-170.271 347.776,-180.547 356.202,-174.123 350.357,-170.271"/>
</g>
<!-- Node7 -->
<g id="node7" class="node"><title>Node7</title>
<g id="a_node7"><a xlink:href="_abstract_force_reader_8cpp.html" target="_top" xlink:title="/home/travis/build\l/robotology/human&#45;dynamics\l&#45;estimation/human&#45;forces\l&#45;provider/src/AbstractForceReader.cpp">
<polygon fill="none" stroke="black" points="493.5,-91 493.5,-143 678.5,-143 678.5,-91 493.5,-91"/>
<text text-anchor="start" x="501.5" y="-131" font-family="Helvetica,sans-Serif" font-size="10.00">/home/travis/build</text>
<text text-anchor="start" x="501.5" y="-120" font-family="Helvetica,sans-Serif" font-size="10.00">/robotology/human&#45;dynamics</text>
<text text-anchor="start" x="501.5" y="-109" font-family="Helvetica,sans-Serif" font-size="10.00">&#45;estimation/human&#45;forces</text>
<text text-anchor="middle" x="586" y="-98" font-family="Helvetica,sans-Serif" font-size="10.00">&#45;provider/src/AbstractForceReader.cpp</text>
</a>
</g>
</g>
<!-- Node1&#45;&gt;Node7 -->
<g id="edge7" class="edge"><title>Node1&#45;&gt;Node7</title>
<path fill="none" stroke="midnightblue" d="M413.54,-177.516C445.629,-166.442 482.077,-153.864 513.172,-143.133"/>
<polygon fill="midnightblue" stroke="midnightblue" points="412.043,-174.33 403.732,-180.901 414.326,-180.947 412.043,-174.33"/>
</g>
<!-- Node3 -->
<g id="node3" class="node"><title>Node3</title>
<g id="a_node3"><a xlink:href="_f_t_force_reader_8cpp.html" target="_top" xlink:title="/home/travis/build\l/robotology/human&#45;dynamics\l&#45;estimation/human&#45;forces\l&#45;provider/src/FTForceReader.cpp">
<polygon fill="none" stroke="black" points="-0.5,-1 -0.5,-53 160.5,-53 160.5,-1 -0.5,-1"/>
<text text-anchor="start" x="7.5" y="-41" font-family="Helvetica,sans-Serif" font-size="10.00">/home/travis/build</text>
<text text-anchor="start" x="7.5" y="-30" font-family="Helvetica,sans-Serif" font-size="10.00">/robotology/human&#45;dynamics</text>
<text text-anchor="start" x="7.5" y="-19" font-family="Helvetica,sans-Serif" font-size="10.00">&#45;estimation/human&#45;forces</text>
<text text-anchor="middle" x="80" y="-8" font-family="Helvetica,sans-Serif" font-size="10.00">&#45;provider/src/FTForceReader.cpp</text>
</a>
</g>
</g>
<!-- Node2&#45;&gt;Node3 -->
<g id="edge2" class="edge"><title>Node2&#45;&gt;Node3</title>
<path fill="none" stroke="midnightblue" d="M132.006,-83.1386C122.628,-73.1958 112.484,-62.4408 103.666,-53.0921"/>
<polygon fill="midnightblue" stroke="midnightblue" points="129.585,-85.6735 138.993,-90.5468 134.678,-80.8705 129.585,-85.6735"/>
</g>
<!-- Node2&#45;&gt;Node4 -->
<g id="edge3" class="edge"><title>Node2&#45;&gt;Node4</title>
<path fill="none" stroke="midnightblue" d="M202.691,-84.5335C215.657,-74.2542 229.879,-62.9791 242.187,-53.221"/>
<polygon fill="midnightblue" stroke="midnightblue" points="200.47,-81.8276 194.808,-90.7827 204.819,-87.3129 200.47,-81.8276"/>
</g>
<!-- Node5&#45;&gt;Node4 -->
<g id="edge5" class="edge"><title>Node5&#45;&gt;Node4</title>
<path fill="none" stroke="midnightblue" d="M347.879,-84.5335C334.446,-74.2542 319.711,-62.9791 306.959,-53.221"/>
<polygon fill="midnightblue" stroke="midnightblue" points="345.977,-87.4852 356.046,-90.7827 350.231,-81.9261 345.977,-87.4852"/>
</g>
<!-- Node6 -->
<g id="node6" class="node"><title>Node6</title>
<g id="a_node6"><a xlink:href="_port_force_reader_8cpp.html" target="_top" xlink:title="/home/travis/build\l/robotology/human&#45;dynamics\l&#45;estimation/human&#45;forces\l&#45;provider/src/PortForceReader.cpp">
<polygon fill="none" stroke="black" points="387.5,-1 387.5,-53 554.5,-53 554.5,-1 387.5,-1"/>
<text text-anchor="start" x="395.5" y="-41" font-family="Helvetica,sans-Serif" font-size="10.00">/home/travis/build</text>
<text text-anchor="start" x="395.5" y="-30" font-family="Helvetica,sans-Serif" font-size="10.00">/robotology/human&#45;dynamics</text>
<text text-anchor="start" x="395.5" y="-19" font-family="Helvetica,sans-Serif" font-size="10.00">&#45;estimation/human&#45;forces</text>
<text text-anchor="middle" x="471" y="-8" font-family="Helvetica,sans-Serif" font-size="10.00">&#45;provider/src/PortForceReader.cpp</text>
</a>
</g>
</g>
<!-- Node5&#45;&gt;Node6 -->
<g id="edge6" class="edge"><title>Node5&#45;&gt;Node6</title>
<path fill="none" stroke="midnightblue" d="M419.621,-83.1386C428.886,-73.1958 438.907,-62.4408 447.619,-53.0921"/>
<polygon fill="midnightblue" stroke="midnightblue" points="416.974,-80.8446 412.718,-90.5468 422.096,-85.6167 416.974,-80.8446"/>
</g>
</g>
</svg>
        <g id="navigator" transform="translate(0 0)" fill="#404254">
                <rect fill="#f2f5e9" fill-opacity="0.5" stroke="#606060" stroke-width=".5" x="0" y="0" width="60" height="60"/>
                <use id="zoomplus" xlink:href="#zoomPlus" x="17" y="9" onmousedown="handleZoom(evt,'in')"/>
                <use id="zoomminus" xlink:href="#zoomMin" x="42" y="9" onmousedown="handleZoom(evt,'out')"/>
                <use id="reset" xlink:href="#resetDef" x="30" y="36" onmousedown="handleReset()"/>
                <g id="arrowUp" xlink:href="#dirArrow" transform="translate(30 24)" onmousedown="handlePan(0,-1)">
                  <use xlink:href="#rim" fill="#404040">
                        <set attributeName="fill" to="#808080" begin="arrowUp.mouseover" end="arrowUp.mouseout"/>
                  </use>
                  <path fill="none" stroke="white" stroke-width="1.5" d="M0,-3.0v7 M-2.5,-0.5L0,-3.0L2.5,-0.5"/>
                </g>
                <g id="arrowRight" xlink:href="#dirArrow" transform="rotate(90) translate(36 -43)" onmousedown="handlePan(1,0)">
                  <use xlink:href="#rim" fill="#404040">
                        <set attributeName="fill" to="#808080" begin="arrowRight.mouseover" end="arrowRight.mouseout"/>
                  </use>
                  <path fill="none" stroke="white" stroke-width="1.5" d="M0,-3.0v7 M-2.5,-0.5L0,-3.0L2.5,-0.5"/>
                </g>
                <g id="arrowDown" xlink:href="#dirArrow" transform="rotate(180) translate(-30 -48)" onmousedown="handlePan(0,1)">
                  <use xlink:href="#rim" fill="#404040">
                        <set attributeName="fill" to="#808080" begin="arrowDown.mouseover" end="arrowDown.mouseout"/>
                  </use>
                  <path fill="none" stroke="white" stroke-width="1.5" d="M0,-3.0v7 M-2.5,-0.5L0,-3.0L2.5,-0.5"/>
                </g>
                <g id="arrowLeft" xlink:href="#dirArrow" transform="rotate(270) translate(-36 17)" onmousedown="handlePan(-1,0)">
                  <use xlink:href="#rim" fill="#404040">
                        <set attributeName="fill" to="#808080" begin="arrowLeft.mouseover" end="arrowLeft.mouseout"/>
                  </use>
                  <path fill="none" stroke="white" stroke-width="1.5" d="M0,-3.0v7 M-2.5,-0.5L0,-3.0L2.5,-0.5"/>
                </g>
        </g>
        <svg viewBox="0 0 15 15" width="100%" height="30px" preserveAspectRatio="xMaxYMin meet">
         <g id="arrow_out" transform="scale(0.3 0.3)">
          <a xlink:href="_abstract_force_reader_8h__dep__incl_org.svg" target="_base">
           <rect id="button" ry="5" rx="5" y="6" x="6" height="38" width="38"
                fill="#f2f5e9" fill-opacity="0.5" stroke="#606060" stroke-width="1.0"/>
           <path id="arrow"
             d="M 11.500037,31.436501 C 11.940474,20.09759 22.043105,11.32322 32.158766,21.979434 L 37.068811,17.246167 C 37.068811,17.246167 37.088388,32 37.088388,32 L 22.160133,31.978069 C 22.160133,31.978069 26.997745,27.140456 26.997745,27.140456 C 18.528582,18.264221 13.291696,25.230495 11.500037,31.436501 z"
             style="fill:#404040;"/>
          </a>
         </g>
        </svg>
</svg>
