<?xml version="1.0" encoding="UTF-8" standalone="no"?>
<!DOCTYPE svg PUBLIC "-//W3C//DTD SVG 1.1//EN"
 "http://www.w3.org/Graphics/SVG/1.1/DTD/svg11.dtd">
<!-- Generated by graphviz version 2.36.0 (20140111.2315)
 -->
<!-- Title: /home/travis/build/robotology/human&#45;dynamics&#45;estimation/build/CMakeFiles/FindThreads/CheckForPthreads.cxx Pages: 1 -->
<svg width="198pt" height="118pt"
 viewBox="0.00 0.00 198.00 118.00" xmlns="http://www.w3.org/2000/svg" xmlns:xlink="http://www.w3.org/1999/xlink">
<g id="graph0" class="graph" transform="scale(1 1) rotate(0) translate(4 114)">
<title>/home/travis/build/robotology/human&#45;dynamics&#45;estimation/build/CMakeFiles/FindThreads/CheckForPthreads.cxx</title>
<!-- Node1 -->
<g id="node1" class="node"><title>Node1</title>
<polygon fill="#bfbfbf" stroke="black" points="4.5,-57 4.5,-109 181.5,-109 181.5,-57 4.5,-57"/>
<text text-anchor="start" x="12.5" y="-97" font-family="Helvetica,sans-Serif" font-size="10.00">/home/travis/build</text>
<text text-anchor="start" x="12.5" y="-86" font-family="Helvetica,sans-Serif" font-size="10.00">/robotology/human&#45;dynamics</text>
<text text-anchor="start" x="12.5" y="-75" font-family="Helvetica,sans-Serif" font-size="10.00">&#45;estimation/build/CMakeFiles</text>
<text text-anchor="middle" x="93" y="-64" font-family="Helvetica,sans-Serif" font-size="10.00">/FindThreads/CheckForPthreads.cxx</text>
</g>
<!-- Node2 -->
<g id="node2" class="node"><title>Node2</title>
<polygon fill="none" stroke="#bfbfbf" points="0,-0.5 0,-19.5 46,-19.5 46,-0.5 0,-0.5"/>
<text text-anchor="middle" x="23" y="-7.5" font-family="Helvetica,sans-Serif" font-size="10.00">stdio.h</text>
</g>
<!-- Node1&#45;&gt;Node2 -->
<g id="edge1" class="edge"><title>Node1&#45;&gt;Node2</title>
<path fill="none" stroke="midnightblue" d="M68.1235,-56.7681C58.3754,-46.8808 47.481,-35.8307 38.8393,-27.0656"/>
<polygon fill="midnightblue" stroke="midnightblue" points="41.147,-24.4209 31.6338,-19.7572 36.1622,-29.3355 41.147,-24.4209"/>
</g>
<!-- Node3 -->
<g id="node3" class="node"><title>Node3</title>
<polygon fill="none" stroke="#bfbfbf" points="64.5,-0.5 64.5,-19.5 121.5,-19.5 121.5,-0.5 64.5,-0.5"/>
<text text-anchor="middle" x="93" y="-7.5" font-family="Helvetica,sans-Serif" font-size="10.00">pthread.h</text>
</g>
<!-- Node1&#45;&gt;Node3 -->
<g id="edge2" class="edge"><title>Node1&#45;&gt;Node3</title>
<path fill="none" stroke="midnightblue" d="M93,-56.7681C93,-47.8897 93,-38.0737 93,-29.8165"/>
<polygon fill="midnightblue" stroke="midnightblue" points="96.5001,-29.7571 93,-19.7572 89.5001,-29.7572 96.5001,-29.7571"/>
</g>
<!-- Node4 -->
<g id="node4" class="node"><title>Node4</title>
<polygon fill="none" stroke="#bfbfbf" points="139.5,-0.5 139.5,-19.5 190.5,-19.5 190.5,-0.5 139.5,-0.5"/>
<text text-anchor="middle" x="165" y="-7.5" font-family="Helvetica,sans-Serif" font-size="10.00">unistd.h</text>
</g>
<!-- Node1&#45;&gt;Node4 -->
<g id="edge3" class="edge"><title>Node1&#45;&gt;Node4</title>
<path fill="none" stroke="midnightblue" d="M118.587,-56.7681C128.716,-46.7799 140.048,-35.6051 148.98,-26.798"/>
<polygon fill="midnightblue" stroke="midnightblue" points="151.457,-29.2708 156.12,-19.7572 146.542,-24.2865 151.457,-29.2708"/>
</g>
</g>
</svg>
