<?xml version="1.0" encoding="UTF-8" standalone="no"?>
<!DOCTYPE svg PUBLIC "-//W3C//DTD SVG 1.1//EN"
 "http://www.w3.org/Graphics/SVG/1.1/DTD/svg11.dtd">
<!-- Generated by graphviz version 2.36.0 (20140111.2315)
 -->
<!-- Title: /home/travis/build/robotology/human&#45;dynamics&#45;estimation/yarp/ReadOnlyControlBoardRemapper/ControlBoardRemapperHelpers.h Pages: 1 -->
<svg width="651pt" height="352pt"
 viewBox="0.00 0.00 651.00 352.00" xmlns="http://www.w3.org/2000/svg" xmlns:xlink="http://www.w3.org/1999/xlink">
<g id="graph0" class="graph" transform="scale(1 1) rotate(0) translate(4 348)">
<title>/home/travis/build/robotology/human&#45;dynamics&#45;estimation/yarp/ReadOnlyControlBoardRemapper/ControlBoardRemapperHelpers.h</title>
<!-- Node1 -->
<g id="node1" class="node"><title>Node1</title>
<polygon fill="#bfbfbf" stroke="black" points="156,-291 156,-343 390,-343 390,-291 156,-291"/>
<text text-anchor="start" x="164" y="-331" font-family="Helvetica,sans-Serif" font-size="10.00">/home/travis/build</text>
<text text-anchor="start" x="164" y="-320" font-family="Helvetica,sans-Serif" font-size="10.00">/robotology/human&#45;dynamics</text>
<text text-anchor="start" x="164" y="-309" font-family="Helvetica,sans-Serif" font-size="10.00">&#45;estimation/yarp/ReadOnlyControl</text>
<text text-anchor="middle" x="273" y="-298" font-family="Helvetica,sans-Serif" font-size="10.00">BoardRemapper/ControlBoardRemapperHelpers.h</text>
</g>
<!-- Node2 -->
<g id="node2" class="node"><title>Node2</title>
<g id="a_node2"><a xlink:href="_control_board_remapper_helpers_8cpp.html" target="_top" xlink:title="/home/travis/build\l/robotology/human&#45;dynamics\l&#45;estimation/yarp/ReadOnlyControl\lBoardRemapper/ControlBoardRemapperHelpers.cpp">
<polygon fill="none" stroke="black" points="-0.5,-201 -0.5,-253 244.5,-253 244.5,-201 -0.5,-201"/>
<text text-anchor="start" x="7.5" y="-241" font-family="Helvetica,sans-Serif" font-size="10.00">/home/travis/build</text>
<text text-anchor="start" x="7.5" y="-230" font-family="Helvetica,sans-Serif" font-size="10.00">/robotology/human&#45;dynamics</text>
<text text-anchor="start" x="7.5" y="-219" font-family="Helvetica,sans-Serif" font-size="10.00">&#45;estimation/yarp/ReadOnlyControl</text>
<text text-anchor="middle" x="122" y="-208" font-family="Helvetica,sans-Serif" font-size="10.00">BoardRemapper/ControlBoardRemapperHelpers.cpp</text>
</a>
</g>
</g>
<!-- Node1&#45;&gt;Node2 -->
<g id="edge1" class="edge"><title>Node1&#45;&gt;Node2</title>
<path fill="none" stroke="midnightblue" d="M220.957,-285.67C202.712,-275.038 182.438,-263.222 165.016,-253.069"/>
<polygon fill="midnightblue" stroke="midnightblue" points="219.327,-288.771 229.729,-290.783 222.852,-282.724 219.327,-288.771"/>
</g>
<!-- Node3 -->
<g id="node3" class="node"><title>Node3</title>
<g id="a_node3"><a xlink:href="_read_only_control_board_remapper_8h.html" target="_top" xlink:title="/home/travis/build\l/robotology/human&#45;dynamics\l&#45;estimation/yarp/ReadOnlyControl\lBoardRemapper/ReadOnlyControlBoardRemapper.h">
<polygon fill="none" stroke="black" points="301,-201 301,-253 545,-253 545,-201 301,-201"/>
<text text-anchor="start" x="309" y="-241" font-family="Helvetica,sans-Serif" font-size="10.00">/home/travis/build</text>
<text text-anchor="start" x="309" y="-230" font-family="Helvetica,sans-Serif" font-size="10.00">/robotology/human&#45;dynamics</text>
<text text-anchor="start" x="309" y="-219" font-family="Helvetica,sans-Serif" font-size="10.00">&#45;estimation/yarp/ReadOnlyControl</text>
<text text-anchor="middle" x="423" y="-208" font-family="Helvetica,sans-Serif" font-size="10.00">BoardRemapper/ReadOnlyControlBoardRemapper.h</text>
</a>
</g>
</g>
<!-- Node1&#45;&gt;Node3 -->
<g id="edge2" class="edge"><title>Node1&#45;&gt;Node3</title>
<path fill="none" stroke="midnightblue" d="M324.698,-285.67C342.822,-275.038 362.962,-263.222 380.269,-253.069"/>
<polygon fill="midnightblue" stroke="midnightblue" points="322.838,-282.704 315.984,-290.783 326.38,-288.741 322.838,-282.704"/>
</g>
<!-- Node4 -->
<g id="node4" class="node"><title>Node4</title>
<g id="a_node4"><a xlink:href="_read_only_control_board_remapper_8cpp.html" target="_top" xlink:title="/home/travis/build\l/robotology/human&#45;dynamics\l&#45;estimation/yarp/ReadOnlyControl\lBoardRemapper/ReadOnlyControlBoardRemapper.cpp">
<polygon fill="none" stroke="black" points="146,-106 146,-158 400,-158 400,-106 146,-106"/>
<text text-anchor="start" x="154" y="-146" font-family="Helvetica,sans-Serif" font-size="10.00">/home/travis/build</text>
<text text-anchor="start" x="154" y="-135" font-family="Helvetica,sans-Serif" font-size="10.00">/robotology/human&#45;dynamics</text>
<text text-anchor="start" x="154" y="-124" font-family="Helvetica,sans-Serif" font-size="10.00">&#45;estimation/yarp/ReadOnlyControl</text>
<text text-anchor="middle" x="273" y="-113" font-family="Helvetica,sans-Serif" font-size="10.00">BoardRemapper/ReadOnlyControlBoardRemapper.cpp</text>
</a>
</g>
</g>
<!-- Node1&#45;&gt;Node4 -->
<g id="edge6" class="edge"><title>Node1&#45;&gt;Node4</title>
<path fill="none" stroke="midnightblue" d="M273,-280.881C273,-244.898 273,-189.854 273,-158.052"/>
<polygon fill="midnightblue" stroke="midnightblue" points="269.5,-280.938 273,-290.938 276.5,-280.938 269.5,-280.938"/>
</g>
<!-- Node3&#45;&gt;Node4 -->
<g id="edge3" class="edge"><title>Node3&#45;&gt;Node4</title>
<path fill="none" stroke="midnightblue" d="M373.902,-195.559C354.298,-183.405 332.003,-169.582 313.364,-158.026"/>
<polygon fill="midnightblue" stroke="midnightblue" points="372.064,-198.538 382.408,-200.833 375.753,-192.589 372.064,-198.538"/>
</g>
<!-- Node5 -->
<g id="node5" class="node"><title>Node5</title>
<g id="a_node5"><a xlink:href="_read_only_remote_control_board_remapper_8h.html" target="_top" xlink:title="/home/travis/build\l/robotology/human&#45;dynamics\l&#45;estimation/yarp/ReadOnlyControl\lBoardRemapper/ReadOnlyRemoteControlBoard\lRemapper.h">
<polygon fill="none" stroke="black" points="418.5,-100.5 418.5,-163.5 643.5,-163.5 643.5,-100.5 418.5,-100.5"/>
<text text-anchor="start" x="426.5" y="-151.5" font-family="Helvetica,sans-Serif" font-size="10.00">/home/travis/build</text>
<text text-anchor="start" x="426.5" y="-140.5" font-family="Helvetica,sans-Serif" font-size="10.00">/robotology/human&#45;dynamics</text>
<text text-anchor="start" x="426.5" y="-129.5" font-family="Helvetica,sans-Serif" font-size="10.00">&#45;estimation/yarp/ReadOnlyControl</text>
<text text-anchor="start" x="426.5" y="-118.5" font-family="Helvetica,sans-Serif" font-size="10.00">BoardRemapper/ReadOnlyRemoteControlBoard</text>
<text text-anchor="middle" x="531" y="-107.5" font-family="Helvetica,sans-Serif" font-size="10.00">Remapper.h</text>
</a>
</g>
</g>
<!-- Node3&#45;&gt;Node5 -->
<g id="edge4" class="edge"><title>Node3&#45;&gt;Node5</title>
<path fill="none" stroke="midnightblue" d="M459.915,-194.212C471.324,-184.388 483.867,-173.587 495.199,-163.828"/>
<polygon fill="midnightblue" stroke="midnightblue" points="457.52,-191.655 452.226,-200.833 462.088,-196.96 457.52,-191.655"/>
</g>
<!-- Node6 -->
<g id="node6" class="node"><title>Node6</title>
<g id="a_node6"><a xlink:href="_read_only_remote_control_board_remapper_8cpp.html" target="_top" xlink:title="/home/travis/build\l/robotology/human&#45;dynamics\l&#45;estimation/yarp/ReadOnlyControl\lBoardRemapper/ReadOnlyRemoteControlBoard\lRemapper.cpp">
<polygon fill="none" stroke="black" points="418.5,-0.5 418.5,-63.5 643.5,-63.5 643.5,-0.5 418.5,-0.5"/>
<text text-anchor="start" x="426.5" y="-51.5" font-family="Helvetica,sans-Serif" font-size="10.00">/home/travis/build</text>
<text text-anchor="start" x="426.5" y="-40.5" font-family="Helvetica,sans-Serif" font-size="10.00">/robotology/human&#45;dynamics</text>
<text text-anchor="start" x="426.5" y="-29.5" font-family="Helvetica,sans-Serif" font-size="10.00">&#45;estimation/yarp/ReadOnlyControl</text>
<text text-anchor="start" x="426.5" y="-18.5" font-family="Helvetica,sans-Serif" font-size="10.00">BoardRemapper/ReadOnlyRemoteControlBoard</text>
<text text-anchor="middle" x="531" y="-7.5" font-family="Helvetica,sans-Serif" font-size="10.00">Remapper.cpp</text>
</a>
</g>
</g>
<!-- Node5&#45;&gt;Node6 -->
<g id="edge5" class="edge"><title>Node5&#45;&gt;Node6</title>
<path fill="none" stroke="midnightblue" d="M531,-90.0987C531,-81.2383 531,-72.0145 531,-63.6299"/>
<polygon fill="midnightblue" stroke="midnightblue" points="527.5,-90.261 531,-100.261 534.5,-90.2611 527.5,-90.261"/>
</g>
</g>
</svg>
