<?xml version="1.0" encoding="UTF-8" standalone="no"?>
<!DOCTYPE svg PUBLIC "-//W3C//DTD SVG 1.1//EN"
 "http://www.w3.org/Graphics/SVG/1.1/DTD/svg11.dtd">
<!-- Generated by graphviz version 2.36.0 (20140111.2315)
 -->
<!-- Title: /home/travis/build/robotology/human&#45;dynamics&#45;estimation/yarp/ReadOnlyControlBoardRemapper/ControlBoardRemapperHelpers.h Pages: 1 -->
<svg width="2037pt" height="118pt"
 viewBox="0.00 0.00 2037.00 118.00" xmlns="http://www.w3.org/2000/svg" xmlns:xlink="http://www.w3.org/1999/xlink">
<g id="graph0" class="graph" transform="scale(1 1) rotate(0) translate(4 114)">
<title>/home/travis/build/robotology/human&#45;dynamics&#45;estimation/yarp/ReadOnlyControlBoardRemapper/ControlBoardRemapperHelpers.h</title>
<!-- Node1 -->
<g id="node1" class="node"><title>Node1</title>
<polygon fill="#bfbfbf" stroke="black" points="957,-57 957,-109 1191,-109 1191,-57 957,-57"/>
<text text-anchor="start" x="965" y="-97" font-family="Helvetica,sans-Serif" font-size="10.00">/home/travis/build</text>
<text text-anchor="start" x="965" y="-86" font-family="Helvetica,sans-Serif" font-size="10.00">/robotology/human&#45;dynamics</text>
<text text-anchor="start" x="965" y="-75" font-family="Helvetica,sans-Serif" font-size="10.00">&#45;estimation/yarp/ReadOnlyControl</text>
<text text-anchor="middle" x="1074" y="-64" font-family="Helvetica,sans-Serif" font-size="10.00">BoardRemapper/ControlBoardRemapperHelpers.h</text>
</g>
<!-- Node2 -->
<g id="node2" class="node"><title>Node2</title>
<polygon fill="none" stroke="#bfbfbf" points="-0.5,-0.5 -0.5,-19.5 112.5,-19.5 112.5,-0.5 -0.5,-0.5"/>
<text text-anchor="middle" x="56" y="-7.5" font-family="Helvetica,sans-Serif" font-size="10.00">yarp/os/PortablePair.h</text>
</g>
<!-- Node1&#45;&gt;Node2 -->
<g id="edge1" class="edge"><title>Node1&#45;&gt;Node2</title>
<path fill="none" stroke="midnightblue" d="M956.772,-77.1178C778.659,-69.0872 429.031,-50.9254 122.656,-20.1049"/>
<polygon fill="midnightblue" stroke="midnightblue" points="122.993,-16.6212 112.691,-19.0964 122.288,-23.5856 122.993,-16.6212"/>
</g>
<!-- Node3 -->
<g id="node3" class="node"><title>Node3</title>
<polygon fill="none" stroke="#bfbfbf" points="130.5,-0.5 130.5,-19.5 245.5,-19.5 245.5,-0.5 130.5,-0.5"/>
<text text-anchor="middle" x="188" y="-7.5" font-family="Helvetica,sans-Serif" font-size="10.00">yarp/os/BufferedPort.h</text>
</g>
<!-- Node1&#45;&gt;Node3 -->
<g id="edge2" class="edge"><title>Node1&#45;&gt;Node3</title>
<path fill="none" stroke="midnightblue" d="M956.831,-75.2722C799.784,-65.7721 512.128,-46.6823 255.968,-20.041"/>
<polygon fill="midnightblue" stroke="midnightblue" points="256.028,-16.5284 245.718,-18.9693 255.3,-23.4904 256.028,-16.5284"/>
</g>
<!-- Node4 -->
<g id="node4" class="node"><title>Node4</title>
<polygon fill="none" stroke="#bfbfbf" points="264,-0.5 264,-19.5 346,-19.5 346,-0.5 264,-0.5"/>
<text text-anchor="middle" x="305" y="-7.5" font-family="Helvetica,sans-Serif" font-size="10.00">yarp/os/Time.h</text>
</g>
<!-- Node1&#45;&gt;Node4 -->
<g id="edge3" class="edge"><title>Node1&#45;&gt;Node4</title>
<path fill="none" stroke="midnightblue" d="M956.889,-75.2251C816.445,-66.3467 573.777,-48.613 356.169,-20.0425"/>
<polygon fill="midnightblue" stroke="midnightblue" points="356.526,-16.5594 346.154,-18.7175 355.608,-23.4989 356.526,-16.5594"/>
</g>
<!-- Node5 -->
<g id="node5" class="node"><title>Node5</title>
<polygon fill="none" stroke="#bfbfbf" points="364.5,-0.5 364.5,-19.5 461.5,-19.5 461.5,-0.5 364.5,-0.5"/>
<text text-anchor="middle" x="413" y="-7.5" font-family="Helvetica,sans-Serif" font-size="10.00">yarp/os/Network.h</text>
</g>
<!-- Node1&#45;&gt;Node5 -->
<g id="edge4" class="edge"><title>Node1&#45;&gt;Node5</title>
<path fill="none" stroke="midnightblue" d="M956.863,-71.8755C837.336,-61.1081 646.262,-42.6934 471.926,-20.1973"/>
<polygon fill="midnightblue" stroke="midnightblue" points="472.16,-16.6984 461.792,-18.8826 471.259,-23.6402 472.16,-16.6984"/>
</g>
<!-- Node6 -->
<g id="node6" class="node"><title>Node6</title>
<polygon fill="none" stroke="#bfbfbf" points="479.5,-0.5 479.5,-19.5 590.5,-19.5 590.5,-0.5 479.5,-0.5"/>
<text text-anchor="middle" x="535" y="-7.5" font-family="Helvetica,sans-Serif" font-size="10.00">yarp/os/RateThread.h</text>
</g>
<!-- Node1&#45;&gt;Node6 -->
<g id="edge5" class="edge"><title>Node1&#45;&gt;Node6</title>
<path fill="none" stroke="midnightblue" d="M956.834,-67.0354C863.111,-54.9879 728.034,-37.4529 600.773,-20.2314"/>
<polygon fill="midnightblue" stroke="midnightblue" points="601.223,-16.7604 590.843,-18.8862 600.283,-23.6971 601.223,-16.7604"/>
</g>
<!-- Node7 -->
<g id="node7" class="node"><title>Node7</title>
<polygon fill="none" stroke="#bfbfbf" points="608.5,-0.5 608.5,-19.5 697.5,-19.5 697.5,-0.5 608.5,-0.5"/>
<text text-anchor="middle" x="653" y="-7.5" font-family="Helvetica,sans-Serif" font-size="10.00">yarp/os/Stamp.h</text>
</g>
<!-- Node1&#45;&gt;Node7 -->
<g id="edge6" class="edge"><title>Node1&#45;&gt;Node7</title>
<path fill="none" stroke="midnightblue" d="M956.737,-62.2836C887.059,-50.5585 796.652,-35.3287 707.547,-20.2602"/>
<polygon fill="midnightblue" stroke="midnightblue" points="707.976,-16.7831 697.532,-18.5664 706.809,-23.6851 707.976,-16.7831"/>
</g>
<!-- Node8 -->
<g id="node8" class="node"><title>Node8</title>
<polygon fill="none" stroke="#bfbfbf" points="715,-0.5 715,-19.5 803,-19.5 803,-0.5 715,-0.5"/>
<text text-anchor="middle" x="759" y="-7.5" font-family="Helvetica,sans-Serif" font-size="10.00">yarp/os/Vocab.h</text>
</g>
<!-- Node1&#45;&gt;Node8 -->
<g id="edge7" class="edge"><title>Node1&#45;&gt;Node8</title>
<path fill="none" stroke="midnightblue" d="M962.943,-56.9681C909.433,-44.9072 848.069,-31.076 806.748,-21.7622"/>
<polygon fill="midnightblue" stroke="midnightblue" points="807.476,-18.3386 796.951,-19.5541 805.937,-25.1673 807.476,-18.3386"/>
</g>
<!-- Node9 -->
<g id="node9" class="node"><title>Node9</title>
<polygon fill="none" stroke="#bfbfbf" points="821,-0.5 821,-19.5 987,-19.5 987,-0.5 821,-0.5"/>
<text text-anchor="middle" x="904" y="-7.5" font-family="Helvetica,sans-Serif" font-size="10.00">yarp/dev/ControlBoardInterfaces.h</text>
</g>
<!-- Node1&#45;&gt;Node9 -->
<g id="edge8" class="edge"><title>Node1&#45;&gt;Node9</title>
<path fill="none" stroke="midnightblue" d="M1014.06,-56.9681C987.04,-45.6813 956.303,-32.8441 934.192,-23.6097"/>
<polygon fill="midnightblue" stroke="midnightblue" points="935.261,-20.2632 924.685,-19.6389 932.563,-26.7225 935.261,-20.2632"/>
</g>
<!-- Node10 -->
<g id="node10" class="node"><title>Node10</title>
<polygon fill="none" stroke="#bfbfbf" points="1005,-0.5 1005,-19.5 1143,-19.5 1143,-0.5 1005,-0.5"/>
<text text-anchor="middle" x="1074" y="-7.5" font-family="Helvetica,sans-Serif" font-size="10.00">yarp/dev/IInteractionMode.h</text>
</g>
<!-- Node1&#45;&gt;Node10 -->
<g id="edge9" class="edge"><title>Node1&#45;&gt;Node10</title>
<path fill="none" stroke="midnightblue" d="M1074,-56.7681C1074,-47.8897 1074,-38.0737 1074,-29.8165"/>
<polygon fill="midnightblue" stroke="midnightblue" points="1077.5,-29.7571 1074,-19.7572 1070.5,-29.7572 1077.5,-29.7571"/>
</g>
<!-- Node11 -->
<g id="node11" class="node"><title>Node11</title>
<polygon fill="none" stroke="#bfbfbf" points="1161.5,-0.5 1161.5,-19.5 1292.5,-19.5 1292.5,-0.5 1161.5,-0.5"/>
<text text-anchor="middle" x="1227" y="-7.5" font-family="Helvetica,sans-Serif" font-size="10.00">yarp/dev/IControlLimits2.h</text>
</g>
<!-- Node1&#45;&gt;Node11 -->
<g id="edge10" class="edge"><title>Node1&#45;&gt;Node11</title>
<path fill="none" stroke="midnightblue" d="M1127.94,-56.9681C1152.05,-45.783 1179.43,-33.0753 1199.29,-23.8601"/>
<polygon fill="midnightblue" stroke="midnightblue" points="1200.79,-27.0231 1208.38,-19.6389 1197.84,-20.6735 1200.79,-27.0231"/>
</g>
<!-- Node12 -->
<g id="node12" class="node"><title>Node12</title>
<polygon fill="none" stroke="#bfbfbf" points="1310.5,-0.5 1310.5,-19.5 1421.5,-19.5 1421.5,-0.5 1310.5,-0.5"/>
<text text-anchor="middle" x="1366" y="-7.5" font-family="Helvetica,sans-Serif" font-size="10.00">yarp/dev/PolyDriver.h</text>
</g>
<!-- Node1&#45;&gt;Node12 -->
<g id="edge11" class="edge"><title>Node1&#45;&gt;Node12</title>
<path fill="none" stroke="midnightblue" d="M1176.95,-56.9681C1226.24,-44.9837 1282.71,-31.2514 1321.01,-21.94"/>
<polygon fill="midnightblue" stroke="midnightblue" points="1321.93,-25.3177 1330.82,-19.5541 1320.28,-18.5159 1321.93,-25.3177"/>
</g>
<!-- Node13 -->
<g id="node13" class="node"><title>Node13</title>
<polygon fill="none" stroke="#bfbfbf" points="1439.5,-0.5 1439.5,-19.5 1572.5,-19.5 1572.5,-0.5 1439.5,-0.5"/>
<text text-anchor="middle" x="1506" y="-7.5" font-family="Helvetica,sans-Serif" font-size="10.00">yarp/dev/PreciselyTimed.h</text>
</g>
<!-- Node1&#45;&gt;Node13 -->
<g id="edge12" class="edge"><title>Node1&#45;&gt;Node13</title>
<path fill="none" stroke="midnightblue" d="M1191.19,-62.7396C1272.66,-49.3497 1378.04,-32.0309 1443.83,-21.2176"/>
<polygon fill="midnightblue" stroke="midnightblue" points="1444.74,-24.6151 1454.04,-19.5395 1443.61,-17.7077 1444.74,-24.6151"/>
</g>
<!-- Node14 -->
<g id="node14" class="node"><title>Node14</title>
<polygon fill="none" stroke="#bfbfbf" points="1590.5,-0.5 1590.5,-19.5 1681.5,-19.5 1681.5,-0.5 1590.5,-0.5"/>
<text text-anchor="middle" x="1636" y="-7.5" font-family="Helvetica,sans-Serif" font-size="10.00">yarp/sig/Vector.h</text>
</g>
<!-- Node1&#45;&gt;Node14 -->
<g id="edge13" class="edge"><title>Node1&#45;&gt;Node14</title>
<path fill="none" stroke="midnightblue" d="M1191.23,-69.0285C1291.69,-57.5944 1440.51,-39.9049 1580.35,-20.0411"/>
<polygon fill="midnightblue" stroke="midnightblue" points="1581,-23.4844 1590.4,-18.6072 1580.01,-16.5545 1581,-23.4844"/>
</g>
<!-- Node15 -->
<g id="node15" class="node"><title>Node15</title>
<polygon fill="none" stroke="#bfbfbf" points="1699.5,-0.5 1699.5,-19.5 1786.5,-19.5 1786.5,-0.5 1699.5,-0.5"/>
<text text-anchor="middle" x="1743" y="-7.5" font-family="Helvetica,sans-Serif" font-size="10.00">yarp/os/Mutex.h</text>
</g>
<!-- Node1&#45;&gt;Node15 -->
<g id="edge14" class="edge"><title>Node1&#45;&gt;Node15</title>
<path fill="none" stroke="midnightblue" d="M1191.22,-72.586C1313.06,-62.2549 1509.46,-44.0701 1689.19,-20.0216"/>
<polygon fill="midnightblue" stroke="midnightblue" points="1689.92,-23.4548 1699.36,-18.6514 1688.99,-16.5174 1689.92,-23.4548"/>
</g>
<!-- Node16 -->
<g id="node16" class="node"><title>Node16</title>
<polygon fill="none" stroke="#bfbfbf" points="1805,-0.5 1805,-19.5 1907,-19.5 1907,-0.5 1805,-0.5"/>
<text text-anchor="middle" x="1856" y="-7.5" font-family="Helvetica,sans-Serif" font-size="10.00">yarp/dev/Wrapper.h</text>
</g>
<!-- Node1&#45;&gt;Node16 -->
<g id="edge15" class="edge"><title>Node1&#45;&gt;Node16</title>
<path fill="none" stroke="midnightblue" d="M1191.3,-74.1112C1331.99,-64.1496 1575.2,-45.3462 1794.67,-19.9632"/>
<polygon fill="midnightblue" stroke="midnightblue" points="1795.25,-23.4201 1804.77,-18.7881 1794.44,-16.467 1795.25,-23.4201"/>
</g>
<!-- Node17 -->
<g id="node17" class="node"><title>Node17</title>
<polygon fill="none" stroke="#bfbfbf" points="1925.5,-0.5 1925.5,-19.5 1966.5,-19.5 1966.5,-0.5 1925.5,-0.5"/>
<text text-anchor="middle" x="1946" y="-7.5" font-family="Helvetica,sans-Serif" font-size="10.00">string</text>
</g>
<!-- Node1&#45;&gt;Node17 -->
<g id="edge16" class="edge"><title>Node1&#45;&gt;Node17</title>
<path fill="none" stroke="midnightblue" d="M1191.28,-81.0577C1354.7,-78.0021 1659.6,-65.9657 1915,-20 1915.21,-19.9615 1915.43,-19.9222 1915.64,-19.8819"/>
<polygon fill="midnightblue" stroke="midnightblue" points="1916.51,-23.2738 1925.47,-17.6117 1914.93,-16.4535 1916.51,-23.2738"/>
</g>
<!-- Node18 -->
<g id="node18" class="node"><title>Node18</title>
<polygon fill="none" stroke="#bfbfbf" points="1985,-0.5 1985,-19.5 2029,-19.5 2029,-0.5 1985,-0.5"/>
<text text-anchor="middle" x="2007" y="-7.5" font-family="Helvetica,sans-Serif" font-size="10.00">vector</text>
</g>
<!-- Node1&#45;&gt;Node18 -->
<g id="edge17" class="edge"><title>Node1&#45;&gt;Node18</title>
<path fill="none" stroke="midnightblue" d="M1191.19,-81.5866C1361.96,-79.2821 1688.94,-68.4392 1974.61,-19.6389"/>
<polygon fill="midnightblue" stroke="midnightblue" points="1975.5,-23.0378 1984.75,-17.8869 1974.3,-16.1399 1975.5,-23.0378"/>
</g>
</g>
</svg>
