<?xml version="1.0" encoding="UTF-8" standalone="no"?>
<!DOCTYPE svg PUBLIC "-//W3C//DTD SVG 1.1//EN"
 "http://www.w3.org/Graphics/SVG/1.1/DTD/svg11.dtd">
<!-- Generated by graphviz version 2.36.0 (20140111.2315)
 -->
<!-- Title: /home/travis/build/robotology/human&#45;dynamics&#45;estimation/human&#45;forces&#45;provider/src/FTForceReader.cpp Pages: 1 -->
<svg width="293pt" height="230pt"
 viewBox="0.00 0.00 293.00 230.00" xmlns="http://www.w3.org/2000/svg" xmlns:xlink="http://www.w3.org/1999/xlink">
<g id="graph0" class="graph" transform="scale(1 1) rotate(0) translate(4 226)">
<title>/home/travis/build/robotology/human&#45;dynamics&#45;estimation/human&#45;forces&#45;provider/src/FTForceReader.cpp</title>
<!-- Node1 -->
<g id="node1" class="node"><title>Node1</title>
<polygon fill="#bfbfbf" stroke="black" points="75.5,-169 75.5,-221 236.5,-221 236.5,-169 75.5,-169"/>
<text text-anchor="start" x="83.5" y="-209" font-family="Helvetica,sans-Serif" font-size="10.00">/home/travis/build</text>
<text text-anchor="start" x="83.5" y="-198" font-family="Helvetica,sans-Serif" font-size="10.00">/robotology/human&#45;dynamics</text>
<text text-anchor="start" x="83.5" y="-187" font-family="Helvetica,sans-Serif" font-size="10.00">&#45;estimation/human&#45;forces</text>
<text text-anchor="middle" x="156" y="-176" font-family="Helvetica,sans-Serif" font-size="10.00">&#45;provider/src/FTForceReader.cpp</text>
</g>
<!-- Node2 -->
<g id="node2" class="node"><title>Node2</title>
<g id="a_node2"><a xlink:href="_f_t_force_reader_8h.html" target="_top" xlink:title="FTForceReader.h">
<polygon fill="none" stroke="black" points="45.5,-112.5 45.5,-131.5 138.5,-131.5 138.5,-112.5 45.5,-112.5"/>
<text text-anchor="middle" x="92" y="-119.5" font-family="Helvetica,sans-Serif" font-size="10.00">FTForceReader.h</text>
</a>
</g>
</g>
<!-- Node1&#45;&gt;Node2 -->
<g id="edge1" class="edge"><title>Node1&#45;&gt;Node2</title>
<path fill="none" stroke="midnightblue" d="M133.256,-168.768C124.434,-158.982 114.586,-148.056 106.724,-139.335"/>
<polygon fill="midnightblue" stroke="midnightblue" points="109.189,-136.842 99.8938,-131.757 103.99,-141.528 109.189,-136.842"/>
</g>
<!-- Node6 -->
<g id="node6" class="node"><title>Node6</title>
<polygon fill="none" stroke="#bfbfbf" points="156.5,-112.5 156.5,-131.5 285.5,-131.5 285.5,-112.5 156.5,-112.5"/>
<text text-anchor="middle" x="221" y="-119.5" font-family="Helvetica,sans-Serif" font-size="10.00">yarp/dev/IAnalogSensor.h</text>
</g>
<!-- Node1&#45;&gt;Node6 -->
<g id="edge5" class="edge"><title>Node1&#45;&gt;Node6</title>
<path fill="none" stroke="midnightblue" d="M179.1,-168.768C188.059,-158.982 198.061,-148.056 206.046,-139.335"/>
<polygon fill="midnightblue" stroke="midnightblue" points="208.812,-141.496 212.983,-131.757 203.649,-136.77 208.812,-141.496"/>
</g>
<!-- Node3 -->
<g id="node3" class="node"><title>Node3</title>
<g id="a_node3"><a xlink:href="_abstract_force_reader_8h.html" target="_top" xlink:title="AbstractForceReader.h">
<polygon fill="none" stroke="black" points="33,-56.5 33,-75.5 151,-75.5 151,-56.5 33,-56.5"/>
<text text-anchor="middle" x="92" y="-63.5" font-family="Helvetica,sans-Serif" font-size="10.00">AbstractForceReader.h</text>
</a>
</g>
</g>
<!-- Node2&#45;&gt;Node3 -->
<g id="edge2" class="edge"><title>Node2&#45;&gt;Node3</title>
<path fill="none" stroke="midnightblue" d="M92,-112.083C92,-105.006 92,-94.8611 92,-85.9865"/>
<polygon fill="midnightblue" stroke="midnightblue" points="95.5001,-85.751 92,-75.7511 88.5001,-85.7511 95.5001,-85.751"/>
</g>
<!-- Node4 -->
<g id="node4" class="node"><title>Node4</title>
<g id="a_node4"><a xlink:href="_force_reader_8h.html" target="_top" xlink:title="ForceReader.h">
<polygon fill="none" stroke="black" points="-0.5,-0.5 -0.5,-19.5 80.5,-19.5 80.5,-0.5 -0.5,-0.5"/>
<text text-anchor="middle" x="40" y="-7.5" font-family="Helvetica,sans-Serif" font-size="10.00">ForceReader.h</text>
</a>
</g>
</g>
<!-- Node3&#45;&gt;Node4 -->
<g id="edge3" class="edge"><title>Node3&#45;&gt;Node4</title>
<path fill="none" stroke="midnightblue" d="M83.4133,-56.083C75.841,-48.2195 64.6218,-36.5688 55.4856,-27.0813"/>
<polygon fill="midnightblue" stroke="midnightblue" points="57.8845,-24.5266 48.427,-19.7511 52.8423,-29.3821 57.8845,-24.5266"/>
</g>
<!-- Node5 -->
<g id="node5" class="node"><title>Node5</title>
<polygon fill="none" stroke="#bfbfbf" points="98.5,-0.5 98.5,-19.5 189.5,-19.5 189.5,-0.5 98.5,-0.5"/>
<text text-anchor="middle" x="144" y="-7.5" font-family="Helvetica,sans-Serif" font-size="10.00">yarp/sig/Vector.h</text>
</g>
<!-- Node3&#45;&gt;Node5 -->
<g id="edge4" class="edge"><title>Node3&#45;&gt;Node5</title>
<path fill="none" stroke="midnightblue" d="M100.587,-56.083C108.159,-48.2195 119.378,-36.5688 128.514,-27.0813"/>
<polygon fill="midnightblue" stroke="midnightblue" points="131.158,-29.3821 135.573,-19.7511 126.115,-24.5266 131.158,-29.3821"/>
</g>
</g>
</svg>
