<?xml version="1.0" encoding="UTF-8" standalone="no"?>
<!DOCTYPE svg PUBLIC "-//W3C//DTD SVG 1.1//EN"
 "http://www.w3.org/Graphics/SVG/1.1/DTD/svg11.dtd">
<!-- Generated by graphviz version 2.36.0 (20140111.2315)
 -->
<!-- Title: /home/travis/build/robotology/human&#45;dynamics&#45;estimation/build/human&#45;forces&#45;provider/_yarp_idl_/thrifts/force6d/Force6D_index.h Pages: 1 -->
<svg width="253pt" height="240pt"
 viewBox="0.00 0.00 253.00 240.00" xmlns="http://www.w3.org/2000/svg" xmlns:xlink="http://www.w3.org/1999/xlink">
<g id="graph0" class="graph" transform="scale(1 1) rotate(0) translate(4 236)">
<title>/home/travis/build/robotology/human&#45;dynamics&#45;estimation/build/human&#45;forces&#45;provider/_yarp_idl_/thrifts/force6d/Force6D_index.h</title>
<!-- Node1 -->
<g id="node1" class="node"><title>Node1</title>
<polygon fill="#bfbfbf" stroke="black" points="23,-168.5 23,-231.5 185,-231.5 185,-168.5 23,-168.5"/>
<text text-anchor="start" x="31" y="-219.5" font-family="Helvetica,sans-Serif" font-size="10.00">/home/travis/build</text>
<text text-anchor="start" x="31" y="-208.5" font-family="Helvetica,sans-Serif" font-size="10.00">/robotology/human&#45;dynamics</text>
<text text-anchor="start" x="31" y="-197.5" font-family="Helvetica,sans-Serif" font-size="10.00">&#45;estimation/build/human</text>
<text text-anchor="start" x="31" y="-186.5" font-family="Helvetica,sans-Serif" font-size="10.00">&#45;forces&#45;provider/_yarp_idl</text>
<text text-anchor="middle" x="104" y="-175.5" font-family="Helvetica,sans-Serif" font-size="10.00">_/thrifts/force6d/Force6D_index.h</text>
</g>
<!-- Node2 -->
<g id="node2" class="node"><title>Node2</title>
<g id="a_node2"><a xlink:href="__yarp__idl___2thrifts_2force6d_2_force6_d_8h.html" target="_top" xlink:title="Force6D.h">
<polygon fill="none" stroke="black" points="0,-56.5 0,-75.5 62,-75.5 62,-56.5 0,-56.5"/>
<text text-anchor="middle" x="31" y="-63.5" font-family="Helvetica,sans-Serif" font-size="10.00">Force6D.h</text>
</a>
</g>
</g>
<!-- Node1&#45;&gt;Node2 -->
<g id="edge1" class="edge"><title>Node1&#45;&gt;Node2</title>
<path fill="none" stroke="midnightblue" d="M87.0688,-168.385C72.6701,-142.349 52.5029,-105.882 40.6896,-84.5209"/>
<polygon fill="midnightblue" stroke="midnightblue" points="43.664,-82.6671 35.7616,-75.61 37.5383,-86.0548 43.664,-82.6671"/>
</g>
<!-- Node5 -->
<g id="node5" class="node"><title>Node5</title>
<g id="a_node5"><a xlink:href="__yarp__idl___2thrifts_2force6d_2_human_forces_8h.html" target="_top" xlink:title="HumanForces.h">
<polygon fill="none" stroke="black" points="104,-112.5 104,-131.5 190,-131.5 190,-112.5 104,-112.5"/>
<text text-anchor="middle" x="147" y="-119.5" font-family="Helvetica,sans-Serif" font-size="10.00">HumanForces.h</text>
</a>
</g>
</g>
<!-- Node1&#45;&gt;Node5 -->
<g id="edge4" class="edge"><title>Node1&#45;&gt;Node5</title>
<path fill="none" stroke="midnightblue" d="M121.49,-168.088C126.779,-158.739 132.405,-148.796 137.023,-140.633"/>
<polygon fill="midnightblue" stroke="midnightblue" points="140.189,-142.145 142.067,-131.718 134.097,-138.698 140.189,-142.145"/>
</g>
<!-- Node3 -->
<g id="node3" class="node"><title>Node3</title>
<polygon fill="none" stroke="#bfbfbf" points="27,-0.5 27,-19.5 107,-19.5 107,-0.5 27,-0.5"/>
<text text-anchor="middle" x="67" y="-7.5" font-family="Helvetica,sans-Serif" font-size="10.00">yarp/os/Wire.h</text>
</g>
<!-- Node2&#45;&gt;Node3 -->
<g id="edge2" class="edge"><title>Node2&#45;&gt;Node3</title>
<path fill="none" stroke="midnightblue" d="M36.9447,-56.083C41.9773,-48.5341 49.3368,-37.4948 55.5135,-28.2298"/>
<polygon fill="midnightblue" stroke="midnightblue" points="58.5311,-30.0131 61.1659,-19.7511 52.7067,-26.1301 58.5311,-30.0131"/>
</g>
<!-- Node4 -->
<g id="node4" class="node"><title>Node4</title>
<polygon fill="none" stroke="#bfbfbf" points="125,-0.5 125,-19.5 245,-19.5 245,-0.5 125,-0.5"/>
<text text-anchor="middle" x="185" y="-7.5" font-family="Helvetica,sans-Serif" font-size="10.00">yarp/os/idl/WireTypes.h</text>
</g>
<!-- Node2&#45;&gt;Node4 -->
<g id="edge3" class="edge"><title>Node2&#45;&gt;Node4</title>
<path fill="none" stroke="midnightblue" d="M55.4018,-56.4435C81.1966,-47.3986 122.077,-33.064 151.018,-22.9158"/>
<polygon fill="midnightblue" stroke="midnightblue" points="152.434,-26.1283 160.712,-19.5164 150.118,-19.5226 152.434,-26.1283"/>
</g>
<!-- Node5&#45;&gt;Node3 -->
<g id="edge5" class="edge"><title>Node5&#45;&gt;Node3</title>
<path fill="none" stroke="midnightblue" d="M139.084,-112.308C131.147,-103.439 118.737,-89.1475 109,-76 97.4179,-60.3614 85.4968,-41.6112 77.328,-28.2767"/>
<polygon fill="midnightblue" stroke="midnightblue" points="80.2754,-26.387 72.1015,-19.6463 74.2877,-30.0131 80.2754,-26.387"/>
</g>
<!-- Node5&#45;&gt;Node4 -->
<g id="edge6" class="edge"><title>Node5&#45;&gt;Node4</title>
<path fill="none" stroke="midnightblue" d="M171.469,-112.438C187.567,-105.378 207.377,-93.626 217,-76 225.984,-59.5435 213.657,-40.2136 201.79,-26.9359"/>
<polygon fill="midnightblue" stroke="midnightblue" points="204.114,-24.3037 194.655,-19.5306 199.073,-29.1605 204.114,-24.3037"/>
</g>
<!-- Node6 -->
<g id="node6" class="node"><title>Node6</title>
<g id="a_node6"><a xlink:href="autogenerated_2include_2thrifts_2_force6_d_8h.html" target="_top" xlink:title="thrifts/Force6D.h">
<polygon fill="none" stroke="black" points="118,-56.5 118,-75.5 208,-75.5 208,-56.5 118,-56.5"/>
<text text-anchor="middle" x="163" y="-63.5" font-family="Helvetica,sans-Serif" font-size="10.00">thrifts/Force6D.h</text>
</a>
</g>
</g>
<!-- Node5&#45;&gt;Node6 -->
<g id="edge7" class="edge"><title>Node5&#45;&gt;Node6</title>
<path fill="none" stroke="midnightblue" d="M149.642,-112.083C151.786,-104.849 154.879,-94.4087 157.549,-85.3968"/>
<polygon fill="midnightblue" stroke="midnightblue" points="160.922,-86.3334 160.407,-75.7511 154.21,-84.3447 160.922,-86.3334"/>
</g>
<!-- Node6&#45;&gt;Node3 -->
<g id="edge8" class="edge"><title>Node6&#45;&gt;Node3</title>
<path fill="none" stroke="midnightblue" d="M147.576,-56.324C132.46,-47.8215 109.185,-34.7288 91.5288,-24.7975"/>
<polygon fill="midnightblue" stroke="midnightblue" points="92.8175,-21.5066 82.3858,-19.6545 89.3856,-27.6077 92.8175,-21.5066"/>
</g>
<!-- Node6&#45;&gt;Node4 -->
<g id="edge9" class="edge"><title>Node6&#45;&gt;Node4</title>
<path fill="none" stroke="midnightblue" d="M166.633,-56.083C169.612,-48.77 173.926,-38.1814 177.625,-29.1034"/>
<polygon fill="midnightblue" stroke="midnightblue" points="180.903,-30.3326 181.435,-19.7511 174.42,-27.6914 180.903,-30.3326"/>
</g>
</g>
</svg>
