<?xml version="1.0" encoding="UTF-8" standalone="no"?>
<!DOCTYPE svg PUBLIC "-//W3C//DTD SVG 1.1//EN"
 "http://www.w3.org/Graphics/SVG/1.1/DTD/svg11.dtd">
<!-- Generated by graphviz version 2.36.0 (20140111.2315)
 -->
<!-- Title: /home/travis/build/robotology/human&#45;dynamics&#45;estimation/human&#45;forces&#45;provider/include/ForceReader.h Pages: 1 -->
<svg width="811pt" height="332pt"
 viewBox="0.00 0.00 811.00 332.00" xmlns="http://www.w3.org/2000/svg" xmlns:xlink="http://www.w3.org/1999/xlink">
<g id="graph0" class="graph" transform="scale(1 1) rotate(0) translate(4 328)">
<title>/home/travis/build/robotology/human&#45;dynamics&#45;estimation/human&#45;forces&#45;provider/include/ForceReader.h</title>
<!-- Node1 -->
<g id="node1" class="node"><title>Node1</title>
<polygon fill="#bfbfbf" stroke="black" points="549.5,-271 549.5,-323 704.5,-323 704.5,-271 549.5,-271"/>
<text text-anchor="start" x="557.5" y="-311" font-family="Helvetica,sans-Serif" font-size="10.00">/home/travis/build</text>
<text text-anchor="start" x="557.5" y="-300" font-family="Helvetica,sans-Serif" font-size="10.00">/robotology/human&#45;dynamics</text>
<text text-anchor="start" x="557.5" y="-289" font-family="Helvetica,sans-Serif" font-size="10.00">&#45;estimation/human&#45;forces</text>
<text text-anchor="middle" x="627" y="-278" font-family="Helvetica,sans-Serif" font-size="10.00">&#45;provider/include/ForceReader.h</text>
</g>
<!-- Node2 -->
<g id="node2" class="node"><title>Node2</title>
<g id="a_node2"><a xlink:href="_abstract_force_reader_8h.html" target="_top" xlink:title="/home/travis/build\l/robotology/human&#45;dynamics\l&#45;estimation/human&#45;forces\l&#45;provider/include/AbstractForceReader.h">
<polygon fill="none" stroke="black" points="301,-181 301,-233 493,-233 493,-181 301,-181"/>
<text text-anchor="start" x="309" y="-221" font-family="Helvetica,sans-Serif" font-size="10.00">/home/travis/build</text>
<text text-anchor="start" x="309" y="-210" font-family="Helvetica,sans-Serif" font-size="10.00">/robotology/human&#45;dynamics</text>
<text text-anchor="start" x="309" y="-199" font-family="Helvetica,sans-Serif" font-size="10.00">&#45;estimation/human&#45;forces</text>
<text text-anchor="middle" x="397" y="-188" font-family="Helvetica,sans-Serif" font-size="10.00">&#45;provider/include/AbstractForceReader.h</text>
</a>
</g>
</g>
<!-- Node1&#45;&gt;Node2 -->
<g id="edge1" class="edge"><title>Node1&#45;&gt;Node2</title>
<path fill="none" stroke="midnightblue" d="M551.803,-267.229C523.042,-256.225 490.493,-243.771 462.688,-233.133"/>
<polygon fill="midnightblue" stroke="midnightblue" points="550.809,-270.596 561.399,-270.901 553.31,-264.058 550.809,-270.596"/>
</g>
<!-- Node5 -->
<g id="node5" class="node"><title>Node5</title>
<g id="a_node5"><a xlink:href="_human_forces_provider_8cpp.html" target="_top" xlink:title="/home/travis/build\l/robotology/human&#45;dynamics\l&#45;estimation/human&#45;forces\l&#45;provider/src/HumanForcesProvider.cpp">
<polygon fill="none" stroke="black" points="302,-1 302,-53 492,-53 492,-1 302,-1"/>
<text text-anchor="start" x="310" y="-41" font-family="Helvetica,sans-Serif" font-size="10.00">/home/travis/build</text>
<text text-anchor="start" x="310" y="-30" font-family="Helvetica,sans-Serif" font-size="10.00">/robotology/human&#45;dynamics</text>
<text text-anchor="start" x="310" y="-19" font-family="Helvetica,sans-Serif" font-size="10.00">&#45;estimation/human&#45;forces</text>
<text text-anchor="middle" x="397" y="-8" font-family="Helvetica,sans-Serif" font-size="10.00">&#45;provider/src/HumanForcesProvider.cpp</text>
</a>
</g>
</g>
<!-- Node1&#45;&gt;Node5 -->
<g id="edge11" class="edge"><title>Node1&#45;&gt;Node5</title>
<path fill="none" stroke="midnightblue" d="M634.418,-260.934C641.745,-216.007 646.798,-138.196 607,-90 602.908,-85.0444 544.524,-68.0195 490.357,-53.0614"/>
<polygon fill="midnightblue" stroke="midnightblue" points="630.967,-260.349 632.685,-270.804 637.862,-261.56 630.967,-260.349"/>
</g>
<!-- Node9 -->
<g id="node9" class="node"><title>Node9</title>
<g id="a_node9"><a xlink:href="_force_reader_8cpp.html" target="_top" xlink:title="/home/travis/build\l/robotology/human&#45;dynamics\l&#45;estimation/human&#45;forces\l&#45;provider/src/ForceReader.cpp">
<polygon fill="none" stroke="black" points="654.5,-181 654.5,-233 803.5,-233 803.5,-181 654.5,-181"/>
<text text-anchor="start" x="662.5" y="-221" font-family="Helvetica,sans-Serif" font-size="10.00">/home/travis/build</text>
<text text-anchor="start" x="662.5" y="-210" font-family="Helvetica,sans-Serif" font-size="10.00">/robotology/human&#45;dynamics</text>
<text text-anchor="start" x="662.5" y="-199" font-family="Helvetica,sans-Serif" font-size="10.00">&#45;estimation/human&#45;forces</text>
<text text-anchor="middle" x="729" y="-188" font-family="Helvetica,sans-Serif" font-size="10.00">&#45;provider/src/ForceReader.cpp</text>
</a>
</g>
</g>
<!-- Node1&#45;&gt;Node9 -->
<g id="edge10" class="edge"><title>Node1&#45;&gt;Node9</title>
<path fill="none" stroke="midnightblue" d="M663.81,-264.242C675.634,-254.042 688.563,-242.887 699.767,-233.221"/>
<polygon fill="midnightblue" stroke="midnightblue" points="661.514,-261.6 656.229,-270.783 666.087,-266.9 661.514,-261.6"/>
</g>
<!-- Node3 -->
<g id="node3" class="node"><title>Node3</title>
<g id="a_node3"><a xlink:href="_f_t_force_reader_8h.html" target="_top" xlink:title="/home/travis/build\l/robotology/human&#45;dynamics\l&#45;estimation/human&#45;forces\l&#45;provider/include/FTForceReader.h">
<polygon fill="none" stroke="black" points="-0.5,-91 -0.5,-143 166.5,-143 166.5,-91 -0.5,-91"/>
<text text-anchor="start" x="7.5" y="-131" font-family="Helvetica,sans-Serif" font-size="10.00">/home/travis/build</text>
<text text-anchor="start" x="7.5" y="-120" font-family="Helvetica,sans-Serif" font-size="10.00">/robotology/human&#45;dynamics</text>
<text text-anchor="start" x="7.5" y="-109" font-family="Helvetica,sans-Serif" font-size="10.00">&#45;estimation/human&#45;forces</text>
<text text-anchor="middle" x="83" y="-98" font-family="Helvetica,sans-Serif" font-size="10.00">&#45;provider/include/FTForceReader.h</text>
</a>
</g>
</g>
<!-- Node2&#45;&gt;Node3 -->
<g id="edge2" class="edge"><title>Node2&#45;&gt;Node3</title>
<path fill="none" stroke="midnightblue" d="M296.97,-178.134C258.793,-167.481 214.874,-155.202 175,-144 172.284,-143.237 169.522,-142.46 166.734,-141.676"/>
<polygon fill="midnightblue" stroke="midnightblue" points="296.487,-181.633 307.06,-180.949 298.368,-174.891 296.487,-181.633"/>
</g>
<!-- Node2&#45;&gt;Node5 -->
<g id="edge9" class="edge"><title>Node2&#45;&gt;Node5</title>
<path fill="none" stroke="midnightblue" d="M397,-170.717C397,-136.052 397,-84.0165 397,-53.2853"/>
<polygon fill="midnightblue" stroke="midnightblue" points="393.5,-170.874 397,-180.874 400.5,-170.875 393.5,-170.874"/>
</g>
<!-- Node6 -->
<g id="node6" class="node"><title>Node6</title>
<g id="a_node6"><a xlink:href="_port_force_reader_8h.html" target="_top" xlink:title="/home/travis/build\l/robotology/human&#45;dynamics\l&#45;estimation/human&#45;forces\l&#45;provider/include/PortForceReader.h">
<polygon fill="none" stroke="black" points="425.5,-91 425.5,-143 598.5,-143 598.5,-91 425.5,-91"/>
<text text-anchor="start" x="433.5" y="-131" font-family="Helvetica,sans-Serif" font-size="10.00">/home/travis/build</text>
<text text-anchor="start" x="433.5" y="-120" font-family="Helvetica,sans-Serif" font-size="10.00">/robotology/human&#45;dynamics</text>
<text text-anchor="start" x="433.5" y="-109" font-family="Helvetica,sans-Serif" font-size="10.00">&#45;estimation/human&#45;forces</text>
<text text-anchor="middle" x="512" y="-98" font-family="Helvetica,sans-Serif" font-size="10.00">&#45;provider/include/PortForceReader.h</text>
</a>
</g>
</g>
<!-- Node2&#45;&gt;Node6 -->
<g id="edge5" class="edge"><title>Node2&#45;&gt;Node6</title>
<path fill="none" stroke="midnightblue" d="M438.121,-174.534C451.554,-164.254 466.289,-152.979 479.041,-143.221"/>
<polygon fill="midnightblue" stroke="midnightblue" points="435.769,-171.926 429.954,-180.783 440.023,-177.485 435.769,-171.926"/>
</g>
<!-- Node8 -->
<g id="node8" class="node"><title>Node8</title>
<g id="a_node8"><a xlink:href="_abstract_force_reader_8cpp.html" target="_top" xlink:title="/home/travis/build\l/robotology/human&#45;dynamics\l&#45;estimation/human&#45;forces\l&#45;provider/src/AbstractForceReader.cpp">
<polygon fill="none" stroke="black" points="184.5,-91 184.5,-143 369.5,-143 369.5,-91 184.5,-91"/>
<text text-anchor="start" x="192.5" y="-131" font-family="Helvetica,sans-Serif" font-size="10.00">/home/travis/build</text>
<text text-anchor="start" x="192.5" y="-120" font-family="Helvetica,sans-Serif" font-size="10.00">/robotology/human&#45;dynamics</text>
<text text-anchor="start" x="192.5" y="-109" font-family="Helvetica,sans-Serif" font-size="10.00">&#45;estimation/human&#45;forces</text>
<text text-anchor="middle" x="277" y="-98" font-family="Helvetica,sans-Serif" font-size="10.00">&#45;provider/src/AbstractForceReader.cpp</text>
</a>
</g>
</g>
<!-- Node2&#45;&gt;Node8 -->
<g id="edge8" class="edge"><title>Node2&#45;&gt;Node8</title>
<path fill="none" stroke="midnightblue" d="M354.488,-174.824C340.364,-164.467 324.824,-153.071 311.392,-143.221"/>
<polygon fill="midnightblue" stroke="midnightblue" points="352.479,-177.691 362.613,-180.783 356.619,-172.047 352.479,-177.691"/>
</g>
<!-- Node4 -->
<g id="node4" class="node"><title>Node4</title>
<g id="a_node4"><a xlink:href="_f_t_force_reader_8cpp.html" target="_top" xlink:title="/home/travis/build\l/robotology/human&#45;dynamics\l&#45;estimation/human&#45;forces\l&#45;provider/src/FTForceReader.cpp">
<polygon fill="none" stroke="black" points="2.5,-1 2.5,-53 163.5,-53 163.5,-1 2.5,-1"/>
<text text-anchor="start" x="10.5" y="-41" font-family="Helvetica,sans-Serif" font-size="10.00">/home/travis/build</text>
<text text-anchor="start" x="10.5" y="-30" font-family="Helvetica,sans-Serif" font-size="10.00">/robotology/human&#45;dynamics</text>
<text text-anchor="start" x="10.5" y="-19" font-family="Helvetica,sans-Serif" font-size="10.00">&#45;estimation/human&#45;forces</text>
<text text-anchor="middle" x="83" y="-8" font-family="Helvetica,sans-Serif" font-size="10.00">&#45;provider/src/FTForceReader.cpp</text>
</a>
</g>
</g>
<!-- Node3&#45;&gt;Node4 -->
<g id="edge3" class="edge"><title>Node3&#45;&gt;Node4</title>
<path fill="none" stroke="midnightblue" d="M83,-80.4892C83,-71.3088 83,-61.616 83,-53.0921"/>
<polygon fill="midnightblue" stroke="midnightblue" points="79.5001,-80.5467 83,-90.5468 86.5001,-80.5468 79.5001,-80.5467"/>
</g>
<!-- Node3&#45;&gt;Node5 -->
<g id="edge4" class="edge"><title>Node3&#45;&gt;Node5</title>
<path fill="none" stroke="midnightblue" d="M176.386,-89.6129C224.436,-76.1203 269.199,-63.612 307.06,-53.0506"/>
<polygon fill="midnightblue" stroke="midnightblue" points="175.415,-86.2503 166.734,-92.3243 177.308,-92.9895 175.415,-86.2503"/>
</g>
<!-- Node6&#45;&gt;Node5 -->
<g id="edge6" class="edge"><title>Node6&#45;&gt;Node5</title>
<path fill="none" stroke="midnightblue" d="M470.879,-84.5335C457.446,-74.2542 442.711,-62.9791 429.959,-53.221"/>
<polygon fill="midnightblue" stroke="midnightblue" points="468.977,-87.4852 479.046,-90.7827 473.231,-81.9261 468.977,-87.4852"/>
</g>
<!-- Node7 -->
<g id="node7" class="node"><title>Node7</title>
<g id="a_node7"><a xlink:href="_port_force_reader_8cpp.html" target="_top" xlink:title="/home/travis/build\l/robotology/human&#45;dynamics\l&#45;estimation/human&#45;forces\l&#45;provider/src/PortForceReader.cpp">
<polygon fill="none" stroke="black" points="510.5,-1 510.5,-53 677.5,-53 677.5,-1 510.5,-1"/>
<text text-anchor="start" x="518.5" y="-41" font-family="Helvetica,sans-Serif" font-size="10.00">/home/travis/build</text>
<text text-anchor="start" x="518.5" y="-30" font-family="Helvetica,sans-Serif" font-size="10.00">/robotology/human&#45;dynamics</text>
<text text-anchor="start" x="518.5" y="-19" font-family="Helvetica,sans-Serif" font-size="10.00">&#45;estimation/human&#45;forces</text>
<text text-anchor="middle" x="594" y="-8" font-family="Helvetica,sans-Serif" font-size="10.00">&#45;provider/src/PortForceReader.cpp</text>
</a>
</g>
</g>
<!-- Node6&#45;&gt;Node7 -->
<g id="edge7" class="edge"><title>Node6&#45;&gt;Node7</title>
<path fill="none" stroke="midnightblue" d="M542.621,-83.1386C551.886,-73.1958 561.907,-62.4408 570.619,-53.0921"/>
<polygon fill="midnightblue" stroke="midnightblue" points="539.974,-80.8446 535.718,-90.5468 545.096,-85.6167 539.974,-80.8446"/>
</g>
</g>
</svg>
