<?xml version="1.0" encoding="UTF-8" standalone="no"?>
<!DOCTYPE svg PUBLIC "-//W3C//DTD SVG 1.1//EN"
 "http://www.w3.org/Graphics/SVG/1.1/DTD/svg11.dtd">
<!-- Generated by graphviz version 2.36.0 (20140111.2315)
 -->
<!-- Title: /home/travis/build/robotology/human&#45;dynamics&#45;estimation/human&#45;forces&#45;provider/include/GenericFrameTransformer.h Pages: 1 -->
<svg width="561pt" height="242pt"
 viewBox="0.00 0.00 561.00 242.00" xmlns="http://www.w3.org/2000/svg" xmlns:xlink="http://www.w3.org/1999/xlink">
<g id="graph0" class="graph" transform="scale(1 1) rotate(0) translate(4 238)">
<title>/home/travis/build/robotology/human&#45;dynamics&#45;estimation/human&#45;forces&#45;provider/include/GenericFrameTransformer.h</title>
<!-- Node1 -->
<g id="node1" class="node"><title>Node1</title>
<polygon fill="#bfbfbf" stroke="black" points="119.5,-181 119.5,-233 332.5,-233 332.5,-181 119.5,-181"/>
<text text-anchor="start" x="127.5" y="-221" font-family="Helvetica,sans-Serif" font-size="10.00">/home/travis/build</text>
<text text-anchor="start" x="127.5" y="-210" font-family="Helvetica,sans-Serif" font-size="10.00">/robotology/human&#45;dynamics</text>
<text text-anchor="start" x="127.5" y="-199" font-family="Helvetica,sans-Serif" font-size="10.00">&#45;estimation/human&#45;forces</text>
<text text-anchor="middle" x="226" y="-188" font-family="Helvetica,sans-Serif" font-size="10.00">&#45;provider/include/GenericFrameTransformer.h</text>
</g>
<!-- Node2 -->
<g id="node2" class="node"><title>Node2</title>
<g id="a_node2"><a xlink:href="_robot_frame_transformer_8h.html" target="_top" xlink:title="/home/travis/build\l/robotology/human&#45;dynamics\l&#45;estimation/human&#45;forces\l&#45;provider/include/RobotFrameTransformer.h">
<polygon fill="none" stroke="black" points="123,-91 123,-143 329,-143 329,-91 123,-91"/>
<text text-anchor="start" x="131" y="-131" font-family="Helvetica,sans-Serif" font-size="10.00">/home/travis/build</text>
<text text-anchor="start" x="131" y="-120" font-family="Helvetica,sans-Serif" font-size="10.00">/robotology/human&#45;dynamics</text>
<text text-anchor="start" x="131" y="-109" font-family="Helvetica,sans-Serif" font-size="10.00">&#45;estimation/human&#45;forces</text>
<text text-anchor="middle" x="226" y="-98" font-family="Helvetica,sans-Serif" font-size="10.00">&#45;provider/include/RobotFrameTransformer.h</text>
</a>
</g>
</g>
<!-- Node1&#45;&gt;Node2 -->
<g id="edge1" class="edge"><title>Node1&#45;&gt;Node2</title>
<path fill="none" stroke="midnightblue" d="M226,-170.489C226,-161.309 226,-151.616 226,-143.092"/>
<polygon fill="midnightblue" stroke="midnightblue" points="222.5,-170.547 226,-180.547 229.5,-170.547 222.5,-170.547"/>
</g>
<!-- Node3 -->
<g id="node3" class="node"><title>Node3</title>
<g id="a_node3"><a xlink:href="_human_forces_provider_8cpp.html" target="_top" xlink:title="/home/travis/build\l/robotology/human&#45;dynamics\l&#45;estimation/human&#45;forces\l&#45;provider/src/HumanForcesProvider.cpp">
<polygon fill="none" stroke="black" points="0,-1 0,-53 190,-53 190,-1 0,-1"/>
<text text-anchor="start" x="8" y="-41" font-family="Helvetica,sans-Serif" font-size="10.00">/home/travis/build</text>
<text text-anchor="start" x="8" y="-30" font-family="Helvetica,sans-Serif" font-size="10.00">/robotology/human&#45;dynamics</text>
<text text-anchor="start" x="8" y="-19" font-family="Helvetica,sans-Serif" font-size="10.00">&#45;estimation/human&#45;forces</text>
<text text-anchor="middle" x="95" y="-8" font-family="Helvetica,sans-Serif" font-size="10.00">&#45;provider/src/HumanForcesProvider.cpp</text>
</a>
</g>
</g>
<!-- Node1&#45;&gt;Node3 -->
<g id="edge5" class="edge"><title>Node1&#45;&gt;Node3</title>
<path fill="none" stroke="midnightblue" d="M149.046,-175.709C135.589,-167.279 123.031,-156.817 114,-144 95.1938,-117.308 92.4735,-78.6686 93.0779,-53.4425"/>
<polygon fill="midnightblue" stroke="midnightblue" points="147.595,-178.916 157.99,-180.96 151.139,-172.879 147.595,-178.916"/>
</g>
<!-- Node5 -->
<g id="node5" class="node"><title>Node5</title>
<g id="a_node5"><a xlink:href="_generic_frame_transformer_8cpp.html" target="_top" xlink:title="/home/travis/build\l/robotology/human&#45;dynamics\l&#45;estimation/human&#45;forces\l&#45;provider/src/GenericFrameTransformer.cpp">
<polygon fill="none" stroke="black" points="347,-91 347,-143 553,-143 553,-91 347,-91"/>
<text text-anchor="start" x="355" y="-131" font-family="Helvetica,sans-Serif" font-size="10.00">/home/travis/build</text>
<text text-anchor="start" x="355" y="-120" font-family="Helvetica,sans-Serif" font-size="10.00">/robotology/human&#45;dynamics</text>
<text text-anchor="start" x="355" y="-109" font-family="Helvetica,sans-Serif" font-size="10.00">&#45;estimation/human&#45;forces</text>
<text text-anchor="middle" x="450" y="-98" font-family="Helvetica,sans-Serif" font-size="10.00">&#45;provider/src/GenericFrameTransformer.cpp</text>
</a>
</g>
</g>
<!-- Node1&#45;&gt;Node5 -->
<g id="edge4" class="edge"><title>Node1&#45;&gt;Node5</title>
<path fill="none" stroke="midnightblue" d="M299.235,-177.229C327.246,-166.225 358.946,-153.771 386.026,-143.133"/>
<polygon fill="midnightblue" stroke="midnightblue" points="297.917,-173.986 289.89,-180.901 300.477,-180.502 297.917,-173.986"/>
</g>
<!-- Node2&#45;&gt;Node3 -->
<g id="edge2" class="edge"><title>Node2&#45;&gt;Node3</title>
<path fill="none" stroke="midnightblue" d="M180.022,-85.1143C164.49,-74.6802 147.345,-63.1632 132.545,-53.221"/>
<polygon fill="midnightblue" stroke="midnightblue" points="178.208,-88.1118 188.461,-90.7827 182.111,-82.3011 178.208,-88.1118"/>
</g>
<!-- Node4 -->
<g id="node4" class="node"><title>Node4</title>
<g id="a_node4"><a xlink:href="_robot_frame_transformer_8cpp.html" target="_top" xlink:title="/home/travis/build\l/robotology/human&#45;dynamics\l&#45;estimation/human&#45;forces\l&#45;provider/src/RobotFrameTransformer.cpp">
<polygon fill="none" stroke="black" points="208.5,-1 208.5,-53 407.5,-53 407.5,-1 208.5,-1"/>
<text text-anchor="start" x="216.5" y="-41" font-family="Helvetica,sans-Serif" font-size="10.00">/home/travis/build</text>
<text text-anchor="start" x="216.5" y="-30" font-family="Helvetica,sans-Serif" font-size="10.00">/robotology/human&#45;dynamics</text>
<text text-anchor="start" x="216.5" y="-19" font-family="Helvetica,sans-Serif" font-size="10.00">&#45;estimation/human&#45;forces</text>
<text text-anchor="middle" x="308" y="-8" font-family="Helvetica,sans-Serif" font-size="10.00">&#45;provider/src/RobotFrameTransformer.cpp</text>
</a>
</g>
</g>
<!-- Node2&#45;&gt;Node4 -->
<g id="edge3" class="edge"><title>Node2&#45;&gt;Node4</title>
<path fill="none" stroke="midnightblue" d="M256.621,-83.1386C265.886,-73.1958 275.907,-62.4408 284.619,-53.0921"/>
<polygon fill="midnightblue" stroke="midnightblue" points="253.974,-80.8446 249.718,-90.5468 259.096,-85.6167 253.974,-80.8446"/>
</g>
</g>
</svg>
