<?xml version="1.0" encoding="UTF-8" standalone="no"?>
<!DOCTYPE svg PUBLIC "-//W3C//DTD SVG 1.1//EN"
 "http://www.w3.org/Graphics/SVG/1.1/DTD/svg11.dtd">
<!-- Generated by graphviz version 2.36.0 (20140111.2315)
 -->
<!-- Title: /home/travis/build/robotology/human&#45;dynamics&#45;estimation/build/human&#45;dynamics&#45;estimator/_yarp_idl_/thrifts/humandynamics/HumanDynamics_index.h Pages: 1 -->
<!--zoomable 252 -->
<svg id="main" version="1.1" xmlns="http://www.w3.org/2000/svg" xmlns:xlink="http://www.w3.org/1999/xlink" xml:space="preserve" onload="init(evt)">
<style type="text/css"><![CDATA[
.edge:hover path { stroke: red; }
.edge:hover polygon { stroke: red; fill: red; }
]]></style>
<script type="text/javascript"><![CDATA[
var edges = document.getElementsByTagName('g');
if (edges && edges.length) {
  for (var i=0;i<edges.length;i++) {
    if (edges[i].id.substr(0,4)=='edge') {
      edges[i].setAttribute('class','edge');
    }
  }
}
]]></script>
        <defs>
                <circle id="rim" cx="0" cy="0" r="7"/>
                <circle id="rim2" cx="0" cy="0" r="3.5"/>
                <g id="zoomPlus">
                        <use xlink:href="#rim" fill="#404040">
                                <set attributeName="fill" to="#808080" begin="zoomplus.mouseover" end="zoomplus.mouseout"/>
                        </use>
                        <path d="M-4,0h8M0,-4v8" fill="none" stroke="white" stroke-width="1.5" pointer-events="none"/>
                </g>
                <g id="zoomMin">
                        <use xlink:href="#rim" fill="#404040">
                                <set attributeName="fill" to="#808080" begin="zoomminus.mouseover" end="zoomminus.mouseout"/>
                        </use>
                        <path d="M-4,0h8" fill="none" stroke="white" stroke-width="1.5" pointer-events="none"/>
                </g>
                <g id="dirArrow">
                        <path fill="none" stroke="white" stroke-width="1.5" d="M0,-3.0v7 M-2.5,-0.5L0,-3.0L2.5,-0.5"/>
                </g>
               <g id="resetDef">
                       <use xlink:href="#rim2" fill="#404040">
                               <set attributeName="fill" to="#808080" begin="reset.mouseover" end="reset.mouseout"/>
                       </use>
               </g>
        </defs>

<script type="text/javascript">
var viewWidth = 698;
var viewHeight = 252;
var sectionId = 'dynsection-0';
</script>
<script xlink:href="svgpan.js"/>
<svg id="graph" class="graph">
<g id="viewport">
<title>/home/travis/build/robotology/human&#45;dynamics&#45;estimation/build/human&#45;dynamics&#45;estimator/_yarp_idl_/thrifts/humandynamics/HumanDynamics_index.h</title>
<!-- Node1 -->
<g id="node1" class="node"><title>Node1</title>
<polygon fill="#bfbfbf" stroke="black" points="211.258,-169 211.258,-243 353.258,-243 353.258,-169 211.258,-169"/>
<text text-anchor="start" x="219.258" y="-231" font-family="Helvetica,sans-Serif" font-size="10.00">/home/travis/build</text>
<text text-anchor="start" x="219.258" y="-220" font-family="Helvetica,sans-Serif" font-size="10.00">/robotology/human&#45;dynamics</text>
<text text-anchor="start" x="219.258" y="-209" font-family="Helvetica,sans-Serif" font-size="10.00">&#45;estimation/build/human</text>
<text text-anchor="start" x="219.258" y="-198" font-family="Helvetica,sans-Serif" font-size="10.00">&#45;dynamics&#45;estimator/_yarp</text>
<text text-anchor="start" x="219.258" y="-187" font-family="Helvetica,sans-Serif" font-size="10.00">_idl_/thrifts/humandynamics</text>
<text text-anchor="middle" x="282.258" y="-176" font-family="Helvetica,sans-Serif" font-size="10.00">/HumanDynamics_index.h</text>
</g>
<!-- Node2 -->
<g id="node2" class="node"><title>Node2</title>
<polygon fill="none" stroke="#bfbfbf" points="161.758,-112.5 161.758,-131.5 214.758,-131.5 214.758,-112.5 161.758,-112.5"/>
<text text-anchor="middle" x="188.258" y="-119.5" font-family="Helvetica,sans-Serif" font-size="10.00">Vector.h</text>
</g>
<!-- Node1&#45;&gt;Node2 -->
<g id="edge1" class="edge"><title>Node1&#45;&gt;Node2</title>
<path fill="none" stroke="midnightblue" d="M240.755,-168.795C228.459,-158.069 215.655,-146.899 205.77,-138.276"/>
<polygon fill="midnightblue" stroke="midnightblue" points="208.065,-135.634 198.229,-131.698 203.464,-140.909 208.065,-135.634"/>
</g>
<!-- Node3 -->
<g id="node3" class="node"><title>Node3</title>
<g id="a_node3"><a xlink:href="__yarp__idl___2thrifts_2humandynamics_2_link_dynamics_estimation_8h.html" target="_top" xlink:title="LinkDynamicsEstimation.h">
<polygon fill="none" stroke="black" points="536.258,-56.5 536.258,-75.5 670.258,-75.5 670.258,-56.5 536.258,-56.5"/>
<text text-anchor="middle" x="603.258" y="-63.5" font-family="Helvetica,sans-Serif" font-size="10.00">LinkDynamicsEstimation.h</text>
</a>
</g>
</g>
<!-- Node1&#45;&gt;Node3 -->
<g id="edge2" class="edge"><title>Node1&#45;&gt;Node3</title>
<path fill="none" stroke="midnightblue" d="M353.498,-174.373C422.619,-144.658 524.123,-101.021 573.748,-79.6864"/>
<polygon fill="midnightblue" stroke="midnightblue" points="575.434,-82.7715 583.239,-75.6064 572.669,-76.3406 575.434,-82.7715"/>
</g>
<!-- Node7 -->
<g id="node7" class="node"><title>Node7</title>
<g id="a_node7"><a xlink:href="__yarp__idl___2thrifts_2humandynamics_2_joint_dynamics_estimation_8h.html" target="_top" xlink:title="JointDynamicsEstimation.h">
<polygon fill="none" stroke="black" points="19.758,-56.5 19.758,-75.5 156.758,-75.5 156.758,-56.5 19.758,-56.5"/>
<text text-anchor="middle" x="88.258" y="-63.5" font-family="Helvetica,sans-Serif" font-size="10.00">JointDynamicsEstimation.h</text>
</a>
</g>
</g>
<!-- Node1&#45;&gt;Node7 -->
<g id="edge6" class="edge"><title>Node1&#45;&gt;Node7</title>
<path fill="none" stroke="midnightblue" d="M266.749,-168.891C256.827,-149.601 242.237,-126.84 223.258,-112 201.953,-95.3416 174.183,-84.7015 149.374,-77.9788"/>
<polygon fill="midnightblue" stroke="midnightblue" points="150.227,-74.5845 139.672,-75.5037 148.497,-81.3672 150.227,-74.5845"/>
</g>
<!-- Node8 -->
<g id="node8" class="node"><title>Node8</title>
<g id="a_node8"><a xlink:href="__yarp__idl___2thrifts_2humandynamics_2_human_dynamics_8h.html" target="_top" xlink:title="HumanDynamics.h">
<polygon fill="none" stroke="black" points="271.758,-112.5 271.758,-131.5 372.758,-131.5 372.758,-112.5 271.758,-112.5"/>
<text text-anchor="middle" x="322.258" y="-119.5" font-family="Helvetica,sans-Serif" font-size="10.00">HumanDynamics.h</text>
</a>
</g>
</g>
<!-- Node1&#45;&gt;Node8 -->
<g id="edge10" class="edge"><title>Node1&#45;&gt;Node8</title>
<path fill="none" stroke="midnightblue" d="M299.919,-168.795C304.628,-159.142 309.512,-149.129 313.508,-140.937"/>
<polygon fill="midnightblue" stroke="midnightblue" points="316.777,-142.22 318.015,-131.698 310.485,-139.151 316.777,-142.22"/>
</g>
<!-- Node4 -->
<g id="node4" class="node"><title>Node4</title>
<polygon fill="none" stroke="#bfbfbf" points="419.258,-0.5 419.258,-19.5 499.258,-19.5 499.258,-0.5 419.258,-0.5"/>
<text text-anchor="middle" x="459.258" y="-7.5" font-family="Helvetica,sans-Serif" font-size="10.00">yarp/os/Wire.h</text>
</g>
<!-- Node3&#45;&gt;Node4 -->
<g id="edge3" class="edge"><title>Node3&#45;&gt;Node4</title>
<path fill="none" stroke="midnightblue" d="M580.441,-56.4435C556.426,-47.4381 518.429,-33.1891 491.389,-23.049"/>
<polygon fill="midnightblue" stroke="midnightblue" points="492.561,-19.7506 481.968,-19.5164 490.103,-26.3049 492.561,-19.7506"/>
</g>
<!-- Node5 -->
<g id="node5" class="node"><title>Node5</title>
<polygon fill="none" stroke="#bfbfbf" points="171.258,-0.5 171.258,-19.5 291.258,-19.5 291.258,-0.5 171.258,-0.5"/>
<text text-anchor="middle" x="231.258" y="-7.5" font-family="Helvetica,sans-Serif" font-size="10.00">yarp/os/idl/WireTypes.h</text>
</g>
<!-- Node3&#45;&gt;Node5 -->
<g id="edge4" class="edge"><title>Node3&#45;&gt;Node5</title>
<path fill="none" stroke="midnightblue" d="M544.313,-56.4435C477.922,-46.8061 370.162,-31.1635 299.997,-20.9782"/>
<polygon fill="midnightblue" stroke="midnightblue" points="300.326,-17.4894 289.927,-19.5164 299.32,-24.4168 300.326,-17.4894"/>
</g>
<!-- Node6 -->
<g id="node6" class="node"><title>Node6</title>
<polygon fill="none" stroke="#bfbfbf" points="309.758,-0.5 309.758,-19.5 400.758,-19.5 400.758,-0.5 309.758,-0.5"/>
<text text-anchor="middle" x="355.258" y="-7.5" font-family="Helvetica,sans-Serif" font-size="10.00">yarp/sig/Vector.h</text>
</g>
<!-- Node3&#45;&gt;Node6 -->
<g id="edge5" class="edge"><title>Node3&#45;&gt;Node6</title>
<path fill="none" stroke="midnightblue" d="M563.962,-56.4435C520.699,-47.0234 451.085,-31.8656 404.285,-21.6752"/>
<polygon fill="midnightblue" stroke="midnightblue" points="404.886,-18.2242 394.37,-19.5164 403.397,-25.0639 404.886,-18.2242"/>
</g>
<!-- Node7&#45;&gt;Node4 -->
<g id="edge7" class="edge"><title>Node7&#45;&gt;Node4</title>
<path fill="none" stroke="midnightblue" d="M154.459,-56.4828C219.442,-47.9424 321.323,-34.0724 409.258,-20 409.359,-19.9839 409.459,-19.9677 409.56,-19.9515"/>
<polygon fill="midnightblue" stroke="midnightblue" points="409.872,-23.4478 419.164,-18.3581 408.726,-16.5422 409.872,-23.4478"/>
</g>
<!-- Node7&#45;&gt;Node5 -->
<g id="edge8" class="edge"><title>Node7&#45;&gt;Node5</title>
<path fill="none" stroke="midnightblue" d="M110.917,-56.4435C134.66,-47.4776 172.167,-33.314 198.996,-23.1827"/>
<polygon fill="midnightblue" stroke="midnightblue" points="200.586,-26.3235 208.705,-19.5164 198.114,-19.7749 200.586,-26.3235"/>
</g>
<!-- Node7&#45;&gt;Node6 -->
<g id="edge9" class="edge"><title>Node7&#45;&gt;Node6</title>
<path fill="none" stroke="midnightblue" d="M130.565,-56.4435C177.338,-46.9839 252.718,-31.7384 303.108,-21.5472"/>
<polygon fill="midnightblue" stroke="midnightblue" points="304.041,-24.9294 313.149,-19.5164 302.654,-18.0683 304.041,-24.9294"/>
</g>
<!-- Node8&#45;&gt;Node4 -->
<g id="edge11" class="edge"><title>Node8&#45;&gt;Node4</title>
<path fill="none" stroke="midnightblue" d="M372.856,-118.273C466.536,-112.704 659.322,-98.6068 679.258,-76 728.418,-20.2548 588.99,-11.2423 509.807,-10.4516"/>
<polygon fill="midnightblue" stroke="midnightblue" points="509.548,-6.95009 499.528,-10.3913 509.507,-13.95 509.548,-6.95009"/>
</g>
<!-- Node8&#45;&gt;Node5 -->
<g id="edge12" class="edge"><title>Node8&#45;&gt;Node5</title>
<path fill="none" stroke="midnightblue" d="M271.754,-115.452C185.627,-105.749 18.7451,-85.799 10.258,-76 -34.8133,-23.9617 80.6512,-12.5168 161.137,-10.6028"/>
<polygon fill="midnightblue" stroke="midnightblue" points="161.327,-14.0999 171.257,-10.4071 161.191,-7.10121 161.327,-14.0999"/>
</g>
<!-- Node9 -->
<g id="node9" class="node"><title>Node9</title>
<g id="a_node9"><a xlink:href="autogenerated_2include_2thrifts_2_joint_dynamics_estimation_8h.html" target="_top" xlink:title="thrifts/JointDynamicsEstimation.h">
<polygon fill="none" stroke="black" points="354.258,-56.5 354.258,-75.5 518.258,-75.5 518.258,-56.5 354.258,-56.5"/>
<text text-anchor="middle" x="436.258" y="-63.5" font-family="Helvetica,sans-Serif" font-size="10.00">thrifts/JointDynamicsEstimation.h</text>
</a>
</g>
</g>
<!-- Node8&#45;&gt;Node9 -->
<g id="edge13" class="edge"><title>Node8&#45;&gt;Node9</title>
<path fill="none" stroke="midnightblue" d="M340.322,-112.444C358.833,-103.675 387.839,-89.9355 409.113,-79.8579"/>
<polygon fill="midnightblue" stroke="midnightblue" points="410.74,-82.9604 418.279,-75.5164 407.743,-76.6343 410.74,-82.9604"/>
</g>
<!-- Node10 -->
<g id="node10" class="node"><title>Node10</title>
<g id="a_node10"><a xlink:href="autogenerated_2include_2thrifts_2_link_dynamics_estimation_8h.html" target="_top" xlink:title="thrifts/LinkDynamicsEstimation.h">
<polygon fill="none" stroke="black" points="174.758,-56.5 174.758,-75.5 335.758,-75.5 335.758,-56.5 174.758,-56.5"/>
<text text-anchor="middle" x="255.258" y="-63.5" font-family="Helvetica,sans-Serif" font-size="10.00">thrifts/LinkDynamicsEstimation.h</text>
</a>
</g>
</g>
<!-- Node8&#45;&gt;Node10 -->
<g id="edge17" class="edge"><title>Node8&#45;&gt;Node10</title>
<path fill="none" stroke="midnightblue" d="M311.493,-112.324C301.492,-104.263 286.371,-92.0765 274.327,-82.3695"/>
<polygon fill="midnightblue" stroke="midnightblue" points="276.201,-79.3841 266.219,-75.8339 271.808,-84.8343 276.201,-79.3841"/>
</g>
<!-- Node9&#45;&gt;Node4 -->
<g id="edge14" class="edge"><title>Node9&#45;&gt;Node4</title>
<path fill="none" stroke="midnightblue" d="M440.056,-56.083C443.171,-48.77 447.681,-38.1814 451.547,-29.1034"/>
<polygon fill="midnightblue" stroke="midnightblue" points="454.832,-30.3229 455.531,-19.7511 448.392,-27.5798 454.832,-30.3229"/>
</g>
<!-- Node9&#45;&gt;Node5 -->
<g id="edge15" class="edge"><title>Node9&#45;&gt;Node5</title>
<path fill="none" stroke="midnightblue" d="M403.775,-56.4435C368.538,-47.1616 312.154,-32.3093 273.499,-22.127"/>
<polygon fill="midnightblue" stroke="midnightblue" points="274.151,-18.6792 263.589,-19.5164 272.367,-25.4483 274.151,-18.6792"/>
</g>
<!-- Node9&#45;&gt;Node6 -->
<g id="edge16" class="edge"><title>Node9&#45;&gt;Node6</title>
<path fill="none" stroke="midnightblue" d="M423.244,-56.324C410.726,-47.979 391.576,-35.2122 376.787,-25.3524"/>
<polygon fill="midnightblue" stroke="midnightblue" points="378.502,-22.2894 368.24,-19.6545 374.619,-28.1137 378.502,-22.2894"/>
</g>
<!-- Node10&#45;&gt;Node4 -->
<g id="edge18" class="edge"><title>Node10&#45;&gt;Node4</title>
<path fill="none" stroke="midnightblue" d="M287.582,-56.4435C322.647,-47.1616 378.756,-32.3093 417.223,-22.127"/>
<polygon fill="midnightblue" stroke="midnightblue" points="418.313,-25.4589 427.085,-19.5164 416.522,-18.692 418.313,-25.4589"/>
</g>
<!-- Node10&#45;&gt;Node5 -->
<g id="edge19" class="edge"><title>Node10&#45;&gt;Node5</title>
<path fill="none" stroke="midnightblue" d="M251.295,-56.083C248.045,-48.77 243.339,-38.1814 239.304,-29.1034"/>
<polygon fill="midnightblue" stroke="midnightblue" points="242.407,-27.4677 235.147,-19.7511 236.01,-30.3107 242.407,-27.4677"/>
</g>
<!-- Node10&#45;&gt;Node6 -->
<g id="edge20" class="edge"><title>Node10&#45;&gt;Node6</title>
<path fill="none" stroke="midnightblue" d="M271.325,-56.324C287.216,-47.7428 311.765,-34.486 330.216,-24.5224"/>
<polygon fill="midnightblue" stroke="midnightblue" points="332.095,-27.4857 339.231,-19.6545 328.769,-21.3264 332.095,-27.4857"/>
</g>
</g>
</svg>
        <g id="navigator" transform="translate(0 0)" fill="#404254">
                <rect fill="#f2f5e9" fill-opacity="0.5" stroke="#606060" stroke-width=".5" x="0" y="0" width="60" height="60"/>
                <use id="zoomplus" xlink:href="#zoomPlus" x="17" y="9" onmousedown="handleZoom(evt,'in')"/>
                <use id="zoomminus" xlink:href="#zoomMin" x="42" y="9" onmousedown="handleZoom(evt,'out')"/>
                <use id="reset" xlink:href="#resetDef" x="30" y="36" onmousedown="handleReset()"/>
                <g id="arrowUp" xlink:href="#dirArrow" transform="translate(30 24)" onmousedown="handlePan(0,-1)">
                  <use xlink:href="#rim" fill="#404040">
                        <set attributeName="fill" to="#808080" begin="arrowUp.mouseover" end="arrowUp.mouseout"/>
                  </use>
                  <path fill="none" stroke="white" stroke-width="1.5" d="M0,-3.0v7 M-2.5,-0.5L0,-3.0L2.5,-0.5"/>
                </g>
                <g id="arrowRight" xlink:href="#dirArrow" transform="rotate(90) translate(36 -43)" onmousedown="handlePan(1,0)">
                  <use xlink:href="#rim" fill="#404040">
                        <set attributeName="fill" to="#808080" begin="arrowRight.mouseover" end="arrowRight.mouseout"/>
                  </use>
                  <path fill="none" stroke="white" stroke-width="1.5" d="M0,-3.0v7 M-2.5,-0.5L0,-3.0L2.5,-0.5"/>
                </g>
                <g id="arrowDown" xlink:href="#dirArrow" transform="rotate(180) translate(-30 -48)" onmousedown="handlePan(0,1)">
                  <use xlink:href="#rim" fill="#404040">
                        <set attributeName="fill" to="#808080" begin="arrowDown.mouseover" end="arrowDown.mouseout"/>
                  </use>
                  <path fill="none" stroke="white" stroke-width="1.5" d="M0,-3.0v7 M-2.5,-0.5L0,-3.0L2.5,-0.5"/>
                </g>
                <g id="arrowLeft" xlink:href="#dirArrow" transform="rotate(270) translate(-36 17)" onmousedown="handlePan(-1,0)">
                  <use xlink:href="#rim" fill="#404040">
                        <set attributeName="fill" to="#808080" begin="arrowLeft.mouseover" end="arrowLeft.mouseout"/>
                  </use>
                  <path fill="none" stroke="white" stroke-width="1.5" d="M0,-3.0v7 M-2.5,-0.5L0,-3.0L2.5,-0.5"/>
                </g>
        </g>
        <svg viewBox="0 0 15 15" width="100%" height="30px" preserveAspectRatio="xMaxYMin meet">
         <g id="arrow_out" transform="scale(0.3 0.3)">
          <a xlink:href="_human_dynamics__index_8h__incl_org.svg" target="_base">
           <rect id="button" ry="5" rx="5" y="6" x="6" height="38" width="38"
                fill="#f2f5e9" fill-opacity="0.5" stroke="#606060" stroke-width="1.0"/>
           <path id="arrow"
             d="M 11.500037,31.436501 C 11.940474,20.09759 22.043105,11.32322 32.158766,21.979434 L 37.068811,17.246167 C 37.068811,17.246167 37.088388,32 37.088388,32 L 22.160133,31.978069 C 22.160133,31.978069 26.997745,27.140456 26.997745,27.140456 C 18.528582,18.264221 13.291696,25.230495 11.500037,31.436501 z"
             style="fill:#404040;"/>
          </a>
         </g>
        </svg>
</svg>
