<?xml version="1.0" encoding="UTF-8" standalone="no"?>
<!DOCTYPE svg PUBLIC "-//W3C//DTD SVG 1.1//EN"
 "http://www.w3.org/Graphics/SVG/1.1/DTD/svg11.dtd">
<!-- Generated by graphviz version 2.36.0 (20140111.2315)
 -->
<!-- Title: /home/travis/build/robotology/human&#45;dynamics&#45;estimation/human&#45;state&#45;provider/include/HumanStateProvider.h Pages: 1 -->
<svg width="632pt" height="262pt"
 viewBox="0.00 0.00 632.00 262.00" xmlns="http://www.w3.org/2000/svg" xmlns:xlink="http://www.w3.org/1999/xlink">
<g id="graph0" class="graph" transform="scale(1 1) rotate(0) translate(4 258)">
<title>/home/travis/build/robotology/human&#45;dynamics&#45;estimation/human&#45;state&#45;provider/include/HumanStateProvider.h</title>
<!-- Node1 -->
<g id="node1" class="node"><title>Node1</title>
<polygon fill="#bfbfbf" stroke="black" points="359,-201 359,-253 549,-253 549,-201 359,-201"/>
<text text-anchor="start" x="367" y="-241" font-family="Helvetica,sans-Serif" font-size="10.00">/home/travis/build</text>
<text text-anchor="start" x="367" y="-230" font-family="Helvetica,sans-Serif" font-size="10.00">/robotology/human&#45;dynamics</text>
<text text-anchor="start" x="367" y="-219" font-family="Helvetica,sans-Serif" font-size="10.00">&#45;estimation/human&#45;state</text>
<text text-anchor="middle" x="454" y="-208" font-family="Helvetica,sans-Serif" font-size="10.00">&#45;provider/include/HumanStateProvider.h</text>
</g>
<!-- Node2 -->
<g id="node2" class="node"><title>Node2</title>
<g id="a_node2"><a xlink:href="_human_state_provider_private_8h.html" target="_top" xlink:title="/home/travis/build\l/robotology/human&#45;dynamics\l&#45;estimation/human&#45;state\l&#45;provider/include/private\l/HumanStateProviderPrivate.h">
<polygon fill="none" stroke="black" points="232.5,-100.5 232.5,-163.5 381.5,-163.5 381.5,-100.5 232.5,-100.5"/>
<text text-anchor="start" x="240.5" y="-151.5" font-family="Helvetica,sans-Serif" font-size="10.00">/home/travis/build</text>
<text text-anchor="start" x="240.5" y="-140.5" font-family="Helvetica,sans-Serif" font-size="10.00">/robotology/human&#45;dynamics</text>
<text text-anchor="start" x="240.5" y="-129.5" font-family="Helvetica,sans-Serif" font-size="10.00">&#45;estimation/human&#45;state</text>
<text text-anchor="start" x="240.5" y="-118.5" font-family="Helvetica,sans-Serif" font-size="10.00">&#45;provider/include/private</text>
<text text-anchor="middle" x="307" y="-107.5" font-family="Helvetica,sans-Serif" font-size="10.00">/HumanStateProviderPrivate.h</text>
</a>
</g>
</g>
<!-- Node1&#45;&gt;Node2 -->
<g id="edge1" class="edge"><title>Node1&#45;&gt;Node2</title>
<path fill="none" stroke="midnightblue" d="M405.498,-195.315C389.421,-185.144 371.534,-173.827 355.46,-163.659"/>
<polygon fill="midnightblue" stroke="midnightblue" points="403.898,-198.444 414.22,-200.833 407.64,-192.529 403.898,-198.444"/>
</g>
<!-- Node4 -->
<g id="node4" class="node"><title>Node4</title>
<g id="a_node4"><a xlink:href="_human_state_provider_8cpp.html" target="_top" xlink:title="/home/travis/build\l/robotology/human&#45;dynamics\l&#45;estimation/human&#45;state\l&#45;provider/src/HumanStateProvider.cpp">
<polygon fill="none" stroke="black" points="385.5,-6 385.5,-58 568.5,-58 568.5,-6 385.5,-6"/>
<text text-anchor="start" x="393.5" y="-46" font-family="Helvetica,sans-Serif" font-size="10.00">/home/travis/build</text>
<text text-anchor="start" x="393.5" y="-35" font-family="Helvetica,sans-Serif" font-size="10.00">/robotology/human&#45;dynamics</text>
<text text-anchor="start" x="393.5" y="-24" font-family="Helvetica,sans-Serif" font-size="10.00">&#45;estimation/human&#45;state</text>
<text text-anchor="middle" x="477" y="-13" font-family="Helvetica,sans-Serif" font-size="10.00">&#45;provider/src/HumanStateProvider.cpp</text>
</a>
</g>
</g>
<!-- Node1&#45;&gt;Node4 -->
<g id="edge5" class="edge"><title>Node1&#45;&gt;Node4</title>
<path fill="none" stroke="midnightblue" d="M458.222,-190.573C462.791,-152.231 469.963,-92.0504 473.992,-58.2376"/>
<polygon fill="midnightblue" stroke="midnightblue" points="454.715,-190.425 457.007,-200.769 461.666,-191.253 454.715,-190.425"/>
</g>
<!-- Node6 -->
<g id="node6" class="node"><title>Node6</title>
<g id="a_node6"><a xlink:href="human-state-provider_2src_2main_8cpp.html" target="_top" xlink:title="/home/travis/build\l/robotology/human&#45;dynamics\l&#45;estimation/human&#45;state\l&#45;provider/src/main.cpp">
<polygon fill="none" stroke="black" points="482,-106 482,-158 624,-158 624,-106 482,-106"/>
<text text-anchor="start" x="490" y="-146" font-family="Helvetica,sans-Serif" font-size="10.00">/home/travis/build</text>
<text text-anchor="start" x="490" y="-135" font-family="Helvetica,sans-Serif" font-size="10.00">/robotology/human&#45;dynamics</text>
<text text-anchor="start" x="490" y="-124" font-family="Helvetica,sans-Serif" font-size="10.00">&#45;estimation/human&#45;state</text>
<text text-anchor="middle" x="553" y="-113" font-family="Helvetica,sans-Serif" font-size="10.00">&#45;provider/src/main.cpp</text>
</a>
</g>
</g>
<!-- Node1&#45;&gt;Node6 -->
<g id="edge6" class="edge"><title>Node1&#45;&gt;Node6</title>
<path fill="none" stroke="midnightblue" d="M488.3,-193.779C500.705,-182.126 514.519,-169.148 526.188,-158.187"/>
<polygon fill="midnightblue" stroke="midnightblue" points="485.683,-191.435 480.791,-200.833 490.476,-196.537 485.683,-191.435"/>
</g>
<!-- Node3 -->
<g id="node3" class="node"><title>Node3</title>
<g id="a_node3"><a xlink:href="_human_i_k_worker_pool_8cpp.html" target="_top" xlink:title="/home/travis/build\l/robotology/human&#45;dynamics\l&#45;estimation/human&#45;state\l&#45;provider/src/HumanIKWorkerPool.cpp">
<polygon fill="none" stroke="black" points="-0.5,-6 -0.5,-58 184.5,-58 184.5,-6 -0.5,-6"/>
<text text-anchor="start" x="7.5" y="-46" font-family="Helvetica,sans-Serif" font-size="10.00">/home/travis/build</text>
<text text-anchor="start" x="7.5" y="-35" font-family="Helvetica,sans-Serif" font-size="10.00">/robotology/human&#45;dynamics</text>
<text text-anchor="start" x="7.5" y="-24" font-family="Helvetica,sans-Serif" font-size="10.00">&#45;estimation/human&#45;state</text>
<text text-anchor="middle" x="92" y="-13" font-family="Helvetica,sans-Serif" font-size="10.00">&#45;provider/src/HumanIKWorkerPool.cpp</text>
</a>
</g>
</g>
<!-- Node2&#45;&gt;Node3 -->
<g id="edge2" class="edge"><title>Node2&#45;&gt;Node3</title>
<path fill="none" stroke="midnightblue" d="M230.634,-96.1913C203.065,-83.6252 172.507,-69.6962 147.112,-58.1206"/>
<polygon fill="midnightblue" stroke="midnightblue" points="229.306,-99.4324 239.857,-100.395 232.209,-93.0629 229.306,-99.4324"/>
</g>
<!-- Node2&#45;&gt;Node4 -->
<g id="edge3" class="edge"><title>Node2&#45;&gt;Node4</title>
<path fill="none" stroke="midnightblue" d="M369.034,-95.2391C390.438,-82.9005 413.942,-69.351 433.54,-58.0536"/>
<polygon fill="midnightblue" stroke="midnightblue" points="367.238,-92.2345 360.323,-100.261 370.734,-98.299 367.238,-92.2345"/>
</g>
<!-- Node5 -->
<g id="node5" class="node"><title>Node5</title>
<g id="a_node5"><a xlink:href="_human_state_provider_private_8cpp.html" target="_top" xlink:title="/home/travis/build\l/robotology/human&#45;dynamics\l&#45;estimation/human&#45;state\l&#45;provider/src/HumanStateProvider\lPrivate.cpp">
<polygon fill="none" stroke="black" points="203,-0.5 203,-63.5 367,-63.5 367,-0.5 203,-0.5"/>
<text text-anchor="start" x="211" y="-51.5" font-family="Helvetica,sans-Serif" font-size="10.00">/home/travis/build</text>
<text text-anchor="start" x="211" y="-40.5" font-family="Helvetica,sans-Serif" font-size="10.00">/robotology/human&#45;dynamics</text>
<text text-anchor="start" x="211" y="-29.5" font-family="Helvetica,sans-Serif" font-size="10.00">&#45;estimation/human&#45;state</text>
<text text-anchor="start" x="211" y="-18.5" font-family="Helvetica,sans-Serif" font-size="10.00">&#45;provider/src/HumanStateProvider</text>
<text text-anchor="middle" x="285" y="-7.5" font-family="Helvetica,sans-Serif" font-size="10.00">Private.cpp</text>
</a>
</g>
</g>
<!-- Node2&#45;&gt;Node5 -->
<g id="edge4" class="edge"><title>Node2&#45;&gt;Node5</title>
<path fill="none" stroke="midnightblue" d="M297.883,-90.3875C295.874,-81.4389 293.779,-72.1057 291.876,-63.6299"/>
<polygon fill="midnightblue" stroke="midnightblue" points="294.494,-91.2706 300.099,-100.261 301.324,-89.7372 294.494,-91.2706"/>
</g>
</g>
</svg>
