<?xml version="1.0" encoding="UTF-8" standalone="no"?>
<!DOCTYPE svg PUBLIC "-//W3C//DTD SVG 1.1//EN"
 "http://www.w3.org/Graphics/SVG/1.1/DTD/svg11.dtd">
<!-- Generated by graphviz version 2.36.0 (20140111.2315)
 -->
<!-- Title: /home/travis/build/robotology/human&#45;dynamics&#45;estimation/human&#45;viz&#45;bridge/src/HumanEffortBridge.cpp Pages: 1 -->
<svg width="1952pt" height="230pt"
 viewBox="0.00 0.00 1952.00 230.00" xmlns="http://www.w3.org/2000/svg" xmlns:xlink="http://www.w3.org/1999/xlink">
<g id="graph0" class="graph" transform="scale(1 1) rotate(0) translate(4 226)">
<title>/home/travis/build/robotology/human&#45;dynamics&#45;estimation/human&#45;viz&#45;bridge/src/HumanEffortBridge.cpp</title>
<!-- Node1 -->
<g id="node1" class="node"><title>Node1</title>
<polygon fill="#bfbfbf" stroke="black" points="1093,-169 1093,-221 1235,-221 1235,-169 1093,-169"/>
<text text-anchor="start" x="1101" y="-209" font-family="Helvetica,sans-Serif" font-size="10.00">/home/travis/build</text>
<text text-anchor="start" x="1101" y="-198" font-family="Helvetica,sans-Serif" font-size="10.00">/robotology/human&#45;dynamics</text>
<text text-anchor="start" x="1101" y="-187" font-family="Helvetica,sans-Serif" font-size="10.00">&#45;estimation/human&#45;viz&#45;bridge</text>
<text text-anchor="middle" x="1164" y="-176" font-family="Helvetica,sans-Serif" font-size="10.00">/src/HumanEffortBridge.cpp</text>
</g>
<!-- Node2 -->
<g id="node2" class="node"><title>Node2</title>
<polygon fill="none" stroke="#bfbfbf" points="-0.5,-112.5 -0.5,-131.5 142.5,-131.5 142.5,-112.5 -0.5,-112.5"/>
<text text-anchor="middle" x="71" y="-119.5" font-family="Helvetica,sans-Serif" font-size="10.00">sensor_msgs_Temperature.h</text>
</g>
<!-- Node1&#45;&gt;Node2 -->
<g id="edge1" class="edge"><title>Node1&#45;&gt;Node2</title>
<path fill="none" stroke="midnightblue" d="M1092.75,-190.849C928.869,-183.338 512.326,-162.75 152.624,-132.009"/>
<polygon fill="midnightblue" stroke="midnightblue" points="152.797,-128.511 142.535,-131.142 152.199,-135.485 152.797,-128.511"/>
</g>
<!-- Node3 -->
<g id="node3" class="node"><title>Node3</title>
<polygon fill="none" stroke="#bfbfbf" points="161,-112.5 161,-131.5 265,-131.5 265,-112.5 161,-112.5"/>
<text text-anchor="middle" x="213" y="-119.5" font-family="Helvetica,sans-Serif" font-size="10.00">std_msgs_Header.h</text>
</g>
<!-- Node1&#45;&gt;Node3 -->
<g id="edge2" class="edge"><title>Node1&#45;&gt;Node3</title>
<path fill="none" stroke="midnightblue" d="M1092.88,-190.907C943.411,-184.001 585.534,-165.344 275.299,-132.062"/>
<polygon fill="midnightblue" stroke="midnightblue" points="275.528,-128.567 265.21,-130.973 274.776,-135.526 275.528,-128.567"/>
</g>
<!-- Node4 -->
<g id="node4" class="node"><title>Node4</title>
<g id="a_node4"><a xlink:href="autogenerated_2include_2thrifts_2_human_dynamics_8h.html" target="_top" xlink:title="thrifts/HumanDynamics.h">
<polygon fill="none" stroke="black" points="283,-112.5 283,-131.5 411,-131.5 411,-112.5 283,-112.5"/>
<text text-anchor="middle" x="347" y="-119.5" font-family="Helvetica,sans-Serif" font-size="10.00">thrifts/HumanDynamics.h</text>
</a>
</g>
</g>
<!-- Node1&#45;&gt;Node4 -->
<g id="edge3" class="edge"><title>Node1&#45;&gt;Node4</title>
<path fill="none" stroke="midnightblue" d="M1092.86,-188.065C963.489,-177.232 681.062,-153.395 443,-132 435.893,-131.361 428.492,-130.686 421.091,-130.003"/>
<polygon fill="midnightblue" stroke="midnightblue" points="421.306,-126.509 411.026,-129.072 420.661,-133.479 421.306,-126.509"/>
</g>
<!-- Node8 -->
<g id="node8" class="node"><title>Node8</title>
<polygon fill="none" stroke="#bfbfbf" points="315.5,-0.5 315.5,-19.5 406.5,-19.5 406.5,-0.5 315.5,-0.5"/>
<text text-anchor="middle" x="361" y="-7.5" font-family="Helvetica,sans-Serif" font-size="10.00">yarp/sig/Vector.h</text>
</g>
<!-- Node1&#45;&gt;Node8 -->
<g id="edge23" class="edge"><title>Node1&#45;&gt;Node8</title>
<path fill="none" stroke="midnightblue" d="M1092.81,-191.438C927.374,-184.939 527.233,-165.877 477,-132 445.524,-110.772 464.101,-83.5706 438,-56 425.042,-42.312 406.996,-31.4664 391.631,-23.8551"/>
<polygon fill="midnightblue" stroke="midnightblue" points="393.018,-20.6393 382.48,-19.5375 390.031,-26.97 393.018,-20.6393"/>
</g>
<!-- Node10 -->
<g id="node10" class="node"><title>Node10</title>
<polygon fill="none" stroke="#bfbfbf" points="485.5,-112.5 485.5,-131.5 648.5,-131.5 648.5,-112.5 485.5,-112.5"/>
<text text-anchor="middle" x="567" y="-119.5" font-family="Helvetica,sans-Serif" font-size="10.00">iDynTree/ModelIO/ModelLoader.h</text>
</g>
<!-- Node1&#45;&gt;Node10 -->
<g id="edge14" class="edge"><title>Node1&#45;&gt;Node10</title>
<path fill="none" stroke="midnightblue" d="M1092.88,-185.541C981.418,-172.286 766.215,-146.692 648.612,-132.706"/>
<polygon fill="midnightblue" stroke="midnightblue" points="648.926,-129.219 638.583,-131.513 648.1,-136.17 648.926,-129.219"/>
</g>
<!-- Node11 -->
<g id="node11" class="node"><title>Node11</title>
<polygon fill="none" stroke="#bfbfbf" points="666.5,-112.5 666.5,-131.5 731.5,-131.5 731.5,-112.5 666.5,-112.5"/>
<text text-anchor="middle" x="699" y="-119.5" font-family="Helvetica,sans-Serif" font-size="10.00">TickTime.h</text>
</g>
<!-- Node1&#45;&gt;Node11 -->
<g id="edge15" class="edge"><title>Node1&#45;&gt;Node11</title>
<path fill="none" stroke="midnightblue" d="M1092.67,-184.996C1010.53,-174.303 871.371,-155.185 741.637,-132.008"/>
<polygon fill="midnightblue" stroke="midnightblue" points="741.979,-128.513 731.518,-130.188 740.74,-135.403 741.979,-128.513"/>
</g>
<!-- Node12 -->
<g id="node12" class="node"><title>Node12</title>
<polygon fill="none" stroke="#bfbfbf" points="749.5,-112.5 749.5,-131.5 864.5,-131.5 864.5,-112.5 749.5,-112.5"/>
<text text-anchor="middle" x="807" y="-119.5" font-family="Helvetica,sans-Serif" font-size="10.00">yarp/os/BufferedPort.h</text>
</g>
<!-- Node1&#45;&gt;Node12 -->
<g id="edge16" class="edge"><title>Node1&#45;&gt;Node12</title>
<path fill="none" stroke="midnightblue" d="M1092.61,-179.803C1023.9,-166.137 921.577,-145.787 859.874,-133.516"/>
<polygon fill="midnightblue" stroke="midnightblue" points="860.45,-130.062 849.959,-131.544 859.084,-136.927 860.45,-130.062"/>
</g>
<!-- Node13 -->
<g id="node13" class="node"><title>Node13</title>
<polygon fill="none" stroke="#bfbfbf" points="882.5,-112.5 882.5,-131.5 989.5,-131.5 989.5,-112.5 882.5,-112.5"/>
<text text-anchor="middle" x="936" y="-119.5" font-family="Helvetica,sans-Serif" font-size="10.00">yarp/os/LogStream.h</text>
</g>
<!-- Node1&#45;&gt;Node13 -->
<g id="edge17" class="edge"><title>Node1&#45;&gt;Node13</title>
<path fill="none" stroke="midnightblue" d="M1092.8,-171.827C1053.3,-159.528 1005.79,-144.732 973.489,-134.674"/>
<polygon fill="midnightblue" stroke="midnightblue" points="974.156,-131.216 963.567,-131.585 972.074,-137.9 974.156,-131.216"/>
</g>
<!-- Node14 -->
<g id="node14" class="node"><title>Node14</title>
<polygon fill="none" stroke="#bfbfbf" points="1007.5,-112.5 1007.5,-131.5 1104.5,-131.5 1104.5,-112.5 1007.5,-112.5"/>
<text text-anchor="middle" x="1056" y="-119.5" font-family="Helvetica,sans-Serif" font-size="10.00">yarp/os/Network.h</text>
</g>
<!-- Node1&#45;&gt;Node14 -->
<g id="edge18" class="edge"><title>Node1&#45;&gt;Node14</title>
<path fill="none" stroke="midnightblue" d="M1125.92,-168.968C1109.68,-158.291 1091.33,-146.227 1077.51,-137.138"/>
<polygon fill="midnightblue" stroke="midnightblue" points="1079.42,-134.208 1069.14,-131.639 1075.57,-140.057 1079.42,-134.208"/>
</g>
<!-- Node15 -->
<g id="node15" class="node"><title>Node15</title>
<polygon fill="none" stroke="#bfbfbf" points="1122.5,-112.5 1122.5,-131.5 1205.5,-131.5 1205.5,-112.5 1122.5,-112.5"/>
<text text-anchor="middle" x="1164" y="-119.5" font-family="Helvetica,sans-Serif" font-size="10.00">yarp/os/Node.h</text>
</g>
<!-- Node1&#45;&gt;Node15 -->
<g id="edge19" class="edge"><title>Node1&#45;&gt;Node15</title>
<path fill="none" stroke="midnightblue" d="M1164,-168.768C1164,-159.89 1164,-150.074 1164,-141.816"/>
<polygon fill="midnightblue" stroke="midnightblue" points="1167.5,-141.757 1164,-131.757 1160.5,-141.757 1167.5,-141.757"/>
</g>
<!-- Node16 -->
<g id="node16" class="node"><title>Node16</title>
<polygon fill="none" stroke="#bfbfbf" points="1223.5,-112.5 1223.5,-131.5 1324.5,-131.5 1324.5,-112.5 1223.5,-112.5"/>
<text text-anchor="middle" x="1274" y="-119.5" font-family="Helvetica,sans-Serif" font-size="10.00">yarp/os/Publisher.h</text>
</g>
<!-- Node1&#45;&gt;Node16 -->
<g id="edge20" class="edge"><title>Node1&#45;&gt;Node16</title>
<path fill="none" stroke="midnightblue" d="M1202.78,-168.968C1219.32,-158.291 1238.01,-146.227 1252.1,-137.138"/>
<polygon fill="midnightblue" stroke="midnightblue" points="1254.11,-140.003 1260.62,-131.639 1250.32,-134.121 1254.11,-140.003"/>
</g>
<!-- Node17 -->
<g id="node17" class="node"><title>Node17</title>
<polygon fill="none" stroke="#bfbfbf" points="1342.5,-112.5 1342.5,-131.5 1447.5,-131.5 1447.5,-112.5 1342.5,-112.5"/>
<text text-anchor="middle" x="1395" y="-119.5" font-family="Helvetica,sans-Serif" font-size="10.00">yarp/os/RFModule.h</text>
</g>
<!-- Node1&#45;&gt;Node17 -->
<g id="edge21" class="edge"><title>Node1&#45;&gt;Node17</title>
<path fill="none" stroke="midnightblue" d="M1235.19,-172.118C1275.56,-159.711 1324.43,-144.689 1357.42,-134.55"/>
<polygon fill="midnightblue" stroke="midnightblue" points="1358.59,-137.852 1367.12,-131.569 1356.53,-131.161 1358.59,-137.852"/>
</g>
<!-- Node18 -->
<g id="node18" class="node"><title>Node18</title>
<polygon fill="none" stroke="#bfbfbf" points="1466,-112.5 1466,-131.5 1548,-131.5 1548,-112.5 1466,-112.5"/>
<text text-anchor="middle" x="1507" y="-119.5" font-family="Helvetica,sans-Serif" font-size="10.00">yarp/os/Time.h</text>
</g>
<!-- Node1&#45;&gt;Node18 -->
<g id="edge22" class="edge"><title>Node1&#45;&gt;Node18</title>
<path fill="none" stroke="midnightblue" d="M1235.07,-179.289C1300.78,-165.686 1396.87,-145.796 1455.49,-133.663"/>
<polygon fill="midnightblue" stroke="midnightblue" points="1456.54,-137.019 1465.62,-131.565 1455.12,-130.165 1456.54,-137.019"/>
</g>
<!-- Node19 -->
<g id="node19" class="node"><title>Node19</title>
<polygon fill="none" stroke="#bfbfbf" points="1566,-112.5 1566,-131.5 1622,-131.5 1622,-112.5 1566,-112.5"/>
<text text-anchor="middle" x="1594" y="-119.5" font-family="Helvetica,sans-Serif" font-size="10.00">algorithm</text>
</g>
<!-- Node1&#45;&gt;Node19 -->
<g id="edge24" class="edge"><title>Node1&#45;&gt;Node19</title>
<path fill="none" stroke="midnightblue" d="M1235.31,-184.546C1312.13,-173.956 1438.12,-155.416 1555.86,-132.097"/>
<polygon fill="midnightblue" stroke="midnightblue" points="1556.65,-135.509 1565.77,-130.119 1555.28,-128.645 1556.65,-135.509"/>
</g>
<!-- Node20 -->
<g id="node20" class="node"><title>Node20</title>
<polygon fill="none" stroke="#bfbfbf" points="1640,-112.5 1640,-131.5 1694,-131.5 1694,-112.5 1640,-112.5"/>
<text text-anchor="middle" x="1667" y="-119.5" font-family="Helvetica,sans-Serif" font-size="10.00">iostream</text>
</g>
<!-- Node1&#45;&gt;Node20 -->
<g id="edge25" class="edge"><title>Node1&#45;&gt;Node20</title>
<path fill="none" stroke="midnightblue" d="M1235.03,-186.926C1326.73,-177.251 1491.03,-158.071 1630,-132 1630.1,-131.981 1630.2,-131.962 1630.3,-131.943"/>
<polygon fill="midnightblue" stroke="midnightblue" points="1630.92,-135.39 1639.99,-129.92 1629.49,-128.537 1630.92,-135.39"/>
</g>
<!-- Node21 -->
<g id="node21" class="node"><title>Node21</title>
<polygon fill="none" stroke="#bfbfbf" points="1712,-112.5 1712,-131.5 1760,-131.5 1760,-112.5 1712,-112.5"/>
<text text-anchor="middle" x="1736" y="-119.5" font-family="Helvetica,sans-Serif" font-size="10.00">limits.h</text>
</g>
<!-- Node1&#45;&gt;Node21 -->
<g id="edge26" class="edge"><title>Node1&#45;&gt;Node21</title>
<path fill="none" stroke="midnightblue" d="M1235.15,-189.271C1336.81,-181.751 1529.46,-164.663 1701.93,-131.936"/>
<polygon fill="midnightblue" stroke="midnightblue" points="1702.79,-135.335 1711.95,-130.013 1701.47,-128.461 1702.79,-135.335"/>
</g>
<!-- Node22 -->
<g id="node22" class="node"><title>Node22</title>
<polygon fill="none" stroke="#bfbfbf" points="1778.5,-112.5 1778.5,-131.5 1819.5,-131.5 1819.5,-112.5 1778.5,-112.5"/>
<text text-anchor="middle" x="1799" y="-119.5" font-family="Helvetica,sans-Serif" font-size="10.00">string</text>
</g>
<!-- Node1&#45;&gt;Node22 -->
<g id="edge27" class="edge"><title>Node1&#45;&gt;Node22</title>
<path fill="none" stroke="midnightblue" d="M1235.44,-191.06C1347.39,-185.49 1570.9,-170.494 1768.49,-131.702"/>
<polygon fill="midnightblue" stroke="midnightblue" points="1769.35,-135.1 1778.47,-129.717 1767.98,-128.234 1769.35,-135.1"/>
</g>
<!-- Node23 -->
<g id="node23" class="node"><title>Node23</title>
<polygon fill="none" stroke="#bfbfbf" points="1838,-112.5 1838,-131.5 1882,-131.5 1882,-112.5 1838,-112.5"/>
<text text-anchor="middle" x="1860" y="-119.5" font-family="Helvetica,sans-Serif" font-size="10.00">vector</text>
</g>
<!-- Node1&#45;&gt;Node23 -->
<g id="edge28" class="edge"><title>Node1&#45;&gt;Node23</title>
<path fill="none" stroke="midnightblue" d="M1235.34,-191.573C1355.73,-186.551 1606.82,-172.088 1827.58,-131.697"/>
<polygon fill="midnightblue" stroke="midnightblue" points="1828.55,-135.078 1837.74,-129.816 1827.27,-128.195 1828.55,-135.078"/>
</g>
<!-- Node24 -->
<g id="node24" class="node"><title>Node24</title>
<polygon fill="none" stroke="#bfbfbf" points="1900,-112.5 1900,-131.5 1944,-131.5 1944,-112.5 1900,-112.5"/>
<text text-anchor="middle" x="1922" y="-119.5" font-family="Helvetica,sans-Serif" font-size="10.00">cmath</text>
</g>
<!-- Node1&#45;&gt;Node24 -->
<g id="edge29" class="edge"><title>Node1&#45;&gt;Node24</title>
<path fill="none" stroke="midnightblue" d="M1235.18,-192.374C1364.11,-188.46 1644.78,-175.485 1889.59,-131.678"/>
<polygon fill="midnightblue" stroke="midnightblue" points="1890.53,-135.065 1899.75,-129.839 1889.28,-128.177 1890.53,-135.065"/>
</g>
<!-- Node5 -->
<g id="node5" class="node"><title>Node5</title>
<polygon fill="none" stroke="#bfbfbf" points="79,-0.5 79,-19.5 159,-19.5 159,-0.5 79,-0.5"/>
<text text-anchor="middle" x="119" y="-7.5" font-family="Helvetica,sans-Serif" font-size="10.00">yarp/os/Wire.h</text>
</g>
<!-- Node4&#45;&gt;Node5 -->
<g id="edge4" class="edge"><title>Node4&#45;&gt;Node5</title>
<path fill="none" stroke="midnightblue" d="M282.896,-112.725C193.554,-101.043 41.9952,-80.6192 38,-76 19.534,-54.65 53.9471,-35.1036 83.4692,-23.1396"/>
<polygon fill="midnightblue" stroke="midnightblue" points="84.7439,-26.3993 92.8091,-19.529 82.2198,-19.8702 84.7439,-26.3993"/>
</g>
<!-- Node6 -->
<g id="node6" class="node"><title>Node6</title>
<polygon fill="none" stroke="#bfbfbf" points="177,-0.5 177,-19.5 297,-19.5 297,-0.5 177,-0.5"/>
<text text-anchor="middle" x="237" y="-7.5" font-family="Helvetica,sans-Serif" font-size="10.00">yarp/os/idl/WireTypes.h</text>
</g>
<!-- Node4&#45;&gt;Node6 -->
<g id="edge5" class="edge"><title>Node4&#45;&gt;Node6</title>
<path fill="none" stroke="midnightblue" d="M315.038,-112.409C295.399,-105.575 271.178,-94.0942 256,-76 245.03,-62.9221 240.392,-43.7712 238.432,-29.6422"/>
<polygon fill="midnightblue" stroke="midnightblue" points="241.902,-29.1736 237.364,-19.5996 234.941,-29.9135 241.902,-29.1736"/>
</g>
<!-- Node7 -->
<g id="node7" class="node"><title>Node7</title>
<g id="a_node7"><a xlink:href="autogenerated_2include_2thrifts_2_joint_dynamics_estimation_8h.html" target="_top" xlink:title="thrifts/JointDynamicsEstimation.h">
<polygon fill="none" stroke="black" points="265,-56.5 265,-75.5 429,-75.5 429,-56.5 265,-56.5"/>
<text text-anchor="middle" x="347" y="-63.5" font-family="Helvetica,sans-Serif" font-size="10.00">thrifts/JointDynamicsEstimation.h</text>
</a>
</g>
</g>
<!-- Node4&#45;&gt;Node7 -->
<g id="edge6" class="edge"><title>Node4&#45;&gt;Node7</title>
<path fill="none" stroke="midnightblue" d="M347,-112.083C347,-105.006 347,-94.8611 347,-85.9865"/>
<polygon fill="midnightblue" stroke="midnightblue" points="350.5,-85.751 347,-75.7511 343.5,-85.7511 350.5,-85.751"/>
</g>
<!-- Node9 -->
<g id="node9" class="node"><title>Node9</title>
<g id="a_node9"><a xlink:href="autogenerated_2include_2thrifts_2_link_dynamics_estimation_8h.html" target="_top" xlink:title="thrifts/LinkDynamicsEstimation.h">
<polygon fill="none" stroke="black" points="47.5,-56.5 47.5,-75.5 208.5,-75.5 208.5,-56.5 47.5,-56.5"/>
<text text-anchor="middle" x="128" y="-63.5" font-family="Helvetica,sans-Serif" font-size="10.00">thrifts/LinkDynamicsEstimation.h</text>
</a>
</g>
</g>
<!-- Node4&#45;&gt;Node9 -->
<g id="edge10" class="edge"><title>Node4&#45;&gt;Node9</title>
<path fill="none" stroke="midnightblue" d="M312.299,-112.444C274.415,-103.102 213.651,-88.1194 172.338,-77.9326"/>
<polygon fill="midnightblue" stroke="midnightblue" points="173.086,-74.5123 162.539,-75.5164 171.41,-81.3088 173.086,-74.5123"/>
</g>
<!-- Node7&#45;&gt;Node5 -->
<g id="edge7" class="edge"><title>Node7&#45;&gt;Node5</title>
<path fill="none" stroke="midnightblue" d="M310.873,-56.4435C271.349,-47.0826 207.903,-32.0561 164.887,-21.868"/>
<polygon fill="midnightblue" stroke="midnightblue" points="165.496,-18.4154 154.958,-19.5164 163.882,-25.2269 165.496,-18.4154"/>
</g>
<!-- Node7&#45;&gt;Node6 -->
<g id="edge8" class="edge"><title>Node7&#45;&gt;Node6</title>
<path fill="none" stroke="midnightblue" d="M329.327,-56.324C311.606,-47.6247 284.097,-34.1202 263.712,-24.113"/>
<polygon fill="midnightblue" stroke="midnightblue" points="265.149,-20.9195 254.63,-19.6545 262.064,-27.2031 265.149,-20.9195"/>
</g>
<!-- Node7&#45;&gt;Node8 -->
<g id="edge9" class="edge"><title>Node7&#45;&gt;Node8</title>
<path fill="none" stroke="midnightblue" d="M349.312,-56.083C351.167,-48.9272 353.835,-38.6353 356.154,-29.6911"/>
<polygon fill="midnightblue" stroke="midnightblue" points="359.609,-30.3094 358.731,-19.7511 352.834,-28.5527 359.609,-30.3094"/>
</g>
<!-- Node9&#45;&gt;Node5 -->
<g id="edge11" class="edge"><title>Node9&#45;&gt;Node5</title>
<path fill="none" stroke="midnightblue" d="M126.514,-56.083C125.321,-48.9272 123.606,-38.6353 122.115,-29.6911"/>
<polygon fill="midnightblue" stroke="midnightblue" points="125.555,-29.0396 120.459,-19.7511 118.65,-30.1904 125.555,-29.0396"/>
</g>
<!-- Node9&#45;&gt;Node6 -->
<g id="edge12" class="edge"><title>Node9&#45;&gt;Node6</title>
<path fill="none" stroke="midnightblue" d="M145.513,-56.324C163.072,-47.6247 190.331,-34.1202 210.531,-24.113"/>
<polygon fill="midnightblue" stroke="midnightblue" points="212.124,-27.23 219.531,-19.6545 209.016,-20.9575 212.124,-27.23"/>
</g>
<!-- Node9&#45;&gt;Node8 -->
<g id="edge13" class="edge"><title>Node9&#45;&gt;Node8</title>
<path fill="none" stroke="midnightblue" d="M164.92,-56.4435C205.395,-47.0629 270.421,-31.9926 314.384,-21.8036"/>
<polygon fill="midnightblue" stroke="midnightblue" points="315.302,-25.1839 324.253,-19.5164 313.721,-18.3646 315.302,-25.1839"/>
</g>
</g>
</svg>
