<?xml version="1.0" encoding="UTF-8" standalone="no"?>
<!DOCTYPE svg PUBLIC "-//W3C//DTD SVG 1.1//EN"
 "http://www.w3.org/Graphics/SVG/1.1/DTD/svg11.dtd">
<!-- Generated by graphviz version 2.36.0 (20140111.2315)
 -->
<!-- Title: /home/travis/build/robotology/human&#45;dynamics&#45;estimation/human&#45;state&#45;provider/src/HumanStateProviderPrivate.cpp Pages: 1 -->
<!--zoomable 252 -->
<svg id="main" version="1.1" xmlns="http://www.w3.org/2000/svg" xmlns:xlink="http://www.w3.org/1999/xlink" xml:space="preserve" onload="init(evt)">
<style type="text/css"><![CDATA[
.edge:hover path { stroke: red; }
.edge:hover polygon { stroke: red; fill: red; }
]]></style>
<script type="text/javascript"><![CDATA[
var edges = document.getElementsByTagName('g');
if (edges && edges.length) {
  for (var i=0;i<edges.length;i++) {
    if (edges[i].id.substr(0,4)=='edge') {
      edges[i].setAttribute('class','edge');
    }
  }
}
]]></script>
        <defs>
                <circle id="rim" cx="0" cy="0" r="7"/>
                <circle id="rim2" cx="0" cy="0" r="3.5"/>
                <g id="zoomPlus">
                        <use xlink:href="#rim" fill="#404040">
                                <set attributeName="fill" to="#808080" begin="zoomplus.mouseover" end="zoomplus.mouseout"/>
                        </use>
                        <path d="M-4,0h8M0,-4v8" fill="none" stroke="white" stroke-width="1.5" pointer-events="none"/>
                </g>
                <g id="zoomMin">
                        <use xlink:href="#rim" fill="#404040">
                                <set attributeName="fill" to="#808080" begin="zoomminus.mouseover" end="zoomminus.mouseout"/>
                        </use>
                        <path d="M-4,0h8" fill="none" stroke="white" stroke-width="1.5" pointer-events="none"/>
                </g>
                <g id="dirArrow">
                        <path fill="none" stroke="white" stroke-width="1.5" d="M0,-3.0v7 M-2.5,-0.5L0,-3.0L2.5,-0.5"/>
                </g>
               <g id="resetDef">
                       <use xlink:href="#rim2" fill="#404040">
                               <set attributeName="fill" to="#808080" begin="reset.mouseover" end="reset.mouseout"/>
                       </use>
               </g>
        </defs>

<script type="text/javascript">
var viewWidth = 2617;
var viewHeight = 252;
var sectionId = 'dynsection-0';
</script>
<script xlink:href="svgpan.js"/>
<svg id="graph" class="graph">
<g id="viewport">
<title>/home/travis/build/robotology/human&#45;dynamics&#45;estimation/human&#45;state&#45;provider/src/HumanStateProviderPrivate.cpp</title>
<!-- Node1 -->
<g id="node1" class="node"><title>Node1</title>
<polygon fill="#bfbfbf" stroke="black" points="1709,-180.5 1709,-243.5 1873,-243.5 1873,-180.5 1709,-180.5"/>
<text text-anchor="start" x="1717" y="-231.5" font-family="Helvetica,sans-Serif" font-size="10.00">/home/travis/build</text>
<text text-anchor="start" x="1717" y="-220.5" font-family="Helvetica,sans-Serif" font-size="10.00">/robotology/human&#45;dynamics</text>
<text text-anchor="start" x="1717" y="-209.5" font-family="Helvetica,sans-Serif" font-size="10.00">&#45;estimation/human&#45;state</text>
<text text-anchor="start" x="1717" y="-198.5" font-family="Helvetica,sans-Serif" font-size="10.00">&#45;provider/src/HumanStateProvider</text>
<text text-anchor="middle" x="1791" y="-187.5" font-family="Helvetica,sans-Serif" font-size="10.00">Private.cpp</text>
</g>
<!-- Node2 -->
<g id="node2" class="node"><title>Node2</title>
<g id="a_node2"><a xlink:href="_human_state_provider_private_8h.html" target="_top" xlink:title="HumanStateProviderPrivate.h">
<polygon fill="none" stroke="black" points="1103,-124.5 1103,-143.5 1249,-143.5 1249,-124.5 1103,-124.5"/>
<text text-anchor="middle" x="1176" y="-131.5" font-family="Helvetica,sans-Serif" font-size="10.00">HumanStateProviderPrivate.h</text>
</a>
</g>
</g>
<!-- Node1&#45;&gt;Node2 -->
<g id="edge1" class="edge"><title>Node1&#45;&gt;Node2</title>
<path fill="none" stroke="midnightblue" d="M1708.7,-200.829C1589.91,-186.15 1371.87,-159.205 1254.97,-144.759"/>
<polygon fill="midnightblue" stroke="midnightblue" points="1255.37,-141.282 1245.01,-143.529 1254.51,-148.229 1255.37,-141.282"/>
</g>
<!-- Node24 -->
<g id="node24" class="node"><title>Node24</title>
<g id="a_node24"><a xlink:href="_human_i_k_worker_pool_8h.html" target="_top" xlink:title="HumanIKWorkerPool.h">
<polygon fill="none" stroke="black" points="2300.5,-124.5 2300.5,-143.5 2417.5,-143.5 2417.5,-124.5 2300.5,-124.5"/>
<text text-anchor="middle" x="2359" y="-131.5" font-family="Helvetica,sans-Serif" font-size="10.00">HumanIKWorkerPool.h</text>
</a>
</g>
</g>
<!-- Node1&#45;&gt;Node24 -->
<g id="edge25" class="edge"><title>Node1&#45;&gt;Node24</title>
<path fill="none" stroke="midnightblue" d="M1873.29,-199.99C1985.76,-184.941 2185.47,-158.219 2290.33,-144.188"/>
<polygon fill="midnightblue" stroke="midnightblue" points="2291.04,-147.625 2300.49,-142.829 2290.11,-140.686 2291.04,-147.625"/>
</g>
<!-- Node3 -->
<g id="node3" class="node"><title>Node3</title>
<g id="a_node3"><a xlink:href="_human_state_provider_8h.html" target="_top" xlink:title="HumanStateProvider.h">
<polygon fill="none" stroke="black" points="0,-62.5 0,-81.5 116,-81.5 116,-62.5 0,-62.5"/>
<text text-anchor="middle" x="58" y="-69.5" font-family="Helvetica,sans-Serif" font-size="10.00">HumanStateProvider.h</text>
</a>
</g>
</g>
<!-- Node2&#45;&gt;Node3 -->
<g id="edge2" class="edge"><title>Node2&#45;&gt;Node3</title>
<path fill="none" stroke="midnightblue" d="M1102.97,-131.561C897.07,-127.234 314.542,-113.073 125,-88 117.107,-86.9558 108.771,-85.4353 100.761,-83.7582"/>
<polygon fill="midnightblue" stroke="midnightblue" points="101.366,-80.3077 90.8475,-81.574 99.8602,-87.1437 101.366,-80.3077"/>
</g>
<!-- Node5 -->
<g id="node5" class="node"><title>Node5</title>
<polygon fill="none" stroke="#bfbfbf" points="901.5,-62.5 901.5,-81.5 1008.5,-81.5 1008.5,-62.5 901.5,-62.5"/>
<text text-anchor="middle" x="955" y="-69.5" font-family="Helvetica,sans-Serif" font-size="10.00">thrifts/HumanState.h</text>
</g>
<!-- Node2&#45;&gt;Node5 -->
<g id="edge4" class="edge"><title>Node2&#45;&gt;Node5</title>
<path fill="none" stroke="midnightblue" d="M1144.34,-124.403C1105.44,-113.844 1039.36,-95.9027 996.452,-84.2538"/>
<polygon fill="midnightblue" stroke="midnightblue" points="997.173,-80.823 986.605,-81.5806 995.339,-87.5785 997.173,-80.823"/>
</g>
<!-- Node6 -->
<g id="node6" class="node"><title>Node6</title>
<polygon fill="none" stroke="#bfbfbf" points="1026.5,-57 1026.5,-87 1161.5,-87 1161.5,-57 1026.5,-57"/>
<text text-anchor="start" x="1034.5" y="-75" font-family="Helvetica,sans-Serif" font-size="10.00">thrifts/HumanStateProvider</text>
<text text-anchor="middle" x="1094" y="-64" font-family="Helvetica,sans-Serif" font-size="10.00">Service.h</text>
</g>
<!-- Node2&#45;&gt;Node6 -->
<g id="edge5" class="edge"><title>Node2&#45;&gt;Node6</title>
<path fill="none" stroke="midnightblue" d="M1164.25,-124.403C1153.15,-116.277 1136.07,-103.779 1121.53,-93.1419"/>
<polygon fill="midnightblue" stroke="midnightblue" points="1123.46,-90.2213 1113.33,-87.1408 1119.33,-95.8706 1123.46,-90.2213"/>
</g>
<!-- Node7 -->
<g id="node7" class="node"><title>Node7</title>
<polygon fill="none" stroke="#bfbfbf" points="1180,-62.5 1180,-81.5 1336,-81.5 1336,-62.5 1180,-62.5"/>
<text text-anchor="middle" x="1258" y="-69.5" font-family="Helvetica,sans-Serif" font-size="10.00">iDynTree/Core/MatrixDynSize.h</text>
</g>
<!-- Node2&#45;&gt;Node7 -->
<g id="edge6" class="edge"><title>Node2&#45;&gt;Node7</title>
<path fill="none" stroke="midnightblue" d="M1187.75,-124.403C1200.9,-114.78 1222.43,-99.0242 1238.2,-87.4891"/>
<polygon fill="midnightblue" stroke="midnightblue" points="1240.27,-90.3103 1246.27,-81.5806 1236.14,-84.6611 1240.27,-90.3103"/>
</g>
<!-- Node8 -->
<g id="node8" class="node"><title>Node8</title>
<polygon fill="none" stroke="#bfbfbf" points="1354,-62.5 1354,-81.5 1512,-81.5 1512,-62.5 1354,-62.5"/>
<text text-anchor="middle" x="1433" y="-69.5" font-family="Helvetica,sans-Serif" font-size="10.00">iDynTree/Core/VectorDynSize.h</text>
</g>
<!-- Node2&#45;&gt;Node8 -->
<g id="edge7" class="edge"><title>Node2&#45;&gt;Node8</title>
<path fill="none" stroke="midnightblue" d="M1212.55,-124.467C1258.31,-113.783 1336.76,-95.4687 1386.68,-83.8129"/>
<polygon fill="midnightblue" stroke="midnightblue" points="1387.63,-87.1853 1396.58,-81.5034 1386.04,-80.3686 1387.63,-87.1853"/>
</g>
<!-- Node9 -->
<g id="node9" class="node"><title>Node9</title>
<polygon fill="none" stroke="#bfbfbf" points="1568,-62.5 1568,-81.5 1704,-81.5 1704,-62.5 1568,-62.5"/>
<text text-anchor="middle" x="1636" y="-69.5" font-family="Helvetica,sans-Serif" font-size="10.00">iDynTree/Core/Transform.h</text>
</g>
<!-- Node2&#45;&gt;Node9 -->
<g id="edge8" class="edge"><title>Node2&#45;&gt;Node9</title>
<path fill="none" stroke="midnightblue" d="M1249.35,-125.639C1325.64,-117.662 1448.46,-103.919 1554,-88 1563.14,-86.6209 1572.83,-84.9959 1582.22,-83.3336"/>
<polygon fill="midnightblue" stroke="midnightblue" points="1583.03,-86.7437 1592.25,-81.525 1581.79,-79.8547 1583.03,-86.7437"/>
</g>
<!-- Node10 -->
<g id="node10" class="node"><title>Node10</title>
<polygon fill="none" stroke="#bfbfbf" points="1722,-62.5 1722,-81.5 1850,-81.5 1850,-62.5 1722,-62.5"/>
<text text-anchor="middle" x="1786" y="-69.5" font-family="Helvetica,sans-Serif" font-size="10.00">iDynTree/Model/Indices.h</text>
</g>
<!-- Node2&#45;&gt;Node10 -->
<g id="edge9" class="edge"><title>Node2&#45;&gt;Node10</title>
<path fill="none" stroke="midnightblue" d="M1249.27,-129.629C1352.94,-124.231 1548.17,-111.754 1713,-88 1721.38,-86.7929 1730.24,-85.2234 1738.79,-83.5556"/>
<polygon fill="midnightblue" stroke="midnightblue" points="1739.53,-86.9771 1748.64,-81.5683 1738.14,-80.1154 1739.53,-86.9771"/>
</g>
<!-- Node11 -->
<g id="node11" class="node"><title>Node11</title>
<polygon fill="none" stroke="#bfbfbf" points="1868.5,-62.5 1868.5,-81.5 2029.5,-81.5 2029.5,-62.5 1868.5,-62.5"/>
<text text-anchor="middle" x="1949" y="-69.5" font-family="Helvetica,sans-Serif" font-size="10.00">iDynTree/KinDynComputations.h</text>
</g>
<!-- Node2&#45;&gt;Node11 -->
<g id="edge10" class="edge"><title>Node2&#45;&gt;Node11</title>
<path fill="none" stroke="midnightblue" d="M1249.24,-130.563C1374.52,-125.862 1637.82,-113.654 1859,-88 1870.08,-86.7145 1881.88,-85.0008 1893.16,-83.1919"/>
<polygon fill="midnightblue" stroke="midnightblue" points="1894.04,-86.594 1903.34,-81.5134 1892.9,-79.6872 1894.04,-86.594"/>
</g>
<!-- Node12 -->
<g id="node12" class="node"><title>Node12</title>
<g id="a_node12"><a xlink:href="_inverse_kinematics_8h.html" target="_top" xlink:title="human&#45;ik/InverseKinematics.h">
<polygon fill="none" stroke="black" points="2047.5,-62.5 2047.5,-81.5 2196.5,-81.5 2196.5,-62.5 2047.5,-62.5"/>
<text text-anchor="middle" x="2122" y="-69.5" font-family="Helvetica,sans-Serif" font-size="10.00">human&#45;ik/InverseKinematics.h</text>
</a>
</g>
</g>
<!-- Node2&#45;&gt;Node12 -->
<g id="edge11" class="edge"><title>Node2&#45;&gt;Node12</title>
<path fill="none" stroke="midnightblue" d="M1249.19,-132.249C1398.16,-130.044 1747.13,-121.431 2038,-88 2048.48,-86.7951 2059.64,-85.0993 2070.28,-83.2791"/>
<polygon fill="midnightblue" stroke="midnightblue" points="2071.04,-86.6978 2080.28,-81.5078 2069.82,-79.8051 2071.04,-86.6978"/>
</g>
<!-- Node14 -->
<g id="node14" class="node"><title>Node14</title>
<polygon fill="none" stroke="#bfbfbf" points="1748.5,-0.5 1748.5,-19.5 1789.5,-19.5 1789.5,-0.5 1748.5,-0.5"/>
<text text-anchor="middle" x="1769" y="-7.5" font-family="Helvetica,sans-Serif" font-size="10.00">string</text>
</g>
<!-- Node2&#45;&gt;Node14 -->
<g id="edge23" class="edge"><title>Node2&#45;&gt;Node14</title>
<path fill="none" stroke="midnightblue" d="M1249.34,-128.15C1335.53,-121.627 1472.81,-108.431 1520,-88 1540.58,-79.0915 1538.8,-65.7345 1559,-56 1618.33,-27.4076 1695.75,-16.8485 1738.06,-13.0494"/>
<polygon fill="midnightblue" stroke="midnightblue" points="1738.6,-16.5168 1748.28,-12.2035 1738.02,-9.54072 1738.6,-16.5168"/>
</g>
<!-- Node15 -->
<g id="node15" class="node"><title>Node15</title>
<polygon fill="none" stroke="#bfbfbf" points="2209,-0.5 2209,-19.5 2253,-19.5 2253,-0.5 2209,-0.5"/>
<text text-anchor="middle" x="2231" y="-7.5" font-family="Helvetica,sans-Serif" font-size="10.00">vector</text>
</g>
<!-- Node2&#45;&gt;Node15 -->
<g id="edge24" class="edge"><title>Node2&#45;&gt;Node15</title>
<path fill="none" stroke="midnightblue" d="M1249.31,-132.05C1478.25,-128.789 2166.89,-116.635 2205,-88 2222.93,-74.5228 2228.62,-48.0835 2230.36,-29.9824"/>
<polygon fill="midnightblue" stroke="midnightblue" points="2233.85,-30.1838 2231,-19.9798 2226.86,-29.7346 2233.85,-30.1838"/>
</g>
<!-- Node16 -->
<g id="node16" class="node"><title>Node16</title>
<polygon fill="none" stroke="#bfbfbf" points="134.5,-62.5 134.5,-81.5 245.5,-81.5 245.5,-62.5 134.5,-62.5"/>
<text text-anchor="middle" x="190" y="-69.5" font-family="Helvetica,sans-Serif" font-size="10.00">yarp/dev/PolyDriver.h</text>
</g>
<!-- Node2&#45;&gt;Node16 -->
<g id="edge15" class="edge"><title>Node2&#45;&gt;Node16</title>
<path fill="none" stroke="midnightblue" d="M1102.93,-131.147C914.869,-126.104 417.464,-110.951 254,-88 246.619,-86.9636 238.838,-85.4797 231.342,-83.8441"/>
<polygon fill="midnightblue" stroke="midnightblue" points="231.892,-80.3791 221.361,-81.5475 230.322,-87.2009 231.892,-80.3791"/>
</g>
<!-- Node17 -->
<g id="node17" class="node"><title>Node17</title>
<polygon fill="none" stroke="#bfbfbf" points="263.5,-62.5 263.5,-81.5 396.5,-81.5 396.5,-62.5 263.5,-62.5"/>
<text text-anchor="middle" x="330" y="-69.5" font-family="Helvetica,sans-Serif" font-size="10.00">yarp/dev/PreciselyTimed.h</text>
</g>
<!-- Node2&#45;&gt;Node17 -->
<g id="edge16" class="edge"><title>Node2&#45;&gt;Node17</title>
<path fill="none" stroke="midnightblue" d="M1102.87,-132.114C965.559,-129.701 660.004,-120.78 405,-88 395.908,-86.8313 386.266,-85.2022 377.032,-83.4459"/>
<polygon fill="midnightblue" stroke="midnightblue" points="377.706,-80.0115 367.217,-81.5061 376.349,-86.8787 377.706,-80.0115"/>
</g>
<!-- Node18 -->
<g id="node18" class="node"><title>Node18</title>
<polygon fill="none" stroke="#bfbfbf" points="414.5,-62.5 414.5,-81.5 529.5,-81.5 529.5,-62.5 414.5,-62.5"/>
<text text-anchor="middle" x="472" y="-69.5" font-family="Helvetica,sans-Serif" font-size="10.00">yarp/os/BufferedPort.h</text>
</g>
<!-- Node2&#45;&gt;Node18 -->
<g id="edge17" class="edge"><title>Node2&#45;&gt;Node18</title>
<path fill="none" stroke="midnightblue" d="M1102.53,-131.379C983.574,-127.955 741.664,-117.674 539,-88 531.373,-86.8833 523.325,-85.3737 515.554,-83.7409"/>
<polygon fill="midnightblue" stroke="midnightblue" points="516.075,-80.2721 505.557,-81.5462 514.574,-87.1093 516.075,-80.2721"/>
</g>
<!-- Node19 -->
<g id="node19" class="node"><title>Node19</title>
<polygon fill="none" stroke="#bfbfbf" points="548,-62.5 548,-81.5 626,-81.5 626,-62.5 548,-62.5"/>
<text text-anchor="middle" x="587" y="-69.5" font-family="Helvetica,sans-Serif" font-size="10.00">yarp/os/Port.h</text>
</g>
<!-- Node2&#45;&gt;Node19 -->
<g id="edge18" class="edge"><title>Node2&#45;&gt;Node19</title>
<path fill="none" stroke="midnightblue" d="M1102.67,-131.993C997.993,-129.409 800.111,-120.257 635,-88 630.218,-87.0657 625.239,-85.8258 620.377,-84.4579"/>
<polygon fill="midnightblue" stroke="midnightblue" points="621.246,-81.0643 610.661,-81.5275 619.224,-87.7661 621.246,-81.0643"/>
</g>
<!-- Node20 -->
<g id="node20" class="node"><title>Node20</title>
<polygon fill="none" stroke="#bfbfbf" points="644.5,-62.5 644.5,-81.5 735.5,-81.5 735.5,-62.5 644.5,-62.5"/>
<text text-anchor="middle" x="690" y="-69.5" font-family="Helvetica,sans-Serif" font-size="10.00">yarp/sig/Vector.h</text>
</g>
<!-- Node2&#45;&gt;Node20 -->
<g id="edge19" class="edge"><title>Node2&#45;&gt;Node20</title>
<path fill="none" stroke="midnightblue" d="M1102.85,-129.117C1016.49,-123.675 868.835,-111.668 744,-88 738.503,-86.9578 732.751,-85.6271 727.136,-84.19"/>
<polygon fill="midnightblue" stroke="midnightblue" points="727.828,-80.7516 717.262,-81.5277 726.006,-87.5103 727.828,-80.7516"/>
</g>
<!-- Node21 -->
<g id="node21" class="node"><title>Node21</title>
<polygon fill="none" stroke="#bfbfbf" points="753.5,-62.5 753.5,-81.5 812.5,-81.5 812.5,-62.5 753.5,-62.5"/>
<text text-anchor="middle" x="783" y="-69.5" font-family="Helvetica,sans-Serif" font-size="10.00">Eigen/QR</text>
</g>
<!-- Node2&#45;&gt;Node21 -->
<g id="edge20" class="edge"><title>Node2&#45;&gt;Node21</title>
<path fill="none" stroke="midnightblue" d="M1102.84,-128.854C1030.59,-123.56 917.37,-112.028 822,-88 818.764,-87.1847 815.432,-86.1781 812.142,-85.0753"/>
<polygon fill="midnightblue" stroke="midnightblue" points="813.136,-81.712 802.542,-81.5731 810.737,-88.2882 813.136,-81.712"/>
</g>
<!-- Node22 -->
<g id="node22" class="node"><title>Node22</title>
<polygon fill="none" stroke="#bfbfbf" points="831,-62.5 831,-81.5 883,-81.5 883,-62.5 831,-62.5"/>
<text text-anchor="middle" x="857" y="-69.5" font-family="Helvetica,sans-Serif" font-size="10.00">memory</text>
</g>
<!-- Node2&#45;&gt;Node22 -->
<g id="edge21" class="edge"><title>Node2&#45;&gt;Node22</title>
<path fill="none" stroke="midnightblue" d="M1102.84,-126.444C1044.83,-120.048 962.145,-108.248 892,-88 889.352,-87.2357 886.639,-86.3225 883.951,-85.3293"/>
<polygon fill="midnightblue" stroke="midnightblue" points="885.076,-82.0091 874.494,-81.5039 882.452,-88.4984 885.076,-82.0091"/>
</g>
<!-- Node23 -->
<g id="node23" class="node"><title>Node23</title>
<polygon fill="none" stroke="#bfbfbf" points="2252,-62.5 2252,-81.5 2296,-81.5 2296,-62.5 2252,-62.5"/>
<text text-anchor="middle" x="2274" y="-69.5" font-family="Helvetica,sans-Serif" font-size="10.00">mutex</text>
</g>
<!-- Node2&#45;&gt;Node23 -->
<g id="edge22" class="edge"><title>Node2&#45;&gt;Node23</title>
<path fill="none" stroke="midnightblue" d="M1249.34,-133.234C1457.51,-133.368 2049.18,-129.94 2238,-88 2241.07,-87.3173 2244.22,-86.3877 2247.31,-85.3235"/>
<polygon fill="midnightblue" stroke="midnightblue" points="2248.79,-88.5028 2256.83,-81.6022 2246.24,-81.9832 2248.79,-88.5028"/>
</g>
<!-- Node4 -->
<g id="node4" class="node"><title>Node4</title>
<polygon fill="none" stroke="#bfbfbf" points="5.5,-0.5 5.5,-19.5 110.5,-19.5 110.5,-0.5 5.5,-0.5"/>
<text text-anchor="middle" x="58" y="-7.5" font-family="Helvetica,sans-Serif" font-size="10.00">yarp/os/RFModule.h</text>
</g>
<!-- Node3&#45;&gt;Node4 -->
<g id="edge3" class="edge"><title>Node3&#45;&gt;Node4</title>
<path fill="none" stroke="midnightblue" d="M58,-62.4035C58,-53.9381 58,-40.7283 58,-29.8199"/>
<polygon fill="midnightblue" stroke="midnightblue" points="61.5001,-29.5806 58,-19.5806 54.5001,-29.5806 61.5001,-29.5806"/>
</g>
<!-- Node13 -->
<g id="node13" class="node"><title>Node13</title>
<polygon fill="none" stroke="#bfbfbf" points="2037.5,-0.5 2037.5,-19.5 2190.5,-19.5 2190.5,-0.5 2037.5,-0.5"/>
<text text-anchor="middle" x="2114" y="-7.5" font-family="Helvetica,sans-Serif" font-size="10.00">iDynTree/Core/VectorFixSize.h</text>
</g>
<!-- Node12&#45;&gt;Node13 -->
<g id="edge12" class="edge"><title>Node12&#45;&gt;Node13</title>
<path fill="none" stroke="midnightblue" d="M2120.85,-62.4035C2119.73,-53.9381 2117.96,-40.7283 2116.51,-29.8199"/>
<polygon fill="midnightblue" stroke="midnightblue" points="2119.94,-29.0303 2115.14,-19.5806 2113,-29.9555 2119.94,-29.0303"/>
</g>
<!-- Node12&#45;&gt;Node14 -->
<g id="edge13" class="edge"><title>Node12&#45;&gt;Node14</title>
<path fill="none" stroke="midnightblue" d="M2074.92,-62.4998C2062.89,-60.3527 2049.97,-58.0699 2038,-56 1951.72,-41.0793 1849.72,-24.2328 1799.73,-16.029"/>
<polygon fill="midnightblue" stroke="midnightblue" points="1800.03,-12.5314 1789.6,-14.3669 1798.9,-19.4391 1800.03,-12.5314"/>
</g>
<!-- Node12&#45;&gt;Node15 -->
<g id="edge14" class="edge"><title>Node12&#45;&gt;Node15</title>
<path fill="none" stroke="midnightblue" d="M2137.62,-62.4035C2155.59,-52.5123 2185.32,-36.1442 2206.41,-24.5378"/>
<polygon fill="midnightblue" stroke="midnightblue" points="2208.34,-27.4691 2215.41,-19.5806 2204.96,-21.3367 2208.34,-27.4691"/>
</g>
<!-- Node24&#45;&gt;Node15 -->
<g id="edge30" class="edge"><title>Node24&#45;&gt;Node15</title>
<path fill="none" stroke="midnightblue" d="M2354.2,-124.051C2345.65,-108.728 2326.57,-77.0857 2304,-56 2290.44,-43.3262 2272.77,-32.323 2258.21,-24.3695"/>
<polygon fill="midnightblue" stroke="midnightblue" points="2259.65,-21.1694 2249.17,-19.5965 2256.38,-27.3599 2259.65,-21.1694"/>
</g>
<!-- Node24&#45;&gt;Node23 -->
<g id="edge26" class="edge"><title>Node24&#45;&gt;Node23</title>
<path fill="none" stroke="midnightblue" d="M2346.82,-124.403C2333.19,-114.78 2310.87,-99.0242 2294.53,-87.4891"/>
<polygon fill="midnightblue" stroke="midnightblue" points="2296.34,-84.4881 2286.16,-81.5806 2292.31,-90.2069 2296.34,-84.4881"/>
</g>
<!-- Node25 -->
<g id="node25" class="node"><title>Node25</title>
<polygon fill="none" stroke="#bfbfbf" points="2514.5,-62.5 2514.5,-81.5 2609.5,-81.5 2609.5,-62.5 2514.5,-62.5"/>
<text text-anchor="middle" x="2562" y="-69.5" font-family="Helvetica,sans-Serif" font-size="10.00">condition_variable</text>
</g>
<!-- Node24&#45;&gt;Node25 -->
<g id="edge27" class="edge"><title>Node24&#45;&gt;Node25</title>
<path fill="none" stroke="midnightblue" d="M2388.08,-124.403C2423.58,-113.911 2483.75,-96.1295 2523.17,-84.4758"/>
<polygon fill="midnightblue" stroke="midnightblue" points="2524.37,-87.7716 2532.97,-81.5806 2522.39,-81.0586 2524.37,-87.7716"/>
</g>
<!-- Node26 -->
<g id="node26" class="node"><title>Node26</title>
<polygon fill="none" stroke="#bfbfbf" points="2352.5,-62.5 2352.5,-81.5 2435.5,-81.5 2435.5,-62.5 2352.5,-62.5"/>
<text text-anchor="middle" x="2394" y="-69.5" font-family="Helvetica,sans-Serif" font-size="10.00">unordered_map</text>
</g>
<!-- Node24&#45;&gt;Node26 -->
<g id="edge28" class="edge"><title>Node24&#45;&gt;Node26</title>
<path fill="none" stroke="midnightblue" d="M2364.01,-124.403C2369.16,-115.582 2377.31,-101.608 2383.82,-90.4548"/>
<polygon fill="midnightblue" stroke="midnightblue" points="2386.98,-91.982 2388.99,-81.5806 2380.93,-88.4548 2386.98,-91.982"/>
</g>
<!-- Node27 -->
<g id="node27" class="node"><title>Node27</title>
<polygon fill="none" stroke="#bfbfbf" points="2453.5,-62.5 2453.5,-81.5 2496.5,-81.5 2496.5,-62.5 2453.5,-62.5"/>
<text text-anchor="middle" x="2475" y="-69.5" font-family="Helvetica,sans-Serif" font-size="10.00">queue</text>
</g>
<!-- Node24&#45;&gt;Node27 -->
<g id="edge29" class="edge"><title>Node24&#45;&gt;Node27</title>
<path fill="none" stroke="midnightblue" d="M2375.62,-124.403C2394.92,-114.423 2426.96,-97.8487 2449.43,-86.2253"/>
<polygon fill="midnightblue" stroke="midnightblue" points="2451.14,-89.2836 2458.41,-81.5806 2447.92,-83.0661 2451.14,-89.2836"/>
</g>
</g>
</svg>
        <g id="navigator" transform="translate(0 0)" fill="#404254">
                <rect fill="#f2f5e9" fill-opacity="0.5" stroke="#606060" stroke-width=".5" x="0" y="0" width="60" height="60"/>
                <use id="zoomplus" xlink:href="#zoomPlus" x="17" y="9" onmousedown="handleZoom(evt,'in')"/>
                <use id="zoomminus" xlink:href="#zoomMin" x="42" y="9" onmousedown="handleZoom(evt,'out')"/>
                <use id="reset" xlink:href="#resetDef" x="30" y="36" onmousedown="handleReset()"/>
                <g id="arrowUp" xlink:href="#dirArrow" transform="translate(30 24)" onmousedown="handlePan(0,-1)">
                  <use xlink:href="#rim" fill="#404040">
                        <set attributeName="fill" to="#808080" begin="arrowUp.mouseover" end="arrowUp.mouseout"/>
                  </use>
                  <path fill="none" stroke="white" stroke-width="1.5" d="M0,-3.0v7 M-2.5,-0.5L0,-3.0L2.5,-0.5"/>
                </g>
                <g id="arrowRight" xlink:href="#dirArrow" transform="rotate(90) translate(36 -43)" onmousedown="handlePan(1,0)">
                  <use xlink:href="#rim" fill="#404040">
                        <set attributeName="fill" to="#808080" begin="arrowRight.mouseover" end="arrowRight.mouseout"/>
                  </use>
                  <path fill="none" stroke="white" stroke-width="1.5" d="M0,-3.0v7 M-2.5,-0.5L0,-3.0L2.5,-0.5"/>
                </g>
                <g id="arrowDown" xlink:href="#dirArrow" transform="rotate(180) translate(-30 -48)" onmousedown="handlePan(0,1)">
                  <use xlink:href="#rim" fill="#404040">
                        <set attributeName="fill" to="#808080" begin="arrowDown.mouseover" end="arrowDown.mouseout"/>
                  </use>
                  <path fill="none" stroke="white" stroke-width="1.5" d="M0,-3.0v7 M-2.5,-0.5L0,-3.0L2.5,-0.5"/>
                </g>
                <g id="arrowLeft" xlink:href="#dirArrow" transform="rotate(270) translate(-36 17)" onmousedown="handlePan(-1,0)">
                  <use xlink:href="#rim" fill="#404040">
                        <set attributeName="fill" to="#808080" begin="arrowLeft.mouseover" end="arrowLeft.mouseout"/>
                  </use>
                  <path fill="none" stroke="white" stroke-width="1.5" d="M0,-3.0v7 M-2.5,-0.5L0,-3.0L2.5,-0.5"/>
                </g>
        </g>
        <svg viewBox="0 0 15 15" width="100%" height="30px" preserveAspectRatio="xMaxYMin meet">
         <g id="arrow_out" transform="scale(0.3 0.3)">
          <a xlink:href="_human_state_provider_private_8cpp__incl_org.svg" target="_base">
           <rect id="button" ry="5" rx="5" y="6" x="6" height="38" width="38"
                fill="#f2f5e9" fill-opacity="0.5" stroke="#606060" stroke-width="1.0"/>
           <path id="arrow"
             d="M 11.500037,31.436501 C 11.940474,20.09759 22.043105,11.32322 32.158766,21.979434 L 37.068811,17.246167 C 37.068811,17.246167 37.088388,32 37.088388,32 L 22.160133,31.978069 C 22.160133,31.978069 26.997745,27.140456 26.997745,27.140456 C 18.528582,18.264221 13.291696,25.230495 11.500037,31.436501 z"
             style="fill:#404040;"/>
          </a>
         </g>
        </svg>
</svg>
