<?xml version="1.0" encoding="UTF-8" standalone="no"?>
<!DOCTYPE svg PUBLIC "-//W3C//DTD SVG 1.1//EN"
 "http://www.w3.org/Graphics/SVG/1.1/DTD/svg11.dtd">
<!-- Generated by graphviz version 2.36.0 (20140111.2315)
 -->
<!-- Title: /home/travis/build/robotology/human&#45;dynamics&#45;estimation/human&#45;robot&#45;pose/src/HumanRobotPose.cpp Pages: 1 -->
<svg width="3949pt" height="174pt"
 viewBox="0.00 0.00 3949.00 174.00" xmlns="http://www.w3.org/2000/svg" xmlns:xlink="http://www.w3.org/1999/xlink">
<g id="graph0" class="graph" transform="scale(1 1) rotate(0) translate(4 170)">
<title>/home/travis/build/robotology/human&#45;dynamics&#45;estimation/human&#45;robot&#45;pose/src/HumanRobotPose.cpp</title>
<!-- Node1 -->
<g id="node1" class="node"><title>Node1</title>
<polygon fill="#bfbfbf" stroke="black" points="2079.5,-113 2079.5,-165 2238.5,-165 2238.5,-113 2079.5,-113"/>
<text text-anchor="start" x="2087.5" y="-153" font-family="Helvetica,sans-Serif" font-size="10.00">/home/travis/build</text>
<text text-anchor="start" x="2087.5" y="-142" font-family="Helvetica,sans-Serif" font-size="10.00">/robotology/human&#45;dynamics</text>
<text text-anchor="start" x="2087.5" y="-131" font-family="Helvetica,sans-Serif" font-size="10.00">&#45;estimation/human&#45;robot</text>
<text text-anchor="middle" x="2159" y="-120" font-family="Helvetica,sans-Serif" font-size="10.00">&#45;pose/src/HumanRobotPose.cpp</text>
</g>
<!-- Node2 -->
<g id="node2" class="node"><title>Node2</title>
<g id="a_node2"><a xlink:href="_human_robot_pose_8h.html" target="_top" xlink:title="HumanRobotPose.h">
<polygon fill="none" stroke="black" points="38.5,-56.5 38.5,-75.5 143.5,-75.5 143.5,-56.5 38.5,-56.5"/>
<text text-anchor="middle" x="91" y="-63.5" font-family="Helvetica,sans-Serif" font-size="10.00">HumanRobotPose.h</text>
</a>
</g>
</g>
<!-- Node1&#45;&gt;Node2 -->
<g id="edge1" class="edge"><title>Node1&#45;&gt;Node2</title>
<path fill="none" stroke="midnightblue" d="M2079.24,-138.461C1808.98,-139.399 903.166,-137.43 158,-76 156.538,-75.8795 155.059,-75.7492 153.568,-75.6106"/>
<polygon fill="midnightblue" stroke="midnightblue" points="153.917,-72.1281 143.611,-74.5857 153.2,-79.0913 153.917,-72.1281"/>
</g>
<!-- Node3 -->
<g id="node3" class="node"><title>Node3</title>
<polygon fill="none" stroke="#bfbfbf" points="0,-0.5 0,-19.5 52,-19.5 52,-0.5 0,-0.5"/>
<text text-anchor="middle" x="26" y="-7.5" font-family="Helvetica,sans-Serif" font-size="10.00">memory</text>
</g>
<!-- Node1&#45;&gt;Node3 -->
<g id="edge33" class="edge"><title>Node1&#45;&gt;Node3</title>
<path fill="none" stroke="midnightblue" d="M2079.32,-137.151C1696.86,-132.895 66.2528,-112.624 29,-76 17.06,-64.2615 17.9403,-44.3266 20.7981,-29.6213"/>
<polygon fill="midnightblue" stroke="midnightblue" points="24.2685,-30.1576 23.1894,-19.6178 17.4603,-28.5301 24.2685,-30.1576"/>
</g>
<!-- Node4 -->
<g id="node4" class="node"><title>Node4</title>
<polygon fill="none" stroke="#bfbfbf" points="102.5,-0.5 102.5,-19.5 207.5,-19.5 207.5,-0.5 102.5,-0.5"/>
<text text-anchor="middle" x="155" y="-7.5" font-family="Helvetica,sans-Serif" font-size="10.00">yarp/os/RFModule.h</text>
</g>
<!-- Node1&#45;&gt;Node4 -->
<g id="edge29" class="edge"><title>Node1&#45;&gt;Node4</title>
<path fill="none" stroke="midnightblue" d="M2079.22,-137.655C1720.89,-135.832 274.003,-125.424 192,-76 175.176,-65.8599 165.315,-45.0054 160.063,-29.6407"/>
<polygon fill="midnightblue" stroke="midnightblue" points="163.283,-28.2 157.019,-19.6548 156.587,-30.2408 163.283,-28.2"/>
</g>
<!-- Node5 -->
<g id="node5" class="node"><title>Node5</title>
<polygon fill="none" stroke="#bfbfbf" points="200.5,-56.5 200.5,-75.5 265.5,-75.5 265.5,-56.5 200.5,-56.5"/>
<text text-anchor="middle" x="233" y="-63.5" font-family="Helvetica,sans-Serif" font-size="10.00">TickTime.h</text>
</g>
<!-- Node1&#45;&gt;Node5 -->
<g id="edge4" class="edge"><title>Node1&#45;&gt;Node5</title>
<path fill="none" stroke="midnightblue" d="M2079.44,-137.271C1770.98,-134.154 652.964,-120.09 276.043,-75.8515"/>
<polygon fill="midnightblue" stroke="midnightblue" points="276.267,-72.3534 265.921,-74.6342 275.431,-79.3033 276.267,-72.3534"/>
</g>
<!-- Node6 -->
<g id="node6" class="node"><title>Node6</title>
<polygon fill="none" stroke="#bfbfbf" points="283.5,-56.5 283.5,-75.5 416.5,-75.5 416.5,-56.5 283.5,-56.5"/>
<text text-anchor="middle" x="350" y="-63.5" font-family="Helvetica,sans-Serif" font-size="10.00">sensor_msgs_JointState.h</text>
</g>
<!-- Node1&#45;&gt;Node6 -->
<g id="edge5" class="edge"><title>Node1&#45;&gt;Node6</title>
<path fill="none" stroke="midnightblue" d="M2079.41,-137.476C1834.55,-135.367 1070.63,-125.091 427.112,-76.0108"/>
<polygon fill="midnightblue" stroke="midnightblue" points="426.936,-72.4871 416.698,-75.2123 426.401,-79.4666 426.936,-72.4871"/>
</g>
<!-- Node7 -->
<g id="node7" class="node"><title>Node7</title>
<polygon fill="none" stroke="#bfbfbf" points="434.5,-56.5 434.5,-75.5 577.5,-75.5 577.5,-56.5 434.5,-56.5"/>
<text text-anchor="middle" x="506" y="-63.5" font-family="Helvetica,sans-Serif" font-size="10.00">sensor_msgs_Temperature.h</text>
</g>
<!-- Node1&#45;&gt;Node7 -->
<g id="edge6" class="edge"><title>Node1&#45;&gt;Node7</title>
<path fill="none" stroke="midnightblue" d="M2079.14,-136.859C1849.25,-133.145 1166,-119.089 587.741,-75.9922"/>
<polygon fill="midnightblue" stroke="midnightblue" points="587.761,-72.4839 577.528,-75.2271 587.238,-79.4644 587.761,-72.4839"/>
</g>
<!-- Node8 -->
<g id="node8" class="node"><title>Node8</title>
<polygon fill="none" stroke="#bfbfbf" points="596,-56.5 596,-75.5 718,-75.5 718,-56.5 596,-56.5"/>
<text text-anchor="middle" x="657" y="-63.5" font-family="Helvetica,sans-Serif" font-size="10.00">tf2_msgs_TFMessage.h</text>
</g>
<!-- Node1&#45;&gt;Node8 -->
<g id="edge7" class="edge"><title>Node1&#45;&gt;Node8</title>
<path fill="none" stroke="midnightblue" d="M2079.34,-136.861C1863.59,-133.278 1249.69,-119.795 728.141,-75.9231"/>
<polygon fill="midnightblue" stroke="midnightblue" points="728.416,-72.434 718.157,-75.0786 727.826,-79.4091 728.416,-72.434"/>
</g>
<!-- Node9 -->
<g id="node9" class="node"><title>Node9</title>
<polygon fill="none" stroke="#bfbfbf" points="736.5,-56.5 736.5,-75.5 843.5,-75.5 843.5,-56.5 736.5,-56.5"/>
<text text-anchor="middle" x="790" y="-63.5" font-family="Helvetica,sans-Serif" font-size="10.00">thrifts/HumanState.h</text>
</g>
<!-- Node1&#45;&gt;Node9 -->
<g id="edge8" class="edge"><title>Node1&#45;&gt;Node9</title>
<path fill="none" stroke="midnightblue" d="M2079.24,-136.901C1876.26,-133.526 1323.46,-120.718 853.765,-76.0837"/>
<polygon fill="midnightblue" stroke="midnightblue" points="854.018,-72.5921 843.73,-75.1241 853.351,-79.5603 854.018,-72.5921"/>
</g>
<!-- Node10 -->
<g id="node10" class="node"><title>Node10</title>
<polygon fill="none" stroke="#bfbfbf" points="861,-56.5 861,-75.5 1011,-75.5 1011,-56.5 861,-56.5"/>
<text text-anchor="middle" x="936" y="-63.5" font-family="Helvetica,sans-Serif" font-size="10.00">iDynTree/Core/EigenHelpers.h</text>
</g>
<!-- Node1&#45;&gt;Node10 -->
<g id="edge9" class="edge"><title>Node1&#45;&gt;Node10</title>
<path fill="none" stroke="midnightblue" d="M2079.23,-135.056C1895.02,-127.955 1425.56,-108.119 1021.21,-75.9683"/>
<polygon fill="midnightblue" stroke="midnightblue" points="1021.31,-72.4658 1011.07,-75.1584 1020.76,-79.4436 1021.31,-72.4658"/>
</g>
<!-- Node11 -->
<g id="node11" class="node"><title>Node11</title>
<polygon fill="none" stroke="#bfbfbf" points="1029.5,-56.5 1029.5,-75.5 1156.5,-75.5 1156.5,-56.5 1029.5,-56.5"/>
<text text-anchor="middle" x="1093" y="-63.5" font-family="Helvetica,sans-Serif" font-size="10.00">iDynTree/Core/Position.h</text>
</g>
<!-- Node1&#45;&gt;Node11 -->
<g id="edge10" class="edge"><title>Node1&#45;&gt;Node11</title>
<path fill="none" stroke="midnightblue" d="M2079.39,-134.662C1912.33,-127.301 1512.74,-107.831 1166.64,-76.0013"/>
<polygon fill="midnightblue" stroke="midnightblue" points="1166.96,-72.5155 1156.68,-75.08 1166.31,-79.4857 1166.96,-72.5155"/>
</g>
<!-- Node12 -->
<g id="node12" class="node"><title>Node12</title>
<polygon fill="none" stroke="#bfbfbf" points="1175,-56.5 1175,-75.5 1303,-75.5 1303,-56.5 1175,-56.5"/>
<text text-anchor="middle" x="1239" y="-63.5" font-family="Helvetica,sans-Serif" font-size="10.00">iDynTree/Core/Rotation.h</text>
</g>
<!-- Node1&#45;&gt;Node12 -->
<g id="edge11" class="edge"><title>Node1&#45;&gt;Node12</title>
<path fill="none" stroke="midnightblue" d="M2079.48,-133.499C1931.06,-124.809 1601.57,-104.153 1313.31,-76.0836"/>
<polygon fill="midnightblue" stroke="midnightblue" points="1313.37,-72.5725 1303.07,-75.0819 1312.69,-79.5392 1313.37,-72.5725"/>
</g>
<!-- Node13 -->
<g id="node13" class="node"><title>Node13</title>
<polygon fill="none" stroke="#bfbfbf" points="1321,-56.5 1321,-75.5 1457,-75.5 1457,-56.5 1321,-56.5"/>
<text text-anchor="middle" x="1389" y="-63.5" font-family="Helvetica,sans-Serif" font-size="10.00">iDynTree/Core/Transform.h</text>
</g>
<!-- Node1&#45;&gt;Node13 -->
<g id="edge12" class="edge"><title>Node1&#45;&gt;Node13</title>
<path fill="none" stroke="midnightblue" d="M2079.28,-131.523C1950.45,-120.906 1688.53,-98.7014 1467,-76 1466.9,-75.9896 1466.8,-75.9791 1466.69,-75.9687"/>
<polygon fill="midnightblue" stroke="midnightblue" points="1467.36,-72.5198 1457.05,-74.9558 1466.63,-79.4815 1467.36,-72.5198"/>
</g>
<!-- Node14 -->
<g id="node14" class="node"><title>Node14</title>
<polygon fill="none" stroke="#bfbfbf" points="1475.5,-56.5 1475.5,-75.5 1628.5,-75.5 1628.5,-56.5 1475.5,-56.5"/>
<text text-anchor="middle" x="1552" y="-63.5" font-family="Helvetica,sans-Serif" font-size="10.00">iDynTree/Core/VectorFixSize.h</text>
</g>
<!-- Node1&#45;&gt;Node14 -->
<g id="edge13" class="edge"><title>Node1&#45;&gt;Node14</title>
<path fill="none" stroke="midnightblue" d="M2079.33,-128.682C1964.16,-115.21 1752.17,-90.4139 1635.11,-76.7211"/>
<polygon fill="midnightblue" stroke="midnightblue" points="1635.46,-73.2383 1625.12,-75.5527 1634.65,-80.1909 1635.46,-73.2383"/>
</g>
<!-- Node15 -->
<g id="node15" class="node"><title>Node15</title>
<polygon fill="none" stroke="#bfbfbf" points="1646.5,-56.5 1646.5,-75.5 1807.5,-75.5 1807.5,-56.5 1646.5,-56.5"/>
<text text-anchor="middle" x="1727" y="-63.5" font-family="Helvetica,sans-Serif" font-size="10.00">iDynTree/KinDynComputations.h</text>
</g>
<!-- Node1&#45;&gt;Node15 -->
<g id="edge14" class="edge"><title>Node1&#45;&gt;Node15</title>
<path fill="none" stroke="midnightblue" d="M2079.26,-124.895C1995.38,-111.109 1865.17,-89.7081 1788.77,-77.1515"/>
<polygon fill="midnightblue" stroke="midnightblue" points="1789.25,-73.6833 1778.81,-75.5151 1788.11,-80.5906 1789.25,-73.6833"/>
</g>
<!-- Node16 -->
<g id="node16" class="node"><title>Node16</title>
<polygon fill="none" stroke="#bfbfbf" points="1825.5,-56.5 1825.5,-75.5 1966.5,-75.5 1966.5,-56.5 1825.5,-56.5"/>
<text text-anchor="middle" x="1896" y="-63.5" font-family="Helvetica,sans-Serif" font-size="10.00">iDynTree/Model/JointState.h</text>
</g>
<!-- Node1&#45;&gt;Node16 -->
<g id="edge15" class="edge"><title>Node1&#45;&gt;Node16</title>
<path fill="none" stroke="midnightblue" d="M2079.38,-116.505C2032.61,-103.879 1975.41,-88.4375 1937.46,-78.1925"/>
<polygon fill="midnightblue" stroke="midnightblue" points="1938.33,-74.8035 1927.77,-75.5761 1936.51,-81.5616 1938.33,-74.8035"/>
</g>
<!-- Node17 -->
<g id="node17" class="node"><title>Node17</title>
<polygon fill="none" stroke="#bfbfbf" points="1984.5,-56.5 1984.5,-75.5 2147.5,-75.5 2147.5,-56.5 1984.5,-56.5"/>
<text text-anchor="middle" x="2066" y="-63.5" font-family="Helvetica,sans-Serif" font-size="10.00">iDynTree/ModelIO/ModelLoader.h</text>
</g>
<!-- Node1&#45;&gt;Node17 -->
<g id="edge16" class="edge"><title>Node1&#45;&gt;Node17</title>
<path fill="none" stroke="midnightblue" d="M2126.21,-112.968C2112.71,-102.66 2097.51,-91.0589 2085.77,-82.09"/>
<polygon fill="midnightblue" stroke="midnightblue" points="2087.61,-79.0958 2077.54,-75.8095 2083.36,-84.6597 2087.61,-79.0958"/>
</g>
<!-- Node18 -->
<g id="node18" class="node"><title>Node18</title>
<polygon fill="none" stroke="#bfbfbf" points="2166,-56.5 2166,-75.5 2338,-75.5 2338,-56.5 2166,-56.5"/>
<text text-anchor="middle" x="2252" y="-63.5" font-family="Helvetica,sans-Serif" font-size="10.00">iDynTree/yarp/YARPConversions.h</text>
</g>
<!-- Node1&#45;&gt;Node18 -->
<g id="edge17" class="edge"><title>Node1&#45;&gt;Node18</title>
<path fill="none" stroke="midnightblue" d="M2191.79,-112.968C2205.29,-102.66 2220.49,-91.0589 2232.23,-82.09"/>
<polygon fill="midnightblue" stroke="midnightblue" points="2234.64,-84.6597 2240.46,-75.8095 2230.39,-79.0958 2234.64,-84.6597"/>
</g>
<!-- Node19 -->
<g id="node19" class="node"><title>Node19</title>
<polygon fill="none" stroke="#bfbfbf" points="2356,-56.5 2356,-75.5 2466,-75.5 2466,-56.5 2356,-56.5"/>
<text text-anchor="middle" x="2411" y="-63.5" font-family="Helvetica,sans-Serif" font-size="10.00">yarp/dev/IEncoders.h</text>
</g>
<!-- Node1&#45;&gt;Node19 -->
<g id="edge18" class="edge"><title>Node1&#45;&gt;Node19</title>
<path fill="none" stroke="midnightblue" d="M2238.73,-115.535C2282.7,-103.148 2335.39,-88.302 2370.83,-78.3186"/>
<polygon fill="midnightblue" stroke="midnightblue" points="2372.11,-81.5921 2380.79,-75.5113 2370.22,-74.8545 2372.11,-81.5921"/>
</g>
<!-- Node20 -->
<g id="node20" class="node"><title>Node20</title>
<polygon fill="none" stroke="#bfbfbf" points="2484.5,-56.5 2484.5,-75.5 2595.5,-75.5 2595.5,-56.5 2484.5,-56.5"/>
<text text-anchor="middle" x="2540" y="-63.5" font-family="Helvetica,sans-Serif" font-size="10.00">yarp/dev/PolyDriver.h</text>
</g>
<!-- Node1&#45;&gt;Node20 -->
<g id="edge19" class="edge"><title>Node1&#45;&gt;Node20</title>
<path fill="none" stroke="midnightblue" d="M2238.87,-123.116C2312.4,-109.414 2419.58,-89.4405 2484.27,-77.386"/>
<polygon fill="midnightblue" stroke="midnightblue" points="2485.08,-80.7944 2494.27,-75.5215 2483.8,-73.9128 2485.08,-80.7944"/>
</g>
<!-- Node21 -->
<g id="node21" class="node"><title>Node21</title>
<polygon fill="none" stroke="#bfbfbf" points="2614,-56.5 2614,-75.5 2700,-75.5 2700,-56.5 2614,-56.5"/>
<text text-anchor="middle" x="2657" y="-63.5" font-family="Helvetica,sans-Serif" font-size="10.00">yarp/os/Bottle.h</text>
</g>
<!-- Node1&#45;&gt;Node21 -->
<g id="edge20" class="edge"><title>Node1&#45;&gt;Node21</title>
<path fill="none" stroke="midnightblue" d="M2238.69,-127.625C2327.81,-115.852 2476.42,-95.7155 2604,-76 2604.1,-75.9844 2604.2,-75.9688 2604.3,-75.9531"/>
<polygon fill="midnightblue" stroke="midnightblue" points="2604.59,-79.4513 2613.92,-74.4259 2603.49,-72.5379 2604.59,-79.4513"/>
</g>
<!-- Node22 -->
<g id="node22" class="node"><title>Node22</title>
<polygon fill="none" stroke="#bfbfbf" points="2718.5,-56.5 2718.5,-75.5 2833.5,-75.5 2833.5,-56.5 2718.5,-56.5"/>
<text text-anchor="middle" x="2776" y="-63.5" font-family="Helvetica,sans-Serif" font-size="10.00">yarp/os/BufferedPort.h</text>
</g>
<!-- Node1&#45;&gt;Node22 -->
<g id="edge21" class="edge"><title>Node1&#45;&gt;Node22</title>
<path fill="none" stroke="midnightblue" d="M2238.76,-129.547C2343.78,-118.297 2534.44,-97.4555 2708.17,-76.08"/>
<polygon fill="midnightblue" stroke="midnightblue" points="2708.77,-79.5324 2718.27,-74.8346 2707.91,-72.585 2708.77,-79.5324"/>
</g>
<!-- Node23 -->
<g id="node23" class="node"><title>Node23</title>
<polygon fill="none" stroke="#bfbfbf" points="2851.5,-56.5 2851.5,-75.5 2958.5,-75.5 2958.5,-56.5 2851.5,-56.5"/>
<text text-anchor="middle" x="2905" y="-63.5" font-family="Helvetica,sans-Serif" font-size="10.00">yarp/os/LockGuard.h</text>
</g>
<!-- Node1&#45;&gt;Node23 -->
<g id="edge22" class="edge"><title>Node1&#45;&gt;Node23</title>
<path fill="none" stroke="midnightblue" d="M2238.53,-132.114C2364.19,-122.518 2616.57,-102.048 2841.4,-76.0118"/>
<polygon fill="midnightblue" stroke="midnightblue" points="2841.88,-79.4797 2851.41,-74.847 2841.07,-72.5266 2841.88,-79.4797"/>
</g>
<!-- Node24 -->
<g id="node24" class="node"><title>Node24</title>
<polygon fill="none" stroke="#bfbfbf" points="2976.5,-56.5 2976.5,-75.5 3083.5,-75.5 3083.5,-56.5 2976.5,-56.5"/>
<text text-anchor="middle" x="3030" y="-63.5" font-family="Helvetica,sans-Serif" font-size="10.00">yarp/os/LogStream.h</text>
</g>
<!-- Node1&#45;&gt;Node24 -->
<g id="edge23" class="edge"><title>Node1&#45;&gt;Node24</title>
<path fill="none" stroke="midnightblue" d="M2238.58,-133.623C2381.89,-125.36 2693.04,-105.688 2966.3,-76.0031"/>
<polygon fill="midnightblue" stroke="midnightblue" points="2966.85,-79.4637 2976.41,-74.898 2966.09,-72.5051 2966.85,-79.4637"/>
</g>
<!-- Node25 -->
<g id="node25" class="node"><title>Node25</title>
<polygon fill="none" stroke="#bfbfbf" points="3101.5,-56.5 3101.5,-75.5 3188.5,-75.5 3188.5,-56.5 3101.5,-56.5"/>
<text text-anchor="middle" x="3145" y="-63.5" font-family="Helvetica,sans-Serif" font-size="10.00">yarp/os/Mutex.h</text>
</g>
<!-- Node1&#45;&gt;Node25 -->
<g id="edge24" class="edge"><title>Node1&#45;&gt;Node25</title>
<path fill="none" stroke="midnightblue" d="M2238.51,-135.448C2398.22,-129.727 2769.5,-113.427 3091.39,-75.9414"/>
<polygon fill="midnightblue" stroke="midnightblue" points="3091.85,-79.411 3101.38,-74.7695 3091.04,-72.4587 3091.85,-79.411"/>
</g>
<!-- Node26 -->
<g id="node26" class="node"><title>Node26</title>
<polygon fill="none" stroke="#bfbfbf" points="3206.5,-56.5 3206.5,-75.5 3303.5,-75.5 3303.5,-56.5 3206.5,-56.5"/>
<text text-anchor="middle" x="3255" y="-63.5" font-family="Helvetica,sans-Serif" font-size="10.00">yarp/os/Network.h</text>
</g>
<!-- Node1&#45;&gt;Node26 -->
<g id="edge25" class="edge"><title>Node1&#45;&gt;Node26</title>
<path fill="none" stroke="midnightblue" d="M2238.65,-135.803C2411.25,-130.486 2832.77,-114.5 3196.12,-75.9842"/>
<polygon fill="midnightblue" stroke="midnightblue" points="3196.74,-79.438 3206.31,-74.8963 3195.99,-72.4776 3196.74,-79.438"/>
</g>
<!-- Node27 -->
<g id="node27" class="node"><title>Node27</title>
<polygon fill="none" stroke="#bfbfbf" points="3321.5,-56.5 3321.5,-75.5 3404.5,-75.5 3404.5,-56.5 3321.5,-56.5"/>
<text text-anchor="middle" x="3363" y="-63.5" font-family="Helvetica,sans-Serif" font-size="10.00">yarp/os/Node.h</text>
</g>
<!-- Node1&#45;&gt;Node27 -->
<g id="edge26" class="edge"><title>Node1&#45;&gt;Node27</title>
<path fill="none" stroke="midnightblue" d="M2238.61,-137.03C2424.69,-134.048 2902.67,-122.248 3311.37,-75.9159"/>
<polygon fill="midnightblue" stroke="midnightblue" points="3311.77,-79.3923 3321.31,-74.7801 3310.98,-72.4375 3311.77,-79.3923"/>
</g>
<!-- Node28 -->
<g id="node28" class="node"><title>Node28</title>
<polygon fill="none" stroke="#bfbfbf" points="3422.5,-56.5 3422.5,-75.5 3519.5,-75.5 3519.5,-56.5 3422.5,-56.5"/>
<text text-anchor="middle" x="3471" y="-63.5" font-family="Helvetica,sans-Serif" font-size="10.00">yarp/os/Property.h</text>
</g>
<!-- Node1&#45;&gt;Node28 -->
<g id="edge27" class="edge"><title>Node1&#45;&gt;Node28</title>
<path fill="none" stroke="midnightblue" d="M2238.81,-136.945C2436.13,-133.715 2962.85,-121.295 3412.05,-75.9753"/>
<polygon fill="midnightblue" stroke="midnightblue" points="3412.72,-79.4255 3422.31,-74.9327 3412.01,-72.4614 3412.72,-79.4255"/>
</g>
<!-- Node29 -->
<g id="node29" class="node"><title>Node29</title>
<polygon fill="none" stroke="#bfbfbf" points="3537.5,-56.5 3537.5,-75.5 3638.5,-75.5 3638.5,-56.5 3537.5,-56.5"/>
<text text-anchor="middle" x="3588" y="-63.5" font-family="Helvetica,sans-Serif" font-size="10.00">yarp/os/Publisher.h</text>
</g>
<!-- Node1&#45;&gt;Node29 -->
<g id="edge28" class="edge"><title>Node1&#45;&gt;Node29</title>
<path fill="none" stroke="midnightblue" d="M2238.68,-137.274C2448.12,-134.746 3031.56,-123.712 3527.09,-75.9723"/>
<polygon fill="midnightblue" stroke="midnightblue" points="3527.69,-79.4303 3537.31,-74.9813 3527.02,-72.463 3527.69,-79.4303"/>
</g>
<!-- Node30 -->
<g id="node30" class="node"><title>Node30</title>
<polygon fill="none" stroke="#bfbfbf" points="3657,-56.5 3657,-75.5 3739,-75.5 3739,-56.5 3657,-56.5"/>
<text text-anchor="middle" x="3698" y="-63.5" font-family="Helvetica,sans-Serif" font-size="10.00">yarp/os/Time.h</text>
</g>
<!-- Node1&#45;&gt;Node30 -->
<g id="edge30" class="edge"><title>Node1&#45;&gt;Node30</title>
<path fill="none" stroke="midnightblue" d="M2238.72,-138.4C2460.49,-138.714 3103.47,-134.214 3646.87,-75.8238"/>
<polygon fill="midnightblue" stroke="midnightblue" points="3647.31,-79.2974 3656.87,-74.742 3646.55,-72.338 3647.31,-79.2974"/>
</g>
<!-- Node31 -->
<g id="node31" class="node"><title>Node31</title>
<polygon fill="none" stroke="#bfbfbf" points="3757,-56.5 3757,-75.5 3813,-75.5 3813,-56.5 3757,-56.5"/>
<text text-anchor="middle" x="3785" y="-63.5" font-family="Helvetica,sans-Serif" font-size="10.00">algorithm</text>
</g>
<!-- Node1&#45;&gt;Node31 -->
<g id="edge31" class="edge"><title>Node1&#45;&gt;Node31</title>
<path fill="none" stroke="midnightblue" d="M2238.71,-136.994C2515.03,-133.181 3431.69,-117.734 3746.78,-75.8399"/>
<polygon fill="midnightblue" stroke="midnightblue" points="3747.4,-79.2883 3756.83,-74.4658 3746.45,-72.3528 3747.4,-79.2883"/>
</g>
<!-- Node32 -->
<g id="node32" class="node"><title>Node32</title>
<polygon fill="none" stroke="#bfbfbf" points="3831,-56.5 3831,-75.5 3879,-75.5 3879,-56.5 3831,-56.5"/>
<text text-anchor="middle" x="3855" y="-63.5" font-family="Helvetica,sans-Serif" font-size="10.00">limits.h</text>
</g>
<!-- Node1&#45;&gt;Node32 -->
<g id="edge32" class="edge"><title>Node1&#45;&gt;Node32</title>
<path fill="none" stroke="midnightblue" d="M2238.89,-137.362C2526.76,-134.698 3510.25,-122.339 3821,-76 3821.1,-75.9848 3821.2,-75.9694 3821.31,-75.9538"/>
<polygon fill="midnightblue" stroke="midnightblue" points="3821.85,-79.4139 3830.99,-74.0592 3820.51,-72.5441 3821.85,-79.4139"/>
</g>
<!-- Node33 -->
<g id="node33" class="node"><title>Node33</title>
<polygon fill="none" stroke="#bfbfbf" points="3897,-56.5 3897,-75.5 3941,-75.5 3941,-56.5 3897,-56.5"/>
<text text-anchor="middle" x="3919" y="-63.5" font-family="Helvetica,sans-Serif" font-size="10.00">vector</text>
</g>
<!-- Node1&#45;&gt;Node33 -->
<g id="edge34" class="edge"><title>Node1&#45;&gt;Node33</title>
<path fill="none" stroke="midnightblue" d="M2238.57,-137.747C2530.64,-136.42 3543.94,-128.184 3886.85,-75.7218"/>
<polygon fill="midnightblue" stroke="midnightblue" points="3887.46,-79.1684 3896.8,-74.1568 3886.38,-72.2535 3887.46,-79.1684"/>
</g>
<!-- Node2&#45;&gt;Node3 -->
<g id="edge2" class="edge"><title>Node2&#45;&gt;Node3</title>
<path fill="none" stroke="midnightblue" d="M80.5566,-56.324C70.8538,-48.2631 56.1847,-36.0765 44.5003,-26.3695"/>
<polygon fill="midnightblue" stroke="midnightblue" points="46.5619,-23.532 36.6334,-19.8339 42.0887,-28.9163 46.5619,-23.532"/>
</g>
<!-- Node2&#45;&gt;Node4 -->
<g id="edge3" class="edge"><title>Node2&#45;&gt;Node4</title>
<path fill="none" stroke="midnightblue" d="M101.283,-56.324C110.836,-48.2631 125.28,-36.0765 136.784,-26.3695"/>
<polygon fill="midnightblue" stroke="midnightblue" points="139.144,-28.9577 144.53,-19.8339 134.63,-23.6076 139.144,-28.9577"/>
</g>
</g>
</svg>
