<?xml version="1.0" encoding="UTF-8" standalone="no"?>
<!DOCTYPE svg PUBLIC "-//W3C//DTD SVG 1.1//EN"
 "http://www.w3.org/Graphics/SVG/1.1/DTD/svg11.dtd">
<!-- Generated by graphviz version 2.36.0 (20140111.2315)
 -->
<!-- Title: /home/travis/build/robotology/human&#45;dynamics&#45;estimation/human&#45;forces&#45;provider/src/HumanForcesProvider.cpp Pages: 1 -->
<!--zoomable 298 -->
<svg id="main" version="1.1" xmlns="http://www.w3.org/2000/svg" xmlns:xlink="http://www.w3.org/1999/xlink" xml:space="preserve" onload="init(evt)">
<style type="text/css"><![CDATA[
.edge:hover path { stroke: red; }
.edge:hover polygon { stroke: red; fill: red; }
]]></style>
<script type="text/javascript"><![CDATA[
var edges = document.getElementsByTagName('g');
if (edges && edges.length) {
  for (var i=0;i<edges.length;i++) {
    if (edges[i].id.substr(0,4)=='edge') {
      edges[i].setAttribute('class','edge');
    }
  }
}
]]></script>
        <defs>
                <circle id="rim" cx="0" cy="0" r="7"/>
                <circle id="rim2" cx="0" cy="0" r="3.5"/>
                <g id="zoomPlus">
                        <use xlink:href="#rim" fill="#404040">
                                <set attributeName="fill" to="#808080" begin="zoomplus.mouseover" end="zoomplus.mouseout"/>
                        </use>
                        <path d="M-4,0h8M0,-4v8" fill="none" stroke="white" stroke-width="1.5" pointer-events="none"/>
                </g>
                <g id="zoomMin">
                        <use xlink:href="#rim" fill="#404040">
                                <set attributeName="fill" to="#808080" begin="zoomminus.mouseover" end="zoomminus.mouseout"/>
                        </use>
                        <path d="M-4,0h8" fill="none" stroke="white" stroke-width="1.5" pointer-events="none"/>
                </g>
                <g id="dirArrow">
                        <path fill="none" stroke="white" stroke-width="1.5" d="M0,-3.0v7 M-2.5,-0.5L0,-3.0L2.5,-0.5"/>
                </g>
               <g id="resetDef">
                       <use xlink:href="#rim2" fill="#404040">
                               <set attributeName="fill" to="#808080" begin="reset.mouseover" end="reset.mouseout"/>
                       </use>
               </g>
        </defs>

<script type="text/javascript">
var viewWidth = 3471;
var viewHeight = 298;
var sectionId = 'dynsection-0';
</script>
<script xlink:href="svgpan.js"/>
<svg id="graph" class="graph">
<g id="viewport">
<title>/home/travis/build/robotology/human&#45;dynamics&#45;estimation/human&#45;forces&#45;provider/src/HumanForcesProvider.cpp</title>
<!-- Node1 -->
<g id="node1" class="node"><title>Node1</title>
<polygon fill="#bfbfbf" stroke="black" points="1811,-237 1811,-289 2001,-289 2001,-237 1811,-237"/>
<text text-anchor="start" x="1819" y="-277" font-family="Helvetica,sans-Serif" font-size="10.00">/home/travis/build</text>
<text text-anchor="start" x="1819" y="-266" font-family="Helvetica,sans-Serif" font-size="10.00">/robotology/human&#45;dynamics</text>
<text text-anchor="start" x="1819" y="-255" font-family="Helvetica,sans-Serif" font-size="10.00">&#45;estimation/human&#45;forces</text>
<text text-anchor="middle" x="1906" y="-244" font-family="Helvetica,sans-Serif" font-size="10.00">&#45;provider/src/HumanForcesProvider.cpp</text>
</g>
<!-- Node2 -->
<g id="node2" class="node"><title>Node2</title>
<g id="a_node2"><a xlink:href="_human_forces_provider_8h.html" target="_top" xlink:title="HumanForcesProvider.h">
<polygon fill="none" stroke="black" points="1080,-180.5 1080,-199.5 1202,-199.5 1202,-180.5 1080,-180.5"/>
<text text-anchor="middle" x="1141" y="-187.5" font-family="Helvetica,sans-Serif" font-size="10.00">HumanForcesProvider.h</text>
</a>
</g>
</g>
<!-- Node1&#45;&gt;Node2 -->
<g id="edge1" class="edge"><title>Node1&#45;&gt;Node2</title>
<path fill="none" stroke="midnightblue" d="M1810.66,-253.151C1655.14,-238.718 1350.37,-210.432 1212.16,-197.605"/>
<polygon fill="midnightblue" stroke="midnightblue" points="1212.38,-194.11 1202.1,-196.671 1211.74,-201.08 1212.38,-194.11"/>
</g>
<!-- Node10 -->
<g id="node10" class="node"><title>Node10</title>
<g id="a_node10"><a xlink:href="_force_reader_8h.html" target="_top" xlink:title="ForceReader.h">
<polygon fill="none" stroke="black" points="1580.5,-56.5 1580.5,-75.5 1661.5,-75.5 1661.5,-56.5 1580.5,-56.5"/>
<text text-anchor="middle" x="1621" y="-63.5" font-family="Helvetica,sans-Serif" font-size="10.00">ForceReader.h</text>
</a>
</g>
</g>
<!-- Node1&#45;&gt;Node10 -->
<g id="edge9" class="edge"><title>Node1&#45;&gt;Node10</title>
<path fill="none" stroke="midnightblue" d="M1810.96,-257.627C1763.16,-250.778 1707.39,-235.065 1669,-200 1668.45,-199.494 1640.67,-121.998 1627.63,-85.549"/>
<polygon fill="midnightblue" stroke="midnightblue" points="1630.77,-83.9226 1624.1,-75.6856 1624.18,-86.2802 1630.77,-83.9226"/>
</g>
<!-- Node11 -->
<g id="node11" class="node"><title>Node11</title>
<g id="a_node11"><a xlink:href="_abstract_force_reader_8h.html" target="_top" xlink:title="AbstractForceReader.h">
<polygon fill="none" stroke="black" points="1510,-118.5 1510,-137.5 1628,-137.5 1628,-118.5 1510,-118.5"/>
<text text-anchor="middle" x="1569" y="-125.5" font-family="Helvetica,sans-Serif" font-size="10.00">AbstractForceReader.h</text>
</a>
</g>
</g>
<!-- Node1&#45;&gt;Node11 -->
<g id="edge10" class="edge"><title>Node1&#45;&gt;Node11</title>
<path fill="none" stroke="midnightblue" d="M1810.64,-260.371C1708.4,-256.368 1555.75,-243.107 1519,-200 1503.32,-181.611 1526.88,-158.417 1546.68,-143.643"/>
<polygon fill="midnightblue" stroke="midnightblue" points="1548.96,-146.32 1555.09,-137.68 1544.91,-140.611 1548.96,-146.32"/>
</g>
<!-- Node12 -->
<g id="node12" class="node"><title>Node12</title>
<g id="a_node12"><a xlink:href="_f_t_force_reader_8h.html" target="_top" xlink:title="FTForceReader.h">
<polygon fill="none" stroke="black" points="1528.5,-180.5 1528.5,-199.5 1621.5,-199.5 1621.5,-180.5 1528.5,-180.5"/>
<text text-anchor="middle" x="1575" y="-187.5" font-family="Helvetica,sans-Serif" font-size="10.00">FTForceReader.h</text>
</a>
</g>
</g>
<!-- Node1&#45;&gt;Node12 -->
<g id="edge13" class="edge"><title>Node1&#45;&gt;Node12</title>
<path fill="none" stroke="midnightblue" d="M1810.71,-241.559C1750.08,-228.555 1674.03,-212.243 1624.99,-201.722"/>
<polygon fill="midnightblue" stroke="midnightblue" points="1625.46,-198.243 1614.94,-199.568 1623.99,-205.088 1625.46,-198.243"/>
</g>
<!-- Node13 -->
<g id="node13" class="node"><title>Node13</title>
<g id="a_node13"><a xlink:href="_port_force_reader_8h.html" target="_top" xlink:title="PortForceReader.h">
<polygon fill="none" stroke="black" points="1372.5,-180.5 1372.5,-199.5 1471.5,-199.5 1471.5,-180.5 1372.5,-180.5"/>
<text text-anchor="middle" x="1422" y="-187.5" font-family="Helvetica,sans-Serif" font-size="10.00">PortForceReader.h</text>
</a>
</g>
</g>
<!-- Node1&#45;&gt;Node13 -->
<g id="edge15" class="edge"><title>Node1&#45;&gt;Node13</title>
<path fill="none" stroke="midnightblue" d="M1810.95,-248.057C1713.17,-233.713 1563.87,-211.812 1481.59,-199.742"/>
<polygon fill="midnightblue" stroke="midnightblue" points="1482.06,-196.273 1471.65,-198.284 1481.04,-203.198 1482.06,-196.273"/>
</g>
<!-- Node14 -->
<g id="node14" class="node"><title>Node14</title>
<g id="a_node14"><a xlink:href="_frame_transformer_8h.html" target="_top" xlink:title="FrameTransformer.h">
<polygon fill="none" stroke="black" points="-0.5,-56.5 -0.5,-75.5 104.5,-75.5 104.5,-56.5 -0.5,-56.5"/>
<text text-anchor="middle" x="52" y="-63.5" font-family="Helvetica,sans-Serif" font-size="10.00">FrameTransformer.h</text>
</a>
</g>
</g>
<!-- Node1&#45;&gt;Node14 -->
<g id="edge18" class="edge"><title>Node1&#45;&gt;Node14</title>
<path fill="none" stroke="midnightblue" d="M1810.81,-260.72C1470.92,-255.858 328.872,-236.919 169,-200 109.29,-186.211 76.3933,-195.384 43,-144 31.6896,-126.596 37.2725,-102.217 43.4997,-85.583"/>
<polygon fill="midnightblue" stroke="midnightblue" points="46.9091,-86.4991 47.5138,-75.9215 40.4448,-83.8133 46.9091,-86.4991"/>
</g>
<!-- Node16 -->
<g id="node16" class="node"><title>Node16</title>
<g id="a_node16"><a xlink:href="_generic_frame_transformer_8h.html" target="_top" xlink:title="GenericFrameTransformer.h">
<polygon fill="none" stroke="black" points="52.5,-118.5 52.5,-137.5 191.5,-137.5 191.5,-118.5 52.5,-118.5"/>
<text text-anchor="middle" x="122" y="-125.5" font-family="Helvetica,sans-Serif" font-size="10.00">GenericFrameTransformer.h</text>
</a>
</g>
</g>
<!-- Node1&#45;&gt;Node16 -->
<g id="edge20" class="edge"><title>Node1&#45;&gt;Node16</title>
<path fill="none" stroke="midnightblue" d="M1810.93,-262.146C1474.95,-262.167 355.559,-257.852 206,-200 176.882,-188.737 150.694,-162.9 135.571,-145.699"/>
<polygon fill="midnightblue" stroke="midnightblue" points="137.851,-142.976 128.714,-137.614 132.513,-147.504 137.851,-142.976"/>
</g>
<!-- Node17 -->
<g id="node17" class="node"><title>Node17</title>
<polygon fill="none" stroke="#bfbfbf" points="152,-56.5 152,-75.5 288,-75.5 288,-56.5 152,-56.5"/>
<text text-anchor="middle" x="220" y="-63.5" font-family="Helvetica,sans-Serif" font-size="10.00">iDynTree/Core/Transform.h</text>
</g>
<!-- Node1&#45;&gt;Node17 -->
<g id="edge41" class="edge"><title>Node1&#45;&gt;Node17</title>
<path fill="none" stroke="midnightblue" d="M1810.68,-260.343C1533.33,-255.132 729.995,-237.169 470,-200 366.705,-185.233 317.152,-216.389 242,-144 226.229,-128.809 221.537,-103.165 220.26,-85.6792"/>
<polygon fill="midnightblue" stroke="midnightblue" points="223.752,-85.4024 219.833,-75.559 216.758,-85.6979 223.752,-85.4024"/>
</g>
<!-- Node18 -->
<g id="node18" class="node"><title>Node18</title>
<g id="a_node18"><a xlink:href="_robot_frame_transformer_8h.html" target="_top" xlink:title="RobotFrameTransformer.h">
<polygon fill="none" stroke="black" points="479.5,-180.5 479.5,-199.5 610.5,-199.5 610.5,-180.5 479.5,-180.5"/>
<text text-anchor="middle" x="545" y="-187.5" font-family="Helvetica,sans-Serif" font-size="10.00">RobotFrameTransformer.h</text>
</a>
</g>
</g>
<!-- Node1&#45;&gt;Node18 -->
<g id="edge23" class="edge"><title>Node1&#45;&gt;Node18</title>
<path fill="none" stroke="midnightblue" d="M1810.84,-257.036C1554.5,-243.663 853.259,-207.081 620.91,-194.96"/>
<polygon fill="midnightblue" stroke="midnightblue" points="621.03,-191.462 610.861,-194.436 620.665,-198.452 621.03,-191.462"/>
</g>
<!-- Node20 -->
<g id="node20" class="node"><title>Node20</title>
<polygon fill="none" stroke="#bfbfbf" points="466,-118.5 466,-137.5 624,-137.5 624,-118.5 466,-118.5"/>
<text text-anchor="middle" x="545" y="-125.5" font-family="Helvetica,sans-Serif" font-size="10.00">iDynTree/Core/VectorDynSize.h</text>
</g>
<!-- Node1&#45;&gt;Node20 -->
<g id="edge40" class="edge"><title>Node1&#45;&gt;Node20</title>
<path fill="none" stroke="midnightblue" d="M1810.69,-256.564C1655.48,-247.344 1338.57,-226.98 1071,-200 875.3,-180.266 826.518,-173.161 632,-144 622.438,-142.566 612.305,-140.929 602.464,-139.274"/>
<polygon fill="midnightblue" stroke="midnightblue" points="602.795,-135.78 592.35,-137.552 601.62,-142.681 602.795,-135.78"/>
</g>
<!-- Node21 -->
<g id="node21" class="node"><title>Node21</title>
<polygon fill="none" stroke="#bfbfbf" points="1678.5,-180.5 1678.5,-199.5 1785.5,-199.5 1785.5,-180.5 1678.5,-180.5"/>
<text text-anchor="middle" x="1732" y="-187.5" font-family="Helvetica,sans-Serif" font-size="10.00">yarp/os/LogStream.h</text>
</g>
<!-- Node1&#45;&gt;Node21 -->
<g id="edge30" class="edge"><title>Node1&#45;&gt;Node21</title>
<path fill="none" stroke="midnightblue" d="M1844.65,-236.968C1816.87,-225.63 1785.25,-212.728 1762.6,-203.485"/>
<polygon fill="midnightblue" stroke="midnightblue" points="1763.75,-200.176 1753.17,-199.639 1761.11,-206.658 1763.75,-200.176"/>
</g>
<!-- Node22 -->
<g id="node22" class="node"><title>Node22</title>
<polygon fill="none" stroke="#bfbfbf" points="1803.5,-180.5 1803.5,-199.5 1900.5,-199.5 1900.5,-180.5 1803.5,-180.5"/>
<text text-anchor="middle" x="1852" y="-187.5" font-family="Helvetica,sans-Serif" font-size="10.00">yarp/os/Network.h</text>
</g>
<!-- Node1&#45;&gt;Node22 -->
<g id="edge31" class="edge"><title>Node1&#45;&gt;Node22</title>
<path fill="none" stroke="midnightblue" d="M1886.81,-236.768C1879.52,-227.183 1871.4,-216.506 1864.84,-207.877"/>
<polygon fill="midnightblue" stroke="midnightblue" points="1867.5,-205.598 1858.66,-199.757 1861.93,-209.835 1867.5,-205.598"/>
</g>
<!-- Node23 -->
<g id="node23" class="node"><title>Node23</title>
<polygon fill="none" stroke="#bfbfbf" points="1918.5,-180.5 1918.5,-199.5 2001.5,-199.5 2001.5,-180.5 1918.5,-180.5"/>
<text text-anchor="middle" x="1960" y="-187.5" font-family="Helvetica,sans-Serif" font-size="10.00">yarp/os/Node.h</text>
</g>
<!-- Node1&#45;&gt;Node23 -->
<g id="edge32" class="edge"><title>Node1&#45;&gt;Node23</title>
<path fill="none" stroke="midnightblue" d="M1925.19,-236.768C1932.48,-227.183 1940.6,-216.506 1947.16,-207.877"/>
<polygon fill="midnightblue" stroke="midnightblue" points="1950.07,-209.835 1953.34,-199.757 1944.5,-205.598 1950.07,-209.835"/>
</g>
<!-- Node24 -->
<g id="node24" class="node"><title>Node24</title>
<polygon fill="none" stroke="#bfbfbf" points="2019.5,-180.5 2019.5,-199.5 2116.5,-199.5 2116.5,-180.5 2019.5,-180.5"/>
<text text-anchor="middle" x="2068" y="-187.5" font-family="Helvetica,sans-Serif" font-size="10.00">yarp/os/Property.h</text>
</g>
<!-- Node1&#45;&gt;Node24 -->
<g id="edge33" class="edge"><title>Node1&#45;&gt;Node24</title>
<path fill="none" stroke="midnightblue" d="M1963.12,-236.968C1988.75,-225.732 2017.89,-212.96 2038.94,-203.735"/>
<polygon fill="midnightblue" stroke="midnightblue" points="2040.53,-206.859 2048.29,-199.639 2037.72,-200.447 2040.53,-206.859"/>
</g>
<!-- Node25 -->
<g id="node25" class="node"><title>Node25</title>
<polygon fill="none" stroke="#bfbfbf" points="2134.5,-180.5 2134.5,-199.5 2235.5,-199.5 2235.5,-180.5 2134.5,-180.5"/>
<text text-anchor="middle" x="2185" y="-187.5" font-family="Helvetica,sans-Serif" font-size="10.00">yarp/os/Publisher.h</text>
</g>
<!-- Node1&#45;&gt;Node25 -->
<g id="edge34" class="edge"><title>Node1&#45;&gt;Node25</title>
<path fill="none" stroke="midnightblue" d="M2001.24,-237.764C2048.85,-225.647 2104.15,-211.576 2141.54,-202.059"/>
<polygon fill="midnightblue" stroke="midnightblue" points="2142.77,-205.359 2151.6,-199.501 2141.04,-198.575 2142.77,-205.359"/>
</g>
<!-- Node26 -->
<g id="node26" class="node"><title>Node26</title>
<polygon fill="none" stroke="#bfbfbf" points="2254,-180.5 2254,-199.5 2336,-199.5 2336,-180.5 2254,-180.5"/>
<text text-anchor="middle" x="2295" y="-187.5" font-family="Helvetica,sans-Serif" font-size="10.00">yarp/os/Time.h</text>
</g>
<!-- Node1&#45;&gt;Node26 -->
<g id="edge35" class="edge"><title>Node1&#45;&gt;Node26</title>
<path fill="none" stroke="midnightblue" d="M2001.16,-244.631C2077.76,-230.651 2182.45,-211.542 2243.98,-200.312"/>
<polygon fill="midnightblue" stroke="midnightblue" points="2244.64,-203.75 2253.85,-198.512 2243.38,-196.864 2244.64,-203.75"/>
</g>
<!-- Node27 -->
<g id="node27" class="node"><title>Node27</title>
<polygon fill="none" stroke="#bfbfbf" points="2354.5,-180.5 2354.5,-199.5 2483.5,-199.5 2483.5,-180.5 2354.5,-180.5"/>
<text text-anchor="middle" x="2419" y="-187.5" font-family="Helvetica,sans-Serif" font-size="10.00">yarp/dev/IAnalogSensor.h</text>
</g>
<!-- Node1&#45;&gt;Node27 -->
<g id="edge36" class="edge"><title>Node1&#45;&gt;Node27</title>
<path fill="none" stroke="midnightblue" d="M2001.29,-248.812C2101.45,-234.949 2256.77,-213.453 2347.11,-200.95"/>
<polygon fill="midnightblue" stroke="midnightblue" points="2347.83,-204.383 2357.26,-199.545 2346.87,-197.449 2347.83,-204.383"/>
</g>
<!-- Node28 -->
<g id="node28" class="node"><title>Node28</title>
<polygon fill="none" stroke="#bfbfbf" points="2502,-180.5 2502,-199.5 2612,-199.5 2612,-180.5 2502,-180.5"/>
<text text-anchor="middle" x="2557" y="-187.5" font-family="Helvetica,sans-Serif" font-size="10.00">yarp/dev/IEncoders.h</text>
</g>
<!-- Node1&#45;&gt;Node28 -->
<g id="edge37" class="edge"><title>Node1&#45;&gt;Node28</title>
<path fill="none" stroke="midnightblue" d="M2001.01,-252.897C2114.85,-241.773 2311.64,-221.866 2491.51,-200.022"/>
<polygon fill="midnightblue" stroke="midnightblue" points="2492.19,-203.465 2501.7,-198.781 2491.35,-196.516 2492.19,-203.465"/>
</g>
<!-- Node29 -->
<g id="node29" class="node"><title>Node29</title>
<polygon fill="none" stroke="#bfbfbf" points="2630,-180.5 2630,-199.5 2796,-199.5 2796,-180.5 2630,-180.5"/>
<text text-anchor="middle" x="2713" y="-187.5" font-family="Helvetica,sans-Serif" font-size="10.00">yarp/dev/ControlBoardInterfaces.h</text>
</g>
<!-- Node1&#45;&gt;Node29 -->
<g id="edge38" class="edge"><title>Node1&#45;&gt;Node29</title>
<path fill="none" stroke="midnightblue" d="M2001.16,-254.084C2136.19,-242.776 2391.45,-221.123 2619.6,-200.121"/>
<polygon fill="midnightblue" stroke="midnightblue" points="2620.12,-203.588 2629.76,-199.185 2619.48,-196.617 2620.12,-203.588"/>
</g>
<!-- Node30 -->
<g id="node30" class="node"><title>Node30</title>
<polygon fill="none" stroke="#bfbfbf" points="2814,-180.5 2814,-199.5 2966,-199.5 2966,-180.5 2814,-180.5"/>
<text text-anchor="middle" x="2890" y="-187.5" font-family="Helvetica,sans-Serif" font-size="10.00">iDynTree/Core/MatrixFixSize.h</text>
</g>
<!-- Node1&#45;&gt;Node30 -->
<g id="edge39" class="edge"><title>Node1&#45;&gt;Node30</title>
<path fill="none" stroke="midnightblue" d="M2001.23,-256.582C2163.59,-247.091 2504.62,-226.052 2803.39,-200.113"/>
<polygon fill="midnightblue" stroke="midnightblue" points="2803.9,-203.583 2813.56,-199.227 2803.29,-196.609 2803.9,-203.583"/>
</g>
<!-- Node31 -->
<g id="node31" class="node"><title>Node31</title>
<polygon fill="none" stroke="#bfbfbf" points="2984.5,-180.5 2984.5,-199.5 3147.5,-199.5 3147.5,-180.5 2984.5,-180.5"/>
<text text-anchor="middle" x="3066" y="-187.5" font-family="Helvetica,sans-Serif" font-size="10.00">iDynTree/ModelIO/ModelLoader.h</text>
</g>
<!-- Node1&#45;&gt;Node31 -->
<g id="edge42" class="edge"><title>Node1&#45;&gt;Node31</title>
<path fill="none" stroke="midnightblue" d="M2001.19,-257.78C2186.36,-249.285 2608.21,-228.537 2974.17,-200.034"/>
<polygon fill="midnightblue" stroke="midnightblue" points="2974.46,-203.521 2984.16,-199.252 2973.92,-196.543 2974.46,-203.521"/>
</g>
<!-- Node32 -->
<g id="node32" class="node"><title>Node32</title>
<polygon fill="none" stroke="#bfbfbf" points="3166,-180.5 3166,-199.5 3316,-199.5 3316,-180.5 3166,-180.5"/>
<text text-anchor="middle" x="3241" y="-187.5" font-family="Helvetica,sans-Serif" font-size="10.00">iDynTree/Core/EigenHelpers.h</text>
</g>
<!-- Node1&#45;&gt;Node32 -->
<g id="edge43" class="edge"><title>Node1&#45;&gt;Node32</title>
<path fill="none" stroke="midnightblue" d="M2001.38,-259.09C2209.06,-252.357 2717.94,-233.709 3155.93,-199.953"/>
<polygon fill="midnightblue" stroke="midnightblue" points="3156.23,-203.44 3165.93,-199.178 3155.69,-196.461 3156.23,-203.44"/>
</g>
<!-- Node33 -->
<g id="node33" class="node"><title>Node33</title>
<polygon fill="none" stroke="#bfbfbf" points="3333.5,-180.5 3333.5,-199.5 3398.5,-199.5 3398.5,-180.5 3333.5,-180.5"/>
<text text-anchor="middle" x="3366" y="-187.5" font-family="Helvetica,sans-Serif" font-size="10.00">TickTime.h</text>
</g>
<!-- Node1&#45;&gt;Node33 -->
<g id="edge44" class="edge"><title>Node1&#45;&gt;Node33</title>
<path fill="none" stroke="midnightblue" d="M2001.06,-259.921C2272.35,-253.661 3047.81,-233.414 3323.1,-199.851"/>
<polygon fill="midnightblue" stroke="midnightblue" points="3323.59,-203.317 3333.07,-198.6 3322.72,-196.371 3323.59,-203.317"/>
</g>
<!-- Node34 -->
<g id="node34" class="node"><title>Node34</title>
<polygon fill="none" stroke="#bfbfbf" points="3416.5,-180.5 3416.5,-199.5 3463.5,-199.5 3463.5,-180.5 3416.5,-180.5"/>
<text text-anchor="middle" x="3440" y="-187.5" font-family="Helvetica,sans-Serif" font-size="10.00">iterator</text>
</g>
<!-- Node1&#45;&gt;Node34 -->
<g id="edge45" class="edge"><title>Node1&#45;&gt;Node34</title>
<path fill="none" stroke="midnightblue" d="M2001.08,-260.867C2283.37,-257.067 3114.5,-242.613 3406.2,-199.675"/>
<polygon fill="midnightblue" stroke="midnightblue" points="3406.98,-203.096 3416.34,-198.136 3405.93,-196.175 3406.98,-203.096"/>
</g>
<!-- Node3 -->
<g id="node3" class="node"><title>Node3</title>
<polygon fill="none" stroke="#bfbfbf" points="1048.5,-118.5 1048.5,-137.5 1153.5,-137.5 1153.5,-118.5 1048.5,-118.5"/>
<text text-anchor="middle" x="1101" y="-125.5" font-family="Helvetica,sans-Serif" font-size="10.00">yarp/os/RFModule.h</text>
</g>
<!-- Node2&#45;&gt;Node3 -->
<g id="edge2" class="edge"><title>Node2&#45;&gt;Node3</title>
<path fill="none" stroke="midnightblue" d="M1135.27,-180.403C1129.33,-171.493 1119.88,-157.325 1112.41,-146.118"/>
<polygon fill="midnightblue" stroke="midnightblue" points="1115.18,-143.96 1106.72,-137.581 1109.36,-147.843 1115.18,-143.96"/>
</g>
<!-- Node4 -->
<g id="node4" class="node"><title>Node4</title>
<polygon fill="none" stroke="#bfbfbf" points="641.5,-118.5 641.5,-137.5 756.5,-137.5 756.5,-118.5 641.5,-118.5"/>
<text text-anchor="middle" x="699" y="-125.5" font-family="Helvetica,sans-Serif" font-size="10.00">yarp/os/BufferedPort.h</text>
</g>
<!-- Node2&#45;&gt;Node4 -->
<g id="edge3" class="edge"><title>Node2&#45;&gt;Node4</title>
<path fill="none" stroke="midnightblue" d="M1079.82,-183.658C1005.18,-176.684 875.29,-163.079 765,-144 758.076,-142.802 750.786,-141.346 743.679,-139.816"/>
<polygon fill="midnightblue" stroke="midnightblue" points="743.981,-136.298 733.459,-137.546 742.462,-143.132 743.981,-136.298"/>
</g>
<!-- Node5 -->
<g id="node5" class="node"><title>Node5</title>
<polygon fill="none" stroke="#bfbfbf" points="1210.5,-118.5 1210.5,-137.5 1321.5,-137.5 1321.5,-118.5 1210.5,-118.5"/>
<text text-anchor="middle" x="1266" y="-125.5" font-family="Helvetica,sans-Serif" font-size="10.00">yarp/dev/PolyDriver.h</text>
</g>
<!-- Node2&#45;&gt;Node5 -->
<g id="edge4" class="edge"><title>Node2&#45;&gt;Node5</title>
<path fill="none" stroke="midnightblue" d="M1158.91,-180.403C1179.89,-170.334 1214.85,-153.552 1239.09,-141.915"/>
<polygon fill="midnightblue" stroke="midnightblue" points="1240.62,-145.063 1248.12,-137.581 1237.59,-138.753 1240.62,-145.063"/>
</g>
<!-- Node6 -->
<g id="node6" class="node"><title>Node6</title>
<polygon fill="none" stroke="#bfbfbf" points="1436.5,-56.5 1436.5,-75.5 1527.5,-75.5 1527.5,-56.5 1436.5,-56.5"/>
<text text-anchor="middle" x="1482" y="-63.5" font-family="Helvetica,sans-Serif" font-size="10.00">yarp/sig/Vector.h</text>
</g>
<!-- Node2&#45;&gt;Node6 -->
<g id="edge5" class="edge"><title>Node2&#45;&gt;Node6</title>
<path fill="none" stroke="midnightblue" d="M1145.12,-180.073C1153.24,-163.591 1172.99,-128.557 1201,-112 1238.14,-90.0458 1355.41,-77.1019 1426.17,-71.0928"/>
<polygon fill="midnightblue" stroke="midnightblue" points="1426.58,-74.5708 1436.26,-70.2563 1426.01,-67.5947 1426.58,-74.5708"/>
</g>
<!-- Node7 -->
<g id="node7" class="node"><title>Node7</title>
<polygon fill="none" stroke="#bfbfbf" points="1340,-118.5 1340,-137.5 1454,-137.5 1454,-118.5 1340,-118.5"/>
<text text-anchor="middle" x="1397" y="-125.5" font-family="Helvetica,sans-Serif" font-size="10.00">thrifts/HumanForces.h</text>
</g>
<!-- Node2&#45;&gt;Node7 -->
<g id="edge6" class="edge"><title>Node2&#45;&gt;Node7</title>
<path fill="none" stroke="midnightblue" d="M1177.41,-180.467C1222.99,-169.783 1301.13,-151.469 1350.86,-139.813"/>
<polygon fill="midnightblue" stroke="midnightblue" points="1351.78,-143.193 1360.72,-137.503 1350.18,-136.378 1351.78,-143.193"/>
</g>
<!-- Node8 -->
<g id="node8" class="node"><title>Node8</title>
<polygon fill="none" stroke="#bfbfbf" points="774.5,-118.5 774.5,-137.5 881.5,-137.5 881.5,-118.5 774.5,-118.5"/>
<text text-anchor="middle" x="828" y="-125.5" font-family="Helvetica,sans-Serif" font-size="10.00">thrifts/HumanState.h</text>
</g>
<!-- Node2&#45;&gt;Node8 -->
<g id="edge7" class="edge"><title>Node2&#45;&gt;Node8</title>
<path fill="none" stroke="midnightblue" d="M1088.64,-180.448C1037.95,-171.962 958.991,-158.202 891,-144 884.861,-142.718 878.406,-141.282 872.064,-139.821"/>
<polygon fill="midnightblue" stroke="midnightblue" points="872.789,-136.396 862.254,-137.522 871.192,-143.211 872.789,-136.396"/>
</g>
<!-- Node9 -->
<g id="node9" class="node"><title>Node9</title>
<polygon fill="none" stroke="#bfbfbf" points="900,-113 900,-143 1030,-143 1030,-113 900,-113"/>
<text text-anchor="start" x="908" y="-131" font-family="Helvetica,sans-Serif" font-size="10.00">yarp/rosmsg/geometry</text>
<text text-anchor="middle" x="965" y="-120" font-family="Helvetica,sans-Serif" font-size="10.00">_msgs/WrenchStamped.h</text>
</g>
<!-- Node2&#45;&gt;Node9 -->
<g id="edge8" class="edge"><title>Node2&#45;&gt;Node9</title>
<path fill="none" stroke="midnightblue" d="M1115.78,-180.403C1089.86,-171.564 1048.76,-157.553 1016.01,-146.39"/>
<polygon fill="midnightblue" stroke="midnightblue" points="1016.74,-142.939 1006.14,-143.025 1014.48,-149.565 1016.74,-142.939"/>
</g>
<!-- Node11&#45;&gt;Node6 -->
<g id="edge12" class="edge"><title>Node11&#45;&gt;Node6</title>
<path fill="none" stroke="midnightblue" d="M1556.54,-118.403C1542.58,-108.78 1519.74,-93.0242 1503.01,-81.4891"/>
<polygon fill="midnightblue" stroke="midnightblue" points="1504.66,-78.3767 1494.44,-75.5806 1500.69,-84.1392 1504.66,-78.3767"/>
</g>
<!-- Node11&#45;&gt;Node10 -->
<g id="edge11" class="edge"><title>Node11&#45;&gt;Node10</title>
<path fill="none" stroke="midnightblue" d="M1576.45,-118.403C1584.33,-109.314 1596.94,-94.7559 1606.74,-83.4489"/>
<polygon fill="midnightblue" stroke="midnightblue" points="1609.66,-85.4298 1613.56,-75.5806 1604.37,-80.8452 1609.66,-85.4298"/>
</g>
<!-- Node12&#45;&gt;Node11 -->
<g id="edge14" class="edge"><title>Node12&#45;&gt;Node11</title>
<path fill="none" stroke="midnightblue" d="M1574.14,-180.403C1573.29,-171.938 1571.97,-158.728 1570.88,-147.82"/>
<polygon fill="midnightblue" stroke="midnightblue" points="1574.34,-147.183 1569.86,-137.581 1567.37,-147.879 1574.34,-147.183"/>
</g>
<!-- Node13&#45;&gt;Node6 -->
<g id="edge17" class="edge"><title>Node13&#45;&gt;Node6</title>
<path fill="none" stroke="midnightblue" d="M1432.33,-180.423C1441.71,-172.073 1455.23,-158.544 1463,-144 1472.81,-125.625 1477.66,-102.078 1479.99,-85.8881"/>
<polygon fill="midnightblue" stroke="midnightblue" points="1483.51,-85.9347 1481.27,-75.579 1476.56,-85.0701 1483.51,-85.9347"/>
</g>
<!-- Node13&#45;&gt;Node11 -->
<g id="edge16" class="edge"><title>Node13&#45;&gt;Node11</title>
<path fill="none" stroke="midnightblue" d="M1443.06,-180.403C1468.06,-170.2 1509.94,-153.105 1538.49,-141.454"/>
<polygon fill="midnightblue" stroke="midnightblue" points="1540.04,-144.6 1547.98,-137.581 1537.4,-138.119 1540.04,-144.6"/>
</g>
<!-- Node15 -->
<g id="node15" class="node"><title>Node15</title>
<polygon fill="none" stroke="#bfbfbf" points="31.5,-0.5 31.5,-19.5 72.5,-19.5 72.5,-0.5 31.5,-0.5"/>
<text text-anchor="middle" x="52" y="-7.5" font-family="Helvetica,sans-Serif" font-size="10.00">string</text>
</g>
<!-- Node14&#45;&gt;Node15 -->
<g id="edge19" class="edge"><title>Node14&#45;&gt;Node15</title>
<path fill="none" stroke="midnightblue" d="M52,-56.083C52,-49.0059 52,-38.8611 52,-29.9865"/>
<polygon fill="midnightblue" stroke="midnightblue" points="55.5001,-29.751 52,-19.7511 48.5001,-29.7511 55.5001,-29.751"/>
</g>
<!-- Node16&#45;&gt;Node14 -->
<g id="edge21" class="edge"><title>Node16&#45;&gt;Node14</title>
<path fill="none" stroke="midnightblue" d="M111.971,-118.403C100.951,-108.958 83.0399,-93.6056 69.6565,-82.1342"/>
<polygon fill="midnightblue" stroke="midnightblue" points="71.8811,-79.4311 62.0107,-75.5806 67.3255,-84.7459 71.8811,-79.4311"/>
</g>
<!-- Node16&#45;&gt;Node17 -->
<g id="edge22" class="edge"><title>Node16&#45;&gt;Node17</title>
<path fill="none" stroke="midnightblue" d="M136.041,-118.403C152.051,-108.601 178.45,-92.4385 197.374,-80.8526"/>
<polygon fill="midnightblue" stroke="midnightblue" points="199.284,-83.7872 205.985,-75.5806 195.629,-77.8172 199.284,-83.7872"/>
</g>
<!-- Node18&#45;&gt;Node4 -->
<g id="edge25" class="edge"><title>Node18&#45;&gt;Node4</title>
<path fill="none" stroke="midnightblue" d="M567.064,-180.403C593.367,-170.156 637.513,-152.956 667.425,-141.302"/>
<polygon fill="midnightblue" stroke="midnightblue" points="668.929,-144.472 676.976,-137.581 666.388,-137.95 668.929,-144.472"/>
</g>
<!-- Node18&#45;&gt;Node8 -->
<g id="edge29" class="edge"><title>Node18&#45;&gt;Node8</title>
<path fill="none" stroke="midnightblue" d="M588.916,-180.447C633.385,-171.685 704.097,-157.476 765,-144 770.837,-142.708 776.967,-141.306 783.017,-139.895"/>
<polygon fill="midnightblue" stroke="midnightblue" points="784.125,-143.23 793.056,-137.53 782.52,-136.417 784.125,-143.23"/>
</g>
<!-- Node18&#45;&gt;Node16 -->
<g id="edge24" class="edge"><title>Node18&#45;&gt;Node16</title>
<path fill="none" stroke="midnightblue" d="M484.844,-180.467C407.551,-169.504 273.629,-150.508 191.896,-138.914"/>
<polygon fill="midnightblue" stroke="midnightblue" points="192.341,-135.443 181.949,-137.503 191.358,-142.373 192.341,-135.443"/>
</g>
<!-- Node18&#45;&gt;Node17 -->
<g id="edge26" class="edge"><title>Node18&#45;&gt;Node17</title>
<path fill="none" stroke="midnightblue" d="M479.442,-183.636C411.308,-177.079 310.083,-164.281 277,-144 254.135,-129.983 237.46,-103.074 228.248,-85.0754"/>
<polygon fill="midnightblue" stroke="midnightblue" points="231.313,-83.3737 223.802,-75.9018 225.014,-86.4271 231.313,-83.3737"/>
</g>
<!-- Node19 -->
<g id="node19" class="node"><title>Node19</title>
<polygon fill="none" stroke="#bfbfbf" points="286.5,-118.5 286.5,-137.5 447.5,-137.5 447.5,-118.5 286.5,-118.5"/>
<text text-anchor="middle" x="367" y="-125.5" font-family="Helvetica,sans-Serif" font-size="10.00">iDynTree/KinDynComputations.h</text>
</g>
<!-- Node18&#45;&gt;Node19 -->
<g id="edge27" class="edge"><title>Node18&#45;&gt;Node19</title>
<path fill="none" stroke="midnightblue" d="M519.497,-180.403C488.699,-170.022 436.735,-152.506 402.152,-140.849"/>
<polygon fill="midnightblue" stroke="midnightblue" points="403.05,-137.458 392.456,-137.581 400.814,-144.092 403.05,-137.458"/>
</g>
<!-- Node18&#45;&gt;Node20 -->
<g id="edge28" class="edge"><title>Node18&#45;&gt;Node20</title>
<path fill="none" stroke="midnightblue" d="M545,-180.403C545,-171.938 545,-158.728 545,-147.82"/>
<polygon fill="midnightblue" stroke="midnightblue" points="548.5,-147.581 545,-137.581 541.5,-147.581 548.5,-147.581"/>
</g>
</g>
</svg>
        <g id="navigator" transform="translate(0 0)" fill="#404254">
                <rect fill="#f2f5e9" fill-opacity="0.5" stroke="#606060" stroke-width=".5" x="0" y="0" width="60" height="60"/>
                <use id="zoomplus" xlink:href="#zoomPlus" x="17" y="9" onmousedown="handleZoom(evt,'in')"/>
                <use id="zoomminus" xlink:href="#zoomMin" x="42" y="9" onmousedown="handleZoom(evt,'out')"/>
                <use id="reset" xlink:href="#resetDef" x="30" y="36" onmousedown="handleReset()"/>
                <g id="arrowUp" xlink:href="#dirArrow" transform="translate(30 24)" onmousedown="handlePan(0,-1)">
                  <use xlink:href="#rim" fill="#404040">
                        <set attributeName="fill" to="#808080" begin="arrowUp.mouseover" end="arrowUp.mouseout"/>
                  </use>
                  <path fill="none" stroke="white" stroke-width="1.5" d="M0,-3.0v7 M-2.5,-0.5L0,-3.0L2.5,-0.5"/>
                </g>
                <g id="arrowRight" xlink:href="#dirArrow" transform="rotate(90) translate(36 -43)" onmousedown="handlePan(1,0)">
                  <use xlink:href="#rim" fill="#404040">
                        <set attributeName="fill" to="#808080" begin="arrowRight.mouseover" end="arrowRight.mouseout"/>
                  </use>
                  <path fill="none" stroke="white" stroke-width="1.5" d="M0,-3.0v7 M-2.5,-0.5L0,-3.0L2.5,-0.5"/>
                </g>
                <g id="arrowDown" xlink:href="#dirArrow" transform="rotate(180) translate(-30 -48)" onmousedown="handlePan(0,1)">
                  <use xlink:href="#rim" fill="#404040">
                        <set attributeName="fill" to="#808080" begin="arrowDown.mouseover" end="arrowDown.mouseout"/>
                  </use>
                  <path fill="none" stroke="white" stroke-width="1.5" d="M0,-3.0v7 M-2.5,-0.5L0,-3.0L2.5,-0.5"/>
                </g>
                <g id="arrowLeft" xlink:href="#dirArrow" transform="rotate(270) translate(-36 17)" onmousedown="handlePan(-1,0)">
                  <use xlink:href="#rim" fill="#404040">
                        <set attributeName="fill" to="#808080" begin="arrowLeft.mouseover" end="arrowLeft.mouseout"/>
                  </use>
                  <path fill="none" stroke="white" stroke-width="1.5" d="M0,-3.0v7 M-2.5,-0.5L0,-3.0L2.5,-0.5"/>
                </g>
        </g>
        <svg viewBox="0 0 15 15" width="100%" height="30px" preserveAspectRatio="xMaxYMin meet">
         <g id="arrow_out" transform="scale(0.3 0.3)">
          <a xlink:href="_human_forces_provider_8cpp__incl_org.svg" target="_base">
           <rect id="button" ry="5" rx="5" y="6" x="6" height="38" width="38"
                fill="#f2f5e9" fill-opacity="0.5" stroke="#606060" stroke-width="1.0"/>
           <path id="arrow"
             d="M 11.500037,31.436501 C 11.940474,20.09759 22.043105,11.32322 32.158766,21.979434 L 37.068811,17.246167 C 37.068811,17.246167 37.088388,32 37.088388,32 L 22.160133,31.978069 C 22.160133,31.978069 26.997745,27.140456 26.997745,27.140456 C 18.528582,18.264221 13.291696,25.230495 11.500037,31.436501 z"
             style="fill:#404040;"/>
          </a>
         </g>
        </svg>
</svg>
