<?xml version="1.0" encoding="UTF-8" standalone="no"?>
<!DOCTYPE svg PUBLIC "-//W3C//DTD SVG 1.1//EN"
 "http://www.w3.org/Graphics/SVG/1.1/DTD/svg11.dtd">
<!-- Generated by graphviz version 2.36.0 (20140111.2315)
 -->
<!-- Title: /home/travis/build/robotology/human&#45;dynamics&#45;estimation/human&#45;robot&#45;pose/include/HumanRobotPose.h Pages: 1 -->
<svg width="192pt" height="118pt"
 viewBox="0.00 0.00 192.00 118.00" xmlns="http://www.w3.org/2000/svg" xmlns:xlink="http://www.w3.org/1999/xlink">
<g id="graph0" class="graph" transform="scale(1 1) rotate(0) translate(4 114)">
<title>/home/travis/build/robotology/human&#45;dynamics&#45;estimation/human&#45;robot&#45;pose/include/HumanRobotPose.h</title>
<!-- Node1 -->
<g id="node1" class="node"><title>Node1</title>
<polygon fill="#bfbfbf" stroke="black" points="0,-57 0,-109 166,-109 166,-57 0,-57"/>
<text text-anchor="start" x="8" y="-97" font-family="Helvetica,sans-Serif" font-size="10.00">/home/travis/build</text>
<text text-anchor="start" x="8" y="-86" font-family="Helvetica,sans-Serif" font-size="10.00">/robotology/human&#45;dynamics</text>
<text text-anchor="start" x="8" y="-75" font-family="Helvetica,sans-Serif" font-size="10.00">&#45;estimation/human&#45;robot</text>
<text text-anchor="middle" x="83" y="-64" font-family="Helvetica,sans-Serif" font-size="10.00">&#45;pose/include/HumanRobotPose.h</text>
</g>
<!-- Node2 -->
<g id="node2" class="node"><title>Node2</title>
<polygon fill="none" stroke="#bfbfbf" points="9,-0.5 9,-19.5 61,-19.5 61,-0.5 9,-0.5"/>
<text text-anchor="middle" x="35" y="-7.5" font-family="Helvetica,sans-Serif" font-size="10.00">memory</text>
</g>
<!-- Node1&#45;&gt;Node2 -->
<g id="edge1" class="edge"><title>Node1&#45;&gt;Node2</title>
<path fill="none" stroke="midnightblue" d="M65.9418,-56.7681C59.5303,-47.2844 52.3955,-36.7308 46.5944,-28.15"/>
<polygon fill="midnightblue" stroke="midnightblue" points="49.4207,-26.0813 40.9203,-19.7572 43.6216,-30.0019 49.4207,-26.0813"/>
</g>
<!-- Node3 -->
<g id="node3" class="node"><title>Node3</title>
<polygon fill="none" stroke="#bfbfbf" points="79.5,-0.5 79.5,-19.5 184.5,-19.5 184.5,-0.5 79.5,-0.5"/>
<text text-anchor="middle" x="132" y="-7.5" font-family="Helvetica,sans-Serif" font-size="10.00">yarp/os/RFModule.h</text>
</g>
<!-- Node1&#45;&gt;Node3 -->
<g id="edge2" class="edge"><title>Node1&#45;&gt;Node3</title>
<path fill="none" stroke="midnightblue" d="M100.414,-56.7681C106.959,-47.2844 114.242,-36.7308 120.164,-28.15"/>
<polygon fill="midnightblue" stroke="midnightblue" points="123.157,-29.9755 125.956,-19.7572 117.396,-25.9994 123.157,-29.9755"/>
</g>
</g>
</svg>
