<?xml version="1.0" encoding="UTF-8" standalone="no"?>
<!DOCTYPE svg PUBLIC "-//W3C//DTD SVG 1.1//EN"
 "http://www.w3.org/Graphics/SVG/1.1/DTD/svg11.dtd">
<!-- Generated by graphviz version 2.36.0 (20140111.2315)
 -->
<!-- Title: /home/travis/build/robotology/human&#45;dynamics&#45;estimation/human&#45;state&#45;provider/include/private/HumanStateProviderPrivate.h Pages: 1 -->
<!--zoomable 308 -->
<svg id="main" version="1.1" xmlns="http://www.w3.org/2000/svg" xmlns:xlink="http://www.w3.org/1999/xlink" xml:space="preserve" onload="init(evt)">
<style type="text/css"><![CDATA[
.edge:hover path { stroke: red; }
.edge:hover polygon { stroke: red; fill: red; }
]]></style>
<script type="text/javascript"><![CDATA[
var edges = document.getElementsByTagName('g');
if (edges && edges.length) {
  for (var i=0;i<edges.length;i++) {
    if (edges[i].id.substr(0,4)=='edge') {
      edges[i].setAttribute('class','edge');
    }
  }
}
]]></script>
        <defs>
                <circle id="rim" cx="0" cy="0" r="7"/>
                <circle id="rim2" cx="0" cy="0" r="3.5"/>
                <g id="zoomPlus">
                        <use xlink:href="#rim" fill="#404040">
                                <set attributeName="fill" to="#808080" begin="zoomplus.mouseover" end="zoomplus.mouseout"/>
                        </use>
                        <path d="M-4,0h8M0,-4v8" fill="none" stroke="white" stroke-width="1.5" pointer-events="none"/>
                </g>
                <g id="zoomMin">
                        <use xlink:href="#rim" fill="#404040">
                                <set attributeName="fill" to="#808080" begin="zoomminus.mouseover" end="zoomminus.mouseout"/>
                        </use>
                        <path d="M-4,0h8" fill="none" stroke="white" stroke-width="1.5" pointer-events="none"/>
                </g>
                <g id="dirArrow">
                        <path fill="none" stroke="white" stroke-width="1.5" d="M0,-3.0v7 M-2.5,-0.5L0,-3.0L2.5,-0.5"/>
                </g>
               <g id="resetDef">
                       <use xlink:href="#rim2" fill="#404040">
                               <set attributeName="fill" to="#808080" begin="reset.mouseover" end="reset.mouseout"/>
                       </use>
               </g>
        </defs>

<script type="text/javascript">
var viewWidth = 2319;
var viewHeight = 308;
var sectionId = 'dynsection-0';
</script>
<script xlink:href="svgpan.js"/>
<svg id="graph" class="graph">
<g id="viewport">
<title>/home/travis/build/robotology/human&#45;dynamics&#45;estimation/human&#45;state&#45;provider/include/private/HumanStateProviderPrivate.h</title>
<!-- Node1 -->
<g id="node1" class="node"><title>Node1</title>
<polygon fill="#bfbfbf" stroke="black" points="1302.5,-236.5 1302.5,-299.5 1451.5,-299.5 1451.5,-236.5 1302.5,-236.5"/>
<text text-anchor="start" x="1310.5" y="-287.5" font-family="Helvetica,sans-Serif" font-size="10.00">/home/travis/build</text>
<text text-anchor="start" x="1310.5" y="-276.5" font-family="Helvetica,sans-Serif" font-size="10.00">/robotology/human&#45;dynamics</text>
<text text-anchor="start" x="1310.5" y="-265.5" font-family="Helvetica,sans-Serif" font-size="10.00">&#45;estimation/human&#45;state</text>
<text text-anchor="start" x="1310.5" y="-254.5" font-family="Helvetica,sans-Serif" font-size="10.00">&#45;provider/include/private</text>
<text text-anchor="middle" x="1377" y="-243.5" font-family="Helvetica,sans-Serif" font-size="10.00">/HumanStateProviderPrivate.h</text>
</g>
<!-- Node2 -->
<g id="node2" class="node"><title>Node2</title>
<g id="a_node2"><a xlink:href="_human_state_provider_8h.html" target="_top" xlink:title="HumanStateProvider.h">
<polygon fill="none" stroke="black" points="82,-180.5 82,-199.5 198,-199.5 198,-180.5 82,-180.5"/>
<text text-anchor="middle" x="140" y="-187.5" font-family="Helvetica,sans-Serif" font-size="10.00">HumanStateProvider.h</text>
</a>
</g>
</g>
<!-- Node1&#45;&gt;Node2 -->
<g id="edge1" class="edge"><title>Node1&#45;&gt;Node2</title>
<path fill="none" stroke="midnightblue" d="M1302.23,-262.587C1124.37,-252.06 662.051,-224.52 276,-200 253.983,-198.602 229.964,-197.028 208.321,-195.592"/>
<polygon fill="midnightblue" stroke="midnightblue" points="208.445,-192.093 198.235,-194.922 207.981,-199.078 208.445,-192.093"/>
</g>
<!-- Node4 -->
<g id="node4" class="node"><title>Node4</title>
<g id="a_node4"><a xlink:href="autogenerated_2include_2thrifts_2_human_state_8h.html" target="_top" xlink:title="thrifts/HumanState.h">
<polygon fill="none" stroke="black" points="285.5,-180.5 285.5,-199.5 392.5,-199.5 392.5,-180.5 285.5,-180.5"/>
<text text-anchor="middle" x="339" y="-187.5" font-family="Helvetica,sans-Serif" font-size="10.00">thrifts/HumanState.h</text>
</a>
</g>
</g>
<!-- Node1&#45;&gt;Node4 -->
<g id="edge3" class="edge"><title>Node1&#45;&gt;Node4</title>
<path fill="none" stroke="midnightblue" d="M1302.24,-262.224C1142.93,-251.925 758.183,-226.413 436,-200 425.224,-199.117 413.781,-198.113 402.676,-197.105"/>
<polygon fill="midnightblue" stroke="midnightblue" points="402.879,-193.609 392.601,-196.18 402.24,-200.579 402.879,-193.609"/>
</g>
<!-- Node9 -->
<g id="node9" class="node"><title>Node9</title>
<polygon fill="none" stroke="#bfbfbf" points="386.5,-124.5 386.5,-143.5 477.5,-143.5 477.5,-124.5 386.5,-124.5"/>
<text text-anchor="middle" x="432" y="-131.5" font-family="Helvetica,sans-Serif" font-size="10.00">yarp/sig/Vector.h</text>
</g>
<!-- Node1&#45;&gt;Node9 -->
<g id="edge30" class="edge"><title>Node1&#45;&gt;Node9</title>
<path fill="none" stroke="midnightblue" d="M1302.21,-264.47C1101.99,-257.259 564.045,-234.843 492,-200 470.475,-189.59 452.94,-167.801 442.503,-152.324"/>
<polygon fill="midnightblue" stroke="midnightblue" points="445.293,-150.191 436.95,-143.661 439.4,-153.969 445.293,-150.191"/>
</g>
<!-- Node10 -->
<g id="node10" class="node"><title>Node10</title>
<g id="a_node10"><a xlink:href="autogenerated_2include_2thrifts_2_human_state_provider_service_8h.html" target="_top" xlink:title="thrifts/HumanStateProvider\lService.h">
<polygon fill="none" stroke="black" points="341.5,-57 341.5,-87 476.5,-87 476.5,-57 341.5,-57"/>
<text text-anchor="start" x="349.5" y="-75" font-family="Helvetica,sans-Serif" font-size="10.00">thrifts/HumanStateProvider</text>
<text text-anchor="middle" x="409" y="-64" font-family="Helvetica,sans-Serif" font-size="10.00">Service.h</text>
</a>
</g>
</g>
<!-- Node1&#45;&gt;Node10 -->
<g id="edge14" class="edge"><title>Node1&#45;&gt;Node10</title>
<path fill="none" stroke="midnightblue" d="M1302.33,-265.254C1106.52,-260.1 588.906,-242.564 525,-200 493.402,-178.954 511.317,-152.292 486,-124 474.773,-111.454 459.802,-100.62 446.047,-92.2039"/>
<polygon fill="midnightblue" stroke="midnightblue" points="447.631,-89.075 437.235,-87.0291 444.086,-95.1111 447.631,-89.075"/>
</g>
<!-- Node11 -->
<g id="node11" class="node"><title>Node11</title>
<polygon fill="none" stroke="#bfbfbf" points="534,-180.5 534,-199.5 690,-199.5 690,-180.5 534,-180.5"/>
<text text-anchor="middle" x="612" y="-187.5" font-family="Helvetica,sans-Serif" font-size="10.00">iDynTree/Core/MatrixDynSize.h</text>
</g>
<!-- Node1&#45;&gt;Node11 -->
<g id="edge17" class="edge"><title>Node1&#45;&gt;Node11</title>
<path fill="none" stroke="midnightblue" d="M1302.5,-259.75C1179.49,-247.755 925.897,-222.923 700.295,-200.127"/>
<polygon fill="midnightblue" stroke="midnightblue" points="700.554,-196.636 690.253,-199.112 699.85,-203.6 700.554,-196.636"/>
</g>
<!-- Node12 -->
<g id="node12" class="node"><title>Node12</title>
<polygon fill="none" stroke="#bfbfbf" points="708,-180.5 708,-199.5 866,-199.5 866,-180.5 708,-180.5"/>
<text text-anchor="middle" x="787" y="-187.5" font-family="Helvetica,sans-Serif" font-size="10.00">iDynTree/Core/VectorDynSize.h</text>
</g>
<!-- Node1&#45;&gt;Node12 -->
<g id="edge18" class="edge"><title>Node1&#45;&gt;Node12</title>
<path fill="none" stroke="midnightblue" d="M1302.28,-257.375C1189.55,-242.854 977.138,-215.492 863.423,-200.844"/>
<polygon fill="midnightblue" stroke="midnightblue" points="863.767,-197.36 853.402,-199.553 862.873,-204.302 863.767,-197.36"/>
</g>
<!-- Node13 -->
<g id="node13" class="node"><title>Node13</title>
<polygon fill="none" stroke="#bfbfbf" points="884,-180.5 884,-199.5 1020,-199.5 1020,-180.5 884,-180.5"/>
<text text-anchor="middle" x="952" y="-187.5" font-family="Helvetica,sans-Serif" font-size="10.00">iDynTree/Core/Transform.h</text>
</g>
<!-- Node1&#45;&gt;Node13 -->
<g id="edge19" class="edge"><title>Node1&#45;&gt;Node13</title>
<path fill="none" stroke="midnightblue" d="M1302.48,-253.675C1218.98,-238.743 1085.4,-214.856 1009.55,-201.291"/>
<polygon fill="midnightblue" stroke="midnightblue" points="1010.15,-197.843 999.688,-199.528 1008.92,-204.733 1010.15,-197.843"/>
</g>
<!-- Node14 -->
<g id="node14" class="node"><title>Node14</title>
<polygon fill="none" stroke="#bfbfbf" points="1038.5,-180.5 1038.5,-199.5 1169.5,-199.5 1169.5,-180.5 1038.5,-180.5"/>
<text text-anchor="middle" x="1104" y="-187.5" font-family="Helvetica,sans-Serif" font-size="10.00">iDynTree/Model/Indeces.h</text>
</g>
<!-- Node1&#45;&gt;Node14 -->
<g id="edge20" class="edge"><title>Node1&#45;&gt;Node14</title>
<path fill="none" stroke="midnightblue" d="M1302.4,-246.233C1251.5,-232.063 1186.03,-213.837 1144.53,-202.282"/>
<polygon fill="midnightblue" stroke="midnightblue" points="1145.34,-198.876 1134.77,-199.566 1143.46,-205.62 1145.34,-198.876"/>
</g>
<!-- Node15 -->
<g id="node15" class="node"><title>Node15</title>
<polygon fill="none" stroke="#bfbfbf" points="1187.5,-180.5 1187.5,-199.5 1348.5,-199.5 1348.5,-180.5 1187.5,-180.5"/>
<text text-anchor="middle" x="1268" y="-187.5" font-family="Helvetica,sans-Serif" font-size="10.00">iDynTree/KinDynComputations.h</text>
</g>
<!-- Node1&#45;&gt;Node15 -->
<g id="edge21" class="edge"><title>Node1&#45;&gt;Node15</title>
<path fill="none" stroke="midnightblue" d="M1332.98,-236.307C1317.77,-225.699 1301.42,-214.301 1288.93,-205.591"/>
<polygon fill="midnightblue" stroke="midnightblue" points="1290.79,-202.622 1280.58,-199.774 1286.78,-208.364 1290.79,-202.622"/>
</g>
<!-- Node16 -->
<g id="node16" class="node"><title>Node16</title>
<g id="a_node16"><a xlink:href="_inverse_kinematics_8h.html" target="_top" xlink:title="human&#45;ik/InverseKinematics.h">
<polygon fill="none" stroke="black" points="1404.5,-180.5 1404.5,-199.5 1553.5,-199.5 1553.5,-180.5 1404.5,-180.5"/>
<text text-anchor="middle" x="1479" y="-187.5" font-family="Helvetica,sans-Serif" font-size="10.00">human&#45;ik/InverseKinematics.h</text>
</a>
</g>
</g>
<!-- Node1&#45;&gt;Node16 -->
<g id="edge22" class="edge"><title>Node1&#45;&gt;Node16</title>
<path fill="none" stroke="midnightblue" d="M1418.19,-236.307C1432.29,-225.802 1447.43,-214.522 1459.08,-205.846"/>
<polygon fill="midnightblue" stroke="midnightblue" points="1461.3,-208.555 1467.22,-199.774 1457.11,-202.942 1461.3,-208.555"/>
</g>
<!-- Node18 -->
<g id="node18" class="node"><title>Node18</title>
<polygon fill="none" stroke="#bfbfbf" points="1343.5,-124.5 1343.5,-143.5 1384.5,-143.5 1384.5,-124.5 1343.5,-124.5"/>
<text text-anchor="middle" x="1364" y="-131.5" font-family="Helvetica,sans-Serif" font-size="10.00">string</text>
</g>
<!-- Node1&#45;&gt;Node18 -->
<g id="edge34" class="edge"><title>Node1&#45;&gt;Node18</title>
<path fill="none" stroke="midnightblue" d="M1373.98,-236.385C1371.47,-210.82 1367.96,-175.199 1365.84,-153.695"/>
<polygon fill="midnightblue" stroke="midnightblue" points="1369.31,-153.219 1364.85,-143.61 1362.34,-153.905 1369.31,-153.219"/>
</g>
<!-- Node19 -->
<g id="node19" class="node"><title>Node19</title>
<polygon fill="none" stroke="#bfbfbf" points="1574,-124.5 1574,-143.5 1618,-143.5 1618,-124.5 1574,-124.5"/>
<text text-anchor="middle" x="1596" y="-131.5" font-family="Helvetica,sans-Serif" font-size="10.00">vector</text>
</g>
<!-- Node1&#45;&gt;Node19 -->
<g id="edge35" class="edge"><title>Node1&#45;&gt;Node19</title>
<path fill="none" stroke="midnightblue" d="M1451.57,-253.323C1488.2,-243.516 1531,-227.085 1562,-200 1576.06,-187.713 1585.17,-168.178 1590.38,-153.728"/>
<polygon fill="midnightblue" stroke="midnightblue" points="1593.83,-154.467 1593.63,-143.874 1587.18,-152.276 1593.83,-154.467"/>
</g>
<!-- Node20 -->
<g id="node20" class="node"><title>Node20</title>
<polygon fill="none" stroke="#bfbfbf" points="1609.5,-180.5 1609.5,-199.5 1720.5,-199.5 1720.5,-180.5 1609.5,-180.5"/>
<text text-anchor="middle" x="1665" y="-187.5" font-family="Helvetica,sans-Serif" font-size="10.00">yarp/dev/PolyDriver.h</text>
</g>
<!-- Node1&#45;&gt;Node20 -->
<g id="edge26" class="edge"><title>Node1&#45;&gt;Node20</title>
<path fill="none" stroke="midnightblue" d="M1451.54,-247.329C1506.08,-232.936 1578.11,-213.93 1622.98,-202.088"/>
<polygon fill="midnightblue" stroke="midnightblue" points="1623.9,-205.465 1632.68,-199.529 1622.12,-198.697 1623.9,-205.465"/>
</g>
<!-- Node21 -->
<g id="node21" class="node"><title>Node21</title>
<polygon fill="none" stroke="#bfbfbf" points="1738.5,-180.5 1738.5,-199.5 1871.5,-199.5 1871.5,-180.5 1738.5,-180.5"/>
<text text-anchor="middle" x="1805" y="-187.5" font-family="Helvetica,sans-Serif" font-size="10.00">yarp/dev/PreciselyTimed.h</text>
</g>
<!-- Node1&#45;&gt;Node21 -->
<g id="edge27" class="edge"><title>Node1&#45;&gt;Node21</title>
<path fill="none" stroke="midnightblue" d="M1451.55,-253.762C1535.56,-238.845 1670.34,-214.911 1746.91,-201.316"/>
<polygon fill="midnightblue" stroke="midnightblue" points="1747.62,-204.743 1756.86,-199.549 1746.4,-197.851 1747.62,-204.743"/>
</g>
<!-- Node22 -->
<g id="node22" class="node"><title>Node22</title>
<polygon fill="none" stroke="#bfbfbf" points="1889.5,-180.5 1889.5,-199.5 2004.5,-199.5 2004.5,-180.5 1889.5,-180.5"/>
<text text-anchor="middle" x="1947" y="-187.5" font-family="Helvetica,sans-Serif" font-size="10.00">yarp/os/BufferedPort.h</text>
</g>
<!-- Node1&#45;&gt;Node22 -->
<g id="edge28" class="edge"><title>Node1&#45;&gt;Node22</title>
<path fill="none" stroke="midnightblue" d="M1451.57,-257.093C1547.77,-244.308 1720.58,-221.32 1879.31,-200.092"/>
<polygon fill="midnightblue" stroke="midnightblue" points="1879.81,-203.556 1889.26,-198.761 1878.88,-196.617 1879.81,-203.556"/>
</g>
<!-- Node23 -->
<g id="node23" class="node"><title>Node23</title>
<polygon fill="none" stroke="#bfbfbf" points="2023,-180.5 2023,-199.5 2101,-199.5 2101,-180.5 2023,-180.5"/>
<text text-anchor="middle" x="2062" y="-187.5" font-family="Helvetica,sans-Serif" font-size="10.00">yarp/os/Port.h</text>
</g>
<!-- Node1&#45;&gt;Node23 -->
<g id="edge29" class="edge"><title>Node1&#45;&gt;Node23</title>
<path fill="none" stroke="midnightblue" d="M1451.64,-261.005C1570.71,-251.024 1810.8,-229.176 2013,-200 2013.1,-199.985 2013.2,-199.971 2013.31,-199.956"/>
<polygon fill="midnightblue" stroke="midnightblue" points="2013.66,-203.444 2023,-198.443 2012.58,-196.528 2013.66,-203.444"/>
</g>
<!-- Node24 -->
<g id="node24" class="node"><title>Node24</title>
<polygon fill="none" stroke="#bfbfbf" points="2119.5,-180.5 2119.5,-199.5 2178.5,-199.5 2178.5,-180.5 2119.5,-180.5"/>
<text text-anchor="middle" x="2149" y="-187.5" font-family="Helvetica,sans-Serif" font-size="10.00">Eigen/QR</text>
</g>
<!-- Node1&#45;&gt;Node24 -->
<g id="edge31" class="edge"><title>Node1&#45;&gt;Node24</title>
<path fill="none" stroke="midnightblue" d="M1451.55,-263.532C1582.69,-256.699 1863.25,-238.808 2109.07,-199.927"/>
<polygon fill="midnightblue" stroke="midnightblue" points="2109.95,-203.331 2119.27,-198.298 2108.84,-196.419 2109.95,-203.331"/>
</g>
<!-- Node25 -->
<g id="node25" class="node"><title>Node25</title>
<polygon fill="none" stroke="#bfbfbf" points="2197,-180.5 2197,-199.5 2249,-199.5 2249,-180.5 2197,-180.5"/>
<text text-anchor="middle" x="2223" y="-187.5" font-family="Helvetica,sans-Serif" font-size="10.00">memory</text>
</g>
<!-- Node1&#45;&gt;Node25 -->
<g id="edge32" class="edge"><title>Node1&#45;&gt;Node25</title>
<path fill="none" stroke="midnightblue" d="M1451.76,-264.871C1593.46,-259.953 1910.79,-244.717 2186.55,-199.764"/>
<polygon fill="midnightblue" stroke="midnightblue" points="2187.46,-203.162 2196.76,-198.084 2186.32,-196.255 2187.46,-203.162"/>
</g>
<!-- Node26 -->
<g id="node26" class="node"><title>Node26</title>
<polygon fill="none" stroke="#bfbfbf" points="2267,-180.5 2267,-199.5 2311,-199.5 2311,-180.5 2267,-180.5"/>
<text text-anchor="middle" x="2289" y="-187.5" font-family="Helvetica,sans-Serif" font-size="10.00">mutex</text>
</g>
<!-- Node1&#45;&gt;Node26 -->
<g id="edge33" class="edge"><title>Node1&#45;&gt;Node26</title>
<path fill="none" stroke="midnightblue" d="M1451.62,-266.504C1602.56,-264.381 1954.71,-253.738 2256.52,-199.898"/>
<polygon fill="midnightblue" stroke="midnightblue" points="2257.56,-203.267 2266.78,-198.047 2256.32,-196.378 2257.56,-203.267"/>
</g>
<!-- Node3 -->
<g id="node3" class="node"><title>Node3</title>
<polygon fill="none" stroke="#bfbfbf" points="-0.5,-124.5 -0.5,-143.5 104.5,-143.5 104.5,-124.5 -0.5,-124.5"/>
<text text-anchor="middle" x="52" y="-131.5" font-family="Helvetica,sans-Serif" font-size="10.00">yarp/os/RFModule.h</text>
</g>
<!-- Node2&#45;&gt;Node3 -->
<g id="edge2" class="edge"><title>Node2&#45;&gt;Node3</title>
<path fill="none" stroke="midnightblue" d="M125.861,-180.324C112.134,-171.9 91.0637,-158.971 74.9357,-149.074"/>
<polygon fill="midnightblue" stroke="midnightblue" points="76.4574,-145.902 66.1036,-143.655 72.7963,-151.868 76.4574,-145.902"/>
</g>
<!-- Node5 -->
<g id="node5" class="node"><title>Node5</title>
<polygon fill="none" stroke="#bfbfbf" points="321,-0.5 321,-19.5 401,-19.5 401,-0.5 321,-0.5"/>
<text text-anchor="middle" x="361" y="-7.5" font-family="Helvetica,sans-Serif" font-size="10.00">yarp/os/Wire.h</text>
</g>
<!-- Node4&#45;&gt;Node5 -->
<g id="edge4" class="edge"><title>Node4&#45;&gt;Node5</title>
<path fill="none" stroke="midnightblue" d="M341.895,-180.064C346.864,-166.105 358.325,-139.156 377,-124 416.286,-92.1162 455.416,-129.046 485,-88 493.316,-76.4623 493.163,-67.6463 485,-56 468.333,-32.2202 437.755,-20.9573 411.135,-15.6456"/>
<polygon fill="midnightblue" stroke="midnightblue" points="411.62,-12.1772 401.164,-13.8876 410.405,-19.0709 411.62,-12.1772"/>
</g>
<!-- Node6 -->
<g id="node6" class="node"><title>Node6</title>
<polygon fill="none" stroke="#bfbfbf" points="146,-0.5 146,-19.5 266,-19.5 266,-0.5 146,-0.5"/>
<text text-anchor="middle" x="206" y="-7.5" font-family="Helvetica,sans-Serif" font-size="10.00">yarp/os/idl/WireTypes.h</text>
</g>
<!-- Node4&#45;&gt;Node6 -->
<g id="edge5" class="edge"><title>Node4&#45;&gt;Node6</title>
<path fill="none" stroke="midnightblue" d="M285.421,-180.554C245.382,-173.02 195.498,-160.612 183,-144 157.154,-109.644 180.168,-56.2205 195.283,-28.7057"/>
<polygon fill="midnightblue" stroke="midnightblue" points="198.439,-30.2381 200.389,-19.8243 192.371,-26.749 198.439,-30.2381"/>
</g>
<!-- Node7 -->
<g id="node7" class="node"><title>Node7</title>
<g id="a_node7"><a xlink:href="human-state-provider_2autogenerated_2include_2thrifts_2_quaternion_8h.html" target="_top" xlink:title="thrifts/Quaternion.h">
<polygon fill="none" stroke="black" points="192,-124.5 192,-143.5 292,-143.5 292,-124.5 192,-124.5"/>
<text text-anchor="middle" x="242" y="-131.5" font-family="Helvetica,sans-Serif" font-size="10.00">thrifts/Quaternion.h</text>
</a>
</g>
</g>
<!-- Node4&#45;&gt;Node7 -->
<g id="edge6" class="edge"><title>Node4&#45;&gt;Node7</title>
<path fill="none" stroke="midnightblue" d="M323.415,-180.324C308.001,-171.743 284.188,-158.486 266.29,-148.522"/>
<polygon fill="midnightblue" stroke="midnightblue" points="267.986,-145.461 257.546,-143.655 264.581,-151.577 267.986,-145.461"/>
</g>
<!-- Node8 -->
<g id="node8" class="node"><title>Node8</title>
<g id="a_node8"><a xlink:href="human-state-provider_2autogenerated_2include_2thrifts_2_vector3_8h.html" target="_top" xlink:title="thrifts/Vector3.h">
<polygon fill="none" stroke="black" points="199,-62.5 199,-81.5 285,-81.5 285,-62.5 199,-62.5"/>
<text text-anchor="middle" x="242" y="-69.5" font-family="Helvetica,sans-Serif" font-size="10.00">thrifts/Vector3.h</text>
</a>
</g>
</g>
<!-- Node4&#45;&gt;Node8 -->
<g id="edge12" class="edge"><title>Node4&#45;&gt;Node8</title>
<path fill="none" stroke="midnightblue" d="M335.122,-180.432C328.998,-167.43 316.208,-142.295 301,-124 289.717,-110.427 274.627,-97.4529 262.532,-87.9872"/>
<polygon fill="midnightblue" stroke="midnightblue" points="264.427,-85.0314 254.351,-81.7563 260.186,-90.6 264.427,-85.0314"/>
</g>
<!-- Node4&#45;&gt;Node9 -->
<g id="edge13" class="edge"><title>Node4&#45;&gt;Node9</title>
<path fill="none" stroke="midnightblue" d="M353.942,-180.324C368.585,-171.822 391.134,-158.729 408.238,-148.797"/>
<polygon fill="midnightblue" stroke="midnightblue" points="410.205,-151.703 417.095,-143.655 406.69,-145.649 410.205,-151.703"/>
</g>
<!-- Node7&#45;&gt;Node5 -->
<g id="edge7" class="edge"><title>Node7&#45;&gt;Node5</title>
<path fill="none" stroke="midnightblue" d="M252.747,-124.452C263.543,-115.695 280.474,-101.489 294,-88 313.691,-68.3622 334.419,-43.8641 347.512,-27.8449"/>
<polygon fill="midnightblue" stroke="midnightblue" points="350.371,-29.876 353.946,-19.9024 344.932,-25.47 350.371,-29.876"/>
</g>
<!-- Node7&#45;&gt;Node6 -->
<g id="edge8" class="edge"><title>Node7&#45;&gt;Node6</title>
<path fill="none" stroke="midnightblue" d="M226.217,-124.467C213.797,-116.769 197.395,-104.179 190,-88 181.34,-69.0529 188.686,-45.3387 196.036,-29.2703"/>
<polygon fill="midnightblue" stroke="midnightblue" points="199.358,-30.452 200.697,-19.9421 193.096,-27.3227 199.358,-30.452"/>
</g>
<!-- Node7&#45;&gt;Node8 -->
<g id="edge9" class="edge"><title>Node7&#45;&gt;Node8</title>
<path fill="none" stroke="midnightblue" d="M242,-124.403C242,-115.938 242,-102.728 242,-91.8199"/>
<polygon fill="midnightblue" stroke="midnightblue" points="245.5,-91.5806 242,-81.5806 238.5,-91.5806 245.5,-91.5806"/>
</g>
<!-- Node8&#45;&gt;Node5 -->
<g id="edge10" class="edge"><title>Node8&#45;&gt;Node5</title>
<path fill="none" stroke="midnightblue" d="M259.05,-62.4035C278.844,-52.4232 311.717,-35.8487 334.77,-24.2253"/>
<polygon fill="midnightblue" stroke="midnightblue" points="336.628,-27.208 343.982,-19.5806 333.477,-20.9575 336.628,-27.208"/>
</g>
<!-- Node8&#45;&gt;Node6 -->
<g id="edge11" class="edge"><title>Node8&#45;&gt;Node6</title>
<path fill="none" stroke="midnightblue" d="M236.842,-62.4035C231.549,-53.5816 223.165,-39.6075 216.473,-28.4548"/>
<polygon fill="midnightblue" stroke="midnightblue" points="219.295,-26.3548 211.148,-19.5806 213.292,-29.9563 219.295,-26.3548"/>
</g>
<!-- Node10&#45;&gt;Node5 -->
<g id="edge15" class="edge"><title>Node10&#45;&gt;Node5</title>
<path fill="none" stroke="midnightblue" d="M397.625,-56.7808C390.65,-48.0621 381.686,-36.8574 374.372,-27.7153"/>
<polygon fill="midnightblue" stroke="midnightblue" points="376.964,-25.3528 367.984,-19.7305 371.498,-29.7257 376.964,-25.3528"/>
</g>
<!-- Node10&#45;&gt;Node6 -->
<g id="edge16" class="edge"><title>Node10&#45;&gt;Node6</title>
<path fill="none" stroke="midnightblue" d="M361.406,-56.9327C325.828,-46.4171 277.802,-32.2222 244.599,-22.4087"/>
<polygon fill="midnightblue" stroke="midnightblue" points="245.383,-18.9908 234.801,-19.5127 243.399,-25.7037 245.383,-18.9908"/>
</g>
<!-- Node17 -->
<g id="node17" class="node"><title>Node17</title>
<polygon fill="none" stroke="#bfbfbf" points="1402.5,-124.5 1402.5,-143.5 1555.5,-143.5 1555.5,-124.5 1402.5,-124.5"/>
<text text-anchor="middle" x="1479" y="-131.5" font-family="Helvetica,sans-Serif" font-size="10.00">iDynTree/Core/VectorFixSize.h</text>
</g>
<!-- Node16&#45;&gt;Node17 -->
<g id="edge23" class="edge"><title>Node16&#45;&gt;Node17</title>
<path fill="none" stroke="midnightblue" d="M1479,-180.083C1479,-173.006 1479,-162.861 1479,-153.986"/>
<polygon fill="midnightblue" stroke="midnightblue" points="1482.5,-153.751 1479,-143.751 1475.5,-153.751 1482.5,-153.751"/>
</g>
<!-- Node16&#45;&gt;Node18 -->
<g id="edge24" class="edge"><title>Node16&#45;&gt;Node18</title>
<path fill="none" stroke="midnightblue" d="M1460.78,-180.444C1442.1,-171.675 1412.84,-157.935 1391.38,-147.858"/>
<polygon fill="midnightblue" stroke="midnightblue" points="1392.68,-144.599 1382.14,-143.516 1389.7,-150.935 1392.68,-144.599"/>
</g>
<!-- Node16&#45;&gt;Node19 -->
<g id="edge25" class="edge"><title>Node16&#45;&gt;Node19</title>
<path fill="none" stroke="midnightblue" d="M1497.54,-180.444C1516.62,-171.636 1546.57,-157.812 1568.44,-147.722"/>
<polygon fill="midnightblue" stroke="midnightblue" points="1569.93,-150.885 1577.55,-143.516 1567,-144.529 1569.93,-150.885"/>
</g>
</g>
</svg>
        <g id="navigator" transform="translate(0 0)" fill="#404254">
                <rect fill="#f2f5e9" fill-opacity="0.5" stroke="#606060" stroke-width=".5" x="0" y="0" width="60" height="60"/>
                <use id="zoomplus" xlink:href="#zoomPlus" x="17" y="9" onmousedown="handleZoom(evt,'in')"/>
                <use id="zoomminus" xlink:href="#zoomMin" x="42" y="9" onmousedown="handleZoom(evt,'out')"/>
                <use id="reset" xlink:href="#resetDef" x="30" y="36" onmousedown="handleReset()"/>
                <g id="arrowUp" xlink:href="#dirArrow" transform="translate(30 24)" onmousedown="handlePan(0,-1)">
                  <use xlink:href="#rim" fill="#404040">
                        <set attributeName="fill" to="#808080" begin="arrowUp.mouseover" end="arrowUp.mouseout"/>
                  </use>
                  <path fill="none" stroke="white" stroke-width="1.5" d="M0,-3.0v7 M-2.5,-0.5L0,-3.0L2.5,-0.5"/>
                </g>
                <g id="arrowRight" xlink:href="#dirArrow" transform="rotate(90) translate(36 -43)" onmousedown="handlePan(1,0)">
                  <use xlink:href="#rim" fill="#404040">
                        <set attributeName="fill" to="#808080" begin="arrowRight.mouseover" end="arrowRight.mouseout"/>
                  </use>
                  <path fill="none" stroke="white" stroke-width="1.5" d="M0,-3.0v7 M-2.5,-0.5L0,-3.0L2.5,-0.5"/>
                </g>
                <g id="arrowDown" xlink:href="#dirArrow" transform="rotate(180) translate(-30 -48)" onmousedown="handlePan(0,1)">
                  <use xlink:href="#rim" fill="#404040">
                        <set attributeName="fill" to="#808080" begin="arrowDown.mouseover" end="arrowDown.mouseout"/>
                  </use>
                  <path fill="none" stroke="white" stroke-width="1.5" d="M0,-3.0v7 M-2.5,-0.5L0,-3.0L2.5,-0.5"/>
                </g>
                <g id="arrowLeft" xlink:href="#dirArrow" transform="rotate(270) translate(-36 17)" onmousedown="handlePan(-1,0)">
                  <use xlink:href="#rim" fill="#404040">
                        <set attributeName="fill" to="#808080" begin="arrowLeft.mouseover" end="arrowLeft.mouseout"/>
                  </use>
                  <path fill="none" stroke="white" stroke-width="1.5" d="M0,-3.0v7 M-2.5,-0.5L0,-3.0L2.5,-0.5"/>
                </g>
        </g>
        <svg viewBox="0 0 15 15" width="100%" height="30px" preserveAspectRatio="xMaxYMin meet">
         <g id="arrow_out" transform="scale(0.3 0.3)">
          <a xlink:href="_human_state_provider_private_8h__incl_org.svg" target="_base">
           <rect id="button" ry="5" rx="5" y="6" x="6" height="38" width="38"
                fill="#f2f5e9" fill-opacity="0.5" stroke="#606060" stroke-width="1.0"/>
           <path id="arrow"
             d="M 11.500037,31.436501 C 11.940474,20.09759 22.043105,11.32322 32.158766,21.979434 L 37.068811,17.246167 C 37.068811,17.246167 37.088388,32 37.088388,32 L 22.160133,31.978069 C 22.160133,31.978069 26.997745,27.140456 26.997745,27.140456 C 18.528582,18.264221 13.291696,25.230495 11.500037,31.436501 z"
             style="fill:#404040;"/>
          </a>
         </g>
        </svg>
</svg>
