<?xml version="1.0" encoding="UTF-8" standalone="no"?>
<!DOCTYPE svg PUBLIC "-//W3C//DTD SVG 1.1//EN"
 "http://www.w3.org/Graphics/SVG/1.1/DTD/svg11.dtd">
<!-- Generated by graphviz version 2.36.0 (20140111.2315)
 -->
<!-- Title: /home/travis/build/robotology/human&#45;dynamics&#45;estimation/human&#45;state&#45;provider/src/HumanIKWorkerPool.cpp Pages: 1 -->
<svg width="2538pt" height="354pt"
 viewBox="0.00 0.00 2538.00 354.00" xmlns="http://www.w3.org/2000/svg" xmlns:xlink="http://www.w3.org/1999/xlink">
<g id="graph0" class="graph" transform="scale(1 1) rotate(0) translate(4 350)">
<title>/home/travis/build/robotology/human&#45;dynamics&#45;estimation/human&#45;state&#45;provider/src/HumanIKWorkerPool.cpp</title>
<!-- Node1 -->
<g id="node1" class="node"><title>Node1</title>
<polygon fill="#bfbfbf" stroke="black" points="1340.5,-293 1340.5,-345 1525.5,-345 1525.5,-293 1340.5,-293"/>
<text text-anchor="start" x="1348.5" y="-333" font-family="Helvetica,sans-Serif" font-size="10.00">/home/travis/build</text>
<text text-anchor="start" x="1348.5" y="-322" font-family="Helvetica,sans-Serif" font-size="10.00">/robotology/human&#45;dynamics</text>
<text text-anchor="start" x="1348.5" y="-311" font-family="Helvetica,sans-Serif" font-size="10.00">&#45;estimation/human&#45;state</text>
<text text-anchor="middle" x="1433" y="-300" font-family="Helvetica,sans-Serif" font-size="10.00">&#45;provider/src/HumanIKWorkerPool.cpp</text>
</g>
<!-- Node2 -->
<g id="node2" class="node"><title>Node2</title>
<g id="a_node2"><a xlink:href="_human_i_k_worker_pool_8h.html" target="_top" xlink:title="HumanIKWorkerPool.h">
<polygon fill="none" stroke="black" points="191.5,-236.5 191.5,-255.5 308.5,-255.5 308.5,-236.5 191.5,-236.5"/>
<text text-anchor="middle" x="250" y="-243.5" font-family="Helvetica,sans-Serif" font-size="10.00">HumanIKWorkerPool.h</text>
</a>
</g>
</g>
<!-- Node1&#45;&gt;Node2 -->
<g id="edge1" class="edge"><title>Node1&#45;&gt;Node2</title>
<path fill="none" stroke="midnightblue" d="M1340.17,-312.429C1110.63,-298.652 520.386,-263.228 318.733,-251.125"/>
<polygon fill="midnightblue" stroke="midnightblue" points="318.762,-247.621 308.57,-250.515 318.343,-254.608 318.762,-247.621"/>
</g>
<!-- Node8 -->
<g id="node8" class="node"><title>Node8</title>
<g id="a_node8"><a xlink:href="_human_state_provider_private_8h.html" target="_top" xlink:title="HumanStateProviderPrivate.h">
<polygon fill="none" stroke="black" points="1360,-236.5 1360,-255.5 1506,-255.5 1506,-236.5 1360,-236.5"/>
<text text-anchor="middle" x="1433" y="-243.5" font-family="Helvetica,sans-Serif" font-size="10.00">HumanStateProviderPrivate.h</text>
</a>
</g>
</g>
<!-- Node1&#45;&gt;Node8 -->
<g id="edge7" class="edge"><title>Node1&#45;&gt;Node8</title>
<path fill="none" stroke="midnightblue" d="M1433,-292.768C1433,-283.89 1433,-274.074 1433,-265.816"/>
<polygon fill="midnightblue" stroke="midnightblue" points="1436.5,-265.757 1433,-255.757 1429.5,-265.757 1436.5,-265.757"/>
</g>
<!-- Node23 -->
<g id="node23" class="node"><title>Node23</title>
<g id="a_node23"><a xlink:href="_inverse_kinematics_8h.html" target="_top" xlink:title="human&#45;ik/InverseKinematics.h">
<polygon fill="none" stroke="black" points="412.5,-180.5 412.5,-199.5 561.5,-199.5 561.5,-180.5 412.5,-180.5"/>
<text text-anchor="middle" x="487" y="-187.5" font-family="Helvetica,sans-Serif" font-size="10.00">human&#45;ik/InverseKinematics.h</text>
</a>
</g>
</g>
<!-- Node1&#45;&gt;Node23 -->
<g id="edge44" class="edge"><title>Node1&#45;&gt;Node23</title>
<path fill="none" stroke="midnightblue" d="M1340.14,-305.533C1152.41,-280.331 731.157,-223.778 560.694,-200.893"/>
<polygon fill="midnightblue" stroke="midnightblue" points="560.943,-197.395 550.566,-199.534 560.011,-204.333 560.943,-197.395"/>
</g>
<!-- Node32 -->
<g id="node32" class="node"><title>Node32</title>
<polygon fill="none" stroke="#bfbfbf" points="1524,-236.5 1524,-255.5 1674,-255.5 1674,-236.5 1524,-236.5"/>
<text text-anchor="middle" x="1599" y="-243.5" font-family="Helvetica,sans-Serif" font-size="10.00">iDynTree/Core/EigenHelpers.h</text>
</g>
<!-- Node1&#45;&gt;Node32 -->
<g id="edge43" class="edge"><title>Node1&#45;&gt;Node32</title>
<path fill="none" stroke="midnightblue" d="M1491.53,-292.968C1517.91,-281.681 1547.93,-268.844 1569.52,-259.61"/>
<polygon fill="midnightblue" stroke="midnightblue" points="1570.98,-262.789 1578.8,-255.639 1568.23,-256.353 1570.98,-262.789"/>
</g>
<!-- Node33 -->
<g id="node33" class="node"><title>Node33</title>
<polygon fill="none" stroke="#bfbfbf" points="1692,-236.5 1692,-255.5 1736,-255.5 1736,-236.5 1692,-236.5"/>
<text text-anchor="middle" x="1714" y="-243.5" font-family="Helvetica,sans-Serif" font-size="10.00">thread</text>
</g>
<!-- Node1&#45;&gt;Node33 -->
<g id="edge45" class="edge"><title>Node1&#45;&gt;Node33</title>
<path fill="none" stroke="midnightblue" d="M1525.7,-295.622C1572.63,-284.116 1630.43,-269.668 1682,-256 1682.1,-255.973 1682.2,-255.946 1682.3,-255.919"/>
<polygon fill="midnightblue" stroke="midnightblue" points="1683.26,-259.287 1691.99,-253.284 1681.42,-252.532 1683.26,-259.287"/>
</g>
<!-- Node3 -->
<g id="node3" class="node"><title>Node3</title>
<polygon fill="none" stroke="#bfbfbf" points="313,-180.5 313,-199.5 357,-199.5 357,-180.5 313,-180.5"/>
<text text-anchor="middle" x="335" y="-187.5" font-family="Helvetica,sans-Serif" font-size="10.00">mutex</text>
</g>
<!-- Node2&#45;&gt;Node3 -->
<g id="edge2" class="edge"><title>Node2&#45;&gt;Node3</title>
<path fill="none" stroke="midnightblue" d="M263.657,-236.324C276.916,-227.9 297.268,-214.971 312.846,-205.074"/>
<polygon fill="midnightblue" stroke="midnightblue" points="314.813,-207.971 321.377,-199.655 311.06,-202.063 314.813,-207.971"/>
</g>
<!-- Node4 -->
<g id="node4" class="node"><title>Node4</title>
<polygon fill="none" stroke="#bfbfbf" points="60.5,-180.5 60.5,-199.5 155.5,-199.5 155.5,-180.5 60.5,-180.5"/>
<text text-anchor="middle" x="108" y="-187.5" font-family="Helvetica,sans-Serif" font-size="10.00">condition_variable</text>
</g>
<!-- Node2&#45;&gt;Node4 -->
<g id="edge3" class="edge"><title>Node2&#45;&gt;Node4</title>
<path fill="none" stroke="midnightblue" d="M227.5,-236.444C203.923,-227.478 166.678,-213.314 140.036,-203.183"/>
<polygon fill="midnightblue" stroke="midnightblue" points="140.986,-199.8 130.395,-199.516 138.498,-206.342 140.986,-199.8"/>
</g>
<!-- Node5 -->
<g id="node5" class="node"><title>Node5</title>
<polygon fill="none" stroke="#bfbfbf" points="173.5,-180.5 173.5,-199.5 256.5,-199.5 256.5,-180.5 173.5,-180.5"/>
<text text-anchor="middle" x="215" y="-187.5" font-family="Helvetica,sans-Serif" font-size="10.00">unordered_map</text>
</g>
<!-- Node2&#45;&gt;Node5 -->
<g id="edge4" class="edge"><title>Node2&#45;&gt;Node5</title>
<path fill="none" stroke="midnightblue" d="M244.22,-236.083C239.328,-228.534 232.173,-217.495 226.167,-208.23"/>
<polygon fill="midnightblue" stroke="midnightblue" points="229.048,-206.239 220.672,-199.751 223.174,-210.046 229.048,-206.239"/>
</g>
<!-- Node6 -->
<g id="node6" class="node"><title>Node6</title>
<polygon fill="none" stroke="#bfbfbf" points="-0.5,-180.5 -0.5,-199.5 42.5,-199.5 42.5,-180.5 -0.5,-180.5"/>
<text text-anchor="middle" x="21" y="-187.5" font-family="Helvetica,sans-Serif" font-size="10.00">queue</text>
</g>
<!-- Node2&#45;&gt;Node6 -->
<g id="edge5" class="edge"><title>Node2&#45;&gt;Node6</title>
<path fill="none" stroke="midnightblue" d="M208.252,-236.437C169.976,-228.39 111.527,-215.613 52.4488,-200.256"/>
<polygon fill="midnightblue" stroke="midnightblue" points="53.1405,-196.82 42.5797,-197.668 51.3646,-203.591 53.1405,-196.82"/>
</g>
<!-- Node7 -->
<g id="node7" class="node"><title>Node7</title>
<polygon fill="none" stroke="#bfbfbf" points="355,-124.5 355,-143.5 399,-143.5 399,-124.5 355,-124.5"/>
<text text-anchor="middle" x="377" y="-131.5" font-family="Helvetica,sans-Serif" font-size="10.00">vector</text>
</g>
<!-- Node2&#45;&gt;Node7 -->
<g id="edge6" class="edge"><title>Node2&#45;&gt;Node7</title>
<path fill="none" stroke="midnightblue" d="M255.874,-236.234C265.051,-222.974 283.838,-197.506 304,-180 318.202,-167.669 336.164,-156.55 350.716,-148.45"/>
<polygon fill="midnightblue" stroke="midnightblue" points="352.585,-151.418 359.713,-143.58 349.253,-145.262 352.585,-151.418"/>
</g>
<!-- Node8&#45;&gt;Node3 -->
<g id="edge40" class="edge"><title>Node8&#45;&gt;Node3</title>
<path fill="none" stroke="midnightblue" d="M1359.92,-243.831C1152.44,-240.206 562.429,-227.692 371,-200 369.745,-199.818 368.47,-199.612 367.185,-199.384"/>
<polygon fill="midnightblue" stroke="midnightblue" points="367.833,-195.944 357.329,-197.327 366.403,-202.796 367.833,-195.944"/>
</g>
<!-- Node8&#45;&gt;Node7 -->
<g id="edge42" class="edge"><title>Node8&#45;&gt;Node7</title>
<path fill="none" stroke="midnightblue" d="M1359.68,-243.964C1130.72,-240.445 441.915,-227.605 403,-200 388.149,-189.465 381.775,-169 379.043,-153.835"/>
<polygon fill="midnightblue" stroke="midnightblue" points="382.451,-152.935 377.584,-143.524 375.52,-153.916 382.451,-152.935"/>
</g>
<!-- Node9 -->
<g id="node9" class="node"><title>Node9</title>
<g id="a_node9"><a xlink:href="_human_state_provider_8h.html" target="_top" xlink:title="HumanStateProvider.h">
<polygon fill="none" stroke="black" points="1933,-180.5 1933,-199.5 2049,-199.5 2049,-180.5 1933,-180.5"/>
<text text-anchor="middle" x="1991" y="-187.5" font-family="Helvetica,sans-Serif" font-size="10.00">HumanStateProvider.h</text>
</a>
</g>
</g>
<!-- Node8&#45;&gt;Node9 -->
<g id="edge8" class="edge"><title>Node8&#45;&gt;Node9</title>
<path fill="none" stroke="midnightblue" d="M1506.31,-236.879C1509.24,-236.577 1512.15,-236.283 1515,-236 1694.38,-218.165 1739.76,-219.183 1919,-200 1920.27,-199.864 1921.55,-199.725 1922.84,-199.583"/>
<polygon fill="midnightblue" stroke="midnightblue" points="1923.32,-203.051 1932.86,-198.447 1922.53,-196.096 1923.32,-203.051"/>
</g>
<!-- Node11 -->
<g id="node11" class="node"><title>Node11</title>
<g id="a_node11"><a xlink:href="autogenerated_2include_2thrifts_2_human_state_8h.html" target="_top" xlink:title="thrifts/HumanState.h">
<polygon fill="none" stroke="black" points="2279.5,-180.5 2279.5,-199.5 2386.5,-199.5 2386.5,-180.5 2279.5,-180.5"/>
<text text-anchor="middle" x="2333" y="-187.5" font-family="Helvetica,sans-Serif" font-size="10.00">thrifts/HumanState.h</text>
</a>
</g>
</g>
<!-- Node8&#45;&gt;Node11 -->
<g id="edge10" class="edge"><title>Node8&#45;&gt;Node11</title>
<path fill="none" stroke="midnightblue" d="M1506.3,-236.729C1509.23,-236.469 1512.14,-236.225 1515,-236 1846.63,-209.919 1933.87,-231.362 2269.42,-199.949"/>
<polygon fill="midnightblue" stroke="midnightblue" points="2269.8,-203.429 2279.42,-199.004 2269.14,-196.46 2269.8,-203.429"/>
</g>
<!-- Node16 -->
<g id="node16" class="node"><title>Node16</title>
<polygon fill="none" stroke="#bfbfbf" points="2062.5,-124.5 2062.5,-143.5 2153.5,-143.5 2153.5,-124.5 2062.5,-124.5"/>
<text text-anchor="middle" x="2108" y="-131.5" font-family="Helvetica,sans-Serif" font-size="10.00">yarp/sig/Vector.h</text>
</g>
<!-- Node8&#45;&gt;Node16 -->
<g id="edge37" class="edge"><title>Node8&#45;&gt;Node16</title>
<path fill="none" stroke="midnightblue" d="M1506.3,-236.797C1509.24,-236.518 1512.15,-236.251 1515,-236 1635.24,-225.413 1950.26,-256.374 2057,-200 2076.56,-189.669 2091.06,-168.196 2099.5,-152.755"/>
<polygon fill="midnightblue" stroke="midnightblue" points="2102.72,-154.152 2104.16,-143.656 2096.49,-150.96 2102.72,-154.152"/>
</g>
<!-- Node17 -->
<g id="node17" class="node"><title>Node17</title>
<g id="a_node17"><a xlink:href="autogenerated_2include_2thrifts_2_human_state_provider_service_8h.html" target="_top" xlink:title="thrifts/HumanStateProvider\lService.h">
<polygon fill="none" stroke="black" points="2354.5,-57 2354.5,-87 2489.5,-87 2489.5,-57 2354.5,-57"/>
<text text-anchor="start" x="2362.5" y="-75" font-family="Helvetica,sans-Serif" font-size="10.00">thrifts/HumanStateProvider</text>
<text text-anchor="middle" x="2422" y="-64" font-family="Helvetica,sans-Serif" font-size="10.00">Service.h</text>
</a>
</g>
</g>
<!-- Node8&#45;&gt;Node17 -->
<g id="edge21" class="edge"><title>Node8&#45;&gt;Node17</title>
<path fill="none" stroke="midnightblue" d="M1506.29,-236.704C1509.23,-236.451 1512.14,-236.215 1515,-236 1563.79,-232.329 2357.61,-231.563 2395,-200 2424.48,-175.116 2426.61,-126.746 2424.78,-97.4118"/>
<polygon fill="midnightblue" stroke="midnightblue" points="2428.25,-96.8676 2423.94,-87.1899 2421.27,-97.4442 2428.25,-96.8676"/>
</g>
<!-- Node18 -->
<g id="node18" class="node"><title>Node18</title>
<polygon fill="none" stroke="#bfbfbf" points="2105,-180.5 2105,-199.5 2261,-199.5 2261,-180.5 2105,-180.5"/>
<text text-anchor="middle" x="2183" y="-187.5" font-family="Helvetica,sans-Serif" font-size="10.00">iDynTree/Core/MatrixDynSize.h</text>
</g>
<!-- Node8&#45;&gt;Node18 -->
<g id="edge24" class="edge"><title>Node8&#45;&gt;Node18</title>
<path fill="none" stroke="midnightblue" d="M1506.3,-236.783C1509.24,-236.508 1512.15,-236.246 1515,-236 1770.55,-214.002 1835.32,-220.49 2091,-200 2092.12,-199.91 2093.25,-199.819 2094.38,-199.725"/>
<polygon fill="midnightblue" stroke="midnightblue" points="2095.05,-203.181 2104.72,-198.846 2094.46,-196.206 2095.05,-203.181"/>
</g>
<!-- Node19 -->
<g id="node19" class="node"><title>Node19</title>
<polygon fill="none" stroke="#bfbfbf" points="579,-180.5 579,-199.5 737,-199.5 737,-180.5 579,-180.5"/>
<text text-anchor="middle" x="658" y="-187.5" font-family="Helvetica,sans-Serif" font-size="10.00">iDynTree/Core/VectorDynSize.h</text>
</g>
<!-- Node8&#45;&gt;Node19 -->
<g id="edge25" class="edge"><title>Node8&#45;&gt;Node19</title>
<path fill="none" stroke="midnightblue" d="M1359.98,-241.095C1236.24,-234.284 977.209,-219.191 747.372,-200.086"/>
<polygon fill="midnightblue" stroke="midnightblue" points="747.398,-196.576 737.141,-199.232 746.815,-203.552 747.398,-196.576"/>
</g>
<!-- Node20 -->
<g id="node20" class="node"><title>Node20</title>
<polygon fill="none" stroke="#bfbfbf" points="755,-180.5 755,-199.5 891,-199.5 891,-180.5 755,-180.5"/>
<text text-anchor="middle" x="823" y="-187.5" font-family="Helvetica,sans-Serif" font-size="10.00">iDynTree/Core/Transform.h</text>
</g>
<!-- Node8&#45;&gt;Node20 -->
<g id="edge26" class="edge"><title>Node8&#45;&gt;Node20</title>
<path fill="none" stroke="midnightblue" d="M1359.65,-239.557C1258.83,-231.907 1071.5,-217.097 901.166,-200.088"/>
<polygon fill="midnightblue" stroke="midnightblue" points="901.307,-196.585 891.007,-199.069 900.608,-203.55 901.307,-196.585"/>
</g>
<!-- Node21 -->
<g id="node21" class="node"><title>Node21</title>
<polygon fill="none" stroke="#bfbfbf" points="909.5,-180.5 909.5,-199.5 1040.5,-199.5 1040.5,-180.5 909.5,-180.5"/>
<text text-anchor="middle" x="975" y="-187.5" font-family="Helvetica,sans-Serif" font-size="10.00">iDynTree/Model/Indeces.h</text>
</g>
<!-- Node8&#45;&gt;Node21 -->
<g id="edge27" class="edge"><title>Node8&#45;&gt;Node21</title>
<path fill="none" stroke="midnightblue" d="M1359.73,-236.51C1284.72,-227.796 1164.44,-213.764 1051.02,-200.237"/>
<polygon fill="midnightblue" stroke="midnightblue" points="1051.11,-196.723 1040.77,-199.014 1050.28,-203.674 1051.11,-196.723"/>
</g>
<!-- Node22 -->
<g id="node22" class="node"><title>Node22</title>
<polygon fill="none" stroke="#bfbfbf" points="1058.5,-180.5 1058.5,-199.5 1219.5,-199.5 1219.5,-180.5 1058.5,-180.5"/>
<text text-anchor="middle" x="1139" y="-187.5" font-family="Helvetica,sans-Serif" font-size="10.00">iDynTree/KinDynComputations.h</text>
</g>
<!-- Node8&#45;&gt;Node22 -->
<g id="edge28" class="edge"><title>Node8&#45;&gt;Node22</title>
<path fill="none" stroke="midnightblue" d="M1386.41,-236.444C1334.59,-226.925 1250.87,-211.547 1195.38,-201.356"/>
<polygon fill="midnightblue" stroke="midnightblue" points="1195.84,-197.881 1185.37,-199.516 1194.57,-204.765 1195.84,-197.881"/>
</g>
<!-- Node8&#45;&gt;Node23 -->
<g id="edge29" class="edge"><title>Node8&#45;&gt;Node23</title>
<path fill="none" stroke="midnightblue" d="M1359.89,-242.568C1212.71,-237.371 869.993,-223.751 571.782,-200.102"/>
<polygon fill="midnightblue" stroke="midnightblue" points="571.885,-196.599 561.638,-199.292 571.328,-203.577 571.885,-196.599"/>
</g>
<!-- Node25 -->
<g id="node25" class="node"><title>Node25</title>
<polygon fill="none" stroke="#bfbfbf" points="1237.5,-124.5 1237.5,-143.5 1278.5,-143.5 1278.5,-124.5 1237.5,-124.5"/>
<text text-anchor="middle" x="1258" y="-131.5" font-family="Helvetica,sans-Serif" font-size="10.00">string</text>
</g>
<!-- Node8&#45;&gt;Node25 -->
<g id="edge41" class="edge"><title>Node8&#45;&gt;Node25</title>
<path fill="none" stroke="midnightblue" d="M1506.31,-236.907C1509.25,-236.598 1512.15,-236.295 1515,-236 1597.94,-227.425 1942.81,-241.028 1886,-180 1844.97,-135.927 1409.3,-134.385 1288.76,-134.811"/>
<polygon fill="midnightblue" stroke="midnightblue" points="1288.71,-131.311 1278.72,-134.854 1288.74,-138.311 1288.71,-131.311"/>
</g>
<!-- Node26 -->
<g id="node26" class="node"><title>Node26</title>
<polygon fill="none" stroke="#bfbfbf" points="1237.5,-180.5 1237.5,-199.5 1348.5,-199.5 1348.5,-180.5 1237.5,-180.5"/>
<text text-anchor="middle" x="1293" y="-187.5" font-family="Helvetica,sans-Serif" font-size="10.00">yarp/dev/PolyDriver.h</text>
</g>
<!-- Node8&#45;&gt;Node26 -->
<g id="edge33" class="edge"><title>Node8&#45;&gt;Node26</title>
<path fill="none" stroke="midnightblue" d="M1410.82,-236.444C1387.57,-227.478 1350.85,-213.314 1324.58,-203.183"/>
<polygon fill="midnightblue" stroke="midnightblue" points="1325.67,-199.85 1315.08,-199.516 1323.15,-206.381 1325.67,-199.85"/>
</g>
<!-- Node27 -->
<g id="node27" class="node"><title>Node27</title>
<polygon fill="none" stroke="#bfbfbf" points="1366.5,-180.5 1366.5,-199.5 1499.5,-199.5 1499.5,-180.5 1366.5,-180.5"/>
<text text-anchor="middle" x="1433" y="-187.5" font-family="Helvetica,sans-Serif" font-size="10.00">yarp/dev/PreciselyTimed.h</text>
</g>
<!-- Node8&#45;&gt;Node27 -->
<g id="edge34" class="edge"><title>Node8&#45;&gt;Node27</title>
<path fill="none" stroke="midnightblue" d="M1433,-236.083C1433,-229.006 1433,-218.861 1433,-209.986"/>
<polygon fill="midnightblue" stroke="midnightblue" points="1436.5,-209.751 1433,-199.751 1429.5,-209.751 1436.5,-209.751"/>
</g>
<!-- Node28 -->
<g id="node28" class="node"><title>Node28</title>
<polygon fill="none" stroke="#bfbfbf" points="1517.5,-180.5 1517.5,-199.5 1632.5,-199.5 1632.5,-180.5 1517.5,-180.5"/>
<text text-anchor="middle" x="1575" y="-187.5" font-family="Helvetica,sans-Serif" font-size="10.00">yarp/os/BufferedPort.h</text>
</g>
<!-- Node8&#45;&gt;Node28 -->
<g id="edge35" class="edge"><title>Node8&#45;&gt;Node28</title>
<path fill="none" stroke="midnightblue" d="M1455.5,-236.444C1479.08,-227.478 1516.32,-213.314 1542.96,-203.183"/>
<polygon fill="midnightblue" stroke="midnightblue" points="1544.5,-206.342 1552.6,-199.516 1542.01,-199.8 1544.5,-206.342"/>
</g>
<!-- Node29 -->
<g id="node29" class="node"><title>Node29</title>
<polygon fill="none" stroke="#bfbfbf" points="1651,-180.5 1651,-199.5 1729,-199.5 1729,-180.5 1651,-180.5"/>
<text text-anchor="middle" x="1690" y="-187.5" font-family="Helvetica,sans-Serif" font-size="10.00">yarp/os/Port.h</text>
</g>
<!-- Node8&#45;&gt;Node29 -->
<g id="edge36" class="edge"><title>Node8&#45;&gt;Node29</title>
<path fill="none" stroke="midnightblue" d="M1473.72,-236.444C1519.05,-226.92 1592.28,-211.533 1640.78,-201.343"/>
<polygon fill="midnightblue" stroke="midnightblue" points="1641.67,-204.732 1650.73,-199.251 1640.23,-197.882 1641.67,-204.732"/>
</g>
<!-- Node30 -->
<g id="node30" class="node"><title>Node30</title>
<polygon fill="none" stroke="#bfbfbf" points="1747.5,-180.5 1747.5,-199.5 1806.5,-199.5 1806.5,-180.5 1747.5,-180.5"/>
<text text-anchor="middle" x="1777" y="-187.5" font-family="Helvetica,sans-Serif" font-size="10.00">Eigen/QR</text>
</g>
<!-- Node8&#45;&gt;Node30 -->
<g id="edge38" class="edge"><title>Node8&#45;&gt;Node30</title>
<path fill="none" stroke="midnightblue" d="M1501.7,-236.467C1561.39,-228.687 1650.37,-216.214 1737.21,-200.016"/>
<polygon fill="midnightblue" stroke="midnightblue" points="1738.06,-203.417 1747.24,-198.127 1736.77,-196.538 1738.06,-203.417"/>
</g>
<!-- Node31 -->
<g id="node31" class="node"><title>Node31</title>
<polygon fill="none" stroke="#bfbfbf" points="1825,-180.5 1825,-199.5 1877,-199.5 1877,-180.5 1825,-180.5"/>
<text text-anchor="middle" x="1851" y="-187.5" font-family="Helvetica,sans-Serif" font-size="10.00">memory</text>
</g>
<!-- Node8&#45;&gt;Node31 -->
<g id="edge39" class="edge"><title>Node8&#45;&gt;Node31</title>
<path fill="none" stroke="midnightblue" d="M1506.2,-236.888C1601.59,-226.242 1761.61,-208.114 1814.82,-199.672"/>
<polygon fill="midnightblue" stroke="midnightblue" points="1815.47,-203.111 1824.74,-197.977 1814.29,-196.211 1815.47,-203.111"/>
</g>
<!-- Node10 -->
<g id="node10" class="node"><title>Node10</title>
<polygon fill="none" stroke="#bfbfbf" points="1938.5,-124.5 1938.5,-143.5 2043.5,-143.5 2043.5,-124.5 1938.5,-124.5"/>
<text text-anchor="middle" x="1991" y="-131.5" font-family="Helvetica,sans-Serif" font-size="10.00">yarp/os/RFModule.h</text>
</g>
<!-- Node9&#45;&gt;Node10 -->
<g id="edge9" class="edge"><title>Node9&#45;&gt;Node10</title>
<path fill="none" stroke="midnightblue" d="M1991,-180.083C1991,-173.006 1991,-162.861 1991,-153.986"/>
<polygon fill="midnightblue" stroke="midnightblue" points="1994.5,-153.751 1991,-143.751 1987.5,-153.751 1994.5,-153.751"/>
</g>
<!-- Node12 -->
<g id="node12" class="node"><title>Node12</title>
<polygon fill="none" stroke="#bfbfbf" points="2250,-0.5 2250,-19.5 2330,-19.5 2330,-0.5 2250,-0.5"/>
<text text-anchor="middle" x="2290" y="-7.5" font-family="Helvetica,sans-Serif" font-size="10.00">yarp/os/Wire.h</text>
</g>
<!-- Node11&#45;&gt;Node12 -->
<g id="edge11" class="edge"><title>Node11&#45;&gt;Node12</title>
<path fill="none" stroke="midnightblue" d="M2311.48,-180.471C2280.02,-166.611 2223.06,-135.837 2203,-88 2197.5,-74.8846 2195.61,-68.1491 2203,-56 2212.46,-40.4569 2229.21,-30.0455 2245.5,-23.1913"/>
<polygon fill="midnightblue" stroke="midnightblue" points="2246.9,-26.4035 2254.99,-19.5548 2244.4,-19.8676 2246.9,-26.4035"/>
</g>
<!-- Node13 -->
<g id="node13" class="node"><title>Node13</title>
<polygon fill="none" stroke="#bfbfbf" points="2410,-0.5 2410,-19.5 2530,-19.5 2530,-0.5 2410,-0.5"/>
<text text-anchor="middle" x="2470" y="-7.5" font-family="Helvetica,sans-Serif" font-size="10.00">yarp/os/idl/WireTypes.h</text>
</g>
<!-- Node11&#45;&gt;Node13 -->
<g id="edge12" class="edge"><title>Node11&#45;&gt;Node13</title>
<path fill="none" stroke="midnightblue" d="M2369.69,-180.432C2412.96,-168.142 2482.94,-140.909 2514,-88 2521.2,-75.7355 2519.37,-69.17 2514,-56 2509.2,-44.2251 2499.67,-33.8564 2490.71,-26.0486"/>
<polygon fill="midnightblue" stroke="midnightblue" points="2492.75,-23.2048 2482.78,-19.6314 2488.35,-28.6448 2492.75,-23.2048"/>
</g>
<!-- Node14 -->
<g id="node14" class="node"><title>Node14</title>
<g id="a_node14"><a xlink:href="human-state-provider_2autogenerated_2include_2thrifts_2_quaternion_8h.html" target="_top" xlink:title="thrifts/Quaternion.h">
<polygon fill="none" stroke="black" points="2283,-124.5 2283,-143.5 2383,-143.5 2383,-124.5 2283,-124.5"/>
<text text-anchor="middle" x="2333" y="-131.5" font-family="Helvetica,sans-Serif" font-size="10.00">thrifts/Quaternion.h</text>
</a>
</g>
</g>
<!-- Node11&#45;&gt;Node14 -->
<g id="edge13" class="edge"><title>Node11&#45;&gt;Node14</title>
<path fill="none" stroke="midnightblue" d="M2333,-180.083C2333,-173.006 2333,-162.861 2333,-153.986"/>
<polygon fill="midnightblue" stroke="midnightblue" points="2336.5,-153.751 2333,-143.751 2329.5,-153.751 2336.5,-153.751"/>
</g>
<!-- Node15 -->
<g id="node15" class="node"><title>Node15</title>
<g id="a_node15"><a xlink:href="human-state-provider_2autogenerated_2include_2thrifts_2_vector3_8h.html" target="_top" xlink:title="thrifts/Vector3.h">
<polygon fill="none" stroke="black" points="2212,-62.5 2212,-81.5 2298,-81.5 2298,-62.5 2212,-62.5"/>
<text text-anchor="middle" x="2255" y="-69.5" font-family="Helvetica,sans-Serif" font-size="10.00">thrifts/Vector3.h</text>
</a>
</g>
</g>
<!-- Node11&#45;&gt;Node15 -->
<g id="edge19" class="edge"><title>Node11&#45;&gt;Node15</title>
<path fill="none" stroke="midnightblue" d="M2316.29,-180.345C2302.92,-172.574 2284.68,-159.946 2274,-144 2263.47,-128.288 2258.77,-106.97 2256.67,-91.8035"/>
<polygon fill="midnightblue" stroke="midnightblue" points="2260.12,-91.1459 2255.52,-81.5999 2253.16,-91.9285 2260.12,-91.1459"/>
</g>
<!-- Node11&#45;&gt;Node16 -->
<g id="edge20" class="edge"><title>Node11&#45;&gt;Node16</title>
<path fill="none" stroke="midnightblue" d="M2297.35,-180.444C2258.34,-171.083 2195.73,-156.056 2153.28,-145.868"/>
<polygon fill="midnightblue" stroke="midnightblue" points="2154.03,-142.447 2143.49,-143.516 2152.39,-149.254 2154.03,-142.447"/>
</g>
<!-- Node14&#45;&gt;Node12 -->
<g id="edge14" class="edge"><title>Node14&#45;&gt;Node12</title>
<path fill="none" stroke="midnightblue" d="M2330.21,-124.42C2325.56,-110.162 2315.84,-80.7114 2307,-56 2303.83,-47.1422 2300.16,-37.3672 2297.04,-29.1971"/>
<polygon fill="midnightblue" stroke="midnightblue" points="2300.21,-27.6711 2293.35,-19.5932 2293.67,-30.1832 2300.21,-27.6711"/>
</g>
<!-- Node14&#45;&gt;Node13 -->
<g id="edge15" class="edge"><title>Node14&#45;&gt;Node13</title>
<path fill="none" stroke="midnightblue" d="M2383.26,-126.053C2426.49,-118.926 2484.03,-106.287 2498,-88 2511.82,-69.9026 2497.41,-44.3268 2484.67,-27.7037"/>
<polygon fill="midnightblue" stroke="midnightblue" points="2487.35,-25.4521 2478.31,-19.914 2481.92,-29.8759 2487.35,-25.4521"/>
</g>
<!-- Node14&#45;&gt;Node15 -->
<g id="edge16" class="edge"><title>Node14&#45;&gt;Node15</title>
<path fill="none" stroke="midnightblue" d="M2321.82,-124.403C2309.43,-114.869 2289.21,-99.3154 2274.25,-87.8106"/>
<polygon fill="midnightblue" stroke="midnightblue" points="2276.22,-84.9035 2266.15,-81.5806 2271.95,-90.4519 2276.22,-84.9035"/>
</g>
<!-- Node15&#45;&gt;Node12 -->
<g id="edge17" class="edge"><title>Node15&#45;&gt;Node12</title>
<path fill="none" stroke="midnightblue" d="M2260.01,-62.4035C2265.16,-53.5816 2273.31,-39.6075 2279.82,-28.4548"/>
<polygon fill="midnightblue" stroke="midnightblue" points="2282.98,-29.982 2284.99,-19.5806 2276.93,-26.4548 2282.98,-29.982"/>
</g>
<!-- Node15&#45;&gt;Node13 -->
<g id="edge18" class="edge"><title>Node15&#45;&gt;Node13</title>
<path fill="none" stroke="midnightblue" d="M2285.8,-62.4035C2323.56,-51.8663 2387.66,-33.9783 2429.41,-22.3276"/>
<polygon fill="midnightblue" stroke="midnightblue" points="2430.56,-25.6398 2439.25,-19.5806 2428.68,-18.8975 2430.56,-25.6398"/>
</g>
<!-- Node17&#45;&gt;Node12 -->
<g id="edge22" class="edge"><title>Node17&#45;&gt;Node12</title>
<path fill="none" stroke="midnightblue" d="M2391.05,-56.9327C2368.98,-46.9004 2339.54,-33.5193 2318.14,-23.7888"/>
<polygon fill="midnightblue" stroke="midnightblue" points="2319.47,-20.5518 2308.92,-19.6 2316.58,-26.9244 2319.47,-20.5518"/>
</g>
<!-- Node17&#45;&gt;Node13 -->
<g id="edge23" class="edge"><title>Node17&#45;&gt;Node13</title>
<path fill="none" stroke="midnightblue" d="M2433.38,-56.7808C2440.35,-48.0621 2449.31,-36.8574 2456.63,-27.7153"/>
<polygon fill="midnightblue" stroke="midnightblue" points="2459.5,-29.7257 2463.02,-19.7305 2454.04,-25.3528 2459.5,-29.7257"/>
</g>
<!-- Node23&#45;&gt;Node7 -->
<g id="edge32" class="edge"><title>Node23&#45;&gt;Node7</title>
<path fill="none" stroke="midnightblue" d="M469.327,-180.324C451.606,-171.625 424.097,-158.12 403.712,-148.113"/>
<polygon fill="midnightblue" stroke="midnightblue" points="405.149,-144.919 394.63,-143.655 402.064,-151.203 405.149,-144.919"/>
</g>
<!-- Node24 -->
<g id="node24" class="node"><title>Node24</title>
<polygon fill="none" stroke="#bfbfbf" points="417.5,-124.5 417.5,-143.5 570.5,-143.5 570.5,-124.5 417.5,-124.5"/>
<text text-anchor="middle" x="494" y="-131.5" font-family="Helvetica,sans-Serif" font-size="10.00">iDynTree/Core/VectorFixSize.h</text>
</g>
<!-- Node23&#45;&gt;Node24 -->
<g id="edge30" class="edge"><title>Node23&#45;&gt;Node24</title>
<path fill="none" stroke="midnightblue" d="M488.156,-180.083C489.084,-172.927 490.418,-162.635 491.577,-153.691"/>
<polygon fill="midnightblue" stroke="midnightblue" points="495.051,-154.118 492.866,-143.751 488.109,-153.218 495.051,-154.118"/>
</g>
<!-- Node23&#45;&gt;Node25 -->
<g id="edge31" class="edge"><title>Node23&#45;&gt;Node25</title>
<path fill="none" stroke="midnightblue" d="M561.642,-180.754C564.463,-180.491 567.256,-180.238 570,-180 823.476,-157.978 1130.34,-141.503 1227.19,-136.545"/>
<polygon fill="midnightblue" stroke="midnightblue" points="1227.62,-140.028 1237.43,-136.024 1227.27,-133.037 1227.62,-140.028"/>
</g>
</g>
</svg>
