<?xml version="1.0" encoding="UTF-8" standalone="no"?>
<!DOCTYPE svg PUBLIC "-//W3C//DTD SVG 1.1//EN"
 "http://www.w3.org/Graphics/SVG/1.1/DTD/svg11.dtd">
<!-- Generated by graphviz version 2.36.0 (20140111.2315)
 -->
<!-- Title: /home/travis/build/robotology/human&#45;dynamics&#45;estimation/human&#45;dynamics&#45;estimator/include/HumanDynamicsEstimator.h Pages: 1 -->
<!--zoomable 298 -->
<svg id="main" version="1.1" xmlns="http://www.w3.org/2000/svg" xmlns:xlink="http://www.w3.org/1999/xlink" xml:space="preserve" onload="init(evt)">
<style type="text/css"><![CDATA[
.edge:hover path { stroke: red; }
.edge:hover polygon { stroke: red; fill: red; }
]]></style>
<script type="text/javascript"><![CDATA[
var edges = document.getElementsByTagName('g');
if (edges && edges.length) {
  for (var i=0;i<edges.length;i++) {
    if (edges[i].id.substr(0,4)=='edge') {
      edges[i].setAttribute('class','edge');
    }
  }
}
]]></script>
        <defs>
                <circle id="rim" cx="0" cy="0" r="7"/>
                <circle id="rim2" cx="0" cy="0" r="3.5"/>
                <g id="zoomPlus">
                        <use xlink:href="#rim" fill="#404040">
                                <set attributeName="fill" to="#808080" begin="zoomplus.mouseover" end="zoomplus.mouseout"/>
                        </use>
                        <path d="M-4,0h8M0,-4v8" fill="none" stroke="white" stroke-width="1.5" pointer-events="none"/>
                </g>
                <g id="zoomMin">
                        <use xlink:href="#rim" fill="#404040">
                                <set attributeName="fill" to="#808080" begin="zoomminus.mouseover" end="zoomminus.mouseout"/>
                        </use>
                        <path d="M-4,0h8" fill="none" stroke="white" stroke-width="1.5" pointer-events="none"/>
                </g>
                <g id="dirArrow">
                        <path fill="none" stroke="white" stroke-width="1.5" d="M0,-3.0v7 M-2.5,-0.5L0,-3.0L2.5,-0.5"/>
                </g>
               <g id="resetDef">
                       <use xlink:href="#rim2" fill="#404040">
                               <set attributeName="fill" to="#808080" begin="reset.mouseover" end="reset.mouseout"/>
                       </use>
               </g>
        </defs>

<script type="text/javascript">
var viewWidth = 2264;
var viewHeight = 298;
var sectionId = 'dynsection-0';
</script>
<script xlink:href="svgpan.js"/>
<svg id="graph" class="graph">
<g id="viewport">
<title>/home/travis/build/robotology/human&#45;dynamics&#45;estimation/human&#45;dynamics&#45;estimator/include/HumanDynamicsEstimator.h</title>
<!-- Node1 -->
<g id="node1" class="node"><title>Node1</title>
<polygon fill="#bfbfbf" stroke="black" points="1268.08,-237 1268.08,-289 1491.08,-289 1491.08,-237 1268.08,-237"/>
<text text-anchor="start" x="1276.08" y="-277" font-family="Helvetica,sans-Serif" font-size="10.00">/home/travis/build</text>
<text text-anchor="start" x="1276.08" y="-266" font-family="Helvetica,sans-Serif" font-size="10.00">/robotology/human&#45;dynamics</text>
<text text-anchor="start" x="1276.08" y="-255" font-family="Helvetica,sans-Serif" font-size="10.00">&#45;estimation/human&#45;dynamics</text>
<text text-anchor="middle" x="1379.58" y="-244" font-family="Helvetica,sans-Serif" font-size="10.00">&#45;estimator/include/HumanDynamicsEstimator.h</text>
</g>
<!-- Node2 -->
<g id="node2" class="node"><title>Node2</title>
<g id="a_node2"><a xlink:href="autogenerated_2include_2thrifts_2_human_dynamics_8h.html" target="_top" xlink:title="thrifts/HumanDynamics.h">
<polygon fill="none" stroke="black" points="255.583,-112.5 255.583,-131.5 383.583,-131.5 383.583,-112.5 255.583,-112.5"/>
<text text-anchor="middle" x="319.583" y="-119.5" font-family="Helvetica,sans-Serif" font-size="10.00">thrifts/HumanDynamics.h</text>
</a>
</g>
</g>
<!-- Node1&#45;&gt;Node2 -->
<g id="edge1" class="edge"><title>Node1&#45;&gt;Node2</title>
<path fill="none" stroke="midnightblue" d="M1267.72,-258.211C1067.28,-250.719 654.781,-231.913 514.583,-200 451.38,-185.613 381.746,-153.98 345.213,-136.058"/>
<polygon fill="midnightblue" stroke="midnightblue" points="346.754,-132.915 336.241,-131.604 343.642,-139.185 346.754,-132.915"/>
</g>
<!-- Node6 -->
<g id="node6" class="node"><title>Node6</title>
<polygon fill="none" stroke="#bfbfbf" points="0.0832366,-0.5 0.0832366,-19.5 91.0832,-19.5 91.0832,-0.5 0.0832366,-0.5"/>
<text text-anchor="middle" x="45.5832" y="-7.5" font-family="Helvetica,sans-Serif" font-size="10.00">yarp/sig/Vector.h</text>
</g>
<!-- Node1&#45;&gt;Node6 -->
<g id="edge35" class="edge"><title>Node1&#45;&gt;Node6</title>
<path fill="none" stroke="midnightblue" d="M1267.94,-259.484C1087.61,-254.377 721.303,-239.687 413.583,-200 256.853,-179.786 205.937,-202.653 64.5832,-132 31.3694,-115.399 17.6597,-109.933 2.58324,-76 -5.57497,-57.6379 10.2007,-38.7068 24.8884,-26.0455"/>
<polygon fill="midnightblue" stroke="midnightblue" points="27.179,-28.6949 32.7774,-19.7 22.7916,-23.2404 27.179,-28.6949"/>
</g>
<!-- Node8 -->
<g id="node8" class="node"><title>Node8</title>
<g id="a_node8"><a xlink:href="autogenerated_2include_2thrifts_2_human_state_8h.html" target="_top" xlink:title="thrifts/HumanState.h">
<polygon fill="none" stroke="black" points="534.083,-174.5 534.083,-193.5 641.083,-193.5 641.083,-174.5 534.083,-174.5"/>
<text text-anchor="middle" x="587.583" y="-181.5" font-family="Helvetica,sans-Serif" font-size="10.00">thrifts/HumanState.h</text>
</a>
</g>
</g>
<!-- Node1&#45;&gt;Node8 -->
<g id="edge12" class="edge"><title>Node1&#45;&gt;Node8</title>
<path fill="none" stroke="midnightblue" d="M1267.94,-257.816C1124.17,-251.217 866.935,-235.311 649.583,-200 642.826,-198.902 635.718,-197.46 628.821,-195.904"/>
<polygon fill="midnightblue" stroke="midnightblue" points="629.472,-192.461 618.935,-193.569 627.863,-199.274 629.472,-192.461"/>
</g>
<!-- Node11 -->
<g id="node11" class="node"><title>Node11</title>
<g id="a_node11"><a xlink:href="autogenerated_2include_2thrifts_2_human_forces_8h.html" target="_top" xlink:title="thrifts/HumanForces.h">
<polygon fill="none" stroke="black" points="495.583,-112.5 495.583,-131.5 609.583,-131.5 609.583,-112.5 495.583,-112.5"/>
<text text-anchor="middle" x="552.583" y="-119.5" font-family="Helvetica,sans-Serif" font-size="10.00">thrifts/HumanForces.h</text>
</a>
</g>
</g>
<!-- Node1&#45;&gt;Node11 -->
<g id="edge23" class="edge"><title>Node1&#45;&gt;Node11</title>
<path fill="none" stroke="midnightblue" d="M1268.04,-262.176C1047.84,-261.353 574.186,-253.33 524.583,-200 508.909,-183.148 524.232,-156.84 537.632,-139.76"/>
<polygon fill="midnightblue" stroke="midnightblue" points="540.578,-141.692 544.289,-131.769 535.199,-137.212 540.578,-141.692"/>
</g>
<!-- Node13 -->
<g id="node13" class="node"><title>Node13</title>
<polygon fill="none" stroke="#bfbfbf" points="659.083,-174.5 659.083,-193.5 808.083,-193.5 808.083,-174.5 659.083,-174.5"/>
<text text-anchor="middle" x="733.583" y="-181.5" font-family="Helvetica,sans-Serif" font-size="10.00">iDynTree/Core/SparseMatrix.h</text>
</g>
<!-- Node1&#45;&gt;Node13 -->
<g id="edge29" class="edge"><title>Node1&#45;&gt;Node13</title>
<path fill="none" stroke="midnightblue" d="M1267.93,-251.999C1154.13,-241.267 972.649,-222.668 816.583,-200 807.119,-198.625 797.081,-196.976 787.379,-195.281"/>
<polygon fill="midnightblue" stroke="midnightblue" points="787.886,-191.816 777.427,-193.508 786.659,-198.708 787.886,-191.816"/>
</g>
<!-- Node14 -->
<g id="node14" class="node"><title>Node14</title>
<polygon fill="none" stroke="#bfbfbf" points="825.583,-169 825.583,-199 931.583,-199 931.583,-169 825.583,-169"/>
<text text-anchor="start" x="833.583" y="-187" font-family="Helvetica,sans-Serif" font-size="10.00">iDynTree/Estimation</text>
<text text-anchor="middle" x="878.583" y="-176" font-family="Helvetica,sans-Serif" font-size="10.00">/BerdyHelper.h</text>
</g>
<!-- Node1&#45;&gt;Node14 -->
<g id="edge30" class="edge"><title>Node1&#45;&gt;Node14</title>
<path fill="none" stroke="midnightblue" d="M1267.67,-249.236C1181.19,-238.662 1058.34,-222.102 941.784,-200.123"/>
<polygon fill="midnightblue" stroke="midnightblue" points="942.087,-196.618 931.609,-198.187 940.779,-203.494 942.087,-196.618"/>
</g>
<!-- Node15 -->
<g id="node15" class="node"><title>Node15</title>
<polygon fill="none" stroke="#bfbfbf" points="950.083,-174.5 950.083,-193.5 1111.08,-193.5 1111.08,-174.5 950.083,-174.5"/>
<text text-anchor="middle" x="1030.58" y="-181.5" font-family="Helvetica,sans-Serif" font-size="10.00">iDynTree/KinDynComputations.h</text>
</g>
<!-- Node1&#45;&gt;Node15 -->
<g id="edge31" class="edge"><title>Node1&#45;&gt;Node15</title>
<path fill="none" stroke="midnightblue" d="M1267.72,-237.319C1204.24,-223.315 1128.02,-206.498 1079.45,-195.781"/>
<polygon fill="midnightblue" stroke="midnightblue" points="1080.04,-192.327 1069.52,-193.59 1078.53,-199.162 1080.04,-192.327"/>
</g>
<!-- Node16 -->
<g id="node16" class="node"><title>Node16</title>
<polygon fill="none" stroke="#bfbfbf" points="1129.08,-174.5 1129.08,-193.5 1240.08,-193.5 1240.08,-174.5 1129.08,-174.5"/>
<text text-anchor="middle" x="1184.58" y="-181.5" font-family="Helvetica,sans-Serif" font-size="10.00">yarp/dev/PolyDriver.h</text>
</g>
<!-- Node1&#45;&gt;Node16 -->
<g id="edge32" class="edge"><title>Node1&#45;&gt;Node16</title>
<path fill="none" stroke="midnightblue" d="M1316,-236.894C1282.5,-223.663 1242.88,-208.02 1215.97,-197.394"/>
<polygon fill="midnightblue" stroke="midnightblue" points="1216.91,-194 1206.32,-193.583 1214.33,-200.511 1216.91,-194"/>
</g>
<!-- Node17 -->
<g id="node17" class="node"><title>Node17</title>
<polygon fill="none" stroke="#bfbfbf" points="1258.08,-174.5 1258.08,-193.5 1373.08,-193.5 1373.08,-174.5 1258.08,-174.5"/>
<text text-anchor="middle" x="1315.58" y="-181.5" font-family="Helvetica,sans-Serif" font-size="10.00">yarp/os/BufferedPort.h</text>
</g>
<!-- Node1&#45;&gt;Node17 -->
<g id="edge33" class="edge"><title>Node1&#45;&gt;Node17</title>
<path fill="none" stroke="midnightblue" d="M1358.63,-236.787C1348.94,-225.137 1337.72,-211.636 1329.17,-201.341"/>
<polygon fill="midnightblue" stroke="midnightblue" points="1331.78,-199.011 1322.7,-193.558 1326.4,-203.485 1331.78,-199.011"/>
</g>
<!-- Node18 -->
<g id="node18" class="node"><title>Node18</title>
<polygon fill="none" stroke="#bfbfbf" points="1391.08,-174.5 1391.08,-193.5 1496.08,-193.5 1496.08,-174.5 1391.08,-174.5"/>
<text text-anchor="middle" x="1443.58" y="-181.5" font-family="Helvetica,sans-Serif" font-size="10.00">yarp/os/RFModule.h</text>
</g>
<!-- Node1&#45;&gt;Node18 -->
<g id="edge34" class="edge"><title>Node1&#45;&gt;Node18</title>
<path fill="none" stroke="midnightblue" d="M1400.54,-236.787C1410.22,-225.137 1421.44,-211.636 1430,-201.341"/>
<polygon fill="midnightblue" stroke="midnightblue" points="1432.77,-203.485 1436.47,-193.558 1427.39,-199.011 1432.77,-203.485"/>
</g>
<!-- Node19 -->
<g id="node19" class="node"><title>Node19</title>
<polygon fill="none" stroke="#bfbfbf" points="1514.08,-174.5 1514.08,-193.5 1579.08,-193.5 1579.08,-174.5 1514.08,-174.5"/>
<text text-anchor="middle" x="1546.58" y="-181.5" font-family="Helvetica,sans-Serif" font-size="10.00">Eigen/Core</text>
</g>
<!-- Node1&#45;&gt;Node19 -->
<g id="edge36" class="edge"><title>Node1&#45;&gt;Node19</title>
<path fill="none" stroke="midnightblue" d="M1434.27,-236.787C1462.57,-223.739 1495.9,-208.369 1518.86,-197.782"/>
<polygon fill="midnightblue" stroke="midnightblue" points="1520.41,-200.923 1528.02,-193.558 1517.48,-194.566 1520.41,-200.923"/>
</g>
<!-- Node20 -->
<g id="node20" class="node"><title>Node20</title>
<polygon fill="none" stroke="#bfbfbf" points="1597.08,-174.5 1597.08,-193.5 1670.08,-193.5 1670.08,-174.5 1597.08,-174.5"/>
<text text-anchor="middle" x="1633.58" y="-181.5" font-family="Helvetica,sans-Serif" font-size="10.00">Eigen/Dense</text>
</g>
<!-- Node1&#45;&gt;Node20 -->
<g id="edge37" class="edge"><title>Node1&#45;&gt;Node20</title>
<path fill="none" stroke="midnightblue" d="M1465.5,-236.926C1503.05,-225.829 1547.57,-212.487 1587.58,-200 1590.97,-198.942 1594.5,-197.824 1598.02,-196.696"/>
<polygon fill="midnightblue" stroke="midnightblue" points="1599.39,-199.931 1607.83,-193.525 1597.24,-193.27 1599.39,-199.931"/>
</g>
<!-- Node21 -->
<g id="node21" class="node"><title>Node21</title>
<polygon fill="none" stroke="#bfbfbf" points="1688.58,-174.5 1688.58,-193.5 1784.58,-193.5 1784.58,-174.5 1688.58,-174.5"/>
<text text-anchor="middle" x="1736.58" y="-181.5" font-family="Helvetica,sans-Serif" font-size="10.00">Eigen/SparseCore</text>
</g>
<!-- Node1&#45;&gt;Node21 -->
<g id="edge38" class="edge"><title>Node1&#45;&gt;Node21</title>
<path fill="none" stroke="midnightblue" d="M1491.33,-240.17C1547.63,-228.831 1616.88,-214.367 1678.58,-200 1683.9,-198.762 1689.48,-197.4 1694.98,-196.019"/>
<polygon fill="midnightblue" stroke="midnightblue" points="1695.92,-199.393 1704.74,-193.532 1694.19,-192.609 1695.92,-199.393"/>
</g>
<!-- Node22 -->
<g id="node22" class="node"><title>Node22</title>
<polygon fill="none" stroke="#bfbfbf" points="1802.58,-174.5 1802.58,-193.5 1918.58,-193.5 1918.58,-174.5 1802.58,-174.5"/>
<text text-anchor="middle" x="1860.58" y="-181.5" font-family="Helvetica,sans-Serif" font-size="10.00">Eigen/SparseCholesky</text>
</g>
<!-- Node1&#45;&gt;Node22 -->
<g id="edge39" class="edge"><title>Node1&#45;&gt;Node22</title>
<path fill="none" stroke="midnightblue" d="M1491.08,-247.506C1574.62,-236.113 1691.6,-219.028 1793.58,-200 1800.35,-198.737 1807.48,-197.28 1814.46,-195.78"/>
<polygon fill="midnightblue" stroke="midnightblue" points="1815.5,-199.135 1824.52,-193.572 1814,-192.298 1815.5,-199.135"/>
</g>
<!-- Node23 -->
<g id="node23" class="node"><title>Node23</title>
<polygon fill="none" stroke="#bfbfbf" points="1936.58,-174.5 1936.58,-193.5 2024.58,-193.5 2024.58,-174.5 1936.58,-174.5"/>
<text text-anchor="middle" x="1980.58" y="-181.5" font-family="Helvetica,sans-Serif" font-size="10.00">Eigen/SparseLU</text>
</g>
<!-- Node1&#45;&gt;Node23 -->
<g id="edge40" class="edge"><title>Node1&#45;&gt;Node23</title>
<path fill="none" stroke="midnightblue" d="M1491.16,-254.545C1602.25,-245.908 1777.29,-229.006 1926.58,-200 1932.02,-198.945 1937.7,-197.618 1943.26,-196.192"/>
<polygon fill="midnightblue" stroke="midnightblue" points="1944.29,-199.538 1953.03,-193.557 1942.47,-192.779 1944.29,-199.538"/>
</g>
<!-- Node24 -->
<g id="node24" class="node"><title>Node24</title>
<polygon fill="none" stroke="#bfbfbf" points="2043.08,-174.5 2043.08,-193.5 2102.08,-193.5 2102.08,-174.5 2043.08,-174.5"/>
<text text-anchor="middle" x="2072.58" y="-181.5" font-family="Helvetica,sans-Serif" font-size="10.00">functional</text>
</g>
<!-- Node1&#45;&gt;Node24 -->
<g id="edge41" class="edge"><title>Node1&#45;&gt;Node24</title>
<path fill="none" stroke="midnightblue" d="M1491.35,-260.321C1622.53,-256.306 1845.89,-243.068 2032.58,-200 2036.09,-199.192 2039.7,-198.152 2043.25,-196.997"/>
<polygon fill="midnightblue" stroke="midnightblue" points="2044.72,-200.189 2052.96,-193.535 2042.37,-193.595 2044.72,-200.189"/>
</g>
<!-- Node25 -->
<g id="node25" class="node"><title>Node25</title>
<polygon fill="none" stroke="#bfbfbf" points="2120.08,-174.5 2120.08,-193.5 2203.08,-193.5 2203.08,-174.5 2120.08,-174.5"/>
<text text-anchor="middle" x="2161.58" y="-181.5" font-family="Helvetica,sans-Serif" font-size="10.00">unordered_map</text>
</g>
<!-- Node1&#45;&gt;Node25 -->
<g id="edge42" class="edge"><title>Node1&#45;&gt;Node25</title>
<path fill="none" stroke="midnightblue" d="M1491.36,-259.499C1635.57,-254.683 1893.7,-240.662 2110.58,-200 2115.72,-199.036 2121.09,-197.764 2126.32,-196.367"/>
<polygon fill="midnightblue" stroke="midnightblue" points="2127.48,-199.677 2136.15,-193.576 2125.57,-192.943 2127.48,-199.677"/>
</g>
<!-- Node26 -->
<g id="node26" class="node"><title>Node26</title>
<polygon fill="none" stroke="#bfbfbf" points="2221.08,-174.5 2221.08,-193.5 2256.08,-193.5 2256.08,-174.5 2221.08,-174.5"/>
<text text-anchor="middle" x="2238.58" y="-181.5" font-family="Helvetica,sans-Serif" font-size="10.00">map</text>
</g>
<!-- Node1&#45;&gt;Node26 -->
<g id="edge43" class="edge"><title>Node1&#45;&gt;Node26</title>
<path fill="none" stroke="midnightblue" d="M1491.45,-259.607C1686.35,-254.452 2079.93,-239.393 2211.58,-200 2213.28,-199.493 2214.99,-198.867 2216.67,-198.162"/>
<polygon fill="midnightblue" stroke="midnightblue" points="2218.54,-201.141 2225.91,-193.525 2215.4,-194.885 2218.54,-201.141"/>
</g>
<!-- Node3 -->
<g id="node3" class="node"><title>Node3</title>
<polygon fill="none" stroke="#bfbfbf" points="408.583,-0.5 408.583,-19.5 488.583,-19.5 488.583,-0.5 408.583,-0.5"/>
<text text-anchor="middle" x="448.583" y="-7.5" font-family="Helvetica,sans-Serif" font-size="10.00">yarp/os/Wire.h</text>
</g>
<!-- Node2&#45;&gt;Node3 -->
<g id="edge2" class="edge"><title>Node2&#45;&gt;Node3</title>
<path fill="none" stroke="midnightblue" d="M288.309,-112.484C254.415,-101.724 207.775,-81.4949 228.583,-56 249.57,-30.2859 339.97,-18.8702 398.158,-14.1083"/>
<polygon fill="midnightblue" stroke="midnightblue" points="398.571,-17.5868 408.269,-13.3208 398.027,-10.608 398.571,-17.5868"/>
</g>
<!-- Node4 -->
<g id="node4" class="node"><title>Node4</title>
<polygon fill="none" stroke="#bfbfbf" points="554.583,-0.5 554.583,-19.5 674.583,-19.5 674.583,-0.5 554.583,-0.5"/>
<text text-anchor="middle" x="614.583" y="-7.5" font-family="Helvetica,sans-Serif" font-size="10.00">yarp/os/idl/WireTypes.h</text>
</g>
<!-- Node2&#45;&gt;Node4 -->
<g id="edge3" class="edge"><title>Node2&#45;&gt;Node4</title>
<path fill="none" stroke="midnightblue" d="M342.731,-112.368C394.969,-92.89 522.117,-45.479 582.163,-23.089"/>
<polygon fill="midnightblue" stroke="midnightblue" points="583.396,-26.3647 591.543,-19.5914 580.95,-19.8059 583.396,-26.3647"/>
</g>
<!-- Node5 -->
<g id="node5" class="node"><title>Node5</title>
<g id="a_node5"><a xlink:href="autogenerated_2include_2thrifts_2_joint_dynamics_estimation_8h.html" target="_top" xlink:title="thrifts/JointDynamicsEstimation.h">
<polygon fill="none" stroke="black" points="237.583,-56.5 237.583,-75.5 401.583,-75.5 401.583,-56.5 237.583,-56.5"/>
<text text-anchor="middle" x="319.583" y="-63.5" font-family="Helvetica,sans-Serif" font-size="10.00">thrifts/JointDynamicsEstimation.h</text>
</a>
</g>
</g>
<!-- Node2&#45;&gt;Node5 -->
<g id="edge4" class="edge"><title>Node2&#45;&gt;Node5</title>
<path fill="none" stroke="midnightblue" d="M319.583,-112.083C319.583,-105.006 319.583,-94.8611 319.583,-85.9865"/>
<polygon fill="midnightblue" stroke="midnightblue" points="323.083,-85.751 319.583,-75.7511 316.083,-85.7511 323.083,-85.751"/>
</g>
<!-- Node7 -->
<g id="node7" class="node"><title>Node7</title>
<g id="a_node7"><a xlink:href="autogenerated_2include_2thrifts_2_link_dynamics_estimation_8h.html" target="_top" xlink:title="thrifts/LinkDynamicsEstimation.h">
<polygon fill="none" stroke="black" points="20.0832,-56.5 20.0832,-75.5 181.083,-75.5 181.083,-56.5 20.0832,-56.5"/>
<text text-anchor="middle" x="100.583" y="-63.5" font-family="Helvetica,sans-Serif" font-size="10.00">thrifts/LinkDynamicsEstimation.h</text>
</a>
</g>
</g>
<!-- Node2&#45;&gt;Node7 -->
<g id="edge8" class="edge"><title>Node2&#45;&gt;Node7</title>
<path fill="none" stroke="midnightblue" d="M284.882,-112.444C246.998,-103.102 186.234,-88.1194 144.921,-77.9326"/>
<polygon fill="midnightblue" stroke="midnightblue" points="145.669,-74.5123 135.122,-75.5164 143.993,-81.3088 145.669,-74.5123"/>
</g>
<!-- Node5&#45;&gt;Node3 -->
<g id="edge5" class="edge"><title>Node5&#45;&gt;Node3</title>
<path fill="none" stroke="midnightblue" d="M340.024,-56.4435C361.254,-47.5566 394.682,-33.5632 418.838,-23.4514"/>
<polygon fill="midnightblue" stroke="midnightblue" points="420.366,-26.6064 428.238,-19.5164 417.663,-20.1493 420.366,-26.6064"/>
</g>
<!-- Node5&#45;&gt;Node4 -->
<g id="edge6" class="edge"><title>Node5&#45;&gt;Node4</title>
<path fill="none" stroke="midnightblue" d="M366.327,-56.4435C418.328,-46.9246 502.335,-31.5472 558.007,-21.3563"/>
<polygon fill="midnightblue" stroke="midnightblue" points="558.852,-24.7599 568.058,-19.5164 557.592,-17.8743 558.852,-24.7599"/>
</g>
<!-- Node5&#45;&gt;Node6 -->
<g id="edge7" class="edge"><title>Node5&#45;&gt;Node6</title>
<path fill="none" stroke="midnightblue" d="M276.167,-56.4435C228.068,-46.9641 150.488,-31.6747 98.7771,-21.4835"/>
<polygon fill="midnightblue" stroke="midnightblue" points="99.2843,-18.0162 88.7962,-19.5164 97.9307,-24.8841 99.2843,-18.0162"/>
</g>
<!-- Node7&#45;&gt;Node3 -->
<g id="edge9" class="edge"><title>Node7&#45;&gt;Node3</title>
<path fill="none" stroke="midnightblue" d="M155.725,-56.4435C222.49,-46.0834 333.977,-28.7837 398.421,-18.7838"/>
<polygon fill="midnightblue" stroke="midnightblue" points="399.001,-22.2358 408.346,-17.2437 397.927,-15.3186 399.001,-22.2358"/>
</g>
<!-- Node7&#45;&gt;Node4 -->
<g id="edge10" class="edge"><title>Node7&#45;&gt;Node4</title>
<path fill="none" stroke="midnightblue" d="M181.178,-56.5328C281.086,-46.0367 449.726,-28.3196 544.502,-18.3627"/>
<polygon fill="midnightblue" stroke="midnightblue" points="544.981,-21.8317 554.56,-17.3059 544.249,-14.87 544.981,-21.8317"/>
</g>
<!-- Node7&#45;&gt;Node6 -->
<g id="edge11" class="edge"><title>Node7&#45;&gt;Node6</title>
<path fill="none" stroke="midnightblue" d="M91.5011,-56.083C83.4119,-48.1409 71.3878,-36.3354 61.6731,-26.7973"/>
<polygon fill="midnightblue" stroke="midnightblue" points="64.0841,-24.2595 54.4964,-19.7511 59.18,-29.2545 64.0841,-24.2595"/>
</g>
<!-- Node8&#45;&gt;Node3 -->
<g id="edge13" class="edge"><title>Node8&#45;&gt;Node3</title>
<path fill="none" stroke="midnightblue" d="M556.544,-174.48C534.144,-166.82 504.76,-153.417 486.583,-132 461.378,-102.302 452.862,-55.8671 450.006,-30.0089"/>
<polygon fill="midnightblue" stroke="midnightblue" points="453.459,-29.3448 449.052,-19.7101 446.489,-29.9903 453.459,-29.3448"/>
</g>
<!-- Node8&#45;&gt;Node4 -->
<g id="edge14" class="edge"><title>Node8&#45;&gt;Node4</title>
<path fill="none" stroke="midnightblue" d="M622.648,-174.43C631.437,-172.306 640.851,-170.051 649.583,-168 719.697,-151.532 754.888,-181.095 807.583,-132 826.614,-114.269 820.764,-101.729 824.583,-76 825.888,-67.2075 830.171,-62.9126 824.583,-56 807.131,-34.412 738.934,-22.713 684.928,-16.7028"/>
<polygon fill="midnightblue" stroke="midnightblue" points="684.995,-13.1902 674.68,-15.6105 684.253,-20.1507 684.995,-13.1902"/>
</g>
<!-- Node8&#45;&gt;Node6 -->
<g id="edge22" class="edge"><title>Node8&#45;&gt;Node6</title>
<path fill="none" stroke="midnightblue" d="M533.811,-181.64C403.164,-177.065 75.0266,-157.524 10.5832,-76 -1.62193,-60.5598 13.4094,-40.2547 27.3931,-26.477"/>
<polygon fill="midnightblue" stroke="midnightblue" points="29.9034,-28.9229 34.8744,-19.5666 25.1537,-23.7808 29.9034,-28.9229"/>
</g>
<!-- Node9 -->
<g id="node9" class="node"><title>Node9</title>
<g id="a_node9"><a xlink:href="human-state-provider_2autogenerated_2include_2thrifts_2_quaternion_8h.html" target="_top" xlink:title="thrifts/Quaternion.h">
<polygon fill="none" stroke="black" points="698.583,-112.5 698.583,-131.5 798.583,-131.5 798.583,-112.5 698.583,-112.5"/>
<text text-anchor="middle" x="748.583" y="-119.5" font-family="Helvetica,sans-Serif" font-size="10.00">thrifts/Quaternion.h</text>
</a>
</g>
</g>
<!-- Node8&#45;&gt;Node9 -->
<g id="edge15" class="edge"><title>Node8&#45;&gt;Node9</title>
<path fill="none" stroke="midnightblue" d="M610.651,-174.403C638.268,-164.111 684.703,-146.806 715.98,-135.15"/>
<polygon fill="midnightblue" stroke="midnightblue" points="717.41,-138.352 725.559,-131.581 714.966,-131.793 717.41,-138.352"/>
</g>
<!-- Node10 -->
<g id="node10" class="node"><title>Node10</title>
<g id="a_node10"><a xlink:href="human-state-provider_2autogenerated_2include_2thrifts_2_vector3_8h.html" target="_top" xlink:title="thrifts/Vector3.h">
<polygon fill="none" stroke="black" points="679.583,-56.5 679.583,-75.5 765.583,-75.5 765.583,-56.5 679.583,-56.5"/>
<text text-anchor="middle" x="722.583" y="-63.5" font-family="Helvetica,sans-Serif" font-size="10.00">thrifts/Vector3.h</text>
</a>
</g>
</g>
<!-- Node8&#45;&gt;Node10 -->
<g id="edge21" class="edge"><title>Node8&#45;&gt;Node10</title>
<path fill="none" stroke="midnightblue" d="M597.73,-174.281C620.613,-154.619 676.462,-106.63 705.068,-82.0498"/>
<polygon fill="midnightblue" stroke="midnightblue" points="707.382,-84.6766 712.685,-75.5048 702.82,-79.3673 707.382,-84.6766"/>
</g>
<!-- Node9&#45;&gt;Node3 -->
<g id="edge16" class="edge"><title>Node9&#45;&gt;Node3</title>
<path fill="none" stroke="midnightblue" d="M757.083,-112.468C769.416,-99.0628 789.276,-72.8598 774.583,-56 765.613,-45.7065 588.228,-25.6905 498.975,-16.2142"/>
<polygon fill="midnightblue" stroke="midnightblue" points="499.116,-12.7098 488.803,-15.1395 498.38,-19.671 499.116,-12.7098"/>
</g>
<!-- Node9&#45;&gt;Node4 -->
<g id="edge17" class="edge"><title>Node9&#45;&gt;Node4</title>
<path fill="none" stroke="midnightblue" d="M766.374,-112.492C789.336,-100.373 824.447,-77.2487 807.583,-56 792.257,-36.6898 733.61,-24.8975 684.946,-18.2573"/>
<polygon fill="midnightblue" stroke="midnightblue" points="685.103,-14.748 674.733,-16.9177 684.193,-21.6885 685.103,-14.748"/>
</g>
<!-- Node9&#45;&gt;Node10 -->
<g id="edge18" class="edge"><title>Node9&#45;&gt;Node10</title>
<path fill="none" stroke="midnightblue" d="M744.29,-112.083C740.731,-104.691 735.561,-93.9533 731.159,-84.8111"/>
<polygon fill="midnightblue" stroke="midnightblue" points="734.288,-83.2427 726.797,-75.7511 727.981,-86.2795 734.288,-83.2427"/>
</g>
<!-- Node10&#45;&gt;Node3 -->
<g id="edge19" class="edge"><title>Node10&#45;&gt;Node3</title>
<path fill="none" stroke="midnightblue" d="M679.469,-56.5031C630.442,-46.8408 550.507,-31.0872 498.733,-20.8835"/>
<polygon fill="midnightblue" stroke="midnightblue" points="499.259,-17.4199 488.771,-18.9202 497.905,-24.2878 499.259,-17.4199"/>
</g>
<!-- Node10&#45;&gt;Node4 -->
<g id="edge20" class="edge"><title>Node10&#45;&gt;Node4</title>
<path fill="none" stroke="midnightblue" d="M705.231,-56.324C687.911,-47.6641 661.068,-34.2424 641.081,-24.249"/>
<polygon fill="midnightblue" stroke="midnightblue" points="642.402,-20.9962 631.892,-19.6545 639.271,-27.2572 642.402,-20.9962"/>
</g>
<!-- Node11&#45;&gt;Node3 -->
<g id="edge24" class="edge"><title>Node11&#45;&gt;Node3</title>
<path fill="none" stroke="midnightblue" d="M544.423,-112.368C527.032,-93.9744 486.091,-50.6712 463.76,-27.0519"/>
<polygon fill="midnightblue" stroke="midnightblue" points="466.119,-24.4534 456.706,-19.5914 461.033,-29.2625 466.119,-24.4534"/>
</g>
<!-- Node11&#45;&gt;Node4 -->
<g id="edge25" class="edge"><title>Node11&#45;&gt;Node4</title>
<path fill="none" stroke="midnightblue" d="M582.831,-112.488C600.708,-105.726 621.884,-94.2949 632.583,-76 641.241,-61.197 634.102,-42.058 626.406,-28.3888"/>
<polygon fill="midnightblue" stroke="midnightblue" points="629.166,-26.1978 620.923,-19.5424 623.217,-29.8859 629.166,-26.1978"/>
</g>
<!-- Node12 -->
<g id="node12" class="node"><title>Node12</title>
<g id="a_node12"><a xlink:href="autogenerated_2include_2thrifts_2_force6_d_8h.html" target="_top" xlink:title="thrifts/Force6D.h">
<polygon fill="none" stroke="black" points="533.583,-56.5 533.583,-75.5 623.583,-75.5 623.583,-56.5 533.583,-56.5"/>
<text text-anchor="middle" x="578.583" y="-63.5" font-family="Helvetica,sans-Serif" font-size="10.00">thrifts/Force6D.h</text>
</a>
</g>
</g>
<!-- Node11&#45;&gt;Node12 -->
<g id="edge26" class="edge"><title>Node11&#45;&gt;Node12</title>
<path fill="none" stroke="midnightblue" d="M556.877,-112.083C560.436,-104.691 565.606,-93.9533 570.008,-84.8111"/>
<polygon fill="midnightblue" stroke="midnightblue" points="573.185,-86.2795 574.37,-75.7511 566.878,-83.2427 573.185,-86.2795"/>
</g>
<!-- Node12&#45;&gt;Node3 -->
<g id="edge27" class="edge"><title>Node12&#45;&gt;Node3</title>
<path fill="none" stroke="midnightblue" d="M557.984,-56.4435C536.59,-47.5566 502.902,-33.5632 478.559,-23.4514"/>
<polygon fill="midnightblue" stroke="midnightblue" points="479.663,-20.1203 469.086,-19.5164 476.978,-26.5848 479.663,-20.1203"/>
</g>
<!-- Node12&#45;&gt;Node4 -->
<g id="edge28" class="edge"><title>Node12&#45;&gt;Node4</title>
<path fill="none" stroke="midnightblue" d="M584.528,-56.083C589.561,-48.5341 596.92,-37.4948 603.097,-28.2298"/>
<polygon fill="midnightblue" stroke="midnightblue" points="606.114,-30.0131 608.749,-19.7511 600.29,-26.1301 606.114,-30.0131"/>
</g>
</g>
</svg>
        <g id="navigator" transform="translate(0 0)" fill="#404254">
                <rect fill="#f2f5e9" fill-opacity="0.5" stroke="#606060" stroke-width=".5" x="0" y="0" width="60" height="60"/>
                <use id="zoomplus" xlink:href="#zoomPlus" x="17" y="9" onmousedown="handleZoom(evt,'in')"/>
                <use id="zoomminus" xlink:href="#zoomMin" x="42" y="9" onmousedown="handleZoom(evt,'out')"/>
                <use id="reset" xlink:href="#resetDef" x="30" y="36" onmousedown="handleReset()"/>
                <g id="arrowUp" xlink:href="#dirArrow" transform="translate(30 24)" onmousedown="handlePan(0,-1)">
                  <use xlink:href="#rim" fill="#404040">
                        <set attributeName="fill" to="#808080" begin="arrowUp.mouseover" end="arrowUp.mouseout"/>
                  </use>
                  <path fill="none" stroke="white" stroke-width="1.5" d="M0,-3.0v7 M-2.5,-0.5L0,-3.0L2.5,-0.5"/>
                </g>
                <g id="arrowRight" xlink:href="#dirArrow" transform="rotate(90) translate(36 -43)" onmousedown="handlePan(1,0)">
                  <use xlink:href="#rim" fill="#404040">
                        <set attributeName="fill" to="#808080" begin="arrowRight.mouseover" end="arrowRight.mouseout"/>
                  </use>
                  <path fill="none" stroke="white" stroke-width="1.5" d="M0,-3.0v7 M-2.5,-0.5L0,-3.0L2.5,-0.5"/>
                </g>
                <g id="arrowDown" xlink:href="#dirArrow" transform="rotate(180) translate(-30 -48)" onmousedown="handlePan(0,1)">
                  <use xlink:href="#rim" fill="#404040">
                        <set attributeName="fill" to="#808080" begin="arrowDown.mouseover" end="arrowDown.mouseout"/>
                  </use>
                  <path fill="none" stroke="white" stroke-width="1.5" d="M0,-3.0v7 M-2.5,-0.5L0,-3.0L2.5,-0.5"/>
                </g>
                <g id="arrowLeft" xlink:href="#dirArrow" transform="rotate(270) translate(-36 17)" onmousedown="handlePan(-1,0)">
                  <use xlink:href="#rim" fill="#404040">
                        <set attributeName="fill" to="#808080" begin="arrowLeft.mouseover" end="arrowLeft.mouseout"/>
                  </use>
                  <path fill="none" stroke="white" stroke-width="1.5" d="M0,-3.0v7 M-2.5,-0.5L0,-3.0L2.5,-0.5"/>
                </g>
        </g>
        <svg viewBox="0 0 15 15" width="100%" height="30px" preserveAspectRatio="xMaxYMin meet">
         <g id="arrow_out" transform="scale(0.3 0.3)">
          <a xlink:href="_human_dynamics_estimator_8h__incl_org.svg" target="_base">
           <rect id="button" ry="5" rx="5" y="6" x="6" height="38" width="38"
                fill="#f2f5e9" fill-opacity="0.5" stroke="#606060" stroke-width="1.0"/>
           <path id="arrow"
             d="M 11.500037,31.436501 C 11.940474,20.09759 22.043105,11.32322 32.158766,21.979434 L 37.068811,17.246167 C 37.068811,17.246167 37.088388,32 37.088388,32 L 22.160133,31.978069 C 22.160133,31.978069 26.997745,27.140456 26.997745,27.140456 C 18.528582,18.264221 13.291696,25.230495 11.500037,31.436501 z"
             style="fill:#404040;"/>
          </a>
         </g>
        </svg>
</svg>
