<?xml version="1.0" encoding="UTF-8" standalone="no"?>
<!DOCTYPE svg PUBLIC "-//W3C//DTD SVG 1.1//EN"
 "http://www.w3.org/Graphics/SVG/1.1/DTD/svg11.dtd">
<!-- Generated by graphviz version 2.36.0 (20140111.2315)
 -->
<!-- Title: /home/travis/build/robotology/human&#45;dynamics&#45;estimation/build/human&#45;state&#45;provider/_yarp_idl_/thrifts/humanstate/HumanState_index.h Pages: 1 -->
<svg width="508pt" height="296pt"
 viewBox="0.00 0.00 508.07 296.00" xmlns="http://www.w3.org/2000/svg" xmlns:xlink="http://www.w3.org/1999/xlink">
<g id="graph0" class="graph" transform="scale(1 1) rotate(0) translate(4 292)">
<title>/home/travis/build/robotology/human&#45;dynamics&#45;estimation/build/human&#45;state&#45;provider/_yarp_idl_/thrifts/humanstate/HumanState_index.h</title>
<!-- Node1 -->
<g id="node1" class="node"><title>Node1</title>
<polygon fill="#bfbfbf" stroke="black" points="95,-224.5 95,-287.5 293,-287.5 293,-224.5 95,-224.5"/>
<text text-anchor="start" x="103" y="-275.5" font-family="Helvetica,sans-Serif" font-size="10.00">/home/travis/build</text>
<text text-anchor="start" x="103" y="-264.5" font-family="Helvetica,sans-Serif" font-size="10.00">/robotology/human&#45;dynamics</text>
<text text-anchor="start" x="103" y="-253.5" font-family="Helvetica,sans-Serif" font-size="10.00">&#45;estimation/build/human</text>
<text text-anchor="start" x="103" y="-242.5" font-family="Helvetica,sans-Serif" font-size="10.00">&#45;state&#45;provider/_yarp_idl</text>
<text text-anchor="middle" x="194" y="-231.5" font-family="Helvetica,sans-Serif" font-size="10.00">_/thrifts/humanstate/HumanState_index.h</text>
</g>
<!-- Node2 -->
<g id="node2" class="node"><title>Node2</title>
<polygon fill="none" stroke="#bfbfbf" points="-0.5,-168.5 -0.5,-187.5 52.5,-187.5 52.5,-168.5 -0.5,-168.5"/>
<text text-anchor="middle" x="26" y="-175.5" font-family="Helvetica,sans-Serif" font-size="10.00">Vector.h</text>
</g>
<!-- Node1&#45;&gt;Node2 -->
<g id="edge1" class="edge"><title>Node1&#45;&gt;Node2</title>
<path fill="none" stroke="midnightblue" d="M126.152,-224.307C101.067,-212.959 73.9844,-200.707 54.3147,-191.809"/>
<polygon fill="midnightblue" stroke="midnightblue" points="55.579,-188.54 45.0253,-187.607 52.6938,-194.917 55.579,-188.54"/>
</g>
<!-- Node3 -->
<g id="node3" class="node"><title>Node3</title>
<g id="a_node3"><a xlink:href="human-state-provider_2__yarp__idl___2thrifts_2humanstate_2_vector3_8h.html" target="_top" xlink:title="Vector3.h">
<polygon fill="none" stroke="black" points="213.5,-56.5 213.5,-75.5 272.5,-75.5 272.5,-56.5 213.5,-56.5"/>
<text text-anchor="middle" x="243" y="-63.5" font-family="Helvetica,sans-Serif" font-size="10.00">Vector3.h</text>
</a>
</g>
</g>
<!-- Node1&#45;&gt;Node3 -->
<g id="edge2" class="edge"><title>Node1&#45;&gt;Node3</title>
<path fill="none" stroke="midnightblue" d="M166.148,-224.495C142.089,-194.276 114.59,-147.503 138,-112 152.456,-90.0772 180.047,-78.794 203.318,-73.0091"/>
<polygon fill="midnightblue" stroke="midnightblue" points="204.308,-76.3744 213.309,-70.7855 202.787,-69.5416 204.308,-76.3744"/>
</g>
<!-- Node6 -->
<g id="node6" class="node"><title>Node6</title>
<g id="a_node6"><a xlink:href="human-state-provider_2__yarp__idl___2thrifts_2humanstate_2_quaternion_8h.html" target="_top" xlink:title="Quaternion.h">
<polygon fill="none" stroke="black" points="413,-112.5 413,-131.5 485,-131.5 485,-112.5 413,-112.5"/>
<text text-anchor="middle" x="449" y="-119.5" font-family="Helvetica,sans-Serif" font-size="10.00">Quaternion.h</text>
</a>
</g>
</g>
<!-- Node1&#45;&gt;Node6 -->
<g id="edge5" class="edge"><title>Node1&#45;&gt;Node6</title>
<path fill="none" stroke="midnightblue" d="M253.143,-224.385C306.854,-196.581 383.543,-156.884 423.137,-136.388"/>
<polygon fill="midnightblue" stroke="midnightblue" points="425.095,-139.315 432.367,-131.61 421.877,-133.099 425.095,-139.315"/>
</g>
<!-- Node8 -->
<g id="node8" class="node"><title>Node8</title>
<g id="a_node8"><a xlink:href="__yarp__idl___2thrifts_2humanstate_2_human_state_8h.html" target="_top" xlink:title="HumanState.h">
<polygon fill="none" stroke="black" points="211,-168.5 211,-187.5 291,-187.5 291,-168.5 211,-168.5"/>
<text text-anchor="middle" x="251" y="-175.5" font-family="Helvetica,sans-Serif" font-size="10.00">HumanState.h</text>
</a>
</g>
</g>
<!-- Node1&#45;&gt;Node8 -->
<g id="edge11" class="edge"><title>Node1&#45;&gt;Node8</title>
<path fill="none" stroke="midnightblue" d="M217.184,-224.088C224.427,-214.43 232.145,-204.14 238.376,-195.831"/>
<polygon fill="midnightblue" stroke="midnightblue" points="241.261,-197.818 244.461,-187.718 235.661,-193.618 241.261,-197.818"/>
</g>
<!-- Node4 -->
<g id="node4" class="node"><title>Node4</title>
<polygon fill="none" stroke="#bfbfbf" points="203,-0.5 203,-19.5 283,-19.5 283,-0.5 203,-0.5"/>
<text text-anchor="middle" x="243" y="-7.5" font-family="Helvetica,sans-Serif" font-size="10.00">yarp/os/Wire.h</text>
</g>
<!-- Node3&#45;&gt;Node4 -->
<g id="edge3" class="edge"><title>Node3&#45;&gt;Node4</title>
<path fill="none" stroke="midnightblue" d="M243,-56.083C243,-49.0059 243,-38.8611 243,-29.9865"/>
<polygon fill="midnightblue" stroke="midnightblue" points="246.5,-29.751 243,-19.7511 239.5,-29.7511 246.5,-29.751"/>
</g>
<!-- Node5 -->
<g id="node5" class="node"><title>Node5</title>
<polygon fill="none" stroke="#bfbfbf" points="312,-0.5 312,-19.5 432,-19.5 432,-0.5 312,-0.5"/>
<text text-anchor="middle" x="372" y="-7.5" font-family="Helvetica,sans-Serif" font-size="10.00">yarp/os/idl/WireTypes.h</text>
</g>
<!-- Node3&#45;&gt;Node5 -->
<g id="edge4" class="edge"><title>Node3&#45;&gt;Node5</title>
<path fill="none" stroke="midnightblue" d="M263.44,-56.4435C284.67,-47.5566 318.099,-33.5632 342.255,-23.4514"/>
<polygon fill="midnightblue" stroke="midnightblue" points="343.782,-26.6064 351.655,-19.5164 341.079,-20.1493 343.782,-26.6064"/>
</g>
<!-- Node6&#45;&gt;Node4 -->
<g id="edge6" class="edge"><title>Node6&#45;&gt;Node4</title>
<path fill="none" stroke="midnightblue" d="M448.195,-112.418C446.414,-98.4561 440.853,-70.8902 424,-56 414.096,-47.2497 343.217,-31.3595 293.158,-20.9942"/>
<polygon fill="midnightblue" stroke="midnightblue" points="293.635,-17.5192 283.135,-18.9347 292.226,-24.3759 293.635,-17.5192"/>
</g>
<!-- Node6&#45;&gt;Node5 -->
<g id="edge7" class="edge"><title>Node6&#45;&gt;Node5</title>
<path fill="none" stroke="midnightblue" d="M453.295,-112.29C459.127,-99.1021 467.674,-73.7279 457,-56 447.713,-40.5744 431.167,-30.1596 415.126,-23.2713"/>
<polygon fill="midnightblue" stroke="midnightblue" points="416.386,-20.006 405.799,-19.6119 413.83,-26.5224 416.386,-20.006"/>
</g>
<!-- Node7 -->
<g id="node7" class="node"><title>Node7</title>
<g id="a_node7"><a xlink:href="human-state-provider_2autogenerated_2include_2thrifts_2_vector3_8h.html" target="_top" xlink:title="thrifts/Vector3.h">
<polygon fill="none" stroke="black" points="329,-56.5 329,-75.5 415,-75.5 415,-56.5 329,-56.5"/>
<text text-anchor="middle" x="372" y="-63.5" font-family="Helvetica,sans-Serif" font-size="10.00">thrifts/Vector3.h</text>
</a>
</g>
</g>
<!-- Node6&#45;&gt;Node7 -->
<g id="edge8" class="edge"><title>Node6&#45;&gt;Node7</title>
<path fill="none" stroke="midnightblue" d="M436.629,-112.324C424.842,-104.058 406.868,-91.4527 392.864,-81.6322"/>
<polygon fill="midnightblue" stroke="midnightblue" points="394.538,-78.5307 384.341,-75.6545 390.518,-84.2619 394.538,-78.5307"/>
</g>
<!-- Node7&#45;&gt;Node4 -->
<g id="edge9" class="edge"><title>Node7&#45;&gt;Node4</title>
<path fill="none" stroke="midnightblue" d="M351.56,-56.4435C330.33,-47.5566 296.901,-33.5632 272.745,-23.4514"/>
<polygon fill="midnightblue" stroke="midnightblue" points="273.921,-20.1493 263.345,-19.5164 271.218,-26.6064 273.921,-20.1493"/>
</g>
<!-- Node7&#45;&gt;Node5 -->
<g id="edge10" class="edge"><title>Node7&#45;&gt;Node5</title>
<path fill="none" stroke="midnightblue" d="M372,-56.083C372,-49.0059 372,-38.8611 372,-29.9865"/>
<polygon fill="midnightblue" stroke="midnightblue" points="375.5,-29.751 372,-19.7511 368.5,-29.7511 375.5,-29.751"/>
</g>
<!-- Node8&#45;&gt;Node4 -->
<g id="edge12" class="edge"><title>Node8&#45;&gt;Node4</title>
<path fill="none" stroke="midnightblue" d="M210.975,-172.39C185.458,-167.147 154.237,-155.943 138,-132 109.24,-89.5909 176.254,-45.5558 216.088,-24.1985"/>
<polygon fill="midnightblue" stroke="midnightblue" points="217.831,-27.2371 225.081,-19.5117 214.596,-21.0295 217.831,-27.2371"/>
</g>
<!-- Node8&#45;&gt;Node5 -->
<g id="edge13" class="edge"><title>Node8&#45;&gt;Node5</title>
<path fill="none" stroke="midnightblue" d="M291.102,-175.564C353.332,-172.398 468.655,-162.47 494,-132 510.141,-112.595 490.148,-74.2154 473,-56 458.254,-40.336 437.064,-29.7627 417.897,-22.8247"/>
<polygon fill="midnightblue" stroke="midnightblue" points="418.99,-19.4999 408.396,-19.6125 416.748,-26.1311 418.99,-19.4999"/>
</g>
<!-- Node8&#45;&gt;Node7 -->
<g id="edge18" class="edge"><title>Node8&#45;&gt;Node7</title>
<path fill="none" stroke="midnightblue" d="M291.281,-172.026C316.881,-166.627 348.408,-155.387 366,-132 375.891,-118.851 376.493,-99.7098 375.16,-85.6023"/>
<polygon fill="midnightblue" stroke="midnightblue" points="378.614,-85.0251 373.818,-75.5782 371.676,-85.9544 378.614,-85.0251"/>
</g>
<!-- Node9 -->
<g id="node9" class="node"><title>Node9</title>
<g id="a_node9"><a xlink:href="human-state-provider_2autogenerated_2include_2thrifts_2_quaternion_8h.html" target="_top" xlink:title="thrifts/Quaternion.h">
<polygon fill="none" stroke="black" points="257,-112.5 257,-131.5 357,-131.5 357,-112.5 257,-112.5"/>
<text text-anchor="middle" x="307" y="-119.5" font-family="Helvetica,sans-Serif" font-size="10.00">thrifts/Quaternion.h</text>
</a>
</g>
</g>
<!-- Node8&#45;&gt;Node9 -->
<g id="edge14" class="edge"><title>Node8&#45;&gt;Node9</title>
<path fill="none" stroke="midnightblue" d="M259.997,-168.324C268.194,-160.42 280.506,-148.548 290.472,-138.938"/>
<polygon fill="midnightblue" stroke="midnightblue" points="293.07,-141.295 297.839,-131.834 288.211,-136.256 293.07,-141.295"/>
</g>
<!-- Node10 -->
<g id="node10" class="node"><title>Node10</title>
<polygon fill="none" stroke="#bfbfbf" points="147.5,-112.5 147.5,-131.5 238.5,-131.5 238.5,-112.5 147.5,-112.5"/>
<text text-anchor="middle" x="193" y="-119.5" font-family="Helvetica,sans-Serif" font-size="10.00">yarp/sig/Vector.h</text>
</g>
<!-- Node8&#45;&gt;Node10 -->
<g id="edge19" class="edge"><title>Node8&#45;&gt;Node10</title>
<path fill="none" stroke="midnightblue" d="M241.681,-168.324C233.107,-160.341 220.188,-148.313 209.812,-138.653"/>
<polygon fill="midnightblue" stroke="midnightblue" points="212.192,-136.086 202.488,-131.834 207.422,-141.21 212.192,-136.086"/>
</g>
<!-- Node9&#45;&gt;Node4 -->
<g id="edge15" class="edge"><title>Node9&#45;&gt;Node4</title>
<path fill="none" stroke="midnightblue" d="M259.667,-112.422C238.898,-106.051 216.448,-95.0229 204,-76 193.056,-59.2756 208.824,-39.5177 223.461,-26.212"/>
<polygon fill="midnightblue" stroke="midnightblue" points="225.95,-28.6893 231.3,-19.5439 221.415,-23.3574 225.95,-28.6893"/>
</g>
<!-- Node9&#45;&gt;Node5 -->
<g id="edge16" class="edge"><title>Node9&#45;&gt;Node5</title>
<path fill="none" stroke="midnightblue" d="M306.988,-112.383C307.335,-99.3164 309.458,-74.0987 320,-56 327.042,-43.9104 338.533,-33.4595 348.925,-25.6804"/>
<polygon fill="midnightblue" stroke="midnightblue" points="351.115,-28.4185 357.273,-19.797 347.083,-22.6966 351.115,-28.4185"/>
</g>
<!-- Node9&#45;&gt;Node7 -->
<g id="edge17" class="edge"><title>Node9&#45;&gt;Node7</title>
<path fill="none" stroke="midnightblue" d="M317.443,-112.324C327.146,-104.263 341.815,-92.0765 353.5,-82.3695"/>
<polygon fill="midnightblue" stroke="midnightblue" points="355.911,-84.9163 361.367,-75.8339 351.438,-79.532 355.911,-84.9163"/>
</g>
</g>
</svg>
