<?xml version="1.0" encoding="UTF-8" standalone="no"?>
<!DOCTYPE svg PUBLIC "-//W3C//DTD SVG 1.1//EN"
 "http://www.w3.org/Graphics/SVG/1.1/DTD/svg11.dtd">
<!-- Generated by graphviz version 2.36.0 (20140111.2315)
 -->
<!-- Title: /home/travis/build/robotology/human&#45;dynamics&#45;estimation/human&#45;state&#45;provider/src/HumanStateProvider.cpp Pages: 1 -->
<svg width="3744pt" height="242pt"
 viewBox="0.00 0.00 3744.11 242.00" xmlns="http://www.w3.org/2000/svg" xmlns:xlink="http://www.w3.org/1999/xlink">
<g id="graph0" class="graph" transform="scale(1 1) rotate(0) translate(4 238)">
<title>/home/travis/build/robotology/human&#45;dynamics&#45;estimation/human&#45;state&#45;provider/src/HumanStateProvider.cpp</title>
<!-- Node1 -->
<g id="node1" class="node"><title>Node1</title>
<polygon fill="#bfbfbf" stroke="black" points="2048.61,-181 2048.61,-233 2231.61,-233 2231.61,-181 2048.61,-181"/>
<text text-anchor="start" x="2056.61" y="-221" font-family="Helvetica,sans-Serif" font-size="10.00">/home/travis/build</text>
<text text-anchor="start" x="2056.61" y="-210" font-family="Helvetica,sans-Serif" font-size="10.00">/robotology/human&#45;dynamics</text>
<text text-anchor="start" x="2056.61" y="-199" font-family="Helvetica,sans-Serif" font-size="10.00">&#45;estimation/human&#45;state</text>
<text text-anchor="middle" x="2140.11" y="-188" font-family="Helvetica,sans-Serif" font-size="10.00">&#45;provider/src/HumanStateProvider.cpp</text>
</g>
<!-- Node2 -->
<g id="node2" class="node"><title>Node2</title>
<g id="a_node2"><a xlink:href="_human_state_provider_8h.html" target="_top" xlink:title="HumanStateProvider.h">
<polygon fill="none" stroke="black" points="31.1069,-62.5 31.1069,-81.5 147.107,-81.5 147.107,-62.5 31.1069,-62.5"/>
<text text-anchor="middle" x="89.1069" y="-69.5" font-family="Helvetica,sans-Serif" font-size="10.00">HumanStateProvider.h</text>
</a>
</g>
</g>
<!-- Node1&#45;&gt;Node2 -->
<g id="edge1" class="edge"><title>Node1&#45;&gt;Node2</title>
<path fill="none" stroke="midnightblue" d="M2048.37,-204.201C1746.7,-198.031 787.178,-176.308 479.107,-144 353.594,-130.837 207.785,-100.102 135.157,-83.7223"/>
<polygon fill="midnightblue" stroke="midnightblue" points="135.93,-80.309 125.404,-81.5097 134.382,-87.1355 135.93,-80.309"/>
</g>
<!-- Node4 -->
<g id="node4" class="node"><title>Node4</title>
<g id="a_node4"><a xlink:href="_human_state_provider_private_8h.html" target="_top" xlink:title="HumanStateProviderPrivate.h">
<polygon fill="none" stroke="black" points="1280.11,-124.5 1280.11,-143.5 1426.11,-143.5 1426.11,-124.5 1280.11,-124.5"/>
<text text-anchor="middle" x="1353.11" y="-131.5" font-family="Helvetica,sans-Serif" font-size="10.00">HumanStateProviderPrivate.h</text>
</a>
</g>
</g>
<!-- Node1&#45;&gt;Node4 -->
<g id="edge3" class="edge"><title>Node1&#45;&gt;Node4</title>
<path fill="none" stroke="midnightblue" d="M2048.29,-197.716C1893.9,-183.789 1584.69,-155.892 1436.3,-142.505"/>
<polygon fill="midnightblue" stroke="midnightblue" points="1436.6,-139.018 1426.33,-141.606 1435.97,-145.99 1436.6,-139.018"/>
</g>
<!-- Node5 -->
<g id="node5" class="node"><title>Node5</title>
<polygon fill="none" stroke="#bfbfbf" points="165.607,-62.5 165.607,-81.5 272.607,-81.5 272.607,-62.5 165.607,-62.5"/>
<text text-anchor="middle" x="219.107" y="-69.5" font-family="Helvetica,sans-Serif" font-size="10.00">thrifts/HumanState.h</text>
</g>
<!-- Node1&#45;&gt;Node5 -->
<g id="edge32" class="edge"><title>Node1&#45;&gt;Node5</title>
<path fill="none" stroke="midnightblue" d="M2048.25,-205.672C1814.29,-204.08 1177.11,-194.998 649.107,-144 484.435,-128.095 443.436,-119.926 281.107,-88 274.903,-86.7798 268.382,-85.3579 261.995,-83.8847"/>
<polygon fill="midnightblue" stroke="midnightblue" points="262.67,-80.4477 252.132,-81.5494 261.057,-87.2594 262.67,-80.4477"/>
</g>
<!-- Node6 -->
<g id="node6" class="node"><title>Node6</title>
<polygon fill="none" stroke="#bfbfbf" points="290.607,-57 290.607,-87 425.607,-87 425.607,-57 290.607,-57"/>
<text text-anchor="start" x="298.607" y="-75" font-family="Helvetica,sans-Serif" font-size="10.00">thrifts/HumanStateProvider</text>
<text text-anchor="middle" x="358.107" y="-64" font-family="Helvetica,sans-Serif" font-size="10.00">Service.h</text>
</g>
<!-- Node1&#45;&gt;Node6 -->
<g id="edge33" class="edge"><title>Node1&#45;&gt;Node6</title>
<path fill="none" stroke="midnightblue" d="M2048.41,-205.12C1830.97,-202.303 1267.28,-190.702 799.107,-144 670.936,-131.214 523.437,-105.131 435.648,-88.3881"/>
<polygon fill="midnightblue" stroke="midnightblue" points="436.248,-84.9395 425.768,-86.4952 434.931,-91.8145 436.248,-84.9395"/>
</g>
<!-- Node8 -->
<g id="node8" class="node"><title>Node8</title>
<polygon fill="none" stroke="#bfbfbf" points="444.107,-62.5 444.107,-81.5 602.107,-81.5 602.107,-62.5 444.107,-62.5"/>
<text text-anchor="middle" x="523.107" y="-69.5" font-family="Helvetica,sans-Serif" font-size="10.00">iDynTree/Core/VectorDynSize.h</text>
</g>
<!-- Node1&#45;&gt;Node8 -->
<g id="edge37" class="edge"><title>Node1&#45;&gt;Node8</title>
<path fill="none" stroke="midnightblue" d="M2048.44,-204.894C1847.35,-201.673 1352.62,-189.4 941.107,-144 807.717,-129.284 652.317,-99.5186 573.91,-83.6029"/>
<polygon fill="midnightblue" stroke="midnightblue" points="574.321,-80.1148 563.823,-81.5455 572.922,-86.9736 574.321,-80.1148"/>
</g>
<!-- Node9 -->
<g id="node9" class="node"><title>Node9</title>
<polygon fill="none" stroke="#bfbfbf" points="620.107,-62.5 620.107,-81.5 756.107,-81.5 756.107,-62.5 620.107,-62.5"/>
<text text-anchor="middle" x="688.107" y="-69.5" font-family="Helvetica,sans-Serif" font-size="10.00">iDynTree/Core/Transform.h</text>
</g>
<!-- Node1&#45;&gt;Node9 -->
<g id="edge35" class="edge"><title>Node1&#45;&gt;Node9</title>
<path fill="none" stroke="midnightblue" d="M2048.34,-204.453C1863.15,-200.499 1431.71,-187.071 1072.11,-144 949.882,-129.361 807.865,-99.771 735.616,-83.8027"/>
<polygon fill="midnightblue" stroke="midnightblue" points="735.994,-80.3014 725.473,-81.5489 734.476,-87.1348 735.994,-80.3014"/>
</g>
<!-- Node11 -->
<g id="node11" class="node"><title>Node11</title>
<polygon fill="none" stroke="#bfbfbf" points="774.607,-62.5 774.607,-81.5 935.607,-81.5 935.607,-62.5 774.607,-62.5"/>
<text text-anchor="middle" x="855.107" y="-69.5" font-family="Helvetica,sans-Serif" font-size="10.00">iDynTree/KinDynComputations.h</text>
</g>
<!-- Node1&#45;&gt;Node11 -->
<g id="edge40" class="edge"><title>Node1&#45;&gt;Node11</title>
<path fill="none" stroke="midnightblue" d="M2048.56,-204.501C1878.08,-200.725 1500.72,-187.726 1186.11,-144 1081.06,-129.4 959.64,-100.104 897.125,-84.0855"/>
<polygon fill="midnightblue" stroke="midnightblue" points="897.803,-80.6458 887.245,-81.5385 896.055,-87.4241 897.803,-80.6458"/>
</g>
<!-- Node12 -->
<g id="node12" class="node"><title>Node12</title>
<g id="a_node12"><a xlink:href="_inverse_kinematics_8h.html" target="_top" xlink:title="human&#45;ik/InverseKinematics.h">
<polygon fill="none" stroke="black" points="953.607,-62.5 953.607,-81.5 1102.61,-81.5 1102.61,-62.5 953.607,-62.5"/>
<text text-anchor="middle" x="1028.11" y="-69.5" font-family="Helvetica,sans-Serif" font-size="10.00">human&#45;ik/InverseKinematics.h</text>
</a>
</g>
</g>
<!-- Node1&#45;&gt;Node12 -->
<g id="edge34" class="edge"><title>Node1&#45;&gt;Node12</title>
<path fill="none" stroke="midnightblue" d="M2048.3,-205.846C1888.9,-204.16 1551.17,-194.311 1271.11,-144 1194.13,-130.172 1106.76,-101.264 1060.64,-84.9204"/>
<polygon fill="midnightblue" stroke="midnightblue" points="1061.76,-81.6068 1051.17,-81.5367 1059.41,-88.1984 1061.76,-81.6068"/>
</g>
<!-- Node13 -->
<g id="node13" class="node"><title>Node13</title>
<polygon fill="none" stroke="#bfbfbf" points="498.607,-0.5 498.607,-19.5 651.607,-19.5 651.607,-0.5 498.607,-0.5"/>
<text text-anchor="middle" x="575.107" y="-7.5" font-family="Helvetica,sans-Serif" font-size="10.00">iDynTree/Core/VectorFixSize.h</text>
</g>
<!-- Node1&#45;&gt;Node13 -->
<g id="edge36" class="edge"><title>Node1&#45;&gt;Node13</title>
<path fill="none" stroke="midnightblue" d="M2048.39,-205.381C1657.64,-202.474 147.531,-188.4 57.1069,-144 17.4926,-124.548 -18.8326,-88.4234 11.1069,-56 42.7616,-21.7191 338.132,-13.5361 488.307,-11.5952"/>
<polygon fill="midnightblue" stroke="midnightblue" points="488.468,-15.0936 498.424,-11.4711 488.382,-8.09412 488.468,-15.0936"/>
</g>
<!-- Node14 -->
<g id="node14" class="node"><title>Node14</title>
<polygon fill="none" stroke="#bfbfbf" points="1007.61,-0.5 1007.61,-19.5 1048.61,-19.5 1048.61,-0.5 1007.61,-0.5"/>
<text text-anchor="middle" x="1028.11" y="-7.5" font-family="Helvetica,sans-Serif" font-size="10.00">string</text>
</g>
<!-- Node1&#45;&gt;Node14 -->
<g id="edge53" class="edge"><title>Node1&#45;&gt;Node14</title>
<path fill="none" stroke="midnightblue" d="M2048.56,-204.585C1730.23,-199.393 672.634,-179.806 335.107,-144 194.575,-129.092 112.81,-196.371 22.1069,-88 12.9787,-77.0937 12.2775,-66.2789 22.1069,-56 39.3983,-37.9178 830.553,-16.1821 997.414,-11.7942"/>
<polygon fill="midnightblue" stroke="midnightblue" points="997.582,-15.2911 1007.49,-11.5305 997.398,-8.29348 997.582,-15.2911"/>
</g>
<!-- Node15 -->
<g id="node15" class="node"><title>Node15</title>
<polygon fill="none" stroke="#bfbfbf" points="1903.11,-0.5 1903.11,-19.5 1947.11,-19.5 1947.11,-0.5 1903.11,-0.5"/>
<text text-anchor="middle" x="1925.11" y="-7.5" font-family="Helvetica,sans-Serif" font-size="10.00">vector</text>
</g>
<!-- Node1&#45;&gt;Node15 -->
<g id="edge54" class="edge"><title>Node1&#45;&gt;Node15</title>
<path fill="none" stroke="midnightblue" d="M2185.48,-180.795C2227.85,-157.348 2285.4,-125.756 2291.11,-124 2446.31,-76.2088 2761.32,-174.332 2650.11,-56 2626.06,-30.4169 2095.11,-15.288 1957.46,-11.7868"/>
<polygon fill="midnightblue" stroke="midnightblue" points="1957.25,-8.28035 1947.16,-11.5279 1957.07,-15.2781 1957.25,-8.28035"/>
</g>
<!-- Node16 -->
<g id="node16" class="node"><title>Node16</title>
<polygon fill="none" stroke="#bfbfbf" points="1834.61,-62.5 1834.61,-81.5 1945.61,-81.5 1945.61,-62.5 1834.61,-62.5"/>
<text text-anchor="middle" x="1890.11" y="-69.5" font-family="Helvetica,sans-Serif" font-size="10.00">yarp/dev/PolyDriver.h</text>
</g>
<!-- Node1&#45;&gt;Node16 -->
<g id="edge46" class="edge"><title>Node1&#45;&gt;Node16</title>
<path fill="none" stroke="midnightblue" d="M2093.08,-180.984C2040.33,-152.92 1956.73,-108.445 1915.22,-86.358"/>
<polygon fill="midnightblue" stroke="midnightblue" points="1916.79,-83.2292 1906.31,-81.6224 1913.5,-89.4091 1916.79,-83.2292"/>
</g>
<!-- Node18 -->
<g id="node18" class="node"><title>Node18</title>
<polygon fill="none" stroke="#bfbfbf" points="1963.61,-62.5 1963.61,-81.5 2078.61,-81.5 2078.61,-62.5 1963.61,-62.5"/>
<text text-anchor="middle" x="2021.11" y="-69.5" font-family="Helvetica,sans-Serif" font-size="10.00">yarp/os/BufferedPort.h</text>
</g>
<!-- Node1&#45;&gt;Node18 -->
<g id="edge42" class="edge"><title>Node1&#45;&gt;Node18</title>
<path fill="none" stroke="midnightblue" d="M2113,-180.771C2101.59,-169.787 2088.37,-156.572 2077.11,-144 2061.14,-126.184 2044.34,-104.423 2033.36,-89.7248"/>
<polygon fill="midnightblue" stroke="midnightblue" points="2036.09,-87.5374 2027.33,-81.5843 2030.47,-91.7035 2036.09,-87.5374"/>
</g>
<!-- Node20 -->
<g id="node20" class="node"><title>Node20</title>
<polygon fill="none" stroke="#bfbfbf" points="2096.61,-62.5 2096.61,-81.5 2187.61,-81.5 2187.61,-62.5 2096.61,-62.5"/>
<text text-anchor="middle" x="2142.11" y="-69.5" font-family="Helvetica,sans-Serif" font-size="10.00">yarp/sig/Vector.h</text>
</g>
<!-- Node1&#45;&gt;Node20 -->
<g id="edge49" class="edge"><title>Node1&#45;&gt;Node20</title>
<path fill="none" stroke="midnightblue" d="M2105.46,-180.857C2088.58,-165.322 2073.73,-144.497 2083.11,-124 2090.2,-108.494 2104.59,-95.9016 2117.39,-87.1089"/>
<polygon fill="midnightblue" stroke="midnightblue" points="2119.37,-89.9967 2125.88,-81.6396 2115.58,-84.1115 2119.37,-89.9967"/>
</g>
<!-- Node21 -->
<g id="node21" class="node"><title>Node21</title>
<polygon fill="none" stroke="#bfbfbf" points="2205.61,-62.5 2205.61,-81.5 2264.61,-81.5 2264.61,-62.5 2205.61,-62.5"/>
<text text-anchor="middle" x="2235.11" y="-69.5" font-family="Helvetica,sans-Serif" font-size="10.00">Eigen/QR</text>
</g>
<!-- Node1&#45;&gt;Node21 -->
<g id="edge50" class="edge"><title>Node1&#45;&gt;Node21</title>
<path fill="none" stroke="midnightblue" d="M2122.33,-180.687C2112.69,-163.582 2104.84,-141.089 2116.11,-124 2118.71,-120.051 2169.37,-99.2334 2203.74,-85.4459"/>
<polygon fill="midnightblue" stroke="midnightblue" points="2205.4,-88.5536 2213.38,-81.5914 2202.8,-82.0538 2205.4,-88.5536"/>
</g>
<!-- Node24 -->
<g id="node24" class="node"><title>Node24</title>
<g id="a_node24"><a xlink:href="_human_i_k_worker_pool_8h.html" target="_top" xlink:title="HumanIKWorkerPool.h">
<polygon fill="none" stroke="black" points="2125.61,-124.5 2125.61,-143.5 2242.61,-143.5 2242.61,-124.5 2125.61,-124.5"/>
<text text-anchor="middle" x="2184.11" y="-131.5" font-family="Helvetica,sans-Serif" font-size="10.00">HumanIKWorkerPool.h</text>
</a>
</g>
</g>
<!-- Node1&#45;&gt;Node24 -->
<g id="edge26" class="edge"><title>Node1&#45;&gt;Node24</title>
<path fill="none" stroke="midnightblue" d="M2155.74,-180.768C2161.56,-171.385 2168.02,-160.955 2173.31,-152.425"/>
<polygon fill="midnightblue" stroke="midnightblue" points="2176.39,-154.101 2178.68,-143.757 2170.44,-150.414 2176.39,-154.101"/>
</g>
<!-- Node28 -->
<g id="node28" class="node"><title>Node28</title>
<polygon fill="none" stroke="#bfbfbf" points="2299.61,-124.5 2299.61,-143.5 2422.61,-143.5 2422.61,-124.5 2299.61,-124.5"/>
<text text-anchor="middle" x="2361.11" y="-131.5" font-family="Helvetica,sans-Serif" font-size="10.00">iDynTree/Model/Model.h</text>
</g>
<!-- Node1&#45;&gt;Node28 -->
<g id="edge38" class="edge"><title>Node1&#45;&gt;Node28</title>
<path fill="none" stroke="midnightblue" d="M2218.02,-180.968C2254.37,-169.29 2295.89,-155.951 2324.81,-146.662"/>
<polygon fill="midnightblue" stroke="midnightblue" points="2326.03,-149.945 2334.48,-143.554 2323.89,-143.281 2326.03,-149.945"/>
</g>
<!-- Node29 -->
<g id="node29" class="node"><title>Node29</title>
<polygon fill="none" stroke="#bfbfbf" points="2440.61,-124.5 2440.61,-143.5 2603.61,-143.5 2603.61,-124.5 2440.61,-124.5"/>
<text text-anchor="middle" x="2522.11" y="-131.5" font-family="Helvetica,sans-Serif" font-size="10.00">iDynTree/ModelIO/ModelLoader.h</text>
</g>
<!-- Node1&#45;&gt;Node29 -->
<g id="edge39" class="edge"><title>Node1&#45;&gt;Node29</title>
<path fill="none" stroke="midnightblue" d="M2232.09,-188.903C2305.18,-175.319 2405.01,-156.764 2466.44,-145.347"/>
<polygon fill="midnightblue" stroke="midnightblue" points="2467.13,-148.777 2476.33,-143.509 2465.86,-141.895 2467.13,-148.777"/>
</g>
<!-- Node30 -->
<g id="node30" class="node"><title>Node30</title>
<polygon fill="none" stroke="#bfbfbf" points="2622.11,-124.5 2622.11,-143.5 2772.11,-143.5 2772.11,-124.5 2622.11,-124.5"/>
<text text-anchor="middle" x="2697.11" y="-131.5" font-family="Helvetica,sans-Serif" font-size="10.00">iDynTree/Core/EigenHelpers.h</text>
</g>
<!-- Node1&#45;&gt;Node30 -->
<g id="edge41" class="edge"><title>Node1&#45;&gt;Node30</title>
<path fill="none" stroke="midnightblue" d="M2231.77,-194.316C2340.15,-180.501 2518.58,-157.756 2620.11,-144.814"/>
<polygon fill="midnightblue" stroke="midnightblue" points="2620.82,-148.253 2630.3,-143.516 2619.94,-141.309 2620.82,-148.253"/>
</g>
<!-- Node31 -->
<g id="node31" class="node"><title>Node31</title>
<polygon fill="none" stroke="#bfbfbf" points="2789.61,-124.5 2789.61,-143.5 2896.61,-143.5 2896.61,-124.5 2789.61,-124.5"/>
<text text-anchor="middle" x="2843.11" y="-131.5" font-family="Helvetica,sans-Serif" font-size="10.00">yarp/os/LogStream.h</text>
</g>
<!-- Node1&#45;&gt;Node31 -->
<g id="edge43" class="edge"><title>Node1&#45;&gt;Node31</title>
<path fill="none" stroke="midnightblue" d="M2231.66,-198.445C2353.95,-188.058 2577.59,-168.033 2779.32,-144.043"/>
<polygon fill="midnightblue" stroke="midnightblue" points="2780,-147.487 2789.51,-142.825 2779.17,-140.536 2780,-147.487"/>
</g>
<!-- Node32 -->
<g id="node32" class="node"><title>Node32</title>
<polygon fill="none" stroke="#bfbfbf" points="2914.61,-124.5 2914.61,-143.5 3043.61,-143.5 3043.61,-124.5 2914.61,-124.5"/>
<text text-anchor="middle" x="2979.11" y="-131.5" font-family="Helvetica,sans-Serif" font-size="10.00">yarp/os/ResourceFinder.h</text>
</g>
<!-- Node1&#45;&gt;Node32 -->
<g id="edge44" class="edge"><title>Node1&#45;&gt;Node32</title>
<path fill="none" stroke="midnightblue" d="M2231.77,-199.766C2373.55,-189.858 2654.8,-169.146 2904.56,-144.016"/>
<polygon fill="midnightblue" stroke="midnightblue" points="2904.95,-147.494 2914.55,-143.006 2904.25,-140.529 2904.95,-147.494"/>
</g>
<!-- Node33 -->
<g id="node33" class="node"><title>Node33</title>
<polygon fill="none" stroke="#bfbfbf" points="3061.61,-124.5 3061.61,-143.5 3146.61,-143.5 3146.61,-124.5 3061.61,-124.5"/>
<text text-anchor="middle" x="3104.11" y="-131.5" font-family="Helvetica,sans-Serif" font-size="10.00">yarp/os/Value.h</text>
</g>
<!-- Node1&#45;&gt;Node33 -->
<g id="edge45" class="edge"><title>Node1&#45;&gt;Node33</title>
<path fill="none" stroke="midnightblue" d="M2231.66,-202.913C2394.55,-196.73 2745.48,-180.296 3051.64,-143.919"/>
<polygon fill="midnightblue" stroke="midnightblue" points="3052.08,-147.391 3061.59,-142.727 3051.25,-140.441 3052.08,-147.391"/>
</g>
<!-- Node34 -->
<g id="node34" class="node"><title>Node34</title>
<polygon fill="none" stroke="#bfbfbf" points="3165.11,-124.5 3165.11,-143.5 3297.11,-143.5 3297.11,-124.5 3165.11,-124.5"/>
<text text-anchor="middle" x="3231.11" y="-131.5" font-family="Helvetica,sans-Serif" font-size="10.00">yarp/dev/IFrameProvider.h</text>
</g>
<!-- Node1&#45;&gt;Node34 -->
<g id="edge47" class="edge"><title>Node1&#45;&gt;Node34</title>
<path fill="none" stroke="midnightblue" d="M2231.91,-202.144C2408.43,-194.345 2807.6,-174.85 3154.81,-143.969"/>
<polygon fill="midnightblue" stroke="midnightblue" points="3155.16,-147.452 3164.81,-143.076 3154.54,-140.48 3155.16,-147.452"/>
</g>
<!-- Node35 -->
<g id="node35" class="node"><title>Node35</title>
<polygon fill="none" stroke="#bfbfbf" points="3315.61,-124.5 3315.61,-143.5 3472.61,-143.5 3472.61,-124.5 3315.61,-124.5"/>
<text text-anchor="middle" x="3394.11" y="-131.5" font-family="Helvetica,sans-Serif" font-size="10.00">yarp/dev/IXsensMVNInterface.h</text>
</g>
<!-- Node1&#45;&gt;Node35 -->
<g id="edge48" class="edge"><title>Node1&#45;&gt;Node35</title>
<path fill="none" stroke="midnightblue" d="M2231.66,-202.653C2426.85,-195.185 2898.52,-175.377 3305.24,-144.027"/>
<polygon fill="midnightblue" stroke="midnightblue" points="3305.74,-147.499 3315.44,-143.237 3305.2,-140.52 3305.74,-147.499"/>
</g>
<!-- Node36 -->
<g id="node36" class="node"><title>Node36</title>
<polygon fill="none" stroke="#bfbfbf" points="3491.11,-124.5 3491.11,-143.5 3547.11,-143.5 3547.11,-124.5 3491.11,-124.5"/>
<text text-anchor="middle" x="3519.11" y="-131.5" font-family="Helvetica,sans-Serif" font-size="10.00">algorithm</text>
</g>
<!-- Node1&#45;&gt;Node36 -->
<g id="edge51" class="edge"><title>Node1&#45;&gt;Node36</title>
<path fill="none" stroke="midnightblue" d="M2231.9,-203.985C2493.42,-197.891 3239.05,-177.957 3481.11,-144 3481.21,-143.986 3481.31,-143.972 3481.41,-143.957"/>
<polygon fill="midnightblue" stroke="midnightblue" points="3481.75,-147.451 3491,-142.274 3480.54,-140.556 3481.75,-147.451"/>
</g>
<!-- Node37 -->
<g id="node37" class="node"><title>Node37</title>
<polygon fill="none" stroke="#bfbfbf" points="3565.61,-124.5 3565.61,-143.5 3614.61,-143.5 3614.61,-124.5 3565.61,-124.5"/>
<text text-anchor="middle" x="3590.11" y="-131.5" font-family="Helvetica,sans-Serif" font-size="10.00">cassert</text>
</g>
<!-- Node1&#45;&gt;Node37 -->
<g id="edge52" class="edge"><title>Node1&#45;&gt;Node37</title>
<path fill="none" stroke="midnightblue" d="M2231.63,-204.475C2502.69,-199.565 3298.36,-182.21 3555.11,-144 3555.21,-143.984 3555.32,-143.969 3555.42,-143.953"/>
<polygon fill="midnightblue" stroke="midnightblue" points="3556.22,-147.363 3565.38,-142.036 3554.9,-140.489 3556.22,-147.363"/>
</g>
<!-- Node38 -->
<g id="node38" class="node"><title>Node38</title>
<polygon fill="none" stroke="#bfbfbf" points="3632.61,-124.5 3632.61,-143.5 3673.61,-143.5 3673.61,-124.5 3632.61,-124.5"/>
<text text-anchor="middle" x="3653.11" y="-131.5" font-family="Helvetica,sans-Serif" font-size="10.00">stack</text>
</g>
<!-- Node1&#45;&gt;Node38 -->
<g id="edge55" class="edge"><title>Node1&#45;&gt;Node38</title>
<path fill="none" stroke="midnightblue" d="M2231.61,-205.161C2508.22,-202.157 3333.77,-189.653 3622.25,-143.623"/>
<polygon fill="midnightblue" stroke="midnightblue" points="3622.99,-147.049 3632.28,-141.972 3621.85,-140.142 3622.99,-147.049"/>
</g>
<!-- Node39 -->
<g id="node39" class="node"><title>Node39</title>
<polygon fill="none" stroke="#bfbfbf" points="3692.11,-124.5 3692.11,-143.5 3736.11,-143.5 3736.11,-124.5 3692.11,-124.5"/>
<text text-anchor="middle" x="3714.11" y="-131.5" font-family="Helvetica,sans-Serif" font-size="10.00">thread</text>
</g>
<!-- Node1&#45;&gt;Node39 -->
<g id="edge56" class="edge"><title>Node1&#45;&gt;Node39</title>
<path fill="none" stroke="midnightblue" d="M2231.65,-205.126C2515.68,-201.977 3380.4,-188.987 3681.82,-143.532"/>
<polygon fill="midnightblue" stroke="midnightblue" points="3682.53,-146.964 3691.88,-141.97 3681.46,-140.047 3682.53,-146.964"/>
</g>
<!-- Node3 -->
<g id="node3" class="node"><title>Node3</title>
<polygon fill="none" stroke="#bfbfbf" points="36.6069,-0.5 36.6069,-19.5 141.607,-19.5 141.607,-0.5 36.6069,-0.5"/>
<text text-anchor="middle" x="89.1069" y="-7.5" font-family="Helvetica,sans-Serif" font-size="10.00">yarp/os/RFModule.h</text>
</g>
<!-- Node2&#45;&gt;Node3 -->
<g id="edge2" class="edge"><title>Node2&#45;&gt;Node3</title>
<path fill="none" stroke="midnightblue" d="M89.1069,-62.4035C89.1069,-53.9381 89.1069,-40.7283 89.1069,-29.8199"/>
<polygon fill="midnightblue" stroke="midnightblue" points="92.607,-29.5806 89.1069,-19.5806 85.607,-29.5806 92.607,-29.5806"/>
</g>
<!-- Node4&#45;&gt;Node2 -->
<g id="edge4" class="edge"><title>Node4&#45;&gt;Node2</title>
<path fill="none" stroke="midnightblue" d="M1279.75,-131.998C1054.54,-128.645 375.101,-116.389 156.107,-88 148.128,-86.9656 139.698,-85.4339 131.611,-83.739"/>
<polygon fill="midnightblue" stroke="midnightblue" points="132.129,-80.2691 121.609,-81.53 130.619,-87.1044 132.129,-80.2691"/>
</g>
<!-- Node4&#45;&gt;Node5 -->
<g id="edge5" class="edge"><title>Node4&#45;&gt;Node5</title>
<path fill="none" stroke="midnightblue" d="M1280.1,-131.794C1071.36,-128.051 474.676,-115.212 281.107,-88 273.869,-86.9825 266.242,-85.4926 258.908,-83.8416"/>
<polygon fill="midnightblue" stroke="midnightblue" points="259.691,-80.4303 249.152,-81.5195 258.07,-87.24 259.691,-80.4303"/>
</g>
<!-- Node4&#45;&gt;Node6 -->
<g id="edge6" class="edge"><title>Node4&#45;&gt;Node6</title>
<path fill="none" stroke="midnightblue" d="M1279.92,-132.967C1125.67,-132.125 755.818,-126.05 436.026,-87.9731"/>
<polygon fill="midnightblue" stroke="midnightblue" points="435.973,-84.4415 425.626,-86.7213 435.136,-91.3913 435.973,-84.4415"/>
</g>
<!-- Node7 -->
<g id="node7" class="node"><title>Node7</title>
<polygon fill="none" stroke="#bfbfbf" points="1514.11,-62.5 1514.11,-81.5 1670.11,-81.5 1670.11,-62.5 1514.11,-62.5"/>
<text text-anchor="middle" x="1592.11" y="-69.5" font-family="Helvetica,sans-Serif" font-size="10.00">iDynTree/Core/MatrixDynSize.h</text>
</g>
<!-- Node4&#45;&gt;Node7 -->
<g id="edge7" class="edge"><title>Node4&#45;&gt;Node7</title>
<path fill="none" stroke="midnightblue" d="M1387.1,-124.467C1429.48,-113.827 1502,-95.6215 1548.45,-83.9593"/>
<polygon fill="midnightblue" stroke="midnightblue" points="1549.39,-87.333 1558.24,-81.5034 1547.68,-80.5437 1549.39,-87.333"/>
</g>
<!-- Node4&#45;&gt;Node8 -->
<g id="edge8" class="edge"><title>Node4&#45;&gt;Node8</title>
<path fill="none" stroke="midnightblue" d="M1279.94,-131.188C1146.58,-127.303 855.183,-116.12 611.107,-88 600.262,-86.7506 588.723,-85.0531 577.693,-83.2488"/>
<polygon fill="midnightblue" stroke="midnightblue" points="578.183,-79.7822 567.74,-81.5715 577.02,-86.6848 578.183,-79.7822"/>
</g>
<!-- Node4&#45;&gt;Node9 -->
<g id="edge9" class="edge"><title>Node4&#45;&gt;Node9</title>
<path fill="none" stroke="midnightblue" d="M1279.94,-130.131C1168.45,-125.144 949.508,-112.932 765.107,-88 755.988,-86.7671 746.32,-85.1402 737.026,-83.4132"/>
<polygon fill="midnightblue" stroke="midnightblue" points="737.614,-79.9621 727.133,-81.5137 736.294,-86.8366 737.614,-79.9621"/>
</g>
<!-- Node10 -->
<g id="node10" class="node"><title>Node10</title>
<polygon fill="none" stroke="#bfbfbf" points="1688.11,-62.5 1688.11,-81.5 1816.11,-81.5 1816.11,-62.5 1688.11,-62.5"/>
<text text-anchor="middle" x="1752.11" y="-69.5" font-family="Helvetica,sans-Serif" font-size="10.00">iDynTree/Model/Indices.h</text>
</g>
<!-- Node4&#45;&gt;Node10 -->
<g id="edge10" class="edge"><title>Node4&#45;&gt;Node10</title>
<path fill="none" stroke="midnightblue" d="M1424.86,-124.467C1491.05,-116.27 1591.97,-102.951 1679.11,-88 1686.82,-86.677 1694.96,-85.1421 1702.9,-83.5693"/>
<polygon fill="midnightblue" stroke="midnightblue" points="1703.69,-86.9806 1712.8,-81.5697 1702.3,-80.1192 1703.69,-86.9806"/>
</g>
<!-- Node4&#45;&gt;Node11 -->
<g id="edge11" class="edge"><title>Node4&#45;&gt;Node11</title>
<path fill="none" stroke="midnightblue" d="M1279.81,-126.214C1197.84,-118.329 1061.2,-104.296 944.107,-88 933.875,-86.576 923.01,-84.8907 912.517,-83.1729"/>
<polygon fill="midnightblue" stroke="midnightblue" points="913.042,-79.7123 902.604,-81.5236 911.893,-86.6174 913.042,-79.7123"/>
</g>
<!-- Node4&#45;&gt;Node12 -->
<g id="edge12" class="edge"><title>Node4&#45;&gt;Node12</title>
<path fill="none" stroke="midnightblue" d="M1306.89,-124.467C1248.29,-113.649 1147.32,-95.0087 1084.32,-83.3781"/>
<polygon fill="midnightblue" stroke="midnightblue" points="1084.64,-79.8771 1074.17,-81.5034 1083.37,-86.7608 1084.64,-79.8771"/>
</g>
<!-- Node4&#45;&gt;Node14 -->
<g id="edge24" class="edge"><title>Node4&#45;&gt;Node14</title>
<path fill="none" stroke="midnightblue" d="M1344.06,-124.295C1324.92,-106.068 1280.59,-64.8402 1262.11,-56 1194.42,-23.6257 1105.19,-14.537 1058.91,-11.9892"/>
<polygon fill="midnightblue" stroke="midnightblue" points="1059.07,-8.49282 1048.91,-11.505 1058.73,-15.4846 1059.07,-8.49282"/>
</g>
<!-- Node4&#45;&gt;Node15 -->
<g id="edge25" class="edge"><title>Node4&#45;&gt;Node15</title>
<path fill="none" stroke="midnightblue" d="M1347.45,-124.311C1337.95,-108.531 1321.47,-75.0401 1339.11,-56 1376.88,-15.2107 1775.07,-11.2575 1892.62,-10.9835"/>
<polygon fill="midnightblue" stroke="midnightblue" points="1892.79,-14.4833 1902.78,-10.9676 1892.78,-7.48335 1892.79,-14.4833"/>
</g>
<!-- Node4&#45;&gt;Node16 -->
<g id="edge16" class="edge"><title>Node4&#45;&gt;Node16</title>
<path fill="none" stroke="midnightblue" d="M1426.26,-129.022C1519.37,-123.274 1684.95,-110.752 1825.11,-88 1832.26,-86.839 1839.8,-85.3497 1847.11,-83.7617"/>
<polygon fill="midnightblue" stroke="midnightblue" points="1847.89,-87.1732 1856.87,-81.5568 1846.35,-80.3451 1847.89,-87.1732"/>
</g>
<!-- Node17 -->
<g id="node17" class="node"><title>Node17</title>
<polygon fill="none" stroke="#bfbfbf" points="1120.61,-62.5 1120.61,-81.5 1253.61,-81.5 1253.61,-62.5 1120.61,-62.5"/>
<text text-anchor="middle" x="1187.11" y="-69.5" font-family="Helvetica,sans-Serif" font-size="10.00">yarp/dev/PreciselyTimed.h</text>
</g>
<!-- Node4&#45;&gt;Node17 -->
<g id="edge17" class="edge"><title>Node4&#45;&gt;Node17</title>
<path fill="none" stroke="midnightblue" d="M1329.32,-124.403C1300.72,-114.067 1252.56,-96.6564 1220.31,-84.9994"/>
<polygon fill="midnightblue" stroke="midnightblue" points="1221.44,-81.6883 1210.85,-81.5806 1219.06,-88.2715 1221.44,-81.6883"/>
</g>
<!-- Node4&#45;&gt;Node18 -->
<g id="edge18" class="edge"><title>Node4&#45;&gt;Node18</title>
<path fill="none" stroke="midnightblue" d="M1426.11,-130.958C1539.6,-127.013 1764.97,-116.101 1954.11,-88 1961.73,-86.8673 1969.78,-85.3497 1977.55,-83.714"/>
<polygon fill="midnightblue" stroke="midnightblue" points="1978.53,-87.0822 1987.55,-81.5181 1977.03,-80.2452 1978.53,-87.0822"/>
</g>
<!-- Node19 -->
<g id="node19" class="node"><title>Node19</title>
<polygon fill="none" stroke="#bfbfbf" points="1348.11,-62.5 1348.11,-81.5 1426.11,-81.5 1426.11,-62.5 1348.11,-62.5"/>
<text text-anchor="middle" x="1387.11" y="-69.5" font-family="Helvetica,sans-Serif" font-size="10.00">yarp/os/Port.h</text>
</g>
<!-- Node4&#45;&gt;Node19 -->
<g id="edge19" class="edge"><title>Node4&#45;&gt;Node19</title>
<path fill="none" stroke="midnightblue" d="M1357.98,-124.403C1362.98,-115.582 1370.9,-101.608 1377.22,-90.4548"/>
<polygon fill="midnightblue" stroke="midnightblue" points="1380.36,-92.0064 1382.24,-81.5806 1374.27,-88.5553 1380.36,-92.0064"/>
</g>
<!-- Node4&#45;&gt;Node20 -->
<g id="edge20" class="edge"><title>Node4&#45;&gt;Node20</title>
<path fill="none" stroke="midnightblue" d="M1426.33,-133.454C1559.01,-133.184 1847.62,-127.568 2087.11,-88 2093.05,-87.0181 2099.28,-85.6553 2105.31,-84.1482"/>
<polygon fill="midnightblue" stroke="midnightblue" points="2106.45,-87.468 2115.22,-81.5175 2104.65,-80.7027 2106.45,-87.468"/>
</g>
<!-- Node4&#45;&gt;Node21 -->
<g id="edge21" class="edge"><title>Node4&#45;&gt;Node21</title>
<path fill="none" stroke="midnightblue" d="M1426.2,-132.031C1603.05,-129.214 2050.17,-119.143 2196.11,-88 2199.62,-87.2506 2203.23,-86.2301 2206.77,-85.0715"/>
<polygon fill="midnightblue" stroke="midnightblue" points="2208.23,-88.2647 2216.43,-81.5506 2205.83,-81.6883 2208.23,-88.2647"/>
</g>
<!-- Node22 -->
<g id="node22" class="node"><title>Node22</title>
<polygon fill="none" stroke="#bfbfbf" points="1444.11,-62.5 1444.11,-81.5 1496.11,-81.5 1496.11,-62.5 1444.11,-62.5"/>
<text text-anchor="middle" x="1470.11" y="-69.5" font-family="Helvetica,sans-Serif" font-size="10.00">memory</text>
</g>
<!-- Node4&#45;&gt;Node22 -->
<g id="edge22" class="edge"><title>Node4&#45;&gt;Node22</title>
<path fill="none" stroke="midnightblue" d="M1369.87,-124.403C1389.33,-114.423 1421.65,-97.8487 1444.32,-86.2253"/>
<polygon fill="midnightblue" stroke="midnightblue" points="1446.07,-89.2582 1453.37,-81.5806 1442.88,-83.0294 1446.07,-89.2582"/>
</g>
<!-- Node23 -->
<g id="node23" class="node"><title>Node23</title>
<polygon fill="none" stroke="#bfbfbf" points="2283.11,-62.5 2283.11,-81.5 2327.11,-81.5 2327.11,-62.5 2283.11,-62.5"/>
<text text-anchor="middle" x="2305.11" y="-69.5" font-family="Helvetica,sans-Serif" font-size="10.00">mutex</text>
</g>
<!-- Node4&#45;&gt;Node23 -->
<g id="edge23" class="edge"><title>Node4&#45;&gt;Node23</title>
<path fill="none" stroke="midnightblue" d="M1426.39,-133.067C1614.95,-132.658 2113.26,-127.729 2273.11,-88 2275.61,-87.3784 2278.15,-86.5571 2280.65,-85.6182"/>
<polygon fill="midnightblue" stroke="midnightblue" points="2282.15,-88.7822 2289.93,-81.589 2279.36,-82.3614 2282.15,-88.7822"/>
</g>
<!-- Node12&#45;&gt;Node13 -->
<g id="edge13" class="edge"><title>Node12&#45;&gt;Node13</title>
<path fill="none" stroke="midnightblue" d="M982.844,-62.4436C970.319,-60.2051 956.706,-57.8916 944.107,-56 847.951,-41.5628 737.167,-28.5325 662.278,-20.2537"/>
<polygon fill="midnightblue" stroke="midnightblue" points="662.277,-16.7326 651.954,-19.1174 661.511,-23.6905 662.277,-16.7326"/>
</g>
<!-- Node12&#45;&gt;Node14 -->
<g id="edge14" class="edge"><title>Node12&#45;&gt;Node14</title>
<path fill="none" stroke="midnightblue" d="M1028.11,-62.4035C1028.11,-53.9381 1028.11,-40.7283 1028.11,-29.8199"/>
<polygon fill="midnightblue" stroke="midnightblue" points="1031.61,-29.5806 1028.11,-19.5806 1024.61,-29.5806 1031.61,-29.5806"/>
</g>
<!-- Node12&#45;&gt;Node15 -->
<g id="edge15" class="edge"><title>Node12&#45;&gt;Node15</title>
<path fill="none" stroke="midnightblue" d="M1069.75,-62.4341C1082.93,-60.0041 1097.58,-57.5898 1111.11,-56 1413.79,-20.4206 1783.19,-12.8575 1892.92,-11.3524"/>
<polygon fill="midnightblue" stroke="midnightblue" points="1893.05,-14.8511 1903.01,-11.2214 1892.96,-7.85169 1893.05,-14.8511"/>
</g>
<!-- Node24&#45;&gt;Node15 -->
<g id="edge31" class="edge"><title>Node24&#45;&gt;Node15</title>
<path fill="none" stroke="midnightblue" d="M2242.66,-125.406C2335.9,-113.246 2507.92,-90.5104 2510.11,-88 2519.45,-77.2778 2519.77,-66.4352 2510.11,-56 2472.4,-15.2774 2074.89,-11.2773 1957.54,-10.9879"/>
<polygon fill="midnightblue" stroke="midnightblue" points="1957.4,-7.48778 1947.39,-10.9707 1957.39,-14.4878 1957.4,-7.48778"/>
</g>
<!-- Node24&#45;&gt;Node23 -->
<g id="edge27" class="edge"><title>Node24&#45;&gt;Node23</title>
<path fill="none" stroke="midnightblue" d="M2201.44,-124.403C2221.66,-114.379 2255.29,-97.7006 2278.75,-86.0699"/>
<polygon fill="midnightblue" stroke="midnightblue" points="2280.4,-89.1588 2287.8,-81.5806 2277.29,-82.8875 2280.4,-89.1588"/>
</g>
<!-- Node25 -->
<g id="node25" class="node"><title>Node25</title>
<polygon fill="none" stroke="#bfbfbf" points="2406.61,-62.5 2406.61,-81.5 2501.61,-81.5 2501.61,-62.5 2406.61,-62.5"/>
<text text-anchor="middle" x="2454.11" y="-69.5" font-family="Helvetica,sans-Serif" font-size="10.00">condition_variable</text>
</g>
<!-- Node24&#45;&gt;Node25 -->
<g id="edge28" class="edge"><title>Node24&#45;&gt;Node25</title>
<path fill="none" stroke="midnightblue" d="M2227.49,-124.485C2270.63,-115.864 2338.63,-101.862 2397.11,-88 2402.2,-86.7918 2407.54,-85.467 2412.82,-84.1206"/>
<polygon fill="midnightblue" stroke="midnightblue" points="2414.01,-87.4265 2422.82,-81.5298 2412.26,-80.6503 2414.01,-87.4265"/>
</g>
<!-- Node26 -->
<g id="node26" class="node"><title>Node26</title>
<polygon fill="none" stroke="#bfbfbf" points="2558.61,-62.5 2558.61,-81.5 2641.61,-81.5 2641.61,-62.5 2558.61,-62.5"/>
<text text-anchor="middle" x="2600.11" y="-69.5" font-family="Helvetica,sans-Serif" font-size="10.00">unordered_map</text>
</g>
<!-- Node24&#45;&gt;Node26 -->
<g id="edge29" class="edge"><title>Node24&#45;&gt;Node26</title>
<path fill="none" stroke="midnightblue" d="M2242.88,-125.758C2343.04,-113.401 2536.79,-89.4311 2544.11,-88 2549.66,-86.9139 2555.48,-85.5809 2561.18,-84.1619"/>
<polygon fill="midnightblue" stroke="midnightblue" points="2562.42,-87.4549 2571.22,-81.5497 2560.66,-80.6805 2562.42,-87.4549"/>
</g>
<!-- Node27 -->
<g id="node27" class="node"><title>Node27</title>
<polygon fill="none" stroke="#bfbfbf" points="2345.61,-62.5 2345.61,-81.5 2388.61,-81.5 2388.61,-62.5 2345.61,-62.5"/>
<text text-anchor="middle" x="2367.11" y="-69.5" font-family="Helvetica,sans-Serif" font-size="10.00">queue</text>
</g>
<!-- Node24&#45;&gt;Node27 -->
<g id="edge30" class="edge"><title>Node24&#45;&gt;Node27</title>
<path fill="none" stroke="midnightblue" d="M2217.87,-124.483C2248.79,-116.321 2295.61,-103.046 2335.11,-88 2336.96,-87.2956 2338.85,-86.5306 2340.74,-85.7314"/>
<polygon fill="midnightblue" stroke="midnightblue" points="2342.34,-88.8511 2350.04,-81.5738 2339.48,-82.4609 2342.34,-88.8511"/>
</g>
</g>
</svg>
