<?xml version="1.0" encoding="UTF-8" standalone="no"?>
<!DOCTYPE svg PUBLIC "-//W3C//DTD SVG 1.1//EN"
 "http://www.w3.org/Graphics/SVG/1.1/DTD/svg11.dtd">
<!-- Generated by graphviz version 2.36.0 (20140111.2315)
 -->
<!-- Title: /home/travis/build/robotology/human&#45;dynamics&#45;estimation/human&#45;state&#45;provider/src/HumanIKWorkerPool.cpp Pages: 1 -->
<!--zoomable 242 -->
<svg id="main" version="1.1" xmlns="http://www.w3.org/2000/svg" xmlns:xlink="http://www.w3.org/1999/xlink" xml:space="preserve" onload="init(evt)">
<style type="text/css"><![CDATA[
.edge:hover path { stroke: red; }
.edge:hover polygon { stroke: red; fill: red; }
]]></style>
<script type="text/javascript"><![CDATA[
var edges = document.getElementsByTagName('g');
if (edges && edges.length) {
  for (var i=0;i<edges.length;i++) {
    if (edges[i].id.substr(0,4)=='edge') {
      edges[i].setAttribute('class','edge');
    }
  }
}
]]></script>
        <defs>
                <circle id="rim" cx="0" cy="0" r="7"/>
                <circle id="rim2" cx="0" cy="0" r="3.5"/>
                <g id="zoomPlus">
                        <use xlink:href="#rim" fill="#404040">
                                <set attributeName="fill" to="#808080" begin="zoomplus.mouseover" end="zoomplus.mouseout"/>
                        </use>
                        <path d="M-4,0h8M0,-4v8" fill="none" stroke="white" stroke-width="1.5" pointer-events="none"/>
                </g>
                <g id="zoomMin">
                        <use xlink:href="#rim" fill="#404040">
                                <set attributeName="fill" to="#808080" begin="zoomminus.mouseover" end="zoomminus.mouseout"/>
                        </use>
                        <path d="M-4,0h8" fill="none" stroke="white" stroke-width="1.5" pointer-events="none"/>
                </g>
                <g id="dirArrow">
                        <path fill="none" stroke="white" stroke-width="1.5" d="M0,-3.0v7 M-2.5,-0.5L0,-3.0L2.5,-0.5"/>
                </g>
               <g id="resetDef">
                       <use xlink:href="#rim2" fill="#404040">
                               <set attributeName="fill" to="#808080" begin="reset.mouseover" end="reset.mouseout"/>
                       </use>
               </g>
        </defs>

<script type="text/javascript">
var viewWidth = 2624;
var viewHeight = 242;
var sectionId = 'dynsection-0';
</script>
<script xlink:href="svgpan.js"/>
<svg id="graph" class="graph">
<g id="viewport">
<title>/home/travis/build/robotology/human&#45;dynamics&#45;estimation/human&#45;state&#45;provider/src/HumanIKWorkerPool.cpp</title>
<!-- Node1 -->
<g id="node1" class="node"><title>Node1</title>
<polygon fill="#bfbfbf" stroke="black" points="2234.5,-181 2234.5,-233 2419.5,-233 2419.5,-181 2234.5,-181"/>
<text text-anchor="start" x="2242.5" y="-221" font-family="Helvetica,sans-Serif" font-size="10.00">/home/travis/build</text>
<text text-anchor="start" x="2242.5" y="-210" font-family="Helvetica,sans-Serif" font-size="10.00">/robotology/human&#45;dynamics</text>
<text text-anchor="start" x="2242.5" y="-199" font-family="Helvetica,sans-Serif" font-size="10.00">&#45;estimation/human&#45;state</text>
<text text-anchor="middle" x="2327" y="-188" font-family="Helvetica,sans-Serif" font-size="10.00">&#45;provider/src/HumanIKWorkerPool.cpp</text>
</g>
<!-- Node2 -->
<g id="node2" class="node"><title>Node2</title>
<g id="a_node2"><a xlink:href="_human_i_k_worker_pool_8h.html" target="_top" xlink:title="HumanIKWorkerPool.h">
<polygon fill="none" stroke="black" points="2268.5,-124.5 2268.5,-143.5 2385.5,-143.5 2385.5,-124.5 2268.5,-124.5"/>
<text text-anchor="middle" x="2327" y="-131.5" font-family="Helvetica,sans-Serif" font-size="10.00">HumanIKWorkerPool.h</text>
</a>
</g>
</g>
<!-- Node1&#45;&gt;Node2 -->
<g id="edge1" class="edge"><title>Node1&#45;&gt;Node2</title>
<path fill="none" stroke="midnightblue" d="M2327,-180.768C2327,-171.89 2327,-162.074 2327,-153.816"/>
<polygon fill="midnightblue" stroke="midnightblue" points="2330.5,-153.757 2327,-143.757 2323.5,-153.757 2330.5,-153.757"/>
</g>
<!-- Node8 -->
<g id="node8" class="node"><title>Node8</title>
<g id="a_node8"><a xlink:href="_human_state_provider_private_8h.html" target="_top" xlink:title="HumanStateProviderPrivate.h">
<polygon fill="none" stroke="black" points="1210,-124.5 1210,-143.5 1356,-143.5 1356,-124.5 1210,-124.5"/>
<text text-anchor="middle" x="1283" y="-131.5" font-family="Helvetica,sans-Serif" font-size="10.00">HumanStateProviderPrivate.h</text>
</a>
</g>
</g>
<!-- Node1&#45;&gt;Node8 -->
<g id="edge7" class="edge"><title>Node1&#45;&gt;Node8</title>
<path fill="none" stroke="midnightblue" d="M2234.35,-199.699C2033.1,-186.012 1558.65,-153.746 1366.24,-140.661"/>
<polygon fill="midnightblue" stroke="midnightblue" points="1366.4,-137.164 1356.19,-139.977 1365.93,-144.148 1366.4,-137.164"/>
</g>
<!-- Node18 -->
<g id="node18" class="node"><title>Node18</title>
<g id="a_node18"><a xlink:href="_inverse_kinematics_8h.html" target="_top" xlink:title="human&#45;ik/InverseKinematics.h">
<polygon fill="none" stroke="black" points="1.5,-62.5 1.5,-81.5 150.5,-81.5 150.5,-62.5 1.5,-62.5"/>
<text text-anchor="middle" x="76" y="-69.5" font-family="Helvetica,sans-Serif" font-size="10.00">human&#45;ik/InverseKinematics.h</text>
</a>
</g>
</g>
<!-- Node1&#45;&gt;Node18 -->
<g id="edge32" class="edge"><title>Node1&#45;&gt;Node18</title>
<path fill="none" stroke="midnightblue" d="M2234.46,-205.074C1934.02,-201.189 959.019,-181.694 159,-88 148.856,-86.812 138.078,-85.1578 127.765,-83.3797"/>
<polygon fill="midnightblue" stroke="midnightblue" points="128.106,-79.8854 117.647,-81.5729 126.876,-86.7764 128.106,-79.8854"/>
</g>
<!-- Node28 -->
<g id="node28" class="node"><title>Node28</title>
<polygon fill="none" stroke="#bfbfbf" points="2404,-124.5 2404,-143.5 2554,-143.5 2554,-124.5 2404,-124.5"/>
<text text-anchor="middle" x="2479" y="-131.5" font-family="Helvetica,sans-Serif" font-size="10.00">iDynTree/Core/EigenHelpers.h</text>
</g>
<!-- Node1&#45;&gt;Node28 -->
<g id="edge31" class="edge"><title>Node1&#45;&gt;Node28</title>
<path fill="none" stroke="midnightblue" d="M2380.59,-180.968C2404.43,-169.834 2431.49,-157.191 2451.2,-147.986"/>
<polygon fill="midnightblue" stroke="midnightblue" points="2452.93,-151.042 2460.51,-143.639 2449.96,-144.7 2452.93,-151.042"/>
</g>
<!-- Node29 -->
<g id="node29" class="node"><title>Node29</title>
<polygon fill="none" stroke="#bfbfbf" points="2572,-124.5 2572,-143.5 2616,-143.5 2616,-124.5 2572,-124.5"/>
<text text-anchor="middle" x="2594" y="-131.5" font-family="Helvetica,sans-Serif" font-size="10.00">thread</text>
</g>
<!-- Node1&#45;&gt;Node29 -->
<g id="edge33" class="edge"><title>Node1&#45;&gt;Node29</title>
<path fill="none" stroke="midnightblue" d="M2419.73,-181.905C2463.01,-170.566 2515.18,-156.758 2562,-144 2562.1,-143.972 2562.2,-143.945 2562.3,-143.917"/>
<polygon fill="midnightblue" stroke="midnightblue" points="2563.27,-147.281 2571.98,-141.244 2561.41,-140.534 2563.27,-147.281"/>
</g>
<!-- Node3 -->
<g id="node3" class="node"><title>Node3</title>
<polygon fill="none" stroke="#bfbfbf" points="2255,-62.5 2255,-81.5 2299,-81.5 2299,-62.5 2255,-62.5"/>
<text text-anchor="middle" x="2277" y="-69.5" font-family="Helvetica,sans-Serif" font-size="10.00">mutex</text>
</g>
<!-- Node2&#45;&gt;Node3 -->
<g id="edge2" class="edge"><title>Node2&#45;&gt;Node3</title>
<path fill="none" stroke="midnightblue" d="M2319.84,-124.403C2312.26,-115.314 2300.13,-100.756 2290.71,-89.4489"/>
<polygon fill="midnightblue" stroke="midnightblue" points="2293.24,-87.0222 2284.15,-81.5806 2287.86,-91.5035 2293.24,-87.0222"/>
</g>
<!-- Node4 -->
<g id="node4" class="node"><title>Node4</title>
<polygon fill="none" stroke="#bfbfbf" points="2355.5,-62.5 2355.5,-81.5 2450.5,-81.5 2450.5,-62.5 2355.5,-62.5"/>
<text text-anchor="middle" x="2403" y="-69.5" font-family="Helvetica,sans-Serif" font-size="10.00">condition_variable</text>
</g>
<!-- Node2&#45;&gt;Node4 -->
<g id="edge3" class="edge"><title>Node2&#45;&gt;Node4</title>
<path fill="none" stroke="midnightblue" d="M2337.89,-124.403C2349.97,-114.869 2369.67,-99.3154 2384.24,-87.8106"/>
<polygon fill="midnightblue" stroke="midnightblue" points="2386.45,-90.5242 2392.13,-81.5806 2382.11,-85.03 2386.45,-90.5242"/>
</g>
<!-- Node5 -->
<g id="node5" class="node"><title>Node5</title>
<polygon fill="none" stroke="#bfbfbf" points="2468.5,-62.5 2468.5,-81.5 2551.5,-81.5 2551.5,-62.5 2468.5,-62.5"/>
<text text-anchor="middle" x="2510" y="-69.5" font-family="Helvetica,sans-Serif" font-size="10.00">unordered_map</text>
</g>
<!-- Node2&#45;&gt;Node5 -->
<g id="edge4" class="edge"><title>Node2&#45;&gt;Node5</title>
<path fill="none" stroke="midnightblue" d="M2353.22,-124.403C2385.02,-113.978 2438.77,-96.3557 2474.32,-84.6992"/>
<polygon fill="midnightblue" stroke="midnightblue" points="2475.42,-88.022 2483.83,-81.5806 2473.24,-81.3704 2475.42,-88.022"/>
</g>
<!-- Node6 -->
<g id="node6" class="node"><title>Node6</title>
<polygon fill="none" stroke="#bfbfbf" points="2569.5,-62.5 2569.5,-81.5 2612.5,-81.5 2612.5,-62.5 2569.5,-62.5"/>
<text text-anchor="middle" x="2591" y="-69.5" font-family="Helvetica,sans-Serif" font-size="10.00">queue</text>
</g>
<!-- Node2&#45;&gt;Node6 -->
<g id="edge5" class="edge"><title>Node2&#45;&gt;Node6</title>
<path fill="none" stroke="midnightblue" d="M2379.55,-124.484C2437.61,-114.785 2527.26,-98.8775 2560,-88 2561.91,-87.3639 2563.86,-86.6347 2565.8,-85.8482"/>
<polygon fill="midnightblue" stroke="midnightblue" points="2567.56,-88.8969 2575.24,-81.6019 2564.69,-82.5133 2567.56,-88.8969"/>
</g>
<!-- Node7 -->
<g id="node7" class="node"><title>Node7</title>
<polygon fill="none" stroke="#bfbfbf" points="1451,-0.5 1451,-19.5 1495,-19.5 1495,-0.5 1451,-0.5"/>
<text text-anchor="middle" x="1473" y="-7.5" font-family="Helvetica,sans-Serif" font-size="10.00">vector</text>
</g>
<!-- Node2&#45;&gt;Node7 -->
<g id="edge6" class="edge"><title>Node2&#45;&gt;Node7</title>
<path fill="none" stroke="midnightblue" d="M2327.72,-124.116C2328.52,-107.704 2327.53,-72.7834 2307,-56 2275.44,-30.2039 1655.81,-15.0048 1505.59,-11.69"/>
<polygon fill="midnightblue" stroke="midnightblue" points="1505.29,-8.18257 1495.21,-11.4635 1505.13,-15.1809 1505.29,-8.18257"/>
</g>
<!-- Node8&#45;&gt;Node3 -->
<g id="edge28" class="edge"><title>Node8&#45;&gt;Node3</title>
<path fill="none" stroke="midnightblue" d="M1356.07,-133.253C1550.45,-133.341 2076.81,-129.611 2245,-88 2247.5,-87.3811 2250.04,-86.5615 2252.55,-85.6238"/>
<polygon fill="midnightblue" stroke="midnightblue" points="2254.05,-88.7882 2261.83,-81.5961 2251.26,-82.3669 2254.05,-88.7882"/>
</g>
<!-- Node8&#45;&gt;Node7 -->
<g id="edge30" class="edge"><title>Node8&#45;&gt;Node7</title>
<path fill="none" stroke="midnightblue" d="M1356.21,-130.063C1389.8,-124.991 1427.69,-113.425 1453,-88 1468.35,-72.5824 1472.38,-46.9901 1473.21,-29.5786"/>
<polygon fill="midnightblue" stroke="midnightblue" points="1476.71,-29.5653 1473.38,-19.5072 1469.71,-29.4463 1476.71,-29.5653"/>
</g>
<!-- Node9 -->
<g id="node9" class="node"><title>Node9</title>
<g id="a_node9"><a xlink:href="_human_state_provider_8h.html" target="_top" xlink:title="HumanStateProvider.h">
<polygon fill="none" stroke="black" points="2121,-62.5 2121,-81.5 2237,-81.5 2237,-62.5 2121,-62.5"/>
<text text-anchor="middle" x="2179" y="-69.5" font-family="Helvetica,sans-Serif" font-size="10.00">HumanStateProvider.h</text>
</a>
</g>
</g>
<!-- Node8&#45;&gt;Node9 -->
<g id="edge8" class="edge"><title>Node8&#45;&gt;Node9</title>
<path fill="none" stroke="midnightblue" d="M1356.2,-133.01C1501.03,-132.152 1834.1,-125.808 2111,-88 2118.92,-86.919 2127.28,-85.3964 2135.33,-83.7322"/>
<polygon fill="midnightblue" stroke="midnightblue" points="2136.27,-87.1099 2145.3,-81.571 2134.78,-80.2687 2136.27,-87.1099"/>
</g>
<!-- Node11 -->
<g id="node11" class="node"><title>Node11</title>
<polygon fill="none" stroke="#bfbfbf" points="354.5,-62.5 354.5,-81.5 461.5,-81.5 461.5,-62.5 354.5,-62.5"/>
<text text-anchor="middle" x="408" y="-69.5" font-family="Helvetica,sans-Serif" font-size="10.00">thrifts/HumanState.h</text>
</g>
<!-- Node8&#45;&gt;Node11 -->
<g id="edge10" class="edge"><title>Node8&#45;&gt;Node11</title>
<path fill="none" stroke="midnightblue" d="M1209.95,-133.395C1067.04,-133.191 740.787,-127.911 470,-88 463.007,-86.9693 455.647,-85.5201 448.537,-83.9252"/>
<polygon fill="midnightblue" stroke="midnightblue" points="448.91,-80.4166 438.373,-81.5159 447.296,-87.2279 448.91,-80.4166"/>
</g>
<!-- Node12 -->
<g id="node12" class="node"><title>Node12</title>
<polygon fill="none" stroke="#bfbfbf" points="479.5,-57 479.5,-87 614.5,-87 614.5,-57 479.5,-57"/>
<text text-anchor="start" x="487.5" y="-75" font-family="Helvetica,sans-Serif" font-size="10.00">thrifts/HumanStateProvider</text>
<text text-anchor="middle" x="547" y="-64" font-family="Helvetica,sans-Serif" font-size="10.00">Service.h</text>
</g>
<!-- Node8&#45;&gt;Node12 -->
<g id="edge11" class="edge"><title>Node8&#45;&gt;Node12</title>
<path fill="none" stroke="midnightblue" d="M1209.57,-130.962C1089.39,-126.971 843.09,-116.049 624.583,-87.9547"/>
<polygon fill="midnightblue" stroke="midnightblue" points="624.896,-84.4661 614.528,-86.6471 623.994,-91.4076 624.896,-84.4661"/>
</g>
<!-- Node13 -->
<g id="node13" class="node"><title>Node13</title>
<polygon fill="none" stroke="#bfbfbf" points="633,-62.5 633,-81.5 789,-81.5 789,-62.5 633,-62.5"/>
<text text-anchor="middle" x="711" y="-69.5" font-family="Helvetica,sans-Serif" font-size="10.00">iDynTree/Core/MatrixDynSize.h</text>
</g>
<!-- Node8&#45;&gt;Node13 -->
<g id="edge12" class="edge"><title>Node8&#45;&gt;Node13</title>
<path fill="none" stroke="midnightblue" d="M1209.67,-127.991C1114.52,-121.081 943.448,-107.256 798,-88 787.752,-86.6433 776.865,-84.9602 766.387,-83.2171"/>
<polygon fill="midnightblue" stroke="midnightblue" points="766.947,-79.762 756.501,-81.536 765.773,-86.6629 766.947,-79.762"/>
</g>
<!-- Node14 -->
<g id="node14" class="node"><title>Node14</title>
<polygon fill="none" stroke="#bfbfbf" points="807,-62.5 807,-81.5 965,-81.5 965,-62.5 807,-62.5"/>
<text text-anchor="middle" x="886" y="-69.5" font-family="Helvetica,sans-Serif" font-size="10.00">iDynTree/Core/VectorDynSize.h</text>
</g>
<!-- Node8&#45;&gt;Node14 -->
<g id="edge13" class="edge"><title>Node8&#45;&gt;Node14</title>
<path fill="none" stroke="midnightblue" d="M1221.37,-124.473C1158.96,-115.732 1059.68,-101.538 974,-88 964.57,-86.5099 954.583,-84.8683 944.852,-83.2345"/>
<polygon fill="midnightblue" stroke="midnightblue" points="945.283,-79.7578 934.84,-81.5414 944.116,-86.6598 945.283,-79.7578"/>
</g>
<!-- Node15 -->
<g id="node15" class="node"><title>Node15</title>
<polygon fill="none" stroke="#bfbfbf" points="983,-62.5 983,-81.5 1119,-81.5 1119,-62.5 983,-62.5"/>
<text text-anchor="middle" x="1051" y="-69.5" font-family="Helvetica,sans-Serif" font-size="10.00">iDynTree/Core/Transform.h</text>
</g>
<!-- Node8&#45;&gt;Node15 -->
<g id="edge14" class="edge"><title>Node8&#45;&gt;Node15</title>
<path fill="none" stroke="midnightblue" d="M1249.76,-124.403C1208.76,-113.799 1138.97,-95.7511 1093.95,-84.1067"/>
<polygon fill="midnightblue" stroke="midnightblue" points="1094.74,-80.696 1084.18,-81.5806 1092.98,-87.473 1094.74,-80.696"/>
</g>
<!-- Node16 -->
<g id="node16" class="node"><title>Node16</title>
<polygon fill="none" stroke="#bfbfbf" points="1137,-62.5 1137,-81.5 1265,-81.5 1265,-62.5 1137,-62.5"/>
<text text-anchor="middle" x="1201" y="-69.5" font-family="Helvetica,sans-Serif" font-size="10.00">iDynTree/Model/Indices.h</text>
</g>
<!-- Node8&#45;&gt;Node16 -->
<g id="edge15" class="edge"><title>Node8&#45;&gt;Node16</title>
<path fill="none" stroke="midnightblue" d="M1271.25,-124.403C1258.1,-114.78 1236.57,-99.0242 1220.8,-87.4891"/>
<polygon fill="midnightblue" stroke="midnightblue" points="1222.86,-84.6611 1212.73,-81.5806 1218.73,-90.3103 1222.86,-84.6611"/>
</g>
<!-- Node17 -->
<g id="node17" class="node"><title>Node17</title>
<polygon fill="none" stroke="#bfbfbf" points="1283.5,-62.5 1283.5,-81.5 1444.5,-81.5 1444.5,-62.5 1283.5,-62.5"/>
<text text-anchor="middle" x="1364" y="-69.5" font-family="Helvetica,sans-Serif" font-size="10.00">iDynTree/KinDynComputations.h</text>
</g>
<!-- Node8&#45;&gt;Node17 -->
<g id="edge16" class="edge"><title>Node8&#45;&gt;Node17</title>
<path fill="none" stroke="midnightblue" d="M1294.61,-124.403C1307.48,-114.869 1328.47,-99.3154 1344.01,-87.8106"/>
<polygon fill="midnightblue" stroke="midnightblue" points="1346.46,-90.3454 1352.42,-81.5806 1342.3,-84.7204 1346.46,-90.3454"/>
</g>
<!-- Node8&#45;&gt;Node18 -->
<g id="edge17" class="edge"><title>Node8&#45;&gt;Node18</title>
<path fill="none" stroke="midnightblue" d="M1209.75,-133.576C1030.12,-134.226 553.564,-131.34 159,-88 148.521,-86.849 137.372,-85.1591 126.758,-83.3244"/>
<polygon fill="midnightblue" stroke="midnightblue" points="127.247,-79.8562 116.786,-81.5339 126.01,-86.746 127.247,-79.8562"/>
</g>
<!-- Node20 -->
<g id="node20" class="node"><title>Node20</title>
<polygon fill="none" stroke="#bfbfbf" points="237.5,-0.5 237.5,-19.5 278.5,-19.5 278.5,-0.5 237.5,-0.5"/>
<text text-anchor="middle" x="258" y="-7.5" font-family="Helvetica,sans-Serif" font-size="10.00">string</text>
</g>
<!-- Node8&#45;&gt;Node20 -->
<g id="edge29" class="edge"><title>Node8&#45;&gt;Node20</title>
<path fill="none" stroke="midnightblue" d="M1209.97,-132.278C1003.31,-129.845 424.194,-120.203 345,-88 340.761,-86.2764 298.809,-48.2985 274.745,-26.3356"/>
<polygon fill="midnightblue" stroke="midnightblue" points="277.093,-23.74 267.35,-19.5768 272.37,-28.9069 277.093,-23.74"/>
</g>
<!-- Node21 -->
<g id="node21" class="node"><title>Node21</title>
<polygon fill="none" stroke="#bfbfbf" points="1501.5,-62.5 1501.5,-81.5 1612.5,-81.5 1612.5,-62.5 1501.5,-62.5"/>
<text text-anchor="middle" x="1557" y="-69.5" font-family="Helvetica,sans-Serif" font-size="10.00">yarp/dev/PolyDriver.h</text>
</g>
<!-- Node8&#45;&gt;Node21 -->
<g id="edge21" class="edge"><title>Node8&#45;&gt;Node21</title>
<path fill="none" stroke="midnightblue" d="M1321.97,-124.467C1370.96,-113.738 1455.09,-95.3157 1508.29,-83.6673"/>
<polygon fill="midnightblue" stroke="midnightblue" points="1509.15,-87.0615 1518.17,-81.5034 1507.65,-80.2236 1509.15,-87.0615"/>
</g>
<!-- Node22 -->
<g id="node22" class="node"><title>Node22</title>
<polygon fill="none" stroke="#bfbfbf" points="1630.5,-62.5 1630.5,-81.5 1763.5,-81.5 1763.5,-62.5 1630.5,-62.5"/>
<text text-anchor="middle" x="1697" y="-69.5" font-family="Helvetica,sans-Serif" font-size="10.00">yarp/dev/PreciselyTimed.h</text>
</g>
<!-- Node8&#45;&gt;Node22 -->
<g id="edge22" class="edge"><title>Node8&#45;&gt;Node22</title>
<path fill="none" stroke="midnightblue" d="M1356.05,-124.611C1424.64,-116.419 1530.03,-103.018 1621,-88 1629.11,-86.6607 1637.69,-85.1055 1646.04,-83.5139"/>
<polygon fill="midnightblue" stroke="midnightblue" points="1646.92,-86.9086 1656.07,-81.5666 1645.58,-80.0369 1646.92,-86.9086"/>
</g>
<!-- Node23 -->
<g id="node23" class="node"><title>Node23</title>
<polygon fill="none" stroke="#bfbfbf" points="1781.5,-62.5 1781.5,-81.5 1896.5,-81.5 1896.5,-62.5 1781.5,-62.5"/>
<text text-anchor="middle" x="1839" y="-69.5" font-family="Helvetica,sans-Serif" font-size="10.00">yarp/os/BufferedPort.h</text>
</g>
<!-- Node8&#45;&gt;Node23 -->
<g id="edge23" class="edge"><title>Node8&#45;&gt;Node23</title>
<path fill="none" stroke="midnightblue" d="M1356.27,-129.201C1452.22,-123.555 1625.46,-111.049 1772,-88 1779.45,-86.8281 1787.31,-85.3192 1794.92,-83.7115"/>
<polygon fill="midnightblue" stroke="midnightblue" points="1795.71,-87.1212 1804.73,-81.561 1794.22,-80.2836 1795.71,-87.1212"/>
</g>
<!-- Node24 -->
<g id="node24" class="node"><title>Node24</title>
<polygon fill="none" stroke="#bfbfbf" points="1915,-62.5 1915,-81.5 1993,-81.5 1993,-62.5 1915,-62.5"/>
<text text-anchor="middle" x="1954" y="-69.5" font-family="Helvetica,sans-Serif" font-size="10.00">yarp/os/Port.h</text>
</g>
<!-- Node8&#45;&gt;Node24 -->
<g id="edge24" class="edge"><title>Node8&#45;&gt;Node24</title>
<path fill="none" stroke="midnightblue" d="M1356.46,-133.003C1473.52,-131.82 1709.17,-124.575 1905,-88 1909.88,-87.0884 1914.96,-85.8613 1919.93,-84.4996"/>
<polygon fill="midnightblue" stroke="midnightblue" points="1921.24,-87.7602 1929.84,-81.5735 1919.26,-81.0463 1921.24,-87.7602"/>
</g>
<!-- Node25 -->
<g id="node25" class="node"><title>Node25</title>
<polygon fill="none" stroke="#bfbfbf" points="2011.5,-62.5 2011.5,-81.5 2102.5,-81.5 2102.5,-62.5 2011.5,-62.5"/>
<text text-anchor="middle" x="2057" y="-69.5" font-family="Helvetica,sans-Serif" font-size="10.00">yarp/sig/Vector.h</text>
</g>
<!-- Node8&#45;&gt;Node25 -->
<g id="edge25" class="edge"><title>Node8&#45;&gt;Node25</title>
<path fill="none" stroke="midnightblue" d="M1356.01,-133.319C1486.55,-132.807 1768.19,-126.784 2002,-88 2007.94,-87.0143 2014.17,-85.6496 2020.21,-84.1416"/>
<polygon fill="midnightblue" stroke="midnightblue" points="2021.34,-87.4613 2030.11,-81.5105 2019.54,-80.6961 2021.34,-87.4613"/>
</g>
<!-- Node26 -->
<g id="node26" class="node"><title>Node26</title>
<polygon fill="none" stroke="#bfbfbf" points="168.5,-62.5 168.5,-81.5 227.5,-81.5 227.5,-62.5 168.5,-62.5"/>
<text text-anchor="middle" x="198" y="-69.5" font-family="Helvetica,sans-Serif" font-size="10.00">Eigen/QR</text>
</g>
<!-- Node8&#45;&gt;Node26 -->
<g id="edge26" class="edge"><title>Node8&#45;&gt;Node26</title>
<path fill="none" stroke="midnightblue" d="M1209.72,-132.921C1003.85,-132.21 423.187,-126.728 237,-88 233.484,-87.2687 229.87,-86.2594 226.327,-85.1069"/>
<polygon fill="midnightblue" stroke="midnightblue" points="227.264,-81.7235 216.67,-81.5919 224.87,-88.3013 227.264,-81.7235"/>
</g>
<!-- Node27 -->
<g id="node27" class="node"><title>Node27</title>
<polygon fill="none" stroke="#bfbfbf" points="246,-62.5 246,-81.5 298,-81.5 298,-62.5 246,-62.5"/>
<text text-anchor="middle" x="272" y="-69.5" font-family="Helvetica,sans-Serif" font-size="10.00">memory</text>
</g>
<!-- Node8&#45;&gt;Node27 -->
<g id="edge27" class="edge"><title>Node8&#45;&gt;Node27</title>
<path fill="none" stroke="midnightblue" d="M1209.76,-132.556C1014.28,-130.9 483.403,-123.199 312,-88 308.295,-87.2391 304.478,-86.1861 300.742,-84.9875"/>
<polygon fill="midnightblue" stroke="midnightblue" points="301.765,-81.6365 291.171,-81.5755 299.415,-88.2301 301.765,-81.6365"/>
</g>
<!-- Node10 -->
<g id="node10" class="node"><title>Node10</title>
<polygon fill="none" stroke="#bfbfbf" points="2126.5,-0.5 2126.5,-19.5 2231.5,-19.5 2231.5,-0.5 2126.5,-0.5"/>
<text text-anchor="middle" x="2179" y="-7.5" font-family="Helvetica,sans-Serif" font-size="10.00">yarp/os/RFModule.h</text>
</g>
<!-- Node9&#45;&gt;Node10 -->
<g id="edge9" class="edge"><title>Node9&#45;&gt;Node10</title>
<path fill="none" stroke="midnightblue" d="M2179,-62.4035C2179,-53.9381 2179,-40.7283 2179,-29.8199"/>
<polygon fill="midnightblue" stroke="midnightblue" points="2182.5,-29.5806 2179,-19.5806 2175.5,-29.5806 2182.5,-29.5806"/>
</g>
<!-- Node18&#45;&gt;Node7 -->
<g id="edge20" class="edge"><title>Node18&#45;&gt;Node7</title>
<path fill="none" stroke="midnightblue" d="M116.358,-62.4974C129.856,-59.9775 145.022,-57.4945 159,-56 418.826,-28.22 1264.94,-14.136 1440.81,-11.4704"/>
<polygon fill="midnightblue" stroke="midnightblue" points="1441.01,-14.9678 1450.96,-11.318 1440.91,-7.96858 1441.01,-14.9678"/>
</g>
<!-- Node19 -->
<g id="node19" class="node"><title>Node19</title>
<polygon fill="none" stroke="#bfbfbf" points="-0.5,-0.5 -0.5,-19.5 152.5,-19.5 152.5,-0.5 -0.5,-0.5"/>
<text text-anchor="middle" x="76" y="-7.5" font-family="Helvetica,sans-Serif" font-size="10.00">iDynTree/Core/VectorFixSize.h</text>
</g>
<!-- Node18&#45;&gt;Node19 -->
<g id="edge18" class="edge"><title>Node18&#45;&gt;Node19</title>
<path fill="none" stroke="midnightblue" d="M76,-62.4035C76,-53.9381 76,-40.7283 76,-29.8199"/>
<polygon fill="midnightblue" stroke="midnightblue" points="79.5001,-29.5806 76,-19.5806 72.5001,-29.5806 79.5001,-29.5806"/>
</g>
<!-- Node18&#45;&gt;Node20 -->
<g id="edge19" class="edge"><title>Node18&#45;&gt;Node20</title>
<path fill="none" stroke="midnightblue" d="M102.076,-62.4035C135.266,-51.4619 192.497,-32.5945 227.623,-21.0145"/>
<polygon fill="midnightblue" stroke="midnightblue" points="228.933,-24.268 237.334,-17.813 226.741,-17.62 228.933,-24.268"/>
</g>
</g>
</svg>
        <g id="navigator" transform="translate(0 0)" fill="#404254">
                <rect fill="#f2f5e9" fill-opacity="0.5" stroke="#606060" stroke-width=".5" x="0" y="0" width="60" height="60"/>
                <use id="zoomplus" xlink:href="#zoomPlus" x="17" y="9" onmousedown="handleZoom(evt,'in')"/>
                <use id="zoomminus" xlink:href="#zoomMin" x="42" y="9" onmousedown="handleZoom(evt,'out')"/>
                <use id="reset" xlink:href="#resetDef" x="30" y="36" onmousedown="handleReset()"/>
                <g id="arrowUp" xlink:href="#dirArrow" transform="translate(30 24)" onmousedown="handlePan(0,-1)">
                  <use xlink:href="#rim" fill="#404040">
                        <set attributeName="fill" to="#808080" begin="arrowUp.mouseover" end="arrowUp.mouseout"/>
                  </use>
                  <path fill="none" stroke="white" stroke-width="1.5" d="M0,-3.0v7 M-2.5,-0.5L0,-3.0L2.5,-0.5"/>
                </g>
                <g id="arrowRight" xlink:href="#dirArrow" transform="rotate(90) translate(36 -43)" onmousedown="handlePan(1,0)">
                  <use xlink:href="#rim" fill="#404040">
                        <set attributeName="fill" to="#808080" begin="arrowRight.mouseover" end="arrowRight.mouseout"/>
                  </use>
                  <path fill="none" stroke="white" stroke-width="1.5" d="M0,-3.0v7 M-2.5,-0.5L0,-3.0L2.5,-0.5"/>
                </g>
                <g id="arrowDown" xlink:href="#dirArrow" transform="rotate(180) translate(-30 -48)" onmousedown="handlePan(0,1)">
                  <use xlink:href="#rim" fill="#404040">
                        <set attributeName="fill" to="#808080" begin="arrowDown.mouseover" end="arrowDown.mouseout"/>
                  </use>
                  <path fill="none" stroke="white" stroke-width="1.5" d="M0,-3.0v7 M-2.5,-0.5L0,-3.0L2.5,-0.5"/>
                </g>
                <g id="arrowLeft" xlink:href="#dirArrow" transform="rotate(270) translate(-36 17)" onmousedown="handlePan(-1,0)">
                  <use xlink:href="#rim" fill="#404040">
                        <set attributeName="fill" to="#808080" begin="arrowLeft.mouseover" end="arrowLeft.mouseout"/>
                  </use>
                  <path fill="none" stroke="white" stroke-width="1.5" d="M0,-3.0v7 M-2.5,-0.5L0,-3.0L2.5,-0.5"/>
                </g>
        </g>
        <svg viewBox="0 0 15 15" width="100%" height="30px" preserveAspectRatio="xMaxYMin meet">
         <g id="arrow_out" transform="scale(0.3 0.3)">
          <a xlink:href="_human_i_k_worker_pool_8cpp__incl_org.svg" target="_base">
           <rect id="button" ry="5" rx="5" y="6" x="6" height="38" width="38"
                fill="#f2f5e9" fill-opacity="0.5" stroke="#606060" stroke-width="1.0"/>
           <path id="arrow"
             d="M 11.500037,31.436501 C 11.940474,20.09759 22.043105,11.32322 32.158766,21.979434 L 37.068811,17.246167 C 37.068811,17.246167 37.088388,32 37.088388,32 L 22.160133,31.978069 C 22.160133,31.978069 26.997745,27.140456 26.997745,27.140456 C 18.528582,18.264221 13.291696,25.230495 11.500037,31.436501 z"
             style="fill:#404040;"/>
          </a>
         </g>
        </svg>
</svg>
