<?xml version="1.0" encoding="UTF-8" standalone="no"?>
<!DOCTYPE svg PUBLIC "-//W3C//DTD SVG 1.1//EN"
 "http://www.w3.org/Graphics/SVG/1.1/DTD/svg11.dtd">
<!-- Generated by graphviz version 2.36.0 (20140111.2315)
 -->
<!-- Title: /home/travis/build/robotology/human&#45;dynamics&#45;estimation/human&#45;dynamics&#45;estimator/src/HumanDynamicsEstimator.cpp Pages: 1 -->
<!--zoomable 198 -->
<svg id="main" version="1.1" xmlns="http://www.w3.org/2000/svg" xmlns:xlink="http://www.w3.org/1999/xlink" xml:space="preserve" onload="init(evt)">
<style type="text/css"><![CDATA[
.edge:hover path { stroke: red; }
.edge:hover polygon { stroke: red; fill: red; }
]]></style>
<script type="text/javascript"><![CDATA[
var edges = document.getElementsByTagName('g');
if (edges && edges.length) {
  for (var i=0;i<edges.length;i++) {
    if (edges[i].id.substr(0,4)=='edge') {
      edges[i].setAttribute('class','edge');
    }
  }
}
]]></script>
        <defs>
                <circle id="rim" cx="0" cy="0" r="7"/>
                <circle id="rim2" cx="0" cy="0" r="3.5"/>
                <g id="zoomPlus">
                        <use xlink:href="#rim" fill="#404040">
                                <set attributeName="fill" to="#808080" begin="zoomplus.mouseover" end="zoomplus.mouseout"/>
                        </use>
                        <path d="M-4,0h8M0,-4v8" fill="none" stroke="white" stroke-width="1.5" pointer-events="none"/>
                </g>
                <g id="zoomMin">
                        <use xlink:href="#rim" fill="#404040">
                                <set attributeName="fill" to="#808080" begin="zoomminus.mouseover" end="zoomminus.mouseout"/>
                        </use>
                        <path d="M-4,0h8" fill="none" stroke="white" stroke-width="1.5" pointer-events="none"/>
                </g>
                <g id="dirArrow">
                        <path fill="none" stroke="white" stroke-width="1.5" d="M0,-3.0v7 M-2.5,-0.5L0,-3.0L2.5,-0.5"/>
                </g>
               <g id="resetDef">
                       <use xlink:href="#rim2" fill="#404040">
                               <set attributeName="fill" to="#808080" begin="reset.mouseover" end="reset.mouseout"/>
                       </use>
               </g>
        </defs>

<script type="text/javascript">
var viewWidth = 3042;
var viewHeight = 198;
var sectionId = 'dynsection-0';
</script>
<script xlink:href="svgpan.js"/>
<svg id="graph" class="graph">
<g id="viewport">
<title>/home/travis/build/robotology/human&#45;dynamics&#45;estimation/human&#45;dynamics&#45;estimator/src/HumanDynamicsEstimator.cpp</title>
<!-- Node1 -->
<g id="node1" class="node"><title>Node1</title>
<polygon fill="#bfbfbf" stroke="black" points="2244,-137 2244,-189 2460,-189 2460,-137 2244,-137"/>
<text text-anchor="start" x="2252" y="-177" font-family="Helvetica,sans-Serif" font-size="10.00">/home/travis/build</text>
<text text-anchor="start" x="2252" y="-166" font-family="Helvetica,sans-Serif" font-size="10.00">/robotology/human&#45;dynamics</text>
<text text-anchor="start" x="2252" y="-155" font-family="Helvetica,sans-Serif" font-size="10.00">&#45;estimation/human&#45;dynamics</text>
<text text-anchor="middle" x="2352" y="-144" font-family="Helvetica,sans-Serif" font-size="10.00">&#45;estimator/src/HumanDynamicsEstimator.cpp</text>
</g>
<!-- Node2 -->
<g id="node2" class="node"><title>Node2</title>
<g id="a_node2"><a xlink:href="_human_dynamics_estimator_8h.html" target="_top" xlink:title="HumanDynamicsEstimator.h">
<polygon fill="none" stroke="black" points="1233.5,-74.5 1233.5,-93.5 1376.5,-93.5 1376.5,-74.5 1233.5,-74.5"/>
<text text-anchor="middle" x="1305" y="-81.5" font-family="Helvetica,sans-Serif" font-size="10.00">HumanDynamicsEstimator.h</text>
</a>
</g>
</g>
<!-- Node1&#45;&gt;Node2 -->
<g id="edge1" class="edge"><title>Node1&#45;&gt;Node2</title>
<path fill="none" stroke="midnightblue" d="M2243.9,-154.05C2033.68,-138.59 1574.05,-104.787 1386.82,-91.0174"/>
<polygon fill="midnightblue" stroke="midnightblue" points="1387,-87.5209 1376.77,-90.278 1386.48,-94.5021 1387,-87.5209"/>
</g>
<!-- Node20 -->
<g id="node20" class="node"><title>Node20</title>
<polygon fill="none" stroke="#bfbfbf" points="2075.5,-6.5 2075.5,-25.5 2110.5,-25.5 2110.5,-6.5 2075.5,-6.5"/>
<text text-anchor="middle" x="2093" y="-13.5" font-family="Helvetica,sans-Serif" font-size="10.00">map</text>
</g>
<!-- Node1&#45;&gt;Node20 -->
<g id="edge29" class="edge"><title>Node1&#45;&gt;Node20</title>
<path fill="none" stroke="midnightblue" d="M2243.9,-158.197C2083.83,-151.438 1799.17,-134.657 1768,-100 1758.49,-89.4258 1758.57,-78.6426 1768,-68 1812.25,-18.085 2002.55,-52.5809 2066,-32 2067.65,-31.4654 2069.31,-30.8268 2070.96,-30.1189"/>
<polygon fill="midnightblue" stroke="midnightblue" points="2072.66,-33.1808 2080.01,-25.5496 2069.5,-26.932 2072.66,-33.1808"/>
</g>
<!-- Node21 -->
<g id="node21" class="node"><title>Node21</title>
<polygon fill="none" stroke="#bfbfbf" points="1777,-74.5 1777,-93.5 1927,-93.5 1927,-74.5 1777,-74.5"/>
<text text-anchor="middle" x="1852" y="-81.5" font-family="Helvetica,sans-Serif" font-size="10.00">iDynTree/Core/EigenHelpers.h</text>
</g>
<!-- Node1&#45;&gt;Node21 -->
<g id="edge20" class="edge"><title>Node1&#45;&gt;Node21</title>
<path fill="none" stroke="midnightblue" d="M2243.96,-146.656C2160.14,-134.558 2041.08,-116.954 1937,-100 1927.99,-98.5314 1918.44,-96.9118 1909.14,-95.2963"/>
<polygon fill="midnightblue" stroke="midnightblue" points="1909.62,-91.8281 1899.17,-93.5524 1908.42,-98.7234 1909.62,-91.8281"/>
</g>
<!-- Node22 -->
<g id="node22" class="node"><title>Node22</title>
<polygon fill="none" stroke="#bfbfbf" points="1945.5,-69 1945.5,-99 2084.5,-99 2084.5,-69 1945.5,-69"/>
<text text-anchor="start" x="1953.5" y="-87" font-family="Helvetica,sans-Serif" font-size="10.00">iDynTree/Core/EigenSparse</text>
<text text-anchor="middle" x="2015" y="-76" font-family="Helvetica,sans-Serif" font-size="10.00">Helpers.h</text>
</g>
<!-- Node1&#45;&gt;Node22 -->
<g id="edge21" class="edge"><title>Node1&#45;&gt;Node22</title>
<path fill="none" stroke="midnightblue" d="M2243.98,-137.319C2192.32,-125.516 2131.92,-111.716 2086.13,-101.253"/>
<polygon fill="midnightblue" stroke="midnightblue" points="2086.83,-97.821 2076.3,-99.0055 2085.27,-104.645 2086.83,-97.821"/>
</g>
<!-- Node23 -->
<g id="node23" class="node"><title>Node23</title>
<polygon fill="none" stroke="#bfbfbf" points="2102.5,-74.5 2102.5,-93.5 2265.5,-93.5 2265.5,-74.5 2102.5,-74.5"/>
<text text-anchor="middle" x="2184" y="-81.5" font-family="Helvetica,sans-Serif" font-size="10.00">iDynTree/ModelIO/ModelLoader.h</text>
</g>
<!-- Node1&#45;&gt;Node23 -->
<g id="edge22" class="edge"><title>Node1&#45;&gt;Node23</title>
<path fill="none" stroke="midnightblue" d="M2296.99,-136.787C2268.52,-123.739 2234.99,-108.369 2211.89,-97.7818"/>
<polygon fill="midnightblue" stroke="midnightblue" points="2213.22,-94.5426 2202.67,-93.5577 2210.3,-100.906 2213.22,-94.5426"/>
</g>
<!-- Node24 -->
<g id="node24" class="node"><title>Node24</title>
<polygon fill="none" stroke="#bfbfbf" points="2283.5,-74.5 2283.5,-93.5 2420.5,-93.5 2420.5,-74.5 2283.5,-74.5"/>
<text text-anchor="middle" x="2352" y="-81.5" font-family="Helvetica,sans-Serif" font-size="10.00">iDynTree/Model/Traversal.h</text>
</g>
<!-- Node1&#45;&gt;Node24 -->
<g id="edge23" class="edge"><title>Node1&#45;&gt;Node24</title>
<path fill="none" stroke="midnightblue" d="M2352,-136.787C2352,-126.069 2352,-113.785 2352,-103.871"/>
<polygon fill="midnightblue" stroke="midnightblue" points="2355.5,-103.558 2352,-93.5577 2348.5,-103.558 2355.5,-103.558"/>
</g>
<!-- Node25 -->
<g id="node25" class="node"><title>Node25</title>
<polygon fill="none" stroke="#bfbfbf" points="2438.5,-74.5 2438.5,-93.5 2581.5,-93.5 2581.5,-74.5 2438.5,-74.5"/>
<text text-anchor="middle" x="2510" y="-81.5" font-family="Helvetica,sans-Serif" font-size="10.00">iDynTree/Sensors/Sensors.h</text>
</g>
<!-- Node1&#45;&gt;Node25 -->
<g id="edge24" class="edge"><title>Node1&#45;&gt;Node25</title>
<path fill="none" stroke="midnightblue" d="M2403.74,-136.787C2430.27,-123.855 2461.48,-108.644 2483.19,-98.0666"/>
<polygon fill="midnightblue" stroke="midnightblue" points="2484.98,-101.085 2492.44,-93.5577 2481.92,-94.7924 2484.98,-101.085"/>
</g>
<!-- Node26 -->
<g id="node26" class="node"><title>Node26</title>
<polygon fill="none" stroke="#bfbfbf" points="2600,-74.5 2600,-93.5 2772,-93.5 2772,-74.5 2600,-74.5"/>
<text text-anchor="middle" x="2686" y="-81.5" font-family="Helvetica,sans-Serif" font-size="10.00">iDynTree/yarp/YARPConversions.h</text>
</g>
<!-- Node1&#45;&gt;Node26 -->
<g id="edge25" class="edge"><title>Node1&#45;&gt;Node26</title>
<path fill="none" stroke="midnightblue" d="M2460.44,-137C2520.83,-123.079 2592.91,-106.461 2639.05,-95.823"/>
<polygon fill="midnightblue" stroke="midnightblue" points="2640.1,-99.1728 2649.06,-93.5158 2638.53,-92.3517 2640.1,-99.1728"/>
</g>
<!-- Node27 -->
<g id="node27" class="node"><title>Node27</title>
<polygon fill="none" stroke="#bfbfbf" points="2790.5,-74.5 2790.5,-93.5 2897.5,-93.5 2897.5,-74.5 2790.5,-74.5"/>
<text text-anchor="middle" x="2844" y="-81.5" font-family="Helvetica,sans-Serif" font-size="10.00">yarp/os/LogStream.h</text>
</g>
<!-- Node1&#45;&gt;Node27 -->
<g id="edge26" class="edge"><title>Node1&#45;&gt;Node27</title>
<path fill="none" stroke="midnightblue" d="M2460.44,-149.077C2547.44,-138.049 2672.53,-120.708 2781,-100 2787.38,-98.7824 2794.08,-97.3509 2800.65,-95.8638"/>
<polygon fill="midnightblue" stroke="midnightblue" points="2801.83,-99.1826 2810.77,-93.5041 2800.24,-92.3653 2801.83,-99.1826"/>
</g>
<!-- Node28 -->
<g id="node28" class="node"><title>Node28</title>
<polygon fill="none" stroke="#bfbfbf" points="2916,-74.5 2916,-93.5 2962,-93.5 2962,-74.5 2916,-74.5"/>
<text text-anchor="middle" x="2939" y="-81.5" font-family="Helvetica,sans-Serif" font-size="10.00">chrono</text>
</g>
<!-- Node1&#45;&gt;Node28 -->
<g id="edge27" class="edge"><title>Node1&#45;&gt;Node28</title>
<path fill="none" stroke="midnightblue" d="M2460.09,-159.917C2573.15,-155.433 2754.85,-141.674 2906,-100 2908.49,-99.3121 2911.04,-98.4581 2913.55,-97.5091"/>
<polygon fill="midnightblue" stroke="midnightblue" points="2915.09,-100.658 2922.93,-93.529 2912.36,-94.2144 2915.09,-100.658"/>
</g>
<!-- Node29 -->
<g id="node29" class="node"><title>Node29</title>
<polygon fill="none" stroke="#bfbfbf" points="2980,-74.5 2980,-93.5 3034,-93.5 3034,-74.5 2980,-74.5"/>
<text text-anchor="middle" x="3007" y="-81.5" font-family="Helvetica,sans-Serif" font-size="10.00">iostream</text>
</g>
<!-- Node1&#45;&gt;Node29 -->
<g id="edge28" class="edge"><title>Node1&#45;&gt;Node29</title>
<path fill="none" stroke="midnightblue" d="M2460.18,-160.764C2585.04,-157.142 2795.73,-144.252 2971,-100 2973.99,-99.2453 2977.05,-98.2846 2980.07,-97.215"/>
<polygon fill="midnightblue" stroke="midnightblue" points="2981.38,-100.461 2989.41,-93.5463 2978.82,-93.9455 2981.38,-100.461"/>
</g>
<!-- Node3 -->
<g id="node3" class="node"><title>Node3</title>
<polygon fill="none" stroke="#bfbfbf" points="0,-6.5 0,-25.5 128,-25.5 128,-6.5 0,-6.5"/>
<text text-anchor="middle" x="64" y="-13.5" font-family="Helvetica,sans-Serif" font-size="10.00">thrifts/HumanDynamics.h</text>
</g>
<!-- Node2&#45;&gt;Node3 -->
<g id="edge2" class="edge"><title>Node2&#45;&gt;Node3</title>
<path fill="none" stroke="midnightblue" d="M1233.44,-81.3682C1013.74,-76.1224 350.898,-58.475 137,-32 128.137,-30.903 118.747,-29.3071 109.757,-27.5611"/>
<polygon fill="midnightblue" stroke="midnightblue" points="110.325,-24.105 99.8283,-25.5446 108.932,-30.9649 110.325,-24.105"/>
</g>
<!-- Node4 -->
<g id="node4" class="node"><title>Node4</title>
<polygon fill="none" stroke="#bfbfbf" points="146.5,-6.5 146.5,-25.5 253.5,-25.5 253.5,-6.5 146.5,-6.5"/>
<text text-anchor="middle" x="200" y="-13.5" font-family="Helvetica,sans-Serif" font-size="10.00">thrifts/HumanState.h</text>
</g>
<!-- Node2&#45;&gt;Node4 -->
<g id="edge3" class="edge"><title>Node2&#45;&gt;Node4</title>
<path fill="none" stroke="midnightblue" d="M1233.31,-81.2179C1029.77,-75.8838 450.943,-58.7392 263,-32 255.73,-30.9657 248.069,-29.4828 240.689,-27.8475"/>
<polygon fill="midnightblue" stroke="midnightblue" points="241.398,-24.419 230.864,-25.551 239.805,-31.2352 241.398,-24.419"/>
</g>
<!-- Node5 -->
<g id="node5" class="node"><title>Node5</title>
<polygon fill="none" stroke="#bfbfbf" points="272,-6.5 272,-25.5 386,-25.5 386,-6.5 272,-6.5"/>
<text text-anchor="middle" x="329" y="-13.5" font-family="Helvetica,sans-Serif" font-size="10.00">thrifts/HumanForces.h</text>
</g>
<!-- Node2&#45;&gt;Node5 -->
<g id="edge4" class="edge"><title>Node2&#45;&gt;Node5</title>
<path fill="none" stroke="midnightblue" d="M1233.23,-83.0493C1079,-82.2641 704.858,-75.5808 395,-32 387.395,-30.9303 379.371,-29.4291 371.638,-27.7864"/>
<polygon fill="midnightblue" stroke="midnightblue" points="372.221,-24.3306 361.699,-25.5699 370.697,-31.1628 372.221,-24.3306"/>
</g>
<!-- Node6 -->
<g id="node6" class="node"><title>Node6</title>
<polygon fill="none" stroke="#bfbfbf" points="404.5,-6.5 404.5,-25.5 553.5,-25.5 553.5,-6.5 404.5,-6.5"/>
<text text-anchor="middle" x="479" y="-13.5" font-family="Helvetica,sans-Serif" font-size="10.00">iDynTree/Core/SparseMatrix.h</text>
</g>
<!-- Node2&#45;&gt;Node6 -->
<g id="edge5" class="edge"><title>Node2&#45;&gt;Node6</title>
<path fill="none" stroke="midnightblue" d="M1233.28,-80.7069C1100.43,-75.8758 807.231,-62.4816 562,-32 551.973,-30.7537 541.322,-29.0896 531.111,-27.3233"/>
<polygon fill="midnightblue" stroke="midnightblue" points="531.546,-23.8457 521.086,-25.5347 530.316,-30.7368 531.546,-23.8457"/>
</g>
<!-- Node7 -->
<g id="node7" class="node"><title>Node7</title>
<polygon fill="none" stroke="#bfbfbf" points="571,-1 571,-31 677,-31 677,-1 571,-1"/>
<text text-anchor="start" x="579" y="-19" font-family="Helvetica,sans-Serif" font-size="10.00">iDynTree/Estimation</text>
<text text-anchor="middle" x="624" y="-8" font-family="Helvetica,sans-Serif" font-size="10.00">/BerdyHelper.h</text>
</g>
<!-- Node2&#45;&gt;Node7 -->
<g id="edge6" class="edge"><title>Node2&#45;&gt;Node7</title>
<path fill="none" stroke="midnightblue" d="M1233.08,-80.695C1119.1,-76.2448 889.947,-64.0556 687.264,-32.0465"/>
<polygon fill="midnightblue" stroke="midnightblue" points="687.755,-28.5806 677.328,-30.4578 686.65,-35.4928 687.755,-28.5806"/>
</g>
<!-- Node8 -->
<g id="node8" class="node"><title>Node8</title>
<polygon fill="none" stroke="#bfbfbf" points="695.5,-6.5 695.5,-25.5 856.5,-25.5 856.5,-6.5 695.5,-6.5"/>
<text text-anchor="middle" x="776" y="-13.5" font-family="Helvetica,sans-Serif" font-size="10.00">iDynTree/KinDynComputations.h</text>
</g>
<!-- Node2&#45;&gt;Node8 -->
<g id="edge7" class="edge"><title>Node2&#45;&gt;Node8</title>
<path fill="none" stroke="midnightblue" d="M1233.22,-75.8284C1145.99,-66.8495 994.43,-50.3956 865,-32 854.994,-30.5778 844.38,-28.9201 834.1,-27.2358"/>
<polygon fill="midnightblue" stroke="midnightblue" points="834.405,-23.7385 823.966,-25.5504 833.257,-30.6437 834.405,-23.7385"/>
</g>
<!-- Node9 -->
<g id="node9" class="node"><title>Node9</title>
<polygon fill="none" stroke="#bfbfbf" points="874.5,-6.5 874.5,-25.5 985.5,-25.5 985.5,-6.5 874.5,-6.5"/>
<text text-anchor="middle" x="930" y="-13.5" font-family="Helvetica,sans-Serif" font-size="10.00">yarp/dev/PolyDriver.h</text>
</g>
<!-- Node2&#45;&gt;Node9 -->
<g id="edge8" class="edge"><title>Node2&#45;&gt;Node9</title>
<path fill="none" stroke="midnightblue" d="M1245.45,-74.4596C1182.7,-65.1728 1081.07,-49.3216 994,-32 987.683,-30.7433 981.041,-29.3116 974.524,-27.8433"/>
<polygon fill="midnightblue" stroke="midnightblue" points="974.981,-24.357 964.45,-25.5255 973.411,-31.1788 974.981,-24.357"/>
</g>
<!-- Node10 -->
<g id="node10" class="node"><title>Node10</title>
<polygon fill="none" stroke="#bfbfbf" points="1003.5,-6.5 1003.5,-25.5 1118.5,-25.5 1118.5,-6.5 1003.5,-6.5"/>
<text text-anchor="middle" x="1061" y="-13.5" font-family="Helvetica,sans-Serif" font-size="10.00">yarp/os/BufferedPort.h</text>
</g>
<!-- Node2&#45;&gt;Node10 -->
<g id="edge9" class="edge"><title>Node2&#45;&gt;Node10</title>
<path fill="none" stroke="midnightblue" d="M1273.1,-74.3717C1229.32,-62.5301 1150.57,-41.2291 1102.33,-28.179"/>
<polygon fill="midnightblue" stroke="midnightblue" points="1103.09,-24.7584 1092.52,-25.5259 1101.26,-31.5156 1103.09,-24.7584"/>
</g>
<!-- Node11 -->
<g id="node11" class="node"><title>Node11</title>
<polygon fill="none" stroke="#bfbfbf" points="1136.5,-6.5 1136.5,-25.5 1241.5,-25.5 1241.5,-6.5 1136.5,-6.5"/>
<text text-anchor="middle" x="1189" y="-13.5" font-family="Helvetica,sans-Serif" font-size="10.00">yarp/os/RFModule.h</text>
</g>
<!-- Node2&#45;&gt;Node11 -->
<g id="edge10" class="edge"><title>Node2&#45;&gt;Node11</title>
<path fill="none" stroke="midnightblue" d="M1289.84,-74.3717C1270.3,-63.2545 1236.1,-43.7997 1213.01,-30.6624"/>
<polygon fill="midnightblue" stroke="midnightblue" points="1214.59,-27.5337 1204.17,-25.6305 1211.13,-33.6178 1214.59,-27.5337"/>
</g>
<!-- Node12 -->
<g id="node12" class="node"><title>Node12</title>
<polygon fill="none" stroke="#bfbfbf" points="1259.5,-6.5 1259.5,-25.5 1350.5,-25.5 1350.5,-6.5 1259.5,-6.5"/>
<text text-anchor="middle" x="1305" y="-13.5" font-family="Helvetica,sans-Serif" font-size="10.00">yarp/sig/Vector.h</text>
</g>
<!-- Node2&#45;&gt;Node12 -->
<g id="edge11" class="edge"><title>Node2&#45;&gt;Node12</title>
<path fill="none" stroke="midnightblue" d="M1305,-74.3717C1305,-64.6426 1305,-48.528 1305,-35.8504"/>
<polygon fill="midnightblue" stroke="midnightblue" points="1308.5,-35.8411 1305,-25.8411 1301.5,-35.8412 1308.5,-35.8411"/>
</g>
<!-- Node13 -->
<g id="node13" class="node"><title>Node13</title>
<polygon fill="none" stroke="#bfbfbf" points="1368.5,-6.5 1368.5,-25.5 1433.5,-25.5 1433.5,-6.5 1368.5,-6.5"/>
<text text-anchor="middle" x="1401" y="-13.5" font-family="Helvetica,sans-Serif" font-size="10.00">Eigen/Core</text>
</g>
<!-- Node2&#45;&gt;Node13 -->
<g id="edge12" class="edge"><title>Node2&#45;&gt;Node13</title>
<path fill="none" stroke="midnightblue" d="M1317.55,-74.3717C1333.43,-63.4521 1361.02,-44.4888 1380.1,-31.369"/>
<polygon fill="midnightblue" stroke="midnightblue" points="1382.19,-34.1799 1388.45,-25.6305 1378.22,-28.4116 1382.19,-34.1799"/>
</g>
<!-- Node14 -->
<g id="node14" class="node"><title>Node14</title>
<polygon fill="none" stroke="#bfbfbf" points="1451.5,-6.5 1451.5,-25.5 1524.5,-25.5 1524.5,-6.5 1451.5,-6.5"/>
<text text-anchor="middle" x="1488" y="-13.5" font-family="Helvetica,sans-Serif" font-size="10.00">Eigen/Dense</text>
</g>
<!-- Node2&#45;&gt;Node14 -->
<g id="edge13" class="edge"><title>Node2&#45;&gt;Node14</title>
<path fill="none" stroke="midnightblue" d="M1328.92,-74.3717C1361.07,-62.7779 1418.36,-42.1162 1454.7,-29.0087"/>
<polygon fill="midnightblue" stroke="midnightblue" points="1456.14,-32.211 1464.36,-25.5259 1453.77,-25.6262 1456.14,-32.211"/>
</g>
<!-- Node15 -->
<g id="node15" class="node"><title>Node15</title>
<polygon fill="none" stroke="#bfbfbf" points="1543,-6.5 1543,-25.5 1639,-25.5 1639,-6.5 1543,-6.5"/>
<text text-anchor="middle" x="1591" y="-13.5" font-family="Helvetica,sans-Serif" font-size="10.00">Eigen/SparseCore</text>
</g>
<!-- Node2&#45;&gt;Node15 -->
<g id="edge14" class="edge"><title>Node2&#45;&gt;Node15</title>
<path fill="none" stroke="midnightblue" d="M1345.04,-74.4618C1390.65,-64.6407 1467.35,-47.828 1533,-32 1538.11,-30.7671 1543.47,-29.4359 1548.78,-28.0933"/>
<polygon fill="midnightblue" stroke="midnightblue" points="1550.01,-31.3893 1558.83,-25.5203 1548.28,-24.6077 1550.01,-31.3893"/>
</g>
<!-- Node16 -->
<g id="node16" class="node"><title>Node16</title>
<polygon fill="none" stroke="#bfbfbf" points="1657,-6.5 1657,-25.5 1773,-25.5 1773,-6.5 1657,-6.5"/>
<text text-anchor="middle" x="1715" y="-13.5" font-family="Helvetica,sans-Serif" font-size="10.00">Eigen/SparseCholesky</text>
</g>
<!-- Node2&#45;&gt;Node16 -->
<g id="edge15" class="edge"><title>Node2&#45;&gt;Node16</title>
<path fill="none" stroke="midnightblue" d="M1372.28,-74.4665C1441.61,-65.3286 1552.71,-49.7273 1648,-32 1654.85,-30.7257 1662.06,-29.2513 1669.12,-27.7346"/>
<polygon fill="midnightblue" stroke="midnightblue" points="1670.27,-31.0659 1679.28,-25.5006 1668.77,-24.2291 1670.27,-31.0659"/>
</g>
<!-- Node17 -->
<g id="node17" class="node"><title>Node17</title>
<polygon fill="none" stroke="#bfbfbf" points="1791,-6.5 1791,-25.5 1879,-25.5 1879,-6.5 1791,-6.5"/>
<text text-anchor="middle" x="1835" y="-13.5" font-family="Helvetica,sans-Serif" font-size="10.00">Eigen/SparseLU</text>
</g>
<!-- Node2&#45;&gt;Node17 -->
<g id="edge16" class="edge"><title>Node2&#45;&gt;Node17</title>
<path fill="none" stroke="midnightblue" d="M1376.51,-79.0102C1470.1,-72.9519 1638.96,-59.1472 1781,-32 1786.5,-30.9498 1792.25,-29.6146 1797.86,-28.1754"/>
<polygon fill="midnightblue" stroke="midnightblue" points="1798.99,-31.4955 1807.73,-25.5117 1797.17,-24.7371 1798.99,-31.4955"/>
</g>
<!-- Node18 -->
<g id="node18" class="node"><title>Node18</title>
<polygon fill="none" stroke="#bfbfbf" points="1897.5,-6.5 1897.5,-25.5 1956.5,-25.5 1956.5,-6.5 1897.5,-6.5"/>
<text text-anchor="middle" x="1927" y="-13.5" font-family="Helvetica,sans-Serif" font-size="10.00">functional</text>
</g>
<!-- Node2&#45;&gt;Node18 -->
<g id="edge17" class="edge"><title>Node2&#45;&gt;Node18</title>
<path fill="none" stroke="midnightblue" d="M1376.74,-82.9296C1487.56,-81.4352 1706.48,-72.9536 1887,-32 1890.51,-31.2047 1894.12,-30.1728 1897.67,-29.0225"/>
<polygon fill="midnightblue" stroke="midnightblue" points="1899.14,-32.215 1907.39,-25.565 1896.79,-25.6201 1899.14,-32.215"/>
</g>
<!-- Node19 -->
<g id="node19" class="node"><title>Node19</title>
<polygon fill="none" stroke="#bfbfbf" points="1974.5,-6.5 1974.5,-25.5 2057.5,-25.5 2057.5,-6.5 1974.5,-6.5"/>
<text text-anchor="middle" x="2016" y="-13.5" font-family="Helvetica,sans-Serif" font-size="10.00">unordered_map</text>
</g>
<!-- Node2&#45;&gt;Node19 -->
<g id="edge18" class="edge"><title>Node2&#45;&gt;Node19</title>
<path fill="none" stroke="midnightblue" d="M1376.93,-82.3406C1498.89,-80.134 1753.62,-70.8103 1965,-32 1970.2,-31.0453 1975.63,-29.7668 1980.92,-28.3573"/>
<polygon fill="midnightblue" stroke="midnightblue" points="1982.17,-31.6397 1990.83,-25.5358 1980.25,-24.9071 1982.17,-31.6397"/>
</g>
<!-- Node2&#45;&gt;Node20 -->
<g id="edge19" class="edge"><title>Node2&#45;&gt;Node20</title>
<path fill="none" stroke="midnightblue" d="M1376.79,-79.9793C1553.72,-72.2807 2001.03,-51.1756 2066,-32 2067.7,-31.4991 2069.41,-30.878 2071.09,-30.1762"/>
<polygon fill="midnightblue" stroke="midnightblue" points="2072.96,-33.1568 2080.33,-25.5462 2069.82,-26.8992 2072.96,-33.1568"/>
</g>
</g>
</svg>
        <g id="navigator" transform="translate(0 0)" fill="#404254">
                <rect fill="#f2f5e9" fill-opacity="0.5" stroke="#606060" stroke-width=".5" x="0" y="0" width="60" height="60"/>
                <use id="zoomplus" xlink:href="#zoomPlus" x="17" y="9" onmousedown="handleZoom(evt,'in')"/>
                <use id="zoomminus" xlink:href="#zoomMin" x="42" y="9" onmousedown="handleZoom(evt,'out')"/>
                <use id="reset" xlink:href="#resetDef" x="30" y="36" onmousedown="handleReset()"/>
                <g id="arrowUp" xlink:href="#dirArrow" transform="translate(30 24)" onmousedown="handlePan(0,-1)">
                  <use xlink:href="#rim" fill="#404040">
                        <set attributeName="fill" to="#808080" begin="arrowUp.mouseover" end="arrowUp.mouseout"/>
                  </use>
                  <path fill="none" stroke="white" stroke-width="1.5" d="M0,-3.0v7 M-2.5,-0.5L0,-3.0L2.5,-0.5"/>
                </g>
                <g id="arrowRight" xlink:href="#dirArrow" transform="rotate(90) translate(36 -43)" onmousedown="handlePan(1,0)">
                  <use xlink:href="#rim" fill="#404040">
                        <set attributeName="fill" to="#808080" begin="arrowRight.mouseover" end="arrowRight.mouseout"/>
                  </use>
                  <path fill="none" stroke="white" stroke-width="1.5" d="M0,-3.0v7 M-2.5,-0.5L0,-3.0L2.5,-0.5"/>
                </g>
                <g id="arrowDown" xlink:href="#dirArrow" transform="rotate(180) translate(-30 -48)" onmousedown="handlePan(0,1)">
                  <use xlink:href="#rim" fill="#404040">
                        <set attributeName="fill" to="#808080" begin="arrowDown.mouseover" end="arrowDown.mouseout"/>
                  </use>
                  <path fill="none" stroke="white" stroke-width="1.5" d="M0,-3.0v7 M-2.5,-0.5L0,-3.0L2.5,-0.5"/>
                </g>
                <g id="arrowLeft" xlink:href="#dirArrow" transform="rotate(270) translate(-36 17)" onmousedown="handlePan(-1,0)">
                  <use xlink:href="#rim" fill="#404040">
                        <set attributeName="fill" to="#808080" begin="arrowLeft.mouseover" end="arrowLeft.mouseout"/>
                  </use>
                  <path fill="none" stroke="white" stroke-width="1.5" d="M0,-3.0v7 M-2.5,-0.5L0,-3.0L2.5,-0.5"/>
                </g>
        </g>
        <svg viewBox="0 0 15 15" width="100%" height="30px" preserveAspectRatio="xMaxYMin meet">
         <g id="arrow_out" transform="scale(0.3 0.3)">
          <a xlink:href="_human_dynamics_estimator_8cpp__incl_org.svg" target="_base">
           <rect id="button" ry="5" rx="5" y="6" x="6" height="38" width="38"
                fill="#f2f5e9" fill-opacity="0.5" stroke="#606060" stroke-width="1.0"/>
           <path id="arrow"
             d="M 11.500037,31.436501 C 11.940474,20.09759 22.043105,11.32322 32.158766,21.979434 L 37.068811,17.246167 C 37.068811,17.246167 37.088388,32 37.088388,32 L 22.160133,31.978069 C 22.160133,31.978069 26.997745,27.140456 26.997745,27.140456 C 18.528582,18.264221 13.291696,25.230495 11.500037,31.436501 z"
             style="fill:#404040;"/>
          </a>
         </g>
        </svg>
</svg>
