<?xml version="1.0" encoding="UTF-8" standalone="no"?>
<!DOCTYPE svg PUBLIC "-//W3C//DTD SVG 1.1//EN"
 "http://www.w3.org/Graphics/SVG/1.1/DTD/svg11.dtd">
<!-- Generated by graphviz version 2.36.0 (20140111.2315)
 -->
<!-- Title: /home/travis/build/robotology/human&#45;dynamics&#45;estimation/human&#45;state&#45;provider/src/HumanStateProviderPrivate.cpp Pages: 1 -->
<svg width="2551pt" height="364pt"
 viewBox="0.00 0.00 2551.00 364.00" xmlns="http://www.w3.org/2000/svg" xmlns:xlink="http://www.w3.org/1999/xlink">
<g id="graph0" class="graph" transform="scale(1 1) rotate(0) translate(4 360)">
<title>/home/travis/build/robotology/human&#45;dynamics&#45;estimation/human&#45;state&#45;provider/src/HumanStateProviderPrivate.cpp</title>
<!-- Node1 -->
<g id="node1" class="node"><title>Node1</title>
<polygon fill="#bfbfbf" stroke="black" points="1777,-292.5 1777,-355.5 1941,-355.5 1941,-292.5 1777,-292.5"/>
<text text-anchor="start" x="1785" y="-343.5" font-family="Helvetica,sans-Serif" font-size="10.00">/home/travis/build</text>
<text text-anchor="start" x="1785" y="-332.5" font-family="Helvetica,sans-Serif" font-size="10.00">/robotology/human&#45;dynamics</text>
<text text-anchor="start" x="1785" y="-321.5" font-family="Helvetica,sans-Serif" font-size="10.00">&#45;estimation/human&#45;state</text>
<text text-anchor="start" x="1785" y="-310.5" font-family="Helvetica,sans-Serif" font-size="10.00">&#45;provider/src/HumanStateProvider</text>
<text text-anchor="middle" x="1859" y="-299.5" font-family="Helvetica,sans-Serif" font-size="10.00">Private.cpp</text>
</g>
<!-- Node2 -->
<g id="node2" class="node"><title>Node2</title>
<g id="a_node2"><a xlink:href="_human_state_provider_private_8h.html" target="_top" xlink:title="HumanStateProviderPrivate.h">
<polygon fill="none" stroke="black" points="1337,-236.5 1337,-255.5 1483,-255.5 1483,-236.5 1337,-236.5"/>
<text text-anchor="middle" x="1410" y="-243.5" font-family="Helvetica,sans-Serif" font-size="10.00">HumanStateProviderPrivate.h</text>
</a>
</g>
</g>
<!-- Node1&#45;&gt;Node2 -->
<g id="edge1" class="edge"><title>Node1&#45;&gt;Node2</title>
<path fill="none" stroke="midnightblue" d="M1776.91,-309.105C1688.51,-294.142 1549.95,-270.688 1470.81,-257.294"/>
<polygon fill="midnightblue" stroke="midnightblue" points="1470.97,-253.77 1460.53,-255.552 1469.8,-260.672 1470.97,-253.77"/>
</g>
<!-- Node28 -->
<g id="node28" class="node"><title>Node28</title>
<g id="a_node28"><a xlink:href="_human_i_k_worker_pool_8h.html" target="_top" xlink:title="HumanIKWorkerPool.h">
<polygon fill="none" stroke="black" points="2236.5,-236.5 2236.5,-255.5 2353.5,-255.5 2353.5,-236.5 2236.5,-236.5"/>
<text text-anchor="middle" x="2295" y="-243.5" font-family="Helvetica,sans-Serif" font-size="10.00">HumanIKWorkerPool.h</text>
</a>
</g>
</g>
<!-- Node1&#45;&gt;Node28 -->
<g id="edge37" class="edge"><title>Node1&#45;&gt;Node28</title>
<path fill="none" stroke="midnightblue" d="M1941.01,-308.705C2027.06,-293.705 2160.18,-270.501 2236.28,-257.236"/>
<polygon fill="midnightblue" stroke="midnightblue" points="2236.93,-260.676 2246.18,-255.51 2235.72,-253.78 2236.93,-260.676"/>
</g>
<!-- Node3 -->
<g id="node3" class="node"><title>Node3</title>
<g id="a_node3"><a xlink:href="_human_state_provider_8h.html" target="_top" xlink:title="HumanStateProvider.h">
<polygon fill="none" stroke="black" points="47,-180.5 47,-199.5 163,-199.5 163,-180.5 47,-180.5"/>
<text text-anchor="middle" x="105" y="-187.5" font-family="Helvetica,sans-Serif" font-size="10.00">HumanStateProvider.h</text>
</a>
</g>
</g>
<!-- Node2&#45;&gt;Node3 -->
<g id="edge2" class="edge"><title>Node2&#45;&gt;Node3</title>
<path fill="none" stroke="midnightblue" d="M1336.79,-242.884C1152.63,-237.409 655.268,-221.677 241,-200 218.968,-198.847 194.945,-197.34 173.304,-195.89"/>
<polygon fill="midnightblue" stroke="midnightblue" points="173.432,-192.391 163.218,-195.207 172.959,-199.375 173.432,-192.391"/>
</g>
<!-- Node5 -->
<g id="node5" class="node"><title>Node5</title>
<g id="a_node5"><a xlink:href="autogenerated_2include_2thrifts_2_human_state_8h.html" target="_top" xlink:title="thrifts/HumanState.h">
<polygon fill="none" stroke="black" points="250.5,-180.5 250.5,-199.5 357.5,-199.5 357.5,-180.5 250.5,-180.5"/>
<text text-anchor="middle" x="304" y="-187.5" font-family="Helvetica,sans-Serif" font-size="10.00">thrifts/HumanState.h</text>
</a>
</g>
</g>
<!-- Node2&#45;&gt;Node5 -->
<g id="edge4" class="edge"><title>Node2&#45;&gt;Node5</title>
<path fill="none" stroke="midnightblue" d="M1336.86,-244.046C1167.09,-241.348 733.173,-231.668 372,-200 370.699,-199.886 369.384,-199.765 368.06,-199.638"/>
<polygon fill="midnightblue" stroke="midnightblue" points="368.083,-196.122 357.773,-198.563 367.355,-203.084 368.083,-196.122"/>
</g>
<!-- Node10 -->
<g id="node10" class="node"><title>Node10</title>
<polygon fill="none" stroke="#bfbfbf" points="533.5,-124.5 533.5,-143.5 624.5,-143.5 624.5,-124.5 533.5,-124.5"/>
<text text-anchor="middle" x="579" y="-131.5" font-family="Helvetica,sans-Serif" font-size="10.00">yarp/sig/Vector.h</text>
</g>
<!-- Node2&#45;&gt;Node10 -->
<g id="edge31" class="edge"><title>Node2&#45;&gt;Node10</title>
<path fill="none" stroke="midnightblue" d="M1336.85,-244.324C1116.73,-241.935 473.752,-232.216 443,-200 436.862,-193.57 437.795,-187.205 443,-180 453.14,-165.964 492.49,-153.882 526.272,-145.783"/>
<polygon fill="midnightblue" stroke="midnightblue" points="527.132,-149.176 536.079,-143.502 525.546,-142.358 527.132,-149.176"/>
</g>
<!-- Node11 -->
<g id="node11" class="node"><title>Node11</title>
<g id="a_node11"><a xlink:href="autogenerated_2include_2thrifts_2_human_state_provider_service_8h.html" target="_top" xlink:title="thrifts/HumanStateProvider\lService.h">
<polygon fill="none" stroke="black" points="303.5,-57 303.5,-87 438.5,-87 438.5,-57 303.5,-57"/>
<text text-anchor="start" x="311.5" y="-75" font-family="Helvetica,sans-Serif" font-size="10.00">thrifts/HumanStateProvider</text>
<text text-anchor="middle" x="371" y="-64" font-family="Helvetica,sans-Serif" font-size="10.00">Service.h</text>
</a>
</g>
</g>
<!-- Node2&#45;&gt;Node11 -->
<g id="edge15" class="edge"><title>Node2&#45;&gt;Node11</title>
<path fill="none" stroke="midnightblue" d="M1336.83,-243.633C1116.6,-239.256 472.682,-224.423 435,-200 399.202,-176.798 382.572,-127.063 375.543,-97.1805"/>
<polygon fill="midnightblue" stroke="midnightblue" points="378.909,-96.1869 373.371,-87.1552 372.068,-97.6696 378.909,-96.1869"/>
</g>
<!-- Node12 -->
<g id="node12" class="node"><title>Node12</title>
<polygon fill="none" stroke="#bfbfbf" points="452,-180.5 452,-199.5 608,-199.5 608,-180.5 452,-180.5"/>
<text text-anchor="middle" x="530" y="-187.5" font-family="Helvetica,sans-Serif" font-size="10.00">iDynTree/Core/MatrixDynSize.h</text>
</g>
<!-- Node2&#45;&gt;Node12 -->
<g id="edge18" class="edge"><title>Node2&#45;&gt;Node12</title>
<path fill="none" stroke="midnightblue" d="M1336.94,-241.989C1198.77,-236.046 889.445,-221.556 618.274,-200.067"/>
<polygon fill="midnightblue" stroke="midnightblue" points="618.485,-196.572 608.239,-199.267 617.929,-203.55 618.485,-196.572"/>
</g>
<!-- Node13 -->
<g id="node13" class="node"><title>Node13</title>
<polygon fill="none" stroke="#bfbfbf" points="626,-180.5 626,-199.5 784,-199.5 784,-180.5 626,-180.5"/>
<text text-anchor="middle" x="705" y="-187.5" font-family="Helvetica,sans-Serif" font-size="10.00">iDynTree/Core/VectorDynSize.h</text>
</g>
<!-- Node2&#45;&gt;Node13 -->
<g id="edge19" class="edge"><title>Node2&#45;&gt;Node13</title>
<path fill="none" stroke="midnightblue" d="M1336.81,-240.354C1223.14,-232.985 996.999,-217.714 794.385,-200.098"/>
<polygon fill="midnightblue" stroke="midnightblue" points="794.41,-196.587 784.144,-199.204 793.801,-203.561 794.41,-196.587"/>
</g>
<!-- Node14 -->
<g id="node14" class="node"><title>Node14</title>
<polygon fill="none" stroke="#bfbfbf" points="802,-180.5 802,-199.5 938,-199.5 938,-180.5 802,-180.5"/>
<text text-anchor="middle" x="870" y="-187.5" font-family="Helvetica,sans-Serif" font-size="10.00">iDynTree/Core/Transform.h</text>
</g>
<!-- Node2&#45;&gt;Node14 -->
<g id="edge20" class="edge"><title>Node2&#45;&gt;Node14</title>
<path fill="none" stroke="midnightblue" d="M1336.98,-238.346C1247.85,-230.124 1092.23,-215.448 948.35,-200.126"/>
<polygon fill="midnightblue" stroke="midnightblue" points="948.327,-196.604 938.012,-199.022 947.584,-203.565 948.327,-196.604"/>
</g>
<!-- Node15 -->
<g id="node15" class="node"><title>Node15</title>
<polygon fill="none" stroke="#bfbfbf" points="956.5,-180.5 956.5,-199.5 1087.5,-199.5 1087.5,-180.5 956.5,-180.5"/>
<text text-anchor="middle" x="1022" y="-187.5" font-family="Helvetica,sans-Serif" font-size="10.00">iDynTree/Model/Indeces.h</text>
</g>
<!-- Node2&#45;&gt;Node15 -->
<g id="edge21" class="edge"><title>Node2&#45;&gt;Node15</title>
<path fill="none" stroke="midnightblue" d="M1348.52,-236.444C1279.13,-226.786 1166.42,-211.099 1093.25,-200.916"/>
<polygon fill="midnightblue" stroke="midnightblue" points="1093.58,-197.428 1083.19,-199.516 1092.61,-204.362 1093.58,-197.428"/>
</g>
<!-- Node16 -->
<g id="node16" class="node"><title>Node16</title>
<polygon fill="none" stroke="#bfbfbf" points="1105.5,-180.5 1105.5,-199.5 1266.5,-199.5 1266.5,-180.5 1105.5,-180.5"/>
<text text-anchor="middle" x="1186" y="-187.5" font-family="Helvetica,sans-Serif" font-size="10.00">iDynTree/KinDynComputations.h</text>
</g>
<!-- Node2&#45;&gt;Node16 -->
<g id="edge22" class="edge"><title>Node2&#45;&gt;Node16</title>
<path fill="none" stroke="midnightblue" d="M1374.51,-236.444C1335.68,-227.083 1273.34,-212.056 1231.08,-201.868"/>
<polygon fill="midnightblue" stroke="midnightblue" points="1231.87,-198.458 1221.33,-199.516 1230.23,-205.263 1231.87,-198.458"/>
</g>
<!-- Node17 -->
<g id="node17" class="node"><title>Node17</title>
<g id="a_node17"><a xlink:href="_inverse_kinematics_8h.html" target="_top" xlink:title="human&#45;ik/InverseKinematics.h">
<polygon fill="none" stroke="black" points="1284.5,-180.5 1284.5,-199.5 1433.5,-199.5 1433.5,-180.5 1284.5,-180.5"/>
<text text-anchor="middle" x="1359" y="-187.5" font-family="Helvetica,sans-Serif" font-size="10.00">human&#45;ik/InverseKinematics.h</text>
</a>
</g>
</g>
<!-- Node2&#45;&gt;Node17 -->
<g id="edge23" class="edge"><title>Node2&#45;&gt;Node17</title>
<path fill="none" stroke="midnightblue" d="M1401.58,-236.083C1394.15,-228.22 1383.15,-216.569 1374.19,-207.081"/>
<polygon fill="midnightblue" stroke="midnightblue" points="1376.68,-204.618 1367.26,-199.751 1371.59,-209.424 1376.68,-204.618"/>
</g>
<!-- Node19 -->
<g id="node19" class="node"><title>Node19</title>
<polygon fill="none" stroke="#bfbfbf" points="1428.5,-124.5 1428.5,-143.5 1469.5,-143.5 1469.5,-124.5 1428.5,-124.5"/>
<text text-anchor="middle" x="1449" y="-131.5" font-family="Helvetica,sans-Serif" font-size="10.00">string</text>
</g>
<!-- Node2&#45;&gt;Node19 -->
<g id="edge35" class="edge"><title>Node2&#45;&gt;Node19</title>
<path fill="none" stroke="midnightblue" d="M1418.12,-236.491C1425.7,-227.983 1436.63,-214.161 1442,-200 1447.61,-185.227 1449.19,-167.298 1449.46,-154.015"/>
<polygon fill="midnightblue" stroke="midnightblue" points="1452.96,-153.725 1449.43,-143.735 1445.96,-153.744 1452.96,-153.725"/>
</g>
<!-- Node20 -->
<g id="node20" class="node"><title>Node20</title>
<polygon fill="none" stroke="#bfbfbf" points="1488,-124.5 1488,-143.5 1532,-143.5 1532,-124.5 1488,-124.5"/>
<text text-anchor="middle" x="1510" y="-131.5" font-family="Helvetica,sans-Serif" font-size="10.00">vector</text>
</g>
<!-- Node2&#45;&gt;Node20 -->
<g id="edge36" class="edge"><title>Node2&#45;&gt;Node20</title>
<path fill="none" stroke="midnightblue" d="M1420.21,-236.484C1430.45,-227.751 1446.45,-213.564 1459,-200 1473.25,-184.602 1487.86,-165.584 1497.77,-152.107"/>
<polygon fill="midnightblue" stroke="midnightblue" points="1500.78,-153.923 1503.82,-143.774 1495.11,-149.811 1500.78,-153.923"/>
</g>
<!-- Node21 -->
<g id="node21" class="node"><title>Node21</title>
<polygon fill="none" stroke="#bfbfbf" points="1527.5,-180.5 1527.5,-199.5 1638.5,-199.5 1638.5,-180.5 1527.5,-180.5"/>
<text text-anchor="middle" x="1583" y="-187.5" font-family="Helvetica,sans-Serif" font-size="10.00">yarp/dev/PolyDriver.h</text>
</g>
<!-- Node2&#45;&gt;Node21 -->
<g id="edge27" class="edge"><title>Node2&#45;&gt;Node21</title>
<path fill="none" stroke="midnightblue" d="M1437.41,-236.444C1466.77,-227.28 1513.52,-212.688 1546.1,-202.519"/>
<polygon fill="midnightblue" stroke="midnightblue" points="1547.21,-205.837 1555.72,-199.516 1545.13,-199.155 1547.21,-205.837"/>
</g>
<!-- Node22 -->
<g id="node22" class="node"><title>Node22</title>
<polygon fill="none" stroke="#bfbfbf" points="1656.5,-180.5 1656.5,-199.5 1789.5,-199.5 1789.5,-180.5 1656.5,-180.5"/>
<text text-anchor="middle" x="1723" y="-187.5" font-family="Helvetica,sans-Serif" font-size="10.00">yarp/dev/PreciselyTimed.h</text>
</g>
<!-- Node2&#45;&gt;Node22 -->
<g id="edge28" class="edge"><title>Node2&#45;&gt;Node22</title>
<path fill="none" stroke="midnightblue" d="M1459.6,-236.444C1515,-226.885 1604.64,-211.419 1663.71,-201.23"/>
<polygon fill="midnightblue" stroke="midnightblue" points="1664.38,-204.666 1673.64,-199.516 1663.19,-197.768 1664.38,-204.666"/>
</g>
<!-- Node23 -->
<g id="node23" class="node"><title>Node23</title>
<polygon fill="none" stroke="#bfbfbf" points="1807.5,-180.5 1807.5,-199.5 1922.5,-199.5 1922.5,-180.5 1807.5,-180.5"/>
<text text-anchor="middle" x="1865" y="-187.5" font-family="Helvetica,sans-Serif" font-size="10.00">yarp/os/BufferedPort.h</text>
</g>
<!-- Node2&#45;&gt;Node23 -->
<g id="edge29" class="edge"><title>Node2&#45;&gt;Node23</title>
<path fill="none" stroke="midnightblue" d="M1483.35,-236.893C1559.19,-228.419 1681.33,-214.519 1797.16,-200.086"/>
<polygon fill="midnightblue" stroke="midnightblue" points="1797.78,-203.536 1807.27,-198.823 1796.91,-196.59 1797.78,-203.536"/>
</g>
<!-- Node24 -->
<g id="node24" class="node"><title>Node24</title>
<polygon fill="none" stroke="#bfbfbf" points="1941,-180.5 1941,-199.5 2019,-199.5 2019,-180.5 1941,-180.5"/>
<text text-anchor="middle" x="1980" y="-187.5" font-family="Helvetica,sans-Serif" font-size="10.00">yarp/os/Port.h</text>
</g>
<!-- Node2&#45;&gt;Node24 -->
<g id="edge30" class="edge"><title>Node2&#45;&gt;Node24</title>
<path fill="none" stroke="midnightblue" d="M1483.15,-240.892C1582.11,-234.842 1764.3,-221.965 1930.33,-199.947"/>
<polygon fill="midnightblue" stroke="midnightblue" points="1931.29,-203.35 1940.74,-198.552 1930.36,-196.412 1931.29,-203.35"/>
</g>
<!-- Node25 -->
<g id="node25" class="node"><title>Node25</title>
<polygon fill="none" stroke="#bfbfbf" points="2037.5,-180.5 2037.5,-199.5 2096.5,-199.5 2096.5,-180.5 2037.5,-180.5"/>
<text text-anchor="middle" x="2067" y="-187.5" font-family="Helvetica,sans-Serif" font-size="10.00">Eigen/QR</text>
</g>
<!-- Node2&#45;&gt;Node25 -->
<g id="edge32" class="edge"><title>Node2&#45;&gt;Node25</title>
<path fill="none" stroke="midnightblue" d="M1483.18,-243.317C1597.41,-239.885 1825.05,-229.821 2027.36,-199.844"/>
<polygon fill="midnightblue" stroke="midnightblue" points="2027.91,-203.301 2037.28,-198.355 2026.87,-196.379 2027.91,-203.301"/>
</g>
<!-- Node26 -->
<g id="node26" class="node"><title>Node26</title>
<polygon fill="none" stroke="#bfbfbf" points="2115,-180.5 2115,-199.5 2167,-199.5 2167,-180.5 2115,-180.5"/>
<text text-anchor="middle" x="2141" y="-187.5" font-family="Helvetica,sans-Serif" font-size="10.00">memory</text>
</g>
<!-- Node2&#45;&gt;Node26 -->
<g id="edge33" class="edge"><title>Node2&#45;&gt;Node26</title>
<path fill="none" stroke="midnightblue" d="M1483.01,-244.588C1608.35,-242.935 1872.49,-235.319 2104.78,-199.692"/>
<polygon fill="midnightblue" stroke="midnightblue" points="2105.42,-203.134 2114.77,-198.139 2104.35,-196.217 2105.42,-203.134"/>
</g>
<!-- Node27 -->
<g id="node27" class="node"><title>Node27</title>
<polygon fill="none" stroke="#bfbfbf" points="2185,-180.5 2185,-199.5 2229,-199.5 2229,-180.5 2185,-180.5"/>
<text text-anchor="middle" x="2207" y="-187.5" font-family="Helvetica,sans-Serif" font-size="10.00">mutex</text>
</g>
<!-- Node2&#45;&gt;Node27 -->
<g id="edge34" class="edge"><title>Node2&#45;&gt;Node27</title>
<path fill="none" stroke="midnightblue" d="M1483.22,-242.789C1644.22,-237.597 2025.78,-223.391 2174.49,-199.808"/>
<polygon fill="midnightblue" stroke="midnightblue" points="2175.5,-203.189 2184.79,-198.094 2174.35,-196.284 2175.5,-203.189"/>
</g>
<!-- Node4 -->
<g id="node4" class="node"><title>Node4</title>
<polygon fill="none" stroke="#bfbfbf" points="-0.5,-124.5 -0.5,-143.5 104.5,-143.5 104.5,-124.5 -0.5,-124.5"/>
<text text-anchor="middle" x="52" y="-131.5" font-family="Helvetica,sans-Serif" font-size="10.00">yarp/os/RFModule.h</text>
</g>
<!-- Node3&#45;&gt;Node4 -->
<g id="edge3" class="edge"><title>Node3&#45;&gt;Node4</title>
<path fill="none" stroke="midnightblue" d="M96.2481,-180.083C88.5303,-172.22 77.0953,-160.569 67.7835,-151.081"/>
<polygon fill="midnightblue" stroke="midnightblue" points="70.0916,-148.436 60.589,-143.751 65.0958,-153.34 70.0916,-148.436"/>
</g>
<!-- Node6 -->
<g id="node6" class="node"><title>Node6</title>
<polygon fill="none" stroke="#bfbfbf" points="166,-0.5 166,-19.5 246,-19.5 246,-0.5 166,-0.5"/>
<text text-anchor="middle" x="206" y="-7.5" font-family="Helvetica,sans-Serif" font-size="10.00">yarp/os/Wire.h</text>
</g>
<!-- Node5&#45;&gt;Node6 -->
<g id="edge5" class="edge"><title>Node5&#45;&gt;Node6</title>
<path fill="none" stroke="midnightblue" d="M250.391,-184.635C223.078,-179.377 192.1,-168.076 175,-144 149.701,-108.38 176.886,-55.1277 194.105,-28.083"/>
<polygon fill="midnightblue" stroke="midnightblue" points="197.067,-29.9499 199.678,-19.6818 191.233,-26.0805 197.067,-29.9499"/>
</g>
<!-- Node7 -->
<g id="node7" class="node"><title>Node7</title>
<polygon fill="none" stroke="#bfbfbf" points="359,-0.5 359,-19.5 479,-19.5 479,-0.5 359,-0.5"/>
<text text-anchor="middle" x="419" y="-7.5" font-family="Helvetica,sans-Serif" font-size="10.00">yarp/os/idl/WireTypes.h</text>
</g>
<!-- Node5&#45;&gt;Node7 -->
<g id="edge6" class="edge"><title>Node5&#45;&gt;Node7</title>
<path fill="none" stroke="midnightblue" d="M332.932,-180.408C370.929,-167.382 436.087,-138.63 464,-88 470.867,-75.5452 469.443,-69.1396 464,-56 459.08,-44.121 449.333,-33.7428 440.166,-25.9557"/>
<polygon fill="midnightblue" stroke="midnightblue" points="442.083,-23.0101 432.064,-19.5641 437.747,-28.5058 442.083,-23.0101"/>
</g>
<!-- Node8 -->
<g id="node8" class="node"><title>Node8</title>
<g id="a_node8"><a xlink:href="human-state-provider_2autogenerated_2include_2thrifts_2_quaternion_8h.html" target="_top" xlink:title="thrifts/Quaternion.h">
<polygon fill="none" stroke="black" points="184,-124.5 184,-143.5 284,-143.5 284,-124.5 184,-124.5"/>
<text text-anchor="middle" x="234" y="-131.5" font-family="Helvetica,sans-Serif" font-size="10.00">thrifts/Quaternion.h</text>
</a>
</g>
</g>
<!-- Node5&#45;&gt;Node8 -->
<g id="edge7" class="edge"><title>Node5&#45;&gt;Node8</title>
<path fill="none" stroke="midnightblue" d="M292.753,-180.324C282.203,-172.185 266.199,-159.839 253.558,-150.087"/>
<polygon fill="midnightblue" stroke="midnightblue" points="255.507,-147.171 245.451,-143.834 251.231,-152.713 255.507,-147.171"/>
</g>
<!-- Node9 -->
<g id="node9" class="node"><title>Node9</title>
<g id="a_node9"><a xlink:href="human-state-provider_2autogenerated_2include_2thrifts_2_vector3_8h.html" target="_top" xlink:title="thrifts/Vector3.h">
<polygon fill="none" stroke="black" points="199,-62.5 199,-81.5 285,-81.5 285,-62.5 199,-62.5"/>
<text text-anchor="middle" x="242" y="-69.5" font-family="Helvetica,sans-Serif" font-size="10.00">thrifts/Vector3.h</text>
</a>
</g>
</g>
<!-- Node5&#45;&gt;Node9 -->
<g id="edge13" class="edge"><title>Node5&#45;&gt;Node9</title>
<path fill="none" stroke="midnightblue" d="M304.169,-180.486C304.084,-167.554 302.555,-142.51 293,-124 285.677,-109.813 272.998,-97.1074 262.114,-87.9262"/>
<polygon fill="midnightblue" stroke="midnightblue" points="264.25,-85.153 254.26,-81.6262 259.871,-90.6134 264.25,-85.153"/>
</g>
<!-- Node5&#45;&gt;Node10 -->
<g id="edge14" class="edge"><title>Node5&#45;&gt;Node10</title>
<path fill="none" stroke="midnightblue" d="M347.575,-180.444C395.849,-170.964 473.712,-155.675 525.612,-145.483"/>
<polygon fill="midnightblue" stroke="midnightblue" points="526.491,-148.878 535.629,-143.516 525.142,-142.009 526.491,-148.878"/>
</g>
<!-- Node8&#45;&gt;Node6 -->
<g id="edge8" class="edge"><title>Node8&#45;&gt;Node6</title>
<path fill="none" stroke="midnightblue" d="M221.219,-124.369C210.606,-116.36 196.269,-103.379 190,-88 182.136,-68.7089 189.33,-45.0607 196.425,-29.1019"/>
<polygon fill="midnightblue" stroke="midnightblue" points="199.699,-30.3729 200.915,-19.8481 193.401,-27.3173 199.699,-30.3729"/>
</g>
<!-- Node8&#45;&gt;Node7 -->
<g id="edge9" class="edge"><title>Node8&#45;&gt;Node7</title>
<path fill="none" stroke="midnightblue" d="M284.111,-129.536C340.502,-124.473 426.886,-112.807 447,-88 461.495,-70.1231 446.483,-44.0858 433.472,-27.344"/>
<polygon fill="midnightblue" stroke="midnightblue" points="436.084,-25.0105 427.018,-19.5289 430.687,-29.4681 436.084,-25.0105"/>
</g>
<!-- Node8&#45;&gt;Node9 -->
<g id="edge10" class="edge"><title>Node8&#45;&gt;Node9</title>
<path fill="none" stroke="midnightblue" d="M235.146,-124.403C236.275,-115.938 238.036,-102.728 239.491,-91.8199"/>
<polygon fill="midnightblue" stroke="midnightblue" points="243.003,-91.9555 240.856,-81.5806 236.065,-91.0303 243.003,-91.9555"/>
</g>
<!-- Node9&#45;&gt;Node6 -->
<g id="edge11" class="edge"><title>Node9&#45;&gt;Node6</title>
<path fill="none" stroke="midnightblue" d="M236.842,-62.4035C231.549,-53.5816 223.165,-39.6075 216.473,-28.4548"/>
<polygon fill="midnightblue" stroke="midnightblue" points="219.295,-26.3548 211.148,-19.5806 213.292,-29.9563 219.295,-26.3548"/>
</g>
<!-- Node9&#45;&gt;Node7 -->
<g id="edge12" class="edge"><title>Node9&#45;&gt;Node7</title>
<path fill="none" stroke="midnightblue" d="M267.36,-62.4035C297.984,-52.0222 349.657,-34.5062 384.046,-22.849"/>
<polygon fill="midnightblue" stroke="midnightblue" points="385.34,-26.1058 393.687,-19.5806 383.093,-19.4763 385.34,-26.1058"/>
</g>
<!-- Node11&#45;&gt;Node6 -->
<g id="edge16" class="edge"><title>Node11&#45;&gt;Node6</title>
<path fill="none" stroke="midnightblue" d="M332.315,-56.9327C304.105,-46.6744 266.266,-32.9148 239.377,-23.1369"/>
<polygon fill="midnightblue" stroke="midnightblue" points="240.244,-19.7282 229.65,-19.6 237.852,-26.3068 240.244,-19.7282"/>
</g>
<!-- Node11&#45;&gt;Node7 -->
<g id="edge17" class="edge"><title>Node11&#45;&gt;Node7</title>
<path fill="none" stroke="midnightblue" d="M382.375,-56.7808C389.35,-48.0621 398.314,-36.8574 405.628,-27.7153"/>
<polygon fill="midnightblue" stroke="midnightblue" points="408.502,-29.7257 412.016,-19.7305 403.036,-25.3528 408.502,-29.7257"/>
</g>
<!-- Node18 -->
<g id="node18" class="node"><title>Node18</title>
<polygon fill="none" stroke="#bfbfbf" points="1257.5,-124.5 1257.5,-143.5 1410.5,-143.5 1410.5,-124.5 1257.5,-124.5"/>
<text text-anchor="middle" x="1334" y="-131.5" font-family="Helvetica,sans-Serif" font-size="10.00">iDynTree/Core/VectorFixSize.h</text>
</g>
<!-- Node17&#45;&gt;Node18 -->
<g id="edge24" class="edge"><title>Node17&#45;&gt;Node18</title>
<path fill="none" stroke="midnightblue" d="M1354.87,-180.083C1351.49,-172.77 1346.58,-162.181 1342.38,-153.103"/>
<polygon fill="midnightblue" stroke="midnightblue" points="1345.43,-151.355 1338.05,-143.751 1339.08,-154.296 1345.43,-151.355"/>
</g>
<!-- Node17&#45;&gt;Node19 -->
<g id="edge25" class="edge"><title>Node17&#45;&gt;Node19</title>
<path fill="none" stroke="midnightblue" d="M1373.46,-180.324C1387.5,-171.9 1409.05,-158.971 1425.54,-149.074"/>
<polygon fill="midnightblue" stroke="midnightblue" points="1427.8,-151.801 1434.58,-143.655 1424.2,-145.798 1427.8,-151.801"/>
</g>
<!-- Node17&#45;&gt;Node20 -->
<g id="edge26" class="edge"><title>Node17&#45;&gt;Node20</title>
<path fill="none" stroke="midnightblue" d="M1382.93,-180.444C1408.67,-171.239 1449.72,-156.556 1478.17,-146.383"/>
<polygon fill="midnightblue" stroke="midnightblue" points="1479.42,-149.651 1487.66,-142.988 1477.07,-143.06 1479.42,-149.651"/>
</g>
<!-- Node28&#45;&gt;Node20 -->
<g id="edge42" class="edge"><title>Node28&#45;&gt;Node20</title>
<path fill="none" stroke="midnightblue" d="M2290.31,-236.307C2281.87,-221.653 2262.58,-192.42 2237,-180 2174,-149.41 1675.67,-138.065 1542.58,-135.564"/>
<polygon fill="midnightblue" stroke="midnightblue" points="1542.3,-132.059 1532.24,-135.374 1542.17,-139.057 1542.3,-132.059"/>
</g>
<!-- Node28&#45;&gt;Node27 -->
<g id="edge38" class="edge"><title>Node28&#45;&gt;Node27</title>
<path fill="none" stroke="midnightblue" d="M2280.86,-236.324C2267.13,-227.9 2246.06,-214.971 2229.94,-205.074"/>
<polygon fill="midnightblue" stroke="midnightblue" points="2231.46,-201.902 2221.1,-199.655 2227.8,-207.868 2231.46,-201.902"/>
</g>
<!-- Node29 -->
<g id="node29" class="node"><title>Node29</title>
<polygon fill="none" stroke="#bfbfbf" points="2285.5,-180.5 2285.5,-199.5 2380.5,-199.5 2380.5,-180.5 2285.5,-180.5"/>
<text text-anchor="middle" x="2333" y="-187.5" font-family="Helvetica,sans-Serif" font-size="10.00">condition_variable</text>
</g>
<!-- Node28&#45;&gt;Node29 -->
<g id="edge39" class="edge"><title>Node28&#45;&gt;Node29</title>
<path fill="none" stroke="midnightblue" d="M2301.27,-236.083C2306.64,-228.455 2314.52,-217.264 2321.08,-207.941"/>
<polygon fill="midnightblue" stroke="midnightblue" points="2323.95,-209.943 2326.84,-199.751 2318.22,-205.915 2323.95,-209.943"/>
</g>
<!-- Node30 -->
<g id="node30" class="node"><title>Node30</title>
<polygon fill="none" stroke="#bfbfbf" points="2398.5,-180.5 2398.5,-199.5 2481.5,-199.5 2481.5,-180.5 2398.5,-180.5"/>
<text text-anchor="middle" x="2440" y="-187.5" font-family="Helvetica,sans-Serif" font-size="10.00">unordered_map</text>
</g>
<!-- Node28&#45;&gt;Node30 -->
<g id="edge40" class="edge"><title>Node28&#45;&gt;Node30</title>
<path fill="none" stroke="midnightblue" d="M2317.98,-236.444C2342.16,-227.438 2380.42,-213.189 2407.65,-203.049"/>
<polygon fill="midnightblue" stroke="midnightblue" points="2408.98,-206.286 2417.13,-199.516 2406.54,-199.727 2408.98,-206.286"/>
</g>
<!-- Node31 -->
<g id="node31" class="node"><title>Node31</title>
<polygon fill="none" stroke="#bfbfbf" points="2499.5,-180.5 2499.5,-199.5 2542.5,-199.5 2542.5,-180.5 2499.5,-180.5"/>
<text text-anchor="middle" x="2521" y="-187.5" font-family="Helvetica,sans-Serif" font-size="10.00">queue</text>
</g>
<!-- Node28&#45;&gt;Node31 -->
<g id="edge41" class="edge"><title>Node28&#45;&gt;Node31</title>
<path fill="none" stroke="midnightblue" d="M2335.12,-236.427C2372.57,-228.272 2430.23,-215.33 2489.46,-200.026"/>
<polygon fill="midnightblue" stroke="midnightblue" points="2490.57,-203.354 2499.36,-197.449 2488.8,-196.58 2490.57,-203.354"/>
</g>
</g>
</svg>
