<?xml version="1.0" encoding="UTF-8" standalone="no"?>
<!DOCTYPE svg PUBLIC "-//W3C//DTD SVG 1.1//EN"
 "http://www.w3.org/Graphics/SVG/1.1/DTD/svg11.dtd">
<!-- Generated by graphviz version 2.36.0 (20140111.2315)
 -->
<!-- Title: /home/travis/build/robotology/human&#45;dynamics&#45;estimation/human&#45;forces&#45;provider/src/HumanForcesProvider.cpp Pages: 1 -->
<!--zoomable 342 -->
<svg id="main" version="1.1" xmlns="http://www.w3.org/2000/svg" xmlns:xlink="http://www.w3.org/1999/xlink" xml:space="preserve" onload="init(evt)">
<style type="text/css"><![CDATA[
.edge:hover path { stroke: red; }
.edge:hover polygon { stroke: red; fill: red; }
]]></style>
<script type="text/javascript"><![CDATA[
var edges = document.getElementsByTagName('g');
if (edges && edges.length) {
  for (var i=0;i<edges.length;i++) {
    if (edges[i].id.substr(0,4)=='edge') {
      edges[i].setAttribute('class','edge');
    }
  }
}
]]></script>
        <defs>
                <circle id="rim" cx="0" cy="0" r="7"/>
                <circle id="rim2" cx="0" cy="0" r="3.5"/>
                <g id="zoomPlus">
                        <use xlink:href="#rim" fill="#404040">
                                <set attributeName="fill" to="#808080" begin="zoomplus.mouseover" end="zoomplus.mouseout"/>
                        </use>
                        <path d="M-4,0h8M0,-4v8" fill="none" stroke="white" stroke-width="1.5" pointer-events="none"/>
                </g>
                <g id="zoomMin">
                        <use xlink:href="#rim" fill="#404040">
                                <set attributeName="fill" to="#808080" begin="zoomminus.mouseover" end="zoomminus.mouseout"/>
                        </use>
                        <path d="M-4,0h8" fill="none" stroke="white" stroke-width="1.5" pointer-events="none"/>
                </g>
                <g id="dirArrow">
                        <path fill="none" stroke="white" stroke-width="1.5" d="M0,-3.0v7 M-2.5,-0.5L0,-3.0L2.5,-0.5"/>
                </g>
               <g id="resetDef">
                       <use xlink:href="#rim2" fill="#404040">
                               <set attributeName="fill" to="#808080" begin="reset.mouseover" end="reset.mouseout"/>
                       </use>
               </g>
        </defs>

<script type="text/javascript">
var viewWidth = 3094;
var viewHeight = 342;
var sectionId = 'dynsection-0';
</script>
<script xlink:href="svgpan.js"/>
<svg id="graph" class="graph">
<g id="viewport">
<title>/home/travis/build/robotology/human&#45;dynamics&#45;estimation/human&#45;forces&#45;provider/src/HumanForcesProvider.cpp</title>
<!-- Node1 -->
<g id="node1" class="node"><title>Node1</title>
<polygon fill="#bfbfbf" stroke="black" points="1434.16,-281 1434.16,-333 1624.16,-333 1624.16,-281 1434.16,-281"/>
<text text-anchor="start" x="1442.16" y="-321" font-family="Helvetica,sans-Serif" font-size="10.00">/home/travis/build</text>
<text text-anchor="start" x="1442.16" y="-310" font-family="Helvetica,sans-Serif" font-size="10.00">/robotology/human&#45;dynamics</text>
<text text-anchor="start" x="1442.16" y="-299" font-family="Helvetica,sans-Serif" font-size="10.00">&#45;estimation/human&#45;forces</text>
<text text-anchor="middle" x="1529.16" y="-288" font-family="Helvetica,sans-Serif" font-size="10.00">&#45;provider/src/HumanForcesProvider.cpp</text>
</g>
<!-- Node2 -->
<g id="node2" class="node"><title>Node2</title>
<g id="a_node2"><a xlink:href="_human_forces_provider_8h.html" target="_top" xlink:title="HumanForcesProvider.h">
<polygon fill="none" stroke="black" points="579.157,-224.5 579.157,-243.5 701.157,-243.5 701.157,-224.5 579.157,-224.5"/>
<text text-anchor="middle" x="640.157" y="-231.5" font-family="Helvetica,sans-Serif" font-size="10.00">HumanForcesProvider.h</text>
</a>
</g>
</g>
<!-- Node1&#45;&gt;Node2 -->
<g id="edge1" class="edge"><title>Node1&#45;&gt;Node2</title>
<path fill="none" stroke="midnightblue" d="M1434.02,-298.402C1254.75,-284.085 870.688,-253.411 711.525,-240.7"/>
<polygon fill="midnightblue" stroke="midnightblue" points="711.618,-237.196 701.371,-239.889 711.061,-244.174 711.618,-237.196"/>
</g>
<!-- Node15 -->
<g id="node15" class="node"><title>Node15</title>
<g id="a_node15"><a xlink:href="_force_reader_8h.html" target="_top" xlink:title="ForceReader.h">
<polygon fill="none" stroke="black" points="10.6568,-112.5 10.6568,-131.5 91.6568,-131.5 91.6568,-112.5 10.6568,-112.5"/>
<text text-anchor="middle" x="51.1568" y="-119.5" font-family="Helvetica,sans-Serif" font-size="10.00">ForceReader.h</text>
</a>
</g>
</g>
<!-- Node1&#45;&gt;Node15 -->
<g id="edge24" class="edge"><title>Node1&#45;&gt;Node15</title>
<path fill="none" stroke="midnightblue" d="M1433.89,-305.269C1111.03,-302.381 75.2335,-289.585 21.1568,-244 -4.98914,-221.96 -3.38309,-199.814 9.15683,-168 13.6708,-156.548 22.6258,-146.291 31.1115,-138.472"/>
<polygon fill="midnightblue" stroke="midnightblue" points="33.6254,-140.927 38.9431,-131.764 29.0715,-135.611 33.6254,-140.927"/>
</g>
<!-- Node16 -->
<g id="node16" class="node"><title>Node16</title>
<g id="a_node16"><a xlink:href="_abstract_force_reader_8h.html" target="_top" xlink:title="AbstractForceReader.h">
<polygon fill="none" stroke="black" points="18.1568,-168.5 18.1568,-187.5 136.157,-187.5 136.157,-168.5 18.1568,-168.5"/>
<text text-anchor="middle" x="77.1568" y="-175.5" font-family="Helvetica,sans-Serif" font-size="10.00">AbstractForceReader.h</text>
</a>
</g>
</g>
<!-- Node1&#45;&gt;Node16 -->
<g id="edge25" class="edge"><title>Node1&#45;&gt;Node16</title>
<path fill="none" stroke="midnightblue" d="M1434.12,-304.693C1145.22,-300.3 289.821,-284.024 171.157,-244 155.057,-238.57 118.428,-211.313 95.9431,-193.865"/>
<polygon fill="midnightblue" stroke="midnightblue" points="97.8508,-190.913 87.8179,-187.509 93.5378,-196.427 97.8508,-190.913"/>
</g>
<!-- Node17 -->
<g id="node17" class="node"><title>Node17</title>
<g id="a_node17"><a xlink:href="_f_t_force_reader_8h.html" target="_top" xlink:title="FTForceReader.h">
<polygon fill="none" stroke="black" points="30.6568,-224.5 30.6568,-243.5 123.657,-243.5 123.657,-224.5 30.6568,-224.5"/>
<text text-anchor="middle" x="77.1568" y="-231.5" font-family="Helvetica,sans-Serif" font-size="10.00">FTForceReader.h</text>
</a>
</g>
</g>
<!-- Node1&#45;&gt;Node17 -->
<g id="edge28" class="edge"><title>Node1&#45;&gt;Node17</title>
<path fill="none" stroke="midnightblue" d="M1434.06,-305.099C1208.56,-302.234 623.931,-290.54 138.157,-244 136.692,-243.86 135.208,-243.708 133.712,-243.548"/>
<polygon fill="midnightblue" stroke="midnightblue" points="134.065,-240.065 123.724,-242.37 133.245,-247.017 134.065,-240.065"/>
</g>
<!-- Node18 -->
<g id="node18" class="node"><title>Node18</title>
<g id="a_node18"><a xlink:href="_port_force_reader_8h.html" target="_top" xlink:title="PortForceReader.h">
<polygon fill="none" stroke="black" points="180.657,-224.5 180.657,-243.5 279.657,-243.5 279.657,-224.5 180.657,-224.5"/>
<text text-anchor="middle" x="230.157" y="-231.5" font-family="Helvetica,sans-Serif" font-size="10.00">PortForceReader.h</text>
</a>
</g>
</g>
<!-- Node1&#45;&gt;Node18 -->
<g id="edge30" class="edge"><title>Node1&#45;&gt;Node18</title>
<path fill="none" stroke="midnightblue" d="M1433.9,-300.794C1180.75,-286.957 496.489,-249.557 289.97,-238.269"/>
<polygon fill="midnightblue" stroke="midnightblue" points="290.1,-234.771 279.924,-237.72 289.718,-241.761 290.1,-234.771"/>
</g>
<!-- Node19 -->
<g id="node19" class="node"><title>Node19</title>
<g id="a_node19"><a xlink:href="_frame_transformer_8h.html" target="_top" xlink:title="FrameTransformer.h">
<polygon fill="none" stroke="black" points="1003.66,-112.5 1003.66,-131.5 1108.66,-131.5 1108.66,-112.5 1003.66,-112.5"/>
<text text-anchor="middle" x="1056.16" y="-119.5" font-family="Helvetica,sans-Serif" font-size="10.00">FrameTransformer.h</text>
</a>
</g>
</g>
<!-- Node1&#45;&gt;Node19 -->
<g id="edge33" class="edge"><title>Node1&#45;&gt;Node19</title>
<path fill="none" stroke="midnightblue" d="M1434.12,-300.586C1315.69,-292.633 1120.97,-275.237 1056.16,-244 1017.88,-225.553 979.466,-206.159 998.157,-168 1004.68,-154.684 1017.25,-144.177 1029.03,-136.676"/>
<polygon fill="midnightblue" stroke="midnightblue" points="1030.93,-139.621 1037.77,-131.529 1027.37,-133.589 1030.93,-139.621"/>
</g>
<!-- Node21 -->
<g id="node21" class="node"><title>Node21</title>
<g id="a_node21"><a xlink:href="_generic_frame_transformer_8h.html" target="_top" xlink:title="GenericFrameTransformer.h">
<polygon fill="none" stroke="black" points="1007.66,-168.5 1007.66,-187.5 1146.66,-187.5 1146.66,-168.5 1007.66,-168.5"/>
<text text-anchor="middle" x="1077.16" y="-175.5" font-family="Helvetica,sans-Serif" font-size="10.00">GenericFrameTransformer.h</text>
</a>
</g>
</g>
<!-- Node1&#45;&gt;Node21 -->
<g id="edge35" class="edge"><title>Node1&#45;&gt;Node21</title>
<path fill="none" stroke="midnightblue" d="M1434.1,-299.882C1305.69,-290.634 1089.99,-271.236 1066.16,-244 1054.89,-231.123 1060.53,-211.119 1067.18,-196.703"/>
<polygon fill="midnightblue" stroke="midnightblue" points="1070.31,-198.269 1071.75,-187.772 1064.08,-195.083 1070.31,-198.269"/>
</g>
<!-- Node22 -->
<g id="node22" class="node"><title>Node22</title>
<polygon fill="none" stroke="#bfbfbf" points="1127.16,-112.5 1127.16,-131.5 1263.16,-131.5 1263.16,-112.5 1127.16,-112.5"/>
<text text-anchor="middle" x="1195.16" y="-119.5" font-family="Helvetica,sans-Serif" font-size="10.00">iDynTree/Core/Transform.h</text>
</g>
<!-- Node1&#45;&gt;Node22 -->
<g id="edge56" class="edge"><title>Node1&#45;&gt;Node22</title>
<path fill="none" stroke="midnightblue" d="M1434.09,-302.055C1350.23,-295.137 1247.84,-276.133 1293.16,-224 1369.56,-136.097 1626.14,-255.394 1549.16,-168 1531.23,-147.655 1372.29,-134.093 1273.58,-127.55"/>
<polygon fill="midnightblue" stroke="midnightblue" points="1273.54,-124.04 1263.33,-126.882 1273.08,-131.025 1273.54,-124.04"/>
</g>
<!-- Node23 -->
<g id="node23" class="node"><title>Node23</title>
<g id="a_node23"><a xlink:href="_robot_frame_transformer_8h.html" target="_top" xlink:title="RobotFrameTransformer.h">
<polygon fill="none" stroke="black" points="1075.66,-224.5 1075.66,-243.5 1206.66,-243.5 1206.66,-224.5 1075.66,-224.5"/>
<text text-anchor="middle" x="1141.16" y="-231.5" font-family="Helvetica,sans-Serif" font-size="10.00">RobotFrameTransformer.h</text>
</a>
</g>
</g>
<!-- Node1&#45;&gt;Node23 -->
<g id="edge38" class="edge"><title>Node1&#45;&gt;Node23</title>
<path fill="none" stroke="midnightblue" d="M1433.74,-288.541C1359.67,-274.986 1259.48,-256.652 1197.65,-245.337"/>
<polygon fill="midnightblue" stroke="midnightblue" points="1198.16,-241.872 1187.69,-243.515 1196.9,-248.758 1198.16,-241.872"/>
</g>
<!-- Node25 -->
<g id="node25" class="node"><title>Node25</title>
<polygon fill="none" stroke="#bfbfbf" points="1383.16,-168.5 1383.16,-187.5 1541.16,-187.5 1541.16,-168.5 1383.16,-168.5"/>
<text text-anchor="middle" x="1462.16" y="-175.5" font-family="Helvetica,sans-Serif" font-size="10.00">iDynTree/Core/VectorDynSize.h</text>
</g>
<!-- Node1&#45;&gt;Node25 -->
<g id="edge55" class="edge"><title>Node1&#45;&gt;Node25</title>
<path fill="none" stroke="midnightblue" d="M1433.85,-296.616C1365.19,-287.656 1280.95,-271.37 1259.16,-244 1253.62,-237.047 1253.59,-230.932 1259.16,-224 1267.98,-213.012 1341.54,-198.689 1397.6,-189.186"/>
<polygon fill="midnightblue" stroke="midnightblue" points="1398.21,-192.633 1407.49,-187.528 1397.05,-185.729 1398.21,-192.633"/>
</g>
<!-- Node26 -->
<g id="node26" class="node"><title>Node26</title>
<polygon fill="none" stroke="#bfbfbf" points="1301.66,-224.5 1301.66,-243.5 1408.66,-243.5 1408.66,-224.5 1301.66,-224.5"/>
<text text-anchor="middle" x="1355.16" y="-231.5" font-family="Helvetica,sans-Serif" font-size="10.00">yarp/os/LogStream.h</text>
</g>
<!-- Node1&#45;&gt;Node26 -->
<g id="edge45" class="edge"><title>Node1&#45;&gt;Node26</title>
<path fill="none" stroke="midnightblue" d="M1467.81,-280.968C1440.03,-269.63 1408.41,-256.728 1385.75,-247.485"/>
<polygon fill="midnightblue" stroke="midnightblue" points="1386.91,-244.176 1376.33,-243.639 1384.26,-250.658 1386.91,-244.176"/>
</g>
<!-- Node27 -->
<g id="node27" class="node"><title>Node27</title>
<polygon fill="none" stroke="#bfbfbf" points="1426.66,-224.5 1426.66,-243.5 1523.66,-243.5 1523.66,-224.5 1426.66,-224.5"/>
<text text-anchor="middle" x="1475.16" y="-231.5" font-family="Helvetica,sans-Serif" font-size="10.00">yarp/os/Network.h</text>
</g>
<!-- Node1&#45;&gt;Node27 -->
<g id="edge46" class="edge"><title>Node1&#45;&gt;Node27</title>
<path fill="none" stroke="midnightblue" d="M1509.97,-280.768C1502.68,-271.183 1494.56,-260.506 1487.99,-251.877"/>
<polygon fill="midnightblue" stroke="midnightblue" points="1490.66,-249.598 1481.82,-243.757 1485.09,-253.835 1490.66,-249.598"/>
</g>
<!-- Node28 -->
<g id="node28" class="node"><title>Node28</title>
<polygon fill="none" stroke="#bfbfbf" points="1541.66,-224.5 1541.66,-243.5 1624.66,-243.5 1624.66,-224.5 1541.66,-224.5"/>
<text text-anchor="middle" x="1583.16" y="-231.5" font-family="Helvetica,sans-Serif" font-size="10.00">yarp/os/Node.h</text>
</g>
<!-- Node1&#45;&gt;Node28 -->
<g id="edge47" class="edge"><title>Node1&#45;&gt;Node28</title>
<path fill="none" stroke="midnightblue" d="M1548.35,-280.768C1555.64,-271.183 1563.76,-260.506 1570.32,-251.877"/>
<polygon fill="midnightblue" stroke="midnightblue" points="1573.23,-253.835 1576.5,-243.757 1567.66,-249.598 1573.23,-253.835"/>
</g>
<!-- Node29 -->
<g id="node29" class="node"><title>Node29</title>
<polygon fill="none" stroke="#bfbfbf" points="1642.66,-224.5 1642.66,-243.5 1739.66,-243.5 1739.66,-224.5 1642.66,-224.5"/>
<text text-anchor="middle" x="1691.16" y="-231.5" font-family="Helvetica,sans-Serif" font-size="10.00">yarp/os/Property.h</text>
</g>
<!-- Node1&#45;&gt;Node29 -->
<g id="edge48" class="edge"><title>Node1&#45;&gt;Node29</title>
<path fill="none" stroke="midnightblue" d="M1586.27,-280.968C1611.91,-269.732 1641.05,-256.96 1662.1,-247.735"/>
<polygon fill="midnightblue" stroke="midnightblue" points="1663.69,-250.859 1671.45,-243.639 1660.88,-244.447 1663.69,-250.859"/>
</g>
<!-- Node30 -->
<g id="node30" class="node"><title>Node30</title>
<polygon fill="none" stroke="#bfbfbf" points="1757.66,-224.5 1757.66,-243.5 1858.66,-243.5 1858.66,-224.5 1757.66,-224.5"/>
<text text-anchor="middle" x="1808.16" y="-231.5" font-family="Helvetica,sans-Serif" font-size="10.00">yarp/os/Publisher.h</text>
</g>
<!-- Node1&#45;&gt;Node30 -->
<g id="edge49" class="edge"><title>Node1&#45;&gt;Node30</title>
<path fill="none" stroke="midnightblue" d="M1624.39,-281.764C1672.01,-269.647 1727.3,-255.576 1764.7,-246.059"/>
<polygon fill="midnightblue" stroke="midnightblue" points="1765.92,-249.359 1774.75,-243.501 1764.2,-242.575 1765.92,-249.359"/>
</g>
<!-- Node31 -->
<g id="node31" class="node"><title>Node31</title>
<polygon fill="none" stroke="#bfbfbf" points="1877.16,-224.5 1877.16,-243.5 1959.16,-243.5 1959.16,-224.5 1877.16,-224.5"/>
<text text-anchor="middle" x="1918.16" y="-231.5" font-family="Helvetica,sans-Serif" font-size="10.00">yarp/os/Time.h</text>
</g>
<!-- Node1&#45;&gt;Node31 -->
<g id="edge50" class="edge"><title>Node1&#45;&gt;Node31</title>
<path fill="none" stroke="midnightblue" d="M1624.32,-288.631C1700.91,-274.651 1805.61,-255.542 1867.14,-244.312"/>
<polygon fill="midnightblue" stroke="midnightblue" points="1867.79,-247.75 1877,-242.512 1866.54,-240.864 1867.79,-247.75"/>
</g>
<!-- Node32 -->
<g id="node32" class="node"><title>Node32</title>
<polygon fill="none" stroke="#bfbfbf" points="1977.66,-224.5 1977.66,-243.5 2106.66,-243.5 2106.66,-224.5 1977.66,-224.5"/>
<text text-anchor="middle" x="2042.16" y="-231.5" font-family="Helvetica,sans-Serif" font-size="10.00">yarp/dev/IAnalogSensor.h</text>
</g>
<!-- Node1&#45;&gt;Node32 -->
<g id="edge51" class="edge"><title>Node1&#45;&gt;Node32</title>
<path fill="none" stroke="midnightblue" d="M1624.45,-292.812C1724.61,-278.949 1879.93,-257.453 1970.27,-244.95"/>
<polygon fill="midnightblue" stroke="midnightblue" points="1970.99,-248.383 1980.41,-243.545 1970.03,-241.449 1970.99,-248.383"/>
</g>
<!-- Node33 -->
<g id="node33" class="node"><title>Node33</title>
<polygon fill="none" stroke="#bfbfbf" points="2125.16,-224.5 2125.16,-243.5 2235.16,-243.5 2235.16,-224.5 2125.16,-224.5"/>
<text text-anchor="middle" x="2180.16" y="-231.5" font-family="Helvetica,sans-Serif" font-size="10.00">yarp/dev/IEncoders.h</text>
</g>
<!-- Node1&#45;&gt;Node33 -->
<g id="edge52" class="edge"><title>Node1&#45;&gt;Node33</title>
<path fill="none" stroke="midnightblue" d="M1624.16,-296.897C1738.01,-285.773 1934.8,-265.866 2114.67,-244.022"/>
<polygon fill="midnightblue" stroke="midnightblue" points="2115.35,-247.465 2124.85,-242.781 2114.5,-240.516 2115.35,-247.465"/>
</g>
<!-- Node34 -->
<g id="node34" class="node"><title>Node34</title>
<polygon fill="none" stroke="#bfbfbf" points="2253.16,-224.5 2253.16,-243.5 2419.16,-243.5 2419.16,-224.5 2253.16,-224.5"/>
<text text-anchor="middle" x="2336.16" y="-231.5" font-family="Helvetica,sans-Serif" font-size="10.00">yarp/dev/ControlBoardInterfaces.h</text>
</g>
<!-- Node1&#45;&gt;Node34 -->
<g id="edge53" class="edge"><title>Node1&#45;&gt;Node34</title>
<path fill="none" stroke="midnightblue" d="M1624.31,-298.084C1759.35,-286.776 2014.61,-265.123 2242.76,-244.121"/>
<polygon fill="midnightblue" stroke="midnightblue" points="2243.28,-247.588 2252.92,-243.185 2242.64,-240.617 2243.28,-247.588"/>
</g>
<!-- Node35 -->
<g id="node35" class="node"><title>Node35</title>
<polygon fill="none" stroke="#bfbfbf" points="2437.16,-224.5 2437.16,-243.5 2589.16,-243.5 2589.16,-224.5 2437.16,-224.5"/>
<text text-anchor="middle" x="2513.16" y="-231.5" font-family="Helvetica,sans-Serif" font-size="10.00">iDynTree/Core/MatrixFixSize.h</text>
</g>
<!-- Node1&#45;&gt;Node35 -->
<g id="edge54" class="edge"><title>Node1&#45;&gt;Node35</title>
<path fill="none" stroke="midnightblue" d="M1624.39,-300.582C1786.74,-291.091 2127.77,-270.052 2426.55,-244.113"/>
<polygon fill="midnightblue" stroke="midnightblue" points="2427.06,-247.583 2436.71,-243.227 2426.45,-240.609 2427.06,-247.583"/>
</g>
<!-- Node36 -->
<g id="node36" class="node"><title>Node36</title>
<polygon fill="none" stroke="#bfbfbf" points="2607.66,-224.5 2607.66,-243.5 2770.66,-243.5 2770.66,-224.5 2607.66,-224.5"/>
<text text-anchor="middle" x="2689.16" y="-231.5" font-family="Helvetica,sans-Serif" font-size="10.00">iDynTree/ModelIO/ModelLoader.h</text>
</g>
<!-- Node1&#45;&gt;Node36 -->
<g id="edge57" class="edge"><title>Node1&#45;&gt;Node36</title>
<path fill="none" stroke="midnightblue" d="M1624.35,-301.78C1809.51,-293.285 2231.36,-272.537 2597.32,-244.034"/>
<polygon fill="midnightblue" stroke="midnightblue" points="2597.62,-247.521 2607.32,-243.252 2597.08,-240.543 2597.62,-247.521"/>
</g>
<!-- Node37 -->
<g id="node37" class="node"><title>Node37</title>
<polygon fill="none" stroke="#bfbfbf" points="2789.16,-224.5 2789.16,-243.5 2939.16,-243.5 2939.16,-224.5 2789.16,-224.5"/>
<text text-anchor="middle" x="2864.16" y="-231.5" font-family="Helvetica,sans-Serif" font-size="10.00">iDynTree/Core/EigenHelpers.h</text>
</g>
<!-- Node1&#45;&gt;Node37 -->
<g id="edge58" class="edge"><title>Node1&#45;&gt;Node37</title>
<path fill="none" stroke="midnightblue" d="M1624.54,-303.09C1832.22,-296.357 2341.1,-277.709 2779.08,-243.953"/>
<polygon fill="midnightblue" stroke="midnightblue" points="2779.39,-247.44 2789.09,-243.178 2778.85,-240.461 2779.39,-247.44"/>
</g>
<!-- Node38 -->
<g id="node38" class="node"><title>Node38</title>
<polygon fill="none" stroke="#bfbfbf" points="2956.66,-224.5 2956.66,-243.5 3021.66,-243.5 3021.66,-224.5 2956.66,-224.5"/>
<text text-anchor="middle" x="2989.16" y="-231.5" font-family="Helvetica,sans-Serif" font-size="10.00">TickTime.h</text>
</g>
<!-- Node1&#45;&gt;Node38 -->
<g id="edge59" class="edge"><title>Node1&#45;&gt;Node38</title>
<path fill="none" stroke="midnightblue" d="M1624.21,-303.921C1895.5,-297.661 2670.97,-277.414 2946.26,-243.851"/>
<polygon fill="midnightblue" stroke="midnightblue" points="2946.74,-247.317 2956.23,-242.6 2945.87,-240.371 2946.74,-247.317"/>
</g>
<!-- Node39 -->
<g id="node39" class="node"><title>Node39</title>
<polygon fill="none" stroke="#bfbfbf" points="3039.66,-224.5 3039.66,-243.5 3086.66,-243.5 3086.66,-224.5 3039.66,-224.5"/>
<text text-anchor="middle" x="3063.16" y="-231.5" font-family="Helvetica,sans-Serif" font-size="10.00">iterator</text>
</g>
<!-- Node1&#45;&gt;Node39 -->
<g id="edge60" class="edge"><title>Node1&#45;&gt;Node39</title>
<path fill="none" stroke="midnightblue" d="M1624.24,-304.867C1906.53,-301.067 2737.65,-286.613 3029.35,-243.675"/>
<polygon fill="midnightblue" stroke="midnightblue" points="3030.14,-247.096 3039.5,-242.136 3029.09,-240.175 3030.14,-247.096"/>
</g>
<!-- Node3 -->
<g id="node3" class="node"><title>Node3</title>
<polygon fill="none" stroke="#bfbfbf" points="380.657,-168.5 380.657,-187.5 485.657,-187.5 485.657,-168.5 380.657,-168.5"/>
<text text-anchor="middle" x="433.157" y="-175.5" font-family="Helvetica,sans-Serif" font-size="10.00">yarp/os/RFModule.h</text>
</g>
<!-- Node2&#45;&gt;Node3 -->
<g id="edge2" class="edge"><title>Node2&#45;&gt;Node3</title>
<path fill="none" stroke="midnightblue" d="M607.357,-224.444C571.776,-215.162 514.842,-200.309 475.81,-190.127"/>
<polygon fill="midnightblue" stroke="midnightblue" points="476.363,-186.654 465.803,-187.516 474.596,-193.427 476.363,-186.654"/>
</g>
<!-- Node4 -->
<g id="node4" class="node"><title>Node4</title>
<polygon fill="none" stroke="#bfbfbf" points="710.657,-168.5 710.657,-187.5 825.657,-187.5 825.657,-168.5 710.657,-168.5"/>
<text text-anchor="middle" x="768.157" y="-175.5" font-family="Helvetica,sans-Serif" font-size="10.00">yarp/os/BufferedPort.h</text>
</g>
<!-- Node2&#45;&gt;Node4 -->
<g id="edge3" class="edge"><title>Node2&#45;&gt;Node4</title>
<path fill="none" stroke="midnightblue" d="M660.439,-224.444C681.504,-215.557 714.674,-201.563 738.642,-191.451"/>
<polygon fill="midnightblue" stroke="midnightblue" points="740.117,-194.628 747.97,-187.516 737.396,-188.179 740.117,-194.628"/>
</g>
<!-- Node5 -->
<g id="node5" class="node"><title>Node5</title>
<polygon fill="none" stroke="#bfbfbf" points="542.657,-168.5 542.657,-187.5 653.657,-187.5 653.657,-168.5 542.657,-168.5"/>
<text text-anchor="middle" x="598.157" y="-175.5" font-family="Helvetica,sans-Serif" font-size="10.00">yarp/dev/PolyDriver.h</text>
</g>
<!-- Node2&#45;&gt;Node5 -->
<g id="edge4" class="edge"><title>Node2&#45;&gt;Node5</title>
<path fill="none" stroke="midnightblue" d="M633.221,-224.083C627.228,-216.377 618.405,-205.033 611.109,-195.653"/>
<polygon fill="midnightblue" stroke="midnightblue" points="613.865,-193.496 604.963,-187.751 608.34,-197.793 613.865,-193.496"/>
</g>
<!-- Node6 -->
<g id="node6" class="node"><title>Node6</title>
<polygon fill="none" stroke="#bfbfbf" points="144.657,-112.5 144.657,-131.5 235.657,-131.5 235.657,-112.5 144.657,-112.5"/>
<text text-anchor="middle" x="190.157" y="-119.5" font-family="Helvetica,sans-Serif" font-size="10.00">yarp/sig/Vector.h</text>
</g>
<!-- Node2&#45;&gt;Node6 -->
<g id="edge5" class="edge"><title>Node2&#45;&gt;Node6</title>
<path fill="none" stroke="midnightblue" d="M618.222,-224.342C596.443,-215.613 562.202,-201.531 533.157,-188 515.499,-179.774 512.706,-173.95 494.157,-168 410.233,-141.08 308.035,-130.164 246.093,-125.808"/>
<polygon fill="midnightblue" stroke="midnightblue" points="245.969,-122.292 235.758,-125.116 245.501,-129.276 245.969,-122.292"/>
</g>
<!-- Node7 -->
<g id="node7" class="node"><title>Node7</title>
<g id="a_node7"><a xlink:href="autogenerated_2include_2thrifts_2_human_forces_8h.html" target="_top" xlink:title="thrifts/HumanForces.h">
<polygon fill="none" stroke="black" points="625.157,-112.5 625.157,-131.5 739.157,-131.5 739.157,-112.5 625.157,-112.5"/>
<text text-anchor="middle" x="682.157" y="-119.5" font-family="Helvetica,sans-Serif" font-size="10.00">thrifts/HumanForces.h</text>
</a>
</g>
</g>
<!-- Node2&#45;&gt;Node7 -->
<g id="edge6" class="edge"><title>Node2&#45;&gt;Node7</title>
<path fill="none" stroke="midnightblue" d="M644.959,-224.22C649.725,-215.282 657.04,-200.939 662.157,-188 668.263,-172.56 673.696,-154.469 677.352,-141.299"/>
<polygon fill="midnightblue" stroke="midnightblue" points="680.754,-142.126 679.982,-131.559 673.996,-140.301 680.754,-142.126"/>
</g>
<!-- Node11 -->
<g id="node11" class="node"><title>Node11</title>
<g id="a_node11"><a xlink:href="autogenerated_2include_2thrifts_2_human_state_8h.html" target="_top" xlink:title="thrifts/HumanState.h">
<polygon fill="none" stroke="black" points="843.657,-168.5 843.657,-187.5 950.657,-187.5 950.657,-168.5 843.657,-168.5"/>
<text text-anchor="middle" x="897.157" y="-175.5" font-family="Helvetica,sans-Serif" font-size="10.00">thrifts/HumanState.h</text>
</a>
</g>
</g>
<!-- Node2&#45;&gt;Node11 -->
<g id="edge12" class="edge"><title>Node2&#45;&gt;Node11</title>
<path fill="none" stroke="midnightblue" d="M680.879,-224.444C725.806,-215.004 798.155,-199.802 846.656,-189.611"/>
<polygon fill="midnightblue" stroke="midnightblue" points="847.558,-192.998 856.625,-187.516 846.119,-186.148 847.558,-192.998"/>
</g>
<!-- Node14 -->
<g id="node14" class="node"><title>Node14</title>
<polygon fill="none" stroke="#bfbfbf" points="192.157,-168.5 192.157,-187.5 362.157,-187.5 362.157,-168.5 192.157,-168.5"/>
<text text-anchor="middle" x="277.157" y="-175.5" font-family="Helvetica,sans-Serif" font-size="10.00">geometry_msgs/WrenchStamped.h</text>
</g>
<!-- Node2&#45;&gt;Node14 -->
<g id="edge23" class="edge"><title>Node2&#45;&gt;Node14</title>
<path fill="none" stroke="midnightblue" d="M582.638,-224.444C517.986,-214.826 413.131,-199.228 344.654,-189.041"/>
<polygon fill="midnightblue" stroke="midnightblue" points="344.812,-185.526 334.406,-187.516 343.782,-192.45 344.812,-185.526"/>
</g>
<!-- Node8 -->
<g id="node8" class="node"><title>Node8</title>
<polygon fill="none" stroke="#bfbfbf" points="642.157,-0.5 642.157,-19.5 722.157,-19.5 722.157,-0.5 642.157,-0.5"/>
<text text-anchor="middle" x="682.157" y="-7.5" font-family="Helvetica,sans-Serif" font-size="10.00">yarp/os/Wire.h</text>
</g>
<!-- Node7&#45;&gt;Node8 -->
<g id="edge7" class="edge"><title>Node7&#45;&gt;Node8</title>
<path fill="none" stroke="midnightblue" d="M665.524,-112.464C652.669,-104.841 635.818,-92.356 628.157,-76 618.852,-56.1335 638.841,-37.2986 657.077,-25.0682"/>
<polygon fill="midnightblue" stroke="midnightblue" points="659.146,-27.902 665.752,-19.6192 655.422,-21.9742 659.146,-27.902"/>
</g>
<!-- Node9 -->
<g id="node9" class="node"><title>Node9</title>
<polygon fill="none" stroke="#bfbfbf" points="766.157,-0.5 766.157,-19.5 886.157,-19.5 886.157,-0.5 766.157,-0.5"/>
<text text-anchor="middle" x="826.157" y="-7.5" font-family="Helvetica,sans-Serif" font-size="10.00">yarp/os/idl/WireTypes.h</text>
</g>
<!-- Node7&#45;&gt;Node9 -->
<g id="edge8" class="edge"><title>Node7&#45;&gt;Node9</title>
<path fill="none" stroke="midnightblue" d="M693.456,-112.368C717.956,-93.6531 776.214,-49.1509 806.74,-25.8324"/>
<polygon fill="midnightblue" stroke="midnightblue" points="809.088,-28.4432 814.91,-19.5914 804.839,-22.8805 809.088,-28.4432"/>
</g>
<!-- Node10 -->
<g id="node10" class="node"><title>Node10</title>
<g id="a_node10"><a xlink:href="autogenerated_2include_2thrifts_2_force6_d_8h.html" target="_top" xlink:title="thrifts/Force6D.h">
<polygon fill="none" stroke="black" points="637.157,-56.5 637.157,-75.5 727.157,-75.5 727.157,-56.5 637.157,-56.5"/>
<text text-anchor="middle" x="682.157" y="-63.5" font-family="Helvetica,sans-Serif" font-size="10.00">thrifts/Force6D.h</text>
</a>
</g>
</g>
<!-- Node7&#45;&gt;Node10 -->
<g id="edge9" class="edge"><title>Node7&#45;&gt;Node10</title>
<path fill="none" stroke="midnightblue" d="M682.157,-112.083C682.157,-105.006 682.157,-94.8611 682.157,-85.9865"/>
<polygon fill="midnightblue" stroke="midnightblue" points="685.657,-85.751 682.157,-75.7511 678.657,-85.7511 685.657,-85.751"/>
</g>
<!-- Node10&#45;&gt;Node8 -->
<g id="edge10" class="edge"><title>Node10&#45;&gt;Node8</title>
<path fill="none" stroke="midnightblue" d="M682.157,-56.083C682.157,-49.0059 682.157,-38.8611 682.157,-29.9865"/>
<polygon fill="midnightblue" stroke="midnightblue" points="685.657,-29.751 682.157,-19.7511 678.657,-29.7511 685.657,-29.751"/>
</g>
<!-- Node10&#45;&gt;Node9 -->
<g id="edge11" class="edge"><title>Node10&#45;&gt;Node9</title>
<path fill="none" stroke="midnightblue" d="M704.974,-56.4435C728.989,-47.4381 766.986,-33.1891 794.026,-23.049"/>
<polygon fill="midnightblue" stroke="midnightblue" points="795.312,-26.3049 803.446,-19.5164 792.854,-19.7506 795.312,-26.3049"/>
</g>
<!-- Node11&#45;&gt;Node6 -->
<g id="edge22" class="edge"><title>Node11&#45;&gt;Node6</title>
<path fill="none" stroke="midnightblue" d="M843.573,-169.077C840.39,-168.69 837.233,-168.327 834.157,-168 617.192,-144.953 357.799,-130.935 245.971,-125.542"/>
<polygon fill="midnightblue" stroke="midnightblue" points="246.09,-122.044 235.935,-125.062 245.756,-129.036 246.09,-122.044"/>
</g>
<!-- Node11&#45;&gt;Node8 -->
<g id="edge13" class="edge"><title>Node11&#45;&gt;Node8</title>
<path fill="none" stroke="midnightblue" d="M843.524,-169.302C763.006,-157.621 619.838,-136.318 616.157,-132 606.731,-120.945 604.561,-86.946 622.157,-56 629.645,-42.8311 642.719,-32.3375 654.756,-24.8075"/>
<polygon fill="midnightblue" stroke="midnightblue" points="656.766,-27.6871 663.648,-19.6317 653.245,-21.6372 656.766,-27.6871"/>
</g>
<!-- Node11&#45;&gt;Node9 -->
<g id="edge14" class="edge"><title>Node11&#45;&gt;Node9</title>
<path fill="none" stroke="midnightblue" d="M916.141,-168.398C930.043,-160.954 947.871,-148.741 956.157,-132 960.1,-124.034 958.199,-120.651 956.157,-112 949.764,-84.9178 948.301,-75.197 928.157,-56 911.975,-40.5792 889.635,-29.9137 869.986,-22.8514"/>
<polygon fill="midnightblue" stroke="midnightblue" points="870.894,-19.4639 860.3,-19.5748 868.651,-26.0948 870.894,-19.4639"/>
</g>
<!-- Node12 -->
<g id="node12" class="node"><title>Node12</title>
<g id="a_node12"><a xlink:href="human-state-provider_2autogenerated_2include_2thrifts_2_quaternion_8h.html" target="_top" xlink:title="thrifts/Quaternion.h">
<polygon fill="none" stroke="black" points="847.157,-112.5 847.157,-131.5 947.157,-131.5 947.157,-112.5 847.157,-112.5"/>
<text text-anchor="middle" x="897.157" y="-119.5" font-family="Helvetica,sans-Serif" font-size="10.00">thrifts/Quaternion.h</text>
</a>
</g>
</g>
<!-- Node11&#45;&gt;Node12 -->
<g id="edge15" class="edge"><title>Node11&#45;&gt;Node12</title>
<path fill="none" stroke="midnightblue" d="M897.157,-168.083C897.157,-161.006 897.157,-150.861 897.157,-141.986"/>
<polygon fill="midnightblue" stroke="midnightblue" points="900.657,-141.751 897.157,-131.751 893.657,-141.751 900.657,-141.751"/>
</g>
<!-- Node13 -->
<g id="node13" class="node"><title>Node13</title>
<g id="a_node13"><a xlink:href="human-state-provider_2autogenerated_2include_2thrifts_2_vector3_8h.html" target="_top" xlink:title="thrifts/Vector3.h">
<polygon fill="none" stroke="black" points="783.157,-56.5 783.157,-75.5 869.157,-75.5 869.157,-56.5 783.157,-56.5"/>
<text text-anchor="middle" x="826.157" y="-63.5" font-family="Helvetica,sans-Serif" font-size="10.00">thrifts/Vector3.h</text>
</a>
</g>
</g>
<!-- Node11&#45;&gt;Node13 -->
<g id="edge21" class="edge"><title>Node11&#45;&gt;Node13</title>
<path fill="none" stroke="midnightblue" d="M879.843,-168.404C866.297,-160.747 848.137,-148.245 838.157,-132 829.616,-118.097 826.861,-99.5863 826.099,-85.875"/>
<polygon fill="midnightblue" stroke="midnightblue" points="829.593,-85.6024 825.845,-75.6929 822.596,-85.7772 829.593,-85.6024"/>
</g>
<!-- Node12&#45;&gt;Node8 -->
<g id="edge16" class="edge"><title>Node12&#45;&gt;Node8</title>
<path fill="none" stroke="midnightblue" d="M897.241,-112.443C896.888,-98.5175 894.067,-71.0025 878.157,-56 857.423,-36.4487 783.426,-23.5333 732.53,-16.7411"/>
<polygon fill="midnightblue" stroke="midnightblue" points="732.732,-13.2381 722.365,-15.4243 731.833,-20.1801 732.732,-13.2381"/>
</g>
<!-- Node12&#45;&gt;Node9 -->
<g id="edge17" class="edge"><title>Node12&#45;&gt;Node9</title>
<path fill="none" stroke="midnightblue" d="M902.706,-112.358C910.346,-99.2586 921.994,-73.9987 911.157,-56 901.869,-40.5744 885.324,-30.1596 869.283,-23.2713"/>
<polygon fill="midnightblue" stroke="midnightblue" points="870.543,-20.006 859.956,-19.6119 867.987,-26.5224 870.543,-20.006"/>
</g>
<!-- Node12&#45;&gt;Node13 -->
<g id="edge18" class="edge"><title>Node12&#45;&gt;Node13</title>
<path fill="none" stroke="midnightblue" d="M885.749,-112.324C875.048,-104.185 858.816,-91.8395 845.994,-82.0874"/>
<polygon fill="midnightblue" stroke="midnightblue" points="847.85,-79.1018 837.772,-75.8339 843.612,-84.6734 847.85,-79.1018"/>
</g>
<!-- Node13&#45;&gt;Node8 -->
<g id="edge19" class="edge"><title>Node13&#45;&gt;Node8</title>
<path fill="none" stroke="midnightblue" d="M803.34,-56.4435C779.325,-47.4381 741.328,-33.1891 714.288,-23.049"/>
<polygon fill="midnightblue" stroke="midnightblue" points="715.46,-19.7506 704.867,-19.5164 713.002,-26.3049 715.46,-19.7506"/>
</g>
<!-- Node13&#45;&gt;Node9 -->
<g id="edge20" class="edge"><title>Node13&#45;&gt;Node9</title>
<path fill="none" stroke="midnightblue" d="M826.157,-56.083C826.157,-49.0059 826.157,-38.8611 826.157,-29.9865"/>
<polygon fill="midnightblue" stroke="midnightblue" points="829.657,-29.751 826.157,-19.7511 822.657,-29.7511 829.657,-29.751"/>
</g>
<!-- Node16&#45;&gt;Node6 -->
<g id="edge27" class="edge"><title>Node16&#45;&gt;Node6</title>
<path fill="none" stroke="midnightblue" d="M95.062,-168.444C113.411,-159.675 142.162,-145.935 163.25,-135.858"/>
<polygon fill="midnightblue" stroke="midnightblue" points="164.822,-138.986 172.335,-131.516 161.804,-132.67 164.822,-138.986"/>
</g>
<!-- Node16&#45;&gt;Node15 -->
<g id="edge26" class="edge"><title>Node16&#45;&gt;Node15</title>
<path fill="none" stroke="midnightblue" d="M72.8635,-168.083C69.3045,-160.691 64.1343,-149.953 59.7325,-140.811"/>
<polygon fill="midnightblue" stroke="midnightblue" points="62.862,-139.243 55.3703,-131.751 56.555,-142.279 62.862,-139.243"/>
</g>
<!-- Node17&#45;&gt;Node16 -->
<g id="edge29" class="edge"><title>Node17&#45;&gt;Node16</title>
<path fill="none" stroke="midnightblue" d="M77.1568,-224.083C77.1568,-217.006 77.1568,-206.861 77.1568,-197.986"/>
<polygon fill="midnightblue" stroke="midnightblue" points="80.6569,-197.751 77.1568,-187.751 73.6569,-197.751 80.6569,-197.751"/>
</g>
<!-- Node18&#45;&gt;Node6 -->
<g id="edge32" class="edge"><title>Node18&#45;&gt;Node6</title>
<path fill="none" stroke="midnightblue" d="M216.078,-224.259C204.804,-216.355 189.811,-203.584 183.157,-188 176.826,-173.175 179.675,-154.792 183.466,-141.362"/>
<polygon fill="midnightblue" stroke="midnightblue" points="186.806,-142.409 186.551,-131.817 180.145,-140.256 186.806,-142.409"/>
</g>
<!-- Node18&#45;&gt;Node16 -->
<g id="edge31" class="edge"><title>Node18&#45;&gt;Node16</title>
<path fill="none" stroke="midnightblue" d="M205.914,-224.444C180.286,-215.399 139.672,-201.064 110.918,-190.916"/>
<polygon fill="midnightblue" stroke="midnightblue" points="111.882,-187.544 101.287,-187.516 109.552,-194.145 111.882,-187.544"/>
</g>
<!-- Node20 -->
<g id="node20" class="node"><title>Node20</title>
<polygon fill="none" stroke="#bfbfbf" points="1035.66,-56.5 1035.66,-75.5 1076.66,-75.5 1076.66,-56.5 1035.66,-56.5"/>
<text text-anchor="middle" x="1056.16" y="-63.5" font-family="Helvetica,sans-Serif" font-size="10.00">string</text>
</g>
<!-- Node19&#45;&gt;Node20 -->
<g id="edge34" class="edge"><title>Node19&#45;&gt;Node20</title>
<path fill="none" stroke="midnightblue" d="M1056.16,-112.083C1056.16,-105.006 1056.16,-94.8611 1056.16,-85.9865"/>
<polygon fill="midnightblue" stroke="midnightblue" points="1059.66,-85.751 1056.16,-75.7511 1052.66,-85.7511 1059.66,-85.751"/>
</g>
<!-- Node21&#45;&gt;Node19 -->
<g id="edge36" class="edge"><title>Node21&#45;&gt;Node19</title>
<path fill="none" stroke="midnightblue" d="M1073.69,-168.083C1070.85,-160.77 1066.73,-150.181 1063.2,-141.103"/>
<polygon fill="midnightblue" stroke="midnightblue" points="1066.45,-139.803 1059.56,-131.751 1059.92,-142.34 1066.45,-139.803"/>
</g>
<!-- Node21&#45;&gt;Node22 -->
<g id="edge37" class="edge"><title>Node21&#45;&gt;Node22</title>
<path fill="none" stroke="midnightblue" d="M1095.85,-168.444C1115.1,-159.636 1145.31,-145.812 1167.36,-135.722"/>
<polygon fill="midnightblue" stroke="midnightblue" points="1168.91,-138.86 1176.55,-131.516 1166,-132.495 1168.91,-138.86"/>
</g>
<!-- Node23&#45;&gt;Node4 -->
<g id="edge40" class="edge"><title>Node23&#45;&gt;Node4</title>
<path fill="none" stroke="midnightblue" d="M1082.05,-224.444C1015.09,-214.749 906.161,-198.979 835.843,-188.799"/>
<polygon fill="midnightblue" stroke="midnightblue" points="836.156,-185.308 825.758,-187.339 835.153,-192.236 836.156,-185.308"/>
</g>
<!-- Node23&#45;&gt;Node11 -->
<g id="edge44" class="edge"><title>Node23&#45;&gt;Node11</title>
<path fill="none" stroke="midnightblue" d="M1102.49,-224.444C1060.02,-215.043 991.726,-199.929 945.683,-189.739"/>
<polygon fill="midnightblue" stroke="midnightblue" points="946.159,-186.26 935.638,-187.516 944.646,-193.095 946.159,-186.26"/>
</g>
<!-- Node23&#45;&gt;Node21 -->
<g id="edge39" class="edge"><title>Node23&#45;&gt;Node21</title>
<path fill="none" stroke="midnightblue" d="M1130.87,-224.324C1121.32,-216.263 1106.88,-204.077 1095.37,-194.369"/>
<polygon fill="midnightblue" stroke="midnightblue" points="1097.53,-191.608 1087.63,-187.834 1093.01,-196.958 1097.53,-191.608"/>
</g>
<!-- Node23&#45;&gt;Node22 -->
<g id="edge41" class="edge"><title>Node23&#45;&gt;Node22</title>
<path fill="none" stroke="midnightblue" d="M1145.39,-224.368C1154.23,-206.376 1174.76,-164.55 1186.5,-140.627"/>
<polygon fill="midnightblue" stroke="midnightblue" points="1189.67,-142.11 1190.94,-131.591 1183.39,-139.026 1189.67,-142.11"/>
</g>
<!-- Node24 -->
<g id="node24" class="node"><title>Node24</title>
<polygon fill="none" stroke="#bfbfbf" points="1203.66,-168.5 1203.66,-187.5 1364.66,-187.5 1364.66,-168.5 1203.66,-168.5"/>
<text text-anchor="middle" x="1284.16" y="-175.5" font-family="Helvetica,sans-Serif" font-size="10.00">iDynTree/KinDynComputations.h</text>
</g>
<!-- Node23&#45;&gt;Node24 -->
<g id="edge42" class="edge"><title>Node23&#45;&gt;Node24</title>
<path fill="none" stroke="midnightblue" d="M1163.82,-224.444C1187.56,-215.478 1225.07,-201.314 1251.9,-191.183"/>
<polygon fill="midnightblue" stroke="midnightblue" points="1253.49,-194.324 1261.6,-187.516 1251.01,-187.775 1253.49,-194.324"/>
</g>
<!-- Node23&#45;&gt;Node25 -->
<g id="edge43" class="edge"><title>Node23&#45;&gt;Node25</title>
<path fill="none" stroke="midnightblue" d="M1192.02,-224.444C1248.84,-214.885 1340.77,-199.419 1401.35,-189.23"/>
<polygon fill="midnightblue" stroke="midnightblue" points="1402.25,-192.627 1411.53,-187.516 1401.09,-185.724 1402.25,-192.627"/>
</g>
</g>
</svg>
        <g id="navigator" transform="translate(0 0)" fill="#404254">
                <rect fill="#f2f5e9" fill-opacity="0.5" stroke="#606060" stroke-width=".5" x="0" y="0" width="60" height="60"/>
                <use id="zoomplus" xlink:href="#zoomPlus" x="17" y="9" onmousedown="handleZoom(evt,'in')"/>
                <use id="zoomminus" xlink:href="#zoomMin" x="42" y="9" onmousedown="handleZoom(evt,'out')"/>
                <use id="reset" xlink:href="#resetDef" x="30" y="36" onmousedown="handleReset()"/>
                <g id="arrowUp" xlink:href="#dirArrow" transform="translate(30 24)" onmousedown="handlePan(0,-1)">
                  <use xlink:href="#rim" fill="#404040">
                        <set attributeName="fill" to="#808080" begin="arrowUp.mouseover" end="arrowUp.mouseout"/>
                  </use>
                  <path fill="none" stroke="white" stroke-width="1.5" d="M0,-3.0v7 M-2.5,-0.5L0,-3.0L2.5,-0.5"/>
                </g>
                <g id="arrowRight" xlink:href="#dirArrow" transform="rotate(90) translate(36 -43)" onmousedown="handlePan(1,0)">
                  <use xlink:href="#rim" fill="#404040">
                        <set attributeName="fill" to="#808080" begin="arrowRight.mouseover" end="arrowRight.mouseout"/>
                  </use>
                  <path fill="none" stroke="white" stroke-width="1.5" d="M0,-3.0v7 M-2.5,-0.5L0,-3.0L2.5,-0.5"/>
                </g>
                <g id="arrowDown" xlink:href="#dirArrow" transform="rotate(180) translate(-30 -48)" onmousedown="handlePan(0,1)">
                  <use xlink:href="#rim" fill="#404040">
                        <set attributeName="fill" to="#808080" begin="arrowDown.mouseover" end="arrowDown.mouseout"/>
                  </use>
                  <path fill="none" stroke="white" stroke-width="1.5" d="M0,-3.0v7 M-2.5,-0.5L0,-3.0L2.5,-0.5"/>
                </g>
                <g id="arrowLeft" xlink:href="#dirArrow" transform="rotate(270) translate(-36 17)" onmousedown="handlePan(-1,0)">
                  <use xlink:href="#rim" fill="#404040">
                        <set attributeName="fill" to="#808080" begin="arrowLeft.mouseover" end="arrowLeft.mouseout"/>
                  </use>
                  <path fill="none" stroke="white" stroke-width="1.5" d="M0,-3.0v7 M-2.5,-0.5L0,-3.0L2.5,-0.5"/>
                </g>
        </g>
        <svg viewBox="0 0 15 15" width="100%" height="30px" preserveAspectRatio="xMaxYMin meet">
         <g id="arrow_out" transform="scale(0.3 0.3)">
          <a xlink:href="_human_forces_provider_8cpp__incl_org.svg" target="_base">
           <rect id="button" ry="5" rx="5" y="6" x="6" height="38" width="38"
                fill="#f2f5e9" fill-opacity="0.5" stroke="#606060" stroke-width="1.0"/>
           <path id="arrow"
             d="M 11.500037,31.436501 C 11.940474,20.09759 22.043105,11.32322 32.158766,21.979434 L 37.068811,17.246167 C 37.068811,17.246167 37.088388,32 37.088388,32 L 22.160133,31.978069 C 22.160133,31.978069 26.997745,27.140456 26.997745,27.140456 C 18.528582,18.264221 13.291696,25.230495 11.500037,31.436501 z"
             style="fill:#404040;"/>
          </a>
         </g>
        </svg>
</svg>
