<?xml version="1.0" encoding="UTF-8" standalone="no"?>
<!DOCTYPE svg PUBLIC "-//W3C//DTD SVG 1.1//EN"
 "http://www.w3.org/Graphics/SVG/1.1/DTD/svg11.dtd">
<!-- Generated by graphviz version 2.36.0 (20140111.2315)
 -->
<!-- Title: /home/travis/build/robotology/human&#45;dynamics&#45;estimation/human&#45;dynamics&#45;estimator/src/HumanDynamicsEstimator.cpp Pages: 1 -->
<!--zoomable 366 -->
<svg id="main" version="1.1" xmlns="http://www.w3.org/2000/svg" xmlns:xlink="http://www.w3.org/1999/xlink" xml:space="preserve" onload="init(evt)">
<style type="text/css"><![CDATA[
.edge:hover path { stroke: red; }
.edge:hover polygon { stroke: red; fill: red; }
]]></style>
<script type="text/javascript"><![CDATA[
var edges = document.getElementsByTagName('g');
if (edges && edges.length) {
  for (var i=0;i<edges.length;i++) {
    if (edges[i].id.substr(0,4)=='edge') {
      edges[i].setAttribute('class','edge');
    }
  }
}
]]></script>
        <defs>
                <circle id="rim" cx="0" cy="0" r="7"/>
                <circle id="rim2" cx="0" cy="0" r="3.5"/>
                <g id="zoomPlus">
                        <use xlink:href="#rim" fill="#404040">
                                <set attributeName="fill" to="#808080" begin="zoomplus.mouseover" end="zoomplus.mouseout"/>
                        </use>
                        <path d="M-4,0h8M0,-4v8" fill="none" stroke="white" stroke-width="1.5" pointer-events="none"/>
                </g>
                <g id="zoomMin">
                        <use xlink:href="#rim" fill="#404040">
                                <set attributeName="fill" to="#808080" begin="zoomminus.mouseover" end="zoomminus.mouseout"/>
                        </use>
                        <path d="M-4,0h8" fill="none" stroke="white" stroke-width="1.5" pointer-events="none"/>
                </g>
                <g id="dirArrow">
                        <path fill="none" stroke="white" stroke-width="1.5" d="M0,-3.0v7 M-2.5,-0.5L0,-3.0L2.5,-0.5"/>
                </g>
               <g id="resetDef">
                       <use xlink:href="#rim2" fill="#404040">
                               <set attributeName="fill" to="#808080" begin="reset.mouseover" end="reset.mouseout"/>
                       </use>
               </g>
        </defs>

<script type="text/javascript">
var viewWidth = 2789;
var viewHeight = 366;
var sectionId = 'dynsection-0';
</script>
<script xlink:href="svgpan.js"/>
<svg id="graph" class="graph">
<g id="viewport">
<title>/home/travis/build/robotology/human&#45;dynamics&#45;estimation/human&#45;dynamics&#45;estimator/src/HumanDynamicsEstimator.cpp</title>
<!-- Node1 -->
<g id="node1" class="node"><title>Node1</title>
<polygon fill="#bfbfbf" stroke="black" points="1991.37,-305 1991.37,-357 2207.37,-357 2207.37,-305 1991.37,-305"/>
<text text-anchor="start" x="1999.37" y="-345" font-family="Helvetica,sans-Serif" font-size="10.00">/home/travis/build</text>
<text text-anchor="start" x="1999.37" y="-334" font-family="Helvetica,sans-Serif" font-size="10.00">/robotology/human&#45;dynamics</text>
<text text-anchor="start" x="1999.37" y="-323" font-family="Helvetica,sans-Serif" font-size="10.00">&#45;estimation/human&#45;dynamics</text>
<text text-anchor="middle" x="2099.37" y="-312" font-family="Helvetica,sans-Serif" font-size="10.00">&#45;estimator/src/HumanDynamicsEstimator.cpp</text>
</g>
<!-- Node2 -->
<g id="node2" class="node"><title>Node2</title>
<g id="a_node2"><a xlink:href="_human_dynamics_estimator_8h.html" target="_top" xlink:title="HumanDynamicsEstimator.h">
<polygon fill="none" stroke="black" points="1022.87,-242.5 1022.87,-261.5 1165.87,-261.5 1165.87,-242.5 1022.87,-242.5"/>
<text text-anchor="middle" x="1094.37" y="-249.5" font-family="Helvetica,sans-Serif" font-size="10.00">HumanDynamicsEstimator.h</text>
</a>
</g>
</g>
<!-- Node1&#45;&gt;Node2 -->
<g id="edge1" class="edge"><title>Node1&#45;&gt;Node2</title>
<path fill="none" stroke="midnightblue" d="M1991.34,-321.723C1788.94,-306.215 1356.78,-273.105 1176.26,-259.274"/>
<polygon fill="midnightblue" stroke="midnightblue" points="1176.28,-255.765 1166.04,-258.491 1175.74,-262.745 1176.28,-255.765"/>
</g>
<!-- Node27 -->
<g id="node27" class="node"><title>Node27</title>
<polygon fill="none" stroke="#bfbfbf" points="1890.87,-174.5 1890.87,-193.5 1925.87,-193.5 1925.87,-174.5 1890.87,-174.5"/>
<text text-anchor="middle" x="1908.37" y="-181.5" font-family="Helvetica,sans-Serif" font-size="10.00">map</text>
</g>
<!-- Node1&#45;&gt;Node27 -->
<g id="edge54" class="edge"><title>Node1&#45;&gt;Node27</title>
<path fill="none" stroke="midnightblue" d="M1991.27,-326.197C1831.2,-319.438 1546.54,-302.657 1515.37,-268 1505.86,-257.426 1505.83,-246.544 1515.37,-236 1569.48,-176.231 1798.65,-221.416 1876.37,-200 1878.72,-199.354 1881.1,-198.548 1883.46,-197.647"/>
<polygon fill="midnightblue" stroke="midnightblue" points="1885.05,-200.773 1892.83,-193.577 1882.26,-194.354 1885.05,-200.773"/>
</g>
<!-- Node28 -->
<g id="node28" class="node"><title>Node28</title>
<polygon fill="none" stroke="#bfbfbf" points="1524.37,-242.5 1524.37,-261.5 1674.37,-261.5 1674.37,-242.5 1524.37,-242.5"/>
<text text-anchor="middle" x="1599.37" y="-249.5" font-family="Helvetica,sans-Serif" font-size="10.00">iDynTree/Core/EigenHelpers.h</text>
</g>
<!-- Node1&#45;&gt;Node28 -->
<g id="edge45" class="edge"><title>Node1&#45;&gt;Node28</title>
<path fill="none" stroke="midnightblue" d="M1991.06,-314.728C1907.03,-302.669 1787.68,-285.082 1683.37,-268 1674.46,-266.541 1665.03,-264.926 1655.83,-263.312"/>
<polygon fill="midnightblue" stroke="midnightblue" points="1656.44,-259.865 1645.98,-261.57 1655.22,-266.758 1656.44,-259.865"/>
</g>
<!-- Node29 -->
<g id="node29" class="node"><title>Node29</title>
<polygon fill="none" stroke="#bfbfbf" points="1692.87,-237 1692.87,-267 1831.87,-267 1831.87,-237 1692.87,-237"/>
<text text-anchor="start" x="1700.87" y="-255" font-family="Helvetica,sans-Serif" font-size="10.00">iDynTree/Core/EigenSparse</text>
<text text-anchor="middle" x="1762.37" y="-244" font-family="Helvetica,sans-Serif" font-size="10.00">Helpers.h</text>
</g>
<!-- Node1&#45;&gt;Node29 -->
<g id="edge46" class="edge"><title>Node1&#45;&gt;Node29</title>
<path fill="none" stroke="midnightblue" d="M1991.35,-305.319C1939.7,-293.516 1879.3,-279.716 1833.5,-269.253"/>
<polygon fill="midnightblue" stroke="midnightblue" points="1834.2,-265.821 1823.67,-267.006 1832.64,-272.645 1834.2,-265.821"/>
</g>
<!-- Node30 -->
<g id="node30" class="node"><title>Node30</title>
<polygon fill="none" stroke="#bfbfbf" points="1849.87,-242.5 1849.87,-261.5 2012.87,-261.5 2012.87,-242.5 1849.87,-242.5"/>
<text text-anchor="middle" x="1931.37" y="-249.5" font-family="Helvetica,sans-Serif" font-size="10.00">iDynTree/ModelIO/ModelLoader.h</text>
</g>
<!-- Node1&#45;&gt;Node30 -->
<g id="edge47" class="edge"><title>Node1&#45;&gt;Node30</title>
<path fill="none" stroke="midnightblue" d="M2044.36,-304.787C2015.89,-291.739 1982.36,-276.369 1959.26,-265.782"/>
<polygon fill="midnightblue" stroke="midnightblue" points="1960.59,-262.543 1950.04,-261.558 1957.68,-268.906 1960.59,-262.543"/>
</g>
<!-- Node31 -->
<g id="node31" class="node"><title>Node31</title>
<polygon fill="none" stroke="#bfbfbf" points="2030.87,-242.5 2030.87,-261.5 2167.87,-261.5 2167.87,-242.5 2030.87,-242.5"/>
<text text-anchor="middle" x="2099.37" y="-249.5" font-family="Helvetica,sans-Serif" font-size="10.00">iDynTree/Model/Traversal.h</text>
</g>
<!-- Node1&#45;&gt;Node31 -->
<g id="edge48" class="edge"><title>Node1&#45;&gt;Node31</title>
<path fill="none" stroke="midnightblue" d="M2099.37,-304.787C2099.37,-294.069 2099.37,-281.785 2099.37,-271.871"/>
<polygon fill="midnightblue" stroke="midnightblue" points="2102.87,-271.558 2099.37,-261.558 2095.87,-271.558 2102.87,-271.558"/>
</g>
<!-- Node32 -->
<g id="node32" class="node"><title>Node32</title>
<polygon fill="none" stroke="#bfbfbf" points="2185.87,-242.5 2185.87,-261.5 2328.87,-261.5 2328.87,-242.5 2185.87,-242.5"/>
<text text-anchor="middle" x="2257.37" y="-249.5" font-family="Helvetica,sans-Serif" font-size="10.00">iDynTree/Sensors/Sensors.h</text>
</g>
<!-- Node1&#45;&gt;Node32 -->
<g id="edge49" class="edge"><title>Node1&#45;&gt;Node32</title>
<path fill="none" stroke="midnightblue" d="M2151.11,-304.787C2177.64,-291.855 2208.86,-276.644 2230.56,-266.067"/>
<polygon fill="midnightblue" stroke="midnightblue" points="2232.36,-269.085 2239.81,-261.558 2229.29,-262.792 2232.36,-269.085"/>
</g>
<!-- Node33 -->
<g id="node33" class="node"><title>Node33</title>
<polygon fill="none" stroke="#bfbfbf" points="2347.37,-242.5 2347.37,-261.5 2519.37,-261.5 2519.37,-242.5 2347.37,-242.5"/>
<text text-anchor="middle" x="2433.37" y="-249.5" font-family="Helvetica,sans-Serif" font-size="10.00">iDynTree/yarp/YARPConversions.h</text>
</g>
<!-- Node1&#45;&gt;Node33 -->
<g id="edge50" class="edge"><title>Node1&#45;&gt;Node33</title>
<path fill="none" stroke="midnightblue" d="M2207.81,-305C2268.2,-291.079 2340.28,-274.461 2386.42,-263.823"/>
<polygon fill="midnightblue" stroke="midnightblue" points="2387.47,-267.173 2396.43,-261.516 2385.9,-260.352 2387.47,-267.173"/>
</g>
<!-- Node34 -->
<g id="node34" class="node"><title>Node34</title>
<polygon fill="none" stroke="#bfbfbf" points="2537.87,-242.5 2537.87,-261.5 2644.87,-261.5 2644.87,-242.5 2537.87,-242.5"/>
<text text-anchor="middle" x="2591.37" y="-249.5" font-family="Helvetica,sans-Serif" font-size="10.00">yarp/os/LogStream.h</text>
</g>
<!-- Node1&#45;&gt;Node34 -->
<g id="edge51" class="edge"><title>Node1&#45;&gt;Node34</title>
<path fill="none" stroke="midnightblue" d="M2207.81,-317.077C2294.81,-306.049 2419.9,-288.708 2528.37,-268 2534.75,-266.782 2541.46,-265.351 2548.02,-263.864"/>
<polygon fill="midnightblue" stroke="midnightblue" points="2549.2,-267.183 2558.14,-261.504 2547.61,-260.365 2549.2,-267.183"/>
</g>
<!-- Node35 -->
<g id="node35" class="node"><title>Node35</title>
<polygon fill="none" stroke="#bfbfbf" points="2663.37,-242.5 2663.37,-261.5 2709.37,-261.5 2709.37,-242.5 2663.37,-242.5"/>
<text text-anchor="middle" x="2686.37" y="-249.5" font-family="Helvetica,sans-Serif" font-size="10.00">chrono</text>
</g>
<!-- Node1&#45;&gt;Node35 -->
<g id="edge52" class="edge"><title>Node1&#45;&gt;Node35</title>
<path fill="none" stroke="midnightblue" d="M2207.46,-327.917C2320.52,-323.433 2502.23,-309.674 2653.37,-268 2655.87,-267.312 2658.41,-266.458 2660.93,-265.509"/>
<polygon fill="midnightblue" stroke="midnightblue" points="2662.47,-268.658 2670.3,-261.529 2659.73,-262.214 2662.47,-268.658"/>
</g>
<!-- Node36 -->
<g id="node36" class="node"><title>Node36</title>
<polygon fill="none" stroke="#bfbfbf" points="2727.37,-242.5 2727.37,-261.5 2781.37,-261.5 2781.37,-242.5 2727.37,-242.5"/>
<text text-anchor="middle" x="2754.37" y="-249.5" font-family="Helvetica,sans-Serif" font-size="10.00">iostream</text>
</g>
<!-- Node1&#45;&gt;Node36 -->
<g id="edge53" class="edge"><title>Node1&#45;&gt;Node36</title>
<path fill="none" stroke="midnightblue" d="M2207.55,-328.764C2332.42,-325.142 2543.1,-312.252 2718.37,-268 2721.36,-267.245 2724.43,-266.285 2727.44,-265.215"/>
<polygon fill="midnightblue" stroke="midnightblue" points="2728.75,-268.461 2736.78,-261.546 2726.19,-261.945 2728.75,-268.461"/>
</g>
<!-- Node3 -->
<g id="node3" class="node"><title>Node3</title>
<g id="a_node3"><a xlink:href="autogenerated_2include_2thrifts_2_human_dynamics_8h.html" target="_top" xlink:title="thrifts/HumanDynamics.h">
<polygon fill="none" stroke="black" points="1540.37,-112.5 1540.37,-131.5 1668.37,-131.5 1668.37,-112.5 1540.37,-112.5"/>
<text text-anchor="middle" x="1604.37" y="-119.5" font-family="Helvetica,sans-Serif" font-size="10.00">thrifts/HumanDynamics.h</text>
</a>
</g>
</g>
<!-- Node2&#45;&gt;Node3 -->
<g id="edge2" class="edge"><title>Node2&#45;&gt;Node3</title>
<path fill="none" stroke="midnightblue" d="M1165.99,-247.48C1321.32,-239.498 1676.71,-219.223 1694.37,-200 1703.99,-189.526 1701.85,-180.098 1694.37,-168 1684.7,-152.348 1667.75,-141.958 1651.15,-135.15"/>
<polygon fill="midnightblue" stroke="midnightblue" points="1652.07,-131.756 1641.47,-131.542 1649.62,-138.315 1652.07,-131.756"/>
</g>
<!-- Node7 -->
<g id="node7" class="node"><title>Node7</title>
<polygon fill="none" stroke="#bfbfbf" points="1723.87,-0.5 1723.87,-19.5 1814.87,-19.5 1814.87,-0.5 1723.87,-0.5"/>
<text text-anchor="middle" x="1769.37" y="-7.5" font-family="Helvetica,sans-Serif" font-size="10.00">yarp/sig/Vector.h</text>
</g>
<!-- Node2&#45;&gt;Node7 -->
<g id="edge36" class="edge"><title>Node2&#45;&gt;Node7</title>
<path fill="none" stroke="midnightblue" d="M1166.01,-247.917C1318.24,-240.959 1664.01,-222.849 1712.37,-200 1778.72,-168.658 1797.77,-145.478 1821.37,-76 1824.23,-67.5833 1825.07,-64.0844 1821.37,-56 1815.59,-43.3602 1804.32,-32.911 1793.74,-25.2737"/>
<polygon fill="midnightblue" stroke="midnightblue" points="1795.41,-22.1817 1785.15,-19.5333 1791.52,-28.0009 1795.41,-22.1817"/>
</g>
<!-- Node9 -->
<g id="node9" class="node"><title>Node9</title>
<g id="a_node9"><a xlink:href="autogenerated_2include_2thrifts_2_human_state_8h.html" target="_top" xlink:title="thrifts/HumanState.h">
<polygon fill="none" stroke="black" points="1578.87,-174.5 1578.87,-193.5 1685.87,-193.5 1685.87,-174.5 1578.87,-174.5"/>
<text text-anchor="middle" x="1632.37" y="-181.5" font-family="Helvetica,sans-Serif" font-size="10.00">thrifts/HumanState.h</text>
</a>
</g>
</g>
<!-- Node2&#45;&gt;Node9 -->
<g id="edge13" class="edge"><title>Node2&#45;&gt;Node9</title>
<path fill="none" stroke="midnightblue" d="M1165.98,-246.155C1259.3,-239.191 1427.35,-224.43 1569.37,-200 1576.07,-198.847 1583.12,-197.402 1589.98,-195.868"/>
<polygon fill="midnightblue" stroke="midnightblue" points="1590.89,-199.251 1599.84,-193.578 1589.3,-192.432 1590.89,-199.251"/>
</g>
<!-- Node12 -->
<g id="node12" class="node"><title>Node12</title>
<g id="a_node12"><a xlink:href="autogenerated_2include_2thrifts_2_human_forces_8h.html" target="_top" xlink:title="thrifts/HumanForces.h">
<polygon fill="none" stroke="black" points="987.372,-112.5 987.372,-131.5 1101.37,-131.5 1101.37,-112.5 987.372,-112.5"/>
<text text-anchor="middle" x="1044.37" y="-119.5" font-family="Helvetica,sans-Serif" font-size="10.00">thrifts/HumanForces.h</text>
</a>
</g>
</g>
<!-- Node2&#45;&gt;Node12 -->
<g id="edge24" class="edge"><title>Node2&#45;&gt;Node12</title>
<path fill="none" stroke="midnightblue" d="M1022.77,-250.326C786.165,-247.751 42.4424,-236.755 7.37152,-200 -2.44663,-189.71 -2.4647,-178.272 7.37152,-168 40.9344,-132.949 752.431,-125.023 977.05,-123.391"/>
<polygon fill="midnightblue" stroke="midnightblue" points="977.083,-126.891 987.058,-123.32 977.033,-119.891 977.083,-126.891"/>
</g>
<!-- Node14 -->
<g id="node14" class="node"><title>Node14</title>
<polygon fill="none" stroke="#bfbfbf" points="16.8715,-174.5 16.8715,-193.5 165.872,-193.5 165.872,-174.5 16.8715,-174.5"/>
<text text-anchor="middle" x="91.3715" y="-181.5" font-family="Helvetica,sans-Serif" font-size="10.00">iDynTree/Core/SparseMatrix.h</text>
</g>
<!-- Node2&#45;&gt;Node14 -->
<g id="edge30" class="edge"><title>Node2&#45;&gt;Node14</title>
<path fill="none" stroke="midnightblue" d="M1022.83,-250.036C867.736,-247.287 489.137,-237.024 174.372,-200 164.228,-198.807 153.45,-197.15 143.137,-195.372"/>
<polygon fill="midnightblue" stroke="midnightblue" points="143.479,-191.877 133.019,-193.565 142.248,-198.768 143.479,-191.877"/>
</g>
<!-- Node15 -->
<g id="node15" class="node"><title>Node15</title>
<polygon fill="none" stroke="#bfbfbf" points="183.372,-169 183.372,-199 289.372,-199 289.372,-169 183.372,-169"/>
<text text-anchor="start" x="191.372" y="-187" font-family="Helvetica,sans-Serif" font-size="10.00">iDynTree/Estimation</text>
<text text-anchor="middle" x="236.372" y="-176" font-family="Helvetica,sans-Serif" font-size="10.00">/BerdyHelper.h</text>
</g>
<!-- Node2&#45;&gt;Node15 -->
<g id="edge31" class="edge"><title>Node2&#45;&gt;Node15</title>
<path fill="none" stroke="midnightblue" d="M1022.84,-250.561C884.62,-248.81 571.233,-240.456 299.735,-200.034"/>
<polygon fill="midnightblue" stroke="midnightblue" points="300.099,-196.549 289.689,-198.521 299.056,-203.471 300.099,-196.549"/>
</g>
<!-- Node16 -->
<g id="node16" class="node"><title>Node16</title>
<polygon fill="none" stroke="#bfbfbf" points="307.872,-174.5 307.872,-193.5 468.872,-193.5 468.872,-174.5 307.872,-174.5"/>
<text text-anchor="middle" x="388.372" y="-181.5" font-family="Helvetica,sans-Serif" font-size="10.00">iDynTree/KinDynComputations.h</text>
</g>
<!-- Node2&#45;&gt;Node16 -->
<g id="edge32" class="edge"><title>Node2&#45;&gt;Node16</title>
<path fill="none" stroke="midnightblue" d="M1022.44,-247.033C907.129,-240.228 673.871,-224.635 477.372,-200 466.658,-198.657 455.264,-196.95 444.332,-195.173"/>
<polygon fill="midnightblue" stroke="midnightblue" points="444.894,-191.718 434.455,-193.529 443.745,-198.623 444.894,-191.718"/>
</g>
<!-- Node17 -->
<g id="node17" class="node"><title>Node17</title>
<polygon fill="none" stroke="#bfbfbf" points="486.872,-174.5 486.872,-193.5 597.872,-193.5 597.872,-174.5 486.872,-174.5"/>
<text text-anchor="middle" x="542.372" y="-181.5" font-family="Helvetica,sans-Serif" font-size="10.00">yarp/dev/PolyDriver.h</text>
</g>
<!-- Node2&#45;&gt;Node17 -->
<g id="edge33" class="edge"><title>Node2&#45;&gt;Node17</title>
<path fill="none" stroke="midnightblue" d="M1022.87,-246.364C927.433,-239.529 753.365,-224.805 606.372,-200 599.491,-198.839 592.247,-197.377 585.205,-195.824"/>
<polygon fill="midnightblue" stroke="midnightblue" points="585.627,-192.33 575.098,-193.508 584.063,-199.153 585.627,-192.33"/>
</g>
<!-- Node18 -->
<g id="node18" class="node"><title>Node18</title>
<polygon fill="none" stroke="#bfbfbf" points="615.872,-174.5 615.872,-193.5 730.872,-193.5 730.872,-174.5 615.872,-174.5"/>
<text text-anchor="middle" x="673.372" y="-181.5" font-family="Helvetica,sans-Serif" font-size="10.00">yarp/os/BufferedPort.h</text>
</g>
<!-- Node2&#45;&gt;Node18 -->
<g id="edge34" class="edge"><title>Node2&#45;&gt;Node18</title>
<path fill="none" stroke="midnightblue" d="M1023.04,-242.473C951.156,-233.477 837.177,-218.109 739.372,-200 732.618,-198.75 725.507,-197.288 718.555,-195.777"/>
<polygon fill="midnightblue" stroke="midnightblue" points="719.064,-192.305 708.542,-193.547 717.542,-199.137 719.064,-192.305"/>
</g>
<!-- Node19 -->
<g id="node19" class="node"><title>Node19</title>
<polygon fill="none" stroke="#bfbfbf" points="748.872,-174.5 748.872,-193.5 853.872,-193.5 853.872,-174.5 748.872,-174.5"/>
<text text-anchor="middle" x="801.372" y="-181.5" font-family="Helvetica,sans-Serif" font-size="10.00">yarp/os/RFModule.h</text>
</g>
<!-- Node2&#45;&gt;Node19 -->
<g id="edge35" class="edge"><title>Node2&#45;&gt;Node19</title>
<path fill="none" stroke="midnightblue" d="M1054.07,-242.456C1007.74,-232.562 929.447,-215.617 862.372,-200 856.928,-198.733 851.219,-197.371 845.569,-196.005"/>
<polygon fill="midnightblue" stroke="midnightblue" points="846.078,-192.527 835.534,-193.558 844.42,-199.327 846.078,-192.527"/>
</g>
<!-- Node20 -->
<g id="node20" class="node"><title>Node20</title>
<polygon fill="none" stroke="#bfbfbf" points="871.872,-174.5 871.872,-193.5 936.872,-193.5 936.872,-174.5 871.872,-174.5"/>
<text text-anchor="middle" x="904.372" y="-181.5" font-family="Helvetica,sans-Serif" font-size="10.00">Eigen/Core</text>
</g>
<!-- Node2&#45;&gt;Node20 -->
<g id="edge37" class="edge"><title>Node2&#45;&gt;Node20</title>
<path fill="none" stroke="midnightblue" d="M1069.01,-242.498C1039.31,-232.503 988.672,-215.329 945.372,-200 942.781,-199.083 940.103,-198.125 937.413,-197.156"/>
<polygon fill="midnightblue" stroke="midnightblue" points="938.351,-193.773 927.757,-193.652 935.963,-200.353 938.351,-193.773"/>
</g>
<!-- Node21 -->
<g id="node21" class="node"><title>Node21</title>
<polygon fill="none" stroke="#bfbfbf" points="954.872,-174.5 954.872,-193.5 1027.87,-193.5 1027.87,-174.5 954.872,-174.5"/>
<text text-anchor="middle" x="991.372" y="-181.5" font-family="Helvetica,sans-Serif" font-size="10.00">Eigen/Dense</text>
</g>
<!-- Node2&#45;&gt;Node21 -->
<g id="edge38" class="edge"><title>Node2&#45;&gt;Node21</title>
<path fill="none" stroke="midnightblue" d="M1080.91,-242.372C1063.79,-231.403 1034,-212.317 1013.52,-199.191"/>
<polygon fill="midnightblue" stroke="midnightblue" points="1015.15,-196.079 1004.84,-193.63 1011.37,-201.973 1015.15,-196.079"/>
</g>
<!-- Node22 -->
<g id="node22" class="node"><title>Node22</title>
<polygon fill="none" stroke="#bfbfbf" points="1046.37,-174.5 1046.37,-193.5 1142.37,-193.5 1142.37,-174.5 1046.37,-174.5"/>
<text text-anchor="middle" x="1094.37" y="-181.5" font-family="Helvetica,sans-Serif" font-size="10.00">Eigen/SparseCore</text>
</g>
<!-- Node2&#45;&gt;Node22 -->
<g id="edge39" class="edge"><title>Node2&#45;&gt;Node22</title>
<path fill="none" stroke="midnightblue" d="M1094.37,-242.372C1094.37,-232.643 1094.37,-216.528 1094.37,-203.85"/>
<polygon fill="midnightblue" stroke="midnightblue" points="1097.87,-203.841 1094.37,-193.841 1090.87,-203.841 1097.87,-203.841"/>
</g>
<!-- Node23 -->
<g id="node23" class="node"><title>Node23</title>
<polygon fill="none" stroke="#bfbfbf" points="1160.37,-174.5 1160.37,-193.5 1276.37,-193.5 1276.37,-174.5 1160.37,-174.5"/>
<text text-anchor="middle" x="1218.37" y="-181.5" font-family="Helvetica,sans-Serif" font-size="10.00">Eigen/SparseCholesky</text>
</g>
<!-- Node2&#45;&gt;Node23 -->
<g id="edge40" class="edge"><title>Node2&#45;&gt;Node23</title>
<path fill="none" stroke="midnightblue" d="M1110.58,-242.372C1131.56,-231.205 1168.35,-211.627 1193.03,-198.488"/>
<polygon fill="midnightblue" stroke="midnightblue" points="1194.97,-201.419 1202.16,-193.63 1191.68,-195.239 1194.97,-201.419"/>
</g>
<!-- Node24 -->
<g id="node24" class="node"><title>Node24</title>
<polygon fill="none" stroke="#bfbfbf" points="1294.37,-174.5 1294.37,-193.5 1382.37,-193.5 1382.37,-174.5 1294.37,-174.5"/>
<text text-anchor="middle" x="1338.37" y="-181.5" font-family="Helvetica,sans-Serif" font-size="10.00">Eigen/SparseLU</text>
</g>
<!-- Node2&#45;&gt;Node24 -->
<g id="edge41" class="edge"><title>Node2&#45;&gt;Node24</title>
<path fill="none" stroke="midnightblue" d="M1126.67,-242.423C1164.49,-232.356 1229.02,-215.116 1284.37,-200 1288.77,-198.8 1293.36,-197.537 1297.93,-196.274"/>
<polygon fill="midnightblue" stroke="midnightblue" points="1299.12,-199.576 1307.83,-193.534 1297.26,-192.83 1299.12,-199.576"/>
</g>
<!-- Node25 -->
<g id="node25" class="node"><title>Node25</title>
<polygon fill="none" stroke="#bfbfbf" points="1400.87,-174.5 1400.87,-193.5 1459.87,-193.5 1459.87,-174.5 1400.87,-174.5"/>
<text text-anchor="middle" x="1430.37" y="-181.5" font-family="Helvetica,sans-Serif" font-size="10.00">functional</text>
</g>
<!-- Node2&#45;&gt;Node25 -->
<g id="edge42" class="edge"><title>Node2&#45;&gt;Node25</title>
<path fill="none" stroke="midnightblue" d="M1166.06,-242.494C1226.52,-234.409 1315,-220.429 1390.37,-200 1393.59,-199.127 1396.92,-198.097 1400.21,-196.993"/>
<polygon fill="midnightblue" stroke="midnightblue" points="1401.62,-200.206 1409.85,-193.539 1399.26,-193.616 1401.62,-200.206"/>
</g>
<!-- Node26 -->
<g id="node26" class="node"><title>Node26</title>
<polygon fill="none" stroke="#bfbfbf" points="1477.87,-174.5 1477.87,-193.5 1560.87,-193.5 1560.87,-174.5 1477.87,-174.5"/>
<text text-anchor="middle" x="1519.37" y="-181.5" font-family="Helvetica,sans-Serif" font-size="10.00">unordered_map</text>
</g>
<!-- Node2&#45;&gt;Node26 -->
<g id="edge43" class="edge"><title>Node2&#45;&gt;Node26</title>
<path fill="none" stroke="midnightblue" d="M1165.93,-244.476C1241.61,-236.825 1364.24,-222.281 1468.37,-200 1473.19,-198.968 1478.23,-197.713 1483.17,-196.374"/>
<polygon fill="midnightblue" stroke="midnightblue" points="1484.43,-199.653 1493.1,-193.549 1482.52,-192.92 1484.43,-199.653"/>
</g>
<!-- Node2&#45;&gt;Node27 -->
<g id="edge44" class="edge"><title>Node2&#45;&gt;Node27</title>
<path fill="none" stroke="midnightblue" d="M1166.08,-247.847C1346.32,-239.705 1808.72,-217.399 1876.37,-200 1878.87,-199.358 1881.41,-198.523 1883.9,-197.576"/>
<polygon fill="midnightblue" stroke="midnightblue" points="1885.41,-200.737 1893.18,-193.535 1882.62,-194.32 1885.41,-200.737"/>
</g>
<!-- Node4 -->
<g id="node4" class="node"><title>Node4</title>
<polygon fill="none" stroke="#bfbfbf" points="1168.37,-0.5 1168.37,-19.5 1248.37,-19.5 1248.37,-0.5 1168.37,-0.5"/>
<text text-anchor="middle" x="1208.37" y="-7.5" font-family="Helvetica,sans-Serif" font-size="10.00">yarp/os/Wire.h</text>
</g>
<!-- Node3&#45;&gt;Node4 -->
<g id="edge3" class="edge"><title>Node3&#45;&gt;Node4</title>
<path fill="none" stroke="midnightblue" d="M1560.98,-112.445C1520.47,-104.161 1458.45,-90.7204 1405.37,-76 1347.07,-59.8307 1280.46,-36.8928 1241.54,-23.0321"/>
<polygon fill="midnightblue" stroke="midnightblue" points="1242.39,-19.6196 1231.8,-19.545 1240.04,-26.2102 1242.39,-19.6196"/>
</g>
<!-- Node5 -->
<g id="node5" class="node"><title>Node5</title>
<polygon fill="none" stroke="#bfbfbf" points="1274.37,-0.5 1274.37,-19.5 1394.37,-19.5 1394.37,-0.5 1274.37,-0.5"/>
<text text-anchor="middle" x="1334.37" y="-7.5" font-family="Helvetica,sans-Serif" font-size="10.00">yarp/os/idl/WireTypes.h</text>
</g>
<!-- Node3&#45;&gt;Node5 -->
<g id="edge4" class="edge"><title>Node3&#45;&gt;Node5</title>
<path fill="none" stroke="midnightblue" d="M1604.39,-112.345C1603.92,-98.2789 1600.81,-70.5661 1584.37,-56 1558.29,-32.8852 1469.13,-21.1597 1404.71,-15.5707"/>
<polygon fill="midnightblue" stroke="midnightblue" points="1404.86,-12.0707 1394.6,-14.7256 1404.27,-19.0463 1404.86,-12.0707"/>
</g>
<!-- Node6 -->
<g id="node6" class="node"><title>Node6</title>
<g id="a_node6"><a xlink:href="autogenerated_2include_2thrifts_2_joint_dynamics_estimation_8h.html" target="_top" xlink:title="thrifts/JointDynamicsEstimation.h">
<polygon fill="none" stroke="black" points="1632.37,-56.5 1632.37,-75.5 1796.37,-75.5 1796.37,-56.5 1632.37,-56.5"/>
<text text-anchor="middle" x="1714.37" y="-63.5" font-family="Helvetica,sans-Serif" font-size="10.00">thrifts/JointDynamicsEstimation.h</text>
</a>
</g>
</g>
<!-- Node3&#45;&gt;Node6 -->
<g id="edge5" class="edge"><title>Node3&#45;&gt;Node6</title>
<path fill="none" stroke="midnightblue" d="M1622.04,-112.324C1639.77,-103.625 1667.27,-90.1202 1687.66,-80.113"/>
<polygon fill="midnightblue" stroke="midnightblue" points="1689.31,-83.2031 1696.74,-75.6545 1686.22,-76.9195 1689.31,-83.2031"/>
</g>
<!-- Node8 -->
<g id="node8" class="node"><title>Node8</title>
<g id="a_node8"><a xlink:href="autogenerated_2include_2thrifts_2_link_dynamics_estimation_8h.html" target="_top" xlink:title="thrifts/LinkDynamicsEstimation.h">
<polygon fill="none" stroke="black" points="1414.87,-56.5 1414.87,-75.5 1575.87,-75.5 1575.87,-56.5 1414.87,-56.5"/>
<text text-anchor="middle" x="1495.37" y="-63.5" font-family="Helvetica,sans-Serif" font-size="10.00">thrifts/LinkDynamicsEstimation.h</text>
</a>
</g>
</g>
<!-- Node3&#45;&gt;Node8 -->
<g id="edge9" class="edge"><title>Node3&#45;&gt;Node8</title>
<path fill="none" stroke="midnightblue" d="M1586.86,-112.324C1569.3,-103.625 1542.04,-90.1202 1521.84,-80.113"/>
<polygon fill="midnightblue" stroke="midnightblue" points="1523.36,-76.9575 1512.84,-75.6545 1520.25,-83.23 1523.36,-76.9575"/>
</g>
<!-- Node6&#45;&gt;Node4 -->
<g id="edge6" class="edge"><title>Node6&#45;&gt;Node4</title>
<path fill="none" stroke="midnightblue" d="M1632.28,-58.1799C1542.13,-50.3629 1393.19,-36.482 1265.37,-20 1263.15,-19.7137 1260.88,-19.4088 1258.6,-19.0908"/>
<polygon fill="midnightblue" stroke="midnightblue" points="1258.9,-15.5984 1248.5,-17.6289 1257.9,-22.5262 1258.9,-15.5984"/>
</g>
<!-- Node6&#45;&gt;Node5 -->
<g id="edge7" class="edge"><title>Node6&#45;&gt;Node5</title>
<path fill="none" stroke="midnightblue" d="M1654.16,-56.4435C1586.34,-46.8061 1476.26,-31.1635 1404.59,-20.9782"/>
<polygon fill="midnightblue" stroke="midnightblue" points="1404.69,-17.4582 1394.3,-19.5164 1403.71,-24.3886 1404.69,-17.4582"/>
</g>
<!-- Node6&#45;&gt;Node7 -->
<g id="edge8" class="edge"><title>Node6&#45;&gt;Node7</title>
<path fill="none" stroke="midnightblue" d="M1723.45,-56.083C1731.54,-48.1409 1743.57,-36.3354 1753.28,-26.7973"/>
<polygon fill="midnightblue" stroke="midnightblue" points="1755.77,-29.2545 1760.46,-19.7511 1750.87,-24.2595 1755.77,-29.2545"/>
</g>
<!-- Node8&#45;&gt;Node4 -->
<g id="edge10" class="edge"><title>Node8&#45;&gt;Node4</title>
<path fill="none" stroke="midnightblue" d="M1449.9,-56.4435C1397.78,-46.6371 1312.61,-30.6127 1258.58,-20.4472"/>
<polygon fill="midnightblue" stroke="midnightblue" points="1259.02,-16.9675 1248.54,-18.558 1257.72,-23.8468 1259.02,-16.9675"/>
</g>
<!-- Node8&#45;&gt;Node5 -->
<g id="edge11" class="edge"><title>Node8&#45;&gt;Node5</title>
<path fill="none" stroke="midnightblue" d="M1469.86,-56.4435C1442.78,-47.3591 1399.78,-32.9388 1369.5,-22.7831"/>
<polygon fill="midnightblue" stroke="midnightblue" points="1370.36,-19.3781 1359.76,-19.5164 1368.13,-26.0148 1370.36,-19.3781"/>
</g>
<!-- Node8&#45;&gt;Node7 -->
<g id="edge12" class="edge"><title>Node8&#45;&gt;Node7</title>
<path fill="none" stroke="midnightblue" d="M1538.79,-56.4435C1586.89,-46.9641 1664.47,-31.6747 1716.18,-21.4835"/>
<polygon fill="midnightblue" stroke="midnightblue" points="1717.02,-24.8841 1726.16,-19.5164 1715.67,-18.0162 1717.02,-24.8841"/>
</g>
<!-- Node9&#45;&gt;Node4 -->
<g id="edge14" class="edge"><title>Node9&#45;&gt;Node4</title>
<path fill="none" stroke="midnightblue" d="M1601.18,-174.445C1591.1,-171.985 1579.83,-169.551 1569.37,-168 1504.3,-158.345 1023.45,-179.913 978.372,-132 962.124,-114.733 973.078,-76.4436 995.372,-56 1018.71,-34.5975 1102.76,-21.933 1158.04,-15.7375"/>
<polygon fill="midnightblue" stroke="midnightblue" points="1158.44,-19.2145 1168,-14.6553 1157.69,-12.2554 1158.44,-19.2145"/>
</g>
<!-- Node9&#45;&gt;Node5 -->
<g id="edge15" class="edge"><title>Node9&#45;&gt;Node5</title>
<path fill="none" stroke="midnightblue" d="M1608.26,-174.402C1565.38,-158.527 1473.93,-121.996 1405.37,-76 1384.26,-61.8354 1363.16,-41.5494 1349.52,-27.4206"/>
<polygon fill="midnightblue" stroke="midnightblue" points="1351.82,-24.7619 1342.41,-19.9062 1346.74,-29.5744 1351.82,-24.7619"/>
</g>
<!-- Node9&#45;&gt;Node7 -->
<g id="edge23" class="edge"><title>Node9&#45;&gt;Node7</title>
<path fill="none" stroke="midnightblue" d="M1662.59,-174.433C1703.49,-161.02 1774.86,-130.755 1805.37,-76 1814.72,-59.2334 1801.04,-39.9981 1787.94,-26.8284"/>
<polygon fill="midnightblue" stroke="midnightblue" points="1790.17,-24.119 1780.47,-19.8396 1785.38,-29.2291 1790.17,-24.119"/>
</g>
<!-- Node10 -->
<g id="node10" class="node"><title>Node10</title>
<g id="a_node10"><a xlink:href="human-state-provider_2autogenerated_2include_2thrifts_2_quaternion_8h.html" target="_top" xlink:title="thrifts/Quaternion.h">
<polygon fill="none" stroke="black" points="1222.37,-112.5 1222.37,-131.5 1322.37,-131.5 1322.37,-112.5 1222.37,-112.5"/>
<text text-anchor="middle" x="1272.37" y="-119.5" font-family="Helvetica,sans-Serif" font-size="10.00">thrifts/Quaternion.h</text>
</a>
</g>
</g>
<!-- Node9&#45;&gt;Node10 -->
<g id="edge16" class="edge"><title>Node9&#45;&gt;Node10</title>
<path fill="none" stroke="midnightblue" d="M1598.81,-174.461C1589.32,-172.198 1578.97,-169.867 1569.37,-168 1525.25,-159.42 1405.87,-141.989 1332.6,-131.519"/>
<polygon fill="midnightblue" stroke="midnightblue" points="1332.97,-128.037 1322.58,-130.089 1331.98,-134.967 1332.97,-128.037"/>
</g>
<!-- Node11 -->
<g id="node11" class="node"><title>Node11</title>
<g id="a_node11"><a xlink:href="human-state-provider_2autogenerated_2include_2thrifts_2_vector3_8h.html" target="_top" xlink:title="thrifts/Vector3.h">
<polygon fill="none" stroke="black" points="1158.37,-56.5 1158.37,-75.5 1244.37,-75.5 1244.37,-56.5 1158.37,-56.5"/>
<text text-anchor="middle" x="1201.37" y="-63.5" font-family="Helvetica,sans-Serif" font-size="10.00">thrifts/Vector3.h</text>
</a>
</g>
</g>
<!-- Node9&#45;&gt;Node11 -->
<g id="edge22" class="edge"><title>Node9&#45;&gt;Node11</title>
<path fill="none" stroke="midnightblue" d="M1600.17,-174.461C1590.34,-172.091 1579.46,-169.703 1569.37,-168 1490.97,-154.762 1271.85,-185.88 1213.37,-132 1200.86,-120.475 1198.82,-100.506 1199.31,-85.7347"/>
<polygon fill="midnightblue" stroke="midnightblue" points="1202.81,-85.9082 1200.05,-75.6779 1195.83,-85.3934 1202.81,-85.9082"/>
</g>
<!-- Node10&#45;&gt;Node4 -->
<g id="edge17" class="edge"><title>Node10&#45;&gt;Node4</title>
<path fill="none" stroke="midnightblue" d="M1271.26,-112.461C1269.28,-99.4957 1264.28,-74.4089 1253.37,-56 1246.73,-44.7926 1236.66,-34.3632 1227.73,-26.3724"/>
<polygon fill="midnightblue" stroke="midnightblue" points="1229.86,-23.5894 1219.98,-19.7673 1225.32,-28.9173 1229.86,-23.5894"/>
</g>
<!-- Node10&#45;&gt;Node5 -->
<g id="edge18" class="edge"><title>Node10&#45;&gt;Node5</title>
<path fill="none" stroke="midnightblue" d="M1277.24,-112.368C1287.42,-94.2957 1311.16,-52.1764 1324.62,-28.3074"/>
<polygon fill="midnightblue" stroke="midnightblue" points="1327.67,-30.0215 1329.53,-19.5914 1321.57,-26.5844 1327.67,-30.0215"/>
</g>
<!-- Node10&#45;&gt;Node11 -->
<g id="edge19" class="edge"><title>Node10&#45;&gt;Node11</title>
<path fill="none" stroke="midnightblue" d="M1260.96,-112.324C1250.26,-104.185 1234.03,-91.8395 1221.21,-82.0874"/>
<polygon fill="midnightblue" stroke="midnightblue" points="1223.06,-79.1018 1212.99,-75.8339 1218.83,-84.6734 1223.06,-79.1018"/>
</g>
<!-- Node11&#45;&gt;Node4 -->
<g id="edge20" class="edge"><title>Node11&#45;&gt;Node4</title>
<path fill="none" stroke="midnightblue" d="M1202.53,-56.083C1203.46,-48.9272 1204.79,-38.6353 1205.95,-29.6911"/>
<polygon fill="midnightblue" stroke="midnightblue" points="1209.42,-30.1181 1207.24,-19.7511 1202.48,-29.2181 1209.42,-30.1181"/>
</g>
<!-- Node11&#45;&gt;Node5 -->
<g id="edge21" class="edge"><title>Node11&#45;&gt;Node5</title>
<path fill="none" stroke="midnightblue" d="M1222.45,-56.4435C1244.43,-47.5171 1279.11,-33.4387 1304.04,-23.3168"/>
<polygon fill="midnightblue" stroke="midnightblue" points="1305.45,-26.5213 1313.4,-19.5164 1302.81,-20.0355 1305.45,-26.5213"/>
</g>
<!-- Node12&#45;&gt;Node4 -->
<g id="edge25" class="edge"><title>Node12&#45;&gt;Node4</title>
<path fill="none" stroke="midnightblue" d="M1031.98,-112.377C1015,-99.5191 988.236,-74.8178 1003.37,-56 1022.41,-32.3266 1103.63,-20.4006 1157.94,-14.9626"/>
<polygon fill="midnightblue" stroke="midnightblue" points="1158.46,-18.4287 1168.08,-13.9906 1157.79,-11.4606 1158.46,-18.4287"/>
</g>
<!-- Node12&#45;&gt;Node5 -->
<g id="edge26" class="edge"><title>Node12&#45;&gt;Node5</title>
<path fill="none" stroke="midnightblue" d="M1057.22,-112.334C1080.82,-96.5364 1130.39,-63.9477 1149.37,-56 1187.97,-39.8409 1233.64,-28.659 1269.94,-21.4834"/>
<polygon fill="midnightblue" stroke="midnightblue" points="1270.76,-24.8903 1279.92,-19.5649 1269.44,-18.0162 1270.76,-24.8903"/>
</g>
<!-- Node13 -->
<g id="node13" class="node"><title>Node13</title>
<g id="a_node13"><a xlink:href="autogenerated_2include_2thrifts_2_force6_d_8h.html" target="_top" xlink:title="thrifts/Force6D.h">
<polygon fill="none" stroke="black" points="1012.37,-56.5 1012.37,-75.5 1102.37,-75.5 1102.37,-56.5 1012.37,-56.5"/>
<text text-anchor="middle" x="1057.37" y="-63.5" font-family="Helvetica,sans-Serif" font-size="10.00">thrifts/Force6D.h</text>
</a>
</g>
</g>
<!-- Node12&#45;&gt;Node13 -->
<g id="edge27" class="edge"><title>Node12&#45;&gt;Node13</title>
<path fill="none" stroke="midnightblue" d="M1046.52,-112.083C1048.24,-104.927 1050.72,-94.6353 1052.87,-85.6911"/>
<polygon fill="midnightblue" stroke="midnightblue" points="1056.33,-86.2925 1055.26,-75.7511 1049.52,-84.6541 1056.33,-86.2925"/>
</g>
<!-- Node13&#45;&gt;Node4 -->
<g id="edge28" class="edge"><title>Node13&#45;&gt;Node4</title>
<path fill="none" stroke="midnightblue" d="M1081.3,-56.4435C1106.59,-47.3986 1146.67,-33.064 1175.05,-22.9158"/>
<polygon fill="midnightblue" stroke="midnightblue" points="1176.32,-26.1794 1184.56,-19.5164 1173.96,-19.5882 1176.32,-26.1794"/>
</g>
<!-- Node13&#45;&gt;Node5 -->
<g id="edge29" class="edge"><title>Node13&#45;&gt;Node5</title>
<path fill="none" stroke="midnightblue" d="M1101.26,-56.4435C1149.89,-46.9641 1228.32,-31.6747 1280.6,-21.4835"/>
<polygon fill="midnightblue" stroke="midnightblue" points="1281.54,-24.8653 1290.69,-19.5164 1280.2,-17.9946 1281.54,-24.8653"/>
</g>
</g>
</svg>
        <g id="navigator" transform="translate(0 0)" fill="#404254">
                <rect fill="#f2f5e9" fill-opacity="0.5" stroke="#606060" stroke-width=".5" x="0" y="0" width="60" height="60"/>
                <use id="zoomplus" xlink:href="#zoomPlus" x="17" y="9" onmousedown="handleZoom(evt,'in')"/>
                <use id="zoomminus" xlink:href="#zoomMin" x="42" y="9" onmousedown="handleZoom(evt,'out')"/>
                <use id="reset" xlink:href="#resetDef" x="30" y="36" onmousedown="handleReset()"/>
                <g id="arrowUp" xlink:href="#dirArrow" transform="translate(30 24)" onmousedown="handlePan(0,-1)">
                  <use xlink:href="#rim" fill="#404040">
                        <set attributeName="fill" to="#808080" begin="arrowUp.mouseover" end="arrowUp.mouseout"/>
                  </use>
                  <path fill="none" stroke="white" stroke-width="1.5" d="M0,-3.0v7 M-2.5,-0.5L0,-3.0L2.5,-0.5"/>
                </g>
                <g id="arrowRight" xlink:href="#dirArrow" transform="rotate(90) translate(36 -43)" onmousedown="handlePan(1,0)">
                  <use xlink:href="#rim" fill="#404040">
                        <set attributeName="fill" to="#808080" begin="arrowRight.mouseover" end="arrowRight.mouseout"/>
                  </use>
                  <path fill="none" stroke="white" stroke-width="1.5" d="M0,-3.0v7 M-2.5,-0.5L0,-3.0L2.5,-0.5"/>
                </g>
                <g id="arrowDown" xlink:href="#dirArrow" transform="rotate(180) translate(-30 -48)" onmousedown="handlePan(0,1)">
                  <use xlink:href="#rim" fill="#404040">
                        <set attributeName="fill" to="#808080" begin="arrowDown.mouseover" end="arrowDown.mouseout"/>
                  </use>
                  <path fill="none" stroke="white" stroke-width="1.5" d="M0,-3.0v7 M-2.5,-0.5L0,-3.0L2.5,-0.5"/>
                </g>
                <g id="arrowLeft" xlink:href="#dirArrow" transform="rotate(270) translate(-36 17)" onmousedown="handlePan(-1,0)">
                  <use xlink:href="#rim" fill="#404040">
                        <set attributeName="fill" to="#808080" begin="arrowLeft.mouseover" end="arrowLeft.mouseout"/>
                  </use>
                  <path fill="none" stroke="white" stroke-width="1.5" d="M0,-3.0v7 M-2.5,-0.5L0,-3.0L2.5,-0.5"/>
                </g>
        </g>
        <svg viewBox="0 0 15 15" width="100%" height="30px" preserveAspectRatio="xMaxYMin meet">
         <g id="arrow_out" transform="scale(0.3 0.3)">
          <a xlink:href="_human_dynamics_estimator_8cpp__incl_org.svg" target="_base">
           <rect id="button" ry="5" rx="5" y="6" x="6" height="38" width="38"
                fill="#f2f5e9" fill-opacity="0.5" stroke="#606060" stroke-width="1.0"/>
           <path id="arrow"
             d="M 11.500037,31.436501 C 11.940474,20.09759 22.043105,11.32322 32.158766,21.979434 L 37.068811,17.246167 C 37.068811,17.246167 37.088388,32 37.088388,32 L 22.160133,31.978069 C 22.160133,31.978069 26.997745,27.140456 26.997745,27.140456 C 18.528582,18.264221 13.291696,25.230495 11.500037,31.436501 z"
             style="fill:#404040;"/>
          </a>
         </g>
        </svg>
</svg>
