<?xml version="1.0" encoding="UTF-8" standalone="no"?>
<!DOCTYPE svg PUBLIC "-//W3C//DTD SVG 1.1//EN"
 "http://www.w3.org/Graphics/SVG/1.1/DTD/svg11.dtd">
<!-- Generated by graphviz version 2.36.0 (20140111.2315)
 -->
<!-- Title: /home/travis/build/robotology/human&#45;dynamics&#45;estimation/build/human&#45;state&#45;provider/_yarp_idl_/thrifts/humanstateproviderservice/HumanStateProviderService_index.h Pages: 1 -->
<svg width="226pt" height="196pt"
 viewBox="0.00 0.00 226.00 196.00" xmlns="http://www.w3.org/2000/svg" xmlns:xlink="http://www.w3.org/1999/xlink">
<g id="graph0" class="graph" transform="scale(1 1) rotate(0) translate(4 192)">
<title>/home/travis/build/robotology/human&#45;dynamics&#45;estimation/build/human&#45;state&#45;provider/_yarp_idl_/thrifts/humanstateproviderservice/HumanStateProviderService_index.h</title>
<!-- Node1 -->
<g id="node1" class="node"><title>Node1</title>
<polygon fill="#bfbfbf" stroke="black" points="9,-113 9,-187 189,-187 189,-113 9,-113"/>
<text text-anchor="start" x="17" y="-175" font-family="Helvetica,sans-Serif" font-size="10.00">/home/travis/build</text>
<text text-anchor="start" x="17" y="-164" font-family="Helvetica,sans-Serif" font-size="10.00">/robotology/human&#45;dynamics</text>
<text text-anchor="start" x="17" y="-153" font-family="Helvetica,sans-Serif" font-size="10.00">&#45;estimation/build/human</text>
<text text-anchor="start" x="17" y="-142" font-family="Helvetica,sans-Serif" font-size="10.00">&#45;state&#45;provider/_yarp_idl</text>
<text text-anchor="start" x="17" y="-131" font-family="Helvetica,sans-Serif" font-size="10.00">_/thrifts/humanstateproviderservice</text>
<text text-anchor="middle" x="99" y="-120" font-family="Helvetica,sans-Serif" font-size="10.00">/HumanStateProviderService_index.h</text>
</g>
<!-- Node2 -->
<g id="node2" class="node"><title>Node2</title>
<g id="a_node2"><a xlink:href="__yarp__idl___2thrifts_2humanstateproviderservice_2_human_state_provider_service_8h.html" target="_top" xlink:title="HumanStateProviderService.h">
<polygon fill="none" stroke="black" points="24.5,-56.5 24.5,-75.5 173.5,-75.5 173.5,-56.5 24.5,-56.5"/>
<text text-anchor="middle" x="99" y="-63.5" font-family="Helvetica,sans-Serif" font-size="10.00">HumanStateProviderService.h</text>
</a>
</g>
</g>
<!-- Node1&#45;&gt;Node2 -->
<g id="edge1" class="edge"><title>Node1&#45;&gt;Node2</title>
<path fill="none" stroke="midnightblue" d="M99,-112.795C99,-103.463 99,-93.7959 99,-85.7618"/>
<polygon fill="midnightblue" stroke="midnightblue" points="102.5,-85.6978 99,-75.6978 95.5001,-85.6978 102.5,-85.6978"/>
</g>
<!-- Node3 -->
<g id="node3" class="node"><title>Node3</title>
<polygon fill="none" stroke="#bfbfbf" points="0,-0.5 0,-19.5 80,-19.5 80,-0.5 0,-0.5"/>
<text text-anchor="middle" x="40" y="-7.5" font-family="Helvetica,sans-Serif" font-size="10.00">yarp/os/Wire.h</text>
</g>
<!-- Node2&#45;&gt;Node3 -->
<g id="edge2" class="edge"><title>Node2&#45;&gt;Node3</title>
<path fill="none" stroke="midnightblue" d="M89.5206,-56.324C80.7989,-48.3414 67.6565,-36.3128 57.1022,-26.6529"/>
<polygon fill="midnightblue" stroke="midnightblue" points="59.3917,-24.0036 49.6519,-19.8339 54.6655,-29.1674 59.3917,-24.0036"/>
</g>
<!-- Node4 -->
<g id="node4" class="node"><title>Node4</title>
<polygon fill="none" stroke="#bfbfbf" points="98,-0.5 98,-19.5 218,-19.5 218,-0.5 98,-0.5"/>
<text text-anchor="middle" x="158" y="-7.5" font-family="Helvetica,sans-Serif" font-size="10.00">yarp/os/idl/WireTypes.h</text>
</g>
<!-- Node2&#45;&gt;Node4 -->
<g id="edge3" class="edge"><title>Node2&#45;&gt;Node4</title>
<path fill="none" stroke="midnightblue" d="M108.479,-56.324C117.201,-48.3414 130.343,-36.3128 140.898,-26.6529"/>
<polygon fill="midnightblue" stroke="midnightblue" points="143.334,-29.1674 148.348,-19.8339 138.608,-24.0036 143.334,-29.1674"/>
</g>
</g>
</svg>
