<?xml version="1.0" encoding="UTF-8" standalone="no"?>
<!DOCTYPE svg PUBLIC "-//W3C//DTD SVG 1.1//EN"
 "http://www.w3.org/Graphics/SVG/1.1/DTD/svg11.dtd">
<!-- Generated by graphviz version 2.36.0 (20140111.2315)
 -->
<!-- Title: /home/travis/build/robotology/human&#45;dynamics&#45;estimation/human&#45;forces&#45;provider/include/HumanForcesProvider.h Pages: 1 -->
<svg width="773pt" height="286pt"
 viewBox="0.00 0.00 773.00 286.00" xmlns="http://www.w3.org/2000/svg" xmlns:xlink="http://www.w3.org/1999/xlink">
<g id="graph0" class="graph" transform="scale(1 1) rotate(0) translate(4 282)">
<title>/home/travis/build/robotology/human&#45;dynamics&#45;estimation/human&#45;forces&#45;provider/include/HumanForcesProvider.h</title>
<!-- Node1 -->
<g id="node1" class="node"><title>Node1</title>
<polygon fill="#bfbfbf" stroke="black" points="296.5,-225 296.5,-277 493.5,-277 493.5,-225 296.5,-225"/>
<text text-anchor="start" x="304.5" y="-265" font-family="Helvetica,sans-Serif" font-size="10.00">/home/travis/build</text>
<text text-anchor="start" x="304.5" y="-254" font-family="Helvetica,sans-Serif" font-size="10.00">/robotology/human&#45;dynamics</text>
<text text-anchor="start" x="304.5" y="-243" font-family="Helvetica,sans-Serif" font-size="10.00">&#45;estimation/human&#45;forces</text>
<text text-anchor="middle" x="395" y="-232" font-family="Helvetica,sans-Serif" font-size="10.00">&#45;provider/include/HumanForcesProvider.h</text>
</g>
<!-- Node2 -->
<g id="node2" class="node"><title>Node2</title>
<polygon fill="none" stroke="#bfbfbf" points="-0.5,-168.5 -0.5,-187.5 104.5,-187.5 104.5,-168.5 -0.5,-168.5"/>
<text text-anchor="middle" x="52" y="-175.5" font-family="Helvetica,sans-Serif" font-size="10.00">yarp/os/RFModule.h</text>
</g>
<!-- Node1&#45;&gt;Node2 -->
<g id="edge1" class="edge"><title>Node1&#45;&gt;Node2</title>
<path fill="none" stroke="midnightblue" d="M296.25,-229.559C233.299,-216.528 154.293,-200.174 103.479,-189.656"/>
<polygon fill="midnightblue" stroke="midnightblue" points="103.894,-186.168 93.3925,-187.568 102.475,-193.023 103.894,-186.168"/>
</g>
<!-- Node3 -->
<g id="node3" class="node"><title>Node3</title>
<polygon fill="none" stroke="#bfbfbf" points="122.5,-168.5 122.5,-187.5 237.5,-187.5 237.5,-168.5 122.5,-168.5"/>
<text text-anchor="middle" x="180" y="-175.5" font-family="Helvetica,sans-Serif" font-size="10.00">yarp/os/BufferedPort.h</text>
</g>
<!-- Node1&#45;&gt;Node3 -->
<g id="edge2" class="edge"><title>Node1&#45;&gt;Node3</title>
<path fill="none" stroke="midnightblue" d="M319.199,-224.968C283.989,-213.341 243.797,-200.068 215.683,-190.784"/>
<polygon fill="midnightblue" stroke="midnightblue" points="216.496,-187.366 205.903,-187.554 214.301,-194.013 216.496,-187.366"/>
</g>
<!-- Node4 -->
<g id="node4" class="node"><title>Node4</title>
<polygon fill="none" stroke="#bfbfbf" points="255.5,-168.5 255.5,-187.5 366.5,-187.5 366.5,-168.5 255.5,-168.5"/>
<text text-anchor="middle" x="311" y="-175.5" font-family="Helvetica,sans-Serif" font-size="10.00">yarp/dev/PolyDriver.h</text>
</g>
<!-- Node1&#45;&gt;Node4 -->
<g id="edge3" class="edge"><title>Node1&#45;&gt;Node4</title>
<path fill="none" stroke="midnightblue" d="M365.148,-224.768C353.092,-214.578 339.576,-203.153 329.062,-194.267"/>
<polygon fill="midnightblue" stroke="midnightblue" points="331.257,-191.539 321.361,-187.757 326.739,-196.886 331.257,-191.539"/>
</g>
<!-- Node5 -->
<g id="node5" class="node"><title>Node5</title>
<polygon fill="none" stroke="#bfbfbf" points="279.5,-112.5 279.5,-131.5 370.5,-131.5 370.5,-112.5 279.5,-112.5"/>
<text text-anchor="middle" x="325" y="-119.5" font-family="Helvetica,sans-Serif" font-size="10.00">yarp/sig/Vector.h</text>
</g>
<!-- Node1&#45;&gt;Node5 -->
<g id="edge4" class="edge"><title>Node1&#45;&gt;Node5</title>
<path fill="none" stroke="midnightblue" d="M392.781,-224.859C390.374,-207.831 385.373,-185.359 375,-168 367.886,-156.095 356.614,-145.552 346.571,-137.669"/>
<polygon fill="midnightblue" stroke="midnightblue" points="348.657,-134.858 338.543,-131.701 344.481,-140.476 348.657,-134.858"/>
</g>
<!-- Node6 -->
<g id="node6" class="node"><title>Node6</title>
<g id="a_node6"><a xlink:href="autogenerated_2include_2thrifts_2_human_forces_8h.html" target="_top" xlink:title="thrifts/HumanForces.h">
<polygon fill="none" stroke="black" points="589,-112.5 589,-131.5 703,-131.5 703,-112.5 589,-112.5"/>
<text text-anchor="middle" x="646" y="-119.5" font-family="Helvetica,sans-Serif" font-size="10.00">thrifts/HumanForces.h</text>
</a>
</g>
</g>
<!-- Node1&#45;&gt;Node6 -->
<g id="edge5" class="edge"><title>Node1&#45;&gt;Node6</title>
<path fill="none" stroke="midnightblue" d="M458.612,-224.859C483.988,-214.252 513.238,-201.289 539,-188 569.625,-172.203 603.355,-151.043 624.599,-137.221"/>
<polygon fill="midnightblue" stroke="midnightblue" points="626.716,-140.018 633.16,-131.608 622.878,-134.164 626.716,-140.018"/>
</g>
<!-- Node10 -->
<g id="node10" class="node"><title>Node10</title>
<g id="a_node10"><a xlink:href="autogenerated_2include_2thrifts_2_human_state_8h.html" target="_top" xlink:title="thrifts/HumanState.h">
<polygon fill="none" stroke="black" points="423.5,-168.5 423.5,-187.5 530.5,-187.5 530.5,-168.5 423.5,-168.5"/>
<text text-anchor="middle" x="477" y="-175.5" font-family="Helvetica,sans-Serif" font-size="10.00">thrifts/HumanState.h</text>
</a>
</g>
</g>
<!-- Node1&#45;&gt;Node10 -->
<g id="edge11" class="edge"><title>Node1&#45;&gt;Node10</title>
<path fill="none" stroke="midnightblue" d="M424.141,-224.768C435.793,-214.679 448.844,-203.379 459.062,-194.532"/>
<polygon fill="midnightblue" stroke="midnightblue" points="461.617,-196.949 466.886,-187.757 457.035,-191.657 461.617,-196.949"/>
</g>
<!-- Node13 -->
<g id="node13" class="node"><title>Node13</title>
<polygon fill="none" stroke="#bfbfbf" points="587,-168.5 587,-187.5 757,-187.5 757,-168.5 587,-168.5"/>
<text text-anchor="middle" x="672" y="-175.5" font-family="Helvetica,sans-Serif" font-size="10.00">geometry_msgs/WrenchStamped.h</text>
</g>
<!-- Node1&#45;&gt;Node13 -->
<g id="edge22" class="edge"><title>Node1&#45;&gt;Node13</title>
<path fill="none" stroke="midnightblue" d="M492.66,-224.968C539.217,-213.035 592.535,-199.368 628.854,-190.059"/>
<polygon fill="midnightblue" stroke="midnightblue" points="629.809,-193.427 638.627,-187.554 628.071,-186.647 629.809,-193.427"/>
</g>
<!-- Node7 -->
<g id="node7" class="node"><title>Node7</title>
<polygon fill="none" stroke="#bfbfbf" points="685,-0.5 685,-19.5 765,-19.5 765,-0.5 685,-0.5"/>
<text text-anchor="middle" x="725" y="-7.5" font-family="Helvetica,sans-Serif" font-size="10.00">yarp/os/Wire.h</text>
</g>
<!-- Node6&#45;&gt;Node7 -->
<g id="edge6" class="edge"><title>Node6&#45;&gt;Node7</title>
<path fill="none" stroke="midnightblue" d="M685.255,-112.475C704.996,-105.99 727.184,-94.8434 739,-76 747.981,-61.6771 742.104,-42.4688 735.43,-28.6525"/>
<polygon fill="midnightblue" stroke="midnightblue" points="738.438,-26.8544 730.631,-19.6919 732.267,-30.1596 738.438,-26.8544"/>
</g>
<!-- Node8 -->
<g id="node8" class="node"><title>Node8</title>
<polygon fill="none" stroke="#bfbfbf" points="448,-0.5 448,-19.5 568,-19.5 568,-0.5 448,-0.5"/>
<text text-anchor="middle" x="508" y="-7.5" font-family="Helvetica,sans-Serif" font-size="10.00">yarp/os/idl/WireTypes.h</text>
</g>
<!-- Node6&#45;&gt;Node8 -->
<g id="edge7" class="edge"><title>Node6&#45;&gt;Node8</title>
<path fill="none" stroke="midnightblue" d="M635.171,-112.368C611.692,-93.6531 555.862,-49.1509 526.608,-25.8324"/>
<polygon fill="midnightblue" stroke="midnightblue" points="528.78,-23.0877 518.778,-19.5914 524.416,-28.5615 528.78,-23.0877"/>
</g>
<!-- Node9 -->
<g id="node9" class="node"><title>Node9</title>
<g id="a_node9"><a xlink:href="autogenerated_2include_2thrifts_2_force6_d_8h.html" target="_top" xlink:title="thrifts/Force6D.h">
<polygon fill="none" stroke="black" points="607,-56.5 607,-75.5 697,-75.5 697,-56.5 607,-56.5"/>
<text text-anchor="middle" x="652" y="-63.5" font-family="Helvetica,sans-Serif" font-size="10.00">thrifts/Force6D.h</text>
</a>
</g>
</g>
<!-- Node6&#45;&gt;Node9 -->
<g id="edge8" class="edge"><title>Node6&#45;&gt;Node9</title>
<path fill="none" stroke="midnightblue" d="M646.991,-112.083C647.786,-104.927 648.929,-94.6353 649.923,-85.6911"/>
<polygon fill="midnightblue" stroke="midnightblue" points="653.402,-86.0765 651.028,-75.7511 646.445,-85.3034 653.402,-86.0765"/>
</g>
<!-- Node9&#45;&gt;Node7 -->
<g id="edge9" class="edge"><title>Node9&#45;&gt;Node7</title>
<path fill="none" stroke="midnightblue" d="M663.729,-56.324C674.837,-48.1066 691.742,-35.6017 704.983,-25.8069"/>
<polygon fill="midnightblue" stroke="midnightblue" points="707.1,-28.5948 713.058,-19.8339 702.937,-22.9671 707.1,-28.5948"/>
</g>
<!-- Node9&#45;&gt;Node8 -->
<g id="edge10" class="edge"><title>Node9&#45;&gt;Node8</title>
<path fill="none" stroke="midnightblue" d="M629.183,-56.4435C605.168,-47.4381 567.171,-33.1891 540.131,-23.049"/>
<polygon fill="midnightblue" stroke="midnightblue" points="541.303,-19.7506 530.71,-19.5164 538.845,-26.3049 541.303,-19.7506"/>
</g>
<!-- Node10&#45;&gt;Node5 -->
<g id="edge21" class="edge"><title>Node10&#45;&gt;Node5</title>
<path fill="none" stroke="midnightblue" d="M452.915,-168.444C427.455,-159.399 387.106,-145.064 358.541,-134.916"/>
<polygon fill="midnightblue" stroke="midnightblue" points="359.567,-131.566 348.972,-131.516 357.223,-138.162 359.567,-131.566"/>
</g>
<!-- Node10&#45;&gt;Node7 -->
<g id="edge12" class="edge"><title>Node10&#45;&gt;Node7</title>
<path fill="none" stroke="midnightblue" d="M530.686,-171.196C590.375,-163.972 682.3,-150.315 712,-132 738.71,-115.529 744.908,-105.713 755,-76 760.781,-58.9799 750.455,-40.4452 740.377,-27.5394"/>
<polygon fill="midnightblue" stroke="midnightblue" points="742.775,-24.9566 733.639,-19.5916 737.436,-29.4829 742.775,-24.9566"/>
</g>
<!-- Node10&#45;&gt;Node8 -->
<g id="edge13" class="edge"><title>Node10&#45;&gt;Node8</title>
<path fill="none" stroke="midnightblue" d="M458.016,-168.398C444.114,-160.954 426.286,-148.741 418,-132 414.057,-124.034 415.777,-120.606 418,-112 425.115,-84.4562 430.405,-77.5293 449,-56 459.334,-44.0357 473.318,-33.2013 485.078,-25.1628"/>
<polygon fill="midnightblue" stroke="midnightblue" points="487.115,-28.0122 493.541,-19.5883 483.264,-22.1666 487.115,-28.0122"/>
</g>
<!-- Node11 -->
<g id="node11" class="node"><title>Node11</title>
<g id="a_node11"><a xlink:href="human-state-provider_2autogenerated_2include_2thrifts_2_quaternion_8h.html" target="_top" xlink:title="thrifts/Quaternion.h">
<polygon fill="none" stroke="black" points="427,-112.5 427,-131.5 527,-131.5 527,-112.5 427,-112.5"/>
<text text-anchor="middle" x="477" y="-119.5" font-family="Helvetica,sans-Serif" font-size="10.00">thrifts/Quaternion.h</text>
</a>
</g>
</g>
<!-- Node10&#45;&gt;Node11 -->
<g id="edge14" class="edge"><title>Node10&#45;&gt;Node11</title>
<path fill="none" stroke="midnightblue" d="M477,-168.083C477,-161.006 477,-150.861 477,-141.986"/>
<polygon fill="midnightblue" stroke="midnightblue" points="480.5,-141.751 477,-131.751 473.5,-141.751 480.5,-141.751"/>
</g>
<!-- Node12 -->
<g id="node12" class="node"><title>Node12</title>
<g id="a_node12"><a xlink:href="human-state-provider_2autogenerated_2include_2thrifts_2_vector3_8h.html" target="_top" xlink:title="thrifts/Vector3.h">
<polygon fill="none" stroke="black" points="465,-56.5 465,-75.5 551,-75.5 551,-56.5 465,-56.5"/>
<text text-anchor="middle" x="508" y="-63.5" font-family="Helvetica,sans-Serif" font-size="10.00">thrifts/Vector3.h</text>
</a>
</g>
</g>
<!-- Node10&#45;&gt;Node12 -->
<g id="edge20" class="edge"><title>Node10&#45;&gt;Node12</title>
<path fill="none" stroke="midnightblue" d="M495.984,-168.398C509.886,-160.954 527.714,-148.741 536,-132 544.048,-115.74 533.497,-96.6128 523.125,-83.3354"/>
<polygon fill="midnightblue" stroke="midnightblue" points="525.663,-80.9169 516.532,-75.5438 520.32,-85.4385 525.663,-80.9169"/>
</g>
<!-- Node11&#45;&gt;Node7 -->
<g id="edge15" class="edge"><title>Node11&#45;&gt;Node7</title>
<path fill="none" stroke="midnightblue" d="M527.254,-117.163C586.566,-111.629 680.386,-99.3987 706,-76 718.866,-64.247 723.203,-44.3144 724.574,-29.6136"/>
<polygon fill="midnightblue" stroke="midnightblue" points="728.069,-29.7946 725.137,-19.6138 721.08,-29.4013 728.069,-29.7946"/>
</g>
<!-- Node11&#45;&gt;Node8 -->
<g id="edge16" class="edge"><title>Node11&#45;&gt;Node8</title>
<path fill="none" stroke="midnightblue" d="M470.2,-112.348C461.113,-99.6623 447.126,-75.4144 456,-56 461.777,-43.3602 473.052,-32.911 483.631,-25.2737"/>
<polygon fill="midnightblue" stroke="midnightblue" points="485.849,-28.0009 492.217,-19.5333 481.958,-22.1817 485.849,-28.0009"/>
</g>
<!-- Node11&#45;&gt;Node12 -->
<g id="edge17" class="edge"><title>Node11&#45;&gt;Node12</title>
<path fill="none" stroke="midnightblue" d="M482.119,-112.083C486.408,-104.613 492.658,-93.7244 497.942,-84.5199"/>
<polygon fill="midnightblue" stroke="midnightblue" points="501.033,-86.1662 502.976,-75.7511 494.962,-82.6811 501.033,-86.1662"/>
</g>
<!-- Node12&#45;&gt;Node7 -->
<g id="edge18" class="edge"><title>Node12&#45;&gt;Node7</title>
<path fill="none" stroke="midnightblue" d="M542.384,-56.4435C579.922,-47.1024 640.131,-32.1194 681.067,-21.9326"/>
<polygon fill="midnightblue" stroke="midnightblue" points="681.918,-25.3278 690.777,-19.5164 680.227,-18.5349 681.918,-25.3278"/>
</g>
<!-- Node12&#45;&gt;Node8 -->
<g id="edge19" class="edge"><title>Node12&#45;&gt;Node8</title>
<path fill="none" stroke="midnightblue" d="M508,-56.083C508,-49.0059 508,-38.8611 508,-29.9865"/>
<polygon fill="midnightblue" stroke="midnightblue" points="511.5,-29.751 508,-19.7511 504.5,-29.7511 511.5,-29.751"/>
</g>
</g>
</svg>
