<?xml version="1.0" encoding="UTF-8" standalone="no"?>
<!DOCTYPE svg PUBLIC "-//W3C//DTD SVG 1.1//EN"
 "http://www.w3.org/Graphics/SVG/1.1/DTD/svg11.dtd">
<!-- Generated by graphviz version 2.36.0 (20140111.2315)
 -->
<!-- Title: /home/travis/build/robotology/human&#45;dynamics&#45;estimation/human&#45;dynamics&#45;estimator/include/HumanDynamicsEstimator.h Pages: 1 -->
<!--zoomable 130 -->
<svg id="main" version="1.1" xmlns="http://www.w3.org/2000/svg" xmlns:xlink="http://www.w3.org/1999/xlink" xml:space="preserve" onload="init(evt)">
<style type="text/css"><![CDATA[
.edge:hover path { stroke: red; }
.edge:hover polygon { stroke: red; fill: red; }
]]></style>
<script type="text/javascript"><![CDATA[
var edges = document.getElementsByTagName('g');
if (edges && edges.length) {
  for (var i=0;i<edges.length;i++) {
    if (edges[i].id.substr(0,4)=='edge') {
      edges[i].setAttribute('class','edge');
    }
  }
}
]]></script>
        <defs>
                <circle id="rim" cx="0" cy="0" r="7"/>
                <circle id="rim2" cx="0" cy="0" r="3.5"/>
                <g id="zoomPlus">
                        <use xlink:href="#rim" fill="#404040">
                                <set attributeName="fill" to="#808080" begin="zoomplus.mouseover" end="zoomplus.mouseout"/>
                        </use>
                        <path d="M-4,0h8M0,-4v8" fill="none" stroke="white" stroke-width="1.5" pointer-events="none"/>
                </g>
                <g id="zoomMin">
                        <use xlink:href="#rim" fill="#404040">
                                <set attributeName="fill" to="#808080" begin="zoomminus.mouseover" end="zoomminus.mouseout"/>
                        </use>
                        <path d="M-4,0h8" fill="none" stroke="white" stroke-width="1.5" pointer-events="none"/>
                </g>
                <g id="dirArrow">
                        <path fill="none" stroke="white" stroke-width="1.5" d="M0,-3.0v7 M-2.5,-0.5L0,-3.0L2.5,-0.5"/>
                </g>
               <g id="resetDef">
                       <use xlink:href="#rim2" fill="#404040">
                               <set attributeName="fill" to="#808080" begin="reset.mouseover" end="reset.mouseout"/>
                       </use>
               </g>
        </defs>

<script type="text/javascript">
var viewWidth = 2118;
var viewHeight = 130;
var sectionId = 'dynsection-0';
</script>
<script xlink:href="svgpan.js"/>
<svg id="graph" class="graph">
<g id="viewport">
<title>/home/travis/build/robotology/human&#45;dynamics&#45;estimation/human&#45;dynamics&#45;estimator/include/HumanDynamicsEstimator.h</title>
<!-- Node1 -->
<g id="node1" class="node"><title>Node1</title>
<polygon fill="#bfbfbf" stroke="black" points="1135.5,-69 1135.5,-121 1358.5,-121 1358.5,-69 1135.5,-69"/>
<text text-anchor="start" x="1143.5" y="-109" font-family="Helvetica,sans-Serif" font-size="10.00">/home/travis/build</text>
<text text-anchor="start" x="1143.5" y="-98" font-family="Helvetica,sans-Serif" font-size="10.00">/robotology/human&#45;dynamics</text>
<text text-anchor="start" x="1143.5" y="-87" font-family="Helvetica,sans-Serif" font-size="10.00">&#45;estimation/human&#45;dynamics</text>
<text text-anchor="middle" x="1247" y="-76" font-family="Helvetica,sans-Serif" font-size="10.00">&#45;estimator/include/HumanDynamicsEstimator.h</text>
</g>
<!-- Node2 -->
<g id="node2" class="node"><title>Node2</title>
<polygon fill="none" stroke="#bfbfbf" points="0,-6.5 0,-25.5 128,-25.5 128,-6.5 0,-6.5"/>
<text text-anchor="middle" x="64" y="-13.5" font-family="Helvetica,sans-Serif" font-size="10.00">thrifts/HumanDynamics.h</text>
</g>
<!-- Node1&#45;&gt;Node2 -->
<g id="edge1" class="edge"><title>Node1&#45;&gt;Node2</title>
<path fill="none" stroke="midnightblue" d="M1135.43,-93.1748C934.801,-90.4901 500.18,-79.1962 137,-32 128.237,-30.8612 118.954,-29.2625 110.052,-27.5302"/>
<polygon fill="midnightblue" stroke="midnightblue" points="110.708,-24.092 100.212,-25.5351 109.317,-30.9524 110.708,-24.092"/>
</g>
<!-- Node3 -->
<g id="node3" class="node"><title>Node3</title>
<polygon fill="none" stroke="#bfbfbf" points="146.5,-6.5 146.5,-25.5 253.5,-25.5 253.5,-6.5 146.5,-6.5"/>
<text text-anchor="middle" x="200" y="-13.5" font-family="Helvetica,sans-Serif" font-size="10.00">thrifts/HumanState.h</text>
</g>
<!-- Node1&#45;&gt;Node3 -->
<g id="edge2" class="edge"><title>Node1&#45;&gt;Node3</title>
<path fill="none" stroke="midnightblue" d="M1135.3,-93.1548C952.118,-90.3847 576.826,-78.8955 263,-32 255.977,-30.9506 248.585,-29.506 241.433,-27.9251"/>
<polygon fill="midnightblue" stroke="midnightblue" points="241.732,-24.401 231.198,-25.5415 240.144,-31.2185 241.732,-24.401"/>
</g>
<!-- Node4 -->
<g id="node4" class="node"><title>Node4</title>
<polygon fill="none" stroke="#bfbfbf" points="272,-6.5 272,-25.5 386,-25.5 386,-6.5 272,-6.5"/>
<text text-anchor="middle" x="329" y="-13.5" font-family="Helvetica,sans-Serif" font-size="10.00">thrifts/HumanForces.h</text>
</g>
<!-- Node1&#45;&gt;Node4 -->
<g id="edge3" class="edge"><title>Node1&#45;&gt;Node4</title>
<path fill="none" stroke="midnightblue" d="M1135.44,-91.242C972.114,-85.9934 658.667,-71.3261 395,-32 387.485,-30.8791 379.555,-29.3674 371.9,-27.7339"/>
<polygon fill="midnightblue" stroke="midnightblue" points="372.574,-24.2984 362.052,-25.5388 371.051,-31.1307 372.574,-24.2984"/>
</g>
<!-- Node5 -->
<g id="node5" class="node"><title>Node5</title>
<polygon fill="none" stroke="#bfbfbf" points="404.5,-6.5 404.5,-25.5 553.5,-25.5 553.5,-6.5 404.5,-6.5"/>
<text text-anchor="middle" x="479" y="-13.5" font-family="Helvetica,sans-Serif" font-size="10.00">iDynTree/Core/SparseMatrix.h</text>
</g>
<!-- Node1&#45;&gt;Node5 -->
<g id="edge4" class="edge"><title>Node1&#45;&gt;Node5</title>
<path fill="none" stroke="midnightblue" d="M1135.43,-86.9486C999.574,-77.6607 763.31,-59.2467 562,-32 552.307,-30.6881 542.022,-29.0396 532.113,-27.3195"/>
<polygon fill="midnightblue" stroke="midnightblue" points="532.423,-23.8196 521.964,-25.5121 531.195,-30.7112 532.423,-23.8196"/>
</g>
<!-- Node6 -->
<g id="node6" class="node"><title>Node6</title>
<polygon fill="none" stroke="#bfbfbf" points="571,-1 571,-31 677,-31 677,-1 571,-1"/>
<text text-anchor="start" x="579" y="-19" font-family="Helvetica,sans-Serif" font-size="10.00">iDynTree/Estimation</text>
<text text-anchor="middle" x="624" y="-8" font-family="Helvetica,sans-Serif" font-size="10.00">/BerdyHelper.h</text>
</g>
<!-- Node1&#45;&gt;Node6 -->
<g id="edge5" class="edge"><title>Node1&#45;&gt;Node6</title>
<path fill="none" stroke="midnightblue" d="M1135.44,-85.8806C1024.13,-76.8151 848.18,-59.876 687.104,-32.0557"/>
<polygon fill="midnightblue" stroke="midnightblue" points="687.459,-28.565 677.007,-30.2939 686.256,-35.4608 687.459,-28.565"/>
</g>
<!-- Node7 -->
<g id="node7" class="node"><title>Node7</title>
<polygon fill="none" stroke="#bfbfbf" points="695.5,-6.5 695.5,-25.5 856.5,-25.5 856.5,-6.5 695.5,-6.5"/>
<text text-anchor="middle" x="776" y="-13.5" font-family="Helvetica,sans-Serif" font-size="10.00">iDynTree/KinDynComputations.h</text>
</g>
<!-- Node1&#45;&gt;Node7 -->
<g id="edge6" class="edge"><title>Node1&#45;&gt;Node7</title>
<path fill="none" stroke="midnightblue" d="M1135.4,-76.0693C1059.21,-63.7832 955.978,-47.0496 865,-32 855.706,-30.4626 845.87,-28.8201 836.257,-27.2066"/>
<polygon fill="midnightblue" stroke="midnightblue" points="836.796,-23.7481 826.354,-25.5413 835.635,-30.6512 836.796,-23.7481"/>
</g>
<!-- Node8 -->
<g id="node8" class="node"><title>Node8</title>
<polygon fill="none" stroke="#bfbfbf" points="874.5,-6.5 874.5,-25.5 985.5,-25.5 985.5,-6.5 874.5,-6.5"/>
<text text-anchor="middle" x="930" y="-13.5" font-family="Helvetica,sans-Serif" font-size="10.00">yarp/dev/PolyDriver.h</text>
</g>
<!-- Node1&#45;&gt;Node8 -->
<g id="edge7" class="edge"><title>Node1&#45;&gt;Node8</title>
<path fill="none" stroke="midnightblue" d="M1143.64,-68.8939C1086.65,-55.0506 1018.79,-38.5682 975.09,-27.9525"/>
<polygon fill="midnightblue" stroke="midnightblue" points="975.877,-24.542 965.334,-25.5826 974.225,-31.3442 975.877,-24.542"/>
</g>
<!-- Node9 -->
<g id="node9" class="node"><title>Node9</title>
<polygon fill="none" stroke="#bfbfbf" points="1003.5,-6.5 1003.5,-25.5 1118.5,-25.5 1118.5,-6.5 1003.5,-6.5"/>
<text text-anchor="middle" x="1061" y="-13.5" font-family="Helvetica,sans-Serif" font-size="10.00">yarp/os/BufferedPort.h</text>
</g>
<!-- Node1&#45;&gt;Node9 -->
<g id="edge8" class="edge"><title>Node1&#45;&gt;Node9</title>
<path fill="none" stroke="midnightblue" d="M1186.35,-68.8939C1154.53,-55.7209 1116.94,-40.1582 1091.28,-29.5349"/>
<polygon fill="midnightblue" stroke="midnightblue" points="1092.31,-26.1738 1081.73,-25.5826 1089.63,-32.6415 1092.31,-26.1738"/>
</g>
<!-- Node10 -->
<g id="node10" class="node"><title>Node10</title>
<polygon fill="none" stroke="#bfbfbf" points="1136.5,-6.5 1136.5,-25.5 1241.5,-25.5 1241.5,-6.5 1136.5,-6.5"/>
<text text-anchor="middle" x="1189" y="-13.5" font-family="Helvetica,sans-Serif" font-size="10.00">yarp/os/RFModule.h</text>
</g>
<!-- Node1&#45;&gt;Node10 -->
<g id="edge9" class="edge"><title>Node1&#45;&gt;Node10</title>
<path fill="none" stroke="midnightblue" d="M1228.01,-68.7873C1219.32,-57.2534 1209.27,-43.9061 1201.54,-33.6508"/>
<polygon fill="midnightblue" stroke="midnightblue" points="1204.26,-31.4394 1195.45,-25.5577 1198.67,-35.6511 1204.26,-31.4394"/>
</g>
<!-- Node11 -->
<g id="node11" class="node"><title>Node11</title>
<polygon fill="none" stroke="#bfbfbf" points="1259.5,-6.5 1259.5,-25.5 1350.5,-25.5 1350.5,-6.5 1259.5,-6.5"/>
<text text-anchor="middle" x="1305" y="-13.5" font-family="Helvetica,sans-Serif" font-size="10.00">yarp/sig/Vector.h</text>
</g>
<!-- Node1&#45;&gt;Node11 -->
<g id="edge10" class="edge"><title>Node1&#45;&gt;Node11</title>
<path fill="none" stroke="midnightblue" d="M1265.99,-68.7873C1274.68,-57.2534 1284.73,-43.9061 1292.46,-33.6508"/>
<polygon fill="midnightblue" stroke="midnightblue" points="1295.33,-35.6511 1298.55,-25.5577 1289.74,-31.4394 1295.33,-35.6511"/>
</g>
<!-- Node12 -->
<g id="node12" class="node"><title>Node12</title>
<polygon fill="none" stroke="#bfbfbf" points="1368.5,-6.5 1368.5,-25.5 1433.5,-25.5 1433.5,-6.5 1368.5,-6.5"/>
<text text-anchor="middle" x="1401" y="-13.5" font-family="Helvetica,sans-Serif" font-size="10.00">Eigen/Core</text>
</g>
<!-- Node1&#45;&gt;Node12 -->
<g id="edge11" class="edge"><title>Node1&#45;&gt;Node12</title>
<path fill="none" stroke="midnightblue" d="M1297.43,-68.7873C1323.29,-55.8554 1353.71,-40.6438 1374.87,-30.0666"/>
<polygon fill="midnightblue" stroke="midnightblue" points="1376.51,-33.1604 1383.88,-25.5577 1373.38,-26.8994 1376.51,-33.1604"/>
</g>
<!-- Node13 -->
<g id="node13" class="node"><title>Node13</title>
<polygon fill="none" stroke="#bfbfbf" points="1451.5,-6.5 1451.5,-25.5 1524.5,-25.5 1524.5,-6.5 1451.5,-6.5"/>
<text text-anchor="middle" x="1488" y="-13.5" font-family="Helvetica,sans-Serif" font-size="10.00">Eigen/Dense</text>
</g>
<!-- Node1&#45;&gt;Node13 -->
<g id="edge12" class="edge"><title>Node1&#45;&gt;Node13</title>
<path fill="none" stroke="midnightblue" d="M1326.26,-68.9437C1361.69,-57.7065 1403.96,-44.2497 1442,-32 1445.3,-30.9379 1448.73,-29.8287 1452.16,-28.715"/>
<polygon fill="midnightblue" stroke="midnightblue" points="1453.31,-32.0213 1461.74,-25.6003 1451.15,-25.3644 1453.31,-32.0213"/>
</g>
<!-- Node14 -->
<g id="node14" class="node"><title>Node14</title>
<polygon fill="none" stroke="#bfbfbf" points="1543,-6.5 1543,-25.5 1639,-25.5 1639,-6.5 1543,-6.5"/>
<text text-anchor="middle" x="1591" y="-13.5" font-family="Helvetica,sans-Serif" font-size="10.00">Eigen/SparseCore</text>
</g>
<!-- Node1&#45;&gt;Node14 -->
<g id="edge13" class="edge"><title>Node1&#45;&gt;Node14</title>
<path fill="none" stroke="midnightblue" d="M1358.61,-70.877C1411.56,-59.6311 1475.66,-45.6239 1533,-32 1538.12,-30.7839 1543.48,-29.4629 1548.78,-28.1258"/>
<polygon fill="midnightblue" stroke="midnightblue" points="1550.02,-31.4225 1558.84,-25.5581 1548.29,-24.64 1550.02,-31.4225"/>
</g>
<!-- Node15 -->
<g id="node15" class="node"><title>Node15</title>
<polygon fill="none" stroke="#bfbfbf" points="1657,-6.5 1657,-25.5 1773,-25.5 1773,-6.5 1657,-6.5"/>
<text text-anchor="middle" x="1715" y="-13.5" font-family="Helvetica,sans-Serif" font-size="10.00">Eigen/SparseCholesky</text>
</g>
<!-- Node1&#45;&gt;Node15 -->
<g id="edge14" class="edge"><title>Node1&#45;&gt;Node15</title>
<path fill="none" stroke="midnightblue" d="M1358.83,-78.7529C1439.46,-67.2635 1550.75,-50.3836 1648,-32 1654.77,-30.7207 1661.89,-29.2548 1668.87,-27.7516"/>
<polygon fill="midnightblue" stroke="midnightblue" points="1669.91,-31.106 1678.93,-25.54 1668.41,-24.2693 1669.91,-31.106"/>
</g>
<!-- Node16 -->
<g id="node16" class="node"><title>Node16</title>
<polygon fill="none" stroke="#bfbfbf" points="1791,-6.5 1791,-25.5 1879,-25.5 1879,-6.5 1791,-6.5"/>
<text text-anchor="middle" x="1835" y="-13.5" font-family="Helvetica,sans-Serif" font-size="10.00">Eigen/SparseLU</text>
</g>
<!-- Node1&#45;&gt;Node16 -->
<g id="edge15" class="edge"><title>Node1&#45;&gt;Node16</title>
<path fill="none" stroke="midnightblue" d="M1358.74,-86.1085C1467.33,-77.2479 1636.51,-60.2779 1781,-32 1786.43,-30.9371 1792.11,-29.6061 1797.67,-28.1786"/>
<polygon fill="midnightblue" stroke="midnightblue" points="1798.7,-31.5246 1807.45,-25.542 1796.88,-24.766 1798.7,-31.5246"/>
</g>
<!-- Node17 -->
<g id="node17" class="node"><title>Node17</title>
<polygon fill="none" stroke="#bfbfbf" points="1897.5,-6.5 1897.5,-25.5 1956.5,-25.5 1956.5,-6.5 1897.5,-6.5"/>
<text text-anchor="middle" x="1927" y="-13.5" font-family="Helvetica,sans-Serif" font-size="10.00">functional</text>
</g>
<!-- Node1&#45;&gt;Node17 -->
<g id="edge16" class="edge"><title>Node1&#45;&gt;Node17</title>
<path fill="none" stroke="midnightblue" d="M1358.56,-92.0159C1487.39,-87.7023 1704.98,-74.1724 1887,-32 1890.5,-31.1886 1894.11,-30.1468 1897.66,-28.9909"/>
<polygon fill="midnightblue" stroke="midnightblue" points="1899.13,-32.1823 1907.38,-25.5276 1896.78,-25.5887 1899.13,-32.1823"/>
</g>
<!-- Node18 -->
<g id="node18" class="node"><title>Node18</title>
<polygon fill="none" stroke="#bfbfbf" points="1974.5,-6.5 1974.5,-25.5 2057.5,-25.5 2057.5,-6.5 1974.5,-6.5"/>
<text text-anchor="middle" x="2016" y="-13.5" font-family="Helvetica,sans-Serif" font-size="10.00">unordered_map</text>
</g>
<!-- Node1&#45;&gt;Node18 -->
<g id="edge17" class="edge"><title>Node1&#45;&gt;Node18</title>
<path fill="none" stroke="midnightblue" d="M1358.63,-91.2598C1500.63,-86.2005 1752.9,-71.9326 1965,-32 1970.14,-31.0323 1975.5,-29.7579 1980.74,-28.3601"/>
<polygon fill="midnightblue" stroke="midnightblue" points="1981.9,-31.6694 1990.56,-25.568 1979.98,-24.9362 1981.9,-31.6694"/>
</g>
<!-- Node19 -->
<g id="node19" class="node"><title>Node19</title>
<polygon fill="none" stroke="#bfbfbf" points="2075.5,-6.5 2075.5,-25.5 2110.5,-25.5 2110.5,-6.5 2075.5,-6.5"/>
<text text-anchor="middle" x="2093" y="-13.5" font-family="Helvetica,sans-Serif" font-size="10.00">map</text>
</g>
<!-- Node1&#45;&gt;Node19 -->
<g id="edge18" class="edge"><title>Node1&#45;&gt;Node19</title>
<path fill="none" stroke="midnightblue" d="M1358.65,-91.4571C1551.02,-86.0934 1936.76,-70.7552 2066,-32 2067.69,-31.4917 2069.4,-30.8653 2071.09,-30.1595"/>
<polygon fill="midnightblue" stroke="midnightblue" points="2072.96,-33.1379 2080.32,-25.5212 2069.81,-26.8829 2072.96,-33.1379"/>
</g>
</g>
</svg>
        <g id="navigator" transform="translate(0 0)" fill="#404254">
                <rect fill="#f2f5e9" fill-opacity="0.5" stroke="#606060" stroke-width=".5" x="0" y="0" width="60" height="60"/>
                <use id="zoomplus" xlink:href="#zoomPlus" x="17" y="9" onmousedown="handleZoom(evt,'in')"/>
                <use id="zoomminus" xlink:href="#zoomMin" x="42" y="9" onmousedown="handleZoom(evt,'out')"/>
                <use id="reset" xlink:href="#resetDef" x="30" y="36" onmousedown="handleReset()"/>
                <g id="arrowUp" xlink:href="#dirArrow" transform="translate(30 24)" onmousedown="handlePan(0,-1)">
                  <use xlink:href="#rim" fill="#404040">
                        <set attributeName="fill" to="#808080" begin="arrowUp.mouseover" end="arrowUp.mouseout"/>
                  </use>
                  <path fill="none" stroke="white" stroke-width="1.5" d="M0,-3.0v7 M-2.5,-0.5L0,-3.0L2.5,-0.5"/>
                </g>
                <g id="arrowRight" xlink:href="#dirArrow" transform="rotate(90) translate(36 -43)" onmousedown="handlePan(1,0)">
                  <use xlink:href="#rim" fill="#404040">
                        <set attributeName="fill" to="#808080" begin="arrowRight.mouseover" end="arrowRight.mouseout"/>
                  </use>
                  <path fill="none" stroke="white" stroke-width="1.5" d="M0,-3.0v7 M-2.5,-0.5L0,-3.0L2.5,-0.5"/>
                </g>
                <g id="arrowDown" xlink:href="#dirArrow" transform="rotate(180) translate(-30 -48)" onmousedown="handlePan(0,1)">
                  <use xlink:href="#rim" fill="#404040">
                        <set attributeName="fill" to="#808080" begin="arrowDown.mouseover" end="arrowDown.mouseout"/>
                  </use>
                  <path fill="none" stroke="white" stroke-width="1.5" d="M0,-3.0v7 M-2.5,-0.5L0,-3.0L2.5,-0.5"/>
                </g>
                <g id="arrowLeft" xlink:href="#dirArrow" transform="rotate(270) translate(-36 17)" onmousedown="handlePan(-1,0)">
                  <use xlink:href="#rim" fill="#404040">
                        <set attributeName="fill" to="#808080" begin="arrowLeft.mouseover" end="arrowLeft.mouseout"/>
                  </use>
                  <path fill="none" stroke="white" stroke-width="1.5" d="M0,-3.0v7 M-2.5,-0.5L0,-3.0L2.5,-0.5"/>
                </g>
        </g>
        <svg viewBox="0 0 15 15" width="100%" height="30px" preserveAspectRatio="xMaxYMin meet">
         <g id="arrow_out" transform="scale(0.3 0.3)">
          <a xlink:href="_human_dynamics_estimator_8h__incl_org.svg" target="_base">
           <rect id="button" ry="5" rx="5" y="6" x="6" height="38" width="38"
                fill="#f2f5e9" fill-opacity="0.5" stroke="#606060" stroke-width="1.0"/>
           <path id="arrow"
             d="M 11.500037,31.436501 C 11.940474,20.09759 22.043105,11.32322 32.158766,21.979434 L 37.068811,17.246167 C 37.068811,17.246167 37.088388,32 37.088388,32 L 22.160133,31.978069 C 22.160133,31.978069 26.997745,27.140456 26.997745,27.140456 C 18.528582,18.264221 13.291696,25.230495 11.500037,31.436501 z"
             style="fill:#404040;"/>
          </a>
         </g>
        </svg>
</svg>
