<?xml version="1.0" encoding="UTF-8" standalone="no"?>
<!DOCTYPE svg PUBLIC "-//W3C//DTD SVG 1.1//EN"
 "http://www.w3.org/Graphics/SVG/1.1/DTD/svg11.dtd">
<!-- Generated by graphviz version 2.36.0 (20140111.2315)
 -->
<!-- Title: /home/travis/build/robotology/human&#45;dynamics&#45;estimation/human&#45;forces&#45;provider/include/HumanForcesProvider.h Pages: 1 -->
<svg width="890pt" height="130pt"
 viewBox="0.00 0.00 890.00 130.00" xmlns="http://www.w3.org/2000/svg" xmlns:xlink="http://www.w3.org/1999/xlink">
<g id="graph0" class="graph" transform="scale(1 1) rotate(0) translate(4 126)">
<title>/home/travis/build/robotology/human&#45;dynamics&#45;estimation/human&#45;forces&#45;provider/include/HumanForcesProvider.h</title>
<!-- Node1 -->
<g id="node1" class="node"><title>Node1</title>
<polygon fill="#bfbfbf" stroke="black" points="331.5,-69 331.5,-121 528.5,-121 528.5,-69 331.5,-69"/>
<text text-anchor="start" x="339.5" y="-109" font-family="Helvetica,sans-Serif" font-size="10.00">/home/travis/build</text>
<text text-anchor="start" x="339.5" y="-98" font-family="Helvetica,sans-Serif" font-size="10.00">/robotology/human&#45;dynamics</text>
<text text-anchor="start" x="339.5" y="-87" font-family="Helvetica,sans-Serif" font-size="10.00">&#45;estimation/human&#45;forces</text>
<text text-anchor="middle" x="430" y="-76" font-family="Helvetica,sans-Serif" font-size="10.00">&#45;provider/include/HumanForcesProvider.h</text>
</g>
<!-- Node2 -->
<g id="node2" class="node"><title>Node2</title>
<polygon fill="none" stroke="#bfbfbf" points="-0.5,-6.5 -0.5,-25.5 104.5,-25.5 104.5,-6.5 -0.5,-6.5"/>
<text text-anchor="middle" x="52" y="-13.5" font-family="Helvetica,sans-Serif" font-size="10.00">yarp/os/RFModule.h</text>
</g>
<!-- Node1&#45;&gt;Node2 -->
<g id="edge1" class="edge"><title>Node1&#45;&gt;Node2</title>
<path fill="none" stroke="midnightblue" d="M331.222,-75.943C268.549,-64.1743 185.832,-48.0674 113,-32 107.269,-30.7357 101.252,-29.3402 95.3228,-27.9244"/>
<polygon fill="midnightblue" stroke="midnightblue" points="96.0354,-24.4958 85.4924,-25.5422 94.3868,-31.299 96.0354,-24.4958"/>
</g>
<!-- Node3 -->
<g id="node3" class="node"><title>Node3</title>
<polygon fill="none" stroke="#bfbfbf" points="122.5,-6.5 122.5,-25.5 237.5,-25.5 237.5,-6.5 122.5,-6.5"/>
<text text-anchor="middle" x="180" y="-13.5" font-family="Helvetica,sans-Serif" font-size="10.00">yarp/os/BufferedPort.h</text>
</g>
<!-- Node1&#45;&gt;Node3 -->
<g id="edge2" class="edge"><title>Node1&#45;&gt;Node3</title>
<path fill="none" stroke="midnightblue" d="M348.487,-68.8939C304.393,-55.3129 252.051,-39.1918 217.54,-28.5622"/>
<polygon fill="midnightblue" stroke="midnightblue" points="218.453,-25.1813 207.866,-25.5826 216.392,-31.8712 218.453,-25.1813"/>
</g>
<!-- Node4 -->
<g id="node4" class="node"><title>Node4</title>
<polygon fill="none" stroke="#bfbfbf" points="255.5,-6.5 255.5,-25.5 366.5,-25.5 366.5,-6.5 255.5,-6.5"/>
<text text-anchor="middle" x="311" y="-13.5" font-family="Helvetica,sans-Serif" font-size="10.00">yarp/dev/PolyDriver.h</text>
</g>
<!-- Node1&#45;&gt;Node4 -->
<g id="edge3" class="edge"><title>Node1&#45;&gt;Node4</title>
<path fill="none" stroke="midnightblue" d="M391.035,-68.7873C371.769,-56.3214 349.23,-41.7371 332.988,-31.2278"/>
<polygon fill="midnightblue" stroke="midnightblue" points="334.523,-28.0518 324.226,-25.5577 330.72,-33.9288 334.523,-28.0518"/>
</g>
<!-- Node5 -->
<g id="node5" class="node"><title>Node5</title>
<polygon fill="none" stroke="#bfbfbf" points="384.5,-6.5 384.5,-25.5 475.5,-25.5 475.5,-6.5 384.5,-6.5"/>
<text text-anchor="middle" x="430" y="-13.5" font-family="Helvetica,sans-Serif" font-size="10.00">yarp/sig/Vector.h</text>
</g>
<!-- Node1&#45;&gt;Node5 -->
<g id="edge4" class="edge"><title>Node1&#45;&gt;Node5</title>
<path fill="none" stroke="midnightblue" d="M430,-68.7873C430,-58.069 430,-45.7846 430,-35.8708"/>
<polygon fill="midnightblue" stroke="midnightblue" points="433.5,-35.5577 430,-25.5577 426.5,-35.5577 433.5,-35.5577"/>
</g>
<!-- Node6 -->
<g id="node6" class="node"><title>Node6</title>
<polygon fill="none" stroke="#bfbfbf" points="494,-6.5 494,-25.5 608,-25.5 608,-6.5 494,-6.5"/>
<text text-anchor="middle" x="551" y="-13.5" font-family="Helvetica,sans-Serif" font-size="10.00">thrifts/HumanForces.h</text>
</g>
<!-- Node1&#45;&gt;Node6 -->
<g id="edge5" class="edge"><title>Node1&#45;&gt;Node6</title>
<path fill="none" stroke="midnightblue" d="M469.62,-68.7873C489.392,-56.2049 512.556,-41.4644 529.103,-30.9342"/>
<polygon fill="midnightblue" stroke="midnightblue" points="530.995,-33.8793 537.552,-25.5577 527.236,-27.9737 530.995,-33.8793"/>
</g>
<!-- Node7 -->
<g id="node7" class="node"><title>Node7</title>
<polygon fill="none" stroke="#bfbfbf" points="626.5,-6.5 626.5,-25.5 733.5,-25.5 733.5,-6.5 626.5,-6.5"/>
<text text-anchor="middle" x="680" y="-13.5" font-family="Helvetica,sans-Serif" font-size="10.00">thrifts/HumanState.h</text>
</g>
<!-- Node1&#45;&gt;Node7 -->
<g id="edge6" class="edge"><title>Node1&#45;&gt;Node7</title>
<path fill="none" stroke="midnightblue" d="M511.513,-68.8939C555.607,-55.3129 607.949,-39.1918 642.46,-28.5622"/>
<polygon fill="midnightblue" stroke="midnightblue" points="643.608,-31.8712 652.134,-25.5826 641.547,-25.1813 643.608,-31.8712"/>
</g>
<!-- Node8 -->
<g id="node8" class="node"><title>Node8</title>
<polygon fill="none" stroke="#bfbfbf" points="752,-1 752,-31 882,-31 882,-1 752,-1"/>
<text text-anchor="start" x="760" y="-19" font-family="Helvetica,sans-Serif" font-size="10.00">yarp/rosmsg/geometry</text>
<text text-anchor="middle" x="817" y="-8" font-family="Helvetica,sans-Serif" font-size="10.00">_msgs/WrenchStamped.h</text>
</g>
<!-- Node1&#45;&gt;Node8 -->
<g id="edge7" class="edge"><title>Node1&#45;&gt;Node8</title>
<path fill="none" stroke="midnightblue" d="M528.719,-74.415C590.097,-62.2302 670.644,-46.2254 742,-32 742.102,-31.9797 742.204,-31.9594 742.305,-31.9391"/>
<polygon fill="midnightblue" stroke="midnightblue" points="742.836,-35.4022 751.958,-30.0134 741.467,-28.5375 742.836,-35.4022"/>
</g>
</g>
</svg>
