<?xml version="1.0" encoding="UTF-8" standalone="no"?>
<!DOCTYPE svg PUBLIC "-//W3C//DTD SVG 1.1//EN"
 "http://www.w3.org/Graphics/SVG/1.1/DTD/svg11.dtd">
<!-- Generated by graphviz version 2.36.0 (20140111.2315)
 -->
<!-- Title: /home/travis/build/robotology/human&#45;dynamics&#45;estimation/human&#45;state&#45;provider/src/HumanStateProvider.cpp Pages: 1 -->
<svg width="3950pt" height="354pt"
 viewBox="0.00 0.00 3950.00 354.00" xmlns="http://www.w3.org/2000/svg" xmlns:xlink="http://www.w3.org/1999/xlink">
<g id="graph0" class="graph" transform="scale(1 1) rotate(0) translate(4 350)">
<title>/home/travis/build/robotology/human&#45;dynamics&#45;estimation/human&#45;state&#45;provider/src/HumanStateProvider.cpp</title>
<!-- Node1 -->
<g id="node1" class="node"><title>Node1</title>
<polygon fill="#bfbfbf" stroke="black" points="2231.5,-293 2231.5,-345 2414.5,-345 2414.5,-293 2231.5,-293"/>
<text text-anchor="start" x="2239.5" y="-333" font-family="Helvetica,sans-Serif" font-size="10.00">/home/travis/build</text>
<text text-anchor="start" x="2239.5" y="-322" font-family="Helvetica,sans-Serif" font-size="10.00">/robotology/human&#45;dynamics</text>
<text text-anchor="start" x="2239.5" y="-311" font-family="Helvetica,sans-Serif" font-size="10.00">&#45;estimation/human&#45;state</text>
<text text-anchor="middle" x="2323" y="-300" font-family="Helvetica,sans-Serif" font-size="10.00">&#45;provider/src/HumanStateProvider.cpp</text>
</g>
<!-- Node2 -->
<g id="node2" class="node"><title>Node2</title>
<g id="a_node2"><a xlink:href="_human_state_provider_8h.html" target="_top" xlink:title="HumanStateProvider.h">
<polygon fill="none" stroke="black" points="155,-180.5 155,-199.5 271,-199.5 271,-180.5 155,-180.5"/>
<text text-anchor="middle" x="213" y="-187.5" font-family="Helvetica,sans-Serif" font-size="10.00">HumanStateProvider.h</text>
</a>
</g>
</g>
<!-- Node1&#45;&gt;Node2 -->
<g id="edge1" class="edge"><title>Node1&#45;&gt;Node2</title>
<path fill="none" stroke="midnightblue" d="M2231.38,-316.922C1870.81,-312.428 560.34,-293.64 378,-256 326.354,-245.339 269.955,-219.846 238.282,-204.141"/>
<polygon fill="midnightblue" stroke="midnightblue" points="239.785,-200.98 229.279,-199.609 236.637,-207.232 239.785,-200.98"/>
</g>
<!-- Node4 -->
<g id="node4" class="node"><title>Node4</title>
<g id="a_node4"><a xlink:href="_human_state_provider_private_8h.html" target="_top" xlink:title="HumanStateProviderPrivate.h">
<polygon fill="none" stroke="black" points="1347,-236.5 1347,-255.5 1493,-255.5 1493,-236.5 1347,-236.5"/>
<text text-anchor="middle" x="1420" y="-243.5" font-family="Helvetica,sans-Serif" font-size="10.00">HumanStateProviderPrivate.h</text>
</a>
</g>
</g>
<!-- Node1&#45;&gt;Node4 -->
<g id="edge3" class="edge"><title>Node1&#45;&gt;Node4</title>
<path fill="none" stroke="midnightblue" d="M2231.45,-310.801C2055.47,-296.965 1672.46,-266.85 1503.24,-253.545"/>
<polygon fill="midnightblue" stroke="midnightblue" points="1503.38,-250.045 1493.14,-252.751 1502.83,-257.024 1503.38,-250.045"/>
</g>
<!-- Node5 -->
<g id="node5" class="node"><title>Node5</title>
<g id="a_node5"><a xlink:href="autogenerated_2include_2thrifts_2_human_state_8h.html" target="_top" xlink:title="thrifts/HumanState.h">
<polygon fill="none" stroke="black" points="289.5,-180.5 289.5,-199.5 396.5,-199.5 396.5,-180.5 289.5,-180.5"/>
<text text-anchor="middle" x="343" y="-187.5" font-family="Helvetica,sans-Serif" font-size="10.00">thrifts/HumanState.h</text>
</a>
</g>
</g>
<!-- Node1&#45;&gt;Node5 -->
<g id="edge44" class="edge"><title>Node1&#45;&gt;Node5</title>
<path fill="none" stroke="midnightblue" d="M2231.24,-316.845C1861.37,-311.955 495.662,-291.558 411,-256 387.337,-246.061 367.1,-223.829 355.001,-208.143"/>
<polygon fill="midnightblue" stroke="midnightblue" points="357.605,-205.777 348.853,-199.806 351.971,-209.931 357.605,-205.777"/>
</g>
<!-- Node10 -->
<g id="node10" class="node"><title>Node10</title>
<polygon fill="none" stroke="#bfbfbf" points="379.5,-124.5 379.5,-143.5 470.5,-143.5 470.5,-124.5 379.5,-124.5"/>
<text text-anchor="middle" x="425" y="-131.5" font-family="Helvetica,sans-Serif" font-size="10.00">yarp/sig/Vector.h</text>
</g>
<!-- Node1&#45;&gt;Node10 -->
<g id="edge61" class="edge"><title>Node1&#45;&gt;Node10</title>
<path fill="none" stroke="midnightblue" d="M2231.34,-318.104C1864.35,-318.122 517.545,-314.209 449,-256 419.576,-231.013 419.688,-181.226 422.332,-153.95"/>
<polygon fill="midnightblue" stroke="midnightblue" points="425.836,-154.119 423.541,-143.776 418.885,-153.293 425.836,-154.119"/>
</g>
<!-- Node11 -->
<g id="node11" class="node"><title>Node11</title>
<g id="a_node11"><a xlink:href="autogenerated_2include_2thrifts_2_human_state_provider_service_8h.html" target="_top" xlink:title="thrifts/HumanStateProvider\lService.h">
<polygon fill="none" stroke="black" points="405.5,-57 405.5,-87 540.5,-87 540.5,-57 405.5,-57"/>
<text text-anchor="start" x="413.5" y="-75" font-family="Helvetica,sans-Serif" font-size="10.00">thrifts/HumanStateProvider</text>
<text text-anchor="middle" x="473" y="-64" font-family="Helvetica,sans-Serif" font-size="10.00">Service.h</text>
</a>
</g>
</g>
<!-- Node1&#45;&gt;Node11 -->
<g id="edge45" class="edge"><title>Node1&#45;&gt;Node11</title>
<path fill="none" stroke="midnightblue" d="M2231.09,-316.46C2007.72,-312.161 1418.72,-297.499 929,-256 729.495,-239.094 617.421,-347.476 482,-200 479.142,-196.888 479.33,-128.213 479,-124 478.314,-115.251 477.268,-105.69 476.241,-97.2342"/>
<polygon fill="midnightblue" stroke="midnightblue" points="479.707,-96.7412 474.978,-87.26 472.762,-97.6205 479.707,-96.7412"/>
</g>
<!-- Node13 -->
<g id="node13" class="node"><title>Node13</title>
<polygon fill="none" stroke="#bfbfbf" points="491,-180.5 491,-199.5 649,-199.5 649,-180.5 491,-180.5"/>
<text text-anchor="middle" x="570" y="-187.5" font-family="Helvetica,sans-Serif" font-size="10.00">iDynTree/Core/VectorDynSize.h</text>
</g>
<!-- Node1&#45;&gt;Node13 -->
<g id="edge49" class="edge"><title>Node1&#45;&gt;Node13</title>
<path fill="none" stroke="midnightblue" d="M2231.2,-315.162C2031.55,-308.56 1543.03,-290.084 1135,-256 957.944,-241.21 750.639,-215.096 643.091,-200.886"/>
<polygon fill="midnightblue" stroke="midnightblue" points="643.372,-197.393 632.999,-199.549 642.453,-204.332 643.372,-197.393"/>
</g>
<!-- Node14 -->
<g id="node14" class="node"><title>Node14</title>
<polygon fill="none" stroke="#bfbfbf" points="667,-180.5 667,-199.5 803,-199.5 803,-180.5 667,-180.5"/>
<text text-anchor="middle" x="735" y="-187.5" font-family="Helvetica,sans-Serif" font-size="10.00">iDynTree/Core/Transform.h</text>
</g>
<!-- Node1&#45;&gt;Node14 -->
<g id="edge47" class="edge"><title>Node1&#45;&gt;Node14</title>
<path fill="none" stroke="midnightblue" d="M2231.24,-313.551C2056.98,-304.807 1666.24,-283.79 1338,-256 1149.33,-240.027 928.19,-214.422 813.287,-200.598"/>
<polygon fill="midnightblue" stroke="midnightblue" points="813.524,-197.101 803.177,-199.379 812.686,-204.051 813.524,-197.101"/>
</g>
<!-- Node16 -->
<g id="node16" class="node"><title>Node16</title>
<polygon fill="none" stroke="#bfbfbf" points="1615.5,-180.5 1615.5,-199.5 1776.5,-199.5 1776.5,-180.5 1615.5,-180.5"/>
<text text-anchor="middle" x="1696" y="-187.5" font-family="Helvetica,sans-Serif" font-size="10.00">iDynTree/KinDynComputations.h</text>
</g>
<!-- Node1&#45;&gt;Node16 -->
<g id="edge52" class="edge"><title>Node1&#45;&gt;Node16</title>
<path fill="none" stroke="midnightblue" d="M2231.46,-301.556C2165.15,-289.461 2073.4,-272.348 1993,-256 1904.68,-238.043 1802.05,-215.124 1743.49,-201.85"/>
<polygon fill="midnightblue" stroke="midnightblue" points="1743.96,-198.367 1733.43,-199.567 1742.41,-205.194 1743.96,-198.367"/>
</g>
<!-- Node17 -->
<g id="node17" class="node"><title>Node17</title>
<g id="a_node17"><a xlink:href="_inverse_kinematics_8h.html" target="_top" xlink:title="human&#45;ik/InverseKinematics.h">
<polygon fill="none" stroke="black" points="2171.5,-180.5 2171.5,-199.5 2320.5,-199.5 2320.5,-180.5 2171.5,-180.5"/>
<text text-anchor="middle" x="2246" y="-187.5" font-family="Helvetica,sans-Serif" font-size="10.00">human&#45;ik/InverseKinematics.h</text>
</a>
</g>
</g>
<!-- Node1&#45;&gt;Node17 -->
<g id="edge46" class="edge"><title>Node1&#45;&gt;Node17</title>
<path fill="none" stroke="midnightblue" d="M2307.79,-292.909C2292.66,-267.959 2269.85,-230.338 2256.59,-208.466"/>
<polygon fill="midnightblue" stroke="midnightblue" points="2259.41,-206.364 2251.23,-199.628 2253.42,-209.994 2259.41,-206.364"/>
</g>
<!-- Node18 -->
<g id="node18" class="node"><title>Node18</title>
<polygon fill="none" stroke="#bfbfbf" points="2187.5,-124.5 2187.5,-143.5 2340.5,-143.5 2340.5,-124.5 2187.5,-124.5"/>
<text text-anchor="middle" x="2264" y="-131.5" font-family="Helvetica,sans-Serif" font-size="10.00">iDynTree/Core/VectorFixSize.h</text>
</g>
<!-- Node1&#45;&gt;Node18 -->
<g id="edge48" class="edge"><title>Node1&#45;&gt;Node18</title>
<path fill="none" stroke="midnightblue" d="M2324.66,-292.694C2326.14,-268.81 2328.19,-231.989 2329,-200 2329.23,-191.114 2333.13,-187.874 2329,-180 2321.72,-166.108 2307.99,-155.652 2295.02,-148.333"/>
<polygon fill="midnightblue" stroke="midnightblue" points="2296.3,-145.053 2285.81,-143.553 2293.07,-151.266 2296.3,-145.053"/>
</g>
<!-- Node19 -->
<g id="node19" class="node"><title>Node19</title>
<polygon fill="none" stroke="#bfbfbf" points="2123.5,-124.5 2123.5,-143.5 2164.5,-143.5 2164.5,-124.5 2123.5,-124.5"/>
<text text-anchor="middle" x="2144" y="-131.5" font-family="Helvetica,sans-Serif" font-size="10.00">string</text>
</g>
<!-- Node1&#45;&gt;Node19 -->
<g id="edge65" class="edge"><title>Node1&#45;&gt;Node19</title>
<path fill="none" stroke="midnightblue" d="M2272.67,-292.948C2236.76,-272.598 2190.06,-240.639 2162,-200 2152.54,-186.299 2148.04,-167.765 2145.9,-153.994"/>
<polygon fill="midnightblue" stroke="midnightblue" points="2149.33,-153.24 2144.61,-143.758 2142.39,-154.117 2149.33,-153.24"/>
</g>
<!-- Node20 -->
<g id="node20" class="node"><title>Node20</title>
<polygon fill="none" stroke="#bfbfbf" points="2361,-124.5 2361,-143.5 2405,-143.5 2405,-124.5 2361,-124.5"/>
<text text-anchor="middle" x="2383" y="-131.5" font-family="Helvetica,sans-Serif" font-size="10.00">vector</text>
</g>
<!-- Node1&#45;&gt;Node20 -->
<g id="edge66" class="edge"><title>Node1&#45;&gt;Node20</title>
<path fill="none" stroke="midnightblue" d="M2331.22,-292.938C2343.44,-255.649 2366.14,-186.419 2376.96,-153.419"/>
<polygon fill="midnightblue" stroke="midnightblue" points="2380.35,-154.308 2380.14,-143.715 2373.7,-152.127 2380.35,-154.308"/>
</g>
<!-- Node21 -->
<g id="node21" class="node"><title>Node21</title>
<polygon fill="none" stroke="#bfbfbf" points="1794.5,-180.5 1794.5,-199.5 1905.5,-199.5 1905.5,-180.5 1794.5,-180.5"/>
<text text-anchor="middle" x="1850" y="-187.5" font-family="Helvetica,sans-Serif" font-size="10.00">yarp/dev/PolyDriver.h</text>
</g>
<!-- Node1&#45;&gt;Node21 -->
<g id="edge58" class="edge"><title>Node1&#45;&gt;Node21</title>
<path fill="none" stroke="midnightblue" d="M2231.38,-297.889C2180.91,-286.417 2117.27,-271.306 2061,-256 1998.81,-239.083 1927.29,-216.349 1885.53,-202.736"/>
<polygon fill="midnightblue" stroke="midnightblue" points="1886.42,-199.345 1875.82,-199.564 1884.24,-205.998 1886.42,-199.345"/>
</g>
<!-- Node23 -->
<g id="node23" class="node"><title>Node23</title>
<polygon fill="none" stroke="#bfbfbf" points="1923.5,-180.5 1923.5,-199.5 2038.5,-199.5 2038.5,-180.5 1923.5,-180.5"/>
<text text-anchor="middle" x="1981" y="-187.5" font-family="Helvetica,sans-Serif" font-size="10.00">yarp/os/BufferedPort.h</text>
</g>
<!-- Node1&#45;&gt;Node23 -->
<g id="edge54" class="edge"><title>Node1&#45;&gt;Node23</title>
<path fill="none" stroke="midnightblue" d="M2231.29,-295.955C2192.38,-285.508 2146.89,-271.834 2107,-256 2069.67,-241.183 2028.75,-218.85 2003.97,-204.6"/>
<polygon fill="midnightblue" stroke="midnightblue" points="2005.71,-201.564 1995.3,-199.567 2002.19,-207.617 2005.71,-201.564"/>
</g>
<!-- Node25 -->
<g id="node25" class="node"><title>Node25</title>
<polygon fill="none" stroke="#bfbfbf" points="2056.5,-180.5 2056.5,-199.5 2115.5,-199.5 2115.5,-180.5 2056.5,-180.5"/>
<text text-anchor="middle" x="2086" y="-187.5" font-family="Helvetica,sans-Serif" font-size="10.00">Eigen/QR</text>
</g>
<!-- Node1&#45;&gt;Node25 -->
<g id="edge62" class="edge"><title>Node1&#45;&gt;Node25</title>
<path fill="none" stroke="midnightblue" d="M2231.14,-301.736C2196.99,-292.441 2159.43,-278.06 2130,-256 2113.52,-243.647 2101.17,-223.227 2093.81,-208.569"/>
<polygon fill="midnightblue" stroke="midnightblue" points="2096.96,-207.054 2089.52,-199.512 2090.63,-210.048 2096.96,-207.054"/>
</g>
<!-- Node28 -->
<g id="node28" class="node"><title>Node28</title>
<g id="a_node28"><a xlink:href="_human_i_k_worker_pool_8h.html" target="_top" xlink:title="HumanIKWorkerPool.h">
<polygon fill="none" stroke="black" points="2370.5,-236.5 2370.5,-255.5 2487.5,-255.5 2487.5,-236.5 2370.5,-236.5"/>
<text text-anchor="middle" x="2429" y="-243.5" font-family="Helvetica,sans-Serif" font-size="10.00">HumanIKWorkerPool.h</text>
</a>
</g>
</g>
<!-- Node1&#45;&gt;Node28 -->
<g id="edge38" class="edge"><title>Node1&#45;&gt;Node28</title>
<path fill="none" stroke="midnightblue" d="M2360.37,-292.968C2376.16,-282.393 2393.98,-270.457 2407.5,-261.398"/>
<polygon fill="midnightblue" stroke="midnightblue" points="2409.74,-264.112 2416.1,-255.639 2405.85,-258.296 2409.74,-264.112"/>
</g>
<!-- Node32 -->
<g id="node32" class="node"><title>Node32</title>
<polygon fill="none" stroke="#bfbfbf" points="2505.5,-236.5 2505.5,-255.5 2628.5,-255.5 2628.5,-236.5 2505.5,-236.5"/>
<text text-anchor="middle" x="2567" y="-243.5" font-family="Helvetica,sans-Serif" font-size="10.00">iDynTree/Model/Model.h</text>
</g>
<!-- Node1&#45;&gt;Node32 -->
<g id="edge50" class="edge"><title>Node1&#45;&gt;Node32</title>
<path fill="none" stroke="midnightblue" d="M2409.03,-292.968C2449.51,-281.188 2495.8,-267.718 2527.76,-258.419"/>
<polygon fill="midnightblue" stroke="midnightblue" points="2528.98,-261.709 2537.6,-255.554 2527.02,-254.987 2528.98,-261.709"/>
</g>
<!-- Node33 -->
<g id="node33" class="node"><title>Node33</title>
<polygon fill="none" stroke="#bfbfbf" points="2646.5,-236.5 2646.5,-255.5 2809.5,-255.5 2809.5,-236.5 2646.5,-236.5"/>
<text text-anchor="middle" x="2728" y="-243.5" font-family="Helvetica,sans-Serif" font-size="10.00">iDynTree/ModelIO/ModelLoader.h</text>
</g>
<!-- Node1&#45;&gt;Node33 -->
<g id="edge51" class="edge"><title>Node1&#45;&gt;Node33</title>
<path fill="none" stroke="midnightblue" d="M2414.65,-301.933C2492.77,-288.237 2602.72,-268.963 2669.46,-257.263"/>
<polygon fill="midnightblue" stroke="midnightblue" points="2670.14,-260.697 2679.39,-255.522 2668.93,-253.802 2670.14,-260.697"/>
</g>
<!-- Node34 -->
<g id="node34" class="node"><title>Node34</title>
<polygon fill="none" stroke="#bfbfbf" points="2828,-236.5 2828,-255.5 2978,-255.5 2978,-236.5 2828,-236.5"/>
<text text-anchor="middle" x="2903" y="-243.5" font-family="Helvetica,sans-Serif" font-size="10.00">iDynTree/Core/EigenHelpers.h</text>
</g>
<!-- Node1&#45;&gt;Node34 -->
<g id="edge53" class="edge"><title>Node1&#45;&gt;Node34</title>
<path fill="none" stroke="midnightblue" d="M2414.58,-306.789C2527.15,-293.01 2716.33,-269.85 2823.21,-256.768"/>
<polygon fill="midnightblue" stroke="midnightblue" points="2823.79,-260.223 2833.29,-255.534 2822.94,-253.275 2823.79,-260.223"/>
</g>
<!-- Node35 -->
<g id="node35" class="node"><title>Node35</title>
<polygon fill="none" stroke="#bfbfbf" points="2995.5,-236.5 2995.5,-255.5 3102.5,-255.5 3102.5,-236.5 2995.5,-236.5"/>
<text text-anchor="middle" x="3049" y="-243.5" font-family="Helvetica,sans-Serif" font-size="10.00">yarp/os/LogStream.h</text>
</g>
<!-- Node1&#45;&gt;Node35 -->
<g id="edge55" class="edge"><title>Node1&#45;&gt;Node35</title>
<path fill="none" stroke="midnightblue" d="M2414.58,-310.854C2540.62,-300.7 2774.89,-280.691 2985.4,-256.016"/>
<polygon fill="midnightblue" stroke="midnightblue" points="2985.89,-259.483 2995.41,-254.837 2985.07,-252.531 2985.89,-259.483"/>
</g>
<!-- Node36 -->
<g id="node36" class="node"><title>Node36</title>
<polygon fill="none" stroke="#bfbfbf" points="3120.5,-236.5 3120.5,-255.5 3249.5,-255.5 3249.5,-236.5 3120.5,-236.5"/>
<text text-anchor="middle" x="3185" y="-243.5" font-family="Helvetica,sans-Serif" font-size="10.00">yarp/os/ResourceFinder.h</text>
</g>
<!-- Node1&#45;&gt;Node36 -->
<g id="edge56" class="edge"><title>Node1&#45;&gt;Node36</title>
<path fill="none" stroke="midnightblue" d="M2414.71,-312.054C2559.92,-302.358 2851.88,-281.718 3110.49,-256.009"/>
<polygon fill="midnightblue" stroke="midnightblue" points="3110.84,-259.491 3120.44,-255.015 3110.15,-252.526 3110.84,-259.491"/>
</g>
<!-- Node37 -->
<g id="node37" class="node"><title>Node37</title>
<polygon fill="none" stroke="#bfbfbf" points="3267.5,-236.5 3267.5,-255.5 3352.5,-255.5 3352.5,-236.5 3267.5,-236.5"/>
<text text-anchor="middle" x="3310" y="-243.5" font-family="Helvetica,sans-Serif" font-size="10.00">yarp/os/Value.h</text>
</g>
<!-- Node1&#45;&gt;Node37 -->
<g id="edge57" class="edge"><title>Node1&#45;&gt;Node37</title>
<path fill="none" stroke="midnightblue" d="M2414.54,-315.126C2580.49,-309.213 2942.19,-293.105 3257.24,-255.951"/>
<polygon fill="midnightblue" stroke="midnightblue" points="3257.97,-259.389 3267.49,-254.733 3257.14,-252.438 3257.97,-259.389"/>
</g>
<!-- Node38 -->
<g id="node38" class="node"><title>Node38</title>
<polygon fill="none" stroke="#bfbfbf" points="3371,-236.5 3371,-255.5 3503,-255.5 3503,-236.5 3371,-236.5"/>
<text text-anchor="middle" x="3437" y="-243.5" font-family="Helvetica,sans-Serif" font-size="10.00">yarp/dev/IFrameProvider.h</text>
</g>
<!-- Node1&#45;&gt;Node38 -->
<g id="edge59" class="edge"><title>Node1&#45;&gt;Node38</title>
<path fill="none" stroke="midnightblue" d="M2414.78,-314.315C2594.24,-306.715 3004.45,-287.41 3360.71,-255.968"/>
<polygon fill="midnightblue" stroke="midnightblue" points="3361.05,-259.451 3370.7,-255.081 3360.43,-252.478 3361.05,-259.451"/>
</g>
<!-- Node39 -->
<g id="node39" class="node"><title>Node39</title>
<polygon fill="none" stroke="#bfbfbf" points="3521.5,-236.5 3521.5,-255.5 3678.5,-255.5 3678.5,-236.5 3521.5,-236.5"/>
<text text-anchor="middle" x="3600" y="-243.5" font-family="Helvetica,sans-Serif" font-size="10.00">yarp/dev/IXsensMVNInterface.h</text>
</g>
<!-- Node1&#45;&gt;Node39 -->
<g id="edge60" class="edge"><title>Node1&#45;&gt;Node39</title>
<path fill="none" stroke="midnightblue" d="M2414.85,-314.771C2612.99,-307.465 3095.57,-287.845 3511.22,-256.019"/>
<polygon fill="midnightblue" stroke="midnightblue" points="3511.63,-259.498 3521.34,-255.241 3511.1,-252.519 3511.63,-259.498"/>
</g>
<!-- Node40 -->
<g id="node40" class="node"><title>Node40</title>
<polygon fill="none" stroke="#bfbfbf" points="3697,-236.5 3697,-255.5 3753,-255.5 3753,-236.5 3697,-236.5"/>
<text text-anchor="middle" x="3725" y="-243.5" font-family="Helvetica,sans-Serif" font-size="10.00">algorithm</text>
</g>
<!-- Node1&#45;&gt;Node40 -->
<g id="edge63" class="edge"><title>Node1&#45;&gt;Node40</title>
<path fill="none" stroke="midnightblue" d="M2414.94,-316.065C2679.66,-310.137 3440.35,-290.504 3687,-256 3687.1,-255.986 3687.2,-255.972 3687.3,-255.957"/>
<polygon fill="midnightblue" stroke="midnightblue" points="3687.64,-259.451 3696.89,-254.277 3686.44,-252.556 3687.64,-259.451"/>
</g>
<!-- Node41 -->
<g id="node41" class="node"><title>Node41</title>
<polygon fill="none" stroke="#bfbfbf" points="3771.5,-236.5 3771.5,-255.5 3820.5,-255.5 3820.5,-236.5 3771.5,-236.5"/>
<text text-anchor="middle" x="3796" y="-243.5" font-family="Helvetica,sans-Serif" font-size="10.00">cassert</text>
</g>
<!-- Node1&#45;&gt;Node41 -->
<g id="edge64" class="edge"><title>Node1&#45;&gt;Node41</title>
<path fill="none" stroke="midnightblue" d="M2414.55,-316.549C2688.61,-311.81 3499.61,-294.807 3761,-256 3761.1,-255.984 3761.21,-255.969 3761.31,-255.953"/>
<polygon fill="midnightblue" stroke="midnightblue" points="3762.12,-259.363 3771.27,-254.038 3760.79,-252.489 3762.12,-259.363"/>
</g>
<!-- Node42 -->
<g id="node42" class="node"><title>Node42</title>
<polygon fill="none" stroke="#bfbfbf" points="3838.5,-236.5 3838.5,-255.5 3879.5,-255.5 3879.5,-236.5 3838.5,-236.5"/>
<text text-anchor="middle" x="3859" y="-243.5" font-family="Helvetica,sans-Serif" font-size="10.00">stack</text>
</g>
<!-- Node1&#45;&gt;Node42 -->
<g id="edge67" class="edge"><title>Node1&#45;&gt;Node42</title>
<path fill="none" stroke="midnightblue" d="M2414.92,-317.225C2694.82,-314.395 3534.8,-302.312 3827.98,-255.648"/>
<polygon fill="midnightblue" stroke="midnightblue" points="3828.88,-259.048 3838.18,-253.973 3827.74,-252.14 3828.88,-259.048"/>
</g>
<!-- Node43 -->
<g id="node43" class="node"><title>Node43</title>
<polygon fill="none" stroke="#bfbfbf" points="3898,-236.5 3898,-255.5 3942,-255.5 3942,-236.5 3898,-236.5"/>
<text text-anchor="middle" x="3920" y="-243.5" font-family="Helvetica,sans-Serif" font-size="10.00">thread</text>
</g>
<!-- Node1&#45;&gt;Node43 -->
<g id="edge68" class="edge"><title>Node1&#45;&gt;Node43</title>
<path fill="none" stroke="midnightblue" d="M2414.63,-317.188C2701.57,-314.207 3581.32,-301.625 3887.56,-255.555"/>
<polygon fill="midnightblue" stroke="midnightblue" points="3888.42,-258.962 3897.77,-253.972 3887.35,-252.045 3888.42,-258.962"/>
</g>
<!-- Node3 -->
<g id="node3" class="node"><title>Node3</title>
<polygon fill="none" stroke="#bfbfbf" points="-0.5,-124.5 -0.5,-143.5 104.5,-143.5 104.5,-124.5 -0.5,-124.5"/>
<text text-anchor="middle" x="52" y="-131.5" font-family="Helvetica,sans-Serif" font-size="10.00">yarp/os/RFModule.h</text>
</g>
<!-- Node2&#45;&gt;Node3 -->
<g id="edge2" class="edge"><title>Node2&#45;&gt;Node3</title>
<path fill="none" stroke="midnightblue" d="M187.489,-180.444C160.404,-171.359 117.41,-156.939 87.1312,-146.783"/>
<polygon fill="midnightblue" stroke="midnightblue" points="87.9855,-143.378 77.3916,-143.516 85.7595,-150.015 87.9855,-143.378"/>
</g>
<!-- Node4&#45;&gt;Node2 -->
<g id="edge4" class="edge"><title>Node4&#45;&gt;Node2</title>
<path fill="none" stroke="midnightblue" d="M1346.83,-244.495C1167.17,-242.741 689.826,-234.971 281.311,-200.023"/>
<polygon fill="midnightblue" stroke="midnightblue" points="281.331,-196.512 271.068,-199.14 280.73,-203.486 281.331,-196.512"/>
</g>
<!-- Node4&#45;&gt;Node5 -->
<g id="edge5" class="edge"><title>Node4&#45;&gt;Node5</title>
<path fill="none" stroke="midnightblue" d="M1346.7,-241.901C1188.67,-235.128 804.093,-218.152 482,-200 457.498,-198.619 430.579,-196.919 407.009,-195.369"/>
<polygon fill="midnightblue" stroke="midnightblue" points="406.993,-191.861 396.784,-194.693 406.531,-198.845 406.993,-191.861"/>
</g>
<!-- Node4&#45;&gt;Node10 -->
<g id="edge32" class="edge"><title>Node4&#45;&gt;Node10</title>
<path fill="none" stroke="midnightblue" d="M1379.68,-236.423C1344.66,-228.493 1292.81,-215.596 1249,-200 1228.76,-192.796 1225.85,-185.15 1205,-180 1067.58,-146.062 635.809,-137.551 480.96,-135.565"/>
<polygon fill="midnightblue" stroke="midnightblue" points="480.775,-132.063 470.732,-135.438 480.688,-139.062 480.775,-132.063"/>
</g>
<!-- Node4&#45;&gt;Node11 -->
<g id="edge16" class="edge"><title>Node4&#45;&gt;Node11</title>
<path fill="none" stroke="midnightblue" d="M1389.69,-236.436C1361.44,-228.145 1318.32,-214.7 1282,-200 1263.21,-192.395 1260.39,-185.917 1241,-180 996.203,-105.31 691.431,-82.5435 550.776,-75.7722"/>
<polygon fill="midnightblue" stroke="midnightblue" points="550.681,-72.264 540.528,-75.2933 550.354,-79.2564 550.681,-72.264"/>
</g>
<!-- Node12 -->
<g id="node12" class="node"><title>Node12</title>
<polygon fill="none" stroke="#bfbfbf" points="891,-180.5 891,-199.5 1047,-199.5 1047,-180.5 891,-180.5"/>
<text text-anchor="middle" x="969" y="-187.5" font-family="Helvetica,sans-Serif" font-size="10.00">iDynTree/Core/MatrixDynSize.h</text>
</g>
<!-- Node4&#45;&gt;Node12 -->
<g id="edge19" class="edge"><title>Node4&#45;&gt;Node12</title>
<path fill="none" stroke="midnightblue" d="M1348.54,-236.444C1267.39,-226.727 1135.26,-210.907 1050.25,-200.729"/>
<polygon fill="midnightblue" stroke="midnightblue" points="1050.47,-197.23 1040.13,-199.516 1049.64,-204.181 1050.47,-197.23"/>
</g>
<!-- Node4&#45;&gt;Node13 -->
<g id="edge20" class="edge"><title>Node4&#45;&gt;Node13</title>
<path fill="none" stroke="midnightblue" d="M1346.9,-241.729C1212.8,-235.499 918.231,-220.749 659.117,-200.057"/>
<polygon fill="midnightblue" stroke="midnightblue" points="659.387,-196.567 649.139,-199.256 658.827,-203.545 659.387,-196.567"/>
</g>
<!-- Node4&#45;&gt;Node14 -->
<g id="edge21" class="edge"><title>Node4&#45;&gt;Node14</title>
<path fill="none" stroke="midnightblue" d="M1346.92,-240.597C1234.55,-233.605 1012.35,-218.895 813.076,-200.064"/>
<polygon fill="midnightblue" stroke="midnightblue" points="813.29,-196.569 803.003,-199.107 812.627,-203.538 813.29,-196.569"/>
</g>
<!-- Node15 -->
<g id="node15" class="node"><title>Node15</title>
<polygon fill="none" stroke="#bfbfbf" points="1065.5,-180.5 1065.5,-199.5 1196.5,-199.5 1196.5,-180.5 1065.5,-180.5"/>
<text text-anchor="middle" x="1131" y="-187.5" font-family="Helvetica,sans-Serif" font-size="10.00">iDynTree/Model/Indeces.h</text>
</g>
<!-- Node4&#45;&gt;Node15 -->
<g id="edge22" class="edge"><title>Node4&#45;&gt;Node15</title>
<path fill="none" stroke="midnightblue" d="M1374.21,-236.444C1323.26,-226.925 1240.97,-211.547 1186.43,-201.356"/>
<polygon fill="midnightblue" stroke="midnightblue" points="1187.05,-197.913 1176.58,-199.516 1185.77,-204.794 1187.05,-197.913"/>
</g>
<!-- Node4&#45;&gt;Node16 -->
<g id="edge23" class="edge"><title>Node4&#45;&gt;Node16</title>
<path fill="none" stroke="midnightblue" d="M1463.73,-236.444C1512.18,-226.964 1590.33,-211.675 1642.42,-201.483"/>
<polygon fill="midnightblue" stroke="midnightblue" points="1643.33,-204.871 1652.47,-199.516 1641.99,-198.002 1643.33,-204.871"/>
</g>
<!-- Node4&#45;&gt;Node17 -->
<g id="edge24" class="edge"><title>Node4&#45;&gt;Node17</title>
<path fill="none" stroke="midnightblue" d="M1493.24,-240.556C1621.21,-232.737 1893.84,-215.845 2124,-200 2136.12,-199.166 2148.92,-198.255 2161.48,-197.343"/>
<polygon fill="midnightblue" stroke="midnightblue" points="2161.77,-200.831 2171.49,-196.613 2161.26,-193.85 2161.77,-200.831"/>
</g>
<!-- Node4&#45;&gt;Node19 -->
<g id="edge36" class="edge"><title>Node4&#45;&gt;Node19</title>
<path fill="none" stroke="midnightblue" d="M1442.04,-236.337C1464.34,-227.489 1499.75,-213.215 1530,-200 1549.31,-191.563 1552.62,-185.357 1573,-180 1676.57,-152.781 2010.03,-139.51 2113.25,-135.984"/>
<polygon fill="midnightblue" stroke="midnightblue" points="2113.45,-139.479 2123.33,-135.646 2113.22,-132.483 2113.45,-139.479"/>
</g>
<!-- Node4&#45;&gt;Node20 -->
<g id="edge37" class="edge"><title>Node4&#45;&gt;Node20</title>
<path fill="none" stroke="midnightblue" d="M1453.3,-236.422C1483.25,-228.312 1528.21,-215.151 1566,-200 1584.45,-192.603 1586.77,-185.033 1606,-180 1925.83,-96.2755 2022.28,-194.58 2349,-144 2349.6,-143.907 2350.21,-143.807 2350.82,-143.701"/>
<polygon fill="midnightblue" stroke="midnightblue" points="2351.77,-147.078 2360.83,-141.585 2350.32,-140.23 2351.77,-147.078"/>
</g>
<!-- Node4&#45;&gt;Node21 -->
<g id="edge28" class="edge"><title>Node4&#45;&gt;Node21</title>
<path fill="none" stroke="midnightblue" d="M1491.72,-236.478C1563.12,-227.921 1676.14,-214.181 1784.23,-200.084"/>
<polygon fill="midnightblue" stroke="midnightblue" points="1784.88,-203.529 1794.34,-198.763 1783.97,-196.588 1784.88,-203.529"/>
</g>
<!-- Node22 -->
<g id="node22" class="node"><title>Node22</title>
<polygon fill="none" stroke="#bfbfbf" points="1291.5,-180.5 1291.5,-199.5 1424.5,-199.5 1424.5,-180.5 1291.5,-180.5"/>
<text text-anchor="middle" x="1358" y="-187.5" font-family="Helvetica,sans-Serif" font-size="10.00">yarp/dev/PreciselyTimed.h</text>
</g>
<!-- Node4&#45;&gt;Node22 -->
<g id="edge29" class="edge"><title>Node4&#45;&gt;Node22</title>
<path fill="none" stroke="midnightblue" d="M1410.04,-236.324C1400.87,-228.341 1387.06,-216.313 1375.97,-206.653"/>
<polygon fill="midnightblue" stroke="midnightblue" points="1377.98,-203.762 1368.14,-199.834 1373.38,-209.041 1377.98,-203.762"/>
</g>
<!-- Node4&#45;&gt;Node23 -->
<g id="edge30" class="edge"><title>Node4&#45;&gt;Node23</title>
<path fill="none" stroke="midnightblue" d="M1493.33,-239.304C1587.82,-231.744 1757.4,-217.431 1913.04,-200.062"/>
<polygon fill="midnightblue" stroke="midnightblue" points="1913.73,-203.507 1923.28,-198.913 1912.95,-196.551 1913.73,-203.507"/>
</g>
<!-- Node24 -->
<g id="node24" class="node"><title>Node24</title>
<polygon fill="none" stroke="#bfbfbf" points="1443,-180.5 1443,-199.5 1521,-199.5 1521,-180.5 1443,-180.5"/>
<text text-anchor="middle" x="1482" y="-187.5" font-family="Helvetica,sans-Serif" font-size="10.00">yarp/os/Port.h</text>
</g>
<!-- Node4&#45;&gt;Node24 -->
<g id="edge31" class="edge"><title>Node4&#45;&gt;Node24</title>
<path fill="none" stroke="midnightblue" d="M1429.96,-236.324C1439.13,-228.341 1452.94,-216.313 1464.03,-206.653"/>
<polygon fill="midnightblue" stroke="midnightblue" points="1466.62,-209.041 1471.86,-199.834 1462.02,-203.762 1466.62,-209.041"/>
</g>
<!-- Node4&#45;&gt;Node25 -->
<g id="edge33" class="edge"><title>Node4&#45;&gt;Node25</title>
<path fill="none" stroke="midnightblue" d="M1493.29,-243.422C1608.86,-240.122 1840.54,-230.221 2046.2,-199.866"/>
<polygon fill="midnightblue" stroke="midnightblue" points="2046.91,-203.299 2056.28,-198.359 2045.87,-196.376 2046.91,-203.299"/>
</g>
<!-- Node26 -->
<g id="node26" class="node"><title>Node26</title>
<polygon fill="none" stroke="#bfbfbf" points="821,-180.5 821,-199.5 873,-199.5 873,-180.5 821,-180.5"/>
<text text-anchor="middle" x="847" y="-187.5" font-family="Helvetica,sans-Serif" font-size="10.00">memory</text>
</g>
<!-- Node4&#45;&gt;Node26 -->
<g id="edge34" class="edge"><title>Node4&#45;&gt;Node26</title>
<path fill="none" stroke="midnightblue" d="M1346.85,-242.78C1244.87,-238.82 1054.17,-228.277 883.205,-199.932"/>
<polygon fill="midnightblue" stroke="midnightblue" points="883.713,-196.468 873.271,-198.261 882.552,-203.371 883.713,-196.468"/>
</g>
<!-- Node27 -->
<g id="node27" class="node"><title>Node27</title>
<polygon fill="none" stroke="#bfbfbf" points="2414,-180.5 2414,-199.5 2458,-199.5 2458,-180.5 2414,-180.5"/>
<text text-anchor="middle" x="2436" y="-187.5" font-family="Helvetica,sans-Serif" font-size="10.00">mutex</text>
</g>
<!-- Node4&#45;&gt;Node27 -->
<g id="edge35" class="edge"><title>Node4&#45;&gt;Node27</title>
<path fill="none" stroke="midnightblue" d="M1493.1,-242.236C1647.55,-236.209 2018.42,-220.743 2329,-200 2354.14,-198.321 2382.56,-195.906 2403.79,-194"/>
<polygon fill="midnightblue" stroke="midnightblue" points="2404.24,-197.474 2413.88,-193.084 2403.61,-190.502 2404.24,-197.474"/>
</g>
<!-- Node6 -->
<g id="node6" class="node"><title>Node6</title>
<polygon fill="none" stroke="#bfbfbf" points="171,-0.5 171,-19.5 251,-19.5 251,-0.5 171,-0.5"/>
<text text-anchor="middle" x="211" y="-7.5" font-family="Helvetica,sans-Serif" font-size="10.00">yarp/os/Wire.h</text>
</g>
<!-- Node5&#45;&gt;Node6 -->
<g id="edge6" class="edge"><title>Node5&#45;&gt;Node6</title>
<path fill="none" stroke="midnightblue" d="M290.088,-180.427C241.146,-169.11 172.912,-143.655 152,-88 146.998,-74.6865 145.691,-68.7464 152,-56 158.603,-42.6595 171.265,-32.1941 183.171,-24.7262"/>
<polygon fill="midnightblue" stroke="midnightblue" points="185.118,-27.6435 192.016,-19.6018 181.609,-21.5866 185.118,-27.6435"/>
</g>
<!-- Node7 -->
<g id="node7" class="node"><title>Node7</title>
<polygon fill="none" stroke="#bfbfbf" points="283,-0.5 283,-19.5 403,-19.5 403,-0.5 283,-0.5"/>
<text text-anchor="middle" x="343" y="-7.5" font-family="Helvetica,sans-Serif" font-size="10.00">yarp/os/idl/WireTypes.h</text>
</g>
<!-- Node5&#45;&gt;Node7 -->
<g id="edge7" class="edge"><title>Node5&#45;&gt;Node7</title>
<path fill="none" stroke="midnightblue" d="M343,-180.415C343,-153.227 343,-68.5626 343,-30.2169"/>
<polygon fill="midnightblue" stroke="midnightblue" points="346.5,-29.9184 343,-19.9185 339.5,-29.9185 346.5,-29.9184"/>
</g>
<!-- Node8 -->
<g id="node8" class="node"><title>Node8</title>
<g id="a_node8"><a xlink:href="human-state-provider_2autogenerated_2include_2thrifts_2_quaternion_8h.html" target="_top" xlink:title="thrifts/Quaternion.h">
<polygon fill="none" stroke="black" points="223,-124.5 223,-143.5 323,-143.5 323,-124.5 223,-124.5"/>
<text text-anchor="middle" x="273" y="-131.5" font-family="Helvetica,sans-Serif" font-size="10.00">thrifts/Quaternion.h</text>
</a>
</g>
</g>
<!-- Node5&#45;&gt;Node8 -->
<g id="edge8" class="edge"><title>Node5&#45;&gt;Node8</title>
<path fill="none" stroke="midnightblue" d="M331.753,-180.324C321.203,-172.185 305.199,-159.839 292.558,-150.087"/>
<polygon fill="midnightblue" stroke="midnightblue" points="294.507,-147.171 284.451,-143.834 290.231,-152.713 294.507,-147.171"/>
</g>
<!-- Node9 -->
<g id="node9" class="node"><title>Node9</title>
<g id="a_node9"><a xlink:href="human-state-provider_2autogenerated_2include_2thrifts_2_vector3_8h.html" target="_top" xlink:title="thrifts/Vector3.h">
<polygon fill="none" stroke="black" points="161,-62.5 161,-81.5 247,-81.5 247,-62.5 161,-62.5"/>
<text text-anchor="middle" x="204" y="-69.5" font-family="Helvetica,sans-Serif" font-size="10.00">thrifts/Vector3.h</text>
</a>
</g>
</g>
<!-- Node5&#45;&gt;Node9 -->
<g id="edge14" class="edge"><title>Node5&#45;&gt;Node9</title>
<path fill="none" stroke="midnightblue" d="M305.347,-180.472C271.658,-172.054 225.817,-158.389 214,-144 202.049,-129.447 200.73,-107.3 201.652,-91.616"/>
<polygon fill="midnightblue" stroke="midnightblue" points="205.147,-91.8226 202.598,-81.5391 198.178,-91.1679 205.147,-91.8226"/>
</g>
<!-- Node5&#45;&gt;Node10 -->
<g id="edge15" class="edge"><title>Node5&#45;&gt;Node10</title>
<path fill="none" stroke="midnightblue" d="M356.175,-180.324C368.847,-171.979 388.233,-159.212 403.206,-149.352"/>
<polygon fill="midnightblue" stroke="midnightblue" points="405.431,-152.078 411.858,-143.655 401.581,-146.231 405.431,-152.078"/>
</g>
<!-- Node8&#45;&gt;Node6 -->
<g id="edge9" class="edge"><title>Node8&#45;&gt;Node6</title>
<path fill="none" stroke="midnightblue" d="M272.657,-124.365C271.739,-109.517 268.369,-78.5699 256,-56 249.739,-44.5762 239.7,-34.1297 230.691,-26.1835"/>
<polygon fill="midnightblue" stroke="midnightblue" points="232.764,-23.3549 222.844,-19.6326 228.277,-28.7283 232.764,-23.3549"/>
</g>
<!-- Node8&#45;&gt;Node7 -->
<g id="edge10" class="edge"><title>Node8&#45;&gt;Node7</title>
<path fill="none" stroke="midnightblue" d="M278.034,-124.226C289.487,-104.266 317.672,-55.1438 332.88,-28.6378"/>
<polygon fill="midnightblue" stroke="midnightblue" points="336.07,-30.11 338.011,-19.6944 329.999,-26.6263 336.07,-30.11"/>
</g>
<!-- Node8&#45;&gt;Node9 -->
<g id="edge11" class="edge"><title>Node8&#45;&gt;Node9</title>
<path fill="none" stroke="midnightblue" d="M263.114,-124.403C252.354,-115.047 234.929,-99.8948 221.779,-88.4599"/>
<polygon fill="midnightblue" stroke="midnightblue" points="223.71,-85.5013 213.868,-81.5806 219.117,-90.7835 223.71,-85.5013"/>
</g>
<!-- Node9&#45;&gt;Node6 -->
<g id="edge12" class="edge"><title>Node9&#45;&gt;Node6</title>
<path fill="none" stroke="midnightblue" d="M205.003,-62.4035C205.991,-53.9381 207.532,-40.7283 208.804,-29.8199"/>
<polygon fill="midnightblue" stroke="midnightblue" points="212.316,-29.9188 209.999,-19.5806 205.364,-29.1076 212.316,-29.9188"/>
</g>
<!-- Node9&#45;&gt;Node7 -->
<g id="edge13" class="edge"><title>Node9&#45;&gt;Node7</title>
<path fill="none" stroke="midnightblue" d="M223.915,-62.4035C247.449,-52.245 286.81,-35.2547 313.793,-23.6074"/>
<polygon fill="midnightblue" stroke="midnightblue" points="315.328,-26.7572 323.122,-19.5806 312.553,-20.3303 315.328,-26.7572"/>
</g>
<!-- Node11&#45;&gt;Node6 -->
<g id="edge17" class="edge"><title>Node11&#45;&gt;Node6</title>
<path fill="none" stroke="midnightblue" d="M411.573,-56.9327C364.665,-46.1904 300.991,-31.6087 258.074,-21.7804"/>
<polygon fill="midnightblue" stroke="midnightblue" points="258.701,-18.3334 248.172,-19.5127 257.138,-25.1567 258.701,-18.3334"/>
</g>
<!-- Node11&#45;&gt;Node7 -->
<g id="edge18" class="edge"><title>Node11&#45;&gt;Node7</title>
<path fill="none" stroke="midnightblue" d="M442.521,-56.9327C420.882,-46.9455 392.053,-33.6397 370.994,-23.9205"/>
<polygon fill="midnightblue" stroke="midnightblue" points="372.18,-20.6128 361.633,-19.6 369.246,-26.9685 372.18,-20.6128"/>
</g>
<!-- Node17&#45;&gt;Node18 -->
<g id="edge25" class="edge"><title>Node17&#45;&gt;Node18</title>
<path fill="none" stroke="midnightblue" d="M2248.97,-180.083C2251.38,-172.849 2254.86,-162.409 2257.87,-153.397"/>
<polygon fill="midnightblue" stroke="midnightblue" points="2261.24,-154.345 2261.08,-143.751 2254.6,-152.131 2261.24,-154.345"/>
</g>
<!-- Node17&#45;&gt;Node19 -->
<g id="edge26" class="edge"><title>Node17&#45;&gt;Node19</title>
<path fill="none" stroke="midnightblue" d="M2229.61,-180.324C2213.33,-171.703 2188.13,-158.364 2169.28,-148.386"/>
<polygon fill="midnightblue" stroke="midnightblue" points="2170.82,-145.24 2160.35,-143.655 2167.55,-151.427 2170.82,-145.24"/>
</g>
<!-- Node17&#45;&gt;Node20 -->
<g id="edge27" class="edge"><title>Node17&#45;&gt;Node20</title>
<path fill="none" stroke="midnightblue" d="M2267.71,-180.444C2290.35,-171.517 2326.07,-157.439 2351.75,-147.317"/>
<polygon fill="midnightblue" stroke="midnightblue" points="2353.37,-150.44 2361.39,-143.516 2350.81,-143.927 2353.37,-150.44"/>
</g>
<!-- Node28&#45;&gt;Node20 -->
<g id="edge43" class="edge"><title>Node28&#45;&gt;Node20</title>
<path fill="none" stroke="midnightblue" d="M2440.5,-236.105C2455.32,-223.527 2477.82,-199.86 2466,-180 2454.91,-161.376 2433.13,-149.985 2414.67,-143.325"/>
<polygon fill="midnightblue" stroke="midnightblue" points="2415.71,-139.982 2405.11,-140.177 2413.51,-146.63 2415.71,-139.982"/>
</g>
<!-- Node28&#45;&gt;Node27 -->
<g id="edge39" class="edge"><title>Node28&#45;&gt;Node27</title>
<path fill="none" stroke="midnightblue" d="M2430.16,-236.083C2431.08,-228.927 2432.42,-218.635 2433.58,-209.691"/>
<polygon fill="midnightblue" stroke="midnightblue" points="2437.05,-210.118 2434.87,-199.751 2430.11,-209.218 2437.05,-210.118"/>
</g>
<!-- Node29 -->
<g id="node29" class="node"><title>Node29</title>
<polygon fill="none" stroke="#bfbfbf" points="2514.5,-180.5 2514.5,-199.5 2609.5,-199.5 2609.5,-180.5 2514.5,-180.5"/>
<text text-anchor="middle" x="2562" y="-187.5" font-family="Helvetica,sans-Serif" font-size="10.00">condition_variable</text>
</g>
<!-- Node28&#45;&gt;Node29 -->
<g id="edge40" class="edge"><title>Node28&#45;&gt;Node29</title>
<path fill="none" stroke="midnightblue" d="M2450.07,-236.444C2472.06,-227.517 2506.73,-213.439 2531.66,-203.317"/>
<polygon fill="midnightblue" stroke="midnightblue" points="2533.08,-206.521 2541.02,-199.516 2530.44,-200.035 2533.08,-206.521"/>
</g>
<!-- Node30 -->
<g id="node30" class="node"><title>Node30</title>
<polygon fill="none" stroke="#bfbfbf" points="2627.5,-180.5 2627.5,-199.5 2710.5,-199.5 2710.5,-180.5 2627.5,-180.5"/>
<text text-anchor="middle" x="2669" y="-187.5" font-family="Helvetica,sans-Serif" font-size="10.00">unordered_map</text>
</g>
<!-- Node28&#45;&gt;Node30 -->
<g id="edge41" class="edge"><title>Node28&#45;&gt;Node30</title>
<path fill="none" stroke="midnightblue" d="M2467.03,-236.444C2508.81,-227.043 2575.98,-211.929 2621.27,-201.739"/>
<polygon fill="midnightblue" stroke="midnightblue" points="2622.16,-205.126 2631.15,-199.516 2620.62,-198.297 2622.16,-205.126"/>
</g>
<!-- Node31 -->
<g id="node31" class="node"><title>Node31</title>
<polygon fill="none" stroke="#bfbfbf" points="2728.5,-180.5 2728.5,-199.5 2771.5,-199.5 2771.5,-180.5 2728.5,-180.5"/>
<text text-anchor="middle" x="2750" y="-187.5" font-family="Helvetica,sans-Serif" font-size="10.00">queue</text>
</g>
<!-- Node28&#45;&gt;Node31 -->
<g id="edge42" class="edge"><title>Node28&#45;&gt;Node31</title>
<path fill="none" stroke="midnightblue" d="M2487.74,-236.797C2555.15,-227.234 2662.57,-211.498 2718.57,-199.789"/>
<polygon fill="midnightblue" stroke="midnightblue" points="2719.38,-203.195 2728.41,-197.652 2717.9,-196.355 2719.38,-203.195"/>
</g>
</g>
</svg>
