<?xml version="1.0" encoding="UTF-8" standalone="no"?>
<!DOCTYPE svg PUBLIC "-//W3C//DTD SVG 1.1//EN"
 "http://www.w3.org/Graphics/SVG/1.1/DTD/svg11.dtd">
<!-- Generated by graphviz version 2.36.0 (20140111.2315)
 -->
<!-- Title: /home/travis/build/robotology/human&#45;dynamics&#45;estimation/human&#45;viz&#45;bridge/src/HumanTFBridge.cpp Pages: 1 -->
<svg width="2805pt" height="118pt"
 viewBox="0.00 0.00 2805.00 118.00" xmlns="http://www.w3.org/2000/svg" xmlns:xlink="http://www.w3.org/1999/xlink">
<g id="graph0" class="graph" transform="scale(1 1) rotate(0) translate(4 114)">
<title>/home/travis/build/robotology/human&#45;dynamics&#45;estimation/human&#45;viz&#45;bridge/src/HumanTFBridge.cpp</title>
<!-- Node1 -->
<g id="node1" class="node"><title>Node1</title>
<polygon fill="#bfbfbf" stroke="black" points="1656,-57 1656,-109 1798,-109 1798,-57 1656,-57"/>
<text text-anchor="start" x="1664" y="-97" font-family="Helvetica,sans-Serif" font-size="10.00">/home/travis/build</text>
<text text-anchor="start" x="1664" y="-86" font-family="Helvetica,sans-Serif" font-size="10.00">/robotology/human&#45;dynamics</text>
<text text-anchor="start" x="1664" y="-75" font-family="Helvetica,sans-Serif" font-size="10.00">&#45;estimation/human&#45;viz&#45;bridge</text>
<text text-anchor="middle" x="1727" y="-64" font-family="Helvetica,sans-Serif" font-size="10.00">/src/HumanTFBridge.cpp</text>
</g>
<!-- Node2 -->
<g id="node2" class="node"><title>Node2</title>
<polygon fill="none" stroke="#bfbfbf" points="-0.5,-0.5 -0.5,-19.5 146.5,-19.5 146.5,-0.5 -0.5,-0.5"/>
<text text-anchor="middle" x="73" y="-7.5" font-family="Helvetica,sans-Serif" font-size="10.00">geometry_msgs_Quaternion.h</text>
</g>
<!-- Node1&#45;&gt;Node2 -->
<g id="edge1" class="edge"><title>Node1&#45;&gt;Node2</title>
<path fill="none" stroke="midnightblue" d="M1655.61,-80.9606C1434.51,-77.3629 741.301,-63.2401 157.054,-20.1045"/>
<polygon fill="midnightblue" stroke="midnightblue" points="156.966,-16.5885 146.735,-19.3388 156.448,-23.5693 156.966,-16.5885"/>
</g>
<!-- Node3 -->
<g id="node3" class="node"><title>Node3</title>
<polygon fill="none" stroke="#bfbfbf" points="164.5,-0.5 164.5,-19.5 347.5,-19.5 347.5,-0.5 164.5,-0.5"/>
<text text-anchor="middle" x="256" y="-7.5" font-family="Helvetica,sans-Serif" font-size="10.00">geometry_msgs_TransformStamped.h</text>
</g>
<!-- Node1&#45;&gt;Node3 -->
<g id="edge2" class="edge"><title>Node1&#45;&gt;Node3</title>
<path fill="none" stroke="midnightblue" d="M1655.99,-79.8805C1454.49,-73.6317 861.673,-53.6255 357.666,-20.013"/>
<polygon fill="midnightblue" stroke="midnightblue" points="357.856,-16.518 347.645,-19.3421 357.389,-23.5024 357.856,-16.518"/>
</g>
<!-- Node4 -->
<g id="node4" class="node"><title>Node4</title>
<polygon fill="none" stroke="#bfbfbf" points="366,-0.5 366,-19.5 500,-19.5 500,-0.5 366,-0.5"/>
<text text-anchor="middle" x="433" y="-7.5" font-family="Helvetica,sans-Serif" font-size="10.00">geometry_msgs_Vector3.h</text>
</g>
<!-- Node1&#45;&gt;Node4 -->
<g id="edge3" class="edge"><title>Node1&#45;&gt;Node4</title>
<path fill="none" stroke="midnightblue" d="M1655.84,-80.0447C1469.51,-74.5667 951.796,-57.0442 510.201,-20.0445"/>
<polygon fill="midnightblue" stroke="midnightblue" points="510.37,-16.5465 500.112,-19.1946 509.783,-23.5218 510.37,-16.5465"/>
</g>
<!-- Node5 -->
<g id="node5" class="node"><title>Node5</title>
<polygon fill="none" stroke="#bfbfbf" points="518.5,-0.5 518.5,-19.5 595.5,-19.5 595.5,-0.5 518.5,-0.5"/>
<text text-anchor="middle" x="557" y="-7.5" font-family="Helvetica,sans-Serif" font-size="10.00">msgs/String.h</text>
</g>
<!-- Node1&#45;&gt;Node5 -->
<g id="edge4" class="edge"><title>Node1&#45;&gt;Node5</title>
<path fill="none" stroke="midnightblue" d="M1655.83,-81.2756C1479.47,-78.7906 1008.02,-67.9342 605.791,-19.9183"/>
<polygon fill="midnightblue" stroke="midnightblue" points="606.052,-16.4245 595.706,-18.7047 605.216,-23.3744 606.052,-16.4245"/>
</g>
<!-- Node6 -->
<g id="node6" class="node"><title>Node6</title>
<polygon fill="none" stroke="#bfbfbf" points="614,-0.5 614,-19.5 718,-19.5 718,-0.5 614,-0.5"/>
<text text-anchor="middle" x="666" y="-7.5" font-family="Helvetica,sans-Serif" font-size="10.00">std_msgs_Header.h</text>
</g>
<!-- Node1&#45;&gt;Node6 -->
<g id="edge5" class="edge"><title>Node1&#45;&gt;Node6</title>
<path fill="none" stroke="midnightblue" d="M1655.9,-79.6583C1493.41,-73.8595 1082.23,-56.6529 728.395,-20.0598"/>
<polygon fill="midnightblue" stroke="midnightblue" points="728.515,-16.5535 718.207,-18.9991 727.791,-23.5159 728.515,-16.5535"/>
</g>
<!-- Node7 -->
<g id="node7" class="node"><title>Node7</title>
<polygon fill="none" stroke="#bfbfbf" points="736,-0.5 736,-19.5 858,-19.5 858,-0.5 736,-0.5"/>
<text text-anchor="middle" x="797" y="-7.5" font-family="Helvetica,sans-Serif" font-size="10.00">tf2_msgs_TFMessage.h</text>
</g>
<!-- Node1&#45;&gt;Node7 -->
<g id="edge6" class="edge"><title>Node1&#45;&gt;Node7</title>
<path fill="none" stroke="midnightblue" d="M1655.81,-78.2178C1510.06,-70.1802 1166.94,-49.7517 868.221,-20.0697"/>
<polygon fill="midnightblue" stroke="midnightblue" points="868.359,-16.5661 858.06,-19.0548 867.663,-23.5315 868.359,-16.5661"/>
</g>
<!-- Node8 -->
<g id="node8" class="node"><title>Node8</title>
<polygon fill="none" stroke="#bfbfbf" points="876.5,-0.5 876.5,-19.5 941.5,-19.5 941.5,-0.5 876.5,-0.5"/>
<text text-anchor="middle" x="909" y="-7.5" font-family="Helvetica,sans-Serif" font-size="10.00">TickTime.h</text>
</g>
<!-- Node1&#45;&gt;Node8 -->
<g id="edge7" class="edge"><title>Node1&#45;&gt;Node8</title>
<path fill="none" stroke="midnightblue" d="M1655.77,-79.4396C1520.43,-73.8923 1216.76,-58.177 952.129,-19.9714"/>
<polygon fill="midnightblue" stroke="midnightblue" points="952.341,-16.4653 941.941,-18.4864 951.331,-23.3922 952.341,-16.4653"/>
</g>
<!-- Node9 -->
<g id="node9" class="node"><title>Node9</title>
<polygon fill="none" stroke="#bfbfbf" points="960,-0.5 960,-19.5 1094,-19.5 1094,-0.5 960,-0.5"/>
<text text-anchor="middle" x="1027" y="-7.5" font-family="Helvetica,sans-Serif" font-size="10.00">thrift/XsensDriverService.h</text>
</g>
<!-- Node1&#45;&gt;Node9 -->
<g id="edge8" class="edge"><title>Node1&#45;&gt;Node9</title>
<path fill="none" stroke="midnightblue" d="M1655.83,-75.3688C1541.8,-64.6462 1310.82,-42.5276 1104.26,-20.1201"/>
<polygon fill="midnightblue" stroke="midnightblue" points="1104.45,-16.6203 1094.13,-19.019 1103.69,-23.5793 1104.45,-16.6203"/>
</g>
<!-- Node10 -->
<g id="node10" class="node"><title>Node10</title>
<polygon fill="none" stroke="#bfbfbf" points="1112.5,-0.5 1112.5,-19.5 1259.5,-19.5 1259.5,-0.5 1112.5,-0.5"/>
<text text-anchor="middle" x="1186" y="-7.5" font-family="Helvetica,sans-Serif" font-size="10.00">thrift/XsensSegmentsFrame.h</text>
</g>
<!-- Node1&#45;&gt;Node10 -->
<g id="edge9" class="edge"><title>Node1&#45;&gt;Node10</title>
<path fill="none" stroke="midnightblue" d="M1656,-72.6815C1553.76,-59.2645 1365.92,-34.613 1261.33,-20.8868"/>
<polygon fill="midnightblue" stroke="midnightblue" points="1261.54,-17.3838 1251.17,-19.5527 1260.63,-24.3243 1261.54,-17.3838"/>
</g>
<!-- Node11 -->
<g id="node11" class="node"><title>Node11</title>
<polygon fill="none" stroke="#bfbfbf" points="1278,-0.5 1278,-19.5 1406,-19.5 1406,-0.5 1278,-0.5"/>
<text text-anchor="middle" x="1342" y="-7.5" font-family="Helvetica,sans-Serif" font-size="10.00">iDynTree/Model/Indices.h</text>
</g>
<!-- Node1&#45;&gt;Node11 -->
<g id="edge10" class="edge"><title>Node1&#45;&gt;Node11</title>
<path fill="none" stroke="midnightblue" d="M1655.94,-68.8948C1581.64,-55.1935 1466.56,-33.9699 1398.3,-21.3831"/>
<polygon fill="midnightblue" stroke="midnightblue" points="1398.64,-17.8868 1388.17,-19.5151 1397.37,-24.7707 1398.64,-17.8868"/>
</g>
<!-- Node12 -->
<g id="node12" class="node"><title>Node12</title>
<polygon fill="none" stroke="#bfbfbf" points="1424.5,-0.5 1424.5,-19.5 1587.5,-19.5 1587.5,-0.5 1424.5,-0.5"/>
<text text-anchor="middle" x="1506" y="-7.5" font-family="Helvetica,sans-Serif" font-size="10.00">iDynTree/ModelIO/ModelLoader.h</text>
</g>
<!-- Node1&#45;&gt;Node12 -->
<g id="edge11" class="edge"><title>Node1&#45;&gt;Node12</title>
<path fill="none" stroke="midnightblue" d="M1655.86,-59.1443C1617.99,-46.9797 1573.04,-32.5366 1542.31,-22.6643"/>
<polygon fill="midnightblue" stroke="midnightblue" points="1543.05,-19.2279 1532.46,-19.5014 1540.91,-25.8925 1543.05,-19.2279"/>
</g>
<!-- Node13 -->
<g id="node13" class="node"><title>Node13</title>
<polygon fill="none" stroke="#bfbfbf" points="1605.5,-0.5 1605.5,-19.5 1720.5,-19.5 1720.5,-0.5 1605.5,-0.5"/>
<text text-anchor="middle" x="1663" y="-7.5" font-family="Helvetica,sans-Serif" font-size="10.00">yarp/os/BufferedPort.h</text>
</g>
<!-- Node1&#45;&gt;Node13 -->
<g id="edge12" class="edge"><title>Node1&#45;&gt;Node13</title>
<path fill="none" stroke="midnightblue" d="M1704.26,-56.7681C1695.43,-46.9817 1685.59,-36.0561 1677.72,-27.3346"/>
<polygon fill="midnightblue" stroke="midnightblue" points="1680.19,-24.8415 1670.89,-19.7572 1674.99,-29.5283 1680.19,-24.8415"/>
</g>
<!-- Node14 -->
<g id="node14" class="node"><title>Node14</title>
<polygon fill="none" stroke="#bfbfbf" points="1738.5,-0.5 1738.5,-19.5 1845.5,-19.5 1845.5,-0.5 1738.5,-0.5"/>
<text text-anchor="middle" x="1792" y="-7.5" font-family="Helvetica,sans-Serif" font-size="10.00">yarp/os/LogStream.h</text>
</g>
<!-- Node1&#45;&gt;Node14 -->
<g id="edge13" class="edge"><title>Node1&#45;&gt;Node14</title>
<path fill="none" stroke="midnightblue" d="M1750.1,-56.7681C1759.06,-46.9817 1769.06,-36.0561 1777.05,-27.3346"/>
<polygon fill="midnightblue" stroke="midnightblue" points="1779.81,-29.4964 1783.98,-19.7572 1774.65,-24.7696 1779.81,-29.4964"/>
</g>
<!-- Node15 -->
<g id="node15" class="node"><title>Node15</title>
<polygon fill="none" stroke="#bfbfbf" points="1863.5,-0.5 1863.5,-19.5 1960.5,-19.5 1960.5,-0.5 1863.5,-0.5"/>
<text text-anchor="middle" x="1912" y="-7.5" font-family="Helvetica,sans-Serif" font-size="10.00">yarp/os/Network.h</text>
</g>
<!-- Node1&#45;&gt;Node15 -->
<g id="edge14" class="edge"><title>Node1&#45;&gt;Node15</title>
<path fill="none" stroke="midnightblue" d="M1792.22,-56.9681C1822.03,-45.5288 1855.99,-32.4969 1880.11,-23.2373"/>
<polygon fill="midnightblue" stroke="midnightblue" points="1881.41,-26.4896 1889.49,-19.6389 1878.9,-19.9544 1881.41,-26.4896"/>
</g>
<!-- Node16 -->
<g id="node16" class="node"><title>Node16</title>
<polygon fill="none" stroke="#bfbfbf" points="1978.5,-0.5 1978.5,-19.5 2061.5,-19.5 2061.5,-0.5 1978.5,-0.5"/>
<text text-anchor="middle" x="2020" y="-7.5" font-family="Helvetica,sans-Serif" font-size="10.00">yarp/os/Node.h</text>
</g>
<!-- Node1&#45;&gt;Node16 -->
<g id="edge15" class="edge"><title>Node1&#45;&gt;Node16</title>
<path fill="none" stroke="midnightblue" d="M1798.3,-64.7222C1853.38,-51.376 1927.91,-33.3155 1974.97,-21.9106"/>
<polygon fill="midnightblue" stroke="midnightblue" points="1975.98,-25.2687 1984.87,-19.512 1974.33,-18.4656 1975.98,-25.2687"/>
</g>
<!-- Node17 -->
<g id="node17" class="node"><title>Node17</title>
<polygon fill="none" stroke="#bfbfbf" points="2079.5,-0.5 2079.5,-19.5 2180.5,-19.5 2180.5,-0.5 2079.5,-0.5"/>
<text text-anchor="middle" x="2130" y="-7.5" font-family="Helvetica,sans-Serif" font-size="10.00">yarp/os/Publisher.h</text>
</g>
<!-- Node1&#45;&gt;Node17 -->
<g id="edge16" class="edge"><title>Node1&#45;&gt;Node17</title>
<path fill="none" stroke="midnightblue" d="M1798.12,-69.4701C1876.03,-55.7443 1999.51,-33.9899 2071.85,-21.2441"/>
<polygon fill="midnightblue" stroke="midnightblue" points="2072.47,-24.6893 2081.71,-19.5072 2071.26,-17.7954 2072.47,-24.6893"/>
</g>
<!-- Node18 -->
<g id="node18" class="node"><title>Node18</title>
<polygon fill="none" stroke="#bfbfbf" points="2198.5,-0.5 2198.5,-19.5 2303.5,-19.5 2303.5,-0.5 2198.5,-0.5"/>
<text text-anchor="middle" x="2251" y="-7.5" font-family="Helvetica,sans-Serif" font-size="10.00">yarp/os/RFModule.h</text>
</g>
<!-- Node1&#45;&gt;Node18 -->
<g id="edge17" class="edge"><title>Node1&#45;&gt;Node18</title>
<path fill="none" stroke="midnightblue" d="M1798.26,-72.6782C1887,-61.0163 2043.51,-40.2695 2188.28,-20.0881"/>
<polygon fill="midnightblue" stroke="midnightblue" points="2188.82,-23.5469 2198.24,-18.698 2187.85,-16.6141 2188.82,-23.5469"/>
</g>
<!-- Node19 -->
<g id="node19" class="node"><title>Node19</title>
<polygon fill="none" stroke="#bfbfbf" points="2322,-0.5 2322,-19.5 2404,-19.5 2404,-0.5 2322,-0.5"/>
<text text-anchor="middle" x="2363" y="-7.5" font-family="Helvetica,sans-Serif" font-size="10.00">yarp/os/Time.h</text>
</g>
<!-- Node1&#45;&gt;Node19 -->
<g id="edge18" class="edge"><title>Node1&#45;&gt;Node19</title>
<path fill="none" stroke="midnightblue" d="M1798.34,-76.0403C1906.83,-66.6219 2119.99,-46.7284 2311.86,-19.9191"/>
<polygon fill="midnightblue" stroke="midnightblue" points="2312.43,-23.3731 2321.84,-18.5145 2311.45,-16.4414 2312.43,-23.3731"/>
</g>
<!-- Node20 -->
<g id="node20" class="node"><title>Node20</title>
<polygon fill="none" stroke="#bfbfbf" points="2422,-0.5 2422,-19.5 2478,-19.5 2478,-0.5 2422,-0.5"/>
<text text-anchor="middle" x="2450" y="-7.5" font-family="Helvetica,sans-Serif" font-size="10.00">algorithm</text>
</g>
<!-- Node1&#45;&gt;Node20 -->
<g id="edge19" class="edge"><title>Node1&#45;&gt;Node20</title>
<path fill="none" stroke="midnightblue" d="M1798.05,-79.0586C1921.26,-73.1962 2182.53,-57.4056 2411.61,-19.9973"/>
<polygon fill="midnightblue" stroke="midnightblue" points="2412.51,-23.3964 2421.81,-18.3145 2411.37,-16.4899 2412.51,-23.3964"/>
</g>
<!-- Node21 -->
<g id="node21" class="node"><title>Node21</title>
<polygon fill="none" stroke="#bfbfbf" points="2496,-0.5 2496,-19.5 2540,-19.5 2540,-0.5 2496,-0.5"/>
<text text-anchor="middle" x="2518" y="-7.5" font-family="Helvetica,sans-Serif" font-size="10.00">cmath</text>
</g>
<!-- Node1&#45;&gt;Node21 -->
<g id="edge20" class="edge"><title>Node1&#45;&gt;Node21</title>
<path fill="none" stroke="midnightblue" d="M1798.22,-80.7454C1931.64,-77.4027 2228.18,-65.2767 2485.83,-19.6272"/>
<polygon fill="midnightblue" stroke="midnightblue" points="2486.52,-23.0588 2495.75,-17.8496 2485.29,-16.1686 2486.52,-23.0588"/>
</g>
<!-- Node22 -->
<g id="node22" class="node"><title>Node22</title>
<polygon fill="none" stroke="#bfbfbf" points="2558,-0.5 2558,-19.5 2612,-19.5 2612,-0.5 2558,-0.5"/>
<text text-anchor="middle" x="2585" y="-7.5" font-family="Helvetica,sans-Serif" font-size="10.00">iostream</text>
</g>
<!-- Node1&#45;&gt;Node22 -->
<g id="edge21" class="edge"><title>Node1&#45;&gt;Node22</title>
<path fill="none" stroke="midnightblue" d="M1798.01,-80.5327C1939.19,-76.7694 2265.11,-63.859 2547.59,-19.7685"/>
<polygon fill="midnightblue" stroke="midnightblue" points="2548.29,-23.2019 2557.62,-18.1869 2547.2,-16.2873 2548.29,-23.2019"/>
</g>
<!-- Node23 -->
<g id="node23" class="node"><title>Node23</title>
<polygon fill="none" stroke="#bfbfbf" points="2630.5,-0.5 2630.5,-19.5 2675.5,-19.5 2675.5,-0.5 2630.5,-0.5"/>
<text text-anchor="middle" x="2653" y="-7.5" font-family="Helvetica,sans-Serif" font-size="10.00">climits</text>
</g>
<!-- Node1&#45;&gt;Node23 -->
<g id="edge22" class="edge"><title>Node1&#45;&gt;Node23</title>
<path fill="none" stroke="midnightblue" d="M1798.29,-81.9916C1948.9,-80.9081 2310.37,-72.6806 2620.33,-19.7143"/>
<polygon fill="midnightblue" stroke="midnightblue" points="2621.15,-23.1245 2630.41,-17.973 2619.96,-16.2267 2621.15,-23.1245"/>
</g>
<!-- Node24 -->
<g id="node24" class="node"><title>Node24</title>
<polygon fill="none" stroke="#bfbfbf" points="2693.5,-0.5 2693.5,-19.5 2734.5,-19.5 2734.5,-0.5 2693.5,-0.5"/>
<text text-anchor="middle" x="2714" y="-7.5" font-family="Helvetica,sans-Serif" font-size="10.00">string</text>
</g>
<!-- Node1&#45;&gt;Node24 -->
<g id="edge23" class="edge"><title>Node1&#45;&gt;Node24</title>
<path fill="none" stroke="midnightblue" d="M1798.2,-82.8694C1956.45,-83.6223 2349.12,-78.9661 2683.61,-19.5934"/>
<polygon fill="midnightblue" stroke="midnightblue" points="2684.27,-23.032 2693.49,-17.8208 2683.03,-16.1421 2684.27,-23.032"/>
</g>
<!-- Node25 -->
<g id="node25" class="node"><title>Node25</title>
<polygon fill="none" stroke="#bfbfbf" points="2753,-0.5 2753,-19.5 2797,-19.5 2797,-0.5 2753,-0.5"/>
<text text-anchor="middle" x="2775" y="-7.5" font-family="Helvetica,sans-Serif" font-size="10.00">vector</text>
</g>
<!-- Node1&#45;&gt;Node25 -->
<g id="edge24" class="edge"><title>Node1&#45;&gt;Node25</title>
<path fill="none" stroke="midnightblue" d="M1798.11,-82.8426C1963.04,-83.6837 2384.21,-79.4293 2742.7,-19.6048"/>
<polygon fill="midnightblue" stroke="midnightblue" points="2743.48,-23.0235 2752.76,-17.9095 2742.32,-16.121 2743.48,-23.0235"/>
</g>
</g>
</svg>
