<?xml version="1.0" encoding="UTF-8" standalone="no"?>
<!DOCTYPE svg PUBLIC "-//W3C//DTD SVG 1.1//EN"
 "http://www.w3.org/Graphics/SVG/1.1/DTD/svg11.dtd">
<!-- Generated by graphviz version 2.36.0 (20140111.2315)
 -->
<!-- Title: /home/travis/build/robotology/human&#45;dynamics&#45;estimation/human&#45;viz&#45;bridge/src/HumanJointStateBridge.cpp Pages: 1 -->
<!--zoomable 286 -->
<svg id="main" version="1.1" xmlns="http://www.w3.org/2000/svg" xmlns:xlink="http://www.w3.org/1999/xlink" xml:space="preserve" onload="init(evt)">
<style type="text/css"><![CDATA[
.edge:hover path { stroke: red; }
.edge:hover polygon { stroke: red; fill: red; }
]]></style>
<script type="text/javascript"><![CDATA[
var edges = document.getElementsByTagName('g');
if (edges && edges.length) {
  for (var i=0;i<edges.length;i++) {
    if (edges[i].id.substr(0,4)=='edge') {
      edges[i].setAttribute('class','edge');
    }
  }
}
]]></script>
        <defs>
                <circle id="rim" cx="0" cy="0" r="7"/>
                <circle id="rim2" cx="0" cy="0" r="3.5"/>
                <g id="zoomPlus">
                        <use xlink:href="#rim" fill="#404040">
                                <set attributeName="fill" to="#808080" begin="zoomplus.mouseover" end="zoomplus.mouseout"/>
                        </use>
                        <path d="M-4,0h8M0,-4v8" fill="none" stroke="white" stroke-width="1.5" pointer-events="none"/>
                </g>
                <g id="zoomMin">
                        <use xlink:href="#rim" fill="#404040">
                                <set attributeName="fill" to="#808080" begin="zoomminus.mouseover" end="zoomminus.mouseout"/>
                        </use>
                        <path d="M-4,0h8" fill="none" stroke="white" stroke-width="1.5" pointer-events="none"/>
                </g>
                <g id="dirArrow">
                        <path fill="none" stroke="white" stroke-width="1.5" d="M0,-3.0v7 M-2.5,-0.5L0,-3.0L2.5,-0.5"/>
                </g>
               <g id="resetDef">
                       <use xlink:href="#rim2" fill="#404040">
                               <set attributeName="fill" to="#808080" begin="reset.mouseover" end="reset.mouseout"/>
                       </use>
               </g>
        </defs>

<script type="text/javascript">
var viewWidth = 3411;
var viewHeight = 286;
var sectionId = 'dynsection-0';
</script>
<script xlink:href="svgpan.js"/>
<svg id="graph" class="graph">
<g id="viewport">
<title>/home/travis/build/robotology/human&#45;dynamics&#45;estimation/human&#45;viz&#45;bridge/src/HumanJointStateBridge.cpp</title>
<!-- Node1 -->
<g id="node1" class="node"><title>Node1</title>
<polygon fill="#bfbfbf" stroke="black" points="1971,-225 1971,-277 2129,-277 2129,-225 1971,-225"/>
<text text-anchor="start" x="1979" y="-265" font-family="Helvetica,sans-Serif" font-size="10.00">/home/travis/build</text>
<text text-anchor="start" x="1979" y="-254" font-family="Helvetica,sans-Serif" font-size="10.00">/robotology/human&#45;dynamics</text>
<text text-anchor="start" x="1979" y="-243" font-family="Helvetica,sans-Serif" font-size="10.00">&#45;estimation/human&#45;viz&#45;bridge</text>
<text text-anchor="middle" x="2050" y="-232" font-family="Helvetica,sans-Serif" font-size="10.00">/src/HumanJointStateBridge.cpp</text>
</g>
<!-- Node2 -->
<g id="node2" class="node"><title>Node2</title>
<polygon fill="none" stroke="#bfbfbf" points="-0.5,-168.5 -0.5,-187.5 146.5,-187.5 146.5,-168.5 -0.5,-168.5"/>
<text text-anchor="middle" x="73" y="-175.5" font-family="Helvetica,sans-Serif" font-size="10.00">geometry_msgs_Quaternion.h</text>
</g>
<!-- Node1&#45;&gt;Node2 -->
<g id="edge1" class="edge"><title>Node1&#45;&gt;Node2</title>
<path fill="none" stroke="midnightblue" d="M1970.91,-249.58C1712,-247.745 866.163,-238.102 156.902,-188.083"/>
<polygon fill="midnightblue" stroke="midnightblue" points="156.955,-184.578 146.733,-187.362 156.461,-191.56 156.955,-184.578"/>
</g>
<!-- Node3 -->
<g id="node3" class="node"><title>Node3</title>
<polygon fill="none" stroke="#bfbfbf" points="164.5,-168.5 164.5,-187.5 347.5,-187.5 347.5,-168.5 164.5,-168.5"/>
<text text-anchor="middle" x="256" y="-175.5" font-family="Helvetica,sans-Serif" font-size="10.00">geometry_msgs_TransformStamped.h</text>
</g>
<!-- Node1&#45;&gt;Node3 -->
<g id="edge2" class="edge"><title>Node1&#45;&gt;Node3</title>
<path fill="none" stroke="midnightblue" d="M1970.59,-248.567C1729.71,-243.903 985.889,-227.183 357.807,-188.013"/>
<polygon fill="midnightblue" stroke="midnightblue" points="357.842,-184.509 347.643,-187.377 357.404,-191.495 357.842,-184.509"/>
</g>
<!-- Node4 -->
<g id="node4" class="node"><title>Node4</title>
<polygon fill="none" stroke="#bfbfbf" points="366,-168.5 366,-187.5 500,-187.5 500,-168.5 366,-168.5"/>
<text text-anchor="middle" x="433" y="-175.5" font-family="Helvetica,sans-Serif" font-size="10.00">geometry_msgs_Vector3.h</text>
</g>
<!-- Node1&#45;&gt;Node4 -->
<g id="edge3" class="edge"><title>Node1&#45;&gt;Node4</title>
<path fill="none" stroke="midnightblue" d="M1970.94,-248.94C1744.91,-245.455 1076.42,-231.979 510.164,-187.937"/>
<polygon fill="midnightblue" stroke="midnightblue" points="510.405,-184.445 500.162,-187.155 509.859,-191.424 510.405,-184.445"/>
</g>
<!-- Node5 -->
<g id="node5" class="node"><title>Node5</title>
<polygon fill="none" stroke="#bfbfbf" points="518.5,-168.5 518.5,-187.5 595.5,-187.5 595.5,-168.5 518.5,-168.5"/>
<text text-anchor="middle" x="557" y="-175.5" font-family="Helvetica,sans-Serif" font-size="10.00">msgs/String.h</text>
</g>
<!-- Node1&#45;&gt;Node5 -->
<g id="edge4" class="edge"><title>Node1&#45;&gt;Node5</title>
<path fill="none" stroke="midnightblue" d="M1970.98,-250.552C1754.14,-251.222 1131.55,-247.483 605.765,-187.895"/>
<polygon fill="midnightblue" stroke="midnightblue" points="606.033,-184.403 595.701,-186.746 605.239,-191.358 606.033,-184.403"/>
</g>
<!-- Node6 -->
<g id="node6" class="node"><title>Node6</title>
<polygon fill="none" stroke="#bfbfbf" points="613.5,-168.5 613.5,-187.5 746.5,-187.5 746.5,-168.5 613.5,-168.5"/>
<text text-anchor="middle" x="680" y="-175.5" font-family="Helvetica,sans-Serif" font-size="10.00">sensor_msgs_JointState.h</text>
</g>
<!-- Node1&#45;&gt;Node6 -->
<g id="edge5" class="edge"><title>Node1&#45;&gt;Node6</title>
<path fill="none" stroke="midnightblue" d="M1970.73,-248.133C1769.66,-242.982 1223.29,-226.389 757.009,-188.019"/>
<polygon fill="midnightblue" stroke="midnightblue" points="756.956,-184.503 746.701,-187.166 756.379,-191.479 756.956,-184.503"/>
</g>
<!-- Node7 -->
<g id="node7" class="node"><title>Node7</title>
<polygon fill="none" stroke="#bfbfbf" points="765,-168.5 765,-187.5 869,-187.5 869,-168.5 765,-168.5"/>
<text text-anchor="middle" x="817" y="-175.5" font-family="Helvetica,sans-Serif" font-size="10.00">std_msgs_Header.h</text>
</g>
<!-- Node1&#45;&gt;Node7 -->
<g id="edge6" class="edge"><title>Node1&#45;&gt;Node7</title>
<path fill="none" stroke="midnightblue" d="M1970.93,-248.371C1783.23,-243.953 1295.99,-229.245 879.341,-188.04"/>
<polygon fill="midnightblue" stroke="midnightblue" points="879.501,-184.538 869.204,-187.03 878.808,-191.504 879.501,-184.538"/>
</g>
<!-- Node8 -->
<g id="node8" class="node"><title>Node8</title>
<polygon fill="none" stroke="#bfbfbf" points="887,-168.5 887,-187.5 1009,-187.5 1009,-168.5 887,-168.5"/>
<text text-anchor="middle" x="948" y="-175.5" font-family="Helvetica,sans-Serif" font-size="10.00">tf2_msgs_TFMessage.h</text>
</g>
<!-- Node1&#45;&gt;Node8 -->
<g id="edge7" class="edge"><title>Node1&#45;&gt;Node8</title>
<path fill="none" stroke="midnightblue" d="M1970.96,-247.028C1799.68,-240.201 1381.26,-221.434 1019.32,-187.958"/>
<polygon fill="midnightblue" stroke="midnightblue" points="1019.44,-184.455 1009.16,-187.013 1018.8,-191.424 1019.44,-184.455"/>
</g>
<!-- Node9 -->
<g id="node9" class="node"><title>Node9</title>
<g id="a_node9"><a xlink:href="autogenerated_2include_2thrifts_2_human_state_8h.html" target="_top" xlink:title="thrifts/HumanState.h">
<polygon fill="none" stroke="black" points="1027.5,-168.5 1027.5,-187.5 1134.5,-187.5 1134.5,-168.5 1027.5,-168.5"/>
<text text-anchor="middle" x="1081" y="-175.5" font-family="Helvetica,sans-Serif" font-size="10.00">thrifts/HumanState.h</text>
</a>
</g>
</g>
<!-- Node1&#45;&gt;Node9 -->
<g id="edge8" class="edge"><title>Node1&#45;&gt;Node9</title>
<path fill="none" stroke="midnightblue" d="M1970.76,-246.541C1814.73,-239.301 1456.56,-220.561 1144.72,-187.994"/>
<polygon fill="midnightblue" stroke="midnightblue" points="1144.89,-184.493 1134.58,-186.928 1144.16,-191.454 1144.89,-184.493"/>
</g>
<!-- Node15 -->
<g id="node15" class="node"><title>Node15</title>
<polygon fill="none" stroke="#bfbfbf" points="1152.5,-168.5 1152.5,-187.5 1315.5,-187.5 1315.5,-168.5 1152.5,-168.5"/>
<text text-anchor="middle" x="1234" y="-175.5" font-family="Helvetica,sans-Serif" font-size="10.00">iDynTree/ModelIO/ModelLoader.h</text>
</g>
<!-- Node1&#45;&gt;Node15 -->
<g id="edge19" class="edge"><title>Node1&#45;&gt;Node15</title>
<path fill="none" stroke="midnightblue" d="M1970.85,-243.577C1839.36,-232.831 1567.33,-210.274 1325.87,-188.07"/>
<polygon fill="midnightblue" stroke="midnightblue" points="1326.13,-184.578 1315.85,-187.147 1325.48,-191.549 1326.13,-184.578"/>
</g>
<!-- Node16 -->
<g id="node16" class="node"><title>Node16</title>
<polygon fill="none" stroke="#bfbfbf" points="1334,-168.5 1334,-187.5 1470,-187.5 1470,-168.5 1334,-168.5"/>
<text text-anchor="middle" x="1402" y="-175.5" font-family="Helvetica,sans-Serif" font-size="10.00">iDynTree/Core/Transform.h</text>
</g>
<!-- Node1&#45;&gt;Node16 -->
<g id="edge20" class="edge"><title>Node1&#45;&gt;Node16</title>
<path fill="none" stroke="midnightblue" d="M1970.68,-241.538C1860.55,-229.75 1655.09,-207.624 1480,-188 1479.9,-187.989 1479.8,-187.977 1479.69,-187.966"/>
<polygon fill="midnightblue" stroke="midnightblue" points="1480.39,-184.522 1470.06,-186.88 1479.61,-191.478 1480.39,-184.522"/>
</g>
<!-- Node17 -->
<g id="node17" class="node"><title>Node17</title>
<polygon fill="none" stroke="#bfbfbf" points="1488.5,-168.5 1488.5,-187.5 1615.5,-187.5 1615.5,-168.5 1488.5,-168.5"/>
<text text-anchor="middle" x="1552" y="-175.5" font-family="Helvetica,sans-Serif" font-size="10.00">iDynTree/Core/Position.h</text>
</g>
<!-- Node1&#45;&gt;Node17 -->
<g id="edge21" class="edge"><title>Node1&#45;&gt;Node17</title>
<path fill="none" stroke="midnightblue" d="M1970.82,-238.711C1874.53,-224.983 1713.54,-202.031 1621.74,-188.943"/>
<polygon fill="midnightblue" stroke="midnightblue" points="1622.11,-185.46 1611.71,-187.513 1621.12,-192.39 1622.11,-185.46"/>
</g>
<!-- Node18 -->
<g id="node18" class="node"><title>Node18</title>
<polygon fill="none" stroke="#bfbfbf" points="1634,-168.5 1634,-187.5 1762,-187.5 1762,-168.5 1634,-168.5"/>
<text text-anchor="middle" x="1698" y="-175.5" font-family="Helvetica,sans-Serif" font-size="10.00">iDynTree/Core/Rotation.h</text>
</g>
<!-- Node1&#45;&gt;Node18 -->
<g id="edge22" class="edge"><title>Node1&#45;&gt;Node18</title>
<path fill="none" stroke="midnightblue" d="M1970.57,-233.978C1903.23,-220.396 1808.59,-201.306 1750.38,-189.566"/>
<polygon fill="midnightblue" stroke="midnightblue" points="1750.8,-186.08 1740.31,-187.533 1749.42,-192.942 1750.8,-186.08"/>
</g>
<!-- Node19 -->
<g id="node19" class="node"><title>Node19</title>
<polygon fill="none" stroke="#bfbfbf" points="1780.5,-168.5 1780.5,-187.5 1845.5,-187.5 1845.5,-168.5 1780.5,-168.5"/>
<text text-anchor="middle" x="1813" y="-175.5" font-family="Helvetica,sans-Serif" font-size="10.00">TickTime.h</text>
</g>
<!-- Node1&#45;&gt;Node19 -->
<g id="edge23" class="edge"><title>Node1&#45;&gt;Node19</title>
<path fill="none" stroke="midnightblue" d="M1970.75,-226.259C1930.56,-214.219 1883.58,-200.144 1851.4,-190.505"/>
<polygon fill="midnightblue" stroke="midnightblue" points="1852.09,-187.057 1841.51,-187.54 1850.08,-193.762 1852.09,-187.057"/>
</g>
<!-- Node20 -->
<g id="node20" class="node"><title>Node20</title>
<polygon fill="none" stroke="#bfbfbf" points="1863.5,-168.5 1863.5,-187.5 1978.5,-187.5 1978.5,-168.5 1863.5,-168.5"/>
<text text-anchor="middle" x="1921" y="-175.5" font-family="Helvetica,sans-Serif" font-size="10.00">yarp/os/BufferedPort.h</text>
</g>
<!-- Node1&#45;&gt;Node20 -->
<g id="edge24" class="edge"><title>Node1&#45;&gt;Node20</title>
<path fill="none" stroke="midnightblue" d="M2004.52,-224.968C1984.75,-214.088 1962.37,-201.767 1945.75,-192.622"/>
<polygon fill="midnightblue" stroke="midnightblue" points="1947.14,-189.394 1936.7,-187.639 1943.77,-195.527 1947.14,-189.394"/>
</g>
<!-- Node21 -->
<g id="node21" class="node"><title>Node21</title>
<polygon fill="none" stroke="#bfbfbf" points="1996.5,-168.5 1996.5,-187.5 2103.5,-187.5 2103.5,-168.5 1996.5,-168.5"/>
<text text-anchor="middle" x="2050" y="-175.5" font-family="Helvetica,sans-Serif" font-size="10.00">yarp/os/LogStream.h</text>
</g>
<!-- Node1&#45;&gt;Node21 -->
<g id="edge25" class="edge"><title>Node1&#45;&gt;Node21</title>
<path fill="none" stroke="midnightblue" d="M2050,-224.768C2050,-215.89 2050,-206.074 2050,-197.816"/>
<polygon fill="midnightblue" stroke="midnightblue" points="2053.5,-197.757 2050,-187.757 2046.5,-197.757 2053.5,-197.757"/>
</g>
<!-- Node22 -->
<g id="node22" class="node"><title>Node22</title>
<polygon fill="none" stroke="#bfbfbf" points="2121.5,-168.5 2121.5,-187.5 2218.5,-187.5 2218.5,-168.5 2121.5,-168.5"/>
<text text-anchor="middle" x="2170" y="-175.5" font-family="Helvetica,sans-Serif" font-size="10.00">yarp/os/Network.h</text>
</g>
<!-- Node1&#45;&gt;Node22 -->
<g id="edge26" class="edge"><title>Node1&#45;&gt;Node22</title>
<path fill="none" stroke="midnightblue" d="M2092.31,-224.968C2110.52,-214.19 2131.13,-201.997 2146.54,-192.879"/>
<polygon fill="midnightblue" stroke="midnightblue" points="2148.57,-195.743 2155.4,-187.639 2145.01,-189.719 2148.57,-195.743"/>
</g>
<!-- Node23 -->
<g id="node23" class="node"><title>Node23</title>
<polygon fill="none" stroke="#bfbfbf" points="2236.5,-168.5 2236.5,-187.5 2319.5,-187.5 2319.5,-168.5 2236.5,-168.5"/>
<text text-anchor="middle" x="2278" y="-175.5" font-family="Helvetica,sans-Serif" font-size="10.00">yarp/os/Node.h</text>
</g>
<!-- Node1&#45;&gt;Node23 -->
<g id="edge27" class="edge"><title>Node1&#45;&gt;Node23</title>
<path fill="none" stroke="midnightblue" d="M2129.1,-225.367C2167.01,-213.564 2210.6,-199.988 2240.78,-190.589"/>
<polygon fill="midnightblue" stroke="midnightblue" points="2241.97,-193.886 2250.48,-187.571 2239.89,-187.202 2241.97,-193.886"/>
</g>
<!-- Node24 -->
<g id="node24" class="node"><title>Node24</title>
<polygon fill="none" stroke="#bfbfbf" points="2337.5,-168.5 2337.5,-187.5 2434.5,-187.5 2434.5,-168.5 2337.5,-168.5"/>
<text text-anchor="middle" x="2386" y="-175.5" font-family="Helvetica,sans-Serif" font-size="10.00">yarp/os/Property.h</text>
</g>
<!-- Node1&#45;&gt;Node24 -->
<g id="edge28" class="edge"><title>Node1&#45;&gt;Node24</title>
<path fill="none" stroke="midnightblue" d="M2129.2,-233.264C2193.13,-219.756 2281.13,-201.16 2335.74,-189.62"/>
<polygon fill="midnightblue" stroke="midnightblue" points="2336.48,-193.042 2345.54,-187.55 2335.03,-186.193 2336.48,-193.042"/>
</g>
<!-- Node25 -->
<g id="node25" class="node"><title>Node25</title>
<polygon fill="none" stroke="#bfbfbf" points="2452.5,-168.5 2452.5,-187.5 2553.5,-187.5 2553.5,-168.5 2452.5,-168.5"/>
<text text-anchor="middle" x="2503" y="-175.5" font-family="Helvetica,sans-Serif" font-size="10.00">yarp/os/Publisher.h</text>
</g>
<!-- Node1&#45;&gt;Node25 -->
<g id="edge29" class="edge"><title>Node1&#45;&gt;Node25</title>
<path fill="none" stroke="midnightblue" d="M2129.17,-237.592C2218.43,-223.602 2361.61,-201.16 2442.41,-188.496"/>
<polygon fill="midnightblue" stroke="midnightblue" points="2443.09,-191.932 2452.43,-186.926 2442.01,-185.017 2443.09,-191.932"/>
</g>
<!-- Node26 -->
<g id="node26" class="node"><title>Node26</title>
<polygon fill="none" stroke="#bfbfbf" points="2571.5,-168.5 2571.5,-187.5 2676.5,-187.5 2676.5,-168.5 2571.5,-168.5"/>
<text text-anchor="middle" x="2624" y="-175.5" font-family="Helvetica,sans-Serif" font-size="10.00">yarp/os/RFModule.h</text>
</g>
<!-- Node1&#45;&gt;Node26 -->
<g id="edge30" class="edge"><title>Node1&#45;&gt;Node26</title>
<path fill="none" stroke="midnightblue" d="M2129.01,-241.019C2227.59,-229.682 2401.58,-209.239 2561.24,-188.075"/>
<polygon fill="midnightblue" stroke="midnightblue" points="2561.79,-191.531 2571.25,-186.744 2560.87,-184.592 2561.79,-191.531"/>
</g>
<!-- Node27 -->
<g id="node27" class="node"><title>Node27</title>
<polygon fill="none" stroke="#bfbfbf" points="2695,-168.5 2695,-187.5 2777,-187.5 2777,-168.5 2695,-168.5"/>
<text text-anchor="middle" x="2736" y="-175.5" font-family="Helvetica,sans-Serif" font-size="10.00">yarp/os/Time.h</text>
</g>
<!-- Node1&#45;&gt;Node27 -->
<g id="edge31" class="edge"><title>Node1&#45;&gt;Node27</title>
<path fill="none" stroke="midnightblue" d="M2129.43,-244.229C2247.94,-235.178 2478.24,-215.892 2684.72,-187.925"/>
<polygon fill="midnightblue" stroke="midnightblue" points="2685.41,-191.363 2694.85,-186.544 2684.47,-184.428 2685.41,-191.363"/>
</g>
<!-- Node28 -->
<g id="node28" class="node"><title>Node28</title>
<polygon fill="none" stroke="#bfbfbf" points="2795.5,-168.5 2795.5,-187.5 2882.5,-187.5 2882.5,-168.5 2795.5,-168.5"/>
<text text-anchor="middle" x="2839" y="-175.5" font-family="Helvetica,sans-Serif" font-size="10.00">yarp/os/Mutex.h</text>
</g>
<!-- Node1&#45;&gt;Node28 -->
<g id="edge32" class="edge"><title>Node1&#45;&gt;Node28</title>
<path fill="none" stroke="midnightblue" d="M2129.19,-245.522C2262.44,-237.504 2540.07,-218.726 2785.2,-187.993"/>
<polygon fill="midnightblue" stroke="midnightblue" points="2785.89,-191.433 2795.37,-186.708 2785.01,-184.489 2785.89,-191.433"/>
</g>
<!-- Node29 -->
<g id="node29" class="node"><title>Node29</title>
<polygon fill="none" stroke="#bfbfbf" points="2900.5,-168.5 2900.5,-187.5 3007.5,-187.5 3007.5,-168.5 2900.5,-168.5"/>
<text text-anchor="middle" x="2954" y="-175.5" font-family="Helvetica,sans-Serif" font-size="10.00">yarp/os/LockGuard.h</text>
</g>
<!-- Node1&#45;&gt;Node29 -->
<g id="edge33" class="edge"><title>Node1&#45;&gt;Node29</title>
<path fill="none" stroke="midnightblue" d="M2129.01,-245.98C2276.46,-238.082 2603.75,-218.689 2890.24,-188.005"/>
<polygon fill="midnightblue" stroke="midnightblue" points="2890.85,-191.46 2900.42,-186.909 2890.1,-184.5 2890.85,-191.46"/>
</g>
<!-- Node30 -->
<g id="node30" class="node"><title>Node30</title>
<polygon fill="none" stroke="#bfbfbf" points="3025,-168.5 3025,-187.5 3081,-187.5 3081,-168.5 3025,-168.5"/>
<text text-anchor="middle" x="3053" y="-175.5" font-family="Helvetica,sans-Serif" font-size="10.00">algorithm</text>
</g>
<!-- Node1&#45;&gt;Node30 -->
<g id="edge34" class="edge"><title>Node1&#45;&gt;Node30</title>
<path fill="none" stroke="midnightblue" d="M2129.07,-249.582C2292.91,-247.705 2681.27,-238.023 3014.48,-187.96"/>
<polygon fill="midnightblue" stroke="midnightblue" points="3015.46,-191.352 3024.82,-186.391 3014.41,-184.432 3015.46,-191.352"/>
</g>
<!-- Node31 -->
<g id="node31" class="node"><title>Node31</title>
<polygon fill="none" stroke="#bfbfbf" points="3099,-168.5 3099,-187.5 3143,-187.5 3143,-168.5 3099,-168.5"/>
<text text-anchor="middle" x="3121" y="-175.5" font-family="Helvetica,sans-Serif" font-size="10.00">cmath</text>
</g>
<!-- Node1&#45;&gt;Node31 -->
<g id="edge35" class="edge"><title>Node1&#45;&gt;Node31</title>
<path fill="none" stroke="midnightblue" d="M2129.35,-247.47C2335.59,-240.547 2885.89,-219.773 3088.78,-187.555"/>
<polygon fill="midnightblue" stroke="midnightblue" points="3089.46,-190.991 3098.76,-185.913 3088.32,-184.084 3089.46,-190.991"/>
</g>
<!-- Node32 -->
<g id="node32" class="node"><title>Node32</title>
<polygon fill="none" stroke="#bfbfbf" points="3161,-168.5 3161,-187.5 3215,-187.5 3215,-168.5 3161,-168.5"/>
<text text-anchor="middle" x="3188" y="-175.5" font-family="Helvetica,sans-Serif" font-size="10.00">iostream</text>
</g>
<!-- Node1&#45;&gt;Node32 -->
<g id="edge36" class="edge"><title>Node1&#45;&gt;Node32</title>
<path fill="none" stroke="midnightblue" d="M2129.27,-250.472C2309.45,-250.48 2763.46,-244.491 3150.64,-187.725"/>
<polygon fill="midnightblue" stroke="midnightblue" points="3151.25,-191.172 3160.63,-186.246 3150.23,-184.248 3151.25,-191.172"/>
</g>
<!-- Node33 -->
<g id="node33" class="node"><title>Node33</title>
<polygon fill="none" stroke="#bfbfbf" points="3233,-168.5 3233,-187.5 3281,-187.5 3281,-168.5 3233,-168.5"/>
<text text-anchor="middle" x="3257" y="-175.5" font-family="Helvetica,sans-Serif" font-size="10.00">limits.h</text>
</g>
<!-- Node1&#45;&gt;Node33 -->
<g id="edge37" class="edge"><title>Node1&#45;&gt;Node33</title>
<path fill="none" stroke="midnightblue" d="M2129.19,-248.022C2353.84,-242.066 2993.19,-222.64 3223,-187.754"/>
<polygon fill="midnightblue" stroke="midnightblue" points="3223.64,-191.197 3232.98,-186.188 3222.56,-184.281 3223.64,-191.197"/>
</g>
<!-- Node34 -->
<g id="node34" class="node"><title>Node34</title>
<polygon fill="none" stroke="#bfbfbf" points="3299.5,-168.5 3299.5,-187.5 3340.5,-187.5 3340.5,-168.5 3299.5,-168.5"/>
<text text-anchor="middle" x="3320" y="-175.5" font-family="Helvetica,sans-Serif" font-size="10.00">string</text>
</g>
<!-- Node1&#45;&gt;Node34 -->
<g id="edge38" class="edge"><title>Node1&#45;&gt;Node34</title>
<path fill="none" stroke="midnightblue" d="M2129.02,-248.541C2362.3,-243.846 3046.32,-227.187 3289.64,-187.525"/>
<polygon fill="midnightblue" stroke="midnightblue" points="3290.22,-190.976 3299.5,-185.862 3289.06,-184.073 3290.22,-190.976"/>
</g>
<!-- Node35 -->
<g id="node35" class="node"><title>Node35</title>
<polygon fill="none" stroke="#bfbfbf" points="3359,-168.5 3359,-187.5 3403,-187.5 3403,-168.5 3359,-168.5"/>
<text text-anchor="middle" x="3381" y="-175.5" font-family="Helvetica,sans-Serif" font-size="10.00">vector</text>
</g>
<!-- Node1&#45;&gt;Node35 -->
<g id="edge39" class="edge"><title>Node1&#45;&gt;Node35</title>
<path fill="none" stroke="midnightblue" d="M2129.26,-248.568C2370.26,-243.846 3092.82,-226.894 3348.76,-187.538"/>
<polygon fill="midnightblue" stroke="midnightblue" points="3349.44,-190.974 3358.76,-185.948 3348.34,-184.06 3349.44,-190.974"/>
</g>
<!-- Node10 -->
<g id="node10" class="node"><title>Node10</title>
<polygon fill="none" stroke="#bfbfbf" points="918,-0.5 918,-19.5 998,-19.5 998,-0.5 918,-0.5"/>
<text text-anchor="middle" x="958" y="-7.5" font-family="Helvetica,sans-Serif" font-size="10.00">yarp/os/Wire.h</text>
</g>
<!-- Node9&#45;&gt;Node10 -->
<g id="edge9" class="edge"><title>Node9&#45;&gt;Node10</title>
<path fill="none" stroke="midnightblue" d="M1037.42,-168.463C1001.67,-160.471 955.196,-147.461 944,-132 921.763,-101.29 937.542,-54.2429 948.994,-28.8074"/>
<polygon fill="midnightblue" stroke="midnightblue" points="952.228,-30.1571 953.37,-19.6241 945.908,-27.1458 952.228,-30.1571"/>
</g>
<!-- Node11 -->
<g id="node11" class="node"><title>Node11</title>
<polygon fill="none" stroke="#bfbfbf" points="1016,-0.5 1016,-19.5 1136,-19.5 1136,-0.5 1016,-0.5"/>
<text text-anchor="middle" x="1076" y="-7.5" font-family="Helvetica,sans-Serif" font-size="10.00">yarp/os/idl/WireTypes.h</text>
</g>
<!-- Node9&#45;&gt;Node11 -->
<g id="edge10" class="edge"><title>Node9&#45;&gt;Node11</title>
<path fill="none" stroke="midnightblue" d="M1088.57,-168.338C1105.15,-148.261 1141.81,-97.118 1124,-56 1118.73,-43.8399 1108.38,-33.4594 1098.64,-25.7429"/>
<polygon fill="midnightblue" stroke="midnightblue" points="1100.5,-22.7707 1090.37,-19.6698 1096.36,-28.4116 1100.5,-22.7707"/>
</g>
<!-- Node12 -->
<g id="node12" class="node"><title>Node12</title>
<g id="a_node12"><a xlink:href="human-state-provider_2autogenerated_2include_2thrifts_2_quaternion_8h.html" target="_top" xlink:title="thrifts/Quaternion.h">
<polygon fill="none" stroke="black" points="953,-112.5 953,-131.5 1053,-131.5 1053,-112.5 953,-112.5"/>
<text text-anchor="middle" x="1003" y="-119.5" font-family="Helvetica,sans-Serif" font-size="10.00">thrifts/Quaternion.h</text>
</a>
</g>
</g>
<!-- Node9&#45;&gt;Node12 -->
<g id="edge11" class="edge"><title>Node9&#45;&gt;Node12</title>
<path fill="none" stroke="midnightblue" d="M1068.47,-168.324C1056.41,-159.979 1037.97,-147.212 1023.73,-137.352"/>
<polygon fill="midnightblue" stroke="midnightblue" points="1025.72,-134.469 1015.5,-131.655 1021.73,-140.224 1025.72,-134.469"/>
</g>
<!-- Node13 -->
<g id="node13" class="node"><title>Node13</title>
<g id="a_node13"><a xlink:href="human-state-provider_2autogenerated_2include_2thrifts_2_vector3_8h.html" target="_top" xlink:title="thrifts/Vector3.h">
<polygon fill="none" stroke="black" points="1029,-56.5 1029,-75.5 1115,-75.5 1115,-56.5 1029,-56.5"/>
<text text-anchor="middle" x="1072" y="-63.5" font-family="Helvetica,sans-Serif" font-size="10.00">thrifts/Vector3.h</text>
</a>
</g>
</g>
<!-- Node9&#45;&gt;Node13 -->
<g id="edge17" class="edge"><title>Node9&#45;&gt;Node13</title>
<path fill="none" stroke="midnightblue" d="M1080.29,-168.368C1078.84,-150.617 1075.49,-109.666 1073.52,-85.5974"/>
<polygon fill="midnightblue" stroke="midnightblue" points="1077.01,-85.2727 1072.7,-75.5914 1070.03,-85.8436 1077.01,-85.2727"/>
</g>
<!-- Node14 -->
<g id="node14" class="node"><title>Node14</title>
<polygon fill="none" stroke="#bfbfbf" points="1171.5,-112.5 1171.5,-131.5 1262.5,-131.5 1262.5,-112.5 1171.5,-112.5"/>
<text text-anchor="middle" x="1217" y="-119.5" font-family="Helvetica,sans-Serif" font-size="10.00">yarp/sig/Vector.h</text>
</g>
<!-- Node9&#45;&gt;Node14 -->
<g id="edge18" class="edge"><title>Node9&#45;&gt;Node14</title>
<path fill="none" stroke="midnightblue" d="M1102.55,-168.444C1125.03,-159.517 1160.49,-145.439 1185.98,-135.317"/>
<polygon fill="midnightblue" stroke="midnightblue" points="1187.55,-138.46 1195.55,-131.516 1184.97,-131.954 1187.55,-138.46"/>
</g>
<!-- Node12&#45;&gt;Node10 -->
<g id="edge12" class="edge"><title>Node12&#45;&gt;Node10</title>
<path fill="none" stroke="midnightblue" d="M999.469,-112.368C992.141,-94.4563 975.15,-52.9233 965.342,-28.9482"/>
<polygon fill="midnightblue" stroke="midnightblue" points="968.54,-27.5217 961.515,-19.5914 962.062,-30.1721 968.54,-27.5217"/>
</g>
<!-- Node12&#45;&gt;Node11 -->
<g id="edge13" class="edge"><title>Node12&#45;&gt;Node11</title>
<path fill="none" stroke="midnightblue" d="M1003.55,-112.312C1004.73,-99.1535 1008.46,-73.817 1020,-56 1028.08,-43.5279 1040.77,-32.9176 1052.03,-25.1377"/>
<polygon fill="midnightblue" stroke="midnightblue" points="1054.17,-27.9187 1060.63,-19.5237 1050.35,-22.0557 1054.17,-27.9187"/>
</g>
<!-- Node12&#45;&gt;Node13 -->
<g id="edge14" class="edge"><title>Node12&#45;&gt;Node13</title>
<path fill="none" stroke="midnightblue" d="M1014.09,-112.324C1024.49,-104.185 1040.26,-91.8395 1052.72,-82.0874"/>
<polygon fill="midnightblue" stroke="midnightblue" points="1054.99,-84.7533 1060.71,-75.8339 1050.68,-79.2407 1054.99,-84.7533"/>
</g>
<!-- Node13&#45;&gt;Node10 -->
<g id="edge15" class="edge"><title>Node13&#45;&gt;Node10</title>
<path fill="none" stroke="midnightblue" d="M1053.94,-56.4435C1035.43,-47.6751 1006.42,-33.9355 985.145,-23.8579"/>
<polygon fill="midnightblue" stroke="midnightblue" points="986.515,-20.6343 975.979,-19.5164 983.518,-26.9604 986.515,-20.6343"/>
</g>
<!-- Node13&#45;&gt;Node11 -->
<g id="edge16" class="edge"><title>Node13&#45;&gt;Node11</title>
<path fill="none" stroke="midnightblue" d="M1072.66,-56.083C1073.18,-49.0059 1073.94,-38.8611 1074.59,-29.9865"/>
<polygon fill="midnightblue" stroke="midnightblue" points="1078.1,-29.9823 1075.35,-19.7511 1071.12,-29.4652 1078.1,-29.9823"/>
</g>
</g>
</svg>
        <g id="navigator" transform="translate(0 0)" fill="#404254">
                <rect fill="#f2f5e9" fill-opacity="0.5" stroke="#606060" stroke-width=".5" x="0" y="0" width="60" height="60"/>
                <use id="zoomplus" xlink:href="#zoomPlus" x="17" y="9" onmousedown="handleZoom(evt,'in')"/>
                <use id="zoomminus" xlink:href="#zoomMin" x="42" y="9" onmousedown="handleZoom(evt,'out')"/>
                <use id="reset" xlink:href="#resetDef" x="30" y="36" onmousedown="handleReset()"/>
                <g id="arrowUp" xlink:href="#dirArrow" transform="translate(30 24)" onmousedown="handlePan(0,-1)">
                  <use xlink:href="#rim" fill="#404040">
                        <set attributeName="fill" to="#808080" begin="arrowUp.mouseover" end="arrowUp.mouseout"/>
                  </use>
                  <path fill="none" stroke="white" stroke-width="1.5" d="M0,-3.0v7 M-2.5,-0.5L0,-3.0L2.5,-0.5"/>
                </g>
                <g id="arrowRight" xlink:href="#dirArrow" transform="rotate(90) translate(36 -43)" onmousedown="handlePan(1,0)">
                  <use xlink:href="#rim" fill="#404040">
                        <set attributeName="fill" to="#808080" begin="arrowRight.mouseover" end="arrowRight.mouseout"/>
                  </use>
                  <path fill="none" stroke="white" stroke-width="1.5" d="M0,-3.0v7 M-2.5,-0.5L0,-3.0L2.5,-0.5"/>
                </g>
                <g id="arrowDown" xlink:href="#dirArrow" transform="rotate(180) translate(-30 -48)" onmousedown="handlePan(0,1)">
                  <use xlink:href="#rim" fill="#404040">
                        <set attributeName="fill" to="#808080" begin="arrowDown.mouseover" end="arrowDown.mouseout"/>
                  </use>
                  <path fill="none" stroke="white" stroke-width="1.5" d="M0,-3.0v7 M-2.5,-0.5L0,-3.0L2.5,-0.5"/>
                </g>
                <g id="arrowLeft" xlink:href="#dirArrow" transform="rotate(270) translate(-36 17)" onmousedown="handlePan(-1,0)">
                  <use xlink:href="#rim" fill="#404040">
                        <set attributeName="fill" to="#808080" begin="arrowLeft.mouseover" end="arrowLeft.mouseout"/>
                  </use>
                  <path fill="none" stroke="white" stroke-width="1.5" d="M0,-3.0v7 M-2.5,-0.5L0,-3.0L2.5,-0.5"/>
                </g>
        </g>
        <svg viewBox="0 0 15 15" width="100%" height="30px" preserveAspectRatio="xMaxYMin meet">
         <g id="arrow_out" transform="scale(0.3 0.3)">
          <a xlink:href="_human_joint_state_bridge_8cpp__incl_org.svg" target="_base">
           <rect id="button" ry="5" rx="5" y="6" x="6" height="38" width="38"
                fill="#f2f5e9" fill-opacity="0.5" stroke="#606060" stroke-width="1.0"/>
           <path id="arrow"
             d="M 11.500037,31.436501 C 11.940474,20.09759 22.043105,11.32322 32.158766,21.979434 L 37.068811,17.246167 C 37.068811,17.246167 37.088388,32 37.088388,32 L 22.160133,31.978069 C 22.160133,31.978069 26.997745,27.140456 26.997745,27.140456 C 18.528582,18.264221 13.291696,25.230495 11.500037,31.436501 z"
             style="fill:#404040;"/>
          </a>
         </g>
        </svg>
</svg>
