<?xml version="1.0" encoding="UTF-8" standalone="no"?>
<!DOCTYPE svg PUBLIC "-//W3C//DTD SVG 1.1//EN"
 "http://www.w3.org/Graphics/SVG/1.1/DTD/svg11.dtd">
<!-- Generated by graphviz version 2.36.0 (20140111.2315)
 -->
<!-- Title: /home/travis/build/robotology/human&#45;dynamics&#45;estimation/human&#45;viz&#45;bridge/src/HumanJointStateBridge.cpp Pages: 1 -->
<!--zoomable 118 -->
<svg id="main" version="1.1" xmlns="http://www.w3.org/2000/svg" xmlns:xlink="http://www.w3.org/1999/xlink" xml:space="preserve" onload="init(evt)">
<style type="text/css"><![CDATA[
.edge:hover path { stroke: red; }
.edge:hover polygon { stroke: red; fill: red; }
]]></style>
<script type="text/javascript"><![CDATA[
var edges = document.getElementsByTagName('g');
if (edges && edges.length) {
  for (var i=0;i<edges.length;i++) {
    if (edges[i].id.substr(0,4)=='edge') {
      edges[i].setAttribute('class','edge');
    }
  }
}
]]></script>
        <defs>
                <circle id="rim" cx="0" cy="0" r="7"/>
                <circle id="rim2" cx="0" cy="0" r="3.5"/>
                <g id="zoomPlus">
                        <use xlink:href="#rim" fill="#404040">
                                <set attributeName="fill" to="#808080" begin="zoomplus.mouseover" end="zoomplus.mouseout"/>
                        </use>
                        <path d="M-4,0h8M0,-4v8" fill="none" stroke="white" stroke-width="1.5" pointer-events="none"/>
                </g>
                <g id="zoomMin">
                        <use xlink:href="#rim" fill="#404040">
                                <set attributeName="fill" to="#808080" begin="zoomminus.mouseover" end="zoomminus.mouseout"/>
                        </use>
                        <path d="M-4,0h8" fill="none" stroke="white" stroke-width="1.5" pointer-events="none"/>
                </g>
                <g id="dirArrow">
                        <path fill="none" stroke="white" stroke-width="1.5" d="M0,-3.0v7 M-2.5,-0.5L0,-3.0L2.5,-0.5"/>
                </g>
               <g id="resetDef">
                       <use xlink:href="#rim2" fill="#404040">
                               <set attributeName="fill" to="#808080" begin="reset.mouseover" end="reset.mouseout"/>
                       </use>
               </g>
        </defs>

<script type="text/javascript">
var viewWidth = 3411;
var viewHeight = 118;
var sectionId = 'dynsection-0';
</script>
<script xlink:href="svgpan.js"/>
<svg id="graph" class="graph">
<g id="viewport">
<title>/home/travis/build/robotology/human&#45;dynamics&#45;estimation/human&#45;viz&#45;bridge/src/HumanJointStateBridge.cpp</title>
<!-- Node1 -->
<g id="node1" class="node"><title>Node1</title>
<polygon fill="#bfbfbf" stroke="black" points="1971,-57 1971,-109 2129,-109 2129,-57 1971,-57"/>
<text text-anchor="start" x="1979" y="-97" font-family="Helvetica,sans-Serif" font-size="10.00">/home/travis/build</text>
<text text-anchor="start" x="1979" y="-86" font-family="Helvetica,sans-Serif" font-size="10.00">/robotology/human&#45;dynamics</text>
<text text-anchor="start" x="1979" y="-75" font-family="Helvetica,sans-Serif" font-size="10.00">&#45;estimation/human&#45;viz&#45;bridge</text>
<text text-anchor="middle" x="2050" y="-64" font-family="Helvetica,sans-Serif" font-size="10.00">/src/HumanJointStateBridge.cpp</text>
</g>
<!-- Node2 -->
<g id="node2" class="node"><title>Node2</title>
<polygon fill="none" stroke="#bfbfbf" points="-0.5,-0.5 -0.5,-19.5 146.5,-19.5 146.5,-0.5 -0.5,-0.5"/>
<text text-anchor="middle" x="73" y="-7.5" font-family="Helvetica,sans-Serif" font-size="10.00">geometry_msgs_Quaternion.h</text>
</g>
<!-- Node1&#45;&gt;Node2 -->
<g id="edge1" class="edge"><title>Node1&#45;&gt;Node2</title>
<path fill="none" stroke="midnightblue" d="M1970.91,-81.5803C1712,-79.7451 866.163,-70.1022 156.902,-20.0828"/>
<polygon fill="midnightblue" stroke="midnightblue" points="156.955,-16.5779 146.733,-19.3622 156.461,-23.5604 156.955,-16.5779"/>
</g>
<!-- Node3 -->
<g id="node3" class="node"><title>Node3</title>
<polygon fill="none" stroke="#bfbfbf" points="164.5,-0.5 164.5,-19.5 347.5,-19.5 347.5,-0.5 164.5,-0.5"/>
<text text-anchor="middle" x="256" y="-7.5" font-family="Helvetica,sans-Serif" font-size="10.00">geometry_msgs_TransformStamped.h</text>
</g>
<!-- Node1&#45;&gt;Node3 -->
<g id="edge2" class="edge"><title>Node1&#45;&gt;Node3</title>
<path fill="none" stroke="midnightblue" d="M1970.59,-80.5666C1729.71,-75.9034 985.889,-59.1834 357.807,-20.0132"/>
<polygon fill="midnightblue" stroke="midnightblue" points="357.842,-16.5085 347.643,-19.3766 357.404,-23.4949 357.842,-16.5085"/>
</g>
<!-- Node4 -->
<g id="node4" class="node"><title>Node4</title>
<polygon fill="none" stroke="#bfbfbf" points="366,-0.5 366,-19.5 500,-19.5 500,-0.5 366,-0.5"/>
<text text-anchor="middle" x="433" y="-7.5" font-family="Helvetica,sans-Serif" font-size="10.00">geometry_msgs_Vector3.h</text>
</g>
<!-- Node1&#45;&gt;Node4 -->
<g id="edge3" class="edge"><title>Node1&#45;&gt;Node4</title>
<path fill="none" stroke="midnightblue" d="M1970.88,-80.9843C1744.7,-77.6164 1075.75,-64.421 510.1,-20.0218"/>
<polygon fill="midnightblue" stroke="midnightblue" points="510.353,-16.531 500.109,-19.2335 509.802,-23.5093 510.353,-16.531"/>
</g>
<!-- Node5 -->
<g id="node5" class="node"><title>Node5</title>
<polygon fill="none" stroke="#bfbfbf" points="518.5,-0.5 518.5,-19.5 595.5,-19.5 595.5,-0.5 518.5,-0.5"/>
<text text-anchor="middle" x="557" y="-7.5" font-family="Helvetica,sans-Serif" font-size="10.00">msgs/String.h</text>
</g>
<!-- Node1&#45;&gt;Node5 -->
<g id="edge4" class="edge"><title>Node1&#45;&gt;Node5</title>
<path fill="none" stroke="midnightblue" d="M1970.91,-82.6613C1753.89,-83.6089 1130.8,-80.5074 605.71,-20.0334"/>
<polygon fill="midnightblue" stroke="midnightblue" points="605.996,-16.5432 595.659,-18.8674 605.189,-23.4965 605.996,-16.5432"/>
</g>
<!-- Node6 -->
<g id="node6" class="node"><title>Node6</title>
<polygon fill="none" stroke="#bfbfbf" points="613.5,-0.5 613.5,-19.5 746.5,-19.5 746.5,-0.5 613.5,-0.5"/>
<text text-anchor="middle" x="680" y="-7.5" font-family="Helvetica,sans-Serif" font-size="10.00">sensor_msgs_JointState.h</text>
</g>
<!-- Node1&#45;&gt;Node6 -->
<g id="edge5" class="edge"><title>Node1&#45;&gt;Node6</title>
<path fill="none" stroke="midnightblue" d="M1970.73,-80.1333C1769.66,-74.9822 1223.29,-58.3891 757.009,-20.0193"/>
<polygon fill="midnightblue" stroke="midnightblue" points="756.956,-16.503 746.701,-19.1664 756.379,-23.4792 756.956,-16.503"/>
</g>
<!-- Node7 -->
<g id="node7" class="node"><title>Node7</title>
<polygon fill="none" stroke="#bfbfbf" points="765,-0.5 765,-19.5 869,-19.5 869,-0.5 765,-0.5"/>
<text text-anchor="middle" x="817" y="-7.5" font-family="Helvetica,sans-Serif" font-size="10.00">std_msgs_Header.h</text>
</g>
<!-- Node1&#45;&gt;Node7 -->
<g id="edge6" class="edge"><title>Node1&#45;&gt;Node7</title>
<path fill="none" stroke="midnightblue" d="M1970.93,-80.3711C1783.23,-75.9528 1295.99,-61.2446 879.341,-20.0396"/>
<polygon fill="midnightblue" stroke="midnightblue" points="879.501,-16.5383 869.204,-19.0304 878.808,-23.5039 879.501,-16.5383"/>
</g>
<!-- Node8 -->
<g id="node8" class="node"><title>Node8</title>
<polygon fill="none" stroke="#bfbfbf" points="887,-0.5 887,-19.5 1009,-19.5 1009,-0.5 887,-0.5"/>
<text text-anchor="middle" x="948" y="-7.5" font-family="Helvetica,sans-Serif" font-size="10.00">tf2_msgs_TFMessage.h</text>
</g>
<!-- Node1&#45;&gt;Node8 -->
<g id="edge7" class="edge"><title>Node1&#45;&gt;Node8</title>
<path fill="none" stroke="midnightblue" d="M1970.88,-79.0795C1799.42,-72.352 1380.58,-53.7686 1019.19,-20.0492"/>
<polygon fill="midnightblue" stroke="midnightblue" points="1019.34,-16.5476 1009.06,-19.0979 1018.69,-23.517 1019.34,-16.5476"/>
</g>
<!-- Node9 -->
<g id="node9" class="node"><title>Node9</title>
<polygon fill="none" stroke="#bfbfbf" points="1027.5,-0.5 1027.5,-19.5 1134.5,-19.5 1134.5,-0.5 1027.5,-0.5"/>
<text text-anchor="middle" x="1081" y="-7.5" font-family="Helvetica,sans-Serif" font-size="10.00">thrifts/HumanState.h</text>
</g>
<!-- Node1&#45;&gt;Node9 -->
<g id="edge8" class="edge"><title>Node1&#45;&gt;Node9</title>
<path fill="none" stroke="midnightblue" d="M1970.97,-78.6188C1814.92,-71.5015 1456.07,-52.9457 1144.86,-20.1293"/>
<polygon fill="midnightblue" stroke="midnightblue" points="1145.05,-16.6301 1134.74,-19.0552 1144.31,-23.5911 1145.05,-16.6301"/>
</g>
<!-- Node10 -->
<g id="node10" class="node"><title>Node10</title>
<polygon fill="none" stroke="#bfbfbf" points="1152.5,-0.5 1152.5,-19.5 1315.5,-19.5 1315.5,-0.5 1152.5,-0.5"/>
<text text-anchor="middle" x="1234" y="-7.5" font-family="Helvetica,sans-Serif" font-size="10.00">iDynTree/ModelIO/ModelLoader.h</text>
</g>
<!-- Node1&#45;&gt;Node10 -->
<g id="edge9" class="edge"><title>Node1&#45;&gt;Node10</title>
<path fill="none" stroke="midnightblue" d="M1970.85,-75.5772C1839.36,-64.8308 1567.33,-42.2739 1325.87,-20.0696"/>
<polygon fill="midnightblue" stroke="midnightblue" points="1326.13,-16.5785 1315.85,-19.1465 1325.48,-23.549 1326.13,-16.5785"/>
</g>
<!-- Node11 -->
<g id="node11" class="node"><title>Node11</title>
<polygon fill="none" stroke="#bfbfbf" points="1334,-0.5 1334,-19.5 1470,-19.5 1470,-0.5 1334,-0.5"/>
<text text-anchor="middle" x="1402" y="-7.5" font-family="Helvetica,sans-Serif" font-size="10.00">iDynTree/Core/Transform.h</text>
</g>
<!-- Node1&#45;&gt;Node11 -->
<g id="edge10" class="edge"><title>Node1&#45;&gt;Node11</title>
<path fill="none" stroke="midnightblue" d="M1970.54,-73.5797C1862.2,-62.0532 1661.79,-40.5652 1480.03,-20.1086"/>
<polygon fill="midnightblue" stroke="midnightblue" points="1480.35,-16.6222 1470.02,-18.9806 1479.56,-23.5782 1480.35,-16.6222"/>
</g>
<!-- Node12 -->
<g id="node12" class="node"><title>Node12</title>
<polygon fill="none" stroke="#bfbfbf" points="1488.5,-0.5 1488.5,-19.5 1615.5,-19.5 1615.5,-0.5 1488.5,-0.5"/>
<text text-anchor="middle" x="1552" y="-7.5" font-family="Helvetica,sans-Serif" font-size="10.00">iDynTree/Core/Position.h</text>
</g>
<!-- Node1&#45;&gt;Node12 -->
<g id="edge11" class="edge"><title>Node1&#45;&gt;Node12</title>
<path fill="none" stroke="midnightblue" d="M1970.82,-70.7106C1874.53,-56.9832 1713.54,-34.0311 1621.74,-20.9426"/>
<polygon fill="midnightblue" stroke="midnightblue" points="1622.11,-17.4598 1611.71,-19.5133 1621.12,-24.3898 1622.11,-17.4598"/>
</g>
<!-- Node13 -->
<g id="node13" class="node"><title>Node13</title>
<polygon fill="none" stroke="#bfbfbf" points="1634,-0.5 1634,-19.5 1762,-19.5 1762,-0.5 1634,-0.5"/>
<text text-anchor="middle" x="1698" y="-7.5" font-family="Helvetica,sans-Serif" font-size="10.00">iDynTree/Core/Rotation.h</text>
</g>
<!-- Node1&#45;&gt;Node13 -->
<g id="edge12" class="edge"><title>Node1&#45;&gt;Node13</title>
<path fill="none" stroke="midnightblue" d="M1970.57,-65.9777C1903.23,-52.3964 1808.59,-33.3064 1750.38,-21.5659"/>
<polygon fill="midnightblue" stroke="midnightblue" points="1750.8,-18.0798 1740.31,-19.5334 1749.42,-24.9416 1750.8,-18.0798"/>
</g>
<!-- Node14 -->
<g id="node14" class="node"><title>Node14</title>
<polygon fill="none" stroke="#bfbfbf" points="1780.5,-0.5 1780.5,-19.5 1845.5,-19.5 1845.5,-0.5 1780.5,-0.5"/>
<text text-anchor="middle" x="1813" y="-7.5" font-family="Helvetica,sans-Serif" font-size="10.00">TickTime.h</text>
</g>
<!-- Node1&#45;&gt;Node14 -->
<g id="edge13" class="edge"><title>Node1&#45;&gt;Node14</title>
<path fill="none" stroke="midnightblue" d="M1970.75,-58.2593C1930.56,-46.2188 1883.58,-32.1437 1851.4,-22.5052"/>
<polygon fill="midnightblue" stroke="midnightblue" points="1852.09,-19.0569 1841.51,-19.5399 1850.08,-25.7625 1852.09,-19.0569"/>
</g>
<!-- Node15 -->
<g id="node15" class="node"><title>Node15</title>
<polygon fill="none" stroke="#bfbfbf" points="1863.5,-0.5 1863.5,-19.5 1978.5,-19.5 1978.5,-0.5 1863.5,-0.5"/>
<text text-anchor="middle" x="1921" y="-7.5" font-family="Helvetica,sans-Serif" font-size="10.00">yarp/os/BufferedPort.h</text>
</g>
<!-- Node1&#45;&gt;Node15 -->
<g id="edge14" class="edge"><title>Node1&#45;&gt;Node15</title>
<path fill="none" stroke="midnightblue" d="M2004.52,-56.9681C1984.75,-46.088 1962.37,-33.7673 1945.75,-24.6218"/>
<polygon fill="midnightblue" stroke="midnightblue" points="1947.14,-21.3945 1936.7,-19.6389 1943.77,-27.527 1947.14,-21.3945"/>
</g>
<!-- Node16 -->
<g id="node16" class="node"><title>Node16</title>
<polygon fill="none" stroke="#bfbfbf" points="1996.5,-0.5 1996.5,-19.5 2103.5,-19.5 2103.5,-0.5 1996.5,-0.5"/>
<text text-anchor="middle" x="2050" y="-7.5" font-family="Helvetica,sans-Serif" font-size="10.00">yarp/os/LogStream.h</text>
</g>
<!-- Node1&#45;&gt;Node16 -->
<g id="edge15" class="edge"><title>Node1&#45;&gt;Node16</title>
<path fill="none" stroke="midnightblue" d="M2050,-56.7681C2050,-47.8897 2050,-38.0737 2050,-29.8165"/>
<polygon fill="midnightblue" stroke="midnightblue" points="2053.5,-29.7571 2050,-19.7572 2046.5,-29.7572 2053.5,-29.7571"/>
</g>
<!-- Node17 -->
<g id="node17" class="node"><title>Node17</title>
<polygon fill="none" stroke="#bfbfbf" points="2121.5,-0.5 2121.5,-19.5 2218.5,-19.5 2218.5,-0.5 2121.5,-0.5"/>
<text text-anchor="middle" x="2170" y="-7.5" font-family="Helvetica,sans-Serif" font-size="10.00">yarp/os/Network.h</text>
</g>
<!-- Node1&#45;&gt;Node17 -->
<g id="edge16" class="edge"><title>Node1&#45;&gt;Node17</title>
<path fill="none" stroke="midnightblue" d="M2092.31,-56.9681C2110.52,-46.1897 2131.13,-33.9975 2146.54,-24.879"/>
<polygon fill="midnightblue" stroke="midnightblue" points="2148.57,-27.7433 2155.4,-19.6389 2145.01,-21.7188 2148.57,-27.7433"/>
</g>
<!-- Node18 -->
<g id="node18" class="node"><title>Node18</title>
<polygon fill="none" stroke="#bfbfbf" points="2236.5,-0.5 2236.5,-19.5 2319.5,-19.5 2319.5,-0.5 2236.5,-0.5"/>
<text text-anchor="middle" x="2278" y="-7.5" font-family="Helvetica,sans-Serif" font-size="10.00">yarp/os/Node.h</text>
</g>
<!-- Node1&#45;&gt;Node18 -->
<g id="edge17" class="edge"><title>Node1&#45;&gt;Node18</title>
<path fill="none" stroke="midnightblue" d="M2129.1,-57.3669C2167.01,-45.5642 2210.6,-31.9878 2240.78,-22.5894"/>
<polygon fill="midnightblue" stroke="midnightblue" points="2241.97,-25.8859 2250.48,-19.5709 2239.89,-19.2024 2241.97,-25.8859"/>
</g>
<!-- Node19 -->
<g id="node19" class="node"><title>Node19</title>
<polygon fill="none" stroke="#bfbfbf" points="2337.5,-0.5 2337.5,-19.5 2434.5,-19.5 2434.5,-0.5 2337.5,-0.5"/>
<text text-anchor="middle" x="2386" y="-7.5" font-family="Helvetica,sans-Serif" font-size="10.00">yarp/os/Property.h</text>
</g>
<!-- Node1&#45;&gt;Node19 -->
<g id="edge18" class="edge"><title>Node1&#45;&gt;Node19</title>
<path fill="none" stroke="midnightblue" d="M2129.2,-65.2639C2193.13,-51.7556 2281.13,-33.1605 2335.74,-21.6201"/>
<polygon fill="midnightblue" stroke="midnightblue" points="2336.48,-25.0421 2345.54,-19.5502 2335.03,-18.1933 2336.48,-25.0421"/>
</g>
<!-- Node20 -->
<g id="node20" class="node"><title>Node20</title>
<polygon fill="none" stroke="#bfbfbf" points="2452.5,-0.5 2452.5,-19.5 2553.5,-19.5 2553.5,-0.5 2452.5,-0.5"/>
<text text-anchor="middle" x="2503" y="-7.5" font-family="Helvetica,sans-Serif" font-size="10.00">yarp/os/Publisher.h</text>
</g>
<!-- Node1&#45;&gt;Node20 -->
<g id="edge19" class="edge"><title>Node1&#45;&gt;Node20</title>
<path fill="none" stroke="midnightblue" d="M2129.17,-69.5921C2218.43,-55.6021 2361.61,-33.1598 2442.41,-20.4959"/>
<polygon fill="midnightblue" stroke="midnightblue" points="2443.09,-23.9324 2452.43,-18.9261 2442.01,-17.0168 2443.09,-23.9324"/>
</g>
<!-- Node21 -->
<g id="node21" class="node"><title>Node21</title>
<polygon fill="none" stroke="#bfbfbf" points="2571.5,-0.5 2571.5,-19.5 2676.5,-19.5 2676.5,-0.5 2571.5,-0.5"/>
<text text-anchor="middle" x="2624" y="-7.5" font-family="Helvetica,sans-Serif" font-size="10.00">yarp/os/RFModule.h</text>
</g>
<!-- Node1&#45;&gt;Node21 -->
<g id="edge20" class="edge"><title>Node1&#45;&gt;Node21</title>
<path fill="none" stroke="midnightblue" d="M2129.01,-73.0191C2227.59,-61.6824 2401.58,-41.2394 2561.24,-20.0746"/>
<polygon fill="midnightblue" stroke="midnightblue" points="2561.79,-23.5314 2571.25,-18.7443 2560.87,-16.5924 2561.79,-23.5314"/>
</g>
<!-- Node22 -->
<g id="node22" class="node"><title>Node22</title>
<polygon fill="none" stroke="#bfbfbf" points="2695,-0.5 2695,-19.5 2777,-19.5 2777,-0.5 2695,-0.5"/>
<text text-anchor="middle" x="2736" y="-7.5" font-family="Helvetica,sans-Serif" font-size="10.00">yarp/os/Time.h</text>
</g>
<!-- Node1&#45;&gt;Node22 -->
<g id="edge21" class="edge"><title>Node1&#45;&gt;Node22</title>
<path fill="none" stroke="midnightblue" d="M2129.43,-76.2291C2247.94,-67.1779 2478.24,-47.8922 2684.72,-19.9249"/>
<polygon fill="midnightblue" stroke="midnightblue" points="2685.41,-23.3633 2694.85,-18.5438 2684.47,-16.4275 2685.41,-23.3633"/>
</g>
<!-- Node23 -->
<g id="node23" class="node"><title>Node23</title>
<polygon fill="none" stroke="#bfbfbf" points="2795.5,-0.5 2795.5,-19.5 2882.5,-19.5 2882.5,-0.5 2795.5,-0.5"/>
<text text-anchor="middle" x="2839" y="-7.5" font-family="Helvetica,sans-Serif" font-size="10.00">yarp/os/Mutex.h</text>
</g>
<!-- Node1&#45;&gt;Node23 -->
<g id="edge22" class="edge"><title>Node1&#45;&gt;Node23</title>
<path fill="none" stroke="midnightblue" d="M2129.19,-77.5221C2262.44,-69.5045 2540.07,-50.7262 2785.2,-19.9929"/>
<polygon fill="midnightblue" stroke="midnightblue" points="2785.89,-23.4334 2795.37,-18.708 2785.01,-16.4886 2785.89,-23.4334"/>
</g>
<!-- Node24 -->
<g id="node24" class="node"><title>Node24</title>
<polygon fill="none" stroke="#bfbfbf" points="2900.5,-0.5 2900.5,-19.5 3007.5,-19.5 3007.5,-0.5 2900.5,-0.5"/>
<text text-anchor="middle" x="2954" y="-7.5" font-family="Helvetica,sans-Serif" font-size="10.00">yarp/os/LockGuard.h</text>
</g>
<!-- Node1&#45;&gt;Node24 -->
<g id="edge23" class="edge"><title>Node1&#45;&gt;Node24</title>
<path fill="none" stroke="midnightblue" d="M2129.01,-77.9801C2276.46,-70.0823 2603.75,-50.6889 2890.24,-20.0052"/>
<polygon fill="midnightblue" stroke="midnightblue" points="2890.85,-23.4602 2900.42,-18.9089 2890.1,-16.5005 2890.85,-23.4602"/>
</g>
<!-- Node25 -->
<g id="node25" class="node"><title>Node25</title>
<polygon fill="none" stroke="#bfbfbf" points="3025,-0.5 3025,-19.5 3081,-19.5 3081,-0.5 3025,-0.5"/>
<text text-anchor="middle" x="3053" y="-7.5" font-family="Helvetica,sans-Serif" font-size="10.00">algorithm</text>
</g>
<!-- Node1&#45;&gt;Node25 -->
<g id="edge24" class="edge"><title>Node1&#45;&gt;Node25</title>
<path fill="none" stroke="midnightblue" d="M2129.07,-81.5817C2292.91,-79.7053 2681.27,-70.0227 3014.48,-19.9605"/>
<polygon fill="midnightblue" stroke="midnightblue" points="3015.46,-23.3524 3024.82,-18.3915 3014.41,-16.4317 3015.46,-23.3524"/>
</g>
<!-- Node26 -->
<g id="node26" class="node"><title>Node26</title>
<polygon fill="none" stroke="#bfbfbf" points="3099,-0.5 3099,-19.5 3143,-19.5 3143,-0.5 3099,-0.5"/>
<text text-anchor="middle" x="3121" y="-7.5" font-family="Helvetica,sans-Serif" font-size="10.00">cmath</text>
</g>
<!-- Node1&#45;&gt;Node26 -->
<g id="edge25" class="edge"><title>Node1&#45;&gt;Node26</title>
<path fill="none" stroke="midnightblue" d="M2129.35,-79.4698C2335.59,-72.5469 2885.89,-51.7727 3088.78,-19.5549"/>
<polygon fill="midnightblue" stroke="midnightblue" points="3089.46,-22.9908 3098.76,-17.9134 3088.32,-16.0837 3089.46,-22.9908"/>
</g>
<!-- Node27 -->
<g id="node27" class="node"><title>Node27</title>
<polygon fill="none" stroke="#bfbfbf" points="3161,-0.5 3161,-19.5 3215,-19.5 3215,-0.5 3161,-0.5"/>
<text text-anchor="middle" x="3188" y="-7.5" font-family="Helvetica,sans-Serif" font-size="10.00">iostream</text>
</g>
<!-- Node1&#45;&gt;Node27 -->
<g id="edge26" class="edge"><title>Node1&#45;&gt;Node27</title>
<path fill="none" stroke="midnightblue" d="M2129.27,-82.4721C2309.45,-82.4804 2763.46,-76.491 3150.64,-19.7253"/>
<polygon fill="midnightblue" stroke="midnightblue" points="3151.25,-23.1724 3160.63,-18.2463 3150.23,-16.2478 3151.25,-23.1724"/>
</g>
<!-- Node28 -->
<g id="node28" class="node"><title>Node28</title>
<polygon fill="none" stroke="#bfbfbf" points="3233,-0.5 3233,-19.5 3281,-19.5 3281,-0.5 3233,-0.5"/>
<text text-anchor="middle" x="3257" y="-7.5" font-family="Helvetica,sans-Serif" font-size="10.00">limits.h</text>
</g>
<!-- Node1&#45;&gt;Node28 -->
<g id="edge27" class="edge"><title>Node1&#45;&gt;Node28</title>
<path fill="none" stroke="midnightblue" d="M2129.19,-80.0218C2353.84,-74.0656 2993.19,-54.6398 3223,-19.7541"/>
<polygon fill="midnightblue" stroke="midnightblue" points="3223.64,-23.1967 3232.98,-18.188 3222.56,-16.2814 3223.64,-23.1967"/>
</g>
<!-- Node29 -->
<g id="node29" class="node"><title>Node29</title>
<polygon fill="none" stroke="#bfbfbf" points="3299.5,-0.5 3299.5,-19.5 3340.5,-19.5 3340.5,-0.5 3299.5,-0.5"/>
<text text-anchor="middle" x="3320" y="-7.5" font-family="Helvetica,sans-Serif" font-size="10.00">string</text>
</g>
<!-- Node1&#45;&gt;Node29 -->
<g id="edge28" class="edge"><title>Node1&#45;&gt;Node29</title>
<path fill="none" stroke="midnightblue" d="M2129.02,-80.5412C2362.3,-75.8459 3046.32,-59.1866 3289.64,-19.5245"/>
<polygon fill="midnightblue" stroke="midnightblue" points="3290.22,-22.9757 3299.5,-17.8619 3289.06,-16.0732 3290.22,-22.9757"/>
</g>
<!-- Node30 -->
<g id="node30" class="node"><title>Node30</title>
<polygon fill="none" stroke="#bfbfbf" points="3359,-0.5 3359,-19.5 3403,-19.5 3403,-0.5 3359,-0.5"/>
<text text-anchor="middle" x="3381" y="-7.5" font-family="Helvetica,sans-Serif" font-size="10.00">vector</text>
</g>
<!-- Node1&#45;&gt;Node30 -->
<g id="edge29" class="edge"><title>Node1&#45;&gt;Node30</title>
<path fill="none" stroke="midnightblue" d="M2129.26,-80.5675C2370.26,-75.8461 3092.82,-58.894 3348.76,-19.5376"/>
<polygon fill="midnightblue" stroke="midnightblue" points="3349.44,-22.9738 3358.76,-17.9482 3348.34,-16.0604 3349.44,-22.9738"/>
</g>
</g>
</svg>
        <g id="navigator" transform="translate(0 0)" fill="#404254">
                <rect fill="#f2f5e9" fill-opacity="0.5" stroke="#606060" stroke-width=".5" x="0" y="0" width="60" height="60"/>
                <use id="zoomplus" xlink:href="#zoomPlus" x="17" y="9" onmousedown="handleZoom(evt,'in')"/>
                <use id="zoomminus" xlink:href="#zoomMin" x="42" y="9" onmousedown="handleZoom(evt,'out')"/>
                <use id="reset" xlink:href="#resetDef" x="30" y="36" onmousedown="handleReset()"/>
                <g id="arrowUp" xlink:href="#dirArrow" transform="translate(30 24)" onmousedown="handlePan(0,-1)">
                  <use xlink:href="#rim" fill="#404040">
                        <set attributeName="fill" to="#808080" begin="arrowUp.mouseover" end="arrowUp.mouseout"/>
                  </use>
                  <path fill="none" stroke="white" stroke-width="1.5" d="M0,-3.0v7 M-2.5,-0.5L0,-3.0L2.5,-0.5"/>
                </g>
                <g id="arrowRight" xlink:href="#dirArrow" transform="rotate(90) translate(36 -43)" onmousedown="handlePan(1,0)">
                  <use xlink:href="#rim" fill="#404040">
                        <set attributeName="fill" to="#808080" begin="arrowRight.mouseover" end="arrowRight.mouseout"/>
                  </use>
                  <path fill="none" stroke="white" stroke-width="1.5" d="M0,-3.0v7 M-2.5,-0.5L0,-3.0L2.5,-0.5"/>
                </g>
                <g id="arrowDown" xlink:href="#dirArrow" transform="rotate(180) translate(-30 -48)" onmousedown="handlePan(0,1)">
                  <use xlink:href="#rim" fill="#404040">
                        <set attributeName="fill" to="#808080" begin="arrowDown.mouseover" end="arrowDown.mouseout"/>
                  </use>
                  <path fill="none" stroke="white" stroke-width="1.5" d="M0,-3.0v7 M-2.5,-0.5L0,-3.0L2.5,-0.5"/>
                </g>
                <g id="arrowLeft" xlink:href="#dirArrow" transform="rotate(270) translate(-36 17)" onmousedown="handlePan(-1,0)">
                  <use xlink:href="#rim" fill="#404040">
                        <set attributeName="fill" to="#808080" begin="arrowLeft.mouseover" end="arrowLeft.mouseout"/>
                  </use>
                  <path fill="none" stroke="white" stroke-width="1.5" d="M0,-3.0v7 M-2.5,-0.5L0,-3.0L2.5,-0.5"/>
                </g>
        </g>
        <svg viewBox="0 0 15 15" width="100%" height="30px" preserveAspectRatio="xMaxYMin meet">
         <g id="arrow_out" transform="scale(0.3 0.3)">
          <a xlink:href="_human_joint_state_bridge_8cpp__incl_org.svg" target="_base">
           <rect id="button" ry="5" rx="5" y="6" x="6" height="38" width="38"
                fill="#f2f5e9" fill-opacity="0.5" stroke="#606060" stroke-width="1.0"/>
           <path id="arrow"
             d="M 11.500037,31.436501 C 11.940474,20.09759 22.043105,11.32322 32.158766,21.979434 L 37.068811,17.246167 C 37.068811,17.246167 37.088388,32 37.088388,32 L 22.160133,31.978069 C 22.160133,31.978069 26.997745,27.140456 26.997745,27.140456 C 18.528582,18.264221 13.291696,25.230495 11.500037,31.436501 z"
             style="fill:#404040;"/>
          </a>
         </g>
        </svg>
</svg>
