<?xml version="1.0" encoding="UTF-8" standalone="no"?>
<!DOCTYPE svg PUBLIC "-//W3C//DTD SVG 1.1//EN"
 "http://www.w3.org/Graphics/SVG/1.1/DTD/svg11.dtd">
<!-- Generated by graphviz version 2.36.0 (20140111.2315)
 -->
<!-- Title: /home/travis/build/robotology/human&#45;dynamics&#45;estimation/inverse&#45;kinematics/src/InverseKinematicsIPOPT.cpp Pages: 1 -->
<svg width="1467pt" height="174pt"
 viewBox="0.00 0.00 1467.00 174.00" xmlns="http://www.w3.org/2000/svg" xmlns:xlink="http://www.w3.org/1999/xlink">
<g id="graph0" class="graph" transform="scale(1 1) rotate(0) translate(4 170)">
<title>/home/travis/build/robotology/human&#45;dynamics&#45;estimation/inverse&#45;kinematics/src/InverseKinematicsIPOPT.cpp</title>
<!-- Node1 -->
<g id="node1" class="node"><title>Node1</title>
<polygon fill="#bfbfbf" stroke="black" points="884,-113 884,-165 1050,-165 1050,-113 884,-113"/>
<text text-anchor="start" x="892" y="-153" font-family="Helvetica,sans-Serif" font-size="10.00">/home/travis/build</text>
<text text-anchor="start" x="892" y="-142" font-family="Helvetica,sans-Serif" font-size="10.00">/robotology/human&#45;dynamics</text>
<text text-anchor="start" x="892" y="-131" font-family="Helvetica,sans-Serif" font-size="10.00">&#45;estimation/inverse&#45;kinematics</text>
<text text-anchor="middle" x="967" y="-120" font-family="Helvetica,sans-Serif" font-size="10.00">/src/InverseKinematicsIPOPT.cpp</text>
</g>
<!-- Node2 -->
<g id="node2" class="node"><title>Node2</title>
<polygon fill="none" stroke="#bfbfbf" points="620,-56.5 620,-75.5 664,-75.5 664,-56.5 620,-56.5"/>
<text text-anchor="middle" x="642" y="-63.5" font-family="Helvetica,sans-Serif" font-size="10.00">cmath</text>
</g>
<!-- Node1&#45;&gt;Node2 -->
<g id="edge1" class="edge"><title>Node1&#45;&gt;Node2</title>
<path fill="none" stroke="midnightblue" d="M883.933,-122.204C827.265,-111.026 750.337,-95.0698 674.077,-76.1349"/>
<polygon fill="midnightblue" stroke="midnightblue" points="674.847,-72.72 664.297,-73.6892 673.149,-79.5109 674.847,-72.72"/>
</g>
<!-- Node3 -->
<g id="node3" class="node"><title>Node3</title>
<g id="a_node3"><a xlink:href="_inverse_kinematics_i_p_o_p_t_8h.html" target="_top" xlink:title="InverseKinematicsIPOPT.h">
<polygon fill="none" stroke="black" points="682,-56.5 682,-75.5 818,-75.5 818,-56.5 682,-56.5"/>
<text text-anchor="middle" x="750" y="-63.5" font-family="Helvetica,sans-Serif" font-size="10.00">InverseKinematicsIPOPT.h</text>
</a>
</g>
</g>
<!-- Node1&#45;&gt;Node3 -->
<g id="edge2" class="edge"><title>Node1&#45;&gt;Node3</title>
<path fill="none" stroke="midnightblue" d="M890.494,-112.968C854.957,-101.341 814.391,-88.0679 786.015,-78.7837"/>
<polygon fill="midnightblue" stroke="midnightblue" points="786.737,-75.3373 776.144,-75.5541 784.56,-81.9903 786.737,-75.3373"/>
</g>
<!-- Node14 -->
<g id="node14" class="node"><title>Node14</title>
<polygon fill="none" stroke="#bfbfbf" points="836,-56.5 836,-75.5 986,-75.5 986,-56.5 836,-56.5"/>
<text text-anchor="middle" x="911" y="-63.5" font-family="Helvetica,sans-Serif" font-size="10.00">iDynTree/Core/EigenHelpers.h</text>
</g>
<!-- Node1&#45;&gt;Node14 -->
<g id="edge13" class="edge"><title>Node1&#45;&gt;Node14</title>
<path fill="none" stroke="midnightblue" d="M947.099,-112.768C939.539,-103.183 931.118,-92.5062 924.311,-83.8768"/>
<polygon fill="midnightblue" stroke="midnightblue" points="926.848,-81.4413 917.907,-75.7572 921.352,-85.7763 926.848,-81.4413"/>
</g>
<!-- Node15 -->
<g id="node15" class="node"><title>Node15</title>
<polygon fill="none" stroke="#bfbfbf" points="1003.5,-56.5 1003.5,-75.5 1044.5,-75.5 1044.5,-56.5 1003.5,-56.5"/>
<text text-anchor="middle" x="1024" y="-63.5" font-family="Helvetica,sans-Serif" font-size="10.00">string</text>
</g>
<!-- Node1&#45;&gt;Node15 -->
<g id="edge14" class="edge"><title>Node1&#45;&gt;Node15</title>
<path fill="none" stroke="midnightblue" d="M987.257,-112.768C995.032,-103.083 1003.7,-92.2813 1010.67,-83.605"/>
<polygon fill="midnightblue" stroke="midnightblue" points="1013.44,-85.7463 1016.97,-75.7572 1007.98,-81.364 1013.44,-85.7463"/>
</g>
<!-- Node16 -->
<g id="node16" class="node"><title>Node16</title>
<polygon fill="none" stroke="#bfbfbf" points="1063,-56.5 1063,-75.5 1107,-75.5 1107,-56.5 1063,-56.5"/>
<text text-anchor="middle" x="1085" y="-63.5" font-family="Helvetica,sans-Serif" font-size="10.00">vector</text>
</g>
<!-- Node1&#45;&gt;Node16 -->
<g id="edge15" class="edge"><title>Node1&#45;&gt;Node16</title>
<path fill="none" stroke="midnightblue" d="M1008.6,-112.968C1026.52,-102.19 1046.78,-89.9975 1061.93,-80.879"/>
<polygon fill="midnightblue" stroke="midnightblue" points="1063.88,-83.7936 1070.64,-75.6389 1060.27,-77.7956 1063.88,-83.7936"/>
</g>
<!-- Node17 -->
<g id="node17" class="node"><title>Node17</title>
<polygon fill="none" stroke="#bfbfbf" points="1125.5,-56.5 1125.5,-75.5 1174.5,-75.5 1174.5,-56.5 1125.5,-56.5"/>
<text text-anchor="middle" x="1150" y="-63.5" font-family="Helvetica,sans-Serif" font-size="10.00">cassert</text>
</g>
<!-- Node1&#45;&gt;Node17 -->
<g id="edge16" class="edge"><title>Node1&#45;&gt;Node17</title>
<path fill="none" stroke="midnightblue" d="M1031.52,-112.968C1060.87,-101.58 1094.29,-88.6127 1118.14,-79.361"/>
<polygon fill="midnightblue" stroke="midnightblue" points="1119.68,-82.5191 1127.73,-75.6389 1117.14,-75.993 1119.68,-82.5191"/>
</g>
<!-- Node4 -->
<g id="node4" class="node"><title>Node4</title>
<polygon fill="none" stroke="#bfbfbf" points="-0.5,-0.5 -0.5,-19.5 68.5,-19.5 68.5,-0.5 -0.5,-0.5"/>
<text text-anchor="middle" x="34" y="-7.5" font-family="Helvetica,sans-Serif" font-size="10.00">IpTNLP.hpp</text>
</g>
<!-- Node3&#45;&gt;Node4 -->
<g id="edge3" class="edge"><title>Node3&#45;&gt;Node4</title>
<path fill="none" stroke="midnightblue" d="M681.958,-56.9281C678.592,-56.5982 675.259,-56.2864 672,-56 411.439,-33.1023 341.346,-54.6687 78.8798,-20.0699"/>
<polygon fill="midnightblue" stroke="midnightblue" points="79.0336,-16.5595 68.6588,-18.7071 78.1085,-23.4981 79.0336,-16.5595"/>
</g>
<!-- Node5 -->
<g id="node5" class="node"><title>Node5</title>
<polygon fill="none" stroke="#bfbfbf" points="86.5,-0.5 86.5,-19.5 239.5,-19.5 239.5,-0.5 86.5,-0.5"/>
<text text-anchor="middle" x="163" y="-7.5" font-family="Helvetica,sans-Serif" font-size="10.00">iDynTree/Core/VectorFixSize.h</text>
</g>
<!-- Node3&#45;&gt;Node5 -->
<g id="edge4" class="edge"><title>Node3&#45;&gt;Node5</title>
<path fill="none" stroke="midnightblue" d="M681.949,-57.0263C678.586,-56.6704 675.255,-56.3263 672,-56 487.469,-37.5058 438.498,-37.8039 249.855,-20.0628"/>
<polygon fill="midnightblue" stroke="midnightblue" points="250.172,-16.5772 239.887,-19.1208 249.513,-23.5462 250.172,-16.5772"/>
</g>
<!-- Node6 -->
<g id="node6" class="node"><title>Node6</title>
<polygon fill="none" stroke="#bfbfbf" points="258,-0.5 258,-19.5 416,-19.5 416,-0.5 258,-0.5"/>
<text text-anchor="middle" x="337" y="-7.5" font-family="Helvetica,sans-Serif" font-size="10.00">iDynTree/Core/VectorDynSize.h</text>
</g>
<!-- Node3&#45;&gt;Node6 -->
<g id="edge5" class="edge"><title>Node3&#45;&gt;Node6</title>
<path fill="none" stroke="midnightblue" d="M684.559,-56.4435C610.549,-46.7666 490.232,-31.0351 412.359,-20.8533"/>
<polygon fill="midnightblue" stroke="midnightblue" points="412.504,-17.3425 402.135,-19.5164 411.597,-24.2834 412.504,-17.3425"/>
</g>
<!-- Node7 -->
<g id="node7" class="node"><title>Node7</title>
<polygon fill="none" stroke="#bfbfbf" points="434,-0.5 434,-19.5 590,-19.5 590,-0.5 434,-0.5"/>
<text text-anchor="middle" x="512" y="-7.5" font-family="Helvetica,sans-Serif" font-size="10.00">iDynTree/Core/MatrixDynSize.h</text>
</g>
<!-- Node3&#45;&gt;Node7 -->
<g id="edge6" class="edge"><title>Node3&#45;&gt;Node7</title>
<path fill="none" stroke="midnightblue" d="M712.288,-56.4435C670.857,-47.0431 604.243,-31.9291 559.333,-21.7393"/>
<polygon fill="midnightblue" stroke="midnightblue" points="560.062,-18.3159 549.535,-19.5164 558.513,-25.1424 560.062,-18.3159"/>
</g>
<!-- Node8 -->
<g id="node8" class="node"><title>Node8</title>
<polygon fill="none" stroke="#bfbfbf" points="608,-0.5 608,-19.5 744,-19.5 744,-0.5 608,-0.5"/>
<text text-anchor="middle" x="676" y="-7.5" font-family="Helvetica,sans-Serif" font-size="10.00">iDynTree/Core/Transform.h</text>
</g>
<!-- Node3&#45;&gt;Node8 -->
<g id="edge7" class="edge"><title>Node3&#45;&gt;Node8</title>
<path fill="none" stroke="midnightblue" d="M738.111,-56.324C726.85,-48.1066 709.713,-35.6017 696.291,-25.8069"/>
<polygon fill="midnightblue" stroke="midnightblue" points="698.247,-22.9014 688.106,-19.8339 694.12,-28.5559 698.247,-22.9014"/>
</g>
<!-- Node9 -->
<g id="node9" class="node"><title>Node9</title>
<polygon fill="none" stroke="#bfbfbf" points="762.5,-0.5 762.5,-19.5 885.5,-19.5 885.5,-0.5 762.5,-0.5"/>
<text text-anchor="middle" x="824" y="-7.5" font-family="Helvetica,sans-Serif" font-size="10.00">iDynTree/Model/Model.h</text>
</g>
<!-- Node3&#45;&gt;Node9 -->
<g id="edge8" class="edge"><title>Node3&#45;&gt;Node9</title>
<path fill="none" stroke="midnightblue" d="M761.889,-56.324C773.15,-48.1066 790.287,-35.6017 803.709,-25.8069"/>
<polygon fill="midnightblue" stroke="midnightblue" points="805.88,-28.5559 811.894,-19.8339 801.753,-22.9014 805.88,-28.5559"/>
</g>
<!-- Node10 -->
<g id="node10" class="node"><title>Node10</title>
<polygon fill="none" stroke="#bfbfbf" points="903.5,-0.5 903.5,-19.5 1066.5,-19.5 1066.5,-0.5 903.5,-0.5"/>
<text text-anchor="middle" x="985" y="-7.5" font-family="Helvetica,sans-Serif" font-size="10.00">iDynTree/ModelIO/ModelLoader.h</text>
</g>
<!-- Node3&#45;&gt;Node10 -->
<g id="edge9" class="edge"><title>Node3&#45;&gt;Node10</title>
<path fill="none" stroke="midnightblue" d="M787.236,-56.4435C828.06,-47.0629 893.643,-31.9926 937.984,-21.8036"/>
<polygon fill="midnightblue" stroke="midnightblue" points="938.976,-25.1671 947.938,-19.5164 937.408,-18.3449 938.976,-25.1671"/>
</g>
<!-- Node11 -->
<g id="node11" class="node"><title>Node11</title>
<polygon fill="none" stroke="#bfbfbf" points="1084.5,-0.5 1084.5,-19.5 1245.5,-19.5 1245.5,-0.5 1084.5,-0.5"/>
<text text-anchor="middle" x="1165" y="-7.5" font-family="Helvetica,sans-Serif" font-size="10.00">iDynTree/KinDynComputations.h</text>
</g>
<!-- Node3&#45;&gt;Node11 -->
<g id="edge10" class="edge"><title>Node3&#45;&gt;Node11</title>
<path fill="none" stroke="midnightblue" d="M815.758,-56.4435C890.127,-46.7666 1011.03,-31.0351 1089.28,-20.8533"/>
<polygon fill="midnightblue" stroke="midnightblue" points="1090.08,-24.2776 1099.55,-19.5164 1089.18,-17.3361 1090.08,-24.2776"/>
</g>
<!-- Node12 -->
<g id="node12" class="node"><title>Node12</title>
<polygon fill="none" stroke="#bfbfbf" points="1263.5,-0.5 1263.5,-19.5 1376.5,-19.5 1376.5,-0.5 1263.5,-0.5"/>
<text text-anchor="middle" x="1320" y="-7.5" font-family="Helvetica,sans-Serif" font-size="10.00">IpIpoptApplication.hpp</text>
</g>
<!-- Node3&#45;&gt;Node12 -->
<g id="edge11" class="edge"><title>Node3&#45;&gt;Node12</title>
<path fill="none" stroke="midnightblue" d="M818.007,-56.9306C821.045,-56.6081 824.054,-56.2963 827,-56 1013.26,-37.2682 1063.01,-40.7455 1253.44,-20.0034"/>
<polygon fill="midnightblue" stroke="midnightblue" points="1253.94,-23.4693 1263.5,-18.8993 1253.18,-16.511 1253.94,-23.4693"/>
</g>
<!-- Node13 -->
<g id="node13" class="node"><title>Node13</title>
<polygon fill="none" stroke="#bfbfbf" points="1394.5,-0.5 1394.5,-19.5 1459.5,-19.5 1459.5,-0.5 1394.5,-0.5"/>
<text text-anchor="middle" x="1427" y="-7.5" font-family="Helvetica,sans-Serif" font-size="10.00">Eigen/Core</text>
</g>
<!-- Node3&#45;&gt;Node13 -->
<g id="edge12" class="edge"><title>Node3&#45;&gt;Node13</title>
<path fill="none" stroke="midnightblue" d="M818,-56.8579C821.04,-56.5551 824.051,-56.2673 827,-56 1071.24,-33.8628 1137.11,-53.5927 1384.07,-19.9133"/>
<polygon fill="midnightblue" stroke="midnightblue" points="1384.64,-23.3682 1394.07,-18.5346 1383.68,-16.4339 1384.64,-23.3682"/>
</g>
</g>
</svg>
