<?xml version="1.0" encoding="UTF-8" standalone="no"?>
<!DOCTYPE svg PUBLIC "-//W3C//DTD SVG 1.1//EN"
 "http://www.w3.org/Graphics/SVG/1.1/DTD/svg11.dtd">
<!-- Generated by graphviz version 2.36.0 (20140111.2315)
 -->
<!-- Title: /home/travis/build/robotology/human&#45;dynamics&#45;estimation/inverse&#45;kinematics/src/InverseKinematics.cpp Pages: 1 -->
<!--zoomable 174 -->
<svg id="main" version="1.1" xmlns="http://www.w3.org/2000/svg" xmlns:xlink="http://www.w3.org/1999/xlink" xml:space="preserve" onload="init(evt)">
<style type="text/css"><![CDATA[
.edge:hover path { stroke: red; }
.edge:hover polygon { stroke: red; fill: red; }
]]></style>
<script type="text/javascript"><![CDATA[
var edges = document.getElementsByTagName('g');
if (edges && edges.length) {
  for (var i=0;i<edges.length;i++) {
    if (edges[i].id.substr(0,4)=='edge') {
      edges[i].setAttribute('class','edge');
    }
  }
}
]]></script>
        <defs>
                <circle id="rim" cx="0" cy="0" r="7"/>
                <circle id="rim2" cx="0" cy="0" r="3.5"/>
                <g id="zoomPlus">
                        <use xlink:href="#rim" fill="#404040">
                                <set attributeName="fill" to="#808080" begin="zoomplus.mouseover" end="zoomplus.mouseout"/>
                        </use>
                        <path d="M-4,0h8M0,-4v8" fill="none" stroke="white" stroke-width="1.5" pointer-events="none"/>
                </g>
                <g id="zoomMin">
                        <use xlink:href="#rim" fill="#404040">
                                <set attributeName="fill" to="#808080" begin="zoomminus.mouseover" end="zoomminus.mouseout"/>
                        </use>
                        <path d="M-4,0h8" fill="none" stroke="white" stroke-width="1.5" pointer-events="none"/>
                </g>
                <g id="dirArrow">
                        <path fill="none" stroke="white" stroke-width="1.5" d="M0,-3.0v7 M-2.5,-0.5L0,-3.0L2.5,-0.5"/>
                </g>
               <g id="resetDef">
                       <use xlink:href="#rim2" fill="#404040">
                               <set attributeName="fill" to="#808080" begin="reset.mouseover" end="reset.mouseout"/>
                       </use>
               </g>
        </defs>

<script type="text/javascript">
var viewWidth = 1589;
var viewHeight = 174;
var sectionId = 'dynsection-0';
</script>
<script xlink:href="svgpan.js"/>
<svg id="graph" class="graph">
<g id="viewport">
<title>/home/travis/build/robotology/human&#45;dynamics&#45;estimation/inverse&#45;kinematics/src/InverseKinematics.cpp</title>
<!-- Node1 -->
<g id="node1" class="node"><title>Node1</title>
<polygon fill="#bfbfbf" stroke="black" points="884.5,-113 884.5,-165 1033.5,-165 1033.5,-113 884.5,-113"/>
<text text-anchor="start" x="892.5" y="-153" font-family="Helvetica,sans-Serif" font-size="10.00">/home/travis/build</text>
<text text-anchor="start" x="892.5" y="-142" font-family="Helvetica,sans-Serif" font-size="10.00">/robotology/human&#45;dynamics</text>
<text text-anchor="start" x="892.5" y="-131" font-family="Helvetica,sans-Serif" font-size="10.00">&#45;estimation/inverse&#45;kinematics</text>
<text text-anchor="middle" x="959" y="-120" font-family="Helvetica,sans-Serif" font-size="10.00">/src/InverseKinematics.cpp</text>
</g>
<!-- Node2 -->
<g id="node2" class="node"><title>Node2</title>
<g id="a_node2"><a xlink:href="_inverse_kinematics_8h.html" target="_top" xlink:title="InverseKinematics.h">
<polygon fill="none" stroke="black" points="87,-56.5 87,-75.5 193,-75.5 193,-56.5 87,-56.5"/>
<text text-anchor="middle" x="140" y="-63.5" font-family="Helvetica,sans-Serif" font-size="10.00">InverseKinematics.h</text>
</a>
</g>
</g>
<!-- Node1&#45;&gt;Node2 -->
<g id="edge1" class="edge"><title>Node1&#45;&gt;Node2</title>
<path fill="none" stroke="midnightblue" d="M884.148,-131.511C724.402,-117.662 352.53,-85.4244 203.469,-72.5022"/>
<polygon fill="midnightblue" stroke="midnightblue" points="203.393,-68.9825 193.128,-71.6057 202.788,-75.9564 203.393,-68.9825"/>
</g>
<!-- Node6 -->
<g id="node6" class="node"><title>Node6</title>
<g id="a_node6"><a xlink:href="_inverse_kinematics_v2_i_p_o_p_t_8h.html" target="_top" xlink:title="InverseKinematicsV2IPOPT.h">
<polygon fill="none" stroke="black" points="724,-56.5 724,-75.5 872,-75.5 872,-56.5 724,-56.5"/>
<text text-anchor="middle" x="798" y="-63.5" font-family="Helvetica,sans-Serif" font-size="10.00">InverseKinematicsV2IPOPT.h</text>
</a>
</g>
</g>
<!-- Node1&#45;&gt;Node6 -->
<g id="edge5" class="edge"><title>Node1&#45;&gt;Node6</title>
<path fill="none" stroke="midnightblue" d="M902.237,-112.968C876.759,-101.732 847.796,-88.9597 826.877,-79.7347"/>
<polygon fill="midnightblue" stroke="midnightblue" points="828.152,-76.4715 817.59,-75.6389 825.327,-82.8764 828.152,-76.4715"/>
</g>
<!-- Node16 -->
<g id="node16" class="node"><title>Node16</title>
<polygon fill="none" stroke="#bfbfbf" points="890.5,-56.5 890.5,-75.5 1027.5,-75.5 1027.5,-56.5 890.5,-56.5"/>
<text text-anchor="middle" x="959" y="-63.5" font-family="Helvetica,sans-Serif" font-size="10.00">iDynTree/Model/Traversal.h</text>
</g>
<!-- Node1&#45;&gt;Node16 -->
<g id="edge16" class="edge"><title>Node1&#45;&gt;Node16</title>
<path fill="none" stroke="midnightblue" d="M959,-112.768C959,-103.89 959,-94.0737 959,-85.8165"/>
<polygon fill="midnightblue" stroke="midnightblue" points="962.5,-85.7571 959,-75.7572 955.5,-85.7572 962.5,-85.7571"/>
</g>
<!-- Node17 -->
<g id="node17" class="node"><title>Node17</title>
<polygon fill="none" stroke="#bfbfbf" points="1046,-56.5 1046,-75.5 1196,-75.5 1196,-56.5 1046,-56.5"/>
<text text-anchor="middle" x="1121" y="-63.5" font-family="Helvetica,sans-Serif" font-size="10.00">iDynTree/Core/EigenHelpers.h</text>
</g>
<!-- Node1&#45;&gt;Node17 -->
<g id="edge17" class="edge"><title>Node1&#45;&gt;Node17</title>
<path fill="none" stroke="midnightblue" d="M1016.12,-112.968C1041.75,-101.732 1070.89,-88.9597 1091.94,-79.7347"/>
<polygon fill="midnightblue" stroke="midnightblue" points="1093.53,-82.8587 1101.29,-75.6389 1090.72,-76.4474 1093.53,-82.8587"/>
</g>
<!-- Node18 -->
<g id="node18" class="node"><title>Node18</title>
<polygon fill="none" stroke="#bfbfbf" points="1213.5,-56.5 1213.5,-75.5 1262.5,-75.5 1262.5,-56.5 1213.5,-56.5"/>
<text text-anchor="middle" x="1238" y="-63.5" font-family="Helvetica,sans-Serif" font-size="10.00">cassert</text>
</g>
<!-- Node1&#45;&gt;Node18 -->
<g id="edge18" class="edge"><title>Node1&#45;&gt;Node18</title>
<path fill="none" stroke="midnightblue" d="M1033.57,-119.353C1079.77,-107.748 1140.59,-92.3774 1203.75,-76.0436"/>
<polygon fill="midnightblue" stroke="midnightblue" points="1204.69,-79.4156 1213.49,-73.5209 1202.94,-72.639 1204.69,-79.4156"/>
</g>
<!-- Node3 -->
<g id="node3" class="node"><title>Node3</title>
<polygon fill="none" stroke="#bfbfbf" points="121.5,-0.5 121.5,-19.5 274.5,-19.5 274.5,-0.5 121.5,-0.5"/>
<text text-anchor="middle" x="198" y="-7.5" font-family="Helvetica,sans-Serif" font-size="10.00">iDynTree/Core/VectorFixSize.h</text>
</g>
<!-- Node2&#45;&gt;Node3 -->
<g id="edge2" class="edge"><title>Node2&#45;&gt;Node3</title>
<path fill="none" stroke="midnightblue" d="M149.319,-56.324C157.893,-48.3414 170.812,-36.3128 181.188,-26.6529"/>
<polygon fill="midnightblue" stroke="midnightblue" points="183.578,-29.2098 188.512,-19.8339 178.808,-24.0865 183.578,-29.2098"/>
</g>
<!-- Node4 -->
<g id="node4" class="node"><title>Node4</title>
<polygon fill="none" stroke="#bfbfbf" points="-0.5,-0.5 -0.5,-19.5 40.5,-19.5 40.5,-0.5 -0.5,-0.5"/>
<text text-anchor="middle" x="20" y="-7.5" font-family="Helvetica,sans-Serif" font-size="10.00">string</text>
</g>
<!-- Node2&#45;&gt;Node4 -->
<g id="edge3" class="edge"><title>Node2&#45;&gt;Node4</title>
<path fill="none" stroke="midnightblue" d="M120.986,-56.4435C101.412,-47.6356 70.6924,-33.8116 48.2711,-23.722"/>
<polygon fill="midnightblue" stroke="midnightblue" points="49.4809,-20.4284 38.9254,-19.5164 46.6083,-26.8119 49.4809,-20.4284"/>
</g>
<!-- Node5 -->
<g id="node5" class="node"><title>Node5</title>
<polygon fill="none" stroke="#bfbfbf" points="59,-0.5 59,-19.5 103,-19.5 103,-0.5 59,-0.5"/>
<text text-anchor="middle" x="81" y="-7.5" font-family="Helvetica,sans-Serif" font-size="10.00">vector</text>
</g>
<!-- Node2&#45;&gt;Node5 -->
<g id="edge4" class="edge"><title>Node2&#45;&gt;Node5</title>
<path fill="none" stroke="midnightblue" d="M130.521,-56.324C121.799,-48.3414 108.657,-36.3128 98.1022,-26.6529"/>
<polygon fill="midnightblue" stroke="midnightblue" points="100.392,-24.0036 90.6519,-19.8339 95.6655,-29.1674 100.392,-24.0036"/>
</g>
<!-- Node6&#45;&gt;Node3 -->
<g id="edge7" class="edge"><title>Node6&#45;&gt;Node3</title>
<path fill="none" stroke="midnightblue" d="M723.763,-58.9432C625.691,-50.8455 447.288,-35.7824 285.071,-20.1869"/>
<polygon fill="midnightblue" stroke="midnightblue" points="285.194,-16.6826 274.904,-19.2067 284.522,-23.6503 285.194,-16.6826"/>
</g>
<!-- Node7 -->
<g id="node7" class="node"><title>Node7</title>
<polygon fill="none" stroke="#bfbfbf" points="292.5,-0.5 292.5,-19.5 361.5,-19.5 361.5,-0.5 292.5,-0.5"/>
<text text-anchor="middle" x="327" y="-7.5" font-family="Helvetica,sans-Serif" font-size="10.00">IpTNLP.hpp</text>
</g>
<!-- Node6&#45;&gt;Node7 -->
<g id="edge6" class="edge"><title>Node6&#45;&gt;Node7</title>
<path fill="none" stroke="midnightblue" d="M723.665,-59.3612C640.42,-52.5514 501.311,-39.693 371.644,-19.949"/>
<polygon fill="midnightblue" stroke="midnightblue" points="371.946,-16.4544 361.53,-18.3918 370.881,-23.3728 371.946,-16.4544"/>
</g>
<!-- Node8 -->
<g id="node8" class="node"><title>Node8</title>
<polygon fill="none" stroke="#bfbfbf" points="380,-0.5 380,-19.5 538,-19.5 538,-0.5 380,-0.5"/>
<text text-anchor="middle" x="459" y="-7.5" font-family="Helvetica,sans-Serif" font-size="10.00">iDynTree/Core/VectorDynSize.h</text>
</g>
<!-- Node6&#45;&gt;Node8 -->
<g id="edge8" class="edge"><title>Node6&#45;&gt;Node8</title>
<path fill="none" stroke="midnightblue" d="M744.284,-56.4435C684.031,-46.8456 586.386,-31.2916 522.429,-21.1037"/>
<polygon fill="midnightblue" stroke="midnightblue" points="522.89,-17.6332 512.464,-19.5164 521.789,-24.546 522.89,-17.6332"/>
</g>
<!-- Node9 -->
<g id="node9" class="node"><title>Node9</title>
<polygon fill="none" stroke="#bfbfbf" points="556,-0.5 556,-19.5 712,-19.5 712,-0.5 556,-0.5"/>
<text text-anchor="middle" x="634" y="-7.5" font-family="Helvetica,sans-Serif" font-size="10.00">iDynTree/Core/MatrixDynSize.h</text>
</g>
<!-- Node6&#45;&gt;Node9 -->
<g id="edge9" class="edge"><title>Node6&#45;&gt;Node9</title>
<path fill="none" stroke="midnightblue" d="M772.014,-56.4435C744.304,-47.3196 700.248,-32.8133 669.384,-22.6509"/>
<polygon fill="midnightblue" stroke="midnightblue" points="670.458,-19.3196 659.865,-19.5164 668.268,-25.9684 670.458,-19.3196"/>
</g>
<!-- Node10 -->
<g id="node10" class="node"><title>Node10</title>
<polygon fill="none" stroke="#bfbfbf" points="730,-0.5 730,-19.5 866,-19.5 866,-0.5 730,-0.5"/>
<text text-anchor="middle" x="798" y="-7.5" font-family="Helvetica,sans-Serif" font-size="10.00">iDynTree/Core/Transform.h</text>
</g>
<!-- Node6&#45;&gt;Node10 -->
<g id="edge10" class="edge"><title>Node6&#45;&gt;Node10</title>
<path fill="none" stroke="midnightblue" d="M798,-56.083C798,-49.0059 798,-38.8611 798,-29.9865"/>
<polygon fill="midnightblue" stroke="midnightblue" points="801.5,-29.751 798,-19.7511 794.5,-29.7511 801.5,-29.751"/>
</g>
<!-- Node11 -->
<g id="node11" class="node"><title>Node11</title>
<polygon fill="none" stroke="#bfbfbf" points="884.5,-0.5 884.5,-19.5 1007.5,-19.5 1007.5,-0.5 884.5,-0.5"/>
<text text-anchor="middle" x="946" y="-7.5" font-family="Helvetica,sans-Serif" font-size="10.00">iDynTree/Model/Model.h</text>
</g>
<!-- Node6&#45;&gt;Node11 -->
<g id="edge11" class="edge"><title>Node6&#45;&gt;Node11</title>
<path fill="none" stroke="midnightblue" d="M821.451,-56.4435C846.133,-47.4381 885.185,-33.1891 912.977,-23.049"/>
<polygon fill="midnightblue" stroke="midnightblue" points="914.464,-26.2321 922.659,-19.5164 912.065,-19.6561 914.464,-26.2321"/>
</g>
<!-- Node12 -->
<g id="node12" class="node"><title>Node12</title>
<polygon fill="none" stroke="#bfbfbf" points="1025.5,-0.5 1025.5,-19.5 1188.5,-19.5 1188.5,-0.5 1025.5,-0.5"/>
<text text-anchor="middle" x="1107" y="-7.5" font-family="Helvetica,sans-Serif" font-size="10.00">iDynTree/ModelIO/ModelLoader.h</text>
</g>
<!-- Node6&#45;&gt;Node12 -->
<g id="edge12" class="edge"><title>Node6&#45;&gt;Node12</title>
<path fill="none" stroke="midnightblue" d="M846.962,-56.4435C901.544,-46.9049 989.79,-31.4834 1048.1,-21.293"/>
<polygon fill="midnightblue" stroke="midnightblue" points="1049.02,-24.6857 1058.27,-19.5164 1047.81,-17.7902 1049.02,-24.6857"/>
</g>
<!-- Node13 -->
<g id="node13" class="node"><title>Node13</title>
<polygon fill="none" stroke="#bfbfbf" points="1206.5,-0.5 1206.5,-19.5 1367.5,-19.5 1367.5,-0.5 1206.5,-0.5"/>
<text text-anchor="middle" x="1287" y="-7.5" font-family="Helvetica,sans-Serif" font-size="10.00">iDynTree/KinDynComputations.h</text>
</g>
<!-- Node6&#45;&gt;Node13 -->
<g id="edge13" class="edge"><title>Node6&#45;&gt;Node13</title>
<path fill="none" stroke="midnightblue" d="M872.003,-56.8279C959.976,-47.113 1106.59,-30.9225 1199.94,-20.6145"/>
<polygon fill="midnightblue" stroke="midnightblue" points="1200.37,-24.0883 1209.92,-19.5117 1199.6,-17.1305 1200.37,-24.0883"/>
</g>
<!-- Node14 -->
<g id="node14" class="node"><title>Node14</title>
<polygon fill="none" stroke="#bfbfbf" points="1385.5,-0.5 1385.5,-19.5 1498.5,-19.5 1498.5,-0.5 1385.5,-0.5"/>
<text text-anchor="middle" x="1442" y="-7.5" font-family="Helvetica,sans-Serif" font-size="10.00">IpIpoptApplication.hpp</text>
</g>
<!-- Node6&#45;&gt;Node14 -->
<g id="edge14" class="edge"><title>Node6&#45;&gt;Node14</title>
<path fill="none" stroke="midnightblue" d="M872.19,-56.9128C875.505,-56.5951 878.786,-56.2892 882,-56 1097.93,-36.5698 1155.33,-42.6889 1374.91,-20.048"/>
<polygon fill="midnightblue" stroke="midnightblue" points="1375.56,-23.4988 1385.15,-18.9835 1374.84,-16.5363 1375.56,-23.4988"/>
</g>
<!-- Node15 -->
<g id="node15" class="node"><title>Node15</title>
<polygon fill="none" stroke="#bfbfbf" points="1516.5,-0.5 1516.5,-19.5 1581.5,-19.5 1581.5,-0.5 1516.5,-0.5"/>
<text text-anchor="middle" x="1549" y="-7.5" font-family="Helvetica,sans-Serif" font-size="10.00">Eigen/Core</text>
</g>
<!-- Node6&#45;&gt;Node15 -->
<g id="edge15" class="edge"><title>Node6&#45;&gt;Node15</title>
<path fill="none" stroke="midnightblue" d="M872.185,-56.8515C875.501,-56.5504 878.784,-56.2647 882,-56 1156.05,-33.4398 1229.55,-56.7012 1506.14,-19.8913"/>
<polygon fill="midnightblue" stroke="midnightblue" points="1506.62,-23.3582 1516.07,-18.5564 1505.69,-16.4207 1506.62,-23.3582"/>
</g>
</g>
</svg>
        <g id="navigator" transform="translate(0 0)" fill="#404254">
                <rect fill="#f2f5e9" fill-opacity="0.5" stroke="#606060" stroke-width=".5" x="0" y="0" width="60" height="60"/>
                <use id="zoomplus" xlink:href="#zoomPlus" x="17" y="9" onmousedown="handleZoom(evt,'in')"/>
                <use id="zoomminus" xlink:href="#zoomMin" x="42" y="9" onmousedown="handleZoom(evt,'out')"/>
                <use id="reset" xlink:href="#resetDef" x="30" y="36" onmousedown="handleReset()"/>
                <g id="arrowUp" xlink:href="#dirArrow" transform="translate(30 24)" onmousedown="handlePan(0,-1)">
                  <use xlink:href="#rim" fill="#404040">
                        <set attributeName="fill" to="#808080" begin="arrowUp.mouseover" end="arrowUp.mouseout"/>
                  </use>
                  <path fill="none" stroke="white" stroke-width="1.5" d="M0,-3.0v7 M-2.5,-0.5L0,-3.0L2.5,-0.5"/>
                </g>
                <g id="arrowRight" xlink:href="#dirArrow" transform="rotate(90) translate(36 -43)" onmousedown="handlePan(1,0)">
                  <use xlink:href="#rim" fill="#404040">
                        <set attributeName="fill" to="#808080" begin="arrowRight.mouseover" end="arrowRight.mouseout"/>
                  </use>
                  <path fill="none" stroke="white" stroke-width="1.5" d="M0,-3.0v7 M-2.5,-0.5L0,-3.0L2.5,-0.5"/>
                </g>
                <g id="arrowDown" xlink:href="#dirArrow" transform="rotate(180) translate(-30 -48)" onmousedown="handlePan(0,1)">
                  <use xlink:href="#rim" fill="#404040">
                        <set attributeName="fill" to="#808080" begin="arrowDown.mouseover" end="arrowDown.mouseout"/>
                  </use>
                  <path fill="none" stroke="white" stroke-width="1.5" d="M0,-3.0v7 M-2.5,-0.5L0,-3.0L2.5,-0.5"/>
                </g>
                <g id="arrowLeft" xlink:href="#dirArrow" transform="rotate(270) translate(-36 17)" onmousedown="handlePan(-1,0)">
                  <use xlink:href="#rim" fill="#404040">
                        <set attributeName="fill" to="#808080" begin="arrowLeft.mouseover" end="arrowLeft.mouseout"/>
                  </use>
                  <path fill="none" stroke="white" stroke-width="1.5" d="M0,-3.0v7 M-2.5,-0.5L0,-3.0L2.5,-0.5"/>
                </g>
        </g>
        <svg viewBox="0 0 15 15" width="100%" height="30px" preserveAspectRatio="xMaxYMin meet">
         <g id="arrow_out" transform="scale(0.3 0.3)">
          <a xlink:href="_inverse_kinematics_8cpp__incl_org.svg" target="_base">
           <rect id="button" ry="5" rx="5" y="6" x="6" height="38" width="38"
                fill="#f2f5e9" fill-opacity="0.5" stroke="#606060" stroke-width="1.0"/>
           <path id="arrow"
             d="M 11.500037,31.436501 C 11.940474,20.09759 22.043105,11.32322 32.158766,21.979434 L 37.068811,17.246167 C 37.068811,17.246167 37.088388,32 37.088388,32 L 22.160133,31.978069 C 22.160133,31.978069 26.997745,27.140456 26.997745,27.140456 C 18.528582,18.264221 13.291696,25.230495 11.500037,31.436501 z"
             style="fill:#404040;"/>
          </a>
         </g>
        </svg>
</svg>
