<?xml version="1.0" encoding="UTF-8" standalone="no"?>
<!DOCTYPE svg PUBLIC "-//W3C//DTD SVG 1.1//EN"
 "http://www.w3.org/Graphics/SVG/1.1/DTD/svg11.dtd">
<!-- Generated by graphviz version 2.36.0 (20140111.2315)
 -->
<!-- Title: /home/travis/build/robotology/human&#45;dynamics&#45;estimation/inverse&#45;kinematics/src/InverseKinematicsV2IPOPT.cpp Pages: 1 -->
<svg width="1467pt" height="174pt"
 viewBox="0.00 0.00 1467.00 174.00" xmlns="http://www.w3.org/2000/svg" xmlns:xlink="http://www.w3.org/1999/xlink">
<g id="graph0" class="graph" transform="scale(1 1) rotate(0) translate(4 170)">
<title>/home/travis/build/robotology/human&#45;dynamics&#45;estimation/inverse&#45;kinematics/src/InverseKinematicsV2IPOPT.cpp</title>
<!-- Node1 -->
<g id="node1" class="node"><title>Node1</title>
<polygon fill="#bfbfbf" stroke="black" points="884,-113 884,-165 1062,-165 1062,-113 884,-113"/>
<text text-anchor="start" x="892" y="-153" font-family="Helvetica,sans-Serif" font-size="10.00">/home/travis/build</text>
<text text-anchor="start" x="892" y="-142" font-family="Helvetica,sans-Serif" font-size="10.00">/robotology/human&#45;dynamics</text>
<text text-anchor="start" x="892" y="-131" font-family="Helvetica,sans-Serif" font-size="10.00">&#45;estimation/inverse&#45;kinematics</text>
<text text-anchor="middle" x="973" y="-120" font-family="Helvetica,sans-Serif" font-size="10.00">/src/InverseKinematicsV2IPOPT.cpp</text>
</g>
<!-- Node2 -->
<g id="node2" class="node"><title>Node2</title>
<polygon fill="none" stroke="#bfbfbf" points="614,-56.5 614,-75.5 658,-75.5 658,-56.5 614,-56.5"/>
<text text-anchor="middle" x="636" y="-63.5" font-family="Helvetica,sans-Serif" font-size="10.00">cmath</text>
</g>
<!-- Node1&#45;&gt;Node2 -->
<g id="edge1" class="edge"><title>Node1&#45;&gt;Node2</title>
<path fill="none" stroke="midnightblue" d="M883.857,-121.953C825.093,-110.903 746.283,-95.1903 668.292,-76.1692"/>
<polygon fill="midnightblue" stroke="midnightblue" points="668.838,-72.6992 658.292,-73.7106 667.167,-79.4968 668.838,-72.6992"/>
</g>
<!-- Node3 -->
<g id="node3" class="node"><title>Node3</title>
<g id="a_node3"><a xlink:href="_inverse_kinematics_v2_i_p_o_p_t_8h.html" target="_top" xlink:title="InverseKinematicsV2IPOPT.h">
<polygon fill="none" stroke="black" points="676,-56.5 676,-75.5 824,-75.5 824,-56.5 676,-56.5"/>
<text text-anchor="middle" x="750" y="-63.5" font-family="Helvetica,sans-Serif" font-size="10.00">InverseKinematicsV2IPOPT.h</text>
</a>
</g>
</g>
<!-- Node1&#45;&gt;Node3 -->
<g id="edge2" class="edge"><title>Node1&#45;&gt;Node3</title>
<path fill="none" stroke="midnightblue" d="M894.379,-112.968C857.699,-101.29 815.805,-87.9514 786.628,-78.6617"/>
<polygon fill="midnightblue" stroke="midnightblue" points="787.458,-75.2529 776.867,-75.5541 785.334,-81.923 787.458,-75.2529"/>
</g>
<!-- Node14 -->
<g id="node14" class="node"><title>Node14</title>
<polygon fill="none" stroke="#bfbfbf" points="842,-56.5 842,-75.5 992,-75.5 992,-56.5 842,-56.5"/>
<text text-anchor="middle" x="917" y="-63.5" font-family="Helvetica,sans-Serif" font-size="10.00">iDynTree/Core/EigenHelpers.h</text>
</g>
<!-- Node1&#45;&gt;Node14 -->
<g id="edge13" class="edge"><title>Node1&#45;&gt;Node14</title>
<path fill="none" stroke="midnightblue" d="M953.099,-112.768C945.539,-103.183 937.118,-92.5062 930.311,-83.8768"/>
<polygon fill="midnightblue" stroke="midnightblue" points="932.848,-81.4413 923.907,-75.7572 927.352,-85.7763 932.848,-81.4413"/>
</g>
<!-- Node15 -->
<g id="node15" class="node"><title>Node15</title>
<polygon fill="none" stroke="#bfbfbf" points="1009.5,-56.5 1009.5,-75.5 1050.5,-75.5 1050.5,-56.5 1009.5,-56.5"/>
<text text-anchor="middle" x="1030" y="-63.5" font-family="Helvetica,sans-Serif" font-size="10.00">string</text>
</g>
<!-- Node1&#45;&gt;Node15 -->
<g id="edge14" class="edge"><title>Node1&#45;&gt;Node15</title>
<path fill="none" stroke="midnightblue" d="M993.257,-112.768C1001.03,-103.083 1009.7,-92.2813 1016.67,-83.605"/>
<polygon fill="midnightblue" stroke="midnightblue" points="1019.44,-85.7463 1022.97,-75.7572 1013.98,-81.364 1019.44,-85.7463"/>
</g>
<!-- Node16 -->
<g id="node16" class="node"><title>Node16</title>
<polygon fill="none" stroke="#bfbfbf" points="1069,-56.5 1069,-75.5 1113,-75.5 1113,-56.5 1069,-56.5"/>
<text text-anchor="middle" x="1091" y="-63.5" font-family="Helvetica,sans-Serif" font-size="10.00">vector</text>
</g>
<!-- Node1&#45;&gt;Node16 -->
<g id="edge15" class="edge"><title>Node1&#45;&gt;Node16</title>
<path fill="none" stroke="midnightblue" d="M1014.6,-112.968C1032.52,-102.19 1052.78,-89.9975 1067.93,-80.879"/>
<polygon fill="midnightblue" stroke="midnightblue" points="1069.88,-83.7936 1076.64,-75.6389 1066.27,-77.7956 1069.88,-83.7936"/>
</g>
<!-- Node17 -->
<g id="node17" class="node"><title>Node17</title>
<polygon fill="none" stroke="#bfbfbf" points="1131.5,-56.5 1131.5,-75.5 1180.5,-75.5 1180.5,-56.5 1131.5,-56.5"/>
<text text-anchor="middle" x="1156" y="-63.5" font-family="Helvetica,sans-Serif" font-size="10.00">cassert</text>
</g>
<!-- Node1&#45;&gt;Node17 -->
<g id="edge16" class="edge"><title>Node1&#45;&gt;Node17</title>
<path fill="none" stroke="midnightblue" d="M1037.52,-112.968C1066.87,-101.58 1100.29,-88.6127 1124.14,-79.361"/>
<polygon fill="midnightblue" stroke="midnightblue" points="1125.68,-82.5191 1133.73,-75.6389 1123.14,-75.993 1125.68,-82.5191"/>
</g>
<!-- Node4 -->
<g id="node4" class="node"><title>Node4</title>
<polygon fill="none" stroke="#bfbfbf" points="-0.5,-0.5 -0.5,-19.5 68.5,-19.5 68.5,-0.5 -0.5,-0.5"/>
<text text-anchor="middle" x="34" y="-7.5" font-family="Helvetica,sans-Serif" font-size="10.00">IpTNLP.hpp</text>
</g>
<!-- Node3&#45;&gt;Node4 -->
<g id="edge3" class="edge"><title>Node3&#45;&gt;Node4</title>
<path fill="none" stroke="midnightblue" d="M675.814,-56.8657C672.498,-56.5607 669.215,-56.2704 666,-56 407.974,-34.3032 338.677,-54.432 78.7801,-20.0585"/>
<polygon fill="midnightblue" stroke="midnightblue" points="79.0347,-16.5615 68.659,-18.7053 78.107,-23.4997 79.0347,-16.5615"/>
</g>
<!-- Node5 -->
<g id="node5" class="node"><title>Node5</title>
<polygon fill="none" stroke="#bfbfbf" points="86.5,-0.5 86.5,-19.5 239.5,-19.5 239.5,-0.5 86.5,-0.5"/>
<text text-anchor="middle" x="163" y="-7.5" font-family="Helvetica,sans-Serif" font-size="10.00">iDynTree/Core/VectorFixSize.h</text>
</g>
<!-- Node3&#45;&gt;Node5 -->
<g id="edge4" class="edge"><title>Node3&#45;&gt;Node5</title>
<path fill="none" stroke="midnightblue" d="M675.805,-56.9666C672.492,-56.6344 669.212,-56.3107 666,-56 484.096,-38.4051 435.864,-37.7014 249.998,-20.0786"/>
<polygon fill="midnightblue" stroke="midnightblue" points="250.174,-16.5796 239.887,-19.1162 249.51,-23.5481 250.174,-16.5796"/>
</g>
<!-- Node6 -->
<g id="node6" class="node"><title>Node6</title>
<polygon fill="none" stroke="#bfbfbf" points="258,-0.5 258,-19.5 416,-19.5 416,-0.5 258,-0.5"/>
<text text-anchor="middle" x="337" y="-7.5" font-family="Helvetica,sans-Serif" font-size="10.00">iDynTree/Core/VectorDynSize.h</text>
</g>
<!-- Node3&#45;&gt;Node6 -->
<g id="edge5" class="edge"><title>Node3&#45;&gt;Node6</title>
<path fill="none" stroke="midnightblue" d="M684.559,-56.4435C610.549,-46.7666 490.232,-31.0351 412.359,-20.8533"/>
<polygon fill="midnightblue" stroke="midnightblue" points="412.504,-17.3425 402.135,-19.5164 411.597,-24.2834 412.504,-17.3425"/>
</g>
<!-- Node7 -->
<g id="node7" class="node"><title>Node7</title>
<polygon fill="none" stroke="#bfbfbf" points="434,-0.5 434,-19.5 590,-19.5 590,-0.5 434,-0.5"/>
<text text-anchor="middle" x="512" y="-7.5" font-family="Helvetica,sans-Serif" font-size="10.00">iDynTree/Core/MatrixDynSize.h</text>
</g>
<!-- Node3&#45;&gt;Node7 -->
<g id="edge6" class="edge"><title>Node3&#45;&gt;Node7</title>
<path fill="none" stroke="midnightblue" d="M712.288,-56.4435C670.857,-47.0431 604.243,-31.9291 559.333,-21.7393"/>
<polygon fill="midnightblue" stroke="midnightblue" points="560.062,-18.3159 549.535,-19.5164 558.513,-25.1424 560.062,-18.3159"/>
</g>
<!-- Node8 -->
<g id="node8" class="node"><title>Node8</title>
<polygon fill="none" stroke="#bfbfbf" points="608,-0.5 608,-19.5 744,-19.5 744,-0.5 608,-0.5"/>
<text text-anchor="middle" x="676" y="-7.5" font-family="Helvetica,sans-Serif" font-size="10.00">iDynTree/Core/Transform.h</text>
</g>
<!-- Node3&#45;&gt;Node8 -->
<g id="edge7" class="edge"><title>Node3&#45;&gt;Node8</title>
<path fill="none" stroke="midnightblue" d="M738.111,-56.324C726.85,-48.1066 709.713,-35.6017 696.291,-25.8069"/>
<polygon fill="midnightblue" stroke="midnightblue" points="698.247,-22.9014 688.106,-19.8339 694.12,-28.5559 698.247,-22.9014"/>
</g>
<!-- Node9 -->
<g id="node9" class="node"><title>Node9</title>
<polygon fill="none" stroke="#bfbfbf" points="762.5,-0.5 762.5,-19.5 885.5,-19.5 885.5,-0.5 762.5,-0.5"/>
<text text-anchor="middle" x="824" y="-7.5" font-family="Helvetica,sans-Serif" font-size="10.00">iDynTree/Model/Model.h</text>
</g>
<!-- Node3&#45;&gt;Node9 -->
<g id="edge8" class="edge"><title>Node3&#45;&gt;Node9</title>
<path fill="none" stroke="midnightblue" d="M761.889,-56.324C773.15,-48.1066 790.287,-35.6017 803.709,-25.8069"/>
<polygon fill="midnightblue" stroke="midnightblue" points="805.88,-28.5559 811.894,-19.8339 801.753,-22.9014 805.88,-28.5559"/>
</g>
<!-- Node10 -->
<g id="node10" class="node"><title>Node10</title>
<polygon fill="none" stroke="#bfbfbf" points="903.5,-0.5 903.5,-19.5 1066.5,-19.5 1066.5,-0.5 903.5,-0.5"/>
<text text-anchor="middle" x="985" y="-7.5" font-family="Helvetica,sans-Serif" font-size="10.00">iDynTree/ModelIO/ModelLoader.h</text>
</g>
<!-- Node3&#45;&gt;Node10 -->
<g id="edge9" class="edge"><title>Node3&#45;&gt;Node10</title>
<path fill="none" stroke="midnightblue" d="M787.236,-56.4435C828.06,-47.0629 893.643,-31.9926 937.984,-21.8036"/>
<polygon fill="midnightblue" stroke="midnightblue" points="938.976,-25.1671 947.938,-19.5164 937.408,-18.3449 938.976,-25.1671"/>
</g>
<!-- Node11 -->
<g id="node11" class="node"><title>Node11</title>
<polygon fill="none" stroke="#bfbfbf" points="1084.5,-0.5 1084.5,-19.5 1245.5,-19.5 1245.5,-0.5 1084.5,-0.5"/>
<text text-anchor="middle" x="1165" y="-7.5" font-family="Helvetica,sans-Serif" font-size="10.00">iDynTree/KinDynComputations.h</text>
</g>
<!-- Node3&#45;&gt;Node11 -->
<g id="edge10" class="edge"><title>Node3&#45;&gt;Node11</title>
<path fill="none" stroke="midnightblue" d="M815.758,-56.4435C890.127,-46.7666 1011.03,-31.0351 1089.28,-20.8533"/>
<polygon fill="midnightblue" stroke="midnightblue" points="1090.08,-24.2776 1099.55,-19.5164 1089.18,-17.3361 1090.08,-24.2776"/>
</g>
<!-- Node12 -->
<g id="node12" class="node"><title>Node12</title>
<polygon fill="none" stroke="#bfbfbf" points="1263.5,-0.5 1263.5,-19.5 1376.5,-19.5 1376.5,-0.5 1263.5,-0.5"/>
<text text-anchor="middle" x="1320" y="-7.5" font-family="Helvetica,sans-Serif" font-size="10.00">IpIpoptApplication.hpp</text>
</g>
<!-- Node3&#45;&gt;Node12 -->
<g id="edge11" class="edge"><title>Node3&#45;&gt;Node12</title>
<path fill="none" stroke="midnightblue" d="M824.203,-56.8695C827.174,-56.5707 830.115,-56.2798 833,-56 1016.63,-38.1951 1065.64,-40.6007 1253.29,-20.0218"/>
<polygon fill="midnightblue" stroke="midnightblue" points="1253.94,-23.4712 1263.5,-18.8948 1253.17,-16.5135 1253.94,-23.4712"/>
</g>
<!-- Node13 -->
<g id="node13" class="node"><title>Node13</title>
<polygon fill="none" stroke="#bfbfbf" points="1394.5,-0.5 1394.5,-19.5 1459.5,-19.5 1459.5,-0.5 1394.5,-0.5"/>
<text text-anchor="middle" x="1427" y="-7.5" font-family="Helvetica,sans-Serif" font-size="10.00">Eigen/Core</text>
</g>
<!-- Node3&#45;&gt;Node13 -->
<g id="edge12" class="edge"><title>Node3&#45;&gt;Node13</title>
<path fill="none" stroke="midnightblue" d="M824.196,-56.7952C827.169,-56.517 830.112,-56.2506 833,-56 1074.59,-35.0339 1139.71,-53.3321 1383.81,-19.9506"/>
<polygon fill="midnightblue" stroke="midnightblue" points="1384.64,-23.3694 1394.07,-18.5324 1383.68,-16.4354 1384.64,-23.3694"/>
</g>
</g>
</svg>
