<?xml version="1.0" encoding="UTF-8" standalone="no"?>
<!DOCTYPE svg PUBLIC "-//W3C//DTD SVG 1.1//EN"
 "http://www.w3.org/Graphics/SVG/1.1/DTD/svg11.dtd">
<!-- Generated by graphviz version 2.36.0 (20140111.2315)
 -->
<!-- Title: /home/travis/build/robotology/human&#45;dynamics&#45;estimation/inverse&#45;kinematics/include/human&#45;ik/InverseKinematics.h Pages: 1 -->
<!--zoomable 262 -->
<svg id="main" version="1.1" xmlns="http://www.w3.org/2000/svg" xmlns:xlink="http://www.w3.org/1999/xlink" xml:space="preserve" onload="init(evt)">
<style type="text/css"><![CDATA[
.edge:hover path { stroke: red; }
.edge:hover polygon { stroke: red; fill: red; }
]]></style>
<script type="text/javascript"><![CDATA[
var edges = document.getElementsByTagName('g');
if (edges && edges.length) {
  for (var i=0;i<edges.length;i++) {
    if (edges[i].id.substr(0,4)=='edge') {
      edges[i].setAttribute('class','edge');
    }
  }
}
]]></script>
        <defs>
                <circle id="rim" cx="0" cy="0" r="7"/>
                <circle id="rim2" cx="0" cy="0" r="3.5"/>
                <g id="zoomPlus">
                        <use xlink:href="#rim" fill="#404040">
                                <set attributeName="fill" to="#808080" begin="zoomplus.mouseover" end="zoomplus.mouseout"/>
                        </use>
                        <path d="M-4,0h8M0,-4v8" fill="none" stroke="white" stroke-width="1.5" pointer-events="none"/>
                </g>
                <g id="zoomMin">
                        <use xlink:href="#rim" fill="#404040">
                                <set attributeName="fill" to="#808080" begin="zoomminus.mouseover" end="zoomminus.mouseout"/>
                        </use>
                        <path d="M-4,0h8" fill="none" stroke="white" stroke-width="1.5" pointer-events="none"/>
                </g>
                <g id="dirArrow">
                        <path fill="none" stroke="white" stroke-width="1.5" d="M0,-3.0v7 M-2.5,-0.5L0,-3.0L2.5,-0.5"/>
                </g>
               <g id="resetDef">
                       <use xlink:href="#rim2" fill="#404040">
                               <set attributeName="fill" to="#808080" begin="reset.mouseover" end="reset.mouseout"/>
                       </use>
               </g>
        </defs>

<script type="text/javascript">
var viewWidth = 905;
var viewHeight = 262;
var sectionId = 'dynsection-1';
</script>
<script xlink:href="svgpan.js"/>
<svg id="graph" class="graph">
<g id="viewport">
<title>/home/travis/build/robotology/human&#45;dynamics&#45;estimation/inverse&#45;kinematics/include/human&#45;ik/InverseKinematics.h</title>
<!-- Node1 -->
<g id="node1" class="node"><title>Node1</title>
<polygon fill="#bfbfbf" stroke="black" points="345.5,-201 345.5,-253 530.5,-253 530.5,-201 345.5,-201"/>
<text text-anchor="start" x="353.5" y="-241" font-family="Helvetica,sans-Serif" font-size="10.00">/home/travis/build</text>
<text text-anchor="start" x="353.5" y="-230" font-family="Helvetica,sans-Serif" font-size="10.00">/robotology/human&#45;dynamics</text>
<text text-anchor="start" x="353.5" y="-219" font-family="Helvetica,sans-Serif" font-size="10.00">&#45;estimation/inverse&#45;kinematics</text>
<text text-anchor="middle" x="438" y="-208" font-family="Helvetica,sans-Serif" font-size="10.00">/include/human&#45;ik/InverseKinematics.h</text>
</g>
<!-- Node2 -->
<g id="node2" class="node"><title>Node2</title>
<g id="a_node2"><a xlink:href="_human_state_provider_private_8h.html" target="_top" xlink:title="/home/travis/build\l/robotology/human&#45;dynamics\l&#45;estimation/human&#45;state\l&#45;provider/include/private\l/HumanStateProviderPrivate.h">
<polygon fill="none" stroke="black" points="210.5,-100.5 210.5,-163.5 359.5,-163.5 359.5,-100.5 210.5,-100.5"/>
<text text-anchor="start" x="218.5" y="-151.5" font-family="Helvetica,sans-Serif" font-size="10.00">/home/travis/build</text>
<text text-anchor="start" x="218.5" y="-140.5" font-family="Helvetica,sans-Serif" font-size="10.00">/robotology/human&#45;dynamics</text>
<text text-anchor="start" x="218.5" y="-129.5" font-family="Helvetica,sans-Serif" font-size="10.00">&#45;estimation/human&#45;state</text>
<text text-anchor="start" x="218.5" y="-118.5" font-family="Helvetica,sans-Serif" font-size="10.00">&#45;provider/include/private</text>
<text text-anchor="middle" x="285" y="-107.5" font-family="Helvetica,sans-Serif" font-size="10.00">/HumanStateProviderPrivate.h</text>
</a>
</g>
</g>
<!-- Node1&#45;&gt;Node2 -->
<g id="edge1" class="edge"><title>Node1&#45;&gt;Node2</title>
<path fill="none" stroke="midnightblue" d="M387.982,-195.597C371.13,-185.354 352.322,-173.921 335.438,-163.659"/>
<polygon fill="midnightblue" stroke="midnightblue" points="386.233,-198.629 396.596,-200.833 389.869,-192.648 386.233,-198.629"/>
</g>
<!-- Node3 -->
<g id="node3" class="node"><title>Node3</title>
<g id="a_node3"><a xlink:href="_human_i_k_worker_pool_8cpp.html" target="_top" xlink:title="/home/travis/build\l/robotology/human&#45;dynamics\l&#45;estimation/human&#45;state\l&#45;provider/src/HumanIKWorkerPool.cpp">
<polygon fill="none" stroke="black" points="-0.5,-6 -0.5,-58 184.5,-58 184.5,-6 -0.5,-6"/>
<text text-anchor="start" x="7.5" y="-46" font-family="Helvetica,sans-Serif" font-size="10.00">/home/travis/build</text>
<text text-anchor="start" x="7.5" y="-35" font-family="Helvetica,sans-Serif" font-size="10.00">/robotology/human&#45;dynamics</text>
<text text-anchor="start" x="7.5" y="-24" font-family="Helvetica,sans-Serif" font-size="10.00">&#45;estimation/human&#45;state</text>
<text text-anchor="middle" x="92" y="-13" font-family="Helvetica,sans-Serif" font-size="10.00">&#45;provider/src/HumanIKWorkerPool.cpp</text>
</a>
</g>
</g>
<!-- Node1&#45;&gt;Node3 -->
<g id="edge5" class="edge"><title>Node1&#45;&gt;Node3</title>
<path fill="none" stroke="midnightblue" d="M335.585,-213.484C291.61,-204.627 241.207,-189.564 201,-164 158.431,-136.934 124.216,-87.8123 106.109,-58.0195"/>
<polygon fill="midnightblue" stroke="midnightblue" points="334.963,-216.929 345.445,-215.389 336.291,-210.056 334.963,-216.929"/>
</g>
<!-- Node4 -->
<g id="node4" class="node"><title>Node4</title>
<g id="a_node4"><a xlink:href="_human_state_provider_8cpp.html" target="_top" xlink:title="/home/travis/build\l/robotology/human&#45;dynamics\l&#45;estimation/human&#45;state\l&#45;provider/src/HumanStateProvider.cpp">
<polygon fill="none" stroke="black" points="385.5,-6 385.5,-58 568.5,-58 568.5,-6 385.5,-6"/>
<text text-anchor="start" x="393.5" y="-46" font-family="Helvetica,sans-Serif" font-size="10.00">/home/travis/build</text>
<text text-anchor="start" x="393.5" y="-35" font-family="Helvetica,sans-Serif" font-size="10.00">/robotology/human&#45;dynamics</text>
<text text-anchor="start" x="393.5" y="-24" font-family="Helvetica,sans-Serif" font-size="10.00">&#45;estimation/human&#45;state</text>
<text text-anchor="middle" x="477" y="-13" font-family="Helvetica,sans-Serif" font-size="10.00">&#45;provider/src/HumanStateProvider.cpp</text>
</a>
</g>
</g>
<!-- Node1&#45;&gt;Node4 -->
<g id="edge6" class="edge"><title>Node1&#45;&gt;Node4</title>
<path fill="none" stroke="midnightblue" d="M416.813,-192.026C412.359,-183.218 408.312,-173.522 406,-164 399.287,-136.359 394.735,-126.119 406,-100 413.115,-83.5038 426.51,-69.1815 439.766,-58.0611"/>
<polygon fill="midnightblue" stroke="midnightblue" points="413.731,-193.686 421.546,-200.84 419.898,-190.374 413.731,-193.686"/>
</g>
<!-- Node6 -->
<g id="node6" class="node"><title>Node6</title>
<g id="a_node6"><a xlink:href="_inverse_kinematics_8cpp.html" target="_top" xlink:title="/home/travis/build\l/robotology/human&#45;dynamics\l&#45;estimation/inverse&#45;kinematics\l/src/InverseKinematics.cpp">
<polygon fill="none" stroke="black" points="414.5,-106 414.5,-158 563.5,-158 563.5,-106 414.5,-106"/>
<text text-anchor="start" x="422.5" y="-146" font-family="Helvetica,sans-Serif" font-size="10.00">/home/travis/build</text>
<text text-anchor="start" x="422.5" y="-135" font-family="Helvetica,sans-Serif" font-size="10.00">/robotology/human&#45;dynamics</text>
<text text-anchor="start" x="422.5" y="-124" font-family="Helvetica,sans-Serif" font-size="10.00">&#45;estimation/inverse&#45;kinematics</text>
<text text-anchor="middle" x="489" y="-113" font-family="Helvetica,sans-Serif" font-size="10.00">/src/InverseKinematics.cpp</text>
</a>
</g>
</g>
<!-- Node1&#45;&gt;Node6 -->
<g id="edge7" class="edge"><title>Node1&#45;&gt;Node6</title>
<path fill="none" stroke="midnightblue" d="M456.891,-191.551C462.981,-180.446 469.612,-168.355 475.257,-158.06"/>
<polygon fill="midnightblue" stroke="midnightblue" points="453.676,-190.136 451.936,-200.587 459.813,-193.502 453.676,-190.136"/>
</g>
<!-- Node7 -->
<g id="node7" class="node"><title>Node7</title>
<g id="a_node7"><a xlink:href="test_i_k_8cpp.html" target="_top" xlink:title="/home/travis/build\l/robotology/human&#45;dynamics\l&#45;estimation/inverse&#45;kinematics\l/tests/testIK.cpp">
<polygon fill="none" stroke="black" points="581.5,-106 581.5,-158 730.5,-158 730.5,-106 581.5,-106"/>
<text text-anchor="start" x="589.5" y="-146" font-family="Helvetica,sans-Serif" font-size="10.00">/home/travis/build</text>
<text text-anchor="start" x="589.5" y="-135" font-family="Helvetica,sans-Serif" font-size="10.00">/robotology/human&#45;dynamics</text>
<text text-anchor="start" x="589.5" y="-124" font-family="Helvetica,sans-Serif" font-size="10.00">&#45;estimation/inverse&#45;kinematics</text>
<text text-anchor="middle" x="656" y="-113" font-family="Helvetica,sans-Serif" font-size="10.00">/tests/testIK.cpp</text>
</a>
</g>
</g>
<!-- Node1&#45;&gt;Node7 -->
<g id="edge8" class="edge"><title>Node1&#45;&gt;Node7</title>
<path fill="none" stroke="midnightblue" d="M506.02,-196.982C535.244,-184.515 569.067,-170.086 597.188,-158.089"/>
<polygon fill="midnightblue" stroke="midnightblue" points="504.531,-193.812 496.707,-200.955 507.278,-200.251 504.531,-193.812"/>
</g>
<!-- Node8 -->
<g id="node8" class="node"><title>Node8</title>
<g id="a_node8"><a xlink:href="test_suit_8cpp.html" target="_top" xlink:title="/home/travis/build\l/robotology/human&#45;dynamics\l&#45;estimation/inverse&#45;kinematics\l/tests/testSuit.cpp">
<polygon fill="none" stroke="black" points="748.5,-106 748.5,-158 897.5,-158 897.5,-106 748.5,-106"/>
<text text-anchor="start" x="756.5" y="-146" font-family="Helvetica,sans-Serif" font-size="10.00">/home/travis/build</text>
<text text-anchor="start" x="756.5" y="-135" font-family="Helvetica,sans-Serif" font-size="10.00">/robotology/human&#45;dynamics</text>
<text text-anchor="start" x="756.5" y="-124" font-family="Helvetica,sans-Serif" font-size="10.00">&#45;estimation/inverse&#45;kinematics</text>
<text text-anchor="middle" x="823" y="-113" font-family="Helvetica,sans-Serif" font-size="10.00">/tests/testSuit.cpp</text>
</a>
</g>
</g>
<!-- Node1&#45;&gt;Node8 -->
<g id="edge9" class="edge"><title>Node1&#45;&gt;Node8</title>
<path fill="none" stroke="midnightblue" d="M540.761,-208.796C599.368,-198 673.895,-182.604 739,-164 745.278,-162.206 751.756,-160.166 758.201,-158.01"/>
<polygon fill="midnightblue" stroke="midnightblue" points="539.962,-205.383 530.754,-210.623 541.22,-212.27 539.962,-205.383"/>
</g>
<!-- Node2&#45;&gt;Node3 -->
<g id="edge2" class="edge"><title>Node2&#45;&gt;Node3</title>
<path fill="none" stroke="midnightblue" d="M215.802,-95.8632C191.224,-83.3831 164.071,-69.5956 141.472,-58.1206"/>
<polygon fill="midnightblue" stroke="midnightblue" points="214.226,-98.9885 224.727,-100.395 217.396,-92.747 214.226,-98.9885"/>
</g>
<!-- Node2&#45;&gt;Node4 -->
<g id="edge3" class="edge"><title>Node2&#45;&gt;Node4</title>
<path fill="none" stroke="midnightblue" d="M354.161,-95.6989C378.527,-83.2622 405.401,-69.5452 427.784,-58.1206"/>
<polygon fill="midnightblue" stroke="midnightblue" points="352.276,-92.7316 344.96,-100.395 355.458,-98.9664 352.276,-92.7316"/>
</g>
<!-- Node5 -->
<g id="node5" class="node"><title>Node5</title>
<g id="a_node5"><a xlink:href="_human_state_provider_private_8cpp.html" target="_top" xlink:title="/home/travis/build\l/robotology/human&#45;dynamics\l&#45;estimation/human&#45;state\l&#45;provider/src/HumanStateProvider\lPrivate.cpp">
<polygon fill="none" stroke="black" points="203,-0.5 203,-63.5 367,-63.5 367,-0.5 203,-0.5"/>
<text text-anchor="start" x="211" y="-51.5" font-family="Helvetica,sans-Serif" font-size="10.00">/home/travis/build</text>
<text text-anchor="start" x="211" y="-40.5" font-family="Helvetica,sans-Serif" font-size="10.00">/robotology/human&#45;dynamics</text>
<text text-anchor="start" x="211" y="-29.5" font-family="Helvetica,sans-Serif" font-size="10.00">&#45;estimation/human&#45;state</text>
<text text-anchor="start" x="211" y="-18.5" font-family="Helvetica,sans-Serif" font-size="10.00">&#45;provider/src/HumanStateProvider</text>
<text text-anchor="middle" x="285" y="-7.5" font-family="Helvetica,sans-Serif" font-size="10.00">Private.cpp</text>
</a>
</g>
</g>
<!-- Node2&#45;&gt;Node5 -->
<g id="edge4" class="edge"><title>Node2&#45;&gt;Node5</title>
<path fill="none" stroke="midnightblue" d="M285,-90.0987C285,-81.2383 285,-72.0145 285,-63.6299"/>
<polygon fill="midnightblue" stroke="midnightblue" points="281.5,-90.261 285,-100.261 288.5,-90.2611 281.5,-90.261"/>
</g>
</g>
</svg>
        <g id="navigator" transform="translate(0 0)" fill="#404254">
                <rect fill="#f2f5e9" fill-opacity="0.5" stroke="#606060" stroke-width=".5" x="0" y="0" width="60" height="60"/>
                <use id="zoomplus" xlink:href="#zoomPlus" x="17" y="9" onmousedown="handleZoom(evt,'in')"/>
                <use id="zoomminus" xlink:href="#zoomMin" x="42" y="9" onmousedown="handleZoom(evt,'out')"/>
                <use id="reset" xlink:href="#resetDef" x="30" y="36" onmousedown="handleReset()"/>
                <g id="arrowUp" xlink:href="#dirArrow" transform="translate(30 24)" onmousedown="handlePan(0,-1)">
                  <use xlink:href="#rim" fill="#404040">
                        <set attributeName="fill" to="#808080" begin="arrowUp.mouseover" end="arrowUp.mouseout"/>
                  </use>
                  <path fill="none" stroke="white" stroke-width="1.5" d="M0,-3.0v7 M-2.5,-0.5L0,-3.0L2.5,-0.5"/>
                </g>
                <g id="arrowRight" xlink:href="#dirArrow" transform="rotate(90) translate(36 -43)" onmousedown="handlePan(1,0)">
                  <use xlink:href="#rim" fill="#404040">
                        <set attributeName="fill" to="#808080" begin="arrowRight.mouseover" end="arrowRight.mouseout"/>
                  </use>
                  <path fill="none" stroke="white" stroke-width="1.5" d="M0,-3.0v7 M-2.5,-0.5L0,-3.0L2.5,-0.5"/>
                </g>
                <g id="arrowDown" xlink:href="#dirArrow" transform="rotate(180) translate(-30 -48)" onmousedown="handlePan(0,1)">
                  <use xlink:href="#rim" fill="#404040">
                        <set attributeName="fill" to="#808080" begin="arrowDown.mouseover" end="arrowDown.mouseout"/>
                  </use>
                  <path fill="none" stroke="white" stroke-width="1.5" d="M0,-3.0v7 M-2.5,-0.5L0,-3.0L2.5,-0.5"/>
                </g>
                <g id="arrowLeft" xlink:href="#dirArrow" transform="rotate(270) translate(-36 17)" onmousedown="handlePan(-1,0)">
                  <use xlink:href="#rim" fill="#404040">
                        <set attributeName="fill" to="#808080" begin="arrowLeft.mouseover" end="arrowLeft.mouseout"/>
                  </use>
                  <path fill="none" stroke="white" stroke-width="1.5" d="M0,-3.0v7 M-2.5,-0.5L0,-3.0L2.5,-0.5"/>
                </g>
        </g>
        <svg viewBox="0 0 15 15" width="100%" height="30px" preserveAspectRatio="xMaxYMin meet">
         <g id="arrow_out" transform="scale(0.3 0.3)">
          <a xlink:href="_inverse_kinematics_8h__dep__incl_org.svg" target="_base">
           <rect id="button" ry="5" rx="5" y="6" x="6" height="38" width="38"
                fill="#f2f5e9" fill-opacity="0.5" stroke="#606060" stroke-width="1.0"/>
           <path id="arrow"
             d="M 11.500037,31.436501 C 11.940474,20.09759 22.043105,11.32322 32.158766,21.979434 L 37.068811,17.246167 C 37.068811,17.246167 37.088388,32 37.088388,32 L 22.160133,31.978069 C 22.160133,31.978069 26.997745,27.140456 26.997745,27.140456 C 18.528582,18.264221 13.291696,25.230495 11.500037,31.436501 z"
             style="fill:#404040;"/>
          </a>
         </g>
        </svg>
</svg>
