<?xml version="1.0" encoding="UTF-8" standalone="no"?>
<!DOCTYPE svg PUBLIC "-//W3C//DTD SVG 1.1//EN"
 "http://www.w3.org/Graphics/SVG/1.1/DTD/svg11.dtd">
<!-- Generated by graphviz version 2.36.0 (20140111.2315)
 -->
<!-- Title: /home/travis/build/robotology/human&#45;dynamics&#45;estimation/human&#45;forces&#45;provider/src/PortForceReader.cpp Pages: 1 -->
<svg width="460pt" height="230pt"
 viewBox="0.00 0.00 460.00 230.00" xmlns="http://www.w3.org/2000/svg" xmlns:xlink="http://www.w3.org/1999/xlink">
<g id="graph0" class="graph" transform="scale(1 1) rotate(0) translate(4 226)">
<title>/home/travis/build/robotology/human&#45;dynamics&#45;estimation/human&#45;forces&#45;provider/src/PortForceReader.cpp</title>
<!-- Node1 -->
<g id="node1" class="node"><title>Node1</title>
<polygon fill="#bfbfbf" stroke="black" points="143.5,-169 143.5,-221 310.5,-221 310.5,-169 143.5,-169"/>
<text text-anchor="start" x="151.5" y="-209" font-family="Helvetica,sans-Serif" font-size="10.00">/home/travis/build</text>
<text text-anchor="start" x="151.5" y="-198" font-family="Helvetica,sans-Serif" font-size="10.00">/robotology/human&#45;dynamics</text>
<text text-anchor="start" x="151.5" y="-187" font-family="Helvetica,sans-Serif" font-size="10.00">&#45;estimation/human&#45;forces</text>
<text text-anchor="middle" x="227" y="-176" font-family="Helvetica,sans-Serif" font-size="10.00">&#45;provider/src/PortForceReader.cpp</text>
</g>
<!-- Node2 -->
<g id="node2" class="node"><title>Node2</title>
<g id="a_node2"><a xlink:href="_port_force_reader_8h.html" target="_top" xlink:title="PortForceReader.h">
<polygon fill="none" stroke="black" points="56.5,-112.5 56.5,-131.5 155.5,-131.5 155.5,-112.5 56.5,-112.5"/>
<text text-anchor="middle" x="106" y="-119.5" font-family="Helvetica,sans-Serif" font-size="10.00">PortForceReader.h</text>
</a>
</g>
</g>
<!-- Node1&#45;&gt;Node2 -->
<g id="edge1" class="edge"><title>Node1&#45;&gt;Node2</title>
<path fill="none" stroke="midnightblue" d="M184.34,-168.968C165.971,-158.19 145.193,-145.997 129.653,-136.879"/>
<polygon fill="midnightblue" stroke="midnightblue" points="131.119,-133.681 120.723,-131.639 127.576,-139.718 131.119,-133.681"/>
</g>
<!-- Node5 -->
<g id="node5" class="node"><title>Node5</title>
<polygon fill="none" stroke="#bfbfbf" points="109.5,-0.5 109.5,-19.5 200.5,-19.5 200.5,-0.5 109.5,-0.5"/>
<text text-anchor="middle" x="155" y="-7.5" font-family="Helvetica,sans-Serif" font-size="10.00">yarp/sig/Vector.h</text>
</g>
<!-- Node1&#45;&gt;Node5 -->
<g id="edge6" class="edge"><title>Node1&#45;&gt;Node5</title>
<path fill="none" stroke="midnightblue" d="M217.14,-168.938C202.468,-131.649 175.23,-62.4186 162.247,-29.4187"/>
<polygon fill="midnightblue" stroke="midnightblue" points="165.347,-27.7391 158.429,-19.7149 158.833,-30.302 165.347,-27.7391"/>
</g>
<!-- Node6 -->
<g id="node6" class="node"><title>Node6</title>
<polygon fill="none" stroke="#bfbfbf" points="212.5,-112.5 212.5,-131.5 327.5,-131.5 327.5,-112.5 212.5,-112.5"/>
<text text-anchor="middle" x="270" y="-119.5" font-family="Helvetica,sans-Serif" font-size="10.00">yarp/os/BufferedPort.h</text>
</g>
<!-- Node1&#45;&gt;Node6 -->
<g id="edge7" class="edge"><title>Node1&#45;&gt;Node6</title>
<path fill="none" stroke="midnightblue" d="M242.281,-168.768C247.964,-159.385 254.281,-148.955 259.447,-140.425"/>
<polygon fill="midnightblue" stroke="midnightblue" points="262.51,-142.124 264.696,-131.757 256.522,-138.498 262.51,-142.124"/>
</g>
<!-- Node7 -->
<g id="node7" class="node"><title>Node7</title>
<polygon fill="none" stroke="#bfbfbf" points="345.5,-112.5 345.5,-131.5 452.5,-131.5 452.5,-112.5 345.5,-112.5"/>
<text text-anchor="middle" x="399" y="-119.5" font-family="Helvetica,sans-Serif" font-size="10.00">yarp/os/LogStream.h</text>
</g>
<!-- Node1&#45;&gt;Node7 -->
<g id="edge8" class="edge"><title>Node1&#45;&gt;Node7</title>
<path fill="none" stroke="midnightblue" d="M287.641,-168.968C315.107,-157.63 346.362,-144.728 368.754,-135.485"/>
<polygon fill="midnightblue" stroke="midnightblue" points="370.164,-138.69 378.072,-131.639 367.493,-132.219 370.164,-138.69"/>
</g>
<!-- Node3 -->
<g id="node3" class="node"><title>Node3</title>
<g id="a_node3"><a xlink:href="_abstract_force_reader_8h.html" target="_top" xlink:title="AbstractForceReader.h">
<polygon fill="none" stroke="black" points="0,-56.5 0,-75.5 118,-75.5 118,-56.5 0,-56.5"/>
<text text-anchor="middle" x="59" y="-63.5" font-family="Helvetica,sans-Serif" font-size="10.00">AbstractForceReader.h</text>
</a>
</g>
</g>
<!-- Node2&#45;&gt;Node3 -->
<g id="edge2" class="edge"><title>Node2&#45;&gt;Node3</title>
<path fill="none" stroke="midnightblue" d="M98.2389,-112.083C91.4632,-104.298 81.4568,-92.8015 73.2449,-83.3665"/>
<polygon fill="midnightblue" stroke="midnightblue" points="75.822,-80.9963 66.6167,-75.7511 70.5419,-85.592 75.822,-80.9963"/>
</g>
<!-- Node2&#45;&gt;Node5 -->
<g id="edge5" class="edge"><title>Node2&#45;&gt;Node5</title>
<path fill="none" stroke="midnightblue" d="M110.103,-112.408C114.392,-103.379 121.283,-88.7431 127,-76 134.064,-60.254 141.805,-42.2202 147.354,-29.1487"/>
<polygon fill="midnightblue" stroke="midnightblue" points="150.607,-30.4415 151.279,-19.868 144.16,-27.7146 150.607,-30.4415"/>
</g>
<!-- Node4 -->
<g id="node4" class="node"><title>Node4</title>
<g id="a_node4"><a xlink:href="_force_reader_8h.html" target="_top" xlink:title="ForceReader.h">
<polygon fill="none" stroke="black" points="10.5,-0.5 10.5,-19.5 91.5,-19.5 91.5,-0.5 10.5,-0.5"/>
<text text-anchor="middle" x="51" y="-7.5" font-family="Helvetica,sans-Serif" font-size="10.00">ForceReader.h</text>
</a>
</g>
</g>
<!-- Node3&#45;&gt;Node4 -->
<g id="edge3" class="edge"><title>Node3&#45;&gt;Node4</title>
<path fill="none" stroke="midnightblue" d="M57.679,-56.083C56.6189,-48.9272 55.0941,-38.6353 53.7691,-29.6911"/>
<polygon fill="midnightblue" stroke="midnightblue" points="57.2242,-29.1302 52.2965,-19.7511 50.2998,-30.1561 57.2242,-29.1302"/>
</g>
<!-- Node3&#45;&gt;Node5 -->
<g id="edge4" class="edge"><title>Node3&#45;&gt;Node5</title>
<path fill="none" stroke="midnightblue" d="M74.4241,-56.324C89.5395,-47.8215 112.815,-34.7288 130.471,-24.7975"/>
<polygon fill="midnightblue" stroke="midnightblue" points="132.614,-27.6077 139.614,-19.6545 129.183,-21.5066 132.614,-27.6077"/>
</g>
</g>
</svg>
