<?xml version="1.0" encoding="UTF-8" standalone="no"?>
<!DOCTYPE svg PUBLIC "-//W3C//DTD SVG 1.1//EN"
 "http://www.w3.org/Graphics/SVG/1.1/DTD/svg11.dtd">
<!-- Generated by graphviz version 2.36.0 (20140111.2315)
 -->
<!-- Title: /home/travis/build/robotology/human&#45;dynamics&#45;estimation/human&#45;forces&#45;provider/include/PortForceReader.h Pages: 1 -->
<svg width="199pt" height="174pt"
 viewBox="0.00 0.00 199.00 174.00" xmlns="http://www.w3.org/2000/svg" xmlns:xlink="http://www.w3.org/1999/xlink">
<g id="graph0" class="graph" transform="scale(1 1) rotate(0) translate(4 170)">
<title>/home/travis/build/robotology/human&#45;dynamics&#45;estimation/human&#45;forces&#45;provider/include/PortForceReader.h</title>
<!-- Node1 -->
<g id="node1" class="node"><title>Node1</title>
<polygon fill="#bfbfbf" stroke="black" points="15.5,-113 15.5,-165 188.5,-165 188.5,-113 15.5,-113"/>
<text text-anchor="start" x="23.5" y="-153" font-family="Helvetica,sans-Serif" font-size="10.00">/home/travis/build</text>
<text text-anchor="start" x="23.5" y="-142" font-family="Helvetica,sans-Serif" font-size="10.00">/robotology/human&#45;dynamics</text>
<text text-anchor="start" x="23.5" y="-131" font-family="Helvetica,sans-Serif" font-size="10.00">&#45;estimation/human&#45;forces</text>
<text text-anchor="middle" x="102" y="-120" font-family="Helvetica,sans-Serif" font-size="10.00">&#45;provider/include/PortForceReader.h</text>
</g>
<!-- Node2 -->
<g id="node2" class="node"><title>Node2</title>
<g id="a_node2"><a xlink:href="_abstract_force_reader_8h.html" target="_top" xlink:title="AbstractForceReader.h">
<polygon fill="none" stroke="black" points="0,-56.5 0,-75.5 118,-75.5 118,-56.5 0,-56.5"/>
<text text-anchor="middle" x="59" y="-63.5" font-family="Helvetica,sans-Serif" font-size="10.00">AbstractForceReader.h</text>
</a>
</g>
</g>
<!-- Node1&#45;&gt;Node2 -->
<g id="edge1" class="edge"><title>Node1&#45;&gt;Node2</title>
<path fill="none" stroke="midnightblue" d="M86.7187,-112.768C81.0361,-103.385 74.7194,-92.9553 69.5529,-84.4245"/>
<polygon fill="midnightblue" stroke="midnightblue" points="72.4778,-82.4976 64.3036,-75.7572 66.4903,-86.1239 72.4778,-82.4976"/>
</g>
<!-- Node4 -->
<g id="node4" class="node"><title>Node4</title>
<polygon fill="none" stroke="#bfbfbf" points="100.5,-0.5 100.5,-19.5 191.5,-19.5 191.5,-0.5 100.5,-0.5"/>
<text text-anchor="middle" x="146" y="-7.5" font-family="Helvetica,sans-Serif" font-size="10.00">yarp/sig/Vector.h</text>
</g>
<!-- Node1&#45;&gt;Node4 -->
<g id="edge4" class="edge"><title>Node1&#45;&gt;Node4</title>
<path fill="none" stroke="midnightblue" d="M112.789,-112.875C117.423,-101.683 122.741,-88.2811 127,-76 132.357,-60.5531 137.501,-42.7079 141.082,-29.628"/>
<polygon fill="midnightblue" stroke="midnightblue" points="144.476,-30.4849 143.693,-19.919 137.716,-28.6669 144.476,-30.4849"/>
</g>
<!-- Node3 -->
<g id="node3" class="node"><title>Node3</title>
<g id="a_node3"><a xlink:href="_force_reader_8h.html" target="_top" xlink:title="ForceReader.h">
<polygon fill="none" stroke="black" points="1.5,-0.5 1.5,-19.5 82.5,-19.5 82.5,-0.5 1.5,-0.5"/>
<text text-anchor="middle" x="42" y="-7.5" font-family="Helvetica,sans-Serif" font-size="10.00">ForceReader.h</text>
</a>
</g>
</g>
<!-- Node2&#45;&gt;Node3 -->
<g id="edge2" class="edge"><title>Node2&#45;&gt;Node3</title>
<path fill="none" stroke="midnightblue" d="M56.1928,-56.083C53.9153,-48.8486 50.6287,-38.4087 47.7916,-29.3968"/>
<polygon fill="midnightblue" stroke="midnightblue" points="51.0964,-28.2385 44.755,-19.7511 44.4194,-30.3406 51.0964,-28.2385"/>
</g>
<!-- Node2&#45;&gt;Node4 -->
<g id="edge3" class="edge"><title>Node2&#45;&gt;Node4</title>
<path fill="none" stroke="midnightblue" d="M72.9781,-56.324C86.5496,-47.9002 107.38,-34.9709 123.325,-25.0741"/>
<polygon fill="midnightblue" stroke="midnightblue" points="125.406,-27.9019 132.057,-19.6545 121.714,-21.9544 125.406,-27.9019"/>
</g>
</g>
</svg>
