<?xml version="1.0" encoding="UTF-8" standalone="no"?>
<!DOCTYPE svg PUBLIC "-//W3C//DTD SVG 1.1//EN"
 "http://www.w3.org/Graphics/SVG/1.1/DTD/svg11.dtd">
<!-- Generated by graphviz version 2.36.0 (20140111.2315)
 -->
<!-- Title: /home/travis/build/robotology/human&#45;dynamics&#45;estimation/yarp/ReadOnlyRemoteControlBoard/ReadOnlyRemoteControlBoard.cpp Pages: 1 -->
<svg width="2032pt" height="298pt"
 viewBox="0.00 0.00 2032.02 298.00" xmlns="http://www.w3.org/2000/svg" xmlns:xlink="http://www.w3.org/1999/xlink">
<g id="graph0" class="graph" transform="scale(1 1) rotate(0) translate(4 294)">
<title>/home/travis/build/robotology/human&#45;dynamics&#45;estimation/yarp/ReadOnlyRemoteControlBoard/ReadOnlyRemoteControlBoard.cpp</title>
<!-- Node1 -->
<g id="node1" class="node"><title>Node1</title>
<polygon fill="#bfbfbf" stroke="black" points="1629.02,-237 1629.02,-289 1859.02,-289 1859.02,-237 1629.02,-237"/>
<text text-anchor="start" x="1637.02" y="-277" font-family="Helvetica,sans-Serif" font-size="10.00">/home/travis/build</text>
<text text-anchor="start" x="1637.02" y="-266" font-family="Helvetica,sans-Serif" font-size="10.00">/robotology/human&#45;dynamics</text>
<text text-anchor="start" x="1637.02" y="-255" font-family="Helvetica,sans-Serif" font-size="10.00">&#45;estimation/yarp/ReadOnlyRemote</text>
<text text-anchor="middle" x="1744.02" y="-244" font-family="Helvetica,sans-Serif" font-size="10.00">ControlBoard/ReadOnlyRemoteControlBoard.cpp</text>
</g>
<!-- Node2 -->
<g id="node2" class="node"><title>Node2</title>
<g id="a_node2"><a xlink:href="_read_only_remote_control_board_8h.html" target="_top" xlink:title="ReadOnlyRemoteControlBoard.h">
<polygon fill="none" stroke="black" points="825.024,-180.5 825.024,-199.5 985.024,-199.5 985.024,-180.5 825.024,-180.5"/>
<text text-anchor="middle" x="905.024" y="-187.5" font-family="Helvetica,sans-Serif" font-size="10.00">ReadOnlyRemoteControlBoard.h</text>
</a>
</g>
</g>
<!-- Node1&#45;&gt;Node2 -->
<g id="edge1" class="edge"><title>Node1&#45;&gt;Node2</title>
<path fill="none" stroke="midnightblue" d="M1628.68,-252.239C1459.86,-237.953 1148.91,-211.639 995.495,-198.656"/>
<polygon fill="midnightblue" stroke="midnightblue" points="995.432,-195.138 985.173,-197.783 994.842,-202.113 995.432,-195.138"/>
</g>
<!-- Node11 -->
<g id="node11" class="node"><title>Node11</title>
<polygon fill="none" stroke="#bfbfbf" points="1835.02,-62.5 1835.02,-81.5 1917.02,-81.5 1917.02,-62.5 1835.02,-62.5"/>
<text text-anchor="middle" x="1876.02" y="-69.5" font-family="Helvetica,sans-Serif" font-size="10.00">yarp/os/Time.h</text>
</g>
<!-- Node1&#45;&gt;Node11 -->
<g id="edge28" class="edge"><title>Node1&#45;&gt;Node11</title>
<path fill="none" stroke="midnightblue" d="M1732.22,-236.781C1720.19,-206.99 1706.39,-157.283 1730.02,-124 1733.34,-119.326 1797.23,-98.185 1839.38,-84.6321"/>
<polygon fill="midnightblue" stroke="midnightblue" points="1840.6,-87.9159 1849.06,-81.5312 1838.47,-81.2498 1840.6,-87.9159"/>
</g>
<!-- Node15 -->
<g id="node15" class="node"><title>Node15</title>
<polygon fill="none" stroke="#bfbfbf" points="1935.52,-62.5 1935.52,-81.5 2024.52,-81.5 2024.52,-62.5 1935.52,-62.5"/>
<text text-anchor="middle" x="1980.02" y="-69.5" font-family="Helvetica,sans-Serif" font-size="10.00">yarp/os/Stamp.h</text>
</g>
<!-- Node1&#45;&gt;Node15 -->
<g id="edge29" class="edge"><title>Node1&#45;&gt;Node15</title>
<path fill="none" stroke="midnightblue" d="M1744.69,-236.99C1746.36,-219.367 1751.11,-196.13 1764.02,-180 1788.58,-149.321 1893.36,-106.067 1947.44,-85.2006"/>
<polygon fill="midnightblue" stroke="midnightblue" points="1948.83,-88.4168 1956.92,-81.5731 1946.33,-81.8794 1948.83,-88.4168"/>
</g>
<!-- Node17 -->
<g id="node17" class="node"><title>Node17</title>
<polygon fill="none" stroke="#bfbfbf" points="109.524,-0.5 109.524,-19.5 200.524,-19.5 200.524,-0.5 109.524,-0.5"/>
<text text-anchor="middle" x="155.024" y="-7.5" font-family="Helvetica,sans-Serif" font-size="10.00">yarp/sig/Vector.h</text>
</g>
<!-- Node1&#45;&gt;Node17 -->
<g id="edge31" class="edge"><title>Node1&#45;&gt;Node17</title>
<path fill="none" stroke="midnightblue" d="M1628.99,-259.458C1258.38,-250.066 113.561,-211.223 8.02377,-88 -22.6109,-52.2315 45.8128,-30.7469 99.281,-19.8885"/>
<polygon fill="midnightblue" stroke="midnightblue" points="100.254,-23.2649 109.402,-17.9204 98.9179,-16.3936 100.254,-23.2649"/>
</g>
<!-- Node26 -->
<g id="node26" class="node"><title>Node26</title>
<polygon fill="none" stroke="#bfbfbf" points="1772.52,-180.5 1772.52,-199.5 1879.52,-199.5 1879.52,-180.5 1772.52,-180.5"/>
<text text-anchor="middle" x="1826.02" y="-187.5" font-family="Helvetica,sans-Serif" font-size="10.00">yarp/os/LogStream.h</text>
</g>
<!-- Node1&#45;&gt;Node26 -->
<g id="edge30" class="edge"><title>Node1&#45;&gt;Node26</title>
<path fill="none" stroke="midnightblue" d="M1773.16,-236.768C1784.82,-226.679 1797.87,-215.379 1808.09,-206.532"/>
<polygon fill="midnightblue" stroke="midnightblue" points="1810.64,-208.949 1815.91,-199.757 1806.06,-203.657 1810.64,-208.949"/>
</g>
<!-- Node27 -->
<g id="node27" class="node"><title>Node27</title>
<polygon fill="none" stroke="#bfbfbf" points="1897.02,-180.5 1897.02,-199.5 1953.02,-199.5 1953.02,-180.5 1897.02,-180.5"/>
<text text-anchor="middle" x="1925.02" y="-187.5" font-family="Helvetica,sans-Serif" font-size="10.00">algorithm</text>
</g>
<!-- Node1&#45;&gt;Node27 -->
<g id="edge32" class="edge"><title>Node1&#45;&gt;Node27</title>
<path fill="none" stroke="midnightblue" d="M1807.84,-236.968C1836.87,-225.58 1869.93,-212.613 1893.51,-203.361"/>
<polygon fill="midnightblue" stroke="midnightblue" points="1894.97,-206.549 1903,-199.639 1892.41,-200.032 1894.97,-206.549"/>
</g>
<!-- Node28 -->
<g id="node28" class="node"><title>Node28</title>
<polygon fill="none" stroke="#bfbfbf" points="1971.52,-180.5 1971.52,-199.5 2020.52,-199.5 2020.52,-180.5 1971.52,-180.5"/>
<text text-anchor="middle" x="1996.02" y="-187.5" font-family="Helvetica,sans-Serif" font-size="10.00">cassert</text>
</g>
<!-- Node1&#45;&gt;Node28 -->
<g id="edge33" class="edge"><title>Node1&#45;&gt;Node28</title>
<path fill="none" stroke="midnightblue" d="M1832.87,-236.968C1877.43,-224.413 1928.8,-209.94 1961.81,-200.641"/>
<polygon fill="midnightblue" stroke="midnightblue" points="1962.76,-204.009 1971.43,-197.929 1960.86,-197.272 1962.76,-204.009"/>
</g>
<!-- Node3 -->
<g id="node3" class="node"><title>Node3</title>
<polygon fill="none" stroke="#bfbfbf" points="626.524,-124.5 626.524,-143.5 763.524,-143.5 763.524,-124.5 626.524,-124.5"/>
<text text-anchor="middle" x="695.024" y="-131.5" font-family="Helvetica,sans-Serif" font-size="10.00">yarp/dev/IEncodersTimed.h</text>
</g>
<!-- Node2&#45;&gt;Node3 -->
<g id="edge2" class="edge"><title>Node2&#45;&gt;Node3</title>
<path fill="none" stroke="midnightblue" d="M871.749,-180.444C835.575,-171.142 777.647,-156.246 738.043,-146.062"/>
<polygon fill="midnightblue" stroke="midnightblue" points="738.7,-142.617 728.143,-143.516 736.956,-149.397 738.7,-142.617"/>
</g>
<!-- Node4 -->
<g id="node4" class="node"><title>Node4</title>
<polygon fill="none" stroke="#bfbfbf" points="844.024,-124.5 844.024,-143.5 966.024,-143.5 966.024,-124.5 844.024,-124.5"/>
<text text-anchor="middle" x="905.024" y="-131.5" font-family="Helvetica,sans-Serif" font-size="10.00">yarp/dev/DeviceDriver.h</text>
</g>
<!-- Node2&#45;&gt;Node4 -->
<g id="edge3" class="edge"><title>Node2&#45;&gt;Node4</title>
<path fill="none" stroke="midnightblue" d="M905.024,-180.083C905.024,-173.006 905.024,-162.861 905.024,-153.986"/>
<polygon fill="midnightblue" stroke="midnightblue" points="908.524,-153.751 905.024,-143.751 901.524,-153.751 908.524,-153.751"/>
</g>
<!-- Node5 -->
<g id="node5" class="node"><title>Node5</title>
<polygon fill="none" stroke="#bfbfbf" points="1651.02,-62.5 1651.02,-81.5 1817.02,-81.5 1817.02,-62.5 1651.02,-62.5"/>
<text text-anchor="middle" x="1734.02" y="-69.5" font-family="Helvetica,sans-Serif" font-size="10.00">yarp/dev/ControlBoardInterfaces.h</text>
</g>
<!-- Node2&#45;&gt;Node5 -->
<g id="edge4" class="edge"><title>Node2&#45;&gt;Node5</title>
<path fill="none" stroke="midnightblue" d="M971.073,-180.466C1100.01,-163.69 1394.19,-124.837 1641.02,-88 1651.2,-86.4816 1661.99,-84.8039 1672.47,-83.1367"/>
<polygon fill="midnightblue" stroke="midnightblue" points="1673.08,-86.5835 1682.41,-81.5471 1671.98,-79.6715 1673.08,-86.5835"/>
</g>
<!-- Node6 -->
<g id="node6" class="node"><title>Node6</title>
<polygon fill="none" stroke="#bfbfbf" points="17.0238,-62.5 17.0238,-81.5 127.024,-81.5 127.024,-62.5 17.0238,-62.5"/>
<text text-anchor="middle" x="72.0238" y="-69.5" font-family="Helvetica,sans-Serif" font-size="10.00">yarp/os/Semaphore.h</text>
</g>
<!-- Node2&#45;&gt;Node6 -->
<g id="edge5" class="edge"><title>Node2&#45;&gt;Node6</title>
<path fill="none" stroke="midnightblue" d="M824.951,-180.619C685.478,-165.53 389.14,-131.293 141.024,-88 133.634,-86.7107 125.836,-85.1807 118.245,-83.5989"/>
<polygon fill="midnightblue" stroke="midnightblue" points="118.949,-80.1704 108.439,-81.5054 117.488,-87.0161 118.949,-80.1704"/>
</g>
<!-- Node7 -->
<g id="node7" class="node"><title>Node7</title>
<g id="a_node7"><a xlink:href="state_extended_reader_8hpp.html" target="_top" xlink:title="stateExtendedReader.hpp">
<polygon fill="none" stroke="black" points="984.024,-124.5 984.024,-143.5 1114.02,-143.5 1114.02,-124.5 984.024,-124.5"/>
<text text-anchor="middle" x="1049.02" y="-131.5" font-family="Helvetica,sans-Serif" font-size="10.00">stateExtendedReader.hpp</text>
</a>
</g>
</g>
<!-- Node2&#45;&gt;Node7 -->
<g id="edge6" class="edge"><title>Node2&#45;&gt;Node7</title>
<path fill="none" stroke="midnightblue" d="M927.841,-180.444C951.856,-171.438 989.853,-157.189 1016.89,-147.049"/>
<polygon fill="midnightblue" stroke="midnightblue" points="1018.18,-150.305 1026.31,-143.516 1015.72,-143.751 1018.18,-150.305"/>
</g>
<!-- Node25 -->
<g id="node25" class="node"><title>Node25</title>
<polygon fill="none" stroke="#bfbfbf" points="782.024,-124.5 782.024,-143.5 826.024,-143.5 826.024,-124.5 782.024,-124.5"/>
<text text-anchor="middle" x="804.024" y="-131.5" font-family="Helvetica,sans-Serif" font-size="10.00">vector</text>
</g>
<!-- Node2&#45;&gt;Node25 -->
<g id="edge27" class="edge"><title>Node2&#45;&gt;Node25</title>
<path fill="none" stroke="midnightblue" d="M888.796,-180.324C872.673,-171.703 847.724,-158.364 829.06,-148.386"/>
<polygon fill="midnightblue" stroke="midnightblue" points="830.68,-145.283 820.211,-143.655 827.379,-151.456 830.68,-145.283"/>
</g>
<!-- Node7&#45;&gt;Node5 -->
<g id="edge18" class="edge"><title>Node7&#45;&gt;Node5</title>
<path fill="none" stroke="midnightblue" d="M1114.46,-129.827C1223.78,-124.123 1450.38,-110.58 1641.02,-88 1652.33,-86.661 1664.36,-84.9412 1675.89,-83.1466"/>
<polygon fill="midnightblue" stroke="midnightblue" points="1676.54,-86.5878 1685.86,-81.5579 1675.44,-79.675 1676.54,-86.5878"/>
</g>
<!-- Node7&#45;&gt;Node6 -->
<g id="edge15" class="edge"><title>Node7&#45;&gt;Node6</title>
<path fill="none" stroke="midnightblue" d="M983.682,-124.773C980.758,-124.493 977.861,-124.233 975.024,-124 605.261,-93.5804 508.972,-135.581 141.024,-88 132.813,-86.9382 124.131,-85.3926 115.8,-83.6924"/>
<polygon fill="midnightblue" stroke="midnightblue" points="116.377,-80.2366 105.865,-81.5639 114.91,-87.0813 116.377,-80.2366"/>
</g>
<!-- Node8 -->
<g id="node8" class="node"><title>Node8</title>
<polygon fill="none" stroke="#bfbfbf" points="1065.52,-62.5 1065.52,-81.5 1114.52,-81.5 1114.52,-62.5 1065.52,-62.5"/>
<text text-anchor="middle" x="1090.02" y="-69.5" font-family="Helvetica,sans-Serif" font-size="10.00">string.h</text>
</g>
<!-- Node7&#45;&gt;Node8 -->
<g id="edge7" class="edge"><title>Node7&#45;&gt;Node8</title>
<path fill="none" stroke="midnightblue" d="M1054.9,-124.403C1060.99,-115.493 1070.67,-101.325 1078.33,-90.1177"/>
<polygon fill="midnightblue" stroke="midnightblue" points="1081.41,-91.8117 1084.16,-81.5806 1075.63,-87.8624 1081.41,-91.8117"/>
</g>
<!-- Node9 -->
<g id="node9" class="node"><title>Node9</title>
<polygon fill="none" stroke="#bfbfbf" points="1132.52,-62.5 1132.52,-81.5 1245.52,-81.5 1245.52,-62.5 1132.52,-62.5"/>
<text text-anchor="middle" x="1189.02" y="-69.5" font-family="Helvetica,sans-Serif" font-size="10.00">yarp/os/PortablePair.h</text>
</g>
<!-- Node7&#45;&gt;Node9 -->
<g id="edge8" class="edge"><title>Node7&#45;&gt;Node9</title>
<path fill="none" stroke="midnightblue" d="M1069.08,-124.403C1092.79,-114.245 1132.43,-97.2547 1159.61,-85.6074"/>
<polygon fill="midnightblue" stroke="midnightblue" points="1161.19,-88.7369 1169,-81.5806 1158.43,-82.3028 1161.19,-88.7369"/>
</g>
<!-- Node10 -->
<g id="node10" class="node"><title>Node10</title>
<polygon fill="none" stroke="#bfbfbf" points="508.524,-62.5 508.524,-81.5 623.524,-81.5 623.524,-62.5 508.524,-62.5"/>
<text text-anchor="middle" x="566.024" y="-69.5" font-family="Helvetica,sans-Serif" font-size="10.00">yarp/os/BufferedPort.h</text>
</g>
<!-- Node7&#45;&gt;Node10 -->
<g id="edge9" class="edge"><title>Node7&#45;&gt;Node10</title>
<path fill="none" stroke="midnightblue" d="M983.661,-124.991C980.742,-124.652 977.853,-124.32 975.024,-124 822.716,-106.746 783.248,-113.029 632.024,-88 624.851,-86.8128 617.289,-85.3232 609.947,-83.7467"/>
<polygon fill="midnightblue" stroke="midnightblue" points="610.648,-80.3172 600.126,-81.5634 609.128,-87.1503 610.648,-80.3172"/>
</g>
<!-- Node7&#45;&gt;Node11 -->
<g id="edge10" class="edge"><title>Node7&#45;&gt;Node11</title>
<path fill="none" stroke="midnightblue" d="M1114.19,-131.184C1275.46,-126.375 1689.96,-112.008 1826.02,-88 1831.19,-87.0883 1836.58,-85.8219 1841.82,-84.4078"/>
<polygon fill="midnightblue" stroke="midnightblue" points="1843,-87.7094 1851.63,-81.5609 1841.05,-80.9867 1843,-87.7094"/>
</g>
<!-- Node12 -->
<g id="node12" class="node"><title>Node12</title>
<polygon fill="none" stroke="#bfbfbf" points="641.524,-62.5 641.524,-81.5 738.524,-81.5 738.524,-62.5 641.524,-62.5"/>
<text text-anchor="middle" x="690.024" y="-69.5" font-family="Helvetica,sans-Serif" font-size="10.00">yarp/os/Network.h</text>
</g>
<!-- Node7&#45;&gt;Node12 -->
<g id="edge11" class="edge"><title>Node7&#45;&gt;Node12</title>
<path fill="none" stroke="midnightblue" d="M986.802,-124.481C912.421,-114.16 792.422,-97.0342 748.024,-88 742.278,-86.8309 736.25,-85.4492 730.343,-84.0054"/>
<polygon fill="midnightblue" stroke="midnightblue" points="731.14,-80.5967 720.587,-81.5433 729.427,-87.3839 731.14,-80.5967"/>
</g>
<!-- Node13 -->
<g id="node13" class="node"><title>Node13</title>
<polygon fill="none" stroke="#bfbfbf" points="757.024,-62.5 757.024,-81.5 847.024,-81.5 847.024,-62.5 757.024,-62.5"/>
<text text-anchor="middle" x="802.024" y="-69.5" font-family="Helvetica,sans-Serif" font-size="10.00">yarp/os/Thread.h</text>
</g>
<!-- Node7&#45;&gt;Node13 -->
<g id="edge12" class="edge"><title>Node7&#45;&gt;Node13</title>
<path fill="none" stroke="midnightblue" d="M1010.09,-124.426C971.03,-115.704 909.195,-101.577 856.024,-88 851.378,-86.8137 846.519,-85.5282 841.703,-84.2257"/>
<polygon fill="midnightblue" stroke="midnightblue" points="842.525,-80.822 831.955,-81.5547 840.675,-87.5731 842.525,-80.822"/>
</g>
<!-- Node14 -->
<g id="node14" class="node"><title>Node14</title>
<polygon fill="none" stroke="#bfbfbf" points="865.024,-62.5 865.024,-81.5 953.024,-81.5 953.024,-62.5 865.024,-62.5"/>
<text text-anchor="middle" x="909.024" y="-69.5" font-family="Helvetica,sans-Serif" font-size="10.00">yarp/os/Vocab.h</text>
</g>
<!-- Node7&#45;&gt;Node14 -->
<g id="edge13" class="edge"><title>Node7&#45;&gt;Node14</title>
<path fill="none" stroke="midnightblue" d="M1028.97,-124.403C1005.26,-114.245 965.618,-97.2547 938.441,-85.6074"/>
<polygon fill="midnightblue" stroke="midnightblue" points="939.615,-82.3028 929.045,-81.5806 936.858,-88.7369 939.615,-82.3028"/>
</g>
<!-- Node7&#45;&gt;Node15 -->
<g id="edge14" class="edge"><title>Node7&#45;&gt;Node15</title>
<path fill="none" stroke="midnightblue" d="M1114.08,-131.514C1289.53,-127.212 1769.71,-113.403 1926.02,-88 1931.87,-87.0501 1937.99,-85.7041 1943.92,-84.204"/>
<polygon fill="midnightblue" stroke="midnightblue" points="1944.9,-87.5643 1953.64,-81.5767 1943.07,-80.8067 1944.9,-87.5643"/>
</g>
<!-- Node16 -->
<g id="node16" class="node"><title>Node16</title>
<polygon fill="none" stroke="#bfbfbf" points="971.024,-62.5 971.024,-81.5 1047.02,-81.5 1047.02,-62.5 971.024,-62.5"/>
<text text-anchor="middle" x="1009.02" y="-69.5" font-family="Helvetica,sans-Serif" font-size="10.00">yarp/os/Log.h</text>
</g>
<!-- Node7&#45;&gt;Node16 -->
<g id="edge16" class="edge"><title>Node7&#45;&gt;Node16</title>
<path fill="none" stroke="midnightblue" d="M1043.29,-124.403C1037.35,-115.493 1027.91,-101.325 1020.44,-90.1177"/>
<polygon fill="midnightblue" stroke="midnightblue" points="1023.2,-87.9596 1014.74,-81.5806 1017.38,-91.8426 1023.2,-87.9596"/>
</g>
<!-- Node7&#45;&gt;Node17 -->
<g id="edge17" class="edge"><title>Node7&#45;&gt;Node17</title>
<path fill="none" stroke="midnightblue" d="M983.681,-124.779C980.757,-124.498 977.861,-124.236 975.024,-124 930.632,-120.308 208.467,-116.248 174.024,-88 157.176,-74.1824 153.897,-48.0242 153.85,-30.0624"/>
<polygon fill="midnightblue" stroke="midnightblue" points="157.353,-29.99 154.16,-19.8879 150.357,-29.7766 157.353,-29.99"/>
</g>
<!-- Node18 -->
<g id="node18" class="node"><title>Node18</title>
<polygon fill="none" stroke="#bfbfbf" points="1346.52,-62.5 1346.52,-81.5 1457.52,-81.5 1457.52,-62.5 1346.52,-62.5"/>
<text text-anchor="middle" x="1402.02" y="-69.5" font-family="Helvetica,sans-Serif" font-size="10.00">yarp/dev/PolyDriver.h</text>
</g>
<!-- Node7&#45;&gt;Node18 -->
<g id="edge19" class="edge"><title>Node7&#45;&gt;Node18</title>
<path fill="none" stroke="midnightblue" d="M1112.17,-124.464C1170.68,-116.241 1260.01,-102.883 1337.02,-88 1343.59,-86.7303 1350.51,-85.2696 1357.28,-83.7688"/>
<polygon fill="midnightblue" stroke="midnightblue" points="1358.06,-87.1812 1367.04,-81.5588 1356.51,-80.3541 1358.06,-87.1812"/>
</g>
<!-- Node19 -->
<g id="node19" class="node"><title>Node19</title>
<polygon fill="none" stroke="#bfbfbf" points="1475.02,-57 1475.02,-87 1633.02,-87 1633.02,-57 1475.02,-57"/>
<text text-anchor="start" x="1483.02" y="-75" font-family="Helvetica,sans-Serif" font-size="10.00">yarp/dev/ControlBoardInterfaces</text>
<text text-anchor="middle" x="1554.02" y="-64" font-family="Helvetica,sans-Serif" font-size="10.00">Impl.h</text>
</g>
<!-- Node7&#45;&gt;Node19 -->
<g id="edge20" class="edge"><title>Node7&#45;&gt;Node19</title>
<path fill="none" stroke="midnightblue" d="M1114.18,-127.216C1194.29,-119.826 1334.62,-105.975 1464.76,-88.1249"/>
<polygon fill="midnightblue" stroke="midnightblue" points="1465.48,-91.5583 1474.91,-86.7216 1464.52,-84.6243 1465.48,-91.5583"/>
</g>
<!-- Node20 -->
<g id="node20" class="node"><title>Node20</title>
<polygon fill="none" stroke="#bfbfbf" points="183.024,-62.5 183.024,-81.5 339.024,-81.5 339.024,-62.5 183.024,-62.5"/>
<text text-anchor="middle" x="261.024" y="-69.5" font-family="Helvetica,sans-Serif" font-size="10.00">yarp/dev/ControlBoardHelpers.h</text>
</g>
<!-- Node7&#45;&gt;Node20 -->
<g id="edge21" class="edge"><title>Node7&#45;&gt;Node20</title>
<path fill="none" stroke="midnightblue" d="M983.678,-124.824C980.755,-124.53 977.86,-124.254 975.024,-124 697.008,-99.1377 625.336,-119.764 348.024,-88 337.181,-86.7581 325.64,-85.0466 314.627,-83.2229"/>
<polygon fill="midnightblue" stroke="midnightblue" points="315.144,-79.7605 304.697,-81.5267 313.965,-86.6606 315.144,-79.7605"/>
</g>
<!-- Node21 -->
<g id="node21" class="node"><title>Node21</title>
<polygon fill="none" stroke="#bfbfbf" points="357.524,-62.5 357.524,-81.5 490.524,-81.5 490.524,-62.5 357.524,-62.5"/>
<text text-anchor="middle" x="424.024" y="-69.5" font-family="Helvetica,sans-Serif" font-size="10.00">yarp/dev/PreciselyTimed.h</text>
</g>
<!-- Node7&#45;&gt;Node21 -->
<g id="edge22" class="edge"><title>Node7&#45;&gt;Node21</title>
<path fill="none" stroke="midnightblue" d="M983.672,-124.888C980.75,-124.577 977.857,-124.279 975.024,-124 763.887,-103.187 709.212,-116.858 499.024,-88 490.23,-86.7927 480.916,-85.1932 471.951,-83.4887"/>
<polygon fill="midnightblue" stroke="midnightblue" points="472.514,-80.0322 462.026,-81.5348 471.162,-86.9004 472.514,-80.0322"/>
</g>
<!-- Node22 -->
<g id="node22" class="node"><title>Node22</title>
<g id="a_node22"><a xlink:href="joint_data_8h.html" target="_top" xlink:title="jointData.h">
<polygon fill="none" stroke="black" points="1264.02,-62.5 1264.02,-81.5 1328.02,-81.5 1328.02,-62.5 1264.02,-62.5"/>
<text text-anchor="middle" x="1296.02" y="-69.5" font-family="Helvetica,sans-Serif" font-size="10.00">jointData.h</text>
</a>
</g>
</g>
<!-- Node7&#45;&gt;Node22 -->
<g id="edge23" class="edge"><title>Node7&#45;&gt;Node22</title>
<path fill="none" stroke="midnightblue" d="M1095.85,-124.479C1137.68,-116.452 1200.44,-103.383 1254.02,-88 1257.22,-87.0813 1260.53,-86.0481 1263.83,-84.9646"/>
<polygon fill="midnightblue" stroke="midnightblue" points="1265.21,-88.1908 1273.53,-81.6282 1262.93,-81.5715 1265.21,-88.1908"/>
</g>
<!-- Node22&#45;&gt;Node17 -->
<g id="edge26" class="edge"><title>Node22&#45;&gt;Node17</title>
<path fill="none" stroke="midnightblue" d="M1275.86,-62.408C1269.05,-59.8821 1261.32,-57.4182 1254.02,-56 1051.09,-16.5569 405.288,-11.6437 210.906,-11.0664"/>
<polygon fill="midnightblue" stroke="midnightblue" points="210.65,-7.56576 200.641,-11.0387 210.632,-14.5657 210.65,-7.56576"/>
</g>
<!-- Node23 -->
<g id="node23" class="node"><title>Node23</title>
<polygon fill="none" stroke="#bfbfbf" points="1315.02,-0.5 1315.02,-19.5 1395.02,-19.5 1395.02,-0.5 1315.02,-0.5"/>
<text text-anchor="middle" x="1355.02" y="-7.5" font-family="Helvetica,sans-Serif" font-size="10.00">yarp/os/Wire.h</text>
</g>
<!-- Node22&#45;&gt;Node23 -->
<g id="edge24" class="edge"><title>Node22&#45;&gt;Node23</title>
<path fill="none" stroke="midnightblue" d="M1304.48,-62.4035C1313.59,-53.1361 1328.29,-38.1828 1339.5,-26.7876"/>
<polygon fill="midnightblue" stroke="midnightblue" points="1342.07,-29.1649 1346.59,-19.5806 1337.08,-24.2569 1342.07,-29.1649"/>
</g>
<!-- Node24 -->
<g id="node24" class="node"><title>Node24</title>
<polygon fill="none" stroke="#bfbfbf" points="1177.02,-0.5 1177.02,-19.5 1297.02,-19.5 1297.02,-0.5 1177.02,-0.5"/>
<text text-anchor="middle" x="1237.02" y="-7.5" font-family="Helvetica,sans-Serif" font-size="10.00">yarp/os/idl/WireTypes.h</text>
</g>
<!-- Node22&#45;&gt;Node24 -->
<g id="edge25" class="edge"><title>Node22&#45;&gt;Node24</title>
<path fill="none" stroke="midnightblue" d="M1287.57,-62.4035C1278.46,-53.1361 1263.75,-38.1828 1252.55,-26.7876"/>
<polygon fill="midnightblue" stroke="midnightblue" points="1254.97,-24.2569 1245.46,-19.5806 1249.98,-29.1649 1254.97,-24.2569"/>
</g>
</g>
</svg>
