<?xml version="1.0" encoding="UTF-8" standalone="no"?>
<!DOCTYPE svg PUBLIC "-//W3C//DTD SVG 1.1//EN"
 "http://www.w3.org/Graphics/SVG/1.1/DTD/svg11.dtd">
<!-- Generated by graphviz version 2.36.0 (20140111.2315)
 -->
<!-- Title: /home/travis/build/robotology/human&#45;dynamics&#45;estimation/yarp/ReadOnlyRemoteControlBoard/ReadOnlyRemoteControlBoard.h Pages: 1 -->
<!--zoomable 242 -->
<svg id="main" version="1.1" xmlns="http://www.w3.org/2000/svg" xmlns:xlink="http://www.w3.org/1999/xlink" xml:space="preserve" onload="init(evt)">
<style type="text/css"><![CDATA[
.edge:hover path { stroke: red; }
.edge:hover polygon { stroke: red; fill: red; }
]]></style>
<script type="text/javascript"><![CDATA[
var edges = document.getElementsByTagName('g');
if (edges && edges.length) {
  for (var i=0;i<edges.length;i++) {
    if (edges[i].id.substr(0,4)=='edge') {
      edges[i].setAttribute('class','edge');
    }
  }
}
]]></script>
        <defs>
                <circle id="rim" cx="0" cy="0" r="7"/>
                <circle id="rim2" cx="0" cy="0" r="3.5"/>
                <g id="zoomPlus">
                        <use xlink:href="#rim" fill="#404040">
                                <set attributeName="fill" to="#808080" begin="zoomplus.mouseover" end="zoomplus.mouseout"/>
                        </use>
                        <path d="M-4,0h8M0,-4v8" fill="none" stroke="white" stroke-width="1.5" pointer-events="none"/>
                </g>
                <g id="zoomMin">
                        <use xlink:href="#rim" fill="#404040">
                                <set attributeName="fill" to="#808080" begin="zoomminus.mouseover" end="zoomminus.mouseout"/>
                        </use>
                        <path d="M-4,0h8" fill="none" stroke="white" stroke-width="1.5" pointer-events="none"/>
                </g>
                <g id="dirArrow">
                        <path fill="none" stroke="white" stroke-width="1.5" d="M0,-3.0v7 M-2.5,-0.5L0,-3.0L2.5,-0.5"/>
                </g>
               <g id="resetDef">
                       <use xlink:href="#rim2" fill="#404040">
                               <set attributeName="fill" to="#808080" begin="reset.mouseover" end="reset.mouseout"/>
                       </use>
               </g>
        </defs>

<script type="text/javascript">
var viewWidth = 2015;
var viewHeight = 242;
var sectionId = 'dynsection-0';
</script>
<script xlink:href="svgpan.js"/>
<svg id="graph" class="graph">
<g id="viewport">
<title>/home/travis/build/robotology/human&#45;dynamics&#45;estimation/yarp/ReadOnlyRemoteControlBoard/ReadOnlyRemoteControlBoard.h</title>
<!-- Node1 -->
<g id="node1" class="node"><title>Node1</title>
<polygon fill="#bfbfbf" stroke="black" points="342,-181 342,-233 562,-233 562,-181 342,-181"/>
<text text-anchor="start" x="350" y="-221" font-family="Helvetica,sans-Serif" font-size="10.00">/home/travis/build</text>
<text text-anchor="start" x="350" y="-210" font-family="Helvetica,sans-Serif" font-size="10.00">/robotology/human&#45;dynamics</text>
<text text-anchor="start" x="350" y="-199" font-family="Helvetica,sans-Serif" font-size="10.00">&#45;estimation/yarp/ReadOnlyRemote</text>
<text text-anchor="middle" x="452" y="-188" font-family="Helvetica,sans-Serif" font-size="10.00">ControlBoard/ReadOnlyRemoteControlBoard.h</text>
</g>
<!-- Node2 -->
<g id="node2" class="node"><title>Node2</title>
<polygon fill="none" stroke="#bfbfbf" points="127.5,-124.5 127.5,-143.5 264.5,-143.5 264.5,-124.5 127.5,-124.5"/>
<text text-anchor="middle" x="196" y="-131.5" font-family="Helvetica,sans-Serif" font-size="10.00">yarp/dev/IEncodersTimed.h</text>
</g>
<!-- Node1&#45;&gt;Node2 -->
<g id="edge1" class="edge"><title>Node1&#45;&gt;Node2</title>
<path fill="none" stroke="midnightblue" d="M361.744,-180.968C319.084,-169.137 270.282,-155.602 236.739,-146.299"/>
<polygon fill="midnightblue" stroke="midnightblue" points="237.414,-142.854 226.843,-143.554 235.544,-149.599 237.414,-142.854"/>
</g>
<!-- Node3 -->
<g id="node3" class="node"><title>Node3</title>
<polygon fill="none" stroke="#bfbfbf" points="283,-124.5 283,-143.5 405,-143.5 405,-124.5 283,-124.5"/>
<text text-anchor="middle" x="344" y="-131.5" font-family="Helvetica,sans-Serif" font-size="10.00">yarp/dev/DeviceDriver.h</text>
</g>
<!-- Node1&#45;&gt;Node3 -->
<g id="edge2" class="edge"><title>Node1&#45;&gt;Node3</title>
<path fill="none" stroke="midnightblue" d="M413.923,-180.968C397.683,-170.291 379.332,-158.227 365.506,-149.138"/>
<polygon fill="midnightblue" stroke="midnightblue" points="367.42,-146.208 357.141,-143.639 363.574,-152.057 367.42,-146.208"/>
</g>
<!-- Node4 -->
<g id="node4" class="node"><title>Node4</title>
<polygon fill="none" stroke="#bfbfbf" points="0,-62.5 0,-81.5 166,-81.5 166,-62.5 0,-62.5"/>
<text text-anchor="middle" x="83" y="-69.5" font-family="Helvetica,sans-Serif" font-size="10.00">yarp/dev/ControlBoardInterfaces.h</text>
</g>
<!-- Node1&#45;&gt;Node4 -->
<g id="edge3" class="edge"><title>Node1&#45;&gt;Node4</title>
<path fill="none" stroke="midnightblue" d="M447.031,-180.816C441.979,-162.139 432.205,-137.645 414,-124 371.021,-91.7879 228.062,-96.3216 175,-88 165.168,-86.458 154.75,-84.7912 144.595,-83.1485"/>
<polygon fill="midnightblue" stroke="midnightblue" points="144.992,-79.6671 134.56,-81.5194 143.87,-86.5767 144.992,-79.6671"/>
</g>
<!-- Node5 -->
<g id="node5" class="node"><title>Node5</title>
<polygon fill="none" stroke="#bfbfbf" points="184,-62.5 184,-81.5 294,-81.5 294,-62.5 184,-62.5"/>
<text text-anchor="middle" x="239" y="-69.5" font-family="Helvetica,sans-Serif" font-size="10.00">yarp/os/Semaphore.h</text>
</g>
<!-- Node1&#45;&gt;Node5 -->
<g id="edge4" class="edge"><title>Node1&#45;&gt;Node5</title>
<path fill="none" stroke="midnightblue" d="M457.63,-180.949C460.098,-163.076 459.979,-139.547 447,-124 445.674,-122.412 345.536,-98.3529 284.705,-83.8554"/>
<polygon fill="midnightblue" stroke="midnightblue" points="285.473,-80.4406 274.935,-81.5286 283.852,-87.2502 285.473,-80.4406"/>
</g>
<!-- Node6 -->
<g id="node6" class="node"><title>Node6</title>
<g id="a_node6"><a xlink:href="state_extended_reader_8hpp.html" target="_top" xlink:title="stateExtendedReader.hpp">
<polygon fill="none" stroke="black" points="730,-124.5 730,-143.5 860,-143.5 860,-124.5 730,-124.5"/>
<text text-anchor="middle" x="795" y="-131.5" font-family="Helvetica,sans-Serif" font-size="10.00">stateExtendedReader.hpp</text>
</a>
</g>
</g>
<!-- Node1&#45;&gt;Node6 -->
<g id="edge5" class="edge"><title>Node1&#45;&gt;Node6</title>
<path fill="none" stroke="midnightblue" d="M562.415,-183.144C623.354,-170.53 696.129,-155.466 743.845,-145.589"/>
<polygon fill="midnightblue" stroke="midnightblue" points="744.847,-148.956 753.93,-143.501 743.428,-142.101 744.847,-148.956"/>
</g>
<!-- Node24 -->
<g id="node24" class="node"><title>Node24</title>
<polygon fill="none" stroke="#bfbfbf" points="878,-124.5 878,-143.5 922,-143.5 922,-124.5 878,-124.5"/>
<text text-anchor="middle" x="900" y="-131.5" font-family="Helvetica,sans-Serif" font-size="10.00">vector</text>
</g>
<!-- Node1&#45;&gt;Node24 -->
<g id="edge26" class="edge"><title>Node1&#45;&gt;Node24</title>
<path fill="none" stroke="midnightblue" d="M562.044,-193.753C644.073,-183.662 758.893,-167.513 867.889,-144.001"/>
<polygon fill="midnightblue" stroke="midnightblue" points="868.717,-147.403 877.741,-141.852 867.225,-140.564 868.717,-147.403"/>
</g>
<!-- Node6&#45;&gt;Node4 -->
<g id="edge17" class="edge"><title>Node6&#45;&gt;Node4</title>
<path fill="none" stroke="midnightblue" d="M729.657,-130.176C616.42,-124.855 376.505,-111.692 175,-88 163.688,-86.67 151.642,-84.9375 140.12,-83.1243"/>
<polygon fill="midnightblue" stroke="midnightblue" points="140.592,-79.6552 130.162,-81.5183 139.477,-86.5659 140.592,-79.6552"/>
</g>
<!-- Node6&#45;&gt;Node5 -->
<g id="edge14" class="edge"><title>Node6&#45;&gt;Node5</title>
<path fill="none" stroke="midnightblue" d="M729.773,-129.925C635.216,-124.815 454.767,-112.603 303,-88 296.037,-86.8712 288.705,-85.4129 281.588,-83.8502"/>
<polygon fill="midnightblue" stroke="midnightblue" points="281.913,-80.334 271.384,-81.5121 280.35,-87.1572 281.913,-80.334"/>
</g>
<!-- Node7 -->
<g id="node7" class="node"><title>Node7</title>
<polygon fill="none" stroke="#bfbfbf" points="1369.5,-62.5 1369.5,-81.5 1418.5,-81.5 1418.5,-62.5 1369.5,-62.5"/>
<text text-anchor="middle" x="1394" y="-69.5" font-family="Helvetica,sans-Serif" font-size="10.00">string.h</text>
</g>
<!-- Node6&#45;&gt;Node7 -->
<g id="edge6" class="edge"><title>Node6&#45;&gt;Node7</title>
<path fill="none" stroke="midnightblue" d="M860.351,-124.88C863.273,-124.571 866.166,-124.276 869,-124 1086.78,-102.785 1147.69,-140.933 1360,-88 1362.67,-87.3352 1365.39,-86.4764 1368.07,-85.5065"/>
<polygon fill="midnightblue" stroke="midnightblue" points="1369.53,-88.6895 1377.46,-81.6555 1366.88,-82.2134 1369.53,-88.6895"/>
</g>
<!-- Node8 -->
<g id="node8" class="node"><title>Node8</title>
<polygon fill="none" stroke="#bfbfbf" points="1436.5,-62.5 1436.5,-81.5 1549.5,-81.5 1549.5,-62.5 1436.5,-62.5"/>
<text text-anchor="middle" x="1493" y="-69.5" font-family="Helvetica,sans-Serif" font-size="10.00">yarp/os/PortablePair.h</text>
</g>
<!-- Node6&#45;&gt;Node8 -->
<g id="edge7" class="edge"><title>Node6&#45;&gt;Node8</title>
<path fill="none" stroke="midnightblue" d="M860.348,-124.849C863.271,-124.548 866.165,-124.264 869,-124 1116.45,-100.989 1181.05,-123.651 1427,-88 1434.6,-86.8983 1442.62,-85.3813 1450.35,-83.733"/>
<polygon fill="midnightblue" stroke="midnightblue" points="1451.3,-87.1092 1460.29,-81.5144 1449.77,-80.2773 1451.3,-87.1092"/>
</g>
<!-- Node9 -->
<g id="node9" class="node"><title>Node9</title>
<polygon fill="none" stroke="#bfbfbf" points="1567.5,-62.5 1567.5,-81.5 1682.5,-81.5 1682.5,-62.5 1567.5,-62.5"/>
<text text-anchor="middle" x="1625" y="-69.5" font-family="Helvetica,sans-Serif" font-size="10.00">yarp/os/BufferedPort.h</text>
</g>
<!-- Node6&#45;&gt;Node9 -->
<g id="edge8" class="edge"><title>Node6&#45;&gt;Node9</title>
<path fill="none" stroke="midnightblue" d="M860.345,-124.805C863.268,-124.517 866.163,-124.246 869,-124 1174.49,-97.4737 1254.2,-129.643 1558,-88 1565.89,-86.9187 1574.22,-85.3805 1582.23,-83.6973"/>
<polygon fill="midnightblue" stroke="midnightblue" points="1583.13,-87.0827 1592.14,-81.5114 1581.62,-80.2469 1583.13,-87.0827"/>
</g>
<!-- Node10 -->
<g id="node10" class="node"><title>Node10</title>
<polygon fill="none" stroke="#bfbfbf" points="1701,-62.5 1701,-81.5 1783,-81.5 1783,-62.5 1701,-62.5"/>
<text text-anchor="middle" x="1742" y="-69.5" font-family="Helvetica,sans-Serif" font-size="10.00">yarp/os/Time.h</text>
</g>
<!-- Node6&#45;&gt;Node10 -->
<g id="edge9" class="edge"><title>Node6&#45;&gt;Node10</title>
<path fill="none" stroke="midnightblue" d="M860.342,-124.775C863.266,-124.495 866.162,-124.234 869,-124 1233.44,-93.9027 1330.28,-148.032 1691,-88 1696.46,-87.0909 1702.17,-85.784 1707.7,-84.3157"/>
<polygon fill="midnightblue" stroke="midnightblue" points="1708.73,-87.6622 1717.38,-81.5494 1706.8,-80.9315 1708.73,-87.6622"/>
</g>
<!-- Node11 -->
<g id="node11" class="node"><title>Node11</title>
<polygon fill="none" stroke="#bfbfbf" points="1801.5,-62.5 1801.5,-81.5 1898.5,-81.5 1898.5,-62.5 1801.5,-62.5"/>
<text text-anchor="middle" x="1850" y="-69.5" font-family="Helvetica,sans-Serif" font-size="10.00">yarp/os/Network.h</text>
</g>
<!-- Node6&#45;&gt;Node11 -->
<g id="edge10" class="edge"><title>Node6&#45;&gt;Node11</title>
<path fill="none" stroke="midnightblue" d="M860.341,-124.758C863.265,-124.482 866.162,-124.228 869,-124 1278.22,-91.1901 1385.84,-147.737 1792,-88 1798.48,-87.0465 1805.29,-85.6539 1811.86,-84.0961"/>
<polygon fill="midnightblue" stroke="midnightblue" points="1813.09,-87.3958 1821.93,-81.5513 1811.37,-80.6093 1813.09,-87.3958"/>
</g>
<!-- Node12 -->
<g id="node12" class="node"><title>Node12</title>
<polygon fill="none" stroke="#bfbfbf" points="1917,-62.5 1917,-81.5 2007,-81.5 2007,-62.5 1917,-62.5"/>
<text text-anchor="middle" x="1962" y="-69.5" font-family="Helvetica,sans-Serif" font-size="10.00">yarp/os/Thread.h</text>
</g>
<!-- Node6&#45;&gt;Node12 -->
<g id="edge11" class="edge"><title>Node6&#45;&gt;Node12</title>
<path fill="none" stroke="midnightblue" d="M860.339,-124.743C863.264,-124.471 866.161,-124.221 869,-124 1329.21,-88.101 1450.6,-157.192 1907,-88 1913.08,-87.0781 1919.45,-85.72 1925.61,-84.1917"/>
<polygon fill="midnightblue" stroke="midnightblue" points="1926.93,-87.4626 1935.69,-81.506 1925.13,-80.6986 1926.93,-87.4626"/>
</g>
<!-- Node13 -->
<g id="node13" class="node"><title>Node13</title>
<polygon fill="none" stroke="#bfbfbf" points="312,-62.5 312,-81.5 400,-81.5 400,-62.5 312,-62.5"/>
<text text-anchor="middle" x="356" y="-69.5" font-family="Helvetica,sans-Serif" font-size="10.00">yarp/os/Vocab.h</text>
</g>
<!-- Node6&#45;&gt;Node13 -->
<g id="edge12" class="edge"><title>Node6&#45;&gt;Node13</title>
<path fill="none" stroke="midnightblue" d="M729.779,-128.718C652.438,-122.881 519.906,-110.486 408,-88 402.892,-86.9736 397.557,-85.688 392.333,-84.3037"/>
<polygon fill="midnightblue" stroke="midnightblue" points="393.085,-80.88 382.512,-81.5622 391.203,-87.6222 393.085,-80.88"/>
</g>
<!-- Node14 -->
<g id="node14" class="node"><title>Node14</title>
<polygon fill="none" stroke="#bfbfbf" points="417.5,-62.5 417.5,-81.5 506.5,-81.5 506.5,-62.5 417.5,-62.5"/>
<text text-anchor="middle" x="462" y="-69.5" font-family="Helvetica,sans-Serif" font-size="10.00">yarp/os/Stamp.h</text>
</g>
<!-- Node6&#45;&gt;Node14 -->
<g id="edge13" class="edge"><title>Node6&#45;&gt;Node14</title>
<path fill="none" stroke="midnightblue" d="M729.784,-124.57C672.994,-116.732 588.613,-103.89 516,-88 510.903,-86.8846 505.572,-85.5784 500.328,-84.2101"/>
<polygon fill="midnightblue" stroke="midnightblue" points="501.004,-80.7673 490.437,-81.5364 499.178,-87.5247 501.004,-80.7673"/>
</g>
<!-- Node15 -->
<g id="node15" class="node"><title>Node15</title>
<polygon fill="none" stroke="#bfbfbf" points="525,-62.5 525,-81.5 601,-81.5 601,-62.5 525,-62.5"/>
<text text-anchor="middle" x="563" y="-69.5" font-family="Helvetica,sans-Serif" font-size="10.00">yarp/os/Log.h</text>
</g>
<!-- Node6&#45;&gt;Node15 -->
<g id="edge15" class="edge"><title>Node6&#45;&gt;Node15</title>
<path fill="none" stroke="midnightblue" d="M759.383,-124.495C723,-115.713 664.923,-101.436 615,-88 610.646,-86.8283 606.098,-85.5688 601.581,-84.2956"/>
<polygon fill="midnightblue" stroke="midnightblue" points="602.405,-80.8914 591.829,-81.5154 600.486,-87.6231 602.405,-80.8914"/>
</g>
<!-- Node16 -->
<g id="node16" class="node"><title>Node16</title>
<polygon fill="none" stroke="#bfbfbf" points="551.5,-0.5 551.5,-19.5 642.5,-19.5 642.5,-0.5 551.5,-0.5"/>
<text text-anchor="middle" x="597" y="-7.5" font-family="Helvetica,sans-Serif" font-size="10.00">yarp/sig/Vector.h</text>
</g>
<!-- Node6&#45;&gt;Node16 -->
<g id="edge16" class="edge"><title>Node6&#45;&gt;Node16</title>
<path fill="none" stroke="midnightblue" d="M735.625,-124.459C707.001,-118.064 673.448,-107.004 648,-88 627.38,-72.6016 612.569,-46.2449 604.388,-28.7233"/>
<polygon fill="midnightblue" stroke="midnightblue" points="607.589,-27.3076 600.344,-19.5774 601.187,-30.1386 607.589,-27.3076"/>
</g>
<!-- Node17 -->
<g id="node17" class="node"><title>Node17</title>
<polygon fill="none" stroke="#bfbfbf" points="739.5,-62.5 739.5,-81.5 850.5,-81.5 850.5,-62.5 739.5,-62.5"/>
<text text-anchor="middle" x="795" y="-69.5" font-family="Helvetica,sans-Serif" font-size="10.00">yarp/dev/PolyDriver.h</text>
</g>
<!-- Node6&#45;&gt;Node17 -->
<g id="edge18" class="edge"><title>Node6&#45;&gt;Node17</title>
<path fill="none" stroke="midnightblue" d="M795,-124.403C795,-115.938 795,-102.728 795,-91.8199"/>
<polygon fill="midnightblue" stroke="midnightblue" points="798.5,-91.5806 795,-81.5806 791.5,-91.5806 798.5,-91.5806"/>
</g>
<!-- Node18 -->
<g id="node18" class="node"><title>Node18</title>
<polygon fill="none" stroke="#bfbfbf" points="868,-57 868,-87 1026,-87 1026,-57 868,-57"/>
<text text-anchor="start" x="876" y="-75" font-family="Helvetica,sans-Serif" font-size="10.00">yarp/dev/ControlBoardInterfaces</text>
<text text-anchor="middle" x="947" y="-64" font-family="Helvetica,sans-Serif" font-size="10.00">Impl.h</text>
</g>
<!-- Node6&#45;&gt;Node18 -->
<g id="edge19" class="edge"><title>Node6&#45;&gt;Node18</title>
<path fill="none" stroke="midnightblue" d="M816.778,-124.403C838.881,-115.679 873.75,-101.914 901.846,-90.824"/>
<polygon fill="midnightblue" stroke="midnightblue" points="903.453,-93.9526 911.469,-87.0253 900.883,-87.4415 903.453,-93.9526"/>
</g>
<!-- Node19 -->
<g id="node19" class="node"><title>Node19</title>
<polygon fill="none" stroke="#bfbfbf" points="1044,-62.5 1044,-81.5 1200,-81.5 1200,-62.5 1044,-62.5"/>
<text text-anchor="middle" x="1122" y="-69.5" font-family="Helvetica,sans-Serif" font-size="10.00">yarp/dev/ControlBoardHelpers.h</text>
</g>
<!-- Node6&#45;&gt;Node19 -->
<g id="edge20" class="edge"><title>Node6&#45;&gt;Node19</title>
<path fill="none" stroke="midnightblue" d="M841.504,-124.467C900.465,-113.649 1002.05,-95.0087 1065.44,-83.3781"/>
<polygon fill="midnightblue" stroke="midnightblue" points="1066.45,-86.7507 1075.66,-81.5034 1065.19,-79.8657 1066.45,-86.7507"/>
</g>
<!-- Node20 -->
<g id="node20" class="node"><title>Node20</title>
<polygon fill="none" stroke="#bfbfbf" points="1218.5,-62.5 1218.5,-81.5 1351.5,-81.5 1351.5,-62.5 1218.5,-62.5"/>
<text text-anchor="middle" x="1285" y="-69.5" font-family="Helvetica,sans-Serif" font-size="10.00">yarp/dev/PreciselyTimed.h</text>
</g>
<!-- Node6&#45;&gt;Node20 -->
<g id="edge21" class="edge"><title>Node6&#45;&gt;Node20</title>
<path fill="none" stroke="midnightblue" d="M860.363,-124.995C863.282,-124.655 866.171,-124.322 869,-124 1019.98,-106.827 1058.75,-110.735 1209,-88 1217.51,-86.7129 1226.51,-85.1324 1235.22,-83.4856"/>
<polygon fill="midnightblue" stroke="midnightblue" points="1236.13,-86.8753 1245.28,-81.5354 1234.8,-80.0034 1236.13,-86.8753"/>
</g>
<!-- Node21 -->
<g id="node21" class="node"><title>Node21</title>
<g id="a_node21"><a xlink:href="joint_data_8h.html" target="_top" xlink:title="jointData.h">
<polygon fill="none" stroke="black" points="657,-62.5 657,-81.5 721,-81.5 721,-62.5 657,-62.5"/>
<text text-anchor="middle" x="689" y="-69.5" font-family="Helvetica,sans-Serif" font-size="10.00">jointData.h</text>
</a>
</g>
</g>
<!-- Node6&#45;&gt;Node21 -->
<g id="edge22" class="edge"><title>Node6&#45;&gt;Node21</title>
<path fill="none" stroke="midnightblue" d="M779.813,-124.403C762.338,-114.512 733.421,-98.1442 712.917,-86.5378"/>
<polygon fill="midnightblue" stroke="midnightblue" points="714.586,-83.4607 704.159,-81.5806 711.138,-89.5525 714.586,-83.4607"/>
</g>
<!-- Node21&#45;&gt;Node16 -->
<g id="edge25" class="edge"><title>Node21&#45;&gt;Node16</title>
<path fill="none" stroke="midnightblue" d="M675.819,-62.4035C660.926,-52.6905 636.456,-36.7319 618.727,-25.1697"/>
<polygon fill="midnightblue" stroke="midnightblue" points="620.445,-22.1117 610.157,-19.5806 616.621,-27.975 620.445,-22.1117"/>
</g>
<!-- Node22 -->
<g id="node22" class="node"><title>Node22</title>
<polygon fill="none" stroke="#bfbfbf" points="799,-0.5 799,-19.5 879,-19.5 879,-0.5 799,-0.5"/>
<text text-anchor="middle" x="839" y="-7.5" font-family="Helvetica,sans-Serif" font-size="10.00">yarp/os/Wire.h</text>
</g>
<!-- Node21&#45;&gt;Node22 -->
<g id="edge23" class="edge"><title>Node21&#45;&gt;Node22</title>
<path fill="none" stroke="midnightblue" d="M710.491,-62.4035C736.11,-52.1559 779.11,-34.9561 808.245,-23.3021"/>
<polygon fill="midnightblue" stroke="midnightblue" points="809.564,-26.5442 817.549,-19.5806 806.964,-20.0449 809.564,-26.5442"/>
</g>
<!-- Node23 -->
<g id="node23" class="node"><title>Node23</title>
<polygon fill="none" stroke="#bfbfbf" points="661,-0.5 661,-19.5 781,-19.5 781,-0.5 661,-0.5"/>
<text text-anchor="middle" x="721" y="-7.5" font-family="Helvetica,sans-Serif" font-size="10.00">yarp/os/idl/WireTypes.h</text>
</g>
<!-- Node21&#45;&gt;Node23 -->
<g id="edge24" class="edge"><title>Node21&#45;&gt;Node23</title>
<path fill="none" stroke="midnightblue" d="M693.585,-62.4035C698.29,-53.5816 705.743,-39.6075 711.691,-28.4548"/>
<polygon fill="midnightblue" stroke="midnightblue" points="714.806,-30.0512 716.424,-19.5806 708.63,-26.7571 714.806,-30.0512"/>
</g>
</g>
</svg>
        <g id="navigator" transform="translate(0 0)" fill="#404254">
                <rect fill="#f2f5e9" fill-opacity="0.5" stroke="#606060" stroke-width=".5" x="0" y="0" width="60" height="60"/>
                <use id="zoomplus" xlink:href="#zoomPlus" x="17" y="9" onmousedown="handleZoom(evt,'in')"/>
                <use id="zoomminus" xlink:href="#zoomMin" x="42" y="9" onmousedown="handleZoom(evt,'out')"/>
                <use id="reset" xlink:href="#resetDef" x="30" y="36" onmousedown="handleReset()"/>
                <g id="arrowUp" xlink:href="#dirArrow" transform="translate(30 24)" onmousedown="handlePan(0,-1)">
                  <use xlink:href="#rim" fill="#404040">
                        <set attributeName="fill" to="#808080" begin="arrowUp.mouseover" end="arrowUp.mouseout"/>
                  </use>
                  <path fill="none" stroke="white" stroke-width="1.5" d="M0,-3.0v7 M-2.5,-0.5L0,-3.0L2.5,-0.5"/>
                </g>
                <g id="arrowRight" xlink:href="#dirArrow" transform="rotate(90) translate(36 -43)" onmousedown="handlePan(1,0)">
                  <use xlink:href="#rim" fill="#404040">
                        <set attributeName="fill" to="#808080" begin="arrowRight.mouseover" end="arrowRight.mouseout"/>
                  </use>
                  <path fill="none" stroke="white" stroke-width="1.5" d="M0,-3.0v7 M-2.5,-0.5L0,-3.0L2.5,-0.5"/>
                </g>
                <g id="arrowDown" xlink:href="#dirArrow" transform="rotate(180) translate(-30 -48)" onmousedown="handlePan(0,1)">
                  <use xlink:href="#rim" fill="#404040">
                        <set attributeName="fill" to="#808080" begin="arrowDown.mouseover" end="arrowDown.mouseout"/>
                  </use>
                  <path fill="none" stroke="white" stroke-width="1.5" d="M0,-3.0v7 M-2.5,-0.5L0,-3.0L2.5,-0.5"/>
                </g>
                <g id="arrowLeft" xlink:href="#dirArrow" transform="rotate(270) translate(-36 17)" onmousedown="handlePan(-1,0)">
                  <use xlink:href="#rim" fill="#404040">
                        <set attributeName="fill" to="#808080" begin="arrowLeft.mouseover" end="arrowLeft.mouseout"/>
                  </use>
                  <path fill="none" stroke="white" stroke-width="1.5" d="M0,-3.0v7 M-2.5,-0.5L0,-3.0L2.5,-0.5"/>
                </g>
        </g>
        <svg viewBox="0 0 15 15" width="100%" height="30px" preserveAspectRatio="xMaxYMin meet">
         <g id="arrow_out" transform="scale(0.3 0.3)">
          <a xlink:href="_read_only_remote_control_board_8h__incl_org.svg" target="_base">
           <rect id="button" ry="5" rx="5" y="6" x="6" height="38" width="38"
                fill="#f2f5e9" fill-opacity="0.5" stroke="#606060" stroke-width="1.0"/>
           <path id="arrow"
             d="M 11.500037,31.436501 C 11.940474,20.09759 22.043105,11.32322 32.158766,21.979434 L 37.068811,17.246167 C 37.068811,17.246167 37.088388,32 37.088388,32 L 22.160133,31.978069 C 22.160133,31.978069 26.997745,27.140456 26.997745,27.140456 C 18.528582,18.264221 13.291696,25.230495 11.500037,31.436501 z"
             style="fill:#404040;"/>
          </a>
         </g>
        </svg>
</svg>
