<?xml version="1.0" encoding="UTF-8" standalone="no"?>
<!DOCTYPE svg PUBLIC "-//W3C//DTD SVG 1.1//EN"
 "http://www.w3.org/Graphics/SVG/1.1/DTD/svg11.dtd">
<!-- Generated by graphviz version 2.36.0 (20140111.2315)
 -->
<!-- Title: /home/travis/build/robotology/human&#45;dynamics&#45;estimation/yarp/ReadOnlyControlBoardRemapper/ReadOnlyControlBoardRemapper.cpp Pages: 1 -->
<!--zoomable 230 -->
<svg id="main" version="1.1" xmlns="http://www.w3.org/2000/svg" xmlns:xlink="http://www.w3.org/1999/xlink" xml:space="preserve" onload="init(evt)">
<style type="text/css"><![CDATA[
.edge:hover path { stroke: red; }
.edge:hover polygon { stroke: red; fill: red; }
]]></style>
<script type="text/javascript"><![CDATA[
var edges = document.getElementsByTagName('g');
if (edges && edges.length) {
  for (var i=0;i<edges.length;i++) {
    if (edges[i].id.substr(0,4)=='edge') {
      edges[i].setAttribute('class','edge');
    }
  }
}
]]></script>
        <defs>
                <circle id="rim" cx="0" cy="0" r="7"/>
                <circle id="rim2" cx="0" cy="0" r="3.5"/>
                <g id="zoomPlus">
                        <use xlink:href="#rim" fill="#404040">
                                <set attributeName="fill" to="#808080" begin="zoomplus.mouseover" end="zoomplus.mouseout"/>
                        </use>
                        <path d="M-4,0h8M0,-4v8" fill="none" stroke="white" stroke-width="1.5" pointer-events="none"/>
                </g>
                <g id="zoomMin">
                        <use xlink:href="#rim" fill="#404040">
                                <set attributeName="fill" to="#808080" begin="zoomminus.mouseover" end="zoomminus.mouseout"/>
                        </use>
                        <path d="M-4,0h8" fill="none" stroke="white" stroke-width="1.5" pointer-events="none"/>
                </g>
                <g id="dirArrow">
                        <path fill="none" stroke="white" stroke-width="1.5" d="M0,-3.0v7 M-2.5,-0.5L0,-3.0L2.5,-0.5"/>
                </g>
               <g id="resetDef">
                       <use xlink:href="#rim2" fill="#404040">
                               <set attributeName="fill" to="#808080" begin="reset.mouseover" end="reset.mouseout"/>
                       </use>
               </g>
        </defs>

<script type="text/javascript">
var viewWidth = 2462;
var viewHeight = 230;
var sectionId = 'dynsection-0';
</script>
<script xlink:href="svgpan.js"/>
<svg id="graph" class="graph">
<g id="viewport">
<title>/home/travis/build/robotology/human&#45;dynamics&#45;estimation/yarp/ReadOnlyControlBoardRemapper/ReadOnlyControlBoardRemapper.cpp</title>
<!-- Node1 -->
<g id="node1" class="node"><title>Node1</title>
<polygon fill="#bfbfbf" stroke="black" points="2008,-169 2008,-221 2262,-221 2262,-169 2008,-169"/>
<text text-anchor="start" x="2016" y="-209" font-family="Helvetica,sans-Serif" font-size="10.00">/home/travis/build</text>
<text text-anchor="start" x="2016" y="-198" font-family="Helvetica,sans-Serif" font-size="10.00">/robotology/human&#45;dynamics</text>
<text text-anchor="start" x="2016" y="-187" font-family="Helvetica,sans-Serif" font-size="10.00">&#45;estimation/yarp/ReadOnlyControl</text>
<text text-anchor="middle" x="2135" y="-176" font-family="Helvetica,sans-Serif" font-size="10.00">BoardRemapper/ReadOnlyControlBoardRemapper.cpp</text>
</g>
<!-- Node2 -->
<g id="node2" class="node"><title>Node2</title>
<g id="a_node2"><a xlink:href="_read_only_control_board_remapper_8h.html" target="_top" xlink:title="ReadOnlyControlBoardRemapper.h">
<polygon fill="none" stroke="black" points="1674,-112.5 1674,-131.5 1844,-131.5 1844,-112.5 1674,-112.5"/>
<text text-anchor="middle" x="1759" y="-119.5" font-family="Helvetica,sans-Serif" font-size="10.00">ReadOnlyControlBoardRemapper.h</text>
</a>
</g>
</g>
<!-- Node1&#45;&gt;Node2 -->
<g id="edge1" class="edge"><title>Node1&#45;&gt;Node2</title>
<path fill="none" stroke="midnightblue" d="M2007.97,-170.012C1942.17,-157.588 1865.2,-143.053 1814.45,-133.471"/>
<polygon fill="midnightblue" stroke="midnightblue" points="1814.83,-129.98 1804.35,-131.564 1813.53,-136.858 1814.83,-129.98"/>
</g>
<!-- Node3 -->
<g id="node3" class="node"><title>Node3</title>
<g id="a_node3"><a xlink:href="_control_board_remapper_helpers_8h.html" target="_top" xlink:title="ControlBoardRemapperHelpers.h">
<polygon fill="none" stroke="black" points="1147.5,-56.5 1147.5,-75.5 1308.5,-75.5 1308.5,-56.5 1147.5,-56.5"/>
<text text-anchor="middle" x="1228" y="-63.5" font-family="Helvetica,sans-Serif" font-size="10.00">ControlBoardRemapperHelpers.h</text>
</a>
</g>
</g>
<!-- Node1&#45;&gt;Node3 -->
<g id="edge27" class="edge"><title>Node1&#45;&gt;Node3</title>
<path fill="none" stroke="midnightblue" d="M2007.75,-177.791C1913.15,-165.601 1780.94,-148.269 1665,-132 1532.89,-113.462 1378.57,-90.1097 1293.21,-77.0422"/>
<polygon fill="midnightblue" stroke="midnightblue" points="1293.56,-73.5554 1283.15,-75.5006 1292.5,-80.4747 1293.56,-73.5554"/>
</g>
<!-- Node23 -->
<g id="node23" class="node"><title>Node23</title>
<polygon fill="none" stroke="#bfbfbf" points="1862,-112.5 1862,-131.5 1938,-131.5 1938,-112.5 1862,-112.5"/>
<text text-anchor="middle" x="1900" y="-119.5" font-family="Helvetica,sans-Serif" font-size="10.00">yarp/os/Log.h</text>
</g>
<!-- Node1&#45;&gt;Node23 -->
<g id="edge28" class="edge"><title>Node1&#45;&gt;Node23</title>
<path fill="none" stroke="midnightblue" d="M2052.15,-168.968C2013.33,-157.239 1968.96,-143.835 1938.2,-134.54"/>
<polygon fill="midnightblue" stroke="midnightblue" points="1938.9,-131.096 1928.31,-131.554 1936.87,-137.797 1938.9,-131.096"/>
</g>
<!-- Node24 -->
<g id="node24" class="node"><title>Node24</title>
<polygon fill="none" stroke="#bfbfbf" points="1956.5,-112.5 1956.5,-131.5 2063.5,-131.5 2063.5,-112.5 1956.5,-112.5"/>
<text text-anchor="middle" x="2010" y="-119.5" font-family="Helvetica,sans-Serif" font-size="10.00">yarp/os/LogStream.h</text>
</g>
<!-- Node1&#45;&gt;Node24 -->
<g id="edge29" class="edge"><title>Node1&#45;&gt;Node24</title>
<path fill="none" stroke="midnightblue" d="M2090.93,-168.968C2071.77,-158.088 2050.08,-145.767 2033.98,-136.622"/>
<polygon fill="midnightblue" stroke="midnightblue" points="2035.63,-133.534 2025.21,-131.639 2032.18,-139.621 2035.63,-133.534"/>
</g>
<!-- Node25 -->
<g id="node25" class="node"><title>Node25</title>
<polygon fill="none" stroke="#bfbfbf" points="2081.5,-112.5 2081.5,-131.5 2188.5,-131.5 2188.5,-112.5 2081.5,-112.5"/>
<text text-anchor="middle" x="2135" y="-119.5" font-family="Helvetica,sans-Serif" font-size="10.00">yarp/os/LockGuard.h</text>
</g>
<!-- Node1&#45;&gt;Node25 -->
<g id="edge30" class="edge"><title>Node1&#45;&gt;Node25</title>
<path fill="none" stroke="midnightblue" d="M2135,-168.768C2135,-159.89 2135,-150.074 2135,-141.816"/>
<polygon fill="midnightblue" stroke="midnightblue" points="2138.5,-141.757 2135,-131.757 2131.5,-141.757 2138.5,-141.757"/>
</g>
<!-- Node26 -->
<g id="node26" class="node"><title>Node26</title>
<polygon fill="none" stroke="#bfbfbf" points="2206,-112.5 2206,-131.5 2262,-131.5 2262,-112.5 2206,-112.5"/>
<text text-anchor="middle" x="2234" y="-119.5" font-family="Helvetica,sans-Serif" font-size="10.00">algorithm</text>
</g>
<!-- Node1&#45;&gt;Node26 -->
<g id="edge31" class="edge"><title>Node1&#45;&gt;Node26</title>
<path fill="none" stroke="midnightblue" d="M2169.9,-168.968C2184.42,-158.559 2200.77,-146.831 2213.33,-137.827"/>
<polygon fill="midnightblue" stroke="midnightblue" points="2215.63,-140.482 2221.72,-131.81 2211.55,-134.793 2215.63,-140.482"/>
</g>
<!-- Node27 -->
<g id="node27" class="node"><title>Node27</title>
<polygon fill="none" stroke="#bfbfbf" points="2280,-112.5 2280,-131.5 2334,-131.5 2334,-112.5 2280,-112.5"/>
<text text-anchor="middle" x="2307" y="-119.5" font-family="Helvetica,sans-Serif" font-size="10.00">iostream</text>
</g>
<!-- Node1&#45;&gt;Node27 -->
<g id="edge32" class="edge"><title>Node1&#45;&gt;Node27</title>
<path fill="none" stroke="midnightblue" d="M2195.64,-168.968C2223.11,-157.63 2254.36,-144.728 2276.75,-135.485"/>
<polygon fill="midnightblue" stroke="midnightblue" points="2278.16,-138.69 2286.07,-131.639 2275.49,-132.219 2278.16,-138.69"/>
</g>
<!-- Node28 -->
<g id="node28" class="node"><title>Node28</title>
<polygon fill="none" stroke="#bfbfbf" points="2352.5,-112.5 2352.5,-131.5 2387.5,-131.5 2387.5,-112.5 2352.5,-112.5"/>
<text text-anchor="middle" x="2370" y="-119.5" font-family="Helvetica,sans-Serif" font-size="10.00">map</text>
</g>
<!-- Node1&#45;&gt;Node28 -->
<g id="edge33" class="edge"><title>Node1&#45;&gt;Node28</title>
<path fill="none" stroke="midnightblue" d="M2221.21,-168.977C2256.22,-158.651 2297.25,-146.349 2342.57,-132.066"/>
<polygon fill="midnightblue" stroke="midnightblue" points="2343.83,-135.339 2352.31,-128.988 2341.72,-128.665 2343.83,-135.339"/>
</g>
<!-- Node29 -->
<g id="node29" class="node"><title>Node29</title>
<polygon fill="none" stroke="#bfbfbf" points="2405.5,-112.5 2405.5,-131.5 2454.5,-131.5 2454.5,-112.5 2405.5,-112.5"/>
<text text-anchor="middle" x="2430" y="-119.5" font-family="Helvetica,sans-Serif" font-size="10.00">cassert</text>
</g>
<!-- Node1&#45;&gt;Node29 -->
<g id="edge34" class="edge"><title>Node1&#45;&gt;Node29</title>
<path fill="none" stroke="midnightblue" d="M2243.09,-168.977C2287.47,-158.544 2339.57,-146.092 2395.1,-132.181"/>
<polygon fill="midnightblue" stroke="midnightblue" points="2396.29,-135.491 2405.14,-129.66 2394.59,-128.702 2396.29,-135.491"/>
</g>
<!-- Node2&#45;&gt;Node3 -->
<g id="edge2" class="edge"><title>Node2&#45;&gt;Node3</title>
<path fill="none" stroke="midnightblue" d="M1675.15,-112.473C1578.1,-102.603 1418.83,-86.406 1318.88,-76.2419"/>
<polygon fill="midnightblue" stroke="midnightblue" points="1319.1,-72.7463 1308.8,-75.2165 1318.39,-79.7104 1319.1,-72.7463"/>
</g>
<!-- Node11 -->
<g id="node11" class="node"><title>Node11</title>
<polygon fill="none" stroke="#bfbfbf" points="0,-0.5 0,-19.5 166,-19.5 166,-0.5 0,-0.5"/>
<text text-anchor="middle" x="83" y="-7.5" font-family="Helvetica,sans-Serif" font-size="10.00">yarp/dev/ControlBoardInterfaces.h</text>
</g>
<!-- Node2&#45;&gt;Node11 -->
<g id="edge20" class="edge"><title>Node2&#45;&gt;Node11</title>
<path fill="none" stroke="midnightblue" d="M1673.93,-116.591C1437.97,-104.144 755.053,-66.643 176.453,-20.0937"/>
<polygon fill="midnightblue" stroke="midnightblue" points="176.482,-16.5848 166.233,-19.2697 175.92,-23.5622 176.482,-16.5848"/>
</g>
<!-- Node15 -->
<g id="node15" class="node"><title>Node15</title>
<polygon fill="none" stroke="#bfbfbf" points="1654.5,-0.5 1654.5,-19.5 1787.5,-19.5 1787.5,-0.5 1654.5,-0.5"/>
<text text-anchor="middle" x="1721" y="-7.5" font-family="Helvetica,sans-Serif" font-size="10.00">yarp/dev/PreciselyTimed.h</text>
</g>
<!-- Node2&#45;&gt;Node15 -->
<g id="edge22" class="edge"><title>Node2&#45;&gt;Node15</title>
<path fill="none" stroke="midnightblue" d="M1756.02,-112.368C1749.86,-94.5366 1735.61,-53.2953 1727.31,-29.2717"/>
<polygon fill="midnightblue" stroke="midnightblue" points="1730.54,-27.9005 1723.97,-19.5914 1723.93,-30.1862 1730.54,-27.9005"/>
</g>
<!-- Node18 -->
<g id="node18" class="node"><title>Node18</title>
<polygon fill="none" stroke="#bfbfbf" points="1806,-0.5 1806,-19.5 1908,-19.5 1908,-0.5 1806,-0.5"/>
<text text-anchor="middle" x="1857" y="-7.5" font-family="Helvetica,sans-Serif" font-size="10.00">yarp/dev/Wrapper.h</text>
</g>
<!-- Node2&#45;&gt;Node18 -->
<g id="edge24" class="edge"><title>Node2&#45;&gt;Node18</title>
<path fill="none" stroke="midnightblue" d="M1760.37,-112.082C1762.82,-98.6224 1769.08,-72.8982 1783,-56 1794.37,-42.1958 1811.15,-31.5047 1825.86,-24.0138"/>
<polygon fill="midnightblue" stroke="midnightblue" points="1827.65,-27.0373 1835.15,-19.5528 1824.62,-20.7274 1827.65,-27.0373"/>
</g>
<!-- Node19 -->
<g id="node19" class="node"><title>Node19</title>
<polygon fill="none" stroke="#bfbfbf" points="1926.5,-0.5 1926.5,-19.5 1967.5,-19.5 1967.5,-0.5 1926.5,-0.5"/>
<text text-anchor="middle" x="1947" y="-7.5" font-family="Helvetica,sans-Serif" font-size="10.00">string</text>
</g>
<!-- Node2&#45;&gt;Node19 -->
<g id="edge25" class="edge"><title>Node2&#45;&gt;Node19</title>
<path fill="none" stroke="midnightblue" d="M1765.24,-112.176C1775.43,-98.3709 1796.94,-71.6299 1821,-56 1837.08,-45.5538 1884.84,-29.8608 1916.72,-20.036"/>
<polygon fill="midnightblue" stroke="midnightblue" points="1917.91,-23.3326 1926.45,-17.0665 1915.87,-16.6374 1917.91,-23.3326"/>
</g>
<!-- Node20 -->
<g id="node20" class="node"><title>Node20</title>
<polygon fill="none" stroke="#bfbfbf" points="1986,-0.5 1986,-19.5 2030,-19.5 2030,-0.5 1986,-0.5"/>
<text text-anchor="middle" x="2008" y="-7.5" font-family="Helvetica,sans-Serif" font-size="10.00">vector</text>
</g>
<!-- Node2&#45;&gt;Node20 -->
<g id="edge26" class="edge"><title>Node2&#45;&gt;Node20</title>
<path fill="none" stroke="midnightblue" d="M1770.72,-112.389C1792.26,-96.683 1837.52,-64.241 1855,-56 1860.59,-53.3626 1932.91,-32.4856 1976.09,-20.1145"/>
<polygon fill="midnightblue" stroke="midnightblue" points="1977.21,-23.4339 1985.86,-17.3169 1975.28,-16.7042 1977.21,-23.4339"/>
</g>
<!-- Node21 -->
<g id="node21" class="node"><title>Node21</title>
<polygon fill="none" stroke="#bfbfbf" points="1863.5,-56.5 1863.5,-75.5 2000.5,-75.5 2000.5,-56.5 1863.5,-56.5"/>
<text text-anchor="middle" x="1932" y="-63.5" font-family="Helvetica,sans-Serif" font-size="10.00">yarp/dev/IEncodersTimed.h</text>
</g>
<!-- Node2&#45;&gt;Node21 -->
<g id="edge21" class="edge"><title>Node2&#45;&gt;Node21</title>
<path fill="none" stroke="midnightblue" d="M1786.41,-112.444C1815.77,-103.28 1862.52,-88.6876 1895.1,-78.5192"/>
<polygon fill="midnightblue" stroke="midnightblue" points="1896.21,-81.8371 1904.72,-75.5164 1894.13,-75.1551 1896.21,-81.8371"/>
</g>
<!-- Node22 -->
<g id="node22" class="node"><title>Node22</title>
<polygon fill="none" stroke="#bfbfbf" points="2019,-56.5 2019,-75.5 2129,-75.5 2129,-56.5 2019,-56.5"/>
<text text-anchor="middle" x="2074" y="-63.5" font-family="Helvetica,sans-Serif" font-size="10.00">yarp/os/Semaphore.h</text>
</g>
<!-- Node2&#45;&gt;Node22 -->
<g id="edge23" class="edge"><title>Node2&#45;&gt;Node22</title>
<path fill="none" stroke="midnightblue" d="M1808.91,-112.444C1864.67,-102.885 1954.89,-87.4195 2014.33,-77.2298"/>
<polygon fill="midnightblue" stroke="midnightblue" points="2015.06,-80.6558 2024.32,-75.5164 2013.87,-73.7565 2015.06,-80.6558"/>
</g>
<!-- Node4 -->
<g id="node4" class="node"><title>Node4</title>
<polygon fill="none" stroke="#bfbfbf" points="184.5,-0.5 184.5,-19.5 297.5,-19.5 297.5,-0.5 184.5,-0.5"/>
<text text-anchor="middle" x="241" y="-7.5" font-family="Helvetica,sans-Serif" font-size="10.00">yarp/os/PortablePair.h</text>
</g>
<!-- Node3&#45;&gt;Node4 -->
<g id="edge3" class="edge"><title>Node3&#45;&gt;Node4</title>
<path fill="none" stroke="midnightblue" d="M1147.36,-63.4711C988.581,-59.9349 624.094,-49.2169 307.967,-20.1056"/>
<polygon fill="midnightblue" stroke="midnightblue" points="307.967,-16.5906 297.686,-19.1507 307.319,-23.5606 307.967,-16.5906"/>
</g>
<!-- Node5 -->
<g id="node5" class="node"><title>Node5</title>
<polygon fill="none" stroke="#bfbfbf" points="315.5,-0.5 315.5,-19.5 430.5,-19.5 430.5,-0.5 315.5,-0.5"/>
<text text-anchor="middle" x="373" y="-7.5" font-family="Helvetica,sans-Serif" font-size="10.00">yarp/os/BufferedPort.h</text>
</g>
<!-- Node3&#45;&gt;Node5 -->
<g id="edge4" class="edge"><title>Node3&#45;&gt;Node5</title>
<path fill="none" stroke="midnightblue" d="M1147.3,-62.4297C1006.27,-57.4889 705.568,-44.9638 440.903,-20.0062"/>
<polygon fill="midnightblue" stroke="midnightblue" points="440.998,-16.4996 430.711,-19.0373 440.335,-23.4682 440.998,-16.4996"/>
</g>
<!-- Node6 -->
<g id="node6" class="node"><title>Node6</title>
<polygon fill="none" stroke="#bfbfbf" points="449,-0.5 449,-19.5 531,-19.5 531,-0.5 449,-0.5"/>
<text text-anchor="middle" x="490" y="-7.5" font-family="Helvetica,sans-Serif" font-size="10.00">yarp/os/Time.h</text>
</g>
<!-- Node3&#45;&gt;Node6 -->
<g id="edge5" class="edge"><title>Node3&#45;&gt;Node6</title>
<path fill="none" stroke="midnightblue" d="M1147.49,-62.6777C1020.63,-58.3674 766.355,-47.0936 541.168,-20.0042"/>
<polygon fill="midnightblue" stroke="midnightblue" points="541.494,-16.5181 531.145,-18.7855 540.649,-23.467 541.494,-16.5181"/>
</g>
<!-- Node7 -->
<g id="node7" class="node"><title>Node7</title>
<polygon fill="none" stroke="#bfbfbf" points="549.5,-0.5 549.5,-19.5 646.5,-19.5 646.5,-0.5 549.5,-0.5"/>
<text text-anchor="middle" x="598" y="-7.5" font-family="Helvetica,sans-Serif" font-size="10.00">yarp/os/Network.h</text>
</g>
<!-- Node3&#45;&gt;Node7 -->
<g id="edge6" class="edge"><title>Node3&#45;&gt;Node7</title>
<path fill="none" stroke="midnightblue" d="M1147.15,-60.6489C1038.01,-54.329 837.323,-41.1324 656.73,-20.127"/>
<polygon fill="midnightblue" stroke="midnightblue" points="657.123,-16.6492 646.783,-18.9596 656.307,-23.6014 657.123,-16.6492"/>
</g>
<!-- Node8 -->
<g id="node8" class="node"><title>Node8</title>
<polygon fill="none" stroke="#bfbfbf" points="664.5,-0.5 664.5,-19.5 775.5,-19.5 775.5,-0.5 664.5,-0.5"/>
<text text-anchor="middle" x="720" y="-7.5" font-family="Helvetica,sans-Serif" font-size="10.00">yarp/os/RateThread.h</text>
</g>
<!-- Node3&#45;&gt;Node8 -->
<g id="edge7" class="edge"><title>Node3&#45;&gt;Node8</title>
<path fill="none" stroke="midnightblue" d="M1147.28,-57.7654C1060.49,-49.7714 918.175,-36.0451 786.129,-20.2218"/>
<polygon fill="midnightblue" stroke="midnightblue" points="786.178,-16.7024 775.831,-18.9809 785.34,-23.6522 786.178,-16.7024"/>
</g>
<!-- Node9 -->
<g id="node9" class="node"><title>Node9</title>
<polygon fill="none" stroke="#bfbfbf" points="793.5,-0.5 793.5,-19.5 882.5,-19.5 882.5,-0.5 793.5,-0.5"/>
<text text-anchor="middle" x="838" y="-7.5" font-family="Helvetica,sans-Serif" font-size="10.00">yarp/os/Stamp.h</text>
</g>
<!-- Node3&#45;&gt;Node9 -->
<g id="edge8" class="edge"><title>Node3&#45;&gt;Node9</title>
<path fill="none" stroke="midnightblue" d="M1158.84,-56.4929C1092.91,-48.2174 990.571,-34.9427 892.592,-20.2007"/>
<polygon fill="midnightblue" stroke="midnightblue" points="892.926,-16.7114 882.515,-18.6768 891.879,-23.6327 892.926,-16.7114"/>
</g>
<!-- Node10 -->
<g id="node10" class="node"><title>Node10</title>
<polygon fill="none" stroke="#bfbfbf" points="900,-0.5 900,-19.5 988,-19.5 988,-0.5 900,-0.5"/>
<text text-anchor="middle" x="944" y="-7.5" font-family="Helvetica,sans-Serif" font-size="10.00">yarp/os/Vocab.h</text>
</g>
<!-- Node3&#45;&gt;Node10 -->
<g id="edge9" class="edge"><title>Node3&#45;&gt;Node10</title>
<path fill="none" stroke="midnightblue" d="M1183,-56.4435C1132.89,-46.9164 1051.92,-31.5207 998.328,-21.3301"/>
<polygon fill="midnightblue" stroke="midnightblue" points="998.8,-17.8572 988.323,-19.4275 997.493,-24.734 998.8,-17.8572"/>
</g>
<!-- Node3&#45;&gt;Node11 -->
<g id="edge10" class="edge"><title>Node3&#45;&gt;Node11</title>
<path fill="none" stroke="midnightblue" d="M1147.33,-63.0602C972.452,-58.5271 545.133,-45.6799 176.299,-20.0521"/>
<polygon fill="midnightblue" stroke="midnightblue" points="176.447,-16.554 166.228,-19.348 175.959,-23.5369 176.447,-16.554"/>
</g>
<!-- Node12 -->
<g id="node12" class="node"><title>Node12</title>
<polygon fill="none" stroke="#bfbfbf" points="1006,-0.5 1006,-19.5 1144,-19.5 1144,-0.5 1006,-0.5"/>
<text text-anchor="middle" x="1075" y="-7.5" font-family="Helvetica,sans-Serif" font-size="10.00">yarp/dev/IInteractionMode.h</text>
</g>
<!-- Node3&#45;&gt;Node12 -->
<g id="edge11" class="edge"><title>Node3&#45;&gt;Node12</title>
<path fill="none" stroke="midnightblue" d="M1203.76,-56.4435C1178.13,-47.3986 1137.51,-33.064 1108.76,-22.9158"/>
<polygon fill="midnightblue" stroke="midnightblue" points="1109.72,-19.5442 1099.13,-19.5164 1107.39,-26.1452 1109.72,-19.5442"/>
</g>
<!-- Node13 -->
<g id="node13" class="node"><title>Node13</title>
<polygon fill="none" stroke="#bfbfbf" points="1162.5,-0.5 1162.5,-19.5 1293.5,-19.5 1293.5,-0.5 1162.5,-0.5"/>
<text text-anchor="middle" x="1228" y="-7.5" font-family="Helvetica,sans-Serif" font-size="10.00">yarp/dev/IControlLimits2.h</text>
</g>
<!-- Node3&#45;&gt;Node13 -->
<g id="edge12" class="edge"><title>Node3&#45;&gt;Node13</title>
<path fill="none" stroke="midnightblue" d="M1228,-56.083C1228,-49.0059 1228,-38.8611 1228,-29.9865"/>
<polygon fill="midnightblue" stroke="midnightblue" points="1231.5,-29.751 1228,-19.7511 1224.5,-29.7511 1231.5,-29.751"/>
</g>
<!-- Node14 -->
<g id="node14" class="node"><title>Node14</title>
<polygon fill="none" stroke="#bfbfbf" points="1311.5,-0.5 1311.5,-19.5 1422.5,-19.5 1422.5,-0.5 1311.5,-0.5"/>
<text text-anchor="middle" x="1367" y="-7.5" font-family="Helvetica,sans-Serif" font-size="10.00">yarp/dev/PolyDriver.h</text>
</g>
<!-- Node3&#45;&gt;Node14 -->
<g id="edge13" class="edge"><title>Node3&#45;&gt;Node14</title>
<path fill="none" stroke="midnightblue" d="M1250.02,-56.4435C1273.1,-47.4776 1309.56,-33.314 1335.64,-23.1827"/>
<polygon fill="midnightblue" stroke="midnightblue" points="1337.02,-26.4002 1345.08,-19.5164 1334.49,-19.8753 1337.02,-26.4002"/>
</g>
<!-- Node3&#45;&gt;Node15 -->
<g id="edge14" class="edge"><title>Node3&#45;&gt;Node15</title>
<path fill="none" stroke="midnightblue" d="M1308.75,-56.537C1390.56,-47.9057 1521.04,-33.9815 1644.28,-20.0711"/>
<polygon fill="midnightblue" stroke="midnightblue" points="1644.73,-23.5425 1654.28,-18.9411 1643.95,-16.5868 1644.73,-23.5425"/>
</g>
<!-- Node16 -->
<g id="node16" class="node"><title>Node16</title>
<polygon fill="none" stroke="#bfbfbf" points="1440.5,-0.5 1440.5,-19.5 1531.5,-19.5 1531.5,-0.5 1440.5,-0.5"/>
<text text-anchor="middle" x="1486" y="-7.5" font-family="Helvetica,sans-Serif" font-size="10.00">yarp/sig/Vector.h</text>
</g>
<!-- Node3&#45;&gt;Node16 -->
<g id="edge15" class="edge"><title>Node3&#45;&gt;Node16</title>
<path fill="none" stroke="midnightblue" d="M1268.88,-56.4435C1313.98,-47.0036 1386.61,-31.802 1435.3,-21.6111"/>
<polygon fill="midnightblue" stroke="midnightblue" points="1436.24,-24.9909 1445.31,-19.5164 1434.81,-18.1394 1436.24,-24.9909"/>
</g>
<!-- Node17 -->
<g id="node17" class="node"><title>Node17</title>
<polygon fill="none" stroke="#bfbfbf" points="1549.5,-0.5 1549.5,-19.5 1636.5,-19.5 1636.5,-0.5 1549.5,-0.5"/>
<text text-anchor="middle" x="1593" y="-7.5" font-family="Helvetica,sans-Serif" font-size="10.00">yarp/os/Mutex.h</text>
</g>
<!-- Node3&#45;&gt;Node17 -->
<g id="edge16" class="edge"><title>Node3&#45;&gt;Node17</title>
<path fill="none" stroke="midnightblue" d="M1290.22,-56.4911C1351.03,-48.0705 1446.49,-34.5713 1539.22,-20.0893"/>
<polygon fill="midnightblue" stroke="midnightblue" points="1540,-23.5089 1549.34,-18.5025 1538.92,-16.5933 1540,-23.5089"/>
</g>
<!-- Node3&#45;&gt;Node18 -->
<g id="edge17" class="edge"><title>Node3&#45;&gt;Node18</title>
<path fill="none" stroke="midnightblue" d="M1308.59,-60.3317C1416.84,-53.6765 1615.42,-40.121 1795.84,-19.9342"/>
<polygon fill="midnightblue" stroke="midnightblue" points="1796.23,-23.412 1805.78,-18.8132 1795.45,-16.4561 1796.23,-23.412"/>
</g>
<!-- Node3&#45;&gt;Node19 -->
<g id="edge18" class="edge"><title>Node3&#45;&gt;Node19</title>
<path fill="none" stroke="midnightblue" d="M1308.65,-65.3713C1437.85,-64.705 1698.78,-58.1675 1916,-20 1916.21,-19.9624 1916.43,-19.9239 1916.64,-19.8845"/>
<polygon fill="midnightblue" stroke="midnightblue" points="1917.5,-23.2785 1926.47,-17.6361 1915.94,-16.4548 1917.5,-23.2785"/>
</g>
<!-- Node3&#45;&gt;Node20 -->
<g id="edge19" class="edge"><title>Node3&#45;&gt;Node20</title>
<path fill="none" stroke="midnightblue" d="M1308.62,-65.7745C1444.59,-65.8474 1728.03,-60.6896 1975.85,-19.579"/>
<polygon fill="midnightblue" stroke="midnightblue" points="1976.48,-23.022 1985.76,-17.912 1975.32,-16.119 1976.48,-23.022"/>
</g>
</g>
</svg>
        <g id="navigator" transform="translate(0 0)" fill="#404254">
                <rect fill="#f2f5e9" fill-opacity="0.5" stroke="#606060" stroke-width=".5" x="0" y="0" width="60" height="60"/>
                <use id="zoomplus" xlink:href="#zoomPlus" x="17" y="9" onmousedown="handleZoom(evt,'in')"/>
                <use id="zoomminus" xlink:href="#zoomMin" x="42" y="9" onmousedown="handleZoom(evt,'out')"/>
                <use id="reset" xlink:href="#resetDef" x="30" y="36" onmousedown="handleReset()"/>
                <g id="arrowUp" xlink:href="#dirArrow" transform="translate(30 24)" onmousedown="handlePan(0,-1)">
                  <use xlink:href="#rim" fill="#404040">
                        <set attributeName="fill" to="#808080" begin="arrowUp.mouseover" end="arrowUp.mouseout"/>
                  </use>
                  <path fill="none" stroke="white" stroke-width="1.5" d="M0,-3.0v7 M-2.5,-0.5L0,-3.0L2.5,-0.5"/>
                </g>
                <g id="arrowRight" xlink:href="#dirArrow" transform="rotate(90) translate(36 -43)" onmousedown="handlePan(1,0)">
                  <use xlink:href="#rim" fill="#404040">
                        <set attributeName="fill" to="#808080" begin="arrowRight.mouseover" end="arrowRight.mouseout"/>
                  </use>
                  <path fill="none" stroke="white" stroke-width="1.5" d="M0,-3.0v7 M-2.5,-0.5L0,-3.0L2.5,-0.5"/>
                </g>
                <g id="arrowDown" xlink:href="#dirArrow" transform="rotate(180) translate(-30 -48)" onmousedown="handlePan(0,1)">
                  <use xlink:href="#rim" fill="#404040">
                        <set attributeName="fill" to="#808080" begin="arrowDown.mouseover" end="arrowDown.mouseout"/>
                  </use>
                  <path fill="none" stroke="white" stroke-width="1.5" d="M0,-3.0v7 M-2.5,-0.5L0,-3.0L2.5,-0.5"/>
                </g>
                <g id="arrowLeft" xlink:href="#dirArrow" transform="rotate(270) translate(-36 17)" onmousedown="handlePan(-1,0)">
                  <use xlink:href="#rim" fill="#404040">
                        <set attributeName="fill" to="#808080" begin="arrowLeft.mouseover" end="arrowLeft.mouseout"/>
                  </use>
                  <path fill="none" stroke="white" stroke-width="1.5" d="M0,-3.0v7 M-2.5,-0.5L0,-3.0L2.5,-0.5"/>
                </g>
        </g>
        <svg viewBox="0 0 15 15" width="100%" height="30px" preserveAspectRatio="xMaxYMin meet">
         <g id="arrow_out" transform="scale(0.3 0.3)">
          <a xlink:href="_read_only_control_board_remapper_8cpp__incl_org.svg" target="_base">
           <rect id="button" ry="5" rx="5" y="6" x="6" height="38" width="38"
                fill="#f2f5e9" fill-opacity="0.5" stroke="#606060" stroke-width="1.0"/>
           <path id="arrow"
             d="M 11.500037,31.436501 C 11.940474,20.09759 22.043105,11.32322 32.158766,21.979434 L 37.068811,17.246167 C 37.068811,17.246167 37.088388,32 37.088388,32 L 22.160133,31.978069 C 22.160133,31.978069 26.997745,27.140456 26.997745,27.140456 C 18.528582,18.264221 13.291696,25.230495 11.500037,31.436501 z"
             style="fill:#404040;"/>
          </a>
         </g>
        </svg>
</svg>
