<?xml version="1.0" encoding="UTF-8" standalone="no"?>
<!DOCTYPE svg PUBLIC "-//W3C//DTD SVG 1.1//EN"
 "http://www.w3.org/Graphics/SVG/1.1/DTD/svg11.dtd">
<!-- Generated by graphviz version 2.36.0 (20140111.2315)
 -->
<!-- Title: /home/travis/build/robotology/human&#45;dynamics&#45;estimation/yarp/ReadOnlyControlBoardRemapper/ReadOnlyControlBoardRemapper.h Pages: 1 -->
<!--zoomable 174 -->
<svg id="main" version="1.1" xmlns="http://www.w3.org/2000/svg" xmlns:xlink="http://www.w3.org/1999/xlink" xml:space="preserve" onload="init(evt)">
<style type="text/css"><![CDATA[
.edge:hover path { stroke: red; }
.edge:hover polygon { stroke: red; fill: red; }
]]></style>
<script type="text/javascript"><![CDATA[
var edges = document.getElementsByTagName('g');
if (edges && edges.length) {
  for (var i=0;i<edges.length;i++) {
    if (edges[i].id.substr(0,4)=='edge') {
      edges[i].setAttribute('class','edge');
    }
  }
}
]]></script>
        <defs>
                <circle id="rim" cx="0" cy="0" r="7"/>
                <circle id="rim2" cx="0" cy="0" r="3.5"/>
                <g id="zoomPlus">
                        <use xlink:href="#rim" fill="#404040">
                                <set attributeName="fill" to="#808080" begin="zoomplus.mouseover" end="zoomplus.mouseout"/>
                        </use>
                        <path d="M-4,0h8M0,-4v8" fill="none" stroke="white" stroke-width="1.5" pointer-events="none"/>
                </g>
                <g id="zoomMin">
                        <use xlink:href="#rim" fill="#404040">
                                <set attributeName="fill" to="#808080" begin="zoomminus.mouseover" end="zoomminus.mouseout"/>
                        </use>
                        <path d="M-4,0h8" fill="none" stroke="white" stroke-width="1.5" pointer-events="none"/>
                </g>
                <g id="dirArrow">
                        <path fill="none" stroke="white" stroke-width="1.5" d="M0,-3.0v7 M-2.5,-0.5L0,-3.0L2.5,-0.5"/>
                </g>
               <g id="resetDef">
                       <use xlink:href="#rim2" fill="#404040">
                               <set attributeName="fill" to="#808080" begin="reset.mouseover" end="reset.mouseout"/>
                       </use>
               </g>
        </defs>

<script type="text/javascript">
var viewWidth = 2210;
var viewHeight = 174;
var sectionId = 'dynsection-0';
</script>
<script xlink:href="svgpan.js"/>
<svg id="graph" class="graph">
<g id="viewport">
<title>/home/travis/build/robotology/human&#45;dynamics&#45;estimation/yarp/ReadOnlyControlBoardRemapper/ReadOnlyControlBoardRemapper.h</title>
<!-- Node1 -->
<g id="node1" class="node"><title>Node1</title>
<polygon fill="#bfbfbf" stroke="black" points="1729,-113 1729,-165 1973,-165 1973,-113 1729,-113"/>
<text text-anchor="start" x="1737" y="-153" font-family="Helvetica,sans-Serif" font-size="10.00">/home/travis/build</text>
<text text-anchor="start" x="1737" y="-142" font-family="Helvetica,sans-Serif" font-size="10.00">/robotology/human&#45;dynamics</text>
<text text-anchor="start" x="1737" y="-131" font-family="Helvetica,sans-Serif" font-size="10.00">&#45;estimation/yarp/ReadOnlyControl</text>
<text text-anchor="middle" x="1851" y="-120" font-family="Helvetica,sans-Serif" font-size="10.00">BoardRemapper/ReadOnlyControlBoardRemapper.h</text>
</g>
<!-- Node2 -->
<g id="node2" class="node"><title>Node2</title>
<g id="a_node2"><a xlink:href="_control_board_remapper_helpers_8h.html" target="_top" xlink:title="ControlBoardRemapperHelpers.h">
<polygon fill="none" stroke="black" points="1093.5,-56.5 1093.5,-75.5 1254.5,-75.5 1254.5,-56.5 1093.5,-56.5"/>
<text text-anchor="middle" x="1174" y="-63.5" font-family="Helvetica,sans-Serif" font-size="10.00">ControlBoardRemapperHelpers.h</text>
</a>
</g>
</g>
<!-- Node1&#45;&gt;Node2 -->
<g id="edge1" class="edge"><title>Node1&#45;&gt;Node2</title>
<path fill="none" stroke="midnightblue" d="M1728.79,-125.184C1595.38,-111.192 1384.83,-89.111 1265.14,-76.5587"/>
<polygon fill="midnightblue" stroke="midnightblue" points="1265.23,-73.0481 1254.91,-75.4859 1264.49,-80.0099 1265.23,-73.0481"/>
</g>
<!-- Node10 -->
<g id="node10" class="node"><title>Node10</title>
<polygon fill="none" stroke="#bfbfbf" points="0,-0.5 0,-19.5 166,-19.5 166,-0.5 0,-0.5"/>
<text text-anchor="middle" x="83" y="-7.5" font-family="Helvetica,sans-Serif" font-size="10.00">yarp/dev/ControlBoardInterfaces.h</text>
</g>
<!-- Node1&#45;&gt;Node10 -->
<g id="edge19" class="edge"><title>Node1&#45;&gt;Node10</title>
<path fill="none" stroke="midnightblue" d="M1728.94,-130.549C1453.9,-113.511 764.474,-69.411 176.619,-20.1172"/>
<polygon fill="midnightblue" stroke="midnightblue" points="176.493,-16.5944 166.235,-19.2451 175.907,-23.5698 176.493,-16.5944"/>
</g>
<!-- Node14 -->
<g id="node14" class="node"><title>Node14</title>
<polygon fill="none" stroke="#bfbfbf" points="1654.5,-0.5 1654.5,-19.5 1787.5,-19.5 1787.5,-0.5 1654.5,-0.5"/>
<text text-anchor="middle" x="1721" y="-7.5" font-family="Helvetica,sans-Serif" font-size="10.00">yarp/dev/PreciselyTimed.h</text>
</g>
<!-- Node1&#45;&gt;Node14 -->
<g id="edge21" class="edge"><title>Node1&#45;&gt;Node14</title>
<path fill="none" stroke="midnightblue" d="M1825.32,-112.909C1799.09,-87.2849 1759.18,-48.2951 1737.1,-26.7282"/>
<polygon fill="midnightblue" stroke="midnightblue" points="1739.43,-24.1123 1729.83,-19.6278 1734.54,-29.1195 1739.43,-24.1123"/>
</g>
<!-- Node17 -->
<g id="node17" class="node"><title>Node17</title>
<polygon fill="none" stroke="#bfbfbf" points="1806,-0.5 1806,-19.5 1908,-19.5 1908,-0.5 1806,-0.5"/>
<text text-anchor="middle" x="1857" y="-7.5" font-family="Helvetica,sans-Serif" font-size="10.00">yarp/dev/Wrapper.h</text>
</g>
<!-- Node1&#45;&gt;Node17 -->
<g id="edge23" class="edge"><title>Node1&#45;&gt;Node17</title>
<path fill="none" stroke="midnightblue" d="M1852.19,-112.909C1853.34,-88.4088 1855.08,-51.6895 1856.12,-29.6639"/>
<polygon fill="midnightblue" stroke="midnightblue" points="1859.62,-29.7819 1856.59,-19.6278 1852.62,-29.4515 1859.62,-29.7819"/>
</g>
<!-- Node18 -->
<g id="node18" class="node"><title>Node18</title>
<polygon fill="none" stroke="#bfbfbf" points="1926.5,-0.5 1926.5,-19.5 1967.5,-19.5 1967.5,-0.5 1926.5,-0.5"/>
<text text-anchor="middle" x="1947" y="-7.5" font-family="Helvetica,sans-Serif" font-size="10.00">string</text>
</g>
<!-- Node1&#45;&gt;Node18 -->
<g id="edge24" class="edge"><title>Node1&#45;&gt;Node18</title>
<path fill="none" stroke="midnightblue" d="M1861.15,-112.834C1868.73,-95.7949 1880.14,-73.3198 1894,-56 1903.19,-44.5141 1915.64,-33.7654 1926.17,-25.6552"/>
<polygon fill="midnightblue" stroke="midnightblue" points="1928.5,-28.2797 1934.44,-19.5049 1924.33,-22.6618 1928.5,-28.2797"/>
</g>
<!-- Node19 -->
<g id="node19" class="node"><title>Node19</title>
<polygon fill="none" stroke="#bfbfbf" points="1986,-0.5 1986,-19.5 2030,-19.5 2030,-0.5 1986,-0.5"/>
<text text-anchor="middle" x="2008" y="-7.5" font-family="Helvetica,sans-Serif" font-size="10.00">vector</text>
</g>
<!-- Node1&#45;&gt;Node19 -->
<g id="edge25" class="edge"><title>Node1&#45;&gt;Node19</title>
<path fill="none" stroke="midnightblue" d="M1871.16,-112.763C1885.77,-95.4778 1906.63,-72.7417 1928,-56 1944,-43.466 1963.91,-32.2523 1979.87,-24.1541"/>
<polygon fill="midnightblue" stroke="midnightblue" points="1981.81,-27.0994 1989.22,-19.5305 1978.7,-20.8242 1981.81,-27.0994"/>
</g>
<!-- Node20 -->
<g id="node20" class="node"><title>Node20</title>
<polygon fill="none" stroke="#bfbfbf" points="1936.5,-56.5 1936.5,-75.5 2073.5,-75.5 2073.5,-56.5 1936.5,-56.5"/>
<text text-anchor="middle" x="2005" y="-63.5" font-family="Helvetica,sans-Serif" font-size="10.00">yarp/dev/IEncodersTimed.h</text>
</g>
<!-- Node1&#45;&gt;Node20 -->
<g id="edge20" class="edge"><title>Node1&#45;&gt;Node20</title>
<path fill="none" stroke="midnightblue" d="M1905.29,-112.968C1929.56,-101.783 1957.12,-89.0753 1977.11,-79.8601"/>
<polygon fill="midnightblue" stroke="midnightblue" points="1978.65,-83.0043 1986.26,-75.6389 1975.72,-76.6473 1978.65,-83.0043"/>
</g>
<!-- Node21 -->
<g id="node21" class="node"><title>Node21</title>
<polygon fill="none" stroke="#bfbfbf" points="2092,-56.5 2092,-75.5 2202,-75.5 2202,-56.5 2092,-56.5"/>
<text text-anchor="middle" x="2147" y="-63.5" font-family="Helvetica,sans-Serif" font-size="10.00">yarp/os/Semaphore.h</text>
</g>
<!-- Node1&#45;&gt;Node21 -->
<g id="edge22" class="edge"><title>Node1&#45;&gt;Node21</title>
<path fill="none" stroke="midnightblue" d="M1955.36,-112.968C2005.32,-100.984 2062.57,-87.2514 2101.39,-77.94"/>
<polygon fill="midnightblue" stroke="midnightblue" points="2102.43,-81.2901 2111.34,-75.5541 2100.8,-74.4832 2102.43,-81.2901"/>
</g>
<!-- Node3 -->
<g id="node3" class="node"><title>Node3</title>
<polygon fill="none" stroke="#bfbfbf" points="1289.5,-0.5 1289.5,-19.5 1402.5,-19.5 1402.5,-0.5 1289.5,-0.5"/>
<text text-anchor="middle" x="1346" y="-7.5" font-family="Helvetica,sans-Serif" font-size="10.00">yarp/os/PortablePair.h</text>
</g>
<!-- Node2&#45;&gt;Node3 -->
<g id="edge2" class="edge"><title>Node2&#45;&gt;Node3</title>
<path fill="none" stroke="midnightblue" d="M1201.25,-56.4435C1230.44,-47.2801 1276.92,-32.6876 1309.31,-22.5192"/>
<polygon fill="midnightblue" stroke="midnightblue" points="1310.38,-25.8512 1318.87,-19.5164 1308.28,-19.1726 1310.38,-25.8512"/>
</g>
<!-- Node4 -->
<g id="node4" class="node"><title>Node4</title>
<polygon fill="none" stroke="#bfbfbf" points="1420.5,-0.5 1420.5,-19.5 1535.5,-19.5 1535.5,-0.5 1420.5,-0.5"/>
<text text-anchor="middle" x="1478" y="-7.5" font-family="Helvetica,sans-Serif" font-size="10.00">yarp/os/BufferedPort.h</text>
</g>
<!-- Node2&#45;&gt;Node4 -->
<g id="edge3" class="edge"><title>Node2&#45;&gt;Node4</title>
<path fill="none" stroke="midnightblue" d="M1222.17,-56.4435C1275.87,-46.9049 1362.69,-31.4834 1420.05,-21.293"/>
<polygon fill="midnightblue" stroke="midnightblue" points="1420.82,-24.7115 1430.06,-19.5164 1419.6,-17.8194 1420.82,-24.7115"/>
</g>
<!-- Node5 -->
<g id="node5" class="node"><title>Node5</title>
<polygon fill="none" stroke="#bfbfbf" points="1554,-0.5 1554,-19.5 1636,-19.5 1636,-0.5 1554,-0.5"/>
<text text-anchor="middle" x="1595" y="-7.5" font-family="Helvetica,sans-Serif" font-size="10.00">yarp/os/Time.h</text>
</g>
<!-- Node2&#45;&gt;Node5 -->
<g id="edge4" class="edge"><title>Node2&#45;&gt;Node5</title>
<path fill="none" stroke="midnightblue" d="M1254.28,-56.4929C1327.07,-48.4914 1437.54,-35.6307 1543.89,-19.9377"/>
<polygon fill="midnightblue" stroke="midnightblue" points="1544.46,-23.3915 1553.84,-18.4597 1543.43,-16.4675 1544.46,-23.3915"/>
</g>
<!-- Node6 -->
<g id="node6" class="node"><title>Node6</title>
<polygon fill="none" stroke="#bfbfbf" points="184.5,-0.5 184.5,-19.5 281.5,-19.5 281.5,-0.5 184.5,-0.5"/>
<text text-anchor="middle" x="233" y="-7.5" font-family="Helvetica,sans-Serif" font-size="10.00">yarp/os/Network.h</text>
</g>
<!-- Node2&#45;&gt;Node6 -->
<g id="edge5" class="edge"><title>Node2&#45;&gt;Node6</title>
<path fill="none" stroke="midnightblue" d="M1093.34,-63.7451C939.383,-60.7262 592.887,-50.9334 292.007,-20.107"/>
<polygon fill="midnightblue" stroke="midnightblue" points="292.08,-16.5959 281.773,-19.0484 291.36,-23.5588 292.08,-16.5959"/>
</g>
<!-- Node7 -->
<g id="node7" class="node"><title>Node7</title>
<polygon fill="none" stroke="#bfbfbf" points="299.5,-0.5 299.5,-19.5 410.5,-19.5 410.5,-0.5 299.5,-0.5"/>
<text text-anchor="middle" x="355" y="-7.5" font-family="Helvetica,sans-Serif" font-size="10.00">yarp/os/RateThread.h</text>
</g>
<!-- Node2&#45;&gt;Node7 -->
<g id="edge6" class="edge"><title>Node2&#45;&gt;Node7</title>
<path fill="none" stroke="midnightblue" d="M1093.38,-62.318C956.941,-57.3109 671.634,-44.8215 420.848,-20.1144"/>
<polygon fill="midnightblue" stroke="midnightblue" points="421.113,-16.6236 410.816,-19.1176 420.421,-23.5893 421.113,-16.6236"/>
</g>
<!-- Node8 -->
<g id="node8" class="node"><title>Node8</title>
<polygon fill="none" stroke="#bfbfbf" points="428.5,-0.5 428.5,-19.5 517.5,-19.5 517.5,-0.5 428.5,-0.5"/>
<text text-anchor="middle" x="473" y="-7.5" font-family="Helvetica,sans-Serif" font-size="10.00">yarp/os/Stamp.h</text>
</g>
<!-- Node2&#45;&gt;Node8 -->
<g id="edge7" class="edge"><title>Node2&#45;&gt;Node8</title>
<path fill="none" stroke="midnightblue" d="M1093.45,-61.9684C972.595,-56.851 737.025,-44.6744 527.721,-20.1027"/>
<polygon fill="midnightblue" stroke="midnightblue" points="528.117,-16.6252 517.774,-18.9232 527.293,-23.5765 528.117,-16.6252"/>
</g>
<!-- Node9 -->
<g id="node9" class="node"><title>Node9</title>
<polygon fill="none" stroke="#bfbfbf" points="535,-0.5 535,-19.5 623,-19.5 623,-0.5 535,-0.5"/>
<text text-anchor="middle" x="579" y="-7.5" font-family="Helvetica,sans-Serif" font-size="10.00">yarp/os/Vocab.h</text>
</g>
<!-- Node2&#45;&gt;Node9 -->
<g id="edge8" class="edge"><title>Node2&#45;&gt;Node9</title>
<path fill="none" stroke="midnightblue" d="M1093.43,-60.4655C989.435,-54.13 802.706,-41.1187 633.307,-20.0644"/>
<polygon fill="midnightblue" stroke="midnightblue" points="633.563,-16.5692 623.205,-18.7966 632.691,-23.5147 633.563,-16.5692"/>
</g>
<!-- Node2&#45;&gt;Node10 -->
<g id="edge9" class="edge"><title>Node2&#45;&gt;Node10</title>
<path fill="none" stroke="midnightblue" d="M1093.31,-62.8023C924.936,-57.9033 523.67,-44.5946 176.233,-20.0504"/>
<polygon fill="midnightblue" stroke="midnightblue" points="176.451,-16.5572 166.228,-19.3394 175.955,-23.5395 176.451,-16.5572"/>
</g>
<!-- Node11 -->
<g id="node11" class="node"><title>Node11</title>
<polygon fill="none" stroke="#bfbfbf" points="641,-0.5 641,-19.5 779,-19.5 779,-0.5 641,-0.5"/>
<text text-anchor="middle" x="710" y="-7.5" font-family="Helvetica,sans-Serif" font-size="10.00">yarp/dev/IInteractionMode.h</text>
</g>
<!-- Node2&#45;&gt;Node11 -->
<g id="edge10" class="edge"><title>Node2&#45;&gt;Node11</title>
<path fill="none" stroke="midnightblue" d="M1100.73,-56.4733C1015.86,-46.596 876.541,-30.3819 789.217,-20.2192"/>
<polygon fill="midnightblue" stroke="midnightblue" points="789.433,-16.7209 779.096,-19.0413 788.624,-23.6739 789.433,-16.7209"/>
</g>
<!-- Node12 -->
<g id="node12" class="node"><title>Node12</title>
<polygon fill="none" stroke="#bfbfbf" points="797.5,-0.5 797.5,-19.5 928.5,-19.5 928.5,-0.5 797.5,-0.5"/>
<text text-anchor="middle" x="863" y="-7.5" font-family="Helvetica,sans-Serif" font-size="10.00">yarp/dev/IControlLimits2.h</text>
</g>
<!-- Node2&#45;&gt;Node12 -->
<g id="edge11" class="edge"><title>Node2&#45;&gt;Node12</title>
<path fill="none" stroke="midnightblue" d="M1124.72,-56.4435C1069.67,-46.8851 980.601,-31.4195 921.916,-21.2298"/>
<polygon fill="midnightblue" stroke="midnightblue" points="922.5,-17.7788 912.048,-19.5164 921.302,-24.6757 922.5,-17.7788"/>
</g>
<!-- Node13 -->
<g id="node13" class="node"><title>Node13</title>
<polygon fill="none" stroke="#bfbfbf" points="946.5,-0.5 946.5,-19.5 1057.5,-19.5 1057.5,-0.5 946.5,-0.5"/>
<text text-anchor="middle" x="1002" y="-7.5" font-family="Helvetica,sans-Serif" font-size="10.00">yarp/dev/PolyDriver.h</text>
</g>
<!-- Node2&#45;&gt;Node13 -->
<g id="edge12" class="edge"><title>Node2&#45;&gt;Node13</title>
<path fill="none" stroke="midnightblue" d="M1146.75,-56.4435C1117.56,-47.2801 1071.08,-32.6876 1038.69,-22.5192"/>
<polygon fill="midnightblue" stroke="midnightblue" points="1039.72,-19.1726 1029.13,-19.5164 1037.62,-25.8512 1039.72,-19.1726"/>
</g>
<!-- Node2&#45;&gt;Node14 -->
<g id="edge13" class="edge"><title>Node2&#45;&gt;Node14</title>
<path fill="none" stroke="midnightblue" d="M1254.9,-57.8312C1346.57,-49.5808 1500.75,-35.322 1643.99,-20.086"/>
<polygon fill="midnightblue" stroke="midnightblue" points="1644.71,-23.529 1654.28,-18.9874 1643.97,-16.5685 1644.71,-23.529"/>
</g>
<!-- Node15 -->
<g id="node15" class="node"><title>Node15</title>
<polygon fill="none" stroke="#bfbfbf" points="1075.5,-0.5 1075.5,-19.5 1166.5,-19.5 1166.5,-0.5 1075.5,-0.5"/>
<text text-anchor="middle" x="1121" y="-7.5" font-family="Helvetica,sans-Serif" font-size="10.00">yarp/sig/Vector.h</text>
</g>
<!-- Node2&#45;&gt;Node15 -->
<g id="edge14" class="edge"><title>Node2&#45;&gt;Node15</title>
<path fill="none" stroke="midnightblue" d="M1165.25,-56.083C1157.53,-48.2195 1146.1,-36.5688 1136.78,-27.0813"/>
<polygon fill="midnightblue" stroke="midnightblue" points="1139.09,-24.4363 1129.59,-19.7511 1134.1,-29.3396 1139.09,-24.4363"/>
</g>
<!-- Node16 -->
<g id="node16" class="node"><title>Node16</title>
<polygon fill="none" stroke="#bfbfbf" points="1184.5,-0.5 1184.5,-19.5 1271.5,-19.5 1271.5,-0.5 1184.5,-0.5"/>
<text text-anchor="middle" x="1228" y="-7.5" font-family="Helvetica,sans-Serif" font-size="10.00">yarp/os/Mutex.h</text>
</g>
<!-- Node2&#45;&gt;Node16 -->
<g id="edge15" class="edge"><title>Node2&#45;&gt;Node16</title>
<path fill="none" stroke="midnightblue" d="M1182.92,-56.083C1190.78,-48.2195 1202.43,-36.5688 1211.92,-27.0813"/>
<polygon fill="midnightblue" stroke="midnightblue" points="1214.65,-29.2971 1219.25,-19.7511 1209.7,-24.3473 1214.65,-29.2971"/>
</g>
<!-- Node2&#45;&gt;Node17 -->
<g id="edge16" class="edge"><title>Node2&#45;&gt;Node17</title>
<path fill="none" stroke="midnightblue" d="M1254.69,-61.0802C1371.5,-54.9785 1594.71,-41.7183 1795.63,-19.9485"/>
<polygon fill="midnightblue" stroke="midnightblue" points="1796.22,-23.4045 1805.78,-18.8387 1795.46,-16.4459 1796.22,-23.4045"/>
</g>
<!-- Node2&#45;&gt;Node18 -->
<g id="edge17" class="edge"><title>Node2&#45;&gt;Node18</title>
<path fill="none" stroke="midnightblue" d="M1254.56,-65.9338C1391.51,-66.2282 1678.05,-61.2291 1916,-20 1916.21,-19.9629 1916.43,-19.9249 1916.64,-19.886"/>
<polygon fill="midnightblue" stroke="midnightblue" points="1917.5,-23.2812 1926.47,-17.65 1915.95,-16.4556 1917.5,-23.2812"/>
</g>
<!-- Node2&#45;&gt;Node19 -->
<g id="edge18" class="edge"><title>Node2&#45;&gt;Node19</title>
<path fill="none" stroke="midnightblue" d="M1254.56,-62.7127C1425.48,-57.504 1820.68,-43.4838 1975.48,-19.5867"/>
<polygon fill="midnightblue" stroke="midnightblue" points="1976.45,-22.9752 1985.76,-17.9238 1975.33,-16.065 1976.45,-22.9752"/>
</g>
</g>
</svg>
        <g id="navigator" transform="translate(0 0)" fill="#404254">
                <rect fill="#f2f5e9" fill-opacity="0.5" stroke="#606060" stroke-width=".5" x="0" y="0" width="60" height="60"/>
                <use id="zoomplus" xlink:href="#zoomPlus" x="17" y="9" onmousedown="handleZoom(evt,'in')"/>
                <use id="zoomminus" xlink:href="#zoomMin" x="42" y="9" onmousedown="handleZoom(evt,'out')"/>
                <use id="reset" xlink:href="#resetDef" x="30" y="36" onmousedown="handleReset()"/>
                <g id="arrowUp" xlink:href="#dirArrow" transform="translate(30 24)" onmousedown="handlePan(0,-1)">
                  <use xlink:href="#rim" fill="#404040">
                        <set attributeName="fill" to="#808080" begin="arrowUp.mouseover" end="arrowUp.mouseout"/>
                  </use>
                  <path fill="none" stroke="white" stroke-width="1.5" d="M0,-3.0v7 M-2.5,-0.5L0,-3.0L2.5,-0.5"/>
                </g>
                <g id="arrowRight" xlink:href="#dirArrow" transform="rotate(90) translate(36 -43)" onmousedown="handlePan(1,0)">
                  <use xlink:href="#rim" fill="#404040">
                        <set attributeName="fill" to="#808080" begin="arrowRight.mouseover" end="arrowRight.mouseout"/>
                  </use>
                  <path fill="none" stroke="white" stroke-width="1.5" d="M0,-3.0v7 M-2.5,-0.5L0,-3.0L2.5,-0.5"/>
                </g>
                <g id="arrowDown" xlink:href="#dirArrow" transform="rotate(180) translate(-30 -48)" onmousedown="handlePan(0,1)">
                  <use xlink:href="#rim" fill="#404040">
                        <set attributeName="fill" to="#808080" begin="arrowDown.mouseover" end="arrowDown.mouseout"/>
                  </use>
                  <path fill="none" stroke="white" stroke-width="1.5" d="M0,-3.0v7 M-2.5,-0.5L0,-3.0L2.5,-0.5"/>
                </g>
                <g id="arrowLeft" xlink:href="#dirArrow" transform="rotate(270) translate(-36 17)" onmousedown="handlePan(-1,0)">
                  <use xlink:href="#rim" fill="#404040">
                        <set attributeName="fill" to="#808080" begin="arrowLeft.mouseover" end="arrowLeft.mouseout"/>
                  </use>
                  <path fill="none" stroke="white" stroke-width="1.5" d="M0,-3.0v7 M-2.5,-0.5L0,-3.0L2.5,-0.5"/>
                </g>
        </g>
        <svg viewBox="0 0 15 15" width="100%" height="30px" preserveAspectRatio="xMaxYMin meet">
         <g id="arrow_out" transform="scale(0.3 0.3)">
          <a xlink:href="_read_only_control_board_remapper_8h__incl_org.svg" target="_base">
           <rect id="button" ry="5" rx="5" y="6" x="6" height="38" width="38"
                fill="#f2f5e9" fill-opacity="0.5" stroke="#606060" stroke-width="1.0"/>
           <path id="arrow"
             d="M 11.500037,31.436501 C 11.940474,20.09759 22.043105,11.32322 32.158766,21.979434 L 37.068811,17.246167 C 37.068811,17.246167 37.088388,32 37.088388,32 L 22.160133,31.978069 C 22.160133,31.978069 26.997745,27.140456 26.997745,27.140456 C 18.528582,18.264221 13.291696,25.230495 11.500037,31.436501 z"
             style="fill:#404040;"/>
          </a>
         </g>
        </svg>
</svg>
