<?xml version="1.0" encoding="UTF-8" standalone="no"?>
<!DOCTYPE svg PUBLIC "-//W3C//DTD SVG 1.1//EN"
 "http://www.w3.org/Graphics/SVG/1.1/DTD/svg11.dtd">
<!-- Generated by graphviz version 2.36.0 (20140111.2315)
 -->
<!-- Title: /home/travis/build/robotology/human&#45;dynamics&#45;estimation/yarp/ReadOnlyControlBoardRemapper/ReadOnlyRemoteControlBoardRemapper.h Pages: 1 -->
<svg width="2038pt" height="240pt"
 viewBox="0.00 0.00 2038.00 240.00" xmlns="http://www.w3.org/2000/svg" xmlns:xlink="http://www.w3.org/1999/xlink">
<g id="graph0" class="graph" transform="scale(1 1) rotate(0) translate(4 236)">
<title>/home/travis/build/robotology/human&#45;dynamics&#45;estimation/yarp/ReadOnlyControlBoardRemapper/ReadOnlyRemoteControlBoardRemapper.h</title>
<!-- Node1 -->
<g id="node1" class="node"><title>Node1</title>
<polygon fill="#bfbfbf" stroke="black" points="208.5,-168.5 208.5,-231.5 433.5,-231.5 433.5,-168.5 208.5,-168.5"/>
<text text-anchor="start" x="216.5" y="-219.5" font-family="Helvetica,sans-Serif" font-size="10.00">/home/travis/build</text>
<text text-anchor="start" x="216.5" y="-208.5" font-family="Helvetica,sans-Serif" font-size="10.00">/robotology/human&#45;dynamics</text>
<text text-anchor="start" x="216.5" y="-197.5" font-family="Helvetica,sans-Serif" font-size="10.00">&#45;estimation/yarp/ReadOnlyControl</text>
<text text-anchor="start" x="216.5" y="-186.5" font-family="Helvetica,sans-Serif" font-size="10.00">BoardRemapper/ReadOnlyRemoteControlBoard</text>
<text text-anchor="middle" x="321" y="-175.5" font-family="Helvetica,sans-Serif" font-size="10.00">Remapper.h</text>
</g>
<!-- Node2 -->
<g id="node2" class="node"><title>Node2</title>
<polygon fill="none" stroke="#bfbfbf" points="-0.5,-0.5 -0.5,-19.5 110.5,-19.5 110.5,-0.5 -0.5,-0.5"/>
<text text-anchor="middle" x="55" y="-7.5" font-family="Helvetica,sans-Serif" font-size="10.00">yarp/dev/PolyDriver.h</text>
</g>
<!-- Node1&#45;&gt;Node2 -->
<g id="edge1" class="edge"><title>Node1&#45;&gt;Node2</title>
<path fill="none" stroke="midnightblue" d="M277.67,-168.376C219.534,-127.287 118.609,-55.9569 75.4887,-25.4807"/>
<polygon fill="midnightblue" stroke="midnightblue" points="77.3872,-22.5366 67.2008,-19.6231 73.347,-28.253 77.3872,-22.5366"/>
</g>
<!-- Node3 -->
<g id="node3" class="node"><title>Node3</title>
<g id="a_node3"><a xlink:href="_read_only_control_board_remapper_8h.html" target="_top" xlink:title="ReadOnlyControlBoardRemapper.h">
<polygon fill="none" stroke="black" points="374,-112.5 374,-131.5 544,-131.5 544,-112.5 374,-112.5"/>
<text text-anchor="middle" x="459" y="-119.5" font-family="Helvetica,sans-Serif" font-size="10.00">ReadOnlyControlBoardRemapper.h</text>
</a>
</g>
</g>
<!-- Node1&#45;&gt;Node3 -->
<g id="edge2" class="edge"><title>Node1&#45;&gt;Node3</title>
<path fill="none" stroke="midnightblue" d="M376.732,-168.307C396.679,-157.322 418.164,-145.489 434.174,-136.672"/>
<polygon fill="midnightblue" stroke="midnightblue" points="436.301,-139.497 443.372,-131.607 432.924,-133.365 436.301,-139.497"/>
</g>
<!-- Node4 -->
<g id="node4" class="node"><title>Node4</title>
<g id="a_node4"><a xlink:href="_control_board_remapper_helpers_8h.html" target="_top" xlink:title="ControlBoardRemapperHelpers.h">
<polygon fill="none" stroke="black" points="813.5,-56.5 813.5,-75.5 974.5,-75.5 974.5,-56.5 813.5,-56.5"/>
<text text-anchor="middle" x="894" y="-63.5" font-family="Helvetica,sans-Serif" font-size="10.00">ControlBoardRemapperHelpers.h</text>
</a>
</g>
</g>
<!-- Node3&#45;&gt;Node4 -->
<g id="edge3" class="edge"><title>Node3&#45;&gt;Node4</title>
<path fill="none" stroke="midnightblue" d="M527.927,-112.444C606.118,-102.737 733.382,-86.9388 815.379,-76.7599"/>
<polygon fill="midnightblue" stroke="midnightblue" points="815.903,-80.2218 825.395,-75.5164 815.04,-73.2751 815.903,-80.2218"/>
</g>
<!-- Node12 -->
<g id="node12" class="node"><title>Node12</title>
<polygon fill="none" stroke="#bfbfbf" points="1864,-0.5 1864,-19.5 2030,-19.5 2030,-0.5 1864,-0.5"/>
<text text-anchor="middle" x="1947" y="-7.5" font-family="Helvetica,sans-Serif" font-size="10.00">yarp/dev/ControlBoardInterfaces.h</text>
</g>
<!-- Node3&#45;&gt;Node12 -->
<g id="edge21" class="edge"><title>Node3&#45;&gt;Node12</title>
<path fill="none" stroke="midnightblue" d="M544.377,-115.541C761.114,-101.526 1350.45,-62.4447 1853.85,-19.9922"/>
<polygon fill="midnightblue" stroke="midnightblue" points="1854.19,-23.4761 1863.86,-19.1467 1853.6,-16.501 1854.19,-23.4761"/>
</g>
<!-- Node15 -->
<g id="node15" class="node"><title>Node15</title>
<polygon fill="none" stroke="#bfbfbf" points="128.5,-0.5 128.5,-19.5 261.5,-19.5 261.5,-0.5 128.5,-0.5"/>
<text text-anchor="middle" x="195" y="-7.5" font-family="Helvetica,sans-Serif" font-size="10.00">yarp/dev/PreciselyTimed.h</text>
</g>
<!-- Node3&#45;&gt;Node15 -->
<g id="edge23" class="edge"><title>Node3&#45;&gt;Node15</title>
<path fill="none" stroke="midnightblue" d="M438.284,-112.368C391.825,-93.0105 279.155,-46.0645 225.018,-23.5074"/>
<polygon fill="midnightblue" stroke="midnightblue" points="226.196,-20.2069 215.619,-19.5914 223.504,-26.6684 226.196,-20.2069"/>
</g>
<!-- Node18 -->
<g id="node18" class="node"><title>Node18</title>
<polygon fill="none" stroke="#bfbfbf" points="280,-0.5 280,-19.5 382,-19.5 382,-0.5 280,-0.5"/>
<text text-anchor="middle" x="331" y="-7.5" font-family="Helvetica,sans-Serif" font-size="10.00">yarp/dev/Wrapper.h</text>
</g>
<!-- Node3&#45;&gt;Node18 -->
<g id="edge25" class="edge"><title>Node3&#45;&gt;Node18</title>
<path fill="none" stroke="midnightblue" d="M448.956,-112.368C427.272,-93.7334 375.838,-49.5324 348.61,-26.1338"/>
<polygon fill="midnightblue" stroke="midnightblue" points="350.863,-23.4546 340.997,-19.5914 346.3,-28.7636 350.863,-23.4546"/>
</g>
<!-- Node19 -->
<g id="node19" class="node"><title>Node19</title>
<polygon fill="none" stroke="#bfbfbf" points="400.5,-0.5 400.5,-19.5 441.5,-19.5 441.5,-0.5 400.5,-0.5"/>
<text text-anchor="middle" x="421" y="-7.5" font-family="Helvetica,sans-Serif" font-size="10.00">string</text>
</g>
<!-- Node3&#45;&gt;Node19 -->
<g id="edge26" class="edge"><title>Node3&#45;&gt;Node19</title>
<path fill="none" stroke="midnightblue" d="M456.018,-112.368C449.858,-94.5366 435.611,-53.2953 427.312,-29.2717"/>
<polygon fill="midnightblue" stroke="midnightblue" points="430.541,-27.9005 423.968,-19.5914 423.925,-30.1862 430.541,-27.9005"/>
</g>
<!-- Node20 -->
<g id="node20" class="node"><title>Node20</title>
<polygon fill="none" stroke="#bfbfbf" points="460,-0.5 460,-19.5 504,-19.5 504,-0.5 460,-0.5"/>
<text text-anchor="middle" x="482" y="-7.5" font-family="Helvetica,sans-Serif" font-size="10.00">vector</text>
</g>
<!-- Node3&#45;&gt;Node20 -->
<g id="edge27" class="edge"><title>Node3&#45;&gt;Node20</title>
<path fill="none" stroke="midnightblue" d="M460.805,-112.368C464.516,-94.617 473.079,-53.6664 478.111,-29.5974"/>
<polygon fill="midnightblue" stroke="midnightblue" points="481.583,-30.0961 480.204,-19.5914 474.731,-28.6634 481.583,-30.0961"/>
</g>
<!-- Node21 -->
<g id="node21" class="node"><title>Node21</title>
<polygon fill="none" stroke="#bfbfbf" points="487.5,-56.5 487.5,-75.5 624.5,-75.5 624.5,-56.5 487.5,-56.5"/>
<text text-anchor="middle" x="556" y="-63.5" font-family="Helvetica,sans-Serif" font-size="10.00">yarp/dev/IEncodersTimed.h</text>
</g>
<!-- Node3&#45;&gt;Node21 -->
<g id="edge22" class="edge"><title>Node3&#45;&gt;Node21</title>
<path fill="none" stroke="midnightblue" d="M474.585,-112.324C489.999,-103.743 513.812,-90.486 531.71,-80.5224"/>
<polygon fill="midnightblue" stroke="midnightblue" points="533.419,-83.5767 540.454,-75.6545 530.014,-77.4606 533.419,-83.5767"/>
</g>
<!-- Node22 -->
<g id="node22" class="node"><title>Node22</title>
<polygon fill="none" stroke="#bfbfbf" points="643,-56.5 643,-75.5 753,-75.5 753,-56.5 643,-56.5"/>
<text text-anchor="middle" x="698" y="-63.5" font-family="Helvetica,sans-Serif" font-size="10.00">yarp/os/Semaphore.h</text>
</g>
<!-- Node3&#45;&gt;Node22 -->
<g id="edge24" class="edge"><title>Node3&#45;&gt;Node22</title>
<path fill="none" stroke="midnightblue" d="M496.87,-112.444C538.476,-103.043 605.369,-87.9291 650.469,-77.7393"/>
<polygon fill="midnightblue" stroke="midnightblue" points="651.324,-81.1343 660.307,-75.5164 649.781,-74.3064 651.324,-81.1343"/>
</g>
<!-- Node4&#45;&gt;Node2 -->
<g id="edge14" class="edge"><title>Node4&#45;&gt;Node2</title>
<path fill="none" stroke="midnightblue" d="M813.384,-59.3472C796.415,-58.2011 778.621,-57.0319 762,-56 479.672,-38.4724 405.585,-47.7303 121.027,-20.1271"/>
<polygon fill="midnightblue" stroke="midnightblue" points="121.108,-16.6184 110.815,-19.1295 120.427,-23.5853 121.108,-16.6184"/>
</g>
<!-- Node5 -->
<g id="node5" class="node"><title>Node5</title>
<polygon fill="none" stroke="#bfbfbf" points="522.5,-0.5 522.5,-19.5 635.5,-19.5 635.5,-0.5 522.5,-0.5"/>
<text text-anchor="middle" x="579" y="-7.5" font-family="Helvetica,sans-Serif" font-size="10.00">yarp/os/PortablePair.h</text>
</g>
<!-- Node4&#45;&gt;Node5 -->
<g id="edge4" class="edge"><title>Node4&#45;&gt;Node5</title>
<path fill="none" stroke="midnightblue" d="M844.087,-56.4435C788.33,-46.8851 698.114,-31.4195 638.674,-21.2298"/>
<polygon fill="midnightblue" stroke="midnightblue" points="639.127,-17.7565 628.679,-19.5164 637.944,-24.6558 639.127,-17.7565"/>
</g>
<!-- Node6 -->
<g id="node6" class="node"><title>Node6</title>
<polygon fill="none" stroke="#bfbfbf" points="653.5,-0.5 653.5,-19.5 768.5,-19.5 768.5,-0.5 653.5,-0.5"/>
<text text-anchor="middle" x="711" y="-7.5" font-family="Helvetica,sans-Serif" font-size="10.00">yarp/os/BufferedPort.h</text>
</g>
<!-- Node4&#45;&gt;Node6 -->
<g id="edge5" class="edge"><title>Node4&#45;&gt;Node6</title>
<path fill="none" stroke="midnightblue" d="M865.003,-56.4435C833.815,-47.2406 784.07,-32.5617 749.592,-22.3879"/>
<polygon fill="midnightblue" stroke="midnightblue" points="750.443,-18.9898 739.861,-19.5164 748.462,-25.7036 750.443,-18.9898"/>
</g>
<!-- Node7 -->
<g id="node7" class="node"><title>Node7</title>
<polygon fill="none" stroke="#bfbfbf" points="787,-0.5 787,-19.5 869,-19.5 869,-0.5 787,-0.5"/>
<text text-anchor="middle" x="828" y="-7.5" font-family="Helvetica,sans-Serif" font-size="10.00">yarp/os/Time.h</text>
</g>
<!-- Node4&#45;&gt;Node7 -->
<g id="edge6" class="edge"><title>Node4&#45;&gt;Node7</title>
<path fill="none" stroke="midnightblue" d="M883.396,-56.324C873.544,-48.2631 858.649,-36.0765 846.785,-26.3695"/>
<polygon fill="midnightblue" stroke="midnightblue" points="848.753,-23.4575 838.797,-19.8339 844.32,-28.8752 848.753,-23.4575"/>
</g>
<!-- Node8 -->
<g id="node8" class="node"><title>Node8</title>
<polygon fill="none" stroke="#bfbfbf" points="887.5,-0.5 887.5,-19.5 984.5,-19.5 984.5,-0.5 887.5,-0.5"/>
<text text-anchor="middle" x="936" y="-7.5" font-family="Helvetica,sans-Serif" font-size="10.00">yarp/os/Network.h</text>
</g>
<!-- Node4&#45;&gt;Node8 -->
<g id="edge7" class="edge"><title>Node4&#45;&gt;Node8</title>
<path fill="none" stroke="midnightblue" d="M900.935,-56.083C906.929,-48.3768 915.752,-37.0333 923.048,-27.6531"/>
<polygon fill="midnightblue" stroke="midnightblue" points="925.817,-29.7934 929.194,-19.7511 920.291,-25.4958 925.817,-29.7934"/>
</g>
<!-- Node9 -->
<g id="node9" class="node"><title>Node9</title>
<polygon fill="none" stroke="#bfbfbf" points="1002.5,-0.5 1002.5,-19.5 1113.5,-19.5 1113.5,-0.5 1002.5,-0.5"/>
<text text-anchor="middle" x="1058" y="-7.5" font-family="Helvetica,sans-Serif" font-size="10.00">yarp/os/RateThread.h</text>
</g>
<!-- Node4&#45;&gt;Node9 -->
<g id="edge8" class="edge"><title>Node4&#45;&gt;Node9</title>
<path fill="none" stroke="midnightblue" d="M919.986,-56.4435C947.696,-47.3196 991.752,-32.8133 1022.62,-22.6509"/>
<polygon fill="midnightblue" stroke="midnightblue" points="1023.73,-25.9684 1032.14,-19.5164 1021.54,-19.3196 1023.73,-25.9684"/>
</g>
<!-- Node10 -->
<g id="node10" class="node"><title>Node10</title>
<polygon fill="none" stroke="#bfbfbf" points="1131.5,-0.5 1131.5,-19.5 1220.5,-19.5 1220.5,-0.5 1131.5,-0.5"/>
<text text-anchor="middle" x="1176" y="-7.5" font-family="Helvetica,sans-Serif" font-size="10.00">yarp/os/Stamp.h</text>
</g>
<!-- Node4&#45;&gt;Node10 -->
<g id="edge9" class="edge"><title>Node4&#45;&gt;Node10</title>
<path fill="none" stroke="midnightblue" d="M938.684,-56.4435C988.29,-46.9444 1068.36,-31.611 1121.59,-21.4198"/>
<polygon fill="midnightblue" stroke="midnightblue" points="1122.36,-24.8348 1131.53,-19.5164 1121.05,-17.9597 1122.36,-24.8348"/>
</g>
<!-- Node11 -->
<g id="node11" class="node"><title>Node11</title>
<polygon fill="none" stroke="#bfbfbf" points="1238,-0.5 1238,-19.5 1326,-19.5 1326,-0.5 1238,-0.5"/>
<text text-anchor="middle" x="1282" y="-7.5" font-family="Helvetica,sans-Serif" font-size="10.00">yarp/os/Vocab.h</text>
</g>
<!-- Node4&#45;&gt;Node11 -->
<g id="edge10" class="edge"><title>Node4&#45;&gt;Node11</title>
<path fill="none" stroke="midnightblue" d="M962.75,-56.473C1028.29,-48.183 1130.02,-34.8976 1227.72,-20.1525"/>
<polygon fill="midnightblue" stroke="midnightblue" points="1228.41,-23.5882 1237.77,-18.6283 1227.36,-16.6673 1228.41,-23.5882"/>
</g>
<!-- Node4&#45;&gt;Node12 -->
<g id="edge11" class="edge"><title>Node4&#45;&gt;Node12</title>
<path fill="none" stroke="midnightblue" d="M974.678,-62.5712C1138.16,-57.354 1520.49,-43.6537 1853.53,-19.9903"/>
<polygon fill="midnightblue" stroke="midnightblue" points="1854.14,-23.4557 1863.86,-19.2516 1853.64,-16.4735 1854.14,-23.4557"/>
</g>
<!-- Node13 -->
<g id="node13" class="node"><title>Node13</title>
<polygon fill="none" stroke="#bfbfbf" points="1344,-0.5 1344,-19.5 1482,-19.5 1482,-0.5 1344,-0.5"/>
<text text-anchor="middle" x="1413" y="-7.5" font-family="Helvetica,sans-Serif" font-size="10.00">yarp/dev/IInteractionMode.h</text>
</g>
<!-- Node4&#45;&gt;Node13 -->
<g id="edge12" class="edge"><title>Node4&#45;&gt;Node13</title>
<path fill="none" stroke="midnightblue" d="M974.722,-57.0257C1060.75,-48.4631 1201.25,-34.2963 1333.34,-20.0599"/>
<polygon fill="midnightblue" stroke="midnightblue" points="1334.08,-23.5005 1343.64,-18.9472 1333.32,-16.541 1334.08,-23.5005"/>
</g>
<!-- Node14 -->
<g id="node14" class="node"><title>Node14</title>
<polygon fill="none" stroke="#bfbfbf" points="1500.5,-0.5 1500.5,-19.5 1631.5,-19.5 1631.5,-0.5 1500.5,-0.5"/>
<text text-anchor="middle" x="1566" y="-7.5" font-family="Helvetica,sans-Serif" font-size="10.00">yarp/dev/IControlLimits2.h</text>
</g>
<!-- Node4&#45;&gt;Node14 -->
<g id="edge13" class="edge"><title>Node4&#45;&gt;Node14</title>
<path fill="none" stroke="midnightblue" d="M974.727,-60.0511C1087.54,-52.8814 1299.01,-38.5207 1489.94,-20.0614"/>
<polygon fill="midnightblue" stroke="midnightblue" points="1490.55,-23.5183 1500.17,-19.0667 1489.88,-16.5512 1490.55,-23.5183"/>
</g>
<!-- Node4&#45;&gt;Node15 -->
<g id="edge15" class="edge"><title>Node4&#45;&gt;Node15</title>
<path fill="none" stroke="midnightblue" d="M813.403,-59.3857C664.452,-48.9808 354.472,-27.1825 272.156,-20.022"/>
<polygon fill="midnightblue" stroke="midnightblue" points="271.985,-16.4921 261.71,-19.0748 271.353,-23.4635 271.985,-16.4921"/>
</g>
<!-- Node16 -->
<g id="node16" class="node"><title>Node16</title>
<polygon fill="none" stroke="#bfbfbf" points="1649.5,-0.5 1649.5,-19.5 1740.5,-19.5 1740.5,-0.5 1649.5,-0.5"/>
<text text-anchor="middle" x="1695" y="-7.5" font-family="Helvetica,sans-Serif" font-size="10.00">yarp/sig/Vector.h</text>
</g>
<!-- Node4&#45;&gt;Node16 -->
<g id="edge16" class="edge"><title>Node4&#45;&gt;Node16</title>
<path fill="none" stroke="midnightblue" d="M974.542,-62.8328C1109.7,-58.6028 1390.88,-47.2644 1639.13,-19.9682"/>
<polygon fill="midnightblue" stroke="midnightblue" points="1639.88,-23.4064 1649.43,-18.8239 1639.11,-16.4492 1639.88,-23.4064"/>
</g>
<!-- Node17 -->
<g id="node17" class="node"><title>Node17</title>
<polygon fill="none" stroke="#bfbfbf" points="1758.5,-0.5 1758.5,-19.5 1845.5,-19.5 1845.5,-0.5 1758.5,-0.5"/>
<text text-anchor="middle" x="1802" y="-7.5" font-family="Helvetica,sans-Serif" font-size="10.00">yarp/os/Mutex.h</text>
</g>
<!-- Node4&#45;&gt;Node17 -->
<g id="edge17" class="edge"><title>Node4&#45;&gt;Node17</title>
<path fill="none" stroke="midnightblue" d="M974.705,-63.8586C1124.89,-61.0543 1457.61,-51.6457 1748.07,-19.9543"/>
<polygon fill="midnightblue" stroke="midnightblue" points="1748.83,-23.392 1758.38,-18.8175 1748.06,-16.4341 1748.83,-23.392"/>
</g>
<!-- Node4&#45;&gt;Node18 -->
<g id="edge18" class="edge"><title>Node4&#45;&gt;Node18</title>
<path fill="none" stroke="midnightblue" d="M813.263,-59.2685C715.912,-52.0214 547.093,-38.3835 392.216,-20.0793"/>
<polygon fill="midnightblue" stroke="midnightblue" points="392.379,-16.5741 382.035,-18.8669 391.551,-23.525 392.379,-16.5741"/>
</g>
<!-- Node4&#45;&gt;Node19 -->
<g id="edge19" class="edge"><title>Node4&#45;&gt;Node19</title>
<path fill="none" stroke="midnightblue" d="M813.106,-58.6393C709.158,-50.1585 533.364,-34.7007 451.502,-19.6479"/>
<polygon fill="midnightblue" stroke="midnightblue" points="452.009,-16.1812 441.527,-17.7192 450.681,-23.0539 452.009,-16.1812"/>
</g>
<!-- Node4&#45;&gt;Node20 -->
<g id="edge20" class="edge"><title>Node4&#45;&gt;Node20</title>
<path fill="none" stroke="midnightblue" d="M813.483,-59.3695C738.219,-53.2225 622.66,-41.5254 514.055,-19.9173"/>
<polygon fill="midnightblue" stroke="midnightblue" points="514.737,-16.4844 504.242,-17.9336 513.35,-23.3456 514.737,-16.4844"/>
</g>
</g>
</svg>
