<?xml version="1.0" encoding="UTF-8" standalone="no"?>
<!DOCTYPE svg PUBLIC "-//W3C//DTD SVG 1.1//EN"
 "http://www.w3.org/Graphics/SVG/1.1/DTD/svg11.dtd">
<!-- Generated by graphviz version 2.36.0 (20140111.2315)
 -->
<!-- Title: /home/travis/build/robotology/human&#45;dynamics&#45;estimation/human&#45;forces&#45;provider/src/RobotFrameTransformer.cpp Pages: 1 -->
<svg width="1123pt" height="342pt"
 viewBox="0.00 0.00 1123.00 342.00" xmlns="http://www.w3.org/2000/svg" xmlns:xlink="http://www.w3.org/1999/xlink">
<g id="graph0" class="graph" transform="scale(1 1) rotate(0) translate(4 338)">
<title>/home/travis/build/robotology/human&#45;dynamics&#45;estimation/human&#45;forces&#45;provider/src/RobotFrameTransformer.cpp</title>
<!-- Node1 -->
<g id="node1" class="node"><title>Node1</title>
<polygon fill="#bfbfbf" stroke="black" points="491.5,-281 491.5,-333 690.5,-333 690.5,-281 491.5,-281"/>
<text text-anchor="start" x="499.5" y="-321" font-family="Helvetica,sans-Serif" font-size="10.00">/home/travis/build</text>
<text text-anchor="start" x="499.5" y="-310" font-family="Helvetica,sans-Serif" font-size="10.00">/robotology/human&#45;dynamics</text>
<text text-anchor="start" x="499.5" y="-299" font-family="Helvetica,sans-Serif" font-size="10.00">&#45;estimation/human&#45;forces</text>
<text text-anchor="middle" x="591" y="-288" font-family="Helvetica,sans-Serif" font-size="10.00">&#45;provider/src/RobotFrameTransformer.cpp</text>
</g>
<!-- Node2 -->
<g id="node2" class="node"><title>Node2</title>
<polygon fill="none" stroke="#bfbfbf" points="303,-224.5 303,-243.5 347,-243.5 347,-224.5 303,-224.5"/>
<text text-anchor="middle" x="325" y="-231.5" font-family="Helvetica,sans-Serif" font-size="10.00">cmath</text>
</g>
<!-- Node1&#45;&gt;Node2 -->
<g id="edge1" class="edge"><title>Node1&#45;&gt;Node2</title>
<path fill="none" stroke="midnightblue" d="M493.957,-280.97C454.106,-270.552 407.3,-258.14 357.083,-244.257"/>
<polygon fill="midnightblue" stroke="midnightblue" points="357.904,-240.853 347.332,-241.555 356.034,-247.598 357.904,-240.853"/>
</g>
<!-- Node3 -->
<g id="node3" class="node"><title>Node3</title>
<g id="a_node3"><a xlink:href="_robot_frame_transformer_8h.html" target="_top" xlink:title="RobotFrameTransformer.h">
<polygon fill="none" stroke="black" points="365.5,-224.5 365.5,-243.5 496.5,-243.5 496.5,-224.5 365.5,-224.5"/>
<text text-anchor="middle" x="431" y="-231.5" font-family="Helvetica,sans-Serif" font-size="10.00">RobotFrameTransformer.h</text>
</a>
</g>
</g>
<!-- Node1&#45;&gt;Node3 -->
<g id="edge2" class="edge"><title>Node1&#45;&gt;Node3</title>
<path fill="none" stroke="midnightblue" d="M534.59,-280.968C509.27,-269.732 480.487,-256.96 459.698,-247.735"/>
<polygon fill="midnightblue" stroke="midnightblue" points="461.028,-244.496 450.468,-243.639 458.189,-250.894 461.028,-244.496"/>
</g>
<!-- Node9 -->
<g id="node9" class="node"><title>Node9</title>
<polygon fill="none" stroke="#bfbfbf" points="652.5,-168.5 652.5,-187.5 813.5,-187.5 813.5,-168.5 652.5,-168.5"/>
<text text-anchor="middle" x="733" y="-175.5" font-family="Helvetica,sans-Serif" font-size="10.00">iDynTree/KinDynComputations.h</text>
</g>
<!-- Node1&#45;&gt;Node9 -->
<g id="edge24" class="edge"><title>Node1&#45;&gt;Node9</title>
<path fill="none" stroke="midnightblue" d="M560.942,-280.753C544.506,-263.885 530.066,-241.641 544,-224 557.189,-207.302 603.288,-196.132 646.652,-189.098"/>
<polygon fill="midnightblue" stroke="midnightblue" points="647.378,-192.527 656.719,-187.529 646.299,-185.611 647.378,-192.527"/>
</g>
<!-- Node17 -->
<g id="node17" class="node"><title>Node17</title>
<polygon fill="none" stroke="#bfbfbf" points="553,-224.5 553,-243.5 629,-243.5 629,-224.5 553,-224.5"/>
<text text-anchor="middle" x="591" y="-231.5" font-family="Helvetica,sans-Serif" font-size="10.00">yarp/os/Log.h</text>
</g>
<!-- Node1&#45;&gt;Node17 -->
<g id="edge22" class="edge"><title>Node1&#45;&gt;Node17</title>
<path fill="none" stroke="midnightblue" d="M591,-280.768C591,-271.89 591,-262.074 591,-253.816"/>
<polygon fill="midnightblue" stroke="midnightblue" points="594.5,-253.757 591,-243.757 587.5,-253.757 594.5,-253.757"/>
</g>
<!-- Node18 -->
<g id="node18" class="node"><title>Node18</title>
<polygon fill="none" stroke="#bfbfbf" points="647,-224.5 647,-243.5 757,-243.5 757,-224.5 647,-224.5"/>
<text text-anchor="middle" x="702" y="-231.5" font-family="Helvetica,sans-Serif" font-size="10.00">yarp/dev/IEncoders.h</text>
</g>
<!-- Node1&#45;&gt;Node18 -->
<g id="edge23" class="edge"><title>Node1&#45;&gt;Node18</title>
<path fill="none" stroke="midnightblue" d="M630.134,-280.968C646.826,-270.291 665.687,-258.227 679.897,-249.138"/>
<polygon fill="midnightblue" stroke="midnightblue" points="681.956,-251.976 688.494,-243.639 678.184,-246.079 681.956,-251.976"/>
</g>
<!-- Node19 -->
<g id="node19" class="node"><title>Node19</title>
<polygon fill="none" stroke="#bfbfbf" points="775,-224.5 775,-243.5 947,-243.5 947,-224.5 775,-224.5"/>
<text text-anchor="middle" x="861" y="-231.5" font-family="Helvetica,sans-Serif" font-size="10.00">iDynTree/yarp/YARPConversions.h</text>
</g>
<!-- Node1&#45;&gt;Node19 -->
<g id="edge25" class="edge"><title>Node1&#45;&gt;Node19</title>
<path fill="none" stroke="midnightblue" d="M686.192,-280.968C731.378,-269.086 783.099,-255.485 818.49,-246.179"/>
<polygon fill="midnightblue" stroke="midnightblue" points="819.689,-249.482 828.471,-243.554 817.909,-242.712 819.689,-249.482"/>
</g>
<!-- Node20 -->
<g id="node20" class="node"><title>Node20</title>
<polygon fill="none" stroke="#bfbfbf" points="965,-224.5 965,-243.5 1115,-243.5 1115,-224.5 965,-224.5"/>
<text text-anchor="middle" x="1040" y="-231.5" font-family="Helvetica,sans-Serif" font-size="10.00">iDynTree/Core/EigenHelpers.h</text>
</g>
<!-- Node1&#45;&gt;Node20 -->
<g id="edge26" class="edge"><title>Node1&#45;&gt;Node20</title>
<path fill="none" stroke="midnightblue" d="M690.648,-290.243C777.751,-276.469 901.621,-256.882 976.069,-245.109"/>
<polygon fill="midnightblue" stroke="midnightblue" points="976.907,-248.52 986.237,-243.501 975.813,-241.606 976.907,-248.52"/>
</g>
<!-- Node4 -->
<g id="node4" class="node"><title>Node4</title>
<g id="a_node4"><a xlink:href="_generic_frame_transformer_8h.html" target="_top" xlink:title="GenericFrameTransformer.h">
<polygon fill="none" stroke="black" points="23.5,-168.5 23.5,-187.5 162.5,-187.5 162.5,-168.5 23.5,-168.5"/>
<text text-anchor="middle" x="93" y="-175.5" font-family="Helvetica,sans-Serif" font-size="10.00">GenericFrameTransformer.h</text>
</a>
</g>
</g>
<!-- Node3&#45;&gt;Node4 -->
<g id="edge3" class="edge"><title>Node3&#45;&gt;Node4</title>
<path fill="none" stroke="midnightblue" d="M377.443,-224.444C317.367,-214.846 220.01,-199.292 156.242,-189.104"/>
<polygon fill="midnightblue" stroke="midnightblue" points="156.734,-185.638 146.307,-187.516 155.629,-192.55 156.734,-185.638"/>
</g>
<!-- Node7 -->
<g id="node7" class="node"><title>Node7</title>
<polygon fill="none" stroke="#bfbfbf" points="123,-112.5 123,-131.5 259,-131.5 259,-112.5 123,-112.5"/>
<text text-anchor="middle" x="191" y="-119.5" font-family="Helvetica,sans-Serif" font-size="10.00">iDynTree/Core/Transform.h</text>
</g>
<!-- Node3&#45;&gt;Node7 -->
<g id="edge8" class="edge"><title>Node3&#45;&gt;Node7</title>
<path fill="none" stroke="midnightblue" d="M373.802,-224.478C312.413,-214.845 222.032,-199.067 210,-188 197.174,-176.203 192.831,-156.277 191.447,-141.59"/>
<polygon fill="midnightblue" stroke="midnightblue" points="194.941,-141.385 190.875,-131.601 187.953,-141.785 194.941,-141.385"/>
</g>
<!-- Node8 -->
<g id="node8" class="node"><title>Node8</title>
<polygon fill="none" stroke="#bfbfbf" points="219.5,-168.5 219.5,-187.5 334.5,-187.5 334.5,-168.5 219.5,-168.5"/>
<text text-anchor="middle" x="277" y="-175.5" font-family="Helvetica,sans-Serif" font-size="10.00">yarp/os/BufferedPort.h</text>
</g>
<!-- Node3&#45;&gt;Node8 -->
<g id="edge7" class="edge"><title>Node3&#45;&gt;Node8</title>
<path fill="none" stroke="midnightblue" d="M406.598,-224.444C380.803,-215.399 339.923,-201.064 310.982,-190.916"/>
<polygon fill="midnightblue" stroke="midnightblue" points="311.882,-187.523 301.288,-187.516 309.566,-194.128 311.882,-187.523"/>
</g>
<!-- Node3&#45;&gt;Node9 -->
<g id="edge9" class="edge"><title>Node3&#45;&gt;Node9</title>
<path fill="none" stroke="midnightblue" d="M478.853,-224.444C532.199,-214.905 618.445,-199.483 675.436,-189.293"/>
<polygon fill="midnightblue" stroke="midnightblue" points="676.143,-192.722 685.371,-187.516 674.911,-185.831 676.143,-192.722"/>
</g>
<!-- Node10 -->
<g id="node10" class="node"><title>Node10</title>
<polygon fill="none" stroke="#bfbfbf" points="352,-168.5 352,-187.5 510,-187.5 510,-168.5 352,-168.5"/>
<text text-anchor="middle" x="431" y="-175.5" font-family="Helvetica,sans-Serif" font-size="10.00">iDynTree/Core/VectorDynSize.h</text>
</g>
<!-- Node3&#45;&gt;Node10 -->
<g id="edge10" class="edge"><title>Node3&#45;&gt;Node10</title>
<path fill="none" stroke="midnightblue" d="M431,-224.083C431,-217.006 431,-206.861 431,-197.986"/>
<polygon fill="midnightblue" stroke="midnightblue" points="434.5,-197.751 431,-187.751 427.5,-197.751 434.5,-197.751"/>
</g>
<!-- Node11 -->
<g id="node11" class="node"><title>Node11</title>
<g id="a_node11"><a xlink:href="autogenerated_2include_2thrifts_2_human_state_8h.html" target="_top" xlink:title="thrifts/HumanState.h">
<polygon fill="none" stroke="black" points="527.5,-168.5 527.5,-187.5 634.5,-187.5 634.5,-168.5 527.5,-168.5"/>
<text text-anchor="middle" x="581" y="-175.5" font-family="Helvetica,sans-Serif" font-size="10.00">thrifts/HumanState.h</text>
</a>
</g>
</g>
<!-- Node3&#45;&gt;Node11 -->
<g id="edge11" class="edge"><title>Node3&#45;&gt;Node11</title>
<path fill="none" stroke="midnightblue" d="M454.768,-224.444C479.893,-215.399 519.711,-201.064 547.9,-190.916"/>
<polygon fill="midnightblue" stroke="midnightblue" points="549.12,-194.197 557.343,-187.516 546.749,-187.611 549.12,-194.197"/>
</g>
<!-- Node5 -->
<g id="node5" class="node"><title>Node5</title>
<g id="a_node5"><a xlink:href="_frame_transformer_8h.html" target="_top" xlink:title="FrameTransformer.h">
<polygon fill="none" stroke="black" points="-0.5,-112.5 -0.5,-131.5 104.5,-131.5 104.5,-112.5 -0.5,-112.5"/>
<text text-anchor="middle" x="52" y="-119.5" font-family="Helvetica,sans-Serif" font-size="10.00">FrameTransformer.h</text>
</a>
</g>
</g>
<!-- Node4&#45;&gt;Node5 -->
<g id="edge4" class="edge"><title>Node4&#45;&gt;Node5</title>
<path fill="none" stroke="midnightblue" d="M86.2297,-168.083C80.4384,-160.455 71.9415,-149.264 64.8625,-139.941"/>
<polygon fill="midnightblue" stroke="midnightblue" points="67.479,-137.599 58.6443,-131.751 61.9039,-141.832 67.479,-137.599"/>
</g>
<!-- Node4&#45;&gt;Node7 -->
<g id="edge6" class="edge"><title>Node4&#45;&gt;Node7</title>
<path fill="none" stroke="midnightblue" d="M108.745,-168.324C124.319,-159.743 148.377,-146.486 166.459,-136.522"/>
<polygon fill="midnightblue" stroke="midnightblue" points="168.224,-139.546 175.294,-131.655 164.846,-133.415 168.224,-139.546"/>
</g>
<!-- Node6 -->
<g id="node6" class="node"><title>Node6</title>
<polygon fill="none" stroke="#bfbfbf" points="31.5,-56.5 31.5,-75.5 72.5,-75.5 72.5,-56.5 31.5,-56.5"/>
<text text-anchor="middle" x="52" y="-63.5" font-family="Helvetica,sans-Serif" font-size="10.00">string</text>
</g>
<!-- Node5&#45;&gt;Node6 -->
<g id="edge5" class="edge"><title>Node5&#45;&gt;Node6</title>
<path fill="none" stroke="midnightblue" d="M52,-112.083C52,-105.006 52,-94.8611 52,-85.9865"/>
<polygon fill="midnightblue" stroke="midnightblue" points="55.5001,-85.751 52,-75.7511 48.5001,-85.7511 55.5001,-85.751"/>
</g>
<!-- Node12 -->
<g id="node12" class="node"><title>Node12</title>
<polygon fill="none" stroke="#bfbfbf" points="399,-0.5 399,-19.5 479,-19.5 479,-0.5 399,-0.5"/>
<text text-anchor="middle" x="439" y="-7.5" font-family="Helvetica,sans-Serif" font-size="10.00">yarp/os/Wire.h</text>
</g>
<!-- Node11&#45;&gt;Node12 -->
<g id="edge12" class="edge"><title>Node11&#45;&gt;Node12</title>
<path fill="none" stroke="midnightblue" d="M537.922,-168.427C502.23,-160.367 455.55,-147.277 444,-132 421.468,-102.197 427.808,-55.4663 433.794,-29.6689"/>
<polygon fill="midnightblue" stroke="midnightblue" points="437.253,-30.2691 436.333,-19.7143 430.47,-28.5388 437.253,-30.2691"/>
</g>
<!-- Node13 -->
<g id="node13" class="node"><title>Node13</title>
<polygon fill="none" stroke="#bfbfbf" points="521,-0.5 521,-19.5 641,-19.5 641,-0.5 521,-0.5"/>
<text text-anchor="middle" x="581" y="-7.5" font-family="Helvetica,sans-Serif" font-size="10.00">yarp/os/idl/WireTypes.h</text>
</g>
<!-- Node11&#45;&gt;Node13 -->
<g id="edge13" class="edge"><title>Node11&#45;&gt;Node13</title>
<path fill="none" stroke="midnightblue" d="M581,-168.075C581,-141.945 581,-65.2106 581,-29.577"/>
<polygon fill="midnightblue" stroke="midnightblue" points="584.5,-29.5681 581,-19.5681 577.5,-29.5681 584.5,-29.5681"/>
</g>
<!-- Node14 -->
<g id="node14" class="node"><title>Node14</title>
<g id="a_node14"><a xlink:href="human-state-provider_2autogenerated_2include_2thrifts_2_quaternion_8h.html" target="_top" xlink:title="thrifts/Quaternion.h">
<polygon fill="none" stroke="black" points="453,-112.5 453,-131.5 553,-131.5 553,-112.5 453,-112.5"/>
<text text-anchor="middle" x="503" y="-119.5" font-family="Helvetica,sans-Serif" font-size="10.00">thrifts/Quaternion.h</text>
</a>
</g>
</g>
<!-- Node11&#45;&gt;Node14 -->
<g id="edge14" class="edge"><title>Node11&#45;&gt;Node14</title>
<path fill="none" stroke="midnightblue" d="M568.468,-168.324C556.414,-159.979 537.973,-147.212 523.731,-137.352"/>
<polygon fill="midnightblue" stroke="midnightblue" points="525.715,-134.469 515.501,-131.655 521.731,-140.224 525.715,-134.469"/>
</g>
<!-- Node15 -->
<g id="node15" class="node"><title>Node15</title>
<g id="a_node15"><a xlink:href="human-state-provider_2autogenerated_2include_2thrifts_2_vector3_8h.html" target="_top" xlink:title="thrifts/Vector3.h">
<polygon fill="none" stroke="black" points="467,-56.5 467,-75.5 553,-75.5 553,-56.5 467,-56.5"/>
<text text-anchor="middle" x="510" y="-63.5" font-family="Helvetica,sans-Serif" font-size="10.00">thrifts/Vector3.h</text>
</a>
</g>
</g>
<!-- Node11&#45;&gt;Node15 -->
<g id="edge20" class="edge"><title>Node11&#45;&gt;Node15</title>
<path fill="none" stroke="midnightblue" d="M580.054,-168.359C578.288,-155.262 573.563,-130.004 562,-112 554.339,-100.071 542.596,-89.5262 532.207,-81.6482"/>
<polygon fill="midnightblue" stroke="midnightblue" points="534.08,-78.6839 523.918,-75.6861 529.992,-84.3666 534.08,-78.6839"/>
</g>
<!-- Node16 -->
<g id="node16" class="node"><title>Node16</title>
<polygon fill="none" stroke="#bfbfbf" points="647.5,-112.5 647.5,-131.5 738.5,-131.5 738.5,-112.5 647.5,-112.5"/>
<text text-anchor="middle" x="693" y="-119.5" font-family="Helvetica,sans-Serif" font-size="10.00">yarp/sig/Vector.h</text>
</g>
<!-- Node11&#45;&gt;Node16 -->
<g id="edge21" class="edge"><title>Node11&#45;&gt;Node16</title>
<path fill="none" stroke="midnightblue" d="M598.995,-168.324C617.038,-159.625 645.047,-146.12 665.803,-136.113"/>
<polygon fill="midnightblue" stroke="midnightblue" points="667.562,-139.15 675.05,-131.655 664.522,-132.845 667.562,-139.15"/>
</g>
<!-- Node14&#45;&gt;Node12 -->
<g id="edge15" class="edge"><title>Node14&#45;&gt;Node12</title>
<path fill="none" stroke="midnightblue" d="M491.392,-112.233C481.196,-103.949 466.673,-90.6382 458,-76 449.479,-61.618 444.562,-43.1602 441.874,-29.5908"/>
<polygon fill="midnightblue" stroke="midnightblue" points="445.286,-28.7839 440.111,-19.5391 438.391,-29.9935 445.286,-28.7839"/>
</g>
<!-- Node14&#45;&gt;Node13 -->
<g id="edge16" class="edge"><title>Node14&#45;&gt;Node13</title>
<path fill="none" stroke="midnightblue" d="M519.343,-112.437C532.685,-104.641 551.06,-91.9288 562,-76 571.464,-62.2199 576.276,-43.6954 578.685,-29.9477"/>
<polygon fill="midnightblue" stroke="midnightblue" points="582.195,-30.136 580.192,-19.7323 575.27,-29.1144 582.195,-30.136"/>
</g>
<!-- Node14&#45;&gt;Node15 -->
<g id="edge17" class="edge"><title>Node14&#45;&gt;Node15</title>
<path fill="none" stroke="midnightblue" d="M504.156,-112.083C505.084,-104.927 506.418,-94.6353 507.577,-85.6911"/>
<polygon fill="midnightblue" stroke="midnightblue" points="511.051,-86.1181 508.866,-75.7511 504.109,-85.2181 511.051,-86.1181"/>
</g>
<!-- Node15&#45;&gt;Node12 -->
<g id="edge18" class="edge"><title>Node15&#45;&gt;Node12</title>
<path fill="none" stroke="midnightblue" d="M498.593,-56.324C487.891,-48.1849 471.659,-35.8395 458.837,-26.0874"/>
<polygon fill="midnightblue" stroke="midnightblue" points="460.693,-23.1018 450.615,-19.8339 456.456,-28.6734 460.693,-23.1018"/>
</g>
<!-- Node15&#45;&gt;Node13 -->
<g id="edge19" class="edge"><title>Node15&#45;&gt;Node13</title>
<path fill="none" stroke="midnightblue" d="M521.407,-56.324C532.109,-48.1849 548.341,-35.8395 561.163,-26.0874"/>
<polygon fill="midnightblue" stroke="midnightblue" points="563.544,-28.6734 569.385,-19.8339 559.307,-23.1018 563.544,-28.6734"/>
</g>
</g>
</svg>
