<?xml version="1.0" encoding="UTF-8" standalone="no"?>
<!DOCTYPE svg PUBLIC "-//W3C//DTD SVG 1.1//EN"
 "http://www.w3.org/Graphics/SVG/1.1/DTD/svg11.dtd">
<!-- Generated by graphviz version 2.36.0 (20140111.2315)
 -->
<!-- Title: /home/travis/build/robotology/human&#45;dynamics&#45;estimation/human&#45;viz&#45;bridge/src/RobotBasePosePublisher.cpp Pages: 1 -->
<!--zoomable 286 -->
<svg id="main" version="1.1" xmlns="http://www.w3.org/2000/svg" xmlns:xlink="http://www.w3.org/1999/xlink" xml:space="preserve" onload="init(evt)">
<style type="text/css"><![CDATA[
.edge:hover path { stroke: red; }
.edge:hover polygon { stroke: red; fill: red; }
]]></style>
<script type="text/javascript"><![CDATA[
var edges = document.getElementsByTagName('g');
if (edges && edges.length) {
  for (var i=0;i<edges.length;i++) {
    if (edges[i].id.substr(0,4)=='edge') {
      edges[i].setAttribute('class','edge');
    }
  }
}
]]></script>
        <defs>
                <circle id="rim" cx="0" cy="0" r="7"/>
                <circle id="rim2" cx="0" cy="0" r="3.5"/>
                <g id="zoomPlus">
                        <use xlink:href="#rim" fill="#404040">
                                <set attributeName="fill" to="#808080" begin="zoomplus.mouseover" end="zoomplus.mouseout"/>
                        </use>
                        <path d="M-4,0h8M0,-4v8" fill="none" stroke="white" stroke-width="1.5" pointer-events="none"/>
                </g>
                <g id="zoomMin">
                        <use xlink:href="#rim" fill="#404040">
                                <set attributeName="fill" to="#808080" begin="zoomminus.mouseover" end="zoomminus.mouseout"/>
                        </use>
                        <path d="M-4,0h8" fill="none" stroke="white" stroke-width="1.5" pointer-events="none"/>
                </g>
                <g id="dirArrow">
                        <path fill="none" stroke="white" stroke-width="1.5" d="M0,-3.0v7 M-2.5,-0.5L0,-3.0L2.5,-0.5"/>
                </g>
               <g id="resetDef">
                       <use xlink:href="#rim2" fill="#404040">
                               <set attributeName="fill" to="#808080" begin="reset.mouseover" end="reset.mouseout"/>
                       </use>
               </g>
        </defs>

<script type="text/javascript">
var viewWidth = 4017;
var viewHeight = 286;
var sectionId = 'dynsection-0';
</script>
<script xlink:href="svgpan.js"/>
<svg id="graph" class="graph">
<g id="viewport">
<title>/home/travis/build/robotology/human&#45;dynamics&#45;estimation/human&#45;viz&#45;bridge/src/RobotBasePosePublisher.cpp</title>
<!-- Node1 -->
<g id="node1" class="node"><title>Node1</title>
<polygon fill="#bfbfbf" stroke="black" points="2247.5,-225 2247.5,-277 2414.5,-277 2414.5,-225 2247.5,-225"/>
<text text-anchor="start" x="2255.5" y="-265" font-family="Helvetica,sans-Serif" font-size="10.00">/home/travis/build</text>
<text text-anchor="start" x="2255.5" y="-254" font-family="Helvetica,sans-Serif" font-size="10.00">/robotology/human&#45;dynamics</text>
<text text-anchor="start" x="2255.5" y="-243" font-family="Helvetica,sans-Serif" font-size="10.00">&#45;estimation/human&#45;viz&#45;bridge</text>
<text text-anchor="middle" x="2331" y="-232" font-family="Helvetica,sans-Serif" font-size="10.00">/src/RobotBasePosePublisher.cpp</text>
</g>
<!-- Node2 -->
<g id="node2" class="node"><title>Node2</title>
<polygon fill="none" stroke="#bfbfbf" points="0,-168.5 0,-187.5 44,-187.5 44,-168.5 0,-168.5"/>
<text text-anchor="middle" x="22" y="-175.5" font-family="Helvetica,sans-Serif" font-size="10.00">cmath</text>
</g>
<!-- Node1&#45;&gt;Node2 -->
<g id="edge1" class="edge"><title>Node1&#45;&gt;Node2</title>
<path fill="none" stroke="midnightblue" d="M2247.27,-248.987C1867.68,-244.225 315.88,-222.887 54.3237,-187.654"/>
<polygon fill="midnightblue" stroke="midnightblue" points="54.5971,-184.157 44.1973,-186.18 53.5893,-191.084 54.5971,-184.157"/>
</g>
<!-- Node3 -->
<g id="node3" class="node"><title>Node3</title>
<polygon fill="none" stroke="#bfbfbf" points="62.5,-168.5 62.5,-187.5 209.5,-187.5 209.5,-168.5 62.5,-168.5"/>
<text text-anchor="middle" x="136" y="-175.5" font-family="Helvetica,sans-Serif" font-size="10.00">geometry_msgs_Quaternion.h</text>
</g>
<!-- Node1&#45;&gt;Node3 -->
<g id="edge2" class="edge"><title>Node1&#45;&gt;Node3</title>
<path fill="none" stroke="midnightblue" d="M2247.37,-249.906C1964.14,-249.087 1014.89,-242.245 219.964,-188.001"/>
<polygon fill="midnightblue" stroke="midnightblue" points="219.956,-184.492 209.74,-187.3 219.477,-191.476 219.956,-184.492"/>
</g>
<!-- Node4 -->
<g id="node4" class="node"><title>Node4</title>
<polygon fill="none" stroke="#bfbfbf" points="227.5,-168.5 227.5,-187.5 410.5,-187.5 410.5,-168.5 227.5,-168.5"/>
<text text-anchor="middle" x="319" y="-175.5" font-family="Helvetica,sans-Serif" font-size="10.00">geometry_msgs_TransformStamped.h</text>
</g>
<!-- Node1&#45;&gt;Node4 -->
<g id="edge3" class="edge"><title>Node1&#45;&gt;Node4</title>
<path fill="none" stroke="midnightblue" d="M2247.1,-248.967C1981.3,-245.336 1133.86,-230.996 420.864,-188.012"/>
<polygon fill="midnightblue" stroke="midnightblue" points="420.835,-184.504 410.642,-187.393 420.412,-191.491 420.835,-184.504"/>
</g>
<!-- Node5 -->
<g id="node5" class="node"><title>Node5</title>
<polygon fill="none" stroke="#bfbfbf" points="429,-168.5 429,-187.5 563,-187.5 563,-168.5 429,-168.5"/>
<text text-anchor="middle" x="496" y="-175.5" font-family="Helvetica,sans-Serif" font-size="10.00">geometry_msgs_Vector3.h</text>
</g>
<!-- Node1&#45;&gt;Node5 -->
<g id="edge4" class="edge"><title>Node1&#45;&gt;Node5</title>
<path fill="none" stroke="midnightblue" d="M2247.15,-249.454C1995.39,-247.299 1223.89,-236.936 573.211,-187.935"/>
<polygon fill="midnightblue" stroke="midnightblue" points="573.396,-184.44 563.161,-187.175 572.868,-191.42 573.396,-184.44"/>
</g>
<!-- Node6 -->
<g id="node6" class="node"><title>Node6</title>
<polygon fill="none" stroke="#bfbfbf" points="581.5,-168.5 581.5,-187.5 658.5,-187.5 658.5,-168.5 581.5,-168.5"/>
<text text-anchor="middle" x="620" y="-175.5" font-family="Helvetica,sans-Serif" font-size="10.00">msgs/String.h</text>
</g>
<!-- Node1&#45;&gt;Node6 -->
<g id="edge5" class="edge"><title>Node1&#45;&gt;Node6</title>
<path fill="none" stroke="midnightblue" d="M2247.4,-248.523C1958,-243.154 999.027,-223.185 668.76,-187.868"/>
<polygon fill="midnightblue" stroke="midnightblue" points="669.02,-184.375 658.699,-186.765 668.258,-191.334 669.02,-184.375"/>
</g>
<!-- Node7 -->
<g id="node7" class="node"><title>Node7</title>
<polygon fill="none" stroke="#bfbfbf" points="676.5,-168.5 676.5,-187.5 809.5,-187.5 809.5,-168.5 676.5,-168.5"/>
<text text-anchor="middle" x="743" y="-175.5" font-family="Helvetica,sans-Serif" font-size="10.00">sensor_msgs_JointState.h</text>
</g>
<!-- Node1&#45;&gt;Node7 -->
<g id="edge6" class="edge"><title>Node1&#45;&gt;Node7</title>
<path fill="none" stroke="midnightblue" d="M2247.27,-248.825C2019.67,-245.145 1370.42,-231.423 819.831,-187.996"/>
<polygon fill="midnightblue" stroke="midnightblue" points="819.945,-184.494 809.699,-187.193 819.391,-191.472 819.945,-184.494"/>
</g>
<!-- Node8 -->
<g id="node8" class="node"><title>Node8</title>
<polygon fill="none" stroke="#bfbfbf" points="828,-168.5 828,-187.5 932,-187.5 932,-168.5 828,-168.5"/>
<text text-anchor="middle" x="880" y="-175.5" font-family="Helvetica,sans-Serif" font-size="10.00">std_msgs_Header.h</text>
</g>
<!-- Node1&#45;&gt;Node8 -->
<g id="edge7" class="edge"><title>Node1&#45;&gt;Node8</title>
<path fill="none" stroke="midnightblue" d="M2247.36,-249.237C2032.4,-246.637 1442.97,-235.474 942.522,-188.044"/>
<polygon fill="midnightblue" stroke="midnightblue" points="942.488,-184.524 932.201,-187.059 941.823,-191.493 942.488,-184.524"/>
</g>
<!-- Node9 -->
<g id="node9" class="node"><title>Node9</title>
<polygon fill="none" stroke="#bfbfbf" points="950,-168.5 950,-187.5 1072,-187.5 1072,-168.5 950,-168.5"/>
<text text-anchor="middle" x="1011" y="-175.5" font-family="Helvetica,sans-Serif" font-size="10.00">tf2_msgs_TFMessage.h</text>
</g>
<!-- Node1&#45;&gt;Node9 -->
<g id="edge8" class="edge"><title>Node1&#45;&gt;Node9</title>
<path fill="none" stroke="midnightblue" d="M2247.16,-248.052C2047.43,-242.934 1527.62,-226.793 1082.33,-187.947"/>
<polygon fill="midnightblue" stroke="midnightblue" points="1082.43,-184.442 1072.16,-187.054 1081.81,-191.415 1082.43,-184.442"/>
</g>
<!-- Node10 -->
<g id="node10" class="node"><title>Node10</title>
<g id="a_node10"><a xlink:href="autogenerated_2include_2thrifts_2_human_state_8h.html" target="_top" xlink:title="thrifts/HumanState.h">
<polygon fill="none" stroke="black" points="1090.5,-168.5 1090.5,-187.5 1197.5,-187.5 1197.5,-168.5 1090.5,-168.5"/>
<text text-anchor="middle" x="1144" y="-175.5" font-family="Helvetica,sans-Serif" font-size="10.00">thrifts/HumanState.h</text>
</a>
</g>
</g>
<!-- Node1&#45;&gt;Node10 -->
<g id="edge9" class="edge"><title>Node1&#45;&gt;Node10</title>
<path fill="none" stroke="midnightblue" d="M2247.26,-247.866C2061.89,-242.603 1602.7,-226.595 1207.77,-187.98"/>
<polygon fill="midnightblue" stroke="midnightblue" points="1207.87,-184.473 1197.58,-186.977 1207.19,-191.439 1207.87,-184.473"/>
</g>
<!-- Node16 -->
<g id="node16" class="node"><title>Node16</title>
<polygon fill="none" stroke="#bfbfbf" points="1215.5,-168.5 1215.5,-187.5 1378.5,-187.5 1378.5,-168.5 1215.5,-168.5"/>
<text text-anchor="middle" x="1297" y="-175.5" font-family="Helvetica,sans-Serif" font-size="10.00">iDynTree/ModelIO/ModelLoader.h</text>
</g>
<!-- Node1&#45;&gt;Node16 -->
<g id="edge20" class="edge"><title>Node1&#45;&gt;Node16</title>
<path fill="none" stroke="midnightblue" d="M2247.36,-245.428C2084.4,-236.317 1712.74,-214.544 1388.89,-188.047"/>
<polygon fill="midnightblue" stroke="midnightblue" points="1389.09,-184.552 1378.84,-187.222 1388.52,-191.529 1389.09,-184.552"/>
</g>
<!-- Node17 -->
<g id="node17" class="node"><title>Node17</title>
<polygon fill="none" stroke="#bfbfbf" points="1397,-168.5 1397,-187.5 1533,-187.5 1533,-168.5 1397,-168.5"/>
<text text-anchor="middle" x="1465" y="-175.5" font-family="Helvetica,sans-Serif" font-size="10.00">iDynTree/Core/Transform.h</text>
</g>
<!-- Node1&#45;&gt;Node17 -->
<g id="edge21" class="edge"><title>Node1&#45;&gt;Node17</title>
<path fill="none" stroke="midnightblue" d="M2247.23,-244.414C2103.18,-234.583 1799.27,-212.858 1543,-188 1542.9,-187.99 1542.8,-187.98 1542.69,-187.97"/>
<polygon fill="midnightblue" stroke="midnightblue" points="1543.35,-184.519 1533.05,-186.999 1542.65,-191.483 1543.35,-184.519"/>
</g>
<!-- Node18 -->
<g id="node18" class="node"><title>Node18</title>
<polygon fill="none" stroke="#bfbfbf" points="1551.5,-168.5 1551.5,-187.5 1678.5,-187.5 1678.5,-168.5 1551.5,-168.5"/>
<text text-anchor="middle" x="1615" y="-175.5" font-family="Helvetica,sans-Serif" font-size="10.00">iDynTree/Core/Position.h</text>
</g>
<!-- Node1&#45;&gt;Node18 -->
<g id="edge22" class="edge"><title>Node1&#45;&gt;Node18</title>
<path fill="none" stroke="midnightblue" d="M2247.44,-242.656C2126.68,-231.884 1896.11,-210.721 1688.85,-188.067"/>
<polygon fill="midnightblue" stroke="midnightblue" points="1689.01,-184.564 1678.69,-186.953 1688.25,-191.522 1689.01,-184.564"/>
</g>
<!-- Node19 -->
<g id="node19" class="node"><title>Node19</title>
<polygon fill="none" stroke="#bfbfbf" points="1697,-168.5 1697,-187.5 1825,-187.5 1825,-168.5 1697,-168.5"/>
<text text-anchor="middle" x="1761" y="-175.5" font-family="Helvetica,sans-Serif" font-size="10.00">iDynTree/Core/Rotation.h</text>
</g>
<!-- Node1&#45;&gt;Node19 -->
<g id="edge23" class="edge"><title>Node1&#45;&gt;Node19</title>
<path fill="none" stroke="midnightblue" d="M2247.2,-239.562C2135.98,-225.708 1941.33,-201.462 1835.18,-188.24"/>
<polygon fill="midnightblue" stroke="midnightblue" points="1835.55,-184.759 1825.19,-186.996 1834.68,-191.705 1835.55,-184.759"/>
</g>
<!-- Node20 -->
<g id="node20" class="node"><title>Node20</title>
<polygon fill="none" stroke="#bfbfbf" points="1843,-168.5 1843,-187.5 1993,-187.5 1993,-168.5 1843,-168.5"/>
<text text-anchor="middle" x="1918" y="-175.5" font-family="Helvetica,sans-Serif" font-size="10.00">iDynTree/Core/EigenHelpers.h</text>
</g>
<!-- Node1&#45;&gt;Node20 -->
<g id="edge24" class="edge"><title>Node1&#45;&gt;Node20</title>
<path fill="none" stroke="midnightblue" d="M2247.42,-235.632C2167.33,-221.864 2048.46,-201.428 1977.55,-189.238"/>
<polygon fill="midnightblue" stroke="midnightblue" points="1977.9,-185.746 1967.45,-187.501 1976.71,-192.645 1977.9,-185.746"/>
</g>
<!-- Node21 -->
<g id="node21" class="node"><title>Node21</title>
<polygon fill="none" stroke="#bfbfbf" points="2011.5,-168.5 2011.5,-187.5 2172.5,-187.5 2172.5,-168.5 2011.5,-168.5"/>
<text text-anchor="middle" x="2092" y="-175.5" font-family="Helvetica,sans-Serif" font-size="10.00">iDynTree/KinDynComputations.h</text>
</g>
<!-- Node1&#45;&gt;Node21 -->
<g id="edge25" class="edge"><title>Node1&#45;&gt;Node21</title>
<path fill="none" stroke="midnightblue" d="M2247.41,-225.168C2207.57,-213.332 2161.86,-199.753 2130.38,-190.4"/>
<polygon fill="midnightblue" stroke="midnightblue" points="2131.26,-187.013 2120.68,-187.52 2129.27,-193.723 2131.26,-187.013"/>
</g>
<!-- Node22 -->
<g id="node22" class="node"><title>Node22</title>
<polygon fill="none" stroke="#bfbfbf" points="2190.5,-168.5 2190.5,-187.5 2255.5,-187.5 2255.5,-168.5 2190.5,-168.5"/>
<text text-anchor="middle" x="2223" y="-175.5" font-family="Helvetica,sans-Serif" font-size="10.00">TickTime.h</text>
</g>
<!-- Node1&#45;&gt;Node22 -->
<g id="edge26" class="edge"><title>Node1&#45;&gt;Node22</title>
<path fill="none" stroke="midnightblue" d="M2292.92,-224.968C2276.68,-214.291 2258.33,-202.227 2244.51,-193.138"/>
<polygon fill="midnightblue" stroke="midnightblue" points="2246.42,-190.208 2236.14,-187.639 2242.57,-196.057 2246.42,-190.208"/>
</g>
<!-- Node23 -->
<g id="node23" class="node"><title>Node23</title>
<polygon fill="none" stroke="#bfbfbf" points="2273.5,-168.5 2273.5,-187.5 2388.5,-187.5 2388.5,-168.5 2273.5,-168.5"/>
<text text-anchor="middle" x="2331" y="-175.5" font-family="Helvetica,sans-Serif" font-size="10.00">yarp/os/BufferedPort.h</text>
</g>
<!-- Node1&#45;&gt;Node23 -->
<g id="edge27" class="edge"><title>Node1&#45;&gt;Node23</title>
<path fill="none" stroke="midnightblue" d="M2331,-224.768C2331,-215.89 2331,-206.074 2331,-197.816"/>
<polygon fill="midnightblue" stroke="midnightblue" points="2334.5,-197.757 2331,-187.757 2327.5,-197.757 2334.5,-197.757"/>
</g>
<!-- Node24 -->
<g id="node24" class="node"><title>Node24</title>
<polygon fill="none" stroke="#bfbfbf" points="2406.5,-168.5 2406.5,-187.5 2513.5,-187.5 2513.5,-168.5 2406.5,-168.5"/>
<text text-anchor="middle" x="2460" y="-175.5" font-family="Helvetica,sans-Serif" font-size="10.00">yarp/os/LogStream.h</text>
</g>
<!-- Node1&#45;&gt;Node24 -->
<g id="edge28" class="edge"><title>Node1&#45;&gt;Node24</title>
<path fill="none" stroke="midnightblue" d="M2376.48,-224.968C2396.25,-214.088 2418.63,-201.767 2435.25,-192.622"/>
<polygon fill="midnightblue" stroke="midnightblue" points="2437.23,-195.527 2444.3,-187.639 2433.86,-189.394 2437.23,-195.527"/>
</g>
<!-- Node25 -->
<g id="node25" class="node"><title>Node25</title>
<polygon fill="none" stroke="#bfbfbf" points="2531.5,-168.5 2531.5,-187.5 2628.5,-187.5 2628.5,-168.5 2531.5,-168.5"/>
<text text-anchor="middle" x="2580" y="-175.5" font-family="Helvetica,sans-Serif" font-size="10.00">yarp/os/Network.h</text>
</g>
<!-- Node1&#45;&gt;Node25 -->
<g id="edge29" class="edge"><title>Node1&#45;&gt;Node25</title>
<path fill="none" stroke="midnightblue" d="M2414.61,-226.161C2456.99,-214.076 2506.48,-199.964 2540.2,-190.348"/>
<polygon fill="midnightblue" stroke="midnightblue" points="2541.48,-193.623 2550.14,-187.515 2539.56,-186.891 2541.48,-193.623"/>
</g>
<!-- Node26 -->
<g id="node26" class="node"><title>Node26</title>
<polygon fill="none" stroke="#bfbfbf" points="2646.5,-168.5 2646.5,-187.5 2729.5,-187.5 2729.5,-168.5 2646.5,-168.5"/>
<text text-anchor="middle" x="2688" y="-175.5" font-family="Helvetica,sans-Serif" font-size="10.00">yarp/os/Node.h</text>
</g>
<!-- Node1&#45;&gt;Node26 -->
<g id="edge30" class="edge"><title>Node1&#45;&gt;Node26</title>
<path fill="none" stroke="midnightblue" d="M2414.7,-233.354C2483.33,-219.705 2578.3,-200.817 2636.31,-189.28"/>
<polygon fill="midnightblue" stroke="midnightblue" points="2637.22,-192.667 2646.35,-187.284 2635.86,-185.802 2637.22,-192.667"/>
</g>
<!-- Node27 -->
<g id="node27" class="node"><title>Node27</title>
<polygon fill="none" stroke="#bfbfbf" points="2747.5,-168.5 2747.5,-187.5 2844.5,-187.5 2844.5,-168.5 2747.5,-168.5"/>
<text text-anchor="middle" x="2796" y="-175.5" font-family="Helvetica,sans-Serif" font-size="10.00">yarp/os/Property.h</text>
</g>
<!-- Node1&#45;&gt;Node27 -->
<g id="edge31" class="edge"><title>Node1&#45;&gt;Node27</title>
<path fill="none" stroke="midnightblue" d="M2414.81,-237.303C2494.85,-225.16 2619.18,-206.257 2737.32,-188.101"/>
<polygon fill="midnightblue" stroke="midnightblue" points="2737.92,-191.551 2747.27,-186.572 2736.85,-184.632 2737.92,-191.551"/>
</g>
<!-- Node28 -->
<g id="node28" class="node"><title>Node28</title>
<polygon fill="none" stroke="#bfbfbf" points="2862.5,-168.5 2862.5,-187.5 2963.5,-187.5 2963.5,-168.5 2862.5,-168.5"/>
<text text-anchor="middle" x="2913" y="-175.5" font-family="Helvetica,sans-Serif" font-size="10.00">yarp/os/Publisher.h</text>
</g>
<!-- Node1&#45;&gt;Node28 -->
<g id="edge32" class="edge"><title>Node1&#45;&gt;Node28</title>
<path fill="none" stroke="midnightblue" d="M2414.73,-240.856C2515.8,-229.637 2691.18,-209.593 2852.18,-188.074"/>
<polygon fill="midnightblue" stroke="midnightblue" points="2852.83,-191.518 2862.28,-186.72 2851.9,-184.581 2852.83,-191.518"/>
</g>
<!-- Node29 -->
<g id="node29" class="node"><title>Node29</title>
<polygon fill="none" stroke="#bfbfbf" points="2981.5,-168.5 2981.5,-187.5 3086.5,-187.5 3086.5,-168.5 2981.5,-168.5"/>
<text text-anchor="middle" x="3034" y="-175.5" font-family="Helvetica,sans-Serif" font-size="10.00">yarp/os/RFModule.h</text>
</g>
<!-- Node1&#45;&gt;Node29 -->
<g id="edge33" class="edge"><title>Node1&#45;&gt;Node29</title>
<path fill="none" stroke="midnightblue" d="M2414.62,-243.194C2535.15,-233.098 2764.93,-212.784 2971.15,-188.05"/>
<polygon fill="midnightblue" stroke="midnightblue" points="2971.75,-191.502 2981.26,-186.831 2970.91,-184.553 2971.75,-191.502"/>
</g>
<!-- Node30 -->
<g id="node30" class="node"><title>Node30</title>
<polygon fill="none" stroke="#bfbfbf" points="3105,-168.5 3105,-187.5 3187,-187.5 3187,-168.5 3105,-168.5"/>
<text text-anchor="middle" x="3146" y="-175.5" font-family="Helvetica,sans-Serif" font-size="10.00">yarp/os/Time.h</text>
</g>
<!-- Node1&#45;&gt;Node30 -->
<g id="edge34" class="edge"><title>Node1&#45;&gt;Node30</title>
<path fill="none" stroke="midnightblue" d="M2414.64,-245.783C2553.61,-238.21 2840.97,-220.143 3094.7,-187.902"/>
<polygon fill="midnightblue" stroke="midnightblue" points="3095.38,-191.344 3104.85,-186.602 3094.49,-184.4 3095.38,-191.344"/>
</g>
<!-- Node31 -->
<g id="node31" class="node"><title>Node31</title>
<polygon fill="none" stroke="#bfbfbf" points="3205.5,-168.5 3205.5,-187.5 3292.5,-187.5 3292.5,-168.5 3205.5,-168.5"/>
<text text-anchor="middle" x="3249" y="-175.5" font-family="Helvetica,sans-Serif" font-size="10.00">yarp/os/Mutex.h</text>
</g>
<!-- Node1&#45;&gt;Node31 -->
<g id="edge35" class="edge"><title>Node1&#45;&gt;Node31</title>
<path fill="none" stroke="midnightblue" d="M2414.76,-246.69C2567.77,-240.052 2902.86,-222.785 3195.42,-187.945"/>
<polygon fill="midnightblue" stroke="midnightblue" points="3195.86,-191.418 3205.38,-186.751 3195.03,-184.468 3195.86,-191.418"/>
</g>
<!-- Node32 -->
<g id="node32" class="node"><title>Node32</title>
<polygon fill="none" stroke="#bfbfbf" points="3310.5,-168.5 3310.5,-187.5 3417.5,-187.5 3417.5,-168.5 3310.5,-168.5"/>
<text text-anchor="middle" x="3364" y="-175.5" font-family="Helvetica,sans-Serif" font-size="10.00">yarp/os/LockGuard.h</text>
</g>
<!-- Node1&#45;&gt;Node32 -->
<g id="edge36" class="edge"><title>Node1&#45;&gt;Node32</title>
<path fill="none" stroke="midnightblue" d="M2414.55,-246.859C2580.98,-240.122 2965.89,-222.14 3300.05,-188.011"/>
<polygon fill="midnightblue" stroke="midnightblue" points="3300.83,-191.449 3310.42,-186.945 3300.11,-184.486 3300.83,-191.449"/>
</g>
<!-- Node33 -->
<g id="node33" class="node"><title>Node33</title>
<polygon fill="none" stroke="#bfbfbf" points="3435.5,-168.5 3435.5,-187.5 3546.5,-187.5 3546.5,-168.5 3435.5,-168.5"/>
<text text-anchor="middle" x="3491" y="-175.5" font-family="Helvetica,sans-Serif" font-size="10.00">yarp/dev/PolyDriver.h</text>
</g>
<!-- Node1&#45;&gt;Node33 -->
<g id="edge37" class="edge"><title>Node1&#45;&gt;Node33</title>
<path fill="none" stroke="midnightblue" d="M2414.63,-247.577C2596.48,-241.805 3041.67,-224.955 3425.18,-187.993"/>
<polygon fill="midnightblue" stroke="midnightblue" points="3425.75,-191.454 3435.37,-187.005 3425.07,-184.487 3425.75,-191.454"/>
</g>
<!-- Node34 -->
<g id="node34" class="node"><title>Node34</title>
<polygon fill="none" stroke="#bfbfbf" points="3565,-168.5 3565,-187.5 3675,-187.5 3675,-168.5 3565,-168.5"/>
<text text-anchor="middle" x="3620" y="-175.5" font-family="Helvetica,sans-Serif" font-size="10.00">yarp/dev/IEncoders.h</text>
</g>
<!-- Node1&#45;&gt;Node34 -->
<g id="edge38" class="edge"><title>Node1&#45;&gt;Node34</title>
<path fill="none" stroke="midnightblue" d="M2414.66,-248.27C2611.48,-243.657 3119.35,-228.597 3554.46,-187.952"/>
<polygon fill="midnightblue" stroke="midnightblue" points="3555.09,-191.408 3564.72,-186.987 3554.44,-184.439 3555.09,-191.408"/>
</g>
<!-- Node35 -->
<g id="node35" class="node"><title>Node35</title>
<polygon fill="none" stroke="#bfbfbf" points="3693,-168.5 3693,-187.5 3749,-187.5 3749,-168.5 3693,-168.5"/>
<text text-anchor="middle" x="3721" y="-175.5" font-family="Helvetica,sans-Serif" font-size="10.00">algorithm</text>
</g>
<!-- Node1&#45;&gt;Node35 -->
<g id="edge39" class="edge"><title>Node1&#45;&gt;Node35</title>
<path fill="none" stroke="midnightblue" d="M2414.85,-248.275C2667.16,-242.756 3417.73,-223.834 3682.84,-187.843"/>
<polygon fill="midnightblue" stroke="midnightblue" points="3683.41,-191.298 3692.83,-186.446 3682.44,-184.365 3683.41,-191.298"/>
</g>
<!-- Node36 -->
<g id="node36" class="node"><title>Node36</title>
<polygon fill="none" stroke="#bfbfbf" points="3767,-168.5 3767,-187.5 3821,-187.5 3821,-168.5 3767,-168.5"/>
<text text-anchor="middle" x="3794" y="-175.5" font-family="Helvetica,sans-Serif" font-size="10.00">iostream</text>
</g>
<!-- Node1&#45;&gt;Node36 -->
<g id="edge40" class="edge"><title>Node1&#45;&gt;Node36</title>
<path fill="none" stroke="midnightblue" d="M2414.67,-248.507C2675.94,-243.509 3475.41,-225.606 3756.46,-187.701"/>
<polygon fill="midnightblue" stroke="midnightblue" points="3757.21,-191.129 3766.64,-186.286 3756.25,-184.196 3757.21,-191.129"/>
</g>
<!-- Node37 -->
<g id="node37" class="node"><title>Node37</title>
<polygon fill="none" stroke="#bfbfbf" points="3839,-168.5 3839,-187.5 3887,-187.5 3887,-168.5 3839,-168.5"/>
<text text-anchor="middle" x="3863" y="-175.5" font-family="Helvetica,sans-Serif" font-size="10.00">limits.h</text>
</g>
<!-- Node1&#45;&gt;Node37 -->
<g id="edge41" class="edge"><title>Node1&#45;&gt;Node37</title>
<path fill="none" stroke="midnightblue" d="M2414.64,-249.014C2684.91,-245.444 3533.74,-231.134 3828.73,-187.775"/>
<polygon fill="midnightblue" stroke="midnightblue" points="3829.62,-191.18 3838.98,-186.221 3828.57,-184.259 3829.62,-191.18"/>
</g>
<!-- Node38 -->
<g id="node38" class="node"><title>Node38</title>
<polygon fill="none" stroke="#bfbfbf" points="3905.5,-168.5 3905.5,-187.5 3946.5,-187.5 3946.5,-168.5 3905.5,-168.5"/>
<text text-anchor="middle" x="3926" y="-175.5" font-family="Helvetica,sans-Serif" font-size="10.00">string</text>
</g>
<!-- Node1&#45;&gt;Node38 -->
<g id="edge42" class="edge"><title>Node1&#45;&gt;Node38</title>
<path fill="none" stroke="midnightblue" d="M2414.91,-249.457C2693.46,-247.222 3586.81,-236.493 3894.91,-187.657"/>
<polygon fill="midnightblue" stroke="midnightblue" points="3895.87,-191.045 3905.18,-185.978 3894.74,-184.137 3895.87,-191.045"/>
</g>
<!-- Node39 -->
<g id="node39" class="node"><title>Node39</title>
<polygon fill="none" stroke="#bfbfbf" points="3965,-168.5 3965,-187.5 4009,-187.5 4009,-168.5 3965,-168.5"/>
<text text-anchor="middle" x="3987" y="-175.5" font-family="Helvetica,sans-Serif" font-size="10.00">vector</text>
</g>
<!-- Node1&#45;&gt;Node39 -->
<g id="edge43" class="edge"><title>Node1&#45;&gt;Node39</title>
<path fill="none" stroke="midnightblue" d="M2414.51,-249.412C2699.49,-247.002 3633.28,-235.695 3954.52,-187.557"/>
<polygon fill="midnightblue" stroke="midnightblue" points="3955.42,-190.96 3964.77,-185.976 3954.35,-184.042 3955.42,-190.96"/>
</g>
<!-- Node11 -->
<g id="node11" class="node"><title>Node11</title>
<polygon fill="none" stroke="#bfbfbf" points="981,-0.5 981,-19.5 1061,-19.5 1061,-0.5 981,-0.5"/>
<text text-anchor="middle" x="1021" y="-7.5" font-family="Helvetica,sans-Serif" font-size="10.00">yarp/os/Wire.h</text>
</g>
<!-- Node10&#45;&gt;Node11 -->
<g id="edge10" class="edge"><title>Node10&#45;&gt;Node11</title>
<path fill="none" stroke="midnightblue" d="M1100.42,-168.463C1064.67,-160.471 1018.2,-147.461 1007,-132 984.763,-101.29 1000.54,-54.2429 1011.99,-28.8074"/>
<polygon fill="midnightblue" stroke="midnightblue" points="1015.23,-30.1571 1016.37,-19.6241 1008.91,-27.1458 1015.23,-30.1571"/>
</g>
<!-- Node12 -->
<g id="node12" class="node"><title>Node12</title>
<polygon fill="none" stroke="#bfbfbf" points="1079,-0.5 1079,-19.5 1199,-19.5 1199,-0.5 1079,-0.5"/>
<text text-anchor="middle" x="1139" y="-7.5" font-family="Helvetica,sans-Serif" font-size="10.00">yarp/os/idl/WireTypes.h</text>
</g>
<!-- Node10&#45;&gt;Node12 -->
<g id="edge11" class="edge"><title>Node10&#45;&gt;Node12</title>
<path fill="none" stroke="midnightblue" d="M1151.57,-168.338C1168.15,-148.261 1204.81,-97.118 1187,-56 1181.73,-43.8399 1171.38,-33.4594 1161.64,-25.7429"/>
<polygon fill="midnightblue" stroke="midnightblue" points="1163.5,-22.7707 1153.37,-19.6698 1159.36,-28.4116 1163.5,-22.7707"/>
</g>
<!-- Node13 -->
<g id="node13" class="node"><title>Node13</title>
<g id="a_node13"><a xlink:href="human-state-provider_2autogenerated_2include_2thrifts_2_quaternion_8h.html" target="_top" xlink:title="thrifts/Quaternion.h">
<polygon fill="none" stroke="black" points="1016,-112.5 1016,-131.5 1116,-131.5 1116,-112.5 1016,-112.5"/>
<text text-anchor="middle" x="1066" y="-119.5" font-family="Helvetica,sans-Serif" font-size="10.00">thrifts/Quaternion.h</text>
</a>
</g>
</g>
<!-- Node10&#45;&gt;Node13 -->
<g id="edge12" class="edge"><title>Node10&#45;&gt;Node13</title>
<path fill="none" stroke="midnightblue" d="M1131.47,-168.324C1119.41,-159.979 1100.97,-147.212 1086.73,-137.352"/>
<polygon fill="midnightblue" stroke="midnightblue" points="1088.72,-134.469 1078.5,-131.655 1084.73,-140.224 1088.72,-134.469"/>
</g>
<!-- Node14 -->
<g id="node14" class="node"><title>Node14</title>
<g id="a_node14"><a xlink:href="human-state-provider_2autogenerated_2include_2thrifts_2_vector3_8h.html" target="_top" xlink:title="thrifts/Vector3.h">
<polygon fill="none" stroke="black" points="1092,-56.5 1092,-75.5 1178,-75.5 1178,-56.5 1092,-56.5"/>
<text text-anchor="middle" x="1135" y="-63.5" font-family="Helvetica,sans-Serif" font-size="10.00">thrifts/Vector3.h</text>
</a>
</g>
</g>
<!-- Node10&#45;&gt;Node14 -->
<g id="edge18" class="edge"><title>Node10&#45;&gt;Node14</title>
<path fill="none" stroke="midnightblue" d="M1143.29,-168.368C1141.84,-150.617 1138.49,-109.666 1136.52,-85.5974"/>
<polygon fill="midnightblue" stroke="midnightblue" points="1140.01,-85.2727 1135.7,-75.5914 1133.03,-85.8436 1140.01,-85.2727"/>
</g>
<!-- Node15 -->
<g id="node15" class="node"><title>Node15</title>
<polygon fill="none" stroke="#bfbfbf" points="1234.5,-112.5 1234.5,-131.5 1325.5,-131.5 1325.5,-112.5 1234.5,-112.5"/>
<text text-anchor="middle" x="1280" y="-119.5" font-family="Helvetica,sans-Serif" font-size="10.00">yarp/sig/Vector.h</text>
</g>
<!-- Node10&#45;&gt;Node15 -->
<g id="edge19" class="edge"><title>Node10&#45;&gt;Node15</title>
<path fill="none" stroke="midnightblue" d="M1165.55,-168.444C1188.03,-159.517 1223.49,-145.439 1248.98,-135.317"/>
<polygon fill="midnightblue" stroke="midnightblue" points="1250.55,-138.46 1258.55,-131.516 1247.97,-131.954 1250.55,-138.46"/>
</g>
<!-- Node13&#45;&gt;Node11 -->
<g id="edge13" class="edge"><title>Node13&#45;&gt;Node11</title>
<path fill="none" stroke="midnightblue" d="M1062.47,-112.368C1055.14,-94.4563 1038.15,-52.9233 1028.34,-28.9482"/>
<polygon fill="midnightblue" stroke="midnightblue" points="1031.54,-27.5217 1024.51,-19.5914 1025.06,-30.1721 1031.54,-27.5217"/>
</g>
<!-- Node13&#45;&gt;Node12 -->
<g id="edge14" class="edge"><title>Node13&#45;&gt;Node12</title>
<path fill="none" stroke="midnightblue" d="M1066.55,-112.312C1067.73,-99.1535 1071.46,-73.817 1083,-56 1091.08,-43.5279 1103.77,-32.9176 1115.03,-25.1377"/>
<polygon fill="midnightblue" stroke="midnightblue" points="1117.17,-27.9187 1123.63,-19.5237 1113.35,-22.0557 1117.17,-27.9187"/>
</g>
<!-- Node13&#45;&gt;Node14 -->
<g id="edge15" class="edge"><title>Node13&#45;&gt;Node14</title>
<path fill="none" stroke="midnightblue" d="M1077.09,-112.324C1087.49,-104.185 1103.26,-91.8395 1115.72,-82.0874"/>
<polygon fill="midnightblue" stroke="midnightblue" points="1117.99,-84.7533 1123.71,-75.8339 1113.68,-79.2407 1117.99,-84.7533"/>
</g>
<!-- Node14&#45;&gt;Node11 -->
<g id="edge16" class="edge"><title>Node14&#45;&gt;Node11</title>
<path fill="none" stroke="midnightblue" d="M1116.94,-56.4435C1098.43,-47.6751 1069.42,-33.9355 1048.14,-23.8579"/>
<polygon fill="midnightblue" stroke="midnightblue" points="1049.51,-20.6343 1038.98,-19.5164 1046.52,-26.9604 1049.51,-20.6343"/>
</g>
<!-- Node14&#45;&gt;Node12 -->
<g id="edge17" class="edge"><title>Node14&#45;&gt;Node12</title>
<path fill="none" stroke="midnightblue" d="M1135.66,-56.083C1136.18,-49.0059 1136.94,-38.8611 1137.59,-29.9865"/>
<polygon fill="midnightblue" stroke="midnightblue" points="1141.1,-29.9823 1138.35,-19.7511 1134.12,-29.4652 1141.1,-29.9823"/>
</g>
</g>
</svg>
        <g id="navigator" transform="translate(0 0)" fill="#404254">
                <rect fill="#f2f5e9" fill-opacity="0.5" stroke="#606060" stroke-width=".5" x="0" y="0" width="60" height="60"/>
                <use id="zoomplus" xlink:href="#zoomPlus" x="17" y="9" onmousedown="handleZoom(evt,'in')"/>
                <use id="zoomminus" xlink:href="#zoomMin" x="42" y="9" onmousedown="handleZoom(evt,'out')"/>
                <use id="reset" xlink:href="#resetDef" x="30" y="36" onmousedown="handleReset()"/>
                <g id="arrowUp" xlink:href="#dirArrow" transform="translate(30 24)" onmousedown="handlePan(0,-1)">
                  <use xlink:href="#rim" fill="#404040">
                        <set attributeName="fill" to="#808080" begin="arrowUp.mouseover" end="arrowUp.mouseout"/>
                  </use>
                  <path fill="none" stroke="white" stroke-width="1.5" d="M0,-3.0v7 M-2.5,-0.5L0,-3.0L2.5,-0.5"/>
                </g>
                <g id="arrowRight" xlink:href="#dirArrow" transform="rotate(90) translate(36 -43)" onmousedown="handlePan(1,0)">
                  <use xlink:href="#rim" fill="#404040">
                        <set attributeName="fill" to="#808080" begin="arrowRight.mouseover" end="arrowRight.mouseout"/>
                  </use>
                  <path fill="none" stroke="white" stroke-width="1.5" d="M0,-3.0v7 M-2.5,-0.5L0,-3.0L2.5,-0.5"/>
                </g>
                <g id="arrowDown" xlink:href="#dirArrow" transform="rotate(180) translate(-30 -48)" onmousedown="handlePan(0,1)">
                  <use xlink:href="#rim" fill="#404040">
                        <set attributeName="fill" to="#808080" begin="arrowDown.mouseover" end="arrowDown.mouseout"/>
                  </use>
                  <path fill="none" stroke="white" stroke-width="1.5" d="M0,-3.0v7 M-2.5,-0.5L0,-3.0L2.5,-0.5"/>
                </g>
                <g id="arrowLeft" xlink:href="#dirArrow" transform="rotate(270) translate(-36 17)" onmousedown="handlePan(-1,0)">
                  <use xlink:href="#rim" fill="#404040">
                        <set attributeName="fill" to="#808080" begin="arrowLeft.mouseover" end="arrowLeft.mouseout"/>
                  </use>
                  <path fill="none" stroke="white" stroke-width="1.5" d="M0,-3.0v7 M-2.5,-0.5L0,-3.0L2.5,-0.5"/>
                </g>
        </g>
        <svg viewBox="0 0 15 15" width="100%" height="30px" preserveAspectRatio="xMaxYMin meet">
         <g id="arrow_out" transform="scale(0.3 0.3)">
          <a xlink:href="_robot_base_pose_publisher_8cpp__incl_org.svg" target="_base">
           <rect id="button" ry="5" rx="5" y="6" x="6" height="38" width="38"
                fill="#f2f5e9" fill-opacity="0.5" stroke="#606060" stroke-width="1.0"/>
           <path id="arrow"
             d="M 11.500037,31.436501 C 11.940474,20.09759 22.043105,11.32322 32.158766,21.979434 L 37.068811,17.246167 C 37.068811,17.246167 37.088388,32 37.088388,32 L 22.160133,31.978069 C 22.160133,31.978069 26.997745,27.140456 26.997745,27.140456 C 18.528582,18.264221 13.291696,25.230495 11.500037,31.436501 z"
             style="fill:#404040;"/>
          </a>
         </g>
        </svg>
</svg>
