<?xml version="1.0" encoding="UTF-8" standalone="no"?>
<!DOCTYPE svg PUBLIC "-//W3C//DTD SVG 1.1//EN"
 "http://www.w3.org/Graphics/SVG/1.1/DTD/svg11.dtd">
<!-- Generated by graphviz version 2.36.0 (20140111.2315)
 -->
<!-- Title: /home/travis/build/robotology/human&#45;dynamics&#45;estimation/human&#45;viz&#45;bridge/src/RobotBasePosePublisher.cpp Pages: 1 -->
<!--zoomable 118 -->
<svg id="main" version="1.1" xmlns="http://www.w3.org/2000/svg" xmlns:xlink="http://www.w3.org/1999/xlink" xml:space="preserve" onload="init(evt)">
<style type="text/css"><![CDATA[
.edge:hover path { stroke: red; }
.edge:hover polygon { stroke: red; fill: red; }
]]></style>
<script type="text/javascript"><![CDATA[
var edges = document.getElementsByTagName('g');
if (edges && edges.length) {
  for (var i=0;i<edges.length;i++) {
    if (edges[i].id.substr(0,4)=='edge') {
      edges[i].setAttribute('class','edge');
    }
  }
}
]]></script>
        <defs>
                <circle id="rim" cx="0" cy="0" r="7"/>
                <circle id="rim2" cx="0" cy="0" r="3.5"/>
                <g id="zoomPlus">
                        <use xlink:href="#rim" fill="#404040">
                                <set attributeName="fill" to="#808080" begin="zoomplus.mouseover" end="zoomplus.mouseout"/>
                        </use>
                        <path d="M-4,0h8M0,-4v8" fill="none" stroke="white" stroke-width="1.5" pointer-events="none"/>
                </g>
                <g id="zoomMin">
                        <use xlink:href="#rim" fill="#404040">
                                <set attributeName="fill" to="#808080" begin="zoomminus.mouseover" end="zoomminus.mouseout"/>
                        </use>
                        <path d="M-4,0h8" fill="none" stroke="white" stroke-width="1.5" pointer-events="none"/>
                </g>
                <g id="dirArrow">
                        <path fill="none" stroke="white" stroke-width="1.5" d="M0,-3.0v7 M-2.5,-0.5L0,-3.0L2.5,-0.5"/>
                </g>
               <g id="resetDef">
                       <use xlink:href="#rim2" fill="#404040">
                               <set attributeName="fill" to="#808080" begin="reset.mouseover" end="reset.mouseout"/>
                       </use>
               </g>
        </defs>

<script type="text/javascript">
var viewWidth = 4017;
var viewHeight = 118;
var sectionId = 'dynsection-0';
</script>
<script xlink:href="svgpan.js"/>
<svg id="graph" class="graph">
<g id="viewport">
<title>/home/travis/build/robotology/human&#45;dynamics&#45;estimation/human&#45;viz&#45;bridge/src/RobotBasePosePublisher.cpp</title>
<!-- Node1 -->
<g id="node1" class="node"><title>Node1</title>
<polygon fill="#bfbfbf" stroke="black" points="2247.5,-57 2247.5,-109 2414.5,-109 2414.5,-57 2247.5,-57"/>
<text text-anchor="start" x="2255.5" y="-97" font-family="Helvetica,sans-Serif" font-size="10.00">/home/travis/build</text>
<text text-anchor="start" x="2255.5" y="-86" font-family="Helvetica,sans-Serif" font-size="10.00">/robotology/human&#45;dynamics</text>
<text text-anchor="start" x="2255.5" y="-75" font-family="Helvetica,sans-Serif" font-size="10.00">&#45;estimation/human&#45;viz&#45;bridge</text>
<text text-anchor="middle" x="2331" y="-64" font-family="Helvetica,sans-Serif" font-size="10.00">/src/RobotBasePosePublisher.cpp</text>
</g>
<!-- Node2 -->
<g id="node2" class="node"><title>Node2</title>
<polygon fill="none" stroke="#bfbfbf" points="0,-0.5 0,-19.5 44,-19.5 44,-0.5 0,-0.5"/>
<text text-anchor="middle" x="22" y="-7.5" font-family="Helvetica,sans-Serif" font-size="10.00">cmath</text>
</g>
<!-- Node1&#45;&gt;Node2 -->
<g id="edge1" class="edge"><title>Node1&#45;&gt;Node2</title>
<path fill="none" stroke="midnightblue" d="M2247.27,-80.9869C1867.68,-76.2253 315.88,-54.887 54.3237,-19.6536"/>
<polygon fill="midnightblue" stroke="midnightblue" points="54.5971,-16.1566 44.1973,-18.1804 53.5893,-23.0837 54.5971,-16.1566"/>
</g>
<!-- Node3 -->
<g id="node3" class="node"><title>Node3</title>
<polygon fill="none" stroke="#bfbfbf" points="62.5,-0.5 62.5,-19.5 209.5,-19.5 209.5,-0.5 62.5,-0.5"/>
<text text-anchor="middle" x="136" y="-7.5" font-family="Helvetica,sans-Serif" font-size="10.00">geometry_msgs_Quaternion.h</text>
</g>
<!-- Node1&#45;&gt;Node3 -->
<g id="edge2" class="edge"><title>Node1&#45;&gt;Node3</title>
<path fill="none" stroke="midnightblue" d="M2247.33,-81.9468C1963.95,-81.2567 1014.23,-74.777 219.948,-20.0807"/>
<polygon fill="midnightblue" stroke="midnightblue" points="219.95,-16.5726 209.732,-19.374 219.467,-23.5559 219.95,-16.5726"/>
</g>
<!-- Node4 -->
<g id="node4" class="node"><title>Node4</title>
<polygon fill="none" stroke="#bfbfbf" points="227.5,-0.5 227.5,-19.5 410.5,-19.5 410.5,-0.5 227.5,-0.5"/>
<text text-anchor="middle" x="319" y="-7.5" font-family="Helvetica,sans-Serif" font-size="10.00">geometry_msgs_TransformStamped.h</text>
</g>
<!-- Node1&#45;&gt;Node4 -->
<g id="edge3" class="edge"><title>Node1&#45;&gt;Node4</title>
<path fill="none" stroke="midnightblue" d="M2247.1,-80.9675C1981.3,-77.3362 1133.86,-62.9957 420.864,-20.0121"/>
<polygon fill="midnightblue" stroke="midnightblue" points="420.835,-16.504 410.642,-19.3933 420.412,-23.4912 420.835,-16.504"/>
</g>
<!-- Node5 -->
<g id="node5" class="node"><title>Node5</title>
<polygon fill="none" stroke="#bfbfbf" points="429,-0.5 429,-19.5 563,-19.5 563,-0.5 429,-0.5"/>
<text text-anchor="middle" x="496" y="-7.5" font-family="Helvetica,sans-Serif" font-size="10.00">geometry_msgs_Vector3.h</text>
</g>
<!-- Node1&#45;&gt;Node5 -->
<g id="edge4" class="edge"><title>Node1&#45;&gt;Node5</title>
<path fill="none" stroke="midnightblue" d="M2247.1,-81.5007C1995.18,-79.4767 1223.22,-69.4423 573.148,-20.0189"/>
<polygon fill="midnightblue" stroke="midnightblue" points="573.345,-16.5239 563.107,-19.2517 572.812,-23.5035 573.345,-16.5239"/>
</g>
<!-- Node6 -->
<g id="node6" class="node"><title>Node6</title>
<polygon fill="none" stroke="#bfbfbf" points="581.5,-0.5 581.5,-19.5 658.5,-19.5 658.5,-0.5 581.5,-0.5"/>
<text text-anchor="middle" x="620" y="-7.5" font-family="Helvetica,sans-Serif" font-size="10.00">msgs/String.h</text>
</g>
<!-- Node1&#45;&gt;Node6 -->
<g id="edge5" class="edge"><title>Node1&#45;&gt;Node6</title>
<path fill="none" stroke="midnightblue" d="M2247.35,-80.5662C1957.76,-75.3423 998.16,-55.7928 668.693,-20.0024"/>
<polygon fill="midnightblue" stroke="midnightblue" points="668.983,-16.5132 658.657,-18.8848 668.208,-23.4702 668.983,-16.5132"/>
</g>
<!-- Node7 -->
<g id="node7" class="node"><title>Node7</title>
<polygon fill="none" stroke="#bfbfbf" points="676.5,-0.5 676.5,-19.5 809.5,-19.5 809.5,-0.5 676.5,-0.5"/>
<text text-anchor="middle" x="743" y="-7.5" font-family="Helvetica,sans-Serif" font-size="10.00">sensor_msgs_JointState.h</text>
</g>
<!-- Node1&#45;&gt;Node7 -->
<g id="edge6" class="edge"><title>Node1&#45;&gt;Node7</title>
<path fill="none" stroke="midnightblue" d="M2247.27,-80.8247C2019.67,-77.1449 1370.42,-63.4228 819.831,-19.996"/>
<polygon fill="midnightblue" stroke="midnightblue" points="819.945,-16.494 809.699,-19.1925 819.391,-23.4721 819.945,-16.494"/>
</g>
<!-- Node8 -->
<g id="node8" class="node"><title>Node8</title>
<polygon fill="none" stroke="#bfbfbf" points="828,-0.5 828,-19.5 932,-19.5 932,-0.5 828,-0.5"/>
<text text-anchor="middle" x="880" y="-7.5" font-family="Helvetica,sans-Serif" font-size="10.00">std_msgs_Header.h</text>
</g>
<!-- Node1&#45;&gt;Node8 -->
<g id="edge7" class="edge"><title>Node1&#45;&gt;Node8</title>
<path fill="none" stroke="midnightblue" d="M2247.36,-81.2367C2032.4,-78.6366 1442.97,-67.4744 942.522,-20.0435"/>
<polygon fill="midnightblue" stroke="midnightblue" points="942.488,-16.5245 932.201,-19.059 941.823,-23.4929 942.488,-16.5245"/>
</g>
<!-- Node9 -->
<g id="node9" class="node"><title>Node9</title>
<polygon fill="none" stroke="#bfbfbf" points="950,-0.5 950,-19.5 1072,-19.5 1072,-0.5 950,-0.5"/>
<text text-anchor="middle" x="1011" y="-7.5" font-family="Helvetica,sans-Serif" font-size="10.00">tf2_msgs_TFMessage.h</text>
</g>
<!-- Node1&#45;&gt;Node9 -->
<g id="edge8" class="edge"><title>Node1&#45;&gt;Node9</title>
<path fill="none" stroke="midnightblue" d="M2247.46,-80.116C2047.83,-75.1254 1527.22,-59.2258 1082.22,-20.0363"/>
<polygon fill="midnightblue" stroke="midnightblue" points="1082.32,-16.5317 1072.05,-19.1356 1081.7,-23.5044 1082.32,-16.5317"/>
</g>
<!-- Node10 -->
<g id="node10" class="node"><title>Node10</title>
<polygon fill="none" stroke="#bfbfbf" points="1090.5,-0.5 1090.5,-19.5 1197.5,-19.5 1197.5,-0.5 1090.5,-0.5"/>
<text text-anchor="middle" x="1144" y="-7.5" font-family="Helvetica,sans-Serif" font-size="10.00">thrifts/HumanState.h</text>
</g>
<!-- Node1&#45;&gt;Node10 -->
<g id="edge9" class="edge"><title>Node1&#45;&gt;Node10</title>
<path fill="none" stroke="midnightblue" d="M2247.18,-79.9339C2061.63,-74.806 1602.01,-59.0536 1207.91,-20.1109"/>
<polygon fill="midnightblue" stroke="midnightblue" points="1208.03,-16.6058 1197.73,-19.0988 1207.34,-23.5715 1208.03,-16.6058"/>
</g>
<!-- Node11 -->
<g id="node11" class="node"><title>Node11</title>
<polygon fill="none" stroke="#bfbfbf" points="1215.5,-0.5 1215.5,-19.5 1378.5,-19.5 1378.5,-0.5 1215.5,-0.5"/>
<text text-anchor="middle" x="1297" y="-7.5" font-family="Helvetica,sans-Serif" font-size="10.00">iDynTree/ModelIO/ModelLoader.h</text>
</g>
<!-- Node1&#45;&gt;Node11 -->
<g id="edge10" class="edge"><title>Node1&#45;&gt;Node11</title>
<path fill="none" stroke="midnightblue" d="M2247.36,-77.428C2084.4,-68.3172 1712.74,-46.5436 1388.89,-20.0475"/>
<polygon fill="midnightblue" stroke="midnightblue" points="1389.09,-16.5525 1378.84,-19.2225 1388.52,-23.529 1389.09,-16.5525"/>
</g>
<!-- Node12 -->
<g id="node12" class="node"><title>Node12</title>
<polygon fill="none" stroke="#bfbfbf" points="1397,-0.5 1397,-19.5 1533,-19.5 1533,-0.5 1397,-0.5"/>
<text text-anchor="middle" x="1465" y="-7.5" font-family="Helvetica,sans-Serif" font-size="10.00">iDynTree/Core/Transform.h</text>
</g>
<!-- Node1&#45;&gt;Node12 -->
<g id="edge11" class="edge"><title>Node1&#45;&gt;Node12</title>
<path fill="none" stroke="midnightblue" d="M2247.41,-76.478C2105.11,-66.8465 1806.46,-45.6309 1543.14,-20.0782"/>
<polygon fill="midnightblue" stroke="midnightblue" points="1543.3,-16.5766 1533.01,-19.0904 1542.62,-23.5436 1543.3,-16.5766"/>
</g>
<!-- Node13 -->
<g id="node13" class="node"><title>Node13</title>
<polygon fill="none" stroke="#bfbfbf" points="1551.5,-0.5 1551.5,-19.5 1678.5,-19.5 1678.5,-0.5 1551.5,-0.5"/>
<text text-anchor="middle" x="1615" y="-7.5" font-family="Helvetica,sans-Serif" font-size="10.00">iDynTree/Core/Position.h</text>
</g>
<!-- Node1&#45;&gt;Node13 -->
<g id="edge12" class="edge"><title>Node1&#45;&gt;Node13</title>
<path fill="none" stroke="midnightblue" d="M2247.44,-74.656C2126.68,-63.8843 1896.11,-42.7206 1688.85,-20.0673"/>
<polygon fill="midnightblue" stroke="midnightblue" points="1689.01,-16.5638 1678.69,-18.9531 1688.25,-23.5221 1689.01,-16.5638"/>
</g>
<!-- Node14 -->
<g id="node14" class="node"><title>Node14</title>
<polygon fill="none" stroke="#bfbfbf" points="1697,-0.5 1697,-19.5 1825,-19.5 1825,-0.5 1697,-0.5"/>
<text text-anchor="middle" x="1761" y="-7.5" font-family="Helvetica,sans-Serif" font-size="10.00">iDynTree/Core/Rotation.h</text>
</g>
<!-- Node1&#45;&gt;Node14 -->
<g id="edge13" class="edge"><title>Node1&#45;&gt;Node14</title>
<path fill="none" stroke="midnightblue" d="M2247.2,-71.5619C2135.98,-57.7083 1941.33,-33.462 1835.18,-20.2401"/>
<polygon fill="midnightblue" stroke="midnightblue" points="1835.55,-16.7586 1825.19,-18.9956 1834.68,-23.705 1835.55,-16.7586"/>
</g>
<!-- Node15 -->
<g id="node15" class="node"><title>Node15</title>
<polygon fill="none" stroke="#bfbfbf" points="1843,-0.5 1843,-19.5 1993,-19.5 1993,-0.5 1843,-0.5"/>
<text text-anchor="middle" x="1918" y="-7.5" font-family="Helvetica,sans-Serif" font-size="10.00">iDynTree/Core/EigenHelpers.h</text>
</g>
<!-- Node1&#45;&gt;Node15 -->
<g id="edge14" class="edge"><title>Node1&#45;&gt;Node15</title>
<path fill="none" stroke="midnightblue" d="M2247.42,-67.6321C2167.33,-53.8637 2048.46,-33.4275 1977.55,-21.2378"/>
<polygon fill="midnightblue" stroke="midnightblue" points="1977.9,-17.7458 1967.45,-19.5009 1976.71,-24.6446 1977.9,-17.7458"/>
</g>
<!-- Node16 -->
<g id="node16" class="node"><title>Node16</title>
<polygon fill="none" stroke="#bfbfbf" points="2011.5,-0.5 2011.5,-19.5 2172.5,-19.5 2172.5,-0.5 2011.5,-0.5"/>
<text text-anchor="middle" x="2092" y="-7.5" font-family="Helvetica,sans-Serif" font-size="10.00">iDynTree/KinDynComputations.h</text>
</g>
<!-- Node1&#45;&gt;Node16 -->
<g id="edge15" class="edge"><title>Node1&#45;&gt;Node16</title>
<path fill="none" stroke="midnightblue" d="M2247.41,-57.1676C2207.57,-45.3322 2161.86,-31.7527 2130.38,-22.4005"/>
<polygon fill="midnightblue" stroke="midnightblue" points="2131.26,-19.0129 2120.68,-19.5202 2129.27,-25.723 2131.26,-19.0129"/>
</g>
<!-- Node17 -->
<g id="node17" class="node"><title>Node17</title>
<polygon fill="none" stroke="#bfbfbf" points="2190.5,-0.5 2190.5,-19.5 2255.5,-19.5 2255.5,-0.5 2190.5,-0.5"/>
<text text-anchor="middle" x="2223" y="-7.5" font-family="Helvetica,sans-Serif" font-size="10.00">TickTime.h</text>
</g>
<!-- Node1&#45;&gt;Node17 -->
<g id="edge16" class="edge"><title>Node1&#45;&gt;Node17</title>
<path fill="none" stroke="midnightblue" d="M2292.92,-56.9681C2276.68,-46.2914 2258.33,-34.2274 2244.51,-25.1379"/>
<polygon fill="midnightblue" stroke="midnightblue" points="2246.42,-22.2076 2236.14,-19.6389 2242.57,-28.0569 2246.42,-22.2076"/>
</g>
<!-- Node18 -->
<g id="node18" class="node"><title>Node18</title>
<polygon fill="none" stroke="#bfbfbf" points="2273.5,-0.5 2273.5,-19.5 2388.5,-19.5 2388.5,-0.5 2273.5,-0.5"/>
<text text-anchor="middle" x="2331" y="-7.5" font-family="Helvetica,sans-Serif" font-size="10.00">yarp/os/BufferedPort.h</text>
</g>
<!-- Node1&#45;&gt;Node18 -->
<g id="edge17" class="edge"><title>Node1&#45;&gt;Node18</title>
<path fill="none" stroke="midnightblue" d="M2331,-56.7681C2331,-47.8897 2331,-38.0737 2331,-29.8165"/>
<polygon fill="midnightblue" stroke="midnightblue" points="2334.5,-29.7571 2331,-19.7572 2327.5,-29.7572 2334.5,-29.7571"/>
</g>
<!-- Node19 -->
<g id="node19" class="node"><title>Node19</title>
<polygon fill="none" stroke="#bfbfbf" points="2406.5,-0.5 2406.5,-19.5 2513.5,-19.5 2513.5,-0.5 2406.5,-0.5"/>
<text text-anchor="middle" x="2460" y="-7.5" font-family="Helvetica,sans-Serif" font-size="10.00">yarp/os/LogStream.h</text>
</g>
<!-- Node1&#45;&gt;Node19 -->
<g id="edge18" class="edge"><title>Node1&#45;&gt;Node19</title>
<path fill="none" stroke="midnightblue" d="M2376.48,-56.9681C2396.25,-46.088 2418.63,-33.7673 2435.25,-24.6218"/>
<polygon fill="midnightblue" stroke="midnightblue" points="2437.23,-27.527 2444.3,-19.6389 2433.86,-21.3945 2437.23,-27.527"/>
</g>
<!-- Node20 -->
<g id="node20" class="node"><title>Node20</title>
<polygon fill="none" stroke="#bfbfbf" points="2531.5,-0.5 2531.5,-19.5 2628.5,-19.5 2628.5,-0.5 2531.5,-0.5"/>
<text text-anchor="middle" x="2580" y="-7.5" font-family="Helvetica,sans-Serif" font-size="10.00">yarp/os/Network.h</text>
</g>
<!-- Node1&#45;&gt;Node20 -->
<g id="edge19" class="edge"><title>Node1&#45;&gt;Node20</title>
<path fill="none" stroke="midnightblue" d="M2414.61,-58.1605C2456.99,-46.0761 2506.48,-31.9637 2540.2,-22.3476"/>
<polygon fill="midnightblue" stroke="midnightblue" points="2541.48,-25.6229 2550.14,-19.5149 2539.56,-18.8913 2541.48,-25.6229"/>
</g>
<!-- Node21 -->
<g id="node21" class="node"><title>Node21</title>
<polygon fill="none" stroke="#bfbfbf" points="2646.5,-0.5 2646.5,-19.5 2729.5,-19.5 2729.5,-0.5 2646.5,-0.5"/>
<text text-anchor="middle" x="2688" y="-7.5" font-family="Helvetica,sans-Serif" font-size="10.00">yarp/os/Node.h</text>
</g>
<!-- Node1&#45;&gt;Node21 -->
<g id="edge20" class="edge"><title>Node1&#45;&gt;Node21</title>
<path fill="none" stroke="midnightblue" d="M2414.7,-65.3537C2483.33,-51.7047 2578.3,-32.8175 2636.31,-21.2798"/>
<polygon fill="midnightblue" stroke="midnightblue" points="2637.22,-24.6673 2646.35,-19.2838 2635.86,-17.8017 2637.22,-24.6673"/>
</g>
<!-- Node22 -->
<g id="node22" class="node"><title>Node22</title>
<polygon fill="none" stroke="#bfbfbf" points="2747.5,-0.5 2747.5,-19.5 2844.5,-19.5 2844.5,-0.5 2747.5,-0.5"/>
<text text-anchor="middle" x="2796" y="-7.5" font-family="Helvetica,sans-Serif" font-size="10.00">yarp/os/Property.h</text>
</g>
<!-- Node1&#45;&gt;Node22 -->
<g id="edge21" class="edge"><title>Node1&#45;&gt;Node22</title>
<path fill="none" stroke="midnightblue" d="M2414.81,-69.303C2494.85,-57.1599 2619.18,-38.257 2737.32,-20.1013"/>
<polygon fill="midnightblue" stroke="midnightblue" points="2737.92,-23.5509 2747.27,-18.572 2736.85,-16.6322 2737.92,-23.5509"/>
</g>
<!-- Node23 -->
<g id="node23" class="node"><title>Node23</title>
<polygon fill="none" stroke="#bfbfbf" points="2862.5,-0.5 2862.5,-19.5 2963.5,-19.5 2963.5,-0.5 2862.5,-0.5"/>
<text text-anchor="middle" x="2913" y="-7.5" font-family="Helvetica,sans-Serif" font-size="10.00">yarp/os/Publisher.h</text>
</g>
<!-- Node1&#45;&gt;Node23 -->
<g id="edge22" class="edge"><title>Node1&#45;&gt;Node23</title>
<path fill="none" stroke="midnightblue" d="M2414.73,-72.856C2515.8,-61.6372 2691.18,-41.5932 2852.18,-20.0738"/>
<polygon fill="midnightblue" stroke="midnightblue" points="2852.83,-23.5184 2862.28,-18.7202 2851.9,-16.5805 2852.83,-23.5184"/>
</g>
<!-- Node24 -->
<g id="node24" class="node"><title>Node24</title>
<polygon fill="none" stroke="#bfbfbf" points="2981.5,-0.5 2981.5,-19.5 3086.5,-19.5 3086.5,-0.5 2981.5,-0.5"/>
<text text-anchor="middle" x="3034" y="-7.5" font-family="Helvetica,sans-Serif" font-size="10.00">yarp/os/RFModule.h</text>
</g>
<!-- Node1&#45;&gt;Node24 -->
<g id="edge23" class="edge"><title>Node1&#45;&gt;Node24</title>
<path fill="none" stroke="midnightblue" d="M2414.62,-75.1939C2535.15,-65.0981 2764.93,-44.7841 2971.15,-20.0497"/>
<polygon fill="midnightblue" stroke="midnightblue" points="2971.75,-23.5024 2981.26,-18.8309 2970.91,-16.5527 2971.75,-23.5024"/>
</g>
<!-- Node25 -->
<g id="node25" class="node"><title>Node25</title>
<polygon fill="none" stroke="#bfbfbf" points="3105,-0.5 3105,-19.5 3187,-19.5 3187,-0.5 3105,-0.5"/>
<text text-anchor="middle" x="3146" y="-7.5" font-family="Helvetica,sans-Serif" font-size="10.00">yarp/os/Time.h</text>
</g>
<!-- Node1&#45;&gt;Node25 -->
<g id="edge24" class="edge"><title>Node1&#45;&gt;Node25</title>
<path fill="none" stroke="midnightblue" d="M2414.64,-77.7831C2553.61,-70.2096 2840.97,-52.1433 3094.7,-19.9018"/>
<polygon fill="midnightblue" stroke="midnightblue" points="3095.38,-23.3438 3104.85,-18.602 3094.49,-16.4005 3095.38,-23.3438"/>
</g>
<!-- Node26 -->
<g id="node26" class="node"><title>Node26</title>
<polygon fill="none" stroke="#bfbfbf" points="3205.5,-0.5 3205.5,-19.5 3292.5,-19.5 3292.5,-0.5 3205.5,-0.5"/>
<text text-anchor="middle" x="3249" y="-7.5" font-family="Helvetica,sans-Serif" font-size="10.00">yarp/os/Mutex.h</text>
</g>
<!-- Node1&#45;&gt;Node26 -->
<g id="edge25" class="edge"><title>Node1&#45;&gt;Node26</title>
<path fill="none" stroke="midnightblue" d="M2414.76,-78.6901C2567.77,-72.0523 2902.86,-54.7848 3195.42,-19.9453"/>
<polygon fill="midnightblue" stroke="midnightblue" points="3195.86,-23.4177 3205.38,-18.7514 3195.03,-16.4676 3195.86,-23.4177"/>
</g>
<!-- Node27 -->
<g id="node27" class="node"><title>Node27</title>
<polygon fill="none" stroke="#bfbfbf" points="3310.5,-0.5 3310.5,-19.5 3417.5,-19.5 3417.5,-0.5 3310.5,-0.5"/>
<text text-anchor="middle" x="3364" y="-7.5" font-family="Helvetica,sans-Serif" font-size="10.00">yarp/os/LockGuard.h</text>
</g>
<!-- Node1&#45;&gt;Node27 -->
<g id="edge26" class="edge"><title>Node1&#45;&gt;Node27</title>
<path fill="none" stroke="midnightblue" d="M2414.55,-78.8591C2580.98,-72.1219 2965.89,-54.1404 3300.05,-20.0106"/>
<polygon fill="midnightblue" stroke="midnightblue" points="3300.83,-23.449 3310.42,-18.9446 3300.11,-16.4857 3300.83,-23.449"/>
</g>
<!-- Node28 -->
<g id="node28" class="node"><title>Node28</title>
<polygon fill="none" stroke="#bfbfbf" points="3435.5,-0.5 3435.5,-19.5 3546.5,-19.5 3546.5,-0.5 3435.5,-0.5"/>
<text text-anchor="middle" x="3491" y="-7.5" font-family="Helvetica,sans-Serif" font-size="10.00">yarp/dev/PolyDriver.h</text>
</g>
<!-- Node1&#45;&gt;Node28 -->
<g id="edge27" class="edge"><title>Node1&#45;&gt;Node28</title>
<path fill="none" stroke="midnightblue" d="M2414.63,-79.5768C2596.48,-73.805 3041.67,-56.9552 3425.18,-19.9931"/>
<polygon fill="midnightblue" stroke="midnightblue" points="3425.75,-23.4542 3435.37,-19.0051 3425.07,-16.4869 3425.75,-23.4542"/>
</g>
<!-- Node29 -->
<g id="node29" class="node"><title>Node29</title>
<polygon fill="none" stroke="#bfbfbf" points="3565,-0.5 3565,-19.5 3675,-19.5 3675,-0.5 3565,-0.5"/>
<text text-anchor="middle" x="3620" y="-7.5" font-family="Helvetica,sans-Serif" font-size="10.00">yarp/dev/IEncoders.h</text>
</g>
<!-- Node1&#45;&gt;Node29 -->
<g id="edge28" class="edge"><title>Node1&#45;&gt;Node29</title>
<path fill="none" stroke="midnightblue" d="M2414.66,-80.2698C2611.48,-75.6568 3119.35,-60.5967 3554.46,-19.9522"/>
<polygon fill="midnightblue" stroke="midnightblue" points="3555.09,-23.408 3564.72,-18.9873 3554.44,-16.4387 3555.09,-23.408"/>
</g>
<!-- Node30 -->
<g id="node30" class="node"><title>Node30</title>
<polygon fill="none" stroke="#bfbfbf" points="3693,-0.5 3693,-19.5 3749,-19.5 3749,-0.5 3693,-0.5"/>
<text text-anchor="middle" x="3721" y="-7.5" font-family="Helvetica,sans-Serif" font-size="10.00">algorithm</text>
</g>
<!-- Node1&#45;&gt;Node30 -->
<g id="edge29" class="edge"><title>Node1&#45;&gt;Node30</title>
<path fill="none" stroke="midnightblue" d="M2414.85,-80.2754C2667.16,-74.7556 3417.73,-55.834 3682.84,-19.8425"/>
<polygon fill="midnightblue" stroke="midnightblue" points="3683.41,-23.2976 3692.83,-18.4457 3682.44,-16.3651 3683.41,-23.2976"/>
</g>
<!-- Node31 -->
<g id="node31" class="node"><title>Node31</title>
<polygon fill="none" stroke="#bfbfbf" points="3767,-0.5 3767,-19.5 3821,-19.5 3821,-0.5 3767,-0.5"/>
<text text-anchor="middle" x="3794" y="-7.5" font-family="Helvetica,sans-Serif" font-size="10.00">iostream</text>
</g>
<!-- Node1&#45;&gt;Node31 -->
<g id="edge30" class="edge"><title>Node1&#45;&gt;Node31</title>
<path fill="none" stroke="midnightblue" d="M2414.67,-80.5066C2675.94,-75.5092 3475.41,-57.6059 3756.46,-19.7005"/>
<polygon fill="midnightblue" stroke="midnightblue" points="3757.21,-23.1291 3766.64,-18.2861 3756.25,-16.1957 3757.21,-23.1291"/>
</g>
<!-- Node32 -->
<g id="node32" class="node"><title>Node32</title>
<polygon fill="none" stroke="#bfbfbf" points="3839,-0.5 3839,-19.5 3887,-19.5 3887,-0.5 3839,-0.5"/>
<text text-anchor="middle" x="3863" y="-7.5" font-family="Helvetica,sans-Serif" font-size="10.00">limits.h</text>
</g>
<!-- Node1&#45;&gt;Node32 -->
<g id="edge31" class="edge"><title>Node1&#45;&gt;Node32</title>
<path fill="none" stroke="midnightblue" d="M2414.64,-81.014C2684.91,-77.4445 3533.74,-63.1342 3828.73,-19.7753"/>
<polygon fill="midnightblue" stroke="midnightblue" points="3829.62,-23.1796 3838.98,-18.2206 3828.57,-16.2586 3829.62,-23.1796"/>
</g>
<!-- Node33 -->
<g id="node33" class="node"><title>Node33</title>
<polygon fill="none" stroke="#bfbfbf" points="3905.5,-0.5 3905.5,-19.5 3946.5,-19.5 3946.5,-0.5 3905.5,-0.5"/>
<text text-anchor="middle" x="3926" y="-7.5" font-family="Helvetica,sans-Serif" font-size="10.00">string</text>
</g>
<!-- Node1&#45;&gt;Node33 -->
<g id="edge32" class="edge"><title>Node1&#45;&gt;Node33</title>
<path fill="none" stroke="midnightblue" d="M2414.91,-81.4566C2693.46,-79.2221 3586.81,-68.4929 3894.91,-19.6565"/>
<polygon fill="midnightblue" stroke="midnightblue" points="3895.87,-23.0453 3905.18,-17.9777 3894.74,-16.1369 3895.87,-23.0453"/>
</g>
<!-- Node34 -->
<g id="node34" class="node"><title>Node34</title>
<polygon fill="none" stroke="#bfbfbf" points="3965,-0.5 3965,-19.5 4009,-19.5 4009,-0.5 3965,-0.5"/>
<text text-anchor="middle" x="3987" y="-7.5" font-family="Helvetica,sans-Serif" font-size="10.00">vector</text>
</g>
<!-- Node1&#45;&gt;Node34 -->
<g id="edge33" class="edge"><title>Node1&#45;&gt;Node34</title>
<path fill="none" stroke="midnightblue" d="M2414.51,-81.4117C2699.49,-79.0019 3633.28,-67.6946 3954.52,-19.5573"/>
<polygon fill="midnightblue" stroke="midnightblue" points="3955.42,-22.9603 3964.77,-17.9761 3954.35,-16.0422 3955.42,-22.9603"/>
</g>
</g>
</svg>
        <g id="navigator" transform="translate(0 0)" fill="#404254">
                <rect fill="#f2f5e9" fill-opacity="0.5" stroke="#606060" stroke-width=".5" x="0" y="0" width="60" height="60"/>
                <use id="zoomplus" xlink:href="#zoomPlus" x="17" y="9" onmousedown="handleZoom(evt,'in')"/>
                <use id="zoomminus" xlink:href="#zoomMin" x="42" y="9" onmousedown="handleZoom(evt,'out')"/>
                <use id="reset" xlink:href="#resetDef" x="30" y="36" onmousedown="handleReset()"/>
                <g id="arrowUp" xlink:href="#dirArrow" transform="translate(30 24)" onmousedown="handlePan(0,-1)">
                  <use xlink:href="#rim" fill="#404040">
                        <set attributeName="fill" to="#808080" begin="arrowUp.mouseover" end="arrowUp.mouseout"/>
                  </use>
                  <path fill="none" stroke="white" stroke-width="1.5" d="M0,-3.0v7 M-2.5,-0.5L0,-3.0L2.5,-0.5"/>
                </g>
                <g id="arrowRight" xlink:href="#dirArrow" transform="rotate(90) translate(36 -43)" onmousedown="handlePan(1,0)">
                  <use xlink:href="#rim" fill="#404040">
                        <set attributeName="fill" to="#808080" begin="arrowRight.mouseover" end="arrowRight.mouseout"/>
                  </use>
                  <path fill="none" stroke="white" stroke-width="1.5" d="M0,-3.0v7 M-2.5,-0.5L0,-3.0L2.5,-0.5"/>
                </g>
                <g id="arrowDown" xlink:href="#dirArrow" transform="rotate(180) translate(-30 -48)" onmousedown="handlePan(0,1)">
                  <use xlink:href="#rim" fill="#404040">
                        <set attributeName="fill" to="#808080" begin="arrowDown.mouseover" end="arrowDown.mouseout"/>
                  </use>
                  <path fill="none" stroke="white" stroke-width="1.5" d="M0,-3.0v7 M-2.5,-0.5L0,-3.0L2.5,-0.5"/>
                </g>
                <g id="arrowLeft" xlink:href="#dirArrow" transform="rotate(270) translate(-36 17)" onmousedown="handlePan(-1,0)">
                  <use xlink:href="#rim" fill="#404040">
                        <set attributeName="fill" to="#808080" begin="arrowLeft.mouseover" end="arrowLeft.mouseout"/>
                  </use>
                  <path fill="none" stroke="white" stroke-width="1.5" d="M0,-3.0v7 M-2.5,-0.5L0,-3.0L2.5,-0.5"/>
                </g>
        </g>
        <svg viewBox="0 0 15 15" width="100%" height="30px" preserveAspectRatio="xMaxYMin meet">
         <g id="arrow_out" transform="scale(0.3 0.3)">
          <a xlink:href="_robot_base_pose_publisher_8cpp__incl_org.svg" target="_base">
           <rect id="button" ry="5" rx="5" y="6" x="6" height="38" width="38"
                fill="#f2f5e9" fill-opacity="0.5" stroke="#606060" stroke-width="1.0"/>
           <path id="arrow"
             d="M 11.500037,31.436501 C 11.940474,20.09759 22.043105,11.32322 32.158766,21.979434 L 37.068811,17.246167 C 37.068811,17.246167 37.088388,32 37.088388,32 L 22.160133,31.978069 C 22.160133,31.978069 26.997745,27.140456 26.997745,27.140456 C 18.528582,18.264221 13.291696,25.230495 11.500037,31.436501 z"
             style="fill:#404040;"/>
          </a>
         </g>
        </svg>
</svg>
