<?xml version="1.0" encoding="UTF-8" standalone="no"?>
<!DOCTYPE svg PUBLIC "-//W3C//DTD SVG 1.1//EN"
 "http://www.w3.org/Graphics/SVG/1.1/DTD/svg11.dtd">
<!-- Generated by graphviz version 2.36.0 (20140111.2315)
 -->
<!-- Title: /home/travis/build/robotology/human&#45;dynamics&#45;estimation/build/human&#45;viz&#45;bridge/_yarp_idl_/thrift/xsensframe/XsensFrame_index.h Pages: 1 -->
<!--zoomable 352 -->
<svg id="main" version="1.1" xmlns="http://www.w3.org/2000/svg" xmlns:xlink="http://www.w3.org/1999/xlink" xml:space="preserve" onload="init(evt)">
<style type="text/css"><![CDATA[
.edge:hover path { stroke: red; }
.edge:hover polygon { stroke: red; fill: red; }
]]></style>
<script type="text/javascript"><![CDATA[
var edges = document.getElementsByTagName('g');
if (edges && edges.length) {
  for (var i=0;i<edges.length;i++) {
    if (edges[i].id.substr(0,4)=='edge') {
      edges[i].setAttribute('class','edge');
    }
  }
}
]]></script>
        <defs>
                <circle id="rim" cx="0" cy="0" r="7"/>
                <circle id="rim2" cx="0" cy="0" r="3.5"/>
                <g id="zoomPlus">
                        <use xlink:href="#rim" fill="#404040">
                                <set attributeName="fill" to="#808080" begin="zoomplus.mouseover" end="zoomplus.mouseout"/>
                        </use>
                        <path d="M-4,0h8M0,-4v8" fill="none" stroke="white" stroke-width="1.5" pointer-events="none"/>
                </g>
                <g id="zoomMin">
                        <use xlink:href="#rim" fill="#404040">
                                <set attributeName="fill" to="#808080" begin="zoomminus.mouseover" end="zoomminus.mouseout"/>
                        </use>
                        <path d="M-4,0h8" fill="none" stroke="white" stroke-width="1.5" pointer-events="none"/>
                </g>
                <g id="dirArrow">
                        <path fill="none" stroke="white" stroke-width="1.5" d="M0,-3.0v7 M-2.5,-0.5L0,-3.0L2.5,-0.5"/>
                </g>
               <g id="resetDef">
                       <use xlink:href="#rim2" fill="#404040">
                               <set attributeName="fill" to="#808080" begin="reset.mouseover" end="reset.mouseout"/>
                       </use>
               </g>
        </defs>

<script type="text/javascript">
var viewWidth = 1004;
var viewHeight = 352;
var sectionId = 'dynsection-0';
</script>
<script xlink:href="svgpan.js"/>
<svg id="graph" class="graph">
<g id="viewport">
<title>/home/travis/build/robotology/human&#45;dynamics&#45;estimation/build/human&#45;viz&#45;bridge/_yarp_idl_/thrift/xsensframe/XsensFrame_index.h</title>
<!-- Node1 -->
<g id="node1" class="node"><title>Node1</title>
<polygon fill="#bfbfbf" stroke="black" points="366.736,-280.5 366.736,-343.5 532.736,-343.5 532.736,-280.5 366.736,-280.5"/>
<text text-anchor="start" x="374.736" y="-331.5" font-family="Helvetica,sans-Serif" font-size="10.00">/home/travis/build</text>
<text text-anchor="start" x="374.736" y="-320.5" font-family="Helvetica,sans-Serif" font-size="10.00">/robotology/human&#45;dynamics</text>
<text text-anchor="start" x="374.736" y="-309.5" font-family="Helvetica,sans-Serif" font-size="10.00">&#45;estimation/build/human</text>
<text text-anchor="start" x="374.736" y="-298.5" font-family="Helvetica,sans-Serif" font-size="10.00">&#45;viz&#45;bridge/_yarp_idl_/thrift</text>
<text text-anchor="middle" x="449.736" y="-287.5" font-family="Helvetica,sans-Serif" font-size="10.00">/xsensframe/XsensFrame_index.h</text>
</g>
<!-- Node2 -->
<g id="node2" class="node"><title>Node2</title>
<g id="a_node2"><a xlink:href="__yarp__idl___2thrift_2xsensframe_2_xsens_status_8h.html" target="_top" xlink:title="XsensStatus.h">
<polygon fill="none" stroke="black" points="915.236,-56.5 915.236,-75.5 996.236,-75.5 996.236,-56.5 915.236,-56.5"/>
<text text-anchor="middle" x="955.736" y="-63.5" font-family="Helvetica,sans-Serif" font-size="10.00">XsensStatus.h</text>
</a>
</g>
</g>
<!-- Node1&#45;&gt;Node2 -->
<g id="edge1" class="edge"><title>Node1&#45;&gt;Node2</title>
<path fill="none" stroke="midnightblue" d="M532.88,-305.838C627.049,-296.146 780.869,-268.256 884.736,-188 919.631,-161.037 940.681,-111.689 950.016,-85.1066"/>
<polygon fill="midnightblue" stroke="midnightblue" points="953.365,-86.1273 953.212,-75.5335 946.725,-83.9101 953.365,-86.1273"/>
</g>
<!-- Node5 -->
<g id="node5" class="node"><title>Node5</title>
<g id="a_node5"><a xlink:href="human-viz-bridge_2__yarp__idl___2thrift_2xsensframe_2_vector3_8h.html" target="_top" xlink:title="Vector3.h">
<polygon fill="none" stroke="black" points="139.236,-56.5 139.236,-75.5 198.236,-75.5 198.236,-56.5 139.236,-56.5"/>
<text text-anchor="middle" x="168.736" y="-63.5" font-family="Helvetica,sans-Serif" font-size="10.00">Vector3.h</text>
</a>
</g>
</g>
<!-- Node1&#45;&gt;Node5 -->
<g id="edge4" class="edge"><title>Node1&#45;&gt;Node5</title>
<path fill="none" stroke="midnightblue" d="M366.562,-304.663C265.48,-291.699 101.723,-252.221 47.7361,-132 31.4361,-95.7025 87.7898,-79.1077 129.011,-71.9518"/>
<polygon fill="midnightblue" stroke="midnightblue" points="129.794,-75.3711 139.112,-70.3297 128.684,-68.4597 129.794,-75.3711"/>
</g>
<!-- Node6 -->
<g id="node6" class="node"><title>Node6</title>
<g id="a_node6"><a xlink:href="human-viz-bridge_2__yarp__idl___2thrift_2xsensframe_2_quaternion_8h.html" target="_top" xlink:title="Quaternion.h">
<polygon fill="none" stroke="black" points="330.736,-112.5 330.736,-131.5 402.736,-131.5 402.736,-112.5 330.736,-112.5"/>
<text text-anchor="middle" x="366.736" y="-119.5" font-family="Helvetica,sans-Serif" font-size="10.00">Quaternion.h</text>
</a>
</g>
</g>
<!-- Node1&#45;&gt;Node6 -->
<g id="edge7" class="edge"><title>Node1&#45;&gt;Node6</title>
<path fill="none" stroke="midnightblue" d="M410.722,-280.449C399.97,-270.041 389.434,-257.571 382.736,-244 366.384,-210.864 364.885,-166.726 365.592,-141.95"/>
<polygon fill="midnightblue" stroke="midnightblue" points="369.097,-141.902 366.043,-131.757 362.104,-141.592 369.097,-141.902"/>
</g>
<!-- Node8 -->
<g id="node8" class="node"><title>Node8</title>
<g id="a_node8"><a xlink:href="__yarp__idl___2thrift_2xsensframe_2_xsens_segment_data_8h.html" target="_top" xlink:title="XsensSegmentData.h">
<polygon fill="none" stroke="black" points="657.236,-168.5 657.236,-187.5 770.236,-187.5 770.236,-168.5 657.236,-168.5"/>
<text text-anchor="middle" x="713.736" y="-175.5" font-family="Helvetica,sans-Serif" font-size="10.00">XsensSegmentData.h</text>
</a>
</g>
</g>
<!-- Node1&#45;&gt;Node8 -->
<g id="edge13" class="edge"><title>Node1&#45;&gt;Node8</title>
<path fill="none" stroke="midnightblue" d="M510.967,-280.385C566.809,-252.464 646.642,-212.547 687.479,-192.129"/>
<polygon fill="midnightblue" stroke="midnightblue" points="689.137,-195.213 696.516,-187.61 686.007,-188.952 689.137,-195.213"/>
</g>
<!-- Node10 -->
<g id="node10" class="node"><title>Node10</title>
<g id="a_node10"><a xlink:href="__yarp__idl___2thrift_2xsensframe_2_xsens_sensor_data_8h.html" target="_top" xlink:title="XsensSensorData.h">
<polygon fill="none" stroke="black" points="534.736,-168.5 534.736,-187.5 638.736,-187.5 638.736,-168.5 534.736,-168.5"/>
<text text-anchor="middle" x="586.736" y="-175.5" font-family="Helvetica,sans-Serif" font-size="10.00">XsensSensorData.h</text>
</a>
</g>
</g>
<!-- Node1&#45;&gt;Node10 -->
<g id="edge21" class="edge"><title>Node1&#45;&gt;Node10</title>
<path fill="none" stroke="midnightblue" d="M481.511,-280.385C509.267,-253.642 548.444,-215.894 570.322,-194.815"/>
<polygon fill="midnightblue" stroke="midnightblue" points="573.027,-197.069 577.8,-187.61 568.17,-192.028 573.027,-197.069"/>
</g>
<!-- Node11 -->
<g id="node11" class="node"><title>Node11</title>
<g id="a_node11"><a xlink:href="__yarp__idl___2thrift_2xsensframe_2_xsens_segments_frame_8h.html" target="_top" xlink:title="XsensSegmentsFrame.h">
<polygon fill="none" stroke="black" points="202.236,-224.5 202.236,-243.5 327.236,-243.5 327.236,-224.5 202.236,-224.5"/>
<text text-anchor="middle" x="264.736" y="-231.5" font-family="Helvetica,sans-Serif" font-size="10.00">XsensSegmentsFrame.h</text>
</a>
</g>
</g>
<!-- Node1&#45;&gt;Node11 -->
<g id="edge26" class="edge"><title>Node1&#45;&gt;Node11</title>
<path fill="none" stroke="midnightblue" d="M375.289,-280.416C347.253,-268.899 316.915,-256.436 295.125,-247.484"/>
<polygon fill="midnightblue" stroke="midnightblue" points="296.333,-244.197 285.753,-243.634 293.673,-250.672 296.333,-244.197"/>
</g>
<!-- Node14 -->
<g id="node14" class="node"><title>Node14</title>
<g id="a_node14"><a xlink:href="__yarp__idl___2thrift_2xsensframe_2_xsens_sensors_frame_8h.html" target="_top" xlink:title="XsensSensorsFrame.h">
<polygon fill="none" stroke="black" points="391.736,-224.5 391.736,-243.5 507.736,-243.5 507.736,-224.5 391.736,-224.5"/>
<text text-anchor="middle" x="449.736" y="-231.5" font-family="Helvetica,sans-Serif" font-size="10.00">XsensSensorsFrame.h</text>
</a>
</g>
</g>
<!-- Node1&#45;&gt;Node14 -->
<g id="edge37" class="edge"><title>Node1&#45;&gt;Node14</title>
<path fill="none" stroke="midnightblue" d="M449.736,-280.088C449.736,-271.15 449.736,-261.669 449.736,-253.719"/>
<polygon fill="midnightblue" stroke="midnightblue" points="453.236,-253.718 449.736,-243.718 446.236,-253.718 453.236,-253.718"/>
</g>
<!-- Node3 -->
<g id="node3" class="node"><title>Node3</title>
<polygon fill="none" stroke="#bfbfbf" points="597.736,-0.5 597.736,-19.5 677.736,-19.5 677.736,-0.5 597.736,-0.5"/>
<text text-anchor="middle" x="637.736" y="-7.5" font-family="Helvetica,sans-Serif" font-size="10.00">yarp/os/Wire.h</text>
</g>
<!-- Node2&#45;&gt;Node3 -->
<g id="edge2" class="edge"><title>Node2&#45;&gt;Node3</title>
<path fill="none" stroke="midnightblue" d="M915.138,-58.106C857.246,-48.2752 751.04,-30.2403 688.173,-19.5648"/>
<polygon fill="midnightblue" stroke="midnightblue" points="688.537,-16.0766 678.092,-17.8529 687.365,-22.9778 688.537,-16.0766"/>
</g>
<!-- Node4 -->
<g id="node4" class="node"><title>Node4</title>
<polygon fill="none" stroke="#bfbfbf" points="204.736,-0.5 204.736,-19.5 324.736,-19.5 324.736,-0.5 204.736,-0.5"/>
<text text-anchor="middle" x="264.736" y="-7.5" font-family="Helvetica,sans-Serif" font-size="10.00">yarp/os/idl/WireTypes.h</text>
</g>
<!-- Node2&#45;&gt;Node4 -->
<g id="edge3" class="edge"><title>Node2&#45;&gt;Node4</title>
<path fill="none" stroke="midnightblue" d="M915.091,-61.8237C801.237,-52.9262 478.157,-27.6783 334.769,-16.4729"/>
<polygon fill="midnightblue" stroke="midnightblue" points="335.003,-12.9806 324.761,-15.6908 334.458,-19.9593 335.003,-12.9806"/>
</g>
<!-- Node5&#45;&gt;Node3 -->
<g id="edge5" class="edge"><title>Node5&#45;&gt;Node3</title>
<path fill="none" stroke="midnightblue" d="M198.43,-61.5811C276.725,-52.5663 489.467,-28.0715 587.292,-16.808"/>
<polygon fill="midnightblue" stroke="midnightblue" points="587.982,-20.2519 597.516,-15.6309 587.181,-13.2978 587.982,-20.2519"/>
</g>
<!-- Node5&#45;&gt;Node4 -->
<g id="edge6" class="edge"><title>Node5&#45;&gt;Node4</title>
<path fill="none" stroke="midnightblue" d="M184.16,-56.324C199.276,-47.8215 222.552,-34.7288 240.207,-24.7975"/>
<polygon fill="midnightblue" stroke="midnightblue" points="242.35,-27.6077 249.35,-19.6545 238.919,-21.5066 242.35,-27.6077"/>
</g>
<!-- Node6&#45;&gt;Node3 -->
<g id="edge8" class="edge"><title>Node6&#45;&gt;Node3</title>
<path fill="none" stroke="midnightblue" d="M375.207,-112.406C389.482,-98.4269 419.814,-70.8367 450.736,-56 494.402,-35.0492 548.614,-23.3936 587.406,-17.2257"/>
<polygon fill="midnightblue" stroke="midnightblue" points="588.059,-20.6667 597.418,-15.7009 587.005,-13.7465 588.059,-20.6667"/>
</g>
<!-- Node6&#45;&gt;Node4 -->
<g id="edge9" class="edge"><title>Node6&#45;&gt;Node4</title>
<path fill="none" stroke="midnightblue" d="M360.784,-112.143C351.9,-99.2 334.327,-74.6358 316.736,-56 306.62,-45.2833 294.17,-34.439 283.988,-26.0818"/>
<polygon fill="midnightblue" stroke="midnightblue" points="286.054,-23.2513 276.07,-19.704 281.663,-28.7027 286.054,-23.2513"/>
</g>
<!-- Node7 -->
<g id="node7" class="node"><title>Node7</title>
<g id="a_node7"><a xlink:href="human-viz-bridge_2autogenerated_2data_2include_2thrift_2_vector3_8h.html" target="_top" xlink:title="thrift/Vector3.h">
<polygon fill="none" stroke="black" points="460.236,-56.5 460.236,-75.5 541.236,-75.5 541.236,-56.5 460.236,-56.5"/>
<text text-anchor="middle" x="500.736" y="-63.5" font-family="Helvetica,sans-Serif" font-size="10.00">thrift/Vector3.h</text>
</a>
</g>
</g>
<!-- Node6&#45;&gt;Node7 -->
<g id="edge10" class="edge"><title>Node6&#45;&gt;Node7</title>
<path fill="none" stroke="midnightblue" d="M387.969,-112.444C410.12,-103.517 445.055,-89.4387 470.172,-79.3168"/>
<polygon fill="midnightblue" stroke="midnightblue" points="471.636,-82.5006 479.603,-75.5164 469.019,-76.0079 471.636,-82.5006"/>
</g>
<!-- Node7&#45;&gt;Node3 -->
<g id="edge11" class="edge"><title>Node7&#45;&gt;Node3</title>
<path fill="none" stroke="midnightblue" d="M522.444,-56.4435C545.091,-47.5171 580.808,-33.4387 606.488,-23.3168"/>
<polygon fill="midnightblue" stroke="midnightblue" points="608.11,-26.4397 616.13,-19.5164 605.543,-19.9273 608.11,-26.4397"/>
</g>
<!-- Node7&#45;&gt;Node4 -->
<g id="edge12" class="edge"><title>Node7&#45;&gt;Node4</title>
<path fill="none" stroke="midnightblue" d="M463.341,-56.4435C422.344,-47.0629 356.482,-31.9926 311.952,-21.8036"/>
<polygon fill="midnightblue" stroke="midnightblue" points="312.485,-18.3352 301.956,-19.5164 310.923,-25.1588 312.485,-18.3352"/>
</g>
<!-- Node8&#45;&gt;Node3 -->
<g id="edge14" class="edge"><title>Node8&#45;&gt;Node3</title>
<path fill="none" stroke="midnightblue" d="M739.948,-168.414C756.586,-161.445 776.793,-149.809 786.736,-132 803.202,-102.507 806.874,-83.1183 786.736,-56 764.252,-25.7226 722,-15.0834 688.215,-11.6688"/>
<polygon fill="midnightblue" stroke="midnightblue" points="688.288,-8.16295 678.033,-10.8273 687.711,-15.1392 688.288,-8.16295"/>
</g>
<!-- Node8&#45;&gt;Node4 -->
<g id="edge15" class="edge"><title>Node8&#45;&gt;Node4</title>
<path fill="none" stroke="midnightblue" d="M708.912,-168.135C701.302,-154.744 685.435,-129.109 666.736,-112 630.858,-79.1731 618.563,-72.2715 572.736,-56 494.347,-28.1666 398.869,-17.5354 335.195,-13.4825"/>
<polygon fill="midnightblue" stroke="midnightblue" points="335.056,-9.96799 324.865,-12.8649 334.638,-16.9555 335.056,-9.96799"/>
</g>
<!-- Node8&#45;&gt;Node7 -->
<g id="edge20" class="edge"><title>Node8&#45;&gt;Node7</title>
<path fill="none" stroke="midnightblue" d="M705.824,-168.171C693.005,-154.357 666.333,-127.606 638.736,-112 611.287,-96.4782 577.701,-85.3789 550.535,-78.0872"/>
<polygon fill="midnightblue" stroke="midnightblue" points="551.399,-74.6955 540.84,-75.5719 549.641,-81.4711 551.399,-74.6955"/>
</g>
<!-- Node9 -->
<g id="node9" class="node"><title>Node9</title>
<g id="a_node9"><a xlink:href="human-viz-bridge_2autogenerated_2data_2include_2thrift_2_quaternion_8h.html" target="_top" xlink:title="thrift/Quaternion.h">
<polygon fill="none" stroke="black" points="535.236,-112.5 535.236,-131.5 630.236,-131.5 630.236,-112.5 535.236,-112.5"/>
<text text-anchor="middle" x="582.736" y="-119.5" font-family="Helvetica,sans-Serif" font-size="10.00">thrift/Quaternion.h</text>
</a>
</g>
</g>
<!-- Node8&#45;&gt;Node9 -->
<g id="edge16" class="edge"><title>Node8&#45;&gt;Node9</title>
<path fill="none" stroke="midnightblue" d="M692.979,-168.444C671.42,-159.557 637.473,-145.563 612.942,-135.451"/>
<polygon fill="midnightblue" stroke="midnightblue" points="613.976,-132.092 603.396,-131.516 611.308,-138.563 613.976,-132.092"/>
</g>
<!-- Node9&#45;&gt;Node3 -->
<g id="edge17" class="edge"><title>Node9&#45;&gt;Node3</title>
<path fill="none" stroke="midnightblue" d="M587.052,-112.368C596.048,-94.376 616.961,-52.5503 628.923,-28.6267"/>
<polygon fill="midnightblue" stroke="midnightblue" points="632.099,-30.101 633.44,-19.5914 625.838,-26.9704 632.099,-30.101"/>
</g>
<!-- Node9&#45;&gt;Node4 -->
<g id="edge18" class="edge"><title>Node9&#45;&gt;Node4</title>
<path fill="none" stroke="midnightblue" d="M580.954,-112.184C577.568,-97.8849 568.773,-69.8456 549.736,-56 516.365,-31.7295 407.909,-20.0604 334.832,-14.8253"/>
<polygon fill="midnightblue" stroke="midnightblue" points="334.984,-11.3276 324.767,-14.1287 334.501,-18.3109 334.984,-11.3276"/>
</g>
<!-- Node9&#45;&gt;Node7 -->
<g id="edge19" class="edge"><title>Node9&#45;&gt;Node7</title>
<path fill="none" stroke="midnightblue" d="M569.561,-112.324C556.889,-103.979 537.503,-91.2122 522.531,-81.3524"/>
<polygon fill="midnightblue" stroke="midnightblue" points="524.155,-78.2313 513.878,-75.6545 520.305,-84.0776 524.155,-78.2313"/>
</g>
<!-- Node10&#45;&gt;Node3 -->
<g id="edge22" class="edge"><title>Node10&#45;&gt;Node3</title>
<path fill="none" stroke="midnightblue" d="M620.921,-168.493C639.729,-161.877 661.479,-150.596 672.736,-132 690.229,-103.104 683.698,-87.9495 672.736,-56 669.017,-45.161 661.503,-34.9216 654.387,-26.9566"/>
<polygon fill="midnightblue" stroke="midnightblue" points="656.737,-24.3498 647.292,-19.5497 651.682,-29.1922 656.737,-24.3498"/>
</g>
<!-- Node10&#45;&gt;Node4 -->
<g id="edge23" class="edge"><title>Node10&#45;&gt;Node4</title>
<path fill="none" stroke="midnightblue" d="M534.612,-169.412C459.849,-158.346 330.168,-138.402 321.736,-132 304.358,-118.806 281.779,-59.7809 270.998,-29.3207"/>
<polygon fill="midnightblue" stroke="midnightblue" points="274.183,-27.8236 267.592,-19.5287 267.572,-30.1235 274.183,-27.8236"/>
</g>
<!-- Node10&#45;&gt;Node7 -->
<g id="edge25" class="edge"><title>Node10&#45;&gt;Node7</title>
<path fill="none" stroke="midnightblue" d="M570.447,-168.476C556.84,-160.621 537.781,-147.805 525.736,-132 515.212,-118.19 508.628,-99.4191 504.875,-85.5991"/>
<polygon fill="midnightblue" stroke="midnightblue" points="508.243,-84.6383 502.452,-75.7665 501.447,-86.3136 508.243,-84.6383"/>
</g>
<!-- Node10&#45;&gt;Node9 -->
<g id="edge24" class="edge"><title>Node10&#45;&gt;Node9</title>
<path fill="none" stroke="midnightblue" d="M586.076,-168.083C585.551,-161.006 584.8,-150.861 584.143,-141.986"/>
<polygon fill="midnightblue" stroke="midnightblue" points="587.614,-141.465 583.384,-131.751 580.633,-141.982 587.614,-141.465"/>
</g>
<!-- Node11&#45;&gt;Node3 -->
<g id="edge27" class="edge"><title>Node11&#45;&gt;Node3</title>
<path fill="none" stroke="midnightblue" d="M327.356,-227.918C463.389,-216.826 774.132,-191.18 778.736,-188 828.083,-153.918 843.282,-103.55 806.736,-56 792.274,-37.1835 732.458,-24.5676 688.07,-17.5959"/>
<polygon fill="midnightblue" stroke="midnightblue" points="688.419,-14.1089 678.007,-16.0692 687.368,-21.0297 688.419,-14.1089"/>
</g>
<!-- Node11&#45;&gt;Node4 -->
<g id="edge28" class="edge"><title>Node11&#45;&gt;Node4</title>
<path fill="none" stroke="midnightblue" d="M202.228,-228.558C141.199,-220.38 52.2145,-197.251 14.7361,-132 -2.08727,-102.71 -6.92973,-81.9139 14.7361,-56 37.257,-29.0635 128.482,-18.2262 194.231,-13.882"/>
<polygon fill="midnightblue" stroke="midnightblue" points="194.787,-17.3543 204.55,-13.2391 194.352,-10.3678 194.787,-17.3543"/>
</g>
<!-- Node12 -->
<g id="node12" class="node"><title>Node12</title>
<g id="a_node12"><a xlink:href="autogenerated_2data_2include_2thrift_2_xsens_segment_data_8h.html" target="_top" xlink:title="thrift/XsensSegmentData.h">
<polygon fill="none" stroke="black" points="197.236,-168.5 197.236,-187.5 332.236,-187.5 332.236,-168.5 197.236,-168.5"/>
<text text-anchor="middle" x="264.736" y="-175.5" font-family="Helvetica,sans-Serif" font-size="10.00">thrift/XsensSegmentData.h</text>
</a>
</g>
</g>
<!-- Node11&#45;&gt;Node12 -->
<g id="edge29" class="edge"><title>Node11&#45;&gt;Node12</title>
<path fill="none" stroke="midnightblue" d="M264.736,-224.083C264.736,-217.006 264.736,-206.861 264.736,-197.986"/>
<polygon fill="midnightblue" stroke="midnightblue" points="268.236,-197.751 264.736,-187.751 261.236,-197.751 268.236,-197.751"/>
</g>
<!-- Node13 -->
<g id="node13" class="node"><title>Node13</title>
<g id="a_node13"><a xlink:href="autogenerated_2data_2include_2thrift_2_xsens_status_8h.html" target="_top" xlink:title="thrift/XsensStatus.h">
<polygon fill="none" stroke="black" points="56.7361,-112.5 56.7361,-131.5 160.736,-131.5 160.736,-112.5 56.7361,-112.5"/>
<text text-anchor="middle" x="108.736" y="-119.5" font-family="Helvetica,sans-Serif" font-size="10.00">thrift/XsensStatus.h</text>
</a>
</g>
</g>
<!-- Node11&#45;&gt;Node13 -->
<g id="edge34" class="edge"><title>Node11&#45;&gt;Node13</title>
<path fill="none" stroke="midnightblue" d="M201.977,-226.547C174.784,-220.634 144.674,-209.377 124.736,-188 113.228,-175.661 109.627,-156.411 108.665,-142.057"/>
<polygon fill="midnightblue" stroke="midnightblue" points="112.157,-141.713 108.36,-131.822 105.16,-141.922 112.157,-141.713"/>
</g>
<!-- Node12&#45;&gt;Node3 -->
<g id="edge30" class="edge"><title>Node12&#45;&gt;Node3</title>
<path fill="none" stroke="midnightblue" d="M271.018,-168.239C280.812,-154.984 300.781,-129.523 321.736,-112 358.749,-81.0492 369.763,-73.4725 414.736,-56 471.723,-33.8602 541.326,-22.0419 587.454,-16.1577"/>
<polygon fill="midnightblue" stroke="midnightblue" points="588.003,-19.6166 597.501,-14.9226 587.149,-12.6689 588.003,-19.6166"/>
</g>
<!-- Node12&#45;&gt;Node4 -->
<g id="edge31" class="edge"><title>Node12&#45;&gt;Node4</title>
<path fill="none" stroke="midnightblue" d="M252.071,-168.489C219.788,-146.665 136.486,-89.479 129.736,-76 125.756,-68.0519 124.539,-63.211 129.736,-56 144.781,-35.1262 169.929,-23.7886 194.469,-17.6829"/>
<polygon fill="midnightblue" stroke="midnightblue" points="195.546,-21.0292 204.55,-15.4458 194.029,-14.1955 195.546,-21.0292"/>
</g>
<!-- Node12&#45;&gt;Node7 -->
<g id="edge33" class="edge"><title>Node12&#45;&gt;Node7</title>
<path fill="none" stroke="midnightblue" d="M305.107,-168.496C335.443,-161.202 377.484,-149.138 411.736,-132 438.547,-118.585 465.879,-97.2414 483.051,-82.7003"/>
<polygon fill="midnightblue" stroke="midnightblue" points="485.767,-84.9793 491.047,-75.7943 481.191,-79.6814 485.767,-84.9793"/>
</g>
<!-- Node12&#45;&gt;Node9 -->
<g id="edge32" class="edge"><title>Node12&#45;&gt;Node9</title>
<path fill="none" stroke="midnightblue" d="M315.124,-168.444C372.24,-158.745 465.174,-142.963 525.121,-132.784"/>
<polygon fill="midnightblue" stroke="midnightblue" points="525.908,-136.2 535.181,-131.075 524.736,-129.299 525.908,-136.2"/>
</g>
<!-- Node13&#45;&gt;Node3 -->
<g id="edge35" class="edge"><title>Node13&#45;&gt;Node3</title>
<path fill="none" stroke="midnightblue" d="M133.275,-112.4C173.31,-98.6602 255.382,-71.7117 326.736,-56 417.646,-35.9823 525.53,-22.6578 587.375,-15.9971"/>
<polygon fill="midnightblue" stroke="midnightblue" points="588.06,-19.4442 597.634,-14.908 587.321,-12.4833 588.06,-19.4442"/>
</g>
<!-- Node13&#45;&gt;Node4 -->
<g id="edge36" class="edge"><title>Node13&#45;&gt;Node4</title>
<path fill="none" stroke="midnightblue" d="M103.372,-112.442C95.7046,-99.0015 83.8815,-72.7509 96.7361,-56 109.006,-40.0113 154.161,-28.4611 194.57,-21.0681"/>
<polygon fill="midnightblue" stroke="midnightblue" points="195.208,-24.5096 204.447,-19.324 193.991,-17.6163 195.208,-24.5096"/>
</g>
<!-- Node14&#45;&gt;Node3 -->
<g id="edge38" class="edge"><title>Node14&#45;&gt;Node3</title>
<path fill="none" stroke="midnightblue" d="M507.82,-230.89C615.983,-226.36 839.469,-213.94 862.736,-188 901.909,-144.327 899.93,-101.369 862.736,-56 841.115,-29.6262 747.766,-18.4016 688.308,-13.8596"/>
<polygon fill="midnightblue" stroke="midnightblue" points="688.215,-10.3437 677.988,-13.1119 687.709,-17.3254 688.215,-10.3437"/>
</g>
<!-- Node14&#45;&gt;Node4 -->
<g id="edge39" class="edge"><title>Node14&#45;&gt;Node4</title>
<path fill="none" stroke="midnightblue" d="M391.606,-228.117C288.986,-218.04 83.1627,-190.782 47.7361,-132 9.80714,-69.0654 118.445,-36.3093 195.384,-21.4357"/>
<polygon fill="midnightblue" stroke="midnightblue" points="196.352,-24.8156 205.539,-19.5394 195.067,-17.9345 196.352,-24.8156"/>
</g>
<!-- Node14&#45;&gt;Node13 -->
<g id="edge45" class="edge"><title>Node14&#45;&gt;Node13</title>
<path fill="none" stroke="midnightblue" d="M391.519,-226.53C325.715,-218.601 223.144,-204.208 187.736,-188 162.392,-176.398 138.432,-154.593 123.684,-139.455"/>
<polygon fill="midnightblue" stroke="midnightblue" points="125.9,-136.704 116.488,-131.838 120.811,-141.511 125.9,-136.704"/>
</g>
<!-- Node15 -->
<g id="node15" class="node"><title>Node15</title>
<g id="a_node15"><a xlink:href="autogenerated_2data_2include_2thrift_2_xsens_sensor_data_8h.html" target="_top" xlink:title="thrift/XsensSensorData.h">
<polygon fill="none" stroke="black" points="389.236,-168.5 389.236,-187.5 516.236,-187.5 516.236,-168.5 389.236,-168.5"/>
<text text-anchor="middle" x="452.736" y="-175.5" font-family="Helvetica,sans-Serif" font-size="10.00">thrift/XsensSensorData.h</text>
</a>
</g>
</g>
<!-- Node14&#45;&gt;Node15 -->
<g id="edge40" class="edge"><title>Node14&#45;&gt;Node15</title>
<path fill="none" stroke="midnightblue" d="M450.232,-224.083C450.625,-217.006 451.188,-206.861 451.681,-197.986"/>
<polygon fill="midnightblue" stroke="midnightblue" points="455.19,-197.93 452.25,-187.751 448.201,-197.542 455.19,-197.93"/>
</g>
<!-- Node15&#45;&gt;Node3 -->
<g id="edge41" class="edge"><title>Node15&#45;&gt;Node3</title>
<path fill="none" stroke="midnightblue" d="M501.437,-168.417C553.619,-158.729 630.158,-142.9 638.736,-132 661.925,-102.531 652.29,-55.3299 644.331,-29.4517"/>
<polygon fill="midnightblue" stroke="midnightblue" points="647.594,-28.1701 641.124,-19.7804 640.95,-30.3738 647.594,-28.1701"/>
</g>
<!-- Node15&#45;&gt;Node4 -->
<g id="edge42" class="edge"><title>Node15&#45;&gt;Node4</title>
<path fill="none" stroke="midnightblue" d="M389.233,-175.147C354.84,-170.74 314.279,-159.451 288.736,-132 262.684,-104.002 261.3,-56.1876 262.845,-29.8264"/>
<polygon fill="midnightblue" stroke="midnightblue" points="266.349,-29.9126 263.653,-19.6665 259.371,-29.3575 266.349,-29.9126"/>
</g>
<!-- Node15&#45;&gt;Node7 -->
<g id="edge44" class="edge"><title>Node15&#45;&gt;Node7</title>
<path fill="none" stroke="midnightblue" d="M456.503,-168.368C464.319,-150.456 482.442,-108.923 492.904,-84.9482"/>
<polygon fill="midnightblue" stroke="midnightblue" points="496.196,-86.1566 496.987,-75.5914 489.78,-83.357 496.196,-86.1566"/>
</g>
<!-- Node15&#45;&gt;Node9 -->
<g id="edge43" class="edge"><title>Node15&#45;&gt;Node9</title>
<path fill="none" stroke="midnightblue" d="M473.335,-168.444C494.73,-159.557 528.417,-145.563 552.76,-135.451"/>
<polygon fill="midnightblue" stroke="midnightblue" points="554.341,-138.585 562.234,-131.516 551.656,-132.12 554.341,-138.585"/>
</g>
</g>
</svg>
        <g id="navigator" transform="translate(0 0)" fill="#404254">
                <rect fill="#f2f5e9" fill-opacity="0.5" stroke="#606060" stroke-width=".5" x="0" y="0" width="60" height="60"/>
                <use id="zoomplus" xlink:href="#zoomPlus" x="17" y="9" onmousedown="handleZoom(evt,'in')"/>
                <use id="zoomminus" xlink:href="#zoomMin" x="42" y="9" onmousedown="handleZoom(evt,'out')"/>
                <use id="reset" xlink:href="#resetDef" x="30" y="36" onmousedown="handleReset()"/>
                <g id="arrowUp" xlink:href="#dirArrow" transform="translate(30 24)" onmousedown="handlePan(0,-1)">
                  <use xlink:href="#rim" fill="#404040">
                        <set attributeName="fill" to="#808080" begin="arrowUp.mouseover" end="arrowUp.mouseout"/>
                  </use>
                  <path fill="none" stroke="white" stroke-width="1.5" d="M0,-3.0v7 M-2.5,-0.5L0,-3.0L2.5,-0.5"/>
                </g>
                <g id="arrowRight" xlink:href="#dirArrow" transform="rotate(90) translate(36 -43)" onmousedown="handlePan(1,0)">
                  <use xlink:href="#rim" fill="#404040">
                        <set attributeName="fill" to="#808080" begin="arrowRight.mouseover" end="arrowRight.mouseout"/>
                  </use>
                  <path fill="none" stroke="white" stroke-width="1.5" d="M0,-3.0v7 M-2.5,-0.5L0,-3.0L2.5,-0.5"/>
                </g>
                <g id="arrowDown" xlink:href="#dirArrow" transform="rotate(180) translate(-30 -48)" onmousedown="handlePan(0,1)">
                  <use xlink:href="#rim" fill="#404040">
                        <set attributeName="fill" to="#808080" begin="arrowDown.mouseover" end="arrowDown.mouseout"/>
                  </use>
                  <path fill="none" stroke="white" stroke-width="1.5" d="M0,-3.0v7 M-2.5,-0.5L0,-3.0L2.5,-0.5"/>
                </g>
                <g id="arrowLeft" xlink:href="#dirArrow" transform="rotate(270) translate(-36 17)" onmousedown="handlePan(-1,0)">
                  <use xlink:href="#rim" fill="#404040">
                        <set attributeName="fill" to="#808080" begin="arrowLeft.mouseover" end="arrowLeft.mouseout"/>
                  </use>
                  <path fill="none" stroke="white" stroke-width="1.5" d="M0,-3.0v7 M-2.5,-0.5L0,-3.0L2.5,-0.5"/>
                </g>
        </g>
        <svg viewBox="0 0 15 15" width="100%" height="30px" preserveAspectRatio="xMaxYMin meet">
         <g id="arrow_out" transform="scale(0.3 0.3)">
          <a xlink:href="_xsens_frame__index_8h__incl_org.svg" target="_base">
           <rect id="button" ry="5" rx="5" y="6" x="6" height="38" width="38"
                fill="#f2f5e9" fill-opacity="0.5" stroke="#606060" stroke-width="1.0"/>
           <path id="arrow"
             d="M 11.500037,31.436501 C 11.940474,20.09759 22.043105,11.32322 32.158766,21.979434 L 37.068811,17.246167 C 37.068811,17.246167 37.088388,32 37.088388,32 L 22.160133,31.978069 C 22.160133,31.978069 26.997745,27.140456 26.997745,27.140456 C 18.528582,18.264221 13.291696,25.230495 11.500037,31.436501 z"
             style="fill:#404040;"/>
          </a>
         </g>
        </svg>
</svg>
