<?xml version="1.0" encoding="UTF-8" standalone="no"?>
<!DOCTYPE svg PUBLIC "-//W3C//DTD SVG 1.1//EN"
 "http://www.w3.org/Graphics/SVG/1.1/DTD/svg11.dtd">
<!-- Generated by graphviz version 2.36.0 (20140111.2315)
 -->
<!-- Title: /home/travis/build/robotology/human&#45;dynamics&#45;estimation/build/ros&#45;msgs/autogenerated/msgs/include/geometry_msgs_Quaternion.h Pages: 1 -->
<svg width="1425pt" height="472pt"
 viewBox="0.00 0.00 1425.00 472.00" xmlns="http://www.w3.org/2000/svg" xmlns:xlink="http://www.w3.org/1999/xlink">
<g id="graph0" class="graph" transform="scale(1 1) rotate(0) translate(4 468)">
<title>/home/travis/build/robotology/human&#45;dynamics&#45;estimation/build/ros&#45;msgs/autogenerated/msgs/include/geometry_msgs_Quaternion.h</title>
<!-- Node1 -->
<g id="node1" class="node"><title>Node1</title>
<polygon fill="#bfbfbf" stroke="black" points="458,-400.5 458,-463.5 608,-463.5 608,-400.5 458,-400.5"/>
<text text-anchor="start" x="466" y="-451.5" font-family="Helvetica,sans-Serif" font-size="10.00">/home/travis/build</text>
<text text-anchor="start" x="466" y="-440.5" font-family="Helvetica,sans-Serif" font-size="10.00">/robotology/human&#45;dynamics</text>
<text text-anchor="start" x="466" y="-429.5" font-family="Helvetica,sans-Serif" font-size="10.00">&#45;estimation/build/ros&#45;msgs</text>
<text text-anchor="start" x="466" y="-418.5" font-family="Helvetica,sans-Serif" font-size="10.00">/autogenerated/msgs/include</text>
<text text-anchor="middle" x="533" y="-407.5" font-family="Helvetica,sans-Serif" font-size="10.00">/geometry_msgs_Quaternion.h</text>
</g>
<!-- Node2 -->
<g id="node2" class="node"><title>Node2</title>
<g id="a_node2"><a xlink:href="ros-msgs_2__yarp__idl___2msgs_2geometry__msgs_2_quaternion_8h.html" target="_top" xlink:title="/home/travis/build\l/robotology/human&#45;dynamics\l&#45;estimation/build/ros&#45;msgs\l/_yarp_idl_/msgs/geometry\l_msgs/Quaternion.h">
<polygon fill="none" stroke="black" points="0,-300.5 0,-363.5 142,-363.5 142,-300.5 0,-300.5"/>
<text text-anchor="start" x="8" y="-351.5" font-family="Helvetica,sans-Serif" font-size="10.00">/home/travis/build</text>
<text text-anchor="start" x="8" y="-340.5" font-family="Helvetica,sans-Serif" font-size="10.00">/robotology/human&#45;dynamics</text>
<text text-anchor="start" x="8" y="-329.5" font-family="Helvetica,sans-Serif" font-size="10.00">&#45;estimation/build/ros&#45;msgs</text>
<text text-anchor="start" x="8" y="-318.5" font-family="Helvetica,sans-Serif" font-size="10.00">/_yarp_idl_/msgs/geometry</text>
<text text-anchor="middle" x="71" y="-307.5" font-family="Helvetica,sans-Serif" font-size="10.00">_msgs/Quaternion.h</text>
</a>
</g>
</g>
<!-- Node1&#45;&gt;Node2 -->
<g id="edge1" class="edge"><title>Node1&#45;&gt;Node2</title>
<path fill="none" stroke="midnightblue" d="M447.456,-420.883C369.328,-410.495 251.097,-391.881 151,-364 148.13,-363.201 145.221,-362.337 142.295,-361.424"/>
<polygon fill="midnightblue" stroke="midnightblue" points="447.361,-424.4 457.732,-422.232 448.273,-417.46 447.361,-424.4"/>
</g>
<!-- Node3 -->
<g id="node3" class="node"><title>Node3</title>
<g id="a_node3"><a xlink:href="ros-msgs_2autogenerated_2msgs_2include_2geometry__msgs_2_quaternion_8h.html" target="_top" xlink:title="/home/travis/build\l/robotology/human&#45;dynamics\l&#45;estimation/build/ros&#45;msgs\l/autogenerated/msgs/include\l/geometry_msgs/Quaternion.h">
<polygon fill="none" stroke="black" points="160,-300.5 160,-363.5 308,-363.5 308,-300.5 160,-300.5"/>
<text text-anchor="start" x="168" y="-351.5" font-family="Helvetica,sans-Serif" font-size="10.00">/home/travis/build</text>
<text text-anchor="start" x="168" y="-340.5" font-family="Helvetica,sans-Serif" font-size="10.00">/robotology/human&#45;dynamics</text>
<text text-anchor="start" x="168" y="-329.5" font-family="Helvetica,sans-Serif" font-size="10.00">&#45;estimation/build/ros&#45;msgs</text>
<text text-anchor="start" x="168" y="-318.5" font-family="Helvetica,sans-Serif" font-size="10.00">/autogenerated/msgs/include</text>
<text text-anchor="middle" x="234" y="-307.5" font-family="Helvetica,sans-Serif" font-size="10.00">/geometry_msgs/Quaternion.h</text>
</a>
</g>
</g>
<!-- Node1&#45;&gt;Node3 -->
<g id="edge2" class="edge"><title>Node1&#45;&gt;Node3</title>
<path fill="none" stroke="midnightblue" d="M447.99,-404.671C409.439,-392.56 363.326,-377.837 322,-364 317.546,-362.509 312.971,-360.957 308.361,-359.379"/>
<polygon fill="midnightblue" stroke="midnightblue" points="447.032,-408.038 457.621,-407.692 449.126,-401.359 447.032,-408.038"/>
</g>
<!-- Node4 -->
<g id="node4" class="node"><title>Node4</title>
<g id="a_node4"><a xlink:href="autogenerated_2msgs_2include_2geometry__msgs___transform_8h.html" target="_top" xlink:title="/home/travis/build\l/robotology/human&#45;dynamics\l&#45;estimation/build/ros&#45;msgs\l/autogenerated/msgs/include\l/geometry_msgs_Transform.h">
<polygon fill="none" stroke="black" points="631.5,-300.5 631.5,-363.5 778.5,-363.5 778.5,-300.5 631.5,-300.5"/>
<text text-anchor="start" x="639.5" y="-351.5" font-family="Helvetica,sans-Serif" font-size="10.00">/home/travis/build</text>
<text text-anchor="start" x="639.5" y="-340.5" font-family="Helvetica,sans-Serif" font-size="10.00">/robotology/human&#45;dynamics</text>
<text text-anchor="start" x="639.5" y="-329.5" font-family="Helvetica,sans-Serif" font-size="10.00">&#45;estimation/build/ros&#45;msgs</text>
<text text-anchor="start" x="639.5" y="-318.5" font-family="Helvetica,sans-Serif" font-size="10.00">/autogenerated/msgs/include</text>
<text text-anchor="middle" x="705" y="-307.5" font-family="Helvetica,sans-Serif" font-size="10.00">/geometry_msgs_Transform.h</text>
</a>
</g>
</g>
<!-- Node1&#45;&gt;Node4 -->
<g id="edge3" class="edge"><title>Node1&#45;&gt;Node4</title>
<path fill="none" stroke="midnightblue" d="M595.747,-395.249C613.946,-384.88 633.646,-373.655 651.241,-363.63"/>
<polygon fill="midnightblue" stroke="midnightblue" points="593.906,-392.269 586.95,-400.261 597.371,-398.352 593.906,-392.269"/>
</g>
<!-- Node7 -->
<g id="node7" class="node"><title>Node7</title>
<g id="a_node7"><a xlink:href="autogenerated_2msgs_2include_2geometry__msgs___transform_stamped_8h.html" target="_top" xlink:title="/home/travis/build\l/robotology/human&#45;dynamics\l&#45;estimation/build/ros&#45;msgs\l/autogenerated/msgs/include\l/geometry_msgs_TransformStamped.h">
<polygon fill="none" stroke="black" points="440,-200.5 440,-263.5 626,-263.5 626,-200.5 440,-200.5"/>
<text text-anchor="start" x="448" y="-251.5" font-family="Helvetica,sans-Serif" font-size="10.00">/home/travis/build</text>
<text text-anchor="start" x="448" y="-240.5" font-family="Helvetica,sans-Serif" font-size="10.00">/robotology/human&#45;dynamics</text>
<text text-anchor="start" x="448" y="-229.5" font-family="Helvetica,sans-Serif" font-size="10.00">&#45;estimation/build/ros&#45;msgs</text>
<text text-anchor="start" x="448" y="-218.5" font-family="Helvetica,sans-Serif" font-size="10.00">/autogenerated/msgs/include</text>
<text text-anchor="middle" x="533" y="-207.5" font-family="Helvetica,sans-Serif" font-size="10.00">/geometry_msgs_TransformStamped.h</text>
</a>
</g>
</g>
<!-- Node1&#45;&gt;Node7 -->
<g id="edge23" class="edge"><title>Node1&#45;&gt;Node7</title>
<path fill="none" stroke="midnightblue" d="M533,-390.375C533,-352.729 533,-297.563 533,-263.538"/>
<polygon fill="midnightblue" stroke="midnightblue" points="529.5,-390.496 533,-400.496 536.5,-390.496 529.5,-390.496"/>
</g>
<!-- Node10 -->
<g id="node10" class="node"><title>Node10</title>
<g id="a_node10"><a xlink:href="autogenerated_2msgs_2include_2tf2__msgs___t_f_message_8h.html" target="_top" xlink:title="/home/travis/build\l/robotology/human&#45;dynamics\l&#45;estimation/build/ros&#45;msgs\l/autogenerated/msgs/include\l/tf2_msgs_TFMessage.h">
<polygon fill="none" stroke="black" points="840,-100.5 840,-163.5 982,-163.5 982,-100.5 840,-100.5"/>
<text text-anchor="start" x="848" y="-151.5" font-family="Helvetica,sans-Serif" font-size="10.00">/home/travis/build</text>
<text text-anchor="start" x="848" y="-140.5" font-family="Helvetica,sans-Serif" font-size="10.00">/robotology/human&#45;dynamics</text>
<text text-anchor="start" x="848" y="-129.5" font-family="Helvetica,sans-Serif" font-size="10.00">&#45;estimation/build/ros&#45;msgs</text>
<text text-anchor="start" x="848" y="-118.5" font-family="Helvetica,sans-Serif" font-size="10.00">/autogenerated/msgs/include</text>
<text text-anchor="middle" x="911" y="-107.5" font-family="Helvetica,sans-Serif" font-size="10.00">/tf2_msgs_TFMessage.h</text>
</a>
</g>
</g>
<!-- Node1&#45;&gt;Node10 -->
<g id="edge24" class="edge"><title>Node1&#45;&gt;Node10</title>
<path fill="none" stroke="midnightblue" d="M618.411,-429.506C728.958,-422.307 916.884,-390.887 997,-264 1012.19,-239.949 1009.49,-225.557 997,-200 990.021,-185.715 978.362,-173.591 965.847,-163.748"/>
<polygon fill="midnightblue" stroke="midnightblue" points="618.062,-426.021 608.289,-430.112 618.481,-433.008 618.062,-426.021"/>
</g>
<!-- Node13 -->
<g id="node13" class="node"><title>Node13</title>
<g id="a_node13"><a xlink:href="_human_joint_state_bridge_8cpp.html" target="_top" xlink:title="/home/travis/build\l/robotology/human&#45;dynamics\l&#45;estimation/human&#45;viz&#45;bridge\l/src/HumanJointStateBridge.cpp">
<polygon fill="none" stroke="black" points="258,-6 258,-58 416,-58 416,-6 258,-6"/>
<text text-anchor="start" x="266" y="-46" font-family="Helvetica,sans-Serif" font-size="10.00">/home/travis/build</text>
<text text-anchor="start" x="266" y="-35" font-family="Helvetica,sans-Serif" font-size="10.00">/robotology/human&#45;dynamics</text>
<text text-anchor="start" x="266" y="-24" font-family="Helvetica,sans-Serif" font-size="10.00">&#45;estimation/human&#45;viz&#45;bridge</text>
<text text-anchor="middle" x="337" y="-13" font-family="Helvetica,sans-Serif" font-size="10.00">/src/HumanJointStateBridge.cpp</text>
</a>
</g>
</g>
<!-- Node1&#45;&gt;Node13 -->
<g id="edge26" class="edge"><title>Node1&#45;&gt;Node13</title>
<path fill="none" stroke="midnightblue" d="M470.657,-394.082C459.606,-385.336 449.07,-375.235 441,-364 370.192,-265.421 346.419,-116.959 339.506,-58.2142"/>
<polygon fill="midnightblue" stroke="midnightblue" points="468.677,-396.973 478.766,-400.209 472.897,-391.388 468.677,-396.973"/>
</g>
<!-- Node14 -->
<g id="node14" class="node"><title>Node14</title>
<g id="a_node14"><a xlink:href="_human_t_f_bridge_8cpp.html" target="_top" xlink:title="/home/travis/build\l/robotology/human&#45;dynamics\l&#45;estimation/human&#45;viz&#45;bridge\l/src/HumanTFBridge.cpp">
<polygon fill="none" stroke="black" points="939,-6 939,-58 1081,-58 1081,-6 939,-6"/>
<text text-anchor="start" x="947" y="-46" font-family="Helvetica,sans-Serif" font-size="10.00">/home/travis/build</text>
<text text-anchor="start" x="947" y="-35" font-family="Helvetica,sans-Serif" font-size="10.00">/robotology/human&#45;dynamics</text>
<text text-anchor="start" x="947" y="-24" font-family="Helvetica,sans-Serif" font-size="10.00">&#45;estimation/human&#45;viz&#45;bridge</text>
<text text-anchor="middle" x="1010" y="-13" font-family="Helvetica,sans-Serif" font-size="10.00">/src/HumanTFBridge.cpp</text>
</a>
</g>
</g>
<!-- Node1&#45;&gt;Node14 -->
<g id="edge27" class="edge"><title>Node1&#45;&gt;Node14</title>
<path fill="none" stroke="midnightblue" d="M618.236,-424.587C721.73,-415.515 889.028,-396.336 942,-364 989.192,-335.193 998.422,-316.421 1016,-264 1039.98,-192.492 1025.5,-101.431 1016.12,-58.101"/>
<polygon fill="midnightblue" stroke="midnightblue" points="617.779,-421.113 608.116,-425.46 618.38,-428.087 617.779,-421.113"/>
</g>
<!-- Node15 -->
<g id="node15" class="node"><title>Node15</title>
<g id="a_node15"><a xlink:href="_robot_base_pose_publisher_8cpp.html" target="_top" xlink:title="/home/travis/build\l/robotology/human&#45;dynamics\l&#45;estimation/human&#45;viz&#45;bridge\l/src/RobotBasePosePublisher.cpp">
<polygon fill="none" stroke="black" points="433.5,-6 433.5,-58 600.5,-58 600.5,-6 433.5,-6"/>
<text text-anchor="start" x="441.5" y="-46" font-family="Helvetica,sans-Serif" font-size="10.00">/home/travis/build</text>
<text text-anchor="start" x="441.5" y="-35" font-family="Helvetica,sans-Serif" font-size="10.00">/robotology/human&#45;dynamics</text>
<text text-anchor="start" x="441.5" y="-24" font-family="Helvetica,sans-Serif" font-size="10.00">&#45;estimation/human&#45;viz&#45;bridge</text>
<text text-anchor="middle" x="517" y="-13" font-family="Helvetica,sans-Serif" font-size="10.00">/src/RobotBasePosePublisher.cpp</text>
</a>
</g>
</g>
<!-- Node1&#45;&gt;Node15 -->
<g id="edge28" class="edge"><title>Node1&#45;&gt;Node15</title>
<path fill="none" stroke="midnightblue" d="M500.563,-392.02C476.092,-359.922 444.509,-312.035 431,-264 411.001,-192.889 423.049,-165.079 458,-100 466.213,-84.7069 478.533,-69.9711 489.794,-58.2321"/>
<polygon fill="midnightblue" stroke="midnightblue" points="498.041,-394.479 506.935,-400.236 503.572,-390.189 498.041,-394.479"/>
</g>
<!-- Node16 -->
<g id="node16" class="node"><title>Node16</title>
<g id="a_node16"><a xlink:href="autogenerated_2msgs_2include_2tf__tf_message_8h.html" target="_top" xlink:title="/home/travis/build\l/robotology/human&#45;dynamics\l&#45;estimation/build/ros&#45;msgs\l/autogenerated/msgs/include\l/tf_tfMessage.h">
<polygon fill="none" stroke="black" points="1082,-100.5 1082,-163.5 1224,-163.5 1224,-100.5 1082,-100.5"/>
<text text-anchor="start" x="1090" y="-151.5" font-family="Helvetica,sans-Serif" font-size="10.00">/home/travis/build</text>
<text text-anchor="start" x="1090" y="-140.5" font-family="Helvetica,sans-Serif" font-size="10.00">/robotology/human&#45;dynamics</text>
<text text-anchor="start" x="1090" y="-129.5" font-family="Helvetica,sans-Serif" font-size="10.00">&#45;estimation/build/ros&#45;msgs</text>
<text text-anchor="start" x="1090" y="-118.5" font-family="Helvetica,sans-Serif" font-size="10.00">/autogenerated/msgs/include</text>
<text text-anchor="middle" x="1153" y="-107.5" font-family="Helvetica,sans-Serif" font-size="10.00">/tf_tfMessage.h</text>
</a>
</g>
</g>
<!-- Node1&#45;&gt;Node16 -->
<g id="edge25" class="edge"><title>Node1&#45;&gt;Node16</title>
<path fill="none" stroke="midnightblue" d="M618.395,-430.821C751.512,-428.845 1000.28,-417.809 1068,-364 1130.4,-314.422 1146.99,-214.481 1151.4,-163.87"/>
<polygon fill="midnightblue" stroke="midnightblue" points="618.184,-427.324 608.232,-430.958 618.278,-434.323 618.184,-427.324"/>
</g>
<!-- Node5 -->
<g id="node5" class="node"><title>Node5</title>
<g id="a_node5"><a xlink:href="__yarp__idl___2msgs_2geometry__msgs_2_transform_8h.html" target="_top" xlink:title="/home/travis/build\l/robotology/human&#45;dynamics\l&#45;estimation/build/ros&#45;msgs\l/_yarp_idl_/msgs/geometry\l_msgs/Transform.h">
<polygon fill="none" stroke="black" points="846,-200.5 846,-263.5 988,-263.5 988,-200.5 846,-200.5"/>
<text text-anchor="start" x="854" y="-251.5" font-family="Helvetica,sans-Serif" font-size="10.00">/home/travis/build</text>
<text text-anchor="start" x="854" y="-240.5" font-family="Helvetica,sans-Serif" font-size="10.00">/robotology/human&#45;dynamics</text>
<text text-anchor="start" x="854" y="-229.5" font-family="Helvetica,sans-Serif" font-size="10.00">&#45;estimation/build/ros&#45;msgs</text>
<text text-anchor="start" x="854" y="-218.5" font-family="Helvetica,sans-Serif" font-size="10.00">/_yarp_idl_/msgs/geometry</text>
<text text-anchor="middle" x="917" y="-207.5" font-family="Helvetica,sans-Serif" font-size="10.00">_msgs/Transform.h</text>
</a>
</g>
</g>
<!-- Node4&#45;&gt;Node5 -->
<g id="edge4" class="edge"><title>Node4&#45;&gt;Node5</title>
<path fill="none" stroke="midnightblue" d="M780.574,-296.065C803.558,-285.44 828.626,-273.852 850.932,-263.541"/>
<polygon fill="midnightblue" stroke="midnightblue" points="778.815,-293.022 771.206,-300.395 781.752,-299.376 778.815,-293.022"/>
</g>
<!-- Node6 -->
<g id="node6" class="node"><title>Node6</title>
<g id="a_node6"><a xlink:href="autogenerated_2msgs_2include_2geometry__msgs_2_transform_8h.html" target="_top" xlink:title="/home/travis/build\l/robotology/human&#45;dynamics\l&#45;estimation/build/ros&#45;msgs\l/autogenerated/msgs/include\l/geometry_msgs/Transform.h">
<polygon fill="none" stroke="black" points="682.5,-200.5 682.5,-263.5 827.5,-263.5 827.5,-200.5 682.5,-200.5"/>
<text text-anchor="start" x="690.5" y="-251.5" font-family="Helvetica,sans-Serif" font-size="10.00">/home/travis/build</text>
<text text-anchor="start" x="690.5" y="-240.5" font-family="Helvetica,sans-Serif" font-size="10.00">/robotology/human&#45;dynamics</text>
<text text-anchor="start" x="690.5" y="-229.5" font-family="Helvetica,sans-Serif" font-size="10.00">&#45;estimation/build/ros&#45;msgs</text>
<text text-anchor="start" x="690.5" y="-218.5" font-family="Helvetica,sans-Serif" font-size="10.00">/autogenerated/msgs/include</text>
<text text-anchor="middle" x="755" y="-207.5" font-family="Helvetica,sans-Serif" font-size="10.00">/geometry_msgs/Transform.h</text>
</a>
</g>
</g>
<!-- Node4&#45;&gt;Node6 -->
<g id="edge5" class="edge"><title>Node4&#45;&gt;Node6</title>
<path fill="none" stroke="midnightblue" d="M725.279,-291.252C729.979,-282.042 734.909,-272.379 739.373,-263.63"/>
<polygon fill="midnightblue" stroke="midnightblue" points="722.11,-289.763 720.683,-300.261 728.346,-292.944 722.11,-289.763"/>
</g>
<!-- Node4&#45;&gt;Node7 -->
<g id="edge6" class="edge"><title>Node4&#45;&gt;Node7</title>
<path fill="none" stroke="midnightblue" d="M642.253,-295.249C624.054,-284.88 604.354,-273.655 586.759,-263.63"/>
<polygon fill="midnightblue" stroke="midnightblue" points="640.629,-298.352 651.05,-300.261 644.094,-292.269 640.629,-298.352"/>
</g>
<!-- Node4&#45;&gt;Node10 -->
<g id="edge21" class="edge"><title>Node4&#45;&gt;Node10</title>
<path fill="none" stroke="midnightblue" d="M679.628,-291.447C665.066,-263.249 653.37,-225.896 674,-200 718.607,-144.007 762.557,-184.988 831,-164 833.848,-163.127 836.74,-162.201 839.65,-161.235"/>
<polygon fill="midnightblue" stroke="midnightblue" points="676.567,-293.143 684.42,-300.255 682.716,-289.798 676.567,-293.143"/>
</g>
<!-- Node4&#45;&gt;Node16 -->
<g id="edge22" class="edge"><title>Node4&#45;&gt;Node16</title>
<path fill="none" stroke="midnightblue" d="M788.979,-322.393C849.337,-313.717 931.312,-296.711 997,-264 1047.81,-238.697 1096.23,-193.63 1125.28,-163.526"/>
<polygon fill="midnightblue" stroke="midnightblue" points="788.152,-318.974 778.728,-323.817 789.115,-325.908 788.152,-318.974"/>
</g>
<!-- Node8 -->
<g id="node8" class="node"><title>Node8</title>
<g id="a_node8"><a xlink:href="__yarp__idl___2msgs_2geometry__msgs_2_transform_stamped_8h.html" target="_top" xlink:title="/home/travis/build\l/robotology/human&#45;dynamics\l&#45;estimation/build/ros&#45;msgs\l/_yarp_idl_/msgs/geometry\l_msgs/TransformStamped.h">
<polygon fill="none" stroke="black" points="478,-100.5 478,-163.5 620,-163.5 620,-100.5 478,-100.5"/>
<text text-anchor="start" x="486" y="-151.5" font-family="Helvetica,sans-Serif" font-size="10.00">/home/travis/build</text>
<text text-anchor="start" x="486" y="-140.5" font-family="Helvetica,sans-Serif" font-size="10.00">/robotology/human&#45;dynamics</text>
<text text-anchor="start" x="486" y="-129.5" font-family="Helvetica,sans-Serif" font-size="10.00">&#45;estimation/build/ros&#45;msgs</text>
<text text-anchor="start" x="486" y="-118.5" font-family="Helvetica,sans-Serif" font-size="10.00">/_yarp_idl_/msgs/geometry</text>
<text text-anchor="middle" x="549" y="-107.5" font-family="Helvetica,sans-Serif" font-size="10.00">_msgs/TransformStamped.h</text>
</a>
</g>
</g>
<!-- Node7&#45;&gt;Node8 -->
<g id="edge7" class="edge"><title>Node7&#45;&gt;Node8</title>
<path fill="none" stroke="midnightblue" d="M539.631,-190.387C541.092,-181.439 542.615,-172.106 543.999,-163.63"/>
<polygon fill="midnightblue" stroke="midnightblue" points="536.176,-189.828 538.019,-200.261 543.084,-190.956 536.176,-189.828"/>
</g>
<!-- Node9 -->
<g id="node9" class="node"><title>Node9</title>
<g id="a_node9"><a xlink:href="autogenerated_2msgs_2include_2geometry__msgs_2_transform_stamped_8h.html" target="_top" xlink:title="/home/travis/build\l/robotology/human&#45;dynamics\l&#45;estimation/build/ros&#45;msgs\l/autogenerated/msgs/include\l/geometry_msgs/TransformStamped.h">
<polygon fill="none" stroke="black" points="638,-100.5 638,-163.5 822,-163.5 822,-100.5 638,-100.5"/>
<text text-anchor="start" x="646" y="-151.5" font-family="Helvetica,sans-Serif" font-size="10.00">/home/travis/build</text>
<text text-anchor="start" x="646" y="-140.5" font-family="Helvetica,sans-Serif" font-size="10.00">/robotology/human&#45;dynamics</text>
<text text-anchor="start" x="646" y="-129.5" font-family="Helvetica,sans-Serif" font-size="10.00">&#45;estimation/build/ros&#45;msgs</text>
<text text-anchor="start" x="646" y="-118.5" font-family="Helvetica,sans-Serif" font-size="10.00">/autogenerated/msgs/include</text>
<text text-anchor="middle" x="730" y="-107.5" font-family="Helvetica,sans-Serif" font-size="10.00">/geometry_msgs/TransformStamped.h</text>
</a>
</g>
</g>
<!-- Node7&#45;&gt;Node9 -->
<g id="edge8" class="edge"><title>Node7&#45;&gt;Node9</title>
<path fill="none" stroke="midnightblue" d="M603.512,-195.923C624.791,-185.337 647.971,-173.806 668.606,-163.541"/>
<polygon fill="midnightblue" stroke="midnightblue" points="601.916,-192.808 594.522,-200.395 605.034,-199.075 601.916,-192.808"/>
</g>
<!-- Node7&#45;&gt;Node10 -->
<g id="edge9" class="edge"><title>Node7&#45;&gt;Node10</title>
<path fill="none" stroke="midnightblue" d="M636.169,-200.925C637.453,-200.611 638.73,-200.303 640,-200 724.026,-179.958 747.933,-187.706 831,-164 833.865,-163.182 836.77,-162.303 839.692,-161.378"/>
<polygon fill="midnightblue" stroke="midnightblue" points="635.078,-197.59 626.231,-203.42 636.782,-204.38 635.078,-197.59"/>
</g>
<!-- Node7&#45;&gt;Node13 -->
<g id="edge18" class="edge"><title>Node7&#45;&gt;Node13</title>
<path fill="none" stroke="midnightblue" d="M489.7,-193.593C479.147,-184.13 468.017,-173.852 458,-164 422.02,-128.613 382.804,-85.1806 359.059,-58.2941"/>
<polygon fill="midnightblue" stroke="midnightblue" points="487.463,-196.287 497.259,-200.322 492.117,-191.058 487.463,-196.287"/>
</g>
<!-- Node7&#45;&gt;Node14 -->
<g id="edge19" class="edge"><title>Node7&#45;&gt;Node14</title>
<path fill="none" stroke="midnightblue" d="M636.172,-207.033C648.875,-204.462 661.709,-202.043 674,-200 743.937,-188.373 940.098,-213.35 991,-164 1019.05,-136.806 1018.22,-87.9606 1014.5,-58.2118"/>
<polygon fill="midnightblue" stroke="midnightblue" points="635.113,-203.678 626.025,-209.124 636.526,-210.534 635.113,-203.678"/>
</g>
<!-- Node7&#45;&gt;Node15 -->
<g id="edge20" class="edge"><title>Node7&#45;&gt;Node15</title>
<path fill="none" stroke="midnightblue" d="M487.268,-192.719C479.811,-184.106 473.17,-174.403 469,-164 458.416,-137.598 460.3,-127.081 469,-100 473.902,-84.7419 483.702,-70.0104 493.176,-58.2653"/>
<polygon fill="midnightblue" stroke="midnightblue" points="484.937,-195.353 494.299,-200.312 490.073,-190.597 484.937,-195.353"/>
</g>
<!-- Node7&#45;&gt;Node16 -->
<g id="edge15" class="edge"><title>Node7&#45;&gt;Node16</title>
<path fill="none" stroke="midnightblue" d="M636.151,-206.907C648.858,-204.357 661.699,-201.978 674,-200 828.392,-175.17 869.856,-190.328 1024,-164 1042.84,-160.781 1063.03,-156.391 1081.71,-151.927"/>
<polygon fill="midnightblue" stroke="midnightblue" points="635.098,-203.55 626.002,-208.983 636.501,-210.407 635.098,-203.55"/>
</g>
<!-- Node11 -->
<g id="node11" class="node"><title>Node11</title>
<g id="a_node11"><a xlink:href="__yarp__idl___2msgs_2tf2__msgs_2_t_f_message_8h.html" target="_top" xlink:title="/home/travis/build\l/robotology/human&#45;dynamics\l&#45;estimation/build/ros&#45;msgs\l/_yarp_idl_/msgs/tf2_msgs\l/TFMessage.h">
<polygon fill="none" stroke="black" points="619,-0.5 619,-63.5 761,-63.5 761,-0.5 619,-0.5"/>
<text text-anchor="start" x="627" y="-51.5" font-family="Helvetica,sans-Serif" font-size="10.00">/home/travis/build</text>
<text text-anchor="start" x="627" y="-40.5" font-family="Helvetica,sans-Serif" font-size="10.00">/robotology/human&#45;dynamics</text>
<text text-anchor="start" x="627" y="-29.5" font-family="Helvetica,sans-Serif" font-size="10.00">&#45;estimation/build/ros&#45;msgs</text>
<text text-anchor="start" x="627" y="-18.5" font-family="Helvetica,sans-Serif" font-size="10.00">/_yarp_idl_/msgs/tf2_msgs</text>
<text text-anchor="middle" x="690" y="-7.5" font-family="Helvetica,sans-Serif" font-size="10.00">/TFMessage.h</text>
</a>
</g>
</g>
<!-- Node10&#45;&gt;Node11 -->
<g id="edge10" class="edge"><title>Node10&#45;&gt;Node11</title>
<path fill="none" stroke="midnightblue" d="M832.537,-96.2062C808.49,-85.5433 782.229,-73.8979 758.873,-63.541"/>
<polygon fill="midnightblue" stroke="midnightblue" points="831.423,-99.5411 841.983,-100.395 834.261,-93.142 831.423,-99.5411"/>
</g>
<!-- Node12 -->
<g id="node12" class="node"><title>Node12</title>
<g id="a_node12"><a xlink:href="autogenerated_2msgs_2include_2tf2__msgs_2_t_f_message_8h.html" target="_top" xlink:title="/home/travis/build\l/robotology/human&#45;dynamics\l&#45;estimation/build/ros&#45;msgs\l/autogenerated/msgs/include\l/tf2_msgs/TFMessage.h">
<polygon fill="none" stroke="black" points="779,-0.5 779,-63.5 921,-63.5 921,-0.5 779,-0.5"/>
<text text-anchor="start" x="787" y="-51.5" font-family="Helvetica,sans-Serif" font-size="10.00">/home/travis/build</text>
<text text-anchor="start" x="787" y="-40.5" font-family="Helvetica,sans-Serif" font-size="10.00">/robotology/human&#45;dynamics</text>
<text text-anchor="start" x="787" y="-29.5" font-family="Helvetica,sans-Serif" font-size="10.00">&#45;estimation/build/ros&#45;msgs</text>
<text text-anchor="start" x="787" y="-18.5" font-family="Helvetica,sans-Serif" font-size="10.00">/autogenerated/msgs/include</text>
<text text-anchor="middle" x="850" y="-7.5" font-family="Helvetica,sans-Serif" font-size="10.00">/tf2_msgs/TFMessage.h</text>
</a>
</g>
</g>
<!-- Node10&#45;&gt;Node12 -->
<g id="edge11" class="edge"><title>Node10&#45;&gt;Node12</title>
<path fill="none" stroke="midnightblue" d="M886.438,-91.5399C880.651,-82.2433 874.568,-72.4702 869.066,-63.6299"/>
<polygon fill="midnightblue" stroke="midnightblue" points="883.611,-93.6209 891.867,-100.261 889.554,-89.9218 883.611,-93.6209"/>
</g>
<!-- Node10&#45;&gt;Node13 -->
<g id="edge12" class="edge"><title>Node10&#45;&gt;Node13</title>
<path fill="none" stroke="midnightblue" d="M829.853,-99.9901C652.197,-60.3484 598.199,-102.088 424,-64 416.638,-62.3903 409.046,-60.3267 401.558,-58.0302"/>
<polygon fill="midnightblue" stroke="midnightblue" points="829.257,-103.444 839.786,-102.262 830.818,-96.6204 829.257,-103.444"/>
</g>
<!-- Node10&#45;&gt;Node14 -->
<g id="edge13" class="edge"><title>Node10&#45;&gt;Node14</title>
<path fill="none" stroke="midnightblue" d="M949.298,-93.089C961.164,-81.3423 973.937,-68.6983 984.691,-58.0536"/>
<polygon fill="midnightblue" stroke="midnightblue" points="946.697,-90.7385 942.053,-100.261 951.622,-95.7134 946.697,-90.7385"/>
</g>
<!-- Node10&#45;&gt;Node15 -->
<g id="edge14" class="edge"><title>Node10&#45;&gt;Node15</title>
<path fill="none" stroke="midnightblue" d="M829.824,-99.8915C733.074,-74.7386 703.512,-87.0441 610,-64 602.894,-62.249 595.552,-60.2115 588.253,-58.0334"/>
<polygon fill="midnightblue" stroke="midnightblue" points="829.153,-103.335 839.717,-102.532 830.958,-96.5716 829.153,-103.335"/>
</g>
<!-- Node17 -->
<g id="node17" class="node"><title>Node17</title>
<g id="a_node17"><a xlink:href="__yarp__idl___2msgs_2tf_2tf_message_8h.html" target="_top" xlink:title="/home/travis/build\l/robotology/human&#45;dynamics\l&#45;estimation/build/ros&#45;msgs\l/_yarp_idl_/msgs/tf/tfMessage.h">
<polygon fill="none" stroke="black" points="1099.5,-6 1099.5,-58 1256.5,-58 1256.5,-6 1099.5,-6"/>
<text text-anchor="start" x="1107.5" y="-46" font-family="Helvetica,sans-Serif" font-size="10.00">/home/travis/build</text>
<text text-anchor="start" x="1107.5" y="-35" font-family="Helvetica,sans-Serif" font-size="10.00">/robotology/human&#45;dynamics</text>
<text text-anchor="start" x="1107.5" y="-24" font-family="Helvetica,sans-Serif" font-size="10.00">&#45;estimation/build/ros&#45;msgs</text>
<text text-anchor="middle" x="1178" y="-13" font-family="Helvetica,sans-Serif" font-size="10.00">/_yarp_idl_/msgs/tf/tfMessage.h</text>
</a>
</g>
</g>
<!-- Node16&#45;&gt;Node17 -->
<g id="edge16" class="edge"><title>Node16&#45;&gt;Node17</title>
<path fill="none" stroke="midnightblue" d="M1163.35,-90.4152C1166.15,-79.4451 1169.1,-67.8949 1171.61,-58.0536"/>
<polygon fill="midnightblue" stroke="midnightblue" points="1159.92,-89.7062 1160.84,-100.261 1166.7,-91.4366 1159.92,-89.7062"/>
</g>
<!-- Node18 -->
<g id="node18" class="node"><title>Node18</title>
<g id="a_node18"><a xlink:href="autogenerated_2msgs_2include_2tf_2tf_message_8h.html" target="_top" xlink:title="/home/travis/build\l/robotology/human&#45;dynamics\l&#45;estimation/build/ros&#45;msgs\l/autogenerated/msgs/include\l/tf/tfMessage.h">
<polygon fill="none" stroke="black" points="1275,-0.5 1275,-63.5 1417,-63.5 1417,-0.5 1275,-0.5"/>
<text text-anchor="start" x="1283" y="-51.5" font-family="Helvetica,sans-Serif" font-size="10.00">/home/travis/build</text>
<text text-anchor="start" x="1283" y="-40.5" font-family="Helvetica,sans-Serif" font-size="10.00">/robotology/human&#45;dynamics</text>
<text text-anchor="start" x="1283" y="-29.5" font-family="Helvetica,sans-Serif" font-size="10.00">&#45;estimation/build/ros&#45;msgs</text>
<text text-anchor="start" x="1283" y="-18.5" font-family="Helvetica,sans-Serif" font-size="10.00">/autogenerated/msgs/include</text>
<text text-anchor="middle" x="1346" y="-7.5" font-family="Helvetica,sans-Serif" font-size="10.00">/tf/tfMessage.h</text>
</a>
</g>
</g>
<!-- Node16&#45;&gt;Node18 -->
<g id="edge17" class="edge"><title>Node16&#45;&gt;Node18</title>
<path fill="none" stroke="midnightblue" d="M1222.36,-95.7811C1243.13,-85.2343 1265.73,-73.7604 1285.85,-63.541"/>
<polygon fill="midnightblue" stroke="midnightblue" points="1220.6,-92.747 1213.27,-100.395 1223.77,-98.9885 1220.6,-92.747"/>
</g>
</g>
</svg>
