<?xml version="1.0" encoding="UTF-8" standalone="no"?>
<!DOCTYPE svg PUBLIC "-//W3C//DTD SVG 1.1//EN"
 "http://www.w3.org/Graphics/SVG/1.1/DTD/svg11.dtd">
<!-- Generated by graphviz version 2.36.0 (20140111.2315)
 -->
<!-- Title: /home/travis/build/robotology/human&#45;dynamics&#45;estimation/build/ros&#45;msgs/autogenerated/msgs/include/geometry_msgs_WrenchStamped.h Pages: 1 -->
<svg width="662pt" height="352pt"
 viewBox="0.00 0.00 662.00 352.00" xmlns="http://www.w3.org/2000/svg" xmlns:xlink="http://www.w3.org/1999/xlink">
<g id="graph0" class="graph" transform="scale(1 1) rotate(0) translate(4 348)">
<title>/home/travis/build/robotology/human&#45;dynamics&#45;estimation/build/ros&#45;msgs/autogenerated/msgs/include/geometry_msgs_WrenchStamped.h</title>
<!-- Node1 -->
<g id="node1" class="node"><title>Node1</title>
<polygon fill="#bfbfbf" stroke="black" points="244,-280.5 244,-343.5 420,-343.5 420,-280.5 244,-280.5"/>
<text text-anchor="start" x="252" y="-331.5" font-family="Helvetica,sans-Serif" font-size="10.00">/home/travis/build</text>
<text text-anchor="start" x="252" y="-320.5" font-family="Helvetica,sans-Serif" font-size="10.00">/robotology/human&#45;dynamics</text>
<text text-anchor="start" x="252" y="-309.5" font-family="Helvetica,sans-Serif" font-size="10.00">&#45;estimation/build/ros&#45;msgs</text>
<text text-anchor="start" x="252" y="-298.5" font-family="Helvetica,sans-Serif" font-size="10.00">/autogenerated/msgs/include</text>
<text text-anchor="middle" x="332" y="-287.5" font-family="Helvetica,sans-Serif" font-size="10.00">/geometry_msgs_WrenchStamped.h</text>
</g>
<!-- Node2 -->
<g id="node2" class="node"><title>Node2</title>
<polygon fill="none" stroke="#bfbfbf" points="120.5,-0.5 120.5,-19.5 161.5,-19.5 161.5,-0.5 120.5,-0.5"/>
<text text-anchor="middle" x="141" y="-7.5" font-family="Helvetica,sans-Serif" font-size="10.00">string</text>
</g>
<!-- Node1&#45;&gt;Node2 -->
<g id="edge1" class="edge"><title>Node1&#45;&gt;Node2</title>
<path fill="none" stroke="midnightblue" d="M243.902,-293.978C145.545,-272.392 0,-231.568 0,-179 0,-179 0,-179 0,-121 0,-65.2128 69.4642,-33.547 110.88,-19.6251"/>
<polygon fill="midnightblue" stroke="midnightblue" points="112.045,-22.9271 120.497,-16.5397 109.906,-16.2617 112.045,-22.9271"/>
</g>
<!-- Node3 -->
<g id="node3" class="node"><title>Node3</title>
<polygon fill="none" stroke="#bfbfbf" points="180,-0.5 180,-19.5 224,-19.5 224,-0.5 180,-0.5"/>
<text text-anchor="middle" x="202" y="-7.5" font-family="Helvetica,sans-Serif" font-size="10.00">vector</text>
</g>
<!-- Node1&#45;&gt;Node3 -->
<g id="edge2" class="edge"><title>Node1&#45;&gt;Node3</title>
<path fill="none" stroke="midnightblue" d="M243.899,-301.766C169.848,-288.548 76,-256.507 76,-179 76,-179 76,-179 76,-121 76,-71.0196 132.957,-38.5223 170.282,-22.5922"/>
<polygon fill="midnightblue" stroke="midnightblue" points="171.831,-25.7404 179.764,-18.7177 169.183,-19.2606 171.831,-25.7404"/>
</g>
<!-- Node4 -->
<g id="node4" class="node"><title>Node4</title>
<polygon fill="none" stroke="#bfbfbf" points="540,-0.5 540,-19.5 620,-19.5 620,-0.5 540,-0.5"/>
<text text-anchor="middle" x="580" y="-7.5" font-family="Helvetica,sans-Serif" font-size="10.00">yarp/os/Wire.h</text>
</g>
<!-- Node1&#45;&gt;Node4 -->
<g id="edge3" class="edge"><title>Node1&#45;&gt;Node4</title>
<path fill="none" stroke="midnightblue" d="M420.414,-292.822C515.739,-270.617 654,-229.675 654,-179 654,-179 654,-179 654,-121 654,-81.6105 620.93,-45.7264 599.004,-26.264"/>
<polygon fill="midnightblue" stroke="midnightblue" points="601.117,-23.466 591.239,-19.6358 596.573,-28.7902 601.117,-23.466"/>
</g>
<!-- Node5 -->
<g id="node5" class="node"><title>Node5</title>
<polygon fill="none" stroke="#bfbfbf" points="402,-0.5 402,-19.5 522,-19.5 522,-0.5 402,-0.5"/>
<text text-anchor="middle" x="462" y="-7.5" font-family="Helvetica,sans-Serif" font-size="10.00">yarp/os/idl/WireTypes.h</text>
</g>
<!-- Node1&#45;&gt;Node5 -->
<g id="edge4" class="edge"><title>Node1&#45;&gt;Node5</title>
<path fill="none" stroke="midnightblue" d="M371.061,-280.491C383.828,-269.638 397.635,-256.895 409,-244 448.61,-199.056 460.639,-187.165 484,-132 497.335,-100.511 506.871,-88.4222 496,-56 492.396,-45.2512 485.097,-35.0204 478.183,-27.0378"/>
<polygon fill="midnightblue" stroke="midnightblue" points="480.655,-24.5561 471.288,-19.6053 475.523,-29.3168 480.655,-24.5561"/>
</g>
<!-- Node6 -->
<g id="node6" class="node"><title>Node6</title>
<g id="a_node6"><a xlink:href="autogenerated_2msgs_2include_2_tick_time_8h.html" target="_top" xlink:title="TickTime.h">
<polygon fill="none" stroke="black" points="218.5,-56.5 218.5,-75.5 283.5,-75.5 283.5,-56.5 218.5,-56.5"/>
<text text-anchor="middle" x="251" y="-63.5" font-family="Helvetica,sans-Serif" font-size="10.00">TickTime.h</text>
</a>
</g>
</g>
<!-- Node1&#45;&gt;Node6 -->
<g id="edge5" class="edge"><title>Node1&#45;&gt;Node6</title>
<path fill="none" stroke="midnightblue" d="M246.886,-280.44C231.773,-271.103 218.004,-259.157 209,-244 177.878,-191.607 217.531,-117.64 238.95,-84.3854"/>
<polygon fill="midnightblue" stroke="midnightblue" points="242.045,-86.051 244.674,-75.7873 236.219,-82.1717 242.045,-86.051"/>
</g>
<!-- Node7 -->
<g id="node7" class="node"><title>Node7</title>
<g id="a_node7"><a xlink:href="autogenerated_2msgs_2include_2std__msgs___header_8h.html" target="_top" xlink:title="std_msgs_Header.h">
<polygon fill="none" stroke="black" points="332,-112.5 332,-131.5 436,-131.5 436,-112.5 332,-112.5"/>
<text text-anchor="middle" x="384" y="-119.5" font-family="Helvetica,sans-Serif" font-size="10.00">std_msgs_Header.h</text>
</a>
</g>
</g>
<!-- Node1&#45;&gt;Node7 -->
<g id="edge10" class="edge"><title>Node1&#45;&gt;Node7</title>
<path fill="none" stroke="midnightblue" d="M360.69,-280.421C380.503,-257.091 405.163,-223.084 416,-188 418.623,-179.507 418.704,-176.468 416,-168 412.659,-157.538 405.9,-147.428 399.451,-139.45"/>
<polygon fill="midnightblue" stroke="midnightblue" points="401.944,-136.981 392.751,-131.714 396.652,-141.564 401.944,-136.981"/>
</g>
<!-- Node8 -->
<g id="node8" class="node"><title>Node8</title>
<g id="a_node8"><a xlink:href="autogenerated_2msgs_2include_2geometry__msgs___vector3_8h.html" target="_top" xlink:title="geometry_msgs_Vector3.h">
<polygon fill="none" stroke="black" points="256,-168.5 256,-187.5 390,-187.5 390,-168.5 256,-168.5"/>
<text text-anchor="middle" x="323" y="-175.5" font-family="Helvetica,sans-Serif" font-size="10.00">geometry_msgs_Vector3.h</text>
</a>
</g>
</g>
<!-- Node1&#45;&gt;Node8 -->
<g id="edge16" class="edge"><title>Node1&#45;&gt;Node8</title>
<path fill="none" stroke="midnightblue" d="M352.588,-280.25C361.189,-263.532 367.781,-242.541 361,-224 356.943,-212.908 348.812,-202.665 341.109,-194.763"/>
<polygon fill="midnightblue" stroke="midnightblue" points="343.362,-192.075 333.714,-187.695 338.525,-197.135 343.362,-192.075"/>
</g>
<!-- Node9 -->
<g id="node9" class="node"><title>Node9</title>
<g id="a_node9"><a xlink:href="autogenerated_2msgs_2include_2geometry__msgs___wrench_8h.html" target="_top" xlink:title="geometry_msgs_Wrench.h">
<polygon fill="none" stroke="black" points="218,-224.5 218,-243.5 352,-243.5 352,-224.5 218,-224.5"/>
<text text-anchor="middle" x="285" y="-231.5" font-family="Helvetica,sans-Serif" font-size="10.00">geometry_msgs_Wrench.h</text>
</a>
</g>
</g>
<!-- Node1&#45;&gt;Node9 -->
<g id="edge23" class="edge"><title>Node1&#45;&gt;Node9</title>
<path fill="none" stroke="midnightblue" d="M312.883,-280.088C307.038,-270.636 300.818,-260.577 295.739,-252.364"/>
<polygon fill="midnightblue" stroke="midnightblue" points="298.628,-250.382 290.391,-243.718 292.674,-254.064 298.628,-250.382"/>
</g>
<!-- Node6&#45;&gt;Node2 -->
<g id="edge6" class="edge"><title>Node6&#45;&gt;Node2</title>
<path fill="none" stroke="midnightblue" d="M233.327,-56.324C215.606,-47.6247 188.097,-34.1202 167.712,-24.113"/>
<polygon fill="midnightblue" stroke="midnightblue" points="169.149,-20.9195 158.63,-19.6545 166.064,-27.2031 169.149,-20.9195"/>
</g>
<!-- Node6&#45;&gt;Node3 -->
<g id="edge7" class="edge"><title>Node6&#45;&gt;Node3</title>
<path fill="none" stroke="midnightblue" d="M242.909,-56.083C235.845,-48.2982 225.412,-36.8015 216.851,-27.3665"/>
<polygon fill="midnightblue" stroke="midnightblue" points="219.253,-24.8047 209.941,-19.7511 214.069,-29.5087 219.253,-24.8047"/>
</g>
<!-- Node6&#45;&gt;Node4 -->
<g id="edge8" class="edge"><title>Node6&#45;&gt;Node4</title>
<path fill="none" stroke="midnightblue" d="M283.676,-59.9269C335.811,-51.7884 441.009,-35.1845 530,-20 530.101,-19.9828 530.201,-19.9657 530.302,-19.9485"/>
<polygon fill="midnightblue" stroke="midnightblue" points="530.639,-23.4423 539.894,-18.2852 529.443,-16.5452 530.639,-23.4423"/>
</g>
<!-- Node6&#45;&gt;Node5 -->
<g id="edge9" class="edge"><title>Node6&#45;&gt;Node5</title>
<path fill="none" stroke="midnightblue" d="M283.506,-56.6808C319.846,-47.3806 378.85,-32.2802 418.987,-22.008"/>
<polygon fill="midnightblue" stroke="midnightblue" points="419.94,-25.377 428.76,-19.5069 418.205,-18.5956 419.94,-25.377"/>
</g>
<!-- Node7&#45;&gt;Node2 -->
<g id="edge11" class="edge"><title>Node7&#45;&gt;Node2</title>
<path fill="none" stroke="midnightblue" d="M372.791,-112.382C352.194,-96.6636 308.888,-64.2022 292,-56 244.192,-32.78 226.622,-35.6597 171.263,-19.9988"/>
<polygon fill="midnightblue" stroke="midnightblue" points="172.235,-16.6363 161.655,-17.2032 170.279,-23.3576 172.235,-16.6363"/>
</g>
<!-- Node7&#45;&gt;Node3 -->
<g id="edge12" class="edge"><title>Node7&#45;&gt;Node3</title>
<path fill="none" stroke="midnightblue" d="M378.285,-112.17C368.925,-98.3554 349.043,-71.6023 326,-56 297.707,-36.8433 260.276,-24.7312 233.967,-17.9592"/>
<polygon fill="midnightblue" stroke="midnightblue" points="234.672,-14.5283 224.126,-15.5407 233.001,-21.3261 234.672,-14.5283"/>
</g>
<!-- Node7&#45;&gt;Node4 -->
<g id="edge13" class="edge"><title>Node7&#45;&gt;Node4</title>
<path fill="none" stroke="midnightblue" d="M399.38,-112.368C433.371,-93.2916 515.102,-47.4223 555.936,-24.5054"/>
<polygon fill="midnightblue" stroke="midnightblue" points="557.684,-27.5378 564.692,-19.5914 554.258,-21.4334 557.684,-27.5378"/>
</g>
<!-- Node7&#45;&gt;Node5 -->
<g id="edge14" class="edge"><title>Node7&#45;&gt;Node5</title>
<path fill="none" stroke="midnightblue" d="M386.398,-112.401C390.311,-99.3575 398.963,-74.1698 412,-56 420.109,-44.6979 431.496,-34.1715 441.355,-26.1455"/>
<polygon fill="midnightblue" stroke="midnightblue" points="443.779,-28.6934 449.506,-19.7794 439.47,-23.1768 443.779,-28.6934"/>
</g>
<!-- Node7&#45;&gt;Node6 -->
<g id="edge15" class="edge"><title>Node7&#45;&gt;Node6</title>
<path fill="none" stroke="midnightblue" d="M362.926,-112.444C340.94,-103.517 306.266,-89.4387 281.336,-79.3168"/>
<polygon fill="midnightblue" stroke="midnightblue" points="282.558,-76.0355 271.976,-75.5164 279.924,-82.5213 282.558,-76.0355"/>
</g>
<!-- Node8&#45;&gt;Node2 -->
<g id="edge17" class="edge"><title>Node8&#45;&gt;Node2</title>
<path fill="none" stroke="midnightblue" d="M298.698,-168.387C279.511,-160.794 252.77,-148.389 233,-132 196.412,-101.668 165.772,-54.1298 150.818,-28.6054"/>
<polygon fill="midnightblue" stroke="midnightblue" points="153.723,-26.6341 145.716,-19.6963 147.649,-30.1133 153.723,-26.6341"/>
</g>
<!-- Node8&#45;&gt;Node3 -->
<g id="edge18" class="edge"><title>Node8&#45;&gt;Node3</title>
<path fill="none" stroke="midnightblue" d="M307.151,-168.278C281.517,-153.217 231.56,-119.703 209,-76 201.597,-61.6597 200.258,-43.1973 200.531,-29.6156"/>
<polygon fill="midnightblue" stroke="midnightblue" points="204.03,-29.717 201.041,-19.5525 197.039,-29.3624 204.03,-29.717"/>
</g>
<!-- Node8&#45;&gt;Node4 -->
<g id="edge19" class="edge"><title>Node8&#45;&gt;Node4</title>
<path fill="none" stroke="midnightblue" d="M369.645,-168.448C398.649,-161.671 435.838,-150.237 465,-132 509.863,-103.945 549.228,-54.3608 568.118,-28.2268"/>
<polygon fill="midnightblue" stroke="midnightblue" points="571.203,-29.9271 574.124,-19.7428 565.489,-25.8828 571.203,-29.9271"/>
</g>
<!-- Node8&#45;&gt;Node5 -->
<g id="edge20" class="edge"><title>Node8&#45;&gt;Node5</title>
<path fill="none" stroke="midnightblue" d="M382.205,-168.477C405.146,-162.159 429.556,-151.157 445,-132 468.66,-102.653 467.664,-55.7448 464.842,-29.7967"/>
<polygon fill="midnightblue" stroke="midnightblue" points="468.3,-29.2459 463.543,-19.779 461.358,-30.146 468.3,-29.2459"/>
</g>
<!-- Node8&#45;&gt;Node6 -->
<g id="edge21" class="edge"><title>Node8&#45;&gt;Node6</title>
<path fill="none" stroke="midnightblue" d="M317.35,-168.368C305.468,-150.215 277.706,-107.802 262.121,-83.9902"/>
<polygon fill="midnightblue" stroke="midnightblue" points="265.029,-82.0416 256.623,-75.5914 259.172,-85.8753 265.029,-82.0416"/>
</g>
<!-- Node8&#45;&gt;Node7 -->
<g id="edge22" class="edge"><title>Node8&#45;&gt;Node7</title>
<path fill="none" stroke="midnightblue" d="M332.801,-168.324C341.818,-160.341 355.406,-148.313 366.318,-138.653"/>
<polygon fill="midnightblue" stroke="midnightblue" points="368.853,-141.083 374.021,-131.834 364.213,-135.842 368.853,-141.083"/>
</g>
<!-- Node9&#45;&gt;Node2 -->
<g id="edge24" class="edge"><title>Node9&#45;&gt;Node2</title>
<path fill="none" stroke="midnightblue" d="M269.258,-224.412C255.811,-216.432 236.684,-203.468 224,-188 182.815,-137.777 156.824,-63.7331 146.325,-29.5462"/>
<polygon fill="midnightblue" stroke="midnightblue" points="149.564,-28.1598 143.359,-19.5724 142.854,-30.1552 149.564,-28.1598"/>
</g>
<!-- Node9&#45;&gt;Node3 -->
<g id="edge25" class="edge"><title>Node9&#45;&gt;Node3</title>
<path fill="none" stroke="midnightblue" d="M273.73,-224.483C263.426,-216.176 248.401,-202.676 239,-188 205.935,-136.381 196.96,-117.267 199,-56 199.287,-47.3834 199.882,-37.8541 200.467,-29.7913"/>
<polygon fill="midnightblue" stroke="midnightblue" points="203.972,-29.8585 201.254,-19.6183 196.993,-29.3184 203.972,-29.8585"/>
</g>
<!-- Node9&#45;&gt;Node4 -->
<g id="edge26" class="edge"><title>Node9&#45;&gt;Node4</title>
<path fill="none" stroke="midnightblue" d="M340.458,-224.482C372.111,-217.892 411.611,-206.642 443,-188 502.988,-152.372 514.47,-134.167 553,-76 562.691,-61.3701 570.006,-42.6992 574.561,-29.125"/>
<polygon fill="midnightblue" stroke="midnightblue" points="577.924,-30.0964 577.615,-19.5061 571.253,-27.978 577.924,-30.0964"/>
</g>
<!-- Node9&#45;&gt;Node5 -->
<g id="edge27" class="edge"><title>Node9&#45;&gt;Node5</title>
<path fill="none" stroke="midnightblue" d="M327.07,-224.475C354.094,-217.624 389.05,-206.1 416,-188 443.454,-169.561 449.428,-161.176 465,-132 481.212,-101.626 486.511,-89.8082 480,-56 478.21,-46.7047 474.517,-36.8887 470.939,-28.8048"/>
<polygon fill="midnightblue" stroke="midnightblue" points="474.056,-27.2089 466.621,-19.6611 467.727,-30.1981 474.056,-27.2089"/>
</g>
<!-- Node9&#45;&gt;Node6 -->
<g id="edge28" class="edge"><title>Node9&#45;&gt;Node6</title>
<path fill="none" stroke="midnightblue" d="M274.286,-224.305C265.062,-216.069 252.409,-202.789 247,-188 234.41,-153.578 240.828,-109.906 246.2,-85.5581"/>
<polygon fill="midnightblue" stroke="midnightblue" points="249.67,-86.0978 248.594,-75.5577 242.862,-84.4681 249.67,-86.0978"/>
</g>
<!-- Node9&#45;&gt;Node7 -->
<g id="edge29" class="edge"><title>Node9&#45;&gt;Node7</title>
<path fill="none" stroke="midnightblue" d="M341.693,-224.495C363.35,-218.18 385.954,-207.176 399,-188 408.541,-173.977 402.256,-154.725 395.131,-140.817"/>
<polygon fill="midnightblue" stroke="midnightblue" points="397.986,-138.757 390.008,-131.785 391.897,-142.21 397.986,-138.757"/>
</g>
<!-- Node9&#45;&gt;Node8 -->
<g id="edge30" class="edge"><title>Node9&#45;&gt;Node8</title>
<path fill="none" stroke="midnightblue" d="M291.275,-224.083C296.642,-216.455 304.518,-205.264 311.079,-195.941"/>
<polygon fill="midnightblue" stroke="midnightblue" points="313.949,-197.943 316.842,-187.751 308.225,-193.915 313.949,-197.943"/>
</g>
</g>
</svg>
