<?xml version="1.0" encoding="UTF-8" standalone="no"?>
<!DOCTYPE svg PUBLIC "-//W3C//DTD SVG 1.1//EN"
 "http://www.w3.org/Graphics/SVG/1.1/DTD/svg11.dtd">
<!-- Generated by graphviz version 2.36.0 (20140111.2315)
 -->
<!-- Title: /home/travis/build/robotology/human&#45;dynamics&#45;estimation/build/human&#45;dynamics&#45;estimator/autogenerated/src/JointDynamicsEstimation.cpp Pages: 1 -->
<svg width="335pt" height="184pt"
 viewBox="0.00 0.00 335.00 184.00" xmlns="http://www.w3.org/2000/svg" xmlns:xlink="http://www.w3.org/1999/xlink">
<g id="graph0" class="graph" transform="scale(1 1) rotate(0) translate(4 180)">
<title>/home/travis/build/robotology/human&#45;dynamics&#45;estimation/build/human&#45;dynamics&#45;estimator/autogenerated/src/JointDynamicsEstimation.cpp</title>
<!-- Node1 -->
<g id="node1" class="node"><title>Node1</title>
<polygon fill="#bfbfbf" stroke="black" points="73,-112.5 73,-175.5 243,-175.5 243,-112.5 73,-112.5"/>
<text text-anchor="start" x="81" y="-163.5" font-family="Helvetica,sans-Serif" font-size="10.00">/home/travis/build</text>
<text text-anchor="start" x="81" y="-152.5" font-family="Helvetica,sans-Serif" font-size="10.00">/robotology/human&#45;dynamics</text>
<text text-anchor="start" x="81" y="-141.5" font-family="Helvetica,sans-Serif" font-size="10.00">&#45;estimation/build/human</text>
<text text-anchor="start" x="81" y="-130.5" font-family="Helvetica,sans-Serif" font-size="10.00">&#45;dynamics&#45;estimator/autogenerated</text>
<text text-anchor="middle" x="158" y="-119.5" font-family="Helvetica,sans-Serif" font-size="10.00">/src/JointDynamicsEstimation.cpp</text>
</g>
<!-- Node2 -->
<g id="node2" class="node"><title>Node2</title>
<g id="a_node2"><a xlink:href="autogenerated_2include_2thrifts_2_joint_dynamics_estimation_8h.html" target="_top" xlink:title="thrifts/JointDynamicsEstimation.h">
<polygon fill="none" stroke="black" points="76,-56.5 76,-75.5 240,-75.5 240,-56.5 76,-56.5"/>
<text text-anchor="middle" x="158" y="-63.5" font-family="Helvetica,sans-Serif" font-size="10.00">thrifts/JointDynamicsEstimation.h</text>
</a>
</g>
</g>
<!-- Node1&#45;&gt;Node2 -->
<g id="edge1" class="edge"><title>Node1&#45;&gt;Node2</title>
<path fill="none" stroke="midnightblue" d="M158,-112.088C158,-103.15 158,-93.6688 158,-85.7195"/>
<polygon fill="midnightblue" stroke="midnightblue" points="161.5,-85.7181 158,-75.7182 154.5,-85.7182 161.5,-85.7181"/>
</g>
<!-- Node3 -->
<g id="node3" class="node"><title>Node3</title>
<polygon fill="none" stroke="#bfbfbf" points="0,-0.5 0,-19.5 80,-19.5 80,-0.5 0,-0.5"/>
<text text-anchor="middle" x="40" y="-7.5" font-family="Helvetica,sans-Serif" font-size="10.00">yarp/os/Wire.h</text>
</g>
<!-- Node2&#45;&gt;Node3 -->
<g id="edge2" class="edge"><title>Node2&#45;&gt;Node3</title>
<path fill="none" stroke="midnightblue" d="M139.303,-56.4435C120.056,-47.6356 89.8475,-33.8116 67.7999,-23.722"/>
<polygon fill="midnightblue" stroke="midnightblue" points="69.1595,-20.4951 58.61,-19.5164 66.2466,-26.8603 69.1595,-20.4951"/>
</g>
<!-- Node4 -->
<g id="node4" class="node"><title>Node4</title>
<polygon fill="none" stroke="#bfbfbf" points="98,-0.5 98,-19.5 218,-19.5 218,-0.5 98,-0.5"/>
<text text-anchor="middle" x="158" y="-7.5" font-family="Helvetica,sans-Serif" font-size="10.00">yarp/os/idl/WireTypes.h</text>
</g>
<!-- Node2&#45;&gt;Node4 -->
<g id="edge3" class="edge"><title>Node2&#45;&gt;Node4</title>
<path fill="none" stroke="midnightblue" d="M158,-56.083C158,-49.0059 158,-38.8611 158,-29.9865"/>
<polygon fill="midnightblue" stroke="midnightblue" points="161.5,-29.751 158,-19.7511 154.5,-29.7511 161.5,-29.751"/>
</g>
<!-- Node5 -->
<g id="node5" class="node"><title>Node5</title>
<polygon fill="none" stroke="#bfbfbf" points="236.5,-0.5 236.5,-19.5 327.5,-19.5 327.5,-0.5 236.5,-0.5"/>
<text text-anchor="middle" x="282" y="-7.5" font-family="Helvetica,sans-Serif" font-size="10.00">yarp/sig/Vector.h</text>
</g>
<!-- Node2&#45;&gt;Node5 -->
<g id="edge4" class="edge"><title>Node2&#45;&gt;Node5</title>
<path fill="none" stroke="midnightblue" d="M177.648,-56.4435C197.965,-47.5961 229.903,-33.6875 253.098,-23.5865"/>
<polygon fill="midnightblue" stroke="midnightblue" points="254.673,-26.7181 262.444,-19.5164 251.878,-20.3002 254.673,-26.7181"/>
</g>
</g>
</svg>
