<?xml version="1.0" encoding="UTF-8" standalone="no"?>
<!DOCTYPE svg PUBLIC "-//W3C//DTD SVG 1.1//EN"
 "http://www.w3.org/Graphics/SVG/1.1/DTD/svg11.dtd">
<!-- Generated by graphviz version 2.36.0 (20140111.2315)
 -->
<!-- Title: /home/travis/build/robotology/human&#45;dynamics&#45;estimation/build/ros&#45;msgs/autogenerated/msgs/include/geometry_msgs_TransformStamped.h Pages: 1 -->
<!--zoomable 408 -->
<svg id="main" version="1.1" xmlns="http://www.w3.org/2000/svg" xmlns:xlink="http://www.w3.org/1999/xlink" xml:space="preserve" onload="init(evt)">
<style type="text/css"><![CDATA[
.edge:hover path { stroke: red; }
.edge:hover polygon { stroke: red; fill: red; }
]]></style>
<script type="text/javascript"><![CDATA[
var edges = document.getElementsByTagName('g');
if (edges && edges.length) {
  for (var i=0;i<edges.length;i++) {
    if (edges[i].id.substr(0,4)=='edge') {
      edges[i].setAttribute('class','edge');
    }
  }
}
]]></script>
        <defs>
                <circle id="rim" cx="0" cy="0" r="7"/>
                <circle id="rim2" cx="0" cy="0" r="3.5"/>
                <g id="zoomPlus">
                        <use xlink:href="#rim" fill="#404040">
                                <set attributeName="fill" to="#808080" begin="zoomplus.mouseover" end="zoomplus.mouseout"/>
                        </use>
                        <path d="M-4,0h8M0,-4v8" fill="none" stroke="white" stroke-width="1.5" pointer-events="none"/>
                </g>
                <g id="zoomMin">
                        <use xlink:href="#rim" fill="#404040">
                                <set attributeName="fill" to="#808080" begin="zoomminus.mouseover" end="zoomminus.mouseout"/>
                        </use>
                        <path d="M-4,0h8" fill="none" stroke="white" stroke-width="1.5" pointer-events="none"/>
                </g>
                <g id="dirArrow">
                        <path fill="none" stroke="white" stroke-width="1.5" d="M0,-3.0v7 M-2.5,-0.5L0,-3.0L2.5,-0.5"/>
                </g>
               <g id="resetDef">
                       <use xlink:href="#rim2" fill="#404040">
                               <set attributeName="fill" to="#808080" begin="reset.mouseover" end="reset.mouseout"/>
                       </use>
               </g>
        </defs>

<script type="text/javascript">
var viewWidth = 880;
var viewHeight = 408;
var sectionId = 'dynsection-0';
</script>
<script xlink:href="svgpan.js"/>
<svg id="graph" class="graph">
<g id="viewport">
<title>/home/travis/build/robotology/human&#45;dynamics&#45;estimation/build/ros&#45;msgs/autogenerated/msgs/include/geometry_msgs_TransformStamped.h</title>
<!-- Node1 -->
<g id="node1" class="node"><title>Node1</title>
<polygon fill="#bfbfbf" stroke="black" points="297,-336.5 297,-399.5 483,-399.5 483,-336.5 297,-336.5"/>
<text text-anchor="start" x="305" y="-387.5" font-family="Helvetica,sans-Serif" font-size="10.00">/home/travis/build</text>
<text text-anchor="start" x="305" y="-376.5" font-family="Helvetica,sans-Serif" font-size="10.00">/robotology/human&#45;dynamics</text>
<text text-anchor="start" x="305" y="-365.5" font-family="Helvetica,sans-Serif" font-size="10.00">&#45;estimation/build/ros&#45;msgs</text>
<text text-anchor="start" x="305" y="-354.5" font-family="Helvetica,sans-Serif" font-size="10.00">/autogenerated/msgs/include</text>
<text text-anchor="middle" x="390" y="-343.5" font-family="Helvetica,sans-Serif" font-size="10.00">/geometry_msgs_TransformStamped.h</text>
</g>
<!-- Node2 -->
<g id="node2" class="node"><title>Node2</title>
<polygon fill="none" stroke="#bfbfbf" points="264.5,-0.5 264.5,-19.5 305.5,-19.5 305.5,-0.5 264.5,-0.5"/>
<text text-anchor="middle" x="285" y="-7.5" font-family="Helvetica,sans-Serif" font-size="10.00">string</text>
</g>
<!-- Node1&#45;&gt;Node2 -->
<g id="edge1" class="edge"><title>Node1&#45;&gt;Node2</title>
<path fill="none" stroke="midnightblue" d="M296.595,-350.918C192.313,-330.247 38,-290.314 38,-235 38,-235 38,-235 38,-177 38,-73.765 188.471,-30.5554 254.525,-16.5607"/>
<polygon fill="midnightblue" stroke="midnightblue" points="255.263,-19.9823 264.366,-14.5607 253.869,-13.1226 255.263,-19.9823"/>
</g>
<!-- Node3 -->
<g id="node3" class="node"><title>Node3</title>
<polygon fill="none" stroke="#bfbfbf" points="717,-0.5 717,-19.5 761,-19.5 761,-0.5 717,-0.5"/>
<text text-anchor="middle" x="739" y="-7.5" font-family="Helvetica,sans-Serif" font-size="10.00">vector</text>
</g>
<!-- Node1&#45;&gt;Node3 -->
<g id="edge2" class="edge"><title>Node1&#45;&gt;Node3</title>
<path fill="none" stroke="midnightblue" d="M483.22,-360.466C623.336,-348.045 872,-314.767 872,-235 872,-235 872,-235 872,-121 872,-68.6536 810.065,-36.5257 770.725,-21.3984"/>
<polygon fill="midnightblue" stroke="midnightblue" points="771.855,-18.0848 761.261,-17.9168 769.438,-24.6543 771.855,-18.0848"/>
</g>
<!-- Node4 -->
<g id="node4" class="node"><title>Node4</title>
<polygon fill="none" stroke="#bfbfbf" points="520,-0.5 520,-19.5 600,-19.5 600,-0.5 520,-0.5"/>
<text text-anchor="middle" x="560" y="-7.5" font-family="Helvetica,sans-Serif" font-size="10.00">yarp/os/Wire.h</text>
</g>
<!-- Node1&#45;&gt;Node4 -->
<g id="edge3" class="edge"><title>Node1&#45;&gt;Node4</title>
<path fill="none" stroke="midnightblue" d="M483.145,-355.641C603.01,-338.371 796,-300.409 796,-235 796,-235 796,-235 796,-177 796,-86.4045 678.214,-40.9646 609.065,-22.0942"/>
<polygon fill="midnightblue" stroke="midnightblue" points="609.798,-18.6678 599.236,-19.5007 608.012,-25.4362 609.798,-18.6678"/>
</g>
<!-- Node5 -->
<g id="node5" class="node"><title>Node5</title>
<polygon fill="none" stroke="#bfbfbf" points="73,-0.5 73,-19.5 193,-19.5 193,-0.5 73,-0.5"/>
<text text-anchor="middle" x="133" y="-7.5" font-family="Helvetica,sans-Serif" font-size="10.00">yarp/os/idl/WireTypes.h</text>
</g>
<!-- Node1&#45;&gt;Node5 -->
<g id="edge4" class="edge"><title>Node1&#45;&gt;Node5</title>
<path fill="none" stroke="midnightblue" d="M296.987,-360.561C230.916,-352.94 141.737,-336.304 71,-300 32.9377,-280.466 0,-277.782 0,-235 0,-235 0,-235 0,-121 0,-70.7254 57.1293,-39.1005 96.5033,-23.2746"/>
<polygon fill="midnightblue" stroke="midnightblue" points="98.0081,-26.4459 106.085,-19.5897 95.4955,-19.9123 98.0081,-26.4459"/>
</g>
<!-- Node6 -->
<g id="node6" class="node"><title>Node6</title>
<g id="a_node6"><a xlink:href="autogenerated_2msgs_2include_2_tick_time_8h.html" target="_top" xlink:title="TickTime.h">
<polygon fill="none" stroke="black" points="497.5,-56.5 497.5,-75.5 562.5,-75.5 562.5,-56.5 497.5,-56.5"/>
<text text-anchor="middle" x="530" y="-63.5" font-family="Helvetica,sans-Serif" font-size="10.00">TickTime.h</text>
</a>
</g>
</g>
<!-- Node1&#45;&gt;Node6 -->
<g id="edge5" class="edge"><title>Node1&#45;&gt;Node6</title>
<path fill="none" stroke="midnightblue" d="M475.529,-336.436C518.105,-316.713 566.281,-286.653 594,-244 626.148,-194.533 613.232,-160.745 580,-112 572.164,-100.507 560.796,-89.9669 550.879,-81.9814"/>
<polygon fill="midnightblue" stroke="midnightblue" points="552.723,-78.9842 542.663,-75.6616 548.455,-84.5327 552.723,-78.9842"/>
</g>
<!-- Node7 -->
<g id="node7" class="node"><title>Node7</title>
<g id="a_node7"><a xlink:href="autogenerated_2msgs_2include_2std__msgs___header_8h.html" target="_top" xlink:title="std_msgs_Header.h">
<polygon fill="none" stroke="black" points="322,-112.5 322,-131.5 426,-131.5 426,-112.5 322,-112.5"/>
<text text-anchor="middle" x="374" y="-119.5" font-family="Helvetica,sans-Serif" font-size="10.00">std_msgs_Header.h</text>
</a>
</g>
</g>
<!-- Node1&#45;&gt;Node7 -->
<g id="edge10" class="edge"><title>Node1&#45;&gt;Node7</title>
<path fill="none" stroke="midnightblue" d="M334.528,-336.365C321.867,-326.521 310.07,-314.369 303,-300 288.821,-271.185 252.092,-279.684 315,-168 322.406,-154.852 335.388,-144.314 347.292,-136.751"/>
<polygon fill="midnightblue" stroke="midnightblue" points="349.251,-139.658 356.075,-131.553 345.686,-133.634 349.251,-139.658"/>
</g>
<!-- Node8 -->
<g id="node8" class="node"><title>Node8</title>
<g id="a_node8"><a xlink:href="autogenerated_2msgs_2include_2geometry__msgs___vector3_8h.html" target="_top" xlink:title="geometry_msgs_Vector3.h">
<polygon fill="none" stroke="black" points="330,-168.5 330,-187.5 464,-187.5 464,-168.5 330,-168.5"/>
<text text-anchor="middle" x="397" y="-175.5" font-family="Helvetica,sans-Serif" font-size="10.00">geometry_msgs_Vector3.h</text>
</a>
</g>
</g>
<!-- Node1&#45;&gt;Node8 -->
<g id="edge16" class="edge"><title>Node1&#45;&gt;Node8</title>
<path fill="none" stroke="midnightblue" d="M334.757,-336.331C315.644,-321.349 300.821,-301.838 309,-280 322.61,-243.661 355.861,-211.786 377.369,-193.993"/>
<polygon fill="midnightblue" stroke="midnightblue" points="379.633,-196.664 385.24,-187.675 375.251,-191.206 379.633,-196.664"/>
</g>
<!-- Node9 -->
<g id="node9" class="node"><title>Node9</title>
<g id="a_node9"><a xlink:href="autogenerated_2msgs_2include_2geometry__msgs___quaternion_8h.html" target="_top" xlink:title="geometry_msgs_Quaternion.h">
<polygon fill="none" stroke="black" points="418.5,-224.5 418.5,-243.5 565.5,-243.5 565.5,-224.5 418.5,-224.5"/>
<text text-anchor="middle" x="492" y="-231.5" font-family="Helvetica,sans-Serif" font-size="10.00">geometry_msgs_Quaternion.h</text>
</a>
</g>
</g>
<!-- Node1&#45;&gt;Node9 -->
<g id="edge23" class="edge"><title>Node1&#45;&gt;Node9</title>
<path fill="none" stroke="midnightblue" d="M436.374,-336.165C449.03,-325.908 461.779,-313.592 471,-300 480.467,-286.046 485.896,-267.541 488.852,-253.845"/>
<polygon fill="midnightblue" stroke="midnightblue" points="492.356,-254.155 490.788,-243.676 485.479,-252.845 492.356,-254.155"/>
</g>
<!-- Node10 -->
<g id="node10" class="node"><title>Node10</title>
<g id="a_node10"><a xlink:href="autogenerated_2msgs_2include_2geometry__msgs___transform_8h.html" target="_top" xlink:title="geometry_msgs_Transform.h">
<polygon fill="none" stroke="black" points="318,-280.5 318,-299.5 462,-299.5 462,-280.5 318,-280.5"/>
<text text-anchor="middle" x="390" y="-287.5" font-family="Helvetica,sans-Serif" font-size="10.00">geometry_msgs_Transform.h</text>
</a>
</g>
</g>
<!-- Node1&#45;&gt;Node10 -->
<g id="edge31" class="edge"><title>Node1&#45;&gt;Node10</title>
<path fill="none" stroke="midnightblue" d="M390,-336.088C390,-327.15 390,-317.669 390,-309.719"/>
<polygon fill="midnightblue" stroke="midnightblue" points="393.5,-309.718 390,-299.718 386.5,-309.718 393.5,-309.718"/>
</g>
<!-- Node6&#45;&gt;Node2 -->
<g id="edge6" class="edge"><title>Node6&#45;&gt;Node2</title>
<path fill="none" stroke="midnightblue" d="M497.466,-57.8292C449.908,-47.347 362.03,-27.978 315.596,-17.7436"/>
<polygon fill="midnightblue" stroke="midnightblue" points="316.326,-14.3205 305.807,-15.586 314.819,-21.1564 316.326,-14.3205"/>
</g>
<!-- Node6&#45;&gt;Node3 -->
<g id="edge7" class="edge"><title>Node6&#45;&gt;Node3</title>
<path fill="none" stroke="midnightblue" d="M562.656,-56.5625C602.072,-46.3786 667.918,-29.3658 707.025,-19.2614"/>
<polygon fill="midnightblue" stroke="midnightblue" points="708.025,-22.6182 716.831,-16.7278 706.274,-15.8408 708.025,-22.6182"/>
</g>
<!-- Node6&#45;&gt;Node4 -->
<g id="edge8" class="edge"><title>Node6&#45;&gt;Node4</title>
<path fill="none" stroke="midnightblue" d="M534.954,-56.083C539.104,-48.6127 545.153,-37.7244 550.267,-28.5199"/>
<polygon fill="midnightblue" stroke="midnightblue" points="553.341,-30.1924 555.138,-19.7511 547.222,-26.7929 553.341,-30.1924"/>
</g>
<!-- Node6&#45;&gt;Node5 -->
<g id="edge9" class="edge"><title>Node6&#45;&gt;Node5</title>
<path fill="none" stroke="midnightblue" d="M497.174,-60.535C433.021,-51.8089 289.742,-32.32 203.255,-20.5561"/>
<polygon fill="midnightblue" stroke="midnightblue" points="203.638,-17.0761 193.258,-19.1963 202.695,-24.0122 203.638,-17.0761"/>
</g>
<!-- Node7&#45;&gt;Node2 -->
<g id="edge11" class="edge"><title>Node7&#45;&gt;Node2</title>
<path fill="none" stroke="midnightblue" d="M367.016,-112.368C352.264,-94.135 317.708,-51.4257 298.492,-27.6752"/>
<polygon fill="midnightblue" stroke="midnightblue" points="300.962,-25.164 291.951,-19.5914 295.52,-29.567 300.962,-25.164"/>
</g>
<!-- Node7&#45;&gt;Node3 -->
<g id="edge12" class="edge"><title>Node7&#45;&gt;Node3</title>
<path fill="none" stroke="midnightblue" d="M385.973,-112.318C406.033,-98.2116 448.161,-70.443 488,-56 563.453,-28.6454 657.915,-17.4666 706.624,-13.2715"/>
<polygon fill="midnightblue" stroke="midnightblue" points="707.18,-16.7379 716.862,-12.4356 706.61,-9.76107 707.18,-16.7379"/>
</g>
<!-- Node7&#45;&gt;Node4 -->
<g id="edge13" class="edge"><title>Node7&#45;&gt;Node4</title>
<path fill="none" stroke="midnightblue" d="M377.378,-112.475C383.308,-98.5941 396.899,-71.1426 417,-56 444.057,-35.6179 480.565,-24.3291 509.92,-18.1557"/>
<polygon fill="midnightblue" stroke="midnightblue" points="510.841,-21.5418 519.978,-16.1789 509.491,-14.6732 510.841,-21.5418"/>
</g>
<!-- Node7&#45;&gt;Node5 -->
<g id="edge14" class="edge"><title>Node7&#45;&gt;Node5</title>
<path fill="none" stroke="midnightblue" d="M355.089,-112.368C312.854,-93.0908 210.676,-46.4536 161.02,-23.7894"/>
<polygon fill="midnightblue" stroke="midnightblue" points="162.374,-20.5597 151.823,-19.5914 159.467,-26.9277 162.374,-20.5597"/>
</g>
<!-- Node7&#45;&gt;Node6 -->
<g id="edge15" class="edge"><title>Node7&#45;&gt;Node6</title>
<path fill="none" stroke="midnightblue" d="M398.719,-112.444C424.848,-103.399 466.259,-89.064 495.576,-78.9158"/>
<polygon fill="midnightblue" stroke="midnightblue" points="497.092,-82.0951 505.397,-75.5164 494.802,-75.4801 497.092,-82.0951"/>
</g>
<!-- Node8&#45;&gt;Node2 -->
<g id="edge17" class="edge"><title>Node8&#45;&gt;Node2</title>
<path fill="none" stroke="midnightblue" d="M367.946,-168.385C349.526,-161.452 326.674,-149.868 313,-132 289.819,-101.708 285.305,-55.4998 284.728,-29.8387"/>
<polygon fill="midnightblue" stroke="midnightblue" points="288.228,-29.6112 284.688,-19.6253 281.228,-29.6392 288.228,-29.6112"/>
</g>
<!-- Node8&#45;&gt;Node3 -->
<g id="edge18" class="edge"><title>Node8&#45;&gt;Node3</title>
<path fill="none" stroke="midnightblue" d="M415.452,-168.476C434.817,-159.501 466.12,-144.909 493,-132 573.341,-93.4154 667.773,-46.5355 712.693,-24.1415"/>
<polygon fill="midnightblue" stroke="midnightblue" points="714.37,-27.2163 721.756,-19.6205 711.245,-20.9524 714.37,-27.2163"/>
</g>
<!-- Node8&#45;&gt;Node4 -->
<g id="edge19" class="edge"><title>Node8&#45;&gt;Node4</title>
<path fill="none" stroke="midnightblue" d="M404.818,-168.235C412.681,-159.308 425.032,-144.974 435,-132 460.089,-99.3449 458.157,-84.3764 488,-56 501.319,-43.3349 518.745,-32.3319 533.116,-24.3764"/>
<polygon fill="midnightblue" stroke="midnightblue" points="534.878,-27.4036 542.046,-19.6018 531.577,-21.2307 534.878,-27.4036"/>
</g>
<!-- Node8&#45;&gt;Node5 -->
<g id="edge20" class="edge"><title>Node8&#45;&gt;Node5</title>
<path fill="none" stroke="midnightblue" d="M374.722,-168.418C354.219,-160.164 323.253,-146.786 298,-132 241.361,-98.8381 180.531,-50.5164 151.062,-26.1909"/>
<polygon fill="midnightblue" stroke="midnightblue" points="153.214,-23.4279 143.286,-19.7264 148.739,-28.8107 153.214,-23.4279"/>
</g>
<!-- Node8&#45;&gt;Node6 -->
<g id="edge21" class="edge"><title>Node8&#45;&gt;Node6</title>
<path fill="none" stroke="midnightblue" d="M412.98,-168.374C427.883,-159.99 450.398,-146.438 468,-132 486.173,-117.094 504.438,-97.209 516.388,-83.3748"/>
<polygon fill="midnightblue" stroke="midnightblue" points="519.149,-85.5296 522.954,-75.6416 513.814,-80.9987 519.149,-85.5296"/>
</g>
<!-- Node8&#45;&gt;Node7 -->
<g id="edge22" class="edge"><title>Node8&#45;&gt;Node7</title>
<path fill="none" stroke="midnightblue" d="M393.202,-168.083C390.087,-160.77 385.577,-150.181 381.711,-141.103"/>
<polygon fill="midnightblue" stroke="midnightblue" points="384.866,-139.58 377.727,-131.751 378.426,-142.323 384.866,-139.58"/>
</g>
<!-- Node9&#45;&gt;Node2 -->
<g id="edge24" class="edge"><title>Node9&#45;&gt;Node2</title>
<path fill="none" stroke="midnightblue" d="M418.12,-228.322C385.088,-222.799 347.675,-211.358 321,-188 275.231,-147.922 278.157,-66.9367 282.259,-30.0625"/>
<polygon fill="midnightblue" stroke="midnightblue" points="285.781,-30.11 283.571,-19.7481 278.837,-29.2262 285.781,-30.11"/>
</g>
<!-- Node9&#45;&gt;Node3 -->
<g id="edge25" class="edge"><title>Node9&#45;&gt;Node3</title>
<path fill="none" stroke="midnightblue" d="M501.807,-224.407C512.097,-215.375 528.729,-200.739 543,-188 609.533,-128.609 688.117,-57.2833 722.026,-26.448"/>
<polygon fill="midnightblue" stroke="midnightblue" points="724.608,-28.8308 729.651,-19.5128 719.898,-23.6527 724.608,-28.8308"/>
</g>
<!-- Node9&#45;&gt;Node4 -->
<g id="edge26" class="edge"><title>Node9&#45;&gt;Node4</title>
<path fill="none" stroke="midnightblue" d="M498.313,-224.396C514.551,-201.637 557.446,-137.378 571,-76 574.432,-60.4585 570.889,-42.6214 566.937,-29.5688"/>
<polygon fill="midnightblue" stroke="midnightblue" points="570.182,-28.2385 563.665,-19.8853 563.55,-30.4795 570.182,-28.2385"/>
</g>
<!-- Node9&#45;&gt;Node5 -->
<g id="edge27" class="edge"><title>Node9&#45;&gt;Node5</title>
<path fill="none" stroke="midnightblue" d="M418.443,-225.262C381.212,-219.046 336.331,-207.904 300,-188 226.874,-147.937 167.242,-64.4446 143.761,-28.2987"/>
<polygon fill="midnightblue" stroke="midnightblue" points="146.675,-26.3587 138.349,-19.8076 140.773,-30.1214 146.675,-26.3587"/>
</g>
<!-- Node9&#45;&gt;Node6 -->
<g id="edge28" class="edge"><title>Node9&#45;&gt;Node6</title>
<path fill="none" stroke="midnightblue" d="M494.043,-224.075C500.025,-197.945 517.59,-121.211 525.747,-85.577"/>
<polygon fill="midnightblue" stroke="midnightblue" points="529.219,-86.097 528.039,-75.5681 522.395,-84.5349 529.219,-86.097"/>
</g>
<!-- Node9&#45;&gt;Node7 -->
<g id="edge29" class="edge"><title>Node9&#45;&gt;Node7</title>
<path fill="none" stroke="midnightblue" d="M491.699,-224.346C490.787,-210.773 487.171,-184.345 473,-168 459.414,-152.33 439.259,-141.822 420.673,-134.932"/>
<polygon fill="midnightblue" stroke="midnightblue" points="421.735,-131.596 411.141,-131.65 419.457,-138.214 421.735,-131.596"/>
</g>
<!-- Node9&#45;&gt;Node8 -->
<g id="edge30" class="edge"><title>Node9&#45;&gt;Node8</title>
<path fill="none" stroke="midnightblue" d="M476.737,-224.324C461.779,-215.822 438.745,-202.729 421.273,-192.797"/>
<polygon fill="midnightblue" stroke="midnightblue" points="422.649,-189.553 412.226,-187.655 419.19,-195.639 422.649,-189.553"/>
</g>
<!-- Node10&#45;&gt;Node2 -->
<g id="edge32" class="edge"><title>Node10&#45;&gt;Node2</title>
<path fill="none" stroke="midnightblue" d="M376.106,-280.422C363.789,-272.267 345.951,-259.036 334,-244 299.615,-200.739 293.746,-185.524 280,-132 271.591,-99.2585 274.03,-89.6734 277,-56 277.776,-47.1966 279.391,-37.5357 280.969,-29.4298"/>
<polygon fill="midnightblue" stroke="midnightblue" points="284.41,-30.0689 283.013,-19.5666 277.556,-28.648 284.41,-30.0689"/>
</g>
<!-- Node10&#45;&gt;Node3 -->
<g id="edge33" class="edge"><title>Node10&#45;&gt;Node3</title>
<path fill="none" stroke="midnightblue" d="M462.192,-281.124C517.925,-273.834 589.388,-261.474 613,-244 687.971,-188.519 723.235,-74.7062 734.652,-29.8089"/>
<polygon fill="midnightblue" stroke="midnightblue" points="738.086,-30.5008 737.05,-19.9566 731.284,-28.845 738.086,-30.5008"/>
</g>
<!-- Node10&#45;&gt;Node4 -->
<g id="edge34" class="edge"><title>Node10&#45;&gt;Node4</title>
<path fill="none" stroke="midnightblue" d="M462.076,-281.883C513.412,-275.25 576.32,-263.401 594,-244 625.147,-209.821 587.187,-59.4823 586,-56 582.694,-46.3015 577.205,-36.3523 572.12,-28.2833"/>
<polygon fill="midnightblue" stroke="midnightblue" points="574.937,-26.199 566.491,-19.8024 569.105,-30.0699 574.937,-26.199"/>
</g>
<!-- Node10&#45;&gt;Node5 -->
<g id="edge35" class="edge"><title>Node10&#45;&gt;Node5</title>
<path fill="none" stroke="midnightblue" d="M373.361,-280.436C357.838,-272.095 334.38,-258.573 316,-244 235.921,-180.507 211.488,-163.687 159,-76 150.134,-61.1882 143.103,-42.804 138.599,-29.3706"/>
<polygon fill="midnightblue" stroke="midnightblue" points="141.925,-28.2787 135.543,-19.8216 135.258,-30.4126 141.925,-28.2787"/>
</g>
<!-- Node10&#45;&gt;Node6 -->
<g id="edge36" class="edge"><title>Node10&#45;&gt;Node6</title>
<path fill="none" stroke="midnightblue" d="M462.311,-280.508C507.616,-273.532 559.99,-261.85 574,-244 612.064,-195.505 566.781,-118.396 542.91,-84.2466"/>
<polygon fill="midnightblue" stroke="midnightblue" points="545.518,-81.8795 536.832,-75.8132 539.839,-85.9723 545.518,-81.8795"/>
</g>
<!-- Node10&#45;&gt;Node7 -->
<g id="edge37" class="edge"><title>Node10&#45;&gt;Node7</title>
<path fill="none" stroke="midnightblue" d="M381.23,-280.268C365.49,-263.902 332.974,-226.753 321,-188 318.376,-179.507 317.267,-176.067 321,-168 326.92,-155.207 338.468,-144.722 349.278,-137.1"/>
<polygon fill="midnightblue" stroke="midnightblue" points="351.214,-140.016 357.666,-131.613 347.382,-134.158 351.214,-140.016"/>
</g>
<!-- Node10&#45;&gt;Node8 -->
<g id="edge38" class="edge"><title>Node10&#45;&gt;Node8</title>
<path fill="none" stroke="midnightblue" d="M390.549,-280.368C391.679,-262.617 394.285,-221.666 395.817,-197.597"/>
<polygon fill="midnightblue" stroke="midnightblue" points="399.311,-197.794 396.453,-187.591 392.325,-197.349 399.311,-197.794"/>
</g>
<!-- Node10&#45;&gt;Node9 -->
<g id="edge39" class="edge"><title>Node10&#45;&gt;Node9</title>
<path fill="none" stroke="midnightblue" d="M406.388,-280.324C422.671,-271.703 447.867,-258.364 466.716,-248.386"/>
<polygon fill="midnightblue" stroke="midnightblue" points="468.452,-251.427 475.653,-243.655 465.177,-245.24 468.452,-251.427"/>
</g>
</g>
</svg>
        <g id="navigator" transform="translate(0 0)" fill="#404254">
                <rect fill="#f2f5e9" fill-opacity="0.5" stroke="#606060" stroke-width=".5" x="0" y="0" width="60" height="60"/>
                <use id="zoomplus" xlink:href="#zoomPlus" x="17" y="9" onmousedown="handleZoom(evt,'in')"/>
                <use id="zoomminus" xlink:href="#zoomMin" x="42" y="9" onmousedown="handleZoom(evt,'out')"/>
                <use id="reset" xlink:href="#resetDef" x="30" y="36" onmousedown="handleReset()"/>
                <g id="arrowUp" xlink:href="#dirArrow" transform="translate(30 24)" onmousedown="handlePan(0,-1)">
                  <use xlink:href="#rim" fill="#404040">
                        <set attributeName="fill" to="#808080" begin="arrowUp.mouseover" end="arrowUp.mouseout"/>
                  </use>
                  <path fill="none" stroke="white" stroke-width="1.5" d="M0,-3.0v7 M-2.5,-0.5L0,-3.0L2.5,-0.5"/>
                </g>
                <g id="arrowRight" xlink:href="#dirArrow" transform="rotate(90) translate(36 -43)" onmousedown="handlePan(1,0)">
                  <use xlink:href="#rim" fill="#404040">
                        <set attributeName="fill" to="#808080" begin="arrowRight.mouseover" end="arrowRight.mouseout"/>
                  </use>
                  <path fill="none" stroke="white" stroke-width="1.5" d="M0,-3.0v7 M-2.5,-0.5L0,-3.0L2.5,-0.5"/>
                </g>
                <g id="arrowDown" xlink:href="#dirArrow" transform="rotate(180) translate(-30 -48)" onmousedown="handlePan(0,1)">
                  <use xlink:href="#rim" fill="#404040">
                        <set attributeName="fill" to="#808080" begin="arrowDown.mouseover" end="arrowDown.mouseout"/>
                  </use>
                  <path fill="none" stroke="white" stroke-width="1.5" d="M0,-3.0v7 M-2.5,-0.5L0,-3.0L2.5,-0.5"/>
                </g>
                <g id="arrowLeft" xlink:href="#dirArrow" transform="rotate(270) translate(-36 17)" onmousedown="handlePan(-1,0)">
                  <use xlink:href="#rim" fill="#404040">
                        <set attributeName="fill" to="#808080" begin="arrowLeft.mouseover" end="arrowLeft.mouseout"/>
                  </use>
                  <path fill="none" stroke="white" stroke-width="1.5" d="M0,-3.0v7 M-2.5,-0.5L0,-3.0L2.5,-0.5"/>
                </g>
        </g>
        <svg viewBox="0 0 15 15" width="100%" height="30px" preserveAspectRatio="xMaxYMin meet">
         <g id="arrow_out" transform="scale(0.3 0.3)">
          <a xlink:href="autogenerated_2msgs_2include_2geometry__msgs___transform_stamped_8h__incl_org.svg" target="_base">
           <rect id="button" ry="5" rx="5" y="6" x="6" height="38" width="38"
                fill="#f2f5e9" fill-opacity="0.5" stroke="#606060" stroke-width="1.0"/>
           <path id="arrow"
             d="M 11.500037,31.436501 C 11.940474,20.09759 22.043105,11.32322 32.158766,21.979434 L 37.068811,17.246167 C 37.068811,17.246167 37.088388,32 37.088388,32 L 22.160133,31.978069 C 22.160133,31.978069 26.997745,27.140456 26.997745,27.140456 C 18.528582,18.264221 13.291696,25.230495 11.500037,31.436501 z"
             style="fill:#404040;"/>
          </a>
         </g>
        </svg>
</svg>
