<?xml version="1.0" encoding="UTF-8" standalone="no"?>
<!DOCTYPE svg PUBLIC "-//W3C//DTD SVG 1.1//EN"
 "http://www.w3.org/Graphics/SVG/1.1/DTD/svg11.dtd">
<!-- Generated by graphviz version 2.36.0 (20140111.2315)
 -->
<!-- Title: /home/travis/build/robotology/human&#45;dynamics&#45;estimation/build/human&#45;state&#45;provider/autogenerated/include/thrifts/HumanState.h Pages: 1 -->
<svg width="352pt" height="240pt"
 viewBox="0.00 0.00 352.00 240.00" xmlns="http://www.w3.org/2000/svg" xmlns:xlink="http://www.w3.org/1999/xlink">
<g id="graph0" class="graph" transform="scale(1 1) rotate(0) translate(4 236)">
<title>/home/travis/build/robotology/human&#45;dynamics&#45;estimation/build/human&#45;state&#45;provider/autogenerated/include/thrifts/HumanState.h</title>
<!-- Node1 -->
<g id="node1" class="node"><title>Node1</title>
<polygon fill="#bfbfbf" stroke="black" points="91,-168.5 91,-231.5 235,-231.5 235,-168.5 91,-168.5"/>
<text text-anchor="start" x="99" y="-219.5" font-family="Helvetica,sans-Serif" font-size="10.00">/home/travis/build</text>
<text text-anchor="start" x="99" y="-208.5" font-family="Helvetica,sans-Serif" font-size="10.00">/robotology/human&#45;dynamics</text>
<text text-anchor="start" x="99" y="-197.5" font-family="Helvetica,sans-Serif" font-size="10.00">&#45;estimation/build/human</text>
<text text-anchor="start" x="99" y="-186.5" font-family="Helvetica,sans-Serif" font-size="10.00">&#45;state&#45;provider/autogenerated</text>
<text text-anchor="middle" x="163" y="-175.5" font-family="Helvetica,sans-Serif" font-size="10.00">/include/thrifts/HumanState.h</text>
</g>
<!-- Node2 -->
<g id="node2" class="node"><title>Node2</title>
<polygon fill="none" stroke="#bfbfbf" points="0,-0.5 0,-19.5 80,-19.5 80,-0.5 0,-0.5"/>
<text text-anchor="middle" x="40" y="-7.5" font-family="Helvetica,sans-Serif" font-size="10.00">yarp/os/Wire.h</text>
</g>
<!-- Node1&#45;&gt;Node2 -->
<g id="edge1" class="edge"><title>Node1&#45;&gt;Node2</title>
<path fill="none" stroke="midnightblue" d="M90.8795,-180.894C65.9233,-170.797 40.5793,-155.359 26,-132 6.11186,-100.135 20.5623,-54.2363 31.2745,-29.1193"/>
<polygon fill="midnightblue" stroke="midnightblue" points="34.59,-30.2821 35.5256,-19.7286 28.213,-27.3952 34.59,-30.2821"/>
</g>
<!-- Node3 -->
<g id="node3" class="node"><title>Node3</title>
<polygon fill="none" stroke="#bfbfbf" points="98,-0.5 98,-19.5 218,-19.5 218,-0.5 98,-0.5"/>
<text text-anchor="middle" x="158" y="-7.5" font-family="Helvetica,sans-Serif" font-size="10.00">yarp/os/idl/WireTypes.h</text>
</g>
<!-- Node1&#45;&gt;Node3 -->
<g id="edge2" class="edge"><title>Node1&#45;&gt;Node3</title>
<path fill="none" stroke="midnightblue" d="M184.408,-168.42C202.215,-138.959 222.232,-93.4662 206,-56 200.732,-43.8399 190.38,-33.4594 180.635,-25.7429"/>
<polygon fill="midnightblue" stroke="midnightblue" points="182.501,-22.7707 172.37,-19.6698 178.356,-28.4116 182.501,-22.7707"/>
</g>
<!-- Node4 -->
<g id="node4" class="node"><title>Node4</title>
<g id="a_node4"><a xlink:href="human-state-provider_2autogenerated_2include_2thrifts_2_quaternion_8h.html" target="_top" xlink:title="thrifts/Quaternion.h">
<polygon fill="none" stroke="black" points="35,-112.5 35,-131.5 135,-131.5 135,-112.5 35,-112.5"/>
<text text-anchor="middle" x="85" y="-119.5" font-family="Helvetica,sans-Serif" font-size="10.00">thrifts/Quaternion.h</text>
</a>
</g>
</g>
<!-- Node1&#45;&gt;Node4 -->
<g id="edge3" class="edge"><title>Node1&#45;&gt;Node4</title>
<path fill="none" stroke="midnightblue" d="M131.274,-168.088C120.941,-158.019 109.901,-147.263 101.197,-138.782"/>
<polygon fill="midnightblue" stroke="midnightblue" points="103.552,-136.19 93.9476,-131.718 98.6674,-141.204 103.552,-136.19"/>
</g>
<!-- Node5 -->
<g id="node5" class="node"><title>Node5</title>
<g id="a_node5"><a xlink:href="human-state-provider_2autogenerated_2include_2thrifts_2_vector3_8h.html" target="_top" xlink:title="thrifts/Vector3.h">
<polygon fill="none" stroke="black" points="111,-56.5 111,-75.5 197,-75.5 197,-56.5 111,-56.5"/>
<text text-anchor="middle" x="154" y="-63.5" font-family="Helvetica,sans-Serif" font-size="10.00">thrifts/Vector3.h</text>
</a>
</g>
</g>
<!-- Node1&#45;&gt;Node5 -->
<g id="edge9" class="edge"><title>Node1&#45;&gt;Node5</title>
<path fill="none" stroke="midnightblue" d="M160.913,-168.385C159.17,-142.82 156.741,-107.199 155.275,-85.6954"/>
<polygon fill="midnightblue" stroke="midnightblue" points="158.759,-85.3487 154.587,-75.61 151.775,-85.8249 158.759,-85.3487"/>
</g>
<!-- Node6 -->
<g id="node6" class="node"><title>Node6</title>
<polygon fill="none" stroke="#bfbfbf" points="253.5,-112.5 253.5,-131.5 344.5,-131.5 344.5,-112.5 253.5,-112.5"/>
<text text-anchor="middle" x="299" y="-119.5" font-family="Helvetica,sans-Serif" font-size="10.00">yarp/sig/Vector.h</text>
</g>
<!-- Node1&#45;&gt;Node6 -->
<g id="edge10" class="edge"><title>Node1&#45;&gt;Node6</title>
<path fill="none" stroke="midnightblue" d="M217.924,-168.307C237.582,-157.322 258.756,-145.489 274.534,-136.672"/>
<polygon fill="midnightblue" stroke="midnightblue" points="276.576,-139.54 283.599,-131.607 273.162,-133.43 276.576,-139.54"/>
</g>
<!-- Node4&#45;&gt;Node2 -->
<g id="edge4" class="edge"><title>Node4&#45;&gt;Node2</title>
<path fill="none" stroke="midnightblue" d="M81.4689,-112.368C74.1412,-94.4563 57.1504,-52.9233 47.3424,-28.9482"/>
<polygon fill="midnightblue" stroke="midnightblue" points="50.5405,-27.5217 43.5147,-19.5914 44.0616,-30.1721 50.5405,-27.5217"/>
</g>
<!-- Node4&#45;&gt;Node3 -->
<g id="edge5" class="edge"><title>Node4&#45;&gt;Node3</title>
<path fill="none" stroke="midnightblue" d="M85.5469,-112.312C86.7348,-99.1535 90.4577,-73.817 102,-56 110.08,-43.5279 122.769,-32.9176 134.027,-25.1377"/>
<polygon fill="midnightblue" stroke="midnightblue" points="136.17,-27.9187 142.633,-19.5237 132.346,-22.0557 136.17,-27.9187"/>
</g>
<!-- Node4&#45;&gt;Node5 -->
<g id="edge6" class="edge"><title>Node4&#45;&gt;Node5</title>
<path fill="none" stroke="midnightblue" d="M96.086,-112.324C106.486,-104.185 122.261,-91.8395 134.722,-82.0874"/>
<polygon fill="midnightblue" stroke="midnightblue" points="136.994,-84.7533 142.712,-75.8339 132.68,-79.2407 136.994,-84.7533"/>
</g>
<!-- Node5&#45;&gt;Node2 -->
<g id="edge7" class="edge"><title>Node5&#45;&gt;Node2</title>
<path fill="none" stroke="midnightblue" d="M135.936,-56.4435C117.425,-47.6751 88.4193,-33.9355 67.1445,-23.8579"/>
<polygon fill="midnightblue" stroke="midnightblue" points="68.5148,-20.6343 57.9791,-19.5164 65.5182,-26.9604 68.5148,-20.6343"/>
</g>
<!-- Node5&#45;&gt;Node3 -->
<g id="edge8" class="edge"><title>Node5&#45;&gt;Node3</title>
<path fill="none" stroke="midnightblue" d="M154.661,-56.083C155.185,-49.0059 155.936,-38.8611 156.594,-29.9865"/>
<polygon fill="midnightblue" stroke="midnightblue" points="160.103,-29.9823 157.352,-19.7511 153.123,-29.4652 160.103,-29.9823"/>
</g>
</g>
</svg>
