<?xml version="1.0" encoding="UTF-8" standalone="no"?>
<!DOCTYPE svg PUBLIC "-//W3C//DTD SVG 1.1//EN"
 "http://www.w3.org/Graphics/SVG/1.1/DTD/svg11.dtd">
<!-- Generated by graphviz version 2.36.0 (20140111.2315)
 -->
<!-- Title: /home/travis/build/robotology/human&#45;dynamics&#45;estimation/build/ros&#45;msgs/autogenerated/msgs/include/tf2_msgs_TFMessage.h Pages: 1 -->
<svg width="1070pt" height="464pt"
 viewBox="0.00 0.00 1070.00 464.00" xmlns="http://www.w3.org/2000/svg" xmlns:xlink="http://www.w3.org/1999/xlink">
<g id="graph0" class="graph" transform="scale(1 1) rotate(0) translate(4 460)">
<title>/home/travis/build/robotology/human&#45;dynamics&#45;estimation/build/ros&#45;msgs/autogenerated/msgs/include/tf2_msgs_TFMessage.h</title>
<!-- Node1 -->
<g id="node1" class="node"><title>Node1</title>
<polygon fill="#bfbfbf" stroke="black" points="521,-392.5 521,-455.5 663,-455.5 663,-392.5 521,-392.5"/>
<text text-anchor="start" x="529" y="-443.5" font-family="Helvetica,sans-Serif" font-size="10.00">/home/travis/build</text>
<text text-anchor="start" x="529" y="-432.5" font-family="Helvetica,sans-Serif" font-size="10.00">/robotology/human&#45;dynamics</text>
<text text-anchor="start" x="529" y="-421.5" font-family="Helvetica,sans-Serif" font-size="10.00">&#45;estimation/build/ros&#45;msgs</text>
<text text-anchor="start" x="529" y="-410.5" font-family="Helvetica,sans-Serif" font-size="10.00">/autogenerated/msgs/include</text>
<text text-anchor="middle" x="592" y="-399.5" font-family="Helvetica,sans-Serif" font-size="10.00">/tf2_msgs_TFMessage.h</text>
</g>
<!-- Node2 -->
<g id="node2" class="node"><title>Node2</title>
<polygon fill="none" stroke="#bfbfbf" points="321.5,-0.5 321.5,-19.5 362.5,-19.5 362.5,-0.5 321.5,-0.5"/>
<text text-anchor="middle" x="342" y="-7.5" font-family="Helvetica,sans-Serif" font-size="10.00">string</text>
</g>
<!-- Node1&#45;&gt;Node2 -->
<g id="edge1" class="edge"><title>Node1&#45;&gt;Node2</title>
<path fill="none" stroke="midnightblue" d="M520.916,-418.254C387.299,-407.37 112,-374.78 112,-291 112,-291 112,-291 112,-233 112,-123.165 249.465,-50.4718 311.848,-23.1378"/>
<polygon fill="midnightblue" stroke="midnightblue" points="313.368,-26.2947 321.183,-19.1416 310.613,-19.8596 313.368,-26.2947"/>
</g>
<!-- Node3 -->
<g id="node3" class="node"><title>Node3</title>
<polygon fill="none" stroke="#bfbfbf" points="926,-0.5 926,-19.5 970,-19.5 970,-0.5 926,-0.5"/>
<text text-anchor="middle" x="948" y="-7.5" font-family="Helvetica,sans-Serif" font-size="10.00">vector</text>
</g>
<!-- Node1&#45;&gt;Node3 -->
<g id="edge2" class="edge"><title>Node1&#45;&gt;Node3</title>
<path fill="none" stroke="midnightblue" d="M663.128,-417.834C794.518,-406.324 1062,-372.841 1062,-291 1062,-291 1062,-291 1062,-121 1062,-74.1149 1011.45,-40.8944 977.671,-23.9302"/>
<polygon fill="midnightblue" stroke="midnightblue" points="979.172,-20.7687 968.645,-19.5787 976.132,-27.0742 979.172,-20.7687"/>
</g>
<!-- Node4 -->
<g id="node4" class="node"><title>Node4</title>
<polygon fill="none" stroke="#bfbfbf" points="642,-0.5 642,-19.5 722,-19.5 722,-0.5 642,-0.5"/>
<text text-anchor="middle" x="682" y="-7.5" font-family="Helvetica,sans-Serif" font-size="10.00">yarp/os/Wire.h</text>
</g>
<!-- Node1&#45;&gt;Node4 -->
<g id="edge3" class="edge"><title>Node1&#45;&gt;Node4</title>
<path fill="none" stroke="midnightblue" d="M663.272,-416.239C744.947,-407.086 872.047,-388.097 907,-356 926.158,-338.407 920.181,-325.729 924,-300 932.67,-241.596 943.004,-216.27 909,-168 857.882,-95.4363 761.888,-45.6831 712.726,-23.7225"/>
<polygon fill="midnightblue" stroke="midnightblue" points="713.827,-20.3836 703.262,-19.581 711.02,-26.7964 713.827,-20.3836"/>
</g>
<!-- Node5 -->
<g id="node5" class="node"><title>Node5</title>
<polygon fill="none" stroke="#bfbfbf" points="54,-0.5 54,-19.5 174,-19.5 174,-0.5 54,-0.5"/>
<text text-anchor="middle" x="114" y="-7.5" font-family="Helvetica,sans-Serif" font-size="10.00">yarp/os/idl/WireTypes.h</text>
</g>
<!-- Node1&#45;&gt;Node5 -->
<g id="edge4" class="edge"><title>Node1&#45;&gt;Node5</title>
<path fill="none" stroke="midnightblue" d="M520.885,-421.971C363.59,-417.768 0,-396.631 0,-291 0,-291 0,-291 0,-121 0,-74.1149 50.5515,-40.8944 84.3292,-23.9302"/>
<polygon fill="midnightblue" stroke="midnightblue" points="85.8676,-27.0742 93.3555,-19.5787 82.8277,-20.7687 85.8676,-27.0742"/>
</g>
<!-- Node6 -->
<g id="node6" class="node"><title>Node6</title>
<g id="a_node6"><a xlink:href="autogenerated_2msgs_2include_2_tick_time_8h.html" target="_top" xlink:title="TickTime.h">
<polygon fill="none" stroke="black" points="581.5,-56.5 581.5,-75.5 646.5,-75.5 646.5,-56.5 581.5,-56.5"/>
<text text-anchor="middle" x="614" y="-63.5" font-family="Helvetica,sans-Serif" font-size="10.00">TickTime.h</text>
</a>
</g>
</g>
<!-- Node1&#45;&gt;Node6 -->
<g id="edge5" class="edge"><title>Node1&#45;&gt;Node6</title>
<path fill="none" stroke="midnightblue" d="M663.365,-423.306C757.122,-419.529 910,-397.102 910,-291 910,-291 910,-291 910,-233 910,-118.16 738.408,-81.9636 656.518,-71.2282"/>
<polygon fill="midnightblue" stroke="midnightblue" points="656.879,-67.7462 646.524,-69.9863 656.016,-74.6928 656.879,-67.7462"/>
</g>
<!-- Node7 -->
<g id="node7" class="node"><title>Node7</title>
<g id="a_node7"><a xlink:href="autogenerated_2msgs_2include_2std__msgs___header_8h.html" target="_top" xlink:title="std_msgs_Header.h">
<polygon fill="none" stroke="black" points="360,-112.5 360,-131.5 464,-131.5 464,-112.5 360,-112.5"/>
<text text-anchor="middle" x="412" y="-119.5" font-family="Helvetica,sans-Serif" font-size="10.00">std_msgs_Header.h</text>
</a>
</g>
</g>
<!-- Node1&#45;&gt;Node7 -->
<g id="edge10" class="edge"><title>Node1&#45;&gt;Node7</title>
<path fill="none" stroke="midnightblue" d="M520.734,-409.622C486.387,-399.909 446.912,-383.47 420,-356 360.218,-294.978 353.29,-249.143 380,-168 383.434,-157.568 390.203,-147.461 396.634,-139.477"/>
<polygon fill="midnightblue" stroke="midnightblue" points="399.431,-141.593 403.307,-131.732 394.128,-137.024 399.431,-141.593"/>
</g>
<!-- Node8 -->
<g id="node8" class="node"><title>Node8</title>
<g id="a_node8"><a xlink:href="autogenerated_2msgs_2include_2geometry__msgs___vector3_8h.html" target="_top" xlink:title="geometry_msgs_Vector3.h">
<polygon fill="none" stroke="black" points="558,-168.5 558,-187.5 692,-187.5 692,-168.5 558,-168.5"/>
<text text-anchor="middle" x="625" y="-175.5" font-family="Helvetica,sans-Serif" font-size="10.00">geometry_msgs_Vector3.h</text>
</a>
</g>
</g>
<!-- Node1&#45;&gt;Node8 -->
<g id="edge16" class="edge"><title>Node1&#45;&gt;Node8</title>
<path fill="none" stroke="midnightblue" d="M624.28,-392.052C645.583,-369.049 671.291,-335.601 681,-300 685.818,-282.335 682.086,-236.028 676,-224 669.752,-211.653 658.538,-201.18 648.213,-193.453"/>
<polygon fill="midnightblue" stroke="midnightblue" points="650.079,-190.488 639.877,-187.628 646.069,-196.225 650.079,-190.488"/>
</g>
<!-- Node9 -->
<g id="node9" class="node"><title>Node9</title>
<g id="a_node9"><a xlink:href="autogenerated_2msgs_2include_2geometry__msgs___quaternion_8h.html" target="_top" xlink:title="geometry_msgs_Quaternion.h">
<polygon fill="none" stroke="black" points="413.5,-224.5 413.5,-243.5 560.5,-243.5 560.5,-224.5 413.5,-224.5"/>
<text text-anchor="middle" x="487" y="-231.5" font-family="Helvetica,sans-Serif" font-size="10.00">geometry_msgs_Quaternion.h</text>
</a>
</g>
</g>
<!-- Node1&#45;&gt;Node9 -->
<g id="edge23" class="edge"><title>Node1&#45;&gt;Node9</title>
<path fill="none" stroke="midnightblue" d="M520.616,-411.839C487.49,-402.696 451.075,-386.098 431,-356 407.69,-321.051 445.574,-274.843 469.603,-250.904"/>
<polygon fill="midnightblue" stroke="midnightblue" points="472.327,-253.14 477.113,-243.688 467.477,-248.093 472.327,-253.14"/>
</g>
<!-- Node10 -->
<g id="node10" class="node"><title>Node10</title>
<g id="a_node10"><a xlink:href="autogenerated_2msgs_2include_2geometry__msgs___transform_8h.html" target="_top" xlink:title="geometry_msgs_Transform.h">
<polygon fill="none" stroke="black" points="510,-280.5 510,-299.5 654,-299.5 654,-280.5 510,-280.5"/>
<text text-anchor="middle" x="582" y="-287.5" font-family="Helvetica,sans-Serif" font-size="10.00">geometry_msgs_Transform.h</text>
</a>
</g>
</g>
<!-- Node1&#45;&gt;Node10 -->
<g id="edge31" class="edge"><title>Node1&#45;&gt;Node10</title>
<path fill="none" stroke="midnightblue" d="M619.626,-392.481C631.264,-375.831 640.387,-354.831 632,-336 626.432,-323.498 615.484,-313.012 605.249,-305.317"/>
<polygon fill="midnightblue" stroke="midnightblue" points="607.156,-302.379 596.952,-299.526 603.149,-308.119 607.156,-302.379"/>
</g>
<!-- Node11 -->
<g id="node11" class="node"><title>Node11</title>
<g id="a_node11"><a xlink:href="autogenerated_2msgs_2include_2geometry__msgs___transform_stamped_8h.html" target="_top" xlink:title="geometry_msgs_TransformStamped.h">
<polygon fill="none" stroke="black" points="440.5,-336.5 440.5,-355.5 623.5,-355.5 623.5,-336.5 440.5,-336.5"/>
<text text-anchor="middle" x="532" y="-343.5" font-family="Helvetica,sans-Serif" font-size="10.00">geometry_msgs_TransformStamped.h</text>
</a>
</g>
</g>
<!-- Node1&#45;&gt;Node11 -->
<g id="edge40" class="edge"><title>Node1&#45;&gt;Node11</title>
<path fill="none" stroke="midnightblue" d="M567.596,-392.088C559.89,-382.328 551.674,-371.921 545.079,-363.567"/>
<polygon fill="midnightblue" stroke="midnightblue" points="547.826,-361.398 538.883,-355.718 542.332,-365.736 547.826,-361.398"/>
</g>
<!-- Node6&#45;&gt;Node2 -->
<g id="edge6" class="edge"><title>Node6&#45;&gt;Node2</title>
<path fill="none" stroke="midnightblue" d="M581.461,-58.54C528.428,-48.0114 424.101,-27.2995 372.451,-17.0454"/>
<polygon fill="midnightblue" stroke="midnightblue" points="373.05,-13.5961 362.56,-15.0818 371.687,-20.4621 373.05,-13.5961"/>
</g>
<!-- Node6&#45;&gt;Node3 -->
<g id="edge7" class="edge"><title>Node6&#45;&gt;Node3</title>
<path fill="none" stroke="midnightblue" d="M646.633,-59.7239C710.696,-49.3666 852.197,-26.489 915.86,-16.1963"/>
<polygon fill="midnightblue" stroke="midnightblue" points="916.428,-19.6499 925.742,-14.5987 915.311,-12.7397 916.428,-19.6499"/>
</g>
<!-- Node6&#45;&gt;Node4 -->
<g id="edge8" class="edge"><title>Node6&#45;&gt;Node4</title>
<path fill="none" stroke="midnightblue" d="M624.925,-56.324C635.175,-48.1849 650.721,-35.8395 663.001,-26.0874"/>
<polygon fill="midnightblue" stroke="midnightblue" points="665.221,-28.7937 670.876,-19.8339 660.868,-23.3119 665.221,-28.7937"/>
</g>
<!-- Node6&#45;&gt;Node5 -->
<g id="edge9" class="edge"><title>Node6&#45;&gt;Node5</title>
<path fill="none" stroke="midnightblue" d="M581.194,-61.4569C501.029,-52.7992 293.767,-30.4148 184.231,-18.585"/>
<polygon fill="midnightblue" stroke="midnightblue" points="184.583,-15.1027 174.265,-17.5086 183.831,-22.0622 184.583,-15.1027"/>
</g>
<!-- Node7&#45;&gt;Node2 -->
<g id="edge11" class="edge"><title>Node7&#45;&gt;Node2</title>
<path fill="none" stroke="midnightblue" d="M406.507,-112.368C395.006,-94.2957 368.203,-52.1764 353.014,-28.3074"/>
<polygon fill="midnightblue" stroke="midnightblue" points="355.789,-26.149 347.467,-19.5914 349.883,-29.9071 355.789,-26.149"/>
</g>
<!-- Node7&#45;&gt;Node3 -->
<g id="edge12" class="edge"><title>Node7&#45;&gt;Node3</title>
<path fill="none" stroke="midnightblue" d="M428.773,-112.432C457.361,-98.2336 517.711,-70.0069 572,-56 696.222,-23.9501 849.534,-14.6141 915.411,-11.9865"/>
<polygon fill="midnightblue" stroke="midnightblue" points="915.718,-15.4776 925.581,-11.6073 915.457,-8.48247 915.718,-15.4776"/>
</g>
<!-- Node7&#45;&gt;Node4 -->
<g id="edge13" class="edge"><title>Node7&#45;&gt;Node4</title>
<path fill="none" stroke="midnightblue" d="M414.793,-112.228C419.808,-97.9919 431.745,-70.0413 452,-56 480.469,-36.2642 572.821,-22.874 631.479,-16.1193"/>
<polygon fill="midnightblue" stroke="midnightblue" points="632.113,-19.5702 641.659,-14.9745 631.331,-12.614 632.113,-19.5702"/>
</g>
<!-- Node7&#45;&gt;Node5 -->
<g id="edge14" class="edge"><title>Node7&#45;&gt;Node5</title>
<path fill="none" stroke="midnightblue" d="M388.616,-112.368C335.847,-92.89 207.407,-45.479 146.75,-23.089"/>
<polygon fill="midnightblue" stroke="midnightblue" points="147.868,-19.7709 137.275,-19.5914 145.444,-26.3378 147.868,-19.7709"/>
</g>
<!-- Node7&#45;&gt;Node6 -->
<g id="edge15" class="edge"><title>Node7&#45;&gt;Node6</title>
<path fill="none" stroke="midnightblue" d="M444.008,-112.444C478.729,-103.162 534.288,-88.3093 572.377,-78.127"/>
<polygon fill="midnightblue" stroke="midnightblue" points="573.385,-81.4803 582.142,-75.5164 571.578,-74.7178 573.385,-81.4803"/>
</g>
<!-- Node8&#45;&gt;Node2 -->
<g id="edge17" class="edge"><title>Node8&#45;&gt;Node2</title>
<path fill="none" stroke="midnightblue" d="M610.183,-168.309C563.954,-141.192 422.093,-57.9802 365.585,-24.8345"/>
<polygon fill="midnightblue" stroke="midnightblue" points="367.067,-21.6457 356.67,-19.6051 363.525,-27.6837 367.067,-21.6457"/>
</g>
<!-- Node8&#45;&gt;Node3 -->
<g id="edge18" class="edge"><title>Node8&#45;&gt;Node3</title>
<path fill="none" stroke="midnightblue" d="M640.298,-168.387C662.85,-155.749 706.412,-131.561 744,-112 806.859,-79.2889 881.741,-42.8523 920.967,-23.956"/>
<polygon fill="midnightblue" stroke="midnightblue" points="922.647,-27.0315 930.142,-19.5428 919.613,-20.7232 922.647,-27.0315"/>
</g>
<!-- Node8&#45;&gt;Node4 -->
<g id="edge19" class="edge"><title>Node8&#45;&gt;Node4</title>
<path fill="none" stroke="midnightblue" d="M628.065,-168.075C637.076,-141.832 663.614,-64.5453 675.779,-29.1165"/>
<polygon fill="midnightblue" stroke="midnightblue" points="679.121,-30.1628 679.058,-19.5681 672.5,-27.8894 679.121,-30.1628"/>
</g>
<!-- Node8&#45;&gt;Node5 -->
<g id="edge20" class="edge"><title>Node8&#45;&gt;Node5</title>
<path fill="none" stroke="midnightblue" d="M557.908,-171.279C501.677,-165.236 419.787,-153.5 351,-132 295.593,-114.682 284.716,-102.369 233,-76 199.674,-59.0079 161.87,-38.066 137.987,-24.625"/>
<polygon fill="midnightblue" stroke="midnightblue" points="139.685,-21.5639 129.256,-19.6957 136.243,-27.6596 139.685,-21.5639"/>
</g>
<!-- Node8&#45;&gt;Node6 -->
<g id="edge21" class="edge"><title>Node8&#45;&gt;Node6</title>
<path fill="none" stroke="midnightblue" d="M624.137,-168.368C622.362,-150.617 618.267,-109.666 615.86,-85.5974"/>
<polygon fill="midnightblue" stroke="midnightblue" points="619.337,-85.1935 614.859,-75.5914 612.372,-85.8901 619.337,-85.1935"/>
</g>
<!-- Node8&#45;&gt;Node7 -->
<g id="edge22" class="edge"><title>Node8&#45;&gt;Node7</title>
<path fill="none" stroke="midnightblue" d="M591.25,-168.444C554.482,-159.122 495.554,-144.183 455.378,-133.997"/>
<polygon fill="midnightblue" stroke="midnightblue" points="456.146,-130.581 445.593,-131.516 454.426,-137.367 456.146,-130.581"/>
</g>
<!-- Node9&#45;&gt;Node2 -->
<g id="edge24" class="edge"><title>Node9&#45;&gt;Node2</title>
<path fill="none" stroke="midnightblue" d="M466.205,-224.432C434.978,-210.33 376.88,-179.022 351,-132 333.12,-99.5128 335.575,-54.4886 338.852,-29.5317"/>
<polygon fill="midnightblue" stroke="midnightblue" points="342.321,-30.0035 340.346,-19.5943 335.399,-28.9628 342.321,-30.0035"/>
</g>
<!-- Node9&#45;&gt;Node3 -->
<g id="edge25" class="edge"><title>Node9&#45;&gt;Node3</title>
<path fill="none" stroke="midnightblue" d="M560.64,-225.179C603.02,-218.822 656.52,-207.572 701,-188 797.519,-145.53 893.895,-61.4749 931.511,-26.6645"/>
<polygon fill="midnightblue" stroke="midnightblue" points="934.098,-29.0372 939.012,-19.6507 929.317,-23.9242 934.098,-29.0372"/>
</g>
<!-- Node9&#45;&gt;Node4 -->
<g id="edge26" class="edge"><title>Node9&#45;&gt;Node4</title>
<path fill="none" stroke="midnightblue" d="M488.823,-224.307C495.169,-196.088 518.869,-105.988 572,-56 588.93,-40.0715 612.262,-29.4475 633.083,-22.5441"/>
<polygon fill="midnightblue" stroke="midnightblue" points="634.241,-25.8494 642.751,-19.5379 632.162,-19.1651 634.241,-25.8494"/>
</g>
<!-- Node9&#45;&gt;Node5 -->
<g id="edge27" class="edge"><title>Node9&#45;&gt;Node5</title>
<path fill="none" stroke="midnightblue" d="M462.92,-224.39C440.309,-216.017 405.751,-202.473 377,-188 291.148,-144.783 270.251,-131.813 192,-76 170.204,-60.4544 146.817,-40.4767 131.398,-26.797"/>
<polygon fill="midnightblue" stroke="midnightblue" points="133.496,-23.9778 123.712,-19.9133 128.826,-29.1922 133.496,-23.9778"/>
</g>
<!-- Node9&#45;&gt;Node6 -->
<g id="edge28" class="edge"><title>Node9&#45;&gt;Node6</title>
<path fill="none" stroke="midnightblue" d="M493.828,-224.075C514.165,-197.493 574.57,-118.538 601.175,-83.7633"/>
<polygon fill="midnightblue" stroke="midnightblue" points="604.148,-85.6371 607.445,-75.5681 598.589,-81.3836 604.148,-85.6371"/>
</g>
<!-- Node9&#45;&gt;Node7 -->
<g id="edge29" class="edge"><title>Node9&#45;&gt;Node7</title>
<path fill="none" stroke="midnightblue" d="M481.115,-224.368C468.738,-206.215 439.819,-163.802 423.584,-139.99"/>
<polygon fill="midnightblue" stroke="midnightblue" points="426.383,-137.882 417.858,-131.591 420.599,-141.825 426.383,-137.882"/>
</g>
<!-- Node9&#45;&gt;Node8 -->
<g id="edge30" class="edge"><title>Node9&#45;&gt;Node8</title>
<path fill="none" stroke="midnightblue" d="M508.867,-224.444C531.779,-215.478 567.975,-201.314 593.866,-191.183"/>
<polygon fill="midnightblue" stroke="midnightblue" points="595.199,-194.42 603.236,-187.516 592.648,-187.901 595.199,-194.42"/>
</g>
<!-- Node10&#45;&gt;Node2 -->
<g id="edge32" class="edge"><title>Node10&#45;&gt;Node2</title>
<path fill="none" stroke="midnightblue" d="M509.927,-287.045C470.964,-282.565 424.176,-271.239 391,-244 329.95,-193.875 337.908,-154.839 333,-76 332.448,-67.1283 332.124,-64.8456 333,-56 333.874,-47.1697 335.691,-37.5054 337.465,-29.4041"/>
<polygon fill="midnightblue" stroke="midnightblue" points="340.901,-30.0846 339.765,-19.5508 334.084,-28.4935 340.901,-30.0846"/>
</g>
<!-- Node10&#45;&gt;Node3 -->
<g id="edge33" class="edge"><title>Node10&#45;&gt;Node3</title>
<path fill="none" stroke="midnightblue" d="M615.008,-280.429C640.62,-272.967 676.449,-260.716 705,-244 804.01,-186.031 823.29,-160.408 901,-76 914.794,-61.0166 928.167,-41.9388 937.098,-28.3349"/>
<polygon fill="midnightblue" stroke="midnightblue" points="940.052,-30.2119 942.522,-19.9089 934.166,-26.4231 940.052,-30.2119"/>
</g>
<!-- Node10&#45;&gt;Node4 -->
<g id="edge34" class="edge"><title>Node10&#45;&gt;Node4</title>
<path fill="none" stroke="midnightblue" d="M610.922,-280.396C631.777,-273.145 659.71,-261.178 680,-244 702.956,-224.565 709.166,-216.752 718,-188 735.535,-130.929 707.075,-60.8441 691.336,-28.6709"/>
<polygon fill="midnightblue" stroke="midnightblue" points="694.392,-26.9578 686.747,-19.6218 688.148,-30.1236 694.392,-26.9578"/>
</g>
<!-- Node10&#45;&gt;Node5 -->
<g id="edge35" class="edge"><title>Node10&#45;&gt;Node5</title>
<path fill="none" stroke="midnightblue" d="M509.995,-282.689C466.857,-276.813 411.863,-265.54 367,-244 261.117,-193.163 244.25,-160.818 163,-76 148.703,-61.0749 134.749,-41.9888 125.413,-28.367"/>
<polygon fill="midnightblue" stroke="midnightblue" points="128.223,-26.2741 119.739,-19.9279 122.414,-30.1796 128.223,-26.2741"/>
</g>
<!-- Node10&#45;&gt;Node6 -->
<g id="edge36" class="edge"><title>Node10&#45;&gt;Node6</title>
<path fill="none" stroke="midnightblue" d="M599.974,-280.264C627.743,-265.629 680.056,-233.248 701,-188 720.67,-145.505 669.045,-102.619 637.1,-81.1338"/>
<polygon fill="midnightblue" stroke="midnightblue" points="638.978,-78.1802 628.688,-75.6595 635.16,-84.0473 638.978,-78.1802"/>
</g>
<!-- Node10&#45;&gt;Node7 -->
<g id="edge37" class="edge"><title>Node10&#45;&gt;Node7</title>
<path fill="none" stroke="midnightblue" d="M513.923,-280.499C469.658,-273.413 417.708,-261.605 404,-244 380.809,-214.217 394.027,-166.799 404.03,-141.057"/>
<polygon fill="midnightblue" stroke="midnightblue" points="407.29,-142.333 407.878,-131.755 400.821,-139.658 407.29,-142.333"/>
</g>
<!-- Node10&#45;&gt;Node8 -->
<g id="edge38" class="edge"><title>Node10&#45;&gt;Node8</title>
<path fill="none" stroke="midnightblue" d="M585.374,-280.368C592.376,-262.456 608.612,-220.923 617.984,-196.948"/>
<polygon fill="midnightblue" stroke="midnightblue" points="621.26,-198.179 621.642,-187.591 614.741,-195.631 621.26,-198.179"/>
</g>
<!-- Node10&#45;&gt;Node9 -->
<g id="edge39" class="edge"><title>Node10&#45;&gt;Node9</title>
<path fill="none" stroke="midnightblue" d="M566.737,-280.324C551.779,-271.822 528.745,-258.729 511.273,-248.797"/>
<polygon fill="midnightblue" stroke="midnightblue" points="512.649,-245.553 502.226,-243.655 509.19,-251.639 512.649,-245.553"/>
</g>
<!-- Node11&#45;&gt;Node2 -->
<g id="edge41" class="edge"><title>Node11&#45;&gt;Node2</title>
<path fill="none" stroke="midnightblue" d="M494.422,-336.454C470.21,-329.572 439.064,-318.021 416,-300 368,-262.495 358.489,-244.999 337,-188 316.267,-133.004 320.763,-114.194 329,-56 330.268,-47.0425 332.889,-37.372 335.448,-29.2998"/>
<polygon fill="midnightblue" stroke="midnightblue" points="338.771,-30.3976 338.656,-19.8034 332.139,-28.1569 338.771,-30.3976"/>
</g>
<!-- Node11&#45;&gt;Node3 -->
<g id="edge42" class="edge"><title>Node11&#45;&gt;Node3</title>
<path fill="none" stroke="midnightblue" d="M621.315,-336.494C656.435,-330.175 695.936,-319.169 728,-300 841.543,-232.12 856.411,-189.716 924,-76 932.643,-61.4584 939.033,-43.279 943.036,-29.8463"/>
<polygon fill="midnightblue" stroke="midnightblue" points="946.506,-30.437 945.835,-19.8634 939.765,-28.5471 946.506,-30.437"/>
</g>
<!-- Node11&#45;&gt;Node4 -->
<g id="edge43" class="edge"><title>Node11&#45;&gt;Node4</title>
<path fill="none" stroke="midnightblue" d="M623.883,-336.995C652.239,-330.592 681.81,-319.403 704,-300 767.805,-244.209 747.059,-196.033 736,-112 732.638,-86.454 733.079,-78.7598 721,-56 715.33,-45.3156 706.696,-34.9979 698.993,-26.9435"/>
<polygon fill="midnightblue" stroke="midnightblue" points="701.295,-24.2968 691.743,-19.7137 696.352,-29.2534 701.295,-24.2968"/>
</g>
<!-- Node11&#45;&gt;Node5 -->
<g id="edge44" class="edge"><title>Node11&#45;&gt;Node5</title>
<path fill="none" stroke="midnightblue" d="M440.24,-343.109C297.379,-337.642 38,-316.494 38,-235 38,-235 38,-235 38,-121 38,-81.2757 71.9641,-45.5045 94.4821,-26.1536"/>
<polygon fill="midnightblue" stroke="midnightblue" points="96.9755,-28.6337 102.457,-19.5672 92.518,-23.2364 96.9755,-28.6337"/>
</g>
<!-- Node11&#45;&gt;Node6 -->
<g id="edge45" class="edge"><title>Node11&#45;&gt;Node6</title>
<path fill="none" stroke="midnightblue" d="M608.227,-336.435C634.139,-330.071 661.454,-319.048 681,-300 718.544,-263.411 709.672,-239.758 718,-188 723.531,-153.625 721.576,-138.506 699,-112 686.42,-97.2298 667.748,-86.597 651.107,-79.3886"/>
<polygon fill="midnightblue" stroke="midnightblue" points="652.187,-76.0498 641.605,-75.5348 649.556,-82.5366 652.187,-76.0498"/>
</g>
<!-- Node11&#45;&gt;Node7 -->
<g id="edge46" class="edge"><title>Node11&#45;&gt;Node7</title>
<path fill="none" stroke="midnightblue" d="M509.8,-336.494C477.163,-322.663 417.267,-291.926 391,-244 374.753,-214.356 379.801,-200.795 388,-168 390.439,-158.245 395.437,-148.29 400.243,-140.231"/>
<polygon fill="midnightblue" stroke="midnightblue" points="403.213,-142.083 405.633,-131.768 397.309,-138.322 403.213,-142.083"/>
</g>
<!-- Node11&#45;&gt;Node8 -->
<g id="edge47" class="edge"><title>Node11&#45;&gt;Node8</title>
<path fill="none" stroke="midnightblue" d="M605.146,-336.457C627.358,-330.044 649.448,-318.985 663,-300 686.129,-267.599 657.635,-220.613 638.899,-195.803"/>
<polygon fill="midnightblue" stroke="midnightblue" points="641.485,-193.429 632.551,-187.734 635.983,-197.757 641.485,-193.429"/>
</g>
<!-- Node11&#45;&gt;Node9 -->
<g id="edge48" class="edge"><title>Node11&#45;&gt;Node9</title>
<path fill="none" stroke="midnightblue" d="M524.462,-336.315C517.359,-327.677 506.943,-313.761 501,-300 494.628,-285.246 491.046,-267.316 489.104,-254.028"/>
<polygon fill="midnightblue" stroke="midnightblue" points="492.529,-253.217 487.791,-243.741 485.586,-254.104 492.529,-253.217"/>
</g>
<!-- Node11&#45;&gt;Node10 -->
<g id="edge49" class="edge"><title>Node11&#45;&gt;Node10</title>
<path fill="none" stroke="midnightblue" d="M540.256,-336.083C547.465,-328.298 558.11,-316.801 566.846,-307.367"/>
<polygon fill="midnightblue" stroke="midnightblue" points="569.671,-309.467 573.897,-299.751 564.535,-304.711 569.671,-309.467"/>
</g>
</g>
</svg>
