<?xml version="1.0" encoding="UTF-8" standalone="no"?>
<!DOCTYPE svg PUBLIC "-//W3C//DTD SVG 1.1//EN"
 "http://www.w3.org/Graphics/SVG/1.1/DTD/svg11.dtd">
<!-- Generated by graphviz version 2.36.0 (20140111.2315)
 -->
<!-- Title: /home/travis/build/robotology/human&#45;dynamics&#45;estimation/build/human&#45;forces&#45;provider/autogenerated/include/thrifts/Force6D.h Pages: 1 -->
<svg width="1124pt" height="362pt"
 viewBox="0.00 0.00 1124.00 362.00" xmlns="http://www.w3.org/2000/svg" xmlns:xlink="http://www.w3.org/1999/xlink">
<g id="graph0" class="graph" transform="scale(1 1) rotate(0) translate(4 358)">
<title>/home/travis/build/robotology/human&#45;dynamics&#45;estimation/build/human&#45;forces&#45;provider/autogenerated/include/thrifts/Force6D.h</title>
<!-- Node1 -->
<g id="node1" class="node"><title>Node1</title>
<polygon fill="#bfbfbf" stroke="black" points="365.5,-290.5 365.5,-353.5 514.5,-353.5 514.5,-290.5 365.5,-290.5"/>
<text text-anchor="start" x="373.5" y="-341.5" font-family="Helvetica,sans-Serif" font-size="10.00">/home/travis/build</text>
<text text-anchor="start" x="373.5" y="-330.5" font-family="Helvetica,sans-Serif" font-size="10.00">/robotology/human&#45;dynamics</text>
<text text-anchor="start" x="373.5" y="-319.5" font-family="Helvetica,sans-Serif" font-size="10.00">&#45;estimation/build/human</text>
<text text-anchor="start" x="373.5" y="-308.5" font-family="Helvetica,sans-Serif" font-size="10.00">&#45;forces&#45;provider/autogenerated</text>
<text text-anchor="middle" x="440" y="-297.5" font-family="Helvetica,sans-Serif" font-size="10.00">/include/thrifts/Force6D.h</text>
</g>
<!-- Node2 -->
<g id="node2" class="node"><title>Node2</title>
<g id="a_node2"><a xlink:href="__yarp__idl___2thrifts_2force6d_2_force6_d_8cpp.html" target="_top" xlink:title="/home/travis/build\l/robotology/human&#45;dynamics\l&#45;estimation/build/human\l&#45;forces&#45;provider/_yarp_idl\l_/thrifts/force6d/Force6D.cpp">
<polygon fill="none" stroke="black" points="26,-190.5 26,-253.5 170,-253.5 170,-190.5 26,-190.5"/>
<text text-anchor="start" x="34" y="-241.5" font-family="Helvetica,sans-Serif" font-size="10.00">/home/travis/build</text>
<text text-anchor="start" x="34" y="-230.5" font-family="Helvetica,sans-Serif" font-size="10.00">/robotology/human&#45;dynamics</text>
<text text-anchor="start" x="34" y="-219.5" font-family="Helvetica,sans-Serif" font-size="10.00">&#45;estimation/build/human</text>
<text text-anchor="start" x="34" y="-208.5" font-family="Helvetica,sans-Serif" font-size="10.00">&#45;forces&#45;provider/_yarp_idl</text>
<text text-anchor="middle" x="98" y="-197.5" font-family="Helvetica,sans-Serif" font-size="10.00">_/thrifts/force6d/Force6D.cpp</text>
</a>
</g>
</g>
<!-- Node1&#45;&gt;Node2 -->
<g id="edge1" class="edge"><title>Node1&#45;&gt;Node2</title>
<path fill="none" stroke="midnightblue" d="M355.639,-301.932C304.183,-289.663 237.312,-272.576 179,-254 176.131,-253.086 173.215,-252.125 170.278,-251.131"/>
<polygon fill="midnightblue" stroke="midnightblue" points="354.852,-305.342 365.389,-304.243 356.466,-298.531 354.852,-305.342"/>
</g>
<!-- Node3 -->
<g id="node3" class="node"><title>Node3</title>
<g id="a_node3"><a xlink:href="__yarp__idl___2thrifts_2force6d_2_human_forces_8h.html" target="_top" xlink:title="/home/travis/build\l/robotology/human&#45;dynamics\l&#45;estimation/build/human\l&#45;forces&#45;provider/_yarp_idl\l_/thrifts/force6d/HumanForces.h">
<polygon fill="none" stroke="black" points="188,-190.5 188,-253.5 346,-253.5 346,-190.5 188,-190.5"/>
<text text-anchor="start" x="196" y="-241.5" font-family="Helvetica,sans-Serif" font-size="10.00">/home/travis/build</text>
<text text-anchor="start" x="196" y="-230.5" font-family="Helvetica,sans-Serif" font-size="10.00">/robotology/human&#45;dynamics</text>
<text text-anchor="start" x="196" y="-219.5" font-family="Helvetica,sans-Serif" font-size="10.00">&#45;estimation/build/human</text>
<text text-anchor="start" x="196" y="-208.5" font-family="Helvetica,sans-Serif" font-size="10.00">&#45;forces&#45;provider/_yarp_idl</text>
<text text-anchor="middle" x="267" y="-197.5" font-family="Helvetica,sans-Serif" font-size="10.00">_/thrifts/force6d/HumanForces.h</text>
</a>
</g>
</g>
<!-- Node1&#45;&gt;Node3 -->
<g id="edge2" class="edge"><title>Node1&#45;&gt;Node3</title>
<path fill="none" stroke="midnightblue" d="M376.888,-285.249C358.584,-274.88 338.769,-263.655 321.071,-253.63"/>
<polygon fill="midnightblue" stroke="midnightblue" points="375.31,-288.377 385.736,-290.261 378.761,-282.287 375.31,-288.377"/>
</g>
<!-- Node5 -->
<g id="node5" class="node"><title>Node5</title>
<g id="a_node5"><a xlink:href="autogenerated_2include_2thrifts_2_human_forces_8h.html" target="_top" xlink:title="/home/travis/build\l/robotology/human&#45;dynamics\l&#45;estimation/build/human\l&#45;forces&#45;provider/autogenerated\l/include/thrifts/HumanForces.h">
<polygon fill="none" stroke="black" points="364.5,-190.5 364.5,-253.5 515.5,-253.5 515.5,-190.5 364.5,-190.5"/>
<text text-anchor="start" x="372.5" y="-241.5" font-family="Helvetica,sans-Serif" font-size="10.00">/home/travis/build</text>
<text text-anchor="start" x="372.5" y="-230.5" font-family="Helvetica,sans-Serif" font-size="10.00">/robotology/human&#45;dynamics</text>
<text text-anchor="start" x="372.5" y="-219.5" font-family="Helvetica,sans-Serif" font-size="10.00">&#45;estimation/build/human</text>
<text text-anchor="start" x="372.5" y="-208.5" font-family="Helvetica,sans-Serif" font-size="10.00">&#45;forces&#45;provider/autogenerated</text>
<text text-anchor="middle" x="440" y="-197.5" font-family="Helvetica,sans-Serif" font-size="10.00">/include/thrifts/HumanForces.h</text>
</a>
</g>
</g>
<!-- Node1&#45;&gt;Node5 -->
<g id="edge4" class="edge"><title>Node1&#45;&gt;Node5</title>
<path fill="none" stroke="midnightblue" d="M440,-280.099C440,-271.238 440,-262.015 440,-253.63"/>
<polygon fill="midnightblue" stroke="midnightblue" points="436.5,-280.261 440,-290.261 443.5,-280.261 436.5,-280.261"/>
</g>
<!-- Node14 -->
<g id="node14" class="node"><title>Node14</title>
<g id="a_node14"><a xlink:href="autogenerated_2src_2_force6_d_8cpp.html" target="_top" xlink:title="/home/travis/build\l/robotology/human&#45;dynamics\l&#45;estimation/build/human\l&#45;forces&#45;provider/autogenerated\l/src/Force6D.cpp">
<polygon fill="none" stroke="black" points="533.5,-190.5 533.5,-253.5 682.5,-253.5 682.5,-190.5 533.5,-190.5"/>
<text text-anchor="start" x="541.5" y="-241.5" font-family="Helvetica,sans-Serif" font-size="10.00">/home/travis/build</text>
<text text-anchor="start" x="541.5" y="-230.5" font-family="Helvetica,sans-Serif" font-size="10.00">/robotology/human&#45;dynamics</text>
<text text-anchor="start" x="541.5" y="-219.5" font-family="Helvetica,sans-Serif" font-size="10.00">&#45;estimation/build/human</text>
<text text-anchor="start" x="541.5" y="-208.5" font-family="Helvetica,sans-Serif" font-size="10.00">&#45;forces&#45;provider/autogenerated</text>
<text text-anchor="middle" x="608" y="-197.5" font-family="Helvetica,sans-Serif" font-size="10.00">/src/Force6D.cpp</text>
</a>
</g>
</g>
<!-- Node1&#45;&gt;Node14 -->
<g id="edge13" class="edge"><title>Node1&#45;&gt;Node14</title>
<path fill="none" stroke="midnightblue" d="M501.773,-284.966C519.413,-274.676 538.462,-263.564 555.492,-253.63"/>
<polygon fill="midnightblue" stroke="midnightblue" points="499.57,-282.199 492.695,-290.261 503.097,-288.246 499.57,-282.199"/>
</g>
<!-- Node15 -->
<g id="node15" class="node"><title>Node15</title>
<g id="a_node15"><a xlink:href="_abstract_force_reader_8cpp.html" target="_top" xlink:title="/home/travis/build\l/robotology/human&#45;dynamics\l&#45;estimation/human&#45;forces\l&#45;provider/src/AbstractForceReader.cpp">
<polygon fill="none" stroke="black" points="700.5,-196 700.5,-248 885.5,-248 885.5,-196 700.5,-196"/>
<text text-anchor="start" x="708.5" y="-236" font-family="Helvetica,sans-Serif" font-size="10.00">/home/travis/build</text>
<text text-anchor="start" x="708.5" y="-225" font-family="Helvetica,sans-Serif" font-size="10.00">/robotology/human&#45;dynamics</text>
<text text-anchor="start" x="708.5" y="-214" font-family="Helvetica,sans-Serif" font-size="10.00">&#45;estimation/human&#45;forces</text>
<text text-anchor="middle" x="793" y="-203" font-family="Helvetica,sans-Serif" font-size="10.00">&#45;provider/src/AbstractForceReader.cpp</text>
</a>
</g>
</g>
<!-- Node1&#45;&gt;Node15 -->
<g id="edge14" class="edge"><title>Node1&#45;&gt;Node15</title>
<path fill="none" stroke="midnightblue" d="M524.474,-299.221C573.256,-286.451 635.716,-269.775 691,-254 697.674,-252.096 704.582,-250.084 711.511,-248.037"/>
<polygon fill="midnightblue" stroke="midnightblue" points="523.383,-295.888 514.593,-301.803 525.153,-302.661 523.383,-295.888"/>
</g>
<!-- Node4 -->
<g id="node4" class="node"><title>Node4</title>
<g id="a_node4"><a xlink:href="_force6_d__index_8h.html" target="_top" xlink:title="/home/travis/build\l/robotology/human&#45;dynamics\l&#45;estimation/build/human\l&#45;forces&#45;provider/_yarp_idl\l_/thrifts/force6d/Force6D_index.h">
<polygon fill="none" stroke="black" points="0,-90.5 0,-153.5 162,-153.5 162,-90.5 0,-90.5"/>
<text text-anchor="start" x="8" y="-141.5" font-family="Helvetica,sans-Serif" font-size="10.00">/home/travis/build</text>
<text text-anchor="start" x="8" y="-130.5" font-family="Helvetica,sans-Serif" font-size="10.00">/robotology/human&#45;dynamics</text>
<text text-anchor="start" x="8" y="-119.5" font-family="Helvetica,sans-Serif" font-size="10.00">&#45;estimation/build/human</text>
<text text-anchor="start" x="8" y="-108.5" font-family="Helvetica,sans-Serif" font-size="10.00">&#45;forces&#45;provider/_yarp_idl</text>
<text text-anchor="middle" x="81" y="-97.5" font-family="Helvetica,sans-Serif" font-size="10.00">_/thrifts/force6d/Force6D_index.h</text>
</a>
</g>
</g>
<!-- Node3&#45;&gt;Node4 -->
<g id="edge3" class="edge"><title>Node3&#45;&gt;Node4</title>
<path fill="none" stroke="midnightblue" d="M199.887,-185.639C179.943,-175.131 158.275,-163.715 138.966,-153.541"/>
<polygon fill="midnightblue" stroke="midnightblue" points="198.435,-188.83 208.914,-190.395 201.698,-182.637 198.435,-188.83"/>
</g>
<!-- Node6 -->
<g id="node6" class="node"><title>Node6</title>
<g id="a_node6"><a xlink:href="__yarp__idl___2thrifts_2force6d_2_human_forces_8cpp.html" target="_top" xlink:title="/home/travis/build\l/robotology/human&#45;dynamics\l&#45;estimation/build/human\l&#45;forces&#45;provider/_yarp_idl\l_/thrifts/force6d/HumanForces.cpp">
<polygon fill="none" stroke="black" points="180,-90.5 180,-153.5 348,-153.5 348,-90.5 180,-90.5"/>
<text text-anchor="start" x="188" y="-141.5" font-family="Helvetica,sans-Serif" font-size="10.00">/home/travis/build</text>
<text text-anchor="start" x="188" y="-130.5" font-family="Helvetica,sans-Serif" font-size="10.00">/robotology/human&#45;dynamics</text>
<text text-anchor="start" x="188" y="-119.5" font-family="Helvetica,sans-Serif" font-size="10.00">&#45;estimation/build/human</text>
<text text-anchor="start" x="188" y="-108.5" font-family="Helvetica,sans-Serif" font-size="10.00">&#45;forces&#45;provider/_yarp_idl</text>
<text text-anchor="middle" x="264" y="-97.5" font-family="Helvetica,sans-Serif" font-size="10.00">_/thrifts/force6d/HumanForces.cpp</text>
</a>
</g>
</g>
<!-- Node5&#45;&gt;Node6 -->
<g id="edge5" class="edge"><title>Node5&#45;&gt;Node6</title>
<path fill="none" stroke="midnightblue" d="M376.047,-185.39C357.355,-174.982 337.095,-163.701 319.009,-153.63"/>
<polygon fill="midnightblue" stroke="midnightblue" points="374.356,-188.454 384.795,-190.261 377.761,-182.338 374.356,-188.454"/>
</g>
<!-- Node7 -->
<g id="node7" class="node"><title>Node7</title>
<g id="a_node7"><a xlink:href="autogenerated_2src_2_human_forces_8cpp.html" target="_top" xlink:title="/home/travis/build\l/robotology/human&#45;dynamics\l&#45;estimation/build/human\l&#45;forces&#45;provider/autogenerated\l/src/HumanForces.cpp">
<polygon fill="none" stroke="black" points="365.5,-90.5 365.5,-153.5 514.5,-153.5 514.5,-90.5 365.5,-90.5"/>
<text text-anchor="start" x="373.5" y="-141.5" font-family="Helvetica,sans-Serif" font-size="10.00">/home/travis/build</text>
<text text-anchor="start" x="373.5" y="-130.5" font-family="Helvetica,sans-Serif" font-size="10.00">/robotology/human&#45;dynamics</text>
<text text-anchor="start" x="373.5" y="-119.5" font-family="Helvetica,sans-Serif" font-size="10.00">&#45;estimation/build/human</text>
<text text-anchor="start" x="373.5" y="-108.5" font-family="Helvetica,sans-Serif" font-size="10.00">&#45;forces&#45;provider/autogenerated</text>
<text text-anchor="middle" x="440" y="-97.5" font-family="Helvetica,sans-Serif" font-size="10.00">/src/HumanForces.cpp</text>
</a>
</g>
</g>
<!-- Node5&#45;&gt;Node7 -->
<g id="edge6" class="edge"><title>Node5&#45;&gt;Node7</title>
<path fill="none" stroke="midnightblue" d="M440,-180.099C440,-171.238 440,-162.015 440,-153.63"/>
<polygon fill="midnightblue" stroke="midnightblue" points="436.5,-180.261 440,-190.261 443.5,-180.261 436.5,-180.261"/>
</g>
<!-- Node8 -->
<g id="node8" class="node"><title>Node8</title>
<g id="a_node8"><a xlink:href="_human_dynamics_estimator_8h.html" target="_top" xlink:title="/home/travis/build\l/robotology/human&#45;dynamics\l&#45;estimation/human&#45;dynamics\l&#45;estimator/include/HumanDynamicsEstimator.h">
<polygon fill="none" stroke="black" points="532.5,-96 532.5,-148 755.5,-148 755.5,-96 532.5,-96"/>
<text text-anchor="start" x="540.5" y="-136" font-family="Helvetica,sans-Serif" font-size="10.00">/home/travis/build</text>
<text text-anchor="start" x="540.5" y="-125" font-family="Helvetica,sans-Serif" font-size="10.00">/robotology/human&#45;dynamics</text>
<text text-anchor="start" x="540.5" y="-114" font-family="Helvetica,sans-Serif" font-size="10.00">&#45;estimation/human&#45;dynamics</text>
<text text-anchor="middle" x="644" y="-103" font-family="Helvetica,sans-Serif" font-size="10.00">&#45;estimator/include/HumanDynamicsEstimator.h</text>
</a>
</g>
</g>
<!-- Node5&#45;&gt;Node8 -->
<g id="edge7" class="edge"><title>Node5&#45;&gt;Node8</title>
<path fill="none" stroke="midnightblue" d="M512.8,-186.027C538.869,-173.504 567.717,-159.646 591.708,-148.121"/>
<polygon fill="midnightblue" stroke="midnightblue" points="511.206,-182.91 503.708,-190.395 514.237,-189.22 511.206,-182.91"/>
</g>
<!-- Node11 -->
<g id="node11" class="node"><title>Node11</title>
<g id="a_node11"><a xlink:href="_human_forces_provider_8h.html" target="_top" xlink:title="/home/travis/build\l/robotology/human&#45;dynamics\l&#45;estimation/human&#45;forces\l&#45;provider/include/HumanForcesProvider.h">
<polygon fill="none" stroke="black" points="773.5,-96 773.5,-148 970.5,-148 970.5,-96 773.5,-96"/>
<text text-anchor="start" x="781.5" y="-136" font-family="Helvetica,sans-Serif" font-size="10.00">/home/travis/build</text>
<text text-anchor="start" x="781.5" y="-125" font-family="Helvetica,sans-Serif" font-size="10.00">/robotology/human&#45;dynamics</text>
<text text-anchor="start" x="781.5" y="-114" font-family="Helvetica,sans-Serif" font-size="10.00">&#45;estimation/human&#45;forces</text>
<text text-anchor="middle" x="872" y="-103" font-family="Helvetica,sans-Serif" font-size="10.00">&#45;provider/include/HumanForcesProvider.h</text>
</a>
</g>
</g>
<!-- Node5&#45;&gt;Node11 -->
<g id="edge10" class="edge"><title>Node5&#45;&gt;Node11</title>
<path fill="none" stroke="midnightblue" d="M525.513,-190.071C630.911,-164.219 662.117,-176.197 764,-154 772.101,-152.235 780.488,-150.202 788.844,-148.038"/>
<polygon fill="midnightblue" stroke="midnightblue" points="524.611,-186.688 515.763,-192.517 526.314,-193.478 524.611,-186.688"/>
</g>
<!-- Node9 -->
<g id="node9" class="node"><title>Node9</title>
<g id="a_node9"><a xlink:href="_human_dynamics_estimator_8cpp.html" target="_top" xlink:title="/home/travis/build\l/robotology/human&#45;dynamics\l&#45;estimation/human&#45;dynamics\l&#45;estimator/src/HumanDynamicsEstimator.cpp">
<polygon fill="none" stroke="black" points="350,-1 350,-53 566,-53 566,-1 350,-1"/>
<text text-anchor="start" x="358" y="-41" font-family="Helvetica,sans-Serif" font-size="10.00">/home/travis/build</text>
<text text-anchor="start" x="358" y="-30" font-family="Helvetica,sans-Serif" font-size="10.00">/robotology/human&#45;dynamics</text>
<text text-anchor="start" x="358" y="-19" font-family="Helvetica,sans-Serif" font-size="10.00">&#45;estimation/human&#45;dynamics</text>
<text text-anchor="middle" x="458" y="-8" font-family="Helvetica,sans-Serif" font-size="10.00">&#45;estimator/src/HumanDynamicsEstimator.cpp</text>
</a>
</g>
</g>
<!-- Node8&#45;&gt;Node9 -->
<g id="edge8" class="edge"><title>Node8&#45;&gt;Node9</title>
<path fill="none" stroke="midnightblue" d="M584.424,-91.2118C559.803,-78.9016 531.578,-64.7891 508.052,-53.026"/>
<polygon fill="midnightblue" stroke="midnightblue" points="583.156,-94.4912 593.666,-95.8329 586.287,-88.2302 583.156,-94.4912"/>
</g>
<!-- Node10 -->
<g id="node10" class="node"><title>Node10</title>
<g id="a_node10"><a xlink:href="human-dynamics-estimator_2src_2main_8cpp.html" target="_top" xlink:title="/home/travis/build\l/robotology/human&#45;dynamics\l&#45;estimation/human&#45;dynamics\l&#45;estimator/src/main.cpp">
<polygon fill="none" stroke="black" points="584,-1 584,-53 726,-53 726,-1 584,-1"/>
<text text-anchor="start" x="592" y="-41" font-family="Helvetica,sans-Serif" font-size="10.00">/home/travis/build</text>
<text text-anchor="start" x="592" y="-30" font-family="Helvetica,sans-Serif" font-size="10.00">/robotology/human&#45;dynamics</text>
<text text-anchor="start" x="592" y="-19" font-family="Helvetica,sans-Serif" font-size="10.00">&#45;estimation/human&#45;dynamics</text>
<text text-anchor="middle" x="655" y="-8" font-family="Helvetica,sans-Serif" font-size="10.00">&#45;estimator/src/main.cpp</text>
</a>
</g>
</g>
<!-- Node8&#45;&gt;Node10 -->
<g id="edge9" class="edge"><title>Node8&#45;&gt;Node10</title>
<path fill="none" stroke="midnightblue" d="M648.193,-85.5493C649.474,-74.7221 650.855,-63.0464 652.036,-53.0599"/>
<polygon fill="midnightblue" stroke="midnightblue" points="644.705,-85.2454 647.006,-95.5873 651.656,-86.0677 644.705,-85.2454"/>
</g>
<!-- Node12 -->
<g id="node12" class="node"><title>Node12</title>
<g id="a_node12"><a xlink:href="_human_forces_provider_8cpp.html" target="_top" xlink:title="/home/travis/build\l/robotology/human&#45;dynamics\l&#45;estimation/human&#45;forces\l&#45;provider/src/HumanForcesProvider.cpp">
<polygon fill="none" stroke="black" points="766,-1 766,-53 956,-53 956,-1 766,-1"/>
<text text-anchor="start" x="774" y="-41" font-family="Helvetica,sans-Serif" font-size="10.00">/home/travis/build</text>
<text text-anchor="start" x="774" y="-30" font-family="Helvetica,sans-Serif" font-size="10.00">/robotology/human&#45;dynamics</text>
<text text-anchor="start" x="774" y="-19" font-family="Helvetica,sans-Serif" font-size="10.00">&#45;estimation/human&#45;forces</text>
<text text-anchor="middle" x="861" y="-8" font-family="Helvetica,sans-Serif" font-size="10.00">&#45;provider/src/HumanForcesProvider.cpp</text>
</a>
</g>
</g>
<!-- Node11&#45;&gt;Node12 -->
<g id="edge11" class="edge"><title>Node11&#45;&gt;Node12</title>
<path fill="none" stroke="midnightblue" d="M867.807,-85.5493C866.526,-74.7221 865.145,-63.0464 863.964,-53.0599"/>
<polygon fill="midnightblue" stroke="midnightblue" points="864.344,-86.0677 868.994,-95.5873 871.295,-85.2454 864.344,-86.0677"/>
</g>
<!-- Node13 -->
<g id="node13" class="node"><title>Node13</title>
<g id="a_node13"><a xlink:href="human-forces-provider_2src_2main_8cpp.html" target="_top" xlink:title="/home/travis/build\l/robotology/human&#45;dynamics\l&#45;estimation/human&#45;forces\l&#45;provider/src/main.cpp">
<polygon fill="none" stroke="black" points="974,-1 974,-53 1116,-53 1116,-1 974,-1"/>
<text text-anchor="start" x="982" y="-41" font-family="Helvetica,sans-Serif" font-size="10.00">/home/travis/build</text>
<text text-anchor="start" x="982" y="-30" font-family="Helvetica,sans-Serif" font-size="10.00">/robotology/human&#45;dynamics</text>
<text text-anchor="start" x="982" y="-19" font-family="Helvetica,sans-Serif" font-size="10.00">&#45;estimation/human&#45;forces</text>
<text text-anchor="middle" x="1045" y="-8" font-family="Helvetica,sans-Serif" font-size="10.00">&#45;provider/src/main.cpp</text>
</a>
</g>
</g>
<!-- Node11&#45;&gt;Node13 -->
<g id="edge12" class="edge"><title>Node11&#45;&gt;Node13</title>
<path fill="none" stroke="midnightblue" d="M927.715,-91.049C950.543,-78.7774 976.661,-64.7373 998.446,-53.026"/>
<polygon fill="midnightblue" stroke="midnightblue" points="925.967,-88.0151 918.816,-95.8329 929.282,-94.1807 925.967,-88.0151"/>
</g>
</g>
</svg>
