<?xml version="1.0" encoding="UTF-8" standalone="no"?>
<!DOCTYPE svg PUBLIC "-//W3C//DTD SVG 1.1//EN"
 "http://www.w3.org/Graphics/SVG/1.1/DTD/svg11.dtd">
<!-- Generated by graphviz version 2.36.0 (20140111.2315)
 -->
<!-- Title: /home/travis/build/robotology/human&#45;dynamics&#45;estimation/build/human&#45;dynamics&#45;estimator/autogenerated/include/thrifts/HumanDynamics.h Pages: 1 -->
<svg width="740pt" height="274pt"
 viewBox="0.00 0.00 740.00 274.00" xmlns="http://www.w3.org/2000/svg" xmlns:xlink="http://www.w3.org/1999/xlink">
<g id="graph0" class="graph" transform="scale(1 1) rotate(0) translate(4 270)">
<title>/home/travis/build/robotology/human&#45;dynamics&#45;estimation/build/human&#45;dynamics&#45;estimator/autogenerated/include/thrifts/HumanDynamics.h</title>
<!-- Node1 -->
<g id="node1" class="node"><title>Node1</title>
<polygon fill="#bfbfbf" stroke="black" points="267,-202.5 267,-265.5 437,-265.5 437,-202.5 267,-202.5"/>
<text text-anchor="start" x="275" y="-253.5" font-family="Helvetica,sans-Serif" font-size="10.00">/home/travis/build</text>
<text text-anchor="start" x="275" y="-242.5" font-family="Helvetica,sans-Serif" font-size="10.00">/robotology/human&#45;dynamics</text>
<text text-anchor="start" x="275" y="-231.5" font-family="Helvetica,sans-Serif" font-size="10.00">&#45;estimation/build/human</text>
<text text-anchor="start" x="275" y="-220.5" font-family="Helvetica,sans-Serif" font-size="10.00">&#45;dynamics&#45;estimator/autogenerated</text>
<text text-anchor="middle" x="352" y="-209.5" font-family="Helvetica,sans-Serif" font-size="10.00">/include/thrifts/HumanDynamics.h</text>
</g>
<!-- Node2 -->
<g id="node2" class="node"><title>Node2</title>
<g id="a_node2"><a xlink:href="__yarp__idl___2thrifts_2humandynamics_2_human_dynamics_8cpp.html" target="_top" xlink:title="/home/travis/build\l/robotology/human&#45;dynamics\l&#45;estimation/build/human\l&#45;dynamics&#45;estimator/_yarp\l_idl_/thrifts/humandynamics\l/HumanDynamics.cpp">
<polygon fill="none" stroke="black" points="0,-91 0,-165 142,-165 142,-91 0,-91"/>
<text text-anchor="start" x="8" y="-153" font-family="Helvetica,sans-Serif" font-size="10.00">/home/travis/build</text>
<text text-anchor="start" x="8" y="-142" font-family="Helvetica,sans-Serif" font-size="10.00">/robotology/human&#45;dynamics</text>
<text text-anchor="start" x="8" y="-131" font-family="Helvetica,sans-Serif" font-size="10.00">&#45;estimation/build/human</text>
<text text-anchor="start" x="8" y="-120" font-family="Helvetica,sans-Serif" font-size="10.00">&#45;dynamics&#45;estimator/_yarp</text>
<text text-anchor="start" x="8" y="-109" font-family="Helvetica,sans-Serif" font-size="10.00">_idl_/thrifts/humandynamics</text>
<text text-anchor="middle" x="71" y="-98" font-family="Helvetica,sans-Serif" font-size="10.00">/HumanDynamics.cpp</text>
</a>
</g>
</g>
<!-- Node1&#45;&gt;Node2 -->
<g id="edge1" class="edge"><title>Node1&#45;&gt;Node2</title>
<path fill="none" stroke="midnightblue" d="M256.799,-203.674C223.086,-192.657 185.078,-179.512 151,-166 148.155,-164.872 145.266,-163.694 142.358,-162.482"/>
<polygon fill="midnightblue" stroke="midnightblue" points="256.057,-207.113 266.649,-206.873 258.219,-200.455 256.057,-207.113"/>
</g>
<!-- Node3 -->
<g id="node3" class="node"><title>Node3</title>
<g id="a_node3"><a xlink:href="autogenerated_2src_2_human_dynamics_8cpp.html" target="_top" xlink:title="/home/travis/build\l/robotology/human&#45;dynamics\l&#45;estimation/build/human\l&#45;dynamics&#45;estimator/autogenerated\l/src/HumanDynamics.cpp">
<polygon fill="none" stroke="black" points="160,-96.5 160,-159.5 330,-159.5 330,-96.5 160,-96.5"/>
<text text-anchor="start" x="168" y="-147.5" font-family="Helvetica,sans-Serif" font-size="10.00">/home/travis/build</text>
<text text-anchor="start" x="168" y="-136.5" font-family="Helvetica,sans-Serif" font-size="10.00">/robotology/human&#45;dynamics</text>
<text text-anchor="start" x="168" y="-125.5" font-family="Helvetica,sans-Serif" font-size="10.00">&#45;estimation/build/human</text>
<text text-anchor="start" x="168" y="-114.5" font-family="Helvetica,sans-Serif" font-size="10.00">&#45;dynamics&#45;estimator/autogenerated</text>
<text text-anchor="middle" x="245" y="-103.5" font-family="Helvetica,sans-Serif" font-size="10.00">/src/HumanDynamics.cpp</text>
</a>
</g>
</g>
<!-- Node1&#45;&gt;Node3 -->
<g id="edge2" class="edge"><title>Node1&#45;&gt;Node3</title>
<path fill="none" stroke="midnightblue" d="M313.17,-195.258C301.177,-183.602 288.118,-170.909 276.669,-159.781"/>
<polygon fill="midnightblue" stroke="midnightblue" points="310.865,-197.899 320.475,-202.359 315.744,-192.879 310.865,-197.899"/>
</g>
<!-- Node4 -->
<g id="node4" class="node"><title>Node4</title>
<g id="a_node4"><a xlink:href="_human_dynamics_estimator_8h.html" target="_top" xlink:title="/home/travis/build\l/robotology/human&#45;dynamics\l&#45;estimation/human&#45;dynamics\l&#45;estimator/include/HumanDynamicsEstimator.h">
<polygon fill="none" stroke="black" points="348.5,-102 348.5,-154 571.5,-154 571.5,-102 348.5,-102"/>
<text text-anchor="start" x="356.5" y="-142" font-family="Helvetica,sans-Serif" font-size="10.00">/home/travis/build</text>
<text text-anchor="start" x="356.5" y="-131" font-family="Helvetica,sans-Serif" font-size="10.00">/robotology/human&#45;dynamics</text>
<text text-anchor="start" x="356.5" y="-120" font-family="Helvetica,sans-Serif" font-size="10.00">&#45;estimation/human&#45;dynamics</text>
<text text-anchor="middle" x="460" y="-109" font-family="Helvetica,sans-Serif" font-size="10.00">&#45;estimator/include/HumanDynamicsEstimator.h</text>
</a>
</g>
</g>
<!-- Node1&#45;&gt;Node4 -->
<g id="edge3" class="edge"><title>Node1&#45;&gt;Node4</title>
<path fill="none" stroke="midnightblue" d="M391.095,-195.353C405.314,-181.66 421.029,-166.527 433.856,-154.175"/>
<polygon fill="midnightblue" stroke="midnightblue" points="388.595,-192.901 383.819,-202.359 393.45,-197.944 388.595,-192.901"/>
</g>
<!-- Node7 -->
<g id="node7" class="node"><title>Node7</title>
<g id="a_node7"><a xlink:href="_human_effort_bridge_8cpp.html" target="_top" xlink:title="/home/travis/build\l/robotology/human&#45;dynamics\l&#45;estimation/human&#45;viz&#45;bridge\l/src/HumanEffortBridge.cpp">
<polygon fill="none" stroke="black" points="590,-102 590,-154 732,-154 732,-102 590,-102"/>
<text text-anchor="start" x="598" y="-142" font-family="Helvetica,sans-Serif" font-size="10.00">/home/travis/build</text>
<text text-anchor="start" x="598" y="-131" font-family="Helvetica,sans-Serif" font-size="10.00">/robotology/human&#45;dynamics</text>
<text text-anchor="start" x="598" y="-120" font-family="Helvetica,sans-Serif" font-size="10.00">&#45;estimation/human&#45;viz&#45;bridge</text>
<text text-anchor="middle" x="661" y="-109" font-family="Helvetica,sans-Serif" font-size="10.00">/src/HumanEffortBridge.cpp</text>
</a>
</g>
</g>
<!-- Node1&#45;&gt;Node7 -->
<g id="edge6" class="edge"><title>Node1&#45;&gt;Node7</title>
<path fill="none" stroke="midnightblue" d="M446.921,-208.376C488.247,-196.819 536.969,-182.057 580,-166 589.415,-162.487 599.271,-158.372 608.737,-154.188"/>
<polygon fill="midnightblue" stroke="midnightblue" points="445.831,-205.046 437.131,-211.093 447.703,-211.791 445.831,-205.046"/>
</g>
<!-- Node5 -->
<g id="node5" class="node"><title>Node5</title>
<g id="a_node5"><a xlink:href="_human_dynamics_estimator_8cpp.html" target="_top" xlink:title="/home/travis/build\l/robotology/human&#45;dynamics\l&#45;estimation/human&#45;dynamics\l&#45;estimator/src/HumanDynamicsEstimator.cpp">
<polygon fill="none" stroke="black" points="253,-1 253,-53 469,-53 469,-1 253,-1"/>
<text text-anchor="start" x="261" y="-41" font-family="Helvetica,sans-Serif" font-size="10.00">/home/travis/build</text>
<text text-anchor="start" x="261" y="-30" font-family="Helvetica,sans-Serif" font-size="10.00">/robotology/human&#45;dynamics</text>
<text text-anchor="start" x="261" y="-19" font-family="Helvetica,sans-Serif" font-size="10.00">&#45;estimation/human&#45;dynamics</text>
<text text-anchor="middle" x="361" y="-8" font-family="Helvetica,sans-Serif" font-size="10.00">&#45;estimator/src/HumanDynamicsEstimator.cpp</text>
</a>
</g>
</g>
<!-- Node4&#45;&gt;Node5 -->
<g id="edge4" class="edge"><title>Node4&#45;&gt;Node5</title>
<path fill="none" stroke="midnightblue" d="M427.525,-94.5246C414.091,-81.091 398.753,-65.7526 386.192,-53.192"/>
<polygon fill="midnightblue" stroke="midnightblue" points="425.216,-97.1658 434.762,-101.762 430.166,-92.216 425.216,-97.1658"/>
</g>
<!-- Node6 -->
<g id="node6" class="node"><title>Node6</title>
<g id="a_node6"><a xlink:href="human-dynamics-estimator_2src_2main_8cpp.html" target="_top" xlink:title="/home/travis/build\l/robotology/human&#45;dynamics\l&#45;estimation/human&#45;dynamics\l&#45;estimator/src/main.cpp">
<polygon fill="none" stroke="black" points="487,-1 487,-53 629,-53 629,-1 487,-1"/>
<text text-anchor="start" x="495" y="-41" font-family="Helvetica,sans-Serif" font-size="10.00">/home/travis/build</text>
<text text-anchor="start" x="495" y="-30" font-family="Helvetica,sans-Serif" font-size="10.00">/robotology/human&#45;dynamics</text>
<text text-anchor="start" x="495" y="-19" font-family="Helvetica,sans-Serif" font-size="10.00">&#45;estimation/human&#45;dynamics</text>
<text text-anchor="middle" x="558" y="-8" font-family="Helvetica,sans-Serif" font-size="10.00">&#45;estimator/src/main.cpp</text>
</a>
</g>
</g>
<!-- Node4&#45;&gt;Node6 -->
<g id="edge5" class="edge"><title>Node4&#45;&gt;Node6</title>
<path fill="none" stroke="midnightblue" d="M492.147,-94.5246C505.445,-81.091 520.629,-65.7526 533.063,-53.192"/>
<polygon fill="midnightblue" stroke="midnightblue" points="489.531,-92.1928 484.983,-101.762 494.506,-97.1174 489.531,-92.1928"/>
</g>
</g>
</svg>
