<?xml version="1.0" encoding="UTF-8" standalone="no"?>
<!DOCTYPE svg PUBLIC "-//W3C//DTD SVG 1.1//EN"
 "http://www.w3.org/Graphics/SVG/1.1/DTD/svg11.dtd">
<!-- Generated by graphviz version 2.36.0 (20140111.2315)
 -->
<!-- Title: /home/travis/build/robotology/human&#45;dynamics&#45;estimation/build/human&#45;state&#45;provider/autogenerated/include/thrifts/HumanState.h Pages: 1 -->
<svg width="1609pt" height="272pt"
 viewBox="0.00 0.00 1609.00 272.00" xmlns="http://www.w3.org/2000/svg" xmlns:xlink="http://www.w3.org/1999/xlink">
<g id="graph0" class="graph" transform="scale(1 1) rotate(0) translate(4 268)">
<title>/home/travis/build/robotology/human&#45;dynamics&#45;estimation/build/human&#45;state&#45;provider/autogenerated/include/thrifts/HumanState.h</title>
<!-- Node1 -->
<g id="node1" class="node"><title>Node1</title>
<polygon fill="#bfbfbf" stroke="black" points="847,-200.5 847,-263.5 991,-263.5 991,-200.5 847,-200.5"/>
<text text-anchor="start" x="855" y="-251.5" font-family="Helvetica,sans-Serif" font-size="10.00">/home/travis/build</text>
<text text-anchor="start" x="855" y="-240.5" font-family="Helvetica,sans-Serif" font-size="10.00">/robotology/human&#45;dynamics</text>
<text text-anchor="start" x="855" y="-229.5" font-family="Helvetica,sans-Serif" font-size="10.00">&#45;estimation/build/human</text>
<text text-anchor="start" x="855" y="-218.5" font-family="Helvetica,sans-Serif" font-size="10.00">&#45;state&#45;provider/autogenerated</text>
<text text-anchor="middle" x="919" y="-207.5" font-family="Helvetica,sans-Serif" font-size="10.00">/include/thrifts/HumanState.h</text>
</g>
<!-- Node2 -->
<g id="node2" class="node"><title>Node2</title>
<g id="a_node2"><a xlink:href="__yarp__idl___2thrifts_2humanstate_2_human_state_8cpp.html" target="_top" xlink:title="/home/travis/build\l/robotology/human&#45;dynamics\l&#45;estimation/build/human\l&#45;state&#45;provider/_yarp_idl\l_/thrifts/humanstate/HumanState.cpp">
<polygon fill="none" stroke="black" points="0,-100.5 0,-163.5 180,-163.5 180,-100.5 0,-100.5"/>
<text text-anchor="start" x="8" y="-151.5" font-family="Helvetica,sans-Serif" font-size="10.00">/home/travis/build</text>
<text text-anchor="start" x="8" y="-140.5" font-family="Helvetica,sans-Serif" font-size="10.00">/robotology/human&#45;dynamics</text>
<text text-anchor="start" x="8" y="-129.5" font-family="Helvetica,sans-Serif" font-size="10.00">&#45;estimation/build/human</text>
<text text-anchor="start" x="8" y="-118.5" font-family="Helvetica,sans-Serif" font-size="10.00">&#45;state&#45;provider/_yarp_idl</text>
<text text-anchor="middle" x="90" y="-107.5" font-family="Helvetica,sans-Serif" font-size="10.00">_/thrifts/humanstate/HumanState.cpp</text>
</a>
</g>
</g>
<!-- Node1&#45;&gt;Node2 -->
<g id="edge1" class="edge"><title>Node1&#45;&gt;Node2</title>
<path fill="none" stroke="midnightblue" d="M836.432,-229.106C700.287,-224.718 420.698,-210.363 189,-164 186.086,-163.417 183.136,-162.78 180.168,-162.099"/>
<polygon fill="midnightblue" stroke="midnightblue" points="836.673,-232.615 846.777,-229.429 836.891,-225.618 836.673,-232.615"/>
</g>
<!-- Node3 -->
<g id="node3" class="node"><title>Node3</title>
<g id="a_node3"><a xlink:href="autogenerated_2src_2_human_state_8cpp.html" target="_top" xlink:title="/home/travis/build\l/robotology/human&#45;dynamics\l&#45;estimation/build/human\l&#45;state&#45;provider/autogenerated\l/src/HumanState.cpp">
<polygon fill="none" stroke="black" points="198.5,-100.5 198.5,-163.5 341.5,-163.5 341.5,-100.5 198.5,-100.5"/>
<text text-anchor="start" x="206.5" y="-151.5" font-family="Helvetica,sans-Serif" font-size="10.00">/home/travis/build</text>
<text text-anchor="start" x="206.5" y="-140.5" font-family="Helvetica,sans-Serif" font-size="10.00">/robotology/human&#45;dynamics</text>
<text text-anchor="start" x="206.5" y="-129.5" font-family="Helvetica,sans-Serif" font-size="10.00">&#45;estimation/build/human</text>
<text text-anchor="start" x="206.5" y="-118.5" font-family="Helvetica,sans-Serif" font-size="10.00">&#45;state&#45;provider/autogenerated</text>
<text text-anchor="middle" x="270" y="-107.5" font-family="Helvetica,sans-Serif" font-size="10.00">/src/HumanState.cpp</text>
</a>
</g>
</g>
<!-- Node1&#45;&gt;Node3 -->
<g id="edge2" class="edge"><title>Node1&#45;&gt;Node3</title>
<path fill="none" stroke="midnightblue" d="M836.524,-227.68C724.972,-221.743 520.46,-205.733 351,-164 347.93,-163.244 344.818,-162.403 341.693,-161.497"/>
<polygon fill="midnightblue" stroke="midnightblue" points="836.528,-231.184 846.696,-228.207 836.891,-224.194 836.528,-231.184"/>
</g>
<!-- Node4 -->
<g id="node4" class="node"><title>Node4</title>
<g id="a_node4"><a xlink:href="_human_dynamics_estimator_8h.html" target="_top" xlink:title="/home/travis/build\l/robotology/human&#45;dynamics\l&#45;estimation/human&#45;dynamics\l&#45;estimator/include/HumanDynamicsEstimator.h">
<polygon fill="none" stroke="black" points="359.5,-106 359.5,-158 582.5,-158 582.5,-106 359.5,-106"/>
<text text-anchor="start" x="367.5" y="-146" font-family="Helvetica,sans-Serif" font-size="10.00">/home/travis/build</text>
<text text-anchor="start" x="367.5" y="-135" font-family="Helvetica,sans-Serif" font-size="10.00">/robotology/human&#45;dynamics</text>
<text text-anchor="start" x="367.5" y="-124" font-family="Helvetica,sans-Serif" font-size="10.00">&#45;estimation/human&#45;dynamics</text>
<text text-anchor="middle" x="471" y="-113" font-family="Helvetica,sans-Serif" font-size="10.00">&#45;estimator/include/HumanDynamicsEstimator.h</text>
</a>
</g>
</g>
<!-- Node1&#45;&gt;Node4 -->
<g id="edge3" class="edge"><title>Node1&#45;&gt;Node4</title>
<path fill="none" stroke="midnightblue" d="M836.725,-215.295C770.454,-202.367 674.987,-183.12 592,-164 583.864,-162.126 575.439,-160.114 566.995,-158.048"/>
<polygon fill="midnightblue" stroke="midnightblue" points="836.21,-218.76 846.695,-217.235 837.547,-211.889 836.21,-218.76"/>
</g>
<!-- Node7 -->
<g id="node7" class="node"><title>Node7</title>
<g id="a_node7"><a xlink:href="_human_forces_provider_8h.html" target="_top" xlink:title="/home/travis/build\l/robotology/human&#45;dynamics\l&#45;estimation/human&#45;forces\l&#45;provider/include/HumanForcesProvider.h">
<polygon fill="none" stroke="black" points="600.5,-106 600.5,-158 797.5,-158 797.5,-106 600.5,-106"/>
<text text-anchor="start" x="608.5" y="-146" font-family="Helvetica,sans-Serif" font-size="10.00">/home/travis/build</text>
<text text-anchor="start" x="608.5" y="-135" font-family="Helvetica,sans-Serif" font-size="10.00">/robotology/human&#45;dynamics</text>
<text text-anchor="start" x="608.5" y="-124" font-family="Helvetica,sans-Serif" font-size="10.00">&#45;estimation/human&#45;forces</text>
<text text-anchor="middle" x="699" y="-113" font-family="Helvetica,sans-Serif" font-size="10.00">&#45;provider/include/HumanForcesProvider.h</text>
</a>
</g>
</g>
<!-- Node1&#45;&gt;Node7 -->
<g id="edge6" class="edge"><title>Node1&#45;&gt;Node7</title>
<path fill="none" stroke="midnightblue" d="M840.858,-196.191C812.648,-183.625 781.379,-169.696 755.393,-158.121"/>
<polygon fill="midnightblue" stroke="midnightblue" points="839.737,-199.523 850.296,-200.395 842.585,-193.129 839.737,-199.523"/>
</g>
<!-- Node10 -->
<g id="node10" class="node"><title>Node10</title>
<g id="a_node10"><a xlink:href="_robot_frame_transformer_8h.html" target="_top" xlink:title="/home/travis/build\l/robotology/human&#45;dynamics\l&#45;estimation/human&#45;forces\l&#45;provider/include/RobotFrameTransformer.h">
<polygon fill="none" stroke="black" points="816,-106 816,-158 1022,-158 1022,-106 816,-106"/>
<text text-anchor="start" x="824" y="-146" font-family="Helvetica,sans-Serif" font-size="10.00">/home/travis/build</text>
<text text-anchor="start" x="824" y="-135" font-family="Helvetica,sans-Serif" font-size="10.00">/robotology/human&#45;dynamics</text>
<text text-anchor="start" x="824" y="-124" font-family="Helvetica,sans-Serif" font-size="10.00">&#45;estimation/human&#45;forces</text>
<text text-anchor="middle" x="919" y="-113" font-family="Helvetica,sans-Serif" font-size="10.00">&#45;provider/include/RobotFrameTransformer.h</text>
</a>
</g>
</g>
<!-- Node1&#45;&gt;Node10 -->
<g id="edge9" class="edge"><title>Node1&#45;&gt;Node10</title>
<path fill="none" stroke="midnightblue" d="M919,-190.079C919,-179.21 919,-167.794 919,-158.054"/>
<polygon fill="midnightblue" stroke="midnightblue" points="915.5,-190.261 919,-200.261 922.5,-190.261 915.5,-190.261"/>
</g>
<!-- Node12 -->
<g id="node12" class="node"><title>Node12</title>
<g id="a_node12"><a xlink:href="_human_state_provider_private_8h.html" target="_top" xlink:title="/home/travis/build\l/robotology/human&#45;dynamics\l&#45;estimation/human&#45;state\l&#45;provider/include/private\l/HumanStateProviderPrivate.h">
<polygon fill="none" stroke="black" points="1045.5,-100.5 1045.5,-163.5 1194.5,-163.5 1194.5,-100.5 1045.5,-100.5"/>
<text text-anchor="start" x="1053.5" y="-151.5" font-family="Helvetica,sans-Serif" font-size="10.00">/home/travis/build</text>
<text text-anchor="start" x="1053.5" y="-140.5" font-family="Helvetica,sans-Serif" font-size="10.00">/robotology/human&#45;dynamics</text>
<text text-anchor="start" x="1053.5" y="-129.5" font-family="Helvetica,sans-Serif" font-size="10.00">&#45;estimation/human&#45;state</text>
<text text-anchor="start" x="1053.5" y="-118.5" font-family="Helvetica,sans-Serif" font-size="10.00">&#45;provider/include/private</text>
<text text-anchor="middle" x="1120" y="-107.5" font-family="Helvetica,sans-Serif" font-size="10.00">/HumanStateProviderPrivate.h</text>
</a>
</g>
</g>
<!-- Node1&#45;&gt;Node12 -->
<g id="edge12" class="edge"><title>Node1&#45;&gt;Node12</title>
<path fill="none" stroke="midnightblue" d="M990.944,-195.923C1012.66,-185.337 1036.31,-173.806 1057.36,-163.541"/>
<polygon fill="midnightblue" stroke="midnightblue" points="989.226,-192.867 981.771,-200.395 992.293,-199.159 989.226,-192.867"/>
</g>
<!-- Node14 -->
<g id="node14" class="node"><title>Node14</title>
<g id="a_node14"><a xlink:href="_human_state_provider_8cpp.html" target="_top" xlink:title="/home/travis/build\l/robotology/human&#45;dynamics\l&#45;estimation/human&#45;state\l&#45;provider/src/HumanStateProvider.cpp">
<polygon fill="none" stroke="black" points="1418.5,-6 1418.5,-58 1601.5,-58 1601.5,-6 1418.5,-6"/>
<text text-anchor="start" x="1426.5" y="-46" font-family="Helvetica,sans-Serif" font-size="10.00">/home/travis/build</text>
<text text-anchor="start" x="1426.5" y="-35" font-family="Helvetica,sans-Serif" font-size="10.00">/robotology/human&#45;dynamics</text>
<text text-anchor="start" x="1426.5" y="-24" font-family="Helvetica,sans-Serif" font-size="10.00">&#45;estimation/human&#45;state</text>
<text text-anchor="middle" x="1510" y="-13" font-family="Helvetica,sans-Serif" font-size="10.00">&#45;provider/src/HumanStateProvider.cpp</text>
</a>
</g>
</g>
<!-- Node1&#45;&gt;Node14 -->
<g id="edge16" class="edge"><title>Node1&#45;&gt;Node14</title>
<path fill="none" stroke="midnightblue" d="M1001.07,-228.51C1061.98,-222.921 1144.3,-207.098 1203,-164 1229.66,-144.422 1214.14,-119.303 1241,-100 1303.01,-55.4425 1335.1,-83.2211 1409,-64 1416.1,-62.1532 1423.45,-60.1267 1430.79,-58.0218"/>
<polygon fill="midnightblue" stroke="midnightblue" points="1000.77,-225.023 991.104,-229.352 1001.36,-231.998 1000.77,-225.023"/>
</g>
<!-- Node16 -->
<g id="node16" class="node"><title>Node16</title>
<g id="a_node16"><a xlink:href="_human_joint_state_bridge_8cpp.html" target="_top" xlink:title="/home/travis/build\l/robotology/human&#45;dynamics\l&#45;estimation/human&#45;viz&#45;bridge\l/src/HumanJointStateBridge.cpp">
<polygon fill="none" stroke="black" points="1250,-106 1250,-158 1408,-158 1408,-106 1250,-106"/>
<text text-anchor="start" x="1258" y="-146" font-family="Helvetica,sans-Serif" font-size="10.00">/home/travis/build</text>
<text text-anchor="start" x="1258" y="-135" font-family="Helvetica,sans-Serif" font-size="10.00">/robotology/human&#45;dynamics</text>
<text text-anchor="start" x="1258" y="-124" font-family="Helvetica,sans-Serif" font-size="10.00">&#45;estimation/human&#45;viz&#45;bridge</text>
<text text-anchor="middle" x="1329" y="-113" font-family="Helvetica,sans-Serif" font-size="10.00">/src/HumanJointStateBridge.cpp</text>
</a>
</g>
</g>
<!-- Node1&#45;&gt;Node16 -->
<g id="edge17" class="edge"><title>Node1&#45;&gt;Node16</title>
<path fill="none" stroke="midnightblue" d="M1001.09,-216.302C1065.45,-204.141 1157.03,-185.433 1236,-164 1242.73,-162.172 1249.7,-160.135 1256.64,-158.002"/>
<polygon fill="midnightblue" stroke="midnightblue" points="1000.18,-212.911 991.002,-218.196 1001.48,-219.79 1000.18,-212.911"/>
</g>
<!-- Node17 -->
<g id="node17" class="node"><title>Node17</title>
<g id="a_node17"><a xlink:href="_robot_base_pose_publisher_8cpp.html" target="_top" xlink:title="/home/travis/build\l/robotology/human&#45;dynamics\l&#45;estimation/human&#45;viz&#45;bridge\l/src/RobotBasePosePublisher.cpp">
<polygon fill="none" stroke="black" points="1425.5,-106 1425.5,-158 1592.5,-158 1592.5,-106 1425.5,-106"/>
<text text-anchor="start" x="1433.5" y="-146" font-family="Helvetica,sans-Serif" font-size="10.00">/home/travis/build</text>
<text text-anchor="start" x="1433.5" y="-135" font-family="Helvetica,sans-Serif" font-size="10.00">/robotology/human&#45;dynamics</text>
<text text-anchor="start" x="1433.5" y="-124" font-family="Helvetica,sans-Serif" font-size="10.00">&#45;estimation/human&#45;viz&#45;bridge</text>
<text text-anchor="middle" x="1509" y="-113" font-family="Helvetica,sans-Serif" font-size="10.00">/src/RobotBasePosePublisher.cpp</text>
</a>
</g>
</g>
<!-- Node1&#45;&gt;Node17 -->
<g id="edge18" class="edge"><title>Node1&#45;&gt;Node17</title>
<path fill="none" stroke="midnightblue" d="M1001.34,-224.667C1100.62,-215.94 1272.09,-197.373 1416,-164 1423.38,-162.289 1431,-160.236 1438.56,-158.012"/>
<polygon fill="midnightblue" stroke="midnightblue" points="1001.03,-221.18 991.369,-225.531 1001.63,-228.154 1001.03,-221.18"/>
</g>
<!-- Node5 -->
<g id="node5" class="node"><title>Node5</title>
<g id="a_node5"><a xlink:href="_human_dynamics_estimator_8cpp.html" target="_top" xlink:title="/home/travis/build\l/robotology/human&#45;dynamics\l&#45;estimation/human&#45;dynamics\l&#45;estimator/src/HumanDynamicsEstimator.cpp">
<polygon fill="none" stroke="black" points="53,-6 53,-58 269,-58 269,-6 53,-6"/>
<text text-anchor="start" x="61" y="-46" font-family="Helvetica,sans-Serif" font-size="10.00">/home/travis/build</text>
<text text-anchor="start" x="61" y="-35" font-family="Helvetica,sans-Serif" font-size="10.00">/robotology/human&#45;dynamics</text>
<text text-anchor="start" x="61" y="-24" font-family="Helvetica,sans-Serif" font-size="10.00">&#45;estimation/human&#45;dynamics</text>
<text text-anchor="middle" x="161" y="-13" font-family="Helvetica,sans-Serif" font-size="10.00">&#45;estimator/src/HumanDynamicsEstimator.cpp</text>
</a>
</g>
</g>
<!-- Node4&#45;&gt;Node5 -->
<g id="edge4" class="edge"><title>Node4&#45;&gt;Node5</title>
<path fill="none" stroke="midnightblue" d="M381.881,-102.827C337.171,-88.6929 283.477,-71.7185 240.224,-58.0449"/>
<polygon fill="midnightblue" stroke="midnightblue" points="380.98,-106.213 391.57,-105.89 383.09,-99.5383 380.98,-106.213"/>
</g>
<!-- Node6 -->
<g id="node6" class="node"><title>Node6</title>
<g id="a_node6"><a xlink:href="human-dynamics-estimator_2src_2main_8cpp.html" target="_top" xlink:title="/home/travis/build\l/robotology/human&#45;dynamics\l&#45;estimation/human&#45;dynamics\l&#45;estimator/src/main.cpp">
<polygon fill="none" stroke="black" points="287,-6 287,-58 429,-58 429,-6 287,-6"/>
<text text-anchor="start" x="295" y="-46" font-family="Helvetica,sans-Serif" font-size="10.00">/home/travis/build</text>
<text text-anchor="start" x="295" y="-35" font-family="Helvetica,sans-Serif" font-size="10.00">/robotology/human&#45;dynamics</text>
<text text-anchor="start" x="295" y="-24" font-family="Helvetica,sans-Serif" font-size="10.00">&#45;estimation/human&#45;dynamics</text>
<text text-anchor="middle" x="358" y="-13" font-family="Helvetica,sans-Serif" font-size="10.00">&#45;estimator/src/main.cpp</text>
</a>
</g>
</g>
<!-- Node4&#45;&gt;Node6 -->
<g id="edge5" class="edge"><title>Node4&#45;&gt;Node6</title>
<path fill="none" stroke="midnightblue" d="M434.131,-99.0247C418.838,-85.7622 401.354,-70.5994 387.002,-58.1519"/>
<polygon fill="midnightblue" stroke="midnightblue" points="432.052,-101.855 441.9,-105.763 436.638,-96.5665 432.052,-101.855"/>
</g>
<!-- Node8 -->
<g id="node8" class="node"><title>Node8</title>
<g id="a_node8"><a xlink:href="_human_forces_provider_8cpp.html" target="_top" xlink:title="/home/travis/build\l/robotology/human&#45;dynamics\l&#45;estimation/human&#45;forces\l&#45;provider/src/HumanForcesProvider.cpp">
<polygon fill="none" stroke="black" points="607,-6 607,-58 797,-58 797,-6 607,-6"/>
<text text-anchor="start" x="615" y="-46" font-family="Helvetica,sans-Serif" font-size="10.00">/home/travis/build</text>
<text text-anchor="start" x="615" y="-35" font-family="Helvetica,sans-Serif" font-size="10.00">/robotology/human&#45;dynamics</text>
<text text-anchor="start" x="615" y="-24" font-family="Helvetica,sans-Serif" font-size="10.00">&#45;estimation/human&#45;forces</text>
<text text-anchor="middle" x="702" y="-13" font-family="Helvetica,sans-Serif" font-size="10.00">&#45;provider/src/HumanForcesProvider.cpp</text>
</a>
</g>
</g>
<!-- Node7&#45;&gt;Node8 -->
<g id="edge7" class="edge"><title>Node7&#45;&gt;Node8</title>
<path fill="none" stroke="midnightblue" d="M700.081,-95.7033C700.461,-83.2767 700.88,-69.5716 701.23,-58.1519"/>
<polygon fill="midnightblue" stroke="midnightblue" points="696.58,-95.6601 699.773,-105.763 703.577,-95.8744 696.58,-95.6601"/>
</g>
<!-- Node9 -->
<g id="node9" class="node"><title>Node9</title>
<g id="a_node9"><a xlink:href="human-forces-provider_2src_2main_8cpp.html" target="_top" xlink:title="/home/travis/build\l/robotology/human&#45;dynamics\l&#45;estimation/human&#45;forces\l&#45;provider/src/main.cpp">
<polygon fill="none" stroke="black" points="447,-6 447,-58 589,-58 589,-6 447,-6"/>
<text text-anchor="start" x="455" y="-46" font-family="Helvetica,sans-Serif" font-size="10.00">/home/travis/build</text>
<text text-anchor="start" x="455" y="-35" font-family="Helvetica,sans-Serif" font-size="10.00">/robotology/human&#45;dynamics</text>
<text text-anchor="start" x="455" y="-24" font-family="Helvetica,sans-Serif" font-size="10.00">&#45;estimation/human&#45;forces</text>
<text text-anchor="middle" x="518" y="-13" font-family="Helvetica,sans-Serif" font-size="10.00">&#45;provider/src/main.cpp</text>
</a>
</g>
</g>
<!-- Node7&#45;&gt;Node9 -->
<g id="edge8" class="edge"><title>Node7&#45;&gt;Node9</title>
<path fill="none" stroke="midnightblue" d="M643.292,-100.837C618.028,-87.159 588.498,-71.1704 564.454,-58.1519"/>
<polygon fill="midnightblue" stroke="midnightblue" points="641.928,-104.079 652.388,-105.763 645.261,-97.9234 641.928,-104.079"/>
</g>
<!-- Node10&#45;&gt;Node8 -->
<g id="edge10" class="edge"><title>Node10&#45;&gt;Node8</title>
<path fill="none" stroke="midnightblue" d="M854.044,-101.665C823.277,-87.7701 786.909,-71.3458 757.457,-58.0449"/>
<polygon fill="midnightblue" stroke="midnightblue" points="852.845,-104.964 863.399,-105.89 855.726,-98.5841 852.845,-104.964"/>
</g>
<!-- Node11 -->
<g id="node11" class="node"><title>Node11</title>
<g id="a_node11"><a xlink:href="_robot_frame_transformer_8cpp.html" target="_top" xlink:title="/home/travis/build\l/robotology/human&#45;dynamics\l&#45;estimation/human&#45;forces\l&#45;provider/src/RobotFrameTransformer.cpp">
<polygon fill="none" stroke="black" points="815.5,-6 815.5,-58 1014.5,-58 1014.5,-6 815.5,-6"/>
<text text-anchor="start" x="823.5" y="-46" font-family="Helvetica,sans-Serif" font-size="10.00">/home/travis/build</text>
<text text-anchor="start" x="823.5" y="-35" font-family="Helvetica,sans-Serif" font-size="10.00">/robotology/human&#45;dynamics</text>
<text text-anchor="start" x="823.5" y="-24" font-family="Helvetica,sans-Serif" font-size="10.00">&#45;estimation/human&#45;forces</text>
<text text-anchor="middle" x="915" y="-13" font-family="Helvetica,sans-Serif" font-size="10.00">&#45;provider/src/RobotFrameTransformer.cpp</text>
</a>
</g>
</g>
<!-- Node10&#45;&gt;Node11 -->
<g id="edge11" class="edge"><title>Node10&#45;&gt;Node11</title>
<path fill="none" stroke="midnightblue" d="M917.559,-95.7033C917.052,-83.2767 916.493,-69.5716 916.027,-58.1519"/>
<polygon fill="midnightblue" stroke="midnightblue" points="914.065,-95.9137 917.97,-105.763 921.059,-95.6281 914.065,-95.9137"/>
</g>
<!-- Node13 -->
<g id="node13" class="node"><title>Node13</title>
<g id="a_node13"><a xlink:href="_human_i_k_worker_pool_8cpp.html" target="_top" xlink:title="/home/travis/build\l/robotology/human&#45;dynamics\l&#45;estimation/human&#45;state\l&#45;provider/src/HumanIKWorkerPool.cpp">
<polygon fill="none" stroke="black" points="1032.5,-6 1032.5,-58 1217.5,-58 1217.5,-6 1032.5,-6"/>
<text text-anchor="start" x="1040.5" y="-46" font-family="Helvetica,sans-Serif" font-size="10.00">/home/travis/build</text>
<text text-anchor="start" x="1040.5" y="-35" font-family="Helvetica,sans-Serif" font-size="10.00">/robotology/human&#45;dynamics</text>
<text text-anchor="start" x="1040.5" y="-24" font-family="Helvetica,sans-Serif" font-size="10.00">&#45;estimation/human&#45;state</text>
<text text-anchor="middle" x="1125" y="-13" font-family="Helvetica,sans-Serif" font-size="10.00">&#45;provider/src/HumanIKWorkerPool.cpp</text>
</a>
</g>
</g>
<!-- Node12&#45;&gt;Node13 -->
<g id="edge13" class="edge"><title>Node12&#45;&gt;Node13</title>
<path fill="none" stroke="midnightblue" d="M1122.09,-90.0792C1122.64,-79.2096 1123.22,-67.7945 1123.72,-58.0536"/>
<polygon fill="midnightblue" stroke="midnightblue" points="1118.58,-90.0957 1121.57,-100.261 1125.57,-90.4524 1118.58,-90.0957"/>
</g>
<!-- Node12&#45;&gt;Node14 -->
<g id="edge14" class="edge"><title>Node12&#45;&gt;Node14</title>
<path fill="none" stroke="midnightblue" d="M1204.28,-101.003C1205.53,-100.66 1206.77,-100.325 1208,-100 1295.75,-76.8475 1320.79,-85.3535 1409,-64 1416.4,-62.209 1424.05,-60.184 1431.68,-58.048"/>
<polygon fill="midnightblue" stroke="midnightblue" points="1203.27,-97.6503 1194.64,-103.785 1205.21,-104.376 1203.27,-97.6503"/>
</g>
<!-- Node15 -->
<g id="node15" class="node"><title>Node15</title>
<g id="a_node15"><a xlink:href="_human_state_provider_private_8cpp.html" target="_top" xlink:title="/home/travis/build\l/robotology/human&#45;dynamics\l&#45;estimation/human&#45;state\l&#45;provider/src/HumanStateProvider\lPrivate.cpp">
<polygon fill="none" stroke="black" points="1236,-0.5 1236,-63.5 1400,-63.5 1400,-0.5 1236,-0.5"/>
<text text-anchor="start" x="1244" y="-51.5" font-family="Helvetica,sans-Serif" font-size="10.00">/home/travis/build</text>
<text text-anchor="start" x="1244" y="-40.5" font-family="Helvetica,sans-Serif" font-size="10.00">/robotology/human&#45;dynamics</text>
<text text-anchor="start" x="1244" y="-29.5" font-family="Helvetica,sans-Serif" font-size="10.00">&#45;estimation/human&#45;state</text>
<text text-anchor="start" x="1244" y="-18.5" font-family="Helvetica,sans-Serif" font-size="10.00">&#45;provider/src/HumanStateProvider</text>
<text text-anchor="middle" x="1318" y="-7.5" font-family="Helvetica,sans-Serif" font-size="10.00">Private.cpp</text>
</a>
</g>
</g>
<!-- Node12&#45;&gt;Node15 -->
<g id="edge15" class="edge"><title>Node12&#45;&gt;Node15</title>
<path fill="none" stroke="midnightblue" d="M1190.87,-95.9229C1212.26,-85.3373 1235.55,-73.8062 1256.29,-63.541"/>
<polygon fill="midnightblue" stroke="midnightblue" points="1189.24,-92.8225 1181.83,-100.395 1192.35,-99.0962 1189.24,-92.8225"/>
</g>
</g>
</svg>
