<?xml version="1.0" encoding="UTF-8" standalone="no"?>
<!DOCTYPE svg PUBLIC "-//W3C//DTD SVG 1.1//EN"
 "http://www.w3.org/Graphics/SVG/1.1/DTD/svg11.dtd">
<!-- Generated by graphviz version 2.36.0 (20140111.2315)
 -->
<!-- Title: /home/travis/build/robotology/human&#45;dynamics&#45;estimation/build/ros&#45;msgs/autogenerated/msgs/include/sensor_msgs_Temperature.h Pages: 1 -->
<svg width="354pt" height="240pt"
 viewBox="0.00 0.00 354.00 240.00" xmlns="http://www.w3.org/2000/svg" xmlns:xlink="http://www.w3.org/1999/xlink">
<g id="graph0" class="graph" transform="scale(1 1) rotate(0) translate(4 236)">
<title>/home/travis/build/robotology/human&#45;dynamics&#45;estimation/build/ros&#45;msgs/autogenerated/msgs/include/sensor_msgs_Temperature.h</title>
<!-- Node1 -->
<g id="node1" class="node"><title>Node1</title>
<polygon fill="#bfbfbf" stroke="black" points="38,-168.5 38,-231.5 184,-231.5 184,-168.5 38,-168.5"/>
<text text-anchor="start" x="46" y="-219.5" font-family="Helvetica,sans-Serif" font-size="10.00">/home/travis/build</text>
<text text-anchor="start" x="46" y="-208.5" font-family="Helvetica,sans-Serif" font-size="10.00">/robotology/human&#45;dynamics</text>
<text text-anchor="start" x="46" y="-197.5" font-family="Helvetica,sans-Serif" font-size="10.00">&#45;estimation/build/ros&#45;msgs</text>
<text text-anchor="start" x="46" y="-186.5" font-family="Helvetica,sans-Serif" font-size="10.00">/autogenerated/msgs/include</text>
<text text-anchor="middle" x="111" y="-175.5" font-family="Helvetica,sans-Serif" font-size="10.00">/sensor_msgs_Temperature.h</text>
</g>
<!-- Node2 -->
<g id="node2" class="node"><title>Node2</title>
<polygon fill="none" stroke="#bfbfbf" points="-0.5,-0.5 -0.5,-19.5 40.5,-19.5 40.5,-0.5 -0.5,-0.5"/>
<text text-anchor="middle" x="20" y="-7.5" font-family="Helvetica,sans-Serif" font-size="10.00">string</text>
</g>
<!-- Node1&#45;&gt;Node2 -->
<g id="edge1" class="edge"><title>Node1&#45;&gt;Node2</title>
<path fill="none" stroke="midnightblue" d="M77.0371,-168.402C66.8237,-157.731 56.3824,-145.122 49,-132 30.529,-99.1695 23.7659,-54.9209 21.3311,-30.0435"/>
<polygon fill="midnightblue" stroke="midnightblue" points="24.7958,-29.4756 20.4706,-19.8039 17.8204,-30.0618 24.7958,-29.4756"/>
</g>
<!-- Node3 -->
<g id="node3" class="node"><title>Node3</title>
<polygon fill="none" stroke="#bfbfbf" points="59,-0.5 59,-19.5 103,-19.5 103,-0.5 59,-0.5"/>
<text text-anchor="middle" x="81" y="-7.5" font-family="Helvetica,sans-Serif" font-size="10.00">vector</text>
</g>
<!-- Node1&#45;&gt;Node3 -->
<g id="edge2" class="edge"><title>Node1&#45;&gt;Node3</title>
<path fill="none" stroke="midnightblue" d="M86.7119,-168.223C69.641,-144.528 48.2603,-110.15 39,-76 36.6737,-67.4209 35.7404,-64.2697 39,-56 43.514,-44.5479 52.469,-34.291 60.9546,-26.4724"/>
<polygon fill="midnightblue" stroke="midnightblue" points="63.4686,-28.9275 68.7863,-19.7638 58.9147,-23.6113 63.4686,-28.9275"/>
</g>
<!-- Node4 -->
<g id="node4" class="node"><title>Node4</title>
<polygon fill="none" stroke="#bfbfbf" points="128,-0.5 128,-19.5 208,-19.5 208,-0.5 128,-0.5"/>
<text text-anchor="middle" x="168" y="-7.5" font-family="Helvetica,sans-Serif" font-size="10.00">yarp/os/Wire.h</text>
</g>
<!-- Node1&#45;&gt;Node4 -->
<g id="edge3" class="edge"><title>Node1&#45;&gt;Node4</title>
<path fill="none" stroke="midnightblue" d="M177.548,-168.391C191.352,-158.787 204.09,-146.74 212,-132 231.016,-96.5661 201.574,-51.1769 182.392,-27.3245"/>
<polygon fill="midnightblue" stroke="midnightblue" points="185.001,-24.9891 175.897,-19.5695 179.634,-29.4834 185.001,-24.9891"/>
</g>
<!-- Node5 -->
<g id="node5" class="node"><title>Node5</title>
<polygon fill="none" stroke="#bfbfbf" points="226,-0.5 226,-19.5 346,-19.5 346,-0.5 226,-0.5"/>
<text text-anchor="middle" x="286" y="-7.5" font-family="Helvetica,sans-Serif" font-size="10.00">yarp/os/idl/WireTypes.h</text>
</g>
<!-- Node1&#45;&gt;Node5 -->
<g id="edge4" class="edge"><title>Node1&#45;&gt;Node5</title>
<path fill="none" stroke="midnightblue" d="M181.317,-168.388C198.428,-158.573 215.63,-146.429 229,-132 257.046,-101.732 273.621,-55.1815 281.136,-29.5383"/>
<polygon fill="midnightblue" stroke="midnightblue" points="284.579,-30.2202 283.885,-19.6481 277.835,-28.3456 284.579,-30.2202"/>
</g>
<!-- Node6 -->
<g id="node6" class="node"><title>Node6</title>
<g id="a_node6"><a xlink:href="autogenerated_2msgs_2include_2_tick_time_8h.html" target="_top" xlink:title="TickTime.h">
<polygon fill="none" stroke="black" points="48.5,-56.5 48.5,-75.5 113.5,-75.5 113.5,-56.5 48.5,-56.5"/>
<text text-anchor="middle" x="81" y="-63.5" font-family="Helvetica,sans-Serif" font-size="10.00">TickTime.h</text>
</a>
</g>
</g>
<!-- Node1&#45;&gt;Node6 -->
<g id="edge5" class="edge"><title>Node1&#45;&gt;Node6</title>
<path fill="none" stroke="midnightblue" d="M100.191,-168.27C96.5319,-156.976 92.6947,-144.013 90,-132 86.5672,-116.696 84.2237,-99.054 82.7907,-86.0146"/>
<polygon fill="midnightblue" stroke="midnightblue" points="86.2573,-85.5085 81.7613,-75.9149 79.2934,-86.2183 86.2573,-85.5085"/>
</g>
<!-- Node7 -->
<g id="node7" class="node"><title>Node7</title>
<g id="a_node7"><a xlink:href="autogenerated_2msgs_2include_2std__msgs___header_8h.html" target="_top" xlink:title="std_msgs_Header.h">
<polygon fill="none" stroke="black" points="99,-112.5 99,-131.5 203,-131.5 203,-112.5 99,-112.5"/>
<text text-anchor="middle" x="151" y="-119.5" font-family="Helvetica,sans-Serif" font-size="10.00">std_msgs_Header.h</text>
</a>
</g>
</g>
<!-- Node1&#45;&gt;Node7 -->
<g id="edge10" class="edge"><title>Node1&#45;&gt;Node7</title>
<path fill="none" stroke="midnightblue" d="M127.27,-168.088C132.19,-158.739 137.423,-148.796 141.72,-140.633"/>
<polygon fill="midnightblue" stroke="midnightblue" points="144.851,-142.197 146.411,-131.718 138.657,-138.937 144.851,-142.197"/>
</g>
<!-- Node6&#45;&gt;Node2 -->
<g id="edge6" class="edge"><title>Node6&#45;&gt;Node2</title>
<path fill="none" stroke="midnightblue" d="M71.1993,-56.324C62.1819,-48.3414 48.594,-36.3128 37.682,-26.6529"/>
<polygon fill="midnightblue" stroke="midnightblue" points="39.7866,-23.8416 29.979,-19.8339 35.1467,-29.083 39.7866,-23.8416"/>
</g>
<!-- Node6&#45;&gt;Node3 -->
<g id="edge7" class="edge"><title>Node6&#45;&gt;Node3</title>
<path fill="none" stroke="midnightblue" d="M81,-56.083C81,-49.0059 81,-38.8611 81,-29.9865"/>
<polygon fill="midnightblue" stroke="midnightblue" points="84.5001,-29.751 81,-19.7511 77.5001,-29.7511 84.5001,-29.751"/>
</g>
<!-- Node6&#45;&gt;Node4 -->
<g id="edge8" class="edge"><title>Node6&#45;&gt;Node4</title>
<path fill="none" stroke="midnightblue" d="M94.9781,-56.324C108.55,-47.9002 129.38,-34.9709 145.325,-25.0741"/>
<polygon fill="midnightblue" stroke="midnightblue" points="147.406,-27.9019 154.057,-19.6545 143.714,-21.9544 147.406,-27.9019"/>
</g>
<!-- Node6&#45;&gt;Node5 -->
<g id="edge9" class="edge"><title>Node6&#45;&gt;Node5</title>
<path fill="none" stroke="midnightblue" d="M113.483,-56.4435C148.72,-47.1616 205.104,-32.3093 243.759,-22.127"/>
<polygon fill="midnightblue" stroke="midnightblue" points="244.891,-25.4483 253.669,-19.5164 243.107,-18.6792 244.891,-25.4483"/>
</g>
<!-- Node7&#45;&gt;Node2 -->
<g id="edge11" class="edge"><title>Node7&#45;&gt;Node2</title>
<path fill="none" stroke="midnightblue" d="M105.181,-112.486C82.4151,-106.046 56.1735,-94.9383 39,-76 27.5335,-63.3552 22.9619,-44.1461 21.1526,-29.8856"/>
<polygon fill="midnightblue" stroke="midnightblue" points="24.6196,-29.3656 20.2149,-19.7298 17.6493,-30.0093 24.6196,-29.3656"/>
</g>
<!-- Node7&#45;&gt;Node3 -->
<g id="edge12" class="edge"><title>Node7&#45;&gt;Node3</title>
<path fill="none" stroke="midnightblue" d="M148.069,-112.137C143.567,-99.1869 134.176,-74.6137 122,-56 115.073,-45.4099 105.656,-34.8821 97.5946,-26.6749"/>
<polygon fill="midnightblue" stroke="midnightblue" points="99.9855,-24.1171 90.406,-19.591 95.0721,-29.103 99.9855,-24.1171"/>
</g>
<!-- Node7&#45;&gt;Node4 -->
<g id="edge13" class="edge"><title>Node7&#45;&gt;Node4</title>
<path fill="none" stroke="midnightblue" d="M152.334,-112.368C155.077,-94.617 161.406,-53.6664 165.126,-29.5974"/>
<polygon fill="midnightblue" stroke="midnightblue" points="168.604,-30.0087 166.672,-19.5914 161.686,-28.9395 168.604,-30.0087"/>
</g>
<!-- Node7&#45;&gt;Node5 -->
<g id="edge14" class="edge"><title>Node7&#45;&gt;Node5</title>
<path fill="none" stroke="midnightblue" d="M161.593,-112.368C184.464,-93.7334 238.71,-49.5324 267.427,-26.1338"/>
<polygon fill="midnightblue" stroke="midnightblue" points="269.914,-28.6215 275.456,-19.5914 265.493,-23.1949 269.914,-28.6215"/>
</g>
<!-- Node7&#45;&gt;Node6 -->
<g id="edge15" class="edge"><title>Node7&#45;&gt;Node6</title>
<path fill="none" stroke="midnightblue" d="M139.753,-112.324C129.203,-104.185 113.199,-91.8395 100.558,-82.0874"/>
<polygon fill="midnightblue" stroke="midnightblue" points="102.507,-79.1707 92.4513,-75.8339 98.2314,-84.7132 102.507,-79.1707"/>
</g>
</g>
</svg>
