<?xml version="1.0" encoding="UTF-8" standalone="no"?>
<!DOCTYPE svg PUBLIC "-//W3C//DTD SVG 1.1//EN"
 "http://www.w3.org/Graphics/SVG/1.1/DTD/svg11.dtd">
<!-- Generated by graphviz version 2.36.0 (20140111.2315)
 -->
<!-- Title: /home/travis/build/robotology/human&#45;dynamics&#45;estimation/build/human&#45;dynamics&#45;estimator/autogenerated/include/thrifts/JointDynamicsEstimation.h Pages: 1 -->
<svg width="904pt" height="386pt"
 viewBox="0.00 0.00 904.00 386.00" xmlns="http://www.w3.org/2000/svg" xmlns:xlink="http://www.w3.org/1999/xlink">
<g id="graph0" class="graph" transform="scale(1 1) rotate(0) translate(4 382)">
<title>/home/travis/build/robotology/human&#45;dynamics&#45;estimation/build/human&#45;dynamics&#45;estimator/autogenerated/include/thrifts/JointDynamicsEstimation.h</title>
<!-- Node1 -->
<g id="node1" class="node"><title>Node1</title>
<polygon fill="#bfbfbf" stroke="black" points="223.5,-314.5 223.5,-377.5 424.5,-377.5 424.5,-314.5 223.5,-314.5"/>
<text text-anchor="start" x="231.5" y="-365.5" font-family="Helvetica,sans-Serif" font-size="10.00">/home/travis/build</text>
<text text-anchor="start" x="231.5" y="-354.5" font-family="Helvetica,sans-Serif" font-size="10.00">/robotology/human&#45;dynamics</text>
<text text-anchor="start" x="231.5" y="-343.5" font-family="Helvetica,sans-Serif" font-size="10.00">&#45;estimation/build/human</text>
<text text-anchor="start" x="231.5" y="-332.5" font-family="Helvetica,sans-Serif" font-size="10.00">&#45;dynamics&#45;estimator/autogenerated</text>
<text text-anchor="middle" x="324" y="-321.5" font-family="Helvetica,sans-Serif" font-size="10.00">/include/thrifts/JointDynamicsEstimation.h</text>
</g>
<!-- Node2 -->
<g id="node2" class="node"><title>Node2</title>
<g id="a_node2"><a xlink:href="__yarp__idl___2thrifts_2humandynamics_2_human_dynamics_8h.html" target="_top" xlink:title="/home/travis/build\l/robotology/human&#45;dynamics\l&#45;estimation/build/human\l&#45;dynamics&#45;estimator/_yarp\l_idl_/thrifts/humandynamics\l/HumanDynamics.h">
<polygon fill="none" stroke="black" points="0,-203 0,-277 142,-277 142,-203 0,-203"/>
<text text-anchor="start" x="8" y="-265" font-family="Helvetica,sans-Serif" font-size="10.00">/home/travis/build</text>
<text text-anchor="start" x="8" y="-254" font-family="Helvetica,sans-Serif" font-size="10.00">/robotology/human&#45;dynamics</text>
<text text-anchor="start" x="8" y="-243" font-family="Helvetica,sans-Serif" font-size="10.00">&#45;estimation/build/human</text>
<text text-anchor="start" x="8" y="-232" font-family="Helvetica,sans-Serif" font-size="10.00">&#45;dynamics&#45;estimator/_yarp</text>
<text text-anchor="start" x="8" y="-221" font-family="Helvetica,sans-Serif" font-size="10.00">_idl_/thrifts/humandynamics</text>
<text text-anchor="middle" x="71" y="-210" font-family="Helvetica,sans-Serif" font-size="10.00">/HumanDynamics.h</text>
</a>
</g>
</g>
<!-- Node1&#45;&gt;Node2 -->
<g id="edge1" class="edge"><title>Node1&#45;&gt;Node2</title>
<path fill="none" stroke="midnightblue" d="M232.137,-310.673C205.799,-300.494 177.142,-289.094 151,-278 148.183,-276.804 145.317,-275.57 142.429,-274.31"/>
<polygon fill="midnightblue" stroke="midnightblue" points="231.136,-314.039 241.726,-314.365 233.652,-307.506 231.136,-314.039"/>
</g>
<!-- Node4 -->
<g id="node4" class="node"><title>Node4</title>
<g id="a_node4"><a xlink:href="__yarp__idl___2thrifts_2humandynamics_2_joint_dynamics_estimation_8cpp.html" target="_top" xlink:title="/home/travis/build\l/robotology/human&#45;dynamics\l&#45;estimation/build/human\l&#45;dynamics&#45;estimator/_yarp\l_idl_/thrifts/humandynamics\l/JointDynamicsEstimation.cpp">
<polygon fill="none" stroke="black" points="160,-203 160,-277 310,-277 310,-203 160,-203"/>
<text text-anchor="start" x="168" y="-265" font-family="Helvetica,sans-Serif" font-size="10.00">/home/travis/build</text>
<text text-anchor="start" x="168" y="-254" font-family="Helvetica,sans-Serif" font-size="10.00">/robotology/human&#45;dynamics</text>
<text text-anchor="start" x="168" y="-243" font-family="Helvetica,sans-Serif" font-size="10.00">&#45;estimation/build/human</text>
<text text-anchor="start" x="168" y="-232" font-family="Helvetica,sans-Serif" font-size="10.00">&#45;dynamics&#45;estimator/_yarp</text>
<text text-anchor="start" x="168" y="-221" font-family="Helvetica,sans-Serif" font-size="10.00">_idl_/thrifts/humandynamics</text>
<text text-anchor="middle" x="235" y="-210" font-family="Helvetica,sans-Serif" font-size="10.00">/JointDynamicsEstimation.cpp</text>
</a>
</g>
</g>
<!-- Node1&#45;&gt;Node4 -->
<g id="edge3" class="edge"><title>Node1&#45;&gt;Node4</title>
<path fill="none" stroke="midnightblue" d="M291.065,-306.515C282.885,-296.956 274.145,-286.742 266.058,-277.292"/>
<polygon fill="midnightblue" stroke="midnightblue" points="288.617,-309.037 297.778,-314.359 293.936,-304.486 288.617,-309.037"/>
</g>
<!-- Node5 -->
<g id="node5" class="node"><title>Node5</title>
<g id="a_node5"><a xlink:href="autogenerated_2include_2thrifts_2_human_dynamics_8h.html" target="_top" xlink:title="/home/travis/build\l/robotology/human&#45;dynamics\l&#45;estimation/build/human\l&#45;dynamics&#45;estimator/autogenerated\l/include/thrifts/HumanDynamics.h">
<polygon fill="none" stroke="black" points="328,-208.5 328,-271.5 498,-271.5 498,-208.5 328,-208.5"/>
<text text-anchor="start" x="336" y="-259.5" font-family="Helvetica,sans-Serif" font-size="10.00">/home/travis/build</text>
<text text-anchor="start" x="336" y="-248.5" font-family="Helvetica,sans-Serif" font-size="10.00">/robotology/human&#45;dynamics</text>
<text text-anchor="start" x="336" y="-237.5" font-family="Helvetica,sans-Serif" font-size="10.00">&#45;estimation/build/human</text>
<text text-anchor="start" x="336" y="-226.5" font-family="Helvetica,sans-Serif" font-size="10.00">&#45;dynamics&#45;estimator/autogenerated</text>
<text text-anchor="middle" x="413" y="-215.5" font-family="Helvetica,sans-Serif" font-size="10.00">/include/thrifts/HumanDynamics.h</text>
</a>
</g>
</g>
<!-- Node1&#45;&gt;Node5 -->
<g id="edge4" class="edge"><title>Node1&#45;&gt;Node5</title>
<path fill="none" stroke="midnightblue" d="M356.864,-306.597C366.683,-295.123 377.315,-282.699 386.658,-271.781"/>
<polygon fill="midnightblue" stroke="midnightblue" points="354.064,-304.486 350.222,-314.359 359.383,-309.037 354.064,-304.486"/>
</g>
<!-- Node12 -->
<g id="node12" class="node"><title>Node12</title>
<g id="a_node12"><a xlink:href="autogenerated_2src_2_joint_dynamics_estimation_8cpp.html" target="_top" xlink:title="/home/travis/build\l/robotology/human&#45;dynamics\l&#45;estimation/build/human\l&#45;dynamics&#45;estimator/autogenerated\l/src/JointDynamicsEstimation.cpp">
<polygon fill="none" stroke="black" points="516,-208.5 516,-271.5 686,-271.5 686,-208.5 516,-208.5"/>
<text text-anchor="start" x="524" y="-259.5" font-family="Helvetica,sans-Serif" font-size="10.00">/home/travis/build</text>
<text text-anchor="start" x="524" y="-248.5" font-family="Helvetica,sans-Serif" font-size="10.00">/robotology/human&#45;dynamics</text>
<text text-anchor="start" x="524" y="-237.5" font-family="Helvetica,sans-Serif" font-size="10.00">&#45;estimation/build/human</text>
<text text-anchor="start" x="524" y="-226.5" font-family="Helvetica,sans-Serif" font-size="10.00">&#45;dynamics&#45;estimator/autogenerated</text>
<text text-anchor="middle" x="601" y="-215.5" font-family="Helvetica,sans-Serif" font-size="10.00">/src/JointDynamicsEstimation.cpp</text>
</a>
</g>
</g>
<!-- Node1&#45;&gt;Node12 -->
<g id="edge11" class="edge"><title>Node1&#45;&gt;Node12</title>
<path fill="none" stroke="midnightblue" d="M418.442,-310.914C446.953,-300.492 478.299,-288.901 507,-278 512.492,-275.914 518.157,-273.74 523.855,-271.538"/>
<polygon fill="midnightblue" stroke="midnightblue" points="417.083,-307.684 408.889,-314.401 419.483,-314.26 417.083,-307.684"/>
</g>
<!-- Node3 -->
<g id="node3" class="node"><title>Node3</title>
<g id="a_node3"><a xlink:href="_human_dynamics__index_8h.html" target="_top" xlink:title="/home/travis/build\l/robotology/human&#45;dynamics\l&#45;estimation/build/human\l&#45;dynamics&#45;estimator/_yarp\l_idl_/thrifts/humandynamics\l/HumanDynamics_index.h">
<polygon fill="none" stroke="black" points="0,-91 0,-165 142,-165 142,-91 0,-91"/>
<text text-anchor="start" x="8" y="-153" font-family="Helvetica,sans-Serif" font-size="10.00">/home/travis/build</text>
<text text-anchor="start" x="8" y="-142" font-family="Helvetica,sans-Serif" font-size="10.00">/robotology/human&#45;dynamics</text>
<text text-anchor="start" x="8" y="-131" font-family="Helvetica,sans-Serif" font-size="10.00">&#45;estimation/build/human</text>
<text text-anchor="start" x="8" y="-120" font-family="Helvetica,sans-Serif" font-size="10.00">&#45;dynamics&#45;estimator/_yarp</text>
<text text-anchor="start" x="8" y="-109" font-family="Helvetica,sans-Serif" font-size="10.00">_idl_/thrifts/humandynamics</text>
<text text-anchor="middle" x="71" y="-98" font-family="Helvetica,sans-Serif" font-size="10.00">/HumanDynamics_index.h</text>
</a>
</g>
</g>
<!-- Node2&#45;&gt;Node3 -->
<g id="edge2" class="edge"><title>Node2&#45;&gt;Node3</title>
<path fill="none" stroke="midnightblue" d="M71,-192.752C71,-183.513 71,-173.935 71,-165.099"/>
<polygon fill="midnightblue" stroke="midnightblue" points="67.5001,-192.982 71,-202.982 74.5001,-192.982 67.5001,-192.982"/>
</g>
<!-- Node6 -->
<g id="node6" class="node"><title>Node6</title>
<g id="a_node6"><a xlink:href="__yarp__idl___2thrifts_2humandynamics_2_human_dynamics_8cpp.html" target="_top" xlink:title="/home/travis/build\l/robotology/human&#45;dynamics\l&#45;estimation/build/human\l&#45;dynamics&#45;estimator/_yarp\l_idl_/thrifts/humandynamics\l/HumanDynamics.cpp">
<polygon fill="none" stroke="black" points="164,-91 164,-165 306,-165 306,-91 164,-91"/>
<text text-anchor="start" x="172" y="-153" font-family="Helvetica,sans-Serif" font-size="10.00">/home/travis/build</text>
<text text-anchor="start" x="172" y="-142" font-family="Helvetica,sans-Serif" font-size="10.00">/robotology/human&#45;dynamics</text>
<text text-anchor="start" x="172" y="-131" font-family="Helvetica,sans-Serif" font-size="10.00">&#45;estimation/build/human</text>
<text text-anchor="start" x="172" y="-120" font-family="Helvetica,sans-Serif" font-size="10.00">&#45;dynamics&#45;estimator/_yarp</text>
<text text-anchor="start" x="172" y="-109" font-family="Helvetica,sans-Serif" font-size="10.00">_idl_/thrifts/humandynamics</text>
<text text-anchor="middle" x="235" y="-98" font-family="Helvetica,sans-Serif" font-size="10.00">/HumanDynamics.cpp</text>
</a>
</g>
</g>
<!-- Node5&#45;&gt;Node6 -->
<g id="edge5" class="edge"><title>Node5&#45;&gt;Node6</title>
<path fill="none" stroke="midnightblue" d="M354.843,-203.06C335.155,-190.894 313.17,-177.307 293.459,-165.126"/>
<polygon fill="midnightblue" stroke="midnightblue" points="353.07,-206.079 363.417,-208.359 356.75,-200.124 353.07,-206.079"/>
</g>
<!-- Node7 -->
<g id="node7" class="node"><title>Node7</title>
<g id="a_node7"><a xlink:href="autogenerated_2src_2_human_dynamics_8cpp.html" target="_top" xlink:title="/home/travis/build\l/robotology/human&#45;dynamics\l&#45;estimation/build/human\l&#45;dynamics&#45;estimator/autogenerated\l/src/HumanDynamics.cpp">
<polygon fill="none" stroke="black" points="324,-96.5 324,-159.5 494,-159.5 494,-96.5 324,-96.5"/>
<text text-anchor="start" x="332" y="-147.5" font-family="Helvetica,sans-Serif" font-size="10.00">/home/travis/build</text>
<text text-anchor="start" x="332" y="-136.5" font-family="Helvetica,sans-Serif" font-size="10.00">/robotology/human&#45;dynamics</text>
<text text-anchor="start" x="332" y="-125.5" font-family="Helvetica,sans-Serif" font-size="10.00">&#45;estimation/build/human</text>
<text text-anchor="start" x="332" y="-114.5" font-family="Helvetica,sans-Serif" font-size="10.00">&#45;dynamics&#45;estimator/autogenerated</text>
<text text-anchor="middle" x="409" y="-103.5" font-family="Helvetica,sans-Serif" font-size="10.00">/src/HumanDynamics.cpp</text>
</a>
</g>
</g>
<!-- Node5&#45;&gt;Node7 -->
<g id="edge6" class="edge"><title>Node5&#45;&gt;Node7</title>
<path fill="none" stroke="midnightblue" d="M411.511,-198.052C411.051,-185.408 410.553,-171.701 410.122,-159.858"/>
<polygon fill="midnightblue" stroke="midnightblue" points="408.025,-198.493 411.886,-208.359 415.02,-198.238 408.025,-198.493"/>
</g>
<!-- Node8 -->
<g id="node8" class="node"><title>Node8</title>
<g id="a_node8"><a xlink:href="_human_dynamics_estimator_8h.html" target="_top" xlink:title="/home/travis/build\l/robotology/human&#45;dynamics\l&#45;estimation/human&#45;dynamics\l&#45;estimator/include/HumanDynamicsEstimator.h">
<polygon fill="none" stroke="black" points="512.5,-102 512.5,-154 735.5,-154 735.5,-102 512.5,-102"/>
<text text-anchor="start" x="520.5" y="-142" font-family="Helvetica,sans-Serif" font-size="10.00">/home/travis/build</text>
<text text-anchor="start" x="520.5" y="-131" font-family="Helvetica,sans-Serif" font-size="10.00">/robotology/human&#45;dynamics</text>
<text text-anchor="start" x="520.5" y="-120" font-family="Helvetica,sans-Serif" font-size="10.00">&#45;estimation/human&#45;dynamics</text>
<text text-anchor="middle" x="624" y="-109" font-family="Helvetica,sans-Serif" font-size="10.00">&#45;estimator/include/HumanDynamicsEstimator.h</text>
</a>
</g>
</g>
<!-- Node5&#45;&gt;Node8 -->
<g id="edge7" class="edge"><title>Node5&#45;&gt;Node8</title>
<path fill="none" stroke="midnightblue" d="M480.787,-203.661C511.752,-187.518 547.708,-168.773 575.846,-154.104"/>
<polygon fill="midnightblue" stroke="midnightblue" points="479.025,-200.632 471.775,-208.359 482.261,-206.84 479.025,-200.632"/>
</g>
<!-- Node11 -->
<g id="node11" class="node"><title>Node11</title>
<g id="a_node11"><a xlink:href="_human_effort_bridge_8cpp.html" target="_top" xlink:title="/home/travis/build\l/robotology/human&#45;dynamics\l&#45;estimation/human&#45;viz&#45;bridge\l/src/HumanEffortBridge.cpp">
<polygon fill="none" stroke="black" points="754,-102 754,-154 896,-154 896,-102 754,-102"/>
<text text-anchor="start" x="762" y="-142" font-family="Helvetica,sans-Serif" font-size="10.00">/home/travis/build</text>
<text text-anchor="start" x="762" y="-131" font-family="Helvetica,sans-Serif" font-size="10.00">/robotology/human&#45;dynamics</text>
<text text-anchor="start" x="762" y="-120" font-family="Helvetica,sans-Serif" font-size="10.00">&#45;estimation/human&#45;viz&#45;bridge</text>
<text text-anchor="middle" x="825" y="-109" font-family="Helvetica,sans-Serif" font-size="10.00">/src/HumanEffortBridge.cpp</text>
</a>
</g>
</g>
<!-- Node5&#45;&gt;Node11 -->
<g id="edge10" class="edge"><title>Node5&#45;&gt;Node11</title>
<path fill="none" stroke="midnightblue" d="M495.479,-205.354C499.349,-204.149 503.203,-203.022 507,-202 609.882,-174.315 641.895,-196.427 744,-166 754.52,-162.865 765.435,-158.623 775.716,-154.129"/>
<polygon fill="midnightblue" stroke="midnightblue" points="494.267,-202.068 485.846,-208.497 496.439,-208.722 494.267,-202.068"/>
</g>
<!-- Node9 -->
<g id="node9" class="node"><title>Node9</title>
<g id="a_node9"><a xlink:href="_human_dynamics_estimator_8cpp.html" target="_top" xlink:title="/home/travis/build\l/robotology/human&#45;dynamics\l&#45;estimation/human&#45;dynamics\l&#45;estimator/src/HumanDynamicsEstimator.cpp">
<polygon fill="none" stroke="black" points="417,-1 417,-53 633,-53 633,-1 417,-1"/>
<text text-anchor="start" x="425" y="-41" font-family="Helvetica,sans-Serif" font-size="10.00">/home/travis/build</text>
<text text-anchor="start" x="425" y="-30" font-family="Helvetica,sans-Serif" font-size="10.00">/robotology/human&#45;dynamics</text>
<text text-anchor="start" x="425" y="-19" font-family="Helvetica,sans-Serif" font-size="10.00">&#45;estimation/human&#45;dynamics</text>
<text text-anchor="middle" x="525" y="-8" font-family="Helvetica,sans-Serif" font-size="10.00">&#45;estimator/src/HumanDynamicsEstimator.cpp</text>
</a>
</g>
</g>
<!-- Node8&#45;&gt;Node9 -->
<g id="edge8" class="edge"><title>Node8&#45;&gt;Node9</title>
<path fill="none" stroke="midnightblue" d="M591.525,-94.5246C578.091,-81.091 562.753,-65.7526 550.192,-53.192"/>
<polygon fill="midnightblue" stroke="midnightblue" points="589.216,-97.1658 598.762,-101.762 594.166,-92.216 589.216,-97.1658"/>
</g>
<!-- Node10 -->
<g id="node10" class="node"><title>Node10</title>
<g id="a_node10"><a xlink:href="human-dynamics-estimator_2src_2main_8cpp.html" target="_top" xlink:title="/home/travis/build\l/robotology/human&#45;dynamics\l&#45;estimation/human&#45;dynamics\l&#45;estimator/src/main.cpp">
<polygon fill="none" stroke="black" points="651,-1 651,-53 793,-53 793,-1 651,-1"/>
<text text-anchor="start" x="659" y="-41" font-family="Helvetica,sans-Serif" font-size="10.00">/home/travis/build</text>
<text text-anchor="start" x="659" y="-30" font-family="Helvetica,sans-Serif" font-size="10.00">/robotology/human&#45;dynamics</text>
<text text-anchor="start" x="659" y="-19" font-family="Helvetica,sans-Serif" font-size="10.00">&#45;estimation/human&#45;dynamics</text>
<text text-anchor="middle" x="722" y="-8" font-family="Helvetica,sans-Serif" font-size="10.00">&#45;estimator/src/main.cpp</text>
</a>
</g>
</g>
<!-- Node8&#45;&gt;Node10 -->
<g id="edge9" class="edge"><title>Node8&#45;&gt;Node10</title>
<path fill="none" stroke="midnightblue" d="M656.147,-94.5246C669.445,-81.091 684.629,-65.7526 697.063,-53.192"/>
<polygon fill="midnightblue" stroke="midnightblue" points="653.531,-92.1928 648.983,-101.762 658.506,-97.1174 653.531,-92.1928"/>
</g>
</g>
</svg>
