<?xml version="1.0" encoding="UTF-8" standalone="no"?>
<!DOCTYPE svg PUBLIC "-//W3C//DTD SVG 1.1//EN"
 "http://www.w3.org/Graphics/SVG/1.1/DTD/svg11.dtd">
<!-- Generated by graphviz version 2.36.0 (20140111.2315)
 -->
<!-- Title: /home/travis/build/robotology/human&#45;dynamics&#45;estimation/build/ros&#45;msgs/autogenerated/msgs/include/geometry_msgs_Quaternion.h Pages: 1 -->
<svg width="484pt" height="296pt"
 viewBox="0.00 0.00 484.00 296.00" xmlns="http://www.w3.org/2000/svg" xmlns:xlink="http://www.w3.org/1999/xlink">
<g id="graph0" class="graph" transform="scale(1 1) rotate(0) translate(4 292)">
<title>/home/travis/build/robotology/human&#45;dynamics&#45;estimation/build/ros&#45;msgs/autogenerated/msgs/include/geometry_msgs_Quaternion.h</title>
<!-- Node1 -->
<g id="node1" class="node"><title>Node1</title>
<polygon fill="#bfbfbf" stroke="black" points="239,-224.5 239,-287.5 389,-287.5 389,-224.5 239,-224.5"/>
<text text-anchor="start" x="247" y="-275.5" font-family="Helvetica,sans-Serif" font-size="10.00">/home/travis/build</text>
<text text-anchor="start" x="247" y="-264.5" font-family="Helvetica,sans-Serif" font-size="10.00">/robotology/human&#45;dynamics</text>
<text text-anchor="start" x="247" y="-253.5" font-family="Helvetica,sans-Serif" font-size="10.00">&#45;estimation/build/ros&#45;msgs</text>
<text text-anchor="start" x="247" y="-242.5" font-family="Helvetica,sans-Serif" font-size="10.00">/autogenerated/msgs/include</text>
<text text-anchor="middle" x="314" y="-231.5" font-family="Helvetica,sans-Serif" font-size="10.00">/geometry_msgs_Quaternion.h</text>
</g>
<!-- Node2 -->
<g id="node2" class="node"><title>Node2</title>
<polygon fill="none" stroke="#bfbfbf" points="152.5,-0.5 152.5,-19.5 193.5,-19.5 193.5,-0.5 152.5,-0.5"/>
<text text-anchor="middle" x="173" y="-7.5" font-family="Helvetica,sans-Serif" font-size="10.00">string</text>
</g>
<!-- Node1&#45;&gt;Node2 -->
<g id="edge1" class="edge"><title>Node1&#45;&gt;Node2</title>
<path fill="none" stroke="midnightblue" d="M250.646,-224.463C215.186,-203.706 173.996,-172.622 153,-132 137.485,-101.983 143.384,-88.9199 151,-56 153.23,-46.3627 157.821,-36.4052 162.236,-28.3149"/>
<polygon fill="midnightblue" stroke="midnightblue" points="165.351,-29.9216 167.362,-19.5194 159.303,-26.3968 165.351,-29.9216"/>
</g>
<!-- Node3 -->
<g id="node3" class="node"><title>Node3</title>
<polygon fill="none" stroke="#bfbfbf" points="432,-0.5 432,-19.5 476,-19.5 476,-0.5 432,-0.5"/>
<text text-anchor="middle" x="454" y="-7.5" font-family="Helvetica,sans-Serif" font-size="10.00">vector</text>
</g>
<!-- Node1&#45;&gt;Node3 -->
<g id="edge2" class="edge"><title>Node1&#45;&gt;Node3</title>
<path fill="none" stroke="midnightblue" d="M384.538,-224.354C399.636,-214.75 414.024,-202.714 424,-188 457.471,-138.633 457.665,-64.165 455.629,-29.7098"/>
<polygon fill="midnightblue" stroke="midnightblue" points="459.114,-29.3729 454.898,-19.6529 452.133,-29.8804 459.114,-29.3729"/>
</g>
<!-- Node4 -->
<g id="node4" class="node"><title>Node4</title>
<polygon fill="none" stroke="#bfbfbf" points="288,-0.5 288,-19.5 368,-19.5 368,-0.5 288,-0.5"/>
<text text-anchor="middle" x="328" y="-7.5" font-family="Helvetica,sans-Serif" font-size="10.00">yarp/os/Wire.h</text>
</g>
<!-- Node1&#45;&gt;Node4 -->
<g id="edge3" class="edge"><title>Node1&#45;&gt;Node4</title>
<path fill="none" stroke="midnightblue" d="M373.546,-224.232C386.573,-214.504 398.652,-202.44 406,-188 435.496,-130.03 375.707,-58.4566 344.855,-27.0498"/>
<polygon fill="midnightblue" stroke="midnightblue" points="346.93,-24.1794 337.362,-19.6308 342.005,-29.1537 346.93,-24.1794"/>
</g>
<!-- Node5 -->
<g id="node5" class="node"><title>Node5</title>
<polygon fill="none" stroke="#bfbfbf" points="0,-0.5 0,-19.5 120,-19.5 120,-0.5 0,-0.5"/>
<text text-anchor="middle" x="60" y="-7.5" font-family="Helvetica,sans-Serif" font-size="10.00">yarp/os/idl/WireTypes.h</text>
</g>
<!-- Node1&#45;&gt;Node5 -->
<g id="edge4" class="edge"><title>Node1&#45;&gt;Node5</title>
<path fill="none" stroke="midnightblue" d="M238.662,-225.442C217.318,-215.255 194.797,-202.657 176,-188 124.752,-148.039 113.855,-132.643 82,-76 73.7877,-61.3974 67.9593,-43.224 64.3737,-29.8092"/>
<polygon fill="midnightblue" stroke="midnightblue" points="67.7037,-28.6976 61.8863,-19.8427 60.9121,-30.3927 67.7037,-28.6976"/>
</g>
<!-- Node6 -->
<g id="node6" class="node"><title>Node6</title>
<g id="a_node6"><a xlink:href="autogenerated_2msgs_2include_2_tick_time_8h.html" target="_top" xlink:title="TickTime.h">
<polygon fill="none" stroke="black" points="265.5,-56.5 265.5,-75.5 330.5,-75.5 330.5,-56.5 265.5,-56.5"/>
<text text-anchor="middle" x="298" y="-63.5" font-family="Helvetica,sans-Serif" font-size="10.00">TickTime.h</text>
</a>
</g>
</g>
<!-- Node1&#45;&gt;Node6 -->
<g id="edge5" class="edge"><title>Node1&#45;&gt;Node6</title>
<path fill="none" stroke="midnightblue" d="M365.348,-224.47C383.837,-209.249 398.327,-189.508 390,-168 375.711,-131.094 340.967,-99.3919 318.501,-81.7874"/>
<polygon fill="midnightblue" stroke="midnightblue" points="320.361,-78.8046 310.281,-75.5429 316.127,-84.3788 320.361,-78.8046"/>
</g>
<!-- Node7 -->
<g id="node7" class="node"><title>Node7</title>
<g id="a_node7"><a xlink:href="autogenerated_2msgs_2include_2std__msgs___header_8h.html" target="_top" xlink:title="std_msgs_Header.h">
<polygon fill="none" stroke="black" points="175,-112.5 175,-131.5 279,-131.5 279,-112.5 175,-112.5"/>
<text text-anchor="middle" x="227" y="-119.5" font-family="Helvetica,sans-Serif" font-size="10.00">std_msgs_Header.h</text>
</a>
</g>
</g>
<!-- Node1&#45;&gt;Node7 -->
<g id="edge10" class="edge"><title>Node1&#45;&gt;Node7</title>
<path fill="none" stroke="midnightblue" d="M269.288,-224.468C257.379,-214.219 245.7,-201.832 238,-188 230.085,-173.781 227.569,-155.305 226.896,-141.687"/>
<polygon fill="midnightblue" stroke="midnightblue" points="230.393,-141.517 226.686,-131.591 223.395,-141.662 230.393,-141.517"/>
</g>
<!-- Node8 -->
<g id="node8" class="node"><title>Node8</title>
<g id="a_node8"><a xlink:href="autogenerated_2msgs_2include_2geometry__msgs___vector3_8h.html" target="_top" xlink:title="geometry_msgs_Vector3.h">
<polygon fill="none" stroke="black" points="247,-168.5 247,-187.5 381,-187.5 381,-168.5 247,-168.5"/>
<text text-anchor="middle" x="314" y="-175.5" font-family="Helvetica,sans-Serif" font-size="10.00">geometry_msgs_Vector3.h</text>
</a>
</g>
</g>
<!-- Node1&#45;&gt;Node8 -->
<g id="edge16" class="edge"><title>Node1&#45;&gt;Node8</title>
<path fill="none" stroke="midnightblue" d="M314,-224.088C314,-215.15 314,-205.669 314,-197.719"/>
<polygon fill="midnightblue" stroke="midnightblue" points="317.5,-197.718 314,-187.718 310.5,-197.718 317.5,-197.718"/>
</g>
<!-- Node6&#45;&gt;Node2 -->
<g id="edge6" class="edge"><title>Node6&#45;&gt;Node2</title>
<path fill="none" stroke="midnightblue" d="M278.193,-56.4435C257.713,-47.5961 225.517,-33.6875 202.135,-23.5865"/>
<polygon fill="midnightblue" stroke="midnightblue" points="203.282,-20.2692 192.714,-19.5164 200.506,-26.6953 203.282,-20.2692"/>
</g>
<!-- Node6&#45;&gt;Node3 -->
<g id="edge7" class="edge"><title>Node6&#45;&gt;Node3</title>
<path fill="none" stroke="midnightblue" d="M322.719,-56.4435C349.617,-47.1326 392.709,-32.2163 422.131,-22.0315"/>
<polygon fill="midnightblue" stroke="midnightblue" points="423.614,-25.222 431.919,-18.6433 421.324,-18.607 423.614,-25.222"/>
</g>
<!-- Node6&#45;&gt;Node4 -->
<g id="edge8" class="edge"><title>Node6&#45;&gt;Node4</title>
<path fill="none" stroke="midnightblue" d="M302.954,-56.083C307.104,-48.6127 313.153,-37.7244 318.267,-28.5199"/>
<polygon fill="midnightblue" stroke="midnightblue" points="321.341,-30.1924 323.138,-19.7511 315.222,-26.7929 321.341,-30.1924"/>
</g>
<!-- Node6&#45;&gt;Node5 -->
<g id="edge9" class="edge"><title>Node6&#45;&gt;Node5</title>
<path fill="none" stroke="midnightblue" d="M265.406,-57.6048C224.606,-48.3475 154.403,-32.4192 107.593,-21.7983"/>
<polygon fill="midnightblue" stroke="midnightblue" points="108.214,-18.3504 97.6872,-19.5509 106.665,-25.1769 108.214,-18.3504"/>
</g>
<!-- Node7&#45;&gt;Node2 -->
<g id="edge11" class="edge"><title>Node7&#45;&gt;Node2</title>
<path fill="none" stroke="midnightblue" d="M222.763,-112.368C213.93,-94.376 193.397,-52.5503 181.653,-28.6267"/>
<polygon fill="midnightblue" stroke="midnightblue" points="184.766,-27.0257 177.218,-19.5914 178.483,-30.1105 184.766,-27.0257"/>
</g>
<!-- Node7&#45;&gt;Node3 -->
<g id="edge12" class="edge"><title>Node7&#45;&gt;Node3</title>
<path fill="none" stroke="midnightblue" d="M250.992,-112.413C273.943,-103.953 309.351,-90.2583 339,-76 372.061,-60.1012 408.706,-38.6928 431.548,-24.8676"/>
<polygon fill="midnightblue" stroke="midnightblue" points="433.44,-27.8128 440.157,-19.6192 429.797,-21.8357 433.44,-27.8128"/>
</g>
<!-- Node7&#45;&gt;Node4 -->
<g id="edge13" class="edge"><title>Node7&#45;&gt;Node4</title>
<path fill="none" stroke="midnightblue" d="M229.169,-112.1C232.809,-98.6628 241.24,-72.9681 256,-56 267.666,-42.5889 284.317,-31.8276 298.668,-24.1954"/>
<polygon fill="midnightblue" stroke="midnightblue" points="300.345,-27.2697 307.691,-19.6355 297.188,-21.0221 300.345,-27.2697"/>
</g>
<!-- Node7&#45;&gt;Node5 -->
<g id="edge14" class="edge"><title>Node7&#45;&gt;Node5</title>
<path fill="none" stroke="midnightblue" d="M213.896,-112.368C185.239,-93.4924 116.757,-48.385 81.6139,-25.2367"/>
<polygon fill="midnightblue" stroke="midnightblue" points="83.3198,-22.1693 73.0433,-19.5914 79.4692,-28.0151 83.3198,-22.1693"/>
</g>
<!-- Node7&#45;&gt;Node6 -->
<g id="edge15" class="edge"><title>Node7&#45;&gt;Node6</title>
<path fill="none" stroke="midnightblue" d="M238.407,-112.324C249.109,-104.185 265.341,-91.8395 278.163,-82.0874"/>
<polygon fill="midnightblue" stroke="midnightblue" points="280.544,-84.6734 286.385,-75.8339 276.307,-79.1018 280.544,-84.6734"/>
</g>
<!-- Node8&#45;&gt;Node2 -->
<g id="edge17" class="edge"><title>Node8&#45;&gt;Node2</title>
<path fill="none" stroke="midnightblue" d="M246.65,-173.868C216.954,-168.714 184.63,-157.136 166,-132 143.635,-101.824 155.862,-54.9018 165.315,-29.2573"/>
<polygon fill="midnightblue" stroke="midnightblue" points="168.679,-30.2674 169.087,-19.6804 162.166,-27.7019 168.679,-30.2674"/>
</g>
<!-- Node8&#45;&gt;Node3 -->
<g id="edge18" class="edge"><title>Node8&#45;&gt;Node3</title>
<path fill="none" stroke="midnightblue" d="M321.527,-168.075C344.041,-141.38 411.102,-61.865 440.235,-27.3218"/>
<polygon fill="midnightblue" stroke="midnightblue" points="443.002,-29.4689 446.774,-19.5681 437.651,-24.956 443.002,-29.4689"/>
</g>
<!-- Node8&#45;&gt;Node4 -->
<g id="edge19" class="edge"><title>Node8&#45;&gt;Node4</title>
<path fill="none" stroke="midnightblue" d="M317.802,-168.278C325.986,-148.487 344.13,-98.5934 339,-56 337.929,-47.1069 335.708,-37.4344 333.54,-29.344"/>
<polygon fill="midnightblue" stroke="midnightblue" points="336.844,-28.1668 330.73,-19.5139 330.113,-30.0908 336.844,-28.1668"/>
</g>
<!-- Node8&#45;&gt;Node5 -->
<g id="edge20" class="edge"><title>Node8&#45;&gt;Node5</title>
<path fill="none" stroke="midnightblue" d="M248.432,-168.498C217.495,-162.132 181.26,-151.087 153,-132 113.071,-105.032 82.9394,-55.3165 68.8357,-28.7823"/>
<polygon fill="midnightblue" stroke="midnightblue" points="71.7707,-26.8367 64.0811,-19.5484 65.5473,-30.0412 71.7707,-26.8367"/>
</g>
<!-- Node8&#45;&gt;Node6 -->
<g id="edge21" class="edge"><title>Node8&#45;&gt;Node6</title>
<path fill="none" stroke="midnightblue" d="M312.745,-168.368C310.162,-150.617 304.206,-109.666 300.705,-85.5974"/>
<polygon fill="midnightblue" stroke="midnightblue" points="304.153,-84.9835 299.25,-75.5914 297.226,-85.9911 304.153,-84.9835"/>
</g>
<!-- Node8&#45;&gt;Node7 -->
<g id="edge22" class="edge"><title>Node8&#45;&gt;Node7</title>
<path fill="none" stroke="midnightblue" d="M300.022,-168.324C286.45,-159.9 265.62,-146.971 249.675,-137.074"/>
<polygon fill="midnightblue" stroke="midnightblue" points="251.286,-133.954 240.943,-131.655 247.594,-139.902 251.286,-133.954"/>
</g>
</g>
</svg>
