<?xml version="1.0" encoding="UTF-8" standalone="no"?>
<!DOCTYPE svg PUBLIC "-//W3C//DTD SVG 1.1//EN"
 "http://www.w3.org/Graphics/SVG/1.1/DTD/svg11.dtd">
<!-- Generated by graphviz version 2.36.0 (20140111.2315)
 -->
<!-- Title: /home/travis/build/robotology/human&#45;dynamics&#45;estimation/build/ros&#45;msgs/autogenerated/msgs/include/geometry_msgs_Transform.h Pages: 1 -->
<svg width="662pt" height="352pt"
 viewBox="0.00 0.00 662.00 352.00" xmlns="http://www.w3.org/2000/svg" xmlns:xlink="http://www.w3.org/1999/xlink">
<g id="graph0" class="graph" transform="scale(1 1) rotate(0) translate(4 348)">
<title>/home/travis/build/robotology/human&#45;dynamics&#45;estimation/build/ros&#45;msgs/autogenerated/msgs/include/geometry_msgs_Transform.h</title>
<!-- Node1 -->
<g id="node1" class="node"><title>Node1</title>
<polygon fill="#bfbfbf" stroke="black" points="265.5,-280.5 265.5,-343.5 412.5,-343.5 412.5,-280.5 265.5,-280.5"/>
<text text-anchor="start" x="273.5" y="-331.5" font-family="Helvetica,sans-Serif" font-size="10.00">/home/travis/build</text>
<text text-anchor="start" x="273.5" y="-320.5" font-family="Helvetica,sans-Serif" font-size="10.00">/robotology/human&#45;dynamics</text>
<text text-anchor="start" x="273.5" y="-309.5" font-family="Helvetica,sans-Serif" font-size="10.00">&#45;estimation/build/ros&#45;msgs</text>
<text text-anchor="start" x="273.5" y="-298.5" font-family="Helvetica,sans-Serif" font-size="10.00">/autogenerated/msgs/include</text>
<text text-anchor="middle" x="339" y="-287.5" font-family="Helvetica,sans-Serif" font-size="10.00">/geometry_msgs_Transform.h</text>
</g>
<!-- Node2 -->
<g id="node2" class="node"><title>Node2</title>
<polygon fill="none" stroke="#bfbfbf" points="120.5,-0.5 120.5,-19.5 161.5,-19.5 161.5,-0.5 120.5,-0.5"/>
<text text-anchor="middle" x="141" y="-7.5" font-family="Helvetica,sans-Serif" font-size="10.00">string</text>
</g>
<!-- Node1&#45;&gt;Node2 -->
<g id="edge1" class="edge"><title>Node1&#45;&gt;Node2</title>
<path fill="none" stroke="midnightblue" d="M265.442,-297.7C165.739,-277.54 0,-235.527 0,-179 0,-179 0,-179 0,-121 0,-65.2128 69.4642,-33.547 110.88,-19.6251"/>
<polygon fill="midnightblue" stroke="midnightblue" points="112.045,-22.9271 120.497,-16.5397 109.906,-16.2617 112.045,-22.9271"/>
</g>
<!-- Node3 -->
<g id="node3" class="node"><title>Node3</title>
<polygon fill="none" stroke="#bfbfbf" points="180,-0.5 180,-19.5 224,-19.5 224,-0.5 180,-0.5"/>
<text text-anchor="middle" x="202" y="-7.5" font-family="Helvetica,sans-Serif" font-size="10.00">vector</text>
</g>
<!-- Node1&#45;&gt;Node3 -->
<g id="edge2" class="edge"><title>Node1&#45;&gt;Node3</title>
<path fill="none" stroke="midnightblue" d="M265.39,-305.118C187.585,-294.404 76,-264.189 76,-179 76,-179 76,-179 76,-121 76,-71.0196 132.957,-38.5223 170.282,-22.5922"/>
<polygon fill="midnightblue" stroke="midnightblue" points="171.831,-25.7404 179.764,-18.7177 169.183,-19.2606 171.831,-25.7404"/>
</g>
<!-- Node4 -->
<g id="node4" class="node"><title>Node4</title>
<polygon fill="none" stroke="#bfbfbf" points="540,-0.5 540,-19.5 620,-19.5 620,-0.5 540,-0.5"/>
<text text-anchor="middle" x="580" y="-7.5" font-family="Helvetica,sans-Serif" font-size="10.00">yarp/os/Wire.h</text>
</g>
<!-- Node1&#45;&gt;Node4 -->
<g id="edge3" class="edge"><title>Node1&#45;&gt;Node4</title>
<path fill="none" stroke="midnightblue" d="M412.854,-310.921C505.958,-306.482 654,-283.063 654,-179 654,-179 654,-179 654,-121 654,-81.6105 620.93,-45.7264 599.004,-26.264"/>
<polygon fill="midnightblue" stroke="midnightblue" points="601.117,-23.466 591.239,-19.6358 596.573,-28.7902 601.117,-23.466"/>
</g>
<!-- Node5 -->
<g id="node5" class="node"><title>Node5</title>
<polygon fill="none" stroke="#bfbfbf" points="402,-0.5 402,-19.5 522,-19.5 522,-0.5 402,-0.5"/>
<text text-anchor="middle" x="462" y="-7.5" font-family="Helvetica,sans-Serif" font-size="10.00">yarp/os/idl/WireTypes.h</text>
</g>
<!-- Node1&#45;&gt;Node5 -->
<g id="edge4" class="edge"><title>Node1&#45;&gt;Node5</title>
<path fill="none" stroke="midnightblue" d="M376.063,-280.34C388.17,-269.475 401.253,-256.765 412,-244 450.113,-198.731 461.435,-186.705 484,-132 497.039,-100.387 506.871,-88.4222 496,-56 492.396,-45.2512 485.097,-35.0204 478.183,-27.0378"/>
<polygon fill="midnightblue" stroke="midnightblue" points="480.655,-24.5561 471.288,-19.6053 475.523,-29.3168 480.655,-24.5561"/>
</g>
<!-- Node6 -->
<g id="node6" class="node"><title>Node6</title>
<g id="a_node6"><a xlink:href="autogenerated_2msgs_2include_2_tick_time_8h.html" target="_top" xlink:title="TickTime.h">
<polygon fill="none" stroke="black" points="218.5,-56.5 218.5,-75.5 283.5,-75.5 283.5,-56.5 218.5,-56.5"/>
<text text-anchor="middle" x="251" y="-63.5" font-family="Helvetica,sans-Serif" font-size="10.00">TickTime.h</text>
</a>
</g>
</g>
<!-- Node1&#45;&gt;Node6 -->
<g id="edge5" class="edge"><title>Node1&#45;&gt;Node6</title>
<path fill="none" stroke="midnightblue" d="M265.247,-291.178C241.878,-281.038 218.606,-266.015 205,-244 172.654,-191.663 215.635,-117.142 238.437,-84.0092"/>
<polygon fill="midnightblue" stroke="midnightblue" points="241.32,-85.9949 244.254,-75.8146 235.612,-81.943 241.32,-85.9949"/>
</g>
<!-- Node7 -->
<g id="node7" class="node"><title>Node7</title>
<g id="a_node7"><a xlink:href="autogenerated_2msgs_2include_2std__msgs___header_8h.html" target="_top" xlink:title="std_msgs_Header.h">
<polygon fill="none" stroke="black" points="332,-112.5 332,-131.5 436,-131.5 436,-112.5 332,-112.5"/>
<text text-anchor="middle" x="384" y="-119.5" font-family="Helvetica,sans-Serif" font-size="10.00">std_msgs_Header.h</text>
</a>
</g>
</g>
<!-- Node1&#45;&gt;Node7 -->
<g id="edge10" class="edge"><title>Node1&#45;&gt;Node7</title>
<path fill="none" stroke="midnightblue" d="M366.028,-280.192C384.553,-256.748 407.291,-222.698 416,-188 418.164,-179.379 418.704,-176.468 416,-168 412.659,-157.538 405.9,-147.428 399.451,-139.45"/>
<polygon fill="midnightblue" stroke="midnightblue" points="401.944,-136.981 392.751,-131.714 396.652,-141.564 401.944,-136.981"/>
</g>
<!-- Node8 -->
<g id="node8" class="node"><title>Node8</title>
<g id="a_node8"><a xlink:href="autogenerated_2msgs_2include_2geometry__msgs___vector3_8h.html" target="_top" xlink:title="geometry_msgs_Vector3.h">
<polygon fill="none" stroke="black" points="256,-168.5 256,-187.5 390,-187.5 390,-168.5 256,-168.5"/>
<text text-anchor="middle" x="323" y="-175.5" font-family="Helvetica,sans-Serif" font-size="10.00">geometry_msgs_Vector3.h</text>
</a>
</g>
</g>
<!-- Node1&#45;&gt;Node8 -->
<g id="edge16" class="edge"><title>Node1&#45;&gt;Node8</title>
<path fill="none" stroke="midnightblue" d="M361.228,-280.451C370.664,-263.607 377.871,-242.433 370,-224 364.853,-211.947 354.719,-201.576 345.174,-193.839"/>
<polygon fill="midnightblue" stroke="midnightblue" points="347.172,-190.962 337.078,-187.741 342.96,-196.553 347.172,-190.962"/>
</g>
<!-- Node9 -->
<g id="node9" class="node"><title>Node9</title>
<g id="a_node9"><a xlink:href="autogenerated_2msgs_2include_2geometry__msgs___quaternion_8h.html" target="_top" xlink:title="geometry_msgs_Quaternion.h">
<polygon fill="none" stroke="black" points="214.5,-224.5 214.5,-243.5 361.5,-243.5 361.5,-224.5 214.5,-224.5"/>
<text text-anchor="middle" x="288" y="-231.5" font-family="Helvetica,sans-Serif" font-size="10.00">geometry_msgs_Quaternion.h</text>
</a>
</g>
</g>
<!-- Node1&#45;&gt;Node9 -->
<g id="edge23" class="edge"><title>Node1&#45;&gt;Node9</title>
<path fill="none" stroke="midnightblue" d="M318.256,-280.088C311.845,-270.533 305.017,-260.359 299.473,-252.097"/>
<polygon fill="midnightblue" stroke="midnightblue" points="302.329,-250.072 293.85,-243.718 296.516,-253.972 302.329,-250.072"/>
</g>
<!-- Node6&#45;&gt;Node2 -->
<g id="edge6" class="edge"><title>Node6&#45;&gt;Node2</title>
<path fill="none" stroke="midnightblue" d="M233.327,-56.324C215.606,-47.6247 188.097,-34.1202 167.712,-24.113"/>
<polygon fill="midnightblue" stroke="midnightblue" points="169.149,-20.9195 158.63,-19.6545 166.064,-27.2031 169.149,-20.9195"/>
</g>
<!-- Node6&#45;&gt;Node3 -->
<g id="edge7" class="edge"><title>Node6&#45;&gt;Node3</title>
<path fill="none" stroke="midnightblue" d="M242.909,-56.083C235.845,-48.2982 225.412,-36.8015 216.851,-27.3665"/>
<polygon fill="midnightblue" stroke="midnightblue" points="219.253,-24.8047 209.941,-19.7511 214.069,-29.5087 219.253,-24.8047"/>
</g>
<!-- Node6&#45;&gt;Node4 -->
<g id="edge8" class="edge"><title>Node6&#45;&gt;Node4</title>
<path fill="none" stroke="midnightblue" d="M283.676,-59.9269C335.811,-51.7884 441.009,-35.1845 530,-20 530.101,-19.9828 530.201,-19.9657 530.302,-19.9485"/>
<polygon fill="midnightblue" stroke="midnightblue" points="530.639,-23.4423 539.894,-18.2852 529.443,-16.5452 530.639,-23.4423"/>
</g>
<!-- Node6&#45;&gt;Node5 -->
<g id="edge9" class="edge"><title>Node6&#45;&gt;Node5</title>
<path fill="none" stroke="midnightblue" d="M283.506,-56.6808C319.846,-47.3806 378.85,-32.2802 418.987,-22.008"/>
<polygon fill="midnightblue" stroke="midnightblue" points="419.94,-25.377 428.76,-19.5069 418.205,-18.5956 419.94,-25.377"/>
</g>
<!-- Node7&#45;&gt;Node2 -->
<g id="edge11" class="edge"><title>Node7&#45;&gt;Node2</title>
<path fill="none" stroke="midnightblue" d="M372.791,-112.382C352.194,-96.6636 308.888,-64.2022 292,-56 244.192,-32.78 226.622,-35.6597 171.263,-19.9988"/>
<polygon fill="midnightblue" stroke="midnightblue" points="172.235,-16.6363 161.655,-17.2032 170.279,-23.3576 172.235,-16.6363"/>
</g>
<!-- Node7&#45;&gt;Node3 -->
<g id="edge12" class="edge"><title>Node7&#45;&gt;Node3</title>
<path fill="none" stroke="midnightblue" d="M378.285,-112.17C368.925,-98.3554 349.043,-71.6023 326,-56 297.707,-36.8433 260.276,-24.7312 233.967,-17.9592"/>
<polygon fill="midnightblue" stroke="midnightblue" points="234.672,-14.5283 224.126,-15.5407 233.001,-21.3261 234.672,-14.5283"/>
</g>
<!-- Node7&#45;&gt;Node4 -->
<g id="edge13" class="edge"><title>Node7&#45;&gt;Node4</title>
<path fill="none" stroke="midnightblue" d="M399.38,-112.368C433.371,-93.2916 515.102,-47.4223 555.936,-24.5054"/>
<polygon fill="midnightblue" stroke="midnightblue" points="557.684,-27.5378 564.692,-19.5914 554.258,-21.4334 557.684,-27.5378"/>
</g>
<!-- Node7&#45;&gt;Node5 -->
<g id="edge14" class="edge"><title>Node7&#45;&gt;Node5</title>
<path fill="none" stroke="midnightblue" d="M386.398,-112.401C390.311,-99.3575 398.963,-74.1698 412,-56 420.109,-44.6979 431.496,-34.1715 441.355,-26.1455"/>
<polygon fill="midnightblue" stroke="midnightblue" points="443.779,-28.6934 449.506,-19.7794 439.47,-23.1768 443.779,-28.6934"/>
</g>
<!-- Node7&#45;&gt;Node6 -->
<g id="edge15" class="edge"><title>Node7&#45;&gt;Node6</title>
<path fill="none" stroke="midnightblue" d="M362.926,-112.444C340.94,-103.517 306.266,-89.4387 281.336,-79.3168"/>
<polygon fill="midnightblue" stroke="midnightblue" points="282.558,-76.0355 271.976,-75.5164 279.924,-82.5213 282.558,-76.0355"/>
</g>
<!-- Node8&#45;&gt;Node2 -->
<g id="edge17" class="edge"><title>Node8&#45;&gt;Node2</title>
<path fill="none" stroke="midnightblue" d="M298.698,-168.387C279.511,-160.794 252.77,-148.389 233,-132 196.412,-101.668 165.772,-54.1298 150.818,-28.6054"/>
<polygon fill="midnightblue" stroke="midnightblue" points="153.723,-26.6341 145.716,-19.6963 147.649,-30.1133 153.723,-26.6341"/>
</g>
<!-- Node8&#45;&gt;Node3 -->
<g id="edge18" class="edge"><title>Node8&#45;&gt;Node3</title>
<path fill="none" stroke="midnightblue" d="M307.151,-168.278C281.517,-153.217 231.56,-119.703 209,-76 201.597,-61.6597 200.258,-43.1973 200.531,-29.6156"/>
<polygon fill="midnightblue" stroke="midnightblue" points="204.03,-29.717 201.041,-19.5525 197.039,-29.3624 204.03,-29.717"/>
</g>
<!-- Node8&#45;&gt;Node4 -->
<g id="edge19" class="edge"><title>Node8&#45;&gt;Node4</title>
<path fill="none" stroke="midnightblue" d="M369.645,-168.448C398.649,-161.671 435.838,-150.237 465,-132 509.863,-103.945 549.228,-54.3608 568.118,-28.2268"/>
<polygon fill="midnightblue" stroke="midnightblue" points="571.203,-29.9271 574.124,-19.7428 565.489,-25.8828 571.203,-29.9271"/>
</g>
<!-- Node8&#45;&gt;Node5 -->
<g id="edge20" class="edge"><title>Node8&#45;&gt;Node5</title>
<path fill="none" stroke="midnightblue" d="M382.205,-168.477C405.146,-162.159 429.556,-151.157 445,-132 468.66,-102.653 467.664,-55.7448 464.842,-29.7967"/>
<polygon fill="midnightblue" stroke="midnightblue" points="468.3,-29.2459 463.543,-19.779 461.358,-30.146 468.3,-29.2459"/>
</g>
<!-- Node8&#45;&gt;Node6 -->
<g id="edge21" class="edge"><title>Node8&#45;&gt;Node6</title>
<path fill="none" stroke="midnightblue" d="M317.35,-168.368C305.468,-150.215 277.706,-107.802 262.121,-83.9902"/>
<polygon fill="midnightblue" stroke="midnightblue" points="265.029,-82.0416 256.623,-75.5914 259.172,-85.8753 265.029,-82.0416"/>
</g>
<!-- Node8&#45;&gt;Node7 -->
<g id="edge22" class="edge"><title>Node8&#45;&gt;Node7</title>
<path fill="none" stroke="midnightblue" d="M332.801,-168.324C341.818,-160.341 355.406,-148.313 366.318,-138.653"/>
<polygon fill="midnightblue" stroke="midnightblue" points="368.853,-141.083 374.021,-131.834 364.213,-135.842 368.853,-141.083"/>
</g>
<!-- Node9&#45;&gt;Node2 -->
<g id="edge24" class="edge"><title>Node9&#45;&gt;Node2</title>
<path fill="none" stroke="midnightblue" d="M270.323,-224.422C255.767,-216.617 235.414,-203.9 222,-188 180.3,-138.57 155.681,-64.1331 145.908,-29.6977"/>
<polygon fill="midnightblue" stroke="midnightblue" points="149.173,-28.3696 143.16,-19.647 142.421,-30.2161 149.173,-28.3696"/>
</g>
<!-- Node9&#45;&gt;Node3 -->
<g id="edge25" class="edge"><title>Node9&#45;&gt;Node3</title>
<path fill="none" stroke="midnightblue" d="M275.253,-224.395C264.026,-216.221 247.954,-202.979 238,-188 204.142,-137.051 196.964,-117.14 199,-56 199.287,-47.3834 199.882,-37.8541 200.467,-29.7913"/>
<polygon fill="midnightblue" stroke="midnightblue" points="203.972,-29.8585 201.254,-19.6183 196.993,-29.3184 203.972,-29.8585"/>
</g>
<!-- Node9&#45;&gt;Node4 -->
<g id="edge26" class="edge"><title>Node9&#45;&gt;Node4</title>
<path fill="none" stroke="midnightblue" d="M341.68,-224.45C372.853,-217.819 411.968,-206.537 443,-188 502.897,-152.219 514.47,-134.167 553,-76 562.691,-61.3701 570.006,-42.6992 574.561,-29.125"/>
<polygon fill="midnightblue" stroke="midnightblue" points="577.924,-30.0964 577.615,-19.5061 571.253,-27.978 577.924,-30.0964"/>
</g>
<!-- Node9&#45;&gt;Node5 -->
<g id="edge27" class="edge"><title>Node9&#45;&gt;Node5</title>
<path fill="none" stroke="midnightblue" d="M328.52,-224.443C355.003,-217.535 389.47,-205.957 416,-188 443.388,-169.463 449.428,-161.176 465,-132 481.212,-101.626 486.511,-89.8082 480,-56 478.21,-46.7047 474.517,-36.8887 470.939,-28.8048"/>
<polygon fill="midnightblue" stroke="midnightblue" points="474.056,-27.2089 466.621,-19.6611 467.727,-30.1981 474.056,-27.2089"/>
</g>
<!-- Node9&#45;&gt;Node6 -->
<g id="edge28" class="edge"><title>Node9&#45;&gt;Node6</title>
<path fill="none" stroke="midnightblue" d="M276.459,-224.49C266.521,-216.379 252.878,-203.178 247,-188 233.704,-153.666 240.477,-109.665 246.079,-85.3018"/>
<polygon fill="midnightblue" stroke="midnightblue" points="249.476,-86.1446 248.495,-75.5953 242.683,-84.4542 249.476,-86.1446"/>
</g>
<!-- Node9&#45;&gt;Node7 -->
<g id="edge29" class="edge"><title>Node9&#45;&gt;Node7</title>
<path fill="none" stroke="midnightblue" d="M342.08,-224.468C363.523,-218.146 386.104,-207.143 399,-188 408.476,-173.933 402.201,-154.688 395.095,-140.793"/>
<polygon fill="midnightblue" stroke="midnightblue" points="397.96,-138.749 389.987,-131.772 391.869,-142.198 397.96,-138.749"/>
</g>
<!-- Node9&#45;&gt;Node8 -->
<g id="edge30" class="edge"><title>Node9&#45;&gt;Node8</title>
<path fill="none" stroke="midnightblue" d="M293.78,-224.083C298.672,-216.534 305.827,-205.495 311.833,-196.23"/>
<polygon fill="midnightblue" stroke="midnightblue" points="314.826,-198.046 317.328,-187.751 308.952,-194.239 314.826,-198.046"/>
</g>
</g>
</svg>
