<?xml version="1.0" encoding="UTF-8" standalone="no"?>
<!DOCTYPE svg PUBLIC "-//W3C//DTD SVG 1.1//EN"
 "http://www.w3.org/Graphics/SVG/1.1/DTD/svg11.dtd">
<!-- Generated by graphviz version 2.36.0 (20140111.2315)
 -->
<!-- Title: /home/travis/build/robotology/human&#45;dynamics&#45;estimation/build/ros&#45;msgs/autogenerated/msgs/include/std_msgs_Header.h Pages: 1 -->
<svg width="347pt" height="184pt"
 viewBox="0.00 0.00 347.00 184.00" xmlns="http://www.w3.org/2000/svg" xmlns:xlink="http://www.w3.org/1999/xlink">
<g id="graph0" class="graph" transform="scale(1 1) rotate(0) translate(4 180)">
<title>/home/travis/build/robotology/human&#45;dynamics&#45;estimation/build/ros&#45;msgs/autogenerated/msgs/include/std_msgs_Header.h</title>
<!-- Node1 -->
<g id="node1" class="node"><title>Node1</title>
<polygon fill="#bfbfbf" stroke="black" points="65,-112.5 65,-175.5 207,-175.5 207,-112.5 65,-112.5"/>
<text text-anchor="start" x="73" y="-163.5" font-family="Helvetica,sans-Serif" font-size="10.00">/home/travis/build</text>
<text text-anchor="start" x="73" y="-152.5" font-family="Helvetica,sans-Serif" font-size="10.00">/robotology/human&#45;dynamics</text>
<text text-anchor="start" x="73" y="-141.5" font-family="Helvetica,sans-Serif" font-size="10.00">&#45;estimation/build/ros&#45;msgs</text>
<text text-anchor="start" x="73" y="-130.5" font-family="Helvetica,sans-Serif" font-size="10.00">/autogenerated/msgs/include</text>
<text text-anchor="middle" x="136" y="-119.5" font-family="Helvetica,sans-Serif" font-size="10.00">/std_msgs_Header.h</text>
</g>
<!-- Node2 -->
<g id="node2" class="node"><title>Node2</title>
<polygon fill="none" stroke="#bfbfbf" points="-0.5,-0.5 -0.5,-19.5 40.5,-19.5 40.5,-0.5 -0.5,-0.5"/>
<text text-anchor="middle" x="20" y="-7.5" font-family="Helvetica,sans-Serif" font-size="10.00">string</text>
</g>
<!-- Node1&#45;&gt;Node2 -->
<g id="edge1" class="edge"><title>Node1&#45;&gt;Node2</title>
<path fill="none" stroke="midnightblue" d="M109.096,-112.385C85.8013,-85.8774 53.0059,-48.5585 34.391,-27.376"/>
<polygon fill="midnightblue" stroke="midnightblue" points="36.7966,-24.8112 27.5663,-19.61 31.5384,-29.4321 36.7966,-24.8112"/>
</g>
<!-- Node3 -->
<g id="node3" class="node"><title>Node3</title>
<polygon fill="none" stroke="#bfbfbf" points="59,-0.5 59,-19.5 103,-19.5 103,-0.5 59,-0.5"/>
<text text-anchor="middle" x="81" y="-7.5" font-family="Helvetica,sans-Serif" font-size="10.00">vector</text>
</g>
<!-- Node1&#45;&gt;Node3 -->
<g id="edge2" class="edge"><title>Node1&#45;&gt;Node3</title>
<path fill="none" stroke="midnightblue" d="M113.436,-112.224C106.294,-101.249 98.9737,-88.5008 94,-76 88.0771,-61.1134 84.7516,-43.1948 82.95,-29.9446"/>
<polygon fill="midnightblue" stroke="midnightblue" points="86.3878,-29.2129 81.7322,-19.6958 79.4367,-30.0389 86.3878,-29.2129"/>
</g>
<!-- Node4 -->
<g id="node4" class="node"><title>Node4</title>
<polygon fill="none" stroke="#bfbfbf" points="121,-0.5 121,-19.5 201,-19.5 201,-0.5 121,-0.5"/>
<text text-anchor="middle" x="161" y="-7.5" font-family="Helvetica,sans-Serif" font-size="10.00">yarp/os/Wire.h</text>
</g>
<!-- Node1&#45;&gt;Node4 -->
<g id="edge3" class="edge"><title>Node1&#45;&gt;Node4</title>
<path fill="none" stroke="midnightblue" d="M159.651,-112.303C166.658,-101.435 173.413,-88.7324 177,-76 181.426,-60.2886 176.179,-42.2514 170.541,-29.1698"/>
<polygon fill="midnightblue" stroke="midnightblue" points="173.575,-27.4011 166.113,-19.8802 167.256,-30.4131 173.575,-27.4011"/>
</g>
<!-- Node5 -->
<g id="node5" class="node"><title>Node5</title>
<polygon fill="none" stroke="#bfbfbf" points="219,-0.5 219,-19.5 339,-19.5 339,-0.5 219,-0.5"/>
<text text-anchor="middle" x="279" y="-7.5" font-family="Helvetica,sans-Serif" font-size="10.00">yarp/os/idl/WireTypes.h</text>
</g>
<!-- Node1&#45;&gt;Node5 -->
<g id="edge4" class="edge"><title>Node1&#45;&gt;Node5</title>
<path fill="none" stroke="midnightblue" d="M169.167,-112.385C198.266,-85.5239 239.392,-47.5614 262.168,-26.5373"/>
<polygon fill="midnightblue" stroke="midnightblue" points="264.698,-28.9646 269.673,-19.61 259.95,-23.821 264.698,-28.9646"/>
</g>
<!-- Node6 -->
<g id="node6" class="node"><title>Node6</title>
<g id="a_node6"><a xlink:href="autogenerated_2msgs_2include_2_tick_time_8h.html" target="_top" xlink:title="TickTime.h">
<polygon fill="none" stroke="black" points="103.5,-56.5 103.5,-75.5 168.5,-75.5 168.5,-56.5 103.5,-56.5"/>
<text text-anchor="middle" x="136" y="-63.5" font-family="Helvetica,sans-Serif" font-size="10.00">TickTime.h</text>
</a>
</g>
</g>
<!-- Node1&#45;&gt;Node6 -->
<g id="edge5" class="edge"><title>Node1&#45;&gt;Node6</title>
<path fill="none" stroke="midnightblue" d="M136,-112.088C136,-103.15 136,-93.6688 136,-85.7195"/>
<polygon fill="midnightblue" stroke="midnightblue" points="139.5,-85.7181 136,-75.7182 132.5,-85.7182 139.5,-85.7181"/>
</g>
<!-- Node6&#45;&gt;Node2 -->
<g id="edge6" class="edge"><title>Node6&#45;&gt;Node2</title>
<path fill="none" stroke="midnightblue" d="M117.619,-56.4435C98.7835,-47.6751 69.2688,-33.9355 47.6207,-23.8579"/>
<polygon fill="midnightblue" stroke="midnightblue" points="48.8375,-20.5637 38.2946,-19.5164 45.8833,-26.9098 48.8375,-20.5637"/>
</g>
<!-- Node6&#45;&gt;Node3 -->
<g id="edge7" class="edge"><title>Node6&#45;&gt;Node3</title>
<path fill="none" stroke="midnightblue" d="M126.918,-56.083C118.829,-48.1409 106.805,-36.3354 97.0898,-26.7973"/>
<polygon fill="midnightblue" stroke="midnightblue" points="99.5009,-24.2595 89.9131,-19.7511 94.5967,-29.2545 99.5009,-24.2595"/>
</g>
<!-- Node6&#45;&gt;Node4 -->
<g id="edge8" class="edge"><title>Node6&#45;&gt;Node4</title>
<path fill="none" stroke="midnightblue" d="M140.128,-56.083C143.514,-48.77 148.416,-38.1814 152.619,-29.1034"/>
<polygon fill="midnightblue" stroke="midnightblue" points="155.923,-30.2962 156.949,-19.7511 149.571,-27.3553 155.923,-30.2962"/>
</g>
<!-- Node6&#45;&gt;Node5 -->
<g id="edge9" class="edge"><title>Node6&#45;&gt;Node5</title>
<path fill="none" stroke="midnightblue" d="M158.659,-56.4435C182.402,-47.4776 219.909,-33.314 246.738,-23.1827"/>
<polygon fill="midnightblue" stroke="midnightblue" points="248.329,-26.3235 256.447,-19.5164 245.856,-19.7749 248.329,-26.3235"/>
</g>
</g>
</svg>
