<?xml version="1.0" encoding="UTF-8" standalone="no"?>
<!DOCTYPE svg PUBLIC "-//W3C//DTD SVG 1.1//EN"
 "http://www.w3.org/Graphics/SVG/1.1/DTD/svg11.dtd">
<!-- Generated by graphviz version 2.36.0 (20140111.2315)
 -->
<!-- Title: /home/travis/build/robotology/human&#45;dynamics&#45;estimation/build/human&#45;viz&#45;bridge/autogenerated/data/src/XsensSensorData.cpp Pages: 1 -->
<svg width="231pt" height="296pt"
 viewBox="0.00 0.00 231.41 296.00" xmlns="http://www.w3.org/2000/svg" xmlns:xlink="http://www.w3.org/1999/xlink">
<g id="graph0" class="graph" transform="scale(1 1) rotate(0) translate(4 292)">
<title>/home/travis/build/robotology/human&#45;dynamics&#45;estimation/build/human&#45;viz&#45;bridge/autogenerated/data/src/XsensSensorData.cpp</title>
<!-- Node1 -->
<g id="node1" class="node"><title>Node1</title>
<polygon fill="#bfbfbf" stroke="black" points="5.41456,-224.5 5.41456,-287.5 161.415,-287.5 161.415,-224.5 5.41456,-224.5"/>
<text text-anchor="start" x="13.4146" y="-275.5" font-family="Helvetica,sans-Serif" font-size="10.00">/home/travis/build</text>
<text text-anchor="start" x="13.4146" y="-264.5" font-family="Helvetica,sans-Serif" font-size="10.00">/robotology/human&#45;dynamics</text>
<text text-anchor="start" x="13.4146" y="-253.5" font-family="Helvetica,sans-Serif" font-size="10.00">&#45;estimation/build/human</text>
<text text-anchor="start" x="13.4146" y="-242.5" font-family="Helvetica,sans-Serif" font-size="10.00">&#45;viz&#45;bridge/autogenerated</text>
<text text-anchor="middle" x="83.4146" y="-231.5" font-family="Helvetica,sans-Serif" font-size="10.00">/data/src/XsensSensorData.cpp</text>
</g>
<!-- Node2 -->
<g id="node2" class="node"><title>Node2</title>
<g id="a_node2"><a xlink:href="autogenerated_2data_2include_2thrift_2_xsens_sensor_data_8h.html" target="_top" xlink:title="thrift/XsensSensorData.h">
<polygon fill="none" stroke="black" points="19.9146,-168.5 19.9146,-187.5 146.915,-187.5 146.915,-168.5 19.9146,-168.5"/>
<text text-anchor="middle" x="83.4146" y="-175.5" font-family="Helvetica,sans-Serif" font-size="10.00">thrift/XsensSensorData.h</text>
</a>
</g>
</g>
<!-- Node1&#45;&gt;Node2 -->
<g id="edge1" class="edge"><title>Node1&#45;&gt;Node2</title>
<path fill="none" stroke="midnightblue" d="M83.4146,-224.088C83.4146,-215.15 83.4146,-205.669 83.4146,-197.719"/>
<polygon fill="midnightblue" stroke="midnightblue" points="86.9147,-197.718 83.4146,-187.718 79.9147,-197.718 86.9147,-197.718"/>
</g>
<!-- Node3 -->
<g id="node3" class="node"><title>Node3</title>
<polygon fill="none" stroke="#bfbfbf" points="6.41456,-0.5 6.41456,-19.5 86.4146,-19.5 86.4146,-0.5 6.41456,-0.5"/>
<text text-anchor="middle" x="46.4146" y="-7.5" font-family="Helvetica,sans-Serif" font-size="10.00">yarp/os/Wire.h</text>
</g>
<!-- Node2&#45;&gt;Node3 -->
<g id="edge2" class="edge"><title>Node2&#45;&gt;Node3</title>
<path fill="none" stroke="midnightblue" d="M72.8627,-168.356C54.3343,-152.41 16.575,-116.291 2.41456,-76 -0.532785,-67.614 -0.940886,-64.2312 2.41456,-56 7.21457,-44.2251 16.7432,-33.8564 25.7093,-26.0486"/>
<polygon fill="midnightblue" stroke="midnightblue" points="28.065,-28.6448 33.6336,-19.6314 23.6596,-23.2048 28.065,-28.6448"/>
</g>
<!-- Node4 -->
<g id="node4" class="node"><title>Node4</title>
<polygon fill="none" stroke="#bfbfbf" points="104.415,-0.5 104.415,-19.5 224.415,-19.5 224.415,-0.5 104.415,-0.5"/>
<text text-anchor="middle" x="164.415" y="-7.5" font-family="Helvetica,sans-Serif" font-size="10.00">yarp/os/idl/WireTypes.h</text>
</g>
<!-- Node2&#45;&gt;Node4 -->
<g id="edge3" class="edge"><title>Node2&#45;&gt;Node4</title>
<path fill="none" stroke="midnightblue" d="M123.562,-168.429C143.389,-161.953 165.553,-150.83 177.415,-132 197.418,-100.247 183.404,-54.3051 172.949,-29.1509"/>
<polygon fill="midnightblue" stroke="midnightblue" points="176.036,-27.479 168.795,-19.7452 169.633,-30.3068 176.036,-27.479"/>
</g>
<!-- Node5 -->
<g id="node5" class="node"><title>Node5</title>
<g id="a_node5"><a xlink:href="human-viz-bridge_2autogenerated_2data_2include_2thrift_2_quaternion_8h.html" target="_top" xlink:title="thrift/Quaternion.h">
<polygon fill="none" stroke="black" points="73.9146,-112.5 73.9146,-131.5 168.915,-131.5 168.915,-112.5 73.9146,-112.5"/>
<text text-anchor="middle" x="121.415" y="-119.5" font-family="Helvetica,sans-Serif" font-size="10.00">thrift/Quaternion.h</text>
</a>
</g>
</g>
<!-- Node2&#45;&gt;Node5 -->
<g id="edge4" class="edge"><title>Node2&#45;&gt;Node5</title>
<path fill="none" stroke="midnightblue" d="M89.6895,-168.083C95.057,-160.455 102.932,-149.264 109.493,-139.941"/>
<polygon fill="midnightblue" stroke="midnightblue" points="112.364,-141.943 115.256,-131.751 106.639,-137.915 112.364,-141.943"/>
</g>
<!-- Node6 -->
<g id="node6" class="node"><title>Node6</title>
<g id="a_node6"><a xlink:href="human-viz-bridge_2autogenerated_2data_2include_2thrift_2_vector3_8h.html" target="_top" xlink:title="thrift/Vector3.h">
<polygon fill="none" stroke="black" points="11.9146,-56.5 11.9146,-75.5 92.9146,-75.5 92.9146,-56.5 11.9146,-56.5"/>
<text text-anchor="middle" x="52.4146" y="-63.5" font-family="Helvetica,sans-Serif" font-size="10.00">thrift/Vector3.h</text>
</a>
</g>
</g>
<!-- Node2&#45;&gt;Node6 -->
<g id="edge10" class="edge"><title>Node2&#45;&gt;Node6</title>
<path fill="none" stroke="midnightblue" d="M79.0454,-168.245C74.7565,-159.327 68.308,-144.998 64.4146,-132 59.8303,-116.696 56.6832,-98.8139 54.7659,-85.684"/>
<polygon fill="midnightblue" stroke="midnightblue" points="58.2042,-84.9921 53.3923,-75.553 51.2676,-85.9326 58.2042,-84.9921"/>
</g>
<!-- Node5&#45;&gt;Node3 -->
<g id="edge5" class="edge"><title>Node5&#45;&gt;Node3</title>
<path fill="none" stroke="midnightblue" d="M120.372,-112.317C118.453,-99.1635 113.402,-73.8343 101.415,-56 93.1601,-43.7191 80.5678,-33.0682 69.5141,-25.2155"/>
<polygon fill="midnightblue" stroke="midnightblue" points="71.3402,-22.2256 61.0913,-19.5401 67.4285,-28.0307 71.3402,-22.2256"/>
</g>
<!-- Node5&#45;&gt;Node4 -->
<g id="edge6" class="edge"><title>Node5&#45;&gt;Node4</title>
<path fill="none" stroke="midnightblue" d="M124.789,-112.368C131.791,-94.4563 148.026,-52.9233 157.398,-28.9482"/>
<polygon fill="midnightblue" stroke="midnightblue" points="160.675,-30.1794 161.056,-19.5914 154.155,-27.6308 160.675,-30.1794"/>
</g>
<!-- Node5&#45;&gt;Node6 -->
<g id="edge7" class="edge"><title>Node5&#45;&gt;Node6</title>
<path fill="none" stroke="midnightblue" d="M110.329,-112.324C99.9285,-104.185 84.1539,-91.8395 71.693,-82.0874"/>
<polygon fill="midnightblue" stroke="midnightblue" points="73.7345,-79.2407 63.7023,-75.8339 69.4203,-84.7533 73.7345,-79.2407"/>
</g>
<!-- Node6&#45;&gt;Node3 -->
<g id="edge8" class="edge"><title>Node6&#45;&gt;Node3</title>
<path fill="none" stroke="midnightblue" d="M51.4238,-56.083C50.6287,-48.9272 49.4851,-38.6353 48.4913,-29.6911"/>
<polygon fill="midnightblue" stroke="midnightblue" points="51.9699,-29.3034 47.3869,-19.7511 45.0127,-30.0765 51.9699,-29.3034"/>
</g>
<!-- Node6&#45;&gt;Node4 -->
<g id="edge9" class="edge"><title>Node6&#45;&gt;Node4</title>
<path fill="none" stroke="midnightblue" d="M70.4093,-56.324C88.4522,-47.6247 116.461,-34.1202 137.217,-24.113"/>
<polygon fill="midnightblue" stroke="midnightblue" points="138.977,-27.1502 146.464,-19.6545 135.937,-20.8449 138.977,-27.1502"/>
</g>
</g>
</svg>
