<?xml version="1.0" encoding="UTF-8" standalone="no"?>
<!DOCTYPE svg PUBLIC "-//W3C//DTD SVG 1.1//EN"
 "http://www.w3.org/Graphics/SVG/1.1/DTD/svg11.dtd">
<!-- Generated by graphviz version 2.36.0 (20140111.2315)
 -->
<!-- Title: /home/travis/build/robotology/human&#45;dynamics&#45;estimation/build/human&#45;viz&#45;bridge/autogenerated/data/include/thrift/XsensSegmentsFrame.h Pages: 1 -->
<svg width="378pt" height="308pt"
 viewBox="0.00 0.00 378.32 308.00" xmlns="http://www.w3.org/2000/svg" xmlns:xlink="http://www.w3.org/1999/xlink">
<g id="graph0" class="graph" transform="scale(1 1) rotate(0) translate(4 304)">
<title>/home/travis/build/robotology/human&#45;dynamics&#45;estimation/build/human&#45;viz&#45;bridge/autogenerated/data/include/thrift/XsensSegmentsFrame.h</title>
<!-- Node1 -->
<g id="node1" class="node"><title>Node1</title>
<polygon fill="#bfbfbf" stroke="black" points="152,-225 152,-299 322,-299 322,-225 152,-225"/>
<text text-anchor="start" x="160" y="-287" font-family="Helvetica,sans-Serif" font-size="10.00">/home/travis/build</text>
<text text-anchor="start" x="160" y="-276" font-family="Helvetica,sans-Serif" font-size="10.00">/robotology/human&#45;dynamics</text>
<text text-anchor="start" x="160" y="-265" font-family="Helvetica,sans-Serif" font-size="10.00">&#45;estimation/build/human</text>
<text text-anchor="start" x="160" y="-254" font-family="Helvetica,sans-Serif" font-size="10.00">&#45;viz&#45;bridge/autogenerated</text>
<text text-anchor="start" x="160" y="-243" font-family="Helvetica,sans-Serif" font-size="10.00">/data/include/thrift/XsensSegments</text>
<text text-anchor="middle" x="237" y="-232" font-family="Helvetica,sans-Serif" font-size="10.00">Frame.h</text>
</g>
<!-- Node2 -->
<g id="node2" class="node"><title>Node2</title>
<polygon fill="none" stroke="#bfbfbf" points="0,-0.5 0,-19.5 80,-19.5 80,-0.5 0,-0.5"/>
<text text-anchor="middle" x="40" y="-7.5" font-family="Helvetica,sans-Serif" font-size="10.00">yarp/os/Wire.h</text>
</g>
<!-- Node1&#45;&gt;Node2 -->
<g id="edge1" class="edge"><title>Node1&#45;&gt;Node2</title>
<path fill="none" stroke="midnightblue" d="M151.937,-231.123C107.558,-210.655 57.3533,-178.644 32,-132 14.2212,-99.2915 24.8209,-54.0364 33.0771,-29.1742"/>
<polygon fill="midnightblue" stroke="midnightblue" points="36.4348,-30.1779 36.4889,-19.5832 29.8397,-27.8318 36.4348,-30.1779"/>
</g>
<!-- Node3 -->
<g id="node3" class="node"><title>Node3</title>
<polygon fill="none" stroke="#bfbfbf" points="156,-0.5 156,-19.5 276,-19.5 276,-0.5 156,-0.5"/>
<text text-anchor="middle" x="216" y="-7.5" font-family="Helvetica,sans-Serif" font-size="10.00">yarp/os/idl/WireTypes.h</text>
</g>
<!-- Node1&#45;&gt;Node3 -->
<g id="edge2" class="edge"><title>Node1&#45;&gt;Node3</title>
<path fill="none" stroke="midnightblue" d="M284.278,-224.815C333.418,-182.748 397.87,-111.944 357,-56 340.602,-33.5542 312.885,-22.0428 286.342,-16.2328"/>
<polygon fill="midnightblue" stroke="midnightblue" points="286.737,-12.7442 276.253,-14.2743 285.403,-19.6159 286.737,-12.7442"/>
</g>
<!-- Node4 -->
<g id="node4" class="node"><title>Node4</title>
<g id="a_node4"><a xlink:href="autogenerated_2data_2include_2thrift_2_xsens_segment_data_8h.html" target="_top" xlink:title="thrift/XsensSegmentData.h">
<polygon fill="none" stroke="black" points="110.5,-168.5 110.5,-187.5 245.5,-187.5 245.5,-168.5 110.5,-168.5"/>
<text text-anchor="middle" x="178" y="-175.5" font-family="Helvetica,sans-Serif" font-size="10.00">thrift/XsensSegmentData.h</text>
</a>
</g>
</g>
<!-- Node1&#45;&gt;Node4 -->
<g id="edge3" class="edge"><title>Node1&#45;&gt;Node4</title>
<path fill="none" stroke="midnightblue" d="M210.95,-224.795C203.696,-214.713 196.159,-204.238 190.128,-195.855"/>
<polygon fill="midnightblue" stroke="midnightblue" points="192.94,-193.771 184.258,-187.698 187.258,-197.859 192.94,-193.771"/>
</g>
<!-- Node7 -->
<g id="node7" class="node"><title>Node7</title>
<g id="a_node7"><a xlink:href="autogenerated_2data_2include_2thrift_2_xsens_status_8h.html" target="_top" xlink:title="thrift/XsensStatus.h">
<polygon fill="none" stroke="black" points="244,-56.5 244,-75.5 348,-75.5 348,-56.5 244,-56.5"/>
<text text-anchor="middle" x="296" y="-63.5" font-family="Helvetica,sans-Serif" font-size="10.00">thrift/XsensStatus.h</text>
</a>
</g>
</g>
<!-- Node1&#45;&gt;Node7 -->
<g id="edge13" class="edge"><title>Node1&#45;&gt;Node7</title>
<path fill="none" stroke="midnightblue" d="M247.959,-224.965C260.539,-183.6 280.684,-117.362 290.4,-85.4139"/>
<polygon fill="midnightblue" stroke="midnightblue" points="293.811,-86.2262 293.372,-75.6405 287.114,-84.1894 293.811,-86.2262"/>
</g>
<!-- Node4&#45;&gt;Node2 -->
<g id="edge4" class="edge"><title>Node4&#45;&gt;Node2</title>
<path fill="none" stroke="midnightblue" d="M110.48,-170.056C85.9563,-163.949 60.4912,-152.68 45,-132 22.6003,-102.097 28.889,-55.4052 34.8311,-29.6409"/>
<polygon fill="midnightblue" stroke="midnightblue" points="38.2864,-30.2536 37.3522,-19.7001 31.5012,-28.5328 38.2864,-30.2536"/>
</g>
<!-- Node4&#45;&gt;Node3 -->
<g id="edge5" class="edge"><title>Node4&#45;&gt;Node3</title>
<path fill="none" stroke="midnightblue" d="M180.043,-168.075C186.025,-141.945 203.59,-65.2106 211.747,-29.577"/>
<polygon fill="midnightblue" stroke="midnightblue" points="215.219,-30.097 214.039,-19.5681 208.395,-28.5349 215.219,-30.097"/>
</g>
<!-- Node5 -->
<g id="node5" class="node"><title>Node5</title>
<g id="a_node5"><a xlink:href="human-viz-bridge_2autogenerated_2data_2include_2thrift_2_quaternion_8h.html" target="_top" xlink:title="thrift/Quaternion.h">
<polygon fill="none" stroke="black" points="54.5,-112.5 54.5,-131.5 149.5,-131.5 149.5,-112.5 54.5,-112.5"/>
<text text-anchor="middle" x="102" y="-119.5" font-family="Helvetica,sans-Serif" font-size="10.00">thrift/Quaternion.h</text>
</a>
</g>
</g>
<!-- Node4&#45;&gt;Node5 -->
<g id="edge6" class="edge"><title>Node4&#45;&gt;Node5</title>
<path fill="none" stroke="midnightblue" d="M165.789,-168.324C154.224,-160.107 136.625,-147.602 122.839,-137.807"/>
<polygon fill="midnightblue" stroke="midnightblue" points="124.612,-134.773 114.433,-131.834 120.557,-140.479 124.612,-134.773"/>
</g>
<!-- Node6 -->
<g id="node6" class="node"><title>Node6</title>
<g id="a_node6"><a xlink:href="human-viz-bridge_2autogenerated_2data_2include_2thrift_2_vector3_8h.html" target="_top" xlink:title="thrift/Vector3.h">
<polygon fill="none" stroke="black" points="68.5,-56.5 68.5,-75.5 149.5,-75.5 149.5,-56.5 68.5,-56.5"/>
<text text-anchor="middle" x="109" y="-63.5" font-family="Helvetica,sans-Serif" font-size="10.00">thrift/Vector3.h</text>
</a>
</g>
</g>
<!-- Node4&#45;&gt;Node6 -->
<g id="edge12" class="edge"><title>Node4&#45;&gt;Node6</title>
<path fill="none" stroke="midnightblue" d="M176.829,-168.401C174.741,-155.357 169.473,-130.169 158,-112 150.655,-100.368 139.537,-89.8183 129.748,-81.8622"/>
<polygon fill="midnightblue" stroke="midnightblue" points="131.668,-78.9223 121.615,-75.576 127.387,-84.4608 131.668,-78.9223"/>
</g>
<!-- Node5&#45;&gt;Node2 -->
<g id="edge7" class="edge"><title>Node5&#45;&gt;Node2</title>
<path fill="none" stroke="midnightblue" d="M91.3,-112.448C81.5515,-104.116 67.4275,-90.5992 59,-76 50.6425,-61.5222 45.7075,-43.0749 42.9714,-29.534"/>
<polygon fill="midnightblue" stroke="midnightblue" points="46.3827,-28.7284 41.1634,-19.5084 39.4938,-29.9708 46.3827,-28.7284"/>
</g>
<!-- Node5&#45;&gt;Node3 -->
<g id="edge8" class="edge"><title>Node5&#45;&gt;Node3</title>
<path fill="none" stroke="midnightblue" d="M114.054,-112.231C125.728,-103.531 143.711,-89.57 158,-76 174.193,-60.622 191.002,-41.3595 202.329,-27.8094"/>
<polygon fill="midnightblue" stroke="midnightblue" points="205.251,-29.7677 208.919,-19.8282 199.853,-25.3106 205.251,-29.7677"/>
</g>
<!-- Node5&#45;&gt;Node6 -->
<g id="edge9" class="edge"><title>Node5&#45;&gt;Node6</title>
<path fill="none" stroke="midnightblue" d="M103.156,-112.083C104.084,-104.927 105.418,-94.6353 106.577,-85.6911"/>
<polygon fill="midnightblue" stroke="midnightblue" points="110.051,-86.1181 107.866,-75.7511 103.109,-85.2181 110.051,-86.1181"/>
</g>
<!-- Node6&#45;&gt;Node2 -->
<g id="edge10" class="edge"><title>Node6&#45;&gt;Node2</title>
<path fill="none" stroke="midnightblue" d="M97.914,-56.324C87.514,-48.1849 71.7394,-35.8395 59.2784,-26.0874"/>
<polygon fill="midnightblue" stroke="midnightblue" points="61.3199,-23.2407 51.2878,-19.8339 57.0057,-28.7533 61.3199,-23.2407"/>
</g>
<!-- Node6&#45;&gt;Node3 -->
<g id="edge11" class="edge"><title>Node6&#45;&gt;Node3</title>
<path fill="none" stroke="midnightblue" d="M126.191,-56.324C143.351,-47.6641 169.946,-34.2424 189.747,-24.249"/>
<polygon fill="midnightblue" stroke="midnightblue" points="191.501,-27.2847 198.851,-19.6545 188.347,-21.0354 191.501,-27.2847"/>
</g>
<!-- Node7&#45;&gt;Node2 -->
<g id="edge14" class="edge"><title>Node7&#45;&gt;Node2</title>
<path fill="none" stroke="midnightblue" d="M255.436,-56.4435C210.684,-47.0036 138.617,-31.802 90.3046,-21.6111"/>
<polygon fill="midnightblue" stroke="midnightblue" points="90.8813,-18.1558 80.3742,-19.5164 89.4365,-25.0051 90.8813,-18.1558"/>
</g>
<!-- Node7&#45;&gt;Node3 -->
<g id="edge15" class="edge"><title>Node7&#45;&gt;Node3</title>
<path fill="none" stroke="midnightblue" d="M283.147,-56.324C270.784,-47.979 251.87,-35.2122 237.263,-25.3524"/>
<polygon fill="midnightblue" stroke="midnightblue" points="239.068,-22.3483 228.821,-19.6545 235.152,-28.1503 239.068,-22.3483"/>
</g>
</g>
</svg>
