<?xml version="1.0" encoding="UTF-8" standalone="no"?>
<!DOCTYPE svg PUBLIC "-//W3C//DTD SVG 1.1//EN"
 "http://www.w3.org/Graphics/SVG/1.1/DTD/svg11.dtd">
<!-- Generated by graphviz version 2.36.0 (20140111.2315)
 -->
<!-- Title: /home/travis/build/robotology/human&#45;dynamics&#45;estimation/build/human&#45;dynamics&#45;estimator/autogenerated/include/thrifts/HumanDynamics.h Pages: 1 -->
<svg width="377pt" height="184pt"
 viewBox="0.00 0.00 377.15 184.00" xmlns="http://www.w3.org/2000/svg" xmlns:xlink="http://www.w3.org/1999/xlink">
<g id="graph0" class="graph" transform="scale(1 1) rotate(0) translate(4 180)">
<title>/home/travis/build/robotology/human&#45;dynamics&#45;estimation/build/human&#45;dynamics&#45;estimator/autogenerated/include/thrifts/HumanDynamics.h</title>
<!-- Node1 -->
<g id="node1" class="node"><title>Node1</title>
<polygon fill="#bfbfbf" stroke="black" points="100.087,-112.5 100.087,-175.5 270.087,-175.5 270.087,-112.5 100.087,-112.5"/>
<text text-anchor="start" x="108.087" y="-163.5" font-family="Helvetica,sans-Serif" font-size="10.00">/home/travis/build</text>
<text text-anchor="start" x="108.087" y="-152.5" font-family="Helvetica,sans-Serif" font-size="10.00">/robotology/human&#45;dynamics</text>
<text text-anchor="start" x="108.087" y="-141.5" font-family="Helvetica,sans-Serif" font-size="10.00">&#45;estimation/build/human</text>
<text text-anchor="start" x="108.087" y="-130.5" font-family="Helvetica,sans-Serif" font-size="10.00">&#45;dynamics&#45;estimator/autogenerated</text>
<text text-anchor="middle" x="185.087" y="-119.5" font-family="Helvetica,sans-Serif" font-size="10.00">/include/thrifts/HumanDynamics.h</text>
</g>
<!-- Node2 -->
<g id="node2" class="node"><title>Node2</title>
<polygon fill="none" stroke="#bfbfbf" points="31.0867,-0.5 31.0867,-19.5 111.087,-19.5 111.087,-0.5 31.0867,-0.5"/>
<text text-anchor="middle" x="71.0867" y="-7.5" font-family="Helvetica,sans-Serif" font-size="10.00">yarp/os/Wire.h</text>
</g>
<!-- Node1&#45;&gt;Node2 -->
<g id="edge1" class="edge"><title>Node1&#45;&gt;Node2</title>
<path fill="none" stroke="midnightblue" d="M99.9428,-132.963C64.1908,-124.065 25.9109,-107.35 4.08671,-76 -10.1365,-55.5687 16.8321,-36.2536 40.6804,-24.0713"/>
<polygon fill="midnightblue" stroke="midnightblue" points="42.4283,-27.1139 49.9088,-19.6111 39.3822,-20.8114 42.4283,-27.1139"/>
</g>
<!-- Node3 -->
<g id="node3" class="node"><title>Node3</title>
<polygon fill="none" stroke="#bfbfbf" points="239.087,-0.5 239.087,-19.5 359.087,-19.5 359.087,-0.5 239.087,-0.5"/>
<text text-anchor="middle" x="299.087" y="-7.5" font-family="Helvetica,sans-Serif" font-size="10.00">yarp/os/idl/WireTypes.h</text>
</g>
<!-- Node1&#45;&gt;Node3 -->
<g id="edge2" class="edge"><title>Node1&#45;&gt;Node3</title>
<path fill="none" stroke="midnightblue" d="M270.241,-132.723C305.663,-123.771 343.492,-107.08 365.087,-76 379.183,-55.7125 352.6,-36.3686 329.08,-24.1403"/>
<polygon fill="midnightblue" stroke="midnightblue" points="330.496,-20.9363 319.978,-19.6613 327.405,-27.217 330.496,-20.9363"/>
</g>
<!-- Node4 -->
<g id="node4" class="node"><title>Node4</title>
<g id="a_node4"><a xlink:href="autogenerated_2include_2thrifts_2_joint_dynamics_estimation_8h.html" target="_top" xlink:title="thrifts/JointDynamicsEstimation.h">
<polygon fill="none" stroke="black" points="13.0867,-56.5 13.0867,-75.5 177.087,-75.5 177.087,-56.5 13.0867,-56.5"/>
<text text-anchor="middle" x="95.0867" y="-63.5" font-family="Helvetica,sans-Serif" font-size="10.00">thrifts/JointDynamicsEstimation.h</text>
</a>
</g>
</g>
<!-- Node1&#45;&gt;Node4 -->
<g id="edge3" class="edge"><title>Node1&#45;&gt;Node4</title>
<path fill="none" stroke="midnightblue" d="M148.74,-112.307C136.543,-102.008 123.466,-90.9643 113.275,-82.359"/>
<polygon fill="midnightblue" stroke="midnightblue" points="115.375,-79.5516 105.477,-75.7738 110.859,-84.8998 115.375,-79.5516"/>
</g>
<!-- Node6 -->
<g id="node6" class="node"><title>Node6</title>
<g id="a_node6"><a xlink:href="autogenerated_2include_2thrifts_2_link_dynamics_estimation_8h.html" target="_top" xlink:title="thrifts/LinkDynamicsEstimation.h">
<polygon fill="none" stroke="black" points="195.587,-56.5 195.587,-75.5 356.587,-75.5 356.587,-56.5 195.587,-56.5"/>
<text text-anchor="middle" x="276.087" y="-63.5" font-family="Helvetica,sans-Serif" font-size="10.00">thrifts/LinkDynamicsEstimation.h</text>
</a>
</g>
</g>
<!-- Node1&#45;&gt;Node6 -->
<g id="edge7" class="edge"><title>Node1&#45;&gt;Node6</title>
<path fill="none" stroke="midnightblue" d="M221.838,-112.307C234.17,-102.008 247.393,-90.9643 257.696,-82.359"/>
<polygon fill="midnightblue" stroke="midnightblue" points="260.149,-84.8704 265.581,-75.7738 255.662,-79.4976 260.149,-84.8704"/>
</g>
<!-- Node4&#45;&gt;Node2 -->
<g id="edge4" class="edge"><title>Node4&#45;&gt;Node2</title>
<path fill="none" stroke="midnightblue" d="M91.1236,-56.083C87.8734,-48.77 83.1673,-38.1814 79.1327,-29.1034"/>
<polygon fill="midnightblue" stroke="midnightblue" points="82.2359,-27.4677 74.9761,-19.7511 75.8392,-30.3107 82.2359,-27.4677"/>
</g>
<!-- Node4&#45;&gt;Node3 -->
<g id="edge5" class="edge"><title>Node4&#45;&gt;Node3</title>
<path fill="none" stroke="midnightblue" d="M127.411,-56.4435C162.476,-47.1616 218.585,-32.3093 257.052,-22.127"/>
<polygon fill="midnightblue" stroke="midnightblue" points="258.142,-25.4589 266.914,-19.5164 256.351,-18.692 258.142,-25.4589"/>
</g>
<!-- Node5 -->
<g id="node5" class="node"><title>Node5</title>
<polygon fill="none" stroke="#bfbfbf" points="129.587,-0.5 129.587,-19.5 220.587,-19.5 220.587,-0.5 129.587,-0.5"/>
<text text-anchor="middle" x="175.087" y="-7.5" font-family="Helvetica,sans-Serif" font-size="10.00">yarp/sig/Vector.h</text>
</g>
<!-- Node4&#45;&gt;Node5 -->
<g id="edge6" class="edge"><title>Node4&#45;&gt;Node5</title>
<path fill="none" stroke="midnightblue" d="M107.94,-56.324C120.303,-47.979 139.217,-35.2122 153.824,-25.3524"/>
<polygon fill="midnightblue" stroke="midnightblue" points="155.935,-28.1503 162.265,-19.6545 152.019,-22.3483 155.935,-28.1503"/>
</g>
<!-- Node6&#45;&gt;Node2 -->
<g id="edge8" class="edge"><title>Node6&#45;&gt;Node2</title>
<path fill="none" stroke="midnightblue" d="M243.604,-56.4435C208.367,-47.1616 151.983,-32.3093 113.328,-22.127"/>
<polygon fill="midnightblue" stroke="midnightblue" points="113.979,-18.6792 103.418,-19.5164 112.196,-25.4483 113.979,-18.6792"/>
</g>
<!-- Node6&#45;&gt;Node3 -->
<g id="edge9" class="edge"><title>Node6&#45;&gt;Node3</title>
<path fill="none" stroke="midnightblue" d="M279.885,-56.083C282.999,-48.77 287.509,-38.1814 291.376,-29.1034"/>
<polygon fill="midnightblue" stroke="midnightblue" points="294.661,-30.3229 295.359,-19.7511 288.221,-27.5798 294.661,-30.3229"/>
</g>
<!-- Node6&#45;&gt;Node5 -->
<g id="edge10" class="edge"><title>Node6&#45;&gt;Node5</title>
<path fill="none" stroke="midnightblue" d="M259.859,-56.324C243.736,-47.7034 218.787,-34.3643 200.123,-24.3855"/>
<polygon fill="midnightblue" stroke="midnightblue" points="201.743,-21.283 191.274,-19.6545 198.442,-27.456 201.743,-21.283"/>
</g>
</g>
</svg>
