<?xml version="1.0" encoding="UTF-8" standalone="no"?>
<!DOCTYPE svg PUBLIC "-//W3C//DTD SVG 1.1//EN"
 "http://www.w3.org/Graphics/SVG/1.1/DTD/svg11.dtd">
<!-- Generated by graphviz version 2.36.0 (20140111.2315)
 -->
<!-- Title: /home/travis/build/robotology/human&#45;dynamics&#45;estimation/build/human&#45;dynamics&#45;estimator/autogenerated/include/thrifts/LinkDynamicsEstimation.h Pages: 1 -->
<svg width="903pt" height="386pt"
 viewBox="0.00 0.00 903.00 386.00" xmlns="http://www.w3.org/2000/svg" xmlns:xlink="http://www.w3.org/1999/xlink">
<g id="graph0" class="graph" transform="scale(1 1) rotate(0) translate(4 382)">
<title>/home/travis/build/robotology/human&#45;dynamics&#45;estimation/build/human&#45;dynamics&#45;estimator/autogenerated/include/thrifts/LinkDynamicsEstimation.h</title>
<!-- Node1 -->
<g id="node1" class="node"><title>Node1</title>
<polygon fill="#bfbfbf" stroke="black" points="223,-314.5 223,-377.5 421,-377.5 421,-314.5 223,-314.5"/>
<text text-anchor="start" x="231" y="-365.5" font-family="Helvetica,sans-Serif" font-size="10.00">/home/travis/build</text>
<text text-anchor="start" x="231" y="-354.5" font-family="Helvetica,sans-Serif" font-size="10.00">/robotology/human&#45;dynamics</text>
<text text-anchor="start" x="231" y="-343.5" font-family="Helvetica,sans-Serif" font-size="10.00">&#45;estimation/build/human</text>
<text text-anchor="start" x="231" y="-332.5" font-family="Helvetica,sans-Serif" font-size="10.00">&#45;dynamics&#45;estimator/autogenerated</text>
<text text-anchor="middle" x="322" y="-321.5" font-family="Helvetica,sans-Serif" font-size="10.00">/include/thrifts/LinkDynamicsEstimation.h</text>
</g>
<!-- Node2 -->
<g id="node2" class="node"><title>Node2</title>
<g id="a_node2"><a xlink:href="__yarp__idl___2thrifts_2humandynamics_2_human_dynamics_8h.html" target="_top" xlink:title="/home/travis/build\l/robotology/human&#45;dynamics\l&#45;estimation/build/human\l&#45;dynamics&#45;estimator/_yarp\l_idl_/thrifts/humandynamics\l/HumanDynamics.h">
<polygon fill="none" stroke="black" points="0,-203 0,-277 142,-277 142,-203 0,-203"/>
<text text-anchor="start" x="8" y="-265" font-family="Helvetica,sans-Serif" font-size="10.00">/home/travis/build</text>
<text text-anchor="start" x="8" y="-254" font-family="Helvetica,sans-Serif" font-size="10.00">/robotology/human&#45;dynamics</text>
<text text-anchor="start" x="8" y="-243" font-family="Helvetica,sans-Serif" font-size="10.00">&#45;estimation/build/human</text>
<text text-anchor="start" x="8" y="-232" font-family="Helvetica,sans-Serif" font-size="10.00">&#45;dynamics&#45;estimator/_yarp</text>
<text text-anchor="start" x="8" y="-221" font-family="Helvetica,sans-Serif" font-size="10.00">_idl_/thrifts/humandynamics</text>
<text text-anchor="middle" x="71" y="-210" font-family="Helvetica,sans-Serif" font-size="10.00">/HumanDynamics.h</text>
</a>
</g>
</g>
<!-- Node1&#45;&gt;Node2 -->
<g id="edge1" class="edge"><title>Node1&#45;&gt;Node2</title>
<path fill="none" stroke="midnightblue" d="M231.616,-310.749C205.475,-300.53 176.988,-289.089 151,-278 148.044,-276.739 145.035,-275.436 142.001,-274.106"/>
<polygon fill="midnightblue" stroke="midnightblue" points="230.543,-314.088 241.132,-314.456 233.084,-307.565 230.543,-314.088"/>
</g>
<!-- Node4 -->
<g id="node4" class="node"><title>Node4</title>
<g id="a_node4"><a xlink:href="__yarp__idl___2thrifts_2humandynamics_2_link_dynamics_estimation_8cpp.html" target="_top" xlink:title="/home/travis/build\l/robotology/human&#45;dynamics\l&#45;estimation/build/human\l&#45;dynamics&#45;estimator/_yarp\l_idl_/thrifts/humandynamics\l/LinkDynamicsEstimation.cpp">
<polygon fill="none" stroke="black" points="160.5,-203 160.5,-277 307.5,-277 307.5,-203 160.5,-203"/>
<text text-anchor="start" x="168.5" y="-265" font-family="Helvetica,sans-Serif" font-size="10.00">/home/travis/build</text>
<text text-anchor="start" x="168.5" y="-254" font-family="Helvetica,sans-Serif" font-size="10.00">/robotology/human&#45;dynamics</text>
<text text-anchor="start" x="168.5" y="-243" font-family="Helvetica,sans-Serif" font-size="10.00">&#45;estimation/build/human</text>
<text text-anchor="start" x="168.5" y="-232" font-family="Helvetica,sans-Serif" font-size="10.00">&#45;dynamics&#45;estimator/_yarp</text>
<text text-anchor="start" x="168.5" y="-221" font-family="Helvetica,sans-Serif" font-size="10.00">_idl_/thrifts/humandynamics</text>
<text text-anchor="middle" x="234" y="-210" font-family="Helvetica,sans-Serif" font-size="10.00">/LinkDynamicsEstimation.cpp</text>
</a>
</g>
</g>
<!-- Node1&#45;&gt;Node4 -->
<g id="edge3" class="edge"><title>Node1&#45;&gt;Node4</title>
<path fill="none" stroke="midnightblue" d="M289.435,-306.515C281.347,-296.956 272.705,-286.742 264.709,-277.292"/>
<polygon fill="midnightblue" stroke="midnightblue" points="286.942,-308.986 296.073,-314.359 292.285,-304.464 286.942,-308.986"/>
</g>
<!-- Node5 -->
<g id="node5" class="node"><title>Node5</title>
<g id="a_node5"><a xlink:href="autogenerated_2include_2thrifts_2_human_dynamics_8h.html" target="_top" xlink:title="/home/travis/build\l/robotology/human&#45;dynamics\l&#45;estimation/build/human\l&#45;dynamics&#45;estimator/autogenerated\l/include/thrifts/HumanDynamics.h">
<polygon fill="none" stroke="black" points="326,-208.5 326,-271.5 496,-271.5 496,-208.5 326,-208.5"/>
<text text-anchor="start" x="334" y="-259.5" font-family="Helvetica,sans-Serif" font-size="10.00">/home/travis/build</text>
<text text-anchor="start" x="334" y="-248.5" font-family="Helvetica,sans-Serif" font-size="10.00">/robotology/human&#45;dynamics</text>
<text text-anchor="start" x="334" y="-237.5" font-family="Helvetica,sans-Serif" font-size="10.00">&#45;estimation/build/human</text>
<text text-anchor="start" x="334" y="-226.5" font-family="Helvetica,sans-Serif" font-size="10.00">&#45;dynamics&#45;estimator/autogenerated</text>
<text text-anchor="middle" x="411" y="-215.5" font-family="Helvetica,sans-Serif" font-size="10.00">/include/thrifts/HumanDynamics.h</text>
</a>
</g>
</g>
<!-- Node1&#45;&gt;Node5 -->
<g id="edge4" class="edge"><title>Node1&#45;&gt;Node5</title>
<path fill="none" stroke="midnightblue" d="M354.864,-306.597C364.683,-295.123 375.315,-282.699 384.658,-271.781"/>
<polygon fill="midnightblue" stroke="midnightblue" points="352.064,-304.486 348.222,-314.359 357.383,-309.037 352.064,-304.486"/>
</g>
<!-- Node12 -->
<g id="node12" class="node"><title>Node12</title>
<g id="a_node12"><a xlink:href="autogenerated_2src_2_link_dynamics_estimation_8cpp.html" target="_top" xlink:title="/home/travis/build\l/robotology/human&#45;dynamics\l&#45;estimation/build/human\l&#45;dynamics&#45;estimator/autogenerated\l/src/LinkDynamicsEstimation.cpp">
<polygon fill="none" stroke="black" points="514,-208.5 514,-271.5 684,-271.5 684,-208.5 514,-208.5"/>
<text text-anchor="start" x="522" y="-259.5" font-family="Helvetica,sans-Serif" font-size="10.00">/home/travis/build</text>
<text text-anchor="start" x="522" y="-248.5" font-family="Helvetica,sans-Serif" font-size="10.00">/robotology/human&#45;dynamics</text>
<text text-anchor="start" x="522" y="-237.5" font-family="Helvetica,sans-Serif" font-size="10.00">&#45;estimation/build/human</text>
<text text-anchor="start" x="522" y="-226.5" font-family="Helvetica,sans-Serif" font-size="10.00">&#45;dynamics&#45;estimator/autogenerated</text>
<text text-anchor="middle" x="599" y="-215.5" font-family="Helvetica,sans-Serif" font-size="10.00">/src/LinkDynamicsEstimation.cpp</text>
</a>
</g>
</g>
<!-- Node1&#45;&gt;Node12 -->
<g id="edge11" class="edge"><title>Node1&#45;&gt;Node12</title>
<path fill="none" stroke="midnightblue" d="M416.442,-310.914C444.953,-300.492 476.299,-288.901 505,-278 510.492,-275.914 516.157,-273.74 521.855,-271.538"/>
<polygon fill="midnightblue" stroke="midnightblue" points="415.083,-307.684 406.889,-314.401 417.483,-314.26 415.083,-307.684"/>
</g>
<!-- Node3 -->
<g id="node3" class="node"><title>Node3</title>
<g id="a_node3"><a xlink:href="_human_dynamics__index_8h.html" target="_top" xlink:title="/home/travis/build\l/robotology/human&#45;dynamics\l&#45;estimation/build/human\l&#45;dynamics&#45;estimator/_yarp\l_idl_/thrifts/humandynamics\l/HumanDynamics_index.h">
<polygon fill="none" stroke="black" points="0,-91 0,-165 142,-165 142,-91 0,-91"/>
<text text-anchor="start" x="8" y="-153" font-family="Helvetica,sans-Serif" font-size="10.00">/home/travis/build</text>
<text text-anchor="start" x="8" y="-142" font-family="Helvetica,sans-Serif" font-size="10.00">/robotology/human&#45;dynamics</text>
<text text-anchor="start" x="8" y="-131" font-family="Helvetica,sans-Serif" font-size="10.00">&#45;estimation/build/human</text>
<text text-anchor="start" x="8" y="-120" font-family="Helvetica,sans-Serif" font-size="10.00">&#45;dynamics&#45;estimator/_yarp</text>
<text text-anchor="start" x="8" y="-109" font-family="Helvetica,sans-Serif" font-size="10.00">_idl_/thrifts/humandynamics</text>
<text text-anchor="middle" x="71" y="-98" font-family="Helvetica,sans-Serif" font-size="10.00">/HumanDynamics_index.h</text>
</a>
</g>
</g>
<!-- Node2&#45;&gt;Node3 -->
<g id="edge2" class="edge"><title>Node2&#45;&gt;Node3</title>
<path fill="none" stroke="midnightblue" d="M71,-192.752C71,-183.513 71,-173.935 71,-165.099"/>
<polygon fill="midnightblue" stroke="midnightblue" points="67.5001,-192.982 71,-202.982 74.5001,-192.982 67.5001,-192.982"/>
</g>
<!-- Node6 -->
<g id="node6" class="node"><title>Node6</title>
<g id="a_node6"><a xlink:href="__yarp__idl___2thrifts_2humandynamics_2_human_dynamics_8cpp.html" target="_top" xlink:title="/home/travis/build\l/robotology/human&#45;dynamics\l&#45;estimation/build/human\l&#45;dynamics&#45;estimator/_yarp\l_idl_/thrifts/humandynamics\l/HumanDynamics.cpp">
<polygon fill="none" stroke="black" points="163,-91 163,-165 305,-165 305,-91 163,-91"/>
<text text-anchor="start" x="171" y="-153" font-family="Helvetica,sans-Serif" font-size="10.00">/home/travis/build</text>
<text text-anchor="start" x="171" y="-142" font-family="Helvetica,sans-Serif" font-size="10.00">/robotology/human&#45;dynamics</text>
<text text-anchor="start" x="171" y="-131" font-family="Helvetica,sans-Serif" font-size="10.00">&#45;estimation/build/human</text>
<text text-anchor="start" x="171" y="-120" font-family="Helvetica,sans-Serif" font-size="10.00">&#45;dynamics&#45;estimator/_yarp</text>
<text text-anchor="start" x="171" y="-109" font-family="Helvetica,sans-Serif" font-size="10.00">_idl_/thrifts/humandynamics</text>
<text text-anchor="middle" x="234" y="-98" font-family="Helvetica,sans-Serif" font-size="10.00">/HumanDynamics.cpp</text>
</a>
</g>
</g>
<!-- Node5&#45;&gt;Node6 -->
<g id="edge5" class="edge"><title>Node5&#45;&gt;Node6</title>
<path fill="none" stroke="midnightblue" d="M353.169,-203.06C333.592,-190.894 311.731,-177.307 292.131,-165.126"/>
<polygon fill="midnightblue" stroke="midnightblue" points="351.355,-206.053 361.696,-208.359 355.05,-200.108 351.355,-206.053"/>
</g>
<!-- Node7 -->
<g id="node7" class="node"><title>Node7</title>
<g id="a_node7"><a xlink:href="autogenerated_2src_2_human_dynamics_8cpp.html" target="_top" xlink:title="/home/travis/build\l/robotology/human&#45;dynamics\l&#45;estimation/build/human\l&#45;dynamics&#45;estimator/autogenerated\l/src/HumanDynamics.cpp">
<polygon fill="none" stroke="black" points="323,-96.5 323,-159.5 493,-159.5 493,-96.5 323,-96.5"/>
<text text-anchor="start" x="331" y="-147.5" font-family="Helvetica,sans-Serif" font-size="10.00">/home/travis/build</text>
<text text-anchor="start" x="331" y="-136.5" font-family="Helvetica,sans-Serif" font-size="10.00">/robotology/human&#45;dynamics</text>
<text text-anchor="start" x="331" y="-125.5" font-family="Helvetica,sans-Serif" font-size="10.00">&#45;estimation/build/human</text>
<text text-anchor="start" x="331" y="-114.5" font-family="Helvetica,sans-Serif" font-size="10.00">&#45;dynamics&#45;estimator/autogenerated</text>
<text text-anchor="middle" x="408" y="-103.5" font-family="Helvetica,sans-Serif" font-size="10.00">/src/HumanDynamics.cpp</text>
</a>
</g>
</g>
<!-- Node5&#45;&gt;Node7 -->
<g id="edge6" class="edge"><title>Node5&#45;&gt;Node7</title>
<path fill="none" stroke="midnightblue" d="M409.883,-198.052C409.538,-185.408 409.165,-171.701 408.842,-159.858"/>
<polygon fill="midnightblue" stroke="midnightblue" points="406.393,-198.458 410.164,-208.359 413.39,-198.267 406.393,-198.458"/>
</g>
<!-- Node8 -->
<g id="node8" class="node"><title>Node8</title>
<g id="a_node8"><a xlink:href="_human_dynamics_estimator_8h.html" target="_top" xlink:title="/home/travis/build\l/robotology/human&#45;dynamics\l&#45;estimation/human&#45;dynamics\l&#45;estimator/include/HumanDynamicsEstimator.h">
<polygon fill="none" stroke="black" points="511.5,-102 511.5,-154 734.5,-154 734.5,-102 511.5,-102"/>
<text text-anchor="start" x="519.5" y="-142" font-family="Helvetica,sans-Serif" font-size="10.00">/home/travis/build</text>
<text text-anchor="start" x="519.5" y="-131" font-family="Helvetica,sans-Serif" font-size="10.00">/robotology/human&#45;dynamics</text>
<text text-anchor="start" x="519.5" y="-120" font-family="Helvetica,sans-Serif" font-size="10.00">&#45;estimation/human&#45;dynamics</text>
<text text-anchor="middle" x="623" y="-109" font-family="Helvetica,sans-Serif" font-size="10.00">&#45;estimator/include/HumanDynamicsEstimator.h</text>
</a>
</g>
</g>
<!-- Node5&#45;&gt;Node8 -->
<g id="edge7" class="edge"><title>Node5&#45;&gt;Node8</title>
<path fill="none" stroke="midnightblue" d="M479.108,-203.661C510.22,-187.518 546.347,-168.773 574.618,-154.104"/>
<polygon fill="midnightblue" stroke="midnightblue" points="477.318,-200.646 470.054,-208.359 480.542,-206.86 477.318,-200.646"/>
</g>
<!-- Node11 -->
<g id="node11" class="node"><title>Node11</title>
<g id="a_node11"><a xlink:href="_human_effort_bridge_8cpp.html" target="_top" xlink:title="/home/travis/build\l/robotology/human&#45;dynamics\l&#45;estimation/human&#45;viz&#45;bridge\l/src/HumanEffortBridge.cpp">
<polygon fill="none" stroke="black" points="753,-102 753,-154 895,-154 895,-102 753,-102"/>
<text text-anchor="start" x="761" y="-142" font-family="Helvetica,sans-Serif" font-size="10.00">/home/travis/build</text>
<text text-anchor="start" x="761" y="-131" font-family="Helvetica,sans-Serif" font-size="10.00">/robotology/human&#45;dynamics</text>
<text text-anchor="start" x="761" y="-120" font-family="Helvetica,sans-Serif" font-size="10.00">&#45;estimation/human&#45;viz&#45;bridge</text>
<text text-anchor="middle" x="824" y="-109" font-family="Helvetica,sans-Serif" font-size="10.00">/src/HumanEffortBridge.cpp</text>
</a>
</g>
</g>
<!-- Node5&#45;&gt;Node11 -->
<g id="edge10" class="edge"><title>Node5&#45;&gt;Node11</title>
<path fill="none" stroke="midnightblue" d="M493.478,-205.351C497.349,-204.146 501.202,-203.021 505,-202 608.315,-174.233 640.465,-196.52 743,-166 753.521,-162.869 764.436,-158.628 774.718,-154.134"/>
<polygon fill="midnightblue" stroke="midnightblue" points="492.267,-202.064 483.845,-208.492 494.437,-208.72 492.267,-202.064"/>
</g>
<!-- Node9 -->
<g id="node9" class="node"><title>Node9</title>
<g id="a_node9"><a xlink:href="_human_dynamics_estimator_8cpp.html" target="_top" xlink:title="/home/travis/build\l/robotology/human&#45;dynamics\l&#45;estimation/human&#45;dynamics\l&#45;estimator/src/HumanDynamicsEstimator.cpp">
<polygon fill="none" stroke="black" points="416,-1 416,-53 632,-53 632,-1 416,-1"/>
<text text-anchor="start" x="424" y="-41" font-family="Helvetica,sans-Serif" font-size="10.00">/home/travis/build</text>
<text text-anchor="start" x="424" y="-30" font-family="Helvetica,sans-Serif" font-size="10.00">/robotology/human&#45;dynamics</text>
<text text-anchor="start" x="424" y="-19" font-family="Helvetica,sans-Serif" font-size="10.00">&#45;estimation/human&#45;dynamics</text>
<text text-anchor="middle" x="524" y="-8" font-family="Helvetica,sans-Serif" font-size="10.00">&#45;estimator/src/HumanDynamicsEstimator.cpp</text>
</a>
</g>
</g>
<!-- Node8&#45;&gt;Node9 -->
<g id="edge8" class="edge"><title>Node8&#45;&gt;Node9</title>
<path fill="none" stroke="midnightblue" d="M590.525,-94.5246C577.091,-81.091 561.753,-65.7526 549.192,-53.192"/>
<polygon fill="midnightblue" stroke="midnightblue" points="588.216,-97.1658 597.762,-101.762 593.166,-92.216 588.216,-97.1658"/>
</g>
<!-- Node10 -->
<g id="node10" class="node"><title>Node10</title>
<g id="a_node10"><a xlink:href="human-dynamics-estimator_2src_2main_8cpp.html" target="_top" xlink:title="/home/travis/build\l/robotology/human&#45;dynamics\l&#45;estimation/human&#45;dynamics\l&#45;estimator/src/main.cpp">
<polygon fill="none" stroke="black" points="650,-1 650,-53 792,-53 792,-1 650,-1"/>
<text text-anchor="start" x="658" y="-41" font-family="Helvetica,sans-Serif" font-size="10.00">/home/travis/build</text>
<text text-anchor="start" x="658" y="-30" font-family="Helvetica,sans-Serif" font-size="10.00">/robotology/human&#45;dynamics</text>
<text text-anchor="start" x="658" y="-19" font-family="Helvetica,sans-Serif" font-size="10.00">&#45;estimation/human&#45;dynamics</text>
<text text-anchor="middle" x="721" y="-8" font-family="Helvetica,sans-Serif" font-size="10.00">&#45;estimator/src/main.cpp</text>
</a>
</g>
</g>
<!-- Node8&#45;&gt;Node10 -->
<g id="edge9" class="edge"><title>Node8&#45;&gt;Node10</title>
<path fill="none" stroke="midnightblue" d="M655.147,-94.5246C668.445,-81.091 683.629,-65.7526 696.063,-53.192"/>
<polygon fill="midnightblue" stroke="midnightblue" points="652.531,-92.1928 647.983,-101.762 657.506,-97.1174 652.531,-92.1928"/>
</g>
</g>
</svg>
