<?xml version="1.0" encoding="UTF-8" standalone="no"?>
<!DOCTYPE svg PUBLIC "-//W3C//DTD SVG 1.1//EN"
 "http://www.w3.org/Graphics/SVG/1.1/DTD/svg11.dtd">
<!-- Generated by graphviz version 2.36.0 (20140111.2315)
 -->
<!-- Title: /home/travis/build/robotology/human&#45;dynamics&#45;estimation/build/human&#45;state&#45;provider/autogenerated/include/thrifts/HumanStateProviderService.h Pages: 1 -->
<svg width="728pt" height="284pt"
 viewBox="0.00 0.00 728.00 284.00" xmlns="http://www.w3.org/2000/svg" xmlns:xlink="http://www.w3.org/1999/xlink">
<g id="graph0" class="graph" transform="scale(1 1) rotate(0) translate(4 280)">
<title>/home/travis/build/robotology/human&#45;dynamics&#45;estimation/build/human&#45;state&#45;provider/autogenerated/include/thrifts/HumanStateProviderService.h</title>
<!-- Node1 -->
<g id="node1" class="node"><title>Node1</title>
<polygon fill="#bfbfbf" stroke="black" points="262.5,-212.5 262.5,-275.5 475.5,-275.5 475.5,-212.5 262.5,-212.5"/>
<text text-anchor="start" x="270.5" y="-263.5" font-family="Helvetica,sans-Serif" font-size="10.00">/home/travis/build</text>
<text text-anchor="start" x="270.5" y="-252.5" font-family="Helvetica,sans-Serif" font-size="10.00">/robotology/human&#45;dynamics</text>
<text text-anchor="start" x="270.5" y="-241.5" font-family="Helvetica,sans-Serif" font-size="10.00">&#45;estimation/build/human</text>
<text text-anchor="start" x="270.5" y="-230.5" font-family="Helvetica,sans-Serif" font-size="10.00">&#45;state&#45;provider/autogenerated</text>
<text text-anchor="middle" x="369" y="-219.5" font-family="Helvetica,sans-Serif" font-size="10.00">/include/thrifts/HumanStateProviderService.h</text>
</g>
<!-- Node2 -->
<g id="node2" class="node"><title>Node2</title>
<g id="a_node2"><a xlink:href="__yarp__idl___2thrifts_2humanstateproviderservice_2_human_state_provider_service_8cpp.html" target="_top" xlink:title="/home/travis/build\l/robotology/human&#45;dynamics\l&#45;estimation/build/human\l&#45;state&#45;provider/_yarp_idl\l_/thrifts/humanstateproviderservice\l/HumanStateProviderService.cpp">
<polygon fill="none" stroke="black" points="0,-101 0,-175 170,-175 170,-101 0,-101"/>
<text text-anchor="start" x="8" y="-163" font-family="Helvetica,sans-Serif" font-size="10.00">/home/travis/build</text>
<text text-anchor="start" x="8" y="-152" font-family="Helvetica,sans-Serif" font-size="10.00">/robotology/human&#45;dynamics</text>
<text text-anchor="start" x="8" y="-141" font-family="Helvetica,sans-Serif" font-size="10.00">&#45;estimation/build/human</text>
<text text-anchor="start" x="8" y="-130" font-family="Helvetica,sans-Serif" font-size="10.00">&#45;state&#45;provider/_yarp_idl</text>
<text text-anchor="start" x="8" y="-119" font-family="Helvetica,sans-Serif" font-size="10.00">_/thrifts/humanstateproviderservice</text>
<text text-anchor="middle" x="85" y="-108" font-family="Helvetica,sans-Serif" font-size="10.00">/HumanStateProviderService.cpp</text>
</a>
</g>
</g>
<!-- Node1&#45;&gt;Node2 -->
<g id="edge1" class="edge"><title>Node1&#45;&gt;Node2</title>
<path fill="none" stroke="midnightblue" d="M270.814,-209.133C241.225,-198.724 208.719,-187.085 179,-176 176.042,-174.897 173.036,-173.766 170.002,-172.616"/>
<polygon fill="midnightblue" stroke="midnightblue" points="269.717,-212.457 280.311,-212.468 272.036,-205.853 269.717,-212.457"/>
</g>
<!-- Node3 -->
<g id="node3" class="node"><title>Node3</title>
<g id="a_node3"><a xlink:href="autogenerated_2src_2_human_state_provider_service_8cpp.html" target="_top" xlink:title="/home/travis/build\l/robotology/human&#45;dynamics\l&#45;estimation/build/human\l&#45;state&#45;provider/autogenerated\l/src/HumanStateProviderService.cpp">
<polygon fill="none" stroke="black" points="188.5,-106.5 188.5,-169.5 367.5,-169.5 367.5,-106.5 188.5,-106.5"/>
<text text-anchor="start" x="196.5" y="-157.5" font-family="Helvetica,sans-Serif" font-size="10.00">/home/travis/build</text>
<text text-anchor="start" x="196.5" y="-146.5" font-family="Helvetica,sans-Serif" font-size="10.00">/robotology/human&#45;dynamics</text>
<text text-anchor="start" x="196.5" y="-135.5" font-family="Helvetica,sans-Serif" font-size="10.00">&#45;estimation/build/human</text>
<text text-anchor="start" x="196.5" y="-124.5" font-family="Helvetica,sans-Serif" font-size="10.00">&#45;state&#45;provider/autogenerated</text>
<text text-anchor="middle" x="278" y="-113.5" font-family="Helvetica,sans-Serif" font-size="10.00">/src/HumanStateProviderService.cpp</text>
</a>
</g>
</g>
<!-- Node1&#45;&gt;Node3 -->
<g id="edge2" class="edge"><title>Node1&#45;&gt;Node3</title>
<path fill="none" stroke="midnightblue" d="M335.398,-204.597C325.358,-193.123 314.487,-180.699 304.934,-169.781"/>
<polygon fill="midnightblue" stroke="midnightblue" points="332.97,-207.138 342.189,-212.359 338.238,-202.529 332.97,-207.138"/>
</g>
<!-- Node4 -->
<g id="node4" class="node"><title>Node4</title>
<g id="a_node4"><a xlink:href="_human_state_provider_private_8h.html" target="_top" xlink:title="/home/travis/build\l/robotology/human&#45;dynamics\l&#45;estimation/human&#45;state\l&#45;provider/include/private\l/HumanStateProviderPrivate.h">
<polygon fill="none" stroke="black" points="385.5,-106.5 385.5,-169.5 534.5,-169.5 534.5,-106.5 385.5,-106.5"/>
<text text-anchor="start" x="393.5" y="-157.5" font-family="Helvetica,sans-Serif" font-size="10.00">/home/travis/build</text>
<text text-anchor="start" x="393.5" y="-146.5" font-family="Helvetica,sans-Serif" font-size="10.00">/robotology/human&#45;dynamics</text>
<text text-anchor="start" x="393.5" y="-135.5" font-family="Helvetica,sans-Serif" font-size="10.00">&#45;estimation/human&#45;state</text>
<text text-anchor="start" x="393.5" y="-124.5" font-family="Helvetica,sans-Serif" font-size="10.00">&#45;provider/include/private</text>
<text text-anchor="middle" x="460" y="-113.5" font-family="Helvetica,sans-Serif" font-size="10.00">/HumanStateProviderPrivate.h</text>
</a>
</g>
</g>
<!-- Node1&#45;&gt;Node4 -->
<g id="edge3" class="edge"><title>Node1&#45;&gt;Node4</title>
<path fill="none" stroke="midnightblue" d="M402.602,-204.597C412.642,-193.123 423.513,-180.699 433.066,-169.781"/>
<polygon fill="midnightblue" stroke="midnightblue" points="399.762,-202.529 395.811,-212.359 405.03,-207.138 399.762,-202.529"/>
</g>
<!-- Node6 -->
<g id="node6" class="node"><title>Node6</title>
<g id="a_node6"><a xlink:href="_human_state_provider_8cpp.html" target="_top" xlink:title="/home/travis/build\l/robotology/human&#45;dynamics\l&#45;estimation/human&#45;state\l&#45;provider/src/HumanStateProvider.cpp">
<polygon fill="none" stroke="black" points="537.5,-6 537.5,-58 720.5,-58 720.5,-6 537.5,-6"/>
<text text-anchor="start" x="545.5" y="-46" font-family="Helvetica,sans-Serif" font-size="10.00">/home/travis/build</text>
<text text-anchor="start" x="545.5" y="-35" font-family="Helvetica,sans-Serif" font-size="10.00">/robotology/human&#45;dynamics</text>
<text text-anchor="start" x="545.5" y="-24" font-family="Helvetica,sans-Serif" font-size="10.00">&#45;estimation/human&#45;state</text>
<text text-anchor="middle" x="629" y="-13" font-family="Helvetica,sans-Serif" font-size="10.00">&#45;provider/src/HumanStateProvider.cpp</text>
</a>
</g>
</g>
<!-- Node1&#45;&gt;Node6 -->
<g id="edge7" class="edge"><title>Node1&#45;&gt;Node6</title>
<path fill="none" stroke="midnightblue" d="M485.35,-210.601C505.92,-201.541 526.124,-190.17 543,-176 581.383,-143.772 607.163,-89.797 619.846,-58.1852"/>
<polygon fill="midnightblue" stroke="midnightblue" points="483.732,-207.485 475.884,-214.602 486.458,-213.932 483.732,-207.485"/>
</g>
<!-- Node5 -->
<g id="node5" class="node"><title>Node5</title>
<g id="a_node5"><a xlink:href="_human_i_k_worker_pool_8cpp.html" target="_top" xlink:title="/home/travis/build\l/robotology/human&#45;dynamics\l&#45;estimation/human&#45;state\l&#45;provider/src/HumanIKWorkerPool.cpp">
<polygon fill="none" stroke="black" points="151.5,-6 151.5,-58 336.5,-58 336.5,-6 151.5,-6"/>
<text text-anchor="start" x="159.5" y="-46" font-family="Helvetica,sans-Serif" font-size="10.00">/home/travis/build</text>
<text text-anchor="start" x="159.5" y="-35" font-family="Helvetica,sans-Serif" font-size="10.00">/robotology/human&#45;dynamics</text>
<text text-anchor="start" x="159.5" y="-24" font-family="Helvetica,sans-Serif" font-size="10.00">&#45;estimation/human&#45;state</text>
<text text-anchor="middle" x="244" y="-13" font-family="Helvetica,sans-Serif" font-size="10.00">&#45;provider/src/HumanIKWorkerPool.cpp</text>
</a>
</g>
</g>
<!-- Node4&#45;&gt;Node5 -->
<g id="edge4" class="edge"><title>Node4&#45;&gt;Node5</title>
<path fill="none" stroke="midnightblue" d="M387.499,-102.092C357.543,-87.6689 323.487,-71.2716 296.072,-58.0717"/>
<polygon fill="midnightblue" stroke="midnightblue" points="386.124,-105.315 396.652,-106.499 389.161,-99.0076 386.124,-105.315"/>
</g>
<!-- Node4&#45;&gt;Node6 -->
<g id="edge5" class="edge"><title>Node4&#45;&gt;Node6</title>
<path fill="none" stroke="midnightblue" d="M518.468,-101.02C541.516,-86.8364 567.427,-70.8911 588.366,-58.0057"/>
<polygon fill="midnightblue" stroke="midnightblue" points="516.474,-98.1372 509.792,-106.359 520.142,-104.099 516.474,-98.1372"/>
</g>
<!-- Node7 -->
<g id="node7" class="node"><title>Node7</title>
<g id="a_node7"><a xlink:href="_human_state_provider_private_8cpp.html" target="_top" xlink:title="/home/travis/build\l/robotology/human&#45;dynamics\l&#45;estimation/human&#45;state\l&#45;provider/src/HumanStateProvider\lPrivate.cpp">
<polygon fill="none" stroke="black" points="355,-0.5 355,-63.5 519,-63.5 519,-0.5 355,-0.5"/>
<text text-anchor="start" x="363" y="-51.5" font-family="Helvetica,sans-Serif" font-size="10.00">/home/travis/build</text>
<text text-anchor="start" x="363" y="-40.5" font-family="Helvetica,sans-Serif" font-size="10.00">/robotology/human&#45;dynamics</text>
<text text-anchor="start" x="363" y="-29.5" font-family="Helvetica,sans-Serif" font-size="10.00">&#45;estimation/human&#45;state</text>
<text text-anchor="start" x="363" y="-18.5" font-family="Helvetica,sans-Serif" font-size="10.00">&#45;provider/src/HumanStateProvider</text>
<text text-anchor="middle" x="437" y="-7.5" font-family="Helvetica,sans-Serif" font-size="10.00">Private.cpp</text>
</a>
</g>
</g>
<!-- Node4&#45;&gt;Node7 -->
<g id="edge6" class="edge"><title>Node4&#45;&gt;Node7</title>
<path fill="none" stroke="midnightblue" d="M450.992,-96.2683C448.601,-85.4576 446.059,-73.9643 443.807,-63.7813"/>
<polygon fill="midnightblue" stroke="midnightblue" points="447.647,-97.3508 453.224,-106.359 454.482,-95.8392 447.647,-97.3508"/>
</g>
</g>
</svg>
