<?xml version="1.0" encoding="UTF-8" standalone="no"?>
<!DOCTYPE svg PUBLIC "-//W3C//DTD SVG 1.1//EN"
 "http://www.w3.org/Graphics/SVG/1.1/DTD/svg11.dtd">
<!-- Generated by graphviz version 2.36.0 (20140111.2315)
 -->
<!-- Title: /home/travis/build/robotology/human&#45;dynamics&#45;estimation/build/human&#45;viz&#45;bridge/autogenerated/data/include/thrift/XsensSegmentData.h Pages: 1 -->
<svg width="245pt" height="240pt"
 viewBox="0.00 0.00 245.00 240.00" xmlns="http://www.w3.org/2000/svg" xmlns:xlink="http://www.w3.org/1999/xlink">
<g id="graph0" class="graph" transform="scale(1 1) rotate(0) translate(4 236)">
<title>/home/travis/build/robotology/human&#45;dynamics&#45;estimation/build/human&#45;viz&#45;bridge/autogenerated/data/include/thrift/XsensSegmentData.h</title>
<!-- Node1 -->
<g id="node1" class="node"><title>Node1</title>
<polygon fill="#bfbfbf" stroke="black" points="0,-168.5 0,-231.5 194,-231.5 194,-168.5 0,-168.5"/>
<text text-anchor="start" x="8" y="-219.5" font-family="Helvetica,sans-Serif" font-size="10.00">/home/travis/build</text>
<text text-anchor="start" x="8" y="-208.5" font-family="Helvetica,sans-Serif" font-size="10.00">/robotology/human&#45;dynamics</text>
<text text-anchor="start" x="8" y="-197.5" font-family="Helvetica,sans-Serif" font-size="10.00">&#45;estimation/build/human</text>
<text text-anchor="start" x="8" y="-186.5" font-family="Helvetica,sans-Serif" font-size="10.00">&#45;viz&#45;bridge/autogenerated</text>
<text text-anchor="middle" x="97" y="-175.5" font-family="Helvetica,sans-Serif" font-size="10.00">/data/include/thrift/XsensSegmentData.h</text>
</g>
<!-- Node2 -->
<g id="node2" class="node"><title>Node2</title>
<polygon fill="none" stroke="#bfbfbf" points="20,-0.5 20,-19.5 100,-19.5 100,-0.5 20,-0.5"/>
<text text-anchor="middle" x="60" y="-7.5" font-family="Helvetica,sans-Serif" font-size="10.00">yarp/os/Wire.h</text>
</g>
<!-- Node1&#45;&gt;Node2 -->
<g id="edge1" class="edge"><title>Node1&#45;&gt;Node2</title>
<path fill="none" stroke="midnightblue" d="M69.3188,-168.24C50.205,-144.82 26.4231,-110.779 16,-76 13.4482,-67.4853 12.6446,-64.2312 16,-56 20.8,-44.2251 30.3286,-33.8564 39.2948,-26.0486"/>
<polygon fill="midnightblue" stroke="midnightblue" points="41.6504,-28.6448 47.2191,-19.6314 37.245,-23.2048 41.6504,-28.6448"/>
</g>
<!-- Node3 -->
<g id="node3" class="node"><title>Node3</title>
<polygon fill="none" stroke="#bfbfbf" points="118,-0.5 118,-19.5 238,-19.5 238,-0.5 118,-0.5"/>
<text text-anchor="middle" x="178" y="-7.5" font-family="Helvetica,sans-Serif" font-size="10.00">yarp/os/idl/WireTypes.h</text>
</g>
<!-- Node1&#45;&gt;Node3 -->
<g id="edge2" class="edge"><title>Node1&#45;&gt;Node3</title>
<path fill="none" stroke="midnightblue" d="M157.813,-168.465C171.124,-158.732 183.473,-146.608 191,-132 208.112,-98.7886 195.381,-53.7253 185.87,-29.0299"/>
<polygon fill="midnightblue" stroke="midnightblue" points="188.999,-27.4338 181.967,-19.509 182.522,-30.0892 188.999,-27.4338"/>
</g>
<!-- Node4 -->
<g id="node4" class="node"><title>Node4</title>
<g id="a_node4"><a xlink:href="human-viz-bridge_2autogenerated_2data_2include_2thrift_2_quaternion_8h.html" target="_top" xlink:title="thrift/Quaternion.h">
<polygon fill="none" stroke="black" points="87.5,-112.5 87.5,-131.5 182.5,-131.5 182.5,-112.5 87.5,-112.5"/>
<text text-anchor="middle" x="135" y="-119.5" font-family="Helvetica,sans-Serif" font-size="10.00">thrift/Quaternion.h</text>
</a>
</g>
</g>
<!-- Node1&#45;&gt;Node4 -->
<g id="edge3" class="edge"><title>Node1&#45;&gt;Node4</title>
<path fill="none" stroke="midnightblue" d="M112.456,-168.088C117.079,-158.841 121.993,-149.014 126.049,-140.903"/>
<polygon fill="midnightblue" stroke="midnightblue" points="129.299,-142.228 130.641,-131.718 123.038,-139.097 129.299,-142.228"/>
</g>
<!-- Node5 -->
<g id="node5" class="node"><title>Node5</title>
<g id="a_node5"><a xlink:href="human-viz-bridge_2autogenerated_2data_2include_2thrift_2_vector3_8h.html" target="_top" xlink:title="thrift/Vector3.h">
<polygon fill="none" stroke="black" points="25.5,-56.5 25.5,-75.5 106.5,-75.5 106.5,-56.5 25.5,-56.5"/>
<text text-anchor="middle" x="66" y="-63.5" font-family="Helvetica,sans-Serif" font-size="10.00">thrift/Vector3.h</text>
</a>
</g>
</g>
<!-- Node1&#45;&gt;Node5 -->
<g id="edge9" class="edge"><title>Node1&#45;&gt;Node5</title>
<path fill="none" stroke="midnightblue" d="M87.6903,-168.471C84.3909,-157.085 80.8048,-144.009 78,-132 74.4069,-116.616 71.2079,-98.9795 69.0183,-85.9629"/>
<polygon fill="midnightblue" stroke="midnightblue" points="72.4383,-85.1894 67.3694,-75.8859 65.5302,-86.3199 72.4383,-85.1894"/>
</g>
<!-- Node4&#45;&gt;Node2 -->
<g id="edge4" class="edge"><title>Node4&#45;&gt;Node2</title>
<path fill="none" stroke="midnightblue" d="M133.958,-112.317C132.039,-99.1635 126.987,-73.8343 115,-56 106.746,-43.7191 94.1532,-33.0682 83.0995,-25.2155"/>
<polygon fill="midnightblue" stroke="midnightblue" points="84.9256,-22.2256 74.6768,-19.5401 81.014,-28.0307 84.9256,-22.2256"/>
</g>
<!-- Node4&#45;&gt;Node3 -->
<g id="edge5" class="edge"><title>Node4&#45;&gt;Node3</title>
<path fill="none" stroke="midnightblue" d="M138.374,-112.368C145.376,-94.4563 161.612,-52.9233 170.984,-28.9482"/>
<polygon fill="midnightblue" stroke="midnightblue" points="174.26,-30.1794 174.642,-19.5914 167.741,-27.6308 174.26,-30.1794"/>
</g>
<!-- Node4&#45;&gt;Node5 -->
<g id="edge6" class="edge"><title>Node4&#45;&gt;Node5</title>
<path fill="none" stroke="midnightblue" d="M123.914,-112.324C113.514,-104.185 97.7394,-91.8395 85.2784,-82.0874"/>
<polygon fill="midnightblue" stroke="midnightblue" points="87.3199,-79.2407 77.2878,-75.8339 83.0057,-84.7533 87.3199,-79.2407"/>
</g>
<!-- Node5&#45;&gt;Node2 -->
<g id="edge7" class="edge"><title>Node5&#45;&gt;Node2</title>
<path fill="none" stroke="midnightblue" d="M65.0092,-56.083C64.2141,-48.9272 63.0706,-38.6353 62.0768,-29.6911"/>
<polygon fill="midnightblue" stroke="midnightblue" points="65.5553,-29.3034 60.9723,-19.7511 58.5982,-30.0765 65.5553,-29.3034"/>
</g>
<!-- Node5&#45;&gt;Node3 -->
<g id="edge8" class="edge"><title>Node5&#45;&gt;Node3</title>
<path fill="none" stroke="midnightblue" d="M83.9947,-56.324C102.038,-47.6247 130.047,-34.1202 150.803,-24.113"/>
<polygon fill="midnightblue" stroke="midnightblue" points="152.562,-27.1502 160.05,-19.6545 149.522,-20.8449 152.562,-27.1502"/>
</g>
</g>
</svg>
