<?xml version="1.0" encoding="UTF-8" standalone="no"?>
<!DOCTYPE svg PUBLIC "-//W3C//DTD SVG 1.1//EN"
 "http://www.w3.org/Graphics/SVG/1.1/DTD/svg11.dtd">
<!-- Generated by graphviz version 2.36.0 (20140111.2315)
 -->
<!-- Title: /home/travis/build/robotology/human&#45;dynamics&#45;estimation/build/human&#45;viz&#45;bridge/autogenerated/services/include/thrift/XsensDriverService.h Pages: 1 -->
<svg width="252pt" height="196pt"
 viewBox="0.00 0.00 252.00 196.00" xmlns="http://www.w3.org/2000/svg" xmlns:xlink="http://www.w3.org/1999/xlink">
<g id="graph0" class="graph" transform="scale(1 1) rotate(0) translate(4 192)">
<title>/home/travis/build/robotology/human&#45;dynamics&#45;estimation/build/human&#45;viz&#45;bridge/autogenerated/services/include/thrift/XsensDriverService.h</title>
<!-- Node1 -->
<g id="node1" class="node"><title>Node1</title>
<polygon fill="#bfbfbf" stroke="black" points="28,-113 28,-187 198,-187 198,-113 28,-113"/>
<text text-anchor="start" x="36" y="-175" font-family="Helvetica,sans-Serif" font-size="10.00">/home/travis/build</text>
<text text-anchor="start" x="36" y="-164" font-family="Helvetica,sans-Serif" font-size="10.00">/robotology/human&#45;dynamics</text>
<text text-anchor="start" x="36" y="-153" font-family="Helvetica,sans-Serif" font-size="10.00">&#45;estimation/build/human</text>
<text text-anchor="start" x="36" y="-142" font-family="Helvetica,sans-Serif" font-size="10.00">&#45;viz&#45;bridge/autogenerated</text>
<text text-anchor="start" x="36" y="-131" font-family="Helvetica,sans-Serif" font-size="10.00">/services/include/thrift/XsensDriver</text>
<text text-anchor="middle" x="113" y="-120" font-family="Helvetica,sans-Serif" font-size="10.00">Service.h</text>
</g>
<!-- Node2 -->
<g id="node2" class="node"><title>Node2</title>
<polygon fill="none" stroke="#bfbfbf" points="0,-0.5 0,-19.5 80,-19.5 80,-0.5 0,-0.5"/>
<text text-anchor="middle" x="40" y="-7.5" font-family="Helvetica,sans-Serif" font-size="10.00">yarp/os/Wire.h</text>
</g>
<!-- Node1&#45;&gt;Node2 -->
<g id="edge1" class="edge"><title>Node1&#45;&gt;Node2</title>
<path fill="none" stroke="midnightblue" d="M71.1868,-112.692C61.3036,-101.906 51.9263,-89.3672 46,-76 39.6055,-61.5767 38.3915,-43.6175 38.6146,-30.2338"/>
<polygon fill="midnightblue" stroke="midnightblue" points="42.1286,-30.0028 39.0864,-19.8541 35.1358,-29.6848 42.1286,-30.0028"/>
</g>
<!-- Node3 -->
<g id="node3" class="node"><title>Node3</title>
<polygon fill="none" stroke="#bfbfbf" points="125,-0.5 125,-19.5 245,-19.5 245,-0.5 125,-0.5"/>
<text text-anchor="middle" x="185" y="-7.5" font-family="Helvetica,sans-Serif" font-size="10.00">yarp/os/idl/WireTypes.h</text>
</g>
<!-- Node1&#45;&gt;Node3 -->
<g id="edge2" class="edge"><title>Node1&#45;&gt;Node3</title>
<path fill="none" stroke="midnightblue" d="M153.847,-112.98C163.709,-102.108 173.095,-89.4548 179,-76 185.34,-61.5529 186.559,-43.5958 186.352,-30.219"/>
<polygon fill="midnightblue" stroke="midnightblue" points="189.832,-29.6824 185.895,-19.846 182.838,-29.9903 189.832,-29.6824"/>
</g>
<!-- Node4 -->
<g id="node4" class="node"><title>Node4</title>
<g id="a_node4"><a xlink:href="autogenerated_2services_2include_2thrift_2_frame_referece_8h.html" target="_top" xlink:title="thrift/FrameReferece.h">
<polygon fill="none" stroke="black" points="55.5,-56.5 55.5,-75.5 170.5,-75.5 170.5,-56.5 55.5,-56.5"/>
<text text-anchor="middle" x="113" y="-63.5" font-family="Helvetica,sans-Serif" font-size="10.00">thrift/FrameReferece.h</text>
</a>
</g>
</g>
<!-- Node1&#45;&gt;Node4 -->
<g id="edge3" class="edge"><title>Node1&#45;&gt;Node4</title>
<path fill="none" stroke="midnightblue" d="M113,-112.795C113,-103.463 113,-93.7959 113,-85.7618"/>
<polygon fill="midnightblue" stroke="midnightblue" points="116.5,-85.6978 113,-75.6978 109.5,-85.6978 116.5,-85.6978"/>
</g>
<!-- Node4&#45;&gt;Node2 -->
<g id="edge4" class="edge"><title>Node4&#45;&gt;Node2</title>
<path fill="none" stroke="midnightblue" d="M101.271,-56.324C90.1626,-48.1066 73.2578,-35.6017 60.0167,-25.8069"/>
<polygon fill="midnightblue" stroke="midnightblue" points="62.0631,-22.9671 51.9421,-19.8339 57.9001,-28.5948 62.0631,-22.9671"/>
</g>
<!-- Node4&#45;&gt;Node3 -->
<g id="edge5" class="edge"><title>Node4&#45;&gt;Node3</title>
<path fill="none" stroke="midnightblue" d="M124.568,-56.324C135.42,-48.1849 151.881,-35.8395 164.883,-26.0874"/>
<polygon fill="midnightblue" stroke="midnightblue" points="167.321,-28.6339 173.221,-19.8339 163.121,-23.0339 167.321,-28.6339"/>
</g>
</g>
</svg>
