<?xml version="1.0" encoding="UTF-8" standalone="no"?>
<!DOCTYPE svg PUBLIC "-//W3C//DTD SVG 1.1//EN"
 "http://www.w3.org/Graphics/SVG/1.1/DTD/svg11.dtd">
<!-- Generated by graphviz version 2.36.0 (20140111.2315)
 -->
<!-- Title: RobotBasePosePublisher Pages: 1 -->
<svg width="1506pt" height="272pt"
 viewBox="0.00 0.00 1506.00 272.00" xmlns="http://www.w3.org/2000/svg" xmlns:xlink="http://www.w3.org/1999/xlink">
<g id="graph0" class="graph" transform="scale(1 1) rotate(0) translate(4 268)">
<title>RobotBasePosePublisher</title>
<!-- Node1 -->
<g id="node1" class="node"><title>Node1</title>
<polygon fill="#bfbfbf" stroke="black" points="563.5,-0.5 563.5,-123.5 706.5,-123.5 706.5,-0.5 563.5,-0.5"/>
<text text-anchor="middle" x="635" y="-111.5" font-family="Helvetica,sans-Serif" font-size="10.00">RobotBasePosePublisher</text>
<polyline fill="none" stroke="black" points="563.5,-104.5 706.5,-104.5 "/>
<text text-anchor="middle" x="635" y="-92.5" font-family="Helvetica,sans-Serif" font-size="10.00"> </text>
<polyline fill="none" stroke="black" points="563.5,-85.5 706.5,-85.5 "/>
<text text-anchor="start" x="571.5" y="-73.5" font-family="Helvetica,sans-Serif" font-size="10.00">+ RobotBasePosePublisher()</text>
<text text-anchor="start" x="571.5" y="-62.5" font-family="Helvetica,sans-Serif" font-size="10.00">+ getPeriod()</text>
<text text-anchor="start" x="571.5" y="-51.5" font-family="Helvetica,sans-Serif" font-size="10.00">+ updateModule()</text>
<text text-anchor="start" x="571.5" y="-40.5" font-family="Helvetica,sans-Serif" font-size="10.00">+ configure()</text>
<text text-anchor="start" x="571.5" y="-29.5" font-family="Helvetica,sans-Serif" font-size="10.00">+ close()</text>
<text text-anchor="start" x="571.5" y="-18.5" font-family="Helvetica,sans-Serif" font-size="10.00">+ setRobotPose()</text>
<text text-anchor="start" x="571.5" y="-7.5" font-family="Helvetica,sans-Serif" font-size="10.00">+ respond()</text>
</g>
<!-- Node2 -->
<g id="node2" class="node"><title>Node2</title>
<g id="a_node2"><a xlink:href="classyarp_1_1os_1_1_r_f_module.html" target="_top" xlink:title="{RFModule\n||}">
<polygon fill="none" stroke="black" points="0,-200.5 0,-257.5 62,-257.5 62,-200.5 0,-200.5"/>
<text text-anchor="middle" x="31" y="-245.5" font-family="Helvetica,sans-Serif" font-size="10.00">RFModule</text>
<polyline fill="none" stroke="black" points="0,-238.5 62,-238.5 "/>
<text text-anchor="middle" x="31" y="-226.5" font-family="Helvetica,sans-Serif" font-size="10.00"> </text>
<polyline fill="none" stroke="black" points="0,-219.5 62,-219.5 "/>
<text text-anchor="middle" x="31" y="-207.5" font-family="Helvetica,sans-Serif" font-size="10.00"> </text>
</a>
</g>
</g>
<!-- Node2&#45;&gt;Node1 -->
<g id="edge1" class="edge"><title>Node2&#45;&gt;Node1</title>
<path fill="none" stroke="midnightblue" d="M63.9661,-193.354C83.437,-175.067 109.591,-153.989 137,-142 279.361,-79.7334 463.719,-65.834 563.397,-63.1646"/>
<polygon fill="none" stroke="midnightblue" points="61.3583,-191.006 56.5782,-200.462 66.2113,-196.051 61.3583,-191.006"/>
</g>
<!-- Node3 -->
<g id="node3" class="node"><title>Node3</title>
<polygon fill="none" stroke="#bfbfbf" points="80.5,-200.5 80.5,-257.5 125.5,-257.5 125.5,-200.5 80.5,-200.5"/>
<text text-anchor="middle" x="103" y="-245.5" font-family="Helvetica,sans-Serif" font-size="10.00">double</text>
<polyline fill="none" stroke="#bfbfbf" points="80.5,-238.5 125.5,-238.5 "/>
<text text-anchor="middle" x="103" y="-226.5" font-family="Helvetica,sans-Serif" font-size="10.00"> </text>
<polyline fill="none" stroke="#bfbfbf" points="80.5,-219.5 125.5,-219.5 "/>
<text text-anchor="middle" x="103" y="-207.5" font-family="Helvetica,sans-Serif" font-size="10.00"> </text>
</g>
<!-- Node3&#45;&gt;Node1 -->
<g id="edge2" class="edge"><title>Node3&#45;&gt;Node1</title>
<path fill="none" stroke="#404040" d="M120.094,-200.233C133.615,-180.747 154.297,-155.795 179,-142 241.437,-107.133 437.533,-82.5573 551.213,-70.8201"/>
<polygon fill="none" stroke="#404040" points="551.362,-70.8049 556.926,-66.2172 563.301,-69.5883 557.737,-74.176 551.362,-70.8049"/>
<text text-anchor="middle" x="195.5" y="-156.5" font-family="Helvetica,sans-Serif" font-size="10.00"> &#45;period</text>
</g>
<!-- Node4 -->
<g id="node4" class="node"><title>Node4</title>
<polygon fill="none" stroke="#bfbfbf" points="144,-200.5 144,-257.5 206,-257.5 206,-200.5 144,-200.5"/>
<text text-anchor="middle" x="175" y="-245.5" font-family="Helvetica,sans-Serif" font-size="10.00">PolyDriver</text>
<polyline fill="none" stroke="#bfbfbf" points="144,-238.5 206,-238.5 "/>
<text text-anchor="middle" x="175" y="-226.5" font-family="Helvetica,sans-Serif" font-size="10.00"> </text>
<polyline fill="none" stroke="#bfbfbf" points="144,-219.5 206,-219.5 "/>
<text text-anchor="middle" x="175" y="-207.5" font-family="Helvetica,sans-Serif" font-size="10.00"> </text>
</g>
<!-- Node4&#45;&gt;Node1 -->
<g id="edge3" class="edge"><title>Node4&#45;&gt;Node1</title>
<path fill="none" stroke="#404040" d="M193.457,-200.485C207.919,-181.123 229.775,-156.218 255,-142 347.685,-89.7594 470.595,-71.9077 551.187,-65.8974"/>
<polygon fill="none" stroke="#404040" points="551.283,-65.8908 556.993,-61.4861 563.255,-65.0623 557.545,-69.467 551.283,-65.8908"/>
<text text-anchor="middle" x="282.5" y="-156.5" font-family="Helvetica,sans-Serif" font-size="10.00"> &#45;robotDriver</text>
</g>
<!-- Node5 -->
<g id="node5" class="node"><title>Node5</title>
<polygon fill="none" stroke="#bfbfbf" points="224,-200.5 224,-257.5 334,-257.5 334,-200.5 224,-200.5"/>
<text text-anchor="middle" x="279" y="-245.5" font-family="Helvetica,sans-Serif" font-size="10.00">KinDynComputations</text>
<polyline fill="none" stroke="#bfbfbf" points="224,-238.5 334,-238.5 "/>
<text text-anchor="middle" x="279" y="-226.5" font-family="Helvetica,sans-Serif" font-size="10.00"> </text>
<polyline fill="none" stroke="#bfbfbf" points="224,-219.5 334,-219.5 "/>
<text text-anchor="middle" x="279" y="-207.5" font-family="Helvetica,sans-Serif" font-size="10.00"> </text>
</g>
<!-- Node5&#45;&gt;Node1 -->
<g id="edge4" class="edge"><title>Node5&#45;&gt;Node1</title>
<path fill="none" stroke="#404040" d="M295.193,-200.107C307.615,-181.076 326.435,-156.738 349,-142 410.028,-102.142 490.97,-82.2104 551.166,-72.354"/>
<polygon fill="none" stroke="#404040" points="551.443,-72.3108 556.753,-67.432 563.299,-70.4571 557.988,-75.3359 551.443,-72.3108"/>
<text text-anchor="middle" x="398" y="-156.5" font-family="Helvetica,sans-Serif" font-size="10.00"> &#45;kinDynComputations</text>
</g>
<!-- Node6 -->
<g id="node6" class="node"><title>Node6</title>
<g id="a_node6"><a xlink:href="classyarp_1_1os_1_1_publisher.html" target="_top" xlink:title="{yarp::os::Publisher\l\&lt; tf2_msgs_TFMessage \&gt;\n||}">
<polygon fill="none" stroke="black" points="352,-195 352,-263 484,-263 484,-195 352,-195"/>
<text text-anchor="start" x="360" y="-251" font-family="Helvetica,sans-Serif" font-size="10.00">yarp::os::Publisher</text>
<text text-anchor="middle" x="418" y="-240" font-family="Helvetica,sans-Serif" font-size="10.00">&lt; tf2_msgs_TFMessage &gt;</text>
<polyline fill="none" stroke="black" points="352,-233 484,-233 "/>
<text text-anchor="middle" x="418" y="-221" font-family="Helvetica,sans-Serif" font-size="10.00"> </text>
<polyline fill="none" stroke="black" points="352,-214 484,-214 "/>
<text text-anchor="middle" x="418" y="-202" font-family="Helvetica,sans-Serif" font-size="10.00"> </text>
</a>
</g>
</g>
<!-- Node6&#45;&gt;Node1 -->
<g id="edge5" class="edge"><title>Node6&#45;&gt;Node1</title>
<path fill="none" stroke="#404040" d="M436.215,-194.804C446.957,-177.458 461.806,-156.818 479,-142 500.535,-123.441 527.188,-107.889 552.334,-95.6278"/>
<polygon fill="none" stroke="#404040" points="552.531,-95.5349 556.243,-89.3526 563.377,-90.4014 559.665,-96.5836 552.531,-95.5349"/>
<text text-anchor="middle" x="505.5" y="-156.5" font-family="Helvetica,sans-Serif" font-size="10.00"> &#45;tfPublisher</text>
</g>
<!-- Node7 -->
<g id="node7" class="node"><title>Node7</title>
<polygon fill="none" stroke="#bfbfbf" points="502,-200.5 502,-257.5 546,-257.5 546,-200.5 502,-200.5"/>
<text text-anchor="middle" x="524" y="-245.5" font-family="Helvetica,sans-Serif" font-size="10.00">Mutex</text>
<polyline fill="none" stroke="#bfbfbf" points="502,-238.5 546,-238.5 "/>
<text text-anchor="middle" x="524" y="-226.5" font-family="Helvetica,sans-Serif" font-size="10.00"> </text>
<polyline fill="none" stroke="#bfbfbf" points="502,-219.5 546,-219.5 "/>
<text text-anchor="middle" x="524" y="-207.5" font-family="Helvetica,sans-Serif" font-size="10.00"> </text>
</g>
<!-- Node7&#45;&gt;Node1 -->
<g id="edge6" class="edge"><title>Node7&#45;&gt;Node1</title>
<path fill="none" stroke="#404040" d="M528.465,-200.498C532.233,-182.805 538.854,-159.866 550,-142 551.849,-139.035 553.838,-136.11 555.94,-133.232"/>
<polygon fill="none" stroke="#404040" points="556.061,-133.077 556.623,-125.888 563.476,-123.641 562.914,-130.83 556.061,-133.077"/>
<text text-anchor="middle" x="567" y="-156.5" font-family="Helvetica,sans-Serif" font-size="10.00"> &#45;mutex</text>
</g>
<!-- Node8 -->
<g id="node8" class="node"><title>Node8</title>
<polygon fill="none" stroke="#bfbfbf" points="564,-200.5 564,-257.5 632,-257.5 632,-200.5 564,-200.5"/>
<text text-anchor="middle" x="598" y="-245.5" font-family="Helvetica,sans-Serif" font-size="10.00">IEncoders *</text>
<polyline fill="none" stroke="#bfbfbf" points="564,-238.5 632,-238.5 "/>
<text text-anchor="middle" x="598" y="-226.5" font-family="Helvetica,sans-Serif" font-size="10.00"> </text>
<polyline fill="none" stroke="#bfbfbf" points="564,-219.5 632,-219.5 "/>
<text text-anchor="middle" x="598" y="-207.5" font-family="Helvetica,sans-Serif" font-size="10.00"> </text>
</g>
<!-- Node8&#45;&gt;Node1 -->
<g id="edge7" class="edge"><title>Node8&#45;&gt;Node1</title>
<path fill="none" stroke="#404040" d="M590.621,-200.482C587.218,-183.401 584.933,-161.134 590,-142 590.606,-139.711 591.296,-137.42 592.057,-135.133"/>
<polygon fill="none" stroke="#404040" points="592.113,-134.988 590.523,-127.954 596.405,-123.781 597.994,-130.815 592.113,-134.988"/>
<text text-anchor="middle" x="625" y="-156.5" font-family="Helvetica,sans-Serif" font-size="10.00"> &#45;robotEncoders</text>
</g>
<!-- Node9 -->
<g id="node9" class="node"><title>Node9</title>
<g id="a_node9"><a xlink:href="classyarp_1_1os_1_1_buffered_port.html" target="_top" xlink:title="{yarp::os::BufferedPort\l\&lt; HumanState \&gt;\n||}">
<polygon fill="none" stroke="black" points="650.5,-195 650.5,-263 763.5,-263 763.5,-195 650.5,-195"/>
<text text-anchor="start" x="658.5" y="-251" font-family="Helvetica,sans-Serif" font-size="10.00">yarp::os::BufferedPort</text>
<text text-anchor="middle" x="707" y="-240" font-family="Helvetica,sans-Serif" font-size="10.00">&lt; HumanState &gt;</text>
<polyline fill="none" stroke="black" points="650.5,-233 763.5,-233 "/>
<text text-anchor="middle" x="707" y="-221" font-family="Helvetica,sans-Serif" font-size="10.00"> </text>
<polyline fill="none" stroke="black" points="650.5,-214 763.5,-214 "/>
<text text-anchor="middle" x="707" y="-202" font-family="Helvetica,sans-Serif" font-size="10.00"> </text>
</a>
</g>
</g>
<!-- Node9&#45;&gt;Node1 -->
<g id="edge8" class="edge"><title>Node9&#45;&gt;Node1</title>
<path fill="none" stroke="#404040" d="M691.484,-194.781C688.628,-188.555 685.698,-182.091 683,-176 677.132,-162.754 670.996,-148.577 665.148,-134.896"/>
<polygon fill="none" stroke="#404040" points="665.019,-134.592 658.988,-130.639 660.316,-123.552 666.348,-127.504 665.019,-134.592"/>
<text text-anchor="middle" x="732" y="-156.5" font-family="Helvetica,sans-Serif" font-size="10.00"> &#45;humanStateDataPort</text>
</g>
<!-- Node10 -->
<g id="node10" class="node"><title>Node10</title>
<polygon fill="none" stroke="#bfbfbf" points="781.5,-200.5 781.5,-257.5 842.5,-257.5 842.5,-200.5 781.5,-200.5"/>
<text text-anchor="middle" x="812" y="-245.5" font-family="Helvetica,sans-Serif" font-size="10.00">Transform</text>
<polyline fill="none" stroke="#bfbfbf" points="781.5,-238.5 842.5,-238.5 "/>
<text text-anchor="middle" x="812" y="-226.5" font-family="Helvetica,sans-Serif" font-size="10.00"> </text>
<polyline fill="none" stroke="#bfbfbf" points="781.5,-219.5 842.5,-219.5 "/>
<text text-anchor="middle" x="812" y="-207.5" font-family="Helvetica,sans-Serif" font-size="10.00"> </text>
</g>
<!-- Node10&#45;&gt;Node1 -->
<g id="edge9" class="edge"><title>Node10&#45;&gt;Node1</title>
<path fill="none" stroke="#404040" d="M807.324,-200.213C803.061,-181.954 795.179,-158.484 781,-142 763.964,-122.195 740.688,-106.511 717.726,-94.5124"/>
<polygon fill="none" stroke="#404040" points="717.602,-94.4502 710.446,-95.3471 706.867,-89.0873 714.022,-88.1904 717.602,-94.4502"/>
<text text-anchor="start" x="800" y="-167.5" font-family="Helvetica,sans-Serif" font-size="10.00"> &#45;humanFrame_H_robotKinematic</text>
<text text-anchor="middle" x="873.5" y="-156.5" font-family="Helvetica,sans-Serif" font-size="10.00">Frame</text>
<text text-anchor="middle" x="873.5" y="-145.5" font-family="Helvetica,sans-Serif" font-size="10.00">&#45;ground_H_humanFrame</text>
</g>
<!-- Node11 -->
<g id="node11" class="node"><title>Node11</title>
<polygon fill="none" stroke="#bfbfbf" points="939,-200.5 939,-257.5 1007,-257.5 1007,-200.5 939,-200.5"/>
<text text-anchor="middle" x="973" y="-245.5" font-family="Helvetica,sans-Serif" font-size="10.00">FrameIndex</text>
<polyline fill="none" stroke="#bfbfbf" points="939,-238.5 1007,-238.5 "/>
<text text-anchor="middle" x="973" y="-226.5" font-family="Helvetica,sans-Serif" font-size="10.00"> </text>
<polyline fill="none" stroke="#bfbfbf" points="939,-219.5 1007,-219.5 "/>
<text text-anchor="middle" x="973" y="-207.5" font-family="Helvetica,sans-Serif" font-size="10.00"> </text>
</g>
<!-- Node11&#45;&gt;Node1 -->
<g id="edge10" class="edge"><title>Node11&#45;&gt;Node1</title>
<path fill="none" stroke="#404040" d="M972.965,-200.401C971.443,-181.509 966.298,-157.215 951,-142 918.597,-109.774 801.149,-86.7498 718.959,-74.154"/>
<polygon fill="none" stroke="#404040" points="718.717,-74.1176 712.189,-77.1814 706.85,-72.3341 713.378,-69.2702 718.717,-74.1176"/>
<text text-anchor="middle" x="1031" y="-162" font-family="Helvetica,sans-Serif" font-size="10.00"> &#45;robotKinematicFrameIndex</text>
<text text-anchor="middle" x="1031" y="-151" font-family="Helvetica,sans-Serif" font-size="10.00">&#45;robotBaseLinkIndex</text>
</g>
<!-- Node12 -->
<g id="node12" class="node"><title>Node12</title>
<polygon fill="none" stroke="#bfbfbf" points="1102.5,-200.5 1102.5,-257.5 1137.5,-257.5 1137.5,-200.5 1102.5,-200.5"/>
<text text-anchor="middle" x="1120" y="-245.5" font-family="Helvetica,sans-Serif" font-size="10.00">bool</text>
<polyline fill="none" stroke="#bfbfbf" points="1102.5,-238.5 1137.5,-238.5 "/>
<text text-anchor="middle" x="1120" y="-226.5" font-family="Helvetica,sans-Serif" font-size="10.00"> </text>
<polyline fill="none" stroke="#bfbfbf" points="1102.5,-219.5 1137.5,-219.5 "/>
<text text-anchor="middle" x="1120" y="-207.5" font-family="Helvetica,sans-Serif" font-size="10.00"> </text>
</g>
<!-- Node12&#45;&gt;Node1 -->
<g id="edge11" class="edge"><title>Node12&#45;&gt;Node1</title>
<path fill="none" stroke="#404040" d="M1119.99,-200.418C1118.44,-181.282 1113.1,-156.685 1097,-142 1042.92,-92.6818 836.732,-73.6666 718.899,-66.719"/>
<polygon fill="none" stroke="#404040" points="718.712,-66.7084 712.494,-70.3607 706.732,-66.0259 712.949,-62.3736 718.712,-66.7084"/>
<text text-anchor="middle" x="1161" y="-156.5" font-family="Helvetica,sans-Serif" font-size="10.00"> &#45;updateHumanPose</text>
</g>
<!-- Node13 -->
<g id="node13" class="node"><title>Node13</title>
<polygon fill="none" stroke="#bfbfbf" points="1214.5,-200.5 1214.5,-257.5 1249.5,-257.5 1249.5,-200.5 1214.5,-200.5"/>
<text text-anchor="middle" x="1232" y="-245.5" font-family="Helvetica,sans-Serif" font-size="10.00">Port</text>
<polyline fill="none" stroke="#bfbfbf" points="1214.5,-238.5 1249.5,-238.5 "/>
<text text-anchor="middle" x="1232" y="-226.5" font-family="Helvetica,sans-Serif" font-size="10.00"> </text>
<polyline fill="none" stroke="#bfbfbf" points="1214.5,-219.5 1249.5,-219.5 "/>
<text text-anchor="middle" x="1232" y="-207.5" font-family="Helvetica,sans-Serif" font-size="10.00"> </text>
</g>
<!-- Node13&#45;&gt;Node1 -->
<g id="edge12" class="edge"><title>Node13&#45;&gt;Node1</title>
<path fill="none" stroke="#404040" d="M1232.49,-200.286C1231.24,-181.086 1226.22,-156.466 1210,-142 1139.08,-78.7347 860.499,-65.8103 718.778,-63.3894"/>
<polygon fill="none" stroke="#404040" points="718.742,-63.389 712.681,-67.2958 706.744,-63.2035 712.805,-59.2967 718.742,-63.389"/>
<text text-anchor="middle" x="1248" y="-156.5" font-family="Helvetica,sans-Serif" font-size="10.00"> &#45;rpcPort</text>
</g>
<!-- Node14 -->
<g id="node14" class="node"><title>Node14</title>
<polygon fill="none" stroke="#bfbfbf" points="1268,-200.5 1268,-257.5 1324,-257.5 1324,-200.5 1268,-200.5"/>
<text text-anchor="middle" x="1296" y="-245.5" font-family="Helvetica,sans-Serif" font-size="10.00">unsigned</text>
<polyline fill="none" stroke="#bfbfbf" points="1268,-238.5 1324,-238.5 "/>
<text text-anchor="middle" x="1296" y="-226.5" font-family="Helvetica,sans-Serif" font-size="10.00"> </text>
<polyline fill="none" stroke="#bfbfbf" points="1268,-219.5 1324,-219.5 "/>
<text text-anchor="middle" x="1296" y="-207.5" font-family="Helvetica,sans-Serif" font-size="10.00"> </text>
</g>
<!-- Node14&#45;&gt;Node1 -->
<g id="edge13" class="edge"><title>Node14&#45;&gt;Node1</title>
<path fill="none" stroke="#404040" d="M1295.5,-200.137C1293.58,-180.864 1287.69,-156.22 1271,-142 1189.63,-72.6589 872.036,-62.9054 718.722,-62.3523"/>
<polygon fill="none" stroke="#404040" points="718.636,-62.3523 712.627,-66.3395 706.636,-62.3267 712.644,-58.3395 718.636,-62.3523"/>
<text text-anchor="middle" x="1340" y="-156.5" font-family="Helvetica,sans-Serif" font-size="10.00"> &#45;rosSequenceCounter</text>
</g>
<!-- Node15 -->
<g id="node15" class="node"><title>Node15</title>
<polygon fill="none" stroke="#bfbfbf" points="1374.5,-200.5 1374.5,-257.5 1457.5,-257.5 1457.5,-200.5 1374.5,-200.5"/>
<text text-anchor="middle" x="1416" y="-245.5" font-family="Helvetica,sans-Serif" font-size="10.00">VectorDynSize</text>
<polyline fill="none" stroke="#bfbfbf" points="1374.5,-238.5 1457.5,-238.5 "/>
<text text-anchor="middle" x="1416" y="-226.5" font-family="Helvetica,sans-Serif" font-size="10.00"> </text>
<polyline fill="none" stroke="#bfbfbf" points="1374.5,-219.5 1457.5,-219.5 "/>
<text text-anchor="middle" x="1416" y="-207.5" font-family="Helvetica,sans-Serif" font-size="10.00"> </text>
</g>
<!-- Node15&#45;&gt;Node1 -->
<g id="edge14" class="edge"><title>Node15&#45;&gt;Node1</title>
<path fill="none" stroke="#404040" d="M1416.28,-200.094C1414.87,-180.801 1409.57,-156.149 1393,-142 1342.53,-98.9131 905.654,-74.8413 718.991,-66.4426"/>
<polygon fill="none" stroke="#404040" points="718.785,-66.4335 712.613,-70.1629 706.796,-65.9003 712.968,-62.1708 718.785,-66.4335"/>
<text text-anchor="middle" x="1455" y="-156.5" font-family="Helvetica,sans-Serif" font-size="10.00"> &#45;robotConfiguration</text>
</g>
</g>
</svg>
