<?xml version="1.0" encoding="UTF-8" standalone="no"?>
<!DOCTYPE svg PUBLIC "-//W3C//DTD SVG 1.1//EN"
 "http://www.w3.org/Graphics/SVG/1.1/DTD/svg11.dtd">
<!-- Generated by graphviz version 2.36.0 (20140111.2315)
 -->
<!-- Title: geometry_msgs_Transform Pages: 1 -->
<!--zoomable 530 -->
<svg id="main" version="1.1" xmlns="http://www.w3.org/2000/svg" xmlns:xlink="http://www.w3.org/1999/xlink" xml:space="preserve" onload="init(evt)">
<style type="text/css"><![CDATA[
.edge:hover path { stroke: red; }
.edge:hover polygon { stroke: red; fill: red; }
]]></style>
<script type="text/javascript"><![CDATA[
var edges = document.getElementsByTagName('g');
if (edges && edges.length) {
  for (var i=0;i<edges.length;i++) {
    if (edges[i].id.substr(0,4)=='edge') {
      edges[i].setAttribute('class','edge');
    }
  }
}
]]></script>
        <defs>
                <circle id="rim" cx="0" cy="0" r="7"/>
                <circle id="rim2" cx="0" cy="0" r="3.5"/>
                <g id="zoomPlus">
                        <use xlink:href="#rim" fill="#404040">
                                <set attributeName="fill" to="#808080" begin="zoomplus.mouseover" end="zoomplus.mouseout"/>
                        </use>
                        <path d="M-4,0h8M0,-4v8" fill="none" stroke="white" stroke-width="1.5" pointer-events="none"/>
                </g>
                <g id="zoomMin">
                        <use xlink:href="#rim" fill="#404040">
                                <set attributeName="fill" to="#808080" begin="zoomminus.mouseover" end="zoomminus.mouseout"/>
                        </use>
                        <path d="M-4,0h8" fill="none" stroke="white" stroke-width="1.5" pointer-events="none"/>
                </g>
                <g id="dirArrow">
                        <path fill="none" stroke="white" stroke-width="1.5" d="M0,-3.0v7 M-2.5,-0.5L0,-3.0L2.5,-0.5"/>
                </g>
               <g id="resetDef">
                       <use xlink:href="#rim2" fill="#404040">
                               <set attributeName="fill" to="#808080" begin="reset.mouseover" end="reset.mouseout"/>
                       </use>
               </g>
        </defs>

<script type="text/javascript">
var viewWidth = 395;
var viewHeight = 530;
var sectionId = 'dynsection-1';
</script>
<script xlink:href="svgpan.js"/>
<svg id="graph" class="graph">
<g id="viewport">
<title>geometry_msgs_Transform</title>
<!-- Node1 -->
<g id="node1" class="node"><title>Node1</title>
<polygon fill="#bfbfbf" stroke="black" points="-0.5,-0.5 -0.5,-167.5 150.5,-167.5 150.5,-0.5 -0.5,-0.5"/>
<text text-anchor="middle" x="75" y="-155.5" font-family="Helvetica,sans-Serif" font-size="10.00">geometry_msgs_Transform</text>
<polyline fill="none" stroke="black" points="-0.5,-148.5 150.5,-148.5 "/>
<text text-anchor="middle" x="75" y="-136.5" font-family="Helvetica,sans-Serif" font-size="10.00"> </text>
<polyline fill="none" stroke="black" points="-0.5,-129.5 150.5,-129.5 "/>
<text text-anchor="start" x="7.5" y="-117.5" font-family="Helvetica,sans-Serif" font-size="10.00">+ geometry_msgs_Transform()</text>
<text text-anchor="start" x="7.5" y="-106.5" font-family="Helvetica,sans-Serif" font-size="10.00">+ clear()</text>
<text text-anchor="start" x="7.5" y="-95.5" font-family="Helvetica,sans-Serif" font-size="10.00">+ readBare()</text>
<text text-anchor="start" x="7.5" y="-84.5" font-family="Helvetica,sans-Serif" font-size="10.00">+ readBottle()</text>
<text text-anchor="start" x="7.5" y="-73.5" font-family="Helvetica,sans-Serif" font-size="10.00">+ read()</text>
<text text-anchor="start" x="7.5" y="-62.5" font-family="Helvetica,sans-Serif" font-size="10.00">+ writeBare()</text>
<text text-anchor="start" x="7.5" y="-51.5" font-family="Helvetica,sans-Serif" font-size="10.00">+ writeBottle()</text>
<text text-anchor="start" x="7.5" y="-40.5" font-family="Helvetica,sans-Serif" font-size="10.00">+ write()</text>
<text text-anchor="start" x="7.5" y="-29.5" font-family="Helvetica,sans-Serif" font-size="10.00">+ getTypeText()</text>
<text text-anchor="start" x="7.5" y="-18.5" font-family="Helvetica,sans-Serif" font-size="10.00">+ getType()</text>
<text text-anchor="start" x="7.5" y="-7.5" font-family="Helvetica,sans-Serif" font-size="10.00">and 10 more...</text>
</g>
<!-- Node2 -->
<g id="node2" class="node"><title>Node2</title>
<g id="a_node2"><a xlink:href="classyarp_1_1os_1_1idl_1_1_wire_portable.html" target="_top" xlink:title="{WirePortable\n||}">
<polygon fill="none" stroke="black" points="108.5,-464.5 108.5,-521.5 181.5,-521.5 181.5,-464.5 108.5,-464.5"/>
<text text-anchor="middle" x="145" y="-509.5" font-family="Helvetica,sans-Serif" font-size="10.00">WirePortable</text>
<polyline fill="none" stroke="black" points="108.5,-502.5 181.5,-502.5 "/>
<text text-anchor="middle" x="145" y="-490.5" font-family="Helvetica,sans-Serif" font-size="10.00"> </text>
<polyline fill="none" stroke="black" points="108.5,-483.5 181.5,-483.5 "/>
<text text-anchor="middle" x="145" y="-471.5" font-family="Helvetica,sans-Serif" font-size="10.00"> </text>
</a>
</g>
</g>
<!-- Node2&#45;&gt;Node1 -->
<g id="edge1" class="edge"><title>Node2&#45;&gt;Node1</title>
<path fill="none" stroke="midnightblue" d="M102.244,-456.692C84.3701,-437.032 65.8528,-411.097 57,-384 34.0178,-313.654 39.4099,-228.978 50.261,-167.722"/>
<polygon fill="none" stroke="midnightblue" points="99.8964,-459.304 109.304,-464.178 104.989,-454.501 99.8964,-459.304"/>
</g>
<!-- Node2&#45;&gt;Node1 -->
<g id="edge2" class="edge"><title>Node2&#45;&gt;Node1</title>
<path fill="none" stroke="midnightblue" d="M118.05,-456.431C102.206,-436.802 83.8136,-410.977 75,-384 52.0178,-313.654 57.4099,-228.978 65.1564,-167.722"/>
<polygon fill="none" stroke="midnightblue" points="115.367,-458.678 124.422,-464.178 120.773,-454.231 115.367,-458.678"/>
</g>
<!-- Node3 -->
<g id="node3" class="node"><title>Node3</title>
<g id="a_node3"><a xlink:href="classgeometry__msgs___quaternion.html" target="_top" xlink:title="{geometry_msgs_Quaternion\n||+ geometry_msgs_Quaternion()\l+ clear()\l+ readBare()\l+ readBottle()\l+ read()\l+ writeBare()\l+ writeBottle()\l+ write()\l+ getTypeText()\l+ getType()\land 10 more...\l}">
<polygon fill="none" stroke="black" points="233,-216.5 233,-383.5 387,-383.5 387,-216.5 233,-216.5"/>
<text text-anchor="middle" x="310" y="-371.5" font-family="Helvetica,sans-Serif" font-size="10.00">geometry_msgs_Quaternion</text>
<polyline fill="none" stroke="black" points="233,-364.5 387,-364.5 "/>
<text text-anchor="middle" x="310" y="-352.5" font-family="Helvetica,sans-Serif" font-size="10.00"> </text>
<polyline fill="none" stroke="black" points="233,-345.5 387,-345.5 "/>
<text text-anchor="start" x="241" y="-333.5" font-family="Helvetica,sans-Serif" font-size="10.00">+ geometry_msgs_Quaternion()</text>
<text text-anchor="start" x="241" y="-322.5" font-family="Helvetica,sans-Serif" font-size="10.00">+ clear()</text>
<text text-anchor="start" x="241" y="-311.5" font-family="Helvetica,sans-Serif" font-size="10.00">+ readBare()</text>
<text text-anchor="start" x="241" y="-300.5" font-family="Helvetica,sans-Serif" font-size="10.00">+ readBottle()</text>
<text text-anchor="start" x="241" y="-289.5" font-family="Helvetica,sans-Serif" font-size="10.00">+ read()</text>
<text text-anchor="start" x="241" y="-278.5" font-family="Helvetica,sans-Serif" font-size="10.00">+ writeBare()</text>
<text text-anchor="start" x="241" y="-267.5" font-family="Helvetica,sans-Serif" font-size="10.00">+ writeBottle()</text>
<text text-anchor="start" x="241" y="-256.5" font-family="Helvetica,sans-Serif" font-size="10.00">+ write()</text>
<text text-anchor="start" x="241" y="-245.5" font-family="Helvetica,sans-Serif" font-size="10.00">+ getTypeText()</text>
<text text-anchor="start" x="241" y="-234.5" font-family="Helvetica,sans-Serif" font-size="10.00">+ getType()</text>
<text text-anchor="start" x="241" y="-223.5" font-family="Helvetica,sans-Serif" font-size="10.00">and 10 more...</text>
</a>
</g>
</g>
<!-- Node2&#45;&gt;Node3 -->
<g id="edge4" class="edge"><title>Node2&#45;&gt;Node3</title>
<path fill="none" stroke="midnightblue" d="M164.652,-456.04C176.969,-439.38 193.015,-419.453 208,-402 215.919,-392.777 224.374,-383.22 232.908,-373.829"/>
<polygon fill="none" stroke="midnightblue" points="161.61,-454.273 158.576,-464.424 167.278,-458.381 161.61,-454.273"/>
</g>
<!-- Node2&#45;&gt;Node3 -->
<g id="edge5" class="edge"><title>Node2&#45;&gt;Node3</title>
<path fill="none" stroke="midnightblue" d="M180.638,-456.498C194.674,-439.746 210.877,-419.613 226,-402 231.202,-395.942 236.635,-389.739 242.129,-383.534"/>
<polygon fill="none" stroke="midnightblue" points="177.72,-454.528 173.936,-464.424 183.066,-459.048 177.72,-454.528"/>
</g>
<!-- Node5 -->
<g id="node5" class="node"><title>Node5</title>
<g id="a_node5"><a xlink:href="classgeometry__msgs___vector3.html" target="_top" xlink:title="{geometry_msgs_Vector3\n||+ geometry_msgs_Vector3()\l+ clear()\l+ readBare()\l+ readBottle()\l+ read()\l+ writeBare()\l+ writeBottle()\l+ write()\l+ getTypeText()\l+ getType()\land 10 more...\l}">
<polygon fill="none" stroke="black" points="75,-216.5 75,-383.5 215,-383.5 215,-216.5 75,-216.5"/>
<text text-anchor="middle" x="145" y="-371.5" font-family="Helvetica,sans-Serif" font-size="10.00">geometry_msgs_Vector3</text>
<polyline fill="none" stroke="black" points="75,-364.5 215,-364.5 "/>
<text text-anchor="middle" x="145" y="-352.5" font-family="Helvetica,sans-Serif" font-size="10.00"> </text>
<polyline fill="none" stroke="black" points="75,-345.5 215,-345.5 "/>
<text text-anchor="start" x="83" y="-333.5" font-family="Helvetica,sans-Serif" font-size="10.00">+ geometry_msgs_Vector3()</text>
<text text-anchor="start" x="83" y="-322.5" font-family="Helvetica,sans-Serif" font-size="10.00">+ clear()</text>
<text text-anchor="start" x="83" y="-311.5" font-family="Helvetica,sans-Serif" font-size="10.00">+ readBare()</text>
<text text-anchor="start" x="83" y="-300.5" font-family="Helvetica,sans-Serif" font-size="10.00">+ readBottle()</text>
<text text-anchor="start" x="83" y="-289.5" font-family="Helvetica,sans-Serif" font-size="10.00">+ read()</text>
<text text-anchor="start" x="83" y="-278.5" font-family="Helvetica,sans-Serif" font-size="10.00">+ writeBare()</text>
<text text-anchor="start" x="83" y="-267.5" font-family="Helvetica,sans-Serif" font-size="10.00">+ writeBottle()</text>
<text text-anchor="start" x="83" y="-256.5" font-family="Helvetica,sans-Serif" font-size="10.00">+ write()</text>
<text text-anchor="start" x="83" y="-245.5" font-family="Helvetica,sans-Serif" font-size="10.00">+ getTypeText()</text>
<text text-anchor="start" x="83" y="-234.5" font-family="Helvetica,sans-Serif" font-size="10.00">+ getType()</text>
<text text-anchor="start" x="83" y="-223.5" font-family="Helvetica,sans-Serif" font-size="10.00">and 10 more...</text>
</a>
</g>
</g>
<!-- Node2&#45;&gt;Node5 -->
<g id="edge8" class="edge"><title>Node2&#45;&gt;Node5</title>
<path fill="none" stroke="midnightblue" d="M139.494,-454.21C138.493,-434.029 138.096,-408.346 138.303,-383.802"/>
<polygon fill="none" stroke="midnightblue" points="136.001,-454.445 140.072,-464.227 142.99,-454.042 136.001,-454.445"/>
</g>
<!-- Node2&#45;&gt;Node5 -->
<g id="edge9" class="edge"><title>Node2&#45;&gt;Node5</title>
<path fill="none" stroke="midnightblue" d="M150.506,-454.21C151.507,-434.029 151.904,-408.346 151.697,-383.802"/>
<polygon fill="none" stroke="midnightblue" points="147.01,-454.042 149.928,-464.227 153.999,-454.445 147.01,-454.042"/>
</g>
<!-- Node3&#45;&gt;Node1 -->
<g id="edge3" class="edge"><title>Node3&#45;&gt;Node1</title>
<path fill="none" stroke="#404040" d="M232.806,-224.172C229.843,-221.403 226.9,-218.671 224,-216 203.477,-197.094 181.022,-177.035 159.913,-158.446"/>
<polygon fill="none" stroke="#404040" points="159.656,-158.219 152.508,-157.264 150.641,-150.299 157.789,-151.254 159.656,-158.219"/>
<text text-anchor="middle" x="225" y="-189.5" font-family="Helvetica,sans-Serif" font-size="10.00"> +rotation</text>
</g>
<!-- Node4 -->
<g id="node4" class="node"><title>Node4</title>
<polygon fill="none" stroke="#bfbfbf" points="209.5,-464.5 209.5,-521.5 274.5,-521.5 274.5,-464.5 209.5,-464.5"/>
<text text-anchor="middle" x="242" y="-509.5" font-family="Helvetica,sans-Serif" font-size="10.00">NetFloat64</text>
<polyline fill="none" stroke="#bfbfbf" points="209.5,-502.5 274.5,-502.5 "/>
<text text-anchor="middle" x="242" y="-490.5" font-family="Helvetica,sans-Serif" font-size="10.00"> </text>
<polyline fill="none" stroke="#bfbfbf" points="209.5,-483.5 274.5,-483.5 "/>
<text text-anchor="middle" x="242" y="-471.5" font-family="Helvetica,sans-Serif" font-size="10.00"> </text>
</g>
<!-- Node4&#45;&gt;Node3 -->
<g id="edge6" class="edge"><title>Node4&#45;&gt;Node3</title>
<path fill="none" stroke="#404040" d="M251.888,-464.227C258.436,-445.834 267.443,-420.535 276.412,-395.344"/>
<polygon fill="none" stroke="#404040" points="276.496,-395.107 274.74,-388.113 280.521,-383.802 282.277,-390.796 276.496,-395.107"/>
<text text-anchor="middle" x="281.5" y="-438" font-family="Helvetica,sans-Serif" font-size="10.00"> +w</text>
<text text-anchor="middle" x="281.5" y="-427" font-family="Helvetica,sans-Serif" font-size="10.00">+x</text>
<text text-anchor="middle" x="281.5" y="-416" font-family="Helvetica,sans-Serif" font-size="10.00">+y</text>
<text text-anchor="middle" x="281.5" y="-405" font-family="Helvetica,sans-Serif" font-size="10.00">+z</text>
</g>
<!-- Node4&#45;&gt;Node5 -->
<g id="edge10" class="edge"><title>Node4&#45;&gt;Node5</title>
<path fill="none" stroke="#404040" d="M227.895,-464.227C218.47,-445.668 205.475,-420.079 192.567,-394.663"/>
<polygon fill="none" stroke="#404040" points="192.485,-394.502 186.202,-390.963 187.051,-383.802 193.335,-387.341 192.485,-394.502"/>
<text text-anchor="middle" x="225.5" y="-432.5" font-family="Helvetica,sans-Serif" font-size="10.00"> +x</text>
<text text-anchor="middle" x="225.5" y="-421.5" font-family="Helvetica,sans-Serif" font-size="10.00">+y</text>
<text text-anchor="middle" x="225.5" y="-410.5" font-family="Helvetica,sans-Serif" font-size="10.00">+z</text>
</g>
<!-- Node5&#45;&gt;Node1 -->
<g id="edge7" class="edge"><title>Node5&#45;&gt;Node1</title>
<path fill="none" stroke="#404040" d="M117.936,-216.262C113.971,-204.14 109.863,-191.58 105.829,-179.249"/>
<polygon fill="none" stroke="#404040" points="105.723,-178.923 100.055,-174.464 101.992,-167.518 107.659,-171.977 105.723,-178.923"/>
<text text-anchor="middle" x="137.5" y="-189.5" font-family="Helvetica,sans-Serif" font-size="10.00"> +translation</text>
</g>
</g>
</svg>
        <g id="navigator" transform="translate(0 0)" fill="#404254">
                <rect fill="#f2f5e9" fill-opacity="0.5" stroke="#606060" stroke-width=".5" x="0" y="0" width="60" height="60"/>
                <use id="zoomplus" xlink:href="#zoomPlus" x="17" y="9" onmousedown="handleZoom(evt,'in')"/>
                <use id="zoomminus" xlink:href="#zoomMin" x="42" y="9" onmousedown="handleZoom(evt,'out')"/>
                <use id="reset" xlink:href="#resetDef" x="30" y="36" onmousedown="handleReset()"/>
                <g id="arrowUp" xlink:href="#dirArrow" transform="translate(30 24)" onmousedown="handlePan(0,-1)">
                  <use xlink:href="#rim" fill="#404040">
                        <set attributeName="fill" to="#808080" begin="arrowUp.mouseover" end="arrowUp.mouseout"/>
                  </use>
                  <path fill="none" stroke="white" stroke-width="1.5" d="M0,-3.0v7 M-2.5,-0.5L0,-3.0L2.5,-0.5"/>
                </g>
                <g id="arrowRight" xlink:href="#dirArrow" transform="rotate(90) translate(36 -43)" onmousedown="handlePan(1,0)">
                  <use xlink:href="#rim" fill="#404040">
                        <set attributeName="fill" to="#808080" begin="arrowRight.mouseover" end="arrowRight.mouseout"/>
                  </use>
                  <path fill="none" stroke="white" stroke-width="1.5" d="M0,-3.0v7 M-2.5,-0.5L0,-3.0L2.5,-0.5"/>
                </g>
                <g id="arrowDown" xlink:href="#dirArrow" transform="rotate(180) translate(-30 -48)" onmousedown="handlePan(0,1)">
                  <use xlink:href="#rim" fill="#404040">
                        <set attributeName="fill" to="#808080" begin="arrowDown.mouseover" end="arrowDown.mouseout"/>
                  </use>
                  <path fill="none" stroke="white" stroke-width="1.5" d="M0,-3.0v7 M-2.5,-0.5L0,-3.0L2.5,-0.5"/>
                </g>
                <g id="arrowLeft" xlink:href="#dirArrow" transform="rotate(270) translate(-36 17)" onmousedown="handlePan(-1,0)">
                  <use xlink:href="#rim" fill="#404040">
                        <set attributeName="fill" to="#808080" begin="arrowLeft.mouseover" end="arrowLeft.mouseout"/>
                  </use>
                  <path fill="none" stroke="white" stroke-width="1.5" d="M0,-3.0v7 M-2.5,-0.5L0,-3.0L2.5,-0.5"/>
                </g>
        </g>
        <svg viewBox="0 0 15 15" width="100%" height="30px" preserveAspectRatio="xMaxYMin meet">
         <g id="arrow_out" transform="scale(0.3 0.3)">
          <a xlink:href="classgeometry__msgs___transform__coll__graph_org.svg" target="_base">
           <rect id="button" ry="5" rx="5" y="6" x="6" height="38" width="38"
                fill="#f2f5e9" fill-opacity="0.5" stroke="#606060" stroke-width="1.0"/>
           <path id="arrow"
             d="M 11.500037,31.436501 C 11.940474,20.09759 22.043105,11.32322 32.158766,21.979434 L 37.068811,17.246167 C 37.068811,17.246167 37.088388,32 37.088388,32 L 22.160133,31.978069 C 22.160133,31.978069 26.997745,27.140456 26.997745,27.140456 C 18.528582,18.264221 13.291696,25.230495 11.500037,31.436501 z"
             style="fill:#404040;"/>
          </a>
         </g>
        </svg>
</svg>
