<?xml version="1.0" encoding="UTF-8" standalone="no"?>
<!DOCTYPE svg PUBLIC "-//W3C//DTD SVG 1.1//EN"
 "http://www.w3.org/Graphics/SVG/1.1/DTD/svg11.dtd">
<!-- Generated by graphviz version 2.36.0 (20140111.2315)
 -->
<!-- Title: xsensJointStatePublisherModule Pages: 1 -->
<svg width="201pt" height="108pt"
 viewBox="0.00 0.00 201.00 108.00" xmlns="http://www.w3.org/2000/svg" xmlns:xlink="http://www.w3.org/1999/xlink">
<g id="graph0" class="graph" transform="scale(1 1) rotate(0) translate(4 104)">
<title>xsensJointStatePublisherModule</title>
<!-- Node1 -->
<g id="node1" class="node"><title>Node1</title>
<polygon fill="#bfbfbf" stroke="black" points="20,-1 20,-31 148,-31 148,-1 20,-1"/>
<text text-anchor="start" x="28" y="-19" font-family="Helvetica,sans-Serif" font-size="10.00">xsensJointStatePublisher</text>
<text text-anchor="middle" x="84" y="-8" font-family="Helvetica,sans-Serif" font-size="10.00">Module</text>
</g>
<!-- Node2 -->
<g id="node2" class="node"><title>Node2</title>
<polygon fill="none" stroke="#bfbfbf" points="0,-74.5 0,-93.5 62,-93.5 62,-74.5 0,-74.5"/>
<text text-anchor="middle" x="31" y="-81.5" font-family="Helvetica,sans-Serif" font-size="10.00">RFModule</text>
</g>
<!-- Node2&#45;&gt;Node1 -->
<g id="edge1" class="edge"><title>Node2&#45;&gt;Node1</title>
<path fill="none" stroke="midnightblue" d="M44.2686,-66.4769C52.9943,-55.6108 64.2947,-41.5387 72.6119,-31.1815"/>
<polygon fill="midnightblue" stroke="midnightblue" points="41.4612,-64.383 37.9288,-74.3717 46.9192,-68.766 41.4612,-64.383"/>
</g>
<!-- Node3 -->
<g id="node3" class="node"><title>Node3</title>
<polygon fill="none" stroke="#bfbfbf" points="80.5,-69 80.5,-99 193.5,-99 193.5,-69 80.5,-69"/>
<text text-anchor="start" x="88.5" y="-87" font-family="Helvetica,sans-Serif" font-size="10.00">TypedReaderCallback</text>
<text text-anchor="middle" x="137" y="-76" font-family="Helvetica,sans-Serif" font-size="10.00">&lt; HumanState &gt;</text>
</g>
<!-- Node3&#45;&gt;Node1 -->
<g id="edge2" class="edge"><title>Node3&#45;&gt;Node1</title>
<path fill="none" stroke="midnightblue" d="M119.019,-60.608C111.233,-50.9125 102.349,-39.8499 95.4778,-31.2931"/>
<polygon fill="midnightblue" stroke="midnightblue" points="116.509,-63.0733 125.5,-68.679 121.967,-58.6903 116.509,-63.0733"/>
</g>
</g>
</svg>
