<?xml version="1.0" encoding="UTF-8" standalone="no"?>
<!DOCTYPE svg PUBLIC "-//W3C//DTD SVG 1.1//EN"
 "http://www.w3.org/Graphics/SVG/1.1/DTD/svg11.dtd">
<!-- Generated by graphviz version 2.36.0 (20140111.2315)
 -->
<!-- Title: HumanDynamicsEstimator Pages: 1 -->
<svg width="2330pt" height="358pt"
 viewBox="0.00 0.00 2330.00 358.00" xmlns="http://www.w3.org/2000/svg" xmlns:xlink="http://www.w3.org/1999/xlink">
<g id="graph0" class="graph" transform="scale(1 1) rotate(0) translate(4 354)">
<title>HumanDynamicsEstimator</title>
<!-- Node1 -->
<g id="node1" class="node"><title>Node1</title>
<polygon fill="#bfbfbf" stroke="black" points="927.5,-0.5 927.5,-123.5 1084.5,-123.5 1084.5,-0.5 927.5,-0.5"/>
<text text-anchor="middle" x="1006" y="-111.5" font-family="Helvetica,sans-Serif" font-size="10.00">HumanDynamicsEstimator</text>
<polyline fill="none" stroke="black" points="927.5,-104.5 1084.5,-104.5 "/>
<text text-anchor="middle" x="1006" y="-92.5" font-family="Helvetica,sans-Serif" font-size="10.00"> </text>
<polyline fill="none" stroke="black" points="927.5,-85.5 1084.5,-85.5 "/>
<text text-anchor="start" x="935.5" y="-73.5" font-family="Helvetica,sans-Serif" font-size="10.00">+ HumanDynamicsEstimator()</text>
<text text-anchor="start" x="935.5" y="-62.5" font-family="Helvetica,sans-Serif" font-size="10.00">+ ~HumanDynamicsEstimator()</text>
<text text-anchor="start" x="935.5" y="-51.5" font-family="Helvetica,sans-Serif" font-size="10.00">+ getPeriod()</text>
<text text-anchor="start" x="935.5" y="-40.5" font-family="Helvetica,sans-Serif" font-size="10.00">+ configure()</text>
<text text-anchor="start" x="935.5" y="-29.5" font-family="Helvetica,sans-Serif" font-size="10.00">+ updateModule()</text>
<text text-anchor="start" x="935.5" y="-18.5" font-family="Helvetica,sans-Serif" font-size="10.00">+ close()</text>
<text text-anchor="start" x="935.5" y="-7.5" font-family="Helvetica,sans-Serif" font-size="10.00">&#45; computeMaximumAPosteriori()</text>
</g>
<!-- Node2 -->
<g id="node2" class="node"><title>Node2</title>
<g id="a_node2"><a xlink:href="classyarp_1_1os_1_1_r_f_module.html" target="_top" xlink:title="{RFModule\n||}">
<polygon fill="none" stroke="black" points="0,-281.5 0,-338.5 62,-338.5 62,-281.5 0,-281.5"/>
<text text-anchor="middle" x="31" y="-326.5" font-family="Helvetica,sans-Serif" font-size="10.00">RFModule</text>
<polyline fill="none" stroke="black" points="0,-319.5 62,-319.5 "/>
<text text-anchor="middle" x="31" y="-307.5" font-family="Helvetica,sans-Serif" font-size="10.00"> </text>
<polyline fill="none" stroke="black" points="0,-300.5 62,-300.5 "/>
<text text-anchor="middle" x="31" y="-288.5" font-family="Helvetica,sans-Serif" font-size="10.00"> </text>
</a>
</g>
</g>
<!-- Node2&#45;&gt;Node1 -->
<g id="edge1" class="edge"><title>Node2&#45;&gt;Node1</title>
<path fill="none" stroke="midnightblue" d="M37.9723,-271.569C47.4346,-232.25 68.439,-172.037 112,-142 178.342,-96.2549 721.274,-72.8538 927.203,-65.5572"/>
<polygon fill="none" stroke="midnightblue" points="34.5575,-270.802 35.7564,-281.328 41.3838,-272.352 34.5575,-270.802"/>
</g>
<!-- Node3 -->
<g id="node3" class="node"><title>Node3</title>
<polygon fill="none" stroke="#bfbfbf" points="80.5,-281.5 80.5,-338.5 125.5,-338.5 125.5,-281.5 80.5,-281.5"/>
<text text-anchor="middle" x="103" y="-326.5" font-family="Helvetica,sans-Serif" font-size="10.00">double</text>
<polyline fill="none" stroke="#bfbfbf" points="80.5,-319.5 125.5,-319.5 "/>
<text text-anchor="middle" x="103" y="-307.5" font-family="Helvetica,sans-Serif" font-size="10.00"> </text>
<polyline fill="none" stroke="#bfbfbf" points="80.5,-300.5 125.5,-300.5 "/>
<text text-anchor="middle" x="103" y="-288.5" font-family="Helvetica,sans-Serif" font-size="10.00"> </text>
</g>
<!-- Node3&#45;&gt;Node1 -->
<g id="edge2" class="edge"><title>Node3&#45;&gt;Node1</title>
<path fill="none" stroke="#404040" d="M107.958,-281.369C116.424,-243.051 137.584,-174.799 185,-142 244.009,-101.183 713.867,-75.8545 915.077,-66.7816"/>
<polygon fill="none" stroke="#404040" points="915.367,-66.7687 921.183,-62.5048 927.355,-66.2331 921.54,-70.4969 915.367,-66.7687"/>
<text text-anchor="middle" x="208" y="-194.5" font-family="Helvetica,sans-Serif" font-size="10.00"> &#45;m_period</text>
</g>
<!-- Node4 -->
<g id="node4" class="node"><title>Node4</title>
<polygon fill="none" stroke="#bfbfbf" points="143.5,-276 143.5,-344 292.5,-344 292.5,-276 143.5,-276"/>
<text text-anchor="start" x="151.5" y="-332" font-family="Helvetica,sans-Serif" font-size="10.00">map&lt; std::string, BerdyOutput</text>
<text text-anchor="middle" x="218" y="-321" font-family="Helvetica,sans-Serif" font-size="10.00">RangeMap &gt;</text>
<polyline fill="none" stroke="#bfbfbf" points="143.5,-314 292.5,-314 "/>
<text text-anchor="middle" x="218" y="-302" font-family="Helvetica,sans-Serif" font-size="10.00"> </text>
<polyline fill="none" stroke="#bfbfbf" points="143.5,-295 292.5,-295 "/>
<text text-anchor="middle" x="218" y="-283" font-family="Helvetica,sans-Serif" font-size="10.00"> </text>
</g>
<!-- Node4&#45;&gt;Node1 -->
<g id="edge3" class="edge"><title>Node4&#45;&gt;Node1</title>
<path fill="none" stroke="#404040" d="M226.143,-275.733C237.583,-236.7 262.433,-173.339 309,-142 405.965,-76.7442 749.367,-64.9321 915.141,-63.1064"/>
<polygon fill="none" stroke="#404040" points="915.247,-63.1055 921.207,-59.0466 927.246,-62.9874 921.286,-67.0462 915.247,-63.1055"/>
<text text-anchor="middle" x="339" y="-200" font-family="Helvetica,sans-Serif" font-size="10.00"> +outputLinks</text>
<text text-anchor="middle" x="339" y="-189" font-family="Helvetica,sans-Serif" font-size="10.00">+outputJoints</text>
</g>
<!-- Node5 -->
<g id="node5" class="node"><title>Node5</title>
<polygon fill="none" stroke="#bfbfbf" points="310.5,-270.5 310.5,-349.5 453.5,-349.5 453.5,-270.5 310.5,-270.5"/>
<text text-anchor="start" x="318.5" y="-337.5" font-family="Helvetica,sans-Serif" font-size="10.00">unordered_map&lt; SensorKey,</text>
<text text-anchor="start" x="318.5" y="-326.5" font-family="Helvetica,sans-Serif" font-size="10.00"> iDynTree::IndexRange,</text>
<text text-anchor="middle" x="382" y="-315.5" font-family="Helvetica,sans-Serif" font-size="10.00"> SensorKeyHash &gt;</text>
<polyline fill="none" stroke="#bfbfbf" points="310.5,-308.5 453.5,-308.5 "/>
<text text-anchor="middle" x="382" y="-296.5" font-family="Helvetica,sans-Serif" font-size="10.00"> </text>
<polyline fill="none" stroke="#bfbfbf" points="310.5,-289.5 453.5,-289.5 "/>
<text text-anchor="middle" x="382" y="-277.5" font-family="Helvetica,sans-Serif" font-size="10.00"> </text>
</g>
<!-- Node5&#45;&gt;Node1 -->
<g id="edge4" class="edge"><title>Node5&#45;&gt;Node1</title>
<path fill="none" stroke="#404040" d="M374.467,-270.173C369.545,-232.146 369.144,-175.215 402,-142 437.472,-106.141 755.519,-79.8541 915.273,-68.7876"/>
<polygon fill="none" stroke="#404040" points="915.456,-68.7751 921.169,-64.3738 927.428,-67.9538 921.716,-72.3551 915.456,-68.7751"/>
<text text-anchor="middle" x="449.5" y="-194.5" font-family="Helvetica,sans-Serif" font-size="10.00"> +inputMeasurements</text>
</g>
<!-- Node6 -->
<g id="node6" class="node"><title>Node6</title>
<polygon fill="none" stroke="#bfbfbf" points="472,-281.5 472,-338.5 522,-338.5 522,-281.5 472,-281.5"/>
<text text-anchor="middle" x="497" y="-326.5" font-family="Helvetica,sans-Serif" font-size="10.00">Vector3</text>
<polyline fill="none" stroke="#bfbfbf" points="472,-319.5 522,-319.5 "/>
<text text-anchor="middle" x="497" y="-307.5" font-family="Helvetica,sans-Serif" font-size="10.00"> </text>
<polyline fill="none" stroke="#bfbfbf" points="472,-300.5 522,-300.5 "/>
<text text-anchor="middle" x="497" y="-288.5" font-family="Helvetica,sans-Serif" font-size="10.00"> </text>
</g>
<!-- Node6&#45;&gt;Node1 -->
<g id="edge5" class="edge"><title>Node6&#45;&gt;Node1</title>
<path fill="none" stroke="#404040" d="M497.074,-281.243C498.78,-243.735 507.752,-177.486 548,-142 601.193,-95.1 797.272,-75.3604 914.935,-67.5945"/>
<polygon fill="none" stroke="#404040" points="915.147,-67.581 920.88,-63.2058 927.123,-66.8143 921.391,-71.1895 915.147,-67.581"/>
<text text-anchor="middle" x="572.5" y="-194.5" font-family="Helvetica,sans-Serif" font-size="10.00"> &#45;m_gravity</text>
</g>
<!-- Node7 -->
<g id="node7" class="node"><title>Node7</title>
<polygon fill="none" stroke="#bfbfbf" points="540.5,-281.5 540.5,-338.5 649.5,-338.5 649.5,-281.5 540.5,-281.5"/>
<text text-anchor="middle" x="595" y="-326.5" font-family="Helvetica,sans-Serif" font-size="10.00">JointPosDoubleArray</text>
<polyline fill="none" stroke="#bfbfbf" points="540.5,-319.5 649.5,-319.5 "/>
<text text-anchor="middle" x="595" y="-307.5" font-family="Helvetica,sans-Serif" font-size="10.00"> </text>
<polyline fill="none" stroke="#bfbfbf" points="540.5,-300.5 649.5,-300.5 "/>
<text text-anchor="middle" x="595" y="-288.5" font-family="Helvetica,sans-Serif" font-size="10.00"> </text>
</g>
<!-- Node7&#45;&gt;Node1 -->
<g id="edge6" class="edge"><title>Node7&#45;&gt;Node1</title>
<path fill="none" stroke="#404040" d="M596.398,-281.444C599.829,-244.169 611.619,-178.19 652,-142 690.259,-107.712 823.567,-85.0382 915.213,-73.1035"/>
<polygon fill="none" stroke="#404040" points="915.389,-73.081 920.834,-68.3531 927.292,-71.5608 921.848,-76.2887 915.389,-73.081"/>
<text text-anchor="middle" x="702.5" y="-194.5" font-family="Helvetica,sans-Serif" font-size="10.00"> &#45;m_jointsConfiguration</text>
</g>
<!-- Node8 -->
<g id="node8" class="node"><title>Node8</title>
<g id="a_node8"><a xlink:href="classyarp_1_1os_1_1_buffered_port.html" target="_top" xlink:title="{yarp::os::BufferedPort\l\&lt; human::HumanDynamics \&gt;\n||}">
<polygon fill="none" stroke="black" points="668,-276 668,-344 814,-344 814,-276 668,-276"/>
<text text-anchor="start" x="676" y="-332" font-family="Helvetica,sans-Serif" font-size="10.00">yarp::os::BufferedPort</text>
<text text-anchor="middle" x="741" y="-321" font-family="Helvetica,sans-Serif" font-size="10.00">&lt; human::HumanDynamics &gt;</text>
<polyline fill="none" stroke="black" points="668,-314 814,-314 "/>
<text text-anchor="middle" x="741" y="-302" font-family="Helvetica,sans-Serif" font-size="10.00"> </text>
<polyline fill="none" stroke="black" points="668,-295 814,-295 "/>
<text text-anchor="middle" x="741" y="-283" font-family="Helvetica,sans-Serif" font-size="10.00"> </text>
</a>
</g>
</g>
<!-- Node8&#45;&gt;Node1 -->
<g id="edge7" class="edge"><title>Node8&#45;&gt;Node1</title>
<path fill="none" stroke="#404040" d="M748.999,-275.935C759.523,-238.867 781.372,-179.105 820,-142 846.481,-116.563 882.398,-98.721 915.609,-86.515"/>
<polygon fill="none" stroke="#404040" points="915.903,-86.4115 920.236,-80.6471 927.223,-82.4294 922.891,-88.1938 915.903,-86.4115"/>
<text text-anchor="middle" x="852.5" y="-194.5" font-family="Helvetica,sans-Serif" font-size="10.00"> &#45;m_outputPort</text>
</g>
<!-- Node9 -->
<g id="node9" class="node"><title>Node9</title>
<polygon fill="none" stroke="#bfbfbf" points="832,-281.5 832,-338.5 950,-338.5 950,-281.5 832,-281.5"/>
<text text-anchor="middle" x="891" y="-326.5" font-family="Helvetica,sans-Serif" font-size="10.00">JointDOFsDoubleArray</text>
<polyline fill="none" stroke="#bfbfbf" points="832,-319.5 950,-319.5 "/>
<text text-anchor="middle" x="891" y="-307.5" font-family="Helvetica,sans-Serif" font-size="10.00"> </text>
<polyline fill="none" stroke="#bfbfbf" points="832,-300.5 950,-300.5 "/>
<text text-anchor="middle" x="891" y="-288.5" font-family="Helvetica,sans-Serif" font-size="10.00"> </text>
</g>
<!-- Node9&#45;&gt;Node1 -->
<g id="edge8" class="edge"><title>Node9&#45;&gt;Node1</title>
<path fill="none" stroke="#404040" d="M888.793,-281.428C887.269,-246.723 888.869,-186.299 913,-142 915.038,-138.259 917.33,-134.618 919.822,-131.085"/>
<polygon fill="none" stroke="#404040" points="919.972,-130.893 920.497,-123.701 927.337,-121.419 926.812,-128.611 919.972,-130.893"/>
<text text-anchor="middle" x="952.5" y="-194.5" font-family="Helvetica,sans-Serif" font-size="10.00"> &#45;m_jointsVelocity</text>
</g>
<!-- Node10 -->
<g id="node10" class="node"><title>Node10</title>
<polygon fill="none" stroke="#bfbfbf" points="968,-276 968,-344 1126,-344 1126,-276 968,-276"/>
<text text-anchor="start" x="976" y="-332" font-family="Helvetica,sans-Serif" font-size="10.00">SparseLU&lt; Eigen::SparseMatrix</text>
<text text-anchor="middle" x="1047" y="-321" font-family="Helvetica,sans-Serif" font-size="10.00">&lt; double, Eigen::ColMajor &gt; &gt;</text>
<polyline fill="none" stroke="#bfbfbf" points="968,-314 1126,-314 "/>
<text text-anchor="middle" x="1047" y="-302" font-family="Helvetica,sans-Serif" font-size="10.00"> </text>
<polyline fill="none" stroke="#bfbfbf" points="968,-295 1126,-295 "/>
<text text-anchor="middle" x="1047" y="-283" font-family="Helvetica,sans-Serif" font-size="10.00"> </text>
</g>
<!-- Node10&#45;&gt;Node1 -->
<g id="edge9" class="edge"><title>Node10&#45;&gt;Node1</title>
<path fill="none" stroke="#404040" d="M1018.81,-275.843C1013.96,-268.43 1009.64,-260.293 1007,-252 995.188,-214.946 994.099,-171.689 996.336,-135.916"/>
<polygon fill="none" stroke="#404040" points="996.362,-135.564 992.819,-129.283 997.254,-123.597 1000.8,-129.878 996.362,-135.564"/>
<text text-anchor="start" x="1007" y="-211" font-family="Helvetica,sans-Serif" font-size="10.00"> +covarianceDynamicsAPosteriori</text>
<text text-anchor="middle" x="1082.5" y="-200" font-family="Helvetica,sans-Serif" font-size="10.00">InverseDecomposition</text>
<text text-anchor="start" x="1007" y="-189" font-family="Helvetica,sans-Serif" font-size="10.00">+covarianceDynamicsPriorInverse</text>
<text text-anchor="middle" x="1082.5" y="-178" font-family="Helvetica,sans-Serif" font-size="10.00">Decomposition</text>
</g>
<!-- Node11 -->
<g id="node11" class="node"><title>Node11</title>
<polygon fill="none" stroke="#bfbfbf" points="1144.5,-281.5 1144.5,-338.5 1215.5,-338.5 1215.5,-281.5 1144.5,-281.5"/>
<text text-anchor="middle" x="1180" y="-326.5" font-family="Helvetica,sans-Serif" font-size="10.00">BerdyHelper</text>
<polyline fill="none" stroke="#bfbfbf" points="1144.5,-319.5 1215.5,-319.5 "/>
<text text-anchor="middle" x="1180" y="-307.5" font-family="Helvetica,sans-Serif" font-size="10.00"> </text>
<polyline fill="none" stroke="#bfbfbf" points="1144.5,-300.5 1215.5,-300.5 "/>
<text text-anchor="middle" x="1180" y="-288.5" font-family="Helvetica,sans-Serif" font-size="10.00"> </text>
</g>
<!-- Node11&#45;&gt;Node1 -->
<g id="edge10" class="edge"><title>Node11&#45;&gt;Node1</title>
<path fill="none" stroke="#404040" d="M1179.4,-281.352C1178,-239.835 1173.36,-163.913 1158,-142 1142.68,-120.14 1119.42,-103.897 1095.67,-92.0206"/>
<polygon fill="none" stroke="#404040" points="1095.6,-91.9883 1088.47,-93.0446 1084.75,-86.8663 1091.88,-85.8099 1095.6,-91.9883"/>
<text text-anchor="middle" x="1200" y="-194.5" font-family="Helvetica,sans-Serif" font-size="10.00"> &#45;m_berdy</text>
</g>
<!-- Node12 -->
<g id="node12" class="node"><title>Node12</title>
<g id="a_node12"><a xlink:href="classyarp_1_1os_1_1_buffered_port.html" target="_top" xlink:title="{yarp::os::BufferedPort\l\&lt; human::HumanForces \&gt;\n||}">
<polygon fill="none" stroke="black" points="1233.5,-276 1233.5,-344 1364.5,-344 1364.5,-276 1233.5,-276"/>
<text text-anchor="start" x="1241.5" y="-332" font-family="Helvetica,sans-Serif" font-size="10.00">yarp::os::BufferedPort</text>
<text text-anchor="middle" x="1299" y="-321" font-family="Helvetica,sans-Serif" font-size="10.00">&lt; human::HumanForces &gt;</text>
<polyline fill="none" stroke="black" points="1233.5,-314 1364.5,-314 "/>
<text text-anchor="middle" x="1299" y="-302" font-family="Helvetica,sans-Serif" font-size="10.00"> </text>
<polyline fill="none" stroke="black" points="1233.5,-295 1364.5,-295 "/>
<text text-anchor="middle" x="1299" y="-283" font-family="Helvetica,sans-Serif" font-size="10.00"> </text>
</a>
</g>
</g>
<!-- Node12&#45;&gt;Node1 -->
<g id="edge11" class="edge"><title>Node12&#45;&gt;Node1</title>
<path fill="none" stroke="#404040" d="M1267.43,-275.809C1261.62,-268.399 1256.11,-260.271 1252,-252 1229.66,-207.004 1259.47,-179.466 1226,-142 1192.99,-105.048 1141.43,-85.3739 1096.52,-74.9018"/>
<polygon fill="none" stroke="#404040" points="1096.38,-74.8713 1089.66,-77.4979 1084.66,-72.309 1091.37,-69.6824 1096.38,-74.8713"/>
<text text-anchor="middle" x="1300.5" y="-194.5" font-family="Helvetica,sans-Serif" font-size="10.00"> &#45;m_humanForcesPort</text>
</g>
<!-- Node13 -->
<g id="node13" class="node"><title>Node13</title>
<g id="a_node13"><a xlink:href="classyarp_1_1os_1_1_buffered_port.html" target="_top" xlink:title="{yarp::os::BufferedPort\l\&lt; human::HumanState \&gt;\n||}">
<polygon fill="none" stroke="black" points="1382.5,-276 1382.5,-344 1507.5,-344 1507.5,-276 1382.5,-276"/>
<text text-anchor="start" x="1390.5" y="-332" font-family="Helvetica,sans-Serif" font-size="10.00">yarp::os::BufferedPort</text>
<text text-anchor="middle" x="1445" y="-321" font-family="Helvetica,sans-Serif" font-size="10.00">&lt; human::HumanState &gt;</text>
<polyline fill="none" stroke="black" points="1382.5,-314 1507.5,-314 "/>
<text text-anchor="middle" x="1445" y="-302" font-family="Helvetica,sans-Serif" font-size="10.00"> </text>
<polyline fill="none" stroke="black" points="1382.5,-295 1507.5,-295 "/>
<text text-anchor="middle" x="1445" y="-283" font-family="Helvetica,sans-Serif" font-size="10.00"> </text>
</a>
</g>
</g>
<!-- Node13&#45;&gt;Node1 -->
<g id="edge12" class="edge"><title>Node13&#45;&gt;Node1</title>
<path fill="none" stroke="#404040" d="M1392.96,-275.974C1384.95,-268.913 1377.53,-260.872 1372,-252 1345.6,-209.603 1383.96,-177.673 1349,-142 1314.35,-106.636 1186.12,-84.3883 1096.68,-72.8215"/>
<polygon fill="none" stroke="#404040" points="1096.51,-72.8001 1090.05,-76.0154 1084.6,-71.294 1091.06,-68.0787 1096.51,-72.8001"/>
<text text-anchor="middle" x="1445" y="-194.5" font-family="Helvetica,sans-Serif" font-size="10.00"> &#45;m_humanJointConfigurationPort</text>
</g>
<!-- Node14 -->
<g id="node14" class="node"><title>Node14</title>
<polygon fill="none" stroke="#bfbfbf" points="1525.5,-276 1525.5,-344 1640.5,-344 1640.5,-276 1525.5,-276"/>
<text text-anchor="start" x="1533.5" y="-332" font-family="Helvetica,sans-Serif" font-size="10.00">SparseMatrix&lt; double,</text>
<text text-anchor="middle" x="1583" y="-321" font-family="Helvetica,sans-Serif" font-size="10.00"> Eigen::ColMajor &gt;</text>
<polyline fill="none" stroke="#bfbfbf" points="1525.5,-314 1640.5,-314 "/>
<text text-anchor="middle" x="1583" y="-302" font-family="Helvetica,sans-Serif" font-size="10.00"> </text>
<polyline fill="none" stroke="#bfbfbf" points="1525.5,-295 1640.5,-295 "/>
<text text-anchor="middle" x="1583" y="-283" font-family="Helvetica,sans-Serif" font-size="10.00"> </text>
</g>
<!-- Node14&#45;&gt;Node1 -->
<g id="edge13" class="edge"><title>Node14&#45;&gt;Node1</title>
<path fill="none" stroke="#404040" d="M1554.91,-275.819C1549.65,-268.346 1544.66,-260.191 1541,-252 1520.61,-206.406 1554.24,-176.368 1518,-142 1458.97,-86.0168 1227.67,-69.7057 1097.06,-64.9535"/>
<polygon fill="none" stroke="#404040" points="1096.74,-64.9425 1090.61,-68.7333 1084.75,-64.5288 1090.88,-60.738 1096.74,-64.9425"/>
<text text-anchor="start" x="1541" y="-211" font-family="Helvetica,sans-Serif" font-size="10.00"> +covarianceDynamicsPrior</text>
<text text-anchor="middle" x="1619.5" y="-200" font-family="Helvetica,sans-Serif" font-size="10.00">Inverse</text>
<text text-anchor="start" x="1541" y="-189" font-family="Helvetica,sans-Serif" font-size="10.00">&#45;m_covarianceDynamicsAPosteriori</text>
<text text-anchor="middle" x="1619.5" y="-178" font-family="Helvetica,sans-Serif" font-size="10.00">Inverse</text>
</g>
<!-- Node15 -->
<g id="node15" class="node"><title>Node15</title>
<polygon fill="none" stroke="#bfbfbf" points="1658.5,-276 1658.5,-344 1781.5,-344 1781.5,-276 1658.5,-276"/>
<text text-anchor="start" x="1666.5" y="-332" font-family="Helvetica,sans-Serif" font-size="10.00">SparseMatrix&lt; iDynTree</text>
<text text-anchor="middle" x="1720" y="-321" font-family="Helvetica,sans-Serif" font-size="10.00">::ColumnMajor &gt;</text>
<polyline fill="none" stroke="#bfbfbf" points="1658.5,-314 1781.5,-314 "/>
<text text-anchor="middle" x="1720" y="-302" font-family="Helvetica,sans-Serif" font-size="10.00"> </text>
<polyline fill="none" stroke="#bfbfbf" points="1658.5,-295 1781.5,-295 "/>
<text text-anchor="middle" x="1720" y="-283" font-family="Helvetica,sans-Serif" font-size="10.00"> </text>
</g>
<!-- Node15&#45;&gt;Node1 -->
<g id="edge14" class="edge"><title>Node15&#45;&gt;Node1</title>
<path fill="none" stroke="#404040" d="M1720.28,-275.921C1719.89,-232.618 1716.41,-160.09 1698,-142 1655.87,-100.593 1274.86,-76.3695 1096.86,-67.2227"/>
<polygon fill="none" stroke="#404040" points="1096.65,-67.2119 1090.45,-70.9024 1084.66,-66.6031 1090.86,-62.9127 1096.65,-67.2119"/>
<text text-anchor="middle" x="1795" y="-233" font-family="Helvetica,sans-Serif" font-size="10.00"> &#45;m_dynamicsConstraintsMatrix</text>
<text text-anchor="start" x="1720" y="-222" font-family="Helvetica,sans-Serif" font-size="10.00">&#45;m_priorDynamicsConstraints</text>
<text text-anchor="middle" x="1795" y="-211" font-family="Helvetica,sans-Serif" font-size="10.00">CovarianceInverse</text>
<text text-anchor="start" x="1720" y="-200" font-family="Helvetica,sans-Serif" font-size="10.00">&#45;m_priorMeasurementsCovariance</text>
<text text-anchor="middle" x="1795" y="-189" font-family="Helvetica,sans-Serif" font-size="10.00">Inverse</text>
<text text-anchor="start" x="1720" y="-178" font-family="Helvetica,sans-Serif" font-size="10.00">&#45;m_priorDynamicsRegularization</text>
<text text-anchor="middle" x="1795" y="-167" font-family="Helvetica,sans-Serif" font-size="10.00">CovarianceInverse</text>
<text text-anchor="middle" x="1795" y="-156" font-family="Helvetica,sans-Serif" font-size="10.00">&#45;m_measurementsMatrix</text>
</g>
<!-- Node16 -->
<g id="node16" class="node"><title>Node16</title>
<polygon fill="none" stroke="#bfbfbf" points="1943.5,-281 1943.5,-339 1972.5,-339 1972.5,-281 1943.5,-281"/>
<polyline fill="none" stroke="#bfbfbf" points="1943.5,-319 1972.5,-319 "/>
<text text-anchor="middle" x="1958" y="-307" font-family="Helvetica,sans-Serif" font-size="10.00"> </text>
<polyline fill="none" stroke="#bfbfbf" points="1943.5,-300 1972.5,-300 "/>
<text text-anchor="middle" x="1958" y="-288" font-family="Helvetica,sans-Serif" font-size="10.00"> </text>
</g>
<!-- Node16&#45;&gt;Node1 -->
<g id="edge15" class="edge"><title>Node16&#45;&gt;Node1</title>
<path fill="none" stroke="#404040" d="M1943.33,-300.027C1928.5,-290.146 1906.07,-272.862 1894,-252 1868.98,-208.772 1908.29,-175.228 1871,-142 1814.08,-91.2807 1307.34,-71.3957 1096.94,-65.2794"/>
<polygon fill="none" stroke="#404040" points="1096.72,-65.2732 1090.61,-69.1 1084.73,-64.9301 1090.84,-61.1033 1096.72,-65.2732"/>
<text text-anchor="middle" x="1947.5" y="-194.5" font-family="Helvetica,sans-Serif" font-size="10.00"> &#45;m_inputOutputMapping</text>
</g>
<!-- Node16&#45;&gt;Node1 -->
<g id="edge16" class="edge"><title>Node16&#45;&gt;Node1</title>
<path fill="none" stroke="#404040" d="M1972.66,-295.087C1982.79,-284.403 1995.41,-268.691 2001,-252 2016.52,-205.642 2034.17,-177.912 2001,-142 1940.35,-76.348 1331.24,-65.2054 1097.06,-63.3532"/>
<polygon fill="none" stroke="#404040" points="1096.85,-63.3518 1090.82,-67.307 1084.85,-63.2625 1090.88,-59.3072 1096.85,-63.3518"/>
<text text-anchor="middle" x="2079" y="-194.5" font-family="Helvetica,sans-Serif" font-size="10.00"> &#45;m_intermediateQuantities</text>
</g>
<!-- Node17 -->
<g id="node17" class="node"><title>Node17</title>
<polygon fill="none" stroke="#bfbfbf" points="2122.5,-281.5 2122.5,-338.5 2205.5,-338.5 2205.5,-281.5 2122.5,-281.5"/>
<text text-anchor="middle" x="2164" y="-326.5" font-family="Helvetica,sans-Serif" font-size="10.00">VectorDynSize</text>
<polyline fill="none" stroke="#bfbfbf" points="2122.5,-319.5 2205.5,-319.5 "/>
<text text-anchor="middle" x="2164" y="-307.5" font-family="Helvetica,sans-Serif" font-size="10.00"> </text>
<polyline fill="none" stroke="#bfbfbf" points="2122.5,-300.5 2205.5,-300.5 "/>
<text text-anchor="middle" x="2164" y="-288.5" font-family="Helvetica,sans-Serif" font-size="10.00"> </text>
</g>
<!-- Node17&#45;&gt;Node1 -->
<g id="edge17" class="edge"><title>Node17&#45;&gt;Node1</title>
<path fill="none" stroke="#404040" d="M2169.78,-281.235C2175.79,-243.717 2179.71,-177.457 2142,-142 2066.54,-71.0476 1353.34,-63.3204 1097.11,-62.8515"/>
<polygon fill="none" stroke="#404040" points="1096.89,-62.8513 1090.89,-66.8426 1084.89,-62.834 1090.9,-58.8427 1096.89,-62.8513"/>
<text text-anchor="start" x="2173" y="-244" font-family="Helvetica,sans-Serif" font-size="10.00"> +expectedDynamicsAPosteriori</text>
<text text-anchor="middle" x="2247.5" y="-233" font-family="Helvetica,sans-Serif" font-size="10.00">RHS</text>
<text text-anchor="middle" x="2247.5" y="-222" font-family="Helvetica,sans-Serif" font-size="10.00">&#45;m_measurements</text>
<text text-anchor="start" x="2173" y="-211" font-family="Helvetica,sans-Serif" font-size="10.00">&#45;m_priorDynamicsRegularization</text>
<text text-anchor="middle" x="2247.5" y="-200" font-family="Helvetica,sans-Serif" font-size="10.00">ExpectedValue</text>
<text text-anchor="middle" x="2247.5" y="-189" font-family="Helvetica,sans-Serif" font-size="10.00">&#45;m_expectedDynamicsAPosteriori</text>
<text text-anchor="middle" x="2247.5" y="-178" font-family="Helvetica,sans-Serif" font-size="10.00">&#45;m_dynamicsConstraintsBias</text>
<text text-anchor="middle" x="2247.5" y="-167" font-family="Helvetica,sans-Serif" font-size="10.00">+expectedDynamicsPriorRHS</text>
<text text-anchor="middle" x="2247.5" y="-156" font-family="Helvetica,sans-Serif" font-size="10.00">+expectedDynamicsPrior</text>
<text text-anchor="middle" x="2247.5" y="-145" font-family="Helvetica,sans-Serif" font-size="10.00">&#45;m_measurementsBias</text>
</g>
</g>
</svg>
