<?xml version="1.0" encoding="UTF-8" standalone="no"?>
<!DOCTYPE svg PUBLIC "-//W3C//DTD SVG 1.1//EN"
 "http://www.w3.org/Graphics/SVG/1.1/DTD/svg11.dtd">
<!-- Generated by graphviz version 2.36.0 (20140111.2315)
 -->
<!-- Title: human::Force6D Pages: 1 -->
<!--zoomable 458 -->
<svg id="main" version="1.1" xmlns="http://www.w3.org/2000/svg" xmlns:xlink="http://www.w3.org/1999/xlink" xml:space="preserve" onload="init(evt)">
<style type="text/css"><![CDATA[
.edge:hover path { stroke: red; }
.edge:hover polygon { stroke: red; fill: red; }
]]></style>
<script type="text/javascript"><![CDATA[
var edges = document.getElementsByTagName('g');
if (edges && edges.length) {
  for (var i=0;i<edges.length;i++) {
    if (edges[i].id.substr(0,4)=='edge') {
      edges[i].setAttribute('class','edge');
    }
  }
}
]]></script>
        <defs>
                <circle id="rim" cx="0" cy="0" r="7"/>
                <circle id="rim2" cx="0" cy="0" r="3.5"/>
                <g id="zoomPlus">
                        <use xlink:href="#rim" fill="#404040">
                                <set attributeName="fill" to="#808080" begin="zoomplus.mouseover" end="zoomplus.mouseout"/>
                        </use>
                        <path d="M-4,0h8M0,-4v8" fill="none" stroke="white" stroke-width="1.5" pointer-events="none"/>
                </g>
                <g id="zoomMin">
                        <use xlink:href="#rim" fill="#404040">
                                <set attributeName="fill" to="#808080" begin="zoomminus.mouseover" end="zoomminus.mouseout"/>
                        </use>
                        <path d="M-4,0h8" fill="none" stroke="white" stroke-width="1.5" pointer-events="none"/>
                </g>
                <g id="dirArrow">
                        <path fill="none" stroke="white" stroke-width="1.5" d="M0,-3.0v7 M-2.5,-0.5L0,-3.0L2.5,-0.5"/>
                </g>
               <g id="resetDef">
                       <use xlink:href="#rim2" fill="#404040">
                               <set attributeName="fill" to="#808080" begin="reset.mouseover" end="reset.mouseout"/>
                       </use>
               </g>
        </defs>

<script type="text/javascript">
var viewWidth = 245;
var viewHeight = 458;
var sectionId = 'dynsection-1';
</script>
<script xlink:href="svgpan.js"/>
<svg id="graph" class="graph">
<g id="viewport">
<title>human::Force6D</title>
<!-- Node1 -->
<g id="node1" class="node"><title>Node1</title>
<polygon fill="#bfbfbf" stroke="black" points="10,-1 10,-289 172,-289 172,-1 10,-1"/>
<text text-anchor="middle" x="91" y="-277" font-family="Helvetica,sans-Serif" font-size="10.00">human::Force6D</text>
<polyline fill="none" stroke="black" points="10,-270 172,-270 "/>
<text text-anchor="middle" x="91" y="-258" font-family="Helvetica,sans-Serif" font-size="10.00"> </text>
<polyline fill="none" stroke="black" points="10,-251 172,-251 "/>
<text text-anchor="start" x="18" y="-239" font-family="Helvetica,sans-Serif" font-size="10.00">+ Force6D()</text>
<text text-anchor="start" x="18" y="-228" font-family="Helvetica,sans-Serif" font-size="10.00">+ Force6D()</text>
<text text-anchor="start" x="18" y="-217" font-family="Helvetica,sans-Serif" font-size="10.00">+ Force6D()</text>
<text text-anchor="start" x="18" y="-206" font-family="Helvetica,sans-Serif" font-size="10.00">+ operator=()</text>
<text text-anchor="start" x="18" y="-195" font-family="Helvetica,sans-Serif" font-size="10.00">+ read()</text>
<text text-anchor="start" x="18" y="-184" font-family="Helvetica,sans-Serif" font-size="10.00">+ read()</text>
<text text-anchor="start" x="18" y="-173" font-family="Helvetica,sans-Serif" font-size="10.00">+ write()</text>
<text text-anchor="start" x="18" y="-162" font-family="Helvetica,sans-Serif" font-size="10.00">+ write()</text>
<text text-anchor="start" x="18" y="-151" font-family="Helvetica,sans-Serif" font-size="10.00">+ toString()</text>
<text text-anchor="start" x="18" y="-140" font-family="Helvetica,sans-Serif" font-size="10.00">+ Force6D()</text>
<text text-anchor="start" x="18" y="-129" font-family="Helvetica,sans-Serif" font-size="10.00">and 8 more...</text>
<text text-anchor="start" x="18" y="-118" font-family="Helvetica,sans-Serif" font-size="10.00">&#45; write_appliedLink()</text>
<text text-anchor="start" x="18" y="-107" font-family="Helvetica,sans-Serif" font-size="10.00">&#45; nested_write_appliedLink()</text>
<text text-anchor="start" x="18" y="-96" font-family="Helvetica,sans-Serif" font-size="10.00">&#45; write_expressedFrame()</text>
<text text-anchor="start" x="18" y="-85" font-family="Helvetica,sans-Serif" font-size="10.00">&#45; nested_write_expressedFrame()</text>
<text text-anchor="start" x="18" y="-74" font-family="Helvetica,sans-Serif" font-size="10.00">&#45; write_fx()</text>
<text text-anchor="start" x="18" y="-63" font-family="Helvetica,sans-Serif" font-size="10.00">&#45; nested_write_fx()</text>
<text text-anchor="start" x="18" y="-52" font-family="Helvetica,sans-Serif" font-size="10.00">&#45; write_fy()</text>
<text text-anchor="start" x="18" y="-41" font-family="Helvetica,sans-Serif" font-size="10.00">&#45; nested_write_fy()</text>
<text text-anchor="start" x="18" y="-30" font-family="Helvetica,sans-Serif" font-size="10.00">&#45; write_fz()</text>
<text text-anchor="start" x="18" y="-19" font-family="Helvetica,sans-Serif" font-size="10.00">&#45; nested_write_fz()</text>
<text text-anchor="start" x="18" y="-8" font-family="Helvetica,sans-Serif" font-size="10.00">and 54 more...</text>
</g>
<!-- Node2 -->
<g id="node2" class="node"><title>Node2</title>
<g id="a_node2"><a xlink:href="classyarp_1_1os_1_1idl_1_1_wire_portable.html" target="_top" xlink:title="{WirePortable\n||}">
<polygon fill="none" stroke="black" points="-0.5,-392.5 -0.5,-449.5 72.5,-449.5 72.5,-392.5 -0.5,-392.5"/>
<text text-anchor="middle" x="36" y="-437.5" font-family="Helvetica,sans-Serif" font-size="10.00">WirePortable</text>
<polyline fill="none" stroke="black" points="-0.5,-430.5 72.5,-430.5 "/>
<text text-anchor="middle" x="36" y="-418.5" font-family="Helvetica,sans-Serif" font-size="10.00"> </text>
<polyline fill="none" stroke="black" points="-0.5,-411.5 72.5,-411.5 "/>
<text text-anchor="middle" x="36" y="-399.5" font-family="Helvetica,sans-Serif" font-size="10.00"> </text>
</a>
</g>
</g>
<!-- Node2&#45;&gt;Node1 -->
<g id="edge1" class="edge"><title>Node2&#45;&gt;Node1</title>
<path fill="none" stroke="midnightblue" d="M38.7141,-382.484C42.4559,-357.779 48.6527,-323.706 55.529,-289.113"/>
<polygon fill="none" stroke="midnightblue" points="35.237,-382.075 37.2659,-392.473 42.1645,-383.079 35.237,-382.075"/>
</g>
<!-- Node2&#45;&gt;Node1 -->
<g id="edge2" class="edge"><title>Node2&#45;&gt;Node1</title>
<path fill="none" stroke="midnightblue" d="M48.3469,-382.484C54.5235,-357.779 62.0054,-323.706 69.017,-289.113"/>
<polygon fill="none" stroke="midnightblue" points="44.8792,-381.917 45.7849,-392.473 51.6597,-383.656 44.8792,-381.917"/>
</g>
<!-- Node3 -->
<g id="node3" class="node"><title>Node3</title>
<polygon fill="none" stroke="#bfbfbf" points="90.5,-392.5 90.5,-449.5 135.5,-449.5 135.5,-392.5 90.5,-392.5"/>
<text text-anchor="middle" x="113" y="-437.5" font-family="Helvetica,sans-Serif" font-size="10.00">double</text>
<polyline fill="none" stroke="#bfbfbf" points="90.5,-430.5 135.5,-430.5 "/>
<text text-anchor="middle" x="113" y="-418.5" font-family="Helvetica,sans-Serif" font-size="10.00"> </text>
<polyline fill="none" stroke="#bfbfbf" points="90.5,-411.5 135.5,-411.5 "/>
<text text-anchor="middle" x="113" y="-399.5" font-family="Helvetica,sans-Serif" font-size="10.00"> </text>
</g>
<!-- Node3&#45;&gt;Node1 -->
<g id="edge3" class="edge"><title>Node3&#45;&gt;Node1</title>
<path fill="none" stroke="#404040" d="M110.79,-392.473C108.989,-370.039 106.287,-336.397 103.455,-301.124"/>
<polygon fill="none" stroke="#404040" points="103.451,-301.074 98.9839,-295.414 102.491,-289.113 106.958,-294.773 103.451,-301.074"/>
<text text-anchor="middle" x="117" y="-366" font-family="Helvetica,sans-Serif" font-size="10.00"> +fx</text>
<text text-anchor="middle" x="117" y="-355" font-family="Helvetica,sans-Serif" font-size="10.00">+fy</text>
<text text-anchor="middle" x="117" y="-344" font-family="Helvetica,sans-Serif" font-size="10.00">+ux</text>
<text text-anchor="middle" x="117" y="-333" font-family="Helvetica,sans-Serif" font-size="10.00">+fz</text>
<text text-anchor="middle" x="117" y="-322" font-family="Helvetica,sans-Serif" font-size="10.00">+uy</text>
<text text-anchor="middle" x="117" y="-311" font-family="Helvetica,sans-Serif" font-size="10.00">+uz</text>
</g>
<!-- Node4 -->
<g id="node4" class="node"><title>Node4</title>
<polygon fill="none" stroke="#bfbfbf" points="153.5,-392.5 153.5,-449.5 194.5,-449.5 194.5,-392.5 153.5,-392.5"/>
<text text-anchor="middle" x="174" y="-437.5" font-family="Helvetica,sans-Serif" font-size="10.00">string</text>
<polyline fill="none" stroke="#bfbfbf" points="153.5,-430.5 194.5,-430.5 "/>
<text text-anchor="middle" x="174" y="-418.5" font-family="Helvetica,sans-Serif" font-size="10.00"> </text>
<polyline fill="none" stroke="#bfbfbf" points="153.5,-411.5 194.5,-411.5 "/>
<text text-anchor="middle" x="174" y="-399.5" font-family="Helvetica,sans-Serif" font-size="10.00"> </text>
</g>
<!-- Node4&#45;&gt;Node1 -->
<g id="edge4" class="edge"><title>Node4&#45;&gt;Node1</title>
<path fill="none" stroke="#404040" d="M165.662,-392.473C158.836,-369.941 148.586,-336.104 137.851,-300.664"/>
<polygon fill="none" stroke="#404040" points="137.831,-300.597 132.263,-296.015 134.352,-289.113 139.919,-293.695 137.831,-300.597"/>
<text text-anchor="middle" x="197.5" y="-344" font-family="Helvetica,sans-Serif" font-size="10.00"> +appliedLink</text>
<text text-anchor="middle" x="197.5" y="-333" font-family="Helvetica,sans-Serif" font-size="10.00">+expressedFrame</text>
</g>
</g>
</svg>
        <g id="navigator" transform="translate(0 0)" fill="#404254">
                <rect fill="#f2f5e9" fill-opacity="0.5" stroke="#606060" stroke-width=".5" x="0" y="0" width="60" height="60"/>
                <use id="zoomplus" xlink:href="#zoomPlus" x="17" y="9" onmousedown="handleZoom(evt,'in')"/>
                <use id="zoomminus" xlink:href="#zoomMin" x="42" y="9" onmousedown="handleZoom(evt,'out')"/>
                <use id="reset" xlink:href="#resetDef" x="30" y="36" onmousedown="handleReset()"/>
                <g id="arrowUp" xlink:href="#dirArrow" transform="translate(30 24)" onmousedown="handlePan(0,-1)">
                  <use xlink:href="#rim" fill="#404040">
                        <set attributeName="fill" to="#808080" begin="arrowUp.mouseover" end="arrowUp.mouseout"/>
                  </use>
                  <path fill="none" stroke="white" stroke-width="1.5" d="M0,-3.0v7 M-2.5,-0.5L0,-3.0L2.5,-0.5"/>
                </g>
                <g id="arrowRight" xlink:href="#dirArrow" transform="rotate(90) translate(36 -43)" onmousedown="handlePan(1,0)">
                  <use xlink:href="#rim" fill="#404040">
                        <set attributeName="fill" to="#808080" begin="arrowRight.mouseover" end="arrowRight.mouseout"/>
                  </use>
                  <path fill="none" stroke="white" stroke-width="1.5" d="M0,-3.0v7 M-2.5,-0.5L0,-3.0L2.5,-0.5"/>
                </g>
                <g id="arrowDown" xlink:href="#dirArrow" transform="rotate(180) translate(-30 -48)" onmousedown="handlePan(0,1)">
                  <use xlink:href="#rim" fill="#404040">
                        <set attributeName="fill" to="#808080" begin="arrowDown.mouseover" end="arrowDown.mouseout"/>
                  </use>
                  <path fill="none" stroke="white" stroke-width="1.5" d="M0,-3.0v7 M-2.5,-0.5L0,-3.0L2.5,-0.5"/>
                </g>
                <g id="arrowLeft" xlink:href="#dirArrow" transform="rotate(270) translate(-36 17)" onmousedown="handlePan(-1,0)">
                  <use xlink:href="#rim" fill="#404040">
                        <set attributeName="fill" to="#808080" begin="arrowLeft.mouseover" end="arrowLeft.mouseout"/>
                  </use>
                  <path fill="none" stroke="white" stroke-width="1.5" d="M0,-3.0v7 M-2.5,-0.5L0,-3.0L2.5,-0.5"/>
                </g>
        </g>
        <svg viewBox="0 0 15 15" width="100%" height="30px" preserveAspectRatio="xMaxYMin meet">
         <g id="arrow_out" transform="scale(0.3 0.3)">
          <a xlink:href="classhuman_1_1_force6_d__coll__graph_org.svg" target="_base">
           <rect id="button" ry="5" rx="5" y="6" x="6" height="38" width="38"
                fill="#f2f5e9" fill-opacity="0.5" stroke="#606060" stroke-width="1.0"/>
           <path id="arrow"
             d="M 11.500037,31.436501 C 11.940474,20.09759 22.043105,11.32322 32.158766,21.979434 L 37.068811,17.246167 C 37.068811,17.246167 37.088388,32 37.088388,32 L 22.160133,31.978069 C 22.160133,31.978069 26.997745,27.140456 26.997745,27.140456 C 18.528582,18.264221 13.291696,25.230495 11.500037,31.436501 z"
             style="fill:#404040;"/>
          </a>
         </g>
        </svg>
</svg>
