<?xml version="1.0" encoding="UTF-8" standalone="no"?>
<!DOCTYPE svg PUBLIC "-//W3C//DTD SVG 1.1//EN"
 "http://www.w3.org/Graphics/SVG/1.1/DTD/svg11.dtd">
<!-- Generated by graphviz version 2.36.0 (20140111.2315)
 -->
<!-- Title: std_msgs_Header Pages: 1 -->
<svg width="279pt" height="508pt"
 viewBox="0.00 0.00 279.00 508.00" xmlns="http://www.w3.org/2000/svg" xmlns:xlink="http://www.w3.org/1999/xlink">
<g id="graph0" class="graph" transform="scale(1 1) rotate(0) translate(4 504)">
<title>std_msgs_Header</title>
<!-- Node1 -->
<g id="node1" class="node"><title>Node1</title>
<polygon fill="#bfbfbf" stroke="black" points="52.5,-0.5 52.5,-167.5 163.5,-167.5 163.5,-0.5 52.5,-0.5"/>
<text text-anchor="middle" x="108" y="-155.5" font-family="Helvetica,sans-Serif" font-size="10.00">std_msgs_Header</text>
<polyline fill="none" stroke="black" points="52.5,-148.5 163.5,-148.5 "/>
<text text-anchor="middle" x="108" y="-136.5" font-family="Helvetica,sans-Serif" font-size="10.00"> </text>
<polyline fill="none" stroke="black" points="52.5,-129.5 163.5,-129.5 "/>
<text text-anchor="start" x="60.5" y="-117.5" font-family="Helvetica,sans-Serif" font-size="10.00">+ std_msgs_Header()</text>
<text text-anchor="start" x="60.5" y="-106.5" font-family="Helvetica,sans-Serif" font-size="10.00">+ clear()</text>
<text text-anchor="start" x="60.5" y="-95.5" font-family="Helvetica,sans-Serif" font-size="10.00">+ readBare()</text>
<text text-anchor="start" x="60.5" y="-84.5" font-family="Helvetica,sans-Serif" font-size="10.00">+ readBottle()</text>
<text text-anchor="start" x="60.5" y="-73.5" font-family="Helvetica,sans-Serif" font-size="10.00">+ read()</text>
<text text-anchor="start" x="60.5" y="-62.5" font-family="Helvetica,sans-Serif" font-size="10.00">+ writeBare()</text>
<text text-anchor="start" x="60.5" y="-51.5" font-family="Helvetica,sans-Serif" font-size="10.00">+ writeBottle()</text>
<text text-anchor="start" x="60.5" y="-40.5" font-family="Helvetica,sans-Serif" font-size="10.00">+ write()</text>
<text text-anchor="start" x="60.5" y="-29.5" font-family="Helvetica,sans-Serif" font-size="10.00">+ getTypeText()</text>
<text text-anchor="start" x="60.5" y="-18.5" font-family="Helvetica,sans-Serif" font-size="10.00">+ getType()</text>
<text text-anchor="start" x="60.5" y="-7.5" font-family="Helvetica,sans-Serif" font-size="10.00">and 10 more...</text>
</g>
<!-- Node2 -->
<g id="node2" class="node"><title>Node2</title>
<g id="a_node2"><a xlink:href="classyarp_1_1os_1_1idl_1_1_wire_portable.html" target="_top" xlink:title="{WirePortable\n||}">
<polygon fill="none" stroke="black" points="-0.5,-442.5 -0.5,-499.5 72.5,-499.5 72.5,-442.5 -0.5,-442.5"/>
<text text-anchor="middle" x="36" y="-487.5" font-family="Helvetica,sans-Serif" font-size="10.00">WirePortable</text>
<polyline fill="none" stroke="black" points="-0.5,-480.5 72.5,-480.5 "/>
<text text-anchor="middle" x="36" y="-468.5" font-family="Helvetica,sans-Serif" font-size="10.00"> </text>
<polyline fill="none" stroke="black" points="-0.5,-461.5 72.5,-461.5 "/>
<text text-anchor="middle" x="36" y="-449.5" font-family="Helvetica,sans-Serif" font-size="10.00"> </text>
</a>
</g>
</g>
<!-- Node2&#45;&gt;Node1 -->
<g id="edge1" class="edge"><title>Node2&#45;&gt;Node1</title>
<path fill="none" stroke="midnightblue" d="M29.3348,-432.092C26.5851,-381.975 29.5282,-291.222 47,-216 50.7092,-200.031 56.0387,-183.447 62.0477,-167.665"/>
<polygon fill="none" stroke="midnightblue" points="25.8478,-432.405 30.0048,-442.15 32.8323,-431.939 25.8478,-432.405"/>
</g>
<!-- Node2&#45;&gt;Node1 -->
<g id="edge2" class="edge"><title>Node2&#45;&gt;Node1</title>
<path fill="none" stroke="midnightblue" d="M41.6259,-432.092C44.5851,-381.975 47.5282,-291.222 65,-216 68.7092,-200.031 74.0387,-183.447 79.725,-167.665"/>
<polygon fill="none" stroke="midnightblue" points="38.1281,-431.949 40.989,-442.15 45.1141,-432.391 38.1281,-431.949"/>
</g>
<!-- Node3 -->
<g id="node3" class="node"><title>Node3</title>
<g id="a_node3"><a xlink:href="class_tick_time.html" target="_top" xlink:title="{TickTime\n||+ TickTime()\l+ clear()\l+ readBare()\l+ readBottle()\l+ read()\l+ writeBare()\l+ writeBottle()\l+ write()\l+ getTypeText()\l+ getType()\land 10 more...\l}">
<polygon fill="none" stroke="black" points="65,-216.5 65,-383.5 151,-383.5 151,-216.5 65,-216.5"/>
<text text-anchor="middle" x="108" y="-371.5" font-family="Helvetica,sans-Serif" font-size="10.00">TickTime</text>
<polyline fill="none" stroke="black" points="65,-364.5 151,-364.5 "/>
<text text-anchor="middle" x="108" y="-352.5" font-family="Helvetica,sans-Serif" font-size="10.00"> </text>
<polyline fill="none" stroke="black" points="65,-345.5 151,-345.5 "/>
<text text-anchor="start" x="73" y="-333.5" font-family="Helvetica,sans-Serif" font-size="10.00">+ TickTime()</text>
<text text-anchor="start" x="73" y="-322.5" font-family="Helvetica,sans-Serif" font-size="10.00">+ clear()</text>
<text text-anchor="start" x="73" y="-311.5" font-family="Helvetica,sans-Serif" font-size="10.00">+ readBare()</text>
<text text-anchor="start" x="73" y="-300.5" font-family="Helvetica,sans-Serif" font-size="10.00">+ readBottle()</text>
<text text-anchor="start" x="73" y="-289.5" font-family="Helvetica,sans-Serif" font-size="10.00">+ read()</text>
<text text-anchor="start" x="73" y="-278.5" font-family="Helvetica,sans-Serif" font-size="10.00">+ writeBare()</text>
<text text-anchor="start" x="73" y="-267.5" font-family="Helvetica,sans-Serif" font-size="10.00">+ writeBottle()</text>
<text text-anchor="start" x="73" y="-256.5" font-family="Helvetica,sans-Serif" font-size="10.00">+ write()</text>
<text text-anchor="start" x="73" y="-245.5" font-family="Helvetica,sans-Serif" font-size="10.00">+ getTypeText()</text>
<text text-anchor="start" x="73" y="-234.5" font-family="Helvetica,sans-Serif" font-size="10.00">+ getType()</text>
<text text-anchor="start" x="73" y="-223.5" font-family="Helvetica,sans-Serif" font-size="10.00">and 10 more...</text>
</a>
</g>
</g>
<!-- Node2&#45;&gt;Node3 -->
<g id="edge4" class="edge"><title>Node2&#45;&gt;Node3</title>
<path fill="none" stroke="midnightblue" d="M46.1231,-432.855C51.6116,-418.271 58.6597,-400.909 66.0395,-383.65"/>
<polygon fill="none" stroke="midnightblue" points="42.7533,-431.878 42.5876,-442.471 49.3233,-434.293 42.7533,-431.878"/>
</g>
<!-- Node2&#45;&gt;Node3 -->
<g id="edge5" class="edge"><title>Node2&#45;&gt;Node3</title>
<path fill="none" stroke="midnightblue" d="M57.3276,-433.274C64.3158,-418.605 72.14,-401.075 79.5366,-383.65"/>
<polygon fill="none" stroke="midnightblue" points="54.0821,-431.946 52.869,-442.471 60.3809,-435 54.0821,-431.946"/>
</g>
<!-- Node3&#45;&gt;Node1 -->
<g id="edge3" class="edge"><title>Node3&#45;&gt;Node1</title>
<path fill="none" stroke="#404040" d="M108,-216.262C108,-204.265 108,-191.839 108,-179.63"/>
<polygon fill="none" stroke="#404040" points="108,-179.518 104,-173.518 108,-167.518 112,-173.518 108,-179.518"/>
<text text-anchor="middle" x="126.5" y="-189.5" font-family="Helvetica,sans-Serif" font-size="10.00"> +stamp</text>
</g>
<!-- Node4 -->
<g id="node4" class="node"><title>Node4</title>
<polygon fill="none" stroke="#bfbfbf" points="105.5,-442.5 105.5,-499.5 166.5,-499.5 166.5,-442.5 105.5,-442.5"/>
<text text-anchor="middle" x="136" y="-487.5" font-family="Helvetica,sans-Serif" font-size="10.00">NetUint32</text>
<polyline fill="none" stroke="#bfbfbf" points="105.5,-480.5 166.5,-480.5 "/>
<text text-anchor="middle" x="136" y="-468.5" font-family="Helvetica,sans-Serif" font-size="10.00"> </text>
<polyline fill="none" stroke="#bfbfbf" points="105.5,-461.5 166.5,-461.5 "/>
<text text-anchor="middle" x="136" y="-449.5" font-family="Helvetica,sans-Serif" font-size="10.00"> </text>
</g>
<!-- Node4&#45;&gt;Node1 -->
<g id="edge7" class="edge"><title>Node4&#45;&gt;Node1</title>
<path fill="none" stroke="#404040" d="M153.22,-442.136C156.024,-436.338 158.498,-430.124 160,-424 182.014,-334.215 176.161,-307.021 160,-216 157.844,-203.859 154.522,-191.421 150.577,-179.274"/>
<polygon fill="none" stroke="#404040" points="150.513,-179.088 144.783,-174.71 146.62,-167.737 152.35,-172.115 150.513,-179.088"/>
<text text-anchor="middle" x="187.5" y="-297.5" font-family="Helvetica,sans-Serif" font-size="10.00"> +seq</text>
</g>
<!-- Node4&#45;&gt;Node3 -->
<g id="edge6" class="edge"><title>Node4&#45;&gt;Node3</title>
<path fill="none" stroke="#404040" d="M131.439,-442.471C129.261,-429.324 126.512,-412.733 123.67,-395.58"/>
<polygon fill="none" stroke="#404040" points="123.655,-395.489 118.728,-390.223 121.694,-383.65 126.62,-388.916 123.655,-395.489"/>
<text text-anchor="middle" x="142" y="-416" font-family="Helvetica,sans-Serif" font-size="10.00"> +sec</text>
<text text-anchor="middle" x="142" y="-405" font-family="Helvetica,sans-Serif" font-size="10.00">+nsec</text>
</g>
<!-- Node5 -->
<g id="node5" class="node"><title>Node5</title>
<polygon fill="none" stroke="#bfbfbf" points="230.5,-271.5 230.5,-328.5 271.5,-328.5 271.5,-271.5 230.5,-271.5"/>
<text text-anchor="middle" x="251" y="-316.5" font-family="Helvetica,sans-Serif" font-size="10.00">string</text>
<polyline fill="none" stroke="#bfbfbf" points="230.5,-309.5 271.5,-309.5 "/>
<text text-anchor="middle" x="251" y="-297.5" font-family="Helvetica,sans-Serif" font-size="10.00"> </text>
<polyline fill="none" stroke="#bfbfbf" points="230.5,-290.5 271.5,-290.5 "/>
<text text-anchor="middle" x="251" y="-278.5" font-family="Helvetica,sans-Serif" font-size="10.00"> </text>
</g>
<!-- Node5&#45;&gt;Node1 -->
<g id="edge8" class="edge"><title>Node5&#45;&gt;Node1</title>
<path fill="none" stroke="#404040" d="M239.777,-271.138C233.119,-254.934 224.369,-234.184 216,-216 209.767,-202.458 209.465,-198.27 201,-186 192.349,-173.46 182.22,-160.886 171.892,-149.077"/>
<polygon fill="none" stroke="#404040" points="171.585,-148.734 164.605,-146.925 163.59,-139.785 170.57,-141.594 171.585,-148.734"/>
<text text-anchor="middle" x="232.5" y="-189.5" font-family="Helvetica,sans-Serif" font-size="10.00"> +frame_id</text>
</g>
</g>
</svg>
