<?xml version="1.0" encoding="UTF-8" standalone="no"?>
<!DOCTYPE svg PUBLIC "-//W3C//DTD SVG 1.1//EN"
 "http://www.w3.org/Graphics/SVG/1.1/DTD/svg11.dtd">
<!-- Generated by graphviz version 2.36.0 (20140111.2315)
 -->
<!-- Title: StateExtendedInputPort Pages: 1 -->
<svg width="144pt" height="166pt"
 viewBox="0.00 0.00 144.00 166.00" xmlns="http://www.w3.org/2000/svg" xmlns:xlink="http://www.w3.org/1999/xlink">
<g id="graph0" class="graph" transform="scale(1 1) rotate(0) translate(4 162)">
<title>StateExtendedInputPort</title>
<!-- Node1 -->
<g id="node1" class="node"><title>Node1</title>
<polygon fill="#bfbfbf" stroke="black" points="7.5,-0.5 7.5,-19.5 128.5,-19.5 128.5,-0.5 7.5,-0.5"/>
<text text-anchor="middle" x="68" y="-7.5" font-family="Helvetica,sans-Serif" font-size="10.00">StateExtendedInputPort</text>
</g>
<!-- Node2 -->
<g id="node2" class="node"><title>Node2</title>
<g id="a_node2"><a xlink:href="classyarp_1_1os_1_1_buffered_port.html" target="_top" xlink:title="yarp::os::BufferedPort\l\&lt; jointData \&gt;">
<polygon fill="none" stroke="black" points="11.5,-59 11.5,-89 124.5,-89 124.5,-59 11.5,-59"/>
<text text-anchor="start" x="19.5" y="-77" font-family="Helvetica,sans-Serif" font-size="10.00">yarp::os::BufferedPort</text>
<text text-anchor="middle" x="68" y="-66" font-family="Helvetica,sans-Serif" font-size="10.00">&lt; jointData &gt;</text>
</a>
</g>
</g>
<!-- Node2&#45;&gt;Node1 -->
<g id="edge1" class="edge"><title>Node2&#45;&gt;Node1</title>
<path fill="none" stroke="midnightblue" d="M68,-48.8706C68,-38.6625 68,-27.4077 68,-19.8419"/>
<polygon fill="midnightblue" stroke="midnightblue" points="64.5001,-48.9312 68,-58.9312 71.5001,-48.9313 64.5001,-48.9312"/>
</g>
<!-- Node3 -->
<g id="node3" class="node"><title>Node3</title>
<g id="a_node3"><a xlink:href="classyarp_1_1os_1_1_buffered_port.html" target="_top" xlink:title="yarp::os::BufferedPort\&lt; T \&gt;">
<polygon fill="none" stroke="black" points="-0.5,-138.5 -0.5,-157.5 136.5,-157.5 136.5,-138.5 -0.5,-138.5"/>
<text text-anchor="middle" x="68" y="-145.5" font-family="Helvetica,sans-Serif" font-size="10.00">yarp::os::BufferedPort&lt; T &gt;</text>
</a>
</g>
</g>
<!-- Node3&#45;&gt;Node2 -->
<g id="edge2" class="edge"><title>Node3&#45;&gt;Node2</title>
<path fill="none" stroke="orange" stroke-dasharray="5,2" d="M68,-128.085C68,-115.915 68,-100.354 68,-89.2316"/>
<polygon fill="orange" stroke="orange" points="64.5001,-128.458 68,-138.458 71.5001,-128.458 64.5001,-128.458"/>
<text text-anchor="middle" x="98.5" y="-111.5" font-family="Helvetica,sans-Serif" font-size="10.00"> &lt; jointData &gt;</text>
</g>
</g>
</svg>
