<?xml version="1.0" encoding="UTF-8" standalone="no"?>
<!DOCTYPE svg PUBLIC "-//W3C//DTD SVG 1.1//EN"
 "http://www.w3.org/Graphics/SVG/1.1/DTD/svg11.dtd">
<!-- Generated by graphviz version 2.36.0 (20140111.2315)
 -->
<!-- Title: human::RobotFrameTransformer Pages: 1 -->
<!--zoomable 410 -->
<svg id="main" version="1.1" xmlns="http://www.w3.org/2000/svg" xmlns:xlink="http://www.w3.org/1999/xlink" xml:space="preserve" onload="init(evt)">
<style type="text/css"><![CDATA[
.edge:hover path { stroke: red; }
.edge:hover polygon { stroke: red; fill: red; }
]]></style>
<script type="text/javascript"><![CDATA[
var edges = document.getElementsByTagName('g');
if (edges && edges.length) {
  for (var i=0;i<edges.length;i++) {
    if (edges[i].id.substr(0,4)=='edge') {
      edges[i].setAttribute('class','edge');
    }
  }
}
]]></script>
        <defs>
                <circle id="rim" cx="0" cy="0" r="7"/>
                <circle id="rim2" cx="0" cy="0" r="3.5"/>
                <g id="zoomPlus">
                        <use xlink:href="#rim" fill="#404040">
                                <set attributeName="fill" to="#808080" begin="zoomplus.mouseover" end="zoomplus.mouseout"/>
                        </use>
                        <path d="M-4,0h8M0,-4v8" fill="none" stroke="white" stroke-width="1.5" pointer-events="none"/>
                </g>
                <g id="zoomMin">
                        <use xlink:href="#rim" fill="#404040">
                                <set attributeName="fill" to="#808080" begin="zoomminus.mouseover" end="zoomminus.mouseout"/>
                        </use>
                        <path d="M-4,0h8" fill="none" stroke="white" stroke-width="1.5" pointer-events="none"/>
                </g>
                <g id="dirArrow">
                        <path fill="none" stroke="white" stroke-width="1.5" d="M0,-3.0v7 M-2.5,-0.5L0,-3.0L2.5,-0.5"/>
                </g>
               <g id="resetDef">
                       <use xlink:href="#rim2" fill="#404040">
                               <set attributeName="fill" to="#808080" begin="reset.mouseover" end="reset.mouseout"/>
                       </use>
               </g>
        </defs>

<script type="text/javascript">
var viewWidth = 1230;
var viewHeight = 410;
var sectionId = 'dynsection-1';
</script>
<script xlink:href="svgpan.js"/>
<svg id="graph" class="graph">
<g id="viewport">
<title>human::RobotFrameTransformer</title>
<!-- Node1 -->
<g id="node1" class="node"><title>Node1</title>
<polygon fill="#bfbfbf" stroke="black" points="510.643,-0.5 510.643,-79.5 668.643,-79.5 668.643,-0.5 510.643,-0.5"/>
<text text-anchor="middle" x="589.643" y="-67.5" font-family="Helvetica,sans-Serif" font-size="10.00">human::RobotFrameTransformer</text>
<polyline fill="none" stroke="black" points="510.643,-60.5 668.643,-60.5 "/>
<text text-anchor="middle" x="589.643" y="-48.5" font-family="Helvetica,sans-Serif" font-size="10.00"> </text>
<polyline fill="none" stroke="black" points="510.643,-41.5 668.643,-41.5 "/>
<text text-anchor="start" x="518.643" y="-29.5" font-family="Helvetica,sans-Serif" font-size="10.00">+ RobotFrameTransformer()</text>
<text text-anchor="start" x="518.643" y="-18.5" font-family="Helvetica,sans-Serif" font-size="10.00">+ init()</text>
<text text-anchor="start" x="518.643" y="-7.5" font-family="Helvetica,sans-Serif" font-size="10.00">+ transformForceFrame()</text>
</g>
<!-- Node2 -->
<g id="node2" class="node"><title>Node2</title>
<g id="a_node2"><a xlink:href="classhuman_1_1_generic_frame_transformer.html" target="_top" xlink:title="Implementation of the FrameTransformer interface for the conversion of the robot forces into human fo...">
<polygon fill="none" stroke="black" points="167.643,-161 167.643,-273 333.643,-273 333.643,-161 167.643,-161"/>
<text text-anchor="middle" x="250.643" y="-261" font-family="Helvetica,sans-Serif" font-size="10.00">human::GenericFrameTransformer</text>
<polyline fill="none" stroke="black" points="167.643,-254 333.643,-254 "/>
<text text-anchor="middle" x="250.643" y="-242" font-family="Helvetica,sans-Serif" font-size="10.00"> </text>
<polyline fill="none" stroke="black" points="167.643,-235 333.643,-235 "/>
<text text-anchor="start" x="175.643" y="-223" font-family="Helvetica,sans-Serif" font-size="10.00">+ GenericFrameTransformer()</text>
<text text-anchor="start" x="175.643" y="-212" font-family="Helvetica,sans-Serif" font-size="10.00">+ getOriginFrame()</text>
<text text-anchor="start" x="175.643" y="-201" font-family="Helvetica,sans-Serif" font-size="10.00">+ getTransformedFrame()</text>
<text text-anchor="start" x="175.643" y="-190" font-family="Helvetica,sans-Serif" font-size="10.00">+ setTransform()</text>
<text text-anchor="start" x="175.643" y="-179" font-family="Helvetica,sans-Serif" font-size="10.00">+ getTransform()</text>
<text text-anchor="start" x="175.643" y="-168" font-family="Helvetica,sans-Serif" font-size="10.00">+ transformForceFrame()</text>
</a>
</g>
</g>
<!-- Node2&#45;&gt;Node1 -->
<g id="edge1" class="edge"><title>Node2&#45;&gt;Node1</title>
<path fill="none" stroke="midnightblue" d="M305.239,-153.729C325.84,-133.443 350.629,-112.451 376.643,-98 417.887,-75.0891 468.789,-61.0268 510.489,-52.6035"/>
<polygon fill="none" stroke="midnightblue" points="302.71,-151.308 298.131,-160.863 307.669,-156.249 302.71,-151.308"/>
</g>
<!-- Node3 -->
<g id="node3" class="node"><title>Node3</title>
<g id="a_node3"><a xlink:href="classhuman_1_1_frame_transformer.html" target="_top" xlink:title="Interface for transforming forces into human frames. In general, given two generic frames A and B...">
<polygon fill="none" stroke="black" points="130.643,-333 130.643,-401 262.643,-401 262.643,-333 130.643,-333"/>
<text text-anchor="middle" x="196.643" y="-389" font-family="Helvetica,sans-Serif" font-size="10.00">human::FrameTransformer</text>
<polyline fill="none" stroke="black" points="130.643,-382 262.643,-382 "/>
<text text-anchor="middle" x="196.643" y="-370" font-family="Helvetica,sans-Serif" font-size="10.00"> </text>
<polyline fill="none" stroke="black" points="130.643,-363 262.643,-363 "/>
<text text-anchor="start" x="138.643" y="-351" font-family="Helvetica,sans-Serif" font-size="10.00">+ transformForceFrame()</text>
<text text-anchor="start" x="138.643" y="-340" font-family="Helvetica,sans-Serif" font-size="10.00">+ ~FrameTransformer()</text>
</a>
</g>
</g>
<!-- Node3&#45;&gt;Node2 -->
<g id="edge2" class="edge"><title>Node3&#45;&gt;Node2</title>
<path fill="none" stroke="midnightblue" d="M202.528,-322.654C204.546,-312.439 207.197,-301.703 210.643,-292 212.843,-285.807 215.505,-279.505 218.399,-273.323"/>
<polygon fill="none" stroke="midnightblue" points="199.058,-322.173 200.714,-332.638 205.945,-323.425 199.058,-322.173"/>
</g>
<!-- Node4 -->
<g id="node4" class="node"><title>Node4</title>
<polygon fill="none" stroke="#bfbfbf" points="16.1431,-338.5 16.1431,-395.5 77.1431,-395.5 77.1431,-338.5 16.1431,-338.5"/>
<text text-anchor="middle" x="46.6431" y="-383.5" font-family="Helvetica,sans-Serif" font-size="10.00">Transform</text>
<polyline fill="none" stroke="#bfbfbf" points="16.1431,-376.5 77.1431,-376.5 "/>
<text text-anchor="middle" x="46.6431" y="-364.5" font-family="Helvetica,sans-Serif" font-size="10.00"> </text>
<polyline fill="none" stroke="#bfbfbf" points="16.1431,-357.5 77.1431,-357.5 "/>
<text text-anchor="middle" x="46.6431" y="-345.5" font-family="Helvetica,sans-Serif" font-size="10.00"> </text>
</g>
<!-- Node4&#45;&gt;Node1 -->
<g id="edge7" class="edge"><title>Node4&#45;&gt;Node1</title>
<path fill="none" stroke="#404040" d="M31.7065,-338.499C10.5523,-295.38 -21.1746,-211.484 20.6431,-160 79.7647,-87.2118 352.886,-57.3924 498.163,-46.5143"/>
<polygon fill="none" stroke="#404040" points="498.563,-46.4851 504.256,-42.0586 510.532,-45.6108 504.839,-50.0373 498.563,-46.4851"/>
<text text-anchor="middle" x="89.6431" y="-220" font-family="Helvetica,sans-Serif" font-size="10.00"> &#45;m_matrixTransform</text>
<text text-anchor="middle" x="89.6431" y="-209" font-family="Helvetica,sans-Serif" font-size="10.00">&#45;m_constTransformFromFixture</text>
</g>
<!-- Node4&#45;&gt;Node2 -->
<g id="edge3" class="edge"><title>Node4&#45;&gt;Node2</title>
<path fill="none" stroke="#404040" d="M65.2932,-338.142C76.6494,-322.881 92.2899,-304.571 109.643,-292 126.754,-279.605 134.673,-283.303 153.643,-274 154.636,-273.513 155.633,-273.02 156.633,-272.522"/>
<polygon fill="none" stroke="#404040" points="156.751,-272.461 160.27,-266.167 167.434,-266.994 163.915,-273.288 156.751,-272.461"/>
<text text-anchor="middle" x="155.143" y="-300.5" font-family="Helvetica,sans-Serif" font-size="10.00"> &#45;m_matrixTransform</text>
</g>
<!-- Node5 -->
<g id="node5" class="node"><title>Node5</title>
<polygon fill="none" stroke="#bfbfbf" points="325.143,-338.5 325.143,-395.5 366.143,-395.5 366.143,-338.5 325.143,-338.5"/>
<text text-anchor="middle" x="345.643" y="-383.5" font-family="Helvetica,sans-Serif" font-size="10.00">string</text>
<polyline fill="none" stroke="#bfbfbf" points="325.143,-376.5 366.143,-376.5 "/>
<text text-anchor="middle" x="345.643" y="-364.5" font-family="Helvetica,sans-Serif" font-size="10.00"> </text>
<polyline fill="none" stroke="#bfbfbf" points="325.143,-357.5 366.143,-357.5 "/>
<text text-anchor="middle" x="345.643" y="-345.5" font-family="Helvetica,sans-Serif" font-size="10.00"> </text>
</g>
<!-- Node5&#45;&gt;Node1 -->
<g id="edge9" class="edge"><title>Node5&#45;&gt;Node1</title>
<path fill="none" stroke="#404040" d="M364.8,-338.382C369.317,-330.771 373.675,-322.315 376.643,-314 399.912,-248.826 361.732,-217.896 399.643,-160 423.513,-123.547 462.84,-96.2194 499.541,-77.0069"/>
<polygon fill="none" stroke="#404040" points="499.609,-76.9727 503.156,-70.6943 510.316,-71.5536 506.769,-77.8321 499.609,-76.9727"/>
<text text-anchor="middle" x="453.643" y="-220" font-family="Helvetica,sans-Serif" font-size="10.00"> &#45;m_humanLinkingFrame</text>
<text text-anchor="middle" x="453.643" y="-209" font-family="Helvetica,sans-Serif" font-size="10.00">&#45;m_robotLinkingFrame</text>
</g>
<!-- Node5&#45;&gt;Node2 -->
<g id="edge4" class="edge"><title>Node5&#45;&gt;Node2</title>
<path fill="none" stroke="#404040" d="M324.953,-356.38C310.137,-349.519 289.699,-340.111 271.643,-332 253.49,-323.845 241.525,-330.662 230.643,-314 224.956,-305.292 223.122,-295.273 223.626,-285.064"/>
<polygon fill="none" stroke="#404040" points="223.64,-284.958 220.455,-278.489 225.202,-273.06 228.387,-279.53 223.64,-284.958"/>
<text text-anchor="middle" x="303.643" y="-306" font-family="Helvetica,sans-Serif" font-size="10.00"> &#45;m_transformedExpressedFrame</text>
<text text-anchor="middle" x="303.643" y="-295" font-family="Helvetica,sans-Serif" font-size="10.00">&#45;m_originExpressedFrame</text>
</g>
<!-- Node6 -->
<g id="node6" class="node"><title>Node6</title>
<polygon fill="none" stroke="#bfbfbf" points="517.143,-188.5 517.143,-245.5 588.143,-245.5 588.143,-188.5 517.143,-188.5"/>
<text text-anchor="middle" x="552.643" y="-233.5" font-family="Helvetica,sans-Serif" font-size="10.00">IEncoders &amp;</text>
<polyline fill="none" stroke="#bfbfbf" points="517.143,-226.5 588.143,-226.5 "/>
<text text-anchor="middle" x="552.643" y="-214.5" font-family="Helvetica,sans-Serif" font-size="10.00"> </text>
<polyline fill="none" stroke="#bfbfbf" points="517.143,-207.5 588.143,-207.5 "/>
<text text-anchor="middle" x="552.643" y="-195.5" font-family="Helvetica,sans-Serif" font-size="10.00"> </text>
</g>
<!-- Node6&#45;&gt;Node1 -->
<g id="edge5" class="edge"><title>Node6&#45;&gt;Node1</title>
<path fill="none" stroke="#404040" d="M533.71,-188.349C519.438,-163.816 504.538,-127.412 518.643,-98 520.099,-94.9646 521.804,-92.0397 523.706,-89.228"/>
<polygon fill="none" stroke="#404040" points="523.921,-88.9567 524.508,-81.7695 531.368,-79.5468 530.781,-86.734 523.921,-88.9567"/>
<text text-anchor="start" x="518.643" y="-123" font-family="Helvetica,sans-Serif" font-size="10.00"> &#45;m_robotJointConfiguration</text>
<text text-anchor="middle" x="579.143" y="-112" font-family="Helvetica,sans-Serif" font-size="10.00">_encoder</text>
</g>
<!-- Node7 -->
<g id="node7" class="node"><title>Node7</title>
<polygon fill="none" stroke="#bfbfbf" points="606.643,-188.5 606.643,-245.5 716.643,-245.5 716.643,-188.5 606.643,-188.5"/>
<text text-anchor="middle" x="661.643" y="-233.5" font-family="Helvetica,sans-Serif" font-size="10.00">KinDynComputations</text>
<polyline fill="none" stroke="#bfbfbf" points="606.643,-226.5 716.643,-226.5 "/>
<text text-anchor="middle" x="661.643" y="-214.5" font-family="Helvetica,sans-Serif" font-size="10.00"> </text>
<polyline fill="none" stroke="#bfbfbf" points="606.643,-207.5 716.643,-207.5 "/>
<text text-anchor="middle" x="661.643" y="-195.5" font-family="Helvetica,sans-Serif" font-size="10.00"> </text>
</g>
<!-- Node7&#45;&gt;Node1 -->
<g id="edge6" class="edge"><title>Node7&#45;&gt;Node1</title>
<path fill="none" stroke="#404040" d="M660.627,-188.477C658.779,-163.705 653.666,-126.867 639.643,-98 638.236,-95.1028 636.641,-92.2387 634.906,-89.4278"/>
<polygon fill="none" stroke="#404040" points="634.896,-89.4127 628.203,-86.729 628.106,-79.5185 634.799,-82.2023 634.896,-89.4127"/>
<text text-anchor="middle" x="709.643" y="-123" font-family="Helvetica,sans-Serif" font-size="10.00"> &#45;m_humanComputations</text>
<text text-anchor="middle" x="709.643" y="-112" font-family="Helvetica,sans-Serif" font-size="10.00">&#45;m_robotComputations</text>
</g>
<!-- Node8 -->
<g id="node8" class="node"><title>Node8</title>
<polygon fill="none" stroke="#bfbfbf" points="760.643,-188.5 760.643,-245.5 828.643,-245.5 828.643,-188.5 760.643,-188.5"/>
<text text-anchor="middle" x="794.643" y="-233.5" font-family="Helvetica,sans-Serif" font-size="10.00">FrameIndex</text>
<polyline fill="none" stroke="#bfbfbf" points="760.643,-226.5 828.643,-226.5 "/>
<text text-anchor="middle" x="794.643" y="-214.5" font-family="Helvetica,sans-Serif" font-size="10.00"> </text>
<polyline fill="none" stroke="#bfbfbf" points="760.643,-207.5 828.643,-207.5 "/>
<text text-anchor="middle" x="794.643" y="-195.5" font-family="Helvetica,sans-Serif" font-size="10.00"> </text>
</g>
<!-- Node8&#45;&gt;Node1 -->
<g id="edge8" class="edge"><title>Node8&#45;&gt;Node1</title>
<path fill="none" stroke="#404040" d="M795.955,-188.377C795.682,-161.942 791.055,-122.56 768.643,-98 746.031,-73.22 712.692,-59.151 680.897,-51.1861"/>
<polygon fill="none" stroke="#404040" points="680.51,-51.0977 673.769,-53.6596 668.812,-48.4227 675.553,-45.8609 680.51,-51.0977"/>
<text text-anchor="middle" x="855.143" y="-134" font-family="Helvetica,sans-Serif" font-size="10.00"> &#45;m_robotLinkingFrameIndex</text>
<text text-anchor="middle" x="855.143" y="-123" font-family="Helvetica,sans-Serif" font-size="10.00">&#45;m_humanLinkingFrameIndex</text>
<text text-anchor="middle" x="855.143" y="-112" font-family="Helvetica,sans-Serif" font-size="10.00">&#45;m_originFrameIndex</text>
<text text-anchor="middle" x="855.143" y="-101" font-family="Helvetica,sans-Serif" font-size="10.00">&#45;m_transformedFrameIndex</text>
</g>
<!-- Node9 -->
<g id="node9" class="node"><title>Node9</title>
<g id="a_node9"><a xlink:href="classyarp_1_1os_1_1_buffered_port.html" target="_top" xlink:title="{yarp::os::BufferedPort\l\&lt; human::HumanState \&gt;\n||}">
<polygon fill="none" stroke="black" points="884.143,-183 884.143,-251 1009.14,-251 1009.14,-183 884.143,-183"/>
<text text-anchor="start" x="892.143" y="-239" font-family="Helvetica,sans-Serif" font-size="10.00">yarp::os::BufferedPort</text>
<text text-anchor="middle" x="946.643" y="-228" font-family="Helvetica,sans-Serif" font-size="10.00">&lt; human::HumanState &gt;</text>
<polyline fill="none" stroke="black" points="884.143,-221 1009.14,-221 "/>
<text text-anchor="middle" x="946.643" y="-209" font-family="Helvetica,sans-Serif" font-size="10.00"> </text>
<polyline fill="none" stroke="black" points="884.143,-202 1009.14,-202 "/>
<text text-anchor="middle" x="946.643" y="-190" font-family="Helvetica,sans-Serif" font-size="10.00"> </text>
</a>
</g>
</g>
<!-- Node9&#45;&gt;Node1 -->
<g id="edge10" class="edge"><title>Node9&#45;&gt;Node1</title>
<path fill="none" stroke="#404040" d="M949.607,-182.778C950.031,-156.139 945.89,-119.731 923.643,-98 889.934,-65.0726 767.599,-51.0343 680.772,-45.1388"/>
<polygon fill="none" stroke="#404040" points="680.744,-45.1371 674.497,-48.74 668.769,-44.3598 675.015,-40.7568 680.744,-45.1371"/>
<text text-anchor="middle" x="1018.64" y="-117.5" font-family="Helvetica,sans-Serif" font-size="10.00"> &#45;m_humanJointConfigurationPort</text>
</g>
<!-- Node10 -->
<g id="node10" class="node"><title>Node10</title>
<polygon fill="none" stroke="#bfbfbf" points="1074.14,-188.5 1074.14,-245.5 1157.14,-245.5 1157.14,-188.5 1074.14,-188.5"/>
<text text-anchor="middle" x="1115.64" y="-233.5" font-family="Helvetica,sans-Serif" font-size="10.00">VectorDynSize</text>
<polyline fill="none" stroke="#bfbfbf" points="1074.14,-226.5 1157.14,-226.5 "/>
<text text-anchor="middle" x="1115.64" y="-214.5" font-family="Helvetica,sans-Serif" font-size="10.00"> </text>
<polyline fill="none" stroke="#bfbfbf" points="1074.14,-207.5 1157.14,-207.5 "/>
<text text-anchor="middle" x="1115.64" y="-195.5" font-family="Helvetica,sans-Serif" font-size="10.00"> </text>
</g>
<!-- Node10&#45;&gt;Node1 -->
<g id="edge11" class="edge"><title>Node10&#45;&gt;Node1</title>
<path fill="none" stroke="#404040" d="M1118.98,-188.248C1120.54,-161.131 1118.05,-120.716 1093.64,-98 1064.08,-70.4832 818.04,-53.1317 680.984,-45.5079"/>
<polygon fill="none" stroke="#404040" points="680.863,-45.5014 674.653,-49.1668 668.881,-44.8442 675.091,-41.1788 680.863,-45.5014"/>
<text text-anchor="middle" x="1168.14" y="-134" font-family="Helvetica,sans-Serif" font-size="10.00"> &#45;m_humanConfiguration</text>
<text text-anchor="middle" x="1168.14" y="-123" font-family="Helvetica,sans-Serif" font-size="10.00">&#45;m_humanVelocity</text>
<text text-anchor="middle" x="1168.14" y="-112" font-family="Helvetica,sans-Serif" font-size="10.00">&#45;m_robotVelocity</text>
<text text-anchor="middle" x="1168.14" y="-101" font-family="Helvetica,sans-Serif" font-size="10.00">&#45;m_robotConfiguration</text>
</g>
</g>
</svg>
        <g id="navigator" transform="translate(0 0)" fill="#404254">
                <rect fill="#f2f5e9" fill-opacity="0.5" stroke="#606060" stroke-width=".5" x="0" y="0" width="60" height="60"/>
                <use id="zoomplus" xlink:href="#zoomPlus" x="17" y="9" onmousedown="handleZoom(evt,'in')"/>
                <use id="zoomminus" xlink:href="#zoomMin" x="42" y="9" onmousedown="handleZoom(evt,'out')"/>
                <use id="reset" xlink:href="#resetDef" x="30" y="36" onmousedown="handleReset()"/>
                <g id="arrowUp" xlink:href="#dirArrow" transform="translate(30 24)" onmousedown="handlePan(0,-1)">
                  <use xlink:href="#rim" fill="#404040">
                        <set attributeName="fill" to="#808080" begin="arrowUp.mouseover" end="arrowUp.mouseout"/>
                  </use>
                  <path fill="none" stroke="white" stroke-width="1.5" d="M0,-3.0v7 M-2.5,-0.5L0,-3.0L2.5,-0.5"/>
                </g>
                <g id="arrowRight" xlink:href="#dirArrow" transform="rotate(90) translate(36 -43)" onmousedown="handlePan(1,0)">
                  <use xlink:href="#rim" fill="#404040">
                        <set attributeName="fill" to="#808080" begin="arrowRight.mouseover" end="arrowRight.mouseout"/>
                  </use>
                  <path fill="none" stroke="white" stroke-width="1.5" d="M0,-3.0v7 M-2.5,-0.5L0,-3.0L2.5,-0.5"/>
                </g>
                <g id="arrowDown" xlink:href="#dirArrow" transform="rotate(180) translate(-30 -48)" onmousedown="handlePan(0,1)">
                  <use xlink:href="#rim" fill="#404040">
                        <set attributeName="fill" to="#808080" begin="arrowDown.mouseover" end="arrowDown.mouseout"/>
                  </use>
                  <path fill="none" stroke="white" stroke-width="1.5" d="M0,-3.0v7 M-2.5,-0.5L0,-3.0L2.5,-0.5"/>
                </g>
                <g id="arrowLeft" xlink:href="#dirArrow" transform="rotate(270) translate(-36 17)" onmousedown="handlePan(-1,0)">
                  <use xlink:href="#rim" fill="#404040">
                        <set attributeName="fill" to="#808080" begin="arrowLeft.mouseover" end="arrowLeft.mouseout"/>
                  </use>
                  <path fill="none" stroke="white" stroke-width="1.5" d="M0,-3.0v7 M-2.5,-0.5L0,-3.0L2.5,-0.5"/>
                </g>
        </g>
        <svg viewBox="0 0 15 15" width="100%" height="30px" preserveAspectRatio="xMaxYMin meet">
         <g id="arrow_out" transform="scale(0.3 0.3)">
          <a xlink:href="classhuman_1_1_robot_frame_transformer__coll__graph_org.svg" target="_base">
           <rect id="button" ry="5" rx="5" y="6" x="6" height="38" width="38"
                fill="#f2f5e9" fill-opacity="0.5" stroke="#606060" stroke-width="1.0"/>
           <path id="arrow"
             d="M 11.500037,31.436501 C 11.940474,20.09759 22.043105,11.32322 32.158766,21.979434 L 37.068811,17.246167 C 37.068811,17.246167 37.088388,32 37.088388,32 L 22.160133,31.978069 C 22.160133,31.978069 26.997745,27.140456 26.997745,27.140456 C 18.528582,18.264221 13.291696,25.230495 11.500037,31.436501 z"
             style="fill:#404040;"/>
          </a>
         </g>
        </svg>
</svg>
