<?xml version="1.0" encoding="UTF-8" standalone="no"?>
<!DOCTYPE svg PUBLIC "-//W3C//DTD SVG 1.1//EN"
 "http://www.w3.org/Graphics/SVG/1.1/DTD/svg11.dtd">
<!-- Generated by graphviz version 2.36.0 (20140111.2315)
 -->
<!-- Title: tf_tfMessage Pages: 1 -->
<svg width="229pt" height="294pt"
 viewBox="0.00 0.00 229.00 294.00" xmlns="http://www.w3.org/2000/svg" xmlns:xlink="http://www.w3.org/1999/xlink">
<g id="graph0" class="graph" transform="scale(1 1) rotate(0) translate(4 290)">
<title>tf_tfMessage</title>
<!-- Node1 -->
<g id="node1" class="node"><title>Node1</title>
<polygon fill="#bfbfbf" stroke="black" points="-0.5,-0.5 -0.5,-167.5 88.5,-167.5 88.5,-0.5 -0.5,-0.5"/>
<text text-anchor="middle" x="44" y="-155.5" font-family="Helvetica,sans-Serif" font-size="10.00">tf_tfMessage</text>
<polyline fill="none" stroke="black" points="-0.5,-148.5 88.5,-148.5 "/>
<text text-anchor="middle" x="44" y="-136.5" font-family="Helvetica,sans-Serif" font-size="10.00"> </text>
<polyline fill="none" stroke="black" points="-0.5,-129.5 88.5,-129.5 "/>
<text text-anchor="start" x="7.5" y="-117.5" font-family="Helvetica,sans-Serif" font-size="10.00">+ tf_tfMessage()</text>
<text text-anchor="start" x="7.5" y="-106.5" font-family="Helvetica,sans-Serif" font-size="10.00">+ clear()</text>
<text text-anchor="start" x="7.5" y="-95.5" font-family="Helvetica,sans-Serif" font-size="10.00">+ readBare()</text>
<text text-anchor="start" x="7.5" y="-84.5" font-family="Helvetica,sans-Serif" font-size="10.00">+ readBottle()</text>
<text text-anchor="start" x="7.5" y="-73.5" font-family="Helvetica,sans-Serif" font-size="10.00">+ read()</text>
<text text-anchor="start" x="7.5" y="-62.5" font-family="Helvetica,sans-Serif" font-size="10.00">+ writeBare()</text>
<text text-anchor="start" x="7.5" y="-51.5" font-family="Helvetica,sans-Serif" font-size="10.00">+ writeBottle()</text>
<text text-anchor="start" x="7.5" y="-40.5" font-family="Helvetica,sans-Serif" font-size="10.00">+ write()</text>
<text text-anchor="start" x="7.5" y="-29.5" font-family="Helvetica,sans-Serif" font-size="10.00">+ getTypeText()</text>
<text text-anchor="start" x="7.5" y="-18.5" font-family="Helvetica,sans-Serif" font-size="10.00">+ getType()</text>
<text text-anchor="start" x="7.5" y="-7.5" font-family="Helvetica,sans-Serif" font-size="10.00">and 10 more...</text>
</g>
<!-- Node2 -->
<g id="node2" class="node"><title>Node2</title>
<g id="a_node2"><a xlink:href="classyarp_1_1os_1_1idl_1_1_wire_portable.html" target="_top" xlink:title="{WirePortable\n||}">
<polygon fill="none" stroke="black" points="7.5,-222.5 7.5,-279.5 80.5,-279.5 80.5,-222.5 7.5,-222.5"/>
<text text-anchor="middle" x="44" y="-267.5" font-family="Helvetica,sans-Serif" font-size="10.00">WirePortable</text>
<polyline fill="none" stroke="black" points="7.5,-260.5 80.5,-260.5 "/>
<text text-anchor="middle" x="44" y="-248.5" font-family="Helvetica,sans-Serif" font-size="10.00"> </text>
<polyline fill="none" stroke="black" points="7.5,-241.5 80.5,-241.5 "/>
<text text-anchor="middle" x="44" y="-229.5" font-family="Helvetica,sans-Serif" font-size="10.00"> </text>
</a>
</g>
</g>
<!-- Node2&#45;&gt;Node1 -->
<g id="edge1" class="edge"><title>Node2&#45;&gt;Node1</title>
<path fill="none" stroke="midnightblue" d="M38.2207,-212.179C37.5744,-198.802 37.2508,-183.182 37.25,-167.559"/>
<polygon fill="none" stroke="midnightblue" points="34.7391,-212.6 38.8082,-222.383 41.7275,-212.198 34.7391,-212.6"/>
</g>
<!-- Node2&#45;&gt;Node1 -->
<g id="edge2" class="edge"><title>Node2&#45;&gt;Node1</title>
<path fill="none" stroke="midnightblue" d="M49.7793,-212.179C50.4256,-198.802 50.7492,-183.182 50.75,-167.559"/>
<polygon fill="none" stroke="midnightblue" points="46.2725,-212.198 49.1918,-222.383 53.2609,-212.6 46.2725,-212.198"/>
</g>
<!-- Node3 -->
<g id="node3" class="node"><title>Node3</title>
<polygon fill="none" stroke="#bfbfbf" points="99,-217 99,-285 221,-285 221,-217 99,-217"/>
<text text-anchor="start" x="107" y="-273" font-family="Helvetica,sans-Serif" font-size="10.00">vector&lt; geometry_msgs</text>
<text text-anchor="middle" x="160" y="-262" font-family="Helvetica,sans-Serif" font-size="10.00">_TransformStamped &gt;</text>
<polyline fill="none" stroke="#bfbfbf" points="99,-255 221,-255 "/>
<text text-anchor="middle" x="160" y="-243" font-family="Helvetica,sans-Serif" font-size="10.00"> </text>
<polyline fill="none" stroke="#bfbfbf" points="99,-236 221,-236 "/>
<text text-anchor="middle" x="160" y="-224" font-family="Helvetica,sans-Serif" font-size="10.00"> </text>
</g>
<!-- Node3&#45;&gt;Node1 -->
<g id="edge3" class="edge"><title>Node3&#45;&gt;Node1</title>
<path fill="none" stroke="#404040" d="M136.526,-216.61C124.692,-199.777 109.844,-178.657 95.5278,-158.294"/>
<polygon fill="none" stroke="#404040" points="95.4599,-158.197 88.7368,-155.589 88.5583,-148.38 95.2814,-150.988 95.4599,-158.197"/>
<text text-anchor="middle" x="151" y="-189.5" font-family="Helvetica,sans-Serif" font-size="10.00"> +transforms</text>
</g>
</g>
</svg>
