<?xml version="1.0" encoding="UTF-8" standalone="no"?>
<!DOCTYPE svg PUBLIC "-//W3C//DTD SVG 1.1//EN"
 "http://www.w3.org/Graphics/SVG/1.1/DTD/svg11.dtd">
<!-- Generated by graphviz version 2.36.0 (20140111.2315)
 -->
<!-- Title: human::HumanForces::Editor Pages: 1 -->
<svg width="496pt" height="708pt"
 viewBox="0.00 0.00 496.00 708.00" xmlns="http://www.w3.org/2000/svg" xmlns:xlink="http://www.w3.org/1999/xlink">
<g id="graph0" class="graph" transform="scale(1 1) rotate(0) translate(4 704)">
<title>human::HumanForces::Editor</title>
<!-- Node1 -->
<g id="node1" class="node"><title>Node1</title>
<polygon fill="#bfbfbf" stroke="black" points="28.5,-1 28.5,-267 141.5,-267 141.5,-1 28.5,-1"/>
<text text-anchor="start" x="36.5" y="-255" font-family="Helvetica,sans-Serif" font-size="10.00">human::HumanForces</text>
<text text-anchor="middle" x="85" y="-244" font-family="Helvetica,sans-Serif" font-size="10.00">::Editor</text>
<polyline fill="none" stroke="black" points="28.5,-237 141.5,-237 "/>
<text text-anchor="middle" x="85" y="-225" font-family="Helvetica,sans-Serif" font-size="10.00"> </text>
<polyline fill="none" stroke="black" points="28.5,-218 141.5,-218 "/>
<text text-anchor="start" x="36.5" y="-206" font-family="Helvetica,sans-Serif" font-size="10.00">+ Editor()</text>
<text text-anchor="start" x="36.5" y="-195" font-family="Helvetica,sans-Serif" font-size="10.00">+ Editor()</text>
<text text-anchor="start" x="36.5" y="-184" font-family="Helvetica,sans-Serif" font-size="10.00">+ edit()</text>
<text text-anchor="start" x="36.5" y="-173" font-family="Helvetica,sans-Serif" font-size="10.00">+ ~Editor()</text>
<text text-anchor="start" x="36.5" y="-162" font-family="Helvetica,sans-Serif" font-size="10.00">+ isValid()</text>
<text text-anchor="start" x="36.5" y="-151" font-family="Helvetica,sans-Serif" font-size="10.00">+ state()</text>
<text text-anchor="start" x="36.5" y="-140" font-family="Helvetica,sans-Serif" font-size="10.00">+ begin()</text>
<text text-anchor="start" x="36.5" y="-129" font-family="Helvetica,sans-Serif" font-size="10.00">+ end()</text>
<text text-anchor="start" x="36.5" y="-118" font-family="Helvetica,sans-Serif" font-size="10.00">+ set_forces()</text>
<text text-anchor="start" x="36.5" y="-107" font-family="Helvetica,sans-Serif" font-size="10.00">+ set_forces()</text>
<text text-anchor="start" x="36.5" y="-96" font-family="Helvetica,sans-Serif" font-size="10.00">and 22 more...</text>
<text text-anchor="start" x="36.5" y="-85" font-family="Helvetica,sans-Serif" font-size="10.00">&#45; communicate()</text>
<text text-anchor="start" x="36.5" y="-74" font-family="Helvetica,sans-Serif" font-size="10.00">&#45; mark_dirty()</text>
<text text-anchor="start" x="36.5" y="-63" font-family="Helvetica,sans-Serif" font-size="10.00">&#45; mark_dirty_forces()</text>
<text text-anchor="start" x="36.5" y="-52" font-family="Helvetica,sans-Serif" font-size="10.00">&#45; dirty_flags()</text>
<text text-anchor="start" x="36.5" y="-41" font-family="Helvetica,sans-Serif" font-size="10.00">&#45; communicate()</text>
<text text-anchor="start" x="36.5" y="-30" font-family="Helvetica,sans-Serif" font-size="10.00">&#45; mark_dirty()</text>
<text text-anchor="start" x="36.5" y="-19" font-family="Helvetica,sans-Serif" font-size="10.00">&#45; mark_dirty_forces()</text>
<text text-anchor="start" x="36.5" y="-8" font-family="Helvetica,sans-Serif" font-size="10.00">&#45; dirty_flags()</text>
</g>
<!-- Node2 -->
<g id="node2" class="node"><title>Node2</title>
<g id="a_node2"><a xlink:href="classyarp_1_1os_1_1_wire.html" target="_top" xlink:title="{Wire\n||}">
<polygon fill="none" stroke="black" points="-0.5,-437.5 -0.5,-494.5 36.5,-494.5 36.5,-437.5 -0.5,-437.5"/>
<text text-anchor="middle" x="18" y="-482.5" font-family="Helvetica,sans-Serif" font-size="10.00">Wire</text>
<polyline fill="none" stroke="black" points="-0.5,-475.5 36.5,-475.5 "/>
<text text-anchor="middle" x="18" y="-463.5" font-family="Helvetica,sans-Serif" font-size="10.00"> </text>
<polyline fill="none" stroke="black" points="-0.5,-456.5 36.5,-456.5 "/>
<text text-anchor="middle" x="18" y="-444.5" font-family="Helvetica,sans-Serif" font-size="10.00"> </text>
</a>
</g>
</g>
<!-- Node2&#45;&gt;Node1 -->
<g id="edge1" class="edge"><title>Node2&#45;&gt;Node1</title>
<path fill="none" stroke="midnightblue" d="M21.2019,-427.08C27.2834,-388.028 39.3857,-324.916 51.5013,-267.333"/>
<polygon fill="none" stroke="midnightblue" points="17.6713,-427.024 19.6512,-437.432 24.5941,-428.061 17.6713,-427.024"/>
</g>
<!-- Node2&#45;&gt;Node1 -->
<g id="edge3" class="edge"><title>Node2&#45;&gt;Node1</title>
<path fill="none" stroke="midnightblue" d="M30.0708,-427.579C39.8561,-388.568 53.4486,-325.162 64.7633,-267.333"/>
<polygon fill="none" stroke="midnightblue" points="26.638,-426.876 27.5431,-437.432 33.4184,-428.615 26.638,-426.876"/>
</g>
<!-- Node3 -->
<g id="node3" class="node"><title>Node3</title>
<g id="a_node3"><a xlink:href="classyarp_1_1os_1_1_port_writer.html" target="_top" xlink:title="{PortWriter\n||}">
<polygon fill="none" stroke="black" points="54.5,-437.5 54.5,-494.5 115.5,-494.5 115.5,-437.5 54.5,-437.5"/>
<text text-anchor="middle" x="85" y="-482.5" font-family="Helvetica,sans-Serif" font-size="10.00">PortWriter</text>
<polyline fill="none" stroke="black" points="54.5,-475.5 115.5,-475.5 "/>
<text text-anchor="middle" x="85" y="-463.5" font-family="Helvetica,sans-Serif" font-size="10.00"> </text>
<polyline fill="none" stroke="black" points="54.5,-456.5 115.5,-456.5 "/>
<text text-anchor="middle" x="85" y="-444.5" font-family="Helvetica,sans-Serif" font-size="10.00"> </text>
</a>
</g>
</g>
<!-- Node3&#45;&gt;Node1 -->
<g id="edge2" class="edge"><title>Node3&#45;&gt;Node1</title>
<path fill="none" stroke="midnightblue" d="M80.503,-427.08C78.6558,-388.028 77.9445,-324.916 78.369,-267.333"/>
<polygon fill="none" stroke="midnightblue" points="77.0273,-427.632 81.0541,-437.432 84.0174,-427.26 77.0273,-427.632"/>
</g>
<!-- Node3&#45;&gt;Node1 -->
<g id="edge4" class="edge"><title>Node3&#45;&gt;Node1</title>
<path fill="none" stroke="midnightblue" d="M89.497,-427.08C91.3442,-388.028 92.0555,-324.916 91.631,-267.333"/>
<polygon fill="none" stroke="midnightblue" points="85.9826,-427.26 88.9459,-437.432 92.9727,-427.632 85.9826,-427.26"/>
</g>
<!-- Node4 -->
<g id="node4" class="node"><title>Node4</title>
<polygon fill="none" stroke="#bfbfbf" points="133.5,-437.5 133.5,-494.5 162.5,-494.5 162.5,-437.5 133.5,-437.5"/>
<text text-anchor="middle" x="148" y="-482.5" font-family="Helvetica,sans-Serif" font-size="10.00">int</text>
<polyline fill="none" stroke="#bfbfbf" points="133.5,-475.5 162.5,-475.5 "/>
<text text-anchor="middle" x="148" y="-463.5" font-family="Helvetica,sans-Serif" font-size="10.00"> </text>
<polyline fill="none" stroke="#bfbfbf" points="133.5,-456.5 162.5,-456.5 "/>
<text text-anchor="middle" x="148" y="-444.5" font-family="Helvetica,sans-Serif" font-size="10.00"> </text>
</g>
<!-- Node4&#45;&gt;Node1 -->
<g id="edge5" class="edge"><title>Node4&#45;&gt;Node1</title>
<path fill="none" stroke="#404040" d="M142.781,-437.248C137.935,-411.516 130.51,-372.166 124,-338 120.367,-318.934 116.529,-298.864 112.733,-279.065"/>
<polygon fill="none" stroke="#404040" points="112.702,-278.903 107.644,-273.764 110.442,-267.118 115.501,-272.257 112.702,-278.903"/>
<text text-anchor="middle" x="147.5" y="-306" font-family="Helvetica,sans-Serif" font-size="10.00"> &#45;dirty_count</text>
<text text-anchor="middle" x="147.5" y="-295" font-family="Helvetica,sans-Serif" font-size="10.00">&#45;group</text>
</g>
<!-- Node5 -->
<g id="node5" class="node"><title>Node5</title>
<polygon fill="none" stroke="#bfbfbf" points="187.5,-437.5 187.5,-494.5 222.5,-494.5 222.5,-437.5 187.5,-437.5"/>
<text text-anchor="middle" x="205" y="-482.5" font-family="Helvetica,sans-Serif" font-size="10.00">bool</text>
<polyline fill="none" stroke="#bfbfbf" points="187.5,-475.5 222.5,-475.5 "/>
<text text-anchor="middle" x="205" y="-463.5" font-family="Helvetica,sans-Serif" font-size="10.00"> </text>
<polyline fill="none" stroke="#bfbfbf" points="187.5,-456.5 222.5,-456.5 "/>
<text text-anchor="middle" x="205" y="-444.5" font-family="Helvetica,sans-Serif" font-size="10.00"> </text>
</g>
<!-- Node5&#45;&gt;Node1 -->
<g id="edge6" class="edge"><title>Node5&#45;&gt;Node1</title>
<path fill="none" stroke="#404040" d="M204.481,-437.465C203.031,-401.569 197.763,-337.318 179,-286 171.099,-264.39 159.834,-242.567 147.832,-222.487"/>
<polygon fill="none" stroke="#404040" points="147.772,-222.388 141.226,-219.361 141.503,-212.155 148.048,-215.182 147.772,-222.388"/>
<text text-anchor="middle" x="222.5" y="-311.5" font-family="Helvetica,sans-Serif" font-size="10.00"> &#45;is_dirty</text>
<text text-anchor="middle" x="222.5" y="-300.5" font-family="Helvetica,sans-Serif" font-size="10.00">&#45;obj_owned</text>
<text text-anchor="middle" x="222.5" y="-289.5" font-family="Helvetica,sans-Serif" font-size="10.00">&#45;is_dirty_forces</text>
</g>
<!-- Node6 -->
<g id="node6" class="node"><title>Node6</title>
<g id="a_node6"><a xlink:href="classhuman_1_1_human_forces.html" target="_top" xlink:title="{human::HumanForces\n||+ HumanForces()\l+ HumanForces()\l+ HumanForces()\l+ operator=()\l+ read()\l+ read()\l+ write()\l+ write()\l+ toString()\l+ HumanForces()\land 8 more...\l&#45; write_forces()\l&#45; nested_write_forces()\l&#45; read_forces()\l&#45; nested_read_forces()\l&#45; write_forces()\l&#45; nested_write_forces()\l&#45; read_forces()\l&#45; nested_read_forces()\l}">
<polygon fill="none" stroke="black" points="241,-338.5 241,-593.5 357,-593.5 357,-338.5 241,-338.5"/>
<text text-anchor="middle" x="299" y="-581.5" font-family="Helvetica,sans-Serif" font-size="10.00">human::HumanForces</text>
<polyline fill="none" stroke="black" points="241,-574.5 357,-574.5 "/>
<text text-anchor="middle" x="299" y="-562.5" font-family="Helvetica,sans-Serif" font-size="10.00"> </text>
<polyline fill="none" stroke="black" points="241,-555.5 357,-555.5 "/>
<text text-anchor="start" x="249" y="-543.5" font-family="Helvetica,sans-Serif" font-size="10.00">+ HumanForces()</text>
<text text-anchor="start" x="249" y="-532.5" font-family="Helvetica,sans-Serif" font-size="10.00">+ HumanForces()</text>
<text text-anchor="start" x="249" y="-521.5" font-family="Helvetica,sans-Serif" font-size="10.00">+ HumanForces()</text>
<text text-anchor="start" x="249" y="-510.5" font-family="Helvetica,sans-Serif" font-size="10.00">+ operator=()</text>
<text text-anchor="start" x="249" y="-499.5" font-family="Helvetica,sans-Serif" font-size="10.00">+ read()</text>
<text text-anchor="start" x="249" y="-488.5" font-family="Helvetica,sans-Serif" font-size="10.00">+ read()</text>
<text text-anchor="start" x="249" y="-477.5" font-family="Helvetica,sans-Serif" font-size="10.00">+ write()</text>
<text text-anchor="start" x="249" y="-466.5" font-family="Helvetica,sans-Serif" font-size="10.00">+ write()</text>
<text text-anchor="start" x="249" y="-455.5" font-family="Helvetica,sans-Serif" font-size="10.00">+ toString()</text>
<text text-anchor="start" x="249" y="-444.5" font-family="Helvetica,sans-Serif" font-size="10.00">+ HumanForces()</text>
<text text-anchor="start" x="249" y="-433.5" font-family="Helvetica,sans-Serif" font-size="10.00">and 8 more...</text>
<text text-anchor="start" x="249" y="-422.5" font-family="Helvetica,sans-Serif" font-size="10.00">&#45; write_forces()</text>
<text text-anchor="start" x="249" y="-411.5" font-family="Helvetica,sans-Serif" font-size="10.00">&#45; nested_write_forces()</text>
<text text-anchor="start" x="249" y="-400.5" font-family="Helvetica,sans-Serif" font-size="10.00">&#45; read_forces()</text>
<text text-anchor="start" x="249" y="-389.5" font-family="Helvetica,sans-Serif" font-size="10.00">&#45; nested_read_forces()</text>
<text text-anchor="start" x="249" y="-378.5" font-family="Helvetica,sans-Serif" font-size="10.00">&#45; write_forces()</text>
<text text-anchor="start" x="249" y="-367.5" font-family="Helvetica,sans-Serif" font-size="10.00">&#45; nested_write_forces()</text>
<text text-anchor="start" x="249" y="-356.5" font-family="Helvetica,sans-Serif" font-size="10.00">&#45; read_forces()</text>
<text text-anchor="start" x="249" y="-345.5" font-family="Helvetica,sans-Serif" font-size="10.00">&#45; nested_read_forces()</text>
</a>
</g>
</g>
<!-- Node6&#45;&gt;Node1 -->
<g id="edge7" class="edge"><title>Node6&#45;&gt;Node1</title>
<path fill="none" stroke="#404040" d="M282.166,-338.321C276.716,-320.02 269.513,-301.99 260,-286 233.443,-241.363 189.005,-203.263 151.556,-176.5"/>
<polygon fill="none" stroke="#404040" points="151.532,-176.483 144.322,-176.318 141.702,-169.6 148.911,-169.765 151.532,-176.483"/>
<text text-anchor="middle" x="285.5" y="-300.5" font-family="Helvetica,sans-Serif" font-size="10.00"> &#45;obj</text>
</g>
<!-- Node7 -->
<g id="node7" class="node"><title>Node7</title>
<g id="a_node7"><a xlink:href="classyarp_1_1os_1_1idl_1_1_wire_portable.html" target="_top" xlink:title="{WirePortable\n||}">
<polygon fill="none" stroke="black" points="262.5,-642.5 262.5,-699.5 335.5,-699.5 335.5,-642.5 262.5,-642.5"/>
<text text-anchor="middle" x="299" y="-687.5" font-family="Helvetica,sans-Serif" font-size="10.00">WirePortable</text>
<polyline fill="none" stroke="black" points="262.5,-680.5 335.5,-680.5 "/>
<text text-anchor="middle" x="299" y="-668.5" font-family="Helvetica,sans-Serif" font-size="10.00"> </text>
<polyline fill="none" stroke="black" points="262.5,-661.5 335.5,-661.5 "/>
<text text-anchor="middle" x="299" y="-649.5" font-family="Helvetica,sans-Serif" font-size="10.00"> </text>
</a>
</g>
</g>
<!-- Node7&#45;&gt;Node6 -->
<g id="edge8" class="edge"><title>Node7&#45;&gt;Node6</title>
<path fill="none" stroke="midnightblue" d="M293.592,-631.881C293.031,-620.517 292.646,-607.386 292.437,-593.594"/>
<polygon fill="none" stroke="midnightblue" points="290.117,-632.416 294.183,-642.199 297.105,-632.015 290.117,-632.416"/>
</g>
<!-- Node7&#45;&gt;Node6 -->
<g id="edge9" class="edge"><title>Node7&#45;&gt;Node6</title>
<path fill="none" stroke="midnightblue" d="M304.408,-631.881C304.969,-620.517 305.354,-607.386 305.563,-593.594"/>
<polygon fill="none" stroke="midnightblue" points="300.895,-632.015 303.817,-642.199 307.883,-632.416 300.895,-632.015"/>
</g>
<!-- Node8 -->
<g id="node8" class="node"><title>Node8</title>
<polygon fill="none" stroke="#bfbfbf" points="354,-642.5 354,-699.5 488,-699.5 488,-642.5 354,-642.5"/>
<text text-anchor="middle" x="421" y="-687.5" font-family="Helvetica,sans-Serif" font-size="10.00">vector&lt; human::Force6D &gt;</text>
<polyline fill="none" stroke="#bfbfbf" points="354,-680.5 488,-680.5 "/>
<text text-anchor="middle" x="421" y="-668.5" font-family="Helvetica,sans-Serif" font-size="10.00"> </text>
<polyline fill="none" stroke="#bfbfbf" points="354,-661.5 488,-661.5 "/>
<text text-anchor="middle" x="421" y="-649.5" font-family="Helvetica,sans-Serif" font-size="10.00"> </text>
</g>
<!-- Node8&#45;&gt;Node6 -->
<g id="edge10" class="edge"><title>Node8&#45;&gt;Node6</title>
<path fill="none" stroke="#404040" d="M404.292,-642.199C393.452,-624.162 378.562,-599.386 363.392,-574.144"/>
<polygon fill="none" stroke="#404040" points="363.297,-573.986 356.778,-570.904 357.116,-563.701 363.635,-566.783 363.297,-573.986"/>
<text text-anchor="middle" x="410.5" y="-615.5" font-family="Helvetica,sans-Serif" font-size="10.00"> +forces</text>
</g>
</g>
</svg>
