<?xml version="1.0" encoding="UTF-8" standalone="no"?>
<!DOCTYPE svg PUBLIC "-//W3C//DTD SVG 1.1//EN"
 "http://www.w3.org/Graphics/SVG/1.1/DTD/svg11.dtd">
<!-- Generated by graphviz version 2.36.0 (20140111.2315)
 -->
<!-- Title: xsens::XsensSensorsFrame::Editor Pages: 1 -->
<!--zoomable 786 -->
<svg id="main" version="1.1" xmlns="http://www.w3.org/2000/svg" xmlns:xlink="http://www.w3.org/1999/xlink" xml:space="preserve" onload="init(evt)">
<style type="text/css"><![CDATA[
.edge:hover path { stroke: red; }
.edge:hover polygon { stroke: red; fill: red; }
]]></style>
<script type="text/javascript"><![CDATA[
var edges = document.getElementsByTagName('g');
if (edges && edges.length) {
  for (var i=0;i<edges.length;i++) {
    if (edges[i].id.substr(0,4)=='edge') {
      edges[i].setAttribute('class','edge');
    }
  }
}
]]></script>
        <defs>
                <circle id="rim" cx="0" cy="0" r="7"/>
                <circle id="rim2" cx="0" cy="0" r="3.5"/>
                <g id="zoomPlus">
                        <use xlink:href="#rim" fill="#404040">
                                <set attributeName="fill" to="#808080" begin="zoomplus.mouseover" end="zoomplus.mouseout"/>
                        </use>
                        <path d="M-4,0h8M0,-4v8" fill="none" stroke="white" stroke-width="1.5" pointer-events="none"/>
                </g>
                <g id="zoomMin">
                        <use xlink:href="#rim" fill="#404040">
                                <set attributeName="fill" to="#808080" begin="zoomminus.mouseover" end="zoomminus.mouseout"/>
                        </use>
                        <path d="M-4,0h8" fill="none" stroke="white" stroke-width="1.5" pointer-events="none"/>
                </g>
                <g id="dirArrow">
                        <path fill="none" stroke="white" stroke-width="1.5" d="M0,-3.0v7 M-2.5,-0.5L0,-3.0L2.5,-0.5"/>
                </g>
               <g id="resetDef">
                       <use xlink:href="#rim2" fill="#404040">
                               <set attributeName="fill" to="#808080" begin="reset.mouseover" end="reset.mouseout"/>
                       </use>
               </g>
        </defs>

<script type="text/javascript">
var viewWidth = 465;
var viewHeight = 786;
var sectionId = 'dynsection-1';
</script>
<script xlink:href="svgpan.js"/>
<svg id="graph" class="graph">
<g id="viewport">
<title>xsens::XsensSensorsFrame::Editor</title>
<!-- Node1 -->
<g id="node1" class="node"><title>Node1</title>
<polygon fill="#bfbfbf" stroke="black" points="15,-1 15,-289 155,-289 155,-1 15,-1"/>
<text text-anchor="start" x="23" y="-277" font-family="Helvetica,sans-Serif" font-size="10.00">xsens::XsensSensorsFrame</text>
<text text-anchor="middle" x="85" y="-266" font-family="Helvetica,sans-Serif" font-size="10.00">::Editor</text>
<polyline fill="none" stroke="black" points="15,-259 155,-259 "/>
<text text-anchor="middle" x="85" y="-247" font-family="Helvetica,sans-Serif" font-size="10.00"> </text>
<polyline fill="none" stroke="black" points="15,-240 155,-240 "/>
<text text-anchor="start" x="23" y="-228" font-family="Helvetica,sans-Serif" font-size="10.00">+ Editor()</text>
<text text-anchor="start" x="23" y="-217" font-family="Helvetica,sans-Serif" font-size="10.00">+ Editor()</text>
<text text-anchor="start" x="23" y="-206" font-family="Helvetica,sans-Serif" font-size="10.00">+ edit()</text>
<text text-anchor="start" x="23" y="-195" font-family="Helvetica,sans-Serif" font-size="10.00">+ ~Editor()</text>
<text text-anchor="start" x="23" y="-184" font-family="Helvetica,sans-Serif" font-size="10.00">+ isValid()</text>
<text text-anchor="start" x="23" y="-173" font-family="Helvetica,sans-Serif" font-size="10.00">+ state()</text>
<text text-anchor="start" x="23" y="-162" font-family="Helvetica,sans-Serif" font-size="10.00">+ begin()</text>
<text text-anchor="start" x="23" y="-151" font-family="Helvetica,sans-Serif" font-size="10.00">+ end()</text>
<text text-anchor="start" x="23" y="-140" font-family="Helvetica,sans-Serif" font-size="10.00">+ set_status()</text>
<text text-anchor="start" x="23" y="-129" font-family="Helvetica,sans-Serif" font-size="10.00">+ set_sensorsData()</text>
<text text-anchor="start" x="23" y="-118" font-family="Helvetica,sans-Serif" font-size="10.00">and 30 more...</text>
<text text-anchor="start" x="23" y="-107" font-family="Helvetica,sans-Serif" font-size="10.00">&#45; communicate()</text>
<text text-anchor="start" x="23" y="-96" font-family="Helvetica,sans-Serif" font-size="10.00">&#45; mark_dirty()</text>
<text text-anchor="start" x="23" y="-85" font-family="Helvetica,sans-Serif" font-size="10.00">&#45; mark_dirty_status()</text>
<text text-anchor="start" x="23" y="-74" font-family="Helvetica,sans-Serif" font-size="10.00">&#45; mark_dirty_sensorsData()</text>
<text text-anchor="start" x="23" y="-63" font-family="Helvetica,sans-Serif" font-size="10.00">&#45; dirty_flags()</text>
<text text-anchor="start" x="23" y="-52" font-family="Helvetica,sans-Serif" font-size="10.00">&#45; communicate()</text>
<text text-anchor="start" x="23" y="-41" font-family="Helvetica,sans-Serif" font-size="10.00">&#45; mark_dirty()</text>
<text text-anchor="start" x="23" y="-30" font-family="Helvetica,sans-Serif" font-size="10.00">&#45; mark_dirty_status()</text>
<text text-anchor="start" x="23" y="-19" font-family="Helvetica,sans-Serif" font-size="10.00">&#45; mark_dirty_sensorsData()</text>
<text text-anchor="start" x="23" y="-8" font-family="Helvetica,sans-Serif" font-size="10.00">&#45; dirty_flags()</text>
</g>
<!-- Node2 -->
<g id="node2" class="node"><title>Node2</title>
<g id="a_node2"><a xlink:href="classyarp_1_1os_1_1_wire.html" target="_top" xlink:title="{Wire\n||}">
<polygon fill="none" stroke="black" points="-0.5,-486.5 -0.5,-543.5 36.5,-543.5 36.5,-486.5 -0.5,-486.5"/>
<text text-anchor="middle" x="18" y="-531.5" font-family="Helvetica,sans-Serif" font-size="10.00">Wire</text>
<polyline fill="none" stroke="black" points="-0.5,-524.5 36.5,-524.5 "/>
<text text-anchor="middle" x="18" y="-512.5" font-family="Helvetica,sans-Serif" font-size="10.00"> </text>
<polyline fill="none" stroke="black" points="-0.5,-505.5 36.5,-505.5 "/>
<text text-anchor="middle" x="18" y="-493.5" font-family="Helvetica,sans-Serif" font-size="10.00"> </text>
</a>
</g>
</g>
<!-- Node2&#45;&gt;Node1 -->
<g id="edge1" class="edge"><title>Node2&#45;&gt;Node1</title>
<path fill="none" stroke="midnightblue" d="M20.5581,-476.389C26.5213,-432.411 39.4799,-357.003 52.3045,-289.324"/>
<polygon fill="none" stroke="midnightblue" points="17.083,-475.972 19.2625,-486.34 24.0244,-476.876 17.083,-475.972"/>
</g>
<!-- Node2&#45;&gt;Node1 -->
<g id="edge3" class="edge"><title>Node2&#45;&gt;Node1</title>
<path fill="none" stroke="midnightblue" d="M29.1371,-476.389C39.1876,-432.411 53.6874,-357.003 65.5069,-289.324"/>
<polygon fill="none" stroke="midnightblue" points="25.6791,-475.806 26.8093,-486.34 32.4951,-477.4 25.6791,-475.806"/>
</g>
<!-- Node3 -->
<g id="node3" class="node"><title>Node3</title>
<g id="a_node3"><a xlink:href="classyarp_1_1os_1_1_port_writer.html" target="_top" xlink:title="{PortWriter\n||}">
<polygon fill="none" stroke="black" points="54.5,-486.5 54.5,-543.5 115.5,-543.5 115.5,-486.5 54.5,-486.5"/>
<text text-anchor="middle" x="85" y="-531.5" font-family="Helvetica,sans-Serif" font-size="10.00">PortWriter</text>
<polyline fill="none" stroke="black" points="54.5,-524.5 115.5,-524.5 "/>
<text text-anchor="middle" x="85" y="-512.5" font-family="Helvetica,sans-Serif" font-size="10.00"> </text>
<polyline fill="none" stroke="black" points="54.5,-505.5 115.5,-505.5 "/>
<text text-anchor="middle" x="85" y="-493.5" font-family="Helvetica,sans-Serif" font-size="10.00"> </text>
</a>
</g>
</g>
<!-- Node3&#45;&gt;Node1 -->
<g id="edge2" class="edge"><title>Node3&#45;&gt;Node1</title>
<path fill="none" stroke="midnightblue" d="M80.6976,-476.111C78.6636,-432.093 77.8973,-356.86 78.3988,-289.324"/>
<polygon fill="none" stroke="midnightblue" points="77.2148,-476.534 81.2266,-486.34 84.2054,-476.173 77.2148,-476.534"/>
</g>
<!-- Node3&#45;&gt;Node1 -->
<g id="edge4" class="edge"><title>Node3&#45;&gt;Node1</title>
<path fill="none" stroke="midnightblue" d="M89.3024,-476.111C91.3364,-432.093 92.1027,-356.86 91.6012,-289.324"/>
<polygon fill="none" stroke="midnightblue" points="85.7946,-476.173 88.7734,-486.34 92.7852,-476.534 85.7946,-476.173"/>
</g>
<!-- Node4 -->
<g id="node4" class="node"><title>Node4</title>
<polygon fill="none" stroke="#bfbfbf" points="133.5,-486.5 133.5,-543.5 162.5,-543.5 162.5,-486.5 133.5,-486.5"/>
<text text-anchor="middle" x="148" y="-531.5" font-family="Helvetica,sans-Serif" font-size="10.00">int</text>
<polyline fill="none" stroke="#bfbfbf" points="133.5,-524.5 162.5,-524.5 "/>
<text text-anchor="middle" x="148" y="-512.5" font-family="Helvetica,sans-Serif" font-size="10.00"> </text>
<polyline fill="none" stroke="#bfbfbf" points="133.5,-505.5 162.5,-505.5 "/>
<text text-anchor="middle" x="148" y="-493.5" font-family="Helvetica,sans-Serif" font-size="10.00"> </text>
</g>
<!-- Node4&#45;&gt;Node1 -->
<g id="edge5" class="edge"><title>Node4&#45;&gt;Node1</title>
<path fill="none" stroke="#404040" d="M143.458,-486.384C138.675,-457.389 130.896,-410.475 124,-370 120.203,-347.715 116.153,-324.192 112.154,-301.098"/>
<polygon fill="none" stroke="#404040" points="112.118,-300.893 107.152,-295.665 110.068,-289.07 115.034,-294.298 112.118,-300.893"/>
<text text-anchor="middle" x="148.5" y="-333" font-family="Helvetica,sans-Serif" font-size="10.00"> &#45;dirty_count</text>
<text text-anchor="middle" x="148.5" y="-322" font-family="Helvetica,sans-Serif" font-size="10.00">&#45;group</text>
</g>
<!-- Node5 -->
<g id="node5" class="node"><title>Node5</title>
<g id="a_node5"><a xlink:href="classxsens_1_1_xsens_sensors_frame.html" target="_top" xlink:title="{xsens::XsensSensorsFrame\n||+ XsensSensorsFrame()\l+ XsensSensorsFrame()\l+ XsensSensorsFrame()\l+ operator=()\l+ read()\l+ read()\l+ write()\l+ write()\l+ toString()\l+ XsensSensorsFrame()\land 8 more...\l&#45; write_status()\l&#45; nested_write_status()\l&#45; write_sensorsData()\l&#45; nested_write_sensorsData()\l&#45; read_status()\l&#45; nested_read_status()\l&#45; read_sensorsData()\l&#45; nested_read_sensorsData()\l&#45; write_status()\l&#45; nested_write_status()\land 6 more...\l}">
<polygon fill="none" stroke="black" points="180.5,-371 180.5,-659 325.5,-659 325.5,-371 180.5,-371"/>
<text text-anchor="middle" x="253" y="-647" font-family="Helvetica,sans-Serif" font-size="10.00">xsens::XsensSensorsFrame</text>
<polyline fill="none" stroke="black" points="180.5,-640 325.5,-640 "/>
<text text-anchor="middle" x="253" y="-628" font-family="Helvetica,sans-Serif" font-size="10.00"> </text>
<polyline fill="none" stroke="black" points="180.5,-621 325.5,-621 "/>
<text text-anchor="start" x="188.5" y="-609" font-family="Helvetica,sans-Serif" font-size="10.00">+ XsensSensorsFrame()</text>
<text text-anchor="start" x="188.5" y="-598" font-family="Helvetica,sans-Serif" font-size="10.00">+ XsensSensorsFrame()</text>
<text text-anchor="start" x="188.5" y="-587" font-family="Helvetica,sans-Serif" font-size="10.00">+ XsensSensorsFrame()</text>
<text text-anchor="start" x="188.5" y="-576" font-family="Helvetica,sans-Serif" font-size="10.00">+ operator=()</text>
<text text-anchor="start" x="188.5" y="-565" font-family="Helvetica,sans-Serif" font-size="10.00">+ read()</text>
<text text-anchor="start" x="188.5" y="-554" font-family="Helvetica,sans-Serif" font-size="10.00">+ read()</text>
<text text-anchor="start" x="188.5" y="-543" font-family="Helvetica,sans-Serif" font-size="10.00">+ write()</text>
<text text-anchor="start" x="188.5" y="-532" font-family="Helvetica,sans-Serif" font-size="10.00">+ write()</text>
<text text-anchor="start" x="188.5" y="-521" font-family="Helvetica,sans-Serif" font-size="10.00">+ toString()</text>
<text text-anchor="start" x="188.5" y="-510" font-family="Helvetica,sans-Serif" font-size="10.00">+ XsensSensorsFrame()</text>
<text text-anchor="start" x="188.5" y="-499" font-family="Helvetica,sans-Serif" font-size="10.00">and 8 more...</text>
<text text-anchor="start" x="188.5" y="-488" font-family="Helvetica,sans-Serif" font-size="10.00">&#45; write_status()</text>
<text text-anchor="start" x="188.5" y="-477" font-family="Helvetica,sans-Serif" font-size="10.00">&#45; nested_write_status()</text>
<text text-anchor="start" x="188.5" y="-466" font-family="Helvetica,sans-Serif" font-size="10.00">&#45; write_sensorsData()</text>
<text text-anchor="start" x="188.5" y="-455" font-family="Helvetica,sans-Serif" font-size="10.00">&#45; nested_write_sensorsData()</text>
<text text-anchor="start" x="188.5" y="-444" font-family="Helvetica,sans-Serif" font-size="10.00">&#45; read_status()</text>
<text text-anchor="start" x="188.5" y="-433" font-family="Helvetica,sans-Serif" font-size="10.00">&#45; nested_read_status()</text>
<text text-anchor="start" x="188.5" y="-422" font-family="Helvetica,sans-Serif" font-size="10.00">&#45; read_sensorsData()</text>
<text text-anchor="start" x="188.5" y="-411" font-family="Helvetica,sans-Serif" font-size="10.00">&#45; nested_read_sensorsData()</text>
<text text-anchor="start" x="188.5" y="-400" font-family="Helvetica,sans-Serif" font-size="10.00">&#45; write_status()</text>
<text text-anchor="start" x="188.5" y="-389" font-family="Helvetica,sans-Serif" font-size="10.00">&#45; nested_write_status()</text>
<text text-anchor="start" x="188.5" y="-378" font-family="Helvetica,sans-Serif" font-size="10.00">and 6 more...</text>
</a>
</g>
</g>
<!-- Node5&#45;&gt;Node1 -->
<g id="edge6" class="edge"><title>Node5&#45;&gt;Node1</title>
<path fill="none" stroke="#404040" d="M206.203,-370.739C198.107,-349.439 189.283,-327.953 180,-308 174.198,-295.529 167.728,-282.768 160.968,-270.153"/>
<polygon fill="none" stroke="#404040" points="160.962,-270.142 154.582,-266.782 155.23,-259.6 161.61,-262.96 160.962,-270.142"/>
<text text-anchor="middle" x="208.5" y="-327.5" font-family="Helvetica,sans-Serif" font-size="10.00"> &#45;obj</text>
</g>
<!-- Node6 -->
<g id="node6" class="node"><title>Node6</title>
<g id="a_node6"><a xlink:href="classyarp_1_1os_1_1idl_1_1_wire_portable.html" target="_top" xlink:title="{WirePortable\n||}">
<polygon fill="none" stroke="black" points="132.5,-714.5 132.5,-771.5 205.5,-771.5 205.5,-714.5 132.5,-714.5"/>
<text text-anchor="middle" x="169" y="-759.5" font-family="Helvetica,sans-Serif" font-size="10.00">WirePortable</text>
<polyline fill="none" stroke="black" points="132.5,-752.5 205.5,-752.5 "/>
<text text-anchor="middle" x="169" y="-740.5" font-family="Helvetica,sans-Serif" font-size="10.00"> </text>
<polyline fill="none" stroke="black" points="132.5,-733.5 205.5,-733.5 "/>
<text text-anchor="middle" x="169" y="-721.5" font-family="Helvetica,sans-Serif" font-size="10.00"> </text>
</a>
</g>
</g>
<!-- Node6&#45;&gt;Node5 -->
<g id="edge7" class="edge"><title>Node6&#45;&gt;Node5</title>
<path fill="none" stroke="midnightblue" d="M177.691,-704.723C181.929,-691.531 187.324,-675.787 193.28,-659.099"/>
<polygon fill="none" stroke="midnightblue" points="174.344,-703.699 174.686,-714.288 181.022,-705.797 174.344,-703.699"/>
</g>
<!-- Node6&#45;&gt;Node5 -->
<g id="edge8" class="edge"><title>Node6&#45;&gt;Node5</title>
<path fill="none" stroke="midnightblue" d="M188.019,-704.723C193.588,-691.531 199.896,-675.787 206.345,-659.099"/>
<polygon fill="none" stroke="midnightblue" points="184.642,-703.718 183.914,-714.288 191.075,-706.479 184.642,-703.718"/>
</g>
<!-- Node7 -->
<g id="node7" class="node"><title>Node7</title>
<polygon fill="none" stroke="#bfbfbf" points="223.5,-709 223.5,-777 366.5,-777 366.5,-709 223.5,-709"/>
<text text-anchor="start" x="231.5" y="-765" font-family="Helvetica,sans-Serif" font-size="10.00">vector&lt; xsens::XsensSensor</text>
<text text-anchor="middle" x="295" y="-754" font-family="Helvetica,sans-Serif" font-size="10.00">Data &gt;</text>
<polyline fill="none" stroke="#bfbfbf" points="223.5,-747 366.5,-747 "/>
<text text-anchor="middle" x="295" y="-735" font-family="Helvetica,sans-Serif" font-size="10.00"> </text>
<polyline fill="none" stroke="#bfbfbf" points="223.5,-728 366.5,-728 "/>
<text text-anchor="middle" x="295" y="-716" font-family="Helvetica,sans-Serif" font-size="10.00"> </text>
</g>
<!-- Node7&#45;&gt;Node5 -->
<g id="edge9" class="edge"><title>Node7&#45;&gt;Node5</title>
<path fill="none" stroke="#404040" d="M288.803,-708.653C286.788,-697.813 284.404,-684.984 281.838,-671.174"/>
<polygon fill="none" stroke="#404040" points="281.836,-671.162 276.807,-665.994 279.643,-659.364 284.672,-664.533 281.836,-671.162"/>
<text text-anchor="middle" x="316.5" y="-681.5" font-family="Helvetica,sans-Serif" font-size="10.00"> +sensorsData</text>
</g>
<!-- Node8 -->
<g id="node8" class="node"><title>Node8</title>
<polygon fill="none" stroke="#bfbfbf" points="384.5,-714.5 384.5,-771.5 457.5,-771.5 457.5,-714.5 384.5,-714.5"/>
<text text-anchor="middle" x="421" y="-759.5" font-family="Helvetica,sans-Serif" font-size="10.00">XsensStatus</text>
<polyline fill="none" stroke="#bfbfbf" points="384.5,-752.5 457.5,-752.5 "/>
<text text-anchor="middle" x="421" y="-740.5" font-family="Helvetica,sans-Serif" font-size="10.00"> </text>
<polyline fill="none" stroke="#bfbfbf" points="384.5,-733.5 457.5,-733.5 "/>
<text text-anchor="middle" x="421" y="-721.5" font-family="Helvetica,sans-Serif" font-size="10.00"> </text>
</g>
<!-- Node8&#45;&gt;Node5 -->
<g id="edge10" class="edge"><title>Node8&#45;&gt;Node5</title>
<path fill="none" stroke="#404040" d="M391.617,-714.369C367.674,-691.791 337.43,-663.109 335,-660 334.302,-659.107 333.607,-658.208 332.914,-657.303"/>
<polygon fill="none" stroke="#404040" points="332.711,-657.03 325.927,-654.587 325.572,-647.385 332.357,-649.828 332.711,-657.03"/>
<text text-anchor="middle" x="382.5" y="-681.5" font-family="Helvetica,sans-Serif" font-size="10.00"> +status</text>
</g>
<!-- Node9 -->
<g id="node9" class="node"><title>Node9</title>
<polygon fill="none" stroke="#bfbfbf" points="343.5,-486.5 343.5,-543.5 378.5,-543.5 378.5,-486.5 343.5,-486.5"/>
<text text-anchor="middle" x="361" y="-531.5" font-family="Helvetica,sans-Serif" font-size="10.00">bool</text>
<polyline fill="none" stroke="#bfbfbf" points="343.5,-524.5 378.5,-524.5 "/>
<text text-anchor="middle" x="361" y="-512.5" font-family="Helvetica,sans-Serif" font-size="10.00"> </text>
<polyline fill="none" stroke="#bfbfbf" points="343.5,-505.5 378.5,-505.5 "/>
<text text-anchor="middle" x="361" y="-493.5" font-family="Helvetica,sans-Serif" font-size="10.00"> </text>
</g>
<!-- Node9&#45;&gt;Node1 -->
<g id="edge11" class="edge"><title>Node9&#45;&gt;Node1</title>
<path fill="none" stroke="#404040" d="M360.992,-486.496C359.86,-456.133 354.616,-406.703 334,-370 293.571,-298.022 221.399,-236.985 165.129,-196.891"/>
<polygon fill="none" stroke="#404040" points="164.994,-196.797 157.785,-196.62 155.175,-189.898 162.384,-190.075 164.994,-196.797"/>
<text text-anchor="middle" x="367" y="-344" font-family="Helvetica,sans-Serif" font-size="10.00"> &#45;is_dirty_status</text>
<text text-anchor="middle" x="367" y="-333" font-family="Helvetica,sans-Serif" font-size="10.00">&#45;is_dirty</text>
<text text-anchor="middle" x="367" y="-322" font-family="Helvetica,sans-Serif" font-size="10.00">&#45;obj_owned</text>
<text text-anchor="middle" x="367" y="-311" font-family="Helvetica,sans-Serif" font-size="10.00">&#45;is_dirty_sensorsData</text>
</g>
</g>
</svg>
        <g id="navigator" transform="translate(0 0)" fill="#404254">
                <rect fill="#f2f5e9" fill-opacity="0.5" stroke="#606060" stroke-width=".5" x="0" y="0" width="60" height="60"/>
                <use id="zoomplus" xlink:href="#zoomPlus" x="17" y="9" onmousedown="handleZoom(evt,'in')"/>
                <use id="zoomminus" xlink:href="#zoomMin" x="42" y="9" onmousedown="handleZoom(evt,'out')"/>
                <use id="reset" xlink:href="#resetDef" x="30" y="36" onmousedown="handleReset()"/>
                <g id="arrowUp" xlink:href="#dirArrow" transform="translate(30 24)" onmousedown="handlePan(0,-1)">
                  <use xlink:href="#rim" fill="#404040">
                        <set attributeName="fill" to="#808080" begin="arrowUp.mouseover" end="arrowUp.mouseout"/>
                  </use>
                  <path fill="none" stroke="white" stroke-width="1.5" d="M0,-3.0v7 M-2.5,-0.5L0,-3.0L2.5,-0.5"/>
                </g>
                <g id="arrowRight" xlink:href="#dirArrow" transform="rotate(90) translate(36 -43)" onmousedown="handlePan(1,0)">
                  <use xlink:href="#rim" fill="#404040">
                        <set attributeName="fill" to="#808080" begin="arrowRight.mouseover" end="arrowRight.mouseout"/>
                  </use>
                  <path fill="none" stroke="white" stroke-width="1.5" d="M0,-3.0v7 M-2.5,-0.5L0,-3.0L2.5,-0.5"/>
                </g>
                <g id="arrowDown" xlink:href="#dirArrow" transform="rotate(180) translate(-30 -48)" onmousedown="handlePan(0,1)">
                  <use xlink:href="#rim" fill="#404040">
                        <set attributeName="fill" to="#808080" begin="arrowDown.mouseover" end="arrowDown.mouseout"/>
                  </use>
                  <path fill="none" stroke="white" stroke-width="1.5" d="M0,-3.0v7 M-2.5,-0.5L0,-3.0L2.5,-0.5"/>
                </g>
                <g id="arrowLeft" xlink:href="#dirArrow" transform="rotate(270) translate(-36 17)" onmousedown="handlePan(-1,0)">
                  <use xlink:href="#rim" fill="#404040">
                        <set attributeName="fill" to="#808080" begin="arrowLeft.mouseover" end="arrowLeft.mouseout"/>
                  </use>
                  <path fill="none" stroke="white" stroke-width="1.5" d="M0,-3.0v7 M-2.5,-0.5L0,-3.0L2.5,-0.5"/>
                </g>
        </g>
        <svg viewBox="0 0 15 15" width="100%" height="30px" preserveAspectRatio="xMaxYMin meet">
         <g id="arrow_out" transform="scale(0.3 0.3)">
          <a xlink:href="classxsens_1_1_xsens_sensors_frame_1_1_editor__coll__graph_org.svg" target="_base">
           <rect id="button" ry="5" rx="5" y="6" x="6" height="38" width="38"
                fill="#f2f5e9" fill-opacity="0.5" stroke="#606060" stroke-width="1.0"/>
           <path id="arrow"
             d="M 11.500037,31.436501 C 11.940474,20.09759 22.043105,11.32322 32.158766,21.979434 L 37.068811,17.246167 C 37.068811,17.246167 37.088388,32 37.088388,32 L 22.160133,31.978069 C 22.160133,31.978069 26.997745,27.140456 26.997745,27.140456 C 18.528582,18.264221 13.291696,25.230495 11.500037,31.436501 z"
             style="fill:#404040;"/>
          </a>
         </g>
        </svg>
</svg>
