<?xml version="1.0" encoding="UTF-8" standalone="no"?>
<!DOCTYPE svg PUBLIC "-//W3C//DTD SVG 1.1//EN"
 "http://www.w3.org/Graphics/SVG/1.1/DTD/svg11.dtd">
<!-- Generated by graphviz version 2.36.0 (20140111.2315)
 -->
<!-- Title: human::HumanStateProvider Pages: 1 -->
<svg width="150pt" height="216pt"
 viewBox="0.00 0.00 150.00 216.00" xmlns="http://www.w3.org/2000/svg" xmlns:xlink="http://www.w3.org/1999/xlink">
<g id="graph0" class="graph" transform="scale(1 1) rotate(0) translate(4 212)">
<title>human::HumanStateProvider</title>
<!-- Node1 -->
<g id="node1" class="node"><title>Node1</title>
<polygon fill="#bfbfbf" stroke="black" points="-0.5,-1 -0.5,-113 142.5,-113 142.5,-1 -0.5,-1"/>
<text text-anchor="middle" x="71" y="-101" font-family="Helvetica,sans-Serif" font-size="10.00">human::HumanStateProvider</text>
<polyline fill="none" stroke="black" points="-0.5,-94 142.5,-94 "/>
<text text-anchor="start" x="7.5" y="-82" font-family="Helvetica,sans-Serif" font-size="10.00">&#45; m_pimpl</text>
<polyline fill="none" stroke="black" points="-0.5,-75 142.5,-75 "/>
<text text-anchor="start" x="7.5" y="-63" font-family="Helvetica,sans-Serif" font-size="10.00">+ HumanStateProvider()</text>
<text text-anchor="start" x="7.5" y="-52" font-family="Helvetica,sans-Serif" font-size="10.00">+ ~HumanStateProvider()</text>
<text text-anchor="start" x="7.5" y="-41" font-family="Helvetica,sans-Serif" font-size="10.00">+ getPeriod()</text>
<text text-anchor="start" x="7.5" y="-30" font-family="Helvetica,sans-Serif" font-size="10.00">+ updateModule()</text>
<text text-anchor="start" x="7.5" y="-19" font-family="Helvetica,sans-Serif" font-size="10.00">+ configure()</text>
<text text-anchor="start" x="7.5" y="-8" font-family="Helvetica,sans-Serif" font-size="10.00">+ close()</text>
</g>
<!-- Node2 -->
<g id="node2" class="node"><title>Node2</title>
<g id="a_node2"><a xlink:href="classyarp_1_1os_1_1_r_f_module.html" target="_top" xlink:title="{yarp::os::RFModule\n||}">
<polygon fill="none" stroke="black" points="19.5,-150.5 19.5,-207.5 122.5,-207.5 122.5,-150.5 19.5,-150.5"/>
<text text-anchor="middle" x="71" y="-195.5" font-family="Helvetica,sans-Serif" font-size="10.00">yarp::os::RFModule</text>
<polyline fill="none" stroke="black" points="19.5,-188.5 122.5,-188.5 "/>
<text text-anchor="middle" x="71" y="-176.5" font-family="Helvetica,sans-Serif" font-size="10.00"> </text>
<polyline fill="none" stroke="black" points="19.5,-169.5 122.5,-169.5 "/>
<text text-anchor="middle" x="71" y="-157.5" font-family="Helvetica,sans-Serif" font-size="10.00"> </text>
</a>
</g>
</g>
<!-- Node2&#45;&gt;Node1 -->
<g id="edge1" class="edge"><title>Node2&#45;&gt;Node1</title>
<path fill="none" stroke="midnightblue" d="M71,-140.398C71,-131.802 71,-122.49 71,-113.324"/>
<polygon fill="none" stroke="midnightblue" points="67.5001,-140.47 71,-150.47 74.5001,-140.47 67.5001,-140.47"/>
</g>
</g>
</svg>
