<?xml version="1.0" encoding="UTF-8" standalone="no"?>
<!DOCTYPE svg PUBLIC "-//W3C//DTD SVG 1.1//EN"
 "http://www.w3.org/Graphics/SVG/1.1/DTD/svg11.dtd">
<!-- Generated by graphviz version 2.36.0 (20140111.2315)
 -->
<!-- Title: xsens::XsensDriverService_stopAcquisition Pages: 1 -->
<svg width="144pt" height="226pt"
 viewBox="0.00 0.00 144.00 226.00" xmlns="http://www.w3.org/2000/svg" xmlns:xlink="http://www.w3.org/1999/xlink">
<g id="graph0" class="graph" transform="scale(1 1) rotate(0) translate(4 222)">
<title>xsens::XsensDriverService_stopAcquisition</title>
<!-- Node1 -->
<g id="node1" class="node"><title>Node1</title>
<polygon fill="#bfbfbf" stroke="black" points="0,-0.5 0,-123.5 136,-123.5 136,-0.5 0,-0.5"/>
<text text-anchor="start" x="8" y="-111.5" font-family="Helvetica,sans-Serif" font-size="10.00">xsens::XsensDriverService</text>
<text text-anchor="middle" x="68" y="-100.5" font-family="Helvetica,sans-Serif" font-size="10.00">_stopAcquisition</text>
<polyline fill="none" stroke="black" points="0,-93.5 136,-93.5 "/>
<text text-anchor="middle" x="68" y="-81.5" font-family="Helvetica,sans-Serif" font-size="10.00"> </text>
<polyline fill="none" stroke="black" points="0,-74.5 136,-74.5 "/>
<text text-anchor="start" x="8" y="-62.5" font-family="Helvetica,sans-Serif" font-size="10.00">+ init()</text>
<text text-anchor="start" x="8" y="-51.5" font-family="Helvetica,sans-Serif" font-size="10.00">+ write()</text>
<text text-anchor="start" x="8" y="-40.5" font-family="Helvetica,sans-Serif" font-size="10.00">+ read()</text>
<text text-anchor="start" x="8" y="-29.5" font-family="Helvetica,sans-Serif" font-size="10.00">+ init()</text>
<text text-anchor="start" x="8" y="-18.5" font-family="Helvetica,sans-Serif" font-size="10.00">+ write()</text>
<text text-anchor="start" x="8" y="-7.5" font-family="Helvetica,sans-Serif" font-size="10.00">+ read()</text>
</g>
<!-- Node2 -->
<g id="node2" class="node"><title>Node2</title>
<g id="a_node2"><a xlink:href="classyarp_1_1os_1_1_portable.html" target="_top" xlink:title="{Portable\n||}">
<polygon fill="none" stroke="black" points="41.5,-160.5 41.5,-217.5 94.5,-217.5 94.5,-160.5 41.5,-160.5"/>
<text text-anchor="middle" x="68" y="-205.5" font-family="Helvetica,sans-Serif" font-size="10.00">Portable</text>
<polyline fill="none" stroke="black" points="41.5,-198.5 94.5,-198.5 "/>
<text text-anchor="middle" x="68" y="-186.5" font-family="Helvetica,sans-Serif" font-size="10.00"> </text>
<polyline fill="none" stroke="black" points="41.5,-179.5 94.5,-179.5 "/>
<text text-anchor="middle" x="68" y="-167.5" font-family="Helvetica,sans-Serif" font-size="10.00"> </text>
</a>
</g>
</g>
<!-- Node2&#45;&gt;Node1 -->
<g id="edge1" class="edge"><title>Node2&#45;&gt;Node1</title>
<path fill="none" stroke="midnightblue" d="M61.738,-150.099C61.3891,-141.739 61.2273,-132.68 61.2526,-123.672"/>
<polygon fill="none" stroke="midnightblue" points="58.2521,-150.459 62.28,-160.258 65.2422,-150.086 58.2521,-150.459"/>
</g>
<!-- Node2&#45;&gt;Node1 -->
<g id="edge2" class="edge"><title>Node2&#45;&gt;Node1</title>
<path fill="none" stroke="midnightblue" d="M74.262,-150.099C74.6109,-141.739 74.7727,-132.68 74.7474,-123.672"/>
<polygon fill="none" stroke="midnightblue" points="70.7578,-150.086 73.72,-160.258 77.7479,-150.459 70.7578,-150.086"/>
</g>
</g>
</svg>
