<?xml version="1.0" encoding="UTF-8" standalone="no"?>
<!DOCTYPE svg PUBLIC "-//W3C//DTD SVG 1.1//EN"
 "http://www.w3.org/Graphics/SVG/1.1/DTD/svg11.dtd">
<!-- Generated by graphviz version 2.36.0 (20140111.2315)
 -->
<!-- Title: xsens::XsensSensorData::Editor Pages: 1 -->
<svg width="492pt" height="1538pt"
 viewBox="0.00 0.00 492.00 1538.00" xmlns="http://www.w3.org/2000/svg" xmlns:xlink="http://www.w3.org/1999/xlink">
<g id="graph0" class="graph" transform="scale(1 1) rotate(0) translate(4 1534)">
<title>xsens::XsensSensorData::Editor</title>
<!-- Node1 -->
<g id="node1" class="node"><title>Node1</title>
<polygon fill="#bfbfbf" stroke="black" points="12,-1 12,-333 158,-333 158,-1 12,-1"/>
<text text-anchor="start" x="20" y="-321" font-family="Helvetica,sans-Serif" font-size="10.00">xsens::XsensSensorData</text>
<text text-anchor="middle" x="85" y="-310" font-family="Helvetica,sans-Serif" font-size="10.00">::Editor</text>
<polyline fill="none" stroke="black" points="12,-303 158,-303 "/>
<text text-anchor="middle" x="85" y="-291" font-family="Helvetica,sans-Serif" font-size="10.00"> </text>
<polyline fill="none" stroke="black" points="12,-284 158,-284 "/>
<text text-anchor="start" x="20" y="-272" font-family="Helvetica,sans-Serif" font-size="10.00">+ Editor()</text>
<text text-anchor="start" x="20" y="-261" font-family="Helvetica,sans-Serif" font-size="10.00">+ Editor()</text>
<text text-anchor="start" x="20" y="-250" font-family="Helvetica,sans-Serif" font-size="10.00">+ edit()</text>
<text text-anchor="start" x="20" y="-239" font-family="Helvetica,sans-Serif" font-size="10.00">+ ~Editor()</text>
<text text-anchor="start" x="20" y="-228" font-family="Helvetica,sans-Serif" font-size="10.00">+ isValid()</text>
<text text-anchor="start" x="20" y="-217" font-family="Helvetica,sans-Serif" font-size="10.00">+ state()</text>
<text text-anchor="start" x="20" y="-206" font-family="Helvetica,sans-Serif" font-size="10.00">+ begin()</text>
<text text-anchor="start" x="20" y="-195" font-family="Helvetica,sans-Serif" font-size="10.00">+ end()</text>
<text text-anchor="start" x="20" y="-184" font-family="Helvetica,sans-Serif" font-size="10.00">+ set_acceleration()</text>
<text text-anchor="start" x="20" y="-173" font-family="Helvetica,sans-Serif" font-size="10.00">+ set_angularVelocity()</text>
<text text-anchor="start" x="20" y="-162" font-family="Helvetica,sans-Serif" font-size="10.00">and 44 more...</text>
<text text-anchor="start" x="20" y="-151" font-family="Helvetica,sans-Serif" font-size="10.00">&#45; communicate()</text>
<text text-anchor="start" x="20" y="-140" font-family="Helvetica,sans-Serif" font-size="10.00">&#45; mark_dirty()</text>
<text text-anchor="start" x="20" y="-129" font-family="Helvetica,sans-Serif" font-size="10.00">&#45; mark_dirty_acceleration()</text>
<text text-anchor="start" x="20" y="-118" font-family="Helvetica,sans-Serif" font-size="10.00">&#45; mark_dirty_angularVelocity()</text>
<text text-anchor="start" x="20" y="-107" font-family="Helvetica,sans-Serif" font-size="10.00">&#45; mark_dirty_magnetometer()</text>
<text text-anchor="start" x="20" y="-96" font-family="Helvetica,sans-Serif" font-size="10.00">&#45; mark_dirty_orientation()</text>
<text text-anchor="start" x="20" y="-85" font-family="Helvetica,sans-Serif" font-size="10.00">&#45; dirty_flags()</text>
<text text-anchor="start" x="20" y="-74" font-family="Helvetica,sans-Serif" font-size="10.00">&#45; communicate()</text>
<text text-anchor="start" x="20" y="-63" font-family="Helvetica,sans-Serif" font-size="10.00">&#45; mark_dirty()</text>
<text text-anchor="start" x="20" y="-52" font-family="Helvetica,sans-Serif" font-size="10.00">&#45; mark_dirty_acceleration()</text>
<text text-anchor="start" x="20" y="-41" font-family="Helvetica,sans-Serif" font-size="10.00">&#45; mark_dirty_angularVelocity()</text>
<text text-anchor="start" x="20" y="-30" font-family="Helvetica,sans-Serif" font-size="10.00">&#45; mark_dirty_magnetometer()</text>
<text text-anchor="start" x="20" y="-19" font-family="Helvetica,sans-Serif" font-size="10.00">&#45; mark_dirty_orientation()</text>
<text text-anchor="start" x="20" y="-8" font-family="Helvetica,sans-Serif" font-size="10.00">&#45; dirty_flags()</text>
</g>
<!-- Node2 -->
<g id="node2" class="node"><title>Node2</title>
<g id="a_node2"><a xlink:href="classyarp_1_1os_1_1_wire.html" target="_top" xlink:title="{Wire\n||}">
<polygon fill="none" stroke="black" points="-0.5,-552.5 -0.5,-609.5 36.5,-609.5 36.5,-552.5 -0.5,-552.5"/>
<text text-anchor="middle" x="18" y="-597.5" font-family="Helvetica,sans-Serif" font-size="10.00">Wire</text>
<polyline fill="none" stroke="black" points="-0.5,-590.5 36.5,-590.5 "/>
<text text-anchor="middle" x="18" y="-578.5" font-family="Helvetica,sans-Serif" font-size="10.00"> </text>
<polyline fill="none" stroke="black" points="-0.5,-571.5 36.5,-571.5 "/>
<text text-anchor="middle" x="18" y="-559.5" font-family="Helvetica,sans-Serif" font-size="10.00"> </text>
</a>
</g>
</g>
<!-- Node2&#45;&gt;Node1 -->
<g id="edge1" class="edge"><title>Node2&#45;&gt;Node1</title>
<path fill="none" stroke="midnightblue" d="M20.0421,-542.214C25.624,-494.751 38.5287,-410.211 51.4568,-333.48"/>
<polygon fill="none" stroke="midnightblue" points="16.5443,-541.999 18.9044,-552.328 23.5004,-542.782 16.5443,-541.999"/>
</g>
<!-- Node2&#45;&gt;Node1 -->
<g id="edge3" class="edge"><title>Node2&#45;&gt;Node1</title>
<path fill="none" stroke="midnightblue" d="M28.1854,-542.513C38.0412,-495.106 52.6686,-410.372 64.722,-333.48"/>
<polygon fill="none" stroke="midnightblue" points="24.755,-541.818 26.0958,-552.328 31.6015,-543.276 24.755,-541.818"/>
</g>
<!-- Node3 -->
<g id="node3" class="node"><title>Node3</title>
<g id="a_node3"><a xlink:href="classyarp_1_1os_1_1_port_writer.html" target="_top" xlink:title="{PortWriter\n||}">
<polygon fill="none" stroke="black" points="54.5,-552.5 54.5,-609.5 115.5,-609.5 115.5,-552.5 54.5,-552.5"/>
<text text-anchor="middle" x="85" y="-597.5" font-family="Helvetica,sans-Serif" font-size="10.00">PortWriter</text>
<polyline fill="none" stroke="black" points="54.5,-590.5 115.5,-590.5 "/>
<text text-anchor="middle" x="85" y="-578.5" font-family="Helvetica,sans-Serif" font-size="10.00"> </text>
<polyline fill="none" stroke="black" points="54.5,-571.5 115.5,-571.5 "/>
<text text-anchor="middle" x="85" y="-559.5" font-family="Helvetica,sans-Serif" font-size="10.00"> </text>
</a>
</g>
</g>
<!-- Node3&#45;&gt;Node1 -->
<g id="edge2" class="edge"><title>Node3&#45;&gt;Node1</title>
<path fill="none" stroke="midnightblue" d="M80.8973,-542.214C78.7607,-494.751 77.9174,-410.211 78.3674,-333.48"/>
<polygon fill="none" stroke="midnightblue" points="77.4079,-542.516 81.4043,-552.328 84.3991,-542.165 77.4079,-542.516"/>
</g>
<!-- Node3&#45;&gt;Node1 -->
<g id="edge4" class="edge"><title>Node3&#45;&gt;Node1</title>
<path fill="none" stroke="midnightblue" d="M89.1027,-542.214C91.2393,-494.751 92.0826,-410.211 91.6326,-333.48"/>
<polygon fill="none" stroke="midnightblue" points="85.6009,-542.165 88.5957,-552.328 92.5921,-542.516 85.6009,-542.165"/>
</g>
<!-- Node4 -->
<g id="node4" class="node"><title>Node4</title>
<g id="a_node4"><a xlink:href="classxsens_1_1_xsens_sensor_data.html" target="_top" xlink:title="{xsens::XsensSensorData\n||+ XsensSensorData()\l+ XsensSensorData()\l+ XsensSensorData()\l+ operator=()\l+ read()\l+ read()\l+ write()\l+ write()\l+ toString()\l+ XsensSensorData()\land 8 more...\l&#45; write_acceleration()\l&#45; nested_write_acceleration()\l&#45; write_angularVelocity()\l&#45; nested_write_angularVelocity()\l&#45; write_magnetometer()\l&#45; nested_write_magnetometer()\l&#45; write_orientation()\l&#45; nested_write_orientation()\l&#45; read_acceleration()\l&#45; nested_read_acceleration()\land 22 more...\l}">
<polygon fill="none" stroke="black" points="134,-437 134,-725 290,-725 290,-437 134,-437"/>
<text text-anchor="middle" x="212" y="-713" font-family="Helvetica,sans-Serif" font-size="10.00">xsens::XsensSensorData</text>
<polyline fill="none" stroke="black" points="134,-706 290,-706 "/>
<text text-anchor="middle" x="212" y="-694" font-family="Helvetica,sans-Serif" font-size="10.00"> </text>
<polyline fill="none" stroke="black" points="134,-687 290,-687 "/>
<text text-anchor="start" x="142" y="-675" font-family="Helvetica,sans-Serif" font-size="10.00">+ XsensSensorData()</text>
<text text-anchor="start" x="142" y="-664" font-family="Helvetica,sans-Serif" font-size="10.00">+ XsensSensorData()</text>
<text text-anchor="start" x="142" y="-653" font-family="Helvetica,sans-Serif" font-size="10.00">+ XsensSensorData()</text>
<text text-anchor="start" x="142" y="-642" font-family="Helvetica,sans-Serif" font-size="10.00">+ operator=()</text>
<text text-anchor="start" x="142" y="-631" font-family="Helvetica,sans-Serif" font-size="10.00">+ read()</text>
<text text-anchor="start" x="142" y="-620" font-family="Helvetica,sans-Serif" font-size="10.00">+ read()</text>
<text text-anchor="start" x="142" y="-609" font-family="Helvetica,sans-Serif" font-size="10.00">+ write()</text>
<text text-anchor="start" x="142" y="-598" font-family="Helvetica,sans-Serif" font-size="10.00">+ write()</text>
<text text-anchor="start" x="142" y="-587" font-family="Helvetica,sans-Serif" font-size="10.00">+ toString()</text>
<text text-anchor="start" x="142" y="-576" font-family="Helvetica,sans-Serif" font-size="10.00">+ XsensSensorData()</text>
<text text-anchor="start" x="142" y="-565" font-family="Helvetica,sans-Serif" font-size="10.00">and 8 more...</text>
<text text-anchor="start" x="142" y="-554" font-family="Helvetica,sans-Serif" font-size="10.00">&#45; write_acceleration()</text>
<text text-anchor="start" x="142" y="-543" font-family="Helvetica,sans-Serif" font-size="10.00">&#45; nested_write_acceleration()</text>
<text text-anchor="start" x="142" y="-532" font-family="Helvetica,sans-Serif" font-size="10.00">&#45; write_angularVelocity()</text>
<text text-anchor="start" x="142" y="-521" font-family="Helvetica,sans-Serif" font-size="10.00">&#45; nested_write_angularVelocity()</text>
<text text-anchor="start" x="142" y="-510" font-family="Helvetica,sans-Serif" font-size="10.00">&#45; write_magnetometer()</text>
<text text-anchor="start" x="142" y="-499" font-family="Helvetica,sans-Serif" font-size="10.00">&#45; nested_write_magnetometer()</text>
<text text-anchor="start" x="142" y="-488" font-family="Helvetica,sans-Serif" font-size="10.00">&#45; write_orientation()</text>
<text text-anchor="start" x="142" y="-477" font-family="Helvetica,sans-Serif" font-size="10.00">&#45; nested_write_orientation()</text>
<text text-anchor="start" x="142" y="-466" font-family="Helvetica,sans-Serif" font-size="10.00">&#45; read_acceleration()</text>
<text text-anchor="start" x="142" y="-455" font-family="Helvetica,sans-Serif" font-size="10.00">&#45; nested_read_acceleration()</text>
<text text-anchor="start" x="142" y="-444" font-family="Helvetica,sans-Serif" font-size="10.00">and 22 more...</text>
</a>
</g>
</g>
<!-- Node4&#45;&gt;Node1 -->
<g id="edge5" class="edge"><title>Node4&#45;&gt;Node1</title>
<path fill="none" stroke="#404040" d="M167.849,-436.77C158.705,-407.105 148.969,-375.52 139.505,-344.818"/>
<polygon fill="none" stroke="#404040" points="139.428,-344.568 133.838,-340.012 135.893,-333.1 141.483,-337.656 139.428,-344.568"/>
<text text-anchor="middle" x="169.5" y="-382.5" font-family="Helvetica,sans-Serif" font-size="10.00"> &#45;obj</text>
</g>
<!-- Node5 -->
<g id="node5" class="node"><title>Node5</title>
<g id="a_node5"><a xlink:href="classyarp_1_1os_1_1idl_1_1_wire_portable.html" target="_top" xlink:title="{WirePortable\n||}">
<polygon fill="none" stroke="black" points="185.5,-1472.5 185.5,-1529.5 258.5,-1529.5 258.5,-1472.5 185.5,-1472.5"/>
<text text-anchor="middle" x="222" y="-1517.5" font-family="Helvetica,sans-Serif" font-size="10.00">WirePortable</text>
<polyline fill="none" stroke="black" points="185.5,-1510.5 258.5,-1510.5 "/>
<text text-anchor="middle" x="222" y="-1498.5" font-family="Helvetica,sans-Serif" font-size="10.00"> </text>
<polyline fill="none" stroke="black" points="185.5,-1491.5 258.5,-1491.5 "/>
<text text-anchor="middle" x="222" y="-1479.5" font-family="Helvetica,sans-Serif" font-size="10.00"> </text>
</a>
</g>
</g>
<!-- Node5&#45;&gt;Node4 -->
<g id="edge6" class="edge"><title>Node5&#45;&gt;Node4</title>
<path fill="none" stroke="midnightblue" d="M213.39,-1462.25C196.238,-1354.67 164.287,-1037.28 180,-774 180.945,-758.166 182.325,-741.636 184.003,-725.206"/>
<polygon fill="none" stroke="midnightblue" points="209.966,-1463 215.052,-1472.29 216.872,-1461.85 209.966,-1463"/>
</g>
<!-- Node5&#45;&gt;Node4 -->
<g id="edge7" class="edge"><title>Node5&#45;&gt;Node4</title>
<path fill="none" stroke="midnightblue" d="M221.59,-1462.25C214.238,-1354.67 182.287,-1037.28 198,-774 198.945,-758.166 200.325,-741.636 201.89,-725.206"/>
<polygon fill="none" stroke="midnightblue" points="218.101,-1462.54 222.239,-1472.29 225.086,-1462.09 218.101,-1462.54"/>
</g>
<!-- Node6 -->
<g id="node6" class="node"><title>Node6</title>
<g id="a_node6"><a xlink:href="classxsens_1_1_quaternion.html" target="_top" xlink:title="{xsens::Quaternion\n||+ Quaternion()\l+ Quaternion()\l+ Quaternion()\l+ operator=()\l+ read()\l+ read()\l+ write()\l+ write()\l+ toString()\l+ Quaternion()\land 8 more...\l&#45; write_w()\l&#45; nested_write_w()\l&#45; write_imaginary()\l&#45; nested_write_imaginary()\l&#45; read_w()\l&#45; nested_read_w()\l&#45; read_imaginary()\l&#45; nested_read_imaginary()\l&#45; write_w()\l&#45; nested_write_w()\land 6 more...\l}">
<polygon fill="none" stroke="black" points="198.5,-775 198.5,-1063 329.5,-1063 329.5,-775 198.5,-775"/>
<text text-anchor="middle" x="264" y="-1051" font-family="Helvetica,sans-Serif" font-size="10.00">xsens::Quaternion</text>
<polyline fill="none" stroke="black" points="198.5,-1044 329.5,-1044 "/>
<text text-anchor="middle" x="264" y="-1032" font-family="Helvetica,sans-Serif" font-size="10.00"> </text>
<polyline fill="none" stroke="black" points="198.5,-1025 329.5,-1025 "/>
<text text-anchor="start" x="206.5" y="-1013" font-family="Helvetica,sans-Serif" font-size="10.00">+ Quaternion()</text>
<text text-anchor="start" x="206.5" y="-1002" font-family="Helvetica,sans-Serif" font-size="10.00">+ Quaternion()</text>
<text text-anchor="start" x="206.5" y="-991" font-family="Helvetica,sans-Serif" font-size="10.00">+ Quaternion()</text>
<text text-anchor="start" x="206.5" y="-980" font-family="Helvetica,sans-Serif" font-size="10.00">+ operator=()</text>
<text text-anchor="start" x="206.5" y="-969" font-family="Helvetica,sans-Serif" font-size="10.00">+ read()</text>
<text text-anchor="start" x="206.5" y="-958" font-family="Helvetica,sans-Serif" font-size="10.00">+ read()</text>
<text text-anchor="start" x="206.5" y="-947" font-family="Helvetica,sans-Serif" font-size="10.00">+ write()</text>
<text text-anchor="start" x="206.5" y="-936" font-family="Helvetica,sans-Serif" font-size="10.00">+ write()</text>
<text text-anchor="start" x="206.5" y="-925" font-family="Helvetica,sans-Serif" font-size="10.00">+ toString()</text>
<text text-anchor="start" x="206.5" y="-914" font-family="Helvetica,sans-Serif" font-size="10.00">+ Quaternion()</text>
<text text-anchor="start" x="206.5" y="-903" font-family="Helvetica,sans-Serif" font-size="10.00">and 8 more...</text>
<text text-anchor="start" x="206.5" y="-892" font-family="Helvetica,sans-Serif" font-size="10.00">&#45; write_w()</text>
<text text-anchor="start" x="206.5" y="-881" font-family="Helvetica,sans-Serif" font-size="10.00">&#45; nested_write_w()</text>
<text text-anchor="start" x="206.5" y="-870" font-family="Helvetica,sans-Serif" font-size="10.00">&#45; write_imaginary()</text>
<text text-anchor="start" x="206.5" y="-859" font-family="Helvetica,sans-Serif" font-size="10.00">&#45; nested_write_imaginary()</text>
<text text-anchor="start" x="206.5" y="-848" font-family="Helvetica,sans-Serif" font-size="10.00">&#45; read_w()</text>
<text text-anchor="start" x="206.5" y="-837" font-family="Helvetica,sans-Serif" font-size="10.00">&#45; nested_read_w()</text>
<text text-anchor="start" x="206.5" y="-826" font-family="Helvetica,sans-Serif" font-size="10.00">&#45; read_imaginary()</text>
<text text-anchor="start" x="206.5" y="-815" font-family="Helvetica,sans-Serif" font-size="10.00">&#45; nested_read_imaginary()</text>
<text text-anchor="start" x="206.5" y="-804" font-family="Helvetica,sans-Serif" font-size="10.00">&#45; write_w()</text>
<text text-anchor="start" x="206.5" y="-793" font-family="Helvetica,sans-Serif" font-size="10.00">&#45; nested_write_w()</text>
<text text-anchor="start" x="206.5" y="-782" font-family="Helvetica,sans-Serif" font-size="10.00">and 6 more...</text>
</a>
</g>
</g>
<!-- Node5&#45;&gt;Node6 -->
<g id="edge9" class="edge"><title>Node5&#45;&gt;Node6</title>
<path fill="none" stroke="midnightblue" d="M219.437,-1462.23C220.708,-1392.85 231.681,-1240.46 241,-1112 242.149,-1096.17 243.353,-1079.6 244.61,-1063.11"/>
<polygon fill="none" stroke="midnightblue" points="215.937,-1462.2 219.32,-1472.24 222.937,-1462.28 215.937,-1462.2"/>
</g>
<!-- Node5&#45;&gt;Node6 -->
<g id="edge10" class="edge"><title>Node5&#45;&gt;Node6</title>
<path fill="none" stroke="midnightblue" d="M229.996,-1462.23C238.708,-1392.85 249.681,-1240.46 259,-1112 260.149,-1096.17 261.353,-1079.6 262.495,-1063.11"/>
<polygon fill="none" stroke="midnightblue" points="226.513,-1461.87 228.672,-1472.24 233.452,-1462.79 226.513,-1461.87"/>
</g>
<!-- Node8 -->
<g id="node8" class="node"><title>Node8</title>
<g id="a_node8"><a xlink:href="classxsens_1_1_vector3.html" target="_top" xlink:title="{xsens::Vector3\n||+ Vector3()\l+ Vector3()\l+ Vector3()\l+ operator=()\l+ read()\l+ read()\l+ write()\l+ write()\l+ toString()\l+ Vector3()\land 8 more...\l&#45; write_x()\l&#45; nested_write_x()\l&#45; write_y()\l&#45; nested_write_y()\l&#45; write_z()\l&#45; nested_write_z()\l&#45; read_x()\l&#45; nested_read_x()\l&#45; read_y()\l&#45; nested_read_y()\land 14 more...\l}">
<polygon fill="none" stroke="black" points="259.5,-1113 259.5,-1401 354.5,-1401 354.5,-1113 259.5,-1113"/>
<text text-anchor="middle" x="307" y="-1389" font-family="Helvetica,sans-Serif" font-size="10.00">xsens::Vector3</text>
<polyline fill="none" stroke="black" points="259.5,-1382 354.5,-1382 "/>
<text text-anchor="middle" x="307" y="-1370" font-family="Helvetica,sans-Serif" font-size="10.00"> </text>
<polyline fill="none" stroke="black" points="259.5,-1363 354.5,-1363 "/>
<text text-anchor="start" x="267.5" y="-1351" font-family="Helvetica,sans-Serif" font-size="10.00">+ Vector3()</text>
<text text-anchor="start" x="267.5" y="-1340" font-family="Helvetica,sans-Serif" font-size="10.00">+ Vector3()</text>
<text text-anchor="start" x="267.5" y="-1329" font-family="Helvetica,sans-Serif" font-size="10.00">+ Vector3()</text>
<text text-anchor="start" x="267.5" y="-1318" font-family="Helvetica,sans-Serif" font-size="10.00">+ operator=()</text>
<text text-anchor="start" x="267.5" y="-1307" font-family="Helvetica,sans-Serif" font-size="10.00">+ read()</text>
<text text-anchor="start" x="267.5" y="-1296" font-family="Helvetica,sans-Serif" font-size="10.00">+ read()</text>
<text text-anchor="start" x="267.5" y="-1285" font-family="Helvetica,sans-Serif" font-size="10.00">+ write()</text>
<text text-anchor="start" x="267.5" y="-1274" font-family="Helvetica,sans-Serif" font-size="10.00">+ write()</text>
<text text-anchor="start" x="267.5" y="-1263" font-family="Helvetica,sans-Serif" font-size="10.00">+ toString()</text>
<text text-anchor="start" x="267.5" y="-1252" font-family="Helvetica,sans-Serif" font-size="10.00">+ Vector3()</text>
<text text-anchor="start" x="267.5" y="-1241" font-family="Helvetica,sans-Serif" font-size="10.00">and 8 more...</text>
<text text-anchor="start" x="267.5" y="-1230" font-family="Helvetica,sans-Serif" font-size="10.00">&#45; write_x()</text>
<text text-anchor="start" x="267.5" y="-1219" font-family="Helvetica,sans-Serif" font-size="10.00">&#45; nested_write_x()</text>
<text text-anchor="start" x="267.5" y="-1208" font-family="Helvetica,sans-Serif" font-size="10.00">&#45; write_y()</text>
<text text-anchor="start" x="267.5" y="-1197" font-family="Helvetica,sans-Serif" font-size="10.00">&#45; nested_write_y()</text>
<text text-anchor="start" x="267.5" y="-1186" font-family="Helvetica,sans-Serif" font-size="10.00">&#45; write_z()</text>
<text text-anchor="start" x="267.5" y="-1175" font-family="Helvetica,sans-Serif" font-size="10.00">&#45; nested_write_z()</text>
<text text-anchor="start" x="267.5" y="-1164" font-family="Helvetica,sans-Serif" font-size="10.00">&#45; read_x()</text>
<text text-anchor="start" x="267.5" y="-1153" font-family="Helvetica,sans-Serif" font-size="10.00">&#45; nested_read_x()</text>
<text text-anchor="start" x="267.5" y="-1142" font-family="Helvetica,sans-Serif" font-size="10.00">&#45; read_y()</text>
<text text-anchor="start" x="267.5" y="-1131" font-family="Helvetica,sans-Serif" font-size="10.00">&#45; nested_read_y()</text>
<text text-anchor="start" x="267.5" y="-1120" font-family="Helvetica,sans-Serif" font-size="10.00">and 14 more...</text>
</a>
</g>
</g>
<!-- Node5&#45;&gt;Node8 -->
<g id="edge13" class="edge"><title>Node5&#45;&gt;Node8</title>
<path fill="none" stroke="midnightblue" d="M232.241,-1462.79C233.553,-1459.84 234.831,-1456.89 236,-1454 244.243,-1433.66 252.104,-1411.78 259.415,-1390.27"/>
<polygon fill="none" stroke="midnightblue" points="228.96,-1461.55 228.024,-1472.1 235.337,-1464.44 228.96,-1461.55"/>
</g>
<!-- Node5&#45;&gt;Node8 -->
<g id="edge14" class="edge"><title>Node5&#45;&gt;Node8</title>
<path fill="none" stroke="midnightblue" d="M250.064,-1463.07C251.47,-1460.03 252.793,-1456.98 254,-1454 260.869,-1437.05 267.473,-1419.03 273.57,-1401.05"/>
<polygon fill="none" stroke="midnightblue" points="246.895,-1461.58 245.623,-1472.1 253.177,-1464.67 246.895,-1461.58"/>
</g>
<!-- Node6&#45;&gt;Node4 -->
<g id="edge8" class="edge"><title>Node6&#45;&gt;Node4</title>
<path fill="none" stroke="#404040" d="M241.796,-774.531C239.882,-762.163 237.94,-749.614 236.013,-737.159"/>
<polygon fill="none" stroke="#404040" points="236.006,-737.115 231.135,-731.798 234.171,-725.257 239.041,-730.574 236.006,-737.115"/>
<text text-anchor="middle" x="265.5" y="-747.5" font-family="Helvetica,sans-Serif" font-size="10.00"> +orientation</text>
</g>
<!-- Node7 -->
<g id="node7" class="node"><title>Node7</title>
<polygon fill="none" stroke="#bfbfbf" points="344.5,-1472.5 344.5,-1529.5 389.5,-1529.5 389.5,-1472.5 344.5,-1472.5"/>
<text text-anchor="middle" x="367" y="-1517.5" font-family="Helvetica,sans-Serif" font-size="10.00">double</text>
<polyline fill="none" stroke="#bfbfbf" points="344.5,-1510.5 389.5,-1510.5 "/>
<text text-anchor="middle" x="367" y="-1498.5" font-family="Helvetica,sans-Serif" font-size="10.00"> </text>
<polyline fill="none" stroke="#bfbfbf" points="344.5,-1491.5 389.5,-1491.5 "/>
<text text-anchor="middle" x="367" y="-1479.5" font-family="Helvetica,sans-Serif" font-size="10.00"> </text>
</g>
<!-- Node7&#45;&gt;Node6 -->
<g id="edge11" class="edge"><title>Node7&#45;&gt;Node6</title>
<path fill="none" stroke="#404040" d="M372.599,-1472.37C373.598,-1466.34 374.484,-1459.98 375,-1454 376.299,-1438.94 375.294,-1435.11 375,-1420 372.333,-1283.03 402.332,-1243.22 363,-1112 356.794,-1091.3 348.496,-1086.87 335.775,-1066.46"/>
<polygon fill="none" stroke="#404040" points="335.635,-1066.22 329.164,-1063.04 329.61,-1055.84 336.082,-1059.02 335.635,-1066.22"/>
<text text-anchor="middle" x="392.5" y="-1254.5" font-family="Helvetica,sans-Serif" font-size="10.00"> +w</text>
</g>
<!-- Node7&#45;&gt;Node8 -->
<g id="edge15" class="edge"><title>Node7&#45;&gt;Node8</title>
<path fill="none" stroke="#404040" d="M360.117,-1472.24C356.22,-1456.52 351.002,-1435.48 345.355,-1412.7"/>
<polygon fill="none" stroke="#404040" points="345.348,-1412.67 340.022,-1407.81 342.46,-1401.02 347.787,-1405.88 345.348,-1412.67"/>
<text text-anchor="middle" x="363.5" y="-1445.5" font-family="Helvetica,sans-Serif" font-size="10.00"> +x</text>
<text text-anchor="middle" x="363.5" y="-1434.5" font-family="Helvetica,sans-Serif" font-size="10.00">+y</text>
<text text-anchor="middle" x="363.5" y="-1423.5" font-family="Helvetica,sans-Serif" font-size="10.00">+z</text>
</g>
<!-- Node8&#45;&gt;Node4 -->
<g id="edge16" class="edge"><title>Node8&#45;&gt;Node4</title>
<path fill="none" stroke="#404040" d="M345.763,-1112.8C365.314,-1014.6 377.46,-882.894 338,-774 328.635,-748.157 314.812,-748.484 299,-726 298.357,-725.085 297.713,-724.166 297.07,-723.242"/>
<polygon fill="none" stroke="#404040" points="296.963,-723.085 290.271,-720.397 290.18,-713.186 296.871,-715.875 296.963,-723.085"/>
<text text-anchor="middle" x="401.5" y="-927.5" font-family="Helvetica,sans-Serif" font-size="10.00"> +magnetometer</text>
<text text-anchor="middle" x="401.5" y="-916.5" font-family="Helvetica,sans-Serif" font-size="10.00">+acceleration</text>
<text text-anchor="middle" x="401.5" y="-905.5" font-family="Helvetica,sans-Serif" font-size="10.00">+angularVelocity</text>
</g>
<!-- Node8&#45;&gt;Node6 -->
<g id="edge12" class="edge"><title>Node8&#45;&gt;Node6</title>
<path fill="none" stroke="#404040" d="M288.639,-1112.53C287.057,-1100.16 285.451,-1087.61 283.857,-1075.16"/>
<polygon fill="none" stroke="#404040" points="283.857,-1075.16 279.127,-1069.72 282.333,-1063.26 287.063,-1068.7 283.857,-1075.16"/>
<text text-anchor="middle" x="312" y="-1085.5" font-family="Helvetica,sans-Serif" font-size="10.00"> +imaginary</text>
</g>
<!-- Node9 -->
<g id="node9" class="node"><title>Node9</title>
<polygon fill="none" stroke="#bfbfbf" points="308.5,-552.5 308.5,-609.5 337.5,-609.5 337.5,-552.5 308.5,-552.5"/>
<text text-anchor="middle" x="323" y="-597.5" font-family="Helvetica,sans-Serif" font-size="10.00">int</text>
<polyline fill="none" stroke="#bfbfbf" points="308.5,-590.5 337.5,-590.5 "/>
<text text-anchor="middle" x="323" y="-578.5" font-family="Helvetica,sans-Serif" font-size="10.00"> </text>
<polyline fill="none" stroke="#bfbfbf" points="308.5,-571.5 337.5,-571.5 "/>
<text text-anchor="middle" x="323" y="-559.5" font-family="Helvetica,sans-Serif" font-size="10.00"> </text>
</g>
<!-- Node9&#45;&gt;Node1 -->
<g id="edge17" class="edge"><title>Node9&#45;&gt;Node1</title>
<path fill="none" stroke="#404040" d="M322.488,-552.282C321.018,-522.383 315.929,-473.962 299,-436 267.429,-365.208 212.627,-297.11 166.385,-247.273"/>
<polygon fill="none" stroke="#404040" points="166.364,-247.251 159.342,-245.61 158.155,-238.497 165.178,-240.138 166.364,-247.251"/>
<text text-anchor="middle" x="314.5" y="-388" font-family="Helvetica,sans-Serif" font-size="10.00"> &#45;dirty_count</text>
<text text-anchor="middle" x="314.5" y="-377" font-family="Helvetica,sans-Serif" font-size="10.00">&#45;group</text>
</g>
<!-- Node10 -->
<g id="node10" class="node"><title>Node10</title>
<polygon fill="none" stroke="#bfbfbf" points="369.5,-552.5 369.5,-609.5 404.5,-609.5 404.5,-552.5 369.5,-552.5"/>
<text text-anchor="middle" x="387" y="-597.5" font-family="Helvetica,sans-Serif" font-size="10.00">bool</text>
<polyline fill="none" stroke="#bfbfbf" points="369.5,-590.5 404.5,-590.5 "/>
<text text-anchor="middle" x="387" y="-578.5" font-family="Helvetica,sans-Serif" font-size="10.00"> </text>
<polyline fill="none" stroke="#bfbfbf" points="369.5,-571.5 404.5,-571.5 "/>
<text text-anchor="middle" x="387" y="-559.5" font-family="Helvetica,sans-Serif" font-size="10.00"> </text>
</g>
<!-- Node10&#45;&gt;Node1 -->
<g id="edge18" class="edge"><title>Node10&#45;&gt;Node1</title>
<path fill="none" stroke="#404040" d="M388.497,-552.332C389.628,-506.86 386.199,-415.087 346,-352 303.649,-285.536 227.855,-236.15 168.817,-205.37"/>
<polygon fill="none" stroke="#404040" points="168.685,-205.302 161.522,-206.132 158,-199.839 165.164,-199.009 168.685,-205.302"/>
<text text-anchor="middle" x="429" y="-410" font-family="Helvetica,sans-Serif" font-size="10.00"> &#45;is_dirty_angularVelocity</text>
<text text-anchor="middle" x="429" y="-399" font-family="Helvetica,sans-Serif" font-size="10.00">&#45;is_dirty</text>
<text text-anchor="middle" x="429" y="-388" font-family="Helvetica,sans-Serif" font-size="10.00">&#45;is_dirty_magnetometer</text>
<text text-anchor="middle" x="429" y="-377" font-family="Helvetica,sans-Serif" font-size="10.00">&#45;obj_owned</text>
<text text-anchor="middle" x="429" y="-366" font-family="Helvetica,sans-Serif" font-size="10.00">&#45;is_dirty_acceleration</text>
<text text-anchor="middle" x="429" y="-355" font-family="Helvetica,sans-Serif" font-size="10.00">&#45;is_dirty_orientation</text>
</g>
</g>
</svg>
