<?xml version="1.0" encoding="UTF-8" standalone="no"?>
<!DOCTYPE svg PUBLIC "-//W3C//DTD SVG 1.1//EN"
 "http://www.w3.org/Graphics/SVG/1.1/DTD/svg11.dtd">
<!-- Generated by graphviz version 2.36.0 (20140111.2315)
 -->
<!-- Title: yarp::os::BufferedPort&lt; T &gt; Pages: 1 -->
<svg width="622pt" height="332pt"
 viewBox="0.00 0.00 622.00 332.00" xmlns="http://www.w3.org/2000/svg" xmlns:xlink="http://www.w3.org/1999/xlink">
<g id="graph0" class="graph" transform="scale(1 1) rotate(0) translate(4 328)">
<title>yarp::os::BufferedPort&lt; T &gt;</title>
<!-- Node1 -->
<g id="node1" class="node"><title>Node1</title>
<polygon fill="#bfbfbf" stroke="black" points="0.5,-152.5 0.5,-171.5 137.5,-171.5 137.5,-152.5 0.5,-152.5"/>
<text text-anchor="middle" x="69" y="-159.5" font-family="Helvetica,sans-Serif" font-size="10.00">yarp::os::BufferedPort&lt; T &gt;</text>
</g>
<!-- Node2 -->
<g id="node2" class="node"><title>Node2</title>
<g id="a_node2"><a xlink:href="classyarp_1_1os_1_1_buffered_port.html" target="_top" xlink:title="yarp::os::BufferedPort\l\&lt; yarp::sig::Vector \&gt;">
<polygon fill="none" stroke="black" points="324.5,-294 324.5,-324 437.5,-324 437.5,-294 324.5,-294"/>
<text text-anchor="start" x="332.5" y="-312" font-family="Helvetica,sans-Serif" font-size="10.00">yarp::os::BufferedPort</text>
<text text-anchor="middle" x="381" y="-301" font-family="Helvetica,sans-Serif" font-size="10.00">&lt; yarp::sig::Vector &gt;</text>
</a>
</g>
</g>
<!-- Node1&#45;&gt;Node2 -->
<g id="edge1" class="edge"><title>Node1&#45;&gt;Node2</title>
<path fill="none" stroke="orange" stroke-dasharray="5,2" d="M80.3824,-180.471C94.4084,-203.613 121.655,-242.692 156,-263 207.773,-293.613 276.718,-304.103 324.378,-307.566"/>
<polygon fill="orange" stroke="orange" points="83.2759,-178.486 75.1986,-171.63 77.2374,-182.027 83.2759,-178.486"/>
<text text-anchor="middle" x="223" y="-307" font-family="Helvetica,sans-Serif" font-size="10.00"> &lt; yarp::sig::Vector &gt;</text>
</g>
<!-- Node3 -->
<g id="node3" class="node"><title>Node3</title>
<g id="a_node3"><a xlink:href="classyarp_1_1os_1_1_buffered_port.html" target="_top" xlink:title="yarp::os::BufferedPort\l\&lt; jointData \&gt;">
<polygon fill="none" stroke="black" points="324.5,-245 324.5,-275 437.5,-275 437.5,-245 324.5,-245"/>
<text text-anchor="start" x="332.5" y="-263" font-family="Helvetica,sans-Serif" font-size="10.00">yarp::os::BufferedPort</text>
<text text-anchor="middle" x="381" y="-252" font-family="Helvetica,sans-Serif" font-size="10.00">&lt; jointData &gt;</text>
</a>
</g>
</g>
<!-- Node1&#45;&gt;Node3 -->
<g id="edge2" class="edge"><title>Node1&#45;&gt;Node3</title>
<path fill="none" stroke="orange" stroke-dasharray="5,2" d="M91.5046,-177.473C108.311,-188.874 132.659,-203.919 156,-213 211.177,-234.468 278.007,-246.867 324.233,-253.482"/>
<polygon fill="orange" stroke="orange" points="93.2101,-174.396 82.998,-171.574 89.2214,-180.149 93.2101,-174.396"/>
<text text-anchor="middle" x="223" y="-251" font-family="Helvetica,sans-Serif" font-size="10.00"> &lt; jointData &gt;</text>
</g>
<!-- Node5 -->
<g id="node5" class="node"><title>Node5</title>
<g id="a_node5"><a xlink:href="classyarp_1_1os_1_1_buffered_port.html" target="_top" xlink:title="yarp::os::BufferedPort\l\&lt; human::HumanDynamics \&gt;">
<polygon fill="none" stroke="black" points="308,-196 308,-226 454,-226 454,-196 308,-196"/>
<text text-anchor="start" x="316" y="-214" font-family="Helvetica,sans-Serif" font-size="10.00">yarp::os::BufferedPort</text>
<text text-anchor="middle" x="381" y="-203" font-family="Helvetica,sans-Serif" font-size="10.00">&lt; human::HumanDynamics &gt;</text>
</a>
</g>
</g>
<!-- Node1&#45;&gt;Node5 -->
<g id="edge4" class="edge"><title>Node1&#45;&gt;Node5</title>
<path fill="none" stroke="orange" stroke-dasharray="5,2" d="M133.53,-173.243C141.099,-174.535 148.719,-175.813 156,-177 206.662,-185.262 263.881,-193.936 307.808,-200.455"/>
<polygon fill="orange" stroke="orange" points="134.092,-169.789 123.644,-171.544 132.907,-176.687 134.092,-169.789"/>
<text text-anchor="middle" x="223" y="-201" font-family="Helvetica,sans-Serif" font-size="10.00"> &lt; human::HumanDynamics &gt;</text>
</g>
<!-- Node6 -->
<g id="node6" class="node"><title>Node6</title>
<g id="a_node6"><a xlink:href="classyarp_1_1os_1_1_buffered_port.html" target="_top" xlink:title="yarp::os::BufferedPort\l\&lt; HumanState \&gt;">
<polygon fill="none" stroke="black" points="324.5,-147 324.5,-177 437.5,-177 437.5,-147 324.5,-147"/>
<text text-anchor="start" x="332.5" y="-165" font-family="Helvetica,sans-Serif" font-size="10.00">yarp::os::BufferedPort</text>
<text text-anchor="middle" x="381" y="-154" font-family="Helvetica,sans-Serif" font-size="10.00">&lt; HumanState &gt;</text>
</a>
</g>
</g>
<!-- Node1&#45;&gt;Node6 -->
<g id="edge5" class="edge"><title>Node1&#45;&gt;Node6</title>
<path fill="none" stroke="orange" stroke-dasharray="5,2" d="M147.703,-162C202.695,-162 275.132,-162 324.398,-162"/>
<polygon fill="orange" stroke="orange" points="147.648,-158.5 137.648,-162 147.648,-165.5 147.648,-158.5"/>
<text text-anchor="middle" x="223" y="-165" font-family="Helvetica,sans-Serif" font-size="10.00"> &lt; HumanState &gt;</text>
</g>
<!-- Node7 -->
<g id="node7" class="node"><title>Node7</title>
<g id="a_node7"><a xlink:href="classyarp_1_1os_1_1_buffered_port.html" target="_top" xlink:title="yarp::os::BufferedPort\l\&lt; human::HumanState \&gt;">
<polygon fill="none" stroke="black" points="318.5,-98 318.5,-128 443.5,-128 443.5,-98 318.5,-98"/>
<text text-anchor="start" x="326.5" y="-116" font-family="Helvetica,sans-Serif" font-size="10.00">yarp::os::BufferedPort</text>
<text text-anchor="middle" x="381" y="-105" font-family="Helvetica,sans-Serif" font-size="10.00">&lt; human::HumanState &gt;</text>
</a>
</g>
</g>
<!-- Node1&#45;&gt;Node7 -->
<g id="edge6" class="edge"><title>Node1&#45;&gt;Node7</title>
<path fill="none" stroke="orange" stroke-dasharray="5,2" d="M133.53,-150.757C141.099,-149.465 148.719,-148.187 156,-147 210.738,-138.073 273.132,-128.666 318.142,-122.015"/>
<polygon fill="orange" stroke="orange" points="132.907,-147.313 123.644,-152.456 134.092,-154.211 132.907,-147.313"/>
<text text-anchor="middle" x="223" y="-150" font-family="Helvetica,sans-Serif" font-size="10.00"> &lt; human::HumanState &gt;</text>
</g>
<!-- Node8 -->
<g id="node8" class="node"><title>Node8</title>
<g id="a_node8"><a xlink:href="classyarp_1_1os_1_1_buffered_port.html" target="_top" xlink:title="yarp::os::BufferedPort\l\&lt; XsensSegmentsFrame \&gt;">
<polygon fill="none" stroke="black" points="314,-49 314,-79 448,-79 448,-49 314,-49"/>
<text text-anchor="start" x="322" y="-67" font-family="Helvetica,sans-Serif" font-size="10.00">yarp::os::BufferedPort</text>
<text text-anchor="middle" x="381" y="-56" font-family="Helvetica,sans-Serif" font-size="10.00">&lt; XsensSegmentsFrame &gt;</text>
</a>
</g>
</g>
<!-- Node1&#45;&gt;Node8 -->
<g id="edge7" class="edge"><title>Node1&#45;&gt;Node8</title>
<path fill="none" stroke="orange" stroke-dasharray="5,2" d="M91.857,-146.681C108.682,-135.552 132.894,-120.932 156,-112 207.193,-92.2111 268.286,-79.8088 313.728,-72.58"/>
<polygon fill="orange" stroke="orange" points="89.6501,-143.948 83.3239,-152.447 93.5693,-149.748 89.6501,-143.948"/>
<text text-anchor="middle" x="223" y="-115" font-family="Helvetica,sans-Serif" font-size="10.00"> &lt; XsensSegmentsFrame &gt;</text>
</g>
<!-- Node9 -->
<g id="node9" class="node"><title>Node9</title>
<g id="a_node9"><a xlink:href="classyarp_1_1os_1_1_buffered_port.html" target="_top" xlink:title="yarp::os::BufferedPort\l\&lt; human::HumanForces \&gt;">
<polygon fill="none" stroke="black" points="315.5,-0 315.5,-30 446.5,-30 446.5,-0 315.5,-0"/>
<text text-anchor="start" x="323.5" y="-18" font-family="Helvetica,sans-Serif" font-size="10.00">yarp::os::BufferedPort</text>
<text text-anchor="middle" x="381" y="-7" font-family="Helvetica,sans-Serif" font-size="10.00">&lt; human::HumanForces &gt;</text>
</a>
</g>
</g>
<!-- Node1&#45;&gt;Node9 -->
<g id="edge8" class="edge"><title>Node1&#45;&gt;Node9</title>
<path fill="none" stroke="orange" stroke-dasharray="5,2" d="M80.7167,-143.597C94.9303,-120.92 122.206,-82.9518 156,-63 204.633,-34.2878 268.233,-22.6596 315.234,-17.997"/>
<polygon fill="orange" stroke="orange" points="77.6417,-141.917 75.444,-152.282 83.6254,-145.55 77.6417,-141.917"/>
<text text-anchor="middle" x="223" y="-66" font-family="Helvetica,sans-Serif" font-size="10.00"> &lt; human::HumanForces &gt;</text>
</g>
<!-- Node4 -->
<g id="node4" class="node"><title>Node4</title>
<g id="a_node4"><a xlink:href="class_state_extended_input_port.html" target="_top" xlink:title="StateExtendedInputPort">
<polygon fill="none" stroke="black" points="492.5,-250.5 492.5,-269.5 613.5,-269.5 613.5,-250.5 492.5,-250.5"/>
<text text-anchor="middle" x="553" y="-257.5" font-family="Helvetica,sans-Serif" font-size="10.00">StateExtendedInputPort</text>
</a>
</g>
</g>
<!-- Node3&#45;&gt;Node4 -->
<g id="edge3" class="edge"><title>Node3&#45;&gt;Node4</title>
<path fill="none" stroke="midnightblue" d="M447.7,-260C462.418,-260 477.951,-260 492.404,-260"/>
<polygon fill="midnightblue" stroke="midnightblue" points="447.664,-256.5 437.664,-260 447.664,-263.5 447.664,-256.5"/>
</g>
</g>
</svg>
