<?xml version="1.0" encoding="UTF-8" standalone="no"?>
<!DOCTYPE svg PUBLIC "-//W3C//DTD SVG 1.1//EN"
 "http://www.w3.org/Graphics/SVG/1.1/DTD/svg11.dtd">
<!-- Generated by graphviz version 2.36.0 (20140111.2315)
 -->
<!-- Title: human::Quaternion Pages: 1 -->
<!--zoomable 764 -->
<svg id="main" version="1.1" xmlns="http://www.w3.org/2000/svg" xmlns:xlink="http://www.w3.org/1999/xlink" xml:space="preserve" onload="init(evt)">
<style type="text/css"><![CDATA[
.edge:hover path { stroke: red; }
.edge:hover polygon { stroke: red; fill: red; }
]]></style>
<script type="text/javascript"><![CDATA[
var edges = document.getElementsByTagName('g');
if (edges && edges.length) {
  for (var i=0;i<edges.length;i++) {
    if (edges[i].id.substr(0,4)=='edge') {
      edges[i].setAttribute('class','edge');
    }
  }
}
]]></script>
        <defs>
                <circle id="rim" cx="0" cy="0" r="7"/>
                <circle id="rim2" cx="0" cy="0" r="3.5"/>
                <g id="zoomPlus">
                        <use xlink:href="#rim" fill="#404040">
                                <set attributeName="fill" to="#808080" begin="zoomplus.mouseover" end="zoomplus.mouseout"/>
                        </use>
                        <path d="M-4,0h8M0,-4v8" fill="none" stroke="white" stroke-width="1.5" pointer-events="none"/>
                </g>
                <g id="zoomMin">
                        <use xlink:href="#rim" fill="#404040">
                                <set attributeName="fill" to="#808080" begin="zoomminus.mouseover" end="zoomminus.mouseout"/>
                        </use>
                        <path d="M-4,0h8" fill="none" stroke="white" stroke-width="1.5" pointer-events="none"/>
                </g>
                <g id="dirArrow">
                        <path fill="none" stroke="white" stroke-width="1.5" d="M0,-3.0v7 M-2.5,-0.5L0,-3.0L2.5,-0.5"/>
                </g>
               <g id="resetDef">
                       <use xlink:href="#rim2" fill="#404040">
                               <set attributeName="fill" to="#808080" begin="reset.mouseover" end="reset.mouseout"/>
                       </use>
               </g>
        </defs>

<script type="text/javascript">
var viewWidth = 205;
var viewHeight = 764;
var sectionId = 'dynsection-1';
</script>
<script xlink:href="svgpan.js"/>
<svg id="graph" class="graph">
<g id="viewport">
<title>human::Quaternion</title>
<!-- Node1 -->
<g id="node1" class="node"><title>Node1</title>
<polygon fill="#bfbfbf" stroke="black" points="-0.5,-1 -0.5,-289 130.5,-289 130.5,-1 -0.5,-1"/>
<text text-anchor="middle" x="65" y="-277" font-family="Helvetica,sans-Serif" font-size="10.00">human::Quaternion</text>
<polyline fill="none" stroke="black" points="-0.5,-270 130.5,-270 "/>
<text text-anchor="middle" x="65" y="-258" font-family="Helvetica,sans-Serif" font-size="10.00"> </text>
<polyline fill="none" stroke="black" points="-0.5,-251 130.5,-251 "/>
<text text-anchor="start" x="7.5" y="-239" font-family="Helvetica,sans-Serif" font-size="10.00">+ Quaternion()</text>
<text text-anchor="start" x="7.5" y="-228" font-family="Helvetica,sans-Serif" font-size="10.00">+ Quaternion()</text>
<text text-anchor="start" x="7.5" y="-217" font-family="Helvetica,sans-Serif" font-size="10.00">+ Quaternion()</text>
<text text-anchor="start" x="7.5" y="-206" font-family="Helvetica,sans-Serif" font-size="10.00">+ operator=()</text>
<text text-anchor="start" x="7.5" y="-195" font-family="Helvetica,sans-Serif" font-size="10.00">+ read()</text>
<text text-anchor="start" x="7.5" y="-184" font-family="Helvetica,sans-Serif" font-size="10.00">+ read()</text>
<text text-anchor="start" x="7.5" y="-173" font-family="Helvetica,sans-Serif" font-size="10.00">+ write()</text>
<text text-anchor="start" x="7.5" y="-162" font-family="Helvetica,sans-Serif" font-size="10.00">+ write()</text>
<text text-anchor="start" x="7.5" y="-151" font-family="Helvetica,sans-Serif" font-size="10.00">+ toString()</text>
<text text-anchor="start" x="7.5" y="-140" font-family="Helvetica,sans-Serif" font-size="10.00">+ Quaternion()</text>
<text text-anchor="start" x="7.5" y="-129" font-family="Helvetica,sans-Serif" font-size="10.00">and 8 more...</text>
<text text-anchor="start" x="7.5" y="-118" font-family="Helvetica,sans-Serif" font-size="10.00">&#45; write_w()</text>
<text text-anchor="start" x="7.5" y="-107" font-family="Helvetica,sans-Serif" font-size="10.00">&#45; nested_write_w()</text>
<text text-anchor="start" x="7.5" y="-96" font-family="Helvetica,sans-Serif" font-size="10.00">&#45; write_imaginary()</text>
<text text-anchor="start" x="7.5" y="-85" font-family="Helvetica,sans-Serif" font-size="10.00">&#45; nested_write_imaginary()</text>
<text text-anchor="start" x="7.5" y="-74" font-family="Helvetica,sans-Serif" font-size="10.00">&#45; read_w()</text>
<text text-anchor="start" x="7.5" y="-63" font-family="Helvetica,sans-Serif" font-size="10.00">&#45; nested_read_w()</text>
<text text-anchor="start" x="7.5" y="-52" font-family="Helvetica,sans-Serif" font-size="10.00">&#45; read_imaginary()</text>
<text text-anchor="start" x="7.5" y="-41" font-family="Helvetica,sans-Serif" font-size="10.00">&#45; nested_read_imaginary()</text>
<text text-anchor="start" x="7.5" y="-30" font-family="Helvetica,sans-Serif" font-size="10.00">&#45; write_w()</text>
<text text-anchor="start" x="7.5" y="-19" font-family="Helvetica,sans-Serif" font-size="10.00">&#45; nested_write_w()</text>
<text text-anchor="start" x="7.5" y="-8" font-family="Helvetica,sans-Serif" font-size="10.00">and 6 more...</text>
</g>
<!-- Node2 -->
<g id="node2" class="node"><title>Node2</title>
<g id="a_node2"><a xlink:href="classyarp_1_1os_1_1idl_1_1_wire_portable.html" target="_top" xlink:title="{WirePortable\n||}">
<polygon fill="none" stroke="black" points="27.5,-698.5 27.5,-755.5 100.5,-755.5 100.5,-698.5 27.5,-698.5"/>
<text text-anchor="middle" x="64" y="-743.5" font-family="Helvetica,sans-Serif" font-size="10.00">WirePortable</text>
<polyline fill="none" stroke="black" points="27.5,-736.5 100.5,-736.5 "/>
<text text-anchor="middle" x="64" y="-724.5" font-family="Helvetica,sans-Serif" font-size="10.00"> </text>
<polyline fill="none" stroke="black" points="27.5,-717.5 100.5,-717.5 "/>
<text text-anchor="middle" x="64" y="-705.5" font-family="Helvetica,sans-Serif" font-size="10.00"> </text>
</a>
</g>
</g>
<!-- Node2&#45;&gt;Node1 -->
<g id="edge1" class="edge"><title>Node2&#45;&gt;Node1</title>
<path fill="none" stroke="midnightblue" d="M49.6699,-688.299C46.1397,-670.13 43.3202,-647.992 42,-628 33.507,-499.391 37.3103,-466.804 42,-338 42.5776,-322.135 43.4229,-305.548 44.4741,-289.052"/>
<polygon fill="none" stroke="midnightblue" points="46.2734,-689.155 51.7616,-698.218 53.1228,-687.711 46.2734,-689.155"/>
</g>
<!-- Node2&#45;&gt;Node1 -->
<g id="edge2" class="edge"><title>Node2&#45;&gt;Node1</title>
<path fill="none" stroke="midnightblue" d="M65.9375,-688.045C64.1135,-669.924 61.3141,-647.899 60,-628 51.507,-499.391 55.3103,-466.804 60,-338 60.5776,-322.135 61.4229,-305.548 62.3591,-289.052"/>
<polygon fill="none" stroke="midnightblue" points="62.4723,-688.583 66.8802,-698.218 69.4425,-687.937 62.4723,-688.583"/>
</g>
<!-- Node4 -->
<g id="node4" class="node"><title>Node4</title>
<g id="a_node4"><a xlink:href="classhuman_1_1_vector3.html" target="_top" xlink:title="{human::Vector3\n||+ Vector3()\l+ Vector3()\l+ Vector3()\l+ operator=()\l+ read()\l+ read()\l+ write()\l+ write()\l+ toString()\l+ Vector3()\land 8 more...\l&#45; write_x()\l&#45; nested_write_x()\l&#45; write_y()\l&#45; nested_write_y()\l&#45; write_z()\l&#45; nested_write_z()\l&#45; read_x()\l&#45; nested_read_x()\l&#45; read_y()\l&#45; nested_read_y()\land 14 more...\l}">
<polygon fill="none" stroke="black" points="60.5,-339 60.5,-627 155.5,-627 155.5,-339 60.5,-339"/>
<text text-anchor="middle" x="108" y="-615" font-family="Helvetica,sans-Serif" font-size="10.00">human::Vector3</text>
<polyline fill="none" stroke="black" points="60.5,-608 155.5,-608 "/>
<text text-anchor="middle" x="108" y="-596" font-family="Helvetica,sans-Serif" font-size="10.00"> </text>
<polyline fill="none" stroke="black" points="60.5,-589 155.5,-589 "/>
<text text-anchor="start" x="68.5" y="-577" font-family="Helvetica,sans-Serif" font-size="10.00">+ Vector3()</text>
<text text-anchor="start" x="68.5" y="-566" font-family="Helvetica,sans-Serif" font-size="10.00">+ Vector3()</text>
<text text-anchor="start" x="68.5" y="-555" font-family="Helvetica,sans-Serif" font-size="10.00">+ Vector3()</text>
<text text-anchor="start" x="68.5" y="-544" font-family="Helvetica,sans-Serif" font-size="10.00">+ operator=()</text>
<text text-anchor="start" x="68.5" y="-533" font-family="Helvetica,sans-Serif" font-size="10.00">+ read()</text>
<text text-anchor="start" x="68.5" y="-522" font-family="Helvetica,sans-Serif" font-size="10.00">+ read()</text>
<text text-anchor="start" x="68.5" y="-511" font-family="Helvetica,sans-Serif" font-size="10.00">+ write()</text>
<text text-anchor="start" x="68.5" y="-500" font-family="Helvetica,sans-Serif" font-size="10.00">+ write()</text>
<text text-anchor="start" x="68.5" y="-489" font-family="Helvetica,sans-Serif" font-size="10.00">+ toString()</text>
<text text-anchor="start" x="68.5" y="-478" font-family="Helvetica,sans-Serif" font-size="10.00">+ Vector3()</text>
<text text-anchor="start" x="68.5" y="-467" font-family="Helvetica,sans-Serif" font-size="10.00">and 8 more...</text>
<text text-anchor="start" x="68.5" y="-456" font-family="Helvetica,sans-Serif" font-size="10.00">&#45; write_x()</text>
<text text-anchor="start" x="68.5" y="-445" font-family="Helvetica,sans-Serif" font-size="10.00">&#45; nested_write_x()</text>
<text text-anchor="start" x="68.5" y="-434" font-family="Helvetica,sans-Serif" font-size="10.00">&#45; write_y()</text>
<text text-anchor="start" x="68.5" y="-423" font-family="Helvetica,sans-Serif" font-size="10.00">&#45; nested_write_y()</text>
<text text-anchor="start" x="68.5" y="-412" font-family="Helvetica,sans-Serif" font-size="10.00">&#45; write_z()</text>
<text text-anchor="start" x="68.5" y="-401" font-family="Helvetica,sans-Serif" font-size="10.00">&#45; nested_write_z()</text>
<text text-anchor="start" x="68.5" y="-390" font-family="Helvetica,sans-Serif" font-size="10.00">&#45; read_x()</text>
<text text-anchor="start" x="68.5" y="-379" font-family="Helvetica,sans-Serif" font-size="10.00">&#45; nested_read_x()</text>
<text text-anchor="start" x="68.5" y="-368" font-family="Helvetica,sans-Serif" font-size="10.00">&#45; read_y()</text>
<text text-anchor="start" x="68.5" y="-357" font-family="Helvetica,sans-Serif" font-size="10.00">&#45; nested_read_y()</text>
<text text-anchor="start" x="68.5" y="-346" font-family="Helvetica,sans-Serif" font-size="10.00">and 14 more...</text>
</a>
</g>
</g>
<!-- Node2&#45;&gt;Node4 -->
<g id="edge5" class="edge"><title>Node2&#45;&gt;Node4</title>
<path fill="none" stroke="midnightblue" d="M65.8175,-688.149C68.0858,-671.002 71.4597,-649.539 75.346,-627.024"/>
<polygon fill="none" stroke="midnightblue" points="62.3238,-687.882 64.5534,-698.24 69.2695,-688.752 62.3238,-687.882"/>
</g>
<!-- Node2&#45;&gt;Node4 -->
<g id="edge6" class="edge"><title>Node2&#45;&gt;Node4</title>
<path fill="none" stroke="midnightblue" d="M75.9463,-688.149C79.9136,-671.002 84.3443,-649.539 88.6453,-627.024"/>
<polygon fill="none" stroke="midnightblue" points="72.4553,-687.7 73.5413,-698.24 79.2646,-689.324 72.4553,-687.7"/>
</g>
<!-- Node3 -->
<g id="node3" class="node"><title>Node3</title>
<polygon fill="none" stroke="#bfbfbf" points="139.5,-698.5 139.5,-755.5 184.5,-755.5 184.5,-698.5 139.5,-698.5"/>
<text text-anchor="middle" x="162" y="-743.5" font-family="Helvetica,sans-Serif" font-size="10.00">double</text>
<polyline fill="none" stroke="#bfbfbf" points="139.5,-736.5 184.5,-736.5 "/>
<text text-anchor="middle" x="162" y="-724.5" font-family="Helvetica,sans-Serif" font-size="10.00"> </text>
<polyline fill="none" stroke="#bfbfbf" points="139.5,-717.5 184.5,-717.5 "/>
<text text-anchor="middle" x="162" y="-705.5" font-family="Helvetica,sans-Serif" font-size="10.00"> </text>
</g>
<!-- Node3&#45;&gt;Node1 -->
<g id="edge3" class="edge"><title>Node3&#45;&gt;Node1</title>
<path fill="none" stroke="#404040" d="M168.298,-698.397C169.422,-692.366 170.419,-685.994 171,-680 172.458,-664.959 171.172,-661.11 171,-646 169.444,-509.085 197.796,-470.688 164,-338 157.578,-312.787 147.367,-287.139 135.891,-263.143"/>
<polygon fill="none" stroke="#404040" points="135.827,-263.013 129.592,-259.391 130.538,-252.242 136.773,-255.865 135.827,-263.013"/>
<text text-anchor="middle" x="188.5" y="-480.5" font-family="Helvetica,sans-Serif" font-size="10.00"> +w</text>
</g>
<!-- Node3&#45;&gt;Node4 -->
<g id="edge7" class="edge"><title>Node3&#45;&gt;Node4</title>
<path fill="none" stroke="#404040" d="M155.806,-698.24C152.314,-682.593 147.645,-661.667 142.589,-639.011"/>
<polygon fill="none" stroke="#404040" points="142.528,-638.736 137.317,-633.751 139.914,-627.024 145.125,-632.009 142.528,-638.736"/>
<text text-anchor="middle" x="159.5" y="-671.5" font-family="Helvetica,sans-Serif" font-size="10.00"> +x</text>
<text text-anchor="middle" x="159.5" y="-660.5" font-family="Helvetica,sans-Serif" font-size="10.00">+y</text>
<text text-anchor="middle" x="159.5" y="-649.5" font-family="Helvetica,sans-Serif" font-size="10.00">+z</text>
</g>
<!-- Node4&#45;&gt;Node1 -->
<g id="edge4" class="edge"><title>Node4&#45;&gt;Node1</title>
<path fill="none" stroke="#404040" d="M89.6394,-338.531C88.0566,-326.163 86.4506,-313.614 84.8567,-301.159"/>
<polygon fill="none" stroke="#404040" points="84.8568,-301.159 80.1275,-295.716 83.3334,-289.257 88.0628,-294.7 84.8568,-301.159"/>
<text text-anchor="middle" x="113" y="-311.5" font-family="Helvetica,sans-Serif" font-size="10.00"> +imaginary</text>
</g>
</g>
</svg>
        <g id="navigator" transform="translate(0 0)" fill="#404254">
                <rect fill="#f2f5e9" fill-opacity="0.5" stroke="#606060" stroke-width=".5" x="0" y="0" width="60" height="60"/>
                <use id="zoomplus" xlink:href="#zoomPlus" x="17" y="9" onmousedown="handleZoom(evt,'in')"/>
                <use id="zoomminus" xlink:href="#zoomMin" x="42" y="9" onmousedown="handleZoom(evt,'out')"/>
                <use id="reset" xlink:href="#resetDef" x="30" y="36" onmousedown="handleReset()"/>
                <g id="arrowUp" xlink:href="#dirArrow" transform="translate(30 24)" onmousedown="handlePan(0,-1)">
                  <use xlink:href="#rim" fill="#404040">
                        <set attributeName="fill" to="#808080" begin="arrowUp.mouseover" end="arrowUp.mouseout"/>
                  </use>
                  <path fill="none" stroke="white" stroke-width="1.5" d="M0,-3.0v7 M-2.5,-0.5L0,-3.0L2.5,-0.5"/>
                </g>
                <g id="arrowRight" xlink:href="#dirArrow" transform="rotate(90) translate(36 -43)" onmousedown="handlePan(1,0)">
                  <use xlink:href="#rim" fill="#404040">
                        <set attributeName="fill" to="#808080" begin="arrowRight.mouseover" end="arrowRight.mouseout"/>
                  </use>
                  <path fill="none" stroke="white" stroke-width="1.5" d="M0,-3.0v7 M-2.5,-0.5L0,-3.0L2.5,-0.5"/>
                </g>
                <g id="arrowDown" xlink:href="#dirArrow" transform="rotate(180) translate(-30 -48)" onmousedown="handlePan(0,1)">
                  <use xlink:href="#rim" fill="#404040">
                        <set attributeName="fill" to="#808080" begin="arrowDown.mouseover" end="arrowDown.mouseout"/>
                  </use>
                  <path fill="none" stroke="white" stroke-width="1.5" d="M0,-3.0v7 M-2.5,-0.5L0,-3.0L2.5,-0.5"/>
                </g>
                <g id="arrowLeft" xlink:href="#dirArrow" transform="rotate(270) translate(-36 17)" onmousedown="handlePan(-1,0)">
                  <use xlink:href="#rim" fill="#404040">
                        <set attributeName="fill" to="#808080" begin="arrowLeft.mouseover" end="arrowLeft.mouseout"/>
                  </use>
                  <path fill="none" stroke="white" stroke-width="1.5" d="M0,-3.0v7 M-2.5,-0.5L0,-3.0L2.5,-0.5"/>
                </g>
        </g>
        <svg viewBox="0 0 15 15" width="100%" height="30px" preserveAspectRatio="xMaxYMin meet">
         <g id="arrow_out" transform="scale(0.3 0.3)">
          <a xlink:href="classhuman_1_1_quaternion__coll__graph_org.svg" target="_base">
           <rect id="button" ry="5" rx="5" y="6" x="6" height="38" width="38"
                fill="#f2f5e9" fill-opacity="0.5" stroke="#606060" stroke-width="1.0"/>
           <path id="arrow"
             d="M 11.500037,31.436501 C 11.940474,20.09759 22.043105,11.32322 32.158766,21.979434 L 37.068811,17.246167 C 37.068811,17.246167 37.088388,32 37.088388,32 L 22.160133,31.978069 C 22.160133,31.978069 26.997745,27.140456 26.997745,27.140456 C 18.528582,18.264221 13.291696,25.230495 11.500037,31.436501 z"
             style="fill:#404040;"/>
          </a>
         </g>
        </svg>
</svg>
