<?xml version="1.0" encoding="UTF-8" standalone="no"?>
<!DOCTYPE svg PUBLIC "-//W3C//DTD SVG 1.1//EN"
 "http://www.w3.org/Graphics/SVG/1.1/DTD/svg11.dtd">
<!-- Generated by graphviz version 2.36.0 (20140111.2315)
 -->
<!-- Title: jointData::Editor Pages: 1 -->
<svg width="566pt" height="1146pt"
 viewBox="0.00 0.00 566.00 1146.00" xmlns="http://www.w3.org/2000/svg" xmlns:xlink="http://www.w3.org/1999/xlink">
<g id="graph0" class="graph" transform="scale(1 1) rotate(0) translate(4 1142)">
<title>jointData::Editor</title>
<!-- Node1 -->
<g id="node1" class="node"><title>Node1</title>
<polygon fill="#bfbfbf" stroke="black" points="76,-0.5 76,-519.5 228,-519.5 228,-0.5 76,-0.5"/>
<text text-anchor="middle" x="152" y="-507.5" font-family="Helvetica,sans-Serif" font-size="10.00">jointData::Editor</text>
<polyline fill="none" stroke="black" points="76,-500.5 228,-500.5 "/>
<text text-anchor="start" x="84" y="-488.5" font-family="Helvetica,sans-Serif" font-size="10.00">&#45; obj_owned</text>
<text text-anchor="start" x="84" y="-477.5" font-family="Helvetica,sans-Serif" font-size="10.00">&#45; is_dirty</text>
<text text-anchor="start" x="84" y="-466.5" font-family="Helvetica,sans-Serif" font-size="10.00">&#45; is_dirty_jointPosition</text>
<text text-anchor="start" x="84" y="-455.5" font-family="Helvetica,sans-Serif" font-size="10.00">&#45; is_dirty_jointPosition</text>
<text text-anchor="start" x="84" y="-444.5" font-family="Helvetica,sans-Serif" font-size="10.00">_isValid</text>
<text text-anchor="start" x="84" y="-433.5" font-family="Helvetica,sans-Serif" font-size="10.00">&#45; is_dirty_jointVelocity</text>
<text text-anchor="start" x="84" y="-422.5" font-family="Helvetica,sans-Serif" font-size="10.00">_isValid</text>
<text text-anchor="start" x="84" y="-411.5" font-family="Helvetica,sans-Serif" font-size="10.00">&#45; is_dirty_motorPosition</text>
<text text-anchor="start" x="84" y="-400.5" font-family="Helvetica,sans-Serif" font-size="10.00">_isValid</text>
<text text-anchor="start" x="84" y="-389.5" font-family="Helvetica,sans-Serif" font-size="10.00">&#45; is_dirty_motorVelocity</text>
<text text-anchor="start" x="84" y="-378.5" font-family="Helvetica,sans-Serif" font-size="10.00">_isValid</text>
<text text-anchor="start" x="84" y="-367.5" font-family="Helvetica,sans-Serif" font-size="10.00">&#45; is_dirty_motorAcceleration</text>
<text text-anchor="start" x="84" y="-356.5" font-family="Helvetica,sans-Serif" font-size="10.00">_isValid</text>
<text text-anchor="start" x="84" y="-345.5" font-family="Helvetica,sans-Serif" font-size="10.00">&#45; is_dirty_torque</text>
<text text-anchor="start" x="84" y="-334.5" font-family="Helvetica,sans-Serif" font-size="10.00">&#45; is_dirty_torque_isValid</text>
<text text-anchor="start" x="84" y="-323.5" font-family="Helvetica,sans-Serif" font-size="10.00">&#45; is_dirty_interactionMode</text>
<text text-anchor="start" x="84" y="-312.5" font-family="Helvetica,sans-Serif" font-size="10.00">&#45; is_dirty_interactionMode</text>
<text text-anchor="start" x="84" y="-301.5" font-family="Helvetica,sans-Serif" font-size="10.00">_isValid</text>
<polyline fill="none" stroke="black" points="76,-294.5 228,-294.5 "/>
<text text-anchor="start" x="84" y="-282.5" font-family="Helvetica,sans-Serif" font-size="10.00">+ Editor()</text>
<text text-anchor="start" x="84" y="-271.5" font-family="Helvetica,sans-Serif" font-size="10.00">+ Editor()</text>
<text text-anchor="start" x="84" y="-260.5" font-family="Helvetica,sans-Serif" font-size="10.00">+ edit()</text>
<text text-anchor="start" x="84" y="-249.5" font-family="Helvetica,sans-Serif" font-size="10.00">+ ~Editor()</text>
<text text-anchor="start" x="84" y="-238.5" font-family="Helvetica,sans-Serif" font-size="10.00">+ isValid()</text>
<text text-anchor="start" x="84" y="-227.5" font-family="Helvetica,sans-Serif" font-size="10.00">+ state()</text>
<text text-anchor="start" x="84" y="-216.5" font-family="Helvetica,sans-Serif" font-size="10.00">+ begin()</text>
<text text-anchor="start" x="84" y="-205.5" font-family="Helvetica,sans-Serif" font-size="10.00">+ end()</text>
<text text-anchor="start" x="84" y="-194.5" font-family="Helvetica,sans-Serif" font-size="10.00">+ set_jointPosition()</text>
<text text-anchor="start" x="84" y="-183.5" font-family="Helvetica,sans-Serif" font-size="10.00">+ set_jointPosition_isValid()</text>
<text text-anchor="start" x="84" y="-172.5" font-family="Helvetica,sans-Serif" font-size="10.00">and 81 more...</text>
<text text-anchor="start" x="84" y="-161.5" font-family="Helvetica,sans-Serif" font-size="10.00">&#45; communicate()</text>
<text text-anchor="start" x="84" y="-150.5" font-family="Helvetica,sans-Serif" font-size="10.00">&#45; mark_dirty()</text>
<text text-anchor="start" x="84" y="-139.5" font-family="Helvetica,sans-Serif" font-size="10.00">&#45; mark_dirty_jointPosition()</text>
<text text-anchor="start" x="84" y="-128.5" font-family="Helvetica,sans-Serif" font-size="10.00">&#45; mark_dirty_jointPosition</text>
<text text-anchor="start" x="84" y="-117.5" font-family="Helvetica,sans-Serif" font-size="10.00">_isValid()</text>
<text text-anchor="start" x="84" y="-106.5" font-family="Helvetica,sans-Serif" font-size="10.00">&#45; mark_dirty_jointVelocity()</text>
<text text-anchor="start" x="84" y="-95.5" font-family="Helvetica,sans-Serif" font-size="10.00">&#45; mark_dirty_jointVelocity</text>
<text text-anchor="start" x="84" y="-84.5" font-family="Helvetica,sans-Serif" font-size="10.00">_isValid()</text>
<text text-anchor="start" x="84" y="-73.5" font-family="Helvetica,sans-Serif" font-size="10.00">&#45; mark_dirty_jointAcceleration()</text>
<text text-anchor="start" x="84" y="-62.5" font-family="Helvetica,sans-Serif" font-size="10.00">&#45; mark_dirty_jointAcceleration</text>
<text text-anchor="start" x="84" y="-51.5" font-family="Helvetica,sans-Serif" font-size="10.00">_isValid()</text>
<text text-anchor="start" x="84" y="-40.5" font-family="Helvetica,sans-Serif" font-size="10.00">&#45; mark_dirty_motorPosition()</text>
<text text-anchor="start" x="84" y="-29.5" font-family="Helvetica,sans-Serif" font-size="10.00">&#45; mark_dirty_motorPosition</text>
<text text-anchor="start" x="84" y="-18.5" font-family="Helvetica,sans-Serif" font-size="10.00">_isValid()</text>
<text text-anchor="start" x="84" y="-7.5" font-family="Helvetica,sans-Serif" font-size="10.00">and 13 more...</text>
</g>
<!-- Node2 -->
<g id="node2" class="node"><title>Node2</title>
<g id="a_node2"><a xlink:href="classyarp_1_1os_1_1_wire.html" target="_top" xlink:title="{Wire\n||}">
<polygon fill="none" stroke="black" points="-0.5,-705.5 -0.5,-762.5 36.5,-762.5 36.5,-705.5 -0.5,-705.5"/>
<text text-anchor="middle" x="18" y="-750.5" font-family="Helvetica,sans-Serif" font-size="10.00">Wire</text>
<polyline fill="none" stroke="black" points="-0.5,-743.5 36.5,-743.5 "/>
<text text-anchor="middle" x="18" y="-731.5" font-family="Helvetica,sans-Serif" font-size="10.00"> </text>
<polyline fill="none" stroke="black" points="-0.5,-724.5 36.5,-724.5 "/>
<text text-anchor="middle" x="18" y="-712.5" font-family="Helvetica,sans-Serif" font-size="10.00"> </text>
</a>
</g>
</g>
<!-- Node2&#45;&gt;Node1 -->
<g id="edge1" class="edge"><title>Node2&#45;&gt;Node1</title>
<path fill="none" stroke="midnightblue" d="M22.9383,-695.163C27.4552,-663.568 34.9609,-617.481 45,-578 53.8389,-543.238 64.6393,-506.803 75.9407,-471.523"/>
<polygon fill="none" stroke="midnightblue" points="19.4406,-694.903 21.5217,-705.292 26.3731,-695.873 19.4406,-694.903"/>
</g>
<!-- Node3 -->
<g id="node3" class="node"><title>Node3</title>
<g id="a_node3"><a xlink:href="classyarp_1_1os_1_1_port_writer.html" target="_top" xlink:title="{PortWriter\n||}">
<polygon fill="none" stroke="black" points="54.5,-705.5 54.5,-762.5 115.5,-762.5 115.5,-705.5 54.5,-705.5"/>
<text text-anchor="middle" x="85" y="-750.5" font-family="Helvetica,sans-Serif" font-size="10.00">PortWriter</text>
<polyline fill="none" stroke="black" points="54.5,-743.5 115.5,-743.5 "/>
<text text-anchor="middle" x="85" y="-731.5" font-family="Helvetica,sans-Serif" font-size="10.00"> </text>
<polyline fill="none" stroke="black" points="54.5,-724.5 115.5,-724.5 "/>
<text text-anchor="middle" x="85" y="-712.5" font-family="Helvetica,sans-Serif" font-size="10.00"> </text>
</a>
</g>
</g>
<!-- Node3&#45;&gt;Node1 -->
<g id="edge2" class="edge"><title>Node3&#45;&gt;Node1</title>
<path fill="none" stroke="midnightblue" d="M90.3654,-695.202C96.0259,-655.325 105.471,-588.784 115.288,-519.628"/>
<polygon fill="none" stroke="midnightblue" points="86.8812,-694.844 88.941,-705.236 93.8118,-695.828 86.8812,-694.844"/>
</g>
<!-- Node4 -->
<g id="node4" class="node"><title>Node4</title>
<g id="a_node4"><a xlink:href="classjoint_data.html" target="_top" xlink:title="{jointData\n||+ jointData()\l+ jointData()\l+ jointData()\l+ operator=()\l+ read()\l+ read()\l+ write()\l+ write()\l+ toString()\l&#45; write_jointPosition()\l&#45; nested_write_jointPosition()\l&#45; write_jointPosition\l_isValid()\l&#45; nested_write_jointPosition\l_isValid()\l&#45; write_jointVelocity()\l&#45; nested_write_jointVelocity()\l&#45; write_jointVelocity\l_isValid()\l&#45; nested_write_jointVelocity\l_isValid()\l&#45; write_jointAcceleration()\l&#45; nested_write_jointAcceleration()\land 70 more...\l}">
<polygon fill="none" stroke="black" points="289.5,-579 289.5,-889 450.5,-889 450.5,-579 289.5,-579"/>
<text text-anchor="middle" x="370" y="-877" font-family="Helvetica,sans-Serif" font-size="10.00">jointData</text>
<polyline fill="none" stroke="black" points="289.5,-870 450.5,-870 "/>
<text text-anchor="middle" x="370" y="-858" font-family="Helvetica,sans-Serif" font-size="10.00"> </text>
<polyline fill="none" stroke="black" points="289.5,-851 450.5,-851 "/>
<text text-anchor="start" x="297.5" y="-839" font-family="Helvetica,sans-Serif" font-size="10.00">+ jointData()</text>
<text text-anchor="start" x="297.5" y="-828" font-family="Helvetica,sans-Serif" font-size="10.00">+ jointData()</text>
<text text-anchor="start" x="297.5" y="-817" font-family="Helvetica,sans-Serif" font-size="10.00">+ jointData()</text>
<text text-anchor="start" x="297.5" y="-806" font-family="Helvetica,sans-Serif" font-size="10.00">+ operator=()</text>
<text text-anchor="start" x="297.5" y="-795" font-family="Helvetica,sans-Serif" font-size="10.00">+ read()</text>
<text text-anchor="start" x="297.5" y="-784" font-family="Helvetica,sans-Serif" font-size="10.00">+ read()</text>
<text text-anchor="start" x="297.5" y="-773" font-family="Helvetica,sans-Serif" font-size="10.00">+ write()</text>
<text text-anchor="start" x="297.5" y="-762" font-family="Helvetica,sans-Serif" font-size="10.00">+ write()</text>
<text text-anchor="start" x="297.5" y="-751" font-family="Helvetica,sans-Serif" font-size="10.00">+ toString()</text>
<text text-anchor="start" x="297.5" y="-740" font-family="Helvetica,sans-Serif" font-size="10.00">&#45; write_jointPosition()</text>
<text text-anchor="start" x="297.5" y="-729" font-family="Helvetica,sans-Serif" font-size="10.00">&#45; nested_write_jointPosition()</text>
<text text-anchor="start" x="297.5" y="-718" font-family="Helvetica,sans-Serif" font-size="10.00">&#45; write_jointPosition</text>
<text text-anchor="start" x="297.5" y="-707" font-family="Helvetica,sans-Serif" font-size="10.00">_isValid()</text>
<text text-anchor="start" x="297.5" y="-696" font-family="Helvetica,sans-Serif" font-size="10.00">&#45; nested_write_jointPosition</text>
<text text-anchor="start" x="297.5" y="-685" font-family="Helvetica,sans-Serif" font-size="10.00">_isValid()</text>
<text text-anchor="start" x="297.5" y="-674" font-family="Helvetica,sans-Serif" font-size="10.00">&#45; write_jointVelocity()</text>
<text text-anchor="start" x="297.5" y="-663" font-family="Helvetica,sans-Serif" font-size="10.00">&#45; nested_write_jointVelocity()</text>
<text text-anchor="start" x="297.5" y="-652" font-family="Helvetica,sans-Serif" font-size="10.00">&#45; write_jointVelocity</text>
<text text-anchor="start" x="297.5" y="-641" font-family="Helvetica,sans-Serif" font-size="10.00">_isValid()</text>
<text text-anchor="start" x="297.5" y="-630" font-family="Helvetica,sans-Serif" font-size="10.00">&#45; nested_write_jointVelocity</text>
<text text-anchor="start" x="297.5" y="-619" font-family="Helvetica,sans-Serif" font-size="10.00">_isValid()</text>
<text text-anchor="start" x="297.5" y="-608" font-family="Helvetica,sans-Serif" font-size="10.00">&#45; write_jointAcceleration()</text>
<text text-anchor="start" x="297.5" y="-597" font-family="Helvetica,sans-Serif" font-size="10.00">&#45; nested_write_jointAcceleration()</text>
<text text-anchor="start" x="297.5" y="-586" font-family="Helvetica,sans-Serif" font-size="10.00">and 70 more...</text>
</a>
</g>
</g>
<!-- Node4&#45;&gt;Node1 -->
<g id="edge3" class="edge"><title>Node4&#45;&gt;Node1</title>
<path fill="none" stroke="#404040" d="M298.77,-578.776C277.84,-533.462 254.792,-483.558 233.285,-436.992"/>
<polygon fill="none" stroke="#404040" points="233.175,-436.756 227.028,-432.986 228.144,-425.861 234.291,-429.631 233.175,-436.756"/>
<text text-anchor="middle" x="296.5" y="-546.5" font-family="Helvetica,sans-Serif" font-size="10.00"> &#45;obj</text>
</g>
<!-- Node5 -->
<g id="node5" class="node"><title>Node5</title>
<g id="a_node5"><a xlink:href="classyarp_1_1os_1_1idl_1_1_wire_portable.html" target="_top" xlink:title="{WirePortable\n||}">
<polygon fill="none" stroke="black" points="484.5,-1080.5 484.5,-1137.5 557.5,-1137.5 557.5,-1080.5 484.5,-1080.5"/>
<text text-anchor="middle" x="521" y="-1125.5" font-family="Helvetica,sans-Serif" font-size="10.00">WirePortable</text>
<polyline fill="none" stroke="black" points="484.5,-1118.5 557.5,-1118.5 "/>
<text text-anchor="middle" x="521" y="-1106.5" font-family="Helvetica,sans-Serif" font-size="10.00"> </text>
<polyline fill="none" stroke="black" points="484.5,-1099.5 557.5,-1099.5 "/>
<text text-anchor="middle" x="521" y="-1087.5" font-family="Helvetica,sans-Serif" font-size="10.00"> </text>
</a>
</g>
</g>
<!-- Node5&#45;&gt;Node4 -->
<g id="edge4" class="edge"><title>Node5&#45;&gt;Node4</title>
<path fill="none" stroke="midnightblue" d="M527.211,-1070.28C532.201,-1026.88 533.543,-955.501 499,-908 487.534,-892.233 473.446,-903.091 459,-890 456.126,-887.395 453.32,-884.676 450.583,-881.858"/>
<polygon fill="none" stroke="midnightblue" points="523.712,-1070.05 525.921,-1080.42 530.656,-1070.94 523.712,-1070.05"/>
</g>
<!-- Node6 -->
<g id="node6" class="node"><title>Node6</title>
<polygon fill="none" stroke="#bfbfbf" points="262,-1080.5 262,-1137.5 346,-1137.5 346,-1080.5 262,-1080.5"/>
<text text-anchor="middle" x="304" y="-1125.5" font-family="Helvetica,sans-Serif" font-size="10.00">VectorOf&lt; int &gt;</text>
<polyline fill="none" stroke="#bfbfbf" points="262,-1118.5 346,-1118.5 "/>
<text text-anchor="middle" x="304" y="-1106.5" font-family="Helvetica,sans-Serif" font-size="10.00"> </text>
<polyline fill="none" stroke="#bfbfbf" points="262,-1099.5 346,-1099.5 "/>
<text text-anchor="middle" x="304" y="-1087.5" font-family="Helvetica,sans-Serif" font-size="10.00"> </text>
</g>
<!-- Node6&#45;&gt;Node4 -->
<g id="edge5" class="edge"><title>Node6&#45;&gt;Node4</title>
<path fill="none" stroke="#404040" d="M301.975,-1080.22C299.753,-1041.33 297.842,-968.633 309,-908 309.432,-905.651 309.892,-903.291 310.376,-900.923"/>
<polygon fill="none" stroke="#404040" points="310.415,-900.745 307.8,-894.025 312.998,-889.026 315.613,-895.747 310.415,-900.745"/>
<text text-anchor="middle" x="348.5" y="-988" font-family="Helvetica,sans-Serif" font-size="10.00"> +interactionMode</text>
<text text-anchor="middle" x="348.5" y="-977" font-family="Helvetica,sans-Serif" font-size="10.00">+controlMode</text>
</g>
<!-- Node7 -->
<g id="node7" class="node"><title>Node7</title>
<polygon fill="none" stroke="#bfbfbf" points="151.5,-1080.5 151.5,-1137.5 186.5,-1137.5 186.5,-1080.5 151.5,-1080.5"/>
<text text-anchor="middle" x="169" y="-1125.5" font-family="Helvetica,sans-Serif" font-size="10.00">bool</text>
<polyline fill="none" stroke="#bfbfbf" points="151.5,-1118.5 186.5,-1118.5 "/>
<text text-anchor="middle" x="169" y="-1106.5" font-family="Helvetica,sans-Serif" font-size="10.00"> </text>
<polyline fill="none" stroke="#bfbfbf" points="151.5,-1099.5 186.5,-1099.5 "/>
<text text-anchor="middle" x="169" y="-1087.5" font-family="Helvetica,sans-Serif" font-size="10.00"> </text>
</g>
<!-- Node7&#45;&gt;Node1 -->
<g id="edge9" class="edge"><title>Node7&#45;&gt;Node1</title>
<path fill="none" stroke="#404040" d="M167.03,-1080.28C166.647,-1074.26 166.279,-1067.92 166,-1062 162.4,-985.608 162.658,-966.459 161,-890 158.452,-772.537 156.457,-642.718 154.999,-531.672"/>
<polygon fill="none" stroke="#404040" points="154.998,-531.609 150.92,-525.661 154.842,-519.61 158.919,-525.557 154.998,-531.609"/>
<text text-anchor="start" x="161" y="-797.5" font-family="Helvetica,sans-Serif" font-size="10.00"> &#45;is_dirty_jointAcceleration</text>
<text text-anchor="middle" x="220.5" y="-786.5" font-family="Helvetica,sans-Serif" font-size="10.00">_isValid</text>
<text text-anchor="middle" x="220.5" y="-775.5" font-family="Helvetica,sans-Serif" font-size="10.00">&#45;is_dirty_jointAcceleration</text>
<text text-anchor="start" x="161" y="-764.5" font-family="Helvetica,sans-Serif" font-size="10.00">&#45;is_dirty_controlMode</text>
<text text-anchor="middle" x="220.5" y="-753.5" font-family="Helvetica,sans-Serif" font-size="10.00">_isValid</text>
<text text-anchor="middle" x="220.5" y="-742.5" font-family="Helvetica,sans-Serif" font-size="10.00">&#45;is_dirty_controlMode</text>
<text text-anchor="middle" x="220.5" y="-731.5" font-family="Helvetica,sans-Serif" font-size="10.00">&#45;is_dirty_pidOutput_isValid</text>
<text text-anchor="middle" x="220.5" y="-720.5" font-family="Helvetica,sans-Serif" font-size="10.00">&#45;is_dirty_pidOutput</text>
<text text-anchor="middle" x="220.5" y="-709.5" font-family="Helvetica,sans-Serif" font-size="10.00">&#45;is_dirty_motorVelocity</text>
<text text-anchor="middle" x="220.5" y="-698.5" font-family="Helvetica,sans-Serif" font-size="10.00">&#45;is_dirty_motorPosition</text>
<text text-anchor="middle" x="220.5" y="-687.5" font-family="Helvetica,sans-Serif" font-size="10.00">&#45;is_dirty_jointVelocity</text>
<text text-anchor="middle" x="220.5" y="-676.5" font-family="Helvetica,sans-Serif" font-size="10.00">&#45;is_dirty_motorAcceleration</text>
<text text-anchor="middle" x="220.5" y="-665.5" font-family="Helvetica,sans-Serif" font-size="10.00">...</text>
</g>
<!-- Node7&#45;&gt;Node4 -->
<g id="edge6" class="edge"><title>Node7&#45;&gt;Node4</title>
<path fill="none" stroke="#404040" d="M168.976,-1080.26C169.528,-1031.35 173.485,-932.634 196,-908 220.295,-881.419 245.743,-910.996 275,-890 276.719,-888.766 278.413,-887.491 280.082,-886.177"/>
<polygon fill="none" stroke="#404040" points="280.243,-886.04 282.211,-879.103 289.372,-878.251 287.404,-885.189 280.243,-886.04"/>
<text text-anchor="middle" x="246.5" y="-1054" font-family="Helvetica,sans-Serif" font-size="10.00"> +pidOutput_isValid</text>
<text text-anchor="middle" x="246.5" y="-1043" font-family="Helvetica,sans-Serif" font-size="10.00">+jointPosition_isValid</text>
<text text-anchor="middle" x="246.5" y="-1032" font-family="Helvetica,sans-Serif" font-size="10.00">+torque_isValid</text>
<text text-anchor="start" x="196" y="-1021" font-family="Helvetica,sans-Serif" font-size="10.00">+jointAcceleration</text>
<text text-anchor="middle" x="246.5" y="-1010" font-family="Helvetica,sans-Serif" font-size="10.00">_isValid</text>
<text text-anchor="start" x="196" y="-999" font-family="Helvetica,sans-Serif" font-size="10.00">+interactionMode</text>
<text text-anchor="middle" x="246.5" y="-988" font-family="Helvetica,sans-Serif" font-size="10.00">_isValid</text>
<text text-anchor="start" x="196" y="-977" font-family="Helvetica,sans-Serif" font-size="10.00">+motorAcceleration</text>
<text text-anchor="middle" x="246.5" y="-966" font-family="Helvetica,sans-Serif" font-size="10.00">_isValid</text>
<text text-anchor="middle" x="246.5" y="-955" font-family="Helvetica,sans-Serif" font-size="10.00">+controlMode_isValid</text>
<text text-anchor="middle" x="246.5" y="-944" font-family="Helvetica,sans-Serif" font-size="10.00">+motorVelocity_isValid</text>
<text text-anchor="middle" x="246.5" y="-933" font-family="Helvetica,sans-Serif" font-size="10.00">+jointVelocity_isValid</text>
<text text-anchor="middle" x="246.5" y="-922" font-family="Helvetica,sans-Serif" font-size="10.00">+motorPosition_isValid</text>
<text text-anchor="middle" x="246.5" y="-911" font-family="Helvetica,sans-Serif" font-size="10.00">...</text>
</g>
<!-- Node8 -->
<g id="node8" class="node"><title>Node8</title>
<polygon fill="none" stroke="#bfbfbf" points="364,-1080.5 364,-1137.5 466,-1137.5 466,-1080.5 364,-1080.5"/>
<text text-anchor="middle" x="415" y="-1125.5" font-family="Helvetica,sans-Serif" font-size="10.00">VectorOf&lt; double &gt;</text>
<polyline fill="none" stroke="#bfbfbf" points="364,-1118.5 466,-1118.5 "/>
<text text-anchor="middle" x="415" y="-1106.5" font-family="Helvetica,sans-Serif" font-size="10.00"> </text>
<polyline fill="none" stroke="#bfbfbf" points="364,-1099.5 466,-1099.5 "/>
<text text-anchor="middle" x="415" y="-1087.5" font-family="Helvetica,sans-Serif" font-size="10.00"> </text>
</g>
<!-- Node8&#45;&gt;Node4 -->
<g id="edge7" class="edge"><title>Node8&#45;&gt;Node4</title>
<path fill="none" stroke="#404040" d="M411.942,-1080.49C407.63,-1041.92 399.457,-969.588 392,-908 391.732,-905.786 391.461,-903.555 391.188,-901.312"/>
<polygon fill="none" stroke="#404040" points="391.164,-901.117 386.464,-895.648 389.705,-889.206 394.405,-894.676 391.164,-901.117"/>
<text text-anchor="middle" x="452.5" y="-1021" font-family="Helvetica,sans-Serif" font-size="10.00"> +motorVelocity</text>
<text text-anchor="middle" x="452.5" y="-1010" font-family="Helvetica,sans-Serif" font-size="10.00">+jointAcceleration</text>
<text text-anchor="middle" x="452.5" y="-999" font-family="Helvetica,sans-Serif" font-size="10.00">+motorAcceleration</text>
<text text-anchor="middle" x="452.5" y="-988" font-family="Helvetica,sans-Serif" font-size="10.00">+torque</text>
<text text-anchor="middle" x="452.5" y="-977" font-family="Helvetica,sans-Serif" font-size="10.00">+pidOutput</text>
<text text-anchor="middle" x="452.5" y="-966" font-family="Helvetica,sans-Serif" font-size="10.00">+motorPosition</text>
<text text-anchor="middle" x="452.5" y="-955" font-family="Helvetica,sans-Serif" font-size="10.00">+jointVelocity</text>
<text text-anchor="middle" x="452.5" y="-944" font-family="Helvetica,sans-Serif" font-size="10.00">+jointPosition</text>
</g>
<!-- Node9 -->
<g id="node9" class="node"><title>Node9</title>
<polygon fill="none" stroke="#bfbfbf" points="468.5,-705.5 468.5,-762.5 497.5,-762.5 497.5,-705.5 468.5,-705.5"/>
<text text-anchor="middle" x="483" y="-750.5" font-family="Helvetica,sans-Serif" font-size="10.00">int</text>
<polyline fill="none" stroke="#bfbfbf" points="468.5,-743.5 497.5,-743.5 "/>
<text text-anchor="middle" x="483" y="-731.5" font-family="Helvetica,sans-Serif" font-size="10.00"> </text>
<polyline fill="none" stroke="#bfbfbf" points="468.5,-724.5 497.5,-724.5 "/>
<text text-anchor="middle" x="483" y="-712.5" font-family="Helvetica,sans-Serif" font-size="10.00"> </text>
</g>
<!-- Node9&#45;&gt;Node1 -->
<g id="edge8" class="edge"><title>Node9&#45;&gt;Node1</title>
<path fill="none" stroke="#404040" d="M483.666,-705.453C483.364,-673.235 479.431,-619.083 459,-578 407.251,-473.944 309.041,-381.903 237.598,-324.173"/>
<polygon fill="none" stroke="#404040" points="237.513,-324.105 230.329,-323.478 228.144,-316.606 235.328,-317.232 237.513,-324.105"/>
<text text-anchor="middle" x="475.5" y="-552" font-family="Helvetica,sans-Serif" font-size="10.00"> &#45;dirty_count</text>
<text text-anchor="middle" x="475.5" y="-541" font-family="Helvetica,sans-Serif" font-size="10.00">&#45;group</text>
</g>
</g>
</svg>
