<?xml version="1.0" encoding="UTF-8" standalone="no"?>
<!DOCTYPE svg PUBLIC "-//W3C//DTD SVG 1.1//EN"
 "http://www.w3.org/Graphics/SVG/1.1/DTD/svg11.dtd">
<!-- Generated by graphviz version 2.36.0 (20140111.2315)
 -->
<!-- Title: geometry_msgs_Wrench Pages: 1 -->
<svg width="255pt" height="530pt"
 viewBox="0.00 0.00 255.00 530.00" xmlns="http://www.w3.org/2000/svg" xmlns:xlink="http://www.w3.org/1999/xlink">
<g id="graph0" class="graph" transform="scale(1 1) rotate(0) translate(4 526)">
<title>geometry_msgs_Wrench</title>
<!-- Node1 -->
<g id="node1" class="node"><title>Node1</title>
<polygon fill="#bfbfbf" stroke="black" points="0,-0.5 0,-167.5 140,-167.5 140,-0.5 0,-0.5"/>
<text text-anchor="middle" x="70" y="-155.5" font-family="Helvetica,sans-Serif" font-size="10.00">geometry_msgs_Wrench</text>
<polyline fill="none" stroke="black" points="0,-148.5 140,-148.5 "/>
<text text-anchor="middle" x="70" y="-136.5" font-family="Helvetica,sans-Serif" font-size="10.00"> </text>
<polyline fill="none" stroke="black" points="0,-129.5 140,-129.5 "/>
<text text-anchor="start" x="8" y="-117.5" font-family="Helvetica,sans-Serif" font-size="10.00">+ geometry_msgs_Wrench()</text>
<text text-anchor="start" x="8" y="-106.5" font-family="Helvetica,sans-Serif" font-size="10.00">+ clear()</text>
<text text-anchor="start" x="8" y="-95.5" font-family="Helvetica,sans-Serif" font-size="10.00">+ readBare()</text>
<text text-anchor="start" x="8" y="-84.5" font-family="Helvetica,sans-Serif" font-size="10.00">+ readBottle()</text>
<text text-anchor="start" x="8" y="-73.5" font-family="Helvetica,sans-Serif" font-size="10.00">+ read()</text>
<text text-anchor="start" x="8" y="-62.5" font-family="Helvetica,sans-Serif" font-size="10.00">+ writeBare()</text>
<text text-anchor="start" x="8" y="-51.5" font-family="Helvetica,sans-Serif" font-size="10.00">+ writeBottle()</text>
<text text-anchor="start" x="8" y="-40.5" font-family="Helvetica,sans-Serif" font-size="10.00">+ write()</text>
<text text-anchor="start" x="8" y="-29.5" font-family="Helvetica,sans-Serif" font-size="10.00">+ getTypeText()</text>
<text text-anchor="start" x="8" y="-18.5" font-family="Helvetica,sans-Serif" font-size="10.00">+ getType()</text>
<text text-anchor="start" x="8" y="-7.5" font-family="Helvetica,sans-Serif" font-size="10.00">and 10 more...</text>
</g>
<!-- Node2 -->
<g id="node2" class="node"><title>Node2</title>
<g id="a_node2"><a xlink:href="classyarp_1_1os_1_1idl_1_1_wire_portable.html" target="_top" xlink:title="{WirePortable\n||}">
<polygon fill="none" stroke="black" points="43.5,-464.5 43.5,-521.5 116.5,-521.5 116.5,-464.5 43.5,-464.5"/>
<text text-anchor="middle" x="80" y="-509.5" font-family="Helvetica,sans-Serif" font-size="10.00">WirePortable</text>
<polyline fill="none" stroke="black" points="43.5,-502.5 116.5,-502.5 "/>
<text text-anchor="middle" x="80" y="-490.5" font-family="Helvetica,sans-Serif" font-size="10.00"> </text>
<polyline fill="none" stroke="black" points="43.5,-483.5 116.5,-483.5 "/>
<text text-anchor="middle" x="80" y="-471.5" font-family="Helvetica,sans-Serif" font-size="10.00"> </text>
</a>
</g>
</g>
<!-- Node2&#45;&gt;Node1 -->
<g id="edge1" class="edge"><title>Node2&#45;&gt;Node1</title>
<path fill="none" stroke="midnightblue" d="M74.9448,-454.166C70.4209,-389.25 66.6502,-255.207 66.4758,-167.76"/>
<polygon fill="none" stroke="midnightblue" points="71.4699,-454.634 75.7068,-464.345 78.4504,-454.112 71.4699,-454.634"/>
</g>
<!-- Node2&#45;&gt;Node1 -->
<g id="edge2" class="edge"><title>Node2&#45;&gt;Node1</title>
<path fill="none" stroke="midnightblue" d="M83.1961,-454.166C84.53,-389.25 81.7138,-255.207 77.591,-167.76"/>
<polygon fill="none" stroke="midnightblue" points="79.6927,-454.258 82.9342,-464.345 86.6903,-454.439 79.6927,-454.258"/>
</g>
<!-- Node3 -->
<g id="node3" class="node"><title>Node3</title>
<g id="a_node3"><a xlink:href="classgeometry__msgs___vector3.html" target="_top" xlink:title="{geometry_msgs_Vector3\n||+ geometry_msgs_Vector3()\l+ clear()\l+ readBare()\l+ readBottle()\l+ read()\l+ writeBare()\l+ writeBottle()\l+ write()\l+ getTypeText()\l+ getType()\land 10 more...\l}">
<polygon fill="none" stroke="black" points="107,-226.5 107,-393.5 247,-393.5 247,-226.5 107,-226.5"/>
<text text-anchor="middle" x="177" y="-381.5" font-family="Helvetica,sans-Serif" font-size="10.00">geometry_msgs_Vector3</text>
<polyline fill="none" stroke="black" points="107,-374.5 247,-374.5 "/>
<text text-anchor="middle" x="177" y="-362.5" font-family="Helvetica,sans-Serif" font-size="10.00"> </text>
<polyline fill="none" stroke="black" points="107,-355.5 247,-355.5 "/>
<text text-anchor="start" x="115" y="-343.5" font-family="Helvetica,sans-Serif" font-size="10.00">+ geometry_msgs_Vector3()</text>
<text text-anchor="start" x="115" y="-332.5" font-family="Helvetica,sans-Serif" font-size="10.00">+ clear()</text>
<text text-anchor="start" x="115" y="-321.5" font-family="Helvetica,sans-Serif" font-size="10.00">+ readBare()</text>
<text text-anchor="start" x="115" y="-310.5" font-family="Helvetica,sans-Serif" font-size="10.00">+ readBottle()</text>
<text text-anchor="start" x="115" y="-299.5" font-family="Helvetica,sans-Serif" font-size="10.00">+ read()</text>
<text text-anchor="start" x="115" y="-288.5" font-family="Helvetica,sans-Serif" font-size="10.00">+ writeBare()</text>
<text text-anchor="start" x="115" y="-277.5" font-family="Helvetica,sans-Serif" font-size="10.00">+ writeBottle()</text>
<text text-anchor="start" x="115" y="-266.5" font-family="Helvetica,sans-Serif" font-size="10.00">+ write()</text>
<text text-anchor="start" x="115" y="-255.5" font-family="Helvetica,sans-Serif" font-size="10.00">+ getTypeText()</text>
<text text-anchor="start" x="115" y="-244.5" font-family="Helvetica,sans-Serif" font-size="10.00">+ getType()</text>
<text text-anchor="start" x="115" y="-233.5" font-family="Helvetica,sans-Serif" font-size="10.00">and 10 more...</text>
</a>
</g>
</g>
<!-- Node2&#45;&gt;Node3 -->
<g id="edge4" class="edge"><title>Node2&#45;&gt;Node3</title>
<path fill="none" stroke="midnightblue" d="M94.3865,-454.742C102.99,-437.033 114.36,-415.104 125.923,-393.754"/>
<polygon fill="none" stroke="midnightblue" points="91.0611,-453.584 89.9076,-464.115 97.3771,-456.602 91.0611,-453.584"/>
</g>
<!-- Node2&#45;&gt;Node3 -->
<g id="edge5" class="edge"><title>Node2&#45;&gt;Node3</title>
<path fill="none" stroke="midnightblue" d="M105.26,-455.233C115.7,-437.439 127.954,-415.302 139.379,-393.754"/>
<polygon fill="none" stroke="midnightblue" points="102.081,-453.731 99.9797,-464.115 108.098,-457.308 102.081,-453.731"/>
</g>
<!-- Node3&#45;&gt;Node1 -->
<g id="edge3" class="edge"><title>Node3&#45;&gt;Node1</title>
<path fill="none" stroke="#404040" d="M137.461,-226.227C130.061,-210.734 122.277,-194.439 114.732,-178.645"/>
<polygon fill="none" stroke="#404040" points="114.727,-178.635 108.532,-174.945 109.555,-167.806 115.75,-171.496 114.727,-178.635"/>
<text text-anchor="middle" x="144.5" y="-200" font-family="Helvetica,sans-Serif" font-size="10.00"> +torque</text>
<text text-anchor="middle" x="144.5" y="-189" font-family="Helvetica,sans-Serif" font-size="10.00">+force</text>
</g>
<!-- Node4 -->
<g id="node4" class="node"><title>Node4</title>
<polygon fill="none" stroke="#bfbfbf" points="144.5,-464.5 144.5,-521.5 209.5,-521.5 209.5,-464.5 144.5,-464.5"/>
<text text-anchor="middle" x="177" y="-509.5" font-family="Helvetica,sans-Serif" font-size="10.00">NetFloat64</text>
<polyline fill="none" stroke="#bfbfbf" points="144.5,-502.5 209.5,-502.5 "/>
<text text-anchor="middle" x="177" y="-490.5" font-family="Helvetica,sans-Serif" font-size="10.00"> </text>
<polyline fill="none" stroke="#bfbfbf" points="144.5,-483.5 209.5,-483.5 "/>
<text text-anchor="middle" x="177" y="-471.5" font-family="Helvetica,sans-Serif" font-size="10.00"> </text>
</g>
<!-- Node4&#45;&gt;Node3 -->
<g id="edge6" class="edge"><title>Node4&#45;&gt;Node3</title>
<path fill="none" stroke="#404040" d="M177,-464.115C177,-448.209 177,-427.239 177,-405.942"/>
<polygon fill="none" stroke="#404040" points="177,-405.754 173,-399.754 177,-393.754 181,-399.754 177,-405.754"/>
<text text-anchor="middle" x="184.5" y="-437.5" font-family="Helvetica,sans-Serif" font-size="10.00"> +x</text>
<text text-anchor="middle" x="184.5" y="-426.5" font-family="Helvetica,sans-Serif" font-size="10.00">+y</text>
<text text-anchor="middle" x="184.5" y="-415.5" font-family="Helvetica,sans-Serif" font-size="10.00">+z</text>
</g>
</g>
</svg>
