<?xml version="1.0" encoding="UTF-8" standalone="no"?>
<!DOCTYPE svg PUBLIC "-//W3C//DTD SVG 1.1//EN"
 "http://www.w3.org/Graphics/SVG/1.1/DTD/svg11.dtd">
<!-- Generated by graphviz version 2.36.0 (20140111.2315)
 -->
<!-- Title: human::HumanDynamics::Editor Pages: 1 -->
<svg width="711pt" height="786pt"
 viewBox="0.00 0.00 711.00 786.00" xmlns="http://www.w3.org/2000/svg" xmlns:xlink="http://www.w3.org/1999/xlink">
<g id="graph0" class="graph" transform="scale(1 1) rotate(0) translate(4 782)">
<title>human::HumanDynamics::Editor</title>
<!-- Node1 -->
<g id="node1" class="node"><title>Node1</title>
<polygon fill="#bfbfbf" stroke="black" points="233,-1 233,-289 371,-289 371,-1 233,-1"/>
<text text-anchor="start" x="241" y="-277" font-family="Helvetica,sans-Serif" font-size="10.00">human::HumanDynamics</text>
<text text-anchor="middle" x="302" y="-266" font-family="Helvetica,sans-Serif" font-size="10.00">::Editor</text>
<polyline fill="none" stroke="black" points="233,-259 371,-259 "/>
<text text-anchor="middle" x="302" y="-247" font-family="Helvetica,sans-Serif" font-size="10.00"> </text>
<polyline fill="none" stroke="black" points="233,-240 371,-240 "/>
<text text-anchor="start" x="241" y="-228" font-family="Helvetica,sans-Serif" font-size="10.00">+ Editor()</text>
<text text-anchor="start" x="241" y="-217" font-family="Helvetica,sans-Serif" font-size="10.00">+ Editor()</text>
<text text-anchor="start" x="241" y="-206" font-family="Helvetica,sans-Serif" font-size="10.00">+ edit()</text>
<text text-anchor="start" x="241" y="-195" font-family="Helvetica,sans-Serif" font-size="10.00">+ ~Editor()</text>
<text text-anchor="start" x="241" y="-184" font-family="Helvetica,sans-Serif" font-size="10.00">+ isValid()</text>
<text text-anchor="start" x="241" y="-173" font-family="Helvetica,sans-Serif" font-size="10.00">+ state()</text>
<text text-anchor="start" x="241" y="-162" font-family="Helvetica,sans-Serif" font-size="10.00">+ begin()</text>
<text text-anchor="start" x="241" y="-151" font-family="Helvetica,sans-Serif" font-size="10.00">+ end()</text>
<text text-anchor="start" x="241" y="-140" font-family="Helvetica,sans-Serif" font-size="10.00">+ set_linkVariables()</text>
<text text-anchor="start" x="241" y="-129" font-family="Helvetica,sans-Serif" font-size="10.00">+ set_linkVariables()</text>
<text text-anchor="start" x="241" y="-118" font-family="Helvetica,sans-Serif" font-size="10.00">and 32 more...</text>
<text text-anchor="start" x="241" y="-107" font-family="Helvetica,sans-Serif" font-size="10.00">&#45; communicate()</text>
<text text-anchor="start" x="241" y="-96" font-family="Helvetica,sans-Serif" font-size="10.00">&#45; mark_dirty()</text>
<text text-anchor="start" x="241" y="-85" font-family="Helvetica,sans-Serif" font-size="10.00">&#45; mark_dirty_linkVariables()</text>
<text text-anchor="start" x="241" y="-74" font-family="Helvetica,sans-Serif" font-size="10.00">&#45; mark_dirty_jointVariables()</text>
<text text-anchor="start" x="241" y="-63" font-family="Helvetica,sans-Serif" font-size="10.00">&#45; dirty_flags()</text>
<text text-anchor="start" x="241" y="-52" font-family="Helvetica,sans-Serif" font-size="10.00">&#45; communicate()</text>
<text text-anchor="start" x="241" y="-41" font-family="Helvetica,sans-Serif" font-size="10.00">&#45; mark_dirty()</text>
<text text-anchor="start" x="241" y="-30" font-family="Helvetica,sans-Serif" font-size="10.00">&#45; mark_dirty_linkVariables()</text>
<text text-anchor="start" x="241" y="-19" font-family="Helvetica,sans-Serif" font-size="10.00">&#45; mark_dirty_jointVariables()</text>
<text text-anchor="start" x="241" y="-8" font-family="Helvetica,sans-Serif" font-size="10.00">&#45; dirty_flags()</text>
</g>
<!-- Node2 -->
<g id="node2" class="node"><title>Node2</title>
<g id="a_node2"><a xlink:href="classyarp_1_1os_1_1_wire.html" target="_top" xlink:title="{yarp::os::Wire\n||}">
<polygon fill="none" stroke="black" points="0,-486.5 0,-543.5 78,-543.5 78,-486.5 0,-486.5"/>
<text text-anchor="middle" x="39" y="-531.5" font-family="Helvetica,sans-Serif" font-size="10.00">yarp::os::Wire</text>
<polyline fill="none" stroke="black" points="0,-524.5 78,-524.5 "/>
<text text-anchor="middle" x="39" y="-512.5" font-family="Helvetica,sans-Serif" font-size="10.00"> </text>
<polyline fill="none" stroke="black" points="0,-505.5 78,-505.5 "/>
<text text-anchor="middle" x="39" y="-493.5" font-family="Helvetica,sans-Serif" font-size="10.00"> </text>
</a>
</g>
</g>
<!-- Node2&#45;&gt;Node1 -->
<g id="edge1" class="edge"><title>Node2&#45;&gt;Node1</title>
<path fill="none" stroke="midnightblue" d="M46.6192,-476.712C53.9022,-446.438 66.8038,-403.44 87,-370 125.805,-305.748 186.008,-245.119 232.849,-203.182"/>
<polygon fill="none" stroke="midnightblue" points="43.2085,-475.926 44.3623,-486.458 50.028,-477.506 43.2085,-475.926"/>
</g>
<!-- Node3 -->
<g id="node3" class="node"><title>Node3</title>
<g id="a_node3"><a xlink:href="classyarp_1_1os_1_1_port_writer.html" target="_top" xlink:title="{yarp::os::PortWriter\n||}">
<polygon fill="none" stroke="black" points="96,-486.5 96,-543.5 198,-543.5 198,-486.5 96,-486.5"/>
<text text-anchor="middle" x="147" y="-531.5" font-family="Helvetica,sans-Serif" font-size="10.00">yarp::os::PortWriter</text>
<polyline fill="none" stroke="black" points="96,-524.5 198,-524.5 "/>
<text text-anchor="middle" x="147" y="-512.5" font-family="Helvetica,sans-Serif" font-size="10.00"> </text>
<polyline fill="none" stroke="black" points="96,-505.5 198,-505.5 "/>
<text text-anchor="middle" x="147" y="-493.5" font-family="Helvetica,sans-Serif" font-size="10.00"> </text>
</a>
</g>
</g>
<!-- Node3&#45;&gt;Node1 -->
<g id="edge2" class="edge"><title>Node3&#45;&gt;Node1</title>
<path fill="none" stroke="midnightblue" d="M162.339,-477.006C174.424,-447.904 191.724,-406.339 207,-370 218.009,-343.812 229.79,-315.925 241.177,-289.039"/>
<polygon fill="none" stroke="midnightblue" points="159.052,-475.795 158.451,-486.373 165.517,-478.479 159.052,-475.795"/>
</g>
<!-- Node4 -->
<g id="node4" class="node"><title>Node4</title>
<g id="a_node4"><a xlink:href="classyarp_1_1os_1_1_wire.html" target="_top" xlink:title="{Wire\n||}">
<polygon fill="none" stroke="black" points="216.5,-486.5 216.5,-543.5 253.5,-543.5 253.5,-486.5 216.5,-486.5"/>
<text text-anchor="middle" x="235" y="-531.5" font-family="Helvetica,sans-Serif" font-size="10.00">Wire</text>
<polyline fill="none" stroke="black" points="216.5,-524.5 253.5,-524.5 "/>
<text text-anchor="middle" x="235" y="-512.5" font-family="Helvetica,sans-Serif" font-size="10.00"> </text>
<polyline fill="none" stroke="black" points="216.5,-505.5 253.5,-505.5 "/>
<text text-anchor="middle" x="235" y="-493.5" font-family="Helvetica,sans-Serif" font-size="10.00"> </text>
</a>
</g>
</g>
<!-- Node4&#45;&gt;Node1 -->
<g id="edge3" class="edge"><title>Node4&#45;&gt;Node1</title>
<path fill="none" stroke="midnightblue" d="M241.848,-476.389C249.854,-432.411 263.584,-357.003 275.906,-289.324"/>
<polygon fill="none" stroke="midnightblue" points="238.384,-475.875 240.036,-486.34 245.271,-477.129 238.384,-475.875"/>
</g>
<!-- Node5 -->
<g id="node5" class="node"><title>Node5</title>
<g id="a_node5"><a xlink:href="classyarp_1_1os_1_1_port_writer.html" target="_top" xlink:title="{PortWriter\n||}">
<polygon fill="none" stroke="black" points="271.5,-486.5 271.5,-543.5 332.5,-543.5 332.5,-486.5 271.5,-486.5"/>
<text text-anchor="middle" x="302" y="-531.5" font-family="Helvetica,sans-Serif" font-size="10.00">PortWriter</text>
<polyline fill="none" stroke="black" points="271.5,-524.5 332.5,-524.5 "/>
<text text-anchor="middle" x="302" y="-512.5" font-family="Helvetica,sans-Serif" font-size="10.00"> </text>
<polyline fill="none" stroke="black" points="271.5,-505.5 332.5,-505.5 "/>
<text text-anchor="middle" x="302" y="-493.5" font-family="Helvetica,sans-Serif" font-size="10.00"> </text>
</a>
</g>
</g>
<!-- Node5&#45;&gt;Node1 -->
<g id="edge4" class="edge"><title>Node5&#45;&gt;Node1</title>
<path fill="none" stroke="midnightblue" d="M302,-476.111C302,-432.093 302,-356.86 302,-289.324"/>
<polygon fill="none" stroke="midnightblue" points="298.5,-476.34 302,-486.34 305.5,-476.34 298.5,-476.34"/>
</g>
<!-- Node6 -->
<g id="node6" class="node"><title>Node6</title>
<g id="a_node6"><a xlink:href="classhuman_1_1_human_dynamics.html" target="_top" xlink:title="{human::HumanDynamics\n||+ HumanDynamics()\l+ HumanDynamics()\l+ HumanDynamics()\l+ operator=()\l+ read()\l+ read()\l+ write()\l+ write()\l+ toString()\l+ HumanDynamics()\land 8 more...\l&#45; write_linkVariables()\l&#45; nested_write_linkVariables()\l&#45; write_jointVariables()\l&#45; nested_write_jointVariables()\l&#45; read_linkVariables()\l&#45; nested_read_linkVariables()\l&#45; read_jointVariables()\l&#45; nested_read_jointVariables()\l&#45; write_linkVariables()\l&#45; nested_write_linkVariables()\land 6 more...\l}">
<polygon fill="none" stroke="black" points="351,-371 351,-659 499,-659 499,-371 351,-371"/>
<text text-anchor="middle" x="425" y="-647" font-family="Helvetica,sans-Serif" font-size="10.00">human::HumanDynamics</text>
<polyline fill="none" stroke="black" points="351,-640 499,-640 "/>
<text text-anchor="middle" x="425" y="-628" font-family="Helvetica,sans-Serif" font-size="10.00"> </text>
<polyline fill="none" stroke="black" points="351,-621 499,-621 "/>
<text text-anchor="start" x="359" y="-609" font-family="Helvetica,sans-Serif" font-size="10.00">+ HumanDynamics()</text>
<text text-anchor="start" x="359" y="-598" font-family="Helvetica,sans-Serif" font-size="10.00">+ HumanDynamics()</text>
<text text-anchor="start" x="359" y="-587" font-family="Helvetica,sans-Serif" font-size="10.00">+ HumanDynamics()</text>
<text text-anchor="start" x="359" y="-576" font-family="Helvetica,sans-Serif" font-size="10.00">+ operator=()</text>
<text text-anchor="start" x="359" y="-565" font-family="Helvetica,sans-Serif" font-size="10.00">+ read()</text>
<text text-anchor="start" x="359" y="-554" font-family="Helvetica,sans-Serif" font-size="10.00">+ read()</text>
<text text-anchor="start" x="359" y="-543" font-family="Helvetica,sans-Serif" font-size="10.00">+ write()</text>
<text text-anchor="start" x="359" y="-532" font-family="Helvetica,sans-Serif" font-size="10.00">+ write()</text>
<text text-anchor="start" x="359" y="-521" font-family="Helvetica,sans-Serif" font-size="10.00">+ toString()</text>
<text text-anchor="start" x="359" y="-510" font-family="Helvetica,sans-Serif" font-size="10.00">+ HumanDynamics()</text>
<text text-anchor="start" x="359" y="-499" font-family="Helvetica,sans-Serif" font-size="10.00">and 8 more...</text>
<text text-anchor="start" x="359" y="-488" font-family="Helvetica,sans-Serif" font-size="10.00">&#45; write_linkVariables()</text>
<text text-anchor="start" x="359" y="-477" font-family="Helvetica,sans-Serif" font-size="10.00">&#45; nested_write_linkVariables()</text>
<text text-anchor="start" x="359" y="-466" font-family="Helvetica,sans-Serif" font-size="10.00">&#45; write_jointVariables()</text>
<text text-anchor="start" x="359" y="-455" font-family="Helvetica,sans-Serif" font-size="10.00">&#45; nested_write_jointVariables()</text>
<text text-anchor="start" x="359" y="-444" font-family="Helvetica,sans-Serif" font-size="10.00">&#45; read_linkVariables()</text>
<text text-anchor="start" x="359" y="-433" font-family="Helvetica,sans-Serif" font-size="10.00">&#45; nested_read_linkVariables()</text>
<text text-anchor="start" x="359" y="-422" font-family="Helvetica,sans-Serif" font-size="10.00">&#45; read_jointVariables()</text>
<text text-anchor="start" x="359" y="-411" font-family="Helvetica,sans-Serif" font-size="10.00">&#45; nested_read_jointVariables()</text>
<text text-anchor="start" x="359" y="-400" font-family="Helvetica,sans-Serif" font-size="10.00">&#45; write_linkVariables()</text>
<text text-anchor="start" x="359" y="-389" font-family="Helvetica,sans-Serif" font-size="10.00">&#45; nested_write_linkVariables()</text>
<text text-anchor="start" x="359" y="-378" font-family="Helvetica,sans-Serif" font-size="10.00">and 6 more...</text>
</a>
</g>
</g>
<!-- Node6&#45;&gt;Node1 -->
<g id="edge5" class="edge"><title>Node6&#45;&gt;Node1</title>
<path fill="none" stroke="#404040" d="M377.181,-370.931C369.467,-347.852 361.45,-323.868 353.651,-300.533"/>
<polygon fill="none" stroke="#404040" points="353.646,-300.517 347.95,-296.095 349.842,-289.136 355.537,-293.559 353.646,-300.517"/>
<text text-anchor="middle" x="377.5" y="-327.5" font-family="Helvetica,sans-Serif" font-size="10.00"> &#45;obj</text>
</g>
<!-- Node7 -->
<g id="node7" class="node"><title>Node7</title>
<g id="a_node7"><a xlink:href="classyarp_1_1os_1_1idl_1_1_wire_portable.html" target="_top" xlink:title="{WirePortable\n||}">
<polygon fill="none" stroke="black" points="290.5,-714.5 290.5,-771.5 363.5,-771.5 363.5,-714.5 290.5,-714.5"/>
<text text-anchor="middle" x="327" y="-759.5" font-family="Helvetica,sans-Serif" font-size="10.00">WirePortable</text>
<polyline fill="none" stroke="black" points="290.5,-752.5 363.5,-752.5 "/>
<text text-anchor="middle" x="327" y="-740.5" font-family="Helvetica,sans-Serif" font-size="10.00"> </text>
<polyline fill="none" stroke="black" points="290.5,-733.5 363.5,-733.5 "/>
<text text-anchor="middle" x="327" y="-721.5" font-family="Helvetica,sans-Serif" font-size="10.00"> </text>
</a>
</g>
</g>
<!-- Node7&#45;&gt;Node6 -->
<g id="edge6" class="edge"><title>Node7&#45;&gt;Node6</title>
<path fill="none" stroke="midnightblue" d="M338,-704.723C343.055,-691.531 349.426,-675.787 356.416,-659.099"/>
<polygon fill="none" stroke="midnightblue" points="334.647,-703.696 334.402,-714.288 341.199,-706.16 334.647,-703.696"/>
</g>
<!-- Node7&#45;&gt;Node6 -->
<g id="edge7" class="edge"><title>Node7&#45;&gt;Node6</title>
<path fill="none" stroke="midnightblue" d="M348.141,-705.111C354.572,-691.839 361.924,-675.951 369.481,-659.099"/>
<polygon fill="none" stroke="midnightblue" points="344.9,-703.769 343.631,-714.288 351.183,-706.857 344.9,-703.769"/>
</g>
<!-- Node8 -->
<g id="node8" class="node"><title>Node8</title>
<polygon fill="none" stroke="#bfbfbf" points="381.5,-709 381.5,-777 534.5,-777 534.5,-709 381.5,-709"/>
<text text-anchor="start" x="389.5" y="-765" font-family="Helvetica,sans-Serif" font-size="10.00">vector&lt; human::JointDynamics</text>
<text text-anchor="middle" x="458" y="-754" font-family="Helvetica,sans-Serif" font-size="10.00">Estimation &gt;</text>
<polyline fill="none" stroke="#bfbfbf" points="381.5,-747 534.5,-747 "/>
<text text-anchor="middle" x="458" y="-735" font-family="Helvetica,sans-Serif" font-size="10.00"> </text>
<polyline fill="none" stroke="#bfbfbf" points="381.5,-728 534.5,-728 "/>
<text text-anchor="middle" x="458" y="-716" font-family="Helvetica,sans-Serif" font-size="10.00"> </text>
</g>
<!-- Node8&#45;&gt;Node6 -->
<g id="edge8" class="edge"><title>Node8&#45;&gt;Node6</title>
<path fill="none" stroke="#404040" d="M453.131,-708.653C451.564,-697.922 449.712,-685.241 447.719,-671.588"/>
<polygon fill="none" stroke="#404040" points="447.668,-671.239 442.843,-665.879 445.934,-659.364 450.759,-664.724 447.668,-671.239"/>
<text text-anchor="middle" x="485" y="-681.5" font-family="Helvetica,sans-Serif" font-size="10.00"> +jointVariables</text>
</g>
<!-- Node9 -->
<g id="node9" class="node"><title>Node9</title>
<polygon fill="none" stroke="#bfbfbf" points="553,-709 553,-777 703,-777 703,-709 553,-709"/>
<text text-anchor="start" x="561" y="-765" font-family="Helvetica,sans-Serif" font-size="10.00">vector&lt; human::LinkDynamics</text>
<text text-anchor="middle" x="628" y="-754" font-family="Helvetica,sans-Serif" font-size="10.00">Estimation &gt;</text>
<polyline fill="none" stroke="#bfbfbf" points="553,-747 703,-747 "/>
<text text-anchor="middle" x="628" y="-735" font-family="Helvetica,sans-Serif" font-size="10.00"> </text>
<polyline fill="none" stroke="#bfbfbf" points="553,-728 703,-728 "/>
<text text-anchor="middle" x="628" y="-716" font-family="Helvetica,sans-Serif" font-size="10.00"> </text>
</g>
<!-- Node9&#45;&gt;Node6 -->
<g id="edge9" class="edge"><title>Node9&#45;&gt;Node6</title>
<path fill="none" stroke="#404040" d="M568.65,-708.981C547.87,-695.57 525.403,-678.79 508,-660 507.715,-659.692 507.431,-659.384 507.147,-659.074"/>
<polygon fill="none" stroke="#404040" points="506.951,-658.848 499.995,-656.945 499.077,-649.792 506.032,-651.696 506.951,-658.848"/>
<text text-anchor="middle" x="573.5" y="-681.5" font-family="Helvetica,sans-Serif" font-size="10.00"> +linkVariables</text>
</g>
<!-- Node10 -->
<g id="node10" class="node"><title>Node10</title>
<polygon fill="none" stroke="#bfbfbf" points="517.5,-486.5 517.5,-543.5 546.5,-543.5 546.5,-486.5 517.5,-486.5"/>
<text text-anchor="middle" x="532" y="-531.5" font-family="Helvetica,sans-Serif" font-size="10.00">int</text>
<polyline fill="none" stroke="#bfbfbf" points="517.5,-524.5 546.5,-524.5 "/>
<text text-anchor="middle" x="532" y="-512.5" font-family="Helvetica,sans-Serif" font-size="10.00"> </text>
<polyline fill="none" stroke="#bfbfbf" points="517.5,-505.5 546.5,-505.5 "/>
<text text-anchor="middle" x="532" y="-493.5" font-family="Helvetica,sans-Serif" font-size="10.00"> </text>
</g>
<!-- Node10&#45;&gt;Node1 -->
<g id="edge10" class="edge"><title>Node10&#45;&gt;Node1</title>
<path fill="none" stroke="#404040" d="M532.006,-486.32C530.99,-456.238 526.298,-407.462 508,-370 477.738,-308.043 424.792,-251.041 380.157,-210.044"/>
<polygon fill="none" stroke="#404040" points="379.953,-209.859 372.82,-208.795 371.06,-201.802 378.192,-202.866 379.953,-209.859"/>
<text text-anchor="middle" x="524.5" y="-333" font-family="Helvetica,sans-Serif" font-size="10.00"> &#45;dirty_count</text>
<text text-anchor="middle" x="524.5" y="-322" font-family="Helvetica,sans-Serif" font-size="10.00">&#45;group</text>
</g>
<!-- Node11 -->
<g id="node11" class="node"><title>Node11</title>
<polygon fill="none" stroke="#bfbfbf" points="578.5,-486.5 578.5,-543.5 613.5,-543.5 613.5,-486.5 578.5,-486.5"/>
<text text-anchor="middle" x="596" y="-531.5" font-family="Helvetica,sans-Serif" font-size="10.00">bool</text>
<polyline fill="none" stroke="#bfbfbf" points="578.5,-524.5 613.5,-524.5 "/>
<text text-anchor="middle" x="596" y="-512.5" font-family="Helvetica,sans-Serif" font-size="10.00"> </text>
<polyline fill="none" stroke="#bfbfbf" points="578.5,-505.5 613.5,-505.5 "/>
<text text-anchor="middle" x="596" y="-493.5" font-family="Helvetica,sans-Serif" font-size="10.00"> </text>
</g>
<!-- Node11&#45;&gt;Node1 -->
<g id="edge11" class="edge"><title>Node11&#45;&gt;Node1</title>
<path fill="none" stroke="#404040" d="M597.25,-486.402C597.804,-444.258 593.4,-362.972 556,-308 514.006,-246.277 439.88,-203.021 382.506,-176.827"/>
<polygon fill="none" stroke="#404040" points="382.229,-176.704 375.12,-177.913 371.27,-171.816 378.379,-170.607 382.229,-176.704"/>
<text text-anchor="middle" x="626.5" y="-344" font-family="Helvetica,sans-Serif" font-size="10.00"> &#45;is_dirty</text>
<text text-anchor="middle" x="626.5" y="-333" font-family="Helvetica,sans-Serif" font-size="10.00">&#45;obj_owned</text>
<text text-anchor="middle" x="626.5" y="-322" font-family="Helvetica,sans-Serif" font-size="10.00">&#45;is_dirty_jointVariables</text>
<text text-anchor="middle" x="626.5" y="-311" font-family="Helvetica,sans-Serif" font-size="10.00">&#45;is_dirty_linkVariables</text>
</g>
</g>
</svg>
