<?xml version="1.0" encoding="UTF-8" standalone="no"?>
<!DOCTYPE svg PUBLIC "-//W3C//DTD SVG 1.1//EN"
 "http://www.w3.org/Graphics/SVG/1.1/DTD/svg11.dtd">
<!-- Generated by graphviz version 2.36.0 (20140111.2315)
 -->
<!-- Title: xsens::XsensDriverService_setBodyDimension Pages: 1 -->
<svg width="304pt" height="238pt"
 viewBox="0.00 0.00 304.00 238.00" xmlns="http://www.w3.org/2000/svg" xmlns:xlink="http://www.w3.org/1999/xlink">
<g id="graph0" class="graph" transform="scale(1 1) rotate(0) translate(4 234)">
<title>xsens::XsensDriverService_setBodyDimension</title>
<!-- Node1 -->
<g id="node1" class="node"><title>Node1</title>
<polygon fill="#bfbfbf" stroke="black" points="18,-0.5 18,-123.5 154,-123.5 154,-0.5 18,-0.5"/>
<text text-anchor="start" x="26" y="-111.5" font-family="Helvetica,sans-Serif" font-size="10.00">xsens::XsensDriverService</text>
<text text-anchor="middle" x="86" y="-100.5" font-family="Helvetica,sans-Serif" font-size="10.00">_setBodyDimension</text>
<polyline fill="none" stroke="black" points="18,-93.5 154,-93.5 "/>
<text text-anchor="middle" x="86" y="-81.5" font-family="Helvetica,sans-Serif" font-size="10.00"> </text>
<polyline fill="none" stroke="black" points="18,-74.5 154,-74.5 "/>
<text text-anchor="start" x="26" y="-62.5" font-family="Helvetica,sans-Serif" font-size="10.00">+ init()</text>
<text text-anchor="start" x="26" y="-51.5" font-family="Helvetica,sans-Serif" font-size="10.00">+ write()</text>
<text text-anchor="start" x="26" y="-40.5" font-family="Helvetica,sans-Serif" font-size="10.00">+ read()</text>
<text text-anchor="start" x="26" y="-29.5" font-family="Helvetica,sans-Serif" font-size="10.00">+ init()</text>
<text text-anchor="start" x="26" y="-18.5" font-family="Helvetica,sans-Serif" font-size="10.00">+ write()</text>
<text text-anchor="start" x="26" y="-7.5" font-family="Helvetica,sans-Serif" font-size="10.00">+ read()</text>
</g>
<!-- Node2 -->
<g id="node2" class="node"><title>Node2</title>
<g id="a_node2"><a xlink:href="classyarp_1_1os_1_1_portable.html" target="_top" xlink:title="{Portable\n||}">
<polygon fill="none" stroke="black" points="-0.5,-172.5 -0.5,-229.5 52.5,-229.5 52.5,-172.5 -0.5,-172.5"/>
<text text-anchor="middle" x="26" y="-217.5" font-family="Helvetica,sans-Serif" font-size="10.00">Portable</text>
<polyline fill="none" stroke="black" points="-0.5,-210.5 52.5,-210.5 "/>
<text text-anchor="middle" x="26" y="-198.5" font-family="Helvetica,sans-Serif" font-size="10.00"> </text>
<polyline fill="none" stroke="black" points="-0.5,-191.5 52.5,-191.5 "/>
<text text-anchor="middle" x="26" y="-179.5" font-family="Helvetica,sans-Serif" font-size="10.00"> </text>
</a>
</g>
</g>
<!-- Node2&#45;&gt;Node1 -->
<g id="edge1" class="edge"><title>Node2&#45;&gt;Node1</title>
<path fill="none" stroke="midnightblue" d="M36.1617,-162.928C40.9241,-150.771 46.7751,-136.929 52.7941,-123.501"/>
<polygon fill="none" stroke="midnightblue" points="32.8899,-161.685 32.5933,-172.276 39.4296,-164.182 32.8899,-161.685"/>
</g>
<!-- Node2&#45;&gt;Node1 -->
<g id="edge2" class="edge"><title>Node2&#45;&gt;Node1</title>
<path fill="none" stroke="midnightblue" d="M48.1352,-163.289C54.0714,-151.046 60.413,-137.062 66.2119,-123.501"/>
<polygon fill="none" stroke="midnightblue" points="44.9864,-161.761 43.6905,-172.276 51.261,-164.864 44.9864,-161.761"/>
</g>
<!-- Node3 -->
<g id="node3" class="node"><title>Node3</title>
<polygon fill="none" stroke="#bfbfbf" points="70.5,-172.5 70.5,-229.5 115.5,-229.5 115.5,-172.5 70.5,-172.5"/>
<text text-anchor="middle" x="93" y="-217.5" font-family="Helvetica,sans-Serif" font-size="10.00">double</text>
<polyline fill="none" stroke="#bfbfbf" points="70.5,-210.5 115.5,-210.5 "/>
<text text-anchor="middle" x="93" y="-198.5" font-family="Helvetica,sans-Serif" font-size="10.00"> </text>
<polyline fill="none" stroke="#bfbfbf" points="70.5,-191.5 115.5,-191.5 "/>
<text text-anchor="middle" x="93" y="-179.5" font-family="Helvetica,sans-Serif" font-size="10.00"> </text>
</g>
<!-- Node3&#45;&gt;Node1 -->
<g id="edge3" class="edge"><title>Node3&#45;&gt;Node1</title>
<path fill="none" stroke="#404040" d="M88.8494,-172.323C88.097,-166.297 87.4189,-159.945 87,-154 86.5912,-148.198 86.2793,-142.183 86.0448,-136.136"/>
<polygon fill="none" stroke="#404040" points="86.0326,-135.732 81.8513,-129.857 85.6662,-123.738 89.8476,-129.613 86.0326,-135.732"/>
<text text-anchor="middle" x="126.5" y="-145.5" font-family="Helvetica,sans-Serif" font-size="10.00"> +dimensionValue</text>
</g>
<!-- Node4 -->
<g id="node4" class="node"><title>Node4</title>
<polygon fill="none" stroke="#bfbfbf" points="170.5,-172.5 170.5,-229.5 205.5,-229.5 205.5,-172.5 170.5,-172.5"/>
<text text-anchor="middle" x="188" y="-217.5" font-family="Helvetica,sans-Serif" font-size="10.00">bool</text>
<polyline fill="none" stroke="#bfbfbf" points="170.5,-210.5 205.5,-210.5 "/>
<text text-anchor="middle" x="188" y="-198.5" font-family="Helvetica,sans-Serif" font-size="10.00"> </text>
<polyline fill="none" stroke="#bfbfbf" points="170.5,-191.5 205.5,-191.5 "/>
<text text-anchor="middle" x="188" y="-179.5" font-family="Helvetica,sans-Serif" font-size="10.00"> </text>
</g>
<!-- Node4&#45;&gt;Node1 -->
<g id="edge4" class="edge"><title>Node4&#45;&gt;Node1</title>
<path fill="none" stroke="#404040" d="M180.201,-172.28C176.703,-162.283 171.993,-151.206 166,-142 164.103,-139.086 162.083,-136.195 159.965,-133.339"/>
<polygon fill="none" stroke="#404040" points="159.856,-133.199 153.001,-130.96 152.431,-123.772 159.286,-126.011 159.856,-133.199"/>
<text text-anchor="middle" x="192" y="-145.5" font-family="Helvetica,sans-Serif" font-size="10.00"> +_return</text>
</g>
<!-- Node5 -->
<g id="node5" class="node"><title>Node5</title>
<polygon fill="none" stroke="#bfbfbf" points="230.5,-172.5 230.5,-229.5 271.5,-229.5 271.5,-172.5 230.5,-172.5"/>
<text text-anchor="middle" x="251" y="-217.5" font-family="Helvetica,sans-Serif" font-size="10.00">string</text>
<polyline fill="none" stroke="#bfbfbf" points="230.5,-210.5 271.5,-210.5 "/>
<text text-anchor="middle" x="251" y="-198.5" font-family="Helvetica,sans-Serif" font-size="10.00"> </text>
<polyline fill="none" stroke="#bfbfbf" points="230.5,-191.5 271.5,-191.5 "/>
<text text-anchor="middle" x="251" y="-179.5" font-family="Helvetica,sans-Serif" font-size="10.00"> </text>
</g>
<!-- Node5&#45;&gt;Node1 -->
<g id="edge5" class="edge"><title>Node5&#45;&gt;Node1</title>
<path fill="none" stroke="#404040" d="M237.934,-172.396C232.173,-162.074 224.718,-150.745 216,-142 201.045,-126.999 182.701,-113.643 164.558,-102.374"/>
<polygon fill="none" stroke="#404040" points="164.509,-102.344 157.305,-102.678 154.226,-96.1576 161.429,-95.8233 164.509,-102.344"/>
<text text-anchor="middle" x="260.5" y="-145.5" font-family="Helvetica,sans-Serif" font-size="10.00"> +dimensionKey</text>
</g>
</g>
</svg>
