<?xml version="1.0" encoding="UTF-8" standalone="no"?>
<!DOCTYPE svg PUBLIC "-//W3C//DTD SVG 1.1//EN"
 "http://www.w3.org/Graphics/SVG/1.1/DTD/svg11.dtd">
<!-- Generated by graphviz version 2.36.0 (20140111.2315)
 -->
<!-- Title: InverseKinematicsIPOPT Pages: 1 -->
<svg width="1341pt" height="370pt"
 viewBox="0.00 0.00 1341.00 370.00" xmlns="http://www.w3.org/2000/svg" xmlns:xlink="http://www.w3.org/1999/xlink">
<g id="graph0" class="graph" transform="scale(1 1) rotate(0) translate(4 366)">
<title>InverseKinematicsIPOPT</title>
<!-- Node1 -->
<g id="node1" class="node"><title>Node1</title>
<polygon fill="#bfbfbf" stroke="black" points="580.5,-0.5 580.5,-189.5 729.5,-189.5 729.5,-0.5 580.5,-0.5"/>
<text text-anchor="middle" x="655" y="-177.5" font-family="Helvetica,sans-Serif" font-size="10.00">InverseKinematicsIPOPT</text>
<polyline fill="none" stroke="black" points="580.5,-170.5 729.5,-170.5 "/>
<text text-anchor="middle" x="655" y="-158.5" font-family="Helvetica,sans-Serif" font-size="10.00"> </text>
<polyline fill="none" stroke="black" points="580.5,-151.5 729.5,-151.5 "/>
<text text-anchor="start" x="588.5" y="-139.5" font-family="Helvetica,sans-Serif" font-size="10.00">+ InverseKinematicsIPOPT()</text>
<text text-anchor="start" x="588.5" y="-128.5" font-family="Helvetica,sans-Serif" font-size="10.00">+ ~InverseKinematicsIPOPT()</text>
<text text-anchor="start" x="588.5" y="-117.5" font-family="Helvetica,sans-Serif" font-size="10.00">+ loadFromModel()</text>
<text text-anchor="start" x="588.5" y="-106.5" font-family="Helvetica,sans-Serif" font-size="10.00">+ getModel()</text>
<text text-anchor="start" x="588.5" y="-95.5" font-family="Helvetica,sans-Serif" font-size="10.00">+ update()</text>
<text text-anchor="start" x="588.5" y="-84.5" font-family="Helvetica,sans-Serif" font-size="10.00">+ update()</text>
<text text-anchor="start" x="588.5" y="-73.5" font-family="Helvetica,sans-Serif" font-size="10.00">+ randomInitialization()</text>
<text text-anchor="start" x="588.5" y="-62.5" font-family="Helvetica,sans-Serif" font-size="10.00">+ computeErrors()</text>
<text text-anchor="start" x="588.5" y="-51.5" font-family="Helvetica,sans-Serif" font-size="10.00">+ get_nlp_info()</text>
<text text-anchor="start" x="588.5" y="-40.5" font-family="Helvetica,sans-Serif" font-size="10.00">+ get_bounds_info()</text>
<text text-anchor="start" x="588.5" y="-29.5" font-family="Helvetica,sans-Serif" font-size="10.00">and 7 more...</text>
<text text-anchor="start" x="588.5" y="-18.5" font-family="Helvetica,sans-Serif" font-size="10.00">&#45; twistToQuaternionTwist()</text>
<text text-anchor="start" x="588.5" y="-7.5" font-family="Helvetica,sans-Serif" font-size="10.00">&#45; relativeJacobian()</text>
</g>
<!-- Node2 -->
<g id="node2" class="node"><title>Node2</title>
<polygon fill="none" stroke="#bfbfbf" points="0,-293.5 0,-350.5 70,-350.5 70,-293.5 0,-293.5"/>
<text text-anchor="middle" x="35" y="-338.5" font-family="Helvetica,sans-Serif" font-size="10.00">Ipopt::TNLP</text>
<polyline fill="none" stroke="#bfbfbf" points="0,-331.5 70,-331.5 "/>
<text text-anchor="middle" x="35" y="-319.5" font-family="Helvetica,sans-Serif" font-size="10.00"> </text>
<polyline fill="none" stroke="#bfbfbf" points="0,-312.5 70,-312.5 "/>
<text text-anchor="middle" x="35" y="-300.5" font-family="Helvetica,sans-Serif" font-size="10.00"> </text>
</g>
<!-- Node2&#45;&gt;Node1 -->
<g id="edge1" class="edge"><title>Node2&#45;&gt;Node1</title>
<path fill="none" stroke="midnightblue" d="M72.7263,-286.834C74.8213,-285.166 76.9207,-283.545 79,-282 129.299,-244.635 141.208,-232.211 199,-208 327.76,-154.059 488.308,-122.166 580.496,-106.962"/>
<polygon fill="none" stroke="midnightblue" points="70.2092,-284.373 64.7186,-293.434 74.6614,-289.775 70.2092,-284.373"/>
</g>
<!-- Node3 -->
<g id="node3" class="node"><title>Node3</title>
<polygon fill="none" stroke="#bfbfbf" points="88.5,-293.5 88.5,-350.5 225.5,-350.5 225.5,-293.5 88.5,-293.5"/>
<text text-anchor="middle" x="157" y="-338.5" font-family="Helvetica,sans-Serif" font-size="10.00">FrameFreeFloatingJacobian</text>
<polyline fill="none" stroke="#bfbfbf" points="88.5,-331.5 225.5,-331.5 "/>
<text text-anchor="middle" x="157" y="-319.5" font-family="Helvetica,sans-Serif" font-size="10.00"> </text>
<polyline fill="none" stroke="#bfbfbf" points="88.5,-312.5 225.5,-312.5 "/>
<text text-anchor="middle" x="157" y="-300.5" font-family="Helvetica,sans-Serif" font-size="10.00"> </text>
</g>
<!-- Node3&#45;&gt;Node1 -->
<g id="edge2" class="edge"><title>Node3&#45;&gt;Node1</title>
<path fill="none" stroke="#404040" d="M177.087,-293.287C197.112,-267.592 230.131,-230.097 267,-208 361.479,-151.375 486.123,-122.069 568.326,-107.878"/>
<polygon fill="none" stroke="#404040" points="568.554,-107.84 573.809,-102.901 580.389,-105.851 575.134,-110.79 568.554,-107.84"/>
<text text-anchor="middle" x="287" y="-239" font-family="Helvetica,sans-Serif" font-size="10.00"> &#45;e_J_we</text>
<text text-anchor="middle" x="287" y="-228" font-family="Helvetica,sans-Serif" font-size="10.00">&#45;p_J_wp</text>
</g>
<!-- Node4 -->
<g id="node4" class="node"><title>Node4</title>
<polygon fill="none" stroke="#bfbfbf" points="243.5,-293.5 243.5,-350.5 324.5,-350.5 324.5,-293.5 243.5,-293.5"/>
<text text-anchor="middle" x="284" y="-338.5" font-family="Helvetica,sans-Serif" font-size="10.00">MatrixDynSize</text>
<polyline fill="none" stroke="#bfbfbf" points="243.5,-331.5 324.5,-331.5 "/>
<text text-anchor="middle" x="284" y="-319.5" font-family="Helvetica,sans-Serif" font-size="10.00"> </text>
<polyline fill="none" stroke="#bfbfbf" points="243.5,-312.5 324.5,-312.5 "/>
<text text-anchor="middle" x="284" y="-300.5" font-family="Helvetica,sans-Serif" font-size="10.00"> </text>
</g>
<!-- Node4&#45;&gt;Node1 -->
<g id="edge3" class="edge"><title>Node4&#45;&gt;Node1</title>
<path fill="none" stroke="#404040" d="M295.469,-293.201C307.236,-267.809 327.805,-230.845 356,-208 417.934,-157.819 504.631,-128.674 568.731,-112.766"/>
<polygon fill="none" stroke="#404040" points="568.759,-112.759 573.655,-107.465 580.425,-109.948 575.529,-115.242 568.759,-112.759"/>
<text text-anchor="middle" x="376" y="-255.5" font-family="Helvetica,sans-Serif" font-size="10.00"> &#45;Ep</text>
<text text-anchor="middle" x="376" y="-244.5" font-family="Helvetica,sans-Serif" font-size="10.00">&#45;Eq</text>
<text text-anchor="middle" x="376" y="-233.5" font-family="Helvetica,sans-Serif" font-size="10.00">&#45;hessian</text>
<text text-anchor="middle" x="376" y="-222.5" font-family="Helvetica,sans-Serif" font-size="10.00">&#45;jacobian</text>
<text text-anchor="middle" x="376" y="-211.5" font-family="Helvetica,sans-Serif" font-size="10.00">&#45;Edof</text>
</g>
<!-- Node5 -->
<g id="node5" class="node"><title>Node5</title>
<polygon fill="none" stroke="#bfbfbf" points="343,-293.5 343,-350.5 393,-350.5 393,-293.5 343,-293.5"/>
<text text-anchor="middle" x="368" y="-338.5" font-family="Helvetica,sans-Serif" font-size="10.00">Vector3</text>
<polyline fill="none" stroke="#bfbfbf" points="343,-331.5 393,-331.5 "/>
<text text-anchor="middle" x="368" y="-319.5" font-family="Helvetica,sans-Serif" font-size="10.00"> </text>
<polyline fill="none" stroke="#bfbfbf" points="343,-312.5 393,-312.5 "/>
<text text-anchor="middle" x="368" y="-300.5" font-family="Helvetica,sans-Serif" font-size="10.00"> </text>
</g>
<!-- Node5&#45;&gt;Node1 -->
<g id="edge4" class="edge"><title>Node5&#45;&gt;Node1</title>
<path fill="none" stroke="#404040" d="M381.425,-293.064C394.432,-268.278 416.111,-232.328 443,-208 479.687,-174.807 528.004,-148.294 569.245,-129.413"/>
<polygon fill="none" stroke="#404040" points="569.446,-129.323 573.284,-123.218 580.396,-124.413 576.558,-130.518 569.446,-129.323"/>
<text text-anchor="middle" x="458" y="-233.5" font-family="Helvetica,sans-Serif" font-size="10.00"> &#45;gains</text>
</g>
<!-- Node6 -->
<g id="node6" class="node"><title>Node6</title>
<polygon fill="none" stroke="#bfbfbf" points="411,-293.5 411,-350.5 521,-350.5 521,-293.5 411,-293.5"/>
<text text-anchor="middle" x="466" y="-338.5" font-family="Helvetica,sans-Serif" font-size="10.00">KinDynComputations</text>
<polyline fill="none" stroke="#bfbfbf" points="411,-331.5 521,-331.5 "/>
<text text-anchor="middle" x="466" y="-319.5" font-family="Helvetica,sans-Serif" font-size="10.00"> </text>
<polyline fill="none" stroke="#bfbfbf" points="411,-312.5 521,-312.5 "/>
<text text-anchor="middle" x="466" y="-300.5" font-family="Helvetica,sans-Serif" font-size="10.00"> </text>
</g>
<!-- Node6&#45;&gt;Node1 -->
<g id="edge5" class="edge"><title>Node6&#45;&gt;Node1</title>
<path fill="none" stroke="#404040" d="M469.557,-293.252C473.782,-268.925 482.712,-233.552 501,-208 519.175,-182.606 544.904,-160.703 570.139,-143.172"/>
<polygon fill="none" stroke="#404040" points="570.195,-143.134 572.932,-136.463 580.143,-136.424 577.406,-143.095 570.195,-143.134"/>
<text text-anchor="middle" x="516.5" y="-233.5" font-family="Helvetica,sans-Serif" font-size="10.00"> &#45;iKDC</text>
</g>
<!-- Node7 -->
<g id="node7" class="node"><title>Node7</title>
<polygon fill="none" stroke="#bfbfbf" points="539,-293.5 539,-350.5 589,-350.5 589,-293.5 539,-293.5"/>
<text text-anchor="middle" x="564" y="-338.5" font-family="Helvetica,sans-Serif" font-size="10.00">Vector4</text>
<polyline fill="none" stroke="#bfbfbf" points="539,-331.5 589,-331.5 "/>
<text text-anchor="middle" x="564" y="-319.5" font-family="Helvetica,sans-Serif" font-size="10.00"> </text>
<polyline fill="none" stroke="#bfbfbf" points="539,-312.5 589,-312.5 "/>
<text text-anchor="middle" x="564" y="-300.5" font-family="Helvetica,sans-Serif" font-size="10.00"> </text>
</g>
<!-- Node7&#45;&gt;Node1 -->
<g id="edge6" class="edge"><title>Node7&#45;&gt;Node1</title>
<path fill="none" stroke="#404040" d="M549.462,-293.167C539.278,-269.729 529.385,-235.693 541,-208 548.174,-190.894 559.376,-175.085 572.013,-161.06"/>
<polygon fill="none" stroke="#404040" points="572.243,-160.818 573.466,-153.711 580.497,-152.107 579.273,-159.213 572.243,-160.818"/>
<text text-anchor="middle" x="582" y="-239" font-family="Helvetica,sans-Serif" font-size="10.00"> &#45;quaternionResult</text>
<text text-anchor="middle" x="582" y="-228" font-family="Helvetica,sans-Serif" font-size="10.00">&#45;desiredQuaternion</text>
</g>
<!-- Node8 -->
<g id="node8" class="node"><title>Node8</title>
<polygon fill="none" stroke="#bfbfbf" points="607.5,-293.5 607.5,-350.5 650.5,-350.5 650.5,-293.5 607.5,-293.5"/>
<text text-anchor="middle" x="629" y="-338.5" font-family="Helvetica,sans-Serif" font-size="10.00">Model</text>
<polyline fill="none" stroke="#bfbfbf" points="607.5,-331.5 650.5,-331.5 "/>
<text text-anchor="middle" x="629" y="-319.5" font-family="Helvetica,sans-Serif" font-size="10.00"> </text>
<polyline fill="none" stroke="#bfbfbf" points="607.5,-312.5 650.5,-312.5 "/>
<text text-anchor="middle" x="629" y="-300.5" font-family="Helvetica,sans-Serif" font-size="10.00"> </text>
</g>
<!-- Node8&#45;&gt;Node1 -->
<g id="edge7" class="edge"><title>Node8&#45;&gt;Node1</title>
<path fill="none" stroke="#404040" d="M628.419,-293.459C628.248,-284.109 628.084,-273.6 628,-264 627.782,-239.112 625.063,-232.715 628,-208 628.259,-205.823 628.545,-203.627 628.855,-201.418"/>
<polygon fill="none" stroke="#404040" points="628.864,-201.362 625.848,-194.812 630.734,-189.508 633.75,-196.058 628.864,-201.362"/>
<text text-anchor="middle" x="644.5" y="-233.5" font-family="Helvetica,sans-Serif" font-size="10.00"> &#45;model</text>
</g>
<!-- Node9 -->
<g id="node9" class="node"><title>Node9</title>
<polygon fill="none" stroke="#bfbfbf" points="668.5,-293.5 668.5,-350.5 697.5,-350.5 697.5,-293.5 668.5,-293.5"/>
<text text-anchor="middle" x="683" y="-338.5" font-family="Helvetica,sans-Serif" font-size="10.00">int</text>
<polyline fill="none" stroke="#bfbfbf" points="668.5,-331.5 697.5,-331.5 "/>
<text text-anchor="middle" x="683" y="-319.5" font-family="Helvetica,sans-Serif" font-size="10.00"> </text>
<polyline fill="none" stroke="#bfbfbf" points="668.5,-312.5 697.5,-312.5 "/>
<text text-anchor="middle" x="683" y="-300.5" font-family="Helvetica,sans-Serif" font-size="10.00"> </text>
</g>
<!-- Node9&#45;&gt;Node1 -->
<g id="edge8" class="edge"><title>Node9&#45;&gt;Node1</title>
<path fill="none" stroke="#404040" d="M679.567,-293.411C676.68,-270.212 672.36,-235.497 668.144,-201.618"/>
<polygon fill="none" stroke="#404040" points="668.141,-201.597 663.431,-196.137 666.659,-189.689 671.369,-195.149 668.141,-201.597"/>
<text text-anchor="middle" x="699" y="-239" font-family="Helvetica,sans-Serif" font-size="10.00"> &#45;exitCode</text>
<text text-anchor="middle" x="699" y="-228" font-family="Helvetica,sans-Serif" font-size="10.00">&#45;totalDOF</text>
</g>
<!-- Node10 -->
<g id="node10" class="node"><title>Node10</title>
<polygon fill="none" stroke="#bfbfbf" points="718,-293.5 718,-350.5 786,-350.5 786,-293.5 718,-293.5"/>
<text text-anchor="middle" x="752" y="-338.5" font-family="Helvetica,sans-Serif" font-size="10.00">FrameIndex</text>
<polyline fill="none" stroke="#bfbfbf" points="718,-331.5 786,-331.5 "/>
<text text-anchor="middle" x="752" y="-319.5" font-family="Helvetica,sans-Serif" font-size="10.00"> </text>
<polyline fill="none" stroke="#bfbfbf" points="718,-312.5 786,-312.5 "/>
<text text-anchor="middle" x="752" y="-300.5" font-family="Helvetica,sans-Serif" font-size="10.00"> </text>
</g>
<!-- Node10&#45;&gt;Node1 -->
<g id="edge9" class="edge"><title>Node10&#45;&gt;Node1</title>
<path fill="none" stroke="#404040" d="M748.303,-293.255C744.562,-269.87 737.636,-235.864 726,-208 725.012,-205.635 723.976,-203.264 722.898,-200.891"/>
<polygon fill="none" stroke="#404040" points="722.765,-200.615 716.561,-196.941 717.566,-189.8 723.771,-193.474 722.765,-200.615"/>
<text text-anchor="middle" x="785.5" y="-239" font-family="Helvetica,sans-Serif" font-size="10.00"> &#45;endEffectorFrame</text>
<text text-anchor="middle" x="785.5" y="-228" font-family="Helvetica,sans-Serif" font-size="10.00">&#45;parentFrame</text>
</g>
<!-- Node11 -->
<g id="node11" class="node"><title>Node11</title>
<polygon fill="none" stroke="#bfbfbf" points="842.5,-293.5 842.5,-350.5 877.5,-350.5 877.5,-293.5 842.5,-293.5"/>
<text text-anchor="middle" x="860" y="-338.5" font-family="Helvetica,sans-Serif" font-size="10.00">bool</text>
<polyline fill="none" stroke="#bfbfbf" points="842.5,-331.5 877.5,-331.5 "/>
<text text-anchor="middle" x="860" y="-319.5" font-family="Helvetica,sans-Serif" font-size="10.00"> </text>
<polyline fill="none" stroke="#bfbfbf" points="842.5,-312.5 877.5,-312.5 "/>
<text text-anchor="middle" x="860" y="-300.5" font-family="Helvetica,sans-Serif" font-size="10.00"> </text>
</g>
<!-- Node11&#45;&gt;Node1 -->
<g id="edge10" class="edge"><title>Node11&#45;&gt;Node1</title>
<path fill="none" stroke="#404040" d="M858.833,-293.023C856.556,-268.546 850.087,-233.082 832,-208 808.873,-175.929 773.461,-150.897 740.371,-132.709"/>
<polygon fill="none" stroke="#404040" points="740.321,-132.683 733.145,-133.395 729.728,-127.045 736.904,-126.333 740.321,-132.683"/>
<text text-anchor="middle" x="887" y="-239" font-family="Helvetica,sans-Serif" font-size="10.00"> &#45;modelLoaded</text>
<text text-anchor="middle" x="887" y="-228" font-family="Helvetica,sans-Serif" font-size="10.00">&#45;gainsLoaded</text>
</g>
<!-- Node12 -->
<g id="node12" class="node"><title>Node12</title>
<polygon fill="none" stroke="#bfbfbf" points="903,-293.5 903,-350.5 955,-350.5 955,-293.5 903,-293.5"/>
<text text-anchor="middle" x="929" y="-338.5" font-family="Helvetica,sans-Serif" font-size="10.00">Position</text>
<polyline fill="none" stroke="#bfbfbf" points="903,-331.5 955,-331.5 "/>
<text text-anchor="middle" x="929" y="-319.5" font-family="Helvetica,sans-Serif" font-size="10.00"> </text>
<polyline fill="none" stroke="#bfbfbf" points="903,-312.5 955,-312.5 "/>
<text text-anchor="middle" x="929" y="-300.5" font-family="Helvetica,sans-Serif" font-size="10.00"> </text>
</g>
<!-- Node12&#45;&gt;Node1 -->
<g id="edge11" class="edge"><title>Node12&#45;&gt;Node1</title>
<path fill="none" stroke="#404040" d="M935.203,-293.255C939.061,-268.598 940.431,-232.728 923,-208 881.531,-149.169 802.992,-121.124 741.611,-107.824"/>
<polygon fill="none" stroke="#404040" points="741.335,-107.767 734.654,-110.48 729.58,-105.356 736.261,-102.643 741.335,-107.767"/>
<text text-anchor="middle" x="974.5" y="-239" font-family="Helvetica,sans-Serif" font-size="10.00"> &#45;desiredPosition</text>
<text text-anchor="middle" x="974.5" y="-228" font-family="Helvetica,sans-Serif" font-size="10.00">&#45;positionResult</text>
</g>
<!-- Node13 -->
<g id="node13" class="node"><title>Node13</title>
<polygon fill="none" stroke="#bfbfbf" points="973,-282.5 973,-361.5 1113,-361.5 1113,-282.5 973,-282.5"/>
<text text-anchor="start" x="981" y="-349.5" font-family="Helvetica,sans-Serif" font-size="10.00">Matrix&lt; double, Eigen</text>
<text text-anchor="start" x="981" y="-338.5" font-family="Helvetica,sans-Serif" font-size="10.00">::Dynamic, Eigen::Dynamic,</text>
<text text-anchor="middle" x="1043" y="-327.5" font-family="Helvetica,sans-Serif" font-size="10.00"> Eigen::RowMajor &gt;</text>
<polyline fill="none" stroke="#bfbfbf" points="973,-320.5 1113,-320.5 "/>
<text text-anchor="middle" x="1043" y="-308.5" font-family="Helvetica,sans-Serif" font-size="10.00"> </text>
<polyline fill="none" stroke="#bfbfbf" points="973,-301.5 1113,-301.5 "/>
<text text-anchor="middle" x="1043" y="-289.5" font-family="Helvetica,sans-Serif" font-size="10.00"> </text>
</g>
<!-- Node13&#45;&gt;Node1 -->
<g id="edge12" class="edge"><title>Node13&#45;&gt;Node1</title>
<path fill="none" stroke="#404040" d="M1042.69,-282.435C1040.48,-258.19 1033.72,-227.852 1015,-208 944.025,-132.73 823.461,-107.711 741.597,-99.5845"/>
<polygon fill="none" stroke="#404040" points="741.509,-99.5766 735.17,-103.013 729.559,-98.4831 735.899,-95.0465 741.509,-99.5766"/>
<text text-anchor="middle" x="1064.5" y="-233.5" font-family="Helvetica,sans-Serif" font-size="10.00"> &#45;denseJac</text>
</g>
<!-- Node14 -->
<g id="node14" class="node"><title>Node14</title>
<polygon fill="none" stroke="#bfbfbf" points="1131.5,-288 1131.5,-356 1232.5,-356 1232.5,-288 1131.5,-288"/>
<text text-anchor="start" x="1139.5" y="-344" font-family="Helvetica,sans-Serif" font-size="10.00">vector&lt; std::pair&lt;</text>
<text text-anchor="middle" x="1182" y="-333" font-family="Helvetica,sans-Serif" font-size="10.00"> double, double &gt; &gt;</text>
<polyline fill="none" stroke="#bfbfbf" points="1131.5,-326 1232.5,-326 "/>
<text text-anchor="middle" x="1182" y="-314" font-family="Helvetica,sans-Serif" font-size="10.00"> </text>
<polyline fill="none" stroke="#bfbfbf" points="1131.5,-307 1232.5,-307 "/>
<text text-anchor="middle" x="1182" y="-295" font-family="Helvetica,sans-Serif" font-size="10.00"> </text>
</g>
<!-- Node14&#45;&gt;Node1 -->
<g id="edge13" class="edge"><title>Node14&#45;&gt;Node1</title>
<path fill="none" stroke="#404040" d="M1164.07,-287.879C1148.54,-262.312 1123.77,-228.025 1093,-208 984.922,-137.654 835.161,-111.47 741.737,-101.738"/>
<polygon fill="none" stroke="#404040" points="741.726,-101.737 735.36,-105.125 729.785,-100.551 736.151,-97.1639 741.726,-101.737"/>
<text text-anchor="middle" x="1176" y="-233.5" font-family="Helvetica,sans-Serif" font-size="10.00"> &#45;jointsLimits</text>
</g>
<!-- Node15 -->
<g id="node15" class="node"><title>Node15</title>
<polygon fill="none" stroke="#bfbfbf" points="1250.5,-293.5 1250.5,-350.5 1333.5,-350.5 1333.5,-293.5 1250.5,-293.5"/>
<text text-anchor="middle" x="1292" y="-338.5" font-family="Helvetica,sans-Serif" font-size="10.00">VectorDynSize</text>
<polyline fill="none" stroke="#bfbfbf" points="1250.5,-331.5 1333.5,-331.5 "/>
<text text-anchor="middle" x="1292" y="-319.5" font-family="Helvetica,sans-Serif" font-size="10.00"> </text>
<polyline fill="none" stroke="#bfbfbf" points="1250.5,-312.5 1333.5,-312.5 "/>
<text text-anchor="middle" x="1292" y="-300.5" font-family="Helvetica,sans-Serif" font-size="10.00"> </text>
</g>
<!-- Node15&#45;&gt;Node1 -->
<g id="edge14" class="edge"><title>Node15&#45;&gt;Node1</title>
<path fill="none" stroke="#404040" d="M1278.83,-293.101C1264.96,-266.894 1240.61,-228.702 1208,-208 1131.54,-159.455 876.999,-122.603 741.541,-105.881"/>
<polygon fill="none" stroke="#404040" points="741.522,-105.879 735.08,-109.121 729.61,-104.422 736.051,-101.18 741.522,-105.879"/>
<text text-anchor="middle" x="1291.5" y="-255.5" font-family="Helvetica,sans-Serif" font-size="10.00"> &#45;gradient</text>
<text text-anchor="middle" x="1291.5" y="-244.5" font-family="Helvetica,sans-Serif" font-size="10.00">&#45;desiredJoints</text>
<text text-anchor="middle" x="1291.5" y="-233.5" font-family="Helvetica,sans-Serif" font-size="10.00">&#45;guess</text>
<text text-anchor="middle" x="1291.5" y="-222.5" font-family="Helvetica,sans-Serif" font-size="10.00">&#45;jointsTemp</text>
<text text-anchor="middle" x="1291.5" y="-211.5" font-family="Helvetica,sans-Serif" font-size="10.00">&#45;jointResult</text>
</g>
</g>
</svg>
