<?xml version="1.0" encoding="UTF-8" standalone="no"?>
<!DOCTYPE svg PUBLIC "-//W3C//DTD SVG 1.1//EN"
 "http://www.w3.org/Graphics/SVG/1.1/DTD/svg11.dtd">
<!-- Generated by graphviz version 2.36.0 (20140111.2315)
 -->
<!-- Title: human::AbstractForceReader Pages: 1 -->
<svg width="443pt" height="238pt"
 viewBox="0.00 0.00 443.00 238.00" xmlns="http://www.w3.org/2000/svg" xmlns:xlink="http://www.w3.org/1999/xlink">
<g id="graph0" class="graph" transform="scale(1 1) rotate(0) translate(4 234)">
<title>human::AbstractForceReader</title>
<!-- Node1 -->
<g id="node1" class="node"><title>Node1</title>
<polygon fill="#bfbfbf" stroke="black" points="128.5,-0.5 128.5,-101.5 273.5,-101.5 273.5,-0.5 128.5,-0.5"/>
<text text-anchor="middle" x="201" y="-89.5" font-family="Helvetica,sans-Serif" font-size="10.00">human::AbstractForceReader</text>
<polyline fill="none" stroke="black" points="128.5,-82.5 273.5,-82.5 "/>
<text text-anchor="middle" x="201" y="-70.5" font-family="Helvetica,sans-Serif" font-size="10.00"> </text>
<polyline fill="none" stroke="black" points="128.5,-63.5 273.5,-63.5 "/>
<text text-anchor="start" x="136.5" y="-51.5" font-family="Helvetica,sans-Serif" font-size="10.00">+ AbstractForceReader()</text>
<text text-anchor="start" x="136.5" y="-40.5" font-family="Helvetica,sans-Serif" font-size="10.00">+ setTransformer()</text>
<text text-anchor="start" x="136.5" y="-29.5" font-family="Helvetica,sans-Serif" font-size="10.00">+ getTransformer()</text>
<text text-anchor="start" x="136.5" y="-18.5" font-family="Helvetica,sans-Serif" font-size="10.00">+ readForce()</text>
<text text-anchor="start" x="136.5" y="-7.5" font-family="Helvetica,sans-Serif" font-size="10.00"># lowLevelRead()</text>
</g>
<!-- Node2 -->
<g id="node2" class="node"><title>Node2</title>
<g id="a_node2"><a xlink:href="classhuman_1_1_force_reader.html" target="_top" xlink:title="Interface for reading forces from device and sensors. ">
<polygon fill="none" stroke="black" points="0,-161 0,-229 108,-229 108,-161 0,-161"/>
<text text-anchor="middle" x="54" y="-217" font-family="Helvetica,sans-Serif" font-size="10.00">human::ForceReader</text>
<polyline fill="none" stroke="black" points="0,-210 108,-210 "/>
<text text-anchor="middle" x="54" y="-198" font-family="Helvetica,sans-Serif" font-size="10.00"> </text>
<polyline fill="none" stroke="black" points="0,-191 108,-191 "/>
<text text-anchor="start" x="8" y="-179" font-family="Helvetica,sans-Serif" font-size="10.00">+ readForce()</text>
<text text-anchor="start" x="8" y="-168" font-family="Helvetica,sans-Serif" font-size="10.00">+ ~ForceReader()</text>
</a>
</g>
</g>
<!-- Node2&#45;&gt;Node1 -->
<g id="edge1" class="edge"><title>Node2&#45;&gt;Node1</title>
<path fill="none" stroke="midnightblue" d="M95.9573,-153.47C112.713,-137.284 132.168,-118.49 149.749,-101.508"/>
<polygon fill="none" stroke="midnightblue" points="93.2256,-151.242 88.465,-160.707 98.089,-156.277 93.2256,-151.242"/>
</g>
<!-- Node3 -->
<g id="node3" class="node"><title>Node3</title>
<polygon fill="none" stroke="#bfbfbf" points="126.5,-166.5 126.5,-223.5 167.5,-223.5 167.5,-166.5 126.5,-166.5"/>
<text text-anchor="middle" x="147" y="-211.5" font-family="Helvetica,sans-Serif" font-size="10.00">string</text>
<polyline fill="none" stroke="#bfbfbf" points="126.5,-204.5 167.5,-204.5 "/>
<text text-anchor="middle" x="147" y="-192.5" font-family="Helvetica,sans-Serif" font-size="10.00"> </text>
<polyline fill="none" stroke="#bfbfbf" points="126.5,-185.5 167.5,-185.5 "/>
<text text-anchor="middle" x="147" y="-173.5" font-family="Helvetica,sans-Serif" font-size="10.00"> </text>
</g>
<!-- Node3&#45;&gt;Node1 -->
<g id="edge2" class="edge"><title>Node3&#45;&gt;Node1</title>
<path fill="none" stroke="#404040" d="M143.243,-166.205C142.343,-152.002 142.848,-134.668 148,-120 148.887,-117.476 149.908,-114.972 151.041,-112.499"/>
<polygon fill="none" stroke="#404040" points="151.045,-112.491 150.31,-105.318 156.649,-101.88 157.384,-109.054 151.045,-112.491"/>
<text text-anchor="middle" x="190.5" y="-134" font-family="Helvetica,sans-Serif" font-size="10.00"> &#45;m_attachedLink</text>
<text text-anchor="middle" x="190.5" y="-123" font-family="Helvetica,sans-Serif" font-size="10.00">&#45;m_referenceFrame</text>
</g>
<!-- Node4 -->
<g id="node4" class="node"><title>Node4</title>
<polygon fill="none" stroke="#bfbfbf" points="232.5,-166.5 232.5,-223.5 277.5,-223.5 277.5,-166.5 232.5,-166.5"/>
<text text-anchor="middle" x="255" y="-211.5" font-family="Helvetica,sans-Serif" font-size="10.00">Vector</text>
<polyline fill="none" stroke="#bfbfbf" points="232.5,-204.5 277.5,-204.5 "/>
<text text-anchor="middle" x="255" y="-192.5" font-family="Helvetica,sans-Serif" font-size="10.00"> </text>
<polyline fill="none" stroke="#bfbfbf" points="232.5,-185.5 277.5,-185.5 "/>
<text text-anchor="middle" x="255" y="-173.5" font-family="Helvetica,sans-Serif" font-size="10.00"> </text>
</g>
<!-- Node4&#45;&gt;Node1 -->
<g id="edge3" class="edge"><title>Node4&#45;&gt;Node1</title>
<path fill="none" stroke="#404040" d="M247.823,-166.259C243.924,-152.226 238.732,-135.027 233,-120 232.11,-117.667 231.174,-115.302 230.204,-112.924"/>
<polygon fill="none" stroke="#404040" points="230.155,-112.808 224.127,-108.85 225.462,-101.763 231.49,-105.721 230.155,-112.808"/>
<text text-anchor="middle" x="278" y="-134" font-family="Helvetica,sans-Serif" font-size="10.00"> &#45;m_packedForce</text>
<text text-anchor="middle" x="278" y="-123" font-family="Helvetica,sans-Serif" font-size="10.00">&#45;m_forceBuffer</text>
</g>
<!-- Node5 -->
<g id="node5" class="node"><title>Node5</title>
<g id="a_node5"><a xlink:href="classhuman_1_1_frame_transformer.html" target="_top" xlink:title="Interface for transforming forces into human frames. In general, given two generic frames A and B...">
<polygon fill="none" stroke="black" points="296,-161 296,-229 428,-229 428,-161 296,-161"/>
<text text-anchor="middle" x="362" y="-217" font-family="Helvetica,sans-Serif" font-size="10.00">human::FrameTransformer</text>
<polyline fill="none" stroke="black" points="296,-210 428,-210 "/>
<text text-anchor="middle" x="362" y="-198" font-family="Helvetica,sans-Serif" font-size="10.00"> </text>
<polyline fill="none" stroke="black" points="296,-191 428,-191 "/>
<text text-anchor="start" x="304" y="-179" font-family="Helvetica,sans-Serif" font-size="10.00">+ transformForceFrame()</text>
<text text-anchor="start" x="304" y="-168" font-family="Helvetica,sans-Serif" font-size="10.00">+ ~FrameTransformer()</text>
</a>
</g>
</g>
<!-- Node5&#45;&gt;Node1 -->
<g id="edge4" class="edge"><title>Node5&#45;&gt;Node1</title>
<path fill="none" stroke="#404040" d="M347.984,-160.848C341.011,-147.066 331.578,-131.611 320,-120 309.461,-109.43 296.941,-99.957 284.045,-91.6782"/>
<polygon fill="none" stroke="#404040" points="283.878,-91.5758 276.672,-91.8449 273.652,-85.2966 280.858,-85.0275 283.878,-91.5758"/>
<text text-anchor="middle" x="386.5" y="-128.5" font-family="Helvetica,sans-Serif" font-size="10.00"> &#45;m_frameTransformer</text>
</g>
</g>
</svg>
