<?xml version="1.0" encoding="UTF-8" standalone="no"?>
<!DOCTYPE svg PUBLIC "-//W3C//DTD SVG 1.1//EN"
 "http://www.w3.org/Graphics/SVG/1.1/DTD/svg11.dtd">
<!-- Generated by graphviz version 2.36.0 (20140111.2315)
 -->
<!-- Title: geometry_msgs_Transform Pages: 1 -->
<svg width="158pt" height="282pt"
 viewBox="0.00 0.00 158.00 282.00" xmlns="http://www.w3.org/2000/svg" xmlns:xlink="http://www.w3.org/1999/xlink">
<g id="graph0" class="graph" transform="scale(1 1) rotate(0) translate(4 278)">
<title>geometry_msgs_Transform</title>
<!-- Node1 -->
<g id="node1" class="node"><title>Node1</title>
<polygon fill="#bfbfbf" stroke="black" points="-0.5,-1 -0.5,-179 150.5,-179 150.5,-1 -0.5,-1"/>
<text text-anchor="middle" x="75" y="-167" font-family="Helvetica,sans-Serif" font-size="10.00">geometry_msgs_Transform</text>
<polyline fill="none" stroke="black" points="-0.5,-160 150.5,-160 "/>
<text text-anchor="start" x="7.5" y="-148" font-family="Helvetica,sans-Serif" font-size="10.00">+ translation</text>
<text text-anchor="start" x="7.5" y="-137" font-family="Helvetica,sans-Serif" font-size="10.00">+ rotation</text>
<polyline fill="none" stroke="black" points="-0.5,-130 150.5,-130 "/>
<text text-anchor="start" x="7.5" y="-118" font-family="Helvetica,sans-Serif" font-size="10.00">+ geometry_msgs_Transform()</text>
<text text-anchor="start" x="7.5" y="-107" font-family="Helvetica,sans-Serif" font-size="10.00">+ clear()</text>
<text text-anchor="start" x="7.5" y="-96" font-family="Helvetica,sans-Serif" font-size="10.00">+ readBare()</text>
<text text-anchor="start" x="7.5" y="-85" font-family="Helvetica,sans-Serif" font-size="10.00">+ readBottle()</text>
<text text-anchor="start" x="7.5" y="-74" font-family="Helvetica,sans-Serif" font-size="10.00">+ read()</text>
<text text-anchor="start" x="7.5" y="-63" font-family="Helvetica,sans-Serif" font-size="10.00">+ writeBare()</text>
<text text-anchor="start" x="7.5" y="-52" font-family="Helvetica,sans-Serif" font-size="10.00">+ writeBottle()</text>
<text text-anchor="start" x="7.5" y="-41" font-family="Helvetica,sans-Serif" font-size="10.00">+ write()</text>
<text text-anchor="start" x="7.5" y="-30" font-family="Helvetica,sans-Serif" font-size="10.00">+ getTypeText()</text>
<text text-anchor="start" x="7.5" y="-19" font-family="Helvetica,sans-Serif" font-size="10.00">+ getType()</text>
<text text-anchor="start" x="7.5" y="-8" font-family="Helvetica,sans-Serif" font-size="10.00">and 10 more...</text>
</g>
<!-- Node2 -->
<g id="node2" class="node"><title>Node2</title>
<g id="a_node2"><a xlink:href="classyarp_1_1os_1_1idl_1_1_wire_portable.html" target="_top" xlink:title="{WirePortable\n||}">
<polygon fill="none" stroke="black" points="38.5,-216.5 38.5,-273.5 111.5,-273.5 111.5,-216.5 38.5,-216.5"/>
<text text-anchor="middle" x="75" y="-261.5" font-family="Helvetica,sans-Serif" font-size="10.00">WirePortable</text>
<polyline fill="none" stroke="black" points="38.5,-254.5 111.5,-254.5 "/>
<text text-anchor="middle" x="75" y="-242.5" font-family="Helvetica,sans-Serif" font-size="10.00"> </text>
<polyline fill="none" stroke="black" points="38.5,-235.5 111.5,-235.5 "/>
<text text-anchor="middle" x="75" y="-223.5" font-family="Helvetica,sans-Serif" font-size="10.00"> </text>
</a>
</g>
</g>
<!-- Node2&#45;&gt;Node1 -->
<g id="edge1" class="edge"><title>Node2&#45;&gt;Node1</title>
<path fill="none" stroke="midnightblue" d="M69.0836,-206.166C68.6881,-197.781 68.4333,-188.554 68.3193,-179.086"/>
<polygon fill="none" stroke="midnightblue" points="65.5973,-206.508 69.6599,-216.293 72.586,-206.11 65.5973,-206.508"/>
</g>
<!-- Node2&#45;&gt;Node1 -->
<g id="edge2" class="edge"><title>Node2&#45;&gt;Node1</title>
<path fill="none" stroke="midnightblue" d="M80.9164,-206.166C81.3119,-197.781 81.5667,-188.554 81.6807,-179.086"/>
<polygon fill="none" stroke="midnightblue" points="77.414,-206.11 80.3401,-216.293 84.4027,-206.508 77.414,-206.11"/>
</g>
</g>
</svg>
