<?xml version="1.0" encoding="UTF-8" standalone="no"?>
<!DOCTYPE svg PUBLIC "-//W3C//DTD SVG 1.1//EN"
 "http://www.w3.org/Graphics/SVG/1.1/DTD/svg11.dtd">
<!-- Generated by graphviz version 2.36.0 (20140111.2315)
 -->
<!-- Title: human::PortForceReader Pages: 1 -->
<svg width="450pt" height="356pt"
 viewBox="0.00 0.00 449.77 356.00" xmlns="http://www.w3.org/2000/svg" xmlns:xlink="http://www.w3.org/1999/xlink">
<g id="graph0" class="graph" transform="scale(1 1) rotate(0) translate(4 352)">
<title>human::PortForceReader</title>
<!-- Node1 -->
<g id="node1" class="node"><title>Node1</title>
<polygon fill="#bfbfbf" stroke="black" points="119.769,-1 119.769,-69 245.769,-69 245.769,-1 119.769,-1"/>
<text text-anchor="middle" x="182.769" y="-57" font-family="Helvetica,sans-Serif" font-size="10.00">human::PortForceReader</text>
<polyline fill="none" stroke="black" points="119.769,-50 245.769,-50 "/>
<text text-anchor="middle" x="182.769" y="-38" font-family="Helvetica,sans-Serif" font-size="10.00"> </text>
<polyline fill="none" stroke="black" points="119.769,-31 245.769,-31 "/>
<text text-anchor="start" x="127.769" y="-19" font-family="Helvetica,sans-Serif" font-size="10.00">+ PortForceReader()</text>
<text text-anchor="start" x="127.769" y="-8" font-family="Helvetica,sans-Serif" font-size="10.00"># lowLevelRead()</text>
</g>
<!-- Node2 -->
<g id="node2" class="node"><title>Node2</title>
<g id="a_node2"><a xlink:href="classhuman_1_1_abstract_force_reader.html" target="_top" xlink:title="Abstract class for implementing code required from its derived classes. ">
<polygon fill="none" stroke="black" points="110.269,-118.5 110.269,-219.5 255.269,-219.5 255.269,-118.5 110.269,-118.5"/>
<text text-anchor="middle" x="182.769" y="-207.5" font-family="Helvetica,sans-Serif" font-size="10.00">human::AbstractForceReader</text>
<polyline fill="none" stroke="black" points="110.269,-200.5 255.269,-200.5 "/>
<text text-anchor="middle" x="182.769" y="-188.5" font-family="Helvetica,sans-Serif" font-size="10.00"> </text>
<polyline fill="none" stroke="black" points="110.269,-181.5 255.269,-181.5 "/>
<text text-anchor="start" x="118.269" y="-169.5" font-family="Helvetica,sans-Serif" font-size="10.00">+ AbstractForceReader()</text>
<text text-anchor="start" x="118.269" y="-158.5" font-family="Helvetica,sans-Serif" font-size="10.00">+ setTransformer()</text>
<text text-anchor="start" x="118.269" y="-147.5" font-family="Helvetica,sans-Serif" font-size="10.00">+ getTransformer()</text>
<text text-anchor="start" x="118.269" y="-136.5" font-family="Helvetica,sans-Serif" font-size="10.00">+ readForce()</text>
<text text-anchor="start" x="118.269" y="-125.5" font-family="Helvetica,sans-Serif" font-size="10.00"># lowLevelRead()</text>
</a>
</g>
</g>
<!-- Node2&#45;&gt;Node1 -->
<g id="edge1" class="edge"><title>Node2&#45;&gt;Node1</title>
<path fill="none" stroke="midnightblue" d="M182.769,-108.345C182.769,-94.9626 182.769,-81.2294 182.769,-69.3731"/>
<polygon fill="none" stroke="midnightblue" points="179.269,-108.472 182.769,-118.473 186.269,-108.473 179.269,-108.472"/>
</g>
<!-- Node3 -->
<g id="node3" class="node"><title>Node3</title>
<g id="a_node3"><a xlink:href="classhuman_1_1_force_reader.html" target="_top" xlink:title="Interface for reading forces from device and sensors. ">
<polygon fill="none" stroke="black" points="333.769,-279 333.769,-347 441.769,-347 441.769,-279 333.769,-279"/>
<text text-anchor="middle" x="387.769" y="-335" font-family="Helvetica,sans-Serif" font-size="10.00">human::ForceReader</text>
<polyline fill="none" stroke="black" points="333.769,-328 441.769,-328 "/>
<text text-anchor="middle" x="387.769" y="-316" font-family="Helvetica,sans-Serif" font-size="10.00"> </text>
<polyline fill="none" stroke="black" points="333.769,-309 441.769,-309 "/>
<text text-anchor="start" x="341.769" y="-297" font-family="Helvetica,sans-Serif" font-size="10.00">+ readForce()</text>
<text text-anchor="start" x="341.769" y="-286" font-family="Helvetica,sans-Serif" font-size="10.00">+ ~ForceReader()</text>
</a>
</g>
</g>
<!-- Node3&#45;&gt;Node2 -->
<g id="edge2" class="edge"><title>Node3&#45;&gt;Node2</title>
<path fill="none" stroke="midnightblue" d="M367.055,-270.037C359.346,-258.13 349.549,-246.191 337.769,-238 309.979,-218.676 295,-233.051 263.769,-220 261.025,-218.853 258.265,-217.62 255.507,-216.319"/>
<polygon fill="none" stroke="midnightblue" points="364.107,-271.925 372.297,-278.647 370.086,-268.285 364.107,-271.925"/>
</g>
<!-- Node4 -->
<g id="node4" class="node"><title>Node4</title>
<polygon fill="none" stroke="#bfbfbf" points="121.269,-284.5 121.269,-341.5 162.269,-341.5 162.269,-284.5 121.269,-284.5"/>
<text text-anchor="middle" x="141.769" y="-329.5" font-family="Helvetica,sans-Serif" font-size="10.00">string</text>
<polyline fill="none" stroke="#bfbfbf" points="121.269,-322.5 162.269,-322.5 "/>
<text text-anchor="middle" x="141.769" y="-310.5" font-family="Helvetica,sans-Serif" font-size="10.00"> </text>
<polyline fill="none" stroke="#bfbfbf" points="121.269,-303.5 162.269,-303.5 "/>
<text text-anchor="middle" x="141.769" y="-291.5" font-family="Helvetica,sans-Serif" font-size="10.00"> </text>
</g>
<!-- Node4&#45;&gt;Node2 -->
<g id="edge3" class="edge"><title>Node4&#45;&gt;Node2</title>
<path fill="none" stroke="#404040" d="M138.818,-284.459C138.131,-270.323 138.583,-252.972 142.769,-238 143.446,-235.578 144.232,-233.154 145.107,-230.74"/>
<polygon fill="none" stroke="#404040" points="145.15,-230.638 143.778,-223.558 149.785,-219.569 151.157,-226.648 145.15,-230.638"/>
<text text-anchor="middle" x="185.269" y="-252" font-family="Helvetica,sans-Serif" font-size="10.00"> &#45;m_attachedLink</text>
<text text-anchor="middle" x="185.269" y="-241" font-family="Helvetica,sans-Serif" font-size="10.00">&#45;m_referenceFrame</text>
</g>
<!-- Node5 -->
<g id="node5" class="node"><title>Node5</title>
<polygon fill="none" stroke="#bfbfbf" points="4.26931,-284.5 4.26931,-341.5 49.2693,-341.5 49.2693,-284.5 4.26931,-284.5"/>
<text text-anchor="middle" x="26.7693" y="-329.5" font-family="Helvetica,sans-Serif" font-size="10.00">Vector</text>
<polyline fill="none" stroke="#bfbfbf" points="4.26931,-322.5 49.2693,-322.5 "/>
<text text-anchor="middle" x="26.7693" y="-310.5" font-family="Helvetica,sans-Serif" font-size="10.00"> </text>
<polyline fill="none" stroke="#bfbfbf" points="4.26931,-303.5 49.2693,-303.5 "/>
<text text-anchor="middle" x="26.7693" y="-291.5" font-family="Helvetica,sans-Serif" font-size="10.00"> </text>
</g>
<!-- Node5&#45;&gt;Node1 -->
<g id="edge7" class="edge"><title>Node5&#45;&gt;Node1</title>
<path fill="none" stroke="#404040" d="M16.5311,-284.171C3.69045,-244.141 -13.0416,-169.471 18.7693,-118 38.4555,-86.1471 74.6766,-66.2536 108.081,-54.0541"/>
<polygon fill="none" stroke="#404040" points="108.396,-53.9461 112.774,-48.2159 119.747,-50.053 115.369,-55.7832 108.396,-53.9461"/>
<text text-anchor="middle" x="59.7693" y="-166.5" font-family="Helvetica,sans-Serif" font-size="10.00"> &#45;m_internal_buffer</text>
</g>
<!-- Node5&#45;&gt;Node2 -->
<g id="edge4" class="edge"><title>Node5&#45;&gt;Node2</title>
<path fill="none" stroke="#404040" d="M34.0547,-284.399C39.2009,-269.221 47.419,-250.908 59.7693,-238 72.136,-225.075 80.0079,-228.46 95.7693,-220 96.9205,-219.382 98.0789,-218.757 99.2432,-218.127"/>
<polygon fill="none" stroke="#404040" points="99.3157,-218.087 102.656,-211.696 109.84,-212.322 106.5,-218.713 99.3157,-218.087"/>
<text text-anchor="middle" x="97.7693" y="-252" font-family="Helvetica,sans-Serif" font-size="10.00"> &#45;m_packedForce</text>
<text text-anchor="middle" x="97.7693" y="-241" font-family="Helvetica,sans-Serif" font-size="10.00">&#45;m_forceBuffer</text>
</g>
<!-- Node6 -->
<g id="node6" class="node"><title>Node6</title>
<g id="a_node6"><a xlink:href="classhuman_1_1_frame_transformer.html" target="_top" xlink:title="Interface for transforming forces into human frames. In general, given two generic frames A and B...">
<polygon fill="none" stroke="black" points="183.769,-279 183.769,-347 315.769,-347 315.769,-279 183.769,-279"/>
<text text-anchor="middle" x="249.769" y="-335" font-family="Helvetica,sans-Serif" font-size="10.00">human::FrameTransformer</text>
<polyline fill="none" stroke="black" points="183.769,-328 315.769,-328 "/>
<text text-anchor="middle" x="249.769" y="-316" font-family="Helvetica,sans-Serif" font-size="10.00"> </text>
<polyline fill="none" stroke="black" points="183.769,-309 315.769,-309 "/>
<text text-anchor="start" x="191.769" y="-297" font-family="Helvetica,sans-Serif" font-size="10.00">+ transformForceFrame()</text>
<text text-anchor="start" x="191.769" y="-286" font-family="Helvetica,sans-Serif" font-size="10.00">+ ~FrameTransformer()</text>
</a>
</g>
</g>
<!-- Node6&#45;&gt;Node2 -->
<g id="edge5" class="edge"><title>Node6&#45;&gt;Node2</title>
<path fill="none" stroke="#404040" d="M242.151,-278.814C238.584,-265.773 233.779,-250.873 227.769,-238 226.557,-235.402 225.254,-232.79 223.884,-230.182"/>
<polygon fill="none" stroke="#404040" points="223.783,-230.003 217.363,-226.72 217.924,-219.531 224.344,-222.813 223.783,-230.003"/>
<text text-anchor="middle" x="285.269" y="-246.5" font-family="Helvetica,sans-Serif" font-size="10.00"> &#45;m_frameTransformer</text>
</g>
<!-- Node7 -->
<g id="node7" class="node"><title>Node7</title>
<g id="a_node7"><a xlink:href="classyarp_1_1os_1_1_buffered_port.html" target="_top" xlink:title="{yarp::os::BufferedPort\l\&lt; yarp::sig::Vector \&gt;\n||}">
<polygon fill="none" stroke="black" points="273.269,-135 273.269,-203 386.269,-203 386.269,-135 273.269,-135"/>
<text text-anchor="start" x="281.269" y="-191" font-family="Helvetica,sans-Serif" font-size="10.00">yarp::os::BufferedPort</text>
<text text-anchor="middle" x="329.769" y="-180" font-family="Helvetica,sans-Serif" font-size="10.00">&lt; yarp::sig::Vector &gt;</text>
<polyline fill="none" stroke="black" points="273.269,-173 386.269,-173 "/>
<text text-anchor="middle" x="329.769" y="-161" font-family="Helvetica,sans-Serif" font-size="10.00"> </text>
<polyline fill="none" stroke="black" points="273.269,-154 386.269,-154 "/>
<text text-anchor="middle" x="329.769" y="-142" font-family="Helvetica,sans-Serif" font-size="10.00"> </text>
</a>
</g>
</g>
<!-- Node7&#45;&gt;Node1 -->
<g id="edge6" class="edge"><title>Node7&#45;&gt;Node1</title>
<path fill="none" stroke="#404040" d="M292.675,-134.691C273.277,-117.272 249.352,-95.7888 228.783,-77.3186"/>
<polygon fill="none" stroke="#404040" points="228.525,-77.0872 221.389,-76.0546 219.597,-69.0696 226.734,-70.1022 228.525,-77.0872"/>
<text text-anchor="middle" x="289.269" y="-91.5" font-family="Helvetica,sans-Serif" font-size="10.00"> &#45;m_bufferedPort</text>
</g>
</g>
</svg>
