<?xml version="1.0" encoding="UTF-8" standalone="no"?>
<!DOCTYPE svg PUBLIC "-//W3C//DTD SVG 1.1//EN"
 "http://www.w3.org/Graphics/SVG/1.1/DTD/svg11.dtd">
<!-- Generated by graphviz version 2.36.0 (20140111.2315)
 -->
<!-- Title: human::HumanForces Pages: 1 -->
<svg width="122pt" height="358pt"
 viewBox="0.00 0.00 122.00 358.00" xmlns="http://www.w3.org/2000/svg" xmlns:xlink="http://www.w3.org/1999/xlink">
<g id="graph0" class="graph" transform="scale(1 1) rotate(0) translate(4 354)">
<title>human::HumanForces</title>
<!-- Node1 -->
<g id="node1" class="node"><title>Node1</title>
<polygon fill="#bfbfbf" stroke="black" points="-1,-0.5 -1,-255.5 115,-255.5 115,-0.5 -1,-0.5"/>
<text text-anchor="middle" x="57" y="-243.5" font-family="Helvetica,sans-Serif" font-size="10.00">human::HumanForces</text>
<polyline fill="none" stroke="black" points="-1,-236.5 115,-236.5 "/>
<text text-anchor="start" x="7" y="-224.5" font-family="Helvetica,sans-Serif" font-size="10.00">+ forces</text>
<polyline fill="none" stroke="black" points="-1,-217.5 115,-217.5 "/>
<text text-anchor="start" x="7" y="-205.5" font-family="Helvetica,sans-Serif" font-size="10.00">+ HumanForces()</text>
<text text-anchor="start" x="7" y="-194.5" font-family="Helvetica,sans-Serif" font-size="10.00">+ HumanForces()</text>
<text text-anchor="start" x="7" y="-183.5" font-family="Helvetica,sans-Serif" font-size="10.00">+ HumanForces()</text>
<text text-anchor="start" x="7" y="-172.5" font-family="Helvetica,sans-Serif" font-size="10.00">+ operator=()</text>
<text text-anchor="start" x="7" y="-161.5" font-family="Helvetica,sans-Serif" font-size="10.00">+ read()</text>
<text text-anchor="start" x="7" y="-150.5" font-family="Helvetica,sans-Serif" font-size="10.00">+ read()</text>
<text text-anchor="start" x="7" y="-139.5" font-family="Helvetica,sans-Serif" font-size="10.00">+ write()</text>
<text text-anchor="start" x="7" y="-128.5" font-family="Helvetica,sans-Serif" font-size="10.00">+ write()</text>
<text text-anchor="start" x="7" y="-117.5" font-family="Helvetica,sans-Serif" font-size="10.00">+ toString()</text>
<text text-anchor="start" x="7" y="-106.5" font-family="Helvetica,sans-Serif" font-size="10.00">+ HumanForces()</text>
<text text-anchor="start" x="7" y="-95.5" font-family="Helvetica,sans-Serif" font-size="10.00">and 8 more...</text>
<text text-anchor="start" x="7" y="-84.5" font-family="Helvetica,sans-Serif" font-size="10.00">&#45; write_forces()</text>
<text text-anchor="start" x="7" y="-73.5" font-family="Helvetica,sans-Serif" font-size="10.00">&#45; nested_write_forces()</text>
<text text-anchor="start" x="7" y="-62.5" font-family="Helvetica,sans-Serif" font-size="10.00">&#45; read_forces()</text>
<text text-anchor="start" x="7" y="-51.5" font-family="Helvetica,sans-Serif" font-size="10.00">&#45; nested_read_forces()</text>
<text text-anchor="start" x="7" y="-40.5" font-family="Helvetica,sans-Serif" font-size="10.00">&#45; write_forces()</text>
<text text-anchor="start" x="7" y="-29.5" font-family="Helvetica,sans-Serif" font-size="10.00">&#45; nested_write_forces()</text>
<text text-anchor="start" x="7" y="-18.5" font-family="Helvetica,sans-Serif" font-size="10.00">&#45; read_forces()</text>
<text text-anchor="start" x="7" y="-7.5" font-family="Helvetica,sans-Serif" font-size="10.00">&#45; nested_read_forces()</text>
</g>
<!-- Node2 -->
<g id="node2" class="node"><title>Node2</title>
<g id="a_node2"><a xlink:href="classyarp_1_1os_1_1idl_1_1_wire_portable.html" target="_top" xlink:title="{WirePortable\n||}">
<polygon fill="none" stroke="black" points="20.5,-292.5 20.5,-349.5 93.5,-349.5 93.5,-292.5 20.5,-292.5"/>
<text text-anchor="middle" x="57" y="-337.5" font-family="Helvetica,sans-Serif" font-size="10.00">WirePortable</text>
<polyline fill="none" stroke="black" points="20.5,-330.5 93.5,-330.5 "/>
<text text-anchor="middle" x="57" y="-318.5" font-family="Helvetica,sans-Serif" font-size="10.00"> </text>
<polyline fill="none" stroke="black" points="20.5,-311.5 93.5,-311.5 "/>
<text text-anchor="middle" x="57" y="-299.5" font-family="Helvetica,sans-Serif" font-size="10.00"> </text>
</a>
</g>
</g>
<!-- Node2&#45;&gt;Node1 -->
<g id="edge1" class="edge"><title>Node2&#45;&gt;Node1</title>
<path fill="none" stroke="midnightblue" d="M51.4929,-282.196C51.0944,-274.157 50.7918,-265.246 50.5849,-255.881"/>
<polygon fill="none" stroke="midnightblue" points="48.0013,-282.445 52.0719,-292.227 54.9897,-282.042 48.0013,-282.445"/>
</g>
<!-- Node2&#45;&gt;Node1 -->
<g id="edge2" class="edge"><title>Node2&#45;&gt;Node1</title>
<path fill="none" stroke="midnightblue" d="M62.5071,-282.196C62.9056,-274.157 63.2082,-265.246 63.4151,-255.881"/>
<polygon fill="none" stroke="midnightblue" points="59.0103,-282.042 61.9281,-292.227 65.9987,-282.445 59.0103,-282.042"/>
</g>
</g>
</svg>
