<?xml version="1.0" encoding="UTF-8" standalone="no"?>
<!DOCTYPE svg PUBLIC "-//W3C//DTD SVG 1.1//EN"
 "http://www.w3.org/Graphics/SVG/1.1/DTD/svg11.dtd">
<!-- Generated by graphviz version 2.36.0 (20140111.2315)
 -->
<!-- Title: xsens::XsensDriverService_setBodyDimensions Pages: 1 -->
<svg width="263pt" height="238pt"
 viewBox="0.00 0.00 263.00 238.00" xmlns="http://www.w3.org/2000/svg" xmlns:xlink="http://www.w3.org/1999/xlink">
<g id="graph0" class="graph" transform="scale(1 1) rotate(0) translate(4 234)">
<title>xsens::XsensDriverService_setBodyDimensions</title>
<!-- Node1 -->
<g id="node1" class="node"><title>Node1</title>
<polygon fill="#bfbfbf" stroke="black" points="0,-0.5 0,-123.5 136,-123.5 136,-0.5 0,-0.5"/>
<text text-anchor="start" x="8" y="-111.5" font-family="Helvetica,sans-Serif" font-size="10.00">xsens::XsensDriverService</text>
<text text-anchor="middle" x="68" y="-100.5" font-family="Helvetica,sans-Serif" font-size="10.00">_setBodyDimensions</text>
<polyline fill="none" stroke="black" points="0,-93.5 136,-93.5 "/>
<text text-anchor="middle" x="68" y="-81.5" font-family="Helvetica,sans-Serif" font-size="10.00"> </text>
<polyline fill="none" stroke="black" points="0,-74.5 136,-74.5 "/>
<text text-anchor="start" x="8" y="-62.5" font-family="Helvetica,sans-Serif" font-size="10.00">+ init()</text>
<text text-anchor="start" x="8" y="-51.5" font-family="Helvetica,sans-Serif" font-size="10.00">+ write()</text>
<text text-anchor="start" x="8" y="-40.5" font-family="Helvetica,sans-Serif" font-size="10.00">+ read()</text>
<text text-anchor="start" x="8" y="-29.5" font-family="Helvetica,sans-Serif" font-size="10.00">+ init()</text>
<text text-anchor="start" x="8" y="-18.5" font-family="Helvetica,sans-Serif" font-size="10.00">+ write()</text>
<text text-anchor="start" x="8" y="-7.5" font-family="Helvetica,sans-Serif" font-size="10.00">+ read()</text>
</g>
<!-- Node2 -->
<g id="node2" class="node"><title>Node2</title>
<g id="a_node2"><a xlink:href="classyarp_1_1os_1_1_portable.html" target="_top" xlink:title="{Portable\n||}">
<polygon fill="none" stroke="black" points="0.5,-172.5 0.5,-229.5 53.5,-229.5 53.5,-172.5 0.5,-172.5"/>
<text text-anchor="middle" x="27" y="-217.5" font-family="Helvetica,sans-Serif" font-size="10.00">Portable</text>
<polyline fill="none" stroke="black" points="0.5,-210.5 53.5,-210.5 "/>
<text text-anchor="middle" x="27" y="-198.5" font-family="Helvetica,sans-Serif" font-size="10.00"> </text>
<polyline fill="none" stroke="black" points="0.5,-191.5 53.5,-191.5 "/>
<text text-anchor="middle" x="27" y="-179.5" font-family="Helvetica,sans-Serif" font-size="10.00"> </text>
</a>
</g>
</g>
<!-- Node2&#45;&gt;Node1 -->
<g id="edge1" class="edge"><title>Node2&#45;&gt;Node1</title>
<path fill="none" stroke="midnightblue" d="M32.2041,-162.204C35.2526,-150.223 39.1103,-136.663 43.1848,-123.501"/>
<polygon fill="none" stroke="midnightblue" points="28.7169,-161.732 29.7483,-172.276 35.5176,-163.39 28.7169,-161.732"/>
</g>
<!-- Node2&#45;&gt;Node1 -->
<g id="edge2" class="edge"><title>Node2&#45;&gt;Node1</title>
<path fill="none" stroke="midnightblue" d="M44.2934,-162.567C48.4546,-150.497 52.7612,-136.796 56.6027,-123.501"/>
<polygon fill="none" stroke="midnightblue" points="40.8937,-161.681 40.8456,-172.276 47.4902,-164.024 40.8937,-161.681"/>
</g>
<!-- Node3 -->
<g id="node3" class="node"><title>Node3</title>
<polygon fill="none" stroke="#bfbfbf" points="71.5,-172.5 71.5,-229.5 106.5,-229.5 106.5,-172.5 71.5,-172.5"/>
<text text-anchor="middle" x="89" y="-217.5" font-family="Helvetica,sans-Serif" font-size="10.00">bool</text>
<polyline fill="none" stroke="#bfbfbf" points="71.5,-210.5 106.5,-210.5 "/>
<text text-anchor="middle" x="89" y="-198.5" font-family="Helvetica,sans-Serif" font-size="10.00"> </text>
<polyline fill="none" stroke="#bfbfbf" points="71.5,-191.5 106.5,-191.5 "/>
<text text-anchor="middle" x="89" y="-179.5" font-family="Helvetica,sans-Serif" font-size="10.00"> </text>
</g>
<!-- Node3&#45;&gt;Node1 -->
<g id="edge3" class="edge"><title>Node3&#45;&gt;Node1</title>
<path fill="none" stroke="#404040" d="M84.7503,-172.276C83.0987,-161.501 81.1226,-148.609 79.1164,-135.521"/>
<polygon fill="none" stroke="#404040" points="79.0922,-135.363 74.2293,-130.038 77.2739,-123.501 82.1369,-128.826 79.0922,-135.363"/>
<text text-anchor="middle" x="102" y="-145.5" font-family="Helvetica,sans-Serif" font-size="10.00"> +_return</text>
</g>
<!-- Node4 -->
<g id="node4" class="node"><title>Node4</title>
<polygon fill="none" stroke="#bfbfbf" points="124.5,-172.5 124.5,-229.5 255.5,-229.5 255.5,-172.5 124.5,-172.5"/>
<text text-anchor="middle" x="190" y="-217.5" font-family="Helvetica,sans-Serif" font-size="10.00">map&lt; std::string, double &gt;</text>
<polyline fill="none" stroke="#bfbfbf" points="124.5,-210.5 255.5,-210.5 "/>
<text text-anchor="middle" x="190" y="-198.5" font-family="Helvetica,sans-Serif" font-size="10.00"> </text>
<polyline fill="none" stroke="#bfbfbf" points="124.5,-191.5 255.5,-191.5 "/>
<text text-anchor="middle" x="190" y="-179.5" font-family="Helvetica,sans-Serif" font-size="10.00"> </text>
</g>
<!-- Node4&#45;&gt;Node1 -->
<g id="edge4" class="edge"><title>Node4&#45;&gt;Node1</title>
<path fill="none" stroke="#404040" d="M165.311,-172.276C155.031,-160.731 142.586,-146.757 130.081,-132.714"/>
<polygon fill="none" stroke="#404040" points="129.858,-132.463 122.88,-130.642 121.877,-123.501 128.855,-125.322 129.858,-132.463"/>
<text text-anchor="middle" x="176.5" y="-145.5" font-family="Helvetica,sans-Serif" font-size="10.00"> +dimensions</text>
</g>
</g>
</svg>
