<?xml version="1.0" encoding="UTF-8" standalone="no"?>
<!DOCTYPE svg PUBLIC "-//W3C//DTD SVG 1.1//EN"
 "http://www.w3.org/Graphics/SVG/1.1/DTD/svg11.dtd">
<!-- Generated by graphviz version 2.36.0 (20140111.2315)
 -->
<!-- Title: xsens::Vector3::Editor Pages: 1 -->
<svg width="395pt" height="818pt"
 viewBox="0.00 0.00 395.00 818.00" xmlns="http://www.w3.org/2000/svg" xmlns:xlink="http://www.w3.org/1999/xlink">
<g id="graph0" class="graph" transform="scale(1 1) rotate(0) translate(4 814)">
<title>xsens::Vector3::Editor</title>
<!-- Node1 -->
<g id="node1" class="node"><title>Node1</title>
<polygon fill="#bfbfbf" stroke="black" points="28,-0.5 28,-299.5 142,-299.5 142,-0.5 28,-0.5"/>
<text text-anchor="middle" x="85" y="-287.5" font-family="Helvetica,sans-Serif" font-size="10.00">xsens::Vector3::Editor</text>
<polyline fill="none" stroke="black" points="28,-280.5 142,-280.5 "/>
<text text-anchor="middle" x="85" y="-268.5" font-family="Helvetica,sans-Serif" font-size="10.00"> </text>
<polyline fill="none" stroke="black" points="28,-261.5 142,-261.5 "/>
<text text-anchor="start" x="36" y="-249.5" font-family="Helvetica,sans-Serif" font-size="10.00">+ Editor()</text>
<text text-anchor="start" x="36" y="-238.5" font-family="Helvetica,sans-Serif" font-size="10.00">+ Editor()</text>
<text text-anchor="start" x="36" y="-227.5" font-family="Helvetica,sans-Serif" font-size="10.00">+ edit()</text>
<text text-anchor="start" x="36" y="-216.5" font-family="Helvetica,sans-Serif" font-size="10.00">+ ~Editor()</text>
<text text-anchor="start" x="36" y="-205.5" font-family="Helvetica,sans-Serif" font-size="10.00">+ isValid()</text>
<text text-anchor="start" x="36" y="-194.5" font-family="Helvetica,sans-Serif" font-size="10.00">+ state()</text>
<text text-anchor="start" x="36" y="-183.5" font-family="Helvetica,sans-Serif" font-size="10.00">+ begin()</text>
<text text-anchor="start" x="36" y="-172.5" font-family="Helvetica,sans-Serif" font-size="10.00">+ end()</text>
<text text-anchor="start" x="36" y="-161.5" font-family="Helvetica,sans-Serif" font-size="10.00">+ set_x()</text>
<text text-anchor="start" x="36" y="-150.5" font-family="Helvetica,sans-Serif" font-size="10.00">+ set_y()</text>
<text text-anchor="start" x="36" y="-139.5" font-family="Helvetica,sans-Serif" font-size="10.00">and 36 more...</text>
<text text-anchor="start" x="36" y="-128.5" font-family="Helvetica,sans-Serif" font-size="10.00">&#45; communicate()</text>
<text text-anchor="start" x="36" y="-117.5" font-family="Helvetica,sans-Serif" font-size="10.00">&#45; mark_dirty()</text>
<text text-anchor="start" x="36" y="-106.5" font-family="Helvetica,sans-Serif" font-size="10.00">&#45; mark_dirty_x()</text>
<text text-anchor="start" x="36" y="-95.5" font-family="Helvetica,sans-Serif" font-size="10.00">&#45; mark_dirty_y()</text>
<text text-anchor="start" x="36" y="-84.5" font-family="Helvetica,sans-Serif" font-size="10.00">&#45; mark_dirty_z()</text>
<text text-anchor="start" x="36" y="-73.5" font-family="Helvetica,sans-Serif" font-size="10.00">&#45; dirty_flags()</text>
<text text-anchor="start" x="36" y="-62.5" font-family="Helvetica,sans-Serif" font-size="10.00">&#45; communicate()</text>
<text text-anchor="start" x="36" y="-51.5" font-family="Helvetica,sans-Serif" font-size="10.00">&#45; mark_dirty()</text>
<text text-anchor="start" x="36" y="-40.5" font-family="Helvetica,sans-Serif" font-size="10.00">&#45; mark_dirty_x()</text>
<text text-anchor="start" x="36" y="-29.5" font-family="Helvetica,sans-Serif" font-size="10.00">&#45; mark_dirty_y()</text>
<text text-anchor="start" x="36" y="-18.5" font-family="Helvetica,sans-Serif" font-size="10.00">&#45; mark_dirty_z()</text>
<text text-anchor="start" x="36" y="-7.5" font-family="Helvetica,sans-Serif" font-size="10.00">&#45; dirty_flags()</text>
</g>
<!-- Node2 -->
<g id="node2" class="node"><title>Node2</title>
<g id="a_node2"><a xlink:href="classyarp_1_1os_1_1_wire.html" target="_top" xlink:title="{Wire\n||}">
<polygon fill="none" stroke="black" points="-0.5,-508.5 -0.5,-565.5 36.5,-565.5 36.5,-508.5 -0.5,-508.5"/>
<text text-anchor="middle" x="18" y="-553.5" font-family="Helvetica,sans-Serif" font-size="10.00">Wire</text>
<polyline fill="none" stroke="black" points="-0.5,-546.5 36.5,-546.5 "/>
<text text-anchor="middle" x="18" y="-534.5" font-family="Helvetica,sans-Serif" font-size="10.00"> </text>
<polyline fill="none" stroke="black" points="-0.5,-527.5 36.5,-527.5 "/>
<text text-anchor="middle" x="18" y="-515.5" font-family="Helvetica,sans-Serif" font-size="10.00"> </text>
</a>
</g>
</g>
<!-- Node2&#45;&gt;Node1 -->
<g id="edge1" class="edge"><title>Node2&#45;&gt;Node1</title>
<path fill="none" stroke="midnightblue" d="M20.3579,-498.205C26.2594,-452.183 39.4781,-371.678 52.5175,-299.769"/>
<polygon fill="none" stroke="midnightblue" points="16.8618,-497.959 19.1155,-508.312 23.8095,-498.814 16.8618,-497.959"/>
</g>
<!-- Node2&#45;&gt;Node1 -->
<g id="edge3" class="edge"><title>Node2&#45;&gt;Node1</title>
<path fill="none" stroke="midnightblue" d="M28.7329,-498.495C38.8511,-452.522 53.6892,-371.829 65.703,-299.769"/>
<polygon fill="none" stroke="midnightblue" points="25.3048,-497.787 26.5214,-508.312 32.1337,-499.325 25.3048,-497.787"/>
</g>
<!-- Node3 -->
<g id="node3" class="node"><title>Node3</title>
<g id="a_node3"><a xlink:href="classyarp_1_1os_1_1_port_writer.html" target="_top" xlink:title="{PortWriter\n||}">
<polygon fill="none" stroke="black" points="54.5,-508.5 54.5,-565.5 115.5,-565.5 115.5,-508.5 54.5,-508.5"/>
<text text-anchor="middle" x="85" y="-553.5" font-family="Helvetica,sans-Serif" font-size="10.00">PortWriter</text>
<polyline fill="none" stroke="black" points="54.5,-546.5 115.5,-546.5 "/>
<text text-anchor="middle" x="85" y="-534.5" font-family="Helvetica,sans-Serif" font-size="10.00"> </text>
<polyline fill="none" stroke="black" points="54.5,-527.5 115.5,-527.5 "/>
<text text-anchor="middle" x="85" y="-515.5" font-family="Helvetica,sans-Serif" font-size="10.00"> </text>
</a>
</g>
</g>
<!-- Node3&#45;&gt;Node1 -->
<g id="edge2" class="edge"><title>Node3&#45;&gt;Node1</title>
<path fill="none" stroke="midnightblue" d="M80.7806,-498.205C78.673,-452.183 77.8819,-371.678 78.4073,-299.769"/>
<polygon fill="none" stroke="midnightblue" points="77.2912,-498.503 81.2971,-508.312 84.282,-498.146 77.2912,-498.503"/>
</g>
<!-- Node3&#45;&gt;Node1 -->
<g id="edge4" class="edge"><title>Node3&#45;&gt;Node1</title>
<path fill="none" stroke="midnightblue" d="M89.2194,-498.205C91.327,-452.183 92.1181,-371.678 91.5927,-299.769"/>
<polygon fill="none" stroke="midnightblue" points="85.718,-498.146 88.7029,-508.312 92.7088,-498.503 85.718,-498.146"/>
</g>
<!-- Node4 -->
<g id="node4" class="node"><title>Node4</title>
<polygon fill="none" stroke="#bfbfbf" points="133.5,-508.5 133.5,-565.5 162.5,-565.5 162.5,-508.5 133.5,-508.5"/>
<text text-anchor="middle" x="148" y="-553.5" font-family="Helvetica,sans-Serif" font-size="10.00">int</text>
<polyline fill="none" stroke="#bfbfbf" points="133.5,-546.5 162.5,-546.5 "/>
<text text-anchor="middle" x="148" y="-534.5" font-family="Helvetica,sans-Serif" font-size="10.00"> </text>
<polyline fill="none" stroke="#bfbfbf" points="133.5,-527.5 162.5,-527.5 "/>
<text text-anchor="middle" x="148" y="-515.5" font-family="Helvetica,sans-Serif" font-size="10.00"> </text>
</g>
<!-- Node4&#45;&gt;Node1 -->
<g id="edge5" class="edge"><title>Node4&#45;&gt;Node1</title>
<path fill="none" stroke="#404040" d="M143.469,-508.312C136.707,-466.987 123.463,-386.052 111.288,-311.648"/>
<polygon fill="none" stroke="#404040" points="111.282,-311.612 106.366,-306.337 109.344,-299.769 114.261,-305.045 111.282,-311.612"/>
<text text-anchor="middle" x="147.5" y="-349" font-family="Helvetica,sans-Serif" font-size="10.00"> &#45;dirty_count</text>
<text text-anchor="middle" x="147.5" y="-338" font-family="Helvetica,sans-Serif" font-size="10.00">&#45;group</text>
</g>
<!-- Node5 -->
<g id="node5" class="node"><title>Node5</title>
<polygon fill="none" stroke="#bfbfbf" points="187.5,-508.5 187.5,-565.5 222.5,-565.5 222.5,-508.5 187.5,-508.5"/>
<text text-anchor="middle" x="205" y="-553.5" font-family="Helvetica,sans-Serif" font-size="10.00">bool</text>
<polyline fill="none" stroke="#bfbfbf" points="187.5,-546.5 222.5,-546.5 "/>
<text text-anchor="middle" x="205" y="-534.5" font-family="Helvetica,sans-Serif" font-size="10.00"> </text>
<polyline fill="none" stroke="#bfbfbf" points="187.5,-527.5 222.5,-527.5 "/>
<text text-anchor="middle" x="205" y="-515.5" font-family="Helvetica,sans-Serif" font-size="10.00"> </text>
</g>
<!-- Node5&#45;&gt;Node1 -->
<g id="edge6" class="edge"><title>Node5&#45;&gt;Node1</title>
<path fill="none" stroke="#404040" d="M205.137,-508.414C204.593,-466.307 200.537,-383.942 179,-318 171.277,-294.354 160.047,-270.276 148.018,-248.035"/>
<polygon fill="none" stroke="#404040" points="147.873,-247.772 141.467,-244.46 142.06,-237.274 148.466,-240.585 147.873,-247.772"/>
<text text-anchor="middle" x="217" y="-365.5" font-family="Helvetica,sans-Serif" font-size="10.00"> &#45;is_dirty_x</text>
<text text-anchor="middle" x="217" y="-354.5" font-family="Helvetica,sans-Serif" font-size="10.00">&#45;is_dirty</text>
<text text-anchor="middle" x="217" y="-343.5" font-family="Helvetica,sans-Serif" font-size="10.00">&#45;is_dirty_y</text>
<text text-anchor="middle" x="217" y="-332.5" font-family="Helvetica,sans-Serif" font-size="10.00">&#45;is_dirty_z</text>
<text text-anchor="middle" x="217" y="-321.5" font-family="Helvetica,sans-Serif" font-size="10.00">&#45;obj_owned</text>
</g>
<!-- Node6 -->
<g id="node6" class="node"><title>Node6</title>
<g id="a_node6"><a xlink:href="classxsens_1_1_vector3.html" target="_top" xlink:title="{xsens::Vector3\n||+ Vector3()\l+ Vector3()\l+ Vector3()\l+ operator=()\l+ read()\l+ read()\l+ write()\l+ write()\l+ toString()\l+ Vector3()\land 8 more...\l&#45; write_x()\l&#45; nested_write_x()\l&#45; write_y()\l&#45; nested_write_y()\l&#45; write_z()\l&#45; nested_write_z()\l&#45; read_x()\l&#45; nested_read_x()\l&#45; read_y()\l&#45; nested_read_y()\land 14 more...\l}">
<polygon fill="none" stroke="black" points="240.5,-393 240.5,-681 335.5,-681 335.5,-393 240.5,-393"/>
<text text-anchor="middle" x="288" y="-669" font-family="Helvetica,sans-Serif" font-size="10.00">xsens::Vector3</text>
<polyline fill="none" stroke="black" points="240.5,-662 335.5,-662 "/>
<text text-anchor="middle" x="288" y="-650" font-family="Helvetica,sans-Serif" font-size="10.00"> </text>
<polyline fill="none" stroke="black" points="240.5,-643 335.5,-643 "/>
<text text-anchor="start" x="248.5" y="-631" font-family="Helvetica,sans-Serif" font-size="10.00">+ Vector3()</text>
<text text-anchor="start" x="248.5" y="-620" font-family="Helvetica,sans-Serif" font-size="10.00">+ Vector3()</text>
<text text-anchor="start" x="248.5" y="-609" font-family="Helvetica,sans-Serif" font-size="10.00">+ Vector3()</text>
<text text-anchor="start" x="248.5" y="-598" font-family="Helvetica,sans-Serif" font-size="10.00">+ operator=()</text>
<text text-anchor="start" x="248.5" y="-587" font-family="Helvetica,sans-Serif" font-size="10.00">+ read()</text>
<text text-anchor="start" x="248.5" y="-576" font-family="Helvetica,sans-Serif" font-size="10.00">+ read()</text>
<text text-anchor="start" x="248.5" y="-565" font-family="Helvetica,sans-Serif" font-size="10.00">+ write()</text>
<text text-anchor="start" x="248.5" y="-554" font-family="Helvetica,sans-Serif" font-size="10.00">+ write()</text>
<text text-anchor="start" x="248.5" y="-543" font-family="Helvetica,sans-Serif" font-size="10.00">+ toString()</text>
<text text-anchor="start" x="248.5" y="-532" font-family="Helvetica,sans-Serif" font-size="10.00">+ Vector3()</text>
<text text-anchor="start" x="248.5" y="-521" font-family="Helvetica,sans-Serif" font-size="10.00">and 8 more...</text>
<text text-anchor="start" x="248.5" y="-510" font-family="Helvetica,sans-Serif" font-size="10.00">&#45; write_x()</text>
<text text-anchor="start" x="248.5" y="-499" font-family="Helvetica,sans-Serif" font-size="10.00">&#45; nested_write_x()</text>
<text text-anchor="start" x="248.5" y="-488" font-family="Helvetica,sans-Serif" font-size="10.00">&#45; write_y()</text>
<text text-anchor="start" x="248.5" y="-477" font-family="Helvetica,sans-Serif" font-size="10.00">&#45; nested_write_y()</text>
<text text-anchor="start" x="248.5" y="-466" font-family="Helvetica,sans-Serif" font-size="10.00">&#45; write_z()</text>
<text text-anchor="start" x="248.5" y="-455" font-family="Helvetica,sans-Serif" font-size="10.00">&#45; nested_write_z()</text>
<text text-anchor="start" x="248.5" y="-444" font-family="Helvetica,sans-Serif" font-size="10.00">&#45; read_x()</text>
<text text-anchor="start" x="248.5" y="-433" font-family="Helvetica,sans-Serif" font-size="10.00">&#45; nested_read_x()</text>
<text text-anchor="start" x="248.5" y="-422" font-family="Helvetica,sans-Serif" font-size="10.00">&#45; read_y()</text>
<text text-anchor="start" x="248.5" y="-411" font-family="Helvetica,sans-Serif" font-size="10.00">&#45; nested_read_y()</text>
<text text-anchor="start" x="248.5" y="-400" font-family="Helvetica,sans-Serif" font-size="10.00">and 14 more...</text>
</a>
</g>
</g>
<!-- Node6&#45;&gt;Node1 -->
<g id="edge7" class="edge"><title>Node6&#45;&gt;Node1</title>
<path fill="none" stroke="#404040" d="M272.645,-392.748C266.505,-366.97 257.94,-341.007 246,-318 223.108,-273.891 184.877,-233.503 151.414,-203.498"/>
<polygon fill="none" stroke="#404040" points="151.126,-203.244 143.979,-202.282 142.118,-195.315 149.265,-196.277 151.126,-203.244"/>
<text text-anchor="middle" x="275.5" y="-343.5" font-family="Helvetica,sans-Serif" font-size="10.00"> &#45;obj</text>
</g>
<!-- Node7 -->
<g id="node7" class="node"><title>Node7</title>
<g id="a_node7"><a xlink:href="classyarp_1_1os_1_1idl_1_1_wire_portable.html" target="_top" xlink:title="{WirePortable\n||}">
<polygon fill="none" stroke="black" points="251.5,-752.5 251.5,-809.5 324.5,-809.5 324.5,-752.5 251.5,-752.5"/>
<text text-anchor="middle" x="288" y="-797.5" font-family="Helvetica,sans-Serif" font-size="10.00">WirePortable</text>
<polyline fill="none" stroke="black" points="251.5,-790.5 324.5,-790.5 "/>
<text text-anchor="middle" x="288" y="-778.5" font-family="Helvetica,sans-Serif" font-size="10.00"> </text>
<polyline fill="none" stroke="black" points="251.5,-771.5 324.5,-771.5 "/>
<text text-anchor="middle" x="288" y="-759.5" font-family="Helvetica,sans-Serif" font-size="10.00"> </text>
</a>
</g>
</g>
<!-- Node7&#45;&gt;Node6 -->
<g id="edge8" class="edge"><title>Node7&#45;&gt;Node6</title>
<path fill="none" stroke="midnightblue" d="M282.936,-742.149C282.086,-725.002 281.558,-703.539 281.35,-681.024"/>
<polygon fill="none" stroke="midnightblue" points="279.447,-742.453 283.506,-752.24 286.436,-742.058 279.447,-742.453"/>
</g>
<!-- Node7&#45;&gt;Node6 -->
<g id="edge9" class="edge"><title>Node7&#45;&gt;Node6</title>
<path fill="none" stroke="midnightblue" d="M293.064,-742.149C293.914,-725.002 294.442,-703.539 294.65,-681.024"/>
<polygon fill="none" stroke="midnightblue" points="289.564,-742.058 292.494,-752.24 296.553,-742.453 289.564,-742.058"/>
</g>
<!-- Node8 -->
<g id="node8" class="node"><title>Node8</title>
<polygon fill="none" stroke="#bfbfbf" points="342.5,-752.5 342.5,-809.5 387.5,-809.5 387.5,-752.5 342.5,-752.5"/>
<text text-anchor="middle" x="365" y="-797.5" font-family="Helvetica,sans-Serif" font-size="10.00">double</text>
<polyline fill="none" stroke="#bfbfbf" points="342.5,-790.5 387.5,-790.5 "/>
<text text-anchor="middle" x="365" y="-778.5" font-family="Helvetica,sans-Serif" font-size="10.00"> </text>
<polyline fill="none" stroke="#bfbfbf" points="342.5,-771.5 387.5,-771.5 "/>
<text text-anchor="middle" x="365" y="-759.5" font-family="Helvetica,sans-Serif" font-size="10.00"> </text>
</g>
<!-- Node8&#45;&gt;Node6 -->
<g id="edge10" class="edge"><title>Node8&#45;&gt;Node6</title>
<path fill="none" stroke="#404040" d="M356.167,-752.24C351.166,-736.521 344.469,-715.475 337.222,-692.699"/>
<polygon fill="none" stroke="#404040" points="337.146,-692.459 331.515,-687.954 333.508,-681.024 339.139,-685.529 337.146,-692.459"/>
<text text-anchor="middle" x="357.5" y="-725.5" font-family="Helvetica,sans-Serif" font-size="10.00"> +x</text>
<text text-anchor="middle" x="357.5" y="-714.5" font-family="Helvetica,sans-Serif" font-size="10.00">+y</text>
<text text-anchor="middle" x="357.5" y="-703.5" font-family="Helvetica,sans-Serif" font-size="10.00">+z</text>
</g>
</g>
</svg>
