<?xml version="1.0" encoding="UTF-8" standalone="no"?>
<!DOCTYPE svg PUBLIC "-//W3C//DTD SVG 1.1//EN"
 "http://www.w3.org/Graphics/SVG/1.1/DTD/svg11.dtd">
<!-- Generated by graphviz version 2.36.0 (20140111.2315)
 -->
<!-- Title: xsens::FrameReferece::Editor Pages: 1 -->
<svg width="486pt" height="784pt"
 viewBox="0.00 0.00 486.00 784.00" xmlns="http://www.w3.org/2000/svg" xmlns:xlink="http://www.w3.org/1999/xlink">
<g id="graph0" class="graph" transform="scale(1 1) rotate(0) translate(4 780)">
<title>xsens::FrameReferece::Editor</title>
<!-- Node1 -->
<g id="node1" class="node"><title>Node1</title>
<polygon fill="#bfbfbf" stroke="black" points="10.5,-1 10.5,-289 159.5,-289 159.5,-1 10.5,-1"/>
<text text-anchor="start" x="18.5" y="-277" font-family="Helvetica,sans-Serif" font-size="10.00">xsens::FrameReferece</text>
<text text-anchor="middle" x="85" y="-266" font-family="Helvetica,sans-Serif" font-size="10.00">::Editor</text>
<polyline fill="none" stroke="black" points="10.5,-259 159.5,-259 "/>
<text text-anchor="middle" x="85" y="-247" font-family="Helvetica,sans-Serif" font-size="10.00"> </text>
<polyline fill="none" stroke="black" points="10.5,-240 159.5,-240 "/>
<text text-anchor="start" x="18.5" y="-228" font-family="Helvetica,sans-Serif" font-size="10.00">+ Editor()</text>
<text text-anchor="start" x="18.5" y="-217" font-family="Helvetica,sans-Serif" font-size="10.00">+ Editor()</text>
<text text-anchor="start" x="18.5" y="-206" font-family="Helvetica,sans-Serif" font-size="10.00">+ edit()</text>
<text text-anchor="start" x="18.5" y="-195" font-family="Helvetica,sans-Serif" font-size="10.00">+ ~Editor()</text>
<text text-anchor="start" x="18.5" y="-184" font-family="Helvetica,sans-Serif" font-size="10.00">+ isValid()</text>
<text text-anchor="start" x="18.5" y="-173" font-family="Helvetica,sans-Serif" font-size="10.00">+ state()</text>
<text text-anchor="start" x="18.5" y="-162" font-family="Helvetica,sans-Serif" font-size="10.00">+ begin()</text>
<text text-anchor="start" x="18.5" y="-151" font-family="Helvetica,sans-Serif" font-size="10.00">+ end()</text>
<text text-anchor="start" x="18.5" y="-140" font-family="Helvetica,sans-Serif" font-size="10.00">+ set_frameReference()</text>
<text text-anchor="start" x="18.5" y="-129" font-family="Helvetica,sans-Serif" font-size="10.00">+ set_frameName()</text>
<text text-anchor="start" x="18.5" y="-118" font-family="Helvetica,sans-Serif" font-size="10.00">and 28 more...</text>
<text text-anchor="start" x="18.5" y="-107" font-family="Helvetica,sans-Serif" font-size="10.00">&#45; communicate()</text>
<text text-anchor="start" x="18.5" y="-96" font-family="Helvetica,sans-Serif" font-size="10.00">&#45; mark_dirty()</text>
<text text-anchor="start" x="18.5" y="-85" font-family="Helvetica,sans-Serif" font-size="10.00">&#45; mark_dirty_frameReference()</text>
<text text-anchor="start" x="18.5" y="-74" font-family="Helvetica,sans-Serif" font-size="10.00">&#45; mark_dirty_frameName()</text>
<text text-anchor="start" x="18.5" y="-63" font-family="Helvetica,sans-Serif" font-size="10.00">&#45; dirty_flags()</text>
<text text-anchor="start" x="18.5" y="-52" font-family="Helvetica,sans-Serif" font-size="10.00">&#45; communicate()</text>
<text text-anchor="start" x="18.5" y="-41" font-family="Helvetica,sans-Serif" font-size="10.00">&#45; mark_dirty()</text>
<text text-anchor="start" x="18.5" y="-30" font-family="Helvetica,sans-Serif" font-size="10.00">&#45; mark_dirty_frameReference()</text>
<text text-anchor="start" x="18.5" y="-19" font-family="Helvetica,sans-Serif" font-size="10.00">&#45; mark_dirty_frameName()</text>
<text text-anchor="start" x="18.5" y="-8" font-family="Helvetica,sans-Serif" font-size="10.00">&#45; dirty_flags()</text>
</g>
<!-- Node2 -->
<g id="node2" class="node"><title>Node2</title>
<g id="a_node2"><a xlink:href="classyarp_1_1os_1_1_wire.html" target="_top" xlink:title="{Wire\n||}">
<polygon fill="none" stroke="black" points="-0.5,-486.5 -0.5,-543.5 36.5,-543.5 36.5,-486.5 -0.5,-486.5"/>
<text text-anchor="middle" x="18" y="-531.5" font-family="Helvetica,sans-Serif" font-size="10.00">Wire</text>
<polyline fill="none" stroke="black" points="-0.5,-524.5 36.5,-524.5 "/>
<text text-anchor="middle" x="18" y="-512.5" font-family="Helvetica,sans-Serif" font-size="10.00"> </text>
<polyline fill="none" stroke="black" points="-0.5,-505.5 36.5,-505.5 "/>
<text text-anchor="middle" x="18" y="-493.5" font-family="Helvetica,sans-Serif" font-size="10.00"> </text>
</a>
</g>
</g>
<!-- Node2&#45;&gt;Node1 -->
<g id="edge1" class="edge"><title>Node2&#45;&gt;Node1</title>
<path fill="none" stroke="midnightblue" d="M20.5581,-476.389C26.5213,-432.411 39.4799,-357.003 52.3045,-289.324"/>
<polygon fill="none" stroke="midnightblue" points="17.083,-475.972 19.2625,-486.34 24.0244,-476.876 17.083,-475.972"/>
</g>
<!-- Node2&#45;&gt;Node1 -->
<g id="edge3" class="edge"><title>Node2&#45;&gt;Node1</title>
<path fill="none" stroke="midnightblue" d="M29.1371,-476.389C39.1876,-432.411 53.6874,-357.003 65.5069,-289.324"/>
<polygon fill="none" stroke="midnightblue" points="25.6791,-475.806 26.8093,-486.34 32.4951,-477.4 25.6791,-475.806"/>
</g>
<!-- Node3 -->
<g id="node3" class="node"><title>Node3</title>
<g id="a_node3"><a xlink:href="classyarp_1_1os_1_1_port_writer.html" target="_top" xlink:title="{PortWriter\n||}">
<polygon fill="none" stroke="black" points="54.5,-486.5 54.5,-543.5 115.5,-543.5 115.5,-486.5 54.5,-486.5"/>
<text text-anchor="middle" x="85" y="-531.5" font-family="Helvetica,sans-Serif" font-size="10.00">PortWriter</text>
<polyline fill="none" stroke="black" points="54.5,-524.5 115.5,-524.5 "/>
<text text-anchor="middle" x="85" y="-512.5" font-family="Helvetica,sans-Serif" font-size="10.00"> </text>
<polyline fill="none" stroke="black" points="54.5,-505.5 115.5,-505.5 "/>
<text text-anchor="middle" x="85" y="-493.5" font-family="Helvetica,sans-Serif" font-size="10.00"> </text>
</a>
</g>
</g>
<!-- Node3&#45;&gt;Node1 -->
<g id="edge2" class="edge"><title>Node3&#45;&gt;Node1</title>
<path fill="none" stroke="midnightblue" d="M80.6976,-476.111C78.6636,-432.093 77.8973,-356.86 78.3988,-289.324"/>
<polygon fill="none" stroke="midnightblue" points="77.2148,-476.534 81.2266,-486.34 84.2054,-476.173 77.2148,-476.534"/>
</g>
<!-- Node3&#45;&gt;Node1 -->
<g id="edge4" class="edge"><title>Node3&#45;&gt;Node1</title>
<path fill="none" stroke="midnightblue" d="M89.3024,-476.111C91.3364,-432.093 92.1027,-356.86 91.6012,-289.324"/>
<polygon fill="none" stroke="midnightblue" points="85.7946,-476.173 88.7734,-486.34 92.7852,-476.534 85.7946,-476.173"/>
</g>
<!-- Node4 -->
<g id="node4" class="node"><title>Node4</title>
<g id="a_node4"><a xlink:href="classxsens_1_1_frame_referece.html" target="_top" xlink:title="{xsens::FrameReferece\n||+ FrameReferece()\l+ FrameReferece()\l+ FrameReferece()\l+ operator=()\l+ read()\l+ read()\l+ write()\l+ write()\l+ toString()\l+ FrameReferece()\land 8 more...\l&#45; write_frameReference()\l&#45; nested_write_frameReference()\l&#45; write_frameName()\l&#45; nested_write_frameName()\l&#45; read_frameReference()\l&#45; nested_read_frameReference()\l&#45; read_frameName()\l&#45; nested_read_frameName()\l&#45; write_frameReference()\l&#45; nested_write_frameReference()\land 6 more...\l}">
<polygon fill="none" stroke="black" points="133.5,-371 133.5,-659 292.5,-659 292.5,-371 133.5,-371"/>
<text text-anchor="middle" x="213" y="-647" font-family="Helvetica,sans-Serif" font-size="10.00">xsens::FrameReferece</text>
<polyline fill="none" stroke="black" points="133.5,-640 292.5,-640 "/>
<text text-anchor="middle" x="213" y="-628" font-family="Helvetica,sans-Serif" font-size="10.00"> </text>
<polyline fill="none" stroke="black" points="133.5,-621 292.5,-621 "/>
<text text-anchor="start" x="141.5" y="-609" font-family="Helvetica,sans-Serif" font-size="10.00">+ FrameReferece()</text>
<text text-anchor="start" x="141.5" y="-598" font-family="Helvetica,sans-Serif" font-size="10.00">+ FrameReferece()</text>
<text text-anchor="start" x="141.5" y="-587" font-family="Helvetica,sans-Serif" font-size="10.00">+ FrameReferece()</text>
<text text-anchor="start" x="141.5" y="-576" font-family="Helvetica,sans-Serif" font-size="10.00">+ operator=()</text>
<text text-anchor="start" x="141.5" y="-565" font-family="Helvetica,sans-Serif" font-size="10.00">+ read()</text>
<text text-anchor="start" x="141.5" y="-554" font-family="Helvetica,sans-Serif" font-size="10.00">+ read()</text>
<text text-anchor="start" x="141.5" y="-543" font-family="Helvetica,sans-Serif" font-size="10.00">+ write()</text>
<text text-anchor="start" x="141.5" y="-532" font-family="Helvetica,sans-Serif" font-size="10.00">+ write()</text>
<text text-anchor="start" x="141.5" y="-521" font-family="Helvetica,sans-Serif" font-size="10.00">+ toString()</text>
<text text-anchor="start" x="141.5" y="-510" font-family="Helvetica,sans-Serif" font-size="10.00">+ FrameReferece()</text>
<text text-anchor="start" x="141.5" y="-499" font-family="Helvetica,sans-Serif" font-size="10.00">and 8 more...</text>
<text text-anchor="start" x="141.5" y="-488" font-family="Helvetica,sans-Serif" font-size="10.00">&#45; write_frameReference()</text>
<text text-anchor="start" x="141.5" y="-477" font-family="Helvetica,sans-Serif" font-size="10.00">&#45; nested_write_frameReference()</text>
<text text-anchor="start" x="141.5" y="-466" font-family="Helvetica,sans-Serif" font-size="10.00">&#45; write_frameName()</text>
<text text-anchor="start" x="141.5" y="-455" font-family="Helvetica,sans-Serif" font-size="10.00">&#45; nested_write_frameName()</text>
<text text-anchor="start" x="141.5" y="-444" font-family="Helvetica,sans-Serif" font-size="10.00">&#45; read_frameReference()</text>
<text text-anchor="start" x="141.5" y="-433" font-family="Helvetica,sans-Serif" font-size="10.00">&#45; nested_read_frameReference()</text>
<text text-anchor="start" x="141.5" y="-422" font-family="Helvetica,sans-Serif" font-size="10.00">&#45; read_frameName()</text>
<text text-anchor="start" x="141.5" y="-411" font-family="Helvetica,sans-Serif" font-size="10.00">&#45; nested_read_frameName()</text>
<text text-anchor="start" x="141.5" y="-400" font-family="Helvetica,sans-Serif" font-size="10.00">&#45; write_frameReference()</text>
<text text-anchor="start" x="141.5" y="-389" font-family="Helvetica,sans-Serif" font-size="10.00">&#45; nested_write_frameReference()</text>
<text text-anchor="start" x="141.5" y="-378" font-family="Helvetica,sans-Serif" font-size="10.00">and 6 more...</text>
</a>
</g>
</g>
<!-- Node4&#45;&gt;Node1 -->
<g id="edge5" class="edge"><title>Node4&#45;&gt;Node1</title>
<path fill="none" stroke="#404040" d="M163.237,-370.931C155.209,-347.852 146.867,-323.868 138.75,-300.533"/>
<polygon fill="none" stroke="#404040" points="138.729,-300.47 132.98,-296.117 134.786,-289.136 140.536,-293.489 138.729,-300.47"/>
<text text-anchor="middle" x="162.5" y="-327.5" font-family="Helvetica,sans-Serif" font-size="10.00"> &#45;obj</text>
</g>
<!-- Node5 -->
<g id="node5" class="node"><title>Node5</title>
<g id="a_node5"><a xlink:href="classyarp_1_1os_1_1idl_1_1_wire_portable.html" target="_top" xlink:title="{WirePortable\n||}">
<polygon fill="none" stroke="black" points="176.5,-718.5 176.5,-775.5 249.5,-775.5 249.5,-718.5 176.5,-718.5"/>
<text text-anchor="middle" x="213" y="-763.5" font-family="Helvetica,sans-Serif" font-size="10.00">WirePortable</text>
<polyline fill="none" stroke="black" points="176.5,-756.5 249.5,-756.5 "/>
<text text-anchor="middle" x="213" y="-744.5" font-family="Helvetica,sans-Serif" font-size="10.00"> </text>
<polyline fill="none" stroke="black" points="176.5,-737.5 249.5,-737.5 "/>
<text text-anchor="middle" x="213" y="-725.5" font-family="Helvetica,sans-Serif" font-size="10.00"> </text>
</a>
</g>
</g>
<!-- Node5&#45;&gt;Node4 -->
<g id="edge6" class="edge"><title>Node5&#45;&gt;Node4</title>
<path fill="none" stroke="midnightblue" d="M207.836,-708.061C207.136,-693.958 206.668,-676.99 206.432,-659.053"/>
<polygon fill="none" stroke="midnightblue" points="204.353,-708.472 208.416,-718.257 211.342,-708.074 204.353,-708.472"/>
</g>
<!-- Node5&#45;&gt;Node4 -->
<g id="edge7" class="edge"><title>Node5&#45;&gt;Node4</title>
<path fill="none" stroke="midnightblue" d="M218.164,-708.061C218.864,-693.958 219.332,-676.99 219.568,-659.053"/>
<polygon fill="none" stroke="midnightblue" points="214.658,-708.074 217.584,-718.257 221.647,-708.472 214.658,-708.074"/>
</g>
<!-- Node6 -->
<g id="node6" class="node"><title>Node6</title>
<polygon fill="none" stroke="#bfbfbf" points="267.5,-718.5 267.5,-775.5 308.5,-775.5 308.5,-718.5 267.5,-718.5"/>
<text text-anchor="middle" x="288" y="-763.5" font-family="Helvetica,sans-Serif" font-size="10.00">string</text>
<polyline fill="none" stroke="#bfbfbf" points="267.5,-756.5 308.5,-756.5 "/>
<text text-anchor="middle" x="288" y="-744.5" font-family="Helvetica,sans-Serif" font-size="10.00"> </text>
<polyline fill="none" stroke="#bfbfbf" points="267.5,-737.5 308.5,-737.5 "/>
<text text-anchor="middle" x="288" y="-725.5" font-family="Helvetica,sans-Serif" font-size="10.00"> </text>
</g>
<!-- Node6&#45;&gt;Node4 -->
<g id="edge8" class="edge"><title>Node6&#45;&gt;Node4</title>
<path fill="none" stroke="#404040" d="M278.953,-718.257C274.711,-705.246 269.289,-688.62 263.382,-670.505"/>
<polygon fill="none" stroke="#404040" points="263.368,-670.461 257.705,-665.997 259.648,-659.053 265.311,-663.517 263.368,-670.461"/>
<text text-anchor="middle" x="311.5" y="-692" font-family="Helvetica,sans-Serif" font-size="10.00"> +frameReference</text>
<text text-anchor="middle" x="311.5" y="-681" font-family="Helvetica,sans-Serif" font-size="10.00">+frameName</text>
</g>
<!-- Node7 -->
<g id="node7" class="node"><title>Node7</title>
<polygon fill="none" stroke="#bfbfbf" points="310.5,-486.5 310.5,-543.5 339.5,-543.5 339.5,-486.5 310.5,-486.5"/>
<text text-anchor="middle" x="325" y="-531.5" font-family="Helvetica,sans-Serif" font-size="10.00">int</text>
<polyline fill="none" stroke="#bfbfbf" points="310.5,-524.5 339.5,-524.5 "/>
<text text-anchor="middle" x="325" y="-512.5" font-family="Helvetica,sans-Serif" font-size="10.00"> </text>
<polyline fill="none" stroke="#bfbfbf" points="310.5,-505.5 339.5,-505.5 "/>
<text text-anchor="middle" x="325" y="-493.5" font-family="Helvetica,sans-Serif" font-size="10.00"> </text>
</g>
<!-- Node7&#45;&gt;Node1 -->
<g id="edge9" class="edge"><title>Node7&#45;&gt;Node1</title>
<path fill="none" stroke="#404040" d="M325.176,-486.236C324.306,-456.082 319.74,-407.243 301,-370 269.698,-307.791 215.152,-251.436 168.708,-210.812"/>
<polygon fill="none" stroke="#404040" points="168.622,-210.739 161.467,-209.848 159.536,-202.9 166.692,-203.791 168.622,-210.739"/>
<text text-anchor="middle" x="316.5" y="-333" font-family="Helvetica,sans-Serif" font-size="10.00"> &#45;dirty_count</text>
<text text-anchor="middle" x="316.5" y="-322" font-family="Helvetica,sans-Serif" font-size="10.00">&#45;group</text>
</g>
<!-- Node8 -->
<g id="node8" class="node"><title>Node8</title>
<polygon fill="none" stroke="#bfbfbf" points="371.5,-486.5 371.5,-543.5 406.5,-543.5 406.5,-486.5 371.5,-486.5"/>
<text text-anchor="middle" x="389" y="-531.5" font-family="Helvetica,sans-Serif" font-size="10.00">bool</text>
<polyline fill="none" stroke="#bfbfbf" points="371.5,-524.5 406.5,-524.5 "/>
<text text-anchor="middle" x="389" y="-512.5" font-family="Helvetica,sans-Serif" font-size="10.00"> </text>
<polyline fill="none" stroke="#bfbfbf" points="371.5,-505.5 406.5,-505.5 "/>
<text text-anchor="middle" x="389" y="-493.5" font-family="Helvetica,sans-Serif" font-size="10.00"> </text>
</g>
<!-- Node8&#45;&gt;Node1 -->
<g id="edge10" class="edge"><title>Node8&#45;&gt;Node1</title>
<path fill="none" stroke="#404040" d="M390.197,-486.32C390.653,-444.066 385.992,-362.639 348,-308 304.93,-246.059 229.772,-203.273 170.801,-177.295"/>
<polygon fill="none" stroke="#404040" points="170.636,-177.224 163.544,-178.527 159.614,-172.481 166.706,-171.178 170.636,-177.224"/>
<text text-anchor="middle" x="423" y="-344" font-family="Helvetica,sans-Serif" font-size="10.00"> &#45;is_dirty_frameName</text>
<text text-anchor="middle" x="423" y="-333" font-family="Helvetica,sans-Serif" font-size="10.00">&#45;is_dirty_frameReference</text>
<text text-anchor="middle" x="423" y="-322" font-family="Helvetica,sans-Serif" font-size="10.00">&#45;is_dirty</text>
<text text-anchor="middle" x="423" y="-311" font-family="Helvetica,sans-Serif" font-size="10.00">&#45;obj_owned</text>
</g>
</g>
</svg>
