<?xml version="1.0" encoding="UTF-8" standalone="no"?>
<!DOCTYPE svg PUBLIC "-//W3C//DTD SVG 1.1//EN"
 "http://www.w3.org/Graphics/SVG/1.1/DTD/svg11.dtd">
<!-- Generated by graphviz version 2.36.0 (20140111.2315)
 -->
<!-- Title: human::InverseKinematics Pages: 1 -->
<svg width="707pt" height="510pt"
 viewBox="0.00 0.00 707.00 510.00" xmlns="http://www.w3.org/2000/svg" xmlns:xlink="http://www.w3.org/1999/xlink">
<g id="graph0" class="graph" transform="scale(1 1) rotate(0) translate(4 506)">
<title>human::InverseKinematics</title>
<!-- Node1 -->
<g id="node1" class="node"><title>Node1</title>
<polygon fill="#bfbfbf" stroke="black" points="329,-0.5 329,-189.5 473,-189.5 473,-0.5 329,-0.5"/>
<text text-anchor="middle" x="401" y="-177.5" font-family="Helvetica,sans-Serif" font-size="10.00">human::InverseKinematics</text>
<polyline fill="none" stroke="black" points="329,-170.5 473,-170.5 "/>
<text text-anchor="middle" x="401" y="-158.5" font-family="Helvetica,sans-Serif" font-size="10.00"> </text>
<polyline fill="none" stroke="black" points="329,-151.5 473,-151.5 "/>
<text text-anchor="start" x="337" y="-139.5" font-family="Helvetica,sans-Serif" font-size="10.00">+ InverseKinematics()</text>
<text text-anchor="start" x="337" y="-128.5" font-family="Helvetica,sans-Serif" font-size="10.00">+ InverseKinematics()</text>
<text text-anchor="start" x="337" y="-117.5" font-family="Helvetica,sans-Serif" font-size="10.00">+ ~InverseKinematics()</text>
<text text-anchor="start" x="337" y="-106.5" font-family="Helvetica,sans-Serif" font-size="10.00">+ setModelfromURDF()</text>
<text text-anchor="start" x="337" y="-95.5" font-family="Helvetica,sans-Serif" font-size="10.00">+ setModelfromURDF()</text>
<text text-anchor="start" x="337" y="-84.5" font-family="Helvetica,sans-Serif" font-size="10.00">+ setModel()</text>
<text text-anchor="start" x="337" y="-73.5" font-family="Helvetica,sans-Serif" font-size="10.00">+ setWeights()</text>
<text text-anchor="start" x="337" y="-62.5" font-family="Helvetica,sans-Serif" font-size="10.00">+ setDesiredPosition()</text>
<text text-anchor="start" x="337" y="-51.5" font-family="Helvetica,sans-Serif" font-size="10.00">+ setDesiredQuaternion()</text>
<text text-anchor="start" x="337" y="-40.5" font-family="Helvetica,sans-Serif" font-size="10.00">+ setDesiredTransformation()</text>
<text text-anchor="start" x="337" y="-29.5" font-family="Helvetica,sans-Serif" font-size="10.00">and 15 more...</text>
<text text-anchor="start" x="337" y="-18.5" font-family="Helvetica,sans-Serif" font-size="10.00">&#45; InverseKinematics()</text>
<text text-anchor="start" x="337" y="-7.5" font-family="Helvetica,sans-Serif" font-size="10.00">&#45; operator=()</text>
</g>
<!-- Node2 -->
<g id="node2" class="node"><title>Node2</title>
<g id="a_node2"><a xlink:href="classhuman_1_1_inverse_kinematics_1_1_inverse_kinematics_private.html" target="_top" xlink:title="{human::InverseKinematics\l::InverseKinematicsPrivate\n||+ InverseKinematicsPrivate()\l+ update()\l+ getReducedModel()\l+ getFrameIndeces()\l+ removeUnsupportedJoints()\l+ autoSelectJointsFromTraversal()\l}">
<polygon fill="none" stroke="black" points="317.5,-238.5 317.5,-361.5 484.5,-361.5 484.5,-238.5 317.5,-238.5"/>
<text text-anchor="start" x="325.5" y="-349.5" font-family="Helvetica,sans-Serif" font-size="10.00">human::InverseKinematics</text>
<text text-anchor="middle" x="401" y="-338.5" font-family="Helvetica,sans-Serif" font-size="10.00">::InverseKinematicsPrivate</text>
<polyline fill="none" stroke="black" points="317.5,-331.5 484.5,-331.5 "/>
<text text-anchor="middle" x="401" y="-319.5" font-family="Helvetica,sans-Serif" font-size="10.00"> </text>
<polyline fill="none" stroke="black" points="317.5,-312.5 484.5,-312.5 "/>
<text text-anchor="start" x="325.5" y="-300.5" font-family="Helvetica,sans-Serif" font-size="10.00">+ InverseKinematicsPrivate()</text>
<text text-anchor="start" x="325.5" y="-289.5" font-family="Helvetica,sans-Serif" font-size="10.00">+ update()</text>
<text text-anchor="start" x="325.5" y="-278.5" font-family="Helvetica,sans-Serif" font-size="10.00">+ getReducedModel()</text>
<text text-anchor="start" x="325.5" y="-267.5" font-family="Helvetica,sans-Serif" font-size="10.00">+ getFrameIndeces()</text>
<text text-anchor="start" x="325.5" y="-256.5" font-family="Helvetica,sans-Serif" font-size="10.00">+ removeUnsupportedJoints()</text>
<text text-anchor="start" x="325.5" y="-245.5" font-family="Helvetica,sans-Serif" font-size="10.00">+ autoSelectJointsFromTraversal()</text>
</a>
</g>
</g>
<!-- Node2&#45;&gt;Node1 -->
<g id="edge1" class="edge"><title>Node2&#45;&gt;Node1</title>
<path fill="none" stroke="#404040" d="M401,-238.368C401,-226.77 401,-214.317 401,-201.777"/>
<polygon fill="none" stroke="#404040" points="401,-201.753 397,-195.753 401,-189.753 405,-195.753 401,-201.753"/>
<text text-anchor="middle" x="422.5" y="-211.5" font-family="Helvetica,sans-Serif" font-size="10.00"> &#45;m_pimpl</text>
</g>
<!-- Node3 -->
<g id="node3" class="node"><title>Node3</title>
<polygon fill="none" stroke="#bfbfbf" points="0,-433 0,-501 146,-501 146,-433 0,-433"/>
<text text-anchor="start" x="8" y="-489" font-family="Helvetica,sans-Serif" font-size="10.00">SmartPtr&lt; InverseKinematics</text>
<text text-anchor="middle" x="73" y="-478" font-family="Helvetica,sans-Serif" font-size="10.00">V2IPOPT &gt;</text>
<polyline fill="none" stroke="#bfbfbf" points="0,-471 146,-471 "/>
<text text-anchor="middle" x="73" y="-459" font-family="Helvetica,sans-Serif" font-size="10.00"> </text>
<polyline fill="none" stroke="#bfbfbf" points="0,-452 146,-452 "/>
<text text-anchor="middle" x="73" y="-440" font-family="Helvetica,sans-Serif" font-size="10.00"> </text>
</g>
<!-- Node3&#45;&gt;Node2 -->
<g id="edge2" class="edge"><title>Node3&#45;&gt;Node2</title>
<path fill="none" stroke="#404040" d="M122.796,-432.836C149.067,-416.006 182.168,-395.83 213,-380 242.603,-364.801 275.811,-350.113 305.987,-337.61"/>
<polygon fill="none" stroke="#404040" points="306.288,-337.487 310.32,-331.508 317.389,-332.929 313.358,-338.908 306.288,-337.487"/>
<text text-anchor="middle" x="246.5" y="-394.5" font-family="Helvetica,sans-Serif" font-size="10.00"> +solverPointer</text>
</g>
<!-- Node4 -->
<g id="node4" class="node"><title>Node4</title>
<polygon fill="none" stroke="#bfbfbf" points="164.5,-438.5 164.5,-495.5 335.5,-495.5 335.5,-438.5 164.5,-438.5"/>
<text text-anchor="middle" x="250" y="-483.5" font-family="Helvetica,sans-Serif" font-size="10.00">SmartPtr&lt; Ipopt::IpoptApplication &gt;</text>
<polyline fill="none" stroke="#bfbfbf" points="164.5,-476.5 335.5,-476.5 "/>
<text text-anchor="middle" x="250" y="-464.5" font-family="Helvetica,sans-Serif" font-size="10.00"> </text>
<polyline fill="none" stroke="#bfbfbf" points="164.5,-457.5 335.5,-457.5 "/>
<text text-anchor="middle" x="250" y="-445.5" font-family="Helvetica,sans-Serif" font-size="10.00"> </text>
</g>
<!-- Node4&#45;&gt;Node2 -->
<g id="edge3" class="edge"><title>Node4&#45;&gt;Node2</title>
<path fill="none" stroke="#404040" d="M267.166,-438.434C278.632,-420.927 294.576,-398.218 311,-380 313.958,-376.719 317.046,-373.438 320.22,-370.18"/>
<polygon fill="none" stroke="#404040" points="320.301,-370.099 321.725,-363.029 328.798,-361.625 327.374,-368.694 320.301,-370.099"/>
<text text-anchor="middle" x="329" y="-394.5" font-family="Helvetica,sans-Serif" font-size="10.00"> +loader</text>
</g>
<!-- Node5 -->
<g id="node5" class="node"><title>Node5</title>
<polygon fill="none" stroke="#bfbfbf" points="353.5,-438.5 353.5,-495.5 394.5,-495.5 394.5,-438.5 353.5,-438.5"/>
<text text-anchor="middle" x="374" y="-483.5" font-family="Helvetica,sans-Serif" font-size="10.00">string</text>
<polyline fill="none" stroke="#bfbfbf" points="353.5,-476.5 394.5,-476.5 "/>
<text text-anchor="middle" x="374" y="-464.5" font-family="Helvetica,sans-Serif" font-size="10.00"> </text>
<polyline fill="none" stroke="#bfbfbf" points="353.5,-457.5 394.5,-457.5 "/>
<text text-anchor="middle" x="374" y="-445.5" font-family="Helvetica,sans-Serif" font-size="10.00"> </text>
</g>
<!-- Node5&#45;&gt;Node2 -->
<g id="edge4" class="edge"><title>Node5&#45;&gt;Node2</title>
<path fill="none" stroke="#404040" d="M359.986,-438.379C353.198,-421.453 347.572,-399.388 353,-380 353.676,-377.585 354.448,-375.171 355.303,-372.766"/>
<polygon fill="none" stroke="#404040" points="355.319,-372.727 353.878,-365.662 359.846,-361.614 361.287,-368.68 355.319,-372.727"/>
<text text-anchor="middle" x="391" y="-405.5" font-family="Helvetica,sans-Serif" font-size="10.00"> +m_solverName</text>
<text text-anchor="middle" x="391" y="-394.5" font-family="Helvetica,sans-Serif" font-size="10.00">+_parentFrame</text>
<text text-anchor="middle" x="391" y="-383.5" font-family="Helvetica,sans-Serif" font-size="10.00">+_targetFrame</text>
</g>
<!-- Node6 -->
<g id="node6" class="node"><title>Node6</title>
<polygon fill="none" stroke="#bfbfbf" points="433.5,-438.5 433.5,-495.5 468.5,-495.5 468.5,-438.5 433.5,-438.5"/>
<text text-anchor="middle" x="451" y="-483.5" font-family="Helvetica,sans-Serif" font-size="10.00">bool</text>
<polyline fill="none" stroke="#bfbfbf" points="433.5,-476.5 468.5,-476.5 "/>
<text text-anchor="middle" x="451" y="-464.5" font-family="Helvetica,sans-Serif" font-size="10.00"> </text>
<polyline fill="none" stroke="#bfbfbf" points="433.5,-457.5 468.5,-457.5 "/>
<text text-anchor="middle" x="451" y="-445.5" font-family="Helvetica,sans-Serif" font-size="10.00"> </text>
</g>
<!-- Node6&#45;&gt;Node2 -->
<g id="edge5" class="edge"><title>Node6&#45;&gt;Node2</title>
<path fill="none" stroke="#404040" d="M444.592,-438.326C440.503,-421.381 434.88,-399.314 429,-380 428.317,-377.755 427.608,-375.48 426.881,-373.187"/>
<polygon fill="none" stroke="#404040" points="426.833,-373.039 421.169,-368.575 423.111,-361.631 428.774,-366.094 426.833,-373.039"/>
<text text-anchor="middle" x="480" y="-405.5" font-family="Helvetica,sans-Serif" font-size="10.00"> +initialized</text>
<text text-anchor="middle" x="480" y="-394.5" font-family="Helvetica,sans-Serif" font-size="10.00">+updated</text>
<text text-anchor="middle" x="480" y="-383.5" font-family="Helvetica,sans-Serif" font-size="10.00">+alreadyOptimized</text>
</g>
<!-- Node7 -->
<g id="node7" class="node"><title>Node7</title>
<polygon fill="none" stroke="#bfbfbf" points="528,-438.5 528,-495.5 584,-495.5 584,-438.5 528,-438.5"/>
<text text-anchor="middle" x="556" y="-483.5" font-family="Helvetica,sans-Serif" font-size="10.00">unsigned</text>
<polyline fill="none" stroke="#bfbfbf" points="528,-476.5 584,-476.5 "/>
<text text-anchor="middle" x="556" y="-464.5" font-family="Helvetica,sans-Serif" font-size="10.00"> </text>
<polyline fill="none" stroke="#bfbfbf" points="528,-457.5 584,-457.5 "/>
<text text-anchor="middle" x="556" y="-445.5" font-family="Helvetica,sans-Serif" font-size="10.00"> </text>
</g>
<!-- Node7&#45;&gt;Node2 -->
<g id="edge6" class="edge"><title>Node7&#45;&gt;Node2</title>
<path fill="none" stroke="#404040" d="M550.84,-438.136C546.39,-420.073 538.484,-396.854 525,-380 516.28,-369.1 505.626,-359.251 494.264,-350.503"/>
<polygon fill="none" stroke="#404040" points="494.262,-350.502 487.058,-350.186 484.579,-343.414 491.783,-343.73 494.262,-350.502"/>
<text text-anchor="middle" x="578" y="-400" font-family="Helvetica,sans-Serif" font-size="10.00"> +maxIterations</text>
<text text-anchor="middle" x="578" y="-389" font-family="Helvetica,sans-Serif" font-size="10.00">+verbosityLevel</text>
</g>
<!-- Node8 -->
<g id="node8" class="node"><title>Node8</title>
<polygon fill="none" stroke="#bfbfbf" points="607.5,-438.5 607.5,-495.5 690.5,-495.5 690.5,-438.5 607.5,-438.5"/>
<text text-anchor="middle" x="649" y="-483.5" font-family="Helvetica,sans-Serif" font-size="10.00">VectorDynSize</text>
<polyline fill="none" stroke="#bfbfbf" points="607.5,-476.5 690.5,-476.5 "/>
<text text-anchor="middle" x="649" y="-464.5" font-family="Helvetica,sans-Serif" font-size="10.00"> </text>
<polyline fill="none" stroke="#bfbfbf" points="607.5,-457.5 690.5,-457.5 "/>
<text text-anchor="middle" x="649" y="-445.5" font-family="Helvetica,sans-Serif" font-size="10.00"> </text>
</g>
<!-- Node8&#45;&gt;Node2 -->
<g id="edge7" class="edge"><title>Node8&#45;&gt;Node2</title>
<path fill="none" stroke="#404040" d="M644.897,-438.314C640.786,-419.626 632.702,-395.614 617,-380 584.655,-347.835 538.163,-328.645 496.591,-317.256"/>
<polygon fill="none" stroke="#404040" points="496.343,-317.191 489.53,-319.555 484.728,-314.176 491.541,-311.812 496.343,-317.191"/>
<text text-anchor="middle" x="668.5" y="-400" font-family="Helvetica,sans-Serif" font-size="10.00"> +lastSolution</text>
<text text-anchor="middle" x="668.5" y="-389" font-family="Helvetica,sans-Serif" font-size="10.00">+tempGuess</text>
</g>
</g>
</svg>
