<?xml version="1.0" encoding="UTF-8" standalone="no"?>
<!DOCTYPE svg PUBLIC "-//W3C//DTD SVG 1.1//EN"
 "http://www.w3.org/Graphics/SVG/1.1/DTD/svg11.dtd">
<!-- Generated by graphviz version 2.36.0 (20140111.2315)
 -->
<!-- Title: human::FTForceReader Pages: 1 -->
<svg width="152pt" height="366pt"
 viewBox="0.00 0.00 152.00 366.00" xmlns="http://www.w3.org/2000/svg" xmlns:xlink="http://www.w3.org/1999/xlink">
<g id="graph0" class="graph" transform="scale(1 1) rotate(0) translate(4 362)">
<title>human::FTForceReader</title>
<!-- Node1 -->
<g id="node1" class="node"><title>Node1</title>
<polygon fill="#bfbfbf" stroke="black" points="12,-1 12,-69 132,-69 132,-1 12,-1"/>
<text text-anchor="middle" x="72" y="-57" font-family="Helvetica,sans-Serif" font-size="10.00">human::FTForceReader</text>
<polyline fill="none" stroke="black" points="12,-50 132,-50 "/>
<text text-anchor="start" x="20" y="-38" font-family="Helvetica,sans-Serif" font-size="10.00">&#45; m_sensor</text>
<polyline fill="none" stroke="black" points="12,-31 132,-31 "/>
<text text-anchor="start" x="20" y="-19" font-family="Helvetica,sans-Serif" font-size="10.00">+ FTForceReader()</text>
<text text-anchor="start" x="20" y="-8" font-family="Helvetica,sans-Serif" font-size="10.00"># lowLevelRead()</text>
</g>
<!-- Node2 -->
<g id="node2" class="node"><title>Node2</title>
<g id="a_node2"><a xlink:href="classhuman_1_1_abstract_force_reader.html" target="_top" xlink:title="Abstract class for implementing code required from its derived classes. ">
<polygon fill="none" stroke="black" points="-0.5,-106.5 -0.5,-251.5 144.5,-251.5 144.5,-106.5 -0.5,-106.5"/>
<text text-anchor="middle" x="72" y="-239.5" font-family="Helvetica,sans-Serif" font-size="10.00">human::AbstractForceReader</text>
<polyline fill="none" stroke="black" points="-0.5,-232.5 144.5,-232.5 "/>
<text text-anchor="start" x="7.5" y="-220.5" font-family="Helvetica,sans-Serif" font-size="10.00">&#45; m_frameTransformer</text>
<text text-anchor="start" x="7.5" y="-209.5" font-family="Helvetica,sans-Serif" font-size="10.00">&#45; m_attachedLink</text>
<text text-anchor="start" x="7.5" y="-198.5" font-family="Helvetica,sans-Serif" font-size="10.00">&#45; m_referenceFrame</text>
<text text-anchor="start" x="7.5" y="-187.5" font-family="Helvetica,sans-Serif" font-size="10.00">&#45; m_packedForce</text>
<text text-anchor="start" x="7.5" y="-176.5" font-family="Helvetica,sans-Serif" font-size="10.00">&#45; m_forceBuffer</text>
<polyline fill="none" stroke="black" points="-0.5,-169.5 144.5,-169.5 "/>
<text text-anchor="start" x="7.5" y="-157.5" font-family="Helvetica,sans-Serif" font-size="10.00">+ AbstractForceReader()</text>
<text text-anchor="start" x="7.5" y="-146.5" font-family="Helvetica,sans-Serif" font-size="10.00">+ setTransformer()</text>
<text text-anchor="start" x="7.5" y="-135.5" font-family="Helvetica,sans-Serif" font-size="10.00">+ getTransformer()</text>
<text text-anchor="start" x="7.5" y="-124.5" font-family="Helvetica,sans-Serif" font-size="10.00">+ readForce()</text>
<text text-anchor="start" x="7.5" y="-113.5" font-family="Helvetica,sans-Serif" font-size="10.00"># lowLevelRead()</text>
</a>
</g>
</g>
<!-- Node2&#45;&gt;Node1 -->
<g id="edge1" class="edge"><title>Node2&#45;&gt;Node1</title>
<path fill="none" stroke="midnightblue" d="M72,-95.9023C72,-86.5083 72,-77.3801 72,-69.1974"/>
<polygon fill="none" stroke="midnightblue" points="68.5001,-96.168 72,-106.168 75.5001,-96.168 68.5001,-96.168"/>
</g>
<!-- Node3 -->
<g id="node3" class="node"><title>Node3</title>
<g id="a_node3"><a xlink:href="classhuman_1_1_force_reader.html" target="_top" xlink:title="Interface for reading forces from device and sensors. ">
<polygon fill="none" stroke="black" points="18,-289 18,-357 126,-357 126,-289 18,-289"/>
<text text-anchor="middle" x="72" y="-345" font-family="Helvetica,sans-Serif" font-size="10.00">human::ForceReader</text>
<polyline fill="none" stroke="black" points="18,-338 126,-338 "/>
<text text-anchor="middle" x="72" y="-326" font-family="Helvetica,sans-Serif" font-size="10.00"> </text>
<polyline fill="none" stroke="black" points="18,-319 126,-319 "/>
<text text-anchor="start" x="26" y="-307" font-family="Helvetica,sans-Serif" font-size="10.00">+ readForce()</text>
<text text-anchor="start" x="26" y="-296" font-family="Helvetica,sans-Serif" font-size="10.00">+ ~ForceReader()</text>
</a>
</g>
</g>
<!-- Node3&#45;&gt;Node2 -->
<g id="edge2" class="edge"><title>Node3&#45;&gt;Node2</title>
<path fill="none" stroke="midnightblue" d="M72,-278.643C72,-270.101 72,-260.926 72,-251.735"/>
<polygon fill="none" stroke="midnightblue" points="68.5001,-278.707 72,-288.707 75.5001,-278.707 68.5001,-278.707"/>
</g>
</g>
</svg>
