<?xml version="1.0" encoding="UTF-8" standalone="no"?>
<!DOCTYPE svg PUBLIC "-//W3C//DTD SVG 1.1//EN"
 "http://www.w3.org/Graphics/SVG/1.1/DTD/svg11.dtd">
<!-- Generated by graphviz version 2.36.0 (20140111.2315)
 -->
<!-- Title: human::GenericFrameTransformer Pages: 1 -->
<svg width="438pt" height="250pt"
 viewBox="0.00 0.00 438.00 250.00" xmlns="http://www.w3.org/2000/svg" xmlns:xlink="http://www.w3.org/1999/xlink">
<g id="graph0" class="graph" transform="scale(1 1) rotate(0) translate(4 246)">
<title>human::GenericFrameTransformer</title>
<!-- Node1 -->
<g id="node1" class="node"><title>Node1</title>
<polygon fill="#bfbfbf" stroke="black" points="98,-1 98,-113 264,-113 264,-1 98,-1"/>
<text text-anchor="middle" x="181" y="-101" font-family="Helvetica,sans-Serif" font-size="10.00">human::GenericFrameTransformer</text>
<polyline fill="none" stroke="black" points="98,-94 264,-94 "/>
<text text-anchor="middle" x="181" y="-82" font-family="Helvetica,sans-Serif" font-size="10.00"> </text>
<polyline fill="none" stroke="black" points="98,-75 264,-75 "/>
<text text-anchor="start" x="106" y="-63" font-family="Helvetica,sans-Serif" font-size="10.00">+ GenericFrameTransformer()</text>
<text text-anchor="start" x="106" y="-52" font-family="Helvetica,sans-Serif" font-size="10.00">+ getOriginFrame()</text>
<text text-anchor="start" x="106" y="-41" font-family="Helvetica,sans-Serif" font-size="10.00">+ getTransformedFrame()</text>
<text text-anchor="start" x="106" y="-30" font-family="Helvetica,sans-Serif" font-size="10.00">+ setTransform()</text>
<text text-anchor="start" x="106" y="-19" font-family="Helvetica,sans-Serif" font-size="10.00">+ getTransform()</text>
<text text-anchor="start" x="106" y="-8" font-family="Helvetica,sans-Serif" font-size="10.00">+ transformForceFrame()</text>
</g>
<!-- Node2 -->
<g id="node2" class="node"><title>Node2</title>
<g id="a_node2"><a xlink:href="classhuman_1_1_frame_transformer.html" target="_top" xlink:title="Interface for transforming forces into human frames. In general, given two generic frames A and B...">
<polygon fill="none" stroke="black" points="0,-173 0,-241 132,-241 132,-173 0,-173"/>
<text text-anchor="middle" x="66" y="-229" font-family="Helvetica,sans-Serif" font-size="10.00">human::FrameTransformer</text>
<polyline fill="none" stroke="black" points="0,-222 132,-222 "/>
<text text-anchor="middle" x="66" y="-210" font-family="Helvetica,sans-Serif" font-size="10.00"> </text>
<polyline fill="none" stroke="black" points="0,-203 132,-203 "/>
<text text-anchor="start" x="8" y="-191" font-family="Helvetica,sans-Serif" font-size="10.00">+ transformForceFrame()</text>
<text text-anchor="start" x="8" y="-180" font-family="Helvetica,sans-Serif" font-size="10.00">+ ~FrameTransformer()</text>
</a>
</g>
</g>
<!-- Node2&#45;&gt;Node1 -->
<g id="edge1" class="edge"><title>Node2&#45;&gt;Node1</title>
<path fill="none" stroke="midnightblue" d="M98.0956,-164.694C110.494,-148.739 124.864,-130.244 138.123,-113.18"/>
<polygon fill="none" stroke="midnightblue" points="95.1802,-162.742 91.8082,-172.786 100.708,-167.037 95.1802,-162.742"/>
</g>
<!-- Node3 -->
<g id="node3" class="node"><title>Node3</title>
<polygon fill="none" stroke="#bfbfbf" points="150.5,-178.5 150.5,-235.5 211.5,-235.5 211.5,-178.5 150.5,-178.5"/>
<text text-anchor="middle" x="181" y="-223.5" font-family="Helvetica,sans-Serif" font-size="10.00">Transform</text>
<polyline fill="none" stroke="#bfbfbf" points="150.5,-216.5 211.5,-216.5 "/>
<text text-anchor="middle" x="181" y="-204.5" font-family="Helvetica,sans-Serif" font-size="10.00"> </text>
<polyline fill="none" stroke="#bfbfbf" points="150.5,-197.5 211.5,-197.5 "/>
<text text-anchor="middle" x="181" y="-185.5" font-family="Helvetica,sans-Serif" font-size="10.00"> </text>
</g>
<!-- Node3&#45;&gt;Node1 -->
<g id="edge2" class="edge"><title>Node3&#45;&gt;Node1</title>
<path fill="none" stroke="#404040" d="M181,-178.162C181,-163.188 181,-144.015 181,-125.404"/>
<polygon fill="none" stroke="#404040" points="181,-125.304 177,-119.304 181,-113.304 185,-119.304 181,-125.304"/>
<text text-anchor="middle" x="226.5" y="-140.5" font-family="Helvetica,sans-Serif" font-size="10.00"> &#45;m_matrixTransform</text>
</g>
<!-- Node4 -->
<g id="node4" class="node"><title>Node4</title>
<polygon fill="none" stroke="#bfbfbf" points="274.5,-178.5 274.5,-235.5 315.5,-235.5 315.5,-178.5 274.5,-178.5"/>
<text text-anchor="middle" x="295" y="-223.5" font-family="Helvetica,sans-Serif" font-size="10.00">string</text>
<polyline fill="none" stroke="#bfbfbf" points="274.5,-216.5 315.5,-216.5 "/>
<text text-anchor="middle" x="295" y="-204.5" font-family="Helvetica,sans-Serif" font-size="10.00"> </text>
<polyline fill="none" stroke="#bfbfbf" points="274.5,-197.5 315.5,-197.5 "/>
<text text-anchor="middle" x="295" y="-185.5" font-family="Helvetica,sans-Serif" font-size="10.00"> </text>
</g>
<!-- Node4&#45;&gt;Node1 -->
<g id="edge3" class="edge"><title>Node4&#45;&gt;Node1</title>
<path fill="none" stroke="#404040" d="M290.873,-178.272C287.714,-163.592 282.263,-145.799 273,-132 270.772,-128.681 268.35,-125.439 265.776,-122.28"/>
<polygon fill="none" stroke="#404040" points="265.582,-122.06 258.612,-120.209 257.641,-113.064 264.61,-114.915 265.582,-122.06"/>
<text text-anchor="middle" x="357" y="-146" font-family="Helvetica,sans-Serif" font-size="10.00"> &#45;m_transformedExpressedFrame</text>
<text text-anchor="middle" x="357" y="-135" font-family="Helvetica,sans-Serif" font-size="10.00">&#45;m_originExpressedFrame</text>
</g>
</g>
</svg>
