<?xml version="1.0" encoding="UTF-8" standalone="no"?>
<!DOCTYPE svg PUBLIC "-//W3C//DTD SVG 1.1//EN"
 "http://www.w3.org/Graphics/SVG/1.1/DTD/svg11.dtd">
<!-- Generated by graphviz version 2.36.0 (20140111.2315)
 -->
<!-- Title: msgs_String Pages: 1 -->
<svg width="146pt" height="282pt"
 viewBox="0.00 0.00 146.00 282.00" xmlns="http://www.w3.org/2000/svg" xmlns:xlink="http://www.w3.org/1999/xlink">
<g id="graph0" class="graph" transform="scale(1 1) rotate(0) translate(4 278)">
<title>msgs_String</title>
<!-- Node1 -->
<g id="node1" class="node"><title>Node1</title>
<polygon fill="#bfbfbf" stroke="black" points="0,-0.5 0,-167.5 86,-167.5 86,-0.5 0,-0.5"/>
<text text-anchor="middle" x="43" y="-155.5" font-family="Helvetica,sans-Serif" font-size="10.00">msgs_String</text>
<polyline fill="none" stroke="black" points="0,-148.5 86,-148.5 "/>
<text text-anchor="middle" x="43" y="-136.5" font-family="Helvetica,sans-Serif" font-size="10.00"> </text>
<polyline fill="none" stroke="black" points="0,-129.5 86,-129.5 "/>
<text text-anchor="start" x="8" y="-117.5" font-family="Helvetica,sans-Serif" font-size="10.00">+ msgs_String()</text>
<text text-anchor="start" x="8" y="-106.5" font-family="Helvetica,sans-Serif" font-size="10.00">+ clear()</text>
<text text-anchor="start" x="8" y="-95.5" font-family="Helvetica,sans-Serif" font-size="10.00">+ readBare()</text>
<text text-anchor="start" x="8" y="-84.5" font-family="Helvetica,sans-Serif" font-size="10.00">+ readBottle()</text>
<text text-anchor="start" x="8" y="-73.5" font-family="Helvetica,sans-Serif" font-size="10.00">+ read()</text>
<text text-anchor="start" x="8" y="-62.5" font-family="Helvetica,sans-Serif" font-size="10.00">+ writeBare()</text>
<text text-anchor="start" x="8" y="-51.5" font-family="Helvetica,sans-Serif" font-size="10.00">+ writeBottle()</text>
<text text-anchor="start" x="8" y="-40.5" font-family="Helvetica,sans-Serif" font-size="10.00">+ write()</text>
<text text-anchor="start" x="8" y="-29.5" font-family="Helvetica,sans-Serif" font-size="10.00">+ getTypeText()</text>
<text text-anchor="start" x="8" y="-18.5" font-family="Helvetica,sans-Serif" font-size="10.00">+ getType()</text>
<text text-anchor="start" x="8" y="-7.5" font-family="Helvetica,sans-Serif" font-size="10.00">and 10 more...</text>
</g>
<!-- Node2 -->
<g id="node2" class="node"><title>Node2</title>
<g id="a_node2"><a xlink:href="classyarp_1_1os_1_1idl_1_1_wire_portable.html" target="_top" xlink:title="{WirePortable\n||}">
<polygon fill="none" stroke="black" points="6.5,-216.5 6.5,-273.5 79.5,-273.5 79.5,-216.5 6.5,-216.5"/>
<text text-anchor="middle" x="43" y="-261.5" font-family="Helvetica,sans-Serif" font-size="10.00">WirePortable</text>
<polyline fill="none" stroke="black" points="6.5,-254.5 79.5,-254.5 "/>
<text text-anchor="middle" x="43" y="-242.5" font-family="Helvetica,sans-Serif" font-size="10.00"> </text>
<polyline fill="none" stroke="black" points="6.5,-235.5 79.5,-235.5 "/>
<text text-anchor="middle" x="43" y="-223.5" font-family="Helvetica,sans-Serif" font-size="10.00"> </text>
</a>
</g>
</g>
<!-- Node2&#45;&gt;Node1 -->
<g id="edge1" class="edge"><title>Node2&#45;&gt;Node1</title>
<path fill="none" stroke="midnightblue" d="M37.1503,-206.115C36.5944,-194.463 36.296,-181.151 36.2549,-167.716"/>
<polygon fill="none" stroke="midnightblue" points="33.6677,-206.521 37.7332,-216.304 40.6563,-206.121 33.6677,-206.521"/>
</g>
<!-- Node2&#45;&gt;Node1 -->
<g id="edge2" class="edge"><title>Node2&#45;&gt;Node1</title>
<path fill="none" stroke="midnightblue" d="M48.8497,-206.115C49.4056,-194.463 49.704,-181.151 49.7451,-167.716"/>
<polygon fill="none" stroke="midnightblue" points="45.3437,-206.121 48.2668,-216.304 52.3323,-206.521 45.3437,-206.121"/>
</g>
<!-- Node3 -->
<g id="node3" class="node"><title>Node3</title>
<polygon fill="none" stroke="#bfbfbf" points="97.5,-216.5 97.5,-273.5 138.5,-273.5 138.5,-216.5 97.5,-216.5"/>
<text text-anchor="middle" x="118" y="-261.5" font-family="Helvetica,sans-Serif" font-size="10.00">string</text>
<polyline fill="none" stroke="#bfbfbf" points="97.5,-254.5 138.5,-254.5 "/>
<text text-anchor="middle" x="118" y="-242.5" font-family="Helvetica,sans-Serif" font-size="10.00"> </text>
<polyline fill="none" stroke="#bfbfbf" points="97.5,-235.5 138.5,-235.5 "/>
<text text-anchor="middle" x="118" y="-223.5" font-family="Helvetica,sans-Serif" font-size="10.00"> </text>
</g>
<!-- Node3&#45;&gt;Node1 -->
<g id="edge3" class="edge"><title>Node3&#45;&gt;Node1</title>
<path fill="none" stroke="#404040" d="M104.936,-216.304C99.8361,-205.493 93.6683,-192.417 87.2267,-178.761"/>
<polygon fill="none" stroke="#404040" points="87.1366,-178.569 80.9591,-174.849 82.0171,-167.716 88.1946,-171.436 87.1366,-178.569"/>
<text text-anchor="middle" x="109" y="-189.5" font-family="Helvetica,sans-Serif" font-size="10.00"> +data</text>
</g>
</g>
</svg>
