<?xml version="1.0" encoding="UTF-8" standalone="no"?>
<!DOCTYPE svg PUBLIC "-//W3C//DTD SVG 1.1//EN"
 "http://www.w3.org/Graphics/SVG/1.1/DTD/svg11.dtd">
<!-- Generated by graphviz version 2.36.0 (20140111.2315)
 -->
<!-- Title: jointData Pages: 1 -->
<!--zoomable 568 -->
<svg id="main" version="1.1" xmlns="http://www.w3.org/2000/svg" xmlns:xlink="http://www.w3.org/1999/xlink" xml:space="preserve" onload="init(evt)">
<style type="text/css"><![CDATA[
.edge:hover path { stroke: red; }
.edge:hover polygon { stroke: red; fill: red; }
]]></style>
<script type="text/javascript"><![CDATA[
var edges = document.getElementsByTagName('g');
if (edges && edges.length) {
  for (var i=0;i<edges.length;i++) {
    if (edges[i].id.substr(0,4)=='edge') {
      edges[i].setAttribute('class','edge');
    }
  }
}
]]></script>
        <defs>
                <circle id="rim" cx="0" cy="0" r="7"/>
                <circle id="rim2" cx="0" cy="0" r="3.5"/>
                <g id="zoomPlus">
                        <use xlink:href="#rim" fill="#404040">
                                <set attributeName="fill" to="#808080" begin="zoomplus.mouseover" end="zoomplus.mouseout"/>
                        </use>
                        <path d="M-4,0h8M0,-4v8" fill="none" stroke="white" stroke-width="1.5" pointer-events="none"/>
                </g>
                <g id="zoomMin">
                        <use xlink:href="#rim" fill="#404040">
                                <set attributeName="fill" to="#808080" begin="zoomminus.mouseover" end="zoomminus.mouseout"/>
                        </use>
                        <path d="M-4,0h8" fill="none" stroke="white" stroke-width="1.5" pointer-events="none"/>
                </g>
                <g id="dirArrow">
                        <path fill="none" stroke="white" stroke-width="1.5" d="M0,-3.0v7 M-2.5,-0.5L0,-3.0L2.5,-0.5"/>
                </g>
               <g id="resetDef">
                       <use xlink:href="#rim2" fill="#404040">
                               <set attributeName="fill" to="#808080" begin="reset.mouseover" end="reset.mouseout"/>
                       </use>
               </g>
        </defs>

<script type="text/javascript">
var viewWidth = 454;
var viewHeight = 568;
var sectionId = 'dynsection-1';
</script>
<script xlink:href="svgpan.js"/>
<svg id="graph" class="graph">
<g id="viewport">
<title>jointData</title>
<!-- Node1 -->
<g id="node1" class="node"><title>Node1</title>
<polygon fill="#bfbfbf" stroke="black" points="103.5,-1 103.5,-311 264.5,-311 264.5,-1 103.5,-1"/>
<text text-anchor="middle" x="184" y="-299" font-family="Helvetica,sans-Serif" font-size="10.00">jointData</text>
<polyline fill="none" stroke="black" points="103.5,-292 264.5,-292 "/>
<text text-anchor="middle" x="184" y="-280" font-family="Helvetica,sans-Serif" font-size="10.00"> </text>
<polyline fill="none" stroke="black" points="103.5,-273 264.5,-273 "/>
<text text-anchor="start" x="111.5" y="-261" font-family="Helvetica,sans-Serif" font-size="10.00">+ jointData()</text>
<text text-anchor="start" x="111.5" y="-250" font-family="Helvetica,sans-Serif" font-size="10.00">+ jointData()</text>
<text text-anchor="start" x="111.5" y="-239" font-family="Helvetica,sans-Serif" font-size="10.00">+ jointData()</text>
<text text-anchor="start" x="111.5" y="-228" font-family="Helvetica,sans-Serif" font-size="10.00">+ operator=()</text>
<text text-anchor="start" x="111.5" y="-217" font-family="Helvetica,sans-Serif" font-size="10.00">+ read()</text>
<text text-anchor="start" x="111.5" y="-206" font-family="Helvetica,sans-Serif" font-size="10.00">+ read()</text>
<text text-anchor="start" x="111.5" y="-195" font-family="Helvetica,sans-Serif" font-size="10.00">+ write()</text>
<text text-anchor="start" x="111.5" y="-184" font-family="Helvetica,sans-Serif" font-size="10.00">+ write()</text>
<text text-anchor="start" x="111.5" y="-173" font-family="Helvetica,sans-Serif" font-size="10.00">+ toString()</text>
<text text-anchor="start" x="111.5" y="-162" font-family="Helvetica,sans-Serif" font-size="10.00">&#45; write_jointPosition()</text>
<text text-anchor="start" x="111.5" y="-151" font-family="Helvetica,sans-Serif" font-size="10.00">&#45; nested_write_jointPosition()</text>
<text text-anchor="start" x="111.5" y="-140" font-family="Helvetica,sans-Serif" font-size="10.00">&#45; write_jointPosition</text>
<text text-anchor="start" x="111.5" y="-129" font-family="Helvetica,sans-Serif" font-size="10.00">_isValid()</text>
<text text-anchor="start" x="111.5" y="-118" font-family="Helvetica,sans-Serif" font-size="10.00">&#45; nested_write_jointPosition</text>
<text text-anchor="start" x="111.5" y="-107" font-family="Helvetica,sans-Serif" font-size="10.00">_isValid()</text>
<text text-anchor="start" x="111.5" y="-96" font-family="Helvetica,sans-Serif" font-size="10.00">&#45; write_jointVelocity()</text>
<text text-anchor="start" x="111.5" y="-85" font-family="Helvetica,sans-Serif" font-size="10.00">&#45; nested_write_jointVelocity()</text>
<text text-anchor="start" x="111.5" y="-74" font-family="Helvetica,sans-Serif" font-size="10.00">&#45; write_jointVelocity</text>
<text text-anchor="start" x="111.5" y="-63" font-family="Helvetica,sans-Serif" font-size="10.00">_isValid()</text>
<text text-anchor="start" x="111.5" y="-52" font-family="Helvetica,sans-Serif" font-size="10.00">&#45; nested_write_jointVelocity</text>
<text text-anchor="start" x="111.5" y="-41" font-family="Helvetica,sans-Serif" font-size="10.00">_isValid()</text>
<text text-anchor="start" x="111.5" y="-30" font-family="Helvetica,sans-Serif" font-size="10.00">&#45; write_jointAcceleration()</text>
<text text-anchor="start" x="111.5" y="-19" font-family="Helvetica,sans-Serif" font-size="10.00">&#45; nested_write_jointAcceleration()</text>
<text text-anchor="start" x="111.5" y="-8" font-family="Helvetica,sans-Serif" font-size="10.00">and 70 more...</text>
</g>
<!-- Node2 -->
<g id="node2" class="node"><title>Node2</title>
<g id="a_node2"><a xlink:href="classyarp_1_1os_1_1idl_1_1_wire_portable.html" target="_top" xlink:title="{WirePortable\n||}">
<polygon fill="none" stroke="black" points="-0.5,-502.5 -0.5,-559.5 72.5,-559.5 72.5,-502.5 -0.5,-502.5"/>
<text text-anchor="middle" x="36" y="-547.5" font-family="Helvetica,sans-Serif" font-size="10.00">WirePortable</text>
<polyline fill="none" stroke="black" points="-0.5,-540.5 72.5,-540.5 "/>
<text text-anchor="middle" x="36" y="-528.5" font-family="Helvetica,sans-Serif" font-size="10.00"> </text>
<polyline fill="none" stroke="black" points="-0.5,-521.5 72.5,-521.5 "/>
<text text-anchor="middle" x="36" y="-509.5" font-family="Helvetica,sans-Serif" font-size="10.00"> </text>
</a>
</g>
</g>
<!-- Node2&#45;&gt;Node1 -->
<g id="edge1" class="edge"><title>Node2&#45;&gt;Node1</title>
<path fill="none" stroke="midnightblue" d="M50.7258,-492.887C67.6105,-450.333 96.3814,-377.823 122.879,-311.041"/>
<polygon fill="none" stroke="midnightblue" points="47.4381,-491.683 47.0031,-502.269 53.9446,-494.265 47.4381,-491.683"/>
</g>
<!-- Node3 -->
<g id="node3" class="node"><title>Node3</title>
<polygon fill="none" stroke="#bfbfbf" points="91,-502.5 91,-559.5 175,-559.5 175,-502.5 91,-502.5"/>
<text text-anchor="middle" x="133" y="-547.5" font-family="Helvetica,sans-Serif" font-size="10.00">VectorOf&lt; int &gt;</text>
<polyline fill="none" stroke="#bfbfbf" points="91,-540.5 175,-540.5 "/>
<text text-anchor="middle" x="133" y="-528.5" font-family="Helvetica,sans-Serif" font-size="10.00"> </text>
<polyline fill="none" stroke="#bfbfbf" points="91,-521.5 175,-521.5 "/>
<text text-anchor="middle" x="133" y="-509.5" font-family="Helvetica,sans-Serif" font-size="10.00"> </text>
</g>
<!-- Node3&#45;&gt;Node1 -->
<g id="edge2" class="edge"><title>Node3&#45;&gt;Node1</title>
<path fill="none" stroke="#404040" d="M130.744,-502.324C128.126,-463.561 125.206,-391.002 134,-330 134.321,-327.776 134.663,-325.54 135.025,-323.296"/>
<polygon fill="none" stroke="#404040" points="135.07,-323.038 132.166,-316.437 137.143,-311.218 140.046,-317.819 135.07,-323.038"/>
<text text-anchor="middle" x="173.5" y="-410" font-family="Helvetica,sans-Serif" font-size="10.00"> +interactionMode</text>
<text text-anchor="middle" x="173.5" y="-399" font-family="Helvetica,sans-Serif" font-size="10.00">+controlMode</text>
</g>
<!-- Node4 -->
<g id="node4" class="node"><title>Node4</title>
<polygon fill="none" stroke="#bfbfbf" points="217.5,-502.5 217.5,-559.5 252.5,-559.5 252.5,-502.5 217.5,-502.5"/>
<text text-anchor="middle" x="235" y="-547.5" font-family="Helvetica,sans-Serif" font-size="10.00">bool</text>
<polyline fill="none" stroke="#bfbfbf" points="217.5,-540.5 252.5,-540.5 "/>
<text text-anchor="middle" x="235" y="-528.5" font-family="Helvetica,sans-Serif" font-size="10.00"> </text>
<polyline fill="none" stroke="#bfbfbf" points="217.5,-521.5 252.5,-521.5 "/>
<text text-anchor="middle" x="235" y="-509.5" font-family="Helvetica,sans-Serif" font-size="10.00"> </text>
</g>
<!-- Node4&#45;&gt;Node1 -->
<g id="edge3" class="edge"><title>Node4&#45;&gt;Node1</title>
<path fill="none" stroke="#404040" d="M232.466,-502.441C228.801,-463.815 221.518,-391.416 213,-330 212.692,-327.778 212.377,-325.54 212.057,-323.29"/>
<polygon fill="none" stroke="#404040" points="212.019,-323.026 207.198,-317.663 210.294,-311.15 215.115,-316.513 212.019,-323.026"/>
<text text-anchor="middle" x="281.5" y="-476" font-family="Helvetica,sans-Serif" font-size="10.00"> +pidOutput_isValid</text>
<text text-anchor="middle" x="281.5" y="-465" font-family="Helvetica,sans-Serif" font-size="10.00">+jointPosition_isValid</text>
<text text-anchor="middle" x="281.5" y="-454" font-family="Helvetica,sans-Serif" font-size="10.00">+torque_isValid</text>
<text text-anchor="start" x="231" y="-443" font-family="Helvetica,sans-Serif" font-size="10.00">+jointAcceleration</text>
<text text-anchor="middle" x="281.5" y="-432" font-family="Helvetica,sans-Serif" font-size="10.00">_isValid</text>
<text text-anchor="start" x="231" y="-421" font-family="Helvetica,sans-Serif" font-size="10.00">+interactionMode</text>
<text text-anchor="middle" x="281.5" y="-410" font-family="Helvetica,sans-Serif" font-size="10.00">_isValid</text>
<text text-anchor="start" x="231" y="-399" font-family="Helvetica,sans-Serif" font-size="10.00">+motorAcceleration</text>
<text text-anchor="middle" x="281.5" y="-388" font-family="Helvetica,sans-Serif" font-size="10.00">_isValid</text>
<text text-anchor="middle" x="281.5" y="-377" font-family="Helvetica,sans-Serif" font-size="10.00">+controlMode_isValid</text>
<text text-anchor="middle" x="281.5" y="-366" font-family="Helvetica,sans-Serif" font-size="10.00">+motorVelocity_isValid</text>
<text text-anchor="middle" x="281.5" y="-355" font-family="Helvetica,sans-Serif" font-size="10.00">+jointVelocity_isValid</text>
<text text-anchor="middle" x="281.5" y="-344" font-family="Helvetica,sans-Serif" font-size="10.00">+motorPosition_isValid</text>
<text text-anchor="middle" x="281.5" y="-333" font-family="Helvetica,sans-Serif" font-size="10.00">...</text>
</g>
<!-- Node5 -->
<g id="node5" class="node"><title>Node5</title>
<polygon fill="none" stroke="#bfbfbf" points="308,-502.5 308,-559.5 410,-559.5 410,-502.5 308,-502.5"/>
<text text-anchor="middle" x="359" y="-547.5" font-family="Helvetica,sans-Serif" font-size="10.00">VectorOf&lt; double &gt;</text>
<polyline fill="none" stroke="#bfbfbf" points="308,-540.5 410,-540.5 "/>
<text text-anchor="middle" x="359" y="-528.5" font-family="Helvetica,sans-Serif" font-size="10.00"> </text>
<polyline fill="none" stroke="#bfbfbf" points="308,-521.5 410,-521.5 "/>
<text text-anchor="middle" x="359" y="-509.5" font-family="Helvetica,sans-Serif" font-size="10.00"> </text>
</g>
<!-- Node5&#45;&gt;Node1 -->
<g id="edge4" class="edge"><title>Node5&#45;&gt;Node1</title>
<path fill="none" stroke="#404040" d="M360.884,-502.457C362.518,-462.6 361.449,-387.344 336,-330 321.138,-296.511 297.438,-264.83 273.133,-237.953"/>
<polygon fill="none" stroke="#404040" points="273.026,-237.837 266.016,-236.148 264.879,-229.027 271.889,-230.716 273.026,-237.837"/>
<text text-anchor="middle" x="403.5" y="-443" font-family="Helvetica,sans-Serif" font-size="10.00"> +motorVelocity</text>
<text text-anchor="middle" x="403.5" y="-432" font-family="Helvetica,sans-Serif" font-size="10.00">+jointAcceleration</text>
<text text-anchor="middle" x="403.5" y="-421" font-family="Helvetica,sans-Serif" font-size="10.00">+motorAcceleration</text>
<text text-anchor="middle" x="403.5" y="-410" font-family="Helvetica,sans-Serif" font-size="10.00">+torque</text>
<text text-anchor="middle" x="403.5" y="-399" font-family="Helvetica,sans-Serif" font-size="10.00">+pidOutput</text>
<text text-anchor="middle" x="403.5" y="-388" font-family="Helvetica,sans-Serif" font-size="10.00">+motorPosition</text>
<text text-anchor="middle" x="403.5" y="-377" font-family="Helvetica,sans-Serif" font-size="10.00">+jointVelocity</text>
<text text-anchor="middle" x="403.5" y="-366" font-family="Helvetica,sans-Serif" font-size="10.00">+jointPosition</text>
</g>
</g>
</svg>
        <g id="navigator" transform="translate(0 0)" fill="#404254">
                <rect fill="#f2f5e9" fill-opacity="0.5" stroke="#606060" stroke-width=".5" x="0" y="0" width="60" height="60"/>
                <use id="zoomplus" xlink:href="#zoomPlus" x="17" y="9" onmousedown="handleZoom(evt,'in')"/>
                <use id="zoomminus" xlink:href="#zoomMin" x="42" y="9" onmousedown="handleZoom(evt,'out')"/>
                <use id="reset" xlink:href="#resetDef" x="30" y="36" onmousedown="handleReset()"/>
                <g id="arrowUp" xlink:href="#dirArrow" transform="translate(30 24)" onmousedown="handlePan(0,-1)">
                  <use xlink:href="#rim" fill="#404040">
                        <set attributeName="fill" to="#808080" begin="arrowUp.mouseover" end="arrowUp.mouseout"/>
                  </use>
                  <path fill="none" stroke="white" stroke-width="1.5" d="M0,-3.0v7 M-2.5,-0.5L0,-3.0L2.5,-0.5"/>
                </g>
                <g id="arrowRight" xlink:href="#dirArrow" transform="rotate(90) translate(36 -43)" onmousedown="handlePan(1,0)">
                  <use xlink:href="#rim" fill="#404040">
                        <set attributeName="fill" to="#808080" begin="arrowRight.mouseover" end="arrowRight.mouseout"/>
                  </use>
                  <path fill="none" stroke="white" stroke-width="1.5" d="M0,-3.0v7 M-2.5,-0.5L0,-3.0L2.5,-0.5"/>
                </g>
                <g id="arrowDown" xlink:href="#dirArrow" transform="rotate(180) translate(-30 -48)" onmousedown="handlePan(0,1)">
                  <use xlink:href="#rim" fill="#404040">
                        <set attributeName="fill" to="#808080" begin="arrowDown.mouseover" end="arrowDown.mouseout"/>
                  </use>
                  <path fill="none" stroke="white" stroke-width="1.5" d="M0,-3.0v7 M-2.5,-0.5L0,-3.0L2.5,-0.5"/>
                </g>
                <g id="arrowLeft" xlink:href="#dirArrow" transform="rotate(270) translate(-36 17)" onmousedown="handlePan(-1,0)">
                  <use xlink:href="#rim" fill="#404040">
                        <set attributeName="fill" to="#808080" begin="arrowLeft.mouseover" end="arrowLeft.mouseout"/>
                  </use>
                  <path fill="none" stroke="white" stroke-width="1.5" d="M0,-3.0v7 M-2.5,-0.5L0,-3.0L2.5,-0.5"/>
                </g>
        </g>
        <svg viewBox="0 0 15 15" width="100%" height="30px" preserveAspectRatio="xMaxYMin meet">
         <g id="arrow_out" transform="scale(0.3 0.3)">
          <a xlink:href="classjoint_data__coll__graph_org.svg" target="_base">
           <rect id="button" ry="5" rx="5" y="6" x="6" height="38" width="38"
                fill="#f2f5e9" fill-opacity="0.5" stroke="#606060" stroke-width="1.0"/>
           <path id="arrow"
             d="M 11.500037,31.436501 C 11.940474,20.09759 22.043105,11.32322 32.158766,21.979434 L 37.068811,17.246167 C 37.068811,17.246167 37.088388,32 37.088388,32 L 22.160133,31.978069 C 22.160133,31.978069 26.997745,27.140456 26.997745,27.140456 C 18.528582,18.264221 13.291696,25.230495 11.500037,31.436501 z"
             style="fill:#404040;"/>
          </a>
         </g>
        </svg>
</svg>
