<?xml version="1.0" encoding="UTF-8" standalone="no"?>
<!DOCTYPE svg PUBLIC "-//W3C//DTD SVG 1.1//EN"
 "http://www.w3.org/Graphics/SVG/1.1/DTD/svg11.dtd">
<!-- Generated by graphviz version 2.36.0 (20140111.2315)
 -->
<!-- Title: human::JointDynamicsEstimation::Editor Pages: 1 -->
<svg width="513pt" height="872pt"
 viewBox="0.00 0.00 513.00 872.00" xmlns="http://www.w3.org/2000/svg" xmlns:xlink="http://www.w3.org/1999/xlink">
<g id="graph0" class="graph" transform="scale(1 1) rotate(0) translate(4 868)">
<title>human::JointDynamicsEstimation::Editor</title>
<!-- Node1 -->
<g id="node1" class="node"><title>Node1</title>
<polygon fill="#bfbfbf" stroke="black" points="3,-1 3,-333 167,-333 167,-1 3,-1"/>
<text text-anchor="start" x="11" y="-321" font-family="Helvetica,sans-Serif" font-size="10.00">human::JointDynamicsEstimation</text>
<text text-anchor="middle" x="85" y="-310" font-family="Helvetica,sans-Serif" font-size="10.00">::Editor</text>
<polyline fill="none" stroke="black" points="3,-303 167,-303 "/>
<text text-anchor="middle" x="85" y="-291" font-family="Helvetica,sans-Serif" font-size="10.00"> </text>
<polyline fill="none" stroke="black" points="3,-284 167,-284 "/>
<text text-anchor="start" x="11" y="-272" font-family="Helvetica,sans-Serif" font-size="10.00">+ Editor()</text>
<text text-anchor="start" x="11" y="-261" font-family="Helvetica,sans-Serif" font-size="10.00">+ Editor()</text>
<text text-anchor="start" x="11" y="-250" font-family="Helvetica,sans-Serif" font-size="10.00">+ edit()</text>
<text text-anchor="start" x="11" y="-239" font-family="Helvetica,sans-Serif" font-size="10.00">+ ~Editor()</text>
<text text-anchor="start" x="11" y="-228" font-family="Helvetica,sans-Serif" font-size="10.00">+ isValid()</text>
<text text-anchor="start" x="11" y="-217" font-family="Helvetica,sans-Serif" font-size="10.00">+ state()</text>
<text text-anchor="start" x="11" y="-206" font-family="Helvetica,sans-Serif" font-size="10.00">+ begin()</text>
<text text-anchor="start" x="11" y="-195" font-family="Helvetica,sans-Serif" font-size="10.00">+ end()</text>
<text text-anchor="start" x="11" y="-184" font-family="Helvetica,sans-Serif" font-size="10.00">+ set_jointName()</text>
<text text-anchor="start" x="11" y="-173" font-family="Helvetica,sans-Serif" font-size="10.00">+ set_transmittedWrench()</text>
<text text-anchor="start" x="11" y="-162" font-family="Helvetica,sans-Serif" font-size="10.00">and 44 more...</text>
<text text-anchor="start" x="11" y="-151" font-family="Helvetica,sans-Serif" font-size="10.00">&#45; communicate()</text>
<text text-anchor="start" x="11" y="-140" font-family="Helvetica,sans-Serif" font-size="10.00">&#45; mark_dirty()</text>
<text text-anchor="start" x="11" y="-129" font-family="Helvetica,sans-Serif" font-size="10.00">&#45; mark_dirty_jointName()</text>
<text text-anchor="start" x="11" y="-118" font-family="Helvetica,sans-Serif" font-size="10.00">&#45; mark_dirty_transmittedWrench()</text>
<text text-anchor="start" x="11" y="-107" font-family="Helvetica,sans-Serif" font-size="10.00">&#45; mark_dirty_torque()</text>
<text text-anchor="start" x="11" y="-96" font-family="Helvetica,sans-Serif" font-size="10.00">&#45; mark_dirty_acceleration()</text>
<text text-anchor="start" x="11" y="-85" font-family="Helvetica,sans-Serif" font-size="10.00">&#45; dirty_flags()</text>
<text text-anchor="start" x="11" y="-74" font-family="Helvetica,sans-Serif" font-size="10.00">&#45; communicate()</text>
<text text-anchor="start" x="11" y="-63" font-family="Helvetica,sans-Serif" font-size="10.00">&#45; mark_dirty()</text>
<text text-anchor="start" x="11" y="-52" font-family="Helvetica,sans-Serif" font-size="10.00">&#45; mark_dirty_jointName()</text>
<text text-anchor="start" x="11" y="-41" font-family="Helvetica,sans-Serif" font-size="10.00">&#45; mark_dirty_transmittedWrench()</text>
<text text-anchor="start" x="11" y="-30" font-family="Helvetica,sans-Serif" font-size="10.00">&#45; mark_dirty_torque()</text>
<text text-anchor="start" x="11" y="-19" font-family="Helvetica,sans-Serif" font-size="10.00">&#45; mark_dirty_acceleration()</text>
<text text-anchor="start" x="11" y="-8" font-family="Helvetica,sans-Serif" font-size="10.00">&#45; dirty_flags()</text>
</g>
<!-- Node2 -->
<g id="node2" class="node"><title>Node2</title>
<g id="a_node2"><a xlink:href="classyarp_1_1os_1_1_wire.html" target="_top" xlink:title="{Wire\n||}">
<polygon fill="none" stroke="black" points="-0.5,-557.5 -0.5,-614.5 36.5,-614.5 36.5,-557.5 -0.5,-557.5"/>
<text text-anchor="middle" x="18" y="-602.5" font-family="Helvetica,sans-Serif" font-size="10.00">Wire</text>
<polyline fill="none" stroke="black" points="-0.5,-595.5 36.5,-595.5 "/>
<text text-anchor="middle" x="18" y="-583.5" font-family="Helvetica,sans-Serif" font-size="10.00"> </text>
<polyline fill="none" stroke="black" points="-0.5,-576.5 36.5,-576.5 "/>
<text text-anchor="middle" x="18" y="-564.5" font-family="Helvetica,sans-Serif" font-size="10.00"> </text>
</a>
</g>
</g>
<!-- Node2&#45;&gt;Node1 -->
<g id="edge1" class="edge"><title>Node2&#45;&gt;Node1</title>
<path fill="none" stroke="midnightblue" d="M19.9791,-547.298C25.5852,-498.856 38.7546,-411.623 51.8684,-333.019"/>
<polygon fill="none" stroke="midnightblue" points="16.4918,-546.992 18.8703,-557.317 23.4493,-547.762 16.4918,-546.992"/>
</g>
<!-- Node2&#45;&gt;Node1 -->
<g id="edge3" class="edge"><title>Node2&#45;&gt;Node1</title>
<path fill="none" stroke="midnightblue" d="M28.136,-547.298C38.0965,-498.856 52.9589,-411.623 65.104,-333.019"/>
<polygon fill="none" stroke="midnightblue" points="24.6622,-546.81 26.0256,-557.317 31.5119,-548.253 24.6622,-546.81"/>
</g>
<!-- Node3 -->
<g id="node3" class="node"><title>Node3</title>
<g id="a_node3"><a xlink:href="classyarp_1_1os_1_1_port_writer.html" target="_top" xlink:title="{PortWriter\n||}">
<polygon fill="none" stroke="black" points="54.5,-557.5 54.5,-614.5 115.5,-614.5 115.5,-557.5 54.5,-557.5"/>
<text text-anchor="middle" x="85" y="-602.5" font-family="Helvetica,sans-Serif" font-size="10.00">PortWriter</text>
<polyline fill="none" stroke="black" points="54.5,-595.5 115.5,-595.5 "/>
<text text-anchor="middle" x="85" y="-583.5" font-family="Helvetica,sans-Serif" font-size="10.00"> </text>
<polyline fill="none" stroke="black" points="54.5,-576.5 115.5,-576.5 "/>
<text text-anchor="middle" x="85" y="-564.5" font-family="Helvetica,sans-Serif" font-size="10.00"> </text>
</a>
</g>
</g>
<!-- Node3&#45;&gt;Node1 -->
<g id="edge2" class="edge"><title>Node3&#45;&gt;Node1</title>
<path fill="none" stroke="midnightblue" d="M80.9216,-547.298C78.7443,-498.856 77.8979,-411.623 78.3822,-333.019"/>
<polygon fill="none" stroke="midnightblue" points="77.4274,-547.504 81.4223,-557.317 84.4186,-547.154 77.4274,-547.504"/>
</g>
<!-- Node3&#45;&gt;Node1 -->
<g id="edge4" class="edge"><title>Node3&#45;&gt;Node1</title>
<path fill="none" stroke="midnightblue" d="M89.0784,-547.298C91.2557,-498.856 92.1021,-411.623 91.6178,-333.019"/>
<polygon fill="none" stroke="midnightblue" points="85.5814,-547.154 88.5777,-557.317 92.5726,-547.504 85.5814,-547.154"/>
</g>
<!-- Node4 -->
<g id="node4" class="node"><title>Node4</title>
<g id="a_node4"><a xlink:href="classhuman_1_1_joint_dynamics_estimation.html" target="_top" xlink:title="{human::JointDynamicsEstimation\n||+ JointDynamicsEstimation()\l+ JointDynamicsEstimation()\l+ JointDynamicsEstimation()\l+ operator=()\l+ read()\l+ read()\l+ write()\l+ write()\l+ toString()\l+ JointDynamicsEstimation()\land 8 more...\l&#45; write_jointName()\l&#45; nested_write_jointName()\l&#45; write_transmittedWrench()\l&#45; nested_write_transmitted\lWrench()\l&#45; write_torque()\l&#45; nested_write_torque()\l&#45; write_acceleration()\l&#45; nested_write_acceleration()\l&#45; read_jointName()\l&#45; nested_read_jointName()\land 22 more...\l}">
<polygon fill="none" stroke="black" points="134,-436.5 134,-735.5 298,-735.5 298,-436.5 134,-436.5"/>
<text text-anchor="middle" x="216" y="-723.5" font-family="Helvetica,sans-Serif" font-size="10.00">human::JointDynamicsEstimation</text>
<polyline fill="none" stroke="black" points="134,-716.5 298,-716.5 "/>
<text text-anchor="middle" x="216" y="-704.5" font-family="Helvetica,sans-Serif" font-size="10.00"> </text>
<polyline fill="none" stroke="black" points="134,-697.5 298,-697.5 "/>
<text text-anchor="start" x="142" y="-685.5" font-family="Helvetica,sans-Serif" font-size="10.00">+ JointDynamicsEstimation()</text>
<text text-anchor="start" x="142" y="-674.5" font-family="Helvetica,sans-Serif" font-size="10.00">+ JointDynamicsEstimation()</text>
<text text-anchor="start" x="142" y="-663.5" font-family="Helvetica,sans-Serif" font-size="10.00">+ JointDynamicsEstimation()</text>
<text text-anchor="start" x="142" y="-652.5" font-family="Helvetica,sans-Serif" font-size="10.00">+ operator=()</text>
<text text-anchor="start" x="142" y="-641.5" font-family="Helvetica,sans-Serif" font-size="10.00">+ read()</text>
<text text-anchor="start" x="142" y="-630.5" font-family="Helvetica,sans-Serif" font-size="10.00">+ read()</text>
<text text-anchor="start" x="142" y="-619.5" font-family="Helvetica,sans-Serif" font-size="10.00">+ write()</text>
<text text-anchor="start" x="142" y="-608.5" font-family="Helvetica,sans-Serif" font-size="10.00">+ write()</text>
<text text-anchor="start" x="142" y="-597.5" font-family="Helvetica,sans-Serif" font-size="10.00">+ toString()</text>
<text text-anchor="start" x="142" y="-586.5" font-family="Helvetica,sans-Serif" font-size="10.00">+ JointDynamicsEstimation()</text>
<text text-anchor="start" x="142" y="-575.5" font-family="Helvetica,sans-Serif" font-size="10.00">and 8 more...</text>
<text text-anchor="start" x="142" y="-564.5" font-family="Helvetica,sans-Serif" font-size="10.00">&#45; write_jointName()</text>
<text text-anchor="start" x="142" y="-553.5" font-family="Helvetica,sans-Serif" font-size="10.00">&#45; nested_write_jointName()</text>
<text text-anchor="start" x="142" y="-542.5" font-family="Helvetica,sans-Serif" font-size="10.00">&#45; write_transmittedWrench()</text>
<text text-anchor="start" x="142" y="-531.5" font-family="Helvetica,sans-Serif" font-size="10.00">&#45; nested_write_transmitted</text>
<text text-anchor="start" x="142" y="-520.5" font-family="Helvetica,sans-Serif" font-size="10.00">Wrench()</text>
<text text-anchor="start" x="142" y="-509.5" font-family="Helvetica,sans-Serif" font-size="10.00">&#45; write_torque()</text>
<text text-anchor="start" x="142" y="-498.5" font-family="Helvetica,sans-Serif" font-size="10.00">&#45; nested_write_torque()</text>
<text text-anchor="start" x="142" y="-487.5" font-family="Helvetica,sans-Serif" font-size="10.00">&#45; write_acceleration()</text>
<text text-anchor="start" x="142" y="-476.5" font-family="Helvetica,sans-Serif" font-size="10.00">&#45; nested_write_acceleration()</text>
<text text-anchor="start" x="142" y="-465.5" font-family="Helvetica,sans-Serif" font-size="10.00">&#45; read_jointName()</text>
<text text-anchor="start" x="142" y="-454.5" font-family="Helvetica,sans-Serif" font-size="10.00">&#45; nested_read_jointName()</text>
<text text-anchor="start" x="142" y="-443.5" font-family="Helvetica,sans-Serif" font-size="10.00">and 22 more...</text>
</a>
</g>
</g>
<!-- Node4&#45;&gt;Node1 -->
<g id="edge5" class="edge"><title>Node4&#45;&gt;Node1</title>
<path fill="none" stroke="#404040" d="M169.261,-436.219C159.944,-406.561 150.073,-375.142 140.495,-344.653"/>
<polygon fill="none" stroke="#404040" points="140.437,-344.467 134.823,-339.942 136.84,-333.019 142.455,-337.544 140.437,-344.467"/>
<text text-anchor="middle" x="172.5" y="-382.5" font-family="Helvetica,sans-Serif" font-size="10.00"> &#45;obj</text>
</g>
<!-- Node5 -->
<g id="node5" class="node"><title>Node5</title>
<g id="a_node5"><a xlink:href="classyarp_1_1os_1_1idl_1_1_wire_portable.html" target="_top" xlink:title="{WirePortable\n||}">
<polygon fill="none" stroke="black" points="142.5,-806.5 142.5,-863.5 215.5,-863.5 215.5,-806.5 142.5,-806.5"/>
<text text-anchor="middle" x="179" y="-851.5" font-family="Helvetica,sans-Serif" font-size="10.00">WirePortable</text>
<polyline fill="none" stroke="black" points="142.5,-844.5 215.5,-844.5 "/>
<text text-anchor="middle" x="179" y="-832.5" font-family="Helvetica,sans-Serif" font-size="10.00"> </text>
<polyline fill="none" stroke="black" points="142.5,-825.5 215.5,-825.5 "/>
<text text-anchor="middle" x="179" y="-813.5" font-family="Helvetica,sans-Serif" font-size="10.00"> </text>
</a>
</g>
</g>
<!-- Node5&#45;&gt;Node4 -->
<g id="edge6" class="edge"><title>Node5&#45;&gt;Node4</title>
<path fill="none" stroke="midnightblue" d="M179.641,-796.175C181.34,-779.238 183.98,-758.061 187.097,-735.736"/>
<polygon fill="none" stroke="midnightblue" points="176.155,-795.864 178.709,-806.146 183.125,-796.515 176.155,-795.864"/>
</g>
<!-- Node5&#45;&gt;Node4 -->
<g id="edge7" class="edge"><title>Node5&#45;&gt;Node4</title>
<path fill="none" stroke="midnightblue" d="M189.691,-796.175C193.066,-779.238 196.771,-758.061 200.343,-735.736"/>
<polygon fill="none" stroke="midnightblue" points="186.227,-795.645 187.636,-806.146 193.082,-797.058 186.227,-795.645"/>
</g>
<!-- Node6 -->
<g id="node6" class="node"><title>Node6</title>
<polygon fill="none" stroke="#bfbfbf" points="233.5,-806.5 233.5,-863.5 274.5,-863.5 274.5,-806.5 233.5,-806.5"/>
<text text-anchor="middle" x="254" y="-851.5" font-family="Helvetica,sans-Serif" font-size="10.00">string</text>
<polyline fill="none" stroke="#bfbfbf" points="233.5,-844.5 274.5,-844.5 "/>
<text text-anchor="middle" x="254" y="-832.5" font-family="Helvetica,sans-Serif" font-size="10.00"> </text>
<polyline fill="none" stroke="#bfbfbf" points="233.5,-825.5 274.5,-825.5 "/>
<text text-anchor="middle" x="254" y="-813.5" font-family="Helvetica,sans-Serif" font-size="10.00"> </text>
</g>
<!-- Node6&#45;&gt;Node4 -->
<g id="edge8" class="edge"><title>Node6&#45;&gt;Node4</title>
<path fill="none" stroke="#404040" d="M249.715,-806.146C247.335,-790.675 244.161,-770.044 240.71,-747.613"/>
<polygon fill="none" stroke="#404040" points="240.707,-747.596 235.841,-742.274 238.882,-735.736 243.748,-741.058 240.707,-747.596"/>
<text text-anchor="middle" x="274" y="-768.5" font-family="Helvetica,sans-Serif" font-size="10.00"> +jointName</text>
</g>
<!-- Node7 -->
<g id="node7" class="node"><title>Node7</title>
<polygon fill="none" stroke="#bfbfbf" points="300.5,-806.5 300.5,-863.5 345.5,-863.5 345.5,-806.5 300.5,-806.5"/>
<text text-anchor="middle" x="323" y="-851.5" font-family="Helvetica,sans-Serif" font-size="10.00">Vector</text>
<polyline fill="none" stroke="#bfbfbf" points="300.5,-844.5 345.5,-844.5 "/>
<text text-anchor="middle" x="323" y="-832.5" font-family="Helvetica,sans-Serif" font-size="10.00"> </text>
<polyline fill="none" stroke="#bfbfbf" points="300.5,-825.5 345.5,-825.5 "/>
<text text-anchor="middle" x="323" y="-813.5" font-family="Helvetica,sans-Serif" font-size="10.00"> </text>
</g>
<!-- Node7&#45;&gt;Node4 -->
<g id="edge9" class="edge"><title>Node7&#45;&gt;Node4</title>
<path fill="none" stroke="#404040" d="M316.814,-806.155C312.988,-790.568 307.556,-770.924 301,-754 300.082,-751.63 299.141,-749.249 298.179,-746.86"/>
<polygon fill="none" stroke="#404040" points="298.121,-746.721 292.131,-742.706 293.532,-735.633 299.523,-739.647 298.121,-746.721"/>
<text text-anchor="middle" x="358" y="-779.5" font-family="Helvetica,sans-Serif" font-size="10.00"> +transmittedWrench</text>
<text text-anchor="middle" x="358" y="-768.5" font-family="Helvetica,sans-Serif" font-size="10.00">+acceleration</text>
<text text-anchor="middle" x="358" y="-757.5" font-family="Helvetica,sans-Serif" font-size="10.00">+torque</text>
</g>
<!-- Node8 -->
<g id="node8" class="node"><title>Node8</title>
<polygon fill="none" stroke="#bfbfbf" points="316.5,-557.5 316.5,-614.5 345.5,-614.5 345.5,-557.5 316.5,-557.5"/>
<text text-anchor="middle" x="331" y="-602.5" font-family="Helvetica,sans-Serif" font-size="10.00">int</text>
<polyline fill="none" stroke="#bfbfbf" points="316.5,-595.5 345.5,-595.5 "/>
<text text-anchor="middle" x="331" y="-583.5" font-family="Helvetica,sans-Serif" font-size="10.00"> </text>
<polyline fill="none" stroke="#bfbfbf" points="316.5,-576.5 345.5,-576.5 "/>
<text text-anchor="middle" x="331" y="-564.5" font-family="Helvetica,sans-Serif" font-size="10.00"> </text>
</g>
<!-- Node8&#45;&gt;Node1 -->
<g id="edge10" class="edge"><title>Node8&#45;&gt;Node1</title>
<path fill="none" stroke="#404040" d="M330.847,-557.389C329.722,-526.502 324.963,-475.612 307,-436 275.81,-367.222 222.153,-301.717 175.405,-252.684"/>
<polygon fill="none" stroke="#404040" points="175.393,-252.673 168.349,-251.129 167.065,-244.033 174.109,-245.577 175.393,-252.673"/>
<text text-anchor="middle" x="322.5" y="-388" font-family="Helvetica,sans-Serif" font-size="10.00"> &#45;dirty_count</text>
<text text-anchor="middle" x="322.5" y="-377" font-family="Helvetica,sans-Serif" font-size="10.00">&#45;group</text>
</g>
<!-- Node9 -->
<g id="node9" class="node"><title>Node9</title>
<polygon fill="none" stroke="#bfbfbf" points="377.5,-557.5 377.5,-614.5 412.5,-614.5 412.5,-557.5 377.5,-557.5"/>
<text text-anchor="middle" x="395" y="-602.5" font-family="Helvetica,sans-Serif" font-size="10.00">bool</text>
<polyline fill="none" stroke="#bfbfbf" points="377.5,-595.5 412.5,-595.5 "/>
<text text-anchor="middle" x="395" y="-583.5" font-family="Helvetica,sans-Serif" font-size="10.00"> </text>
<polyline fill="none" stroke="#bfbfbf" points="377.5,-576.5 412.5,-576.5 "/>
<text text-anchor="middle" x="395" y="-564.5" font-family="Helvetica,sans-Serif" font-size="10.00"> </text>
</g>
<!-- Node9&#45;&gt;Node1 -->
<g id="edge11" class="edge"><title>Node9&#45;&gt;Node1</title>
<path fill="none" stroke="#404040" d="M396.739,-557.414C398.308,-511.126 395.611,-416.558 354,-352 312.012,-286.857 237.945,-238.748 178.148,-208.094"/>
<polygon fill="none" stroke="#404040" points="177.882,-207.96 170.725,-208.841 167.159,-202.573 174.317,-201.692 177.882,-207.96"/>
<text text-anchor="middle" x="443.5" y="-410" font-family="Helvetica,sans-Serif" font-size="10.00"> &#45;is_dirty</text>
<text text-anchor="middle" x="443.5" y="-399" font-family="Helvetica,sans-Serif" font-size="10.00">&#45;is_dirty_torque</text>
<text text-anchor="middle" x="443.5" y="-388" font-family="Helvetica,sans-Serif" font-size="10.00">&#45;obj_owned</text>
<text text-anchor="middle" x="443.5" y="-377" font-family="Helvetica,sans-Serif" font-size="10.00">&#45;is_dirty_acceleration</text>
<text text-anchor="middle" x="443.5" y="-366" font-family="Helvetica,sans-Serif" font-size="10.00">&#45;is_dirty_transmittedWrench</text>
<text text-anchor="middle" x="443.5" y="-355" font-family="Helvetica,sans-Serif" font-size="10.00">&#45;is_dirty_jointName</text>
</g>
</g>
</svg>
