<?xml version="1.0" encoding="UTF-8" standalone="no"?>
<!DOCTYPE svg PUBLIC "-//W3C//DTD SVG 1.1//EN"
 "http://www.w3.org/Graphics/SVG/1.1/DTD/svg11.dtd">
<!-- Generated by graphviz version 2.36.0 (20140111.2315)
 -->
<!-- Title: human::HumanStateProviderService_setBaseLink Pages: 1 -->
<svg width="297pt" height="238pt"
 viewBox="0.00 0.00 297.00 238.00" xmlns="http://www.w3.org/2000/svg" xmlns:xlink="http://www.w3.org/1999/xlink">
<g id="graph0" class="graph" transform="scale(1 1) rotate(0) translate(4 234)">
<title>human::HumanStateProviderService_setBaseLink</title>
<!-- Node1 -->
<g id="node1" class="node"><title>Node1</title>
<polygon fill="#bfbfbf" stroke="black" points="94.5,-0.5 94.5,-123.5 237.5,-123.5 237.5,-0.5 94.5,-0.5"/>
<text text-anchor="start" x="102.5" y="-111.5" font-family="Helvetica,sans-Serif" font-size="10.00">human::HumanStateProvider</text>
<text text-anchor="middle" x="166" y="-100.5" font-family="Helvetica,sans-Serif" font-size="10.00">Service_setBaseLink</text>
<polyline fill="none" stroke="black" points="94.5,-93.5 237.5,-93.5 "/>
<text text-anchor="middle" x="166" y="-81.5" font-family="Helvetica,sans-Serif" font-size="10.00"> </text>
<polyline fill="none" stroke="black" points="94.5,-74.5 237.5,-74.5 "/>
<text text-anchor="start" x="102.5" y="-62.5" font-family="Helvetica,sans-Serif" font-size="10.00">+ init()</text>
<text text-anchor="start" x="102.5" y="-51.5" font-family="Helvetica,sans-Serif" font-size="10.00">+ write()</text>
<text text-anchor="start" x="102.5" y="-40.5" font-family="Helvetica,sans-Serif" font-size="10.00">+ read()</text>
<text text-anchor="start" x="102.5" y="-29.5" font-family="Helvetica,sans-Serif" font-size="10.00">+ init()</text>
<text text-anchor="start" x="102.5" y="-18.5" font-family="Helvetica,sans-Serif" font-size="10.00">+ write()</text>
<text text-anchor="start" x="102.5" y="-7.5" font-family="Helvetica,sans-Serif" font-size="10.00">+ read()</text>
</g>
<!-- Node2 -->
<g id="node2" class="node"><title>Node2</title>
<g id="a_node2"><a xlink:href="classyarp_1_1os_1_1_portable.html" target="_top" xlink:title="{yarp::os::Portable\n||}">
<polygon fill="none" stroke="black" points="0,-172.5 0,-229.5 94,-229.5 94,-172.5 0,-172.5"/>
<text text-anchor="middle" x="47" y="-217.5" font-family="Helvetica,sans-Serif" font-size="10.00">yarp::os::Portable</text>
<polyline fill="none" stroke="black" points="0,-210.5 94,-210.5 "/>
<text text-anchor="middle" x="47" y="-198.5" font-family="Helvetica,sans-Serif" font-size="10.00"> </text>
<polyline fill="none" stroke="black" points="0,-191.5 94,-191.5 "/>
<text text-anchor="middle" x="47" y="-179.5" font-family="Helvetica,sans-Serif" font-size="10.00"> </text>
</a>
</g>
</g>
<!-- Node2&#45;&gt;Node1 -->
<g id="edge1" class="edge"><title>Node2&#45;&gt;Node1</title>
<path fill="none" stroke="midnightblue" d="M77.6438,-164.721C88.5691,-152.143 101.207,-137.593 113.448,-123.501"/>
<polygon fill="none" stroke="midnightblue" points="74.9968,-162.431 71.0814,-172.276 80.2815,-167.022 74.9968,-162.431"/>
</g>
<!-- Node3 -->
<g id="node3" class="node"><title>Node3</title>
<g id="a_node3"><a xlink:href="classyarp_1_1os_1_1_portable.html" target="_top" xlink:title="{Portable\n||}">
<polygon fill="none" stroke="black" points="112.5,-172.5 112.5,-229.5 165.5,-229.5 165.5,-172.5 112.5,-172.5"/>
<text text-anchor="middle" x="139" y="-217.5" font-family="Helvetica,sans-Serif" font-size="10.00">Portable</text>
<polyline fill="none" stroke="black" points="112.5,-210.5 165.5,-210.5 "/>
<text text-anchor="middle" x="139" y="-198.5" font-family="Helvetica,sans-Serif" font-size="10.00"> </text>
<polyline fill="none" stroke="black" points="112.5,-191.5 165.5,-191.5 "/>
<text text-anchor="middle" x="139" y="-179.5" font-family="Helvetica,sans-Serif" font-size="10.00"> </text>
</a>
</g>
</g>
<!-- Node3&#45;&gt;Node1 -->
<g id="edge2" class="edge"><title>Node3&#45;&gt;Node1</title>
<path fill="none" stroke="midnightblue" d="M146.449,-162.204C148.81,-150.223 151.483,-136.663 154.076,-123.501"/>
<polygon fill="none" stroke="midnightblue" points="142.964,-161.788 144.464,-172.276 149.831,-163.142 142.964,-161.788"/>
</g>
<!-- Node4 -->
<g id="node4" class="node"><title>Node4</title>
<polygon fill="none" stroke="#bfbfbf" points="183.5,-172.5 183.5,-229.5 218.5,-229.5 218.5,-172.5 183.5,-172.5"/>
<text text-anchor="middle" x="201" y="-217.5" font-family="Helvetica,sans-Serif" font-size="10.00">bool</text>
<polyline fill="none" stroke="#bfbfbf" points="183.5,-210.5 218.5,-210.5 "/>
<text text-anchor="middle" x="201" y="-198.5" font-family="Helvetica,sans-Serif" font-size="10.00"> </text>
<polyline fill="none" stroke="#bfbfbf" points="183.5,-191.5 218.5,-191.5 "/>
<text text-anchor="middle" x="201" y="-179.5" font-family="Helvetica,sans-Serif" font-size="10.00"> </text>
</g>
<!-- Node4&#45;&gt;Node1 -->
<g id="edge3" class="edge"><title>Node4&#45;&gt;Node1</title>
<path fill="none" stroke="#404040" d="M193.917,-172.276C191.164,-161.501 187.871,-148.609 184.527,-135.521"/>
<polygon fill="none" stroke="#404040" points="184.427,-135.128 179.066,-130.305 181.457,-123.501 186.817,-128.325 184.427,-135.128"/>
<text text-anchor="middle" x="209" y="-145.5" font-family="Helvetica,sans-Serif" font-size="10.00"> +_return</text>
</g>
<!-- Node5 -->
<g id="node5" class="node"><title>Node5</title>
<polygon fill="none" stroke="#bfbfbf" points="239.5,-172.5 239.5,-229.5 280.5,-229.5 280.5,-172.5 239.5,-172.5"/>
<text text-anchor="middle" x="260" y="-217.5" font-family="Helvetica,sans-Serif" font-size="10.00">string</text>
<polyline fill="none" stroke="#bfbfbf" points="239.5,-210.5 280.5,-210.5 "/>
<text text-anchor="middle" x="260" y="-198.5" font-family="Helvetica,sans-Serif" font-size="10.00"> </text>
<polyline fill="none" stroke="#bfbfbf" points="239.5,-191.5 280.5,-191.5 "/>
<text text-anchor="middle" x="260" y="-179.5" font-family="Helvetica,sans-Serif" font-size="10.00"> </text>
</g>
<!-- Node5&#45;&gt;Node1 -->
<g id="edge4" class="edge"><title>Node5&#45;&gt;Node1</title>
<path fill="none" stroke="#404040" d="M248.945,-172.35C244.528,-162.468 239.049,-151.447 233,-142 231.242,-139.255 229.398,-136.503 227.487,-133.758"/>
<polygon fill="none" stroke="#404040" points="227.366,-133.591 220.605,-131.084 220.319,-123.878 227.081,-126.386 227.366,-133.591"/>
<text text-anchor="middle" x="264.5" y="-145.5" font-family="Helvetica,sans-Serif" font-size="10.00"> +baseLink</text>
</g>
</g>
</svg>
