<?xml version="1.0" encoding="UTF-8" standalone="no"?>
<!DOCTYPE svg PUBLIC "-//W3C//DTD SVG 1.1//EN"
 "http://www.w3.org/Graphics/SVG/1.1/DTD/svg11.dtd">
<!-- Generated by graphviz version 2.36.0 (20140111.2315)
 -->
<!-- Title: human::HumanIKWorkerPool Pages: 1 -->
<svg width="1025pt" height="250pt"
 viewBox="0.00 0.00 1025.00 250.00" xmlns="http://www.w3.org/2000/svg" xmlns:xlink="http://www.w3.org/1999/xlink">
<g id="graph0" class="graph" transform="scale(1 1) rotate(0) translate(4 246)">
<title>human::HumanIKWorkerPool</title>
<!-- Node1 -->
<g id="node1" class="node"><title>Node1</title>
<polygon fill="#bfbfbf" stroke="black" points="443,-1 443,-113 587,-113 587,-1 443,-1"/>
<text text-anchor="middle" x="515" y="-101" font-family="Helvetica,sans-Serif" font-size="10.00">human::HumanIKWorkerPool</text>
<polyline fill="none" stroke="black" points="443,-94 587,-94 "/>
<text text-anchor="middle" x="515" y="-82" font-family="Helvetica,sans-Serif" font-size="10.00"> </text>
<polyline fill="none" stroke="black" points="443,-75 587,-75 "/>
<text text-anchor="start" x="451" y="-63" font-family="Helvetica,sans-Serif" font-size="10.00">+ HumanIKWorkerPool()</text>
<text text-anchor="start" x="451" y="-52" font-family="Helvetica,sans-Serif" font-size="10.00">+ ~HumanIKWorkerPool()</text>
<text text-anchor="start" x="451" y="-41" font-family="Helvetica,sans-Serif" font-size="10.00">+ runAndWait()</text>
<text text-anchor="start" x="451" y="-30" font-family="Helvetica,sans-Serif" font-size="10.00">&#45; computeIK()</text>
<text text-anchor="start" x="451" y="-19" font-family="Helvetica,sans-Serif" font-size="10.00">&#45; computeJointVelocities()</text>
<text text-anchor="start" x="451" y="-8" font-family="Helvetica,sans-Serif" font-size="10.00">&#45; worker()</text>
</g>
<!-- Node2 -->
<g id="node2" class="node"><title>Node2</title>
<polygon fill="none" stroke="#bfbfbf" points="-0.5,-173 -0.5,-241 116.5,-241 116.5,-173 -0.5,-173"/>
<text text-anchor="start" x="7.5" y="-229" font-family="Helvetica,sans-Serif" font-size="10.00">vector&lt; human::human</text>
<text text-anchor="middle" x="58" y="-218" font-family="Helvetica,sans-Serif" font-size="10.00">::SegmentInfo &gt; &amp;</text>
<polyline fill="none" stroke="#bfbfbf" points="-0.5,-211 116.5,-211 "/>
<text text-anchor="middle" x="58" y="-199" font-family="Helvetica,sans-Serif" font-size="10.00"> </text>
<polyline fill="none" stroke="#bfbfbf" points="-0.5,-192 116.5,-192 "/>
<text text-anchor="middle" x="58" y="-180" font-family="Helvetica,sans-Serif" font-size="10.00"> </text>
</g>
<!-- Node2&#45;&gt;Node1 -->
<g id="edge1" class="edge"><title>Node2&#45;&gt;Node1</title>
<path fill="none" stroke="#404040" d="M78.0158,-173C88.6686,-158.209 103.074,-141.902 120,-132 171.524,-101.86 330.645,-78.9504 430.505,-67.0714"/>
<polygon fill="none" stroke="#404040" points="430.761,-67.0415 436.254,-62.3694 442.679,-65.6429 437.186,-70.3149 430.761,-67.0415"/>
<text text-anchor="middle" x="151.5" y="-140.5" font-family="Helvetica,sans-Serif" font-size="10.00"> &#45;m_segments</text>
</g>
<!-- Node3 -->
<g id="node3" class="node"><title>Node3</title>
<polygon fill="none" stroke="#bfbfbf" points="134.5,-178.5 134.5,-235.5 229.5,-235.5 229.5,-178.5 134.5,-178.5"/>
<text text-anchor="middle" x="182" y="-223.5" font-family="Helvetica,sans-Serif" font-size="10.00">condition_variable</text>
<polyline fill="none" stroke="#bfbfbf" points="134.5,-216.5 229.5,-216.5 "/>
<text text-anchor="middle" x="182" y="-204.5" font-family="Helvetica,sans-Serif" font-size="10.00"> </text>
<polyline fill="none" stroke="#bfbfbf" points="134.5,-197.5 229.5,-197.5 "/>
<text text-anchor="middle" x="182" y="-185.5" font-family="Helvetica,sans-Serif" font-size="10.00"> </text>
</g>
<!-- Node3&#45;&gt;Node1 -->
<g id="edge2" class="edge"><title>Node3&#45;&gt;Node1</title>
<path fill="none" stroke="#404040" d="M181.541,-178.33C182.778,-162.745 187.001,-144.049 199,-132 231.083,-99.7818 348.304,-78.7756 430.566,-67.6495"/>
<polygon fill="none" stroke="#404040" points="430.792,-67.6197 436.216,-62.8677 442.688,-66.0467 437.264,-70.7987 430.792,-67.6197"/>
<text text-anchor="middle" x="249.5" y="-146" font-family="Helvetica,sans-Serif" font-size="10.00"> &#45;m_inputSynchronizer</text>
<text text-anchor="middle" x="249.5" y="-135" font-family="Helvetica,sans-Serif" font-size="10.00">&#45;m_outputSynchronizer</text>
</g>
<!-- Node4 -->
<g id="node4" class="node"><title>Node4</title>
<polygon fill="none" stroke="#bfbfbf" points="284,-178.5 284,-235.5 328,-235.5 328,-178.5 284,-178.5"/>
<text text-anchor="middle" x="306" y="-223.5" font-family="Helvetica,sans-Serif" font-size="10.00">mutex</text>
<polyline fill="none" stroke="#bfbfbf" points="284,-216.5 328,-216.5 "/>
<text text-anchor="middle" x="306" y="-204.5" font-family="Helvetica,sans-Serif" font-size="10.00"> </text>
<polyline fill="none" stroke="#bfbfbf" points="284,-197.5 328,-197.5 "/>
<text text-anchor="middle" x="306" y="-185.5" font-family="Helvetica,sans-Serif" font-size="10.00"> </text>
</g>
<!-- Node4&#45;&gt;Node1 -->
<g id="edge3" class="edge"><title>Node4&#45;&gt;Node1</title>
<path fill="none" stroke="#404040" d="M301.916,-178.452C301.19,-163.291 302.991,-144.977 313,-132 341.087,-95.5839 388.888,-77.0794 430.941,-67.6808"/>
<polygon fill="none" stroke="#404040" points="431.163,-67.6352 436.23,-62.5049 442.915,-65.2096 437.847,-70.3398 431.163,-67.6352"/>
<text text-anchor="middle" x="348.5" y="-146" font-family="Helvetica,sans-Serif" font-size="10.00"> &#45;m_inputMutex</text>
<text text-anchor="middle" x="348.5" y="-135" font-family="Helvetica,sans-Serif" font-size="10.00">&#45;m_outputMutex</text>
</g>
<!-- Node5 -->
<g id="node5" class="node"><title>Node5</title>
<polygon fill="none" stroke="#bfbfbf" points="364.5,-178.5 364.5,-235.5 399.5,-235.5 399.5,-178.5 364.5,-178.5"/>
<text text-anchor="middle" x="382" y="-223.5" font-family="Helvetica,sans-Serif" font-size="10.00">bool</text>
<polyline fill="none" stroke="#bfbfbf" points="364.5,-216.5 399.5,-216.5 "/>
<text text-anchor="middle" x="382" y="-204.5" font-family="Helvetica,sans-Serif" font-size="10.00"> </text>
<polyline fill="none" stroke="#bfbfbf" points="364.5,-197.5 399.5,-197.5 "/>
<text text-anchor="middle" x="382" y="-185.5" font-family="Helvetica,sans-Serif" font-size="10.00"> </text>
</g>
<!-- Node5&#45;&gt;Node1 -->
<g id="edge4" class="edge"><title>Node5&#45;&gt;Node1</title>
<path fill="none" stroke="#404040" d="M382.439,-178.284C383.881,-163.433 387.676,-145.474 397,-132 406.356,-118.479 419.067,-106.92 432.69,-97.2352"/>
<polygon fill="none" stroke="#404040" points="432.763,-97.1863 435.525,-90.5251 442.736,-90.5127 439.974,-97.1739 432.763,-97.1863"/>
<text text-anchor="middle" x="443" y="-140.5" font-family="Helvetica,sans-Serif" font-size="10.00"> &#45;m_shouldTerminate</text>
</g>
<!-- Node6 -->
<g id="node6" class="node"><title>Node6</title>
<polygon fill="none" stroke="#bfbfbf" points="417.5,-173 417.5,-241 534.5,-241 534.5,-173 417.5,-173"/>
<text text-anchor="start" x="425.5" y="-229" font-family="Helvetica,sans-Serif" font-size="10.00">vector&lt; human::human</text>
<text text-anchor="middle" x="476" y="-218" font-family="Helvetica,sans-Serif" font-size="10.00">::LinkPairInfo &gt; &amp;</text>
<polyline fill="none" stroke="#bfbfbf" points="417.5,-211 534.5,-211 "/>
<text text-anchor="middle" x="476" y="-199" font-family="Helvetica,sans-Serif" font-size="10.00"> </text>
<polyline fill="none" stroke="#bfbfbf" points="417.5,-192 534.5,-192 "/>
<text text-anchor="middle" x="476" y="-180" font-family="Helvetica,sans-Serif" font-size="10.00"> </text>
</g>
<!-- Node6&#45;&gt;Node1 -->
<g id="edge5" class="edge"><title>Node6&#45;&gt;Node1</title>
<path fill="none" stroke="#404040" d="M487.334,-172.848C489.324,-166.616 491.299,-160.132 493,-154 495.6,-144.629 498.13,-134.684 500.494,-124.881"/>
<polygon fill="none" stroke="#404040" points="500.531,-124.723 498.016,-117.965 503.288,-113.044 505.803,-119.802 500.531,-124.723"/>
<text text-anchor="middle" x="528" y="-140.5" font-family="Helvetica,sans-Serif" font-size="10.00"> &#45;m_linkPairs</text>
</g>
<!-- Node7 -->
<g id="node7" class="node"><title>Node7</title>
<polygon fill="none" stroke="#bfbfbf" points="553,-173 553,-241 713,-241 713,-173 553,-173"/>
<text text-anchor="start" x="561" y="-229" font-family="Helvetica,sans-Serif" font-size="10.00">queue&lt; human::HumanIKWorker</text>
<text text-anchor="middle" x="633" y="-218" font-family="Helvetica,sans-Serif" font-size="10.00">Pool::WorkerTaskData &gt;</text>
<polyline fill="none" stroke="#bfbfbf" points="553,-211 713,-211 "/>
<text text-anchor="middle" x="633" y="-199" font-family="Helvetica,sans-Serif" font-size="10.00"> </text>
<polyline fill="none" stroke="#bfbfbf" points="553,-192 713,-192 "/>
<text text-anchor="middle" x="633" y="-180" font-family="Helvetica,sans-Serif" font-size="10.00"> </text>
</g>
<!-- Node7&#45;&gt;Node1 -->
<g id="edge6" class="edge"><title>Node7&#45;&gt;Node1</title>
<path fill="none" stroke="#404040" d="M606.518,-172.786C594.708,-157.973 580.369,-139.988 566.58,-122.693"/>
<polygon fill="none" stroke="#404040" points="566.476,-122.563 559.608,-120.365 558.995,-113.18 565.863,-115.378 566.476,-122.563"/>
<text text-anchor="middle" x="614" y="-140.5" font-family="Helvetica,sans-Serif" font-size="10.00"> &#45;m_tasks</text>
</g>
<!-- Node8 -->
<g id="node8" class="node"><title>Node8</title>
<polygon fill="none" stroke="#bfbfbf" points="731,-178.5 731,-235.5 787,-235.5 787,-178.5 731,-178.5"/>
<text text-anchor="middle" x="759" y="-223.5" font-family="Helvetica,sans-Serif" font-size="10.00">unsigned</text>
<polyline fill="none" stroke="#bfbfbf" points="731,-216.5 787,-216.5 "/>
<text text-anchor="middle" x="759" y="-204.5" font-family="Helvetica,sans-Serif" font-size="10.00"> </text>
<polyline fill="none" stroke="#bfbfbf" points="731,-197.5 787,-197.5 "/>
<text text-anchor="middle" x="759" y="-185.5" font-family="Helvetica,sans-Serif" font-size="10.00"> </text>
</g>
<!-- Node8&#45;&gt;Node1 -->
<g id="edge7" class="edge"><title>Node8&#45;&gt;Node1</title>
<path fill="none" stroke="#404040" d="M730.898,-178.929C727.97,-176.491 724.975,-174.139 722,-172 683.177,-144.091 636.801,-117.966 597.796,-97.7856"/>
<polygon fill="none" stroke="#404040" points="597.682,-97.7272 590.518,-98.5508 587.002,-92.2548 594.166,-91.4311 597.682,-97.7272"/>
<text text-anchor="middle" x="725" y="-140.5" font-family="Helvetica,sans-Serif" font-size="10.00"> &#45;m_poolSize</text>
</g>
<!-- Node9 -->
<g id="node9" class="node"><title>Node9</title>
<polygon fill="none" stroke="#bfbfbf" points="805,-178.5 805,-235.5 885,-235.5 885,-178.5 805,-178.5"/>
<text text-anchor="middle" x="845" y="-223.5" font-family="Helvetica,sans-Serif" font-size="10.00">vector&lt; bool &gt;</text>
<polyline fill="none" stroke="#bfbfbf" points="805,-216.5 885,-216.5 "/>
<text text-anchor="middle" x="845" y="-204.5" font-family="Helvetica,sans-Serif" font-size="10.00"> </text>
<polyline fill="none" stroke="#bfbfbf" points="805,-197.5 885,-197.5 "/>
<text text-anchor="middle" x="845" y="-185.5" font-family="Helvetica,sans-Serif" font-size="10.00"> </text>
</g>
<!-- Node9&#45;&gt;Node1 -->
<g id="edge8" class="edge"><title>Node9&#45;&gt;Node1</title>
<path fill="none" stroke="#404040" d="M818.582,-178.492C802.361,-162.963 780.445,-144.268 758,-132 708.308,-104.839 647.326,-86.3075 598.884,-74.5818"/>
<polygon fill="none" stroke="#404040" points="598.85,-74.5738 592.092,-77.0897 587.171,-71.8191 593.929,-69.3033 598.85,-74.5738"/>
<text text-anchor="middle" x="837.5" y="-140.5" font-family="Helvetica,sans-Serif" font-size="10.00"> &#45;m_terminateCounter</text>
</g>
<!-- Node10 -->
<g id="node10" class="node"><title>Node10</title>
<polygon fill="none" stroke="#bfbfbf" points="904.5,-173 904.5,-241 1017.5,-241 1017.5,-173 904.5,-173"/>
<text text-anchor="start" x="912.5" y="-229" font-family="Helvetica,sans-Serif" font-size="10.00">unordered_map&lt; long,</text>
<text text-anchor="middle" x="961" y="-218" font-family="Helvetica,sans-Serif" font-size="10.00"> bool &gt;</text>
<polyline fill="none" stroke="#bfbfbf" points="904.5,-211 1017.5,-211 "/>
<text text-anchor="middle" x="961" y="-199" font-family="Helvetica,sans-Serif" font-size="10.00"> </text>
<polyline fill="none" stroke="#bfbfbf" points="904.5,-192 1017.5,-192 "/>
<text text-anchor="middle" x="961" y="-180" font-family="Helvetica,sans-Serif" font-size="10.00"> </text>
</g>
<!-- Node10&#45;&gt;Node1 -->
<g id="edge9" class="edge"><title>Node10&#45;&gt;Node1</title>
<path fill="none" stroke="#404040" d="M936.349,-172.711C923.772,-158.041 907.275,-141.918 889,-132 798.024,-82.628 678.633,-65.9617 599.493,-60.4671"/>
<polygon fill="none" stroke="#404040" points="599.123,-60.4435 592.88,-64.0526 587.147,-59.6779 593.39,-56.0689 599.123,-60.4435"/>
<text text-anchor="middle" x="943.5" y="-140.5" font-family="Helvetica,sans-Serif" font-size="10.00"> &#45;m_results</text>
</g>
</g>
</svg>
