<?xml version="1.0" encoding="UTF-8" standalone="no"?>
<!DOCTYPE svg PUBLIC "-//W3C//DTD SVG 1.1//EN"
 "http://www.w3.org/Graphics/SVG/1.1/DTD/svg11.dtd">
<!-- Generated by graphviz version 2.36.0 (20140111.2315)
 -->
<!-- Title: geometry_msgs_TransformStamped Pages: 1 -->
<svg width="760pt" height="746pt"
 viewBox="0.00 0.00 759.79 746.00" xmlns="http://www.w3.org/2000/svg" xmlns:xlink="http://www.w3.org/1999/xlink">
<g id="graph0" class="graph" transform="scale(1 1) rotate(0) translate(4 742)">
<title>geometry_msgs_TransformStamped</title>
<!-- Node1 -->
<g id="node1" class="node"><title>Node1</title>
<polygon fill="#bfbfbf" stroke="black" points="295.794,-0.5 295.794,-167.5 485.794,-167.5 485.794,-0.5 295.794,-0.5"/>
<text text-anchor="middle" x="390.794" y="-155.5" font-family="Helvetica,sans-Serif" font-size="10.00">geometry_msgs_TransformStamped</text>
<polyline fill="none" stroke="black" points="295.794,-148.5 485.794,-148.5 "/>
<text text-anchor="middle" x="390.794" y="-136.5" font-family="Helvetica,sans-Serif" font-size="10.00"> </text>
<polyline fill="none" stroke="black" points="295.794,-129.5 485.794,-129.5 "/>
<text text-anchor="start" x="303.794" y="-117.5" font-family="Helvetica,sans-Serif" font-size="10.00">+ geometry_msgs_TransformStamped()</text>
<text text-anchor="start" x="303.794" y="-106.5" font-family="Helvetica,sans-Serif" font-size="10.00">+ clear()</text>
<text text-anchor="start" x="303.794" y="-95.5" font-family="Helvetica,sans-Serif" font-size="10.00">+ readBare()</text>
<text text-anchor="start" x="303.794" y="-84.5" font-family="Helvetica,sans-Serif" font-size="10.00">+ readBottle()</text>
<text text-anchor="start" x="303.794" y="-73.5" font-family="Helvetica,sans-Serif" font-size="10.00">+ read()</text>
<text text-anchor="start" x="303.794" y="-62.5" font-family="Helvetica,sans-Serif" font-size="10.00">+ writeBare()</text>
<text text-anchor="start" x="303.794" y="-51.5" font-family="Helvetica,sans-Serif" font-size="10.00">+ writeBottle()</text>
<text text-anchor="start" x="303.794" y="-40.5" font-family="Helvetica,sans-Serif" font-size="10.00">+ write()</text>
<text text-anchor="start" x="303.794" y="-29.5" font-family="Helvetica,sans-Serif" font-size="10.00">+ getTypeText()</text>
<text text-anchor="start" x="303.794" y="-18.5" font-family="Helvetica,sans-Serif" font-size="10.00">+ getType()</text>
<text text-anchor="start" x="303.794" y="-7.5" font-family="Helvetica,sans-Serif" font-size="10.00">and 10 more...</text>
</g>
<!-- Node2 -->
<g id="node2" class="node"><title>Node2</title>
<g id="a_node2"><a xlink:href="classyarp_1_1os_1_1idl_1_1_wire_portable.html" target="_top" xlink:title="{WirePortable\n||}">
<polygon fill="none" stroke="black" points="316.294,-680.5 316.294,-737.5 389.294,-737.5 389.294,-680.5 316.294,-680.5"/>
<text text-anchor="middle" x="352.794" y="-725.5" font-family="Helvetica,sans-Serif" font-size="10.00">WirePortable</text>
<polyline fill="none" stroke="black" points="316.294,-718.5 389.294,-718.5 "/>
<text text-anchor="middle" x="352.794" y="-706.5" font-family="Helvetica,sans-Serif" font-size="10.00"> </text>
<polyline fill="none" stroke="black" points="316.294,-699.5 389.294,-699.5 "/>
<text text-anchor="middle" x="352.794" y="-687.5" font-family="Helvetica,sans-Serif" font-size="10.00"> </text>
</a>
</g>
</g>
<!-- Node2&#45;&gt;Node1 -->
<g id="edge1" class="edge"><title>Node2&#45;&gt;Node1</title>
<path fill="none" stroke="midnightblue" d="M348.7,-669.781C349.704,-649.133 352.091,-623.188 353.794,-600 364.995,-447.518 373.71,-269.332 380.944,-167.567"/>
<polygon fill="none" stroke="midnightblue" points="345.192,-669.928 348.311,-680.053 352.187,-670.192 345.192,-669.928"/>
</g>
<!-- Node2&#45;&gt;Node1 -->
<g id="edge2" class="edge"><title>Node2&#45;&gt;Node1</title>
<path fill="none" stroke="midnightblue" d="M364.638,-670.065C367.682,-649.371 370.083,-623.295 371.794,-600 382.995,-447.518 391.71,-269.332 393.603,-167.567"/>
<polygon fill="none" stroke="midnightblue" points="361.164,-669.625 363.04,-680.053 368.076,-670.731 361.164,-669.625"/>
</g>
<!-- Node3 -->
<g id="node3" class="node"><title>Node3</title>
<g id="a_node3"><a xlink:href="classgeometry__msgs___transform.html" target="_top" xlink:title="{geometry_msgs_Transform\n||+ geometry_msgs_Transform()\l+ clear()\l+ readBare()\l+ readBottle()\l+ read()\l+ writeBare()\l+ writeBottle()\l+ write()\l+ getTypeText()\l+ getType()\land 10 more...\l}">
<polygon fill="none" stroke="black" points="43.2941,-216.5 43.2941,-383.5 194.294,-383.5 194.294,-216.5 43.2941,-216.5"/>
<text text-anchor="middle" x="118.794" y="-371.5" font-family="Helvetica,sans-Serif" font-size="10.00">geometry_msgs_Transform</text>
<polyline fill="none" stroke="black" points="43.2941,-364.5 194.294,-364.5 "/>
<text text-anchor="middle" x="118.794" y="-352.5" font-family="Helvetica,sans-Serif" font-size="10.00"> </text>
<polyline fill="none" stroke="black" points="43.2941,-345.5 194.294,-345.5 "/>
<text text-anchor="start" x="51.2941" y="-333.5" font-family="Helvetica,sans-Serif" font-size="10.00">+ geometry_msgs_Transform()</text>
<text text-anchor="start" x="51.2941" y="-322.5" font-family="Helvetica,sans-Serif" font-size="10.00">+ clear()</text>
<text text-anchor="start" x="51.2941" y="-311.5" font-family="Helvetica,sans-Serif" font-size="10.00">+ readBare()</text>
<text text-anchor="start" x="51.2941" y="-300.5" font-family="Helvetica,sans-Serif" font-size="10.00">+ readBottle()</text>
<text text-anchor="start" x="51.2941" y="-289.5" font-family="Helvetica,sans-Serif" font-size="10.00">+ read()</text>
<text text-anchor="start" x="51.2941" y="-278.5" font-family="Helvetica,sans-Serif" font-size="10.00">+ writeBare()</text>
<text text-anchor="start" x="51.2941" y="-267.5" font-family="Helvetica,sans-Serif" font-size="10.00">+ writeBottle()</text>
<text text-anchor="start" x="51.2941" y="-256.5" font-family="Helvetica,sans-Serif" font-size="10.00">+ write()</text>
<text text-anchor="start" x="51.2941" y="-245.5" font-family="Helvetica,sans-Serif" font-size="10.00">+ getTypeText()</text>
<text text-anchor="start" x="51.2941" y="-234.5" font-family="Helvetica,sans-Serif" font-size="10.00">+ getType()</text>
<text text-anchor="start" x="51.2941" y="-223.5" font-family="Helvetica,sans-Serif" font-size="10.00">and 10 more...</text>
</a>
</g>
</g>
<!-- Node2&#45;&gt;Node3 -->
<g id="edge4" class="edge"><title>Node2&#45;&gt;Node3</title>
<path fill="none" stroke="midnightblue" d="M306.08,-700.533C222.664,-685.293 54.4486,-647.96 23.7941,-600 -16.418,-537.087 2.40999,-503.539 23.7941,-432 28.7418,-415.448 36.5263,-399.047 45.5733,-383.741"/>
<polygon fill="none" stroke="midnightblue" points="305.598,-704.002 316.059,-702.323 306.834,-697.112 305.598,-704.002"/>
</g>
<!-- Node2&#45;&gt;Node3 -->
<g id="edge5" class="edge"><title>Node2&#45;&gt;Node3</title>
<path fill="none" stroke="midnightblue" d="M305.805,-698.408C226.218,-682.009 71.1084,-645.863 41.7941,-600 1.58201,-537.087 20.41,-503.539 41.7941,-432 46.7418,-415.448 54.5263,-399.047 63.2986,-383.741"/>
<polygon fill="none" stroke="midnightblue" points="305.552,-701.929 316.05,-700.497 306.951,-695.07 305.552,-701.929"/>
</g>
<!-- Node4 -->
<g id="node4" class="node"><title>Node4</title>
<g id="a_node4"><a xlink:href="classgeometry__msgs___quaternion.html" target="_top" xlink:title="{geometry_msgs_Quaternion\n||+ geometry_msgs_Quaternion()\l+ clear()\l+ readBare()\l+ readBottle()\l+ read()\l+ writeBare()\l+ writeBottle()\l+ write()\l+ getTypeText()\l+ getType()\land 10 more...\l}">
<polygon fill="none" stroke="black" points="41.7941,-432.5 41.7941,-599.5 195.794,-599.5 195.794,-432.5 41.7941,-432.5"/>
<text text-anchor="middle" x="118.794" y="-587.5" font-family="Helvetica,sans-Serif" font-size="10.00">geometry_msgs_Quaternion</text>
<polyline fill="none" stroke="black" points="41.7941,-580.5 195.794,-580.5 "/>
<text text-anchor="middle" x="118.794" y="-568.5" font-family="Helvetica,sans-Serif" font-size="10.00"> </text>
<polyline fill="none" stroke="black" points="41.7941,-561.5 195.794,-561.5 "/>
<text text-anchor="start" x="49.7941" y="-549.5" font-family="Helvetica,sans-Serif" font-size="10.00">+ geometry_msgs_Quaternion()</text>
<text text-anchor="start" x="49.7941" y="-538.5" font-family="Helvetica,sans-Serif" font-size="10.00">+ clear()</text>
<text text-anchor="start" x="49.7941" y="-527.5" font-family="Helvetica,sans-Serif" font-size="10.00">+ readBare()</text>
<text text-anchor="start" x="49.7941" y="-516.5" font-family="Helvetica,sans-Serif" font-size="10.00">+ readBottle()</text>
<text text-anchor="start" x="49.7941" y="-505.5" font-family="Helvetica,sans-Serif" font-size="10.00">+ read()</text>
<text text-anchor="start" x="49.7941" y="-494.5" font-family="Helvetica,sans-Serif" font-size="10.00">+ writeBare()</text>
<text text-anchor="start" x="49.7941" y="-483.5" font-family="Helvetica,sans-Serif" font-size="10.00">+ writeBottle()</text>
<text text-anchor="start" x="49.7941" y="-472.5" font-family="Helvetica,sans-Serif" font-size="10.00">+ write()</text>
<text text-anchor="start" x="49.7941" y="-461.5" font-family="Helvetica,sans-Serif" font-size="10.00">+ getTypeText()</text>
<text text-anchor="start" x="49.7941" y="-450.5" font-family="Helvetica,sans-Serif" font-size="10.00">+ getType()</text>
<text text-anchor="start" x="49.7941" y="-439.5" font-family="Helvetica,sans-Serif" font-size="10.00">and 10 more...</text>
</a>
</g>
</g>
<!-- Node2&#45;&gt;Node4 -->
<g id="edge7" class="edge"><title>Node2&#45;&gt;Node4</title>
<path fill="none" stroke="midnightblue" d="M307.428,-682.369C275.17,-661.301 231.626,-630.121 195.794,-600 195.635,-599.866 195.476,-599.733 195.317,-599.599"/>
<polygon fill="none" stroke="midnightblue" points="305.91,-685.555 316.211,-688.034 309.704,-679.673 305.91,-685.555"/>
</g>
<!-- Node2&#45;&gt;Node4 -->
<g id="edge8" class="edge"><title>Node2&#45;&gt;Node4</title>
<path fill="none" stroke="midnightblue" d="M310.792,-674.194C282.62,-653.68 245.238,-626.432 213.794,-600 207.917,-595.06 201.943,-589.814 195.994,-584.454"/>
<polygon fill="none" stroke="midnightblue" points="309.079,-677.277 319.223,-680.336 313.201,-671.619 309.079,-677.277"/>
</g>
<!-- Node6 -->
<g id="node6" class="node"><title>Node6</title>
<g id="a_node6"><a xlink:href="classgeometry__msgs___vector3.html" target="_top" xlink:title="{geometry_msgs_Vector3\n||+ geometry_msgs_Vector3()\l+ clear()\l+ readBare()\l+ readBottle()\l+ read()\l+ writeBare()\l+ writeBottle()\l+ write()\l+ getTypeText()\l+ getType()\land 10 more...\l}">
<polygon fill="none" stroke="black" points="213.794,-432.5 213.794,-599.5 353.794,-599.5 353.794,-432.5 213.794,-432.5"/>
<text text-anchor="middle" x="283.794" y="-587.5" font-family="Helvetica,sans-Serif" font-size="10.00">geometry_msgs_Vector3</text>
<polyline fill="none" stroke="black" points="213.794,-580.5 353.794,-580.5 "/>
<text text-anchor="middle" x="283.794" y="-568.5" font-family="Helvetica,sans-Serif" font-size="10.00"> </text>
<polyline fill="none" stroke="black" points="213.794,-561.5 353.794,-561.5 "/>
<text text-anchor="start" x="221.794" y="-549.5" font-family="Helvetica,sans-Serif" font-size="10.00">+ geometry_msgs_Vector3()</text>
<text text-anchor="start" x="221.794" y="-538.5" font-family="Helvetica,sans-Serif" font-size="10.00">+ clear()</text>
<text text-anchor="start" x="221.794" y="-527.5" font-family="Helvetica,sans-Serif" font-size="10.00">+ readBare()</text>
<text text-anchor="start" x="221.794" y="-516.5" font-family="Helvetica,sans-Serif" font-size="10.00">+ readBottle()</text>
<text text-anchor="start" x="221.794" y="-505.5" font-family="Helvetica,sans-Serif" font-size="10.00">+ read()</text>
<text text-anchor="start" x="221.794" y="-494.5" font-family="Helvetica,sans-Serif" font-size="10.00">+ writeBare()</text>
<text text-anchor="start" x="221.794" y="-483.5" font-family="Helvetica,sans-Serif" font-size="10.00">+ writeBottle()</text>
<text text-anchor="start" x="221.794" y="-472.5" font-family="Helvetica,sans-Serif" font-size="10.00">+ write()</text>
<text text-anchor="start" x="221.794" y="-461.5" font-family="Helvetica,sans-Serif" font-size="10.00">+ getTypeText()</text>
<text text-anchor="start" x="221.794" y="-450.5" font-family="Helvetica,sans-Serif" font-size="10.00">+ getType()</text>
<text text-anchor="start" x="221.794" y="-439.5" font-family="Helvetica,sans-Serif" font-size="10.00">and 10 more...</text>
</a>
</g>
</g>
<!-- Node2&#45;&gt;Node6 -->
<g id="edge11" class="edge"><title>Node2&#45;&gt;Node6</title>
<path fill="none" stroke="midnightblue" d="M333.864,-670.764C325.522,-650.5 315.749,-624.571 307.01,-599.802"/>
<polygon fill="none" stroke="midnightblue" points="330.737,-672.359 337.833,-680.227 337.192,-669.651 330.737,-672.359"/>
</g>
<!-- Node2&#45;&gt;Node6 -->
<g id="edge12" class="edge"><title>Node2&#45;&gt;Node6</title>
<path fill="none" stroke="midnightblue" d="M344.735,-670.487C338.44,-650.264 329.519,-624.458 320.404,-599.802"/>
<polygon fill="none" stroke="midnightblue" points="341.437,-671.673 347.689,-680.227 348.136,-669.642 341.437,-671.673"/>
</g>
<!-- Node7 -->
<g id="node7" class="node"><title>Node7</title>
<g id="a_node7"><a xlink:href="classstd__msgs___header.html" target="_top" xlink:title="{std_msgs_Header\n||+ std_msgs_Header()\l+ clear()\l+ readBare()\l+ readBottle()\l+ read()\l+ writeBare()\l+ writeBottle()\l+ write()\l+ getTypeText()\l+ getType()\land 10 more...\l}">
<polygon fill="none" stroke="black" points="495.294,-216.5 495.294,-383.5 606.294,-383.5 606.294,-216.5 495.294,-216.5"/>
<text text-anchor="middle" x="550.794" y="-371.5" font-family="Helvetica,sans-Serif" font-size="10.00">std_msgs_Header</text>
<polyline fill="none" stroke="black" points="495.294,-364.5 606.294,-364.5 "/>
<text text-anchor="middle" x="550.794" y="-352.5" font-family="Helvetica,sans-Serif" font-size="10.00"> </text>
<polyline fill="none" stroke="black" points="495.294,-345.5 606.294,-345.5 "/>
<text text-anchor="start" x="503.294" y="-333.5" font-family="Helvetica,sans-Serif" font-size="10.00">+ std_msgs_Header()</text>
<text text-anchor="start" x="503.294" y="-322.5" font-family="Helvetica,sans-Serif" font-size="10.00">+ clear()</text>
<text text-anchor="start" x="503.294" y="-311.5" font-family="Helvetica,sans-Serif" font-size="10.00">+ readBare()</text>
<text text-anchor="start" x="503.294" y="-300.5" font-family="Helvetica,sans-Serif" font-size="10.00">+ readBottle()</text>
<text text-anchor="start" x="503.294" y="-289.5" font-family="Helvetica,sans-Serif" font-size="10.00">+ read()</text>
<text text-anchor="start" x="503.294" y="-278.5" font-family="Helvetica,sans-Serif" font-size="10.00">+ writeBare()</text>
<text text-anchor="start" x="503.294" y="-267.5" font-family="Helvetica,sans-Serif" font-size="10.00">+ writeBottle()</text>
<text text-anchor="start" x="503.294" y="-256.5" font-family="Helvetica,sans-Serif" font-size="10.00">+ write()</text>
<text text-anchor="start" x="503.294" y="-245.5" font-family="Helvetica,sans-Serif" font-size="10.00">+ getTypeText()</text>
<text text-anchor="start" x="503.294" y="-234.5" font-family="Helvetica,sans-Serif" font-size="10.00">+ getType()</text>
<text text-anchor="start" x="503.294" y="-223.5" font-family="Helvetica,sans-Serif" font-size="10.00">and 10 more...</text>
</a>
</g>
</g>
<!-- Node2&#45;&gt;Node7 -->
<g id="edge15" class="edge"><title>Node2&#45;&gt;Node7</title>
<path fill="none" stroke="midnightblue" d="M399.135,-690.59C437.828,-674.268 490.125,-645.46 513.794,-600 548.586,-533.177 553.022,-446.527 551.905,-383.724"/>
<polygon fill="none" stroke="midnightblue" points="397.554,-687.455 389.617,-694.473 400.198,-693.936 397.554,-687.455"/>
</g>
<!-- Node2&#45;&gt;Node7 -->
<g id="edge16" class="edge"><title>Node2&#45;&gt;Node7</title>
<path fill="none" stroke="midnightblue" d="M399.182,-695.912C442.924,-680.914 505.297,-650.891 531.794,-600 566.586,-533.177 571.022,-446.527 566.668,-383.724"/>
<polygon fill="none" stroke="midnightblue" points="398.008,-692.614 389.6,-699.06 400.193,-699.264 398.008,-692.614"/>
</g>
<!-- Node8 -->
<g id="node8" class="node"><title>Node8</title>
<g id="a_node8"><a xlink:href="class_tick_time.html" target="_top" xlink:title="{TickTime\n||+ TickTime()\l+ clear()\l+ readBare()\l+ readBottle()\l+ read()\l+ writeBare()\l+ writeBottle()\l+ write()\l+ getTypeText()\l+ getType()\land 10 more...\l}">
<polygon fill="none" stroke="black" points="427.794,-432.5 427.794,-599.5 513.794,-599.5 513.794,-432.5 427.794,-432.5"/>
<text text-anchor="middle" x="470.794" y="-587.5" font-family="Helvetica,sans-Serif" font-size="10.00">TickTime</text>
<polyline fill="none" stroke="black" points="427.794,-580.5 513.794,-580.5 "/>
<text text-anchor="middle" x="470.794" y="-568.5" font-family="Helvetica,sans-Serif" font-size="10.00"> </text>
<polyline fill="none" stroke="black" points="427.794,-561.5 513.794,-561.5 "/>
<text text-anchor="start" x="435.794" y="-549.5" font-family="Helvetica,sans-Serif" font-size="10.00">+ TickTime()</text>
<text text-anchor="start" x="435.794" y="-538.5" font-family="Helvetica,sans-Serif" font-size="10.00">+ clear()</text>
<text text-anchor="start" x="435.794" y="-527.5" font-family="Helvetica,sans-Serif" font-size="10.00">+ readBare()</text>
<text text-anchor="start" x="435.794" y="-516.5" font-family="Helvetica,sans-Serif" font-size="10.00">+ readBottle()</text>
<text text-anchor="start" x="435.794" y="-505.5" font-family="Helvetica,sans-Serif" font-size="10.00">+ read()</text>
<text text-anchor="start" x="435.794" y="-494.5" font-family="Helvetica,sans-Serif" font-size="10.00">+ writeBare()</text>
<text text-anchor="start" x="435.794" y="-483.5" font-family="Helvetica,sans-Serif" font-size="10.00">+ writeBottle()</text>
<text text-anchor="start" x="435.794" y="-472.5" font-family="Helvetica,sans-Serif" font-size="10.00">+ write()</text>
<text text-anchor="start" x="435.794" y="-461.5" font-family="Helvetica,sans-Serif" font-size="10.00">+ getTypeText()</text>
<text text-anchor="start" x="435.794" y="-450.5" font-family="Helvetica,sans-Serif" font-size="10.00">+ getType()</text>
<text text-anchor="start" x="435.794" y="-439.5" font-family="Helvetica,sans-Serif" font-size="10.00">and 10 more...</text>
</a>
</g>
</g>
<!-- Node2&#45;&gt;Node8 -->
<g id="edge18" class="edge"><title>Node2&#45;&gt;Node8</title>
<path fill="none" stroke="midnightblue" d="M394.444,-673.583C398.186,-669.928 401.714,-666.055 404.794,-662 418.783,-643.584 429.786,-621.295 438.572,-599.774"/>
<polygon fill="none" stroke="midnightblue" points="392.074,-671.007 387.045,-680.333 396.792,-676.179 392.074,-671.007"/>
</g>
<!-- Node2&#45;&gt;Node8 -->
<g id="edge19" class="edge"><title>Node2&#45;&gt;Node8</title>
<path fill="none" stroke="midnightblue" d="M397.885,-685.676C407.124,-678.917 416.037,-670.895 422.794,-662 436.783,-643.584 447.786,-621.295 455.901,-599.774"/>
<polygon fill="none" stroke="midnightblue" points="395.63,-682.978 389.36,-691.517 399.587,-688.752 395.63,-682.978"/>
</g>
<!-- Node3&#45;&gt;Node1 -->
<g id="edge3" class="edge"><title>Node3&#45;&gt;Node1</title>
<path fill="none" stroke="#404040" d="M194.561,-239.389C222.788,-217.181 255.352,-191.561 285.74,-167.653"/>
<polygon fill="none" stroke="#404040" points="286.09,-167.377 288.333,-160.524 295.521,-159.957 293.279,-166.811 286.09,-167.377"/>
<text text-anchor="middle" x="280.294" y="-189.5" font-family="Helvetica,sans-Serif" font-size="10.00"> +transform</text>
</g>
<!-- Node4&#45;&gt;Node3 -->
<g id="edge6" class="edge"><title>Node4&#45;&gt;Node3</title>
<path fill="none" stroke="#404040" d="M118.794,-432.262C118.794,-420.265 118.794,-407.839 118.794,-395.63"/>
<polygon fill="none" stroke="#404040" points="118.794,-395.518 114.794,-389.518 118.794,-383.518 122.794,-389.518 118.794,-395.518"/>
<text text-anchor="middle" x="139.794" y="-405.5" font-family="Helvetica,sans-Serif" font-size="10.00"> +rotation</text>
</g>
<!-- Node5 -->
<g id="node5" class="node"><title>Node5</title>
<polygon fill="none" stroke="#bfbfbf" points="101.294,-680.5 101.294,-737.5 166.294,-737.5 166.294,-680.5 101.294,-680.5"/>
<text text-anchor="middle" x="133.794" y="-725.5" font-family="Helvetica,sans-Serif" font-size="10.00">NetFloat64</text>
<polyline fill="none" stroke="#bfbfbf" points="101.294,-718.5 166.294,-718.5 "/>
<text text-anchor="middle" x="133.794" y="-706.5" font-family="Helvetica,sans-Serif" font-size="10.00"> </text>
<polyline fill="none" stroke="#bfbfbf" points="101.294,-699.5 166.294,-699.5 "/>
<text text-anchor="middle" x="133.794" y="-687.5" font-family="Helvetica,sans-Serif" font-size="10.00"> </text>
</g>
<!-- Node5&#45;&gt;Node4 -->
<g id="edge9" class="edge"><title>Node5&#45;&gt;Node4</title>
<path fill="none" stroke="#404040" d="M131.613,-680.227C130.182,-662 128.217,-636.991 126.257,-612.025"/>
<polygon fill="none" stroke="#404040" points="126.237,-611.765 121.779,-606.097 125.297,-599.802 129.754,-605.471 126.237,-611.765"/>
<text text-anchor="middle" x="139.294" y="-654" font-family="Helvetica,sans-Serif" font-size="10.00"> +w</text>
<text text-anchor="middle" x="139.294" y="-643" font-family="Helvetica,sans-Serif" font-size="10.00">+x</text>
<text text-anchor="middle" x="139.294" y="-632" font-family="Helvetica,sans-Serif" font-size="10.00">+y</text>
<text text-anchor="middle" x="139.294" y="-621" font-family="Helvetica,sans-Serif" font-size="10.00">+z</text>
</g>
<!-- Node5&#45;&gt;Node6 -->
<g id="edge13" class="edge"><title>Node5&#45;&gt;Node6</title>
<path fill="none" stroke="#404040" d="M155.605,-680.227C170.441,-661.337 190.996,-635.163 211.306,-609.302"/>
<polygon fill="none" stroke="#404040" points="211.354,-609.24 211.914,-602.05 218.766,-599.802 218.206,-606.992 211.354,-609.24"/>
<text text-anchor="middle" x="212.294" y="-648.5" font-family="Helvetica,sans-Serif" font-size="10.00"> +x</text>
<text text-anchor="middle" x="212.294" y="-637.5" font-family="Helvetica,sans-Serif" font-size="10.00">+y</text>
<text text-anchor="middle" x="212.294" y="-626.5" font-family="Helvetica,sans-Serif" font-size="10.00">+z</text>
</g>
<!-- Node6&#45;&gt;Node3 -->
<g id="edge10" class="edge"><title>Node6&#45;&gt;Node3</title>
<path fill="none" stroke="#404040" d="M220.001,-432.262C210.173,-419.515 199.971,-406.284 189.994,-393.344"/>
<polygon fill="none" stroke="#404040" points="189.745,-393.021 182.914,-390.712 182.418,-383.518 189.249,-385.827 189.745,-393.021"/>
<text text-anchor="middle" x="229.294" y="-405.5" font-family="Helvetica,sans-Serif" font-size="10.00"> +translation</text>
</g>
<!-- Node7&#45;&gt;Node1 -->
<g id="edge14" class="edge"><title>Node7&#45;&gt;Node1</title>
<path fill="none" stroke="#404040" d="M495.283,-224.754C483.847,-209.458 471.672,-193.174 459.825,-177.328"/>
<polygon fill="none" stroke="#404040" points="459.685,-177.142 452.889,-174.732 452.5,-167.531 459.296,-169.941 459.685,-177.142"/>
<text text-anchor="middle" x="490.294" y="-189.5" font-family="Helvetica,sans-Serif" font-size="10.00"> +header</text>
</g>
<!-- Node8&#45;&gt;Node7 -->
<g id="edge17" class="edge"><title>Node8&#45;&gt;Node7</title>
<path fill="none" stroke="#404040" d="M481.853,-432.293C484.277,-421.94 487.222,-411.618 490.794,-402 491.682,-399.61 492.626,-397.213 493.618,-394.814"/>
<polygon fill="none" stroke="#404040" points="493.724,-394.576 492.502,-387.469 498.591,-383.607 499.814,-390.714 493.724,-394.576"/>
<text text-anchor="middle" x="509.294" y="-405.5" font-family="Helvetica,sans-Serif" font-size="10.00"> +stamp</text>
</g>
<!-- Node9 -->
<g id="node9" class="node"><title>Node9</title>
<polygon fill="none" stroke="#bfbfbf" points="553.294,-680.5 553.294,-737.5 614.294,-737.5 614.294,-680.5 553.294,-680.5"/>
<text text-anchor="middle" x="583.794" y="-725.5" font-family="Helvetica,sans-Serif" font-size="10.00">NetUint32</text>
<polyline fill="none" stroke="#bfbfbf" points="553.294,-718.5 614.294,-718.5 "/>
<text text-anchor="middle" x="583.794" y="-706.5" font-family="Helvetica,sans-Serif" font-size="10.00"> </text>
<polyline fill="none" stroke="#bfbfbf" points="553.294,-699.5 614.294,-699.5 "/>
<text text-anchor="middle" x="583.794" y="-687.5" font-family="Helvetica,sans-Serif" font-size="10.00"> </text>
</g>
<!-- Node9&#45;&gt;Node7 -->
<g id="edge21" class="edge"><title>Node9&#45;&gt;Node7</title>
<path fill="none" stroke="#404040" d="M587.295,-680.309C587.919,-674.284 588.472,-667.936 588.794,-662 589.852,-642.473 589.472,-637.544 588.794,-618 585.459,-521.827 587.853,-497.199 573.794,-402 573.492,-399.951 573.17,-397.883 572.831,-395.8"/>
<polygon fill="none" stroke="#404040" points="572.792,-395.578 567.817,-390.358 570.721,-383.758 575.697,-388.977 572.792,-395.578"/>
<text text-anchor="middle" x="601.294" y="-513.5" font-family="Helvetica,sans-Serif" font-size="10.00"> +seq</text>
</g>
<!-- Node9&#45;&gt;Node8 -->
<g id="edge20" class="edge"><title>Node9&#45;&gt;Node8</title>
<path fill="none" stroke="#404040" d="M567.363,-680.227C554.879,-659.125 537.017,-628.934 520.043,-600.244"/>
<polygon fill="none" stroke="#404040" points="519.952,-600.089 513.454,-596.962 513.841,-589.761 520.339,-592.888 519.952,-600.089"/>
<text text-anchor="middle" x="570.794" y="-643" font-family="Helvetica,sans-Serif" font-size="10.00"> +sec</text>
<text text-anchor="middle" x="570.794" y="-632" font-family="Helvetica,sans-Serif" font-size="10.00">+nsec</text>
</g>
<!-- Node10 -->
<g id="node10" class="node"><title>Node10</title>
<polygon fill="none" stroke="#bfbfbf" points="664.294,-487.5 664.294,-544.5 705.294,-544.5 705.294,-487.5 664.294,-487.5"/>
<text text-anchor="middle" x="684.794" y="-532.5" font-family="Helvetica,sans-Serif" font-size="10.00">string</text>
<polyline fill="none" stroke="#bfbfbf" points="664.294,-525.5 705.294,-525.5 "/>
<text text-anchor="middle" x="684.794" y="-513.5" font-family="Helvetica,sans-Serif" font-size="10.00"> </text>
<polyline fill="none" stroke="#bfbfbf" points="664.294,-506.5 705.294,-506.5 "/>
<text text-anchor="middle" x="684.794" y="-494.5" font-family="Helvetica,sans-Serif" font-size="10.00"> </text>
</g>
<!-- Node10&#45;&gt;Node1 -->
<g id="edge23" class="edge"><title>Node10&#45;&gt;Node1</title>
<path fill="none" stroke="#404040" d="M685.809,-487.313C686.444,-430.201 680.209,-297.827 614.794,-216 583.999,-177.479 538.581,-147.948 496.677,-126.762"/>
<polygon fill="none" stroke="#404040" points="496.591,-126.72 489.441,-127.658 485.826,-121.419 492.976,-120.481 496.591,-126.72"/>
<text text-anchor="middle" x="715.294" y="-297.5" font-family="Helvetica,sans-Serif" font-size="10.00"> +child_frame_id</text>
</g>
<!-- Node10&#45;&gt;Node7 -->
<g id="edge22" class="edge"><title>Node10&#45;&gt;Node7</title>
<path fill="none" stroke="#404040" d="M668.588,-487.426C654.985,-464.438 634.923,-430.9 616.794,-402 615.079,-399.266 613.332,-396.496 611.562,-393.703"/>
<polygon fill="none" stroke="#404040" points="611.521,-393.638 604.923,-390.727 605.073,-383.518 611.67,-386.429 611.521,-393.638"/>
<text text-anchor="middle" x="646.294" y="-405.5" font-family="Helvetica,sans-Serif" font-size="10.00"> +frame_id</text>
</g>
</g>
</svg>
