<?xml version="1.0" encoding="UTF-8" standalone="no"?>
<!DOCTYPE svg PUBLIC "-//W3C//DTD SVG 1.1//EN"
 "http://www.w3.org/Graphics/SVG/1.1/DTD/svg11.dtd">
<!-- Generated by graphviz version 2.36.0 (20140111.2315)
 -->
<!-- Title: StateExtendedInputPort Pages: 1 -->
<!--zoomable 818 -->
<svg id="main" version="1.1" xmlns="http://www.w3.org/2000/svg" xmlns:xlink="http://www.w3.org/1999/xlink" xml:space="preserve" onload="init(evt)">
<style type="text/css"><![CDATA[
.edge:hover path { stroke: red; }
.edge:hover polygon { stroke: red; fill: red; }
]]></style>
<script type="text/javascript"><![CDATA[
var edges = document.getElementsByTagName('g');
if (edges && edges.length) {
  for (var i=0;i<edges.length;i++) {
    if (edges[i].id.substr(0,4)=='edge') {
      edges[i].setAttribute('class','edge');
    }
  }
}
]]></script>
        <defs>
                <circle id="rim" cx="0" cy="0" r="7"/>
                <circle id="rim2" cx="0" cy="0" r="3.5"/>
                <g id="zoomPlus">
                        <use xlink:href="#rim" fill="#404040">
                                <set attributeName="fill" to="#808080" begin="zoomplus.mouseover" end="zoomplus.mouseout"/>
                        </use>
                        <path d="M-4,0h8M0,-4v8" fill="none" stroke="white" stroke-width="1.5" pointer-events="none"/>
                </g>
                <g id="zoomMin">
                        <use xlink:href="#rim" fill="#404040">
                                <set attributeName="fill" to="#808080" begin="zoomminus.mouseover" end="zoomminus.mouseout"/>
                        </use>
                        <path d="M-4,0h8" fill="none" stroke="white" stroke-width="1.5" pointer-events="none"/>
                </g>
                <g id="dirArrow">
                        <path fill="none" stroke="white" stroke-width="1.5" d="M0,-3.0v7 M-2.5,-0.5L0,-3.0L2.5,-0.5"/>
                </g>
               <g id="resetDef">
                       <use xlink:href="#rim2" fill="#404040">
                               <set attributeName="fill" to="#808080" begin="reset.mouseover" end="reset.mouseout"/>
                       </use>
               </g>
        </defs>

<script type="text/javascript">
var viewWidth = 710;
var viewHeight = 818;
var sectionId = 'dynsection-1';
</script>
<script xlink:href="svgpan.js"/>
<svg id="graph" class="graph">
<g id="viewport">
<title>StateExtendedInputPort</title>
<!-- Node1 -->
<g id="node1" class="node"><title>Node1</title>
<polygon fill="#bfbfbf" stroke="black" points="228,-1 228,-157 364,-157 364,-1 228,-1"/>
<text text-anchor="middle" x="296" y="-145" font-family="Helvetica,sans-Serif" font-size="10.00">StateExtendedInputPort</text>
<polyline fill="none" stroke="black" points="228,-138 364,-138 "/>
<text text-anchor="middle" x="296" y="-126" font-family="Helvetica,sans-Serif" font-size="10.00"> </text>
<polyline fill="none" stroke="black" points="228,-119 364,-119 "/>
<text text-anchor="start" x="236" y="-107" font-family="Helvetica,sans-Serif" font-size="10.00">+ StateExtendedInputPort()</text>
<text text-anchor="start" x="236" y="-96" font-family="Helvetica,sans-Serif" font-size="10.00">+ resetStat()</text>
<text text-anchor="start" x="236" y="-85" font-family="Helvetica,sans-Serif" font-size="10.00">+ init()</text>
<text text-anchor="start" x="236" y="-74" font-family="Helvetica,sans-Serif" font-size="10.00">+ onRead()</text>
<text text-anchor="start" x="236" y="-63" font-family="Helvetica,sans-Serif" font-size="10.00">+ getLastSingle()</text>
<text text-anchor="start" x="236" y="-52" font-family="Helvetica,sans-Serif" font-size="10.00">+ getLastSingle()</text>
<text text-anchor="start" x="236" y="-41" font-family="Helvetica,sans-Serif" font-size="10.00">+ getLastVector()</text>
<text text-anchor="start" x="236" y="-30" font-family="Helvetica,sans-Serif" font-size="10.00">+ getLastVector()</text>
<text text-anchor="start" x="236" y="-19" font-family="Helvetica,sans-Serif" font-size="10.00">+ getIterations()</text>
<text text-anchor="start" x="236" y="-8" font-family="Helvetica,sans-Serif" font-size="10.00">+ getEstFrequency()</text>
</g>
<!-- Node2 -->
<g id="node2" class="node"><title>Node2</title>
<g id="a_node2"><a xlink:href="classyarp_1_1os_1_1_buffered_port.html" target="_top" xlink:title="{yarp::os::BufferedPort\l\&lt; jointData \&gt;\n||}">
<polygon fill="none" stroke="black" points="-0.5,-372 -0.5,-440 112.5,-440 112.5,-372 -0.5,-372"/>
<text text-anchor="start" x="7.5" y="-428" font-family="Helvetica,sans-Serif" font-size="10.00">yarp::os::BufferedPort</text>
<text text-anchor="middle" x="56" y="-417" font-family="Helvetica,sans-Serif" font-size="10.00">&lt; jointData &gt;</text>
<polyline fill="none" stroke="black" points="-0.5,-410 112.5,-410 "/>
<text text-anchor="middle" x="56" y="-398" font-family="Helvetica,sans-Serif" font-size="10.00"> </text>
<polyline fill="none" stroke="black" points="-0.5,-391 112.5,-391 "/>
<text text-anchor="middle" x="56" y="-379" font-family="Helvetica,sans-Serif" font-size="10.00"> </text>
</a>
</g>
</g>
<!-- Node2&#45;&gt;Node1 -->
<g id="edge1" class="edge"><title>Node2&#45;&gt;Node1</title>
<path fill="none" stroke="midnightblue" d="M67.2783,-361.904C81.9586,-312.451 111.617,-231.099 160,-176 179.26,-154.066 204.492,-134.497 227.985,-118.84"/>
<polygon fill="none" stroke="midnightblue" points="63.8753,-361.073 64.4562,-371.651 70.5991,-363.019 63.8753,-361.073"/>
</g>
<!-- Node3 -->
<g id="node3" class="node"><title>Node3</title>
<polygon fill="none" stroke="#bfbfbf" points="130.5,-377.5 130.5,-434.5 175.5,-434.5 175.5,-377.5 130.5,-377.5"/>
<text text-anchor="middle" x="153" y="-422.5" font-family="Helvetica,sans-Serif" font-size="10.00">double</text>
<polyline fill="none" stroke="#bfbfbf" points="130.5,-415.5 175.5,-415.5 "/>
<text text-anchor="middle" x="153" y="-403.5" font-family="Helvetica,sans-Serif" font-size="10.00"> </text>
<polyline fill="none" stroke="#bfbfbf" points="130.5,-396.5 175.5,-396.5 "/>
<text text-anchor="middle" x="153" y="-384.5" font-family="Helvetica,sans-Serif" font-size="10.00"> </text>
</g>
<!-- Node3&#45;&gt;Node1 -->
<g id="edge2" class="edge"><title>Node3&#45;&gt;Node1</title>
<path fill="none" stroke="#404040" d="M150.665,-377.336C148.13,-332.243 148.427,-241.37 184,-176 192.736,-159.946 205.306,-145.382 218.892,-132.725"/>
<polygon fill="none" stroke="#404040" points="218.968,-132.658 220.796,-125.683 227.938,-124.687 226.11,-131.663 218.968,-132.658"/>
<text text-anchor="middle" x="208.5" y="-223.5" font-family="Helvetica,sans-Serif" font-size="10.00"> &#45;now</text>
<text text-anchor="middle" x="208.5" y="-212.5" font-family="Helvetica,sans-Serif" font-size="10.00">&#45;deltaTMin</text>
<text text-anchor="middle" x="208.5" y="-201.5" font-family="Helvetica,sans-Serif" font-size="10.00">&#45;deltaT</text>
<text text-anchor="middle" x="208.5" y="-190.5" font-family="Helvetica,sans-Serif" font-size="10.00">&#45;prev</text>
<text text-anchor="middle" x="208.5" y="-179.5" font-family="Helvetica,sans-Serif" font-size="10.00">&#45;deltaTMax</text>
</g>
<!-- Node4 -->
<g id="node4" class="node"><title>Node4</title>
<polygon fill="none" stroke="#bfbfbf" points="194,-377.5 194,-434.5 260,-434.5 260,-377.5 194,-377.5"/>
<text text-anchor="middle" x="227" y="-422.5" font-family="Helvetica,sans-Serif" font-size="10.00">Semaphore</text>
<polyline fill="none" stroke="#bfbfbf" points="194,-415.5 260,-415.5 "/>
<text text-anchor="middle" x="227" y="-403.5" font-family="Helvetica,sans-Serif" font-size="10.00"> </text>
<polyline fill="none" stroke="#bfbfbf" points="194,-396.5 260,-396.5 "/>
<text text-anchor="middle" x="227" y="-384.5" font-family="Helvetica,sans-Serif" font-size="10.00"> </text>
</g>
<!-- Node4&#45;&gt;Node1 -->
<g id="edge3" class="edge"><title>Node4&#45;&gt;Node1</title>
<path fill="none" stroke="#404040" d="M226.269,-377.256C225.841,-333.567 227.927,-246.456 248,-176 248.698,-173.55 249.458,-171.088 250.273,-168.622"/>
<polygon fill="none" stroke="#404040" points="250.363,-168.37 248.641,-161.368 254.442,-157.084 256.164,-164.086 250.363,-168.37"/>
<text text-anchor="middle" x="265" y="-201.5" font-family="Helvetica,sans-Serif" font-size="10.00"> &#45;mutex</text>
</g>
<!-- Node5 -->
<g id="node5" class="node"><title>Node5</title>
<g id="a_node5"><a xlink:href="classjoint_data.html" target="_top" xlink:title="{jointData\n||+ jointData()\l+ jointData()\l+ jointData()\l+ operator=()\l+ read()\l+ read()\l+ write()\l+ write()\l+ toString()\l&#45; write_jointPosition()\l&#45; nested_write_jointPosition()\l&#45; write_jointPosition\l_isValid()\l&#45; nested_write_jointPosition\l_isValid()\l&#45; write_jointVelocity()\l&#45; nested_write_jointVelocity()\l&#45; write_jointVelocity\l_isValid()\l&#45; nested_write_jointVelocity\l_isValid()\l&#45; write_jointAcceleration()\l&#45; nested_write_jointAcceleration()\land 70 more...\l}">
<polygon fill="none" stroke="black" points="341.5,-251 341.5,-561 502.5,-561 502.5,-251 341.5,-251"/>
<text text-anchor="middle" x="422" y="-549" font-family="Helvetica,sans-Serif" font-size="10.00">jointData</text>
<polyline fill="none" stroke="black" points="341.5,-542 502.5,-542 "/>
<text text-anchor="middle" x="422" y="-530" font-family="Helvetica,sans-Serif" font-size="10.00"> </text>
<polyline fill="none" stroke="black" points="341.5,-523 502.5,-523 "/>
<text text-anchor="start" x="349.5" y="-511" font-family="Helvetica,sans-Serif" font-size="10.00">+ jointData()</text>
<text text-anchor="start" x="349.5" y="-500" font-family="Helvetica,sans-Serif" font-size="10.00">+ jointData()</text>
<text text-anchor="start" x="349.5" y="-489" font-family="Helvetica,sans-Serif" font-size="10.00">+ jointData()</text>
<text text-anchor="start" x="349.5" y="-478" font-family="Helvetica,sans-Serif" font-size="10.00">+ operator=()</text>
<text text-anchor="start" x="349.5" y="-467" font-family="Helvetica,sans-Serif" font-size="10.00">+ read()</text>
<text text-anchor="start" x="349.5" y="-456" font-family="Helvetica,sans-Serif" font-size="10.00">+ read()</text>
<text text-anchor="start" x="349.5" y="-445" font-family="Helvetica,sans-Serif" font-size="10.00">+ write()</text>
<text text-anchor="start" x="349.5" y="-434" font-family="Helvetica,sans-Serif" font-size="10.00">+ write()</text>
<text text-anchor="start" x="349.5" y="-423" font-family="Helvetica,sans-Serif" font-size="10.00">+ toString()</text>
<text text-anchor="start" x="349.5" y="-412" font-family="Helvetica,sans-Serif" font-size="10.00">&#45; write_jointPosition()</text>
<text text-anchor="start" x="349.5" y="-401" font-family="Helvetica,sans-Serif" font-size="10.00">&#45; nested_write_jointPosition()</text>
<text text-anchor="start" x="349.5" y="-390" font-family="Helvetica,sans-Serif" font-size="10.00">&#45; write_jointPosition</text>
<text text-anchor="start" x="349.5" y="-379" font-family="Helvetica,sans-Serif" font-size="10.00">_isValid()</text>
<text text-anchor="start" x="349.5" y="-368" font-family="Helvetica,sans-Serif" font-size="10.00">&#45; nested_write_jointPosition</text>
<text text-anchor="start" x="349.5" y="-357" font-family="Helvetica,sans-Serif" font-size="10.00">_isValid()</text>
<text text-anchor="start" x="349.5" y="-346" font-family="Helvetica,sans-Serif" font-size="10.00">&#45; write_jointVelocity()</text>
<text text-anchor="start" x="349.5" y="-335" font-family="Helvetica,sans-Serif" font-size="10.00">&#45; nested_write_jointVelocity()</text>
<text text-anchor="start" x="349.5" y="-324" font-family="Helvetica,sans-Serif" font-size="10.00">&#45; write_jointVelocity</text>
<text text-anchor="start" x="349.5" y="-313" font-family="Helvetica,sans-Serif" font-size="10.00">_isValid()</text>
<text text-anchor="start" x="349.5" y="-302" font-family="Helvetica,sans-Serif" font-size="10.00">&#45; nested_write_jointVelocity</text>
<text text-anchor="start" x="349.5" y="-291" font-family="Helvetica,sans-Serif" font-size="10.00">_isValid()</text>
<text text-anchor="start" x="349.5" y="-280" font-family="Helvetica,sans-Serif" font-size="10.00">&#45; write_jointAcceleration()</text>
<text text-anchor="start" x="349.5" y="-269" font-family="Helvetica,sans-Serif" font-size="10.00">&#45; nested_write_jointAcceleration()</text>
<text text-anchor="start" x="349.5" y="-258" font-family="Helvetica,sans-Serif" font-size="10.00">and 70 more...</text>
</a>
</g>
</g>
<!-- Node5&#45;&gt;Node1 -->
<g id="edge4" class="edge"><title>Node5&#45;&gt;Node1</title>
<path fill="none" stroke="#404040" d="M362.137,-250.59C351.234,-222.469 340.206,-194.023 330.363,-168.634"/>
<polygon fill="none" stroke="#404040" points="330.266,-168.384 324.368,-164.236 325.928,-157.196 331.827,-161.344 330.266,-168.384"/>
<text text-anchor="middle" x="363" y="-201.5" font-family="Helvetica,sans-Serif" font-size="10.00"> &#45;last</text>
</g>
<!-- Node6 -->
<g id="node6" class="node"><title>Node6</title>
<g id="a_node6"><a xlink:href="classyarp_1_1os_1_1idl_1_1_wire_portable.html" target="_top" xlink:title="{WirePortable\n||}">
<polygon fill="none" stroke="black" points="628.5,-752.5 628.5,-809.5 701.5,-809.5 701.5,-752.5 628.5,-752.5"/>
<text text-anchor="middle" x="665" y="-797.5" font-family="Helvetica,sans-Serif" font-size="10.00">WirePortable</text>
<polyline fill="none" stroke="black" points="628.5,-790.5 701.5,-790.5 "/>
<text text-anchor="middle" x="665" y="-778.5" font-family="Helvetica,sans-Serif" font-size="10.00"> </text>
<polyline fill="none" stroke="black" points="628.5,-771.5 701.5,-771.5 "/>
<text text-anchor="middle" x="665" y="-759.5" font-family="Helvetica,sans-Serif" font-size="10.00"> </text>
</a>
</g>
</g>
<!-- Node6&#45;&gt;Node5 -->
<g id="edge5" class="edge"><title>Node6&#45;&gt;Node5</title>
<path fill="none" stroke="midnightblue" d="M674.505,-742.534C683.425,-697.635 689.984,-623.081 649,-580 606.368,-535.186 562.409,-596.394 511,-562 508.163,-560.102 505.406,-558.081 502.726,-555.951"/>
<polygon fill="none" stroke="midnightblue" points="671.051,-741.949 672.398,-752.458 677.898,-743.402 671.051,-741.949"/>
</g>
<!-- Node7 -->
<g id="node7" class="node"><title>Node7</title>
<polygon fill="none" stroke="#bfbfbf" points="406,-752.5 406,-809.5 490,-809.5 490,-752.5 406,-752.5"/>
<text text-anchor="middle" x="448" y="-797.5" font-family="Helvetica,sans-Serif" font-size="10.00">VectorOf&lt; int &gt;</text>
<polyline fill="none" stroke="#bfbfbf" points="406,-790.5 490,-790.5 "/>
<text text-anchor="middle" x="448" y="-778.5" font-family="Helvetica,sans-Serif" font-size="10.00"> </text>
<polyline fill="none" stroke="#bfbfbf" points="406,-771.5 490,-771.5 "/>
<text text-anchor="middle" x="448" y="-759.5" font-family="Helvetica,sans-Serif" font-size="10.00"> </text>
</g>
<!-- Node7&#45;&gt;Node5 -->
<g id="edge6" class="edge"><title>Node7&#45;&gt;Node5</title>
<path fill="none" stroke="#404040" d="M446.067,-752.269C443.397,-713.964 438.368,-641.811 433.594,-573.329"/>
<polygon fill="none" stroke="#404040" points="433.572,-573.012 429.164,-567.305 432.737,-561.041 437.145,-566.748 433.572,-573.012"/>
<text text-anchor="middle" x="484.5" y="-660" font-family="Helvetica,sans-Serif" font-size="10.00"> +interactionMode</text>
<text text-anchor="middle" x="484.5" y="-649" font-family="Helvetica,sans-Serif" font-size="10.00">+controlMode</text>
</g>
<!-- Node8 -->
<g id="node8" class="node"><title>Node8</title>
<polygon fill="none" stroke="#bfbfbf" points="295.5,-752.5 295.5,-809.5 330.5,-809.5 330.5,-752.5 295.5,-752.5"/>
<text text-anchor="middle" x="313" y="-797.5" font-family="Helvetica,sans-Serif" font-size="10.00">bool</text>
<polyline fill="none" stroke="#bfbfbf" points="295.5,-790.5 330.5,-790.5 "/>
<text text-anchor="middle" x="313" y="-778.5" font-family="Helvetica,sans-Serif" font-size="10.00"> </text>
<polyline fill="none" stroke="#bfbfbf" points="295.5,-771.5 330.5,-771.5 "/>
<text text-anchor="middle" x="313" y="-759.5" font-family="Helvetica,sans-Serif" font-size="10.00"> </text>
</g>
<!-- Node8&#45;&gt;Node1 -->
<g id="edge10" class="edge"><title>Node8&#45;&gt;Node1</title>
<path fill="none" stroke="#404040" d="M311.03,-752.279C310.647,-746.255 310.279,-739.916 310,-734 306.4,-657.608 306.825,-638.455 305,-562 301.73,-424.991 298.961,-266.051 297.39,-169.291"/>
<polygon fill="none" stroke="#404040" points="297.389,-169.222 293.292,-163.288 297.195,-157.224 301.291,-163.158 297.389,-169.222"/>
<text text-anchor="middle" x="318.5" y="-403.5" font-family="Helvetica,sans-Serif" font-size="10.00"> &#45;valid</text>
</g>
<!-- Node8&#45;&gt;Node5 -->
<g id="edge7" class="edge"><title>Node8&#45;&gt;Node5</title>
<path fill="none" stroke="#404040" d="M311.886,-752.183C311.089,-712.947 312.455,-639.495 330,-580 332.059,-573.018 334.417,-565.995 337.008,-558.985"/>
<polygon fill="none" stroke="#404040" points="337.082,-558.795 335.522,-551.754 341.421,-547.606 342.981,-554.646 337.082,-558.795"/>
<text text-anchor="middle" x="380.5" y="-726" font-family="Helvetica,sans-Serif" font-size="10.00"> +pidOutput_isValid</text>
<text text-anchor="middle" x="380.5" y="-715" font-family="Helvetica,sans-Serif" font-size="10.00">+jointPosition_isValid</text>
<text text-anchor="middle" x="380.5" y="-704" font-family="Helvetica,sans-Serif" font-size="10.00">+torque_isValid</text>
<text text-anchor="start" x="330" y="-693" font-family="Helvetica,sans-Serif" font-size="10.00">+jointAcceleration</text>
<text text-anchor="middle" x="380.5" y="-682" font-family="Helvetica,sans-Serif" font-size="10.00">_isValid</text>
<text text-anchor="start" x="330" y="-671" font-family="Helvetica,sans-Serif" font-size="10.00">+interactionMode</text>
<text text-anchor="middle" x="380.5" y="-660" font-family="Helvetica,sans-Serif" font-size="10.00">_isValid</text>
<text text-anchor="start" x="330" y="-649" font-family="Helvetica,sans-Serif" font-size="10.00">+motorAcceleration</text>
<text text-anchor="middle" x="380.5" y="-638" font-family="Helvetica,sans-Serif" font-size="10.00">_isValid</text>
<text text-anchor="middle" x="380.5" y="-627" font-family="Helvetica,sans-Serif" font-size="10.00">+controlMode_isValid</text>
<text text-anchor="middle" x="380.5" y="-616" font-family="Helvetica,sans-Serif" font-size="10.00">+motorVelocity_isValid</text>
<text text-anchor="middle" x="380.5" y="-605" font-family="Helvetica,sans-Serif" font-size="10.00">+jointVelocity_isValid</text>
<text text-anchor="middle" x="380.5" y="-594" font-family="Helvetica,sans-Serif" font-size="10.00">+motorPosition_isValid</text>
<text text-anchor="middle" x="380.5" y="-583" font-family="Helvetica,sans-Serif" font-size="10.00">...</text>
</g>
<!-- Node9 -->
<g id="node9" class="node"><title>Node9</title>
<polygon fill="none" stroke="#bfbfbf" points="508,-752.5 508,-809.5 610,-809.5 610,-752.5 508,-752.5"/>
<text text-anchor="middle" x="559" y="-797.5" font-family="Helvetica,sans-Serif" font-size="10.00">VectorOf&lt; double &gt;</text>
<polyline fill="none" stroke="#bfbfbf" points="508,-790.5 610,-790.5 "/>
<text text-anchor="middle" x="559" y="-778.5" font-family="Helvetica,sans-Serif" font-size="10.00"> </text>
<polyline fill="none" stroke="#bfbfbf" points="508,-771.5 610,-771.5 "/>
<text text-anchor="middle" x="559" y="-759.5" font-family="Helvetica,sans-Serif" font-size="10.00"> </text>
</g>
<!-- Node9&#45;&gt;Node5 -->
<g id="edge8" class="edge"><title>Node9&#45;&gt;Node5</title>
<path fill="none" stroke="#404040" d="M559.78,-752.27C559.817,-712.183 555.734,-636.645 528,-580 523.161,-570.117 517.563,-570.833 511,-562 510.653,-561.533 510.306,-561.065 509.96,-560.595"/>
<polygon fill="none" stroke="#404040" points="509.735,-560.282 502.987,-557.739 502.738,-550.533 509.487,-553.075 509.735,-560.282"/>
<text text-anchor="middle" x="602.5" y="-693" font-family="Helvetica,sans-Serif" font-size="10.00"> +motorVelocity</text>
<text text-anchor="middle" x="602.5" y="-682" font-family="Helvetica,sans-Serif" font-size="10.00">+jointAcceleration</text>
<text text-anchor="middle" x="602.5" y="-671" font-family="Helvetica,sans-Serif" font-size="10.00">+motorAcceleration</text>
<text text-anchor="middle" x="602.5" y="-660" font-family="Helvetica,sans-Serif" font-size="10.00">+torque</text>
<text text-anchor="middle" x="602.5" y="-649" font-family="Helvetica,sans-Serif" font-size="10.00">+pidOutput</text>
<text text-anchor="middle" x="602.5" y="-638" font-family="Helvetica,sans-Serif" font-size="10.00">+motorPosition</text>
<text text-anchor="middle" x="602.5" y="-627" font-family="Helvetica,sans-Serif" font-size="10.00">+jointVelocity</text>
<text text-anchor="middle" x="602.5" y="-616" font-family="Helvetica,sans-Serif" font-size="10.00">+jointPosition</text>
</g>
<!-- Node10 -->
<g id="node10" class="node"><title>Node10</title>
<polygon fill="none" stroke="#bfbfbf" points="520.5,-377.5 520.5,-434.5 549.5,-434.5 549.5,-377.5 520.5,-377.5"/>
<text text-anchor="middle" x="535" y="-422.5" font-family="Helvetica,sans-Serif" font-size="10.00">int</text>
<polyline fill="none" stroke="#bfbfbf" points="520.5,-415.5 549.5,-415.5 "/>
<text text-anchor="middle" x="535" y="-403.5" font-family="Helvetica,sans-Serif" font-size="10.00"> </text>
<polyline fill="none" stroke="#bfbfbf" points="520.5,-396.5 549.5,-396.5 "/>
<text text-anchor="middle" x="535" y="-384.5" font-family="Helvetica,sans-Serif" font-size="10.00"> </text>
</g>
<!-- Node10&#45;&gt;Node1 -->
<g id="edge9" class="edge"><title>Node10&#45;&gt;Node1</title>
<path fill="none" stroke="#404040" d="M536.597,-377.239C537.209,-344.574 534.172,-289.76 511,-250 478.967,-195.037 421.756,-151.118 374.4,-121.697"/>
<polygon fill="none" stroke="#404040" points="374.399,-121.696 367.194,-121.993 364.149,-115.456 371.354,-115.16 374.399,-121.696"/>
<text text-anchor="middle" x="515.5" y="-201.5" font-family="Helvetica,sans-Serif" font-size="10.00"> &#45;count</text>
</g>
<!-- Node11 -->
<g id="node11" class="node"><title>Node11</title>
<polygon fill="none" stroke="#bfbfbf" points="567.5,-377.5 567.5,-434.5 612.5,-434.5 612.5,-377.5 567.5,-377.5"/>
<text text-anchor="middle" x="590" y="-422.5" font-family="Helvetica,sans-Serif" font-size="10.00">Stamp</text>
<polyline fill="none" stroke="#bfbfbf" points="567.5,-415.5 612.5,-415.5 "/>
<text text-anchor="middle" x="590" y="-403.5" font-family="Helvetica,sans-Serif" font-size="10.00"> </text>
<polyline fill="none" stroke="#bfbfbf" points="567.5,-396.5 612.5,-396.5 "/>
<text text-anchor="middle" x="590" y="-384.5" font-family="Helvetica,sans-Serif" font-size="10.00"> </text>
</g>
<!-- Node11&#45;&gt;Node1 -->
<g id="edge11" class="edge"><title>Node11&#45;&gt;Node1</title>
<path fill="none" stroke="#404040" d="M591.445,-377.449C592.378,-330.033 587.259,-232.65 535,-176 493.441,-130.949 427.866,-106.619 375.909,-93.7368"/>
<polygon fill="none" stroke="#404040" points="375.711,-93.6902 368.952,-96.2031 364.033,-90.9304 370.792,-88.4175 375.711,-93.6902"/>
<text text-anchor="middle" x="593.5" y="-201.5" font-family="Helvetica,sans-Serif" font-size="10.00"> &#45;lastStamp</text>
</g>
</g>
</svg>
        <g id="navigator" transform="translate(0 0)" fill="#404254">
                <rect fill="#f2f5e9" fill-opacity="0.5" stroke="#606060" stroke-width=".5" x="0" y="0" width="60" height="60"/>
                <use id="zoomplus" xlink:href="#zoomPlus" x="17" y="9" onmousedown="handleZoom(evt,'in')"/>
                <use id="zoomminus" xlink:href="#zoomMin" x="42" y="9" onmousedown="handleZoom(evt,'out')"/>
                <use id="reset" xlink:href="#resetDef" x="30" y="36" onmousedown="handleReset()"/>
                <g id="arrowUp" xlink:href="#dirArrow" transform="translate(30 24)" onmousedown="handlePan(0,-1)">
                  <use xlink:href="#rim" fill="#404040">
                        <set attributeName="fill" to="#808080" begin="arrowUp.mouseover" end="arrowUp.mouseout"/>
                  </use>
                  <path fill="none" stroke="white" stroke-width="1.5" d="M0,-3.0v7 M-2.5,-0.5L0,-3.0L2.5,-0.5"/>
                </g>
                <g id="arrowRight" xlink:href="#dirArrow" transform="rotate(90) translate(36 -43)" onmousedown="handlePan(1,0)">
                  <use xlink:href="#rim" fill="#404040">
                        <set attributeName="fill" to="#808080" begin="arrowRight.mouseover" end="arrowRight.mouseout"/>
                  </use>
                  <path fill="none" stroke="white" stroke-width="1.5" d="M0,-3.0v7 M-2.5,-0.5L0,-3.0L2.5,-0.5"/>
                </g>
                <g id="arrowDown" xlink:href="#dirArrow" transform="rotate(180) translate(-30 -48)" onmousedown="handlePan(0,1)">
                  <use xlink:href="#rim" fill="#404040">
                        <set attributeName="fill" to="#808080" begin="arrowDown.mouseover" end="arrowDown.mouseout"/>
                  </use>
                  <path fill="none" stroke="white" stroke-width="1.5" d="M0,-3.0v7 M-2.5,-0.5L0,-3.0L2.5,-0.5"/>
                </g>
                <g id="arrowLeft" xlink:href="#dirArrow" transform="rotate(270) translate(-36 17)" onmousedown="handlePan(-1,0)">
                  <use xlink:href="#rim" fill="#404040">
                        <set attributeName="fill" to="#808080" begin="arrowLeft.mouseover" end="arrowLeft.mouseout"/>
                  </use>
                  <path fill="none" stroke="white" stroke-width="1.5" d="M0,-3.0v7 M-2.5,-0.5L0,-3.0L2.5,-0.5"/>
                </g>
        </g>
        <svg viewBox="0 0 15 15" width="100%" height="30px" preserveAspectRatio="xMaxYMin meet">
         <g id="arrow_out" transform="scale(0.3 0.3)">
          <a xlink:href="class_state_extended_input_port__coll__graph_org.svg" target="_base">
           <rect id="button" ry="5" rx="5" y="6" x="6" height="38" width="38"
                fill="#f2f5e9" fill-opacity="0.5" stroke="#606060" stroke-width="1.0"/>
           <path id="arrow"
             d="M 11.500037,31.436501 C 11.940474,20.09759 22.043105,11.32322 32.158766,21.979434 L 37.068811,17.246167 C 37.068811,17.246167 37.088388,32 37.088388,32 L 22.160133,31.978069 C 22.160133,31.978069 26.997745,27.140456 26.997745,27.140456 C 18.528582,18.264221 13.291696,25.230495 11.500037,31.436501 z"
             style="fill:#404040;"/>
          </a>
         </g>
        </svg>
</svg>
