<?xml version="1.0" encoding="UTF-8" standalone="no"?>
<!DOCTYPE svg PUBLIC "-//W3C//DTD SVG 1.1//EN"
 "http://www.w3.org/Graphics/SVG/1.1/DTD/svg11.dtd">
<!-- Generated by graphviz version 2.36.0 (20140111.2315)
 -->
<!-- Title: human::HumanDynamics Pages: 1 -->
<svg width="419pt" height="416pt"
 viewBox="0.00 0.00 419.00 416.00" xmlns="http://www.w3.org/2000/svg" xmlns:xlink="http://www.w3.org/1999/xlink">
<g id="graph0" class="graph" transform="scale(1 1) rotate(0) translate(4 412)">
<title>human::HumanDynamics</title>
<!-- Node1 -->
<g id="node1" class="node"><title>Node1</title>
<polygon fill="#bfbfbf" stroke="black" points="60,-1 60,-289 208,-289 208,-1 60,-1"/>
<text text-anchor="middle" x="134" y="-277" font-family="Helvetica,sans-Serif" font-size="10.00">human::HumanDynamics</text>
<polyline fill="none" stroke="black" points="60,-270 208,-270 "/>
<text text-anchor="middle" x="134" y="-258" font-family="Helvetica,sans-Serif" font-size="10.00"> </text>
<polyline fill="none" stroke="black" points="60,-251 208,-251 "/>
<text text-anchor="start" x="68" y="-239" font-family="Helvetica,sans-Serif" font-size="10.00">+ HumanDynamics()</text>
<text text-anchor="start" x="68" y="-228" font-family="Helvetica,sans-Serif" font-size="10.00">+ HumanDynamics()</text>
<text text-anchor="start" x="68" y="-217" font-family="Helvetica,sans-Serif" font-size="10.00">+ HumanDynamics()</text>
<text text-anchor="start" x="68" y="-206" font-family="Helvetica,sans-Serif" font-size="10.00">+ operator=()</text>
<text text-anchor="start" x="68" y="-195" font-family="Helvetica,sans-Serif" font-size="10.00">+ read()</text>
<text text-anchor="start" x="68" y="-184" font-family="Helvetica,sans-Serif" font-size="10.00">+ read()</text>
<text text-anchor="start" x="68" y="-173" font-family="Helvetica,sans-Serif" font-size="10.00">+ write()</text>
<text text-anchor="start" x="68" y="-162" font-family="Helvetica,sans-Serif" font-size="10.00">+ write()</text>
<text text-anchor="start" x="68" y="-151" font-family="Helvetica,sans-Serif" font-size="10.00">+ toString()</text>
<text text-anchor="start" x="68" y="-140" font-family="Helvetica,sans-Serif" font-size="10.00">+ HumanDynamics()</text>
<text text-anchor="start" x="68" y="-129" font-family="Helvetica,sans-Serif" font-size="10.00">and 8 more...</text>
<text text-anchor="start" x="68" y="-118" font-family="Helvetica,sans-Serif" font-size="10.00">&#45; write_linkVariables()</text>
<text text-anchor="start" x="68" y="-107" font-family="Helvetica,sans-Serif" font-size="10.00">&#45; nested_write_linkVariables()</text>
<text text-anchor="start" x="68" y="-96" font-family="Helvetica,sans-Serif" font-size="10.00">&#45; write_jointVariables()</text>
<text text-anchor="start" x="68" y="-85" font-family="Helvetica,sans-Serif" font-size="10.00">&#45; nested_write_jointVariables()</text>
<text text-anchor="start" x="68" y="-74" font-family="Helvetica,sans-Serif" font-size="10.00">&#45; read_linkVariables()</text>
<text text-anchor="start" x="68" y="-63" font-family="Helvetica,sans-Serif" font-size="10.00">&#45; nested_read_linkVariables()</text>
<text text-anchor="start" x="68" y="-52" font-family="Helvetica,sans-Serif" font-size="10.00">&#45; read_jointVariables()</text>
<text text-anchor="start" x="68" y="-41" font-family="Helvetica,sans-Serif" font-size="10.00">&#45; nested_read_jointVariables()</text>
<text text-anchor="start" x="68" y="-30" font-family="Helvetica,sans-Serif" font-size="10.00">&#45; write_linkVariables()</text>
<text text-anchor="start" x="68" y="-19" font-family="Helvetica,sans-Serif" font-size="10.00">&#45; nested_write_linkVariables()</text>
<text text-anchor="start" x="68" y="-8" font-family="Helvetica,sans-Serif" font-size="10.00">and 6 more...</text>
</g>
<!-- Node2 -->
<g id="node2" class="node"><title>Node2</title>
<g id="a_node2"><a xlink:href="classyarp_1_1os_1_1idl_1_1_wire_portable.html" target="_top" xlink:title="{WirePortable\n||}">
<polygon fill="none" stroke="black" points="-0.5,-344.5 -0.5,-401.5 72.5,-401.5 72.5,-344.5 -0.5,-344.5"/>
<text text-anchor="middle" x="36" y="-389.5" font-family="Helvetica,sans-Serif" font-size="10.00">WirePortable</text>
<polyline fill="none" stroke="black" points="-0.5,-382.5 72.5,-382.5 "/>
<text text-anchor="middle" x="36" y="-370.5" font-family="Helvetica,sans-Serif" font-size="10.00"> </text>
<polyline fill="none" stroke="black" points="-0.5,-363.5 72.5,-363.5 "/>
<text text-anchor="middle" x="36" y="-351.5" font-family="Helvetica,sans-Serif" font-size="10.00"> </text>
</a>
</g>
</g>
<!-- Node2&#45;&gt;Node1 -->
<g id="edge1" class="edge"><title>Node2&#45;&gt;Node1</title>
<path fill="none" stroke="midnightblue" d="M47,-334.723C52.055,-321.531 58.4257,-305.787 65.4156,-289.099"/>
<polygon fill="none" stroke="midnightblue" points="43.6471,-333.696 43.4025,-344.288 50.199,-336.16 43.6471,-333.696"/>
</g>
<!-- Node2&#45;&gt;Node1 -->
<g id="edge2" class="edge"><title>Node2&#45;&gt;Node1</title>
<path fill="none" stroke="midnightblue" d="M57.1408,-335.111C63.5719,-321.839 70.9243,-305.951 78.4806,-289.099"/>
<polygon fill="none" stroke="midnightblue" points="53.9002,-333.769 52.631,-344.288 60.1826,-336.857 53.9002,-333.769"/>
</g>
<!-- Node3 -->
<g id="node3" class="node"><title>Node3</title>
<polygon fill="none" stroke="#bfbfbf" points="90.5,-339 90.5,-407 243.5,-407 243.5,-339 90.5,-339"/>
<text text-anchor="start" x="98.5" y="-395" font-family="Helvetica,sans-Serif" font-size="10.00">vector&lt; human::JointDynamics</text>
<text text-anchor="middle" x="167" y="-384" font-family="Helvetica,sans-Serif" font-size="10.00">Estimation &gt;</text>
<polyline fill="none" stroke="#bfbfbf" points="90.5,-377 243.5,-377 "/>
<text text-anchor="middle" x="167" y="-365" font-family="Helvetica,sans-Serif" font-size="10.00"> </text>
<polyline fill="none" stroke="#bfbfbf" points="90.5,-358 243.5,-358 "/>
<text text-anchor="middle" x="167" y="-346" font-family="Helvetica,sans-Serif" font-size="10.00"> </text>
</g>
<!-- Node3&#45;&gt;Node1 -->
<g id="edge3" class="edge"><title>Node3&#45;&gt;Node1</title>
<path fill="none" stroke="#404040" d="M162.131,-338.653C160.564,-327.922 158.712,-315.241 156.719,-301.588"/>
<polygon fill="none" stroke="#404040" points="156.668,-301.239 151.843,-295.879 154.934,-289.364 159.759,-294.724 156.668,-301.239"/>
<text text-anchor="middle" x="194" y="-311.5" font-family="Helvetica,sans-Serif" font-size="10.00"> +jointVariables</text>
</g>
<!-- Node4 -->
<g id="node4" class="node"><title>Node4</title>
<polygon fill="none" stroke="#bfbfbf" points="262,-339 262,-407 412,-407 412,-339 262,-339"/>
<text text-anchor="start" x="270" y="-395" font-family="Helvetica,sans-Serif" font-size="10.00">vector&lt; human::LinkDynamics</text>
<text text-anchor="middle" x="337" y="-384" font-family="Helvetica,sans-Serif" font-size="10.00">Estimation &gt;</text>
<polyline fill="none" stroke="#bfbfbf" points="262,-377 412,-377 "/>
<text text-anchor="middle" x="337" y="-365" font-family="Helvetica,sans-Serif" font-size="10.00"> </text>
<polyline fill="none" stroke="#bfbfbf" points="262,-358 412,-358 "/>
<text text-anchor="middle" x="337" y="-346" font-family="Helvetica,sans-Serif" font-size="10.00"> </text>
</g>
<!-- Node4&#45;&gt;Node1 -->
<g id="edge4" class="edge"><title>Node4&#45;&gt;Node1</title>
<path fill="none" stroke="#404040" d="M307.047,-338.653C283.154,-312.053 248.499,-273.471 216.467,-237.81"/>
<polygon fill="none" stroke="#404040" points="216.406,-237.743 209.421,-235.952 208.388,-228.816 215.373,-230.606 216.406,-237.743"/>
<text text-anchor="middle" x="320.5" y="-311.5" font-family="Helvetica,sans-Serif" font-size="10.00"> +linkVariables</text>
</g>
</g>
</svg>
