<?xml version="1.0" encoding="UTF-8" standalone="no"?>
<!DOCTYPE svg PUBLIC "-//W3C//DTD SVG 1.1//EN"
 "http://www.w3.org/Graphics/SVG/1.1/DTD/svg11.dtd">
<!-- Generated by graphviz version 2.36.0 (20140111.2315)
 -->
<!-- Title: InverseKinematicsV2IPOPT Pages: 1 -->
<!--zoomable 360 -->
<svg id="main" version="1.1" xmlns="http://www.w3.org/2000/svg" xmlns:xlink="http://www.w3.org/1999/xlink" xml:space="preserve" onload="init(evt)">
<style type="text/css"><![CDATA[
.edge:hover path { stroke: red; }
.edge:hover polygon { stroke: red; fill: red; }
]]></style>
<script type="text/javascript"><![CDATA[
var edges = document.getElementsByTagName('g');
if (edges && edges.length) {
  for (var i=0;i<edges.length;i++) {
    if (edges[i].id.substr(0,4)=='edge') {
      edges[i].setAttribute('class','edge');
    }
  }
}
]]></script>
        <defs>
                <circle id="rim" cx="0" cy="0" r="7"/>
                <circle id="rim2" cx="0" cy="0" r="3.5"/>
                <g id="zoomPlus">
                        <use xlink:href="#rim" fill="#404040">
                                <set attributeName="fill" to="#808080" begin="zoomplus.mouseover" end="zoomplus.mouseout"/>
                        </use>
                        <path d="M-4,0h8M0,-4v8" fill="none" stroke="white" stroke-width="1.5" pointer-events="none"/>
                </g>
                <g id="zoomMin">
                        <use xlink:href="#rim" fill="#404040">
                                <set attributeName="fill" to="#808080" begin="zoomminus.mouseover" end="zoomminus.mouseout"/>
                        </use>
                        <path d="M-4,0h8" fill="none" stroke="white" stroke-width="1.5" pointer-events="none"/>
                </g>
                <g id="dirArrow">
                        <path fill="none" stroke="white" stroke-width="1.5" d="M0,-3.0v7 M-2.5,-0.5L0,-3.0L2.5,-0.5"/>
                </g>
               <g id="resetDef">
                       <use xlink:href="#rim2" fill="#404040">
                               <set attributeName="fill" to="#808080" begin="reset.mouseover" end="reset.mouseout"/>
                       </use>
               </g>
        </defs>

<script type="text/javascript">
var viewWidth = 1342;
var viewHeight = 360;
var sectionId = 'dynsection-1';
</script>
<script xlink:href="svgpan.js"/>
<svg id="graph" class="graph">
<g id="viewport">
<title>InverseKinematicsV2IPOPT</title>
<!-- Node1 -->
<g id="node1" class="node"><title>Node1</title>
<polygon fill="#bfbfbf" stroke="black" points="590.5,-1 590.5,-201 751.5,-201 751.5,-1 590.5,-1"/>
<text text-anchor="middle" x="671" y="-189" font-family="Helvetica,sans-Serif" font-size="10.00">InverseKinematicsV2IPOPT</text>
<polyline fill="none" stroke="black" points="590.5,-182 751.5,-182 "/>
<text text-anchor="middle" x="671" y="-170" font-family="Helvetica,sans-Serif" font-size="10.00"> </text>
<polyline fill="none" stroke="black" points="590.5,-163 751.5,-163 "/>
<text text-anchor="start" x="598.5" y="-151" font-family="Helvetica,sans-Serif" font-size="10.00">+ InverseKinematicsV2IPOPT()</text>
<text text-anchor="start" x="598.5" y="-140" font-family="Helvetica,sans-Serif" font-size="10.00">+ ~InverseKinematicsV2IPOPT()</text>
<text text-anchor="start" x="598.5" y="-129" font-family="Helvetica,sans-Serif" font-size="10.00">+ loadFromModel()</text>
<text text-anchor="start" x="598.5" y="-118" font-family="Helvetica,sans-Serif" font-size="10.00">+ getModel()</text>
<text text-anchor="start" x="598.5" y="-107" font-family="Helvetica,sans-Serif" font-size="10.00">+ update()</text>
<text text-anchor="start" x="598.5" y="-96" font-family="Helvetica,sans-Serif" font-size="10.00">+ update()</text>
<text text-anchor="start" x="598.5" y="-85" font-family="Helvetica,sans-Serif" font-size="10.00">+ randomInitialization()</text>
<text text-anchor="start" x="598.5" y="-74" font-family="Helvetica,sans-Serif" font-size="10.00">+ computeErrors()</text>
<text text-anchor="start" x="598.5" y="-63" font-family="Helvetica,sans-Serif" font-size="10.00">+ get_nlp_info()</text>
<text text-anchor="start" x="598.5" y="-52" font-family="Helvetica,sans-Serif" font-size="10.00">+ get_bounds_info()</text>
<text text-anchor="start" x="598.5" y="-41" font-family="Helvetica,sans-Serif" font-size="10.00">and 7 more...</text>
<text text-anchor="start" x="598.5" y="-30" font-family="Helvetica,sans-Serif" font-size="10.00">&#45; twistToQuaternionTwist()</text>
<text text-anchor="start" x="598.5" y="-19" font-family="Helvetica,sans-Serif" font-size="10.00">&#45; relativeJacobian()</text>
<text text-anchor="start" x="598.5" y="-8" font-family="Helvetica,sans-Serif" font-size="10.00">&#45; updateAfterOptimizationStep()</text>
</g>
<!-- Node2 -->
<g id="node2" class="node"><title>Node2</title>
<polygon fill="none" stroke="#bfbfbf" points="0,-288.5 0,-345.5 42,-345.5 42,-288.5 0,-288.5"/>
<text text-anchor="middle" x="21" y="-333.5" font-family="Helvetica,sans-Serif" font-size="10.00">TNLP</text>
<polyline fill="none" stroke="#bfbfbf" points="0,-326.5 42,-326.5 "/>
<text text-anchor="middle" x="21" y="-314.5" font-family="Helvetica,sans-Serif" font-size="10.00"> </text>
<polyline fill="none" stroke="#bfbfbf" points="0,-307.5 42,-307.5 "/>
<text text-anchor="middle" x="21" y="-295.5" font-family="Helvetica,sans-Serif" font-size="10.00"> </text>
</g>
<!-- Node2&#45;&gt;Node1 -->
<g id="edge1" class="edge"><title>Node2&#45;&gt;Node1</title>
<path fill="none" stroke="midnightblue" d="M49.8702,-282.866C50.2455,-282.572 50.6221,-282.283 51,-282 102.854,-243.112 121.855,-241.504 183,-220 322.786,-170.839 492.116,-134.934 590.11,-116.359"/>
<polygon fill="none" stroke="midnightblue" points="47.4048,-280.374 42.2446,-289.628 52.0489,-285.612 47.4048,-280.374"/>
</g>
<!-- Node3 -->
<g id="node3" class="node"><title>Node3</title>
<polygon fill="none" stroke="#bfbfbf" points="60.5,-288.5 60.5,-345.5 197.5,-345.5 197.5,-288.5 60.5,-288.5"/>
<text text-anchor="middle" x="129" y="-333.5" font-family="Helvetica,sans-Serif" font-size="10.00">FrameFreeFloatingJacobian</text>
<polyline fill="none" stroke="#bfbfbf" points="60.5,-326.5 197.5,-326.5 "/>
<text text-anchor="middle" x="129" y="-314.5" font-family="Helvetica,sans-Serif" font-size="10.00"> </text>
<polyline fill="none" stroke="#bfbfbf" points="60.5,-307.5 197.5,-307.5 "/>
<text text-anchor="middle" x="129" y="-295.5" font-family="Helvetica,sans-Serif" font-size="10.00"> </text>
</g>
<!-- Node3&#45;&gt;Node1 -->
<g id="edge2" class="edge"><title>Node3&#45;&gt;Node1</title>
<path fill="none" stroke="#404040" d="M156.757,-288.339C179.713,-266.889 214.099,-237.891 249,-220 355.468,-165.421 490.39,-133.368 578.622,-116.762"/>
<polygon fill="none" stroke="#404040" points="578.685,-116.75 583.858,-111.726 590.485,-114.569 585.312,-119.593 578.685,-116.75"/>
<text text-anchor="middle" x="269" y="-245" font-family="Helvetica,sans-Serif" font-size="10.00"> &#45;e_J_we</text>
<text text-anchor="middle" x="269" y="-234" font-family="Helvetica,sans-Serif" font-size="10.00">&#45;p_J_wp</text>
</g>
<!-- Node4 -->
<g id="node4" class="node"><title>Node4</title>
<polygon fill="none" stroke="#bfbfbf" points="215.5,-288.5 215.5,-345.5 296.5,-345.5 296.5,-288.5 215.5,-288.5"/>
<text text-anchor="middle" x="256" y="-333.5" font-family="Helvetica,sans-Serif" font-size="10.00">MatrixDynSize</text>
<polyline fill="none" stroke="#bfbfbf" points="215.5,-326.5 296.5,-326.5 "/>
<text text-anchor="middle" x="256" y="-314.5" font-family="Helvetica,sans-Serif" font-size="10.00"> </text>
<polyline fill="none" stroke="#bfbfbf" points="215.5,-307.5 296.5,-307.5 "/>
<text text-anchor="middle" x="256" y="-295.5" font-family="Helvetica,sans-Serif" font-size="10.00"> </text>
</g>
<!-- Node4&#45;&gt;Node1 -->
<g id="edge3" class="edge"><title>Node4&#45;&gt;Node1</title>
<path fill="none" stroke="#404040" d="M273.211,-288.071C287.627,-266.76 309.99,-238.077 336,-220 409.473,-168.936 507.284,-137.849 578.237,-120.498"/>
<polygon fill="none" stroke="#404040" points="578.6,-120.411 583.507,-115.127 590.272,-117.623 585.365,-122.908 578.6,-120.411"/>
<text text-anchor="middle" x="357.5" y="-239.5" font-family="Helvetica,sans-Serif" font-size="10.00"> &#45;jacobian</text>
</g>
<!-- Node5 -->
<g id="node5" class="node"><title>Node5</title>
<polygon fill="none" stroke="#bfbfbf" points="315,-288.5 315,-345.5 365,-345.5 365,-288.5 315,-288.5"/>
<text text-anchor="middle" x="340" y="-333.5" font-family="Helvetica,sans-Serif" font-size="10.00">Vector3</text>
<polyline fill="none" stroke="#bfbfbf" points="315,-326.5 365,-326.5 "/>
<text text-anchor="middle" x="340" y="-314.5" font-family="Helvetica,sans-Serif" font-size="10.00"> </text>
<polyline fill="none" stroke="#bfbfbf" points="315,-307.5 365,-307.5 "/>
<text text-anchor="middle" x="340" y="-295.5" font-family="Helvetica,sans-Serif" font-size="10.00"> </text>
</g>
<!-- Node5&#45;&gt;Node1 -->
<g id="edge4" class="edge"><title>Node5&#45;&gt;Node1</title>
<path fill="none" stroke="#404040" d="M361.109,-288.153C377.844,-267.441 402.719,-239.504 429,-220 474.782,-186.023 531.874,-157.636 579.105,-137.226"/>
<polygon fill="none" stroke="#404040" points="579.224,-137.175 583.176,-131.144 590.264,-132.472 586.312,-138.503 579.224,-137.175"/>
<text text-anchor="middle" x="444" y="-245" font-family="Helvetica,sans-Serif" font-size="10.00"> &#45;gains</text>
<text text-anchor="middle" x="444" y="-234" font-family="Helvetica,sans-Serif" font-size="10.00">&#45;kF</text>
</g>
<!-- Node6 -->
<g id="node6" class="node"><title>Node6</title>
<polygon fill="none" stroke="#bfbfbf" points="383,-288.5 383,-345.5 493,-345.5 493,-288.5 383,-288.5"/>
<text text-anchor="middle" x="438" y="-333.5" font-family="Helvetica,sans-Serif" font-size="10.00">KinDynComputations</text>
<polyline fill="none" stroke="#bfbfbf" points="383,-326.5 493,-326.5 "/>
<text text-anchor="middle" x="438" y="-314.5" font-family="Helvetica,sans-Serif" font-size="10.00"> </text>
<polyline fill="none" stroke="#bfbfbf" points="383,-307.5 493,-307.5 "/>
<text text-anchor="middle" x="438" y="-295.5" font-family="Helvetica,sans-Serif" font-size="10.00"> </text>
</g>
<!-- Node6&#45;&gt;Node1 -->
<g id="edge5" class="edge"><title>Node6&#45;&gt;Node1</title>
<path fill="none" stroke="#404040" d="M449.378,-288.092C458.692,-267.615 473.357,-240.005 492,-220 517.083,-193.084 549.483,-169.362 579.809,-150.379"/>
<polygon fill="none" stroke="#404040" points="580.204,-150.137 583.228,-143.591 590.434,-143.865 587.41,-150.411 580.204,-150.137"/>
<text text-anchor="middle" x="507.5" y="-239.5" font-family="Helvetica,sans-Serif" font-size="10.00"> &#45;iKDC</text>
</g>
<!-- Node7 -->
<g id="node7" class="node"><title>Node7</title>
<polygon fill="none" stroke="#bfbfbf" points="511,-288.5 511,-345.5 561,-345.5 561,-288.5 511,-288.5"/>
<text text-anchor="middle" x="536" y="-333.5" font-family="Helvetica,sans-Serif" font-size="10.00">Vector4</text>
<polyline fill="none" stroke="#bfbfbf" points="511,-326.5 561,-326.5 "/>
<text text-anchor="middle" x="536" y="-314.5" font-family="Helvetica,sans-Serif" font-size="10.00"> </text>
<polyline fill="none" stroke="#bfbfbf" points="511,-307.5 561,-307.5 "/>
<text text-anchor="middle" x="536" y="-295.5" font-family="Helvetica,sans-Serif" font-size="10.00"> </text>
</g>
<!-- Node7&#45;&gt;Node1 -->
<g id="edge6" class="edge"><title>Node7&#45;&gt;Node1</title>
<path fill="none" stroke="#404040" d="M529.221,-288.222C525.806,-268.319 524.204,-241.366 534,-220 544.56,-196.968 562.081,-176.729 581.123,-159.811"/>
<polygon fill="none" stroke="#404040" points="581.127,-159.807 583.101,-152.871 590.263,-152.025 588.289,-158.961 581.127,-159.807"/>
<text text-anchor="middle" x="575" y="-245" font-family="Helvetica,sans-Serif" font-size="10.00"> &#45;quaternionResult</text>
<text text-anchor="middle" x="575" y="-234" font-family="Helvetica,sans-Serif" font-size="10.00">&#45;desiredQuaternion</text>
</g>
<!-- Node8 -->
<g id="node8" class="node"><title>Node8</title>
<polygon fill="none" stroke="#bfbfbf" points="579.5,-288.5 579.5,-345.5 622.5,-345.5 622.5,-288.5 579.5,-288.5"/>
<text text-anchor="middle" x="601" y="-333.5" font-family="Helvetica,sans-Serif" font-size="10.00">Model</text>
<polyline fill="none" stroke="#bfbfbf" points="579.5,-326.5 622.5,-326.5 "/>
<text text-anchor="middle" x="601" y="-314.5" font-family="Helvetica,sans-Serif" font-size="10.00"> </text>
<polyline fill="none" stroke="#bfbfbf" points="579.5,-307.5 622.5,-307.5 "/>
<text text-anchor="middle" x="601" y="-295.5" font-family="Helvetica,sans-Serif" font-size="10.00"> </text>
</g>
<!-- Node8&#45;&gt;Node1 -->
<g id="edge7" class="edge"><title>Node8&#45;&gt;Node1</title>
<path fill="none" stroke="#404040" d="M610.008,-288.461C616.434,-268.816 625.538,-240.985 634.757,-212.801"/>
<polygon fill="none" stroke="#404040" points="634.836,-212.558 632.9,-205.611 638.567,-201.152 640.503,-208.098 634.836,-212.558"/>
<text text-anchor="middle" x="648.5" y="-239.5" font-family="Helvetica,sans-Serif" font-size="10.00"> &#45;model</text>
</g>
<!-- Node9 -->
<g id="node9" class="node"><title>Node9</title>
<polygon fill="none" stroke="#bfbfbf" points="640.5,-288.5 640.5,-345.5 701.5,-345.5 701.5,-288.5 640.5,-288.5"/>
<text text-anchor="middle" x="671" y="-333.5" font-family="Helvetica,sans-Serif" font-size="10.00">Transform</text>
<polyline fill="none" stroke="#bfbfbf" points="640.5,-326.5 701.5,-326.5 "/>
<text text-anchor="middle" x="671" y="-314.5" font-family="Helvetica,sans-Serif" font-size="10.00"> </text>
<polyline fill="none" stroke="#bfbfbf" points="640.5,-307.5 701.5,-307.5 "/>
<text text-anchor="middle" x="671" y="-295.5" font-family="Helvetica,sans-Serif" font-size="10.00"> </text>
</g>
<!-- Node9&#45;&gt;Node1 -->
<g id="edge8" class="edge"><title>Node9&#45;&gt;Node1</title>
<path fill="none" stroke="#404040" d="M671,-288.461C671,-268.904 671,-241.232 671,-213.177"/>
<polygon fill="none" stroke="#404040" points="671,-213.152 667,-207.152 671,-201.152 675,-207.152 671,-213.152"/>
<text text-anchor="middle" x="688.5" y="-239.5" font-family="Helvetica,sans-Serif" font-size="10.00"> &#45;p_H_e</text>
</g>
<!-- Node10 -->
<g id="node10" class="node"><title>Node10</title>
<polygon fill="none" stroke="#bfbfbf" points="719.5,-288.5 719.5,-345.5 748.5,-345.5 748.5,-288.5 719.5,-288.5"/>
<text text-anchor="middle" x="734" y="-333.5" font-family="Helvetica,sans-Serif" font-size="10.00">int</text>
<polyline fill="none" stroke="#bfbfbf" points="719.5,-326.5 748.5,-326.5 "/>
<text text-anchor="middle" x="734" y="-314.5" font-family="Helvetica,sans-Serif" font-size="10.00"> </text>
<polyline fill="none" stroke="#bfbfbf" points="719.5,-307.5 748.5,-307.5 "/>
<text text-anchor="middle" x="734" y="-295.5" font-family="Helvetica,sans-Serif" font-size="10.00"> </text>
</g>
<!-- Node10&#45;&gt;Node1 -->
<g id="edge9" class="edge"><title>Node10&#45;&gt;Node1</title>
<path fill="none" stroke="#404040" d="M726.363,-288.227C721.042,-269.033 713.721,-242.928 707,-220 706.294,-217.591 705.577,-215.156 704.852,-212.701"/>
<polygon fill="none" stroke="#404040" points="704.823,-212.605 699.281,-207.992 701.407,-201.102 706.95,-205.714 704.823,-212.605"/>
<text text-anchor="middle" x="743" y="-245" font-family="Helvetica,sans-Serif" font-size="10.00"> &#45;exitCode</text>
<text text-anchor="middle" x="743" y="-234" font-family="Helvetica,sans-Serif" font-size="10.00">&#45;totalDOF</text>
</g>
<!-- Node11 -->
<g id="node11" class="node"><title>Node11</title>
<polygon fill="none" stroke="#bfbfbf" points="767,-288.5 767,-345.5 835,-345.5 835,-288.5 767,-288.5"/>
<text text-anchor="middle" x="801" y="-333.5" font-family="Helvetica,sans-Serif" font-size="10.00">FrameIndex</text>
<polyline fill="none" stroke="#bfbfbf" points="767,-326.5 835,-326.5 "/>
<text text-anchor="middle" x="801" y="-314.5" font-family="Helvetica,sans-Serif" font-size="10.00"> </text>
<polyline fill="none" stroke="#bfbfbf" points="767,-307.5 835,-307.5 "/>
<text text-anchor="middle" x="801" y="-295.5" font-family="Helvetica,sans-Serif" font-size="10.00"> </text>
</g>
<!-- Node11&#45;&gt;Node1 -->
<g id="edge10" class="edge"><title>Node11&#45;&gt;Node1</title>
<path fill="none" stroke="#404040" d="M795.089,-288.37C790.142,-268.538 781.952,-241.61 770,-220 766.559,-213.779 762.765,-207.577 758.729,-201.458"/>
<polygon fill="none" stroke="#404040" points="758.514,-201.145 751.821,-198.459 751.726,-191.249 758.419,-193.934 758.514,-201.145"/>
<text text-anchor="middle" x="830.5" y="-245" font-family="Helvetica,sans-Serif" font-size="10.00"> &#45;endEffectorFrame</text>
<text text-anchor="middle" x="830.5" y="-234" font-family="Helvetica,sans-Serif" font-size="10.00">&#45;parentFrame</text>
</g>
<!-- Node12 -->
<g id="node12" class="node"><title>Node12</title>
<polygon fill="none" stroke="#bfbfbf" points="888.5,-288.5 888.5,-345.5 923.5,-345.5 923.5,-288.5 888.5,-288.5"/>
<text text-anchor="middle" x="906" y="-333.5" font-family="Helvetica,sans-Serif" font-size="10.00">bool</text>
<polyline fill="none" stroke="#bfbfbf" points="888.5,-326.5 923.5,-326.5 "/>
<text text-anchor="middle" x="906" y="-314.5" font-family="Helvetica,sans-Serif" font-size="10.00"> </text>
<polyline fill="none" stroke="#bfbfbf" points="888.5,-307.5 923.5,-307.5 "/>
<text text-anchor="middle" x="906" y="-295.5" font-family="Helvetica,sans-Serif" font-size="10.00"> </text>
</g>
<!-- Node12&#45;&gt;Node1 -->
<g id="edge11" class="edge"><title>Node12&#45;&gt;Node1</title>
<path fill="none" stroke="#404040" d="M903.167,-288.219C899.833,-267.543 892.608,-239.62 877,-220 847.444,-182.846 802.779,-155.237 762.586,-136.105"/>
<polygon fill="none" stroke="#404040" points="762.551,-136.09 755.427,-137.204 751.658,-131.056 758.783,-129.942 762.551,-136.09"/>
<text text-anchor="middle" x="930" y="-245" font-family="Helvetica,sans-Serif" font-size="10.00"> &#45;modelLoaded</text>
<text text-anchor="middle" x="930" y="-234" font-family="Helvetica,sans-Serif" font-size="10.00">&#45;gainsLoaded</text>
</g>
<!-- Node13 -->
<g id="node13" class="node"><title>Node13</title>
<polygon fill="none" stroke="#bfbfbf" points="941.5,-288.5 941.5,-345.5 1042.5,-345.5 1042.5,-288.5 941.5,-288.5"/>
<text text-anchor="middle" x="992" y="-333.5" font-family="Helvetica,sans-Serif" font-size="10.00">VectorFixSize&lt; 7 &gt;</text>
<polyline fill="none" stroke="#bfbfbf" points="941.5,-326.5 1042.5,-326.5 "/>
<text text-anchor="middle" x="992" y="-314.5" font-family="Helvetica,sans-Serif" font-size="10.00"> </text>
<polyline fill="none" stroke="#bfbfbf" points="941.5,-307.5 1042.5,-307.5 "/>
<text text-anchor="middle" x="992" y="-295.5" font-family="Helvetica,sans-Serif" font-size="10.00"> </text>
</g>
<!-- Node13&#45;&gt;Node1 -->
<g id="edge12" class="edge"><title>Node13&#45;&gt;Node1</title>
<path fill="none" stroke="#404040" d="M991.009,-288.488C988.862,-267.406 982.763,-238.83 966,-220 913.948,-161.53 828.949,-131.624 763.528,-116.581"/>
<polygon fill="none" stroke="#404040" points="763.271,-116.524 756.551,-119.139 751.553,-113.941 758.273,-111.326 763.271,-116.524"/>
<text text-anchor="middle" x="1010" y="-239.5" font-family="Helvetica,sans-Serif" font-size="10.00"> &#45;pDesired</text>
</g>
<!-- Node14 -->
<g id="node14" class="node"><title>Node14</title>
<polygon fill="none" stroke="#bfbfbf" points="1061,-288.5 1061,-345.5 1113,-345.5 1113,-288.5 1061,-288.5"/>
<text text-anchor="middle" x="1087" y="-333.5" font-family="Helvetica,sans-Serif" font-size="10.00">Position</text>
<polyline fill="none" stroke="#bfbfbf" points="1061,-326.5 1113,-326.5 "/>
<text text-anchor="middle" x="1087" y="-314.5" font-family="Helvetica,sans-Serif" font-size="10.00"> </text>
<polyline fill="none" stroke="#bfbfbf" points="1061,-307.5 1113,-307.5 "/>
<text text-anchor="middle" x="1087" y="-295.5" font-family="Helvetica,sans-Serif" font-size="10.00"> </text>
</g>
<!-- Node14&#45;&gt;Node1 -->
<g id="edge13" class="edge"><title>Node14&#45;&gt;Node1</title>
<path fill="none" stroke="#404040" d="M1079,-288.302C1071.46,-266.831 1058.11,-237.822 1037,-220 959.128,-154.243 843.975,-124.95 763.698,-112.015"/>
<polygon fill="none" stroke="#404040" points="763.48,-111.982 756.94,-115.019 751.621,-110.15 758.161,-107.113 763.48,-111.982"/>
<text text-anchor="middle" x="1105.5" y="-245" font-family="Helvetica,sans-Serif" font-size="10.00"> &#45;desiredPosition</text>
<text text-anchor="middle" x="1105.5" y="-234" font-family="Helvetica,sans-Serif" font-size="10.00">&#45;positionResult</text>
</g>
<!-- Node15 -->
<g id="node15" class="node"><title>Node15</title>
<polygon fill="none" stroke="#bfbfbf" points="1131.5,-283 1131.5,-351 1232.5,-351 1232.5,-283 1131.5,-283"/>
<text text-anchor="start" x="1139.5" y="-339" font-family="Helvetica,sans-Serif" font-size="10.00">vector&lt; std::pair&lt;</text>
<text text-anchor="middle" x="1182" y="-328" font-family="Helvetica,sans-Serif" font-size="10.00"> double, double &gt; &gt;</text>
<polyline fill="none" stroke="#bfbfbf" points="1131.5,-321 1232.5,-321 "/>
<text text-anchor="middle" x="1182" y="-309" font-family="Helvetica,sans-Serif" font-size="10.00"> </text>
<polyline fill="none" stroke="#bfbfbf" points="1131.5,-302 1232.5,-302 "/>
<text text-anchor="middle" x="1182" y="-290" font-family="Helvetica,sans-Serif" font-size="10.00"> </text>
</g>
<!-- Node15&#45;&gt;Node1 -->
<g id="edge14" class="edge"><title>Node15&#45;&gt;Node1</title>
<path fill="none" stroke="#404040" d="M1177.5,-282.647C1172.97,-261.807 1163.94,-235.985 1146,-220 1090.03,-170.135 885.573,-132.953 763.899,-114.658"/>
<polygon fill="none" stroke="#404040" points="763.534,-114.604 757.012,-117.679 751.665,-112.841 758.188,-109.766 763.534,-114.604"/>
<text text-anchor="middle" x="1200" y="-239.5" font-family="Helvetica,sans-Serif" font-size="10.00"> &#45;jointsLimits</text>
</g>
<!-- Node16 -->
<g id="node16" class="node"><title>Node16</title>
<polygon fill="none" stroke="#bfbfbf" points="1250.5,-288.5 1250.5,-345.5 1333.5,-345.5 1333.5,-288.5 1250.5,-288.5"/>
<text text-anchor="middle" x="1292" y="-333.5" font-family="Helvetica,sans-Serif" font-size="10.00">VectorDynSize</text>
<polyline fill="none" stroke="#bfbfbf" points="1250.5,-326.5 1333.5,-326.5 "/>
<text text-anchor="middle" x="1292" y="-314.5" font-family="Helvetica,sans-Serif" font-size="10.00"> </text>
<polyline fill="none" stroke="#bfbfbf" points="1250.5,-307.5 1333.5,-307.5 "/>
<text text-anchor="middle" x="1292" y="-295.5" font-family="Helvetica,sans-Serif" font-size="10.00"> </text>
</g>
<!-- Node16&#45;&gt;Node1 -->
<g id="edge15" class="edge"><title>Node16&#45;&gt;Node1</title>
<path fill="none" stroke="#404040" d="M1281.9,-288.496C1272.39,-266.54 1256.01,-236.77 1232,-220 1157.4,-167.89 903.151,-130.019 763.952,-112.632"/>
<polygon fill="none" stroke="#404040" points="763.58,-112.586 757.135,-115.82 751.671,-111.114 758.116,-107.88 763.58,-112.586"/>
<text text-anchor="middle" x="1302" y="-256" font-family="Helvetica,sans-Serif" font-size="10.00"> &#45;desiredJoints</text>
<text text-anchor="middle" x="1302" y="-245" font-family="Helvetica,sans-Serif" font-size="10.00">&#45;guess</text>
<text text-anchor="middle" x="1302" y="-234" font-family="Helvetica,sans-Serif" font-size="10.00">&#45;jointsTemp</text>
<text text-anchor="middle" x="1302" y="-223" font-family="Helvetica,sans-Serif" font-size="10.00">&#45;jointResult</text>
</g>
</g>
</svg>
        <g id="navigator" transform="translate(0 0)" fill="#404254">
                <rect fill="#f2f5e9" fill-opacity="0.5" stroke="#606060" stroke-width=".5" x="0" y="0" width="60" height="60"/>
                <use id="zoomplus" xlink:href="#zoomPlus" x="17" y="9" onmousedown="handleZoom(evt,'in')"/>
                <use id="zoomminus" xlink:href="#zoomMin" x="42" y="9" onmousedown="handleZoom(evt,'out')"/>
                <use id="reset" xlink:href="#resetDef" x="30" y="36" onmousedown="handleReset()"/>
                <g id="arrowUp" xlink:href="#dirArrow" transform="translate(30 24)" onmousedown="handlePan(0,-1)">
                  <use xlink:href="#rim" fill="#404040">
                        <set attributeName="fill" to="#808080" begin="arrowUp.mouseover" end="arrowUp.mouseout"/>
                  </use>
                  <path fill="none" stroke="white" stroke-width="1.5" d="M0,-3.0v7 M-2.5,-0.5L0,-3.0L2.5,-0.5"/>
                </g>
                <g id="arrowRight" xlink:href="#dirArrow" transform="rotate(90) translate(36 -43)" onmousedown="handlePan(1,0)">
                  <use xlink:href="#rim" fill="#404040">
                        <set attributeName="fill" to="#808080" begin="arrowRight.mouseover" end="arrowRight.mouseout"/>
                  </use>
                  <path fill="none" stroke="white" stroke-width="1.5" d="M0,-3.0v7 M-2.5,-0.5L0,-3.0L2.5,-0.5"/>
                </g>
                <g id="arrowDown" xlink:href="#dirArrow" transform="rotate(180) translate(-30 -48)" onmousedown="handlePan(0,1)">
                  <use xlink:href="#rim" fill="#404040">
                        <set attributeName="fill" to="#808080" begin="arrowDown.mouseover" end="arrowDown.mouseout"/>
                  </use>
                  <path fill="none" stroke="white" stroke-width="1.5" d="M0,-3.0v7 M-2.5,-0.5L0,-3.0L2.5,-0.5"/>
                </g>
                <g id="arrowLeft" xlink:href="#dirArrow" transform="rotate(270) translate(-36 17)" onmousedown="handlePan(-1,0)">
                  <use xlink:href="#rim" fill="#404040">
                        <set attributeName="fill" to="#808080" begin="arrowLeft.mouseover" end="arrowLeft.mouseout"/>
                  </use>
                  <path fill="none" stroke="white" stroke-width="1.5" d="M0,-3.0v7 M-2.5,-0.5L0,-3.0L2.5,-0.5"/>
                </g>
        </g>
        <svg viewBox="0 0 15 15" width="100%" height="30px" preserveAspectRatio="xMaxYMin meet">
         <g id="arrow_out" transform="scale(0.3 0.3)">
          <a xlink:href="class_inverse_kinematics_v2_i_p_o_p_t__coll__graph_org.svg" target="_base">
           <rect id="button" ry="5" rx="5" y="6" x="6" height="38" width="38"
                fill="#f2f5e9" fill-opacity="0.5" stroke="#606060" stroke-width="1.0"/>
           <path id="arrow"
             d="M 11.500037,31.436501 C 11.940474,20.09759 22.043105,11.32322 32.158766,21.979434 L 37.068811,17.246167 C 37.068811,17.246167 37.088388,32 37.088388,32 L 22.160133,31.978069 C 22.160133,31.978069 26.997745,27.140456 26.997745,27.140456 C 18.528582,18.264221 13.291696,25.230495 11.500037,31.436501 z"
             style="fill:#404040;"/>
          </a>
         </g>
        </svg>
</svg>
