<?xml version="1.0" encoding="UTF-8" standalone="no"?>
<!DOCTYPE svg PUBLIC "-//W3C//DTD SVG 1.1//EN"
 "http://www.w3.org/Graphics/SVG/1.1/DTD/svg11.dtd">
<!-- Generated by graphviz version 2.36.0 (20140111.2315)
 -->
<!-- Title: human::Force6D::Editor Pages: 1 -->
<!--zoomable 906 -->
<svg id="main" version="1.1" xmlns="http://www.w3.org/2000/svg" xmlns:xlink="http://www.w3.org/1999/xlink" xml:space="preserve" onload="init(evt)">
<style type="text/css"><![CDATA[
.edge:hover path { stroke: red; }
.edge:hover polygon { stroke: red; fill: red; }
]]></style>
<script type="text/javascript"><![CDATA[
var edges = document.getElementsByTagName('g');
if (edges && edges.length) {
  for (var i=0;i<edges.length;i++) {
    if (edges[i].id.substr(0,4)=='edge') {
      edges[i].setAttribute('class','edge');
    }
  }
}
]]></script>
        <defs>
                <circle id="rim" cx="0" cy="0" r="7"/>
                <circle id="rim2" cx="0" cy="0" r="3.5"/>
                <g id="zoomPlus">
                        <use xlink:href="#rim" fill="#404040">
                                <set attributeName="fill" to="#808080" begin="zoomplus.mouseover" end="zoomplus.mouseout"/>
                        </use>
                        <path d="M-4,0h8M0,-4v8" fill="none" stroke="white" stroke-width="1.5" pointer-events="none"/>
                </g>
                <g id="zoomMin">
                        <use xlink:href="#rim" fill="#404040">
                                <set attributeName="fill" to="#808080" begin="zoomminus.mouseover" end="zoomminus.mouseout"/>
                        </use>
                        <path d="M-4,0h8" fill="none" stroke="white" stroke-width="1.5" pointer-events="none"/>
                </g>
                <g id="dirArrow">
                        <path fill="none" stroke="white" stroke-width="1.5" d="M0,-3.0v7 M-2.5,-0.5L0,-3.0L2.5,-0.5"/>
                </g>
               <g id="resetDef">
                       <use xlink:href="#rim2" fill="#404040">
                               <set attributeName="fill" to="#808080" begin="reset.mouseover" end="reset.mouseout"/>
                       </use>
               </g>
        </defs>

<script type="text/javascript">
var viewWidth = 517;
var viewHeight = 906;
var sectionId = 'dynsection-1';
</script>
<script xlink:href="svgpan.js"/>
<svg id="graph" class="graph">
<g id="viewport">
<title>human::Force6D::Editor</title>
<!-- Node1 -->
<g id="node1" class="node"><title>Node1</title>
<polygon fill="#bfbfbf" stroke="black" points="9,-1 9,-289 161,-289 161,-1 9,-1"/>
<text text-anchor="middle" x="85" y="-277" font-family="Helvetica,sans-Serif" font-size="10.00">human::Force6D::Editor</text>
<polyline fill="none" stroke="black" points="9,-270 161,-270 "/>
<text text-anchor="middle" x="85" y="-258" font-family="Helvetica,sans-Serif" font-size="10.00"> </text>
<polyline fill="none" stroke="black" points="9,-251 161,-251 "/>
<text text-anchor="start" x="17" y="-239" font-family="Helvetica,sans-Serif" font-size="10.00">+ Editor()</text>
<text text-anchor="start" x="17" y="-228" font-family="Helvetica,sans-Serif" font-size="10.00">+ Editor()</text>
<text text-anchor="start" x="17" y="-217" font-family="Helvetica,sans-Serif" font-size="10.00">+ edit()</text>
<text text-anchor="start" x="17" y="-206" font-family="Helvetica,sans-Serif" font-size="10.00">+ ~Editor()</text>
<text text-anchor="start" x="17" y="-195" font-family="Helvetica,sans-Serif" font-size="10.00">+ isValid()</text>
<text text-anchor="start" x="17" y="-184" font-family="Helvetica,sans-Serif" font-size="10.00">+ state()</text>
<text text-anchor="start" x="17" y="-173" font-family="Helvetica,sans-Serif" font-size="10.00">+ begin()</text>
<text text-anchor="start" x="17" y="-162" font-family="Helvetica,sans-Serif" font-size="10.00">+ end()</text>
<text text-anchor="start" x="17" y="-151" font-family="Helvetica,sans-Serif" font-size="10.00">+ set_appliedLink()</text>
<text text-anchor="start" x="17" y="-140" font-family="Helvetica,sans-Serif" font-size="10.00">+ set_expressedFrame()</text>
<text text-anchor="start" x="17" y="-129" font-family="Helvetica,sans-Serif" font-size="10.00">and 76 more...</text>
<text text-anchor="start" x="17" y="-118" font-family="Helvetica,sans-Serif" font-size="10.00">&#45; communicate()</text>
<text text-anchor="start" x="17" y="-107" font-family="Helvetica,sans-Serif" font-size="10.00">&#45; mark_dirty()</text>
<text text-anchor="start" x="17" y="-96" font-family="Helvetica,sans-Serif" font-size="10.00">&#45; mark_dirty_appliedLink()</text>
<text text-anchor="start" x="17" y="-85" font-family="Helvetica,sans-Serif" font-size="10.00">&#45; mark_dirty_expressedFrame()</text>
<text text-anchor="start" x="17" y="-74" font-family="Helvetica,sans-Serif" font-size="10.00">&#45; mark_dirty_fx()</text>
<text text-anchor="start" x="17" y="-63" font-family="Helvetica,sans-Serif" font-size="10.00">&#45; mark_dirty_fy()</text>
<text text-anchor="start" x="17" y="-52" font-family="Helvetica,sans-Serif" font-size="10.00">&#45; mark_dirty_fz()</text>
<text text-anchor="start" x="17" y="-41" font-family="Helvetica,sans-Serif" font-size="10.00">&#45; mark_dirty_ux()</text>
<text text-anchor="start" x="17" y="-30" font-family="Helvetica,sans-Serif" font-size="10.00">&#45; mark_dirty_uy()</text>
<text text-anchor="start" x="17" y="-19" font-family="Helvetica,sans-Serif" font-size="10.00">&#45; mark_dirty_uz()</text>
<text text-anchor="start" x="17" y="-8" font-family="Helvetica,sans-Serif" font-size="10.00">and 12 more...</text>
</g>
<!-- Node2 -->
<g id="node2" class="node"><title>Node2</title>
<g id="a_node2"><a xlink:href="classyarp_1_1os_1_1_wire.html" target="_top" xlink:title="{Wire\n||}">
<polygon fill="none" stroke="black" points="-0.5,-564.5 -0.5,-621.5 36.5,-621.5 36.5,-564.5 -0.5,-564.5"/>
<text text-anchor="middle" x="18" y="-609.5" font-family="Helvetica,sans-Serif" font-size="10.00">Wire</text>
<polyline fill="none" stroke="black" points="-0.5,-602.5 36.5,-602.5 "/>
<text text-anchor="middle" x="18" y="-590.5" font-family="Helvetica,sans-Serif" font-size="10.00"> </text>
<polyline fill="none" stroke="black" points="-0.5,-583.5 36.5,-583.5 "/>
<text text-anchor="middle" x="18" y="-571.5" font-family="Helvetica,sans-Serif" font-size="10.00"> </text>
</a>
</g>
</g>
<!-- Node2&#45;&gt;Node1 -->
<g id="edge1" class="edge"><title>Node2&#45;&gt;Node1</title>
<path fill="none" stroke="midnightblue" d="M19.7007,-554.275C25.8579,-496.254 42.2135,-382.091 57.1371,-289.204"/>
<polygon fill="none" stroke="midnightblue" points="16.1969,-554.136 18.6723,-564.437 23.1614,-554.84 16.1969,-554.136"/>
</g>
<!-- Node2&#45;&gt;Node1 -->
<g id="edge3" class="edge"><title>Node2&#45;&gt;Node1</title>
<path fill="none" stroke="midnightblue" d="M27.6338,-554.275C38.9087,-496.254 56.8534,-382.091 69.8376,-289.204"/>
<polygon fill="none" stroke="midnightblue" points="24.1306,-553.946 25.6089,-564.437 30.9956,-555.314 24.1306,-553.946"/>
</g>
<!-- Node3 -->
<g id="node3" class="node"><title>Node3</title>
<g id="a_node3"><a xlink:href="classyarp_1_1os_1_1_port_writer.html" target="_top" xlink:title="{PortWriter\n||}">
<polygon fill="none" stroke="black" points="54.5,-564.5 54.5,-621.5 115.5,-621.5 115.5,-564.5 54.5,-564.5"/>
<text text-anchor="middle" x="85" y="-609.5" font-family="Helvetica,sans-Serif" font-size="10.00">PortWriter</text>
<polyline fill="none" stroke="black" points="54.5,-602.5 115.5,-602.5 "/>
<text text-anchor="middle" x="85" y="-590.5" font-family="Helvetica,sans-Serif" font-size="10.00"> </text>
<polyline fill="none" stroke="black" points="54.5,-583.5 115.5,-583.5 "/>
<text text-anchor="middle" x="85" y="-571.5" font-family="Helvetica,sans-Serif" font-size="10.00"> </text>
</a>
</g>
</g>
<!-- Node3&#45;&gt;Node1 -->
<g id="edge2" class="edge"><title>Node3&#45;&gt;Node1</title>
<path fill="none" stroke="midnightblue" d="M81.0334,-554.275C78.4746,-496.254 77.68,-382.091 78.6498,-289.204"/>
<polygon fill="none" stroke="midnightblue" points="77.5461,-554.621 81.5317,-564.437 84.5377,-554.278 77.5461,-554.621"/>
</g>
<!-- Node3&#45;&gt;Node1 -->
<g id="edge4" class="edge"><title>Node3&#45;&gt;Node1</title>
<path fill="none" stroke="midnightblue" d="M88.9666,-554.275C91.5254,-496.254 92.32,-382.091 91.3502,-289.204"/>
<polygon fill="none" stroke="midnightblue" points="85.4623,-554.278 88.4683,-564.437 92.4539,-554.621 85.4623,-554.278"/>
</g>
<!-- Node4 -->
<g id="node4" class="node"><title>Node4</title>
<g id="a_node4"><a xlink:href="classhuman_1_1_force6_d.html" target="_top" xlink:title="{human::Force6D\n||+ Force6D()\l+ Force6D()\l+ Force6D()\l+ operator=()\l+ read()\l+ read()\l+ write()\l+ write()\l+ toString()\l+ Force6D()\land 8 more...\l&#45; write_appliedLink()\l&#45; nested_write_appliedLink()\l&#45; write_expressedFrame()\l&#45; nested_write_expressedFrame()\l&#45; write_fx()\l&#45; nested_write_fx()\l&#45; write_fy()\l&#45; nested_write_fy()\l&#45; write_fz()\l&#45; nested_write_fz()\land 54 more...\l}">
<polygon fill="none" stroke="black" points="134,-449 134,-737 296,-737 296,-449 134,-449"/>
<text text-anchor="middle" x="215" y="-725" font-family="Helvetica,sans-Serif" font-size="10.00">human::Force6D</text>
<polyline fill="none" stroke="black" points="134,-718 296,-718 "/>
<text text-anchor="middle" x="215" y="-706" font-family="Helvetica,sans-Serif" font-size="10.00"> </text>
<polyline fill="none" stroke="black" points="134,-699 296,-699 "/>
<text text-anchor="start" x="142" y="-687" font-family="Helvetica,sans-Serif" font-size="10.00">+ Force6D()</text>
<text text-anchor="start" x="142" y="-676" font-family="Helvetica,sans-Serif" font-size="10.00">+ Force6D()</text>
<text text-anchor="start" x="142" y="-665" font-family="Helvetica,sans-Serif" font-size="10.00">+ Force6D()</text>
<text text-anchor="start" x="142" y="-654" font-family="Helvetica,sans-Serif" font-size="10.00">+ operator=()</text>
<text text-anchor="start" x="142" y="-643" font-family="Helvetica,sans-Serif" font-size="10.00">+ read()</text>
<text text-anchor="start" x="142" y="-632" font-family="Helvetica,sans-Serif" font-size="10.00">+ read()</text>
<text text-anchor="start" x="142" y="-621" font-family="Helvetica,sans-Serif" font-size="10.00">+ write()</text>
<text text-anchor="start" x="142" y="-610" font-family="Helvetica,sans-Serif" font-size="10.00">+ write()</text>
<text text-anchor="start" x="142" y="-599" font-family="Helvetica,sans-Serif" font-size="10.00">+ toString()</text>
<text text-anchor="start" x="142" y="-588" font-family="Helvetica,sans-Serif" font-size="10.00">+ Force6D()</text>
<text text-anchor="start" x="142" y="-577" font-family="Helvetica,sans-Serif" font-size="10.00">and 8 more...</text>
<text text-anchor="start" x="142" y="-566" font-family="Helvetica,sans-Serif" font-size="10.00">&#45; write_appliedLink()</text>
<text text-anchor="start" x="142" y="-555" font-family="Helvetica,sans-Serif" font-size="10.00">&#45; nested_write_appliedLink()</text>
<text text-anchor="start" x="142" y="-544" font-family="Helvetica,sans-Serif" font-size="10.00">&#45; write_expressedFrame()</text>
<text text-anchor="start" x="142" y="-533" font-family="Helvetica,sans-Serif" font-size="10.00">&#45; nested_write_expressedFrame()</text>
<text text-anchor="start" x="142" y="-522" font-family="Helvetica,sans-Serif" font-size="10.00">&#45; write_fx()</text>
<text text-anchor="start" x="142" y="-511" font-family="Helvetica,sans-Serif" font-size="10.00">&#45; nested_write_fx()</text>
<text text-anchor="start" x="142" y="-500" font-family="Helvetica,sans-Serif" font-size="10.00">&#45; write_fy()</text>
<text text-anchor="start" x="142" y="-489" font-family="Helvetica,sans-Serif" font-size="10.00">&#45; nested_write_fy()</text>
<text text-anchor="start" x="142" y="-478" font-family="Helvetica,sans-Serif" font-size="10.00">&#45; write_fz()</text>
<text text-anchor="start" x="142" y="-467" font-family="Helvetica,sans-Serif" font-size="10.00">&#45; nested_write_fz()</text>
<text text-anchor="start" x="142" y="-456" font-family="Helvetica,sans-Serif" font-size="10.00">and 54 more...</text>
</a>
</g>
</g>
<!-- Node4&#45;&gt;Node1 -->
<g id="edge5" class="edge"><title>Node4&#45;&gt;Node1</title>
<path fill="none" stroke="#404040" d="M173.241,-448.735C159.489,-401.554 144.138,-348.889 130.145,-300.882"/>
<polygon fill="none" stroke="#404040" points="130.071,-300.629 124.552,-295.988 126.713,-289.108 132.232,-293.749 130.071,-300.629"/>
<text text-anchor="middle" x="175.5" y="-366.5" font-family="Helvetica,sans-Serif" font-size="10.00"> &#45;obj</text>
</g>
<!-- Node5 -->
<g id="node5" class="node"><title>Node5</title>
<g id="a_node5"><a xlink:href="classyarp_1_1os_1_1idl_1_1_wire_portable.html" target="_top" xlink:title="{WirePortable\n||}">
<polygon fill="none" stroke="black" points="123.5,-840.5 123.5,-897.5 196.5,-897.5 196.5,-840.5 123.5,-840.5"/>
<text text-anchor="middle" x="160" y="-885.5" font-family="Helvetica,sans-Serif" font-size="10.00">WirePortable</text>
<polyline fill="none" stroke="black" points="123.5,-878.5 196.5,-878.5 "/>
<text text-anchor="middle" x="160" y="-866.5" font-family="Helvetica,sans-Serif" font-size="10.00"> </text>
<polyline fill="none" stroke="black" points="123.5,-859.5 196.5,-859.5 "/>
<text text-anchor="middle" x="160" y="-847.5" font-family="Helvetica,sans-Serif" font-size="10.00"> </text>
</a>
</g>
</g>
<!-- Node5&#45;&gt;Node4 -->
<g id="edge6" class="edge"><title>Node5&#45;&gt;Node4</title>
<path fill="none" stroke="midnightblue" d="M162.714,-830.484C166.456,-805.779 172.653,-771.706 179.529,-737.113"/>
<polygon fill="none" stroke="midnightblue" points="159.237,-830.075 161.266,-840.473 166.165,-831.079 159.237,-830.075"/>
</g>
<!-- Node5&#45;&gt;Node4 -->
<g id="edge7" class="edge"><title>Node5&#45;&gt;Node4</title>
<path fill="none" stroke="midnightblue" d="M172.347,-830.484C178.524,-805.779 186.005,-771.706 193.017,-737.113"/>
<polygon fill="none" stroke="midnightblue" points="168.879,-829.917 169.785,-840.473 175.66,-831.656 168.879,-829.917"/>
</g>
<!-- Node6 -->
<g id="node6" class="node"><title>Node6</title>
<polygon fill="none" stroke="#bfbfbf" points="214.5,-840.5 214.5,-897.5 259.5,-897.5 259.5,-840.5 214.5,-840.5"/>
<text text-anchor="middle" x="237" y="-885.5" font-family="Helvetica,sans-Serif" font-size="10.00">double</text>
<polyline fill="none" stroke="#bfbfbf" points="214.5,-878.5 259.5,-878.5 "/>
<text text-anchor="middle" x="237" y="-866.5" font-family="Helvetica,sans-Serif" font-size="10.00"> </text>
<polyline fill="none" stroke="#bfbfbf" points="214.5,-859.5 259.5,-859.5 "/>
<text text-anchor="middle" x="237" y="-847.5" font-family="Helvetica,sans-Serif" font-size="10.00"> </text>
</g>
<!-- Node6&#45;&gt;Node4 -->
<g id="edge8" class="edge"><title>Node6&#45;&gt;Node4</title>
<path fill="none" stroke="#404040" d="M234.79,-840.473C232.989,-818.039 230.287,-784.397 227.455,-749.124"/>
<polygon fill="none" stroke="#404040" points="227.451,-749.074 222.984,-743.414 226.491,-737.113 230.958,-742.773 227.451,-749.074"/>
<text text-anchor="middle" x="242" y="-814" font-family="Helvetica,sans-Serif" font-size="10.00"> +fx</text>
<text text-anchor="middle" x="242" y="-803" font-family="Helvetica,sans-Serif" font-size="10.00">+fy</text>
<text text-anchor="middle" x="242" y="-792" font-family="Helvetica,sans-Serif" font-size="10.00">+ux</text>
<text text-anchor="middle" x="242" y="-781" font-family="Helvetica,sans-Serif" font-size="10.00">+fz</text>
<text text-anchor="middle" x="242" y="-770" font-family="Helvetica,sans-Serif" font-size="10.00">+uy</text>
<text text-anchor="middle" x="242" y="-759" font-family="Helvetica,sans-Serif" font-size="10.00">+uz</text>
</g>
<!-- Node7 -->
<g id="node7" class="node"><title>Node7</title>
<polygon fill="none" stroke="#bfbfbf" points="277.5,-840.5 277.5,-897.5 318.5,-897.5 318.5,-840.5 277.5,-840.5"/>
<text text-anchor="middle" x="298" y="-885.5" font-family="Helvetica,sans-Serif" font-size="10.00">string</text>
<polyline fill="none" stroke="#bfbfbf" points="277.5,-878.5 318.5,-878.5 "/>
<text text-anchor="middle" x="298" y="-866.5" font-family="Helvetica,sans-Serif" font-size="10.00"> </text>
<polyline fill="none" stroke="#bfbfbf" points="277.5,-859.5 318.5,-859.5 "/>
<text text-anchor="middle" x="298" y="-847.5" font-family="Helvetica,sans-Serif" font-size="10.00"> </text>
</g>
<!-- Node7&#45;&gt;Node4 -->
<g id="edge9" class="edge"><title>Node7&#45;&gt;Node4</title>
<path fill="none" stroke="#404040" d="M289.662,-840.473C282.836,-817.941 272.586,-784.104 261.851,-748.664"/>
<polygon fill="none" stroke="#404040" points="261.831,-748.597 256.263,-744.015 258.352,-737.113 263.919,-741.695 261.831,-748.597"/>
<text text-anchor="middle" x="322.5" y="-792" font-family="Helvetica,sans-Serif" font-size="10.00"> +appliedLink</text>
<text text-anchor="middle" x="322.5" y="-781" font-family="Helvetica,sans-Serif" font-size="10.00">+expressedFrame</text>
</g>
<!-- Node8 -->
<g id="node8" class="node"><title>Node8</title>
<polygon fill="none" stroke="#bfbfbf" points="314.5,-564.5 314.5,-621.5 343.5,-621.5 343.5,-564.5 314.5,-564.5"/>
<text text-anchor="middle" x="329" y="-609.5" font-family="Helvetica,sans-Serif" font-size="10.00">int</text>
<polyline fill="none" stroke="#bfbfbf" points="314.5,-602.5 343.5,-602.5 "/>
<text text-anchor="middle" x="329" y="-590.5" font-family="Helvetica,sans-Serif" font-size="10.00"> </text>
<polyline fill="none" stroke="#bfbfbf" points="314.5,-583.5 343.5,-583.5 "/>
<text text-anchor="middle" x="329" y="-571.5" font-family="Helvetica,sans-Serif" font-size="10.00"> </text>
</g>
<!-- Node8&#45;&gt;Node1 -->
<g id="edge10" class="edge"><title>Node8&#45;&gt;Node1</title>
<path fill="none" stroke="#404040" d="M328.161,-564.424C326.411,-534.645 321.085,-486.327 305,-448 272.422,-370.377 216.338,-293.845 168.951,-237.245"/>
<polygon fill="none" stroke="#404040" points="168.869,-237.147 161.941,-235.146 161.124,-227.981 168.052,-229.983 168.869,-237.147"/>
<text text-anchor="middle" x="324.5" y="-372" font-family="Helvetica,sans-Serif" font-size="10.00"> &#45;dirty_count</text>
<text text-anchor="middle" x="324.5" y="-361" font-family="Helvetica,sans-Serif" font-size="10.00">&#45;group</text>
</g>
<!-- Node9 -->
<g id="node9" class="node"><title>Node9</title>
<polygon fill="none" stroke="#bfbfbf" points="375.5,-564.5 375.5,-621.5 410.5,-621.5 410.5,-564.5 375.5,-564.5"/>
<text text-anchor="middle" x="393" y="-609.5" font-family="Helvetica,sans-Serif" font-size="10.00">bool</text>
<polyline fill="none" stroke="#bfbfbf" points="375.5,-602.5 410.5,-602.5 "/>
<text text-anchor="middle" x="393" y="-590.5" font-family="Helvetica,sans-Serif" font-size="10.00"> </text>
<polyline fill="none" stroke="#bfbfbf" points="375.5,-583.5 410.5,-583.5 "/>
<text text-anchor="middle" x="393" y="-571.5" font-family="Helvetica,sans-Serif" font-size="10.00"> </text>
</g>
<!-- Node9&#45;&gt;Node1 -->
<g id="edge11" class="edge"><title>Node9&#45;&gt;Node1</title>
<path fill="none" stroke="#404040" d="M396.854,-564.285C402.884,-510.158 408.926,-388.645 356,-308 313.177,-242.749 234.153,-199.967 172.447,-174.845"/>
<polygon fill="none" stroke="#404040" points="172.293,-174.784 165.241,-176.29 161.139,-170.359 168.192,-168.854 172.293,-174.784"/>
<text text-anchor="middle" x="452.5" y="-421.5" font-family="Helvetica,sans-Serif" font-size="10.00"> &#45;is_dirty_appliedLink</text>
<text text-anchor="middle" x="452.5" y="-410.5" font-family="Helvetica,sans-Serif" font-size="10.00">&#45;is_dirty</text>
<text text-anchor="middle" x="452.5" y="-399.5" font-family="Helvetica,sans-Serif" font-size="10.00">&#45;obj_owned</text>
<text text-anchor="middle" x="452.5" y="-388.5" font-family="Helvetica,sans-Serif" font-size="10.00">&#45;is_dirty_fx</text>
<text text-anchor="middle" x="452.5" y="-377.5" font-family="Helvetica,sans-Serif" font-size="10.00">&#45;is_dirty_fy</text>
<text text-anchor="middle" x="452.5" y="-366.5" font-family="Helvetica,sans-Serif" font-size="10.00">&#45;is_dirty_expressedFrame</text>
<text text-anchor="middle" x="452.5" y="-355.5" font-family="Helvetica,sans-Serif" font-size="10.00">&#45;is_dirty_ux</text>
<text text-anchor="middle" x="452.5" y="-344.5" font-family="Helvetica,sans-Serif" font-size="10.00">&#45;is_dirty_fz</text>
<text text-anchor="middle" x="452.5" y="-333.5" font-family="Helvetica,sans-Serif" font-size="10.00">&#45;is_dirty_uy</text>
<text text-anchor="middle" x="452.5" y="-322.5" font-family="Helvetica,sans-Serif" font-size="10.00">&#45;is_dirty_uz</text>
<text text-anchor="middle" x="452.5" y="-311.5" font-family="Helvetica,sans-Serif" font-size="10.00">...</text>
</g>
</g>
</svg>
        <g id="navigator" transform="translate(0 0)" fill="#404254">
                <rect fill="#f2f5e9" fill-opacity="0.5" stroke="#606060" stroke-width=".5" x="0" y="0" width="60" height="60"/>
                <use id="zoomplus" xlink:href="#zoomPlus" x="17" y="9" onmousedown="handleZoom(evt,'in')"/>
                <use id="zoomminus" xlink:href="#zoomMin" x="42" y="9" onmousedown="handleZoom(evt,'out')"/>
                <use id="reset" xlink:href="#resetDef" x="30" y="36" onmousedown="handleReset()"/>
                <g id="arrowUp" xlink:href="#dirArrow" transform="translate(30 24)" onmousedown="handlePan(0,-1)">
                  <use xlink:href="#rim" fill="#404040">
                        <set attributeName="fill" to="#808080" begin="arrowUp.mouseover" end="arrowUp.mouseout"/>
                  </use>
                  <path fill="none" stroke="white" stroke-width="1.5" d="M0,-3.0v7 M-2.5,-0.5L0,-3.0L2.5,-0.5"/>
                </g>
                <g id="arrowRight" xlink:href="#dirArrow" transform="rotate(90) translate(36 -43)" onmousedown="handlePan(1,0)">
                  <use xlink:href="#rim" fill="#404040">
                        <set attributeName="fill" to="#808080" begin="arrowRight.mouseover" end="arrowRight.mouseout"/>
                  </use>
                  <path fill="none" stroke="white" stroke-width="1.5" d="M0,-3.0v7 M-2.5,-0.5L0,-3.0L2.5,-0.5"/>
                </g>
                <g id="arrowDown" xlink:href="#dirArrow" transform="rotate(180) translate(-30 -48)" onmousedown="handlePan(0,1)">
                  <use xlink:href="#rim" fill="#404040">
                        <set attributeName="fill" to="#808080" begin="arrowDown.mouseover" end="arrowDown.mouseout"/>
                  </use>
                  <path fill="none" stroke="white" stroke-width="1.5" d="M0,-3.0v7 M-2.5,-0.5L0,-3.0L2.5,-0.5"/>
                </g>
                <g id="arrowLeft" xlink:href="#dirArrow" transform="rotate(270) translate(-36 17)" onmousedown="handlePan(-1,0)">
                  <use xlink:href="#rim" fill="#404040">
                        <set attributeName="fill" to="#808080" begin="arrowLeft.mouseover" end="arrowLeft.mouseout"/>
                  </use>
                  <path fill="none" stroke="white" stroke-width="1.5" d="M0,-3.0v7 M-2.5,-0.5L0,-3.0L2.5,-0.5"/>
                </g>
        </g>
        <svg viewBox="0 0 15 15" width="100%" height="30px" preserveAspectRatio="xMaxYMin meet">
         <g id="arrow_out" transform="scale(0.3 0.3)">
          <a xlink:href="classhuman_1_1_force6_d_1_1_editor__coll__graph_org.svg" target="_base">
           <rect id="button" ry="5" rx="5" y="6" x="6" height="38" width="38"
                fill="#f2f5e9" fill-opacity="0.5" stroke="#606060" stroke-width="1.0"/>
           <path id="arrow"
             d="M 11.500037,31.436501 C 11.940474,20.09759 22.043105,11.32322 32.158766,21.979434 L 37.068811,17.246167 C 37.068811,17.246167 37.088388,32 37.088388,32 L 22.160133,31.978069 C 22.160133,31.978069 26.997745,27.140456 26.997745,27.140456 C 18.528582,18.264221 13.291696,25.230495 11.500037,31.436501 z"
             style="fill:#404040;"/>
          </a>
         </g>
        </svg>
</svg>
