<?xml version="1.0" encoding="UTF-8" standalone="no"?>
<!DOCTYPE svg PUBLIC "-//W3C//DTD SVG 1.1//EN"
 "http://www.w3.org/Graphics/SVG/1.1/DTD/svg11.dtd">
<!-- Generated by graphviz version 2.36.0 (20140111.2315)
 -->
<!-- Title: human::HumanState Pages: 1 -->
<svg width="503pt" height="1146pt"
 viewBox="0.00 0.00 503.00 1146.00" xmlns="http://www.w3.org/2000/svg" xmlns:xlink="http://www.w3.org/1999/xlink">
<g id="graph0" class="graph" transform="scale(1 1) rotate(0) translate(4 1142)">
<title>human::HumanState</title>
<!-- Node1 -->
<g id="node1" class="node"><title>Node1</title>
<polygon fill="#bfbfbf" stroke="black" points="-0.5,-1 -0.5,-311 186.5,-311 186.5,-1 -0.5,-1"/>
<text text-anchor="middle" x="93" y="-299" font-family="Helvetica,sans-Serif" font-size="10.00">human::HumanState</text>
<polyline fill="none" stroke="black" points="-0.5,-292 186.5,-292 "/>
<text text-anchor="middle" x="93" y="-280" font-family="Helvetica,sans-Serif" font-size="10.00"> </text>
<polyline fill="none" stroke="black" points="-0.5,-273 186.5,-273 "/>
<text text-anchor="start" x="7.5" y="-261" font-family="Helvetica,sans-Serif" font-size="10.00">+ HumanState()</text>
<text text-anchor="start" x="7.5" y="-250" font-family="Helvetica,sans-Serif" font-size="10.00">+ HumanState()</text>
<text text-anchor="start" x="7.5" y="-239" font-family="Helvetica,sans-Serif" font-size="10.00">+ HumanState()</text>
<text text-anchor="start" x="7.5" y="-228" font-family="Helvetica,sans-Serif" font-size="10.00">+ operator=()</text>
<text text-anchor="start" x="7.5" y="-217" font-family="Helvetica,sans-Serif" font-size="10.00">+ read()</text>
<text text-anchor="start" x="7.5" y="-206" font-family="Helvetica,sans-Serif" font-size="10.00">+ read()</text>
<text text-anchor="start" x="7.5" y="-195" font-family="Helvetica,sans-Serif" font-size="10.00">+ write()</text>
<text text-anchor="start" x="7.5" y="-184" font-family="Helvetica,sans-Serif" font-size="10.00">+ write()</text>
<text text-anchor="start" x="7.5" y="-173" font-family="Helvetica,sans-Serif" font-size="10.00">+ toString()</text>
<text text-anchor="start" x="7.5" y="-162" font-family="Helvetica,sans-Serif" font-size="10.00">+ HumanState()</text>
<text text-anchor="start" x="7.5" y="-151" font-family="Helvetica,sans-Serif" font-size="10.00">and 8 more...</text>
<text text-anchor="start" x="7.5" y="-140" font-family="Helvetica,sans-Serif" font-size="10.00">&#45; write_positions()</text>
<text text-anchor="start" x="7.5" y="-129" font-family="Helvetica,sans-Serif" font-size="10.00">&#45; nested_write_positions()</text>
<text text-anchor="start" x="7.5" y="-118" font-family="Helvetica,sans-Serif" font-size="10.00">&#45; write_velocities()</text>
<text text-anchor="start" x="7.5" y="-107" font-family="Helvetica,sans-Serif" font-size="10.00">&#45; nested_write_velocities()</text>
<text text-anchor="start" x="7.5" y="-96" font-family="Helvetica,sans-Serif" font-size="10.00">&#45; write_baseOriginWRTGlobal()</text>
<text text-anchor="start" x="7.5" y="-85" font-family="Helvetica,sans-Serif" font-size="10.00">&#45; nested_write_baseOriginWRTGlobal()</text>
<text text-anchor="start" x="7.5" y="-74" font-family="Helvetica,sans-Serif" font-size="10.00">&#45; write_baseOrientationWRTGlobal()</text>
<text text-anchor="start" x="7.5" y="-63" font-family="Helvetica,sans-Serif" font-size="10.00">&#45; nested_write_baseOrientation</text>
<text text-anchor="start" x="7.5" y="-52" font-family="Helvetica,sans-Serif" font-size="10.00">WRTGlobal()</text>
<text text-anchor="start" x="7.5" y="-41" font-family="Helvetica,sans-Serif" font-size="10.00">&#45; write_baseVelocityWRTGlobal()</text>
<text text-anchor="start" x="7.5" y="-30" font-family="Helvetica,sans-Serif" font-size="10.00">&#45; nested_write_baseVelocity</text>
<text text-anchor="start" x="7.5" y="-19" font-family="Helvetica,sans-Serif" font-size="10.00">WRTGlobal()</text>
<text text-anchor="start" x="7.5" y="-8" font-family="Helvetica,sans-Serif" font-size="10.00">and 30 more...</text>
</g>
<!-- Node2 -->
<g id="node2" class="node"><title>Node2</title>
<g id="a_node2"><a xlink:href="classyarp_1_1os_1_1idl_1_1_wire_portable.html" target="_top" xlink:title="{WirePortable\n||}">
<polygon fill="none" stroke="black" points="117.5,-1080.5 117.5,-1137.5 190.5,-1137.5 190.5,-1080.5 117.5,-1080.5"/>
<text text-anchor="middle" x="154" y="-1125.5" font-family="Helvetica,sans-Serif" font-size="10.00">WirePortable</text>
<polyline fill="none" stroke="black" points="117.5,-1118.5 190.5,-1118.5 "/>
<text text-anchor="middle" x="154" y="-1106.5" font-family="Helvetica,sans-Serif" font-size="10.00"> </text>
<polyline fill="none" stroke="black" points="117.5,-1099.5 190.5,-1099.5 "/>
<text text-anchor="middle" x="154" y="-1087.5" font-family="Helvetica,sans-Serif" font-size="10.00"> </text>
</a>
</g>
</g>
<!-- Node2&#45;&gt;Node1 -->
<g id="edge1" class="edge"><title>Node2&#45;&gt;Node1</title>
<path fill="none" stroke="midnightblue" d="M140.273,-1070.49C119.436,-995.369 82.7152,-820.921 70,-672 59.0351,-543.578 65.9959,-510.827 70,-382 70.7113,-359.115 71.8286,-334.94 73.2365,-311.26"/>
<polygon fill="none" stroke="midnightblue" points="136.996,-1071.76 143.104,-1080.41 143.727,-1069.84 136.996,-1071.76"/>
</g>
<!-- Node2&#45;&gt;Node1 -->
<g id="edge2" class="edge"><title>Node2&#45;&gt;Node1</title>
<path fill="none" stroke="midnightblue" d="M150.367,-1070.49C137.436,-995.369 100.715,-820.921 88,-672 77.0351,-543.578 83.9959,-510.827 88,-382 88.7113,-359.115 89.8286,-334.94 91.0217,-311.26"/>
<polygon fill="none" stroke="midnightblue" points="146.926,-1071.13 152.029,-1080.41 153.83,-1069.97 146.926,-1071.13"/>
</g>
<!-- Node3 -->
<g id="node3" class="node"><title>Node3</title>
<g id="a_node3"><a xlink:href="classhuman_1_1_vector3.html" target="_top" xlink:title="{human::Vector3\n||+ Vector3()\l+ Vector3()\l+ Vector3()\l+ operator=()\l+ read()\l+ read()\l+ write()\l+ write()\l+ toString()\l+ Vector3()\land 8 more...\l&#45; write_x()\l&#45; nested_write_x()\l&#45; write_y()\l&#45; nested_write_y()\l&#45; write_z()\l&#45; nested_write_z()\l&#45; read_x()\l&#45; nested_read_x()\l&#45; read_y()\l&#45; nested_read_y()\land 14 more...\l}">
<polygon fill="none" stroke="black" points="191.5,-721 191.5,-1009 286.5,-1009 286.5,-721 191.5,-721"/>
<text text-anchor="middle" x="239" y="-997" font-family="Helvetica,sans-Serif" font-size="10.00">human::Vector3</text>
<polyline fill="none" stroke="black" points="191.5,-990 286.5,-990 "/>
<text text-anchor="middle" x="239" y="-978" font-family="Helvetica,sans-Serif" font-size="10.00"> </text>
<polyline fill="none" stroke="black" points="191.5,-971 286.5,-971 "/>
<text text-anchor="start" x="199.5" y="-959" font-family="Helvetica,sans-Serif" font-size="10.00">+ Vector3()</text>
<text text-anchor="start" x="199.5" y="-948" font-family="Helvetica,sans-Serif" font-size="10.00">+ Vector3()</text>
<text text-anchor="start" x="199.5" y="-937" font-family="Helvetica,sans-Serif" font-size="10.00">+ Vector3()</text>
<text text-anchor="start" x="199.5" y="-926" font-family="Helvetica,sans-Serif" font-size="10.00">+ operator=()</text>
<text text-anchor="start" x="199.5" y="-915" font-family="Helvetica,sans-Serif" font-size="10.00">+ read()</text>
<text text-anchor="start" x="199.5" y="-904" font-family="Helvetica,sans-Serif" font-size="10.00">+ read()</text>
<text text-anchor="start" x="199.5" y="-893" font-family="Helvetica,sans-Serif" font-size="10.00">+ write()</text>
<text text-anchor="start" x="199.5" y="-882" font-family="Helvetica,sans-Serif" font-size="10.00">+ write()</text>
<text text-anchor="start" x="199.5" y="-871" font-family="Helvetica,sans-Serif" font-size="10.00">+ toString()</text>
<text text-anchor="start" x="199.5" y="-860" font-family="Helvetica,sans-Serif" font-size="10.00">+ Vector3()</text>
<text text-anchor="start" x="199.5" y="-849" font-family="Helvetica,sans-Serif" font-size="10.00">and 8 more...</text>
<text text-anchor="start" x="199.5" y="-838" font-family="Helvetica,sans-Serif" font-size="10.00">&#45; write_x()</text>
<text text-anchor="start" x="199.5" y="-827" font-family="Helvetica,sans-Serif" font-size="10.00">&#45; nested_write_x()</text>
<text text-anchor="start" x="199.5" y="-816" font-family="Helvetica,sans-Serif" font-size="10.00">&#45; write_y()</text>
<text text-anchor="start" x="199.5" y="-805" font-family="Helvetica,sans-Serif" font-size="10.00">&#45; nested_write_y()</text>
<text text-anchor="start" x="199.5" y="-794" font-family="Helvetica,sans-Serif" font-size="10.00">&#45; write_z()</text>
<text text-anchor="start" x="199.5" y="-783" font-family="Helvetica,sans-Serif" font-size="10.00">&#45; nested_write_z()</text>
<text text-anchor="start" x="199.5" y="-772" font-family="Helvetica,sans-Serif" font-size="10.00">&#45; read_x()</text>
<text text-anchor="start" x="199.5" y="-761" font-family="Helvetica,sans-Serif" font-size="10.00">&#45; nested_read_x()</text>
<text text-anchor="start" x="199.5" y="-750" font-family="Helvetica,sans-Serif" font-size="10.00">&#45; read_y()</text>
<text text-anchor="start" x="199.5" y="-739" font-family="Helvetica,sans-Serif" font-size="10.00">&#45; nested_read_y()</text>
<text text-anchor="start" x="199.5" y="-728" font-family="Helvetica,sans-Serif" font-size="10.00">and 14 more...</text>
</a>
</g>
</g>
<!-- Node2&#45;&gt;Node3 -->
<g id="edge4" class="edge"><title>Node2&#45;&gt;Node3</title>
<path fill="none" stroke="midnightblue" d="M164.241,-1070.79C165.553,-1067.84 166.831,-1064.89 168,-1062 176.243,-1041.66 184.104,-1019.78 191.415,-998.272"/>
<polygon fill="none" stroke="midnightblue" points="160.96,-1069.55 160.024,-1080.1 167.337,-1072.44 160.96,-1069.55"/>
</g>
<!-- Node2&#45;&gt;Node3 -->
<g id="edge5" class="edge"><title>Node2&#45;&gt;Node3</title>
<path fill="none" stroke="midnightblue" d="M182.064,-1071.07C183.47,-1068.03 184.793,-1064.98 186,-1062 192.869,-1045.05 199.473,-1027.03 205.57,-1009.05"/>
<polygon fill="none" stroke="midnightblue" points="178.895,-1069.58 177.623,-1080.1 185.177,-1072.67 178.895,-1069.58"/>
</g>
<!-- Node6 -->
<g id="node6" class="node"><title>Node6</title>
<g id="a_node6"><a xlink:href="classhuman_1_1_quaternion.html" target="_top" xlink:title="{human::Quaternion\n||+ Quaternion()\l+ Quaternion()\l+ Quaternion()\l+ operator=()\l+ read()\l+ read()\l+ write()\l+ write()\l+ toString()\l+ Quaternion()\land 8 more...\l&#45; write_w()\l&#45; nested_write_w()\l&#45; write_imaginary()\l&#45; nested_write_imaginary()\l&#45; read_w()\l&#45; nested_read_w()\l&#45; read_imaginary()\l&#45; nested_read_imaginary()\l&#45; write_w()\l&#45; nested_write_w()\land 6 more...\l}">
<polygon fill="none" stroke="black" points="88.5,-383 88.5,-671 219.5,-671 219.5,-383 88.5,-383"/>
<text text-anchor="middle" x="154" y="-659" font-family="Helvetica,sans-Serif" font-size="10.00">human::Quaternion</text>
<polyline fill="none" stroke="black" points="88.5,-652 219.5,-652 "/>
<text text-anchor="middle" x="154" y="-640" font-family="Helvetica,sans-Serif" font-size="10.00"> </text>
<polyline fill="none" stroke="black" points="88.5,-633 219.5,-633 "/>
<text text-anchor="start" x="96.5" y="-621" font-family="Helvetica,sans-Serif" font-size="10.00">+ Quaternion()</text>
<text text-anchor="start" x="96.5" y="-610" font-family="Helvetica,sans-Serif" font-size="10.00">+ Quaternion()</text>
<text text-anchor="start" x="96.5" y="-599" font-family="Helvetica,sans-Serif" font-size="10.00">+ Quaternion()</text>
<text text-anchor="start" x="96.5" y="-588" font-family="Helvetica,sans-Serif" font-size="10.00">+ operator=()</text>
<text text-anchor="start" x="96.5" y="-577" font-family="Helvetica,sans-Serif" font-size="10.00">+ read()</text>
<text text-anchor="start" x="96.5" y="-566" font-family="Helvetica,sans-Serif" font-size="10.00">+ read()</text>
<text text-anchor="start" x="96.5" y="-555" font-family="Helvetica,sans-Serif" font-size="10.00">+ write()</text>
<text text-anchor="start" x="96.5" y="-544" font-family="Helvetica,sans-Serif" font-size="10.00">+ write()</text>
<text text-anchor="start" x="96.5" y="-533" font-family="Helvetica,sans-Serif" font-size="10.00">+ toString()</text>
<text text-anchor="start" x="96.5" y="-522" font-family="Helvetica,sans-Serif" font-size="10.00">+ Quaternion()</text>
<text text-anchor="start" x="96.5" y="-511" font-family="Helvetica,sans-Serif" font-size="10.00">and 8 more...</text>
<text text-anchor="start" x="96.5" y="-500" font-family="Helvetica,sans-Serif" font-size="10.00">&#45; write_w()</text>
<text text-anchor="start" x="96.5" y="-489" font-family="Helvetica,sans-Serif" font-size="10.00">&#45; nested_write_w()</text>
<text text-anchor="start" x="96.5" y="-478" font-family="Helvetica,sans-Serif" font-size="10.00">&#45; write_imaginary()</text>
<text text-anchor="start" x="96.5" y="-467" font-family="Helvetica,sans-Serif" font-size="10.00">&#45; nested_write_imaginary()</text>
<text text-anchor="start" x="96.5" y="-456" font-family="Helvetica,sans-Serif" font-size="10.00">&#45; read_w()</text>
<text text-anchor="start" x="96.5" y="-445" font-family="Helvetica,sans-Serif" font-size="10.00">&#45; nested_read_w()</text>
<text text-anchor="start" x="96.5" y="-434" font-family="Helvetica,sans-Serif" font-size="10.00">&#45; read_imaginary()</text>
<text text-anchor="start" x="96.5" y="-423" font-family="Helvetica,sans-Serif" font-size="10.00">&#45; nested_read_imaginary()</text>
<text text-anchor="start" x="96.5" y="-412" font-family="Helvetica,sans-Serif" font-size="10.00">&#45; write_w()</text>
<text text-anchor="start" x="96.5" y="-401" font-family="Helvetica,sans-Serif" font-size="10.00">&#45; nested_write_w()</text>
<text text-anchor="start" x="96.5" y="-390" font-family="Helvetica,sans-Serif" font-size="10.00">and 6 more...</text>
</a>
</g>
</g>
<!-- Node2&#45;&gt;Node6 -->
<g id="edge9" class="edge"><title>Node2&#45;&gt;Node6</title>
<path fill="none" stroke="midnightblue" d="M150.46,-1070.41C147.227,-991.178 146.436,-803.42 148.088,-671.102"/>
<polygon fill="none" stroke="midnightblue" points="146.963,-1070.58 150.91,-1080.42 153.956,-1070.27 146.963,-1070.58"/>
</g>
<!-- Node2&#45;&gt;Node6 -->
<g id="edge10" class="edge"><title>Node2&#45;&gt;Node6</title>
<path fill="none" stroke="midnightblue" d="M157.54,-1070.41C160.773,-991.178 161.564,-803.42 159.912,-671.102"/>
<polygon fill="none" stroke="midnightblue" points="154.044,-1070.27 157.09,-1080.42 161.037,-1070.58 154.044,-1070.27"/>
</g>
<!-- Node3&#45;&gt;Node1 -->
<g id="edge3" class="edge"><title>Node3&#45;&gt;Node1</title>
<path fill="none" stroke="#404040" d="M286.525,-788.263C347.547,-680.468 436.51,-479.326 356,-330 322.435,-267.746 255.599,-224.224 197.706,-196.404"/>
<polygon fill="none" stroke="#404040" points="197.503,-196.308 190.372,-197.386 186.635,-191.219 193.765,-190.141 197.503,-196.308"/>
<text text-anchor="middle" x="441.5" y="-524.5" font-family="Helvetica,sans-Serif" font-size="10.00"> +baseOriginWRTGlobal</text>
</g>
<!-- Node3&#45;&gt;Node6 -->
<g id="edge12" class="edge"><title>Node3&#45;&gt;Node6</title>
<path fill="none" stroke="#404040" d="M202.706,-720.531C199.577,-708.163 196.402,-695.614 193.252,-683.159"/>
<polygon fill="none" stroke="#404040" points="193.184,-682.89 187.834,-678.054 190.24,-671.257 195.59,-676.092 193.184,-682.89"/>
<text text-anchor="middle" x="223" y="-693.5" font-family="Helvetica,sans-Serif" font-size="10.00"> +imaginary</text>
</g>
<!-- Node4 -->
<g id="node4" class="node"><title>Node4</title>
<polygon fill="none" stroke="#bfbfbf" points="336.5,-1080.5 336.5,-1137.5 381.5,-1137.5 381.5,-1080.5 336.5,-1080.5"/>
<text text-anchor="middle" x="359" y="-1125.5" font-family="Helvetica,sans-Serif" font-size="10.00">double</text>
<polyline fill="none" stroke="#bfbfbf" points="336.5,-1118.5 381.5,-1118.5 "/>
<text text-anchor="middle" x="359" y="-1106.5" font-family="Helvetica,sans-Serif" font-size="10.00"> </text>
<polyline fill="none" stroke="#bfbfbf" points="336.5,-1099.5 381.5,-1099.5 "/>
<text text-anchor="middle" x="359" y="-1087.5" font-family="Helvetica,sans-Serif" font-size="10.00"> </text>
</g>
<!-- Node4&#45;&gt;Node3 -->
<g id="edge6" class="edge"><title>Node4&#45;&gt;Node3</title>
<path fill="none" stroke="#404040" d="M345.234,-1080.24C332.123,-1053.8 311.538,-1012.29 291.966,-972.814"/>
<polygon fill="none" stroke="#404040" points="291.945,-972.773 285.696,-969.175 286.614,-962.022 292.863,-965.621 291.945,-972.773"/>
<text text-anchor="middle" x="343.5" y="-1053.5" font-family="Helvetica,sans-Serif" font-size="10.00"> +x</text>
<text text-anchor="middle" x="343.5" y="-1042.5" font-family="Helvetica,sans-Serif" font-size="10.00">+y</text>
<text text-anchor="middle" x="343.5" y="-1031.5" font-family="Helvetica,sans-Serif" font-size="10.00">+z</text>
</g>
<!-- Node4&#45;&gt;Node6 -->
<g id="edge11" class="edge"><title>Node4&#45;&gt;Node6</title>
<path fill="none" stroke="#404040" d="M361.5,-1080.49C366.229,-1013.13 370.062,-836.91 295,-720 285.105,-704.588 239.965,-685.867 228,-672 227.822,-671.794 227.645,-671.587 227.467,-671.38"/>
<polygon fill="none" stroke="#404040" points="227.225,-671.08 220.343,-668.928 219.683,-661.747 226.565,-663.9 227.225,-671.08"/>
<text text-anchor="middle" x="371.5" y="-862.5" font-family="Helvetica,sans-Serif" font-size="10.00"> +w</text>
</g>
<!-- Node5 -->
<g id="node5" class="node"><title>Node5</title>
<polygon fill="none" stroke="#bfbfbf" points="237.5,-498.5 237.5,-555.5 282.5,-555.5 282.5,-498.5 237.5,-498.5"/>
<text text-anchor="middle" x="260" y="-543.5" font-family="Helvetica,sans-Serif" font-size="10.00">Vector</text>
<polyline fill="none" stroke="#bfbfbf" points="237.5,-536.5 282.5,-536.5 "/>
<text text-anchor="middle" x="260" y="-524.5" font-family="Helvetica,sans-Serif" font-size="10.00"> </text>
<polyline fill="none" stroke="#bfbfbf" points="237.5,-517.5 282.5,-517.5 "/>
<text text-anchor="middle" x="260" y="-505.5" font-family="Helvetica,sans-Serif" font-size="10.00"> </text>
</g>
<!-- Node5&#45;&gt;Node1 -->
<g id="edge7" class="edge"><title>Node5&#45;&gt;Node1</title>
<path fill="none" stroke="#404040" d="M258.718,-498.207C256.05,-459.123 247.881,-386.395 223,-330 214.95,-311.754 204.649,-293.637 193.377,-276.379"/>
<polygon fill="none" stroke="#404040" points="193.318,-276.292 186.655,-273.534 186.638,-266.323 193.301,-269.08 193.318,-276.292"/>
<text text-anchor="middle" x="293.5" y="-355.5" font-family="Helvetica,sans-Serif" font-size="10.00"> +baseVelocityWRTGlobal</text>
<text text-anchor="middle" x="293.5" y="-344.5" font-family="Helvetica,sans-Serif" font-size="10.00">+positions</text>
<text text-anchor="middle" x="293.5" y="-333.5" font-family="Helvetica,sans-Serif" font-size="10.00">+velocities</text>
</g>
<!-- Node6&#45;&gt;Node1 -->
<g id="edge8" class="edge"><title>Node6&#45;&gt;Node1</title>
<path fill="none" stroke="#404040" d="M97.9919,-382.757C96.4713,-376.467 95.1262,-370.197 94,-364 91.602,-350.805 89.8819,-337.058 88.693,-323.2"/>
<polygon fill="none" stroke="#404040" points="88.676,-322.972 84.2398,-317.287 87.7813,-311.005 92.2175,-316.69 88.676,-322.972"/>
<text text-anchor="middle" x="158.5" y="-344.5" font-family="Helvetica,sans-Serif" font-size="10.00"> +baseOrientationWRTGlobal</text>
</g>
</g>
</svg>
