<?xml version="1.0" encoding="UTF-8" standalone="no"?>
<!DOCTYPE svg PUBLIC "-//W3C//DTD SVG 1.1//EN"
 "http://www.w3.org/Graphics/SVG/1.1/DTD/svg11.dtd">
<!-- Generated by graphviz version 2.36.0 (20140111.2315)
 -->
<!-- Title: HumanEffortBridge Pages: 1 -->
<svg width="243pt" height="96pt"
 viewBox="0.00 0.00 243.00 96.00" xmlns="http://www.w3.org/2000/svg" xmlns:xlink="http://www.w3.org/1999/xlink">
<g id="graph0" class="graph" transform="scale(1 1) rotate(0) translate(4 92)">
<title>HumanEffortBridge</title>
<!-- Node1 -->
<g id="node1" class="node"><title>Node1</title>
<polygon fill="#bfbfbf" stroke="black" points="44,-0.5 44,-19.5 144,-19.5 144,-0.5 44,-0.5"/>
<text text-anchor="middle" x="94" y="-7.5" font-family="Helvetica,sans-Serif" font-size="10.00">HumanEffortBridge</text>
</g>
<!-- Node2 -->
<g id="node2" class="node"><title>Node2</title>
<polygon fill="none" stroke="#bfbfbf" points="0,-62.5 0,-81.5 62,-81.5 62,-62.5 0,-62.5"/>
<text text-anchor="middle" x="31" y="-69.5" font-family="Helvetica,sans-Serif" font-size="10.00">RFModule</text>
</g>
<!-- Node2&#45;&gt;Node1 -->
<g id="edge1" class="edge"><title>Node2&#45;&gt;Node1</title>
<path fill="none" stroke="midnightblue" d="M47.5976,-55.1928C59.5669,-43.7935 75.2665,-28.8414 84.9904,-19.5806"/>
<polygon fill="midnightblue" stroke="midnightblue" points="44.854,-52.9724 40.0264,-62.4035 49.6816,-58.0414 44.854,-52.9724"/>
</g>
<!-- Node3 -->
<g id="node3" class="node"><title>Node3</title>
<polygon fill="none" stroke="#bfbfbf" points="80.5,-57 80.5,-87 235.5,-87 235.5,-57 80.5,-57"/>
<text text-anchor="start" x="88.5" y="-75" font-family="Helvetica,sans-Serif" font-size="10.00">yarp::os::TypedReaderCallback</text>
<text text-anchor="middle" x="158" y="-64" font-family="Helvetica,sans-Serif" font-size="10.00">&lt; human::HumanDynamics &gt;</text>
</g>
<!-- Node3&#45;&gt;Node1 -->
<g id="edge2" class="edge"><title>Node3&#45;&gt;Node1</title>
<path fill="none" stroke="midnightblue" d="M135.516,-49.9216C124.457,-39.5533 111.729,-27.6209 103.313,-19.7305"/>
<polygon fill="midnightblue" stroke="midnightblue" points="133.144,-52.4948 142.833,-56.7808 137.931,-47.388 133.144,-52.4948"/>
</g>
</g>
</svg>
