<?xml version="1.0" encoding="UTF-8" standalone="no"?>
<!DOCTYPE svg PUBLIC "-//W3C//DTD SVG 1.1//EN"
 "http://www.w3.org/Graphics/SVG/1.1/DTD/svg11.dtd">
<!-- Generated by graphviz version 2.36.0 (20140111.2315)
 -->
<!-- Title: human::HumanDynamics::Editor Pages: 1 -->
<svg width="340pt" height="458pt"
 viewBox="0.00 0.00 340.00 458.00" xmlns="http://www.w3.org/2000/svg" xmlns:xlink="http://www.w3.org/1999/xlink">
<g id="graph0" class="graph" transform="scale(1 1) rotate(0) translate(4 454)">
<title>human::HumanDynamics::Editor</title>
<!-- Node1 -->
<g id="node1" class="node"><title>Node1</title>
<polygon fill="#bfbfbf" stroke="black" points="122,-1 122,-355 260,-355 260,-1 122,-1"/>
<text text-anchor="start" x="130" y="-343" font-family="Helvetica,sans-Serif" font-size="10.00">human::HumanDynamics</text>
<text text-anchor="middle" x="191" y="-332" font-family="Helvetica,sans-Serif" font-size="10.00">::Editor</text>
<polyline fill="none" stroke="black" points="122,-325 260,-325 "/>
<text text-anchor="start" x="130" y="-313" font-family="Helvetica,sans-Serif" font-size="10.00">&#45; obj</text>
<text text-anchor="start" x="130" y="-302" font-family="Helvetica,sans-Serif" font-size="10.00">&#45; obj_owned</text>
<text text-anchor="start" x="130" y="-291" font-family="Helvetica,sans-Serif" font-size="10.00">&#45; group</text>
<text text-anchor="start" x="130" y="-280" font-family="Helvetica,sans-Serif" font-size="10.00">&#45; is_dirty</text>
<text text-anchor="start" x="130" y="-269" font-family="Helvetica,sans-Serif" font-size="10.00">&#45; dirty_count</text>
<text text-anchor="start" x="130" y="-258" font-family="Helvetica,sans-Serif" font-size="10.00">&#45; is_dirty_linkVariables</text>
<text text-anchor="start" x="130" y="-247" font-family="Helvetica,sans-Serif" font-size="10.00">&#45; is_dirty_jointVariables</text>
<polyline fill="none" stroke="black" points="122,-240 260,-240 "/>
<text text-anchor="start" x="130" y="-228" font-family="Helvetica,sans-Serif" font-size="10.00">+ Editor()</text>
<text text-anchor="start" x="130" y="-217" font-family="Helvetica,sans-Serif" font-size="10.00">+ Editor()</text>
<text text-anchor="start" x="130" y="-206" font-family="Helvetica,sans-Serif" font-size="10.00">+ edit()</text>
<text text-anchor="start" x="130" y="-195" font-family="Helvetica,sans-Serif" font-size="10.00">+ ~Editor()</text>
<text text-anchor="start" x="130" y="-184" font-family="Helvetica,sans-Serif" font-size="10.00">+ isValid()</text>
<text text-anchor="start" x="130" y="-173" font-family="Helvetica,sans-Serif" font-size="10.00">+ state()</text>
<text text-anchor="start" x="130" y="-162" font-family="Helvetica,sans-Serif" font-size="10.00">+ begin()</text>
<text text-anchor="start" x="130" y="-151" font-family="Helvetica,sans-Serif" font-size="10.00">+ end()</text>
<text text-anchor="start" x="130" y="-140" font-family="Helvetica,sans-Serif" font-size="10.00">+ set_linkVariables()</text>
<text text-anchor="start" x="130" y="-129" font-family="Helvetica,sans-Serif" font-size="10.00">+ set_linkVariables()</text>
<text text-anchor="start" x="130" y="-118" font-family="Helvetica,sans-Serif" font-size="10.00">and 32 more...</text>
<text text-anchor="start" x="130" y="-107" font-family="Helvetica,sans-Serif" font-size="10.00">&#45; communicate()</text>
<text text-anchor="start" x="130" y="-96" font-family="Helvetica,sans-Serif" font-size="10.00">&#45; mark_dirty()</text>
<text text-anchor="start" x="130" y="-85" font-family="Helvetica,sans-Serif" font-size="10.00">&#45; mark_dirty_linkVariables()</text>
<text text-anchor="start" x="130" y="-74" font-family="Helvetica,sans-Serif" font-size="10.00">&#45; mark_dirty_jointVariables()</text>
<text text-anchor="start" x="130" y="-63" font-family="Helvetica,sans-Serif" font-size="10.00">&#45; dirty_flags()</text>
<text text-anchor="start" x="130" y="-52" font-family="Helvetica,sans-Serif" font-size="10.00">&#45; communicate()</text>
<text text-anchor="start" x="130" y="-41" font-family="Helvetica,sans-Serif" font-size="10.00">&#45; mark_dirty()</text>
<text text-anchor="start" x="130" y="-30" font-family="Helvetica,sans-Serif" font-size="10.00">&#45; mark_dirty_linkVariables()</text>
<text text-anchor="start" x="130" y="-19" font-family="Helvetica,sans-Serif" font-size="10.00">&#45; mark_dirty_jointVariables()</text>
<text text-anchor="start" x="130" y="-8" font-family="Helvetica,sans-Serif" font-size="10.00">&#45; dirty_flags()</text>
</g>
<!-- Node2 -->
<g id="node2" class="node"><title>Node2</title>
<g id="a_node2"><a xlink:href="classyarp_1_1os_1_1_wire.html" target="_top" xlink:title="{yarp::os::Wire\n||}">
<polygon fill="none" stroke="black" points="0,-392.5 0,-449.5 78,-449.5 78,-392.5 0,-392.5"/>
<text text-anchor="middle" x="39" y="-437.5" font-family="Helvetica,sans-Serif" font-size="10.00">yarp::os::Wire</text>
<polyline fill="none" stroke="black" points="0,-430.5 78,-430.5 "/>
<text text-anchor="middle" x="39" y="-418.5" font-family="Helvetica,sans-Serif" font-size="10.00"> </text>
<polyline fill="none" stroke="black" points="0,-411.5 78,-411.5 "/>
<text text-anchor="middle" x="39" y="-399.5" font-family="Helvetica,sans-Serif" font-size="10.00"> </text>
</a>
</g>
</g>
<!-- Node2&#45;&gt;Node1 -->
<g id="edge1" class="edge"><title>Node2&#45;&gt;Node1</title>
<path fill="none" stroke="midnightblue" d="M61.8442,-383.78C77.9151,-358.299 100.338,-322.747 121.996,-288.407"/>
<polygon fill="none" stroke="midnightblue" points="58.8106,-382.029 56.4363,-392.354 64.7314,-385.763 58.8106,-382.029"/>
</g>
<!-- Node3 -->
<g id="node3" class="node"><title>Node3</title>
<g id="a_node3"><a xlink:href="classyarp_1_1os_1_1_port_writer.html" target="_top" xlink:title="{yarp::os::PortWriter\n||}">
<polygon fill="none" stroke="black" points="96,-392.5 96,-449.5 198,-449.5 198,-392.5 96,-392.5"/>
<text text-anchor="middle" x="147" y="-437.5" font-family="Helvetica,sans-Serif" font-size="10.00">yarp::os::PortWriter</text>
<polyline fill="none" stroke="black" points="96,-430.5 198,-430.5 "/>
<text text-anchor="middle" x="147" y="-418.5" font-family="Helvetica,sans-Serif" font-size="10.00"> </text>
<polyline fill="none" stroke="black" points="96,-411.5 198,-411.5 "/>
<text text-anchor="middle" x="147" y="-399.5" font-family="Helvetica,sans-Serif" font-size="10.00"> </text>
</a>
</g>
</g>
<!-- Node3&#45;&gt;Node1 -->
<g id="edge2" class="edge"><title>Node3&#45;&gt;Node1</title>
<path fill="none" stroke="midnightblue" d="M153.844,-382.515C155.343,-374.302 157.025,-365.089 158.824,-355.238"/>
<polygon fill="none" stroke="midnightblue" points="150.4,-381.888 152.047,-392.354 157.287,-383.145 150.4,-381.888"/>
</g>
<!-- Node4 -->
<g id="node4" class="node"><title>Node4</title>
<g id="a_node4"><a xlink:href="classyarp_1_1os_1_1_wire.html" target="_top" xlink:title="{Wire\n||}">
<polygon fill="none" stroke="black" points="216.5,-392.5 216.5,-449.5 253.5,-449.5 253.5,-392.5 216.5,-392.5"/>
<text text-anchor="middle" x="235" y="-437.5" font-family="Helvetica,sans-Serif" font-size="10.00">Wire</text>
<polyline fill="none" stroke="black" points="216.5,-430.5 253.5,-430.5 "/>
<text text-anchor="middle" x="235" y="-418.5" font-family="Helvetica,sans-Serif" font-size="10.00"> </text>
<polyline fill="none" stroke="black" points="216.5,-411.5 253.5,-411.5 "/>
<text text-anchor="middle" x="235" y="-399.5" font-family="Helvetica,sans-Serif" font-size="10.00"> </text>
</a>
</g>
</g>
<!-- Node4&#45;&gt;Node1 -->
<g id="edge3" class="edge"><title>Node4&#45;&gt;Node1</title>
<path fill="none" stroke="midnightblue" d="M228.156,-382.515C226.657,-374.302 224.975,-365.089 223.176,-355.238"/>
<polygon fill="none" stroke="midnightblue" points="224.713,-383.145 229.953,-392.354 231.6,-381.888 224.713,-383.145"/>
</g>
<!-- Node5 -->
<g id="node5" class="node"><title>Node5</title>
<g id="a_node5"><a xlink:href="classyarp_1_1os_1_1_port_writer.html" target="_top" xlink:title="{PortWriter\n||}">
<polygon fill="none" stroke="black" points="271.5,-392.5 271.5,-449.5 332.5,-449.5 332.5,-392.5 271.5,-392.5"/>
<text text-anchor="middle" x="302" y="-437.5" font-family="Helvetica,sans-Serif" font-size="10.00">PortWriter</text>
<polyline fill="none" stroke="black" points="271.5,-430.5 332.5,-430.5 "/>
<text text-anchor="middle" x="302" y="-418.5" font-family="Helvetica,sans-Serif" font-size="10.00"> </text>
<polyline fill="none" stroke="black" points="271.5,-411.5 332.5,-411.5 "/>
<text text-anchor="middle" x="302" y="-399.5" font-family="Helvetica,sans-Serif" font-size="10.00"> </text>
</a>
</g>
</g>
<!-- Node5&#45;&gt;Node1 -->
<g id="edge4" class="edge"><title>Node5&#45;&gt;Node1</title>
<path fill="none" stroke="midnightblue" d="M284.9,-382.872C277.885,-367.643 269.265,-348.928 260.12,-329.071"/>
<polygon fill="none" stroke="midnightblue" points="281.904,-384.736 289.267,-392.354 288.262,-381.807 281.904,-384.736"/>
</g>
</g>
</svg>
