<?xml version="1.0" encoding="UTF-8" standalone="no"?>
<!DOCTYPE svg PUBLIC "-//W3C//DTD SVG 1.1//EN"
 "http://www.w3.org/Graphics/SVG/1.1/DTD/svg11.dtd">
<!-- Generated by graphviz version 2.36.0 (20140111.2315)
 -->
<!-- Title: xsens::XsensDriverService_segments Pages: 1 -->
<svg width="281pt" height="238pt"
 viewBox="0.00 0.00 281.00 238.00" xmlns="http://www.w3.org/2000/svg" xmlns:xlink="http://www.w3.org/1999/xlink">
<g id="graph0" class="graph" transform="scale(1 1) rotate(0) translate(4 234)">
<title>xsens::XsensDriverService_segments</title>
<!-- Node1 -->
<g id="node1" class="node"><title>Node1</title>
<polygon fill="#bfbfbf" stroke="black" points="0,-0.5 0,-123.5 136,-123.5 136,-0.5 0,-0.5"/>
<text text-anchor="start" x="8" y="-111.5" font-family="Helvetica,sans-Serif" font-size="10.00">xsens::XsensDriverService</text>
<text text-anchor="middle" x="68" y="-100.5" font-family="Helvetica,sans-Serif" font-size="10.00">_segments</text>
<polyline fill="none" stroke="black" points="0,-93.5 136,-93.5 "/>
<text text-anchor="middle" x="68" y="-81.5" font-family="Helvetica,sans-Serif" font-size="10.00"> </text>
<polyline fill="none" stroke="black" points="0,-74.5 136,-74.5 "/>
<text text-anchor="start" x="8" y="-62.5" font-family="Helvetica,sans-Serif" font-size="10.00">+ init()</text>
<text text-anchor="start" x="8" y="-51.5" font-family="Helvetica,sans-Serif" font-size="10.00">+ write()</text>
<text text-anchor="start" x="8" y="-40.5" font-family="Helvetica,sans-Serif" font-size="10.00">+ read()</text>
<text text-anchor="start" x="8" y="-29.5" font-family="Helvetica,sans-Serif" font-size="10.00">+ init()</text>
<text text-anchor="start" x="8" y="-18.5" font-family="Helvetica,sans-Serif" font-size="10.00">+ write()</text>
<text text-anchor="start" x="8" y="-7.5" font-family="Helvetica,sans-Serif" font-size="10.00">+ read()</text>
</g>
<!-- Node2 -->
<g id="node2" class="node"><title>Node2</title>
<g id="a_node2"><a xlink:href="classyarp_1_1os_1_1_portable.html" target="_top" xlink:title="{Portable\n||}">
<polygon fill="none" stroke="black" points="41.5,-172.5 41.5,-229.5 94.5,-229.5 94.5,-172.5 41.5,-172.5"/>
<text text-anchor="middle" x="68" y="-217.5" font-family="Helvetica,sans-Serif" font-size="10.00">Portable</text>
<polyline fill="none" stroke="black" points="41.5,-210.5 94.5,-210.5 "/>
<text text-anchor="middle" x="68" y="-198.5" font-family="Helvetica,sans-Serif" font-size="10.00"> </text>
<polyline fill="none" stroke="black" points="41.5,-191.5 94.5,-191.5 "/>
<text text-anchor="middle" x="68" y="-179.5" font-family="Helvetica,sans-Serif" font-size="10.00"> </text>
</a>
</g>
</g>
<!-- Node2&#45;&gt;Node1 -->
<g id="edge1" class="edge"><title>Node2&#45;&gt;Node1</title>
<path fill="none" stroke="midnightblue" d="M61.8929,-162.204C61.356,-150.223 61.1554,-136.663 61.2911,-123.501"/>
<polygon fill="none" stroke="midnightblue" points="58.403,-162.485 62.4514,-172.276 65.3923,-162.098 58.403,-162.485"/>
</g>
<!-- Node2&#45;&gt;Node1 -->
<g id="edge2" class="edge"><title>Node2&#45;&gt;Node1</title>
<path fill="none" stroke="midnightblue" d="M74.1071,-162.204C74.644,-150.223 74.8446,-136.663 74.7089,-123.501"/>
<polygon fill="none" stroke="midnightblue" points="70.6077,-162.098 73.5486,-172.276 77.597,-162.485 70.6077,-162.098"/>
</g>
<!-- Node3 -->
<g id="node3" class="node"><title>Node3</title>
<polygon fill="none" stroke="#bfbfbf" points="112.5,-172.5 112.5,-229.5 273.5,-229.5 273.5,-172.5 112.5,-172.5"/>
<text text-anchor="middle" x="193" y="-217.5" font-family="Helvetica,sans-Serif" font-size="10.00">vector&lt; xsens::FrameReferece &gt;</text>
<polyline fill="none" stroke="#bfbfbf" points="112.5,-210.5 273.5,-210.5 "/>
<text text-anchor="middle" x="193" y="-198.5" font-family="Helvetica,sans-Serif" font-size="10.00"> </text>
<polyline fill="none" stroke="#bfbfbf" points="112.5,-191.5 273.5,-191.5 "/>
<text text-anchor="middle" x="193" y="-179.5" font-family="Helvetica,sans-Serif" font-size="10.00"> </text>
</g>
<!-- Node3&#45;&gt;Node1 -->
<g id="edge3" class="edge"><title>Node3&#45;&gt;Node1</title>
<path fill="none" stroke="#404040" d="M167.704,-172.276C157.171,-160.731 144.42,-146.757 131.608,-132.714"/>
<polygon fill="none" stroke="#404040" points="131.29,-132.366 124.291,-130.63 123.202,-123.501 130.201,-125.238 131.29,-132.366"/>
<text text-anchor="middle" x="169" y="-145.5" font-family="Helvetica,sans-Serif" font-size="10.00"> +_return</text>
</g>
</g>
</svg>
