<?xml version="1.0" encoding="UTF-8" standalone="no"?>
<!DOCTYPE svg PUBLIC "-//W3C//DTD SVG 1.1//EN"
 "http://www.w3.org/Graphics/SVG/1.1/DTD/svg11.dtd">
<!-- Generated by graphviz version 2.36.0 (20140111.2315)
 -->
<!-- Title: human::JointDynamicsEstimation Pages: 1 -->
<svg width="277pt" height="436pt"
 viewBox="0.00 0.00 277.00 436.00" xmlns="http://www.w3.org/2000/svg" xmlns:xlink="http://www.w3.org/1999/xlink">
<g id="graph0" class="graph" transform="scale(1 1) rotate(0) translate(4 432)">
<title>human::JointDynamicsEstimation</title>
<!-- Node1 -->
<g id="node1" class="node"><title>Node1</title>
<polygon fill="#bfbfbf" stroke="black" points="0,-0.5 0,-299.5 164,-299.5 164,-0.5 0,-0.5"/>
<text text-anchor="middle" x="82" y="-287.5" font-family="Helvetica,sans-Serif" font-size="10.00">human::JointDynamicsEstimation</text>
<polyline fill="none" stroke="black" points="0,-280.5 164,-280.5 "/>
<text text-anchor="middle" x="82" y="-268.5" font-family="Helvetica,sans-Serif" font-size="10.00"> </text>
<polyline fill="none" stroke="black" points="0,-261.5 164,-261.5 "/>
<text text-anchor="start" x="8" y="-249.5" font-family="Helvetica,sans-Serif" font-size="10.00">+ JointDynamicsEstimation()</text>
<text text-anchor="start" x="8" y="-238.5" font-family="Helvetica,sans-Serif" font-size="10.00">+ JointDynamicsEstimation()</text>
<text text-anchor="start" x="8" y="-227.5" font-family="Helvetica,sans-Serif" font-size="10.00">+ JointDynamicsEstimation()</text>
<text text-anchor="start" x="8" y="-216.5" font-family="Helvetica,sans-Serif" font-size="10.00">+ operator=()</text>
<text text-anchor="start" x="8" y="-205.5" font-family="Helvetica,sans-Serif" font-size="10.00">+ read()</text>
<text text-anchor="start" x="8" y="-194.5" font-family="Helvetica,sans-Serif" font-size="10.00">+ read()</text>
<text text-anchor="start" x="8" y="-183.5" font-family="Helvetica,sans-Serif" font-size="10.00">+ write()</text>
<text text-anchor="start" x="8" y="-172.5" font-family="Helvetica,sans-Serif" font-size="10.00">+ write()</text>
<text text-anchor="start" x="8" y="-161.5" font-family="Helvetica,sans-Serif" font-size="10.00">+ toString()</text>
<text text-anchor="start" x="8" y="-150.5" font-family="Helvetica,sans-Serif" font-size="10.00">+ JointDynamicsEstimation()</text>
<text text-anchor="start" x="8" y="-139.5" font-family="Helvetica,sans-Serif" font-size="10.00">and 8 more...</text>
<text text-anchor="start" x="8" y="-128.5" font-family="Helvetica,sans-Serif" font-size="10.00">&#45; write_jointName()</text>
<text text-anchor="start" x="8" y="-117.5" font-family="Helvetica,sans-Serif" font-size="10.00">&#45; nested_write_jointName()</text>
<text text-anchor="start" x="8" y="-106.5" font-family="Helvetica,sans-Serif" font-size="10.00">&#45; write_transmittedWrench()</text>
<text text-anchor="start" x="8" y="-95.5" font-family="Helvetica,sans-Serif" font-size="10.00">&#45; nested_write_transmitted</text>
<text text-anchor="start" x="8" y="-84.5" font-family="Helvetica,sans-Serif" font-size="10.00">Wrench()</text>
<text text-anchor="start" x="8" y="-73.5" font-family="Helvetica,sans-Serif" font-size="10.00">&#45; write_torque()</text>
<text text-anchor="start" x="8" y="-62.5" font-family="Helvetica,sans-Serif" font-size="10.00">&#45; nested_write_torque()</text>
<text text-anchor="start" x="8" y="-51.5" font-family="Helvetica,sans-Serif" font-size="10.00">&#45; write_acceleration()</text>
<text text-anchor="start" x="8" y="-40.5" font-family="Helvetica,sans-Serif" font-size="10.00">&#45; nested_write_acceleration()</text>
<text text-anchor="start" x="8" y="-29.5" font-family="Helvetica,sans-Serif" font-size="10.00">&#45; read_jointName()</text>
<text text-anchor="start" x="8" y="-18.5" font-family="Helvetica,sans-Serif" font-size="10.00">&#45; nested_read_jointName()</text>
<text text-anchor="start" x="8" y="-7.5" font-family="Helvetica,sans-Serif" font-size="10.00">and 22 more...</text>
</g>
<!-- Node2 -->
<g id="node2" class="node"><title>Node2</title>
<g id="a_node2"><a xlink:href="classyarp_1_1os_1_1idl_1_1_wire_portable.html" target="_top" xlink:title="{WirePortable\n||}">
<polygon fill="none" stroke="black" points="8.5,-370.5 8.5,-427.5 81.5,-427.5 81.5,-370.5 8.5,-370.5"/>
<text text-anchor="middle" x="45" y="-415.5" font-family="Helvetica,sans-Serif" font-size="10.00">WirePortable</text>
<polyline fill="none" stroke="black" points="8.5,-408.5 81.5,-408.5 "/>
<text text-anchor="middle" x="45" y="-396.5" font-family="Helvetica,sans-Serif" font-size="10.00"> </text>
<polyline fill="none" stroke="black" points="8.5,-389.5 81.5,-389.5 "/>
<text text-anchor="middle" x="45" y="-377.5" font-family="Helvetica,sans-Serif" font-size="10.00"> </text>
</a>
</g>
</g>
<!-- Node2&#45;&gt;Node1 -->
<g id="edge1" class="edge"><title>Node2&#45;&gt;Node1</title>
<path fill="none" stroke="midnightblue" d="M45.6413,-360.175C47.3402,-343.238 49.9796,-322.061 53.0966,-299.736"/>
<polygon fill="none" stroke="midnightblue" points="42.1552,-359.864 44.7091,-370.146 49.1248,-360.515 42.1552,-359.864"/>
</g>
<!-- Node2&#45;&gt;Node1 -->
<g id="edge2" class="edge"><title>Node2&#45;&gt;Node1</title>
<path fill="none" stroke="midnightblue" d="M55.6908,-360.175C59.0663,-343.238 62.7713,-322.061 66.3429,-299.736"/>
<polygon fill="none" stroke="midnightblue" points="52.2266,-359.645 53.6358,-370.146 59.0825,-361.058 52.2266,-359.645"/>
</g>
<!-- Node3 -->
<g id="node3" class="node"><title>Node3</title>
<polygon fill="none" stroke="#bfbfbf" points="99.5,-370.5 99.5,-427.5 140.5,-427.5 140.5,-370.5 99.5,-370.5"/>
<text text-anchor="middle" x="120" y="-415.5" font-family="Helvetica,sans-Serif" font-size="10.00">string</text>
<polyline fill="none" stroke="#bfbfbf" points="99.5,-408.5 140.5,-408.5 "/>
<text text-anchor="middle" x="120" y="-396.5" font-family="Helvetica,sans-Serif" font-size="10.00"> </text>
<polyline fill="none" stroke="#bfbfbf" points="99.5,-389.5 140.5,-389.5 "/>
<text text-anchor="middle" x="120" y="-377.5" font-family="Helvetica,sans-Serif" font-size="10.00"> </text>
</g>
<!-- Node3&#45;&gt;Node1 -->
<g id="edge3" class="edge"><title>Node3&#45;&gt;Node1</title>
<path fill="none" stroke="#404040" d="M115.715,-370.146C113.335,-354.675 110.161,-334.044 106.71,-311.613"/>
<polygon fill="none" stroke="#404040" points="106.707,-311.596 101.841,-306.274 104.882,-299.736 109.748,-305.058 106.707,-311.596"/>
<text text-anchor="middle" x="139" y="-332.5" font-family="Helvetica,sans-Serif" font-size="10.00"> +jointName</text>
</g>
<!-- Node4 -->
<g id="node4" class="node"><title>Node4</title>
<polygon fill="none" stroke="#bfbfbf" points="166.5,-370.5 166.5,-427.5 211.5,-427.5 211.5,-370.5 166.5,-370.5"/>
<text text-anchor="middle" x="189" y="-415.5" font-family="Helvetica,sans-Serif" font-size="10.00">Vector</text>
<polyline fill="none" stroke="#bfbfbf" points="166.5,-408.5 211.5,-408.5 "/>
<text text-anchor="middle" x="189" y="-396.5" font-family="Helvetica,sans-Serif" font-size="10.00"> </text>
<polyline fill="none" stroke="#bfbfbf" points="166.5,-389.5 211.5,-389.5 "/>
<text text-anchor="middle" x="189" y="-377.5" font-family="Helvetica,sans-Serif" font-size="10.00"> </text>
</g>
<!-- Node4&#45;&gt;Node1 -->
<g id="edge4" class="edge"><title>Node4&#45;&gt;Node1</title>
<path fill="none" stroke="#404040" d="M182.814,-370.155C178.988,-354.568 173.556,-334.924 167,-318 166.082,-315.63 165.141,-313.249 164.179,-310.86"/>
<polygon fill="none" stroke="#404040" points="164.121,-310.721 158.131,-306.706 159.532,-299.633 165.523,-303.647 164.121,-310.721"/>
<text text-anchor="middle" x="223" y="-343.5" font-family="Helvetica,sans-Serif" font-size="10.00"> +transmittedWrench</text>
<text text-anchor="middle" x="223" y="-332.5" font-family="Helvetica,sans-Serif" font-size="10.00">+acceleration</text>
<text text-anchor="middle" x="223" y="-321.5" font-family="Helvetica,sans-Serif" font-size="10.00">+torque</text>
</g>
</g>
</svg>
