<?xml version="1.0" encoding="UTF-8" standalone="no"?>
<!DOCTYPE svg PUBLIC "-//W3C//DTD SVG 1.1//EN"
 "http://www.w3.org/Graphics/SVG/1.1/DTD/svg11.dtd">
<!-- Generated by graphviz version 2.36.0 (20140111.2315)
 -->
<!-- Title: xsens::XsensSegmentData Pages: 1 -->
<svg width="343pt" height="1102pt"
 viewBox="0.00 0.00 343.00 1102.00" xmlns="http://www.w3.org/2000/svg" xmlns:xlink="http://www.w3.org/1999/xlink">
<g id="graph0" class="graph" transform="scale(1 1) rotate(0) translate(4 1098)">
<title>xsens::XsensSegmentData</title>
<!-- Node1 -->
<g id="node1" class="node"><title>Node1</title>
<polygon fill="#bfbfbf" stroke="black" points="0,-1 0,-289 156,-289 156,-1 0,-1"/>
<text text-anchor="middle" x="78" y="-277" font-family="Helvetica,sans-Serif" font-size="10.00">xsens::XsensSegmentData</text>
<polyline fill="none" stroke="black" points="0,-270 156,-270 "/>
<text text-anchor="middle" x="78" y="-258" font-family="Helvetica,sans-Serif" font-size="10.00"> </text>
<polyline fill="none" stroke="black" points="0,-251 156,-251 "/>
<text text-anchor="start" x="8" y="-239" font-family="Helvetica,sans-Serif" font-size="10.00">+ XsensSegmentData()</text>
<text text-anchor="start" x="8" y="-228" font-family="Helvetica,sans-Serif" font-size="10.00">+ XsensSegmentData()</text>
<text text-anchor="start" x="8" y="-217" font-family="Helvetica,sans-Serif" font-size="10.00">+ XsensSegmentData()</text>
<text text-anchor="start" x="8" y="-206" font-family="Helvetica,sans-Serif" font-size="10.00">+ operator=()</text>
<text text-anchor="start" x="8" y="-195" font-family="Helvetica,sans-Serif" font-size="10.00">+ read()</text>
<text text-anchor="start" x="8" y="-184" font-family="Helvetica,sans-Serif" font-size="10.00">+ read()</text>
<text text-anchor="start" x="8" y="-173" font-family="Helvetica,sans-Serif" font-size="10.00">+ write()</text>
<text text-anchor="start" x="8" y="-162" font-family="Helvetica,sans-Serif" font-size="10.00">+ write()</text>
<text text-anchor="start" x="8" y="-151" font-family="Helvetica,sans-Serif" font-size="10.00">+ toString()</text>
<text text-anchor="start" x="8" y="-140" font-family="Helvetica,sans-Serif" font-size="10.00">+ XsensSegmentData()</text>
<text text-anchor="start" x="8" y="-129" font-family="Helvetica,sans-Serif" font-size="10.00">and 8 more...</text>
<text text-anchor="start" x="8" y="-118" font-family="Helvetica,sans-Serif" font-size="10.00">&#45; write_position()</text>
<text text-anchor="start" x="8" y="-107" font-family="Helvetica,sans-Serif" font-size="10.00">&#45; nested_write_position()</text>
<text text-anchor="start" x="8" y="-96" font-family="Helvetica,sans-Serif" font-size="10.00">&#45; write_velocity()</text>
<text text-anchor="start" x="8" y="-85" font-family="Helvetica,sans-Serif" font-size="10.00">&#45; nested_write_velocity()</text>
<text text-anchor="start" x="8" y="-74" font-family="Helvetica,sans-Serif" font-size="10.00">&#45; write_acceleration()</text>
<text text-anchor="start" x="8" y="-63" font-family="Helvetica,sans-Serif" font-size="10.00">&#45; nested_write_acceleration()</text>
<text text-anchor="start" x="8" y="-52" font-family="Helvetica,sans-Serif" font-size="10.00">&#45; write_orientation()</text>
<text text-anchor="start" x="8" y="-41" font-family="Helvetica,sans-Serif" font-size="10.00">&#45; nested_write_orientation()</text>
<text text-anchor="start" x="8" y="-30" font-family="Helvetica,sans-Serif" font-size="10.00">&#45; write_angularVelocity()</text>
<text text-anchor="start" x="8" y="-19" font-family="Helvetica,sans-Serif" font-size="10.00">&#45; nested_write_angularVelocity()</text>
<text text-anchor="start" x="8" y="-8" font-family="Helvetica,sans-Serif" font-size="10.00">and 38 more...</text>
</g>
<!-- Node2 -->
<g id="node2" class="node"><title>Node2</title>
<g id="a_node2"><a xlink:href="classyarp_1_1os_1_1idl_1_1_wire_portable.html" target="_top" xlink:title="{WirePortable\n||}">
<polygon fill="none" stroke="black" points="66.5,-1036.5 66.5,-1093.5 139.5,-1093.5 139.5,-1036.5 66.5,-1036.5"/>
<text text-anchor="middle" x="103" y="-1081.5" font-family="Helvetica,sans-Serif" font-size="10.00">WirePortable</text>
<polyline fill="none" stroke="black" points="66.5,-1074.5 139.5,-1074.5 "/>
<text text-anchor="middle" x="103" y="-1062.5" font-family="Helvetica,sans-Serif" font-size="10.00"> </text>
<polyline fill="none" stroke="black" points="66.5,-1055.5 139.5,-1055.5 "/>
<text text-anchor="middle" x="103" y="-1043.5" font-family="Helvetica,sans-Serif" font-size="10.00"> </text>
</a>
</g>
</g>
<!-- Node2&#45;&gt;Node1 -->
<g id="edge1" class="edge"><title>Node2&#45;&gt;Node1</title>
<path fill="none" stroke="midnightblue" d="M94.1729,-1026.54C82.7838,-951.172 66.5852,-775.796 61,-628 56.1328,-499.203 58.3166,-466.861 61,-338 61.3299,-322.156 61.8129,-305.582 62.4381,-289.094"/>
<polygon fill="none" stroke="midnightblue" points="90.7284,-1027.16 95.7465,-1036.49 97.6426,-1026.07 90.7284,-1027.16"/>
</g>
<!-- Node2&#45;&gt;Node1 -->
<g id="edge2" class="edge"><title>Node2&#45;&gt;Node1</title>
<path fill="none" stroke="midnightblue" d="M104.216,-1026.07C100.718,-950.455 84.5738,-775.494 79,-628 74.1328,-499.203 76.3166,-466.861 79,-338 79.3299,-322.156 79.8129,-305.582 80.3231,-289.094"/>
<polygon fill="none" stroke="midnightblue" points="100.736,-1026.64 104.638,-1036.49 107.731,-1026.36 100.736,-1026.64"/>
</g>
<!-- Node3 -->
<g id="node3" class="node"><title>Node3</title>
<g id="a_node3"><a xlink:href="classxsens_1_1_quaternion.html" target="_top" xlink:title="{xsens::Quaternion\n||+ Quaternion()\l+ Quaternion()\l+ Quaternion()\l+ operator=()\l+ read()\l+ read()\l+ write()\l+ write()\l+ toString()\l+ Quaternion()\land 8 more...\l&#45; write_w()\l&#45; nested_write_w()\l&#45; write_imaginary()\l&#45; nested_write_imaginary()\l&#45; read_w()\l&#45; nested_read_w()\l&#45; read_imaginary()\l&#45; nested_read_imaginary()\l&#45; write_w()\l&#45; nested_write_w()\land 6 more...\l}">
<polygon fill="none" stroke="black" points="79.5,-339 79.5,-627 210.5,-627 210.5,-339 79.5,-339"/>
<text text-anchor="middle" x="145" y="-615" font-family="Helvetica,sans-Serif" font-size="10.00">xsens::Quaternion</text>
<polyline fill="none" stroke="black" points="79.5,-608 210.5,-608 "/>
<text text-anchor="middle" x="145" y="-596" font-family="Helvetica,sans-Serif" font-size="10.00"> </text>
<polyline fill="none" stroke="black" points="79.5,-589 210.5,-589 "/>
<text text-anchor="start" x="87.5" y="-577" font-family="Helvetica,sans-Serif" font-size="10.00">+ Quaternion()</text>
<text text-anchor="start" x="87.5" y="-566" font-family="Helvetica,sans-Serif" font-size="10.00">+ Quaternion()</text>
<text text-anchor="start" x="87.5" y="-555" font-family="Helvetica,sans-Serif" font-size="10.00">+ Quaternion()</text>
<text text-anchor="start" x="87.5" y="-544" font-family="Helvetica,sans-Serif" font-size="10.00">+ operator=()</text>
<text text-anchor="start" x="87.5" y="-533" font-family="Helvetica,sans-Serif" font-size="10.00">+ read()</text>
<text text-anchor="start" x="87.5" y="-522" font-family="Helvetica,sans-Serif" font-size="10.00">+ read()</text>
<text text-anchor="start" x="87.5" y="-511" font-family="Helvetica,sans-Serif" font-size="10.00">+ write()</text>
<text text-anchor="start" x="87.5" y="-500" font-family="Helvetica,sans-Serif" font-size="10.00">+ write()</text>
<text text-anchor="start" x="87.5" y="-489" font-family="Helvetica,sans-Serif" font-size="10.00">+ toString()</text>
<text text-anchor="start" x="87.5" y="-478" font-family="Helvetica,sans-Serif" font-size="10.00">+ Quaternion()</text>
<text text-anchor="start" x="87.5" y="-467" font-family="Helvetica,sans-Serif" font-size="10.00">and 8 more...</text>
<text text-anchor="start" x="87.5" y="-456" font-family="Helvetica,sans-Serif" font-size="10.00">&#45; write_w()</text>
<text text-anchor="start" x="87.5" y="-445" font-family="Helvetica,sans-Serif" font-size="10.00">&#45; nested_write_w()</text>
<text text-anchor="start" x="87.5" y="-434" font-family="Helvetica,sans-Serif" font-size="10.00">&#45; write_imaginary()</text>
<text text-anchor="start" x="87.5" y="-423" font-family="Helvetica,sans-Serif" font-size="10.00">&#45; nested_write_imaginary()</text>
<text text-anchor="start" x="87.5" y="-412" font-family="Helvetica,sans-Serif" font-size="10.00">&#45; read_w()</text>
<text text-anchor="start" x="87.5" y="-401" font-family="Helvetica,sans-Serif" font-size="10.00">&#45; nested_read_w()</text>
<text text-anchor="start" x="87.5" y="-390" font-family="Helvetica,sans-Serif" font-size="10.00">&#45; read_imaginary()</text>
<text text-anchor="start" x="87.5" y="-379" font-family="Helvetica,sans-Serif" font-size="10.00">&#45; nested_read_imaginary()</text>
<text text-anchor="start" x="87.5" y="-368" font-family="Helvetica,sans-Serif" font-size="10.00">&#45; write_w()</text>
<text text-anchor="start" x="87.5" y="-357" font-family="Helvetica,sans-Serif" font-size="10.00">&#45; nested_write_w()</text>
<text text-anchor="start" x="87.5" y="-346" font-family="Helvetica,sans-Serif" font-size="10.00">and 6 more...</text>
</a>
</g>
</g>
<!-- Node2&#45;&gt;Node3 -->
<g id="edge4" class="edge"><title>Node2&#45;&gt;Node3</title>
<path fill="none" stroke="midnightblue" d="M100.437,-1026.23C101.708,-956.852 112.681,-804.461 122,-676 123.149,-660.166 124.353,-643.598 125.61,-627.113"/>
<polygon fill="none" stroke="midnightblue" points="96.9374,-1026.2 100.32,-1036.24 103.937,-1026.28 96.9374,-1026.2"/>
</g>
<!-- Node2&#45;&gt;Node3 -->
<g id="edge5" class="edge"><title>Node2&#45;&gt;Node3</title>
<path fill="none" stroke="midnightblue" d="M110.996,-1026.23C119.708,-956.852 130.681,-804.461 140,-676 141.149,-660.166 142.353,-643.598 143.495,-627.113"/>
<polygon fill="none" stroke="midnightblue" points="107.513,-1025.87 109.672,-1036.24 114.452,-1026.79 107.513,-1025.87"/>
</g>
<!-- Node5 -->
<g id="node5" class="node"><title>Node5</title>
<g id="a_node5"><a xlink:href="classxsens_1_1_vector3.html" target="_top" xlink:title="{xsens::Vector3\n||+ Vector3()\l+ Vector3()\l+ Vector3()\l+ operator=()\l+ read()\l+ read()\l+ write()\l+ write()\l+ toString()\l+ Vector3()\land 8 more...\l&#45; write_x()\l&#45; nested_write_x()\l&#45; write_y()\l&#45; nested_write_y()\l&#45; write_z()\l&#45; nested_write_z()\l&#45; read_x()\l&#45; nested_read_x()\l&#45; read_y()\l&#45; nested_read_y()\land 14 more...\l}">
<polygon fill="none" stroke="black" points="140.5,-677 140.5,-965 235.5,-965 235.5,-677 140.5,-677"/>
<text text-anchor="middle" x="188" y="-953" font-family="Helvetica,sans-Serif" font-size="10.00">xsens::Vector3</text>
<polyline fill="none" stroke="black" points="140.5,-946 235.5,-946 "/>
<text text-anchor="middle" x="188" y="-934" font-family="Helvetica,sans-Serif" font-size="10.00"> </text>
<polyline fill="none" stroke="black" points="140.5,-927 235.5,-927 "/>
<text text-anchor="start" x="148.5" y="-915" font-family="Helvetica,sans-Serif" font-size="10.00">+ Vector3()</text>
<text text-anchor="start" x="148.5" y="-904" font-family="Helvetica,sans-Serif" font-size="10.00">+ Vector3()</text>
<text text-anchor="start" x="148.5" y="-893" font-family="Helvetica,sans-Serif" font-size="10.00">+ Vector3()</text>
<text text-anchor="start" x="148.5" y="-882" font-family="Helvetica,sans-Serif" font-size="10.00">+ operator=()</text>
<text text-anchor="start" x="148.5" y="-871" font-family="Helvetica,sans-Serif" font-size="10.00">+ read()</text>
<text text-anchor="start" x="148.5" y="-860" font-family="Helvetica,sans-Serif" font-size="10.00">+ read()</text>
<text text-anchor="start" x="148.5" y="-849" font-family="Helvetica,sans-Serif" font-size="10.00">+ write()</text>
<text text-anchor="start" x="148.5" y="-838" font-family="Helvetica,sans-Serif" font-size="10.00">+ write()</text>
<text text-anchor="start" x="148.5" y="-827" font-family="Helvetica,sans-Serif" font-size="10.00">+ toString()</text>
<text text-anchor="start" x="148.5" y="-816" font-family="Helvetica,sans-Serif" font-size="10.00">+ Vector3()</text>
<text text-anchor="start" x="148.5" y="-805" font-family="Helvetica,sans-Serif" font-size="10.00">and 8 more...</text>
<text text-anchor="start" x="148.5" y="-794" font-family="Helvetica,sans-Serif" font-size="10.00">&#45; write_x()</text>
<text text-anchor="start" x="148.5" y="-783" font-family="Helvetica,sans-Serif" font-size="10.00">&#45; nested_write_x()</text>
<text text-anchor="start" x="148.5" y="-772" font-family="Helvetica,sans-Serif" font-size="10.00">&#45; write_y()</text>
<text text-anchor="start" x="148.5" y="-761" font-family="Helvetica,sans-Serif" font-size="10.00">&#45; nested_write_y()</text>
<text text-anchor="start" x="148.5" y="-750" font-family="Helvetica,sans-Serif" font-size="10.00">&#45; write_z()</text>
<text text-anchor="start" x="148.5" y="-739" font-family="Helvetica,sans-Serif" font-size="10.00">&#45; nested_write_z()</text>
<text text-anchor="start" x="148.5" y="-728" font-family="Helvetica,sans-Serif" font-size="10.00">&#45; read_x()</text>
<text text-anchor="start" x="148.5" y="-717" font-family="Helvetica,sans-Serif" font-size="10.00">&#45; nested_read_x()</text>
<text text-anchor="start" x="148.5" y="-706" font-family="Helvetica,sans-Serif" font-size="10.00">&#45; read_y()</text>
<text text-anchor="start" x="148.5" y="-695" font-family="Helvetica,sans-Serif" font-size="10.00">&#45; nested_read_y()</text>
<text text-anchor="start" x="148.5" y="-684" font-family="Helvetica,sans-Serif" font-size="10.00">and 14 more...</text>
</a>
</g>
</g>
<!-- Node2&#45;&gt;Node5 -->
<g id="edge8" class="edge"><title>Node2&#45;&gt;Node5</title>
<path fill="none" stroke="midnightblue" d="M113.241,-1026.79C114.553,-1023.84 115.831,-1020.89 117,-1018 125.243,-997.658 133.104,-975.777 140.415,-954.272"/>
<polygon fill="none" stroke="midnightblue" points="109.96,-1025.55 109.024,-1036.1 116.337,-1028.44 109.96,-1025.55"/>
</g>
<!-- Node2&#45;&gt;Node5 -->
<g id="edge9" class="edge"><title>Node2&#45;&gt;Node5</title>
<path fill="none" stroke="midnightblue" d="M131.064,-1027.07C132.47,-1024.03 133.793,-1020.98 135,-1018 141.869,-1001.05 148.473,-983.028 154.57,-965.047"/>
<polygon fill="none" stroke="midnightblue" points="127.895,-1025.58 126.623,-1036.1 134.177,-1028.67 127.895,-1025.58"/>
</g>
<!-- Node3&#45;&gt;Node1 -->
<g id="edge3" class="edge"><title>Node3&#45;&gt;Node1</title>
<path fill="none" stroke="#404040" d="M116.392,-338.531C113.925,-326.163 111.423,-313.614 108.94,-301.159"/>
<polygon fill="none" stroke="#404040" points="108.913,-301.025 103.817,-295.923 106.566,-289.257 111.662,-294.358 108.913,-301.025"/>
<text text-anchor="middle" x="139.5" y="-311.5" font-family="Helvetica,sans-Serif" font-size="10.00"> +orientation</text>
</g>
<!-- Node4 -->
<g id="node4" class="node"><title>Node4</title>
<polygon fill="none" stroke="#bfbfbf" points="220.5,-1036.5 220.5,-1093.5 265.5,-1093.5 265.5,-1036.5 220.5,-1036.5"/>
<text text-anchor="middle" x="243" y="-1081.5" font-family="Helvetica,sans-Serif" font-size="10.00">double</text>
<polyline fill="none" stroke="#bfbfbf" points="220.5,-1074.5 265.5,-1074.5 "/>
<text text-anchor="middle" x="243" y="-1062.5" font-family="Helvetica,sans-Serif" font-size="10.00"> </text>
<polyline fill="none" stroke="#bfbfbf" points="220.5,-1055.5 265.5,-1055.5 "/>
<text text-anchor="middle" x="243" y="-1043.5" font-family="Helvetica,sans-Serif" font-size="10.00"> </text>
</g>
<!-- Node4&#45;&gt;Node3 -->
<g id="edge6" class="edge"><title>Node4&#45;&gt;Node3</title>
<path fill="none" stroke="#404040" d="M249.298,-1036.4C250.422,-1030.37 251.419,-1023.99 252,-1018 253.458,-1002.96 252.196,-999.11 252,-984 250.222,-847.076 278.013,-808.643 244,-676 240.316,-661.632 229.456,-637.812 216.207,-611.753"/>
<polygon fill="none" stroke="#404040" points="216.099,-611.543 209.797,-608.038 210.608,-600.873 216.91,-604.377 216.099,-611.543"/>
<text text-anchor="middle" x="269.5" y="-818.5" font-family="Helvetica,sans-Serif" font-size="10.00"> +w</text>
</g>
<!-- Node4&#45;&gt;Node5 -->
<g id="edge10" class="edge"><title>Node4&#45;&gt;Node5</title>
<path fill="none" stroke="#404040" d="M236.691,-1036.24C233.135,-1020.59 228.379,-999.667 223.23,-977.011"/>
<polygon fill="none" stroke="#404040" points="223.165,-976.725 217.935,-971.761 220.505,-965.024 225.736,-969.988 223.165,-976.725"/>
<text text-anchor="middle" x="240.5" y="-1009.5" font-family="Helvetica,sans-Serif" font-size="10.00"> +x</text>
<text text-anchor="middle" x="240.5" y="-998.5" font-family="Helvetica,sans-Serif" font-size="10.00">+y</text>
<text text-anchor="middle" x="240.5" y="-987.5" font-family="Helvetica,sans-Serif" font-size="10.00">+z</text>
</g>
<!-- Node5&#45;&gt;Node1 -->
<g id="edge11" class="edge"><title>Node5&#45;&gt;Node1</title>
<path fill="none" stroke="#404040" d="M225.164,-676.857C243.895,-578.979 255.72,-447.627 219,-338 207.14,-302.592 186.105,-268.276 163.844,-238.686"/>
<polygon fill="none" stroke="#404040" points="163.581,-238.345 156.751,-236.032 156.258,-228.838 163.089,-231.151 163.581,-238.345"/>
<text text-anchor="middle" x="289" y="-502.5" font-family="Helvetica,sans-Serif" font-size="10.00"> +velocity</text>
<text text-anchor="middle" x="289" y="-491.5" font-family="Helvetica,sans-Serif" font-size="10.00">+acceleration</text>
<text text-anchor="middle" x="289" y="-480.5" font-family="Helvetica,sans-Serif" font-size="10.00">+angularAcceleration</text>
<text text-anchor="middle" x="289" y="-469.5" font-family="Helvetica,sans-Serif" font-size="10.00">+position</text>
<text text-anchor="middle" x="289" y="-458.5" font-family="Helvetica,sans-Serif" font-size="10.00">+angularVelocity</text>
</g>
<!-- Node5&#45;&gt;Node3 -->
<g id="edge7" class="edge"><title>Node5&#45;&gt;Node3</title>
<path fill="none" stroke="#404040" d="M169.639,-676.531C168.057,-664.163 166.451,-651.614 164.857,-639.159"/>
<polygon fill="none" stroke="#404040" points="164.857,-639.159 160.127,-633.716 163.333,-627.257 168.063,-632.7 164.857,-639.159"/>
<text text-anchor="middle" x="193" y="-649.5" font-family="Helvetica,sans-Serif" font-size="10.00"> +imaginary</text>
</g>
</g>
</svg>
