<?xml version="1.0" encoding="UTF-8" standalone="no"?>
<!DOCTYPE svg PUBLIC "-//W3C//DTD SVG 1.1//EN"
 "http://www.w3.org/Graphics/SVG/1.1/DTD/svg11.dtd">
<!-- Generated by graphviz version 2.36.0 (20140111.2315)
 -->
<!-- Title: human::LinkDynamicsEstimation::Editor Pages: 1 -->
<!--zoomable 862 -->
<svg id="main" version="1.1" xmlns="http://www.w3.org/2000/svg" xmlns:xlink="http://www.w3.org/1999/xlink" xml:space="preserve" onload="init(evt)">
<style type="text/css"><![CDATA[
.edge:hover path { stroke: red; }
.edge:hover polygon { stroke: red; fill: red; }
]]></style>
<script type="text/javascript"><![CDATA[
var edges = document.getElementsByTagName('g');
if (edges && edges.length) {
  for (var i=0;i<edges.length;i++) {
    if (edges[i].id.substr(0,4)=='edge') {
      edges[i].setAttribute('class','edge');
    }
  }
}
]]></script>
        <defs>
                <circle id="rim" cx="0" cy="0" r="7"/>
                <circle id="rim2" cx="0" cy="0" r="3.5"/>
                <g id="zoomPlus">
                        <use xlink:href="#rim" fill="#404040">
                                <set attributeName="fill" to="#808080" begin="zoomplus.mouseover" end="zoomplus.mouseout"/>
                        </use>
                        <path d="M-4,0h8M0,-4v8" fill="none" stroke="white" stroke-width="1.5" pointer-events="none"/>
                </g>
                <g id="zoomMin">
                        <use xlink:href="#rim" fill="#404040">
                                <set attributeName="fill" to="#808080" begin="zoomminus.mouseover" end="zoomminus.mouseout"/>
                        </use>
                        <path d="M-4,0h8" fill="none" stroke="white" stroke-width="1.5" pointer-events="none"/>
                </g>
                <g id="dirArrow">
                        <path fill="none" stroke="white" stroke-width="1.5" d="M0,-3.0v7 M-2.5,-0.5L0,-3.0L2.5,-0.5"/>
                </g>
               <g id="resetDef">
                       <use xlink:href="#rim2" fill="#404040">
                               <set attributeName="fill" to="#808080" begin="reset.mouseover" end="reset.mouseout"/>
                       </use>
               </g>
        </defs>

<script type="text/javascript">
var viewWidth = 521;
var viewHeight = 862;
var sectionId = 'dynsection-1';
</script>
<script xlink:href="svgpan.js"/>
<svg id="graph" class="graph">
<g id="viewport">
<title>human::LinkDynamicsEstimation::Editor</title>
<!-- Node1 -->
<g id="node1" class="node"><title>Node1</title>
<polygon fill="#bfbfbf" stroke="black" points="4,-1 4,-333 166,-333 166,-1 4,-1"/>
<text text-anchor="start" x="12" y="-321" font-family="Helvetica,sans-Serif" font-size="10.00">human::LinkDynamicsEstimation</text>
<text text-anchor="middle" x="85" y="-310" font-family="Helvetica,sans-Serif" font-size="10.00">::Editor</text>
<polyline fill="none" stroke="black" points="4,-303 166,-303 "/>
<text text-anchor="middle" x="85" y="-291" font-family="Helvetica,sans-Serif" font-size="10.00"> </text>
<polyline fill="none" stroke="black" points="4,-284 166,-284 "/>
<text text-anchor="start" x="12" y="-272" font-family="Helvetica,sans-Serif" font-size="10.00">+ Editor()</text>
<text text-anchor="start" x="12" y="-261" font-family="Helvetica,sans-Serif" font-size="10.00">+ Editor()</text>
<text text-anchor="start" x="12" y="-250" font-family="Helvetica,sans-Serif" font-size="10.00">+ edit()</text>
<text text-anchor="start" x="12" y="-239" font-family="Helvetica,sans-Serif" font-size="10.00">+ ~Editor()</text>
<text text-anchor="start" x="12" y="-228" font-family="Helvetica,sans-Serif" font-size="10.00">+ isValid()</text>
<text text-anchor="start" x="12" y="-217" font-family="Helvetica,sans-Serif" font-size="10.00">+ state()</text>
<text text-anchor="start" x="12" y="-206" font-family="Helvetica,sans-Serif" font-size="10.00">+ begin()</text>
<text text-anchor="start" x="12" y="-195" font-family="Helvetica,sans-Serif" font-size="10.00">+ end()</text>
<text text-anchor="start" x="12" y="-184" font-family="Helvetica,sans-Serif" font-size="10.00">+ set_linkName()</text>
<text text-anchor="start" x="12" y="-173" font-family="Helvetica,sans-Serif" font-size="10.00">+ set_spatialAcceleration()</text>
<text text-anchor="start" x="12" y="-162" font-family="Helvetica,sans-Serif" font-size="10.00">and 44 more...</text>
<text text-anchor="start" x="12" y="-151" font-family="Helvetica,sans-Serif" font-size="10.00">&#45; communicate()</text>
<text text-anchor="start" x="12" y="-140" font-family="Helvetica,sans-Serif" font-size="10.00">&#45; mark_dirty()</text>
<text text-anchor="start" x="12" y="-129" font-family="Helvetica,sans-Serif" font-size="10.00">&#45; mark_dirty_linkName()</text>
<text text-anchor="start" x="12" y="-118" font-family="Helvetica,sans-Serif" font-size="10.00">&#45; mark_dirty_spatialAcceleration()</text>
<text text-anchor="start" x="12" y="-107" font-family="Helvetica,sans-Serif" font-size="10.00">&#45; mark_dirty_netWrench()</text>
<text text-anchor="start" x="12" y="-96" font-family="Helvetica,sans-Serif" font-size="10.00">&#45; mark_dirty_externalWrench()</text>
<text text-anchor="start" x="12" y="-85" font-family="Helvetica,sans-Serif" font-size="10.00">&#45; dirty_flags()</text>
<text text-anchor="start" x="12" y="-74" font-family="Helvetica,sans-Serif" font-size="10.00">&#45; communicate()</text>
<text text-anchor="start" x="12" y="-63" font-family="Helvetica,sans-Serif" font-size="10.00">&#45; mark_dirty()</text>
<text text-anchor="start" x="12" y="-52" font-family="Helvetica,sans-Serif" font-size="10.00">&#45; mark_dirty_linkName()</text>
<text text-anchor="start" x="12" y="-41" font-family="Helvetica,sans-Serif" font-size="10.00">&#45; mark_dirty_spatialAcceleration()</text>
<text text-anchor="start" x="12" y="-30" font-family="Helvetica,sans-Serif" font-size="10.00">&#45; mark_dirty_netWrench()</text>
<text text-anchor="start" x="12" y="-19" font-family="Helvetica,sans-Serif" font-size="10.00">&#45; mark_dirty_externalWrench()</text>
<text text-anchor="start" x="12" y="-8" font-family="Helvetica,sans-Serif" font-size="10.00">&#45; dirty_flags()</text>
</g>
<!-- Node2 -->
<g id="node2" class="node"><title>Node2</title>
<g id="a_node2"><a xlink:href="classyarp_1_1os_1_1_wire.html" target="_top" xlink:title="{Wire\n||}">
<polygon fill="none" stroke="black" points="-0.5,-552.5 -0.5,-609.5 36.5,-609.5 36.5,-552.5 -0.5,-552.5"/>
<text text-anchor="middle" x="18" y="-597.5" font-family="Helvetica,sans-Serif" font-size="10.00">Wire</text>
<polyline fill="none" stroke="black" points="-0.5,-590.5 36.5,-590.5 "/>
<text text-anchor="middle" x="18" y="-578.5" font-family="Helvetica,sans-Serif" font-size="10.00"> </text>
<polyline fill="none" stroke="black" points="-0.5,-571.5 36.5,-571.5 "/>
<text text-anchor="middle" x="18" y="-559.5" font-family="Helvetica,sans-Serif" font-size="10.00"> </text>
</a>
</g>
</g>
<!-- Node2&#45;&gt;Node1 -->
<g id="edge1" class="edge"><title>Node2&#45;&gt;Node1</title>
<path fill="none" stroke="midnightblue" d="M20.0421,-542.214C25.624,-494.751 38.5287,-410.211 51.4568,-333.48"/>
<polygon fill="none" stroke="midnightblue" points="16.5443,-541.999 18.9044,-552.328 23.5004,-542.782 16.5443,-541.999"/>
</g>
<!-- Node2&#45;&gt;Node1 -->
<g id="edge3" class="edge"><title>Node2&#45;&gt;Node1</title>
<path fill="none" stroke="midnightblue" d="M28.1854,-542.513C38.0412,-495.106 52.6686,-410.372 64.722,-333.48"/>
<polygon fill="none" stroke="midnightblue" points="24.755,-541.818 26.0958,-552.328 31.6015,-543.276 24.755,-541.818"/>
</g>
<!-- Node3 -->
<g id="node3" class="node"><title>Node3</title>
<g id="a_node3"><a xlink:href="classyarp_1_1os_1_1_port_writer.html" target="_top" xlink:title="{PortWriter\n||}">
<polygon fill="none" stroke="black" points="54.5,-552.5 54.5,-609.5 115.5,-609.5 115.5,-552.5 54.5,-552.5"/>
<text text-anchor="middle" x="85" y="-597.5" font-family="Helvetica,sans-Serif" font-size="10.00">PortWriter</text>
<polyline fill="none" stroke="black" points="54.5,-590.5 115.5,-590.5 "/>
<text text-anchor="middle" x="85" y="-578.5" font-family="Helvetica,sans-Serif" font-size="10.00"> </text>
<polyline fill="none" stroke="black" points="54.5,-571.5 115.5,-571.5 "/>
<text text-anchor="middle" x="85" y="-559.5" font-family="Helvetica,sans-Serif" font-size="10.00"> </text>
</a>
</g>
</g>
<!-- Node3&#45;&gt;Node1 -->
<g id="edge2" class="edge"><title>Node3&#45;&gt;Node1</title>
<path fill="none" stroke="midnightblue" d="M80.8973,-542.214C78.7607,-494.751 77.9174,-410.211 78.3674,-333.48"/>
<polygon fill="none" stroke="midnightblue" points="77.4079,-542.516 81.4043,-552.328 84.3991,-542.165 77.4079,-542.516"/>
</g>
<!-- Node3&#45;&gt;Node1 -->
<g id="edge4" class="edge"><title>Node3&#45;&gt;Node1</title>
<path fill="none" stroke="midnightblue" d="M89.1027,-542.214C91.2393,-494.751 92.0826,-410.211 91.6326,-333.48"/>
<polygon fill="none" stroke="midnightblue" points="85.6009,-542.165 88.5957,-552.328 92.5921,-542.516 85.6009,-542.165"/>
</g>
<!-- Node4 -->
<g id="node4" class="node"><title>Node4</title>
<g id="a_node4"><a xlink:href="classhuman_1_1_link_dynamics_estimation.html" target="_top" xlink:title="{human::LinkDynamicsEstimation\n||+ LinkDynamicsEstimation()\l+ LinkDynamicsEstimation()\l+ LinkDynamicsEstimation()\l+ operator=()\l+ read()\l+ read()\l+ write()\l+ write()\l+ toString()\l+ LinkDynamicsEstimation()\land 8 more...\l&#45; write_linkName()\l&#45; nested_write_linkName()\l&#45; write_spatialAcceleration()\l&#45; nested_write_spatialAcceleration()\l&#45; write_netWrench()\l&#45; nested_write_netWrench()\l&#45; write_externalWrench()\l&#45; nested_write_externalWrench()\l&#45; read_linkName()\l&#45; nested_read_linkName()\land 22 more...\l}">
<polygon fill="none" stroke="black" points="134,-437 134,-725 306,-725 306,-437 134,-437"/>
<text text-anchor="middle" x="220" y="-713" font-family="Helvetica,sans-Serif" font-size="10.00">human::LinkDynamicsEstimation</text>
<polyline fill="none" stroke="black" points="134,-706 306,-706 "/>
<text text-anchor="middle" x="220" y="-694" font-family="Helvetica,sans-Serif" font-size="10.00"> </text>
<polyline fill="none" stroke="black" points="134,-687 306,-687 "/>
<text text-anchor="start" x="142" y="-675" font-family="Helvetica,sans-Serif" font-size="10.00">+ LinkDynamicsEstimation()</text>
<text text-anchor="start" x="142" y="-664" font-family="Helvetica,sans-Serif" font-size="10.00">+ LinkDynamicsEstimation()</text>
<text text-anchor="start" x="142" y="-653" font-family="Helvetica,sans-Serif" font-size="10.00">+ LinkDynamicsEstimation()</text>
<text text-anchor="start" x="142" y="-642" font-family="Helvetica,sans-Serif" font-size="10.00">+ operator=()</text>
<text text-anchor="start" x="142" y="-631" font-family="Helvetica,sans-Serif" font-size="10.00">+ read()</text>
<text text-anchor="start" x="142" y="-620" font-family="Helvetica,sans-Serif" font-size="10.00">+ read()</text>
<text text-anchor="start" x="142" y="-609" font-family="Helvetica,sans-Serif" font-size="10.00">+ write()</text>
<text text-anchor="start" x="142" y="-598" font-family="Helvetica,sans-Serif" font-size="10.00">+ write()</text>
<text text-anchor="start" x="142" y="-587" font-family="Helvetica,sans-Serif" font-size="10.00">+ toString()</text>
<text text-anchor="start" x="142" y="-576" font-family="Helvetica,sans-Serif" font-size="10.00">+ LinkDynamicsEstimation()</text>
<text text-anchor="start" x="142" y="-565" font-family="Helvetica,sans-Serif" font-size="10.00">and 8 more...</text>
<text text-anchor="start" x="142" y="-554" font-family="Helvetica,sans-Serif" font-size="10.00">&#45; write_linkName()</text>
<text text-anchor="start" x="142" y="-543" font-family="Helvetica,sans-Serif" font-size="10.00">&#45; nested_write_linkName()</text>
<text text-anchor="start" x="142" y="-532" font-family="Helvetica,sans-Serif" font-size="10.00">&#45; write_spatialAcceleration()</text>
<text text-anchor="start" x="142" y="-521" font-family="Helvetica,sans-Serif" font-size="10.00">&#45; nested_write_spatialAcceleration()</text>
<text text-anchor="start" x="142" y="-510" font-family="Helvetica,sans-Serif" font-size="10.00">&#45; write_netWrench()</text>
<text text-anchor="start" x="142" y="-499" font-family="Helvetica,sans-Serif" font-size="10.00">&#45; nested_write_netWrench()</text>
<text text-anchor="start" x="142" y="-488" font-family="Helvetica,sans-Serif" font-size="10.00">&#45; write_externalWrench()</text>
<text text-anchor="start" x="142" y="-477" font-family="Helvetica,sans-Serif" font-size="10.00">&#45; nested_write_externalWrench()</text>
<text text-anchor="start" x="142" y="-466" font-family="Helvetica,sans-Serif" font-size="10.00">&#45; read_linkName()</text>
<text text-anchor="start" x="142" y="-455" font-family="Helvetica,sans-Serif" font-size="10.00">&#45; nested_read_linkName()</text>
<text text-anchor="start" x="142" y="-444" font-family="Helvetica,sans-Serif" font-size="10.00">and 22 more...</text>
</a>
</g>
</g>
<!-- Node4&#45;&gt;Node1 -->
<g id="edge5" class="edge"><title>Node4&#45;&gt;Node1</title>
<path fill="none" stroke="#404040" d="M173.068,-436.77C163.348,-407.105 152.998,-375.52 142.938,-344.818"/>
<polygon fill="none" stroke="#404040" points="142.835,-344.504 137.166,-340.048 139.098,-333.1 144.768,-337.557 142.835,-344.504"/>
<text text-anchor="middle" x="174.5" y="-382.5" font-family="Helvetica,sans-Serif" font-size="10.00"> &#45;obj</text>
</g>
<!-- Node5 -->
<g id="node5" class="node"><title>Node5</title>
<g id="a_node5"><a xlink:href="classyarp_1_1os_1_1idl_1_1_wire_portable.html" target="_top" xlink:title="{yarp::os::idl::WirePortable\n||}">
<polygon fill="none" stroke="black" points="1,-796.5 1,-853.5 131,-853.5 131,-796.5 1,-796.5"/>
<text text-anchor="middle" x="66" y="-841.5" font-family="Helvetica,sans-Serif" font-size="10.00">yarp::os::idl::WirePortable</text>
<polyline fill="none" stroke="black" points="1,-834.5 131,-834.5 "/>
<text text-anchor="middle" x="66" y="-822.5" font-family="Helvetica,sans-Serif" font-size="10.00"> </text>
<polyline fill="none" stroke="black" points="1,-815.5 131,-815.5 "/>
<text text-anchor="middle" x="66" y="-803.5" font-family="Helvetica,sans-Serif" font-size="10.00"> </text>
</a>
</g>
</g>
<!-- Node5&#45;&gt;Node4 -->
<g id="edge6" class="edge"><title>Node5&#45;&gt;Node4</title>
<path fill="none" stroke="midnightblue" d="M89.0478,-787.782C101.352,-768.447 117.35,-743.306 133.918,-717.272"/>
<polygon fill="none" stroke="midnightblue" points="86.0817,-785.924 83.6658,-796.24 91.9874,-789.682 86.0817,-785.924"/>
</g>
<!-- Node6 -->
<g id="node6" class="node"><title>Node6</title>
<g id="a_node6"><a xlink:href="classyarp_1_1os_1_1idl_1_1_wire_portable.html" target="_top" xlink:title="{WirePortable\n||}">
<polygon fill="none" stroke="black" points="149.5,-796.5 149.5,-853.5 222.5,-853.5 222.5,-796.5 149.5,-796.5"/>
<text text-anchor="middle" x="186" y="-841.5" font-family="Helvetica,sans-Serif" font-size="10.00">WirePortable</text>
<polyline fill="none" stroke="black" points="149.5,-834.5 222.5,-834.5 "/>
<text text-anchor="middle" x="186" y="-822.5" font-family="Helvetica,sans-Serif" font-size="10.00"> </text>
<polyline fill="none" stroke="black" points="149.5,-815.5 222.5,-815.5 "/>
<text text-anchor="middle" x="186" y="-803.5" font-family="Helvetica,sans-Serif" font-size="10.00"> </text>
</a>
</g>
</g>
<!-- Node6&#45;&gt;Node4 -->
<g id="edge7" class="edge"><title>Node6&#45;&gt;Node4</title>
<path fill="none" stroke="midnightblue" d="M191.318,-786.149C193.727,-769.002 196.742,-747.539 199.906,-725.024"/>
<polygon fill="none" stroke="midnightblue" points="187.826,-785.85 189.9,-796.24 194.758,-786.824 187.826,-785.85"/>
</g>
<!-- Node7 -->
<g id="node7" class="node"><title>Node7</title>
<polygon fill="none" stroke="#bfbfbf" points="240.5,-796.5 240.5,-853.5 281.5,-853.5 281.5,-796.5 240.5,-796.5"/>
<text text-anchor="middle" x="261" y="-841.5" font-family="Helvetica,sans-Serif" font-size="10.00">string</text>
<polyline fill="none" stroke="#bfbfbf" points="240.5,-834.5 281.5,-834.5 "/>
<text text-anchor="middle" x="261" y="-822.5" font-family="Helvetica,sans-Serif" font-size="10.00"> </text>
<polyline fill="none" stroke="#bfbfbf" points="240.5,-815.5 281.5,-815.5 "/>
<text text-anchor="middle" x="261" y="-803.5" font-family="Helvetica,sans-Serif" font-size="10.00"> </text>
</g>
<!-- Node7&#45;&gt;Node4 -->
<g id="edge8" class="edge"><title>Node7&#45;&gt;Node4</title>
<path fill="none" stroke="#404040" d="M256.297,-796.24C253.646,-780.593 250.101,-759.667 246.262,-737.011"/>
<polygon fill="none" stroke="#404040" points="246.236,-736.855 241.29,-731.608 244.231,-725.024 249.177,-730.271 246.236,-736.855"/>
<text text-anchor="middle" x="279.5" y="-758.5" font-family="Helvetica,sans-Serif" font-size="10.00"> +linkName</text>
</g>
<!-- Node8 -->
<g id="node8" class="node"><title>Node8</title>
<polygon fill="none" stroke="#bfbfbf" points="305.5,-796.5 305.5,-853.5 350.5,-853.5 350.5,-796.5 305.5,-796.5"/>
<text text-anchor="middle" x="328" y="-841.5" font-family="Helvetica,sans-Serif" font-size="10.00">Vector</text>
<polyline fill="none" stroke="#bfbfbf" points="305.5,-834.5 350.5,-834.5 "/>
<text text-anchor="middle" x="328" y="-822.5" font-family="Helvetica,sans-Serif" font-size="10.00"> </text>
<polyline fill="none" stroke="#bfbfbf" points="305.5,-815.5 350.5,-815.5 "/>
<text text-anchor="middle" x="328" y="-803.5" font-family="Helvetica,sans-Serif" font-size="10.00"> </text>
</g>
<!-- Node8&#45;&gt;Node4 -->
<g id="edge9" class="edge"><title>Node8&#45;&gt;Node4</title>
<path fill="none" stroke="#404040" d="M322.017,-796.482C318.222,-780.822 312.755,-761.001 306,-744 304.997,-741.475 303.965,-738.939 302.908,-736.395"/>
<polygon fill="none" stroke="#404040" points="302.838,-736.231 296.8,-732.288 298.117,-725.199 304.155,-729.141 302.838,-736.231"/>
<text text-anchor="middle" x="363" y="-769.5" font-family="Helvetica,sans-Serif" font-size="10.00"> +spatialAcceleration</text>
<text text-anchor="middle" x="363" y="-758.5" font-family="Helvetica,sans-Serif" font-size="10.00">+externalWrench</text>
<text text-anchor="middle" x="363" y="-747.5" font-family="Helvetica,sans-Serif" font-size="10.00">+netWrench</text>
</g>
<!-- Node9 -->
<g id="node9" class="node"><title>Node9</title>
<polygon fill="none" stroke="#bfbfbf" points="324.5,-552.5 324.5,-609.5 353.5,-609.5 353.5,-552.5 324.5,-552.5"/>
<text text-anchor="middle" x="339" y="-597.5" font-family="Helvetica,sans-Serif" font-size="10.00">int</text>
<polyline fill="none" stroke="#bfbfbf" points="324.5,-590.5 353.5,-590.5 "/>
<text text-anchor="middle" x="339" y="-578.5" font-family="Helvetica,sans-Serif" font-size="10.00"> </text>
<polyline fill="none" stroke="#bfbfbf" points="324.5,-571.5 353.5,-571.5 "/>
<text text-anchor="middle" x="339" y="-559.5" font-family="Helvetica,sans-Serif" font-size="10.00"> </text>
</g>
<!-- Node9&#45;&gt;Node1 -->
<g id="edge10" class="edge"><title>Node9&#45;&gt;Node1</title>
<path fill="none" stroke="#404040" d="M338.759,-552.438C337.529,-522.459 332.652,-473.771 315,-436 281.755,-364.867 224.216,-297.837 175.008,-248.605"/>
<polygon fill="none" stroke="#404040" points="174.773,-248.372 167.694,-246.996 166.242,-239.933 173.32,-241.309 174.773,-248.372"/>
<text text-anchor="middle" x="330.5" y="-388" font-family="Helvetica,sans-Serif" font-size="10.00"> &#45;dirty_count</text>
<text text-anchor="middle" x="330.5" y="-377" font-family="Helvetica,sans-Serif" font-size="10.00">&#45;group</text>
</g>
<!-- Node10 -->
<g id="node10" class="node"><title>Node10</title>
<polygon fill="none" stroke="#bfbfbf" points="385.5,-552.5 385.5,-609.5 420.5,-609.5 420.5,-552.5 385.5,-552.5"/>
<text text-anchor="middle" x="403" y="-597.5" font-family="Helvetica,sans-Serif" font-size="10.00">bool</text>
<polyline fill="none" stroke="#bfbfbf" points="385.5,-590.5 420.5,-590.5 "/>
<text text-anchor="middle" x="403" y="-578.5" font-family="Helvetica,sans-Serif" font-size="10.00"> </text>
<polyline fill="none" stroke="#bfbfbf" points="385.5,-571.5 420.5,-571.5 "/>
<text text-anchor="middle" x="403" y="-559.5" font-family="Helvetica,sans-Serif" font-size="10.00"> </text>
</g>
<!-- Node10&#45;&gt;Node1 -->
<g id="edge11" class="edge"><title>Node10&#45;&gt;Node1</title>
<path fill="none" stroke="#404040" d="M404.692,-552.206C406.104,-506.552 403.07,-414.523 362,-352 317.746,-284.629 239.372,-236.015 177.257,-205.737"/>
<polygon fill="none" stroke="#404040" points="177.084,-205.654 169.945,-206.677 166.256,-200.482 173.394,-199.459 177.084,-205.654"/>
<text text-anchor="middle" x="451.5" y="-410" font-family="Helvetica,sans-Serif" font-size="10.00"> &#45;is_dirty_netWrench</text>
<text text-anchor="middle" x="451.5" y="-399" font-family="Helvetica,sans-Serif" font-size="10.00">&#45;is_dirty_spatialAcceleration</text>
<text text-anchor="middle" x="451.5" y="-388" font-family="Helvetica,sans-Serif" font-size="10.00">&#45;is_dirty</text>
<text text-anchor="middle" x="451.5" y="-377" font-family="Helvetica,sans-Serif" font-size="10.00">&#45;is_dirty_externalWrench</text>
<text text-anchor="middle" x="451.5" y="-366" font-family="Helvetica,sans-Serif" font-size="10.00">&#45;obj_owned</text>
<text text-anchor="middle" x="451.5" y="-355" font-family="Helvetica,sans-Serif" font-size="10.00">&#45;is_dirty_linkName</text>
</g>
</g>
</svg>
        <g id="navigator" transform="translate(0 0)" fill="#404254">
                <rect fill="#f2f5e9" fill-opacity="0.5" stroke="#606060" stroke-width=".5" x="0" y="0" width="60" height="60"/>
                <use id="zoomplus" xlink:href="#zoomPlus" x="17" y="9" onmousedown="handleZoom(evt,'in')"/>
                <use id="zoomminus" xlink:href="#zoomMin" x="42" y="9" onmousedown="handleZoom(evt,'out')"/>
                <use id="reset" xlink:href="#resetDef" x="30" y="36" onmousedown="handleReset()"/>
                <g id="arrowUp" xlink:href="#dirArrow" transform="translate(30 24)" onmousedown="handlePan(0,-1)">
                  <use xlink:href="#rim" fill="#404040">
                        <set attributeName="fill" to="#808080" begin="arrowUp.mouseover" end="arrowUp.mouseout"/>
                  </use>
                  <path fill="none" stroke="white" stroke-width="1.5" d="M0,-3.0v7 M-2.5,-0.5L0,-3.0L2.5,-0.5"/>
                </g>
                <g id="arrowRight" xlink:href="#dirArrow" transform="rotate(90) translate(36 -43)" onmousedown="handlePan(1,0)">
                  <use xlink:href="#rim" fill="#404040">
                        <set attributeName="fill" to="#808080" begin="arrowRight.mouseover" end="arrowRight.mouseout"/>
                  </use>
                  <path fill="none" stroke="white" stroke-width="1.5" d="M0,-3.0v7 M-2.5,-0.5L0,-3.0L2.5,-0.5"/>
                </g>
                <g id="arrowDown" xlink:href="#dirArrow" transform="rotate(180) translate(-30 -48)" onmousedown="handlePan(0,1)">
                  <use xlink:href="#rim" fill="#404040">
                        <set attributeName="fill" to="#808080" begin="arrowDown.mouseover" end="arrowDown.mouseout"/>
                  </use>
                  <path fill="none" stroke="white" stroke-width="1.5" d="M0,-3.0v7 M-2.5,-0.5L0,-3.0L2.5,-0.5"/>
                </g>
                <g id="arrowLeft" xlink:href="#dirArrow" transform="rotate(270) translate(-36 17)" onmousedown="handlePan(-1,0)">
                  <use xlink:href="#rim" fill="#404040">
                        <set attributeName="fill" to="#808080" begin="arrowLeft.mouseover" end="arrowLeft.mouseout"/>
                  </use>
                  <path fill="none" stroke="white" stroke-width="1.5" d="M0,-3.0v7 M-2.5,-0.5L0,-3.0L2.5,-0.5"/>
                </g>
        </g>
        <svg viewBox="0 0 15 15" width="100%" height="30px" preserveAspectRatio="xMaxYMin meet">
         <g id="arrow_out" transform="scale(0.3 0.3)">
          <a xlink:href="classhuman_1_1_link_dynamics_estimation_1_1_editor__coll__graph_org.svg" target="_base">
           <rect id="button" ry="5" rx="5" y="6" x="6" height="38" width="38"
                fill="#f2f5e9" fill-opacity="0.5" stroke="#606060" stroke-width="1.0"/>
           <path id="arrow"
             d="M 11.500037,31.436501 C 11.940474,20.09759 22.043105,11.32322 32.158766,21.979434 L 37.068811,17.246167 C 37.068811,17.246167 37.088388,32 37.088388,32 L 22.160133,31.978069 C 22.160133,31.978069 26.997745,27.140456 26.997745,27.140456 C 18.528582,18.264221 13.291696,25.230495 11.500037,31.436501 z"
             style="fill:#404040;"/>
          </a>
         </g>
        </svg>
</svg>
