<?xml version="1.0" encoding="UTF-8" standalone="no"?>
<!DOCTYPE svg PUBLIC "-//W3C//DTD SVG 1.1//EN"
 "http://www.w3.org/Graphics/SVG/1.1/DTD/svg11.dtd">
<!-- Generated by graphviz version 2.36.0 (20140111.2315)
 -->
<!-- Title: xsens::Quaternion::Editor Pages: 1 -->
<!--zoomable 1134 -->
<svg id="main" version="1.1" xmlns="http://www.w3.org/2000/svg" xmlns:xlink="http://www.w3.org/1999/xlink" xml:space="preserve" onload="init(evt)">
<style type="text/css"><![CDATA[
.edge:hover path { stroke: red; }
.edge:hover polygon { stroke: red; fill: red; }
]]></style>
<script type="text/javascript"><![CDATA[
var edges = document.getElementsByTagName('g');
if (edges && edges.length) {
  for (var i=0;i<edges.length;i++) {
    if (edges[i].id.substr(0,4)=='edge') {
      edges[i].setAttribute('class','edge');
    }
  }
}
]]></script>
        <defs>
                <circle id="rim" cx="0" cy="0" r="7"/>
                <circle id="rim2" cx="0" cy="0" r="3.5"/>
                <g id="zoomPlus">
                        <use xlink:href="#rim" fill="#404040">
                                <set attributeName="fill" to="#808080" begin="zoomplus.mouseover" end="zoomplus.mouseout"/>
                        </use>
                        <path d="M-4,0h8M0,-4v8" fill="none" stroke="white" stroke-width="1.5" pointer-events="none"/>
                </g>
                <g id="zoomMin">
                        <use xlink:href="#rim" fill="#404040">
                                <set attributeName="fill" to="#808080" begin="zoomminus.mouseover" end="zoomminus.mouseout"/>
                        </use>
                        <path d="M-4,0h8" fill="none" stroke="white" stroke-width="1.5" pointer-events="none"/>
                </g>
                <g id="dirArrow">
                        <path fill="none" stroke="white" stroke-width="1.5" d="M0,-3.0v7 M-2.5,-0.5L0,-3.0L2.5,-0.5"/>
                </g>
               <g id="resetDef">
                       <use xlink:href="#rim2" fill="#404040">
                               <set attributeName="fill" to="#808080" begin="reset.mouseover" end="reset.mouseout"/>
                       </use>
               </g>
        </defs>

<script type="text/javascript">
var viewWidth = 435;
var viewHeight = 1134;
var sectionId = 'dynsection-1';
</script>
<script xlink:href="svgpan.js"/>
<svg id="graph" class="graph">
<g id="viewport">
<title>xsens::Quaternion::Editor</title>
<!-- Node1 -->
<g id="node1" class="node"><title>Node1</title>
<polygon fill="#bfbfbf" stroke="black" points="24,-1 24,-289 146,-289 146,-1 24,-1"/>
<text text-anchor="start" x="32" y="-277" font-family="Helvetica,sans-Serif" font-size="10.00">xsens::Quaternion::</text>
<text text-anchor="middle" x="85" y="-266" font-family="Helvetica,sans-Serif" font-size="10.00">Editor</text>
<polyline fill="none" stroke="black" points="24,-259 146,-259 "/>
<text text-anchor="middle" x="85" y="-247" font-family="Helvetica,sans-Serif" font-size="10.00"> </text>
<polyline fill="none" stroke="black" points="24,-240 146,-240 "/>
<text text-anchor="start" x="32" y="-228" font-family="Helvetica,sans-Serif" font-size="10.00">+ Editor()</text>
<text text-anchor="start" x="32" y="-217" font-family="Helvetica,sans-Serif" font-size="10.00">+ Editor()</text>
<text text-anchor="start" x="32" y="-206" font-family="Helvetica,sans-Serif" font-size="10.00">+ edit()</text>
<text text-anchor="start" x="32" y="-195" font-family="Helvetica,sans-Serif" font-size="10.00">+ ~Editor()</text>
<text text-anchor="start" x="32" y="-184" font-family="Helvetica,sans-Serif" font-size="10.00">+ isValid()</text>
<text text-anchor="start" x="32" y="-173" font-family="Helvetica,sans-Serif" font-size="10.00">+ state()</text>
<text text-anchor="start" x="32" y="-162" font-family="Helvetica,sans-Serif" font-size="10.00">+ begin()</text>
<text text-anchor="start" x="32" y="-151" font-family="Helvetica,sans-Serif" font-size="10.00">+ end()</text>
<text text-anchor="start" x="32" y="-140" font-family="Helvetica,sans-Serif" font-size="10.00">+ set_w()</text>
<text text-anchor="start" x="32" y="-129" font-family="Helvetica,sans-Serif" font-size="10.00">+ set_imaginary()</text>
<text text-anchor="start" x="32" y="-118" font-family="Helvetica,sans-Serif" font-size="10.00">and 28 more...</text>
<text text-anchor="start" x="32" y="-107" font-family="Helvetica,sans-Serif" font-size="10.00">&#45; communicate()</text>
<text text-anchor="start" x="32" y="-96" font-family="Helvetica,sans-Serif" font-size="10.00">&#45; mark_dirty()</text>
<text text-anchor="start" x="32" y="-85" font-family="Helvetica,sans-Serif" font-size="10.00">&#45; mark_dirty_w()</text>
<text text-anchor="start" x="32" y="-74" font-family="Helvetica,sans-Serif" font-size="10.00">&#45; mark_dirty_imaginary()</text>
<text text-anchor="start" x="32" y="-63" font-family="Helvetica,sans-Serif" font-size="10.00">&#45; dirty_flags()</text>
<text text-anchor="start" x="32" y="-52" font-family="Helvetica,sans-Serif" font-size="10.00">&#45; communicate()</text>
<text text-anchor="start" x="32" y="-41" font-family="Helvetica,sans-Serif" font-size="10.00">&#45; mark_dirty()</text>
<text text-anchor="start" x="32" y="-30" font-family="Helvetica,sans-Serif" font-size="10.00">&#45; mark_dirty_w()</text>
<text text-anchor="start" x="32" y="-19" font-family="Helvetica,sans-Serif" font-size="10.00">&#45; mark_dirty_imaginary()</text>
<text text-anchor="start" x="32" y="-8" font-family="Helvetica,sans-Serif" font-size="10.00">&#45; dirty_flags()</text>
</g>
<!-- Node2 -->
<g id="node2" class="node"><title>Node2</title>
<g id="a_node2"><a xlink:href="classyarp_1_1os_1_1_wire.html" target="_top" xlink:title="{Wire\n||}">
<polygon fill="none" stroke="black" points="-0.5,-486.5 -0.5,-543.5 36.5,-543.5 36.5,-486.5 -0.5,-486.5"/>
<text text-anchor="middle" x="18" y="-531.5" font-family="Helvetica,sans-Serif" font-size="10.00">Wire</text>
<polyline fill="none" stroke="black" points="-0.5,-524.5 36.5,-524.5 "/>
<text text-anchor="middle" x="18" y="-512.5" font-family="Helvetica,sans-Serif" font-size="10.00"> </text>
<polyline fill="none" stroke="black" points="-0.5,-505.5 36.5,-505.5 "/>
<text text-anchor="middle" x="18" y="-493.5" font-family="Helvetica,sans-Serif" font-size="10.00"> </text>
</a>
</g>
</g>
<!-- Node2&#45;&gt;Node1 -->
<g id="edge1" class="edge"><title>Node2&#45;&gt;Node1</title>
<path fill="none" stroke="midnightblue" d="M20.5581,-476.389C26.5213,-432.411 39.4799,-357.003 52.3045,-289.324"/>
<polygon fill="none" stroke="midnightblue" points="17.083,-475.972 19.2625,-486.34 24.0244,-476.876 17.083,-475.972"/>
</g>
<!-- Node2&#45;&gt;Node1 -->
<g id="edge3" class="edge"><title>Node2&#45;&gt;Node1</title>
<path fill="none" stroke="midnightblue" d="M29.1371,-476.389C39.1876,-432.411 53.6874,-357.003 65.5069,-289.324"/>
<polygon fill="none" stroke="midnightblue" points="25.6791,-475.806 26.8093,-486.34 32.4951,-477.4 25.6791,-475.806"/>
</g>
<!-- Node3 -->
<g id="node3" class="node"><title>Node3</title>
<g id="a_node3"><a xlink:href="classyarp_1_1os_1_1_port_writer.html" target="_top" xlink:title="{PortWriter\n||}">
<polygon fill="none" stroke="black" points="54.5,-486.5 54.5,-543.5 115.5,-543.5 115.5,-486.5 54.5,-486.5"/>
<text text-anchor="middle" x="85" y="-531.5" font-family="Helvetica,sans-Serif" font-size="10.00">PortWriter</text>
<polyline fill="none" stroke="black" points="54.5,-524.5 115.5,-524.5 "/>
<text text-anchor="middle" x="85" y="-512.5" font-family="Helvetica,sans-Serif" font-size="10.00"> </text>
<polyline fill="none" stroke="black" points="54.5,-505.5 115.5,-505.5 "/>
<text text-anchor="middle" x="85" y="-493.5" font-family="Helvetica,sans-Serif" font-size="10.00"> </text>
</a>
</g>
</g>
<!-- Node3&#45;&gt;Node1 -->
<g id="edge2" class="edge"><title>Node3&#45;&gt;Node1</title>
<path fill="none" stroke="midnightblue" d="M80.6976,-476.111C78.6636,-432.093 77.8973,-356.86 78.3988,-289.324"/>
<polygon fill="none" stroke="midnightblue" points="77.2148,-476.534 81.2266,-486.34 84.2054,-476.173 77.2148,-476.534"/>
</g>
<!-- Node3&#45;&gt;Node1 -->
<g id="edge4" class="edge"><title>Node3&#45;&gt;Node1</title>
<path fill="none" stroke="midnightblue" d="M89.3024,-476.111C91.3364,-432.093 92.1027,-356.86 91.6012,-289.324"/>
<polygon fill="none" stroke="midnightblue" points="85.7946,-476.173 88.7734,-486.34 92.7852,-476.534 85.7946,-476.173"/>
</g>
<!-- Node4 -->
<g id="node4" class="node"><title>Node4</title>
<g id="a_node4"><a xlink:href="classxsens_1_1_quaternion.html" target="_top" xlink:title="{xsens::Quaternion\n||+ Quaternion()\l+ Quaternion()\l+ Quaternion()\l+ operator=()\l+ read()\l+ read()\l+ write()\l+ write()\l+ toString()\l+ Quaternion()\land 8 more...\l&#45; write_w()\l&#45; nested_write_w()\l&#45; write_imaginary()\l&#45; nested_write_imaginary()\l&#45; read_w()\l&#45; nested_read_w()\l&#45; read_imaginary()\l&#45; nested_read_imaginary()\l&#45; write_w()\l&#45; nested_write_w()\land 6 more...\l}">
<polygon fill="none" stroke="black" points="133.5,-371 133.5,-659 264.5,-659 264.5,-371 133.5,-371"/>
<text text-anchor="middle" x="199" y="-647" font-family="Helvetica,sans-Serif" font-size="10.00">xsens::Quaternion</text>
<polyline fill="none" stroke="black" points="133.5,-640 264.5,-640 "/>
<text text-anchor="middle" x="199" y="-628" font-family="Helvetica,sans-Serif" font-size="10.00"> </text>
<polyline fill="none" stroke="black" points="133.5,-621 264.5,-621 "/>
<text text-anchor="start" x="141.5" y="-609" font-family="Helvetica,sans-Serif" font-size="10.00">+ Quaternion()</text>
<text text-anchor="start" x="141.5" y="-598" font-family="Helvetica,sans-Serif" font-size="10.00">+ Quaternion()</text>
<text text-anchor="start" x="141.5" y="-587" font-family="Helvetica,sans-Serif" font-size="10.00">+ Quaternion()</text>
<text text-anchor="start" x="141.5" y="-576" font-family="Helvetica,sans-Serif" font-size="10.00">+ operator=()</text>
<text text-anchor="start" x="141.5" y="-565" font-family="Helvetica,sans-Serif" font-size="10.00">+ read()</text>
<text text-anchor="start" x="141.5" y="-554" font-family="Helvetica,sans-Serif" font-size="10.00">+ read()</text>
<text text-anchor="start" x="141.5" y="-543" font-family="Helvetica,sans-Serif" font-size="10.00">+ write()</text>
<text text-anchor="start" x="141.5" y="-532" font-family="Helvetica,sans-Serif" font-size="10.00">+ write()</text>
<text text-anchor="start" x="141.5" y="-521" font-family="Helvetica,sans-Serif" font-size="10.00">+ toString()</text>
<text text-anchor="start" x="141.5" y="-510" font-family="Helvetica,sans-Serif" font-size="10.00">+ Quaternion()</text>
<text text-anchor="start" x="141.5" y="-499" font-family="Helvetica,sans-Serif" font-size="10.00">and 8 more...</text>
<text text-anchor="start" x="141.5" y="-488" font-family="Helvetica,sans-Serif" font-size="10.00">&#45; write_w()</text>
<text text-anchor="start" x="141.5" y="-477" font-family="Helvetica,sans-Serif" font-size="10.00">&#45; nested_write_w()</text>
<text text-anchor="start" x="141.5" y="-466" font-family="Helvetica,sans-Serif" font-size="10.00">&#45; write_imaginary()</text>
<text text-anchor="start" x="141.5" y="-455" font-family="Helvetica,sans-Serif" font-size="10.00">&#45; nested_write_imaginary()</text>
<text text-anchor="start" x="141.5" y="-444" font-family="Helvetica,sans-Serif" font-size="10.00">&#45; read_w()</text>
<text text-anchor="start" x="141.5" y="-433" font-family="Helvetica,sans-Serif" font-size="10.00">&#45; nested_read_w()</text>
<text text-anchor="start" x="141.5" y="-422" font-family="Helvetica,sans-Serif" font-size="10.00">&#45; read_imaginary()</text>
<text text-anchor="start" x="141.5" y="-411" font-family="Helvetica,sans-Serif" font-size="10.00">&#45; nested_read_imaginary()</text>
<text text-anchor="start" x="141.5" y="-400" font-family="Helvetica,sans-Serif" font-size="10.00">&#45; write_w()</text>
<text text-anchor="start" x="141.5" y="-389" font-family="Helvetica,sans-Serif" font-size="10.00">&#45; nested_write_w()</text>
<text text-anchor="start" x="141.5" y="-378" font-family="Helvetica,sans-Serif" font-size="10.00">and 6 more...</text>
</a>
</g>
</g>
<!-- Node4&#45;&gt;Node1 -->
<g id="edge5" class="edge"><title>Node4&#45;&gt;Node1</title>
<path fill="none" stroke="#404040" d="M154.68,-370.931C147.563,-347.957 140.168,-324.086 132.97,-300.851"/>
<polygon fill="none" stroke="#404040" points="132.892,-300.599 127.296,-296.051 129.341,-289.136 134.937,-293.684 132.892,-300.599"/>
<text text-anchor="middle" x="155.5" y="-327.5" font-family="Helvetica,sans-Serif" font-size="10.00"> &#45;obj</text>
</g>
<!-- Node5 -->
<g id="node5" class="node"><title>Node5</title>
<g id="a_node5"><a xlink:href="classyarp_1_1os_1_1idl_1_1_wire_portable.html" target="_top" xlink:title="{WirePortable\n||}">
<polygon fill="none" stroke="black" points="161.5,-1068.5 161.5,-1125.5 234.5,-1125.5 234.5,-1068.5 161.5,-1068.5"/>
<text text-anchor="middle" x="198" y="-1113.5" font-family="Helvetica,sans-Serif" font-size="10.00">WirePortable</text>
<polyline fill="none" stroke="black" points="161.5,-1106.5 234.5,-1106.5 "/>
<text text-anchor="middle" x="198" y="-1094.5" font-family="Helvetica,sans-Serif" font-size="10.00"> </text>
<polyline fill="none" stroke="black" points="161.5,-1087.5 234.5,-1087.5 "/>
<text text-anchor="middle" x="198" y="-1075.5" font-family="Helvetica,sans-Serif" font-size="10.00"> </text>
</a>
</g>
</g>
<!-- Node5&#45;&gt;Node4 -->
<g id="edge6" class="edge"><title>Node5&#45;&gt;Node4</title>
<path fill="none" stroke="midnightblue" d="M183.67,-1058.3C180.14,-1040.13 177.32,-1017.99 176,-998 167.507,-869.391 171.31,-836.804 176,-708 176.578,-692.135 177.423,-675.548 178.474,-659.052"/>
<polygon fill="none" stroke="midnightblue" points="180.273,-1059.16 185.762,-1068.22 187.123,-1057.71 180.273,-1059.16"/>
</g>
<!-- Node5&#45;&gt;Node4 -->
<g id="edge7" class="edge"><title>Node5&#45;&gt;Node4</title>
<path fill="none" stroke="midnightblue" d="M199.938,-1058.04C198.113,-1039.92 195.314,-1017.9 194,-998 185.507,-869.391 189.31,-836.804 194,-708 194.578,-692.135 195.423,-675.548 196.359,-659.052"/>
<polygon fill="none" stroke="midnightblue" points="196.472,-1058.58 200.88,-1068.22 203.442,-1057.94 196.472,-1058.58"/>
</g>
<!-- Node7 -->
<g id="node7" class="node"><title>Node7</title>
<g id="a_node7"><a xlink:href="classxsens_1_1_vector3.html" target="_top" xlink:title="{xsens::Vector3\n||+ Vector3()\l+ Vector3()\l+ Vector3()\l+ operator=()\l+ read()\l+ read()\l+ write()\l+ write()\l+ toString()\l+ Vector3()\land 8 more...\l&#45; write_x()\l&#45; nested_write_x()\l&#45; write_y()\l&#45; nested_write_y()\l&#45; write_z()\l&#45; nested_write_z()\l&#45; read_x()\l&#45; nested_read_x()\l&#45; read_y()\l&#45; nested_read_y()\land 14 more...\l}">
<polygon fill="none" stroke="black" points="194.5,-709 194.5,-997 289.5,-997 289.5,-709 194.5,-709"/>
<text text-anchor="middle" x="242" y="-985" font-family="Helvetica,sans-Serif" font-size="10.00">xsens::Vector3</text>
<polyline fill="none" stroke="black" points="194.5,-978 289.5,-978 "/>
<text text-anchor="middle" x="242" y="-966" font-family="Helvetica,sans-Serif" font-size="10.00"> </text>
<polyline fill="none" stroke="black" points="194.5,-959 289.5,-959 "/>
<text text-anchor="start" x="202.5" y="-947" font-family="Helvetica,sans-Serif" font-size="10.00">+ Vector3()</text>
<text text-anchor="start" x="202.5" y="-936" font-family="Helvetica,sans-Serif" font-size="10.00">+ Vector3()</text>
<text text-anchor="start" x="202.5" y="-925" font-family="Helvetica,sans-Serif" font-size="10.00">+ Vector3()</text>
<text text-anchor="start" x="202.5" y="-914" font-family="Helvetica,sans-Serif" font-size="10.00">+ operator=()</text>
<text text-anchor="start" x="202.5" y="-903" font-family="Helvetica,sans-Serif" font-size="10.00">+ read()</text>
<text text-anchor="start" x="202.5" y="-892" font-family="Helvetica,sans-Serif" font-size="10.00">+ read()</text>
<text text-anchor="start" x="202.5" y="-881" font-family="Helvetica,sans-Serif" font-size="10.00">+ write()</text>
<text text-anchor="start" x="202.5" y="-870" font-family="Helvetica,sans-Serif" font-size="10.00">+ write()</text>
<text text-anchor="start" x="202.5" y="-859" font-family="Helvetica,sans-Serif" font-size="10.00">+ toString()</text>
<text text-anchor="start" x="202.5" y="-848" font-family="Helvetica,sans-Serif" font-size="10.00">+ Vector3()</text>
<text text-anchor="start" x="202.5" y="-837" font-family="Helvetica,sans-Serif" font-size="10.00">and 8 more...</text>
<text text-anchor="start" x="202.5" y="-826" font-family="Helvetica,sans-Serif" font-size="10.00">&#45; write_x()</text>
<text text-anchor="start" x="202.5" y="-815" font-family="Helvetica,sans-Serif" font-size="10.00">&#45; nested_write_x()</text>
<text text-anchor="start" x="202.5" y="-804" font-family="Helvetica,sans-Serif" font-size="10.00">&#45; write_y()</text>
<text text-anchor="start" x="202.5" y="-793" font-family="Helvetica,sans-Serif" font-size="10.00">&#45; nested_write_y()</text>
<text text-anchor="start" x="202.5" y="-782" font-family="Helvetica,sans-Serif" font-size="10.00">&#45; write_z()</text>
<text text-anchor="start" x="202.5" y="-771" font-family="Helvetica,sans-Serif" font-size="10.00">&#45; nested_write_z()</text>
<text text-anchor="start" x="202.5" y="-760" font-family="Helvetica,sans-Serif" font-size="10.00">&#45; read_x()</text>
<text text-anchor="start" x="202.5" y="-749" font-family="Helvetica,sans-Serif" font-size="10.00">&#45; nested_read_x()</text>
<text text-anchor="start" x="202.5" y="-738" font-family="Helvetica,sans-Serif" font-size="10.00">&#45; read_y()</text>
<text text-anchor="start" x="202.5" y="-727" font-family="Helvetica,sans-Serif" font-size="10.00">&#45; nested_read_y()</text>
<text text-anchor="start" x="202.5" y="-716" font-family="Helvetica,sans-Serif" font-size="10.00">and 14 more...</text>
</a>
</g>
</g>
<!-- Node5&#45;&gt;Node7 -->
<g id="edge10" class="edge"><title>Node5&#45;&gt;Node7</title>
<path fill="none" stroke="midnightblue" d="M199.818,-1058.15C202.086,-1041 205.46,-1019.54 209.346,-997.024"/>
<polygon fill="none" stroke="midnightblue" points="196.324,-1057.88 198.553,-1068.24 203.269,-1058.75 196.324,-1057.88"/>
</g>
<!-- Node5&#45;&gt;Node7 -->
<g id="edge11" class="edge"><title>Node5&#45;&gt;Node7</title>
<path fill="none" stroke="midnightblue" d="M209.946,-1058.15C213.914,-1041 218.344,-1019.54 222.645,-997.024"/>
<polygon fill="none" stroke="midnightblue" points="206.455,-1057.7 207.541,-1068.24 213.265,-1059.32 206.455,-1057.7"/>
</g>
<!-- Node6 -->
<g id="node6" class="node"><title>Node6</title>
<polygon fill="none" stroke="#bfbfbf" points="273.5,-1068.5 273.5,-1125.5 318.5,-1125.5 318.5,-1068.5 273.5,-1068.5"/>
<text text-anchor="middle" x="296" y="-1113.5" font-family="Helvetica,sans-Serif" font-size="10.00">double</text>
<polyline fill="none" stroke="#bfbfbf" points="273.5,-1106.5 318.5,-1106.5 "/>
<text text-anchor="middle" x="296" y="-1094.5" font-family="Helvetica,sans-Serif" font-size="10.00"> </text>
<polyline fill="none" stroke="#bfbfbf" points="273.5,-1087.5 318.5,-1087.5 "/>
<text text-anchor="middle" x="296" y="-1075.5" font-family="Helvetica,sans-Serif" font-size="10.00"> </text>
</g>
<!-- Node6&#45;&gt;Node4 -->
<g id="edge8" class="edge"><title>Node6&#45;&gt;Node4</title>
<path fill="none" stroke="#404040" d="M302.298,-1068.4C303.422,-1062.37 304.419,-1055.99 305,-1050 306.458,-1034.96 305.172,-1031.11 305,-1016 303.444,-879.085 332.068,-840.618 298,-708 292.015,-684.703 284.053,-681.364 273,-660 272.045,-658.155 271.084,-656.296 270.118,-654.427"/>
<polygon fill="none" stroke="#404040" points="270.039,-654.274 263.732,-650.779 264.532,-643.612 270.839,-647.107 270.039,-654.274"/>
<text text-anchor="middle" x="323.5" y="-850.5" font-family="Helvetica,sans-Serif" font-size="10.00"> +w</text>
</g>
<!-- Node6&#45;&gt;Node7 -->
<g id="edge12" class="edge"><title>Node6&#45;&gt;Node7</title>
<path fill="none" stroke="#404040" d="M289.806,-1068.24C286.314,-1052.59 281.645,-1031.67 276.589,-1009.01"/>
<polygon fill="none" stroke="#404040" points="276.528,-1008.74 271.317,-1003.75 273.914,-997.024 279.125,-1002.01 276.528,-1008.74"/>
<text text-anchor="middle" x="293.5" y="-1041.5" font-family="Helvetica,sans-Serif" font-size="10.00"> +x</text>
<text text-anchor="middle" x="293.5" y="-1030.5" font-family="Helvetica,sans-Serif" font-size="10.00">+y</text>
<text text-anchor="middle" x="293.5" y="-1019.5" font-family="Helvetica,sans-Serif" font-size="10.00">+z</text>
</g>
<!-- Node7&#45;&gt;Node4 -->
<g id="edge9" class="edge"><title>Node7&#45;&gt;Node4</title>
<path fill="none" stroke="#404040" d="M223.639,-708.531C222.057,-696.163 220.451,-683.614 218.857,-671.159"/>
<polygon fill="none" stroke="#404040" points="218.857,-671.159 214.127,-665.716 217.333,-659.257 222.063,-664.7 218.857,-671.159"/>
<text text-anchor="middle" x="247" y="-681.5" font-family="Helvetica,sans-Serif" font-size="10.00"> +imaginary</text>
</g>
<!-- Node8 -->
<g id="node8" class="node"><title>Node8</title>
<polygon fill="none" stroke="#bfbfbf" points="282.5,-486.5 282.5,-543.5 311.5,-543.5 311.5,-486.5 282.5,-486.5"/>
<text text-anchor="middle" x="297" y="-531.5" font-family="Helvetica,sans-Serif" font-size="10.00">int</text>
<polyline fill="none" stroke="#bfbfbf" points="282.5,-524.5 311.5,-524.5 "/>
<text text-anchor="middle" x="297" y="-512.5" font-family="Helvetica,sans-Serif" font-size="10.00"> </text>
<polyline fill="none" stroke="#bfbfbf" points="282.5,-505.5 311.5,-505.5 "/>
<text text-anchor="middle" x="297" y="-493.5" font-family="Helvetica,sans-Serif" font-size="10.00"> </text>
</g>
<!-- Node8&#45;&gt;Node1 -->
<g id="edge13" class="edge"><title>Node8&#45;&gt;Node1</title>
<path fill="none" stroke="#404040" d="M296.679,-486.475C295.38,-456.528 290.444,-407.867 273,-370 244.937,-309.084 195.775,-251.388 154.762,-209.811"/>
<polygon fill="none" stroke="#404040" points="154.627,-209.676 147.557,-208.26 146.145,-201.188 153.215,-202.605 154.627,-209.676"/>
<text text-anchor="middle" x="290.5" y="-333" font-family="Helvetica,sans-Serif" font-size="10.00"> &#45;dirty_count</text>
<text text-anchor="middle" x="290.5" y="-322" font-family="Helvetica,sans-Serif" font-size="10.00">&#45;group</text>
</g>
<!-- Node9 -->
<g id="node9" class="node"><title>Node9</title>
<polygon fill="none" stroke="#bfbfbf" points="343.5,-486.5 343.5,-543.5 378.5,-543.5 378.5,-486.5 343.5,-486.5"/>
<text text-anchor="middle" x="361" y="-531.5" font-family="Helvetica,sans-Serif" font-size="10.00">bool</text>
<polyline fill="none" stroke="#bfbfbf" points="343.5,-524.5 378.5,-524.5 "/>
<text text-anchor="middle" x="361" y="-512.5" font-family="Helvetica,sans-Serif" font-size="10.00"> </text>
<polyline fill="none" stroke="#bfbfbf" points="343.5,-505.5 378.5,-505.5 "/>
<text text-anchor="middle" x="361" y="-493.5" font-family="Helvetica,sans-Serif" font-size="10.00"> </text>
</g>
<!-- Node9&#45;&gt;Node1 -->
<g id="edge14" class="edge"><title>Node9&#45;&gt;Node1</title>
<path fill="none" stroke="#404040" d="M362.197,-486.211C362.673,-444.172 358.258,-363.443 322,-308 282.253,-247.221 210.971,-203.147 156.93,-176.453"/>
<polygon fill="none" stroke="#404040" points="156.828,-176.404 149.685,-177.395 146.022,-171.184 153.165,-170.192 156.828,-176.404"/>
<text text-anchor="middle" x="384.5" y="-344" font-family="Helvetica,sans-Serif" font-size="10.00"> &#45;is_dirty_imaginary</text>
<text text-anchor="middle" x="384.5" y="-333" font-family="Helvetica,sans-Serif" font-size="10.00">&#45;is_dirty_w</text>
<text text-anchor="middle" x="384.5" y="-322" font-family="Helvetica,sans-Serif" font-size="10.00">&#45;is_dirty</text>
<text text-anchor="middle" x="384.5" y="-311" font-family="Helvetica,sans-Serif" font-size="10.00">&#45;obj_owned</text>
</g>
</g>
</svg>
        <g id="navigator" transform="translate(0 0)" fill="#404254">
                <rect fill="#f2f5e9" fill-opacity="0.5" stroke="#606060" stroke-width=".5" x="0" y="0" width="60" height="60"/>
                <use id="zoomplus" xlink:href="#zoomPlus" x="17" y="9" onmousedown="handleZoom(evt,'in')"/>
                <use id="zoomminus" xlink:href="#zoomMin" x="42" y="9" onmousedown="handleZoom(evt,'out')"/>
                <use id="reset" xlink:href="#resetDef" x="30" y="36" onmousedown="handleReset()"/>
                <g id="arrowUp" xlink:href="#dirArrow" transform="translate(30 24)" onmousedown="handlePan(0,-1)">
                  <use xlink:href="#rim" fill="#404040">
                        <set attributeName="fill" to="#808080" begin="arrowUp.mouseover" end="arrowUp.mouseout"/>
                  </use>
                  <path fill="none" stroke="white" stroke-width="1.5" d="M0,-3.0v7 M-2.5,-0.5L0,-3.0L2.5,-0.5"/>
                </g>
                <g id="arrowRight" xlink:href="#dirArrow" transform="rotate(90) translate(36 -43)" onmousedown="handlePan(1,0)">
                  <use xlink:href="#rim" fill="#404040">
                        <set attributeName="fill" to="#808080" begin="arrowRight.mouseover" end="arrowRight.mouseout"/>
                  </use>
                  <path fill="none" stroke="white" stroke-width="1.5" d="M0,-3.0v7 M-2.5,-0.5L0,-3.0L2.5,-0.5"/>
                </g>
                <g id="arrowDown" xlink:href="#dirArrow" transform="rotate(180) translate(-30 -48)" onmousedown="handlePan(0,1)">
                  <use xlink:href="#rim" fill="#404040">
                        <set attributeName="fill" to="#808080" begin="arrowDown.mouseover" end="arrowDown.mouseout"/>
                  </use>
                  <path fill="none" stroke="white" stroke-width="1.5" d="M0,-3.0v7 M-2.5,-0.5L0,-3.0L2.5,-0.5"/>
                </g>
                <g id="arrowLeft" xlink:href="#dirArrow" transform="rotate(270) translate(-36 17)" onmousedown="handlePan(-1,0)">
                  <use xlink:href="#rim" fill="#404040">
                        <set attributeName="fill" to="#808080" begin="arrowLeft.mouseover" end="arrowLeft.mouseout"/>
                  </use>
                  <path fill="none" stroke="white" stroke-width="1.5" d="M0,-3.0v7 M-2.5,-0.5L0,-3.0L2.5,-0.5"/>
                </g>
        </g>
        <svg viewBox="0 0 15 15" width="100%" height="30px" preserveAspectRatio="xMaxYMin meet">
         <g id="arrow_out" transform="scale(0.3 0.3)">
          <a xlink:href="classxsens_1_1_quaternion_1_1_editor__coll__graph_org.svg" target="_base">
           <rect id="button" ry="5" rx="5" y="6" x="6" height="38" width="38"
                fill="#f2f5e9" fill-opacity="0.5" stroke="#606060" stroke-width="1.0"/>
           <path id="arrow"
             d="M 11.500037,31.436501 C 11.940474,20.09759 22.043105,11.32322 32.158766,21.979434 L 37.068811,17.246167 C 37.068811,17.246167 37.088388,32 37.088388,32 L 22.160133,31.978069 C 22.160133,31.978069 26.997745,27.140456 26.997745,27.140456 C 18.528582,18.264221 13.291696,25.230495 11.500037,31.436501 z"
             style="fill:#404040;"/>
          </a>
         </g>
        </svg>
</svg>
