<?xml version="1.0" encoding="UTF-8" standalone="no"?>
<!DOCTYPE svg PUBLIC "-//W3C//DTD SVG 1.1//EN"
 "http://www.w3.org/Graphics/SVG/1.1/DTD/svg11.dtd">
<!-- Generated by graphviz version 2.36.0 (20140111.2315)
 -->
<!-- Title: xsens::FrameReferece Pages: 1 -->
<svg width="224pt" height="414pt"
 viewBox="0.00 0.00 224.00 414.00" xmlns="http://www.w3.org/2000/svg" xmlns:xlink="http://www.w3.org/1999/xlink">
<g id="graph0" class="graph" transform="scale(1 1) rotate(0) translate(4 410)">
<title>xsens::FrameReferece</title>
<!-- Node1 -->
<g id="node1" class="node"><title>Node1</title>
<polygon fill="#bfbfbf" stroke="black" points="-0.5,-1 -0.5,-289 158.5,-289 158.5,-1 -0.5,-1"/>
<text text-anchor="middle" x="79" y="-277" font-family="Helvetica,sans-Serif" font-size="10.00">xsens::FrameReferece</text>
<polyline fill="none" stroke="black" points="-0.5,-270 158.5,-270 "/>
<text text-anchor="middle" x="79" y="-258" font-family="Helvetica,sans-Serif" font-size="10.00"> </text>
<polyline fill="none" stroke="black" points="-0.5,-251 158.5,-251 "/>
<text text-anchor="start" x="7.5" y="-239" font-family="Helvetica,sans-Serif" font-size="10.00">+ FrameReferece()</text>
<text text-anchor="start" x="7.5" y="-228" font-family="Helvetica,sans-Serif" font-size="10.00">+ FrameReferece()</text>
<text text-anchor="start" x="7.5" y="-217" font-family="Helvetica,sans-Serif" font-size="10.00">+ FrameReferece()</text>
<text text-anchor="start" x="7.5" y="-206" font-family="Helvetica,sans-Serif" font-size="10.00">+ operator=()</text>
<text text-anchor="start" x="7.5" y="-195" font-family="Helvetica,sans-Serif" font-size="10.00">+ read()</text>
<text text-anchor="start" x="7.5" y="-184" font-family="Helvetica,sans-Serif" font-size="10.00">+ read()</text>
<text text-anchor="start" x="7.5" y="-173" font-family="Helvetica,sans-Serif" font-size="10.00">+ write()</text>
<text text-anchor="start" x="7.5" y="-162" font-family="Helvetica,sans-Serif" font-size="10.00">+ write()</text>
<text text-anchor="start" x="7.5" y="-151" font-family="Helvetica,sans-Serif" font-size="10.00">+ toString()</text>
<text text-anchor="start" x="7.5" y="-140" font-family="Helvetica,sans-Serif" font-size="10.00">+ FrameReferece()</text>
<text text-anchor="start" x="7.5" y="-129" font-family="Helvetica,sans-Serif" font-size="10.00">and 8 more...</text>
<text text-anchor="start" x="7.5" y="-118" font-family="Helvetica,sans-Serif" font-size="10.00">&#45; write_frameReference()</text>
<text text-anchor="start" x="7.5" y="-107" font-family="Helvetica,sans-Serif" font-size="10.00">&#45; nested_write_frameReference()</text>
<text text-anchor="start" x="7.5" y="-96" font-family="Helvetica,sans-Serif" font-size="10.00">&#45; write_frameName()</text>
<text text-anchor="start" x="7.5" y="-85" font-family="Helvetica,sans-Serif" font-size="10.00">&#45; nested_write_frameName()</text>
<text text-anchor="start" x="7.5" y="-74" font-family="Helvetica,sans-Serif" font-size="10.00">&#45; read_frameReference()</text>
<text text-anchor="start" x="7.5" y="-63" font-family="Helvetica,sans-Serif" font-size="10.00">&#45; nested_read_frameReference()</text>
<text text-anchor="start" x="7.5" y="-52" font-family="Helvetica,sans-Serif" font-size="10.00">&#45; read_frameName()</text>
<text text-anchor="start" x="7.5" y="-41" font-family="Helvetica,sans-Serif" font-size="10.00">&#45; nested_read_frameName()</text>
<text text-anchor="start" x="7.5" y="-30" font-family="Helvetica,sans-Serif" font-size="10.00">&#45; write_frameReference()</text>
<text text-anchor="start" x="7.5" y="-19" font-family="Helvetica,sans-Serif" font-size="10.00">&#45; nested_write_frameReference()</text>
<text text-anchor="start" x="7.5" y="-8" font-family="Helvetica,sans-Serif" font-size="10.00">and 6 more...</text>
</g>
<!-- Node2 -->
<g id="node2" class="node"><title>Node2</title>
<g id="a_node2"><a xlink:href="classyarp_1_1os_1_1idl_1_1_wire_portable.html" target="_top" xlink:title="{WirePortable\n||}">
<polygon fill="none" stroke="black" points="42.5,-348.5 42.5,-405.5 115.5,-405.5 115.5,-348.5 42.5,-348.5"/>
<text text-anchor="middle" x="79" y="-393.5" font-family="Helvetica,sans-Serif" font-size="10.00">WirePortable</text>
<polyline fill="none" stroke="black" points="42.5,-386.5 115.5,-386.5 "/>
<text text-anchor="middle" x="79" y="-374.5" font-family="Helvetica,sans-Serif" font-size="10.00"> </text>
<polyline fill="none" stroke="black" points="42.5,-367.5 115.5,-367.5 "/>
<text text-anchor="middle" x="79" y="-355.5" font-family="Helvetica,sans-Serif" font-size="10.00"> </text>
</a>
</g>
</g>
<!-- Node2&#45;&gt;Node1 -->
<g id="edge1" class="edge"><title>Node2&#45;&gt;Node1</title>
<path fill="none" stroke="midnightblue" d="M73.8357,-338.061C73.1365,-323.958 72.6685,-306.99 72.4318,-289.053"/>
<polygon fill="none" stroke="midnightblue" points="70.3533,-338.472 74.4155,-348.257 77.342,-338.074 70.3533,-338.472"/>
</g>
<!-- Node2&#45;&gt;Node1 -->
<g id="edge2" class="edge"><title>Node2&#45;&gt;Node1</title>
<path fill="none" stroke="midnightblue" d="M84.1643,-338.061C84.8635,-323.958 85.3315,-306.99 85.5682,-289.053"/>
<polygon fill="none" stroke="midnightblue" points="80.658,-338.074 83.5845,-348.257 87.6467,-338.472 80.658,-338.074"/>
</g>
<!-- Node3 -->
<g id="node3" class="node"><title>Node3</title>
<polygon fill="none" stroke="#bfbfbf" points="133.5,-348.5 133.5,-405.5 174.5,-405.5 174.5,-348.5 133.5,-348.5"/>
<text text-anchor="middle" x="154" y="-393.5" font-family="Helvetica,sans-Serif" font-size="10.00">string</text>
<polyline fill="none" stroke="#bfbfbf" points="133.5,-386.5 174.5,-386.5 "/>
<text text-anchor="middle" x="154" y="-374.5" font-family="Helvetica,sans-Serif" font-size="10.00"> </text>
<polyline fill="none" stroke="#bfbfbf" points="133.5,-367.5 174.5,-367.5 "/>
<text text-anchor="middle" x="154" y="-355.5" font-family="Helvetica,sans-Serif" font-size="10.00"> </text>
</g>
<!-- Node3&#45;&gt;Node1 -->
<g id="edge3" class="edge"><title>Node3&#45;&gt;Node1</title>
<path fill="none" stroke="#404040" d="M144.953,-348.257C140.711,-335.246 135.289,-318.62 129.382,-300.505"/>
<polygon fill="none" stroke="#404040" points="129.368,-300.461 123.705,-295.997 125.648,-289.053 131.311,-293.517 129.368,-300.461"/>
<text text-anchor="middle" x="176.5" y="-322" font-family="Helvetica,sans-Serif" font-size="10.00"> +frameReference</text>
<text text-anchor="middle" x="176.5" y="-311" font-family="Helvetica,sans-Serif" font-size="10.00">+frameName</text>
</g>
</g>
</svg>
