<?xml version="1.0" encoding="UTF-8" standalone="no"?>
<!DOCTYPE svg PUBLIC "-//W3C//DTD SVG 1.1//EN"
 "http://www.w3.org/Graphics/SVG/1.1/DTD/svg11.dtd">
<!-- Generated by graphviz version 2.36.0 (20140111.2315)
 -->
<!-- Title: xsens::XsensSegmentData::Editor Pages: 1 -->
<svg width="172pt" height="512pt"
 viewBox="0.00 0.00 172.00 512.00" xmlns="http://www.w3.org/2000/svg" xmlns:xlink="http://www.w3.org/1999/xlink">
<g id="graph0" class="graph" transform="scale(1 1) rotate(0) translate(4 508)">
<title>xsens::XsensSegmentData::Editor</title>
<!-- Node1 -->
<g id="node1" class="node"><title>Node1</title>
<polygon fill="#bfbfbf" stroke="black" points="-0.5,-0.5 -0.5,-409.5 164.5,-409.5 164.5,-0.5 -0.5,-0.5"/>
<text text-anchor="start" x="7.5" y="-397.5" font-family="Helvetica,sans-Serif" font-size="10.00">xsens::XsensSegmentData</text>
<text text-anchor="middle" x="82" y="-386.5" font-family="Helvetica,sans-Serif" font-size="10.00">::Editor</text>
<polyline fill="none" stroke="black" points="-0.5,-379.5 164.5,-379.5 "/>
<text text-anchor="start" x="7.5" y="-367.5" font-family="Helvetica,sans-Serif" font-size="10.00">&#45; obj</text>
<text text-anchor="start" x="7.5" y="-356.5" font-family="Helvetica,sans-Serif" font-size="10.00">&#45; obj_owned</text>
<text text-anchor="start" x="7.5" y="-345.5" font-family="Helvetica,sans-Serif" font-size="10.00">&#45; group</text>
<text text-anchor="start" x="7.5" y="-334.5" font-family="Helvetica,sans-Serif" font-size="10.00">&#45; is_dirty</text>
<text text-anchor="start" x="7.5" y="-323.5" font-family="Helvetica,sans-Serif" font-size="10.00">&#45; dirty_count</text>
<text text-anchor="start" x="7.5" y="-312.5" font-family="Helvetica,sans-Serif" font-size="10.00">&#45; is_dirty_position</text>
<text text-anchor="start" x="7.5" y="-301.5" font-family="Helvetica,sans-Serif" font-size="10.00">&#45; is_dirty_velocity</text>
<text text-anchor="start" x="7.5" y="-290.5" font-family="Helvetica,sans-Serif" font-size="10.00">&#45; is_dirty_acceleration</text>
<text text-anchor="start" x="7.5" y="-279.5" font-family="Helvetica,sans-Serif" font-size="10.00">&#45; is_dirty_orientation</text>
<text text-anchor="start" x="7.5" y="-268.5" font-family="Helvetica,sans-Serif" font-size="10.00">&#45; is_dirty_angularVelocity</text>
<text text-anchor="start" x="7.5" y="-257.5" font-family="Helvetica,sans-Serif" font-size="10.00">&#45; is_dirty_angularAcceleration</text>
<polyline fill="none" stroke="black" points="-0.5,-250.5 164.5,-250.5 "/>
<text text-anchor="start" x="7.5" y="-238.5" font-family="Helvetica,sans-Serif" font-size="10.00">+ Editor()</text>
<text text-anchor="start" x="7.5" y="-227.5" font-family="Helvetica,sans-Serif" font-size="10.00">+ Editor()</text>
<text text-anchor="start" x="7.5" y="-216.5" font-family="Helvetica,sans-Serif" font-size="10.00">+ edit()</text>
<text text-anchor="start" x="7.5" y="-205.5" font-family="Helvetica,sans-Serif" font-size="10.00">+ ~Editor()</text>
<text text-anchor="start" x="7.5" y="-194.5" font-family="Helvetica,sans-Serif" font-size="10.00">+ isValid()</text>
<text text-anchor="start" x="7.5" y="-183.5" font-family="Helvetica,sans-Serif" font-size="10.00">+ state()</text>
<text text-anchor="start" x="7.5" y="-172.5" font-family="Helvetica,sans-Serif" font-size="10.00">+ begin()</text>
<text text-anchor="start" x="7.5" y="-161.5" font-family="Helvetica,sans-Serif" font-size="10.00">+ end()</text>
<text text-anchor="start" x="7.5" y="-150.5" font-family="Helvetica,sans-Serif" font-size="10.00">+ set_position()</text>
<text text-anchor="start" x="7.5" y="-139.5" font-family="Helvetica,sans-Serif" font-size="10.00">+ set_velocity()</text>
<text text-anchor="start" x="7.5" y="-128.5" font-family="Helvetica,sans-Serif" font-size="10.00">and 60 more...</text>
<text text-anchor="start" x="7.5" y="-117.5" font-family="Helvetica,sans-Serif" font-size="10.00">&#45; communicate()</text>
<text text-anchor="start" x="7.5" y="-106.5" font-family="Helvetica,sans-Serif" font-size="10.00">&#45; mark_dirty()</text>
<text text-anchor="start" x="7.5" y="-95.5" font-family="Helvetica,sans-Serif" font-size="10.00">&#45; mark_dirty_position()</text>
<text text-anchor="start" x="7.5" y="-84.5" font-family="Helvetica,sans-Serif" font-size="10.00">&#45; mark_dirty_velocity()</text>
<text text-anchor="start" x="7.5" y="-73.5" font-family="Helvetica,sans-Serif" font-size="10.00">&#45; mark_dirty_acceleration()</text>
<text text-anchor="start" x="7.5" y="-62.5" font-family="Helvetica,sans-Serif" font-size="10.00">&#45; mark_dirty_orientation()</text>
<text text-anchor="start" x="7.5" y="-51.5" font-family="Helvetica,sans-Serif" font-size="10.00">&#45; mark_dirty_angularVelocity()</text>
<text text-anchor="start" x="7.5" y="-40.5" font-family="Helvetica,sans-Serif" font-size="10.00">&#45; mark_dirty_angularAcceleration()</text>
<text text-anchor="start" x="7.5" y="-29.5" font-family="Helvetica,sans-Serif" font-size="10.00">&#45; dirty_flags()</text>
<text text-anchor="start" x="7.5" y="-18.5" font-family="Helvetica,sans-Serif" font-size="10.00">&#45; communicate()</text>
<text text-anchor="start" x="7.5" y="-7.5" font-family="Helvetica,sans-Serif" font-size="10.00">and 8 more...</text>
</g>
<!-- Node2 -->
<g id="node2" class="node"><title>Node2</title>
<g id="a_node2"><a xlink:href="classyarp_1_1os_1_1_wire.html" target="_top" xlink:title="{Wire\n||}">
<polygon fill="none" stroke="black" points="30.5,-446.5 30.5,-503.5 67.5,-503.5 67.5,-446.5 30.5,-446.5"/>
<text text-anchor="middle" x="49" y="-491.5" font-family="Helvetica,sans-Serif" font-size="10.00">Wire</text>
<polyline fill="none" stroke="black" points="30.5,-484.5 67.5,-484.5 "/>
<text text-anchor="middle" x="49" y="-472.5" font-family="Helvetica,sans-Serif" font-size="10.00"> </text>
<polyline fill="none" stroke="black" points="30.5,-465.5 67.5,-465.5 "/>
<text text-anchor="middle" x="49" y="-453.5" font-family="Helvetica,sans-Serif" font-size="10.00"> </text>
</a>
</g>
</g>
<!-- Node2&#45;&gt;Node1 -->
<g id="edge1" class="edge"><title>Node2&#45;&gt;Node1</title>
<path fill="none" stroke="midnightblue" d="M48.7913,-436.089C49.3819,-428.125 50.151,-419.206 51.062,-409.63"/>
<polygon fill="none" stroke="midnightblue" points="45.2816,-436.116 48.1,-446.329 52.2657,-436.587 45.2816,-436.116"/>
</g>
<!-- Node2&#45;&gt;Node1 -->
<g id="edge3" class="edge"><title>Node2&#45;&gt;Node1</title>
<path fill="none" stroke="midnightblue" d="M58.4983,-436.36C59.8832,-428.328 61.3265,-419.315 62.7903,-409.63"/>
<polygon fill="none" stroke="midnightblue" points="55.0308,-435.869 56.7146,-446.329 61.9213,-437.102 55.0308,-435.869"/>
</g>
<!-- Node3 -->
<g id="node3" class="node"><title>Node3</title>
<g id="a_node3"><a xlink:href="classyarp_1_1os_1_1_port_writer.html" target="_top" xlink:title="{PortWriter\n||}">
<polygon fill="none" stroke="black" points="85.5,-446.5 85.5,-503.5 146.5,-503.5 146.5,-446.5 85.5,-446.5"/>
<text text-anchor="middle" x="116" y="-491.5" font-family="Helvetica,sans-Serif" font-size="10.00">PortWriter</text>
<polyline fill="none" stroke="black" points="85.5,-484.5 146.5,-484.5 "/>
<text text-anchor="middle" x="116" y="-472.5" font-family="Helvetica,sans-Serif" font-size="10.00"> </text>
<polyline fill="none" stroke="black" points="85.5,-465.5 146.5,-465.5 "/>
<text text-anchor="middle" x="116" y="-453.5" font-family="Helvetica,sans-Serif" font-size="10.00"> </text>
</a>
</g>
</g>
<!-- Node3&#45;&gt;Node1 -->
<g id="edge2" class="edge"><title>Node3&#45;&gt;Node1</title>
<path fill="none" stroke="midnightblue" d="M106.361,-436.36C104.946,-428.328 103.469,-419.315 101.97,-409.63"/>
<polygon fill="none" stroke="midnightblue" points="102.942,-437.12 108.182,-446.329 109.828,-435.863 102.942,-437.12"/>
</g>
<!-- Node3&#45;&gt;Node1 -->
<g id="edge4" class="edge"><title>Node3&#45;&gt;Node1</title>
<path fill="none" stroke="midnightblue" d="M116.067,-436.089C115.447,-428.125 114.645,-419.206 113.698,-409.63"/>
<polygon fill="none" stroke="midnightblue" points="112.595,-436.603 116.797,-446.329 119.577,-436.105 112.595,-436.603"/>
</g>
</g>
</svg>
