<?xml version="1.0" encoding="UTF-8" standalone="no"?>
<!DOCTYPE svg PUBLIC "-//W3C//DTD SVG 1.1//EN"
 "http://www.w3.org/Graphics/SVG/1.1/DTD/svg11.dtd">
<!-- Generated by graphviz version 2.36.0 (20140111.2315)
 -->
<!-- Title: geometry_msgs_WrenchStamped Pages: 1 -->
<svg width="586pt" height="746pt"
 viewBox="0.00 0.00 586.00 746.00" xmlns="http://www.w3.org/2000/svg" xmlns:xlink="http://www.w3.org/1999/xlink">
<g id="graph0" class="graph" transform="scale(1 1) rotate(0) translate(4 742)">
<title>geometry_msgs_WrenchStamped</title>
<!-- Node1 -->
<g id="node1" class="node"><title>Node1</title>
<polygon fill="#bfbfbf" stroke="black" points="28.5,-0.5 28.5,-167.5 207.5,-167.5 207.5,-0.5 28.5,-0.5"/>
<text text-anchor="middle" x="118" y="-155.5" font-family="Helvetica,sans-Serif" font-size="10.00">geometry_msgs_WrenchStamped</text>
<polyline fill="none" stroke="black" points="28.5,-148.5 207.5,-148.5 "/>
<text text-anchor="middle" x="118" y="-136.5" font-family="Helvetica,sans-Serif" font-size="10.00"> </text>
<polyline fill="none" stroke="black" points="28.5,-129.5 207.5,-129.5 "/>
<text text-anchor="start" x="36.5" y="-117.5" font-family="Helvetica,sans-Serif" font-size="10.00">+ geometry_msgs_WrenchStamped()</text>
<text text-anchor="start" x="36.5" y="-106.5" font-family="Helvetica,sans-Serif" font-size="10.00">+ clear()</text>
<text text-anchor="start" x="36.5" y="-95.5" font-family="Helvetica,sans-Serif" font-size="10.00">+ readBare()</text>
<text text-anchor="start" x="36.5" y="-84.5" font-family="Helvetica,sans-Serif" font-size="10.00">+ readBottle()</text>
<text text-anchor="start" x="36.5" y="-73.5" font-family="Helvetica,sans-Serif" font-size="10.00">+ read()</text>
<text text-anchor="start" x="36.5" y="-62.5" font-family="Helvetica,sans-Serif" font-size="10.00">+ writeBare()</text>
<text text-anchor="start" x="36.5" y="-51.5" font-family="Helvetica,sans-Serif" font-size="10.00">+ writeBottle()</text>
<text text-anchor="start" x="36.5" y="-40.5" font-family="Helvetica,sans-Serif" font-size="10.00">+ write()</text>
<text text-anchor="start" x="36.5" y="-29.5" font-family="Helvetica,sans-Serif" font-size="10.00">+ getTypeText()</text>
<text text-anchor="start" x="36.5" y="-18.5" font-family="Helvetica,sans-Serif" font-size="10.00">+ getType()</text>
<text text-anchor="start" x="36.5" y="-7.5" font-family="Helvetica,sans-Serif" font-size="10.00">and 10 more...</text>
</g>
<!-- Node2 -->
<g id="node2" class="node"><title>Node2</title>
<g id="a_node2"><a xlink:href="classyarp_1_1os_1_1idl_1_1_wire_portable.html" target="_top" xlink:title="{WirePortable\n||}">
<polygon fill="none" stroke="black" points="248.5,-680.5 248.5,-737.5 321.5,-737.5 321.5,-680.5 248.5,-680.5"/>
<text text-anchor="middle" x="285" y="-725.5" font-family="Helvetica,sans-Serif" font-size="10.00">WirePortable</text>
<polyline fill="none" stroke="black" points="248.5,-718.5 321.5,-718.5 "/>
<text text-anchor="middle" x="285" y="-706.5" font-family="Helvetica,sans-Serif" font-size="10.00"> </text>
<polyline fill="none" stroke="black" points="248.5,-699.5 321.5,-699.5 "/>
<text text-anchor="middle" x="285" y="-687.5" font-family="Helvetica,sans-Serif" font-size="10.00"> </text>
</a>
</g>
</g>
<!-- Node2&#45;&gt;Node1 -->
<g id="edge1" class="edge"><title>Node2&#45;&gt;Node1</title>
<path fill="none" stroke="midnightblue" d="M238.3,-699.673C191.241,-688.063 121.536,-662.261 90,-610 7.41933,-473.148 46.8073,-277.631 82.7593,-167.904"/>
<polygon fill="none" stroke="midnightblue" points="237.735,-703.135 248.269,-702.004 239.329,-696.319 237.735,-703.135"/>
</g>
<!-- Node2&#45;&gt;Node1 -->
<g id="edge2" class="edge"><title>Node2&#45;&gt;Node1</title>
<path fill="none" stroke="midnightblue" d="M238.627,-695.975C196.359,-682.929 136.544,-657.303 108,-610 25.4193,-473.148 64.8073,-277.631 94.9847,-167.904"/>
<polygon fill="none" stroke="midnightblue" points="237.847,-699.394 248.429,-698.875 239.833,-692.682 237.847,-699.394"/>
</g>
<!-- Node3 -->
<g id="node3" class="node"><title>Node3</title>
<g id="a_node3"><a xlink:href="classgeometry__msgs___wrench.html" target="_top" xlink:title="{geometry_msgs_Wrench\n||+ geometry_msgs_Wrench()\l+ clear()\l+ readBare()\l+ readBottle()\l+ read()\l+ writeBare()\l+ writeBottle()\l+ write()\l+ getTypeText()\l+ getType()\land 10 more...\l}">
<polygon fill="none" stroke="black" points="148,-216.5 148,-383.5 288,-383.5 288,-216.5 148,-216.5"/>
<text text-anchor="middle" x="218" y="-371.5" font-family="Helvetica,sans-Serif" font-size="10.00">geometry_msgs_Wrench</text>
<polyline fill="none" stroke="black" points="148,-364.5 288,-364.5 "/>
<text text-anchor="middle" x="218" y="-352.5" font-family="Helvetica,sans-Serif" font-size="10.00"> </text>
<polyline fill="none" stroke="black" points="148,-345.5 288,-345.5 "/>
<text text-anchor="start" x="156" y="-333.5" font-family="Helvetica,sans-Serif" font-size="10.00">+ geometry_msgs_Wrench()</text>
<text text-anchor="start" x="156" y="-322.5" font-family="Helvetica,sans-Serif" font-size="10.00">+ clear()</text>
<text text-anchor="start" x="156" y="-311.5" font-family="Helvetica,sans-Serif" font-size="10.00">+ readBare()</text>
<text text-anchor="start" x="156" y="-300.5" font-family="Helvetica,sans-Serif" font-size="10.00">+ readBottle()</text>
<text text-anchor="start" x="156" y="-289.5" font-family="Helvetica,sans-Serif" font-size="10.00">+ read()</text>
<text text-anchor="start" x="156" y="-278.5" font-family="Helvetica,sans-Serif" font-size="10.00">+ writeBare()</text>
<text text-anchor="start" x="156" y="-267.5" font-family="Helvetica,sans-Serif" font-size="10.00">+ writeBottle()</text>
<text text-anchor="start" x="156" y="-256.5" font-family="Helvetica,sans-Serif" font-size="10.00">+ write()</text>
<text text-anchor="start" x="156" y="-245.5" font-family="Helvetica,sans-Serif" font-size="10.00">+ getTypeText()</text>
<text text-anchor="start" x="156" y="-234.5" font-family="Helvetica,sans-Serif" font-size="10.00">+ getType()</text>
<text text-anchor="start" x="156" y="-223.5" font-family="Helvetica,sans-Serif" font-size="10.00">and 10 more...</text>
</a>
</g>
</g>
<!-- Node2&#45;&gt;Node3 -->
<g id="edge4" class="edge"><title>Node2&#45;&gt;Node3</title>
<path fill="none" stroke="midnightblue" d="M276.927,-670.14C270.779,-618.293 263.253,-522.456 248,-442 244.381,-422.91 239.442,-402.639 234.536,-383.596"/>
<polygon fill="none" stroke="midnightblue" points="273.472,-670.719 278.18,-680.21 280.418,-669.854 273.472,-670.719"/>
</g>
<!-- Node2&#45;&gt;Node3 -->
<g id="edge5" class="edge"><title>Node2&#45;&gt;Node3</title>
<path fill="none" stroke="midnightblue" d="M289.043,-670.14C288.779,-618.293 281.253,-522.456 266,-442 262.381,-422.91 257.442,-402.639 252.055,-383.596"/>
<polygon fill="none" stroke="midnightblue" points="285.543,-670.193 288.994,-680.21 292.543,-670.227 285.543,-670.193"/>
</g>
<!-- Node4 -->
<g id="node4" class="node"><title>Node4</title>
<g id="a_node4"><a xlink:href="classgeometry__msgs___vector3.html" target="_top" xlink:title="{geometry_msgs_Vector3\n||+ geometry_msgs_Vector3()\l+ clear()\l+ readBare()\l+ readBottle()\l+ read()\l+ writeBare()\l+ writeBottle()\l+ write()\l+ getTypeText()\l+ getType()\land 10 more...\l}">
<polygon fill="none" stroke="black" points="108,-442.5 108,-609.5 248,-609.5 248,-442.5 108,-442.5"/>
<text text-anchor="middle" x="178" y="-597.5" font-family="Helvetica,sans-Serif" font-size="10.00">geometry_msgs_Vector3</text>
<polyline fill="none" stroke="black" points="108,-590.5 248,-590.5 "/>
<text text-anchor="middle" x="178" y="-578.5" font-family="Helvetica,sans-Serif" font-size="10.00"> </text>
<polyline fill="none" stroke="black" points="108,-571.5 248,-571.5 "/>
<text text-anchor="start" x="116" y="-559.5" font-family="Helvetica,sans-Serif" font-size="10.00">+ geometry_msgs_Vector3()</text>
<text text-anchor="start" x="116" y="-548.5" font-family="Helvetica,sans-Serif" font-size="10.00">+ clear()</text>
<text text-anchor="start" x="116" y="-537.5" font-family="Helvetica,sans-Serif" font-size="10.00">+ readBare()</text>
<text text-anchor="start" x="116" y="-526.5" font-family="Helvetica,sans-Serif" font-size="10.00">+ readBottle()</text>
<text text-anchor="start" x="116" y="-515.5" font-family="Helvetica,sans-Serif" font-size="10.00">+ read()</text>
<text text-anchor="start" x="116" y="-504.5" font-family="Helvetica,sans-Serif" font-size="10.00">+ writeBare()</text>
<text text-anchor="start" x="116" y="-493.5" font-family="Helvetica,sans-Serif" font-size="10.00">+ writeBottle()</text>
<text text-anchor="start" x="116" y="-482.5" font-family="Helvetica,sans-Serif" font-size="10.00">+ write()</text>
<text text-anchor="start" x="116" y="-471.5" font-family="Helvetica,sans-Serif" font-size="10.00">+ getTypeText()</text>
<text text-anchor="start" x="116" y="-460.5" font-family="Helvetica,sans-Serif" font-size="10.00">+ getType()</text>
<text text-anchor="start" x="116" y="-449.5" font-family="Helvetica,sans-Serif" font-size="10.00">and 10 more...</text>
</a>
</g>
</g>
<!-- Node2&#45;&gt;Node4 -->
<g id="edge7" class="edge"><title>Node2&#45;&gt;Node4</title>
<path fill="none" stroke="midnightblue" d="M258.023,-671.721C246.533,-653.846 232.924,-631.5 220.193,-609.754"/>
<polygon fill="none" stroke="midnightblue" points="255.095,-673.639 263.48,-680.115 260.964,-669.824 255.095,-673.639"/>
</g>
<!-- Node2&#45;&gt;Node4 -->
<g id="edge8" class="edge"><title>Node2&#45;&gt;Node4</title>
<path fill="none" stroke="midnightblue" d="M268.82,-671.233C259.206,-653.439 246.51,-631.302 233.649,-609.754"/>
<polygon fill="none" stroke="midnightblue" points="265.761,-672.935 273.552,-680.115 271.94,-669.644 265.761,-672.935"/>
</g>
<!-- Node6 -->
<g id="node6" class="node"><title>Node6</title>
<g id="a_node6"><a xlink:href="classstd__msgs___header.html" target="_top" xlink:title="{std_msgs_Header\n||+ std_msgs_Header()\l+ clear()\l+ readBare()\l+ readBottle()\l+ read()\l+ writeBare()\l+ writeBottle()\l+ write()\l+ getTypeText()\l+ getType()\land 10 more...\l}">
<polygon fill="none" stroke="black" points="345.5,-216.5 345.5,-383.5 456.5,-383.5 456.5,-216.5 345.5,-216.5"/>
<text text-anchor="middle" x="401" y="-371.5" font-family="Helvetica,sans-Serif" font-size="10.00">std_msgs_Header</text>
<polyline fill="none" stroke="black" points="345.5,-364.5 456.5,-364.5 "/>
<text text-anchor="middle" x="401" y="-352.5" font-family="Helvetica,sans-Serif" font-size="10.00"> </text>
<polyline fill="none" stroke="black" points="345.5,-345.5 456.5,-345.5 "/>
<text text-anchor="start" x="353.5" y="-333.5" font-family="Helvetica,sans-Serif" font-size="10.00">+ std_msgs_Header()</text>
<text text-anchor="start" x="353.5" y="-322.5" font-family="Helvetica,sans-Serif" font-size="10.00">+ clear()</text>
<text text-anchor="start" x="353.5" y="-311.5" font-family="Helvetica,sans-Serif" font-size="10.00">+ readBare()</text>
<text text-anchor="start" x="353.5" y="-300.5" font-family="Helvetica,sans-Serif" font-size="10.00">+ readBottle()</text>
<text text-anchor="start" x="353.5" y="-289.5" font-family="Helvetica,sans-Serif" font-size="10.00">+ read()</text>
<text text-anchor="start" x="353.5" y="-278.5" font-family="Helvetica,sans-Serif" font-size="10.00">+ writeBare()</text>
<text text-anchor="start" x="353.5" y="-267.5" font-family="Helvetica,sans-Serif" font-size="10.00">+ writeBottle()</text>
<text text-anchor="start" x="353.5" y="-256.5" font-family="Helvetica,sans-Serif" font-size="10.00">+ write()</text>
<text text-anchor="start" x="353.5" y="-245.5" font-family="Helvetica,sans-Serif" font-size="10.00">+ getTypeText()</text>
<text text-anchor="start" x="353.5" y="-234.5" font-family="Helvetica,sans-Serif" font-size="10.00">+ getType()</text>
<text text-anchor="start" x="353.5" y="-223.5" font-family="Helvetica,sans-Serif" font-size="10.00">and 10 more...</text>
</a>
</g>
</g>
<!-- Node2&#45;&gt;Node6 -->
<g id="edge11" class="edge"><title>Node2&#45;&gt;Node6</title>
<path fill="none" stroke="midnightblue" d="M318.037,-672.771C334.412,-655.67 352.703,-633.706 363,-610 394.235,-538.093 399.333,-448.107 399.566,-383.821"/>
<polygon fill="none" stroke="midnightblue" points="315.183,-670.683 310.684,-680.275 320.183,-675.582 315.183,-670.683"/>
</g>
<!-- Node2&#45;&gt;Node6 -->
<g id="edge12" class="edge"><title>Node2&#45;&gt;Node6</title>
<path fill="none" stroke="midnightblue" d="M329.326,-677.546C348.837,-659.86 369.717,-635.975 381,-610 412.235,-538.093 417.333,-448.107 414.261,-383.821"/>
<polygon fill="none" stroke="midnightblue" points="326.88,-675.035 321.655,-684.252 331.487,-680.306 326.88,-675.035"/>
</g>
<!-- Node7 -->
<g id="node7" class="node"><title>Node7</title>
<g id="a_node7"><a xlink:href="class_tick_time.html" target="_top" xlink:title="{TickTime\n||+ TickTime()\l+ clear()\l+ readBare()\l+ readBottle()\l+ read()\l+ writeBare()\l+ writeBottle()\l+ write()\l+ getTypeText()\l+ getType()\land 10 more...\l}">
<polygon fill="none" stroke="black" points="438,-442.5 438,-609.5 524,-609.5 524,-442.5 438,-442.5"/>
<text text-anchor="middle" x="481" y="-597.5" font-family="Helvetica,sans-Serif" font-size="10.00">TickTime</text>
<polyline fill="none" stroke="black" points="438,-590.5 524,-590.5 "/>
<text text-anchor="middle" x="481" y="-578.5" font-family="Helvetica,sans-Serif" font-size="10.00"> </text>
<polyline fill="none" stroke="black" points="438,-571.5 524,-571.5 "/>
<text text-anchor="start" x="446" y="-559.5" font-family="Helvetica,sans-Serif" font-size="10.00">+ TickTime()</text>
<text text-anchor="start" x="446" y="-548.5" font-family="Helvetica,sans-Serif" font-size="10.00">+ clear()</text>
<text text-anchor="start" x="446" y="-537.5" font-family="Helvetica,sans-Serif" font-size="10.00">+ readBare()</text>
<text text-anchor="start" x="446" y="-526.5" font-family="Helvetica,sans-Serif" font-size="10.00">+ readBottle()</text>
<text text-anchor="start" x="446" y="-515.5" font-family="Helvetica,sans-Serif" font-size="10.00">+ read()</text>
<text text-anchor="start" x="446" y="-504.5" font-family="Helvetica,sans-Serif" font-size="10.00">+ writeBare()</text>
<text text-anchor="start" x="446" y="-493.5" font-family="Helvetica,sans-Serif" font-size="10.00">+ writeBottle()</text>
<text text-anchor="start" x="446" y="-482.5" font-family="Helvetica,sans-Serif" font-size="10.00">+ write()</text>
<text text-anchor="start" x="446" y="-471.5" font-family="Helvetica,sans-Serif" font-size="10.00">+ getTypeText()</text>
<text text-anchor="start" x="446" y="-460.5" font-family="Helvetica,sans-Serif" font-size="10.00">+ getType()</text>
<text text-anchor="start" x="446" y="-449.5" font-family="Helvetica,sans-Serif" font-size="10.00">and 10 more...</text>
</a>
</g>
</g>
<!-- Node2&#45;&gt;Node7 -->
<g id="edge14" class="edge"><title>Node2&#45;&gt;Node7</title>
<path fill="none" stroke="midnightblue" d="M331.798,-700.863C358.905,-694.702 391.979,-683.251 415,-662 430.329,-647.85 441.686,-628.913 450.339,-609.709"/>
<polygon fill="none" stroke="midnightblue" points="330.803,-697.496 321.735,-702.975 332.241,-704.347 330.803,-697.496"/>
</g>
<!-- Node2&#45;&gt;Node7 -->
<g id="edge15" class="edge"><title>Node2&#45;&gt;Node7</title>
<path fill="none" stroke="midnightblue" d="M331.746,-703.829C363.997,-698.693 405.613,-687.281 433,-662 448.329,-647.85 459.686,-628.913 467.747,-609.709"/>
<polygon fill="none" stroke="midnightblue" points="331.032,-700.396 321.634,-705.286 332.031,-707.324 331.032,-700.396"/>
</g>
<!-- Node3&#45;&gt;Node1 -->
<g id="edge3" class="edge"><title>Node3&#45;&gt;Node1</title>
<path fill="none" stroke="#404040" d="M179.337,-216.262C173.556,-203.89 167.562,-191.062 161.685,-178.486"/>
<polygon fill="none" stroke="#404040" points="161.64,-178.39 155.476,-174.647 156.56,-167.518 162.724,-171.26 161.64,-178.39"/>
<text text-anchor="middle" x="188.5" y="-189.5" font-family="Helvetica,sans-Serif" font-size="10.00"> +wrench</text>
</g>
<!-- Node4&#45;&gt;Node3 -->
<g id="edge6" class="edge"><title>Node4&#45;&gt;Node3</title>
<path fill="none" stroke="#404040" d="M192.781,-442.227C195.468,-427.181 198.29,-411.379 201.033,-396.013"/>
<polygon fill="none" stroke="#404040" points="201.104,-395.62 198.221,-389.01 203.213,-383.806 206.096,-390.416 201.104,-395.62"/>
<text text-anchor="middle" x="218.5" y="-416" font-family="Helvetica,sans-Serif" font-size="10.00"> +torque</text>
<text text-anchor="middle" x="218.5" y="-405" font-family="Helvetica,sans-Serif" font-size="10.00">+force</text>
</g>
<!-- Node5 -->
<g id="node5" class="node"><title>Node5</title>
<polygon fill="none" stroke="#bfbfbf" points="-0.5,-680.5 -0.5,-737.5 64.5,-737.5 64.5,-680.5 -0.5,-680.5"/>
<text text-anchor="middle" x="32" y="-725.5" font-family="Helvetica,sans-Serif" font-size="10.00">NetFloat64</text>
<polyline fill="none" stroke="#bfbfbf" points="-0.5,-718.5 64.5,-718.5 "/>
<text text-anchor="middle" x="32" y="-706.5" font-family="Helvetica,sans-Serif" font-size="10.00"> </text>
<polyline fill="none" stroke="#bfbfbf" points="-0.5,-699.5 64.5,-699.5 "/>
<text text-anchor="middle" x="32" y="-687.5" font-family="Helvetica,sans-Serif" font-size="10.00"> </text>
</g>
<!-- Node5&#45;&gt;Node4 -->
<g id="edge9" class="edge"><title>Node5&#45;&gt;Node4</title>
<path fill="none" stroke="#404040" d="M54.4925,-680.115C67.8606,-663.543 85.661,-641.475 103.576,-619.266"/>
<polygon fill="none" stroke="#404040" points="103.714,-619.094 104.368,-611.913 111.248,-609.754 110.594,-616.936 103.714,-619.094"/>
<text text-anchor="middle" x="104.5" y="-653.5" font-family="Helvetica,sans-Serif" font-size="10.00"> +x</text>
<text text-anchor="middle" x="104.5" y="-642.5" font-family="Helvetica,sans-Serif" font-size="10.00">+y</text>
<text text-anchor="middle" x="104.5" y="-631.5" font-family="Helvetica,sans-Serif" font-size="10.00">+z</text>
</g>
<!-- Node6&#45;&gt;Node1 -->
<g id="edge10" class="edge"><title>Node6&#45;&gt;Node1</title>
<path fill="none" stroke="#404040" d="M345.475,-253.985C329.896,-241.546 312.875,-228.135 297,-216 271.499,-196.506 243.628,-175.819 217.634,-156.782"/>
<polygon fill="none" stroke="#404040" points="217.459,-156.655 210.255,-156.343 207.772,-149.573 214.976,-149.885 217.459,-156.655"/>
<text text-anchor="middle" x="292.5" y="-189.5" font-family="Helvetica,sans-Serif" font-size="10.00"> +header</text>
</g>
<!-- Node7&#45;&gt;Node6 -->
<g id="edge13" class="edge"><title>Node7&#45;&gt;Node6</title>
<path fill="none" stroke="#404040" d="M451.438,-442.227C446.012,-427.032 440.309,-411.066 434.77,-395.557"/>
<polygon fill="none" stroke="#404040" points="434.61,-395.107 428.825,-390.802 430.574,-383.806 436.359,-388.112 434.61,-395.107"/>
<text text-anchor="middle" x="462.5" y="-410.5" font-family="Helvetica,sans-Serif" font-size="10.00"> +stamp</text>
</g>
<!-- Node8 -->
<g id="node8" class="node"><title>Node8</title>
<polygon fill="none" stroke="#bfbfbf" points="503.5,-680.5 503.5,-737.5 564.5,-737.5 564.5,-680.5 503.5,-680.5"/>
<text text-anchor="middle" x="534" y="-725.5" font-family="Helvetica,sans-Serif" font-size="10.00">NetUint32</text>
<polyline fill="none" stroke="#bfbfbf" points="503.5,-718.5 564.5,-718.5 "/>
<text text-anchor="middle" x="534" y="-706.5" font-family="Helvetica,sans-Serif" font-size="10.00"> </text>
<polyline fill="none" stroke="#bfbfbf" points="503.5,-699.5 564.5,-699.5 "/>
<text text-anchor="middle" x="534" y="-687.5" font-family="Helvetica,sans-Serif" font-size="10.00"> </text>
</g>
<!-- Node8&#45;&gt;Node6 -->
<g id="edge17" class="edge"><title>Node8&#45;&gt;Node6</title>
<path fill="none" stroke="#404040" d="M542.393,-680.494C543.892,-674.457 545.223,-668.058 546,-662 554.715,-594.069 562.404,-509.448 533,-442 518.076,-407.767 491.155,-376.634 465.5,-352.383"/>
<polygon fill="none" stroke="#404040" points="465.329,-352.225 458.205,-351.105 456.5,-344.098 463.624,-345.219 465.329,-352.225"/>
<text text-anchor="middle" x="565.5" y="-523.5" font-family="Helvetica,sans-Serif" font-size="10.00"> +seq</text>
</g>
<!-- Node8&#45;&gt;Node7 -->
<g id="edge16" class="edge"><title>Node8&#45;&gt;Node7</title>
<path fill="none" stroke="#404040" d="M524.052,-680.369C521.976,-674.34 519.856,-667.975 518,-662 513.958,-648.986 509.912,-635.196 506.057,-621.595"/>
<polygon fill="none" stroke="#404040" points="505.966,-621.268 500.493,-616.572 502.724,-609.715 508.196,-614.411 505.966,-621.268"/>
<text text-anchor="middle" x="532" y="-648" font-family="Helvetica,sans-Serif" font-size="10.00"> +sec</text>
<text text-anchor="middle" x="532" y="-637" font-family="Helvetica,sans-Serif" font-size="10.00">+nsec</text>
</g>
<!-- Node9 -->
<g id="node9" class="node"><title>Node9</title>
<polygon fill="none" stroke="#bfbfbf" points="322.5,-497.5 322.5,-554.5 363.5,-554.5 363.5,-497.5 322.5,-497.5"/>
<text text-anchor="middle" x="343" y="-542.5" font-family="Helvetica,sans-Serif" font-size="10.00">string</text>
<polyline fill="none" stroke="#bfbfbf" points="322.5,-535.5 363.5,-535.5 "/>
<text text-anchor="middle" x="343" y="-523.5" font-family="Helvetica,sans-Serif" font-size="10.00"> </text>
<polyline fill="none" stroke="#bfbfbf" points="322.5,-516.5 363.5,-516.5 "/>
<text text-anchor="middle" x="343" y="-504.5" font-family="Helvetica,sans-Serif" font-size="10.00"> </text>
</g>
<!-- Node9&#45;&gt;Node6 -->
<g id="edge18" class="edge"><title>Node9&#45;&gt;Node6</title>
<path fill="none" stroke="#404040" d="M334.236,-497.492C327.568,-472.136 321.076,-433.741 331,-402 333.256,-394.784 336.229,-387.631 339.677,-380.66"/>
<polygon fill="none" stroke="#404040" points="339.787,-380.455 339.093,-373.277 345.451,-369.876 346.146,-377.053 339.787,-380.455"/>
<text text-anchor="middle" x="354.5" y="-410.5" font-family="Helvetica,sans-Serif" font-size="10.00"> +frame_id</text>
</g>
</g>
</svg>
