<?xml version="1.0" encoding="UTF-8" standalone="no"?>
<!DOCTYPE svg PUBLIC "-//W3C//DTD SVG 1.1//EN"
 "http://www.w3.org/Graphics/SVG/1.1/DTD/svg11.dtd">
<!-- Generated by graphviz version 2.36.0 (20140111.2315)
 -->
<!-- Title: human::HumanStateProvider Pages: 1 -->
<!--zoomable 640 -->
<svg id="main" version="1.1" xmlns="http://www.w3.org/2000/svg" xmlns:xlink="http://www.w3.org/1999/xlink" xml:space="preserve" onload="init(evt)">
<style type="text/css"><![CDATA[
.edge:hover path { stroke: red; }
.edge:hover polygon { stroke: red; fill: red; }
]]></style>
<script type="text/javascript"><![CDATA[
var edges = document.getElementsByTagName('g');
if (edges && edges.length) {
  for (var i=0;i<edges.length;i++) {
    if (edges[i].id.substr(0,4)=='edge') {
      edges[i].setAttribute('class','edge');
    }
  }
}
]]></script>
        <defs>
                <circle id="rim" cx="0" cy="0" r="7"/>
                <circle id="rim2" cx="0" cy="0" r="3.5"/>
                <g id="zoomPlus">
                        <use xlink:href="#rim" fill="#404040">
                                <set attributeName="fill" to="#808080" begin="zoomplus.mouseover" end="zoomplus.mouseout"/>
                        </use>
                        <path d="M-4,0h8M0,-4v8" fill="none" stroke="white" stroke-width="1.5" pointer-events="none"/>
                </g>
                <g id="zoomMin">
                        <use xlink:href="#rim" fill="#404040">
                                <set attributeName="fill" to="#808080" begin="zoomminus.mouseover" end="zoomminus.mouseout"/>
                        </use>
                        <path d="M-4,0h8" fill="none" stroke="white" stroke-width="1.5" pointer-events="none"/>
                </g>
                <g id="dirArrow">
                        <path fill="none" stroke="white" stroke-width="1.5" d="M0,-3.0v7 M-2.5,-0.5L0,-3.0L2.5,-0.5"/>
                </g>
               <g id="resetDef">
                       <use xlink:href="#rim2" fill="#404040">
                               <set attributeName="fill" to="#808080" begin="reset.mouseover" end="reset.mouseout"/>
                       </use>
               </g>
        </defs>

<script type="text/javascript">
var viewWidth = 1753;
var viewHeight = 640;
var sectionId = 'dynsection-1';
</script>
<script xlink:href="svgpan.js"/>
<svg id="graph" class="graph">
<g id="viewport">
<title>human::HumanStateProvider</title>
<!-- Node1 -->
<g id="node1" class="node"><title>Node1</title>
<polygon fill="#bfbfbf" stroke="black" points="784.5,-1 784.5,-113 927.5,-113 927.5,-1 784.5,-1"/>
<text text-anchor="middle" x="856" y="-101" font-family="Helvetica,sans-Serif" font-size="10.00">human::HumanStateProvider</text>
<polyline fill="none" stroke="black" points="784.5,-94 927.5,-94 "/>
<text text-anchor="middle" x="856" y="-82" font-family="Helvetica,sans-Serif" font-size="10.00"> </text>
<polyline fill="none" stroke="black" points="784.5,-75 927.5,-75 "/>
<text text-anchor="start" x="792.5" y="-63" font-family="Helvetica,sans-Serif" font-size="10.00">+ HumanStateProvider()</text>
<text text-anchor="start" x="792.5" y="-52" font-family="Helvetica,sans-Serif" font-size="10.00">+ ~HumanStateProvider()</text>
<text text-anchor="start" x="792.5" y="-41" font-family="Helvetica,sans-Serif" font-size="10.00">+ getPeriod()</text>
<text text-anchor="start" x="792.5" y="-30" font-family="Helvetica,sans-Serif" font-size="10.00">+ updateModule()</text>
<text text-anchor="start" x="792.5" y="-19" font-family="Helvetica,sans-Serif" font-size="10.00">+ configure()</text>
<text text-anchor="start" x="792.5" y="-8" font-family="Helvetica,sans-Serif" font-size="10.00">+ close()</text>
</g>
<!-- Node2 -->
<g id="node2" class="node"><title>Node2</title>
<g id="a_node2"><a xlink:href="classyarp_1_1os_1_1_r_f_module.html" target="_top" xlink:title="{yarp::os::RFModule\n||}">
<polygon fill="none" stroke="black" points="759.5,-190.5 759.5,-247.5 862.5,-247.5 862.5,-190.5 759.5,-190.5"/>
<text text-anchor="middle" x="811" y="-235.5" font-family="Helvetica,sans-Serif" font-size="10.00">yarp::os::RFModule</text>
<polyline fill="none" stroke="black" points="759.5,-228.5 862.5,-228.5 "/>
<text text-anchor="middle" x="811" y="-216.5" font-family="Helvetica,sans-Serif" font-size="10.00"> </text>
<polyline fill="none" stroke="black" points="759.5,-209.5 862.5,-209.5 "/>
<text text-anchor="middle" x="811" y="-197.5" font-family="Helvetica,sans-Serif" font-size="10.00"> </text>
</a>
</g>
</g>
<!-- Node2&#45;&gt;Node1 -->
<g id="edge1" class="edge"><title>Node2&#45;&gt;Node1</title>
<path fill="none" stroke="midnightblue" d="M821.462,-180.801C827.104,-160.74 834.178,-135.59 840.452,-113.283"/>
<polygon fill="none" stroke="midnightblue" points="818.074,-179.921 818.736,-190.495 824.813,-181.816 818.074,-179.921"/>
</g>
<!-- Node3 -->
<g id="node3" class="node"><title>Node3</title>
<g id="a_node3"><a xlink:href="classhuman_1_1_human_state_provider_1_1_human_state_provider_private.html" target="_top" xlink:title="{human::HumanStateProvider\l::HumanStateProviderPrivate\n||+ HumanStateProviderPrivate()\l+ ~HumanStateProviderPrivate()\l+ joints()\l+ baseLink()\l+ setBaseLink()\l}">
<polygon fill="none" stroke="black" points="880.5,-163 880.5,-275 1039.5,-275 1039.5,-163 880.5,-163"/>
<text text-anchor="start" x="888.5" y="-263" font-family="Helvetica,sans-Serif" font-size="10.00">human::HumanStateProvider</text>
<text text-anchor="middle" x="960" y="-252" font-family="Helvetica,sans-Serif" font-size="10.00">::HumanStateProviderPrivate</text>
<polyline fill="none" stroke="black" points="880.5,-245 1039.5,-245 "/>
<text text-anchor="middle" x="960" y="-233" font-family="Helvetica,sans-Serif" font-size="10.00"> </text>
<polyline fill="none" stroke="black" points="880.5,-226 1039.5,-226 "/>
<text text-anchor="start" x="888.5" y="-214" font-family="Helvetica,sans-Serif" font-size="10.00">+ HumanStateProviderPrivate()</text>
<text text-anchor="start" x="888.5" y="-203" font-family="Helvetica,sans-Serif" font-size="10.00">+ ~HumanStateProviderPrivate()</text>
<text text-anchor="start" x="888.5" y="-192" font-family="Helvetica,sans-Serif" font-size="10.00">+ joints()</text>
<text text-anchor="start" x="888.5" y="-181" font-family="Helvetica,sans-Serif" font-size="10.00">+ baseLink()</text>
<text text-anchor="start" x="888.5" y="-170" font-family="Helvetica,sans-Serif" font-size="10.00">+ setBaseLink()</text>
</a>
</g>
</g>
<!-- Node3&#45;&gt;Node1 -->
<g id="edge2" class="edge"><title>Node3&#45;&gt;Node1</title>
<path fill="none" stroke="#404040" d="M924.209,-162.937C915.957,-150.241 907.099,-136.613 898.589,-123.521"/>
<polygon fill="none" stroke="#404040" points="898.397,-123.226 891.773,-120.375 891.857,-113.164 898.481,-116.015 898.397,-123.226"/>
<text text-anchor="middle" x="933.5" y="-135.5" font-family="Helvetica,sans-Serif" font-size="10.00"> &#45;m_pimpl</text>
</g>
<!-- Node4 -->
<g id="node4" class="node"><title>Node4</title>
<g id="a_node4"><a xlink:href="classhuman_1_1_human_state_provider_service.html" target="_top" xlink:title="{human::HumanStateProvider\lService\n||+ HumanStateProviderService()\l+ joints()\l+ setBaseLink()\l+ baseLink()\l+ read()\l+ help()\l+ HumanStateProviderService()\l+ joints()\l+ setBaseLink()\l+ baseLink()\l+ read()\l+ help()\l}">
<polygon fill="none" stroke="black" points="-0.5,-346.5 -0.5,-535.5 154.5,-535.5 154.5,-346.5 -0.5,-346.5"/>
<text text-anchor="start" x="7.5" y="-523.5" font-family="Helvetica,sans-Serif" font-size="10.00">human::HumanStateProvider</text>
<text text-anchor="middle" x="77" y="-512.5" font-family="Helvetica,sans-Serif" font-size="10.00">Service</text>
<polyline fill="none" stroke="black" points="-0.5,-505.5 154.5,-505.5 "/>
<text text-anchor="middle" x="77" y="-493.5" font-family="Helvetica,sans-Serif" font-size="10.00"> </text>
<polyline fill="none" stroke="black" points="-0.5,-486.5 154.5,-486.5 "/>
<text text-anchor="start" x="7.5" y="-474.5" font-family="Helvetica,sans-Serif" font-size="10.00">+ HumanStateProviderService()</text>
<text text-anchor="start" x="7.5" y="-463.5" font-family="Helvetica,sans-Serif" font-size="10.00">+ joints()</text>
<text text-anchor="start" x="7.5" y="-452.5" font-family="Helvetica,sans-Serif" font-size="10.00">+ setBaseLink()</text>
<text text-anchor="start" x="7.5" y="-441.5" font-family="Helvetica,sans-Serif" font-size="10.00">+ baseLink()</text>
<text text-anchor="start" x="7.5" y="-430.5" font-family="Helvetica,sans-Serif" font-size="10.00">+ read()</text>
<text text-anchor="start" x="7.5" y="-419.5" font-family="Helvetica,sans-Serif" font-size="10.00">+ help()</text>
<text text-anchor="start" x="7.5" y="-408.5" font-family="Helvetica,sans-Serif" font-size="10.00">+ HumanStateProviderService()</text>
<text text-anchor="start" x="7.5" y="-397.5" font-family="Helvetica,sans-Serif" font-size="10.00">+ joints()</text>
<text text-anchor="start" x="7.5" y="-386.5" font-family="Helvetica,sans-Serif" font-size="10.00">+ setBaseLink()</text>
<text text-anchor="start" x="7.5" y="-375.5" font-family="Helvetica,sans-Serif" font-size="10.00">+ baseLink()</text>
<text text-anchor="start" x="7.5" y="-364.5" font-family="Helvetica,sans-Serif" font-size="10.00">+ read()</text>
<text text-anchor="start" x="7.5" y="-353.5" font-family="Helvetica,sans-Serif" font-size="10.00">+ help()</text>
</a>
</g>
</g>
<!-- Node4&#45;&gt;Node3 -->
<g id="edge3" class="edge"><title>Node4&#45;&gt;Node3</title>
<path fill="none" stroke="midnightblue" d="M162.385,-344.373C187.986,-322.788 217.884,-303.458 250,-294 382.434,-254.998 738.918,-316.179 871,-276 874.144,-275.044 877.285,-273.945 880.41,-272.729"/>
<polygon fill="none" stroke="midnightblue" points="159.846,-341.942 154.581,-351.136 164.43,-347.233 159.846,-341.942"/>
</g>
<!-- Node5 -->
<g id="node5" class="node"><title>Node5</title>
<g id="a_node5"><a xlink:href="classyarp_1_1os_1_1_wire.html" target="_top" xlink:title="{Wire\n||}">
<polygon fill="none" stroke="black" points="58.5,-574.5 58.5,-631.5 95.5,-631.5 95.5,-574.5 58.5,-574.5"/>
<text text-anchor="middle" x="77" y="-619.5" font-family="Helvetica,sans-Serif" font-size="10.00">Wire</text>
<polyline fill="none" stroke="black" points="58.5,-612.5 95.5,-612.5 "/>
<text text-anchor="middle" x="77" y="-600.5" font-family="Helvetica,sans-Serif" font-size="10.00"> </text>
<polyline fill="none" stroke="black" points="58.5,-593.5 95.5,-593.5 "/>
<text text-anchor="middle" x="77" y="-581.5" font-family="Helvetica,sans-Serif" font-size="10.00"> </text>
</a>
</g>
</g>
<!-- Node5&#45;&gt;Node4 -->
<g id="edge4" class="edge"><title>Node5&#45;&gt;Node4</title>
<path fill="none" stroke="midnightblue" d="M71.1677,-564.242C70.7436,-555.408 70.4665,-545.61 70.3364,-535.517"/>
<polygon fill="none" stroke="midnightblue" points="67.6889,-564.713 71.758,-574.495 74.6774,-564.31 67.6889,-564.713"/>
</g>
<!-- Node5&#45;&gt;Node4 -->
<g id="edge5" class="edge"><title>Node5&#45;&gt;Node4</title>
<path fill="none" stroke="midnightblue" d="M82.8323,-564.242C83.2564,-555.408 83.5335,-545.61 83.6636,-535.517"/>
<polygon fill="none" stroke="midnightblue" points="79.3226,-564.31 82.242,-574.495 86.3111,-564.713 79.3226,-564.31"/>
</g>
<!-- Node6 -->
<g id="node6" class="node"><title>Node6</title>
<polygon fill="none" stroke="#bfbfbf" points="173,-412.5 173,-469.5 267,-469.5 267,-412.5 173,-412.5"/>
<text text-anchor="middle" x="220" y="-457.5" font-family="Helvetica,sans-Serif" font-size="10.00">IPreciselyTimed *</text>
<polyline fill="none" stroke="#bfbfbf" points="173,-450.5 267,-450.5 "/>
<text text-anchor="middle" x="220" y="-438.5" font-family="Helvetica,sans-Serif" font-size="10.00"> </text>
<polyline fill="none" stroke="#bfbfbf" points="173,-431.5 267,-431.5 "/>
<text text-anchor="middle" x="220" y="-419.5" font-family="Helvetica,sans-Serif" font-size="10.00"> </text>
</g>
<!-- Node6&#45;&gt;Node3 -->
<g id="edge6" class="edge"><title>Node6&#45;&gt;Node3</title>
<path fill="none" stroke="#404040" d="M223.501,-412.348C229.476,-378.026 245.15,-320.758 285,-294 336.652,-259.317 767.341,-291.807 868.408,-275.377"/>
<polygon fill="none" stroke="#404040" points="868.691,-275.314 873.685,-270.112 880.408,-272.722 875.414,-277.923 868.691,-275.314"/>
<text text-anchor="middle" x="340.5" y="-308.5" font-family="Helvetica,sans-Serif" font-size="10.00"> +m_frameProviderTimed</text>
</g>
<!-- Node7 -->
<g id="node7" class="node"><title>Node7</title>
<polygon fill="none" stroke="#bfbfbf" points="285,-412.5 285,-469.5 375,-469.5 375,-412.5 285,-412.5"/>
<text text-anchor="middle" x="330" y="-457.5" font-family="Helvetica,sans-Serif" font-size="10.00">IFrameProvider *</text>
<polyline fill="none" stroke="#bfbfbf" points="285,-450.5 375,-450.5 "/>
<text text-anchor="middle" x="330" y="-438.5" font-family="Helvetica,sans-Serif" font-size="10.00"> </text>
<polyline fill="none" stroke="#bfbfbf" points="285,-431.5 375,-431.5 "/>
<text text-anchor="middle" x="330" y="-419.5" font-family="Helvetica,sans-Serif" font-size="10.00"> </text>
</g>
<!-- Node7&#45;&gt;Node3 -->
<g id="edge7" class="edge"><title>Node7&#45;&gt;Node3</title>
<path fill="none" stroke="#404040" d="M341.665,-412.366C358.868,-375.984 394.957,-314.261 449,-294 533.628,-262.273 763.458,-300.851 868.785,-275.854"/>
<polygon fill="none" stroke="#404040" points="868.819,-275.845 873.549,-270.401 880.393,-272.673 875.663,-278.117 868.819,-275.845"/>
<text text-anchor="middle" x="491" y="-308.5" font-family="Helvetica,sans-Serif" font-size="10.00"> +m_frameProvider</text>
</g>
<!-- Node8 -->
<g id="node8" class="node"><title>Node8</title>
<polygon fill="none" stroke="#bfbfbf" points="393.5,-407 393.5,-475 546.5,-475 546.5,-407 393.5,-407"/>
<text text-anchor="start" x="401.5" y="-463" font-family="Helvetica,sans-Serif" font-size="10.00">unique_ptr&lt; human::</text>
<text text-anchor="middle" x="470" y="-452" font-family="Helvetica,sans-Serif" font-size="10.00">human::HumanIKWorkerPool &gt;</text>
<polyline fill="none" stroke="#bfbfbf" points="393.5,-445 546.5,-445 "/>
<text text-anchor="middle" x="470" y="-433" font-family="Helvetica,sans-Serif" font-size="10.00"> </text>
<polyline fill="none" stroke="#bfbfbf" points="393.5,-426 546.5,-426 "/>
<text text-anchor="middle" x="470" y="-414" font-family="Helvetica,sans-Serif" font-size="10.00"> </text>
</g>
<!-- Node8&#45;&gt;Node3 -->
<g id="edge8" class="edge"><title>Node8&#45;&gt;Node3</title>
<path fill="none" stroke="#404040" d="M484.062,-406.866C500.828,-371.982 532.426,-318.757 578,-294 632.411,-264.442 791.576,-292.793 868.72,-275.74"/>
<polygon fill="none" stroke="#404040" points="868.783,-275.723 873.534,-270.298 880.369,-272.597 875.618,-278.022 868.783,-275.723"/>
<text text-anchor="middle" x="603" y="-308.5" font-family="Helvetica,sans-Serif" font-size="10.00"> +m_ikPool</text>
</g>
<!-- Node9 -->
<g id="node9" class="node"><title>Node9</title>
<polygon fill="none" stroke="#bfbfbf" points="564.5,-407 564.5,-475 681.5,-475 681.5,-407 564.5,-407"/>
<text text-anchor="start" x="572.5" y="-463" font-family="Helvetica,sans-Serif" font-size="10.00">vector&lt; human::human</text>
<text text-anchor="middle" x="623" y="-452" font-family="Helvetica,sans-Serif" font-size="10.00">::LinkPairInfo &gt;</text>
<polyline fill="none" stroke="#bfbfbf" points="564.5,-445 681.5,-445 "/>
<text text-anchor="middle" x="623" y="-433" font-family="Helvetica,sans-Serif" font-size="10.00"> </text>
<polyline fill="none" stroke="#bfbfbf" points="564.5,-426 681.5,-426 "/>
<text text-anchor="middle" x="623" y="-414" font-family="Helvetica,sans-Serif" font-size="10.00"> </text>
</g>
<!-- Node9&#45;&gt;Node3 -->
<g id="edge9" class="edge"><title>Node9&#45;&gt;Node3</title>
<path fill="none" stroke="#404040" d="M619.741,-406.938C618.429,-373.159 622.404,-321.834 654,-294 687.969,-264.077 808.135,-287.799 868.716,-275.577"/>
<polygon fill="none" stroke="#404040" points="868.737,-275.572 873.518,-270.173 880.34,-272.51 875.559,-277.909 868.737,-275.572"/>
<text text-anchor="middle" x="684.5" y="-308.5" font-family="Helvetica,sans-Serif" font-size="10.00"> +m_linkPairs</text>
</g>
<!-- Node10 -->
<g id="node10" class="node"><title>Node10</title>
<polygon fill="none" stroke="#bfbfbf" points="699.5,-412.5 699.5,-469.5 744.5,-469.5 744.5,-412.5 699.5,-412.5"/>
<text text-anchor="middle" x="722" y="-457.5" font-family="Helvetica,sans-Serif" font-size="10.00">double</text>
<polyline fill="none" stroke="#bfbfbf" points="699.5,-450.5 744.5,-450.5 "/>
<text text-anchor="middle" x="722" y="-438.5" font-family="Helvetica,sans-Serif" font-size="10.00"> </text>
<polyline fill="none" stroke="#bfbfbf" points="699.5,-431.5 744.5,-431.5 "/>
<text text-anchor="middle" x="722" y="-419.5" font-family="Helvetica,sans-Serif" font-size="10.00"> </text>
</g>
<!-- Node10&#45;&gt;Node3 -->
<g id="edge10" class="edge"><title>Node10&#45;&gt;Node3</title>
<path fill="none" stroke="#404040" d="M716.006,-412.438C710.63,-379.556 707.65,-325.129 738,-294 756.868,-274.647 827.743,-283.943 868.632,-275.532"/>
<polygon fill="none" stroke="#404040" points="868.705,-275.512 873.416,-270.053 880.268,-272.302 875.556,-277.761 868.705,-275.512"/>
<text text-anchor="middle" x="762.5" y="-308.5" font-family="Helvetica,sans-Serif" font-size="10.00"> +m_period</text>
</g>
<!-- Node11 -->
<g id="node11" class="node"><title>Node11</title>
<polygon fill="none" stroke="#bfbfbf" points="763,-412.5 763,-469.5 825,-469.5 825,-412.5 763,-412.5"/>
<text text-anchor="middle" x="794" y="-457.5" font-family="Helvetica,sans-Serif" font-size="10.00">PolyDriver</text>
<polyline fill="none" stroke="#bfbfbf" points="763,-450.5 825,-450.5 "/>
<text text-anchor="middle" x="794" y="-438.5" font-family="Helvetica,sans-Serif" font-size="10.00"> </text>
<polyline fill="none" stroke="#bfbfbf" points="763,-431.5 825,-431.5 "/>
<text text-anchor="middle" x="794" y="-419.5" font-family="Helvetica,sans-Serif" font-size="10.00"> </text>
</g>
<!-- Node11&#45;&gt;Node3 -->
<g id="edge11" class="edge"><title>Node11&#45;&gt;Node3</title>
<path fill="none" stroke="#404040" d="M787.968,-412.341C782.667,-380.121 779.535,-327.094 807,-294 823.806,-273.749 840.021,-284.804 869.013,-275.903"/>
<polygon fill="none" stroke="#404040" points="869.076,-275.879 873.269,-270.012 880.297,-271.626 876.104,-277.493 869.076,-275.879"/>
<text text-anchor="middle" x="846.5" y="-308.5" font-family="Helvetica,sans-Serif" font-size="10.00"> +m_humanDriver</text>
</g>
<!-- Node12 -->
<g id="node12" class="node"><title>Node12</title>
<polygon fill="none" stroke="#bfbfbf" points="843.5,-412.5 843.5,-469.5 948.5,-469.5 948.5,-412.5 843.5,-412.5"/>
<text text-anchor="middle" x="896" y="-457.5" font-family="Helvetica,sans-Serif" font-size="10.00">vector&lt; std::string &gt;</text>
<polyline fill="none" stroke="#bfbfbf" points="843.5,-450.5 948.5,-450.5 "/>
<text text-anchor="middle" x="896" y="-438.5" font-family="Helvetica,sans-Serif" font-size="10.00"> </text>
<polyline fill="none" stroke="#bfbfbf" points="843.5,-431.5 948.5,-431.5 "/>
<text text-anchor="middle" x="896" y="-419.5" font-family="Helvetica,sans-Serif" font-size="10.00"> </text>
</g>
<!-- Node12&#45;&gt;Node3 -->
<g id="edge12" class="edge"><title>Node12&#45;&gt;Node3</title>
<path fill="none" stroke="#404040" d="M890.721,-412.356C886.197,-382.222 882.465,-333.082 897,-294 898.017,-291.265 899.185,-288.561 900.477,-285.898"/>
<polygon fill="none" stroke="#404040" points="900.598,-285.68 900.02,-278.492 906.433,-275.194 907.011,-282.382 900.598,-285.68"/>
<text text-anchor="middle" x="949.5" y="-308.5" font-family="Helvetica,sans-Serif" font-size="10.00"> +m_humanJointNames</text>
</g>
<!-- Node13 -->
<g id="node13" class="node"><title>Node13</title>
<polygon fill="none" stroke="#bfbfbf" points="1002,-412.5 1002,-469.5 1046,-469.5 1046,-412.5 1002,-412.5"/>
<text text-anchor="middle" x="1024" y="-457.5" font-family="Helvetica,sans-Serif" font-size="10.00">mutex</text>
<polyline fill="none" stroke="#bfbfbf" points="1002,-450.5 1046,-450.5 "/>
<text text-anchor="middle" x="1024" y="-438.5" font-family="Helvetica,sans-Serif" font-size="10.00"> </text>
<polyline fill="none" stroke="#bfbfbf" points="1002,-431.5 1046,-431.5 "/>
<text text-anchor="middle" x="1024" y="-419.5" font-family="Helvetica,sans-Serif" font-size="10.00"> </text>
</g>
<!-- Node13&#45;&gt;Node3 -->
<g id="edge13" class="edge"><title>Node13&#45;&gt;Node3</title>
<path fill="none" stroke="#404040" d="M1022.84,-412.379C1020.9,-382.475 1015.74,-333.731 1002,-294 1001.12,-291.448 1000.15,-288.883 999.105,-286.319"/>
<polygon fill="none" stroke="#404040" points="999.01,-286.106 992.918,-282.248 994.136,-275.14 1000.23,-278.998 999.01,-286.106"/>
<text text-anchor="middle" x="1049" y="-308.5" font-family="Helvetica,sans-Serif" font-size="10.00"> +m_objectMutex</text>
</g>
<!-- Node14 -->
<g id="node14" class="node"><title>Node14</title>
<polygon fill="none" stroke="#bfbfbf" points="1064.5,-412.5 1064.5,-469.5 1107.5,-469.5 1107.5,-412.5 1064.5,-412.5"/>
<text text-anchor="middle" x="1086" y="-457.5" font-family="Helvetica,sans-Serif" font-size="10.00">size_t</text>
<polyline fill="none" stroke="#bfbfbf" points="1064.5,-450.5 1107.5,-450.5 "/>
<text text-anchor="middle" x="1086" y="-438.5" font-family="Helvetica,sans-Serif" font-size="10.00"> </text>
<polyline fill="none" stroke="#bfbfbf" points="1064.5,-431.5 1107.5,-431.5 "/>
<text text-anchor="middle" x="1086" y="-419.5" font-family="Helvetica,sans-Serif" font-size="10.00"> </text>
</g>
<!-- Node14&#45;&gt;Node3 -->
<g id="edge14" class="edge"><title>Node14&#45;&gt;Node3</title>
<path fill="none" stroke="#404040" d="M1095.21,-412.315C1103.77,-381.26 1112.29,-330.471 1091,-294 1081.3,-277.373 1066.32,-264.186 1049.91,-253.837"/>
<polygon fill="none" stroke="#404040" points="1049.9,-253.827 1042.7,-254.241 1039.55,-247.754 1046.75,-247.341 1049.9,-253.827"/>
<text text-anchor="middle" x="1134" y="-308.5" font-family="Helvetica,sans-Serif" font-size="10.00"> +m_baseLink</text>
</g>
<!-- Node15 -->
<g id="node15" class="node"><title>Node15</title>
<polygon fill="none" stroke="#bfbfbf" points="1126,-407 1126,-475 1222,-475 1222,-407 1126,-407"/>
<text text-anchor="start" x="1134" y="-463" font-family="Helvetica,sans-Serif" font-size="10.00">vector&lt; yarp::sig::</text>
<text text-anchor="middle" x="1174" y="-452" font-family="Helvetica,sans-Serif" font-size="10.00">Vector &gt;</text>
<polyline fill="none" stroke="#bfbfbf" points="1126,-445 1222,-445 "/>
<text text-anchor="middle" x="1174" y="-433" font-family="Helvetica,sans-Serif" font-size="10.00"> </text>
<polyline fill="none" stroke="#bfbfbf" points="1126,-426 1222,-426 "/>
<text text-anchor="middle" x="1174" y="-414" font-family="Helvetica,sans-Serif" font-size="10.00"> </text>
</g>
<!-- Node15&#45;&gt;Node3 -->
<g id="edge15" class="edge"><title>Node15&#45;&gt;Node3</title>
<path fill="none" stroke="#404040" d="M1182.72,-406.708C1189.01,-374.666 1192.76,-326.426 1169,-294 1141.76,-256.822 1094.27,-238.233 1051.45,-228.978"/>
<polygon fill="none" stroke="#404040" points="1051.28,-228.945 1044.62,-231.699 1039.51,-226.607 1046.17,-223.853 1051.28,-228.945"/>
<text text-anchor="middle" x="1216" y="-319.5" font-family="Helvetica,sans-Serif" font-size="10.00"> +poses</text>
<text text-anchor="middle" x="1216" y="-308.5" font-family="Helvetica,sans-Serif" font-size="10.00">+accelerations</text>
<text text-anchor="middle" x="1216" y="-297.5" font-family="Helvetica,sans-Serif" font-size="10.00">+velocities</text>
</g>
<!-- Node16 -->
<g id="node16" class="node"><title>Node16</title>
<g id="a_node16"><a xlink:href="classyarp_1_1os_1_1_buffered_port.html" target="_top" xlink:title="{yarp::os::BufferedPort\l\&lt; human::human::HumanState \&gt;\n||}">
<polygon fill="none" stroke="black" points="1240,-407 1240,-475 1400,-475 1400,-407 1240,-407"/>
<text text-anchor="start" x="1248" y="-463" font-family="Helvetica,sans-Serif" font-size="10.00">yarp::os::BufferedPort</text>
<text text-anchor="middle" x="1320" y="-452" font-family="Helvetica,sans-Serif" font-size="10.00">&lt; human::human::HumanState &gt;</text>
<polyline fill="none" stroke="black" points="1240,-445 1400,-445 "/>
<text text-anchor="middle" x="1320" y="-433" font-family="Helvetica,sans-Serif" font-size="10.00"> </text>
<polyline fill="none" stroke="black" points="1240,-426 1400,-426 "/>
<text text-anchor="middle" x="1320" y="-414" font-family="Helvetica,sans-Serif" font-size="10.00"> </text>
</a>
</g>
</g>
<!-- Node16&#45;&gt;Node3 -->
<g id="edge16" class="edge"><title>Node16&#45;&gt;Node3</title>
<path fill="none" stroke="#404040" d="M1313.26,-406.777C1304.74,-373.367 1286.78,-322.799 1252,-294 1195.92,-247.568 1114.48,-229.753 1051.84,-223.161"/>
<polygon fill="none" stroke="#404040" points="1051.53,-223.131 1045.17,-226.541 1039.58,-221.987 1045.94,-218.577 1051.53,-223.131"/>
<text text-anchor="middle" x="1315" y="-308.5" font-family="Helvetica,sans-Serif" font-size="10.00"> +m_outputPort</text>
</g>
<!-- Node17 -->
<g id="node17" class="node"><title>Node17</title>
<polygon fill="none" stroke="#bfbfbf" points="1418.5,-412.5 1418.5,-469.5 1463.5,-469.5 1463.5,-412.5 1418.5,-412.5"/>
<text text-anchor="middle" x="1441" y="-457.5" font-family="Helvetica,sans-Serif" font-size="10.00">Vector</text>
<polyline fill="none" stroke="#bfbfbf" points="1418.5,-450.5 1463.5,-450.5 "/>
<text text-anchor="middle" x="1441" y="-438.5" font-family="Helvetica,sans-Serif" font-size="10.00"> </text>
<polyline fill="none" stroke="#bfbfbf" points="1418.5,-431.5 1463.5,-431.5 "/>
<text text-anchor="middle" x="1441" y="-419.5" font-family="Helvetica,sans-Serif" font-size="10.00"> </text>
</g>
<!-- Node17&#45;&gt;Node3 -->
<g id="edge17" class="edge"><title>Node17&#45;&gt;Node3</title>
<path fill="none" stroke="#404040" d="M1435.44,-412.482C1430.59,-392.839 1422.22,-366.395 1409,-346 1390.52,-317.502 1383.32,-309.299 1353,-294 1257.53,-245.837 1134.7,-228.842 1051.97,-222.944"/>
<polygon fill="none" stroke="#404040" points="1051.79,-222.932 1045.54,-226.525 1039.81,-222.136 1046.07,-218.543 1051.79,-222.932"/>
<text text-anchor="middle" x="1441" y="-314" font-family="Helvetica,sans-Serif" font-size="10.00"> +jointsVelocity</text>
<text text-anchor="middle" x="1441" y="-303" font-family="Helvetica,sans-Serif" font-size="10.00">+jointsConfiguration</text>
</g>
<!-- Node18 -->
<g id="node18" class="node"><title>Node18</title>
<polygon fill="none" stroke="#bfbfbf" points="1481.5,-407 1481.5,-475 1598.5,-475 1598.5,-407 1481.5,-407"/>
<text text-anchor="start" x="1489.5" y="-463" font-family="Helvetica,sans-Serif" font-size="10.00">vector&lt; human::human</text>
<text text-anchor="middle" x="1540" y="-452" font-family="Helvetica,sans-Serif" font-size="10.00">::SegmentInfo &gt;</text>
<polyline fill="none" stroke="#bfbfbf" points="1481.5,-445 1598.5,-445 "/>
<text text-anchor="middle" x="1540" y="-433" font-family="Helvetica,sans-Serif" font-size="10.00"> </text>
<polyline fill="none" stroke="#bfbfbf" points="1481.5,-426 1598.5,-426 "/>
<text text-anchor="middle" x="1540" y="-414" font-family="Helvetica,sans-Serif" font-size="10.00"> </text>
</g>
<!-- Node18&#45;&gt;Node3 -->
<g id="edge18" class="edge"><title>Node18&#45;&gt;Node3</title>
<path fill="none" stroke="#404040" d="M1538.06,-406.871C1534.19,-373.037 1522.74,-321.666 1489,-294 1423.94,-240.647 1185.32,-225.75 1051.88,-221.598"/>
<polygon fill="none" stroke="#404040" points="1051.7,-221.593 1045.58,-225.414 1039.7,-221.24 1045.82,-217.418 1051.7,-221.593"/>
<text text-anchor="middle" x="1548" y="-308.5" font-family="Helvetica,sans-Serif" font-size="10.00"> +m_segments</text>
</g>
<!-- Node19 -->
<g id="node19" class="node"><title>Node19</title>
<polygon fill="none" stroke="#bfbfbf" points="1616.5,-412 1616.5,-470 1645.5,-470 1645.5,-412 1616.5,-412"/>
<polyline fill="none" stroke="#bfbfbf" points="1616.5,-450 1645.5,-450 "/>
<text text-anchor="middle" x="1631" y="-438" font-family="Helvetica,sans-Serif" font-size="10.00"> </text>
<polyline fill="none" stroke="#bfbfbf" points="1616.5,-431 1645.5,-431 "/>
<text text-anchor="middle" x="1631" y="-419" font-family="Helvetica,sans-Serif" font-size="10.00"> </text>
</g>
<!-- Node19&#45;&gt;Node3 -->
<g id="edge19" class="edge"><title>Node19&#45;&gt;Node3</title>
<path fill="none" stroke="#404040" d="M1631.18,-411.727C1629.7,-377.594 1621.44,-321.372 1585,-294 1502.91,-232.346 1204.59,-221.333 1051.7,-219.835"/>
<polygon fill="none" stroke="#404040" points="1051.61,-219.835 1045.57,-223.784 1039.61,-219.734 1045.64,-215.785 1051.61,-219.835"/>
<text text-anchor="middle" x="1636.5" y="-308.5" font-family="Helvetica,sans-Serif" font-size="10.00"> +m_buffers</text>
</g>
<!-- Node20 -->
<g id="node20" class="node"><title>Node20</title>
<polygon fill="none" stroke="#bfbfbf" points="1688.5,-412.5 1688.5,-469.5 1723.5,-469.5 1723.5,-412.5 1688.5,-412.5"/>
<text text-anchor="middle" x="1706" y="-457.5" font-family="Helvetica,sans-Serif" font-size="10.00">Port</text>
<polyline fill="none" stroke="#bfbfbf" points="1688.5,-450.5 1723.5,-450.5 "/>
<text text-anchor="middle" x="1706" y="-438.5" font-family="Helvetica,sans-Serif" font-size="10.00"> </text>
<polyline fill="none" stroke="#bfbfbf" points="1688.5,-431.5 1723.5,-431.5 "/>
<text text-anchor="middle" x="1706" y="-419.5" font-family="Helvetica,sans-Serif" font-size="10.00"> </text>
</g>
<!-- Node20&#45;&gt;Node3 -->
<g id="edge20" class="edge"><title>Node20&#45;&gt;Node3</title>
<path fill="none" stroke="#404040" d="M1707.24,-412.333C1707.09,-378.819 1701.21,-323.228 1667,-294 1621.11,-254.793 1232.49,-232.294 1051.75,-223.864"/>
<polygon fill="none" stroke="#404040" points="1051.62,-223.858 1045.44,-227.577 1039.63,-223.305 1045.81,-219.585 1051.62,-223.858"/>
<text text-anchor="middle" x="1717.5" y="-308.5" font-family="Helvetica,sans-Serif" font-size="10.00"> +m_rpcPort</text>
</g>
</g>
</svg>
        <g id="navigator" transform="translate(0 0)" fill="#404254">
                <rect fill="#f2f5e9" fill-opacity="0.5" stroke="#606060" stroke-width=".5" x="0" y="0" width="60" height="60"/>
                <use id="zoomplus" xlink:href="#zoomPlus" x="17" y="9" onmousedown="handleZoom(evt,'in')"/>
                <use id="zoomminus" xlink:href="#zoomMin" x="42" y="9" onmousedown="handleZoom(evt,'out')"/>
                <use id="reset" xlink:href="#resetDef" x="30" y="36" onmousedown="handleReset()"/>
                <g id="arrowUp" xlink:href="#dirArrow" transform="translate(30 24)" onmousedown="handlePan(0,-1)">
                  <use xlink:href="#rim" fill="#404040">
                        <set attributeName="fill" to="#808080" begin="arrowUp.mouseover" end="arrowUp.mouseout"/>
                  </use>
                  <path fill="none" stroke="white" stroke-width="1.5" d="M0,-3.0v7 M-2.5,-0.5L0,-3.0L2.5,-0.5"/>
                </g>
                <g id="arrowRight" xlink:href="#dirArrow" transform="rotate(90) translate(36 -43)" onmousedown="handlePan(1,0)">
                  <use xlink:href="#rim" fill="#404040">
                        <set attributeName="fill" to="#808080" begin="arrowRight.mouseover" end="arrowRight.mouseout"/>
                  </use>
                  <path fill="none" stroke="white" stroke-width="1.5" d="M0,-3.0v7 M-2.5,-0.5L0,-3.0L2.5,-0.5"/>
                </g>
                <g id="arrowDown" xlink:href="#dirArrow" transform="rotate(180) translate(-30 -48)" onmousedown="handlePan(0,1)">
                  <use xlink:href="#rim" fill="#404040">
                        <set attributeName="fill" to="#808080" begin="arrowDown.mouseover" end="arrowDown.mouseout"/>
                  </use>
                  <path fill="none" stroke="white" stroke-width="1.5" d="M0,-3.0v7 M-2.5,-0.5L0,-3.0L2.5,-0.5"/>
                </g>
                <g id="arrowLeft" xlink:href="#dirArrow" transform="rotate(270) translate(-36 17)" onmousedown="handlePan(-1,0)">
                  <use xlink:href="#rim" fill="#404040">
                        <set attributeName="fill" to="#808080" begin="arrowLeft.mouseover" end="arrowLeft.mouseout"/>
                  </use>
                  <path fill="none" stroke="white" stroke-width="1.5" d="M0,-3.0v7 M-2.5,-0.5L0,-3.0L2.5,-0.5"/>
                </g>
        </g>
        <svg viewBox="0 0 15 15" width="100%" height="30px" preserveAspectRatio="xMaxYMin meet">
         <g id="arrow_out" transform="scale(0.3 0.3)">
          <a xlink:href="classhuman_1_1_human_state_provider__coll__graph_org.svg" target="_base">
           <rect id="button" ry="5" rx="5" y="6" x="6" height="38" width="38"
                fill="#f2f5e9" fill-opacity="0.5" stroke="#606060" stroke-width="1.0"/>
           <path id="arrow"
             d="M 11.500037,31.436501 C 11.940474,20.09759 22.043105,11.32322 32.158766,21.979434 L 37.068811,17.246167 C 37.068811,17.246167 37.088388,32 37.088388,32 L 22.160133,31.978069 C 22.160133,31.978069 26.997745,27.140456 26.997745,27.140456 C 18.528582,18.264221 13.291696,25.230495 11.500037,31.436501 z"
             style="fill:#404040;"/>
          </a>
         </g>
        </svg>
</svg>
