<?xml version="1.0" encoding="UTF-8" standalone="no"?>
<!DOCTYPE svg PUBLIC "-//W3C//DTD SVG 1.1//EN"
 "http://www.w3.org/Graphics/SVG/1.1/DTD/svg11.dtd">
<!-- Generated by graphviz version 2.36.0 (20140111.2315)
 -->
<!-- Title: sensor_msgs_JointState Pages: 1 -->
<!--zoomable 746 -->
<svg id="main" version="1.1" xmlns="http://www.w3.org/2000/svg" xmlns:xlink="http://www.w3.org/1999/xlink" xml:space="preserve" onload="init(evt)">
<style type="text/css"><![CDATA[
.edge:hover path { stroke: red; }
.edge:hover polygon { stroke: red; fill: red; }
]]></style>
<script type="text/javascript"><![CDATA[
var edges = document.getElementsByTagName('g');
if (edges && edges.length) {
  for (var i=0;i<edges.length;i++) {
    if (edges[i].id.substr(0,4)=='edge') {
      edges[i].setAttribute('class','edge');
    }
  }
}
]]></script>
        <defs>
                <circle id="rim" cx="0" cy="0" r="7"/>
                <circle id="rim2" cx="0" cy="0" r="3.5"/>
                <g id="zoomPlus">
                        <use xlink:href="#rim" fill="#404040">
                                <set attributeName="fill" to="#808080" begin="zoomplus.mouseover" end="zoomplus.mouseout"/>
                        </use>
                        <path d="M-4,0h8M0,-4v8" fill="none" stroke="white" stroke-width="1.5" pointer-events="none"/>
                </g>
                <g id="zoomMin">
                        <use xlink:href="#rim" fill="#404040">
                                <set attributeName="fill" to="#808080" begin="zoomminus.mouseover" end="zoomminus.mouseout"/>
                        </use>
                        <path d="M-4,0h8" fill="none" stroke="white" stroke-width="1.5" pointer-events="none"/>
                </g>
                <g id="dirArrow">
                        <path fill="none" stroke="white" stroke-width="1.5" d="M0,-3.0v7 M-2.5,-0.5L0,-3.0L2.5,-0.5"/>
                </g>
               <g id="resetDef">
                       <use xlink:href="#rim2" fill="#404040">
                               <set attributeName="fill" to="#808080" begin="reset.mouseover" end="reset.mouseout"/>
                       </use>
               </g>
        </defs>

<script type="text/javascript">
var viewWidth = 442;
var viewHeight = 746;
var sectionId = 'dynsection-1';
</script>
<script xlink:href="svgpan.js"/>
<svg id="graph" class="graph">
<g id="viewport">
<title>sensor_msgs_JointState</title>
<!-- Node1 -->
<g id="node1" class="node"><title>Node1</title>
<polygon fill="#bfbfbf" stroke="black" points="17.4474,-0.5 17.4474,-167.5 157.447,-167.5 157.447,-0.5 17.4474,-0.5"/>
<text text-anchor="middle" x="87.4474" y="-155.5" font-family="Helvetica,sans-Serif" font-size="10.00">sensor_msgs_JointState</text>
<polyline fill="none" stroke="black" points="17.4474,-148.5 157.447,-148.5 "/>
<text text-anchor="middle" x="87.4474" y="-136.5" font-family="Helvetica,sans-Serif" font-size="10.00"> </text>
<polyline fill="none" stroke="black" points="17.4474,-129.5 157.447,-129.5 "/>
<text text-anchor="start" x="25.4474" y="-117.5" font-family="Helvetica,sans-Serif" font-size="10.00">+ sensor_msgs_JointState()</text>
<text text-anchor="start" x="25.4474" y="-106.5" font-family="Helvetica,sans-Serif" font-size="10.00">+ clear()</text>
<text text-anchor="start" x="25.4474" y="-95.5" font-family="Helvetica,sans-Serif" font-size="10.00">+ readBare()</text>
<text text-anchor="start" x="25.4474" y="-84.5" font-family="Helvetica,sans-Serif" font-size="10.00">+ readBottle()</text>
<text text-anchor="start" x="25.4474" y="-73.5" font-family="Helvetica,sans-Serif" font-size="10.00">+ read()</text>
<text text-anchor="start" x="25.4474" y="-62.5" font-family="Helvetica,sans-Serif" font-size="10.00">+ writeBare()</text>
<text text-anchor="start" x="25.4474" y="-51.5" font-family="Helvetica,sans-Serif" font-size="10.00">+ writeBottle()</text>
<text text-anchor="start" x="25.4474" y="-40.5" font-family="Helvetica,sans-Serif" font-size="10.00">+ write()</text>
<text text-anchor="start" x="25.4474" y="-29.5" font-family="Helvetica,sans-Serif" font-size="10.00">+ getTypeText()</text>
<text text-anchor="start" x="25.4474" y="-18.5" font-family="Helvetica,sans-Serif" font-size="10.00">+ getType()</text>
<text text-anchor="start" x="25.4474" y="-7.5" font-family="Helvetica,sans-Serif" font-size="10.00">and 10 more...</text>
</g>
<!-- Node2 -->
<g id="node2" class="node"><title>Node2</title>
<g id="a_node2"><a xlink:href="classyarp_1_1os_1_1idl_1_1_wire_portable.html" target="_top" xlink:title="{WirePortable\n||}">
<polygon fill="none" stroke="black" points="13.9474,-680.5 13.9474,-737.5 86.9474,-737.5 86.9474,-680.5 13.9474,-680.5"/>
<text text-anchor="middle" x="50.4474" y="-725.5" font-family="Helvetica,sans-Serif" font-size="10.00">WirePortable</text>
<polyline fill="none" stroke="black" points="13.9474,-718.5 86.9474,-718.5 "/>
<text text-anchor="middle" x="50.4474" y="-706.5" font-family="Helvetica,sans-Serif" font-size="10.00"> </text>
<polyline fill="none" stroke="black" points="13.9474,-699.5 86.9474,-699.5 "/>
<text text-anchor="middle" x="50.4474" y="-687.5" font-family="Helvetica,sans-Serif" font-size="10.00"> </text>
</a>
</g>
</g>
<!-- Node2&#45;&gt;Node1 -->
<g id="edge1" class="edge"><title>Node2&#45;&gt;Node1</title>
<path fill="none" stroke="midnightblue" d="M36.9103,-670.724C15.4922,-590.609 -18.8102,-396.427 13.4474,-238 18.2554,-214.386 26.8422,-189.899 36.5435,-167.621"/>
<polygon fill="none" stroke="midnightblue" points="33.5386,-671.663 39.5815,-680.366 40.2845,-669.794 33.5386,-671.663"/>
</g>
<!-- Node2&#45;&gt;Node1 -->
<g id="edge2" class="edge"><title>Node2&#45;&gt;Node1</title>
<path fill="none" stroke="midnightblue" d="M46.5281,-670.233C33.3527,-589.818 -0.744545,-396.104 31.4474,-238 36.2554,-214.386 44.8422,-189.899 53.9188,-167.621"/>
<polygon fill="none" stroke="midnightblue" points="43.1153,-671.054 48.1684,-680.366 50.0254,-669.935 43.1153,-671.054"/>
</g>
<!-- Node4 -->
<g id="node4" class="node"><title>Node4</title>
<g id="a_node4"><a xlink:href="classstd__msgs___header.html" target="_top" xlink:title="{std_msgs_Header\n||+ std_msgs_Header()\l+ clear()\l+ readBare()\l+ readBottle()\l+ read()\l+ writeBare()\l+ writeBottle()\l+ write()\l+ getTypeText()\l+ getType()\land 10 more...\l}">
<polygon fill="none" stroke="black" points="31.9474,-238.5 31.9474,-405.5 142.947,-405.5 142.947,-238.5 31.9474,-238.5"/>
<text text-anchor="middle" x="87.4474" y="-393.5" font-family="Helvetica,sans-Serif" font-size="10.00">std_msgs_Header</text>
<polyline fill="none" stroke="black" points="31.9474,-386.5 142.947,-386.5 "/>
<text text-anchor="middle" x="87.4474" y="-374.5" font-family="Helvetica,sans-Serif" font-size="10.00"> </text>
<polyline fill="none" stroke="black" points="31.9474,-367.5 142.947,-367.5 "/>
<text text-anchor="start" x="39.9474" y="-355.5" font-family="Helvetica,sans-Serif" font-size="10.00">+ std_msgs_Header()</text>
<text text-anchor="start" x="39.9474" y="-344.5" font-family="Helvetica,sans-Serif" font-size="10.00">+ clear()</text>
<text text-anchor="start" x="39.9474" y="-333.5" font-family="Helvetica,sans-Serif" font-size="10.00">+ readBare()</text>
<text text-anchor="start" x="39.9474" y="-322.5" font-family="Helvetica,sans-Serif" font-size="10.00">+ readBottle()</text>
<text text-anchor="start" x="39.9474" y="-311.5" font-family="Helvetica,sans-Serif" font-size="10.00">+ read()</text>
<text text-anchor="start" x="39.9474" y="-300.5" font-family="Helvetica,sans-Serif" font-size="10.00">+ writeBare()</text>
<text text-anchor="start" x="39.9474" y="-289.5" font-family="Helvetica,sans-Serif" font-size="10.00">+ writeBottle()</text>
<text text-anchor="start" x="39.9474" y="-278.5" font-family="Helvetica,sans-Serif" font-size="10.00">+ write()</text>
<text text-anchor="start" x="39.9474" y="-267.5" font-family="Helvetica,sans-Serif" font-size="10.00">+ getTypeText()</text>
<text text-anchor="start" x="39.9474" y="-256.5" font-family="Helvetica,sans-Serif" font-size="10.00">+ getType()</text>
<text text-anchor="start" x="39.9474" y="-245.5" font-family="Helvetica,sans-Serif" font-size="10.00">and 10 more...</text>
</a>
</g>
</g>
<!-- Node2&#45;&gt;Node4 -->
<g id="edge5" class="edge"><title>Node2&#45;&gt;Node4</title>
<path fill="none" stroke="midnightblue" d="M49.8717,-669.976C52.9596,-608.85 64.1637,-487.318 73.8553,-405.57"/>
<polygon fill="none" stroke="midnightblue" points="46.3598,-670.164 49.4054,-680.312 53.3527,-670.48 46.3598,-670.164"/>
</g>
<!-- Node2&#45;&gt;Node4 -->
<g id="edge6" class="edge"><title>Node2&#45;&gt;Node4</title>
<path fill="none" stroke="midnightblue" d="M58.2777,-670.355C66.9423,-609.353 79.1355,-487.487 85.1689,-405.57"/>
<polygon fill="none" stroke="midnightblue" points="54.8059,-669.908 56.8113,-680.312 61.7311,-670.929 54.8059,-669.908"/>
</g>
<!-- Node5 -->
<g id="node5" class="node"><title>Node5</title>
<g id="a_node5"><a xlink:href="class_tick_time.html" target="_top" xlink:title="{TickTime\n||+ TickTime()\l+ clear()\l+ readBare()\l+ readBottle()\l+ read()\l+ writeBare()\l+ writeBottle()\l+ write()\l+ getTypeText()\l+ getType()\land 10 more...\l}">
<polygon fill="none" stroke="black" points="87.4474,-454.5 87.4474,-621.5 173.447,-621.5 173.447,-454.5 87.4474,-454.5"/>
<text text-anchor="middle" x="130.447" y="-609.5" font-family="Helvetica,sans-Serif" font-size="10.00">TickTime</text>
<polyline fill="none" stroke="black" points="87.4474,-602.5 173.447,-602.5 "/>
<text text-anchor="middle" x="130.447" y="-590.5" font-family="Helvetica,sans-Serif" font-size="10.00"> </text>
<polyline fill="none" stroke="black" points="87.4474,-583.5 173.447,-583.5 "/>
<text text-anchor="start" x="95.4474" y="-571.5" font-family="Helvetica,sans-Serif" font-size="10.00">+ TickTime()</text>
<text text-anchor="start" x="95.4474" y="-560.5" font-family="Helvetica,sans-Serif" font-size="10.00">+ clear()</text>
<text text-anchor="start" x="95.4474" y="-549.5" font-family="Helvetica,sans-Serif" font-size="10.00">+ readBare()</text>
<text text-anchor="start" x="95.4474" y="-538.5" font-family="Helvetica,sans-Serif" font-size="10.00">+ readBottle()</text>
<text text-anchor="start" x="95.4474" y="-527.5" font-family="Helvetica,sans-Serif" font-size="10.00">+ read()</text>
<text text-anchor="start" x="95.4474" y="-516.5" font-family="Helvetica,sans-Serif" font-size="10.00">+ writeBare()</text>
<text text-anchor="start" x="95.4474" y="-505.5" font-family="Helvetica,sans-Serif" font-size="10.00">+ writeBottle()</text>
<text text-anchor="start" x="95.4474" y="-494.5" font-family="Helvetica,sans-Serif" font-size="10.00">+ write()</text>
<text text-anchor="start" x="95.4474" y="-483.5" font-family="Helvetica,sans-Serif" font-size="10.00">+ getTypeText()</text>
<text text-anchor="start" x="95.4474" y="-472.5" font-family="Helvetica,sans-Serif" font-size="10.00">+ getType()</text>
<text text-anchor="start" x="95.4474" y="-461.5" font-family="Helvetica,sans-Serif" font-size="10.00">and 10 more...</text>
</a>
</g>
</g>
<!-- Node2&#45;&gt;Node5 -->
<g id="edge8" class="edge"><title>Node2&#45;&gt;Node5</title>
<path fill="none" stroke="midnightblue" d="M60.0251,-671.14C61.5145,-668.053 63.014,-664.976 64.4474,-662 71.902,-646.52 79.74,-629.867 87.3454,-613.969"/>
<polygon fill="none" stroke="midnightblue" points="56.7868,-669.8 55.6635,-680.335 63.1114,-672.8 56.7868,-669.8"/>
</g>
<!-- Node2&#45;&gt;Node5 -->
<g id="edge9" class="edge"><title>Node2&#45;&gt;Node5</title>
<path fill="none" stroke="midnightblue" d="M77.8259,-671.429C79.4207,-668.246 80.9692,-665.069 82.4474,-662 88.7276,-648.959 95.28,-635.085 101.487,-621.531"/>
<polygon fill="none" stroke="midnightblue" points="74.7055,-669.844 73.2287,-680.335 80.9257,-673.055 74.7055,-669.844"/>
</g>
<!-- Node3 -->
<g id="node3" class="node"><title>Node3</title>
<polygon fill="none" stroke="#bfbfbf" points="160.947,-293.5 160.947,-350.5 265.947,-350.5 265.947,-293.5 160.947,-293.5"/>
<text text-anchor="middle" x="213.447" y="-338.5" font-family="Helvetica,sans-Serif" font-size="10.00">vector&lt; std::string &gt;</text>
<polyline fill="none" stroke="#bfbfbf" points="160.947,-331.5 265.947,-331.5 "/>
<text text-anchor="middle" x="213.447" y="-319.5" font-family="Helvetica,sans-Serif" font-size="10.00"> </text>
<polyline fill="none" stroke="#bfbfbf" points="160.947,-312.5 265.947,-312.5 "/>
<text text-anchor="middle" x="213.447" y="-300.5" font-family="Helvetica,sans-Serif" font-size="10.00"> </text>
</g>
<!-- Node3&#45;&gt;Node1 -->
<g id="edge3" class="edge"><title>Node3&#45;&gt;Node1</title>
<path fill="none" stroke="#404040" d="M198.747,-293.466C183.668,-265.223 159.363,-219.7 137.307,-178.389"/>
<polygon fill="none" stroke="#404040" points="137.258,-178.296 130.904,-174.887 131.606,-167.71 137.961,-171.119 137.258,-178.296"/>
<text text-anchor="middle" x="175.447" y="-200.5" font-family="Helvetica,sans-Serif" font-size="10.00"> +name</text>
</g>
<!-- Node4&#45;&gt;Node1 -->
<g id="edge4" class="edge"><title>Node4&#45;&gt;Node1</title>
<path fill="none" stroke="#404040" d="M87.4474,-238.459C87.4474,-219.615 87.4474,-199.441 87.4474,-180.119"/>
<polygon fill="none" stroke="#404040" points="87.4475,-179.894 83.4474,-173.894 87.4474,-167.894 91.4474,-173.894 87.4475,-179.894"/>
<text text-anchor="middle" x="106.947" y="-200.5" font-family="Helvetica,sans-Serif" font-size="10.00"> +header</text>
</g>
<!-- Node5&#45;&gt;Node4 -->
<g id="edge7" class="edge"><title>Node5&#45;&gt;Node4</title>
<path fill="none" stroke="#404040" d="M113.822,-454.262C111.412,-442.265 108.915,-429.839 106.462,-417.63"/>
<polygon fill="none" stroke="#404040" points="106.392,-417.283 101.289,-412.188 104.028,-405.518 109.132,-410.612 106.392,-417.283"/>
<text text-anchor="middle" x="127.947" y="-427.5" font-family="Helvetica,sans-Serif" font-size="10.00"> +stamp</text>
</g>
<!-- Node6 -->
<g id="node6" class="node"><title>Node6</title>
<polygon fill="none" stroke="#bfbfbf" points="119.947,-680.5 119.947,-737.5 180.947,-737.5 180.947,-680.5 119.947,-680.5"/>
<text text-anchor="middle" x="150.447" y="-725.5" font-family="Helvetica,sans-Serif" font-size="10.00">NetUint32</text>
<polyline fill="none" stroke="#bfbfbf" points="119.947,-718.5 180.947,-718.5 "/>
<text text-anchor="middle" x="150.447" y="-706.5" font-family="Helvetica,sans-Serif" font-size="10.00"> </text>
<polyline fill="none" stroke="#bfbfbf" points="119.947,-699.5 180.947,-699.5 "/>
<text text-anchor="middle" x="150.447" y="-687.5" font-family="Helvetica,sans-Serif" font-size="10.00"> </text>
</g>
<!-- Node6&#45;&gt;Node4 -->
<g id="edge11" class="edge"><title>Node6&#45;&gt;Node4</title>
<path fill="none" stroke="#404040" d="M169.192,-680.157C172.398,-674.358 175.362,-668.137 177.447,-662 197.11,-604.136 198.012,-501.976 182.447,-454 180.38,-447.628 166.667,-427.821 150.273,-405.475"/>
<polygon fill="none" stroke="#404040" points="150.238,-405.427 143.456,-402.976 143.109,-395.774 149.891,-398.224 150.238,-405.427"/>
<text text-anchor="middle" x="205.947" y="-535.5" font-family="Helvetica,sans-Serif" font-size="10.00"> +seq</text>
</g>
<!-- Node6&#45;&gt;Node5 -->
<g id="edge10" class="edge"><title>Node6&#45;&gt;Node5</title>
<path fill="none" stroke="#404040" d="M147.19,-680.471C145.634,-667.324 143.67,-650.733 141.64,-633.58"/>
<polygon fill="none" stroke="#404040" points="141.639,-633.567 136.961,-628.079 140.228,-621.65 144.906,-627.139 141.639,-633.567"/>
<text text-anchor="middle" x="159.447" y="-654" font-family="Helvetica,sans-Serif" font-size="10.00"> +sec</text>
<text text-anchor="middle" x="159.447" y="-643" font-family="Helvetica,sans-Serif" font-size="10.00">+nsec</text>
</g>
<!-- Node7 -->
<g id="node7" class="node"><title>Node7</title>
<polygon fill="none" stroke="#bfbfbf" points="252.947,-509.5 252.947,-566.5 293.947,-566.5 293.947,-509.5 252.947,-509.5"/>
<text text-anchor="middle" x="273.447" y="-554.5" font-family="Helvetica,sans-Serif" font-size="10.00">string</text>
<polyline fill="none" stroke="#bfbfbf" points="252.947,-547.5 293.947,-547.5 "/>
<text text-anchor="middle" x="273.447" y="-535.5" font-family="Helvetica,sans-Serif" font-size="10.00"> </text>
<polyline fill="none" stroke="#bfbfbf" points="252.947,-528.5 293.947,-528.5 "/>
<text text-anchor="middle" x="273.447" y="-516.5" font-family="Helvetica,sans-Serif" font-size="10.00"> </text>
</g>
<!-- Node7&#45;&gt;Node4 -->
<g id="edge12" class="edge"><title>Node7&#45;&gt;Node4</title>
<path fill="none" stroke="#404040" d="M268.699,-509.324C262.736,-483.282 249.887,-445.209 223.447,-424 200.331,-405.457 182.913,-420.283 153.474,-405.912"/>
<polygon fill="none" stroke="#404040" points="153.38,-405.857 146.182,-406.302 143.004,-399.829 150.201,-399.384 153.38,-405.857"/>
<text text-anchor="middle" x="258.947" y="-427.5" font-family="Helvetica,sans-Serif" font-size="10.00"> +frame_id</text>
</g>
<!-- Node8 -->
<g id="node8" class="node"><title>Node8</title>
<polygon fill="none" stroke="#bfbfbf" points="283.947,-293.5 283.947,-350.5 434.947,-350.5 434.947,-293.5 283.947,-293.5"/>
<text text-anchor="middle" x="359.447" y="-338.5" font-family="Helvetica,sans-Serif" font-size="10.00">vector&lt; yarp::os::NetFloat64 &gt;</text>
<polyline fill="none" stroke="#bfbfbf" points="283.947,-331.5 434.947,-331.5 "/>
<text text-anchor="middle" x="359.447" y="-319.5" font-family="Helvetica,sans-Serif" font-size="10.00"> </text>
<polyline fill="none" stroke="#bfbfbf" points="283.947,-312.5 434.947,-312.5 "/>
<text text-anchor="middle" x="359.447" y="-300.5" font-family="Helvetica,sans-Serif" font-size="10.00"> </text>
</g>
<!-- Node8&#45;&gt;Node1 -->
<g id="edge13" class="edge"><title>Node8&#45;&gt;Node1</title>
<path fill="none" stroke="#404040" d="M332.469,-293.462C316.042,-276.997 294.435,-255.873 274.447,-238 240.007,-207.202 200.585,-174.583 166.845,-147.411"/>
<polygon fill="none" stroke="#404040" points="166.845,-147.411 159.662,-146.774 157.488,-139.898 164.671,-140.536 166.845,-147.411"/>
<text text-anchor="middle" x="270.447" y="-211.5" font-family="Helvetica,sans-Serif" font-size="10.00"> +effort</text>
<text text-anchor="middle" x="270.447" y="-200.5" font-family="Helvetica,sans-Serif" font-size="10.00">+velocity</text>
<text text-anchor="middle" x="270.447" y="-189.5" font-family="Helvetica,sans-Serif" font-size="10.00">+position</text>
</g>
</g>
</svg>
        <g id="navigator" transform="translate(0 0)" fill="#404254">
                <rect fill="#f2f5e9" fill-opacity="0.5" stroke="#606060" stroke-width=".5" x="0" y="0" width="60" height="60"/>
                <use id="zoomplus" xlink:href="#zoomPlus" x="17" y="9" onmousedown="handleZoom(evt,'in')"/>
                <use id="zoomminus" xlink:href="#zoomMin" x="42" y="9" onmousedown="handleZoom(evt,'out')"/>
                <use id="reset" xlink:href="#resetDef" x="30" y="36" onmousedown="handleReset()"/>
                <g id="arrowUp" xlink:href="#dirArrow" transform="translate(30 24)" onmousedown="handlePan(0,-1)">
                  <use xlink:href="#rim" fill="#404040">
                        <set attributeName="fill" to="#808080" begin="arrowUp.mouseover" end="arrowUp.mouseout"/>
                  </use>
                  <path fill="none" stroke="white" stroke-width="1.5" d="M0,-3.0v7 M-2.5,-0.5L0,-3.0L2.5,-0.5"/>
                </g>
                <g id="arrowRight" xlink:href="#dirArrow" transform="rotate(90) translate(36 -43)" onmousedown="handlePan(1,0)">
                  <use xlink:href="#rim" fill="#404040">
                        <set attributeName="fill" to="#808080" begin="arrowRight.mouseover" end="arrowRight.mouseout"/>
                  </use>
                  <path fill="none" stroke="white" stroke-width="1.5" d="M0,-3.0v7 M-2.5,-0.5L0,-3.0L2.5,-0.5"/>
                </g>
                <g id="arrowDown" xlink:href="#dirArrow" transform="rotate(180) translate(-30 -48)" onmousedown="handlePan(0,1)">
                  <use xlink:href="#rim" fill="#404040">
                        <set attributeName="fill" to="#808080" begin="arrowDown.mouseover" end="arrowDown.mouseout"/>
                  </use>
                  <path fill="none" stroke="white" stroke-width="1.5" d="M0,-3.0v7 M-2.5,-0.5L0,-3.0L2.5,-0.5"/>
                </g>
                <g id="arrowLeft" xlink:href="#dirArrow" transform="rotate(270) translate(-36 17)" onmousedown="handlePan(-1,0)">
                  <use xlink:href="#rim" fill="#404040">
                        <set attributeName="fill" to="#808080" begin="arrowLeft.mouseover" end="arrowLeft.mouseout"/>
                  </use>
                  <path fill="none" stroke="white" stroke-width="1.5" d="M0,-3.0v7 M-2.5,-0.5L0,-3.0L2.5,-0.5"/>
                </g>
        </g>
        <svg viewBox="0 0 15 15" width="100%" height="30px" preserveAspectRatio="xMaxYMin meet">
         <g id="arrow_out" transform="scale(0.3 0.3)">
          <a xlink:href="classsensor__msgs___joint_state__coll__graph_org.svg" target="_base">
           <rect id="button" ry="5" rx="5" y="6" x="6" height="38" width="38"
                fill="#f2f5e9" fill-opacity="0.5" stroke="#606060" stroke-width="1.0"/>
           <path id="arrow"
             d="M 11.500037,31.436501 C 11.940474,20.09759 22.043105,11.32322 32.158766,21.979434 L 37.068811,17.246167 C 37.068811,17.246167 37.088388,32 37.088388,32 L 22.160133,31.978069 C 22.160133,31.978069 26.997745,27.140456 26.997745,27.140456 C 18.528582,18.264221 13.291696,25.230495 11.500037,31.436501 z"
             style="fill:#404040;"/>
          </a>
         </g>
        </svg>
</svg>
