<?xml version="1.0" encoding="UTF-8" standalone="no"?>
<!DOCTYPE svg PUBLIC "-//W3C//DTD SVG 1.1//EN"
 "http://www.w3.org/Graphics/SVG/1.1/DTD/svg11.dtd">
<!-- Generated by graphviz version 2.36.0 (20140111.2315)
 -->
<!-- Title: human::InverseKinematics::InverseKinematicsPrivate Pages: 1 -->
<!--zoomable 272 -->
<svg id="main" version="1.1" xmlns="http://www.w3.org/2000/svg" xmlns:xlink="http://www.w3.org/1999/xlink" xml:space="preserve" onload="init(evt)">
<style type="text/css"><![CDATA[
.edge:hover path { stroke: red; }
.edge:hover polygon { stroke: red; fill: red; }
]]></style>
<script type="text/javascript"><![CDATA[
var edges = document.getElementsByTagName('g');
if (edges && edges.length) {
  for (var i=0;i<edges.length;i++) {
    if (edges[i].id.substr(0,4)=='edge') {
      edges[i].setAttribute('class','edge');
    }
  }
}
]]></script>
        <defs>
                <circle id="rim" cx="0" cy="0" r="7"/>
                <circle id="rim2" cx="0" cy="0" r="3.5"/>
                <g id="zoomPlus">
                        <use xlink:href="#rim" fill="#404040">
                                <set attributeName="fill" to="#808080" begin="zoomplus.mouseover" end="zoomplus.mouseout"/>
                        </use>
                        <path d="M-4,0h8M0,-4v8" fill="none" stroke="white" stroke-width="1.5" pointer-events="none"/>
                </g>
                <g id="zoomMin">
                        <use xlink:href="#rim" fill="#404040">
                                <set attributeName="fill" to="#808080" begin="zoomminus.mouseover" end="zoomminus.mouseout"/>
                        </use>
                        <path d="M-4,0h8" fill="none" stroke="white" stroke-width="1.5" pointer-events="none"/>
                </g>
                <g id="dirArrow">
                        <path fill="none" stroke="white" stroke-width="1.5" d="M0,-3.0v7 M-2.5,-0.5L0,-3.0L2.5,-0.5"/>
                </g>
               <g id="resetDef">
                       <use xlink:href="#rim2" fill="#404040">
                               <set attributeName="fill" to="#808080" begin="reset.mouseover" end="reset.mouseout"/>
                       </use>
               </g>
        </defs>

<script type="text/javascript">
var viewWidth = 707;
var viewHeight = 272;
var sectionId = 'dynsection-0';
</script>
<script xlink:href="svgpan.js"/>
<svg id="graph" class="graph">
<g id="viewport">
<title>human::InverseKinematics::InverseKinematicsPrivate</title>
<!-- Node1 -->
<g id="node1" class="node"><title>Node1</title>
<polygon fill="#bfbfbf" stroke="black" points="317.5,-0.5 317.5,-123.5 484.5,-123.5 484.5,-0.5 317.5,-0.5"/>
<text text-anchor="start" x="325.5" y="-111.5" font-family="Helvetica,sans-Serif" font-size="10.00">human::InverseKinematics</text>
<text text-anchor="middle" x="401" y="-100.5" font-family="Helvetica,sans-Serif" font-size="10.00">::InverseKinematicsPrivate</text>
<polyline fill="none" stroke="black" points="317.5,-93.5 484.5,-93.5 "/>
<text text-anchor="middle" x="401" y="-81.5" font-family="Helvetica,sans-Serif" font-size="10.00"> </text>
<polyline fill="none" stroke="black" points="317.5,-74.5 484.5,-74.5 "/>
<text text-anchor="start" x="325.5" y="-62.5" font-family="Helvetica,sans-Serif" font-size="10.00">+ InverseKinematicsPrivate()</text>
<text text-anchor="start" x="325.5" y="-51.5" font-family="Helvetica,sans-Serif" font-size="10.00">+ update()</text>
<text text-anchor="start" x="325.5" y="-40.5" font-family="Helvetica,sans-Serif" font-size="10.00">+ getReducedModel()</text>
<text text-anchor="start" x="325.5" y="-29.5" font-family="Helvetica,sans-Serif" font-size="10.00">+ getFrameIndeces()</text>
<text text-anchor="start" x="325.5" y="-18.5" font-family="Helvetica,sans-Serif" font-size="10.00">+ removeUnsupportedJoints()</text>
<text text-anchor="start" x="325.5" y="-7.5" font-family="Helvetica,sans-Serif" font-size="10.00">+ autoSelectJointsFromTraversal()</text>
</g>
<!-- Node2 -->
<g id="node2" class="node"><title>Node2</title>
<polygon fill="none" stroke="#bfbfbf" points="0,-195 0,-263 146,-263 146,-195 0,-195"/>
<text text-anchor="start" x="8" y="-251" font-family="Helvetica,sans-Serif" font-size="10.00">SmartPtr&lt; InverseKinematics</text>
<text text-anchor="middle" x="73" y="-240" font-family="Helvetica,sans-Serif" font-size="10.00">V2IPOPT &gt;</text>
<polyline fill="none" stroke="#bfbfbf" points="0,-233 146,-233 "/>
<text text-anchor="middle" x="73" y="-221" font-family="Helvetica,sans-Serif" font-size="10.00"> </text>
<polyline fill="none" stroke="#bfbfbf" points="0,-214 146,-214 "/>
<text text-anchor="middle" x="73" y="-202" font-family="Helvetica,sans-Serif" font-size="10.00"> </text>
</g>
<!-- Node2&#45;&gt;Node1 -->
<g id="edge1" class="edge"><title>Node2&#45;&gt;Node1</title>
<path fill="none" stroke="#404040" d="M122.796,-194.836C149.067,-178.006 182.168,-157.83 213,-142 242.603,-126.801 275.811,-112.113 305.987,-99.6105"/>
<polygon fill="none" stroke="#404040" points="306.288,-99.4866 310.32,-93.5075 317.389,-94.929 313.358,-100.908 306.288,-99.4866"/>
<text text-anchor="middle" x="246.5" y="-156.5" font-family="Helvetica,sans-Serif" font-size="10.00"> +solverPointer</text>
</g>
<!-- Node3 -->
<g id="node3" class="node"><title>Node3</title>
<polygon fill="none" stroke="#bfbfbf" points="164.5,-200.5 164.5,-257.5 335.5,-257.5 335.5,-200.5 164.5,-200.5"/>
<text text-anchor="middle" x="250" y="-245.5" font-family="Helvetica,sans-Serif" font-size="10.00">SmartPtr&lt; Ipopt::IpoptApplication &gt;</text>
<polyline fill="none" stroke="#bfbfbf" points="164.5,-238.5 335.5,-238.5 "/>
<text text-anchor="middle" x="250" y="-226.5" font-family="Helvetica,sans-Serif" font-size="10.00"> </text>
<polyline fill="none" stroke="#bfbfbf" points="164.5,-219.5 335.5,-219.5 "/>
<text text-anchor="middle" x="250" y="-207.5" font-family="Helvetica,sans-Serif" font-size="10.00"> </text>
</g>
<!-- Node3&#45;&gt;Node1 -->
<g id="edge2" class="edge"><title>Node3&#45;&gt;Node1</title>
<path fill="none" stroke="#404040" d="M267.166,-200.434C278.632,-182.927 294.576,-160.218 311,-142 313.958,-138.719 317.046,-135.438 320.22,-132.18"/>
<polygon fill="none" stroke="#404040" points="320.301,-132.099 321.725,-125.029 328.798,-123.625 327.374,-130.694 320.301,-132.099"/>
<text text-anchor="middle" x="329" y="-156.5" font-family="Helvetica,sans-Serif" font-size="10.00"> +loader</text>
</g>
<!-- Node4 -->
<g id="node4" class="node"><title>Node4</title>
<polygon fill="none" stroke="#bfbfbf" points="353.5,-200.5 353.5,-257.5 394.5,-257.5 394.5,-200.5 353.5,-200.5"/>
<text text-anchor="middle" x="374" y="-245.5" font-family="Helvetica,sans-Serif" font-size="10.00">string</text>
<polyline fill="none" stroke="#bfbfbf" points="353.5,-238.5 394.5,-238.5 "/>
<text text-anchor="middle" x="374" y="-226.5" font-family="Helvetica,sans-Serif" font-size="10.00"> </text>
<polyline fill="none" stroke="#bfbfbf" points="353.5,-219.5 394.5,-219.5 "/>
<text text-anchor="middle" x="374" y="-207.5" font-family="Helvetica,sans-Serif" font-size="10.00"> </text>
</g>
<!-- Node4&#45;&gt;Node1 -->
<g id="edge3" class="edge"><title>Node4&#45;&gt;Node1</title>
<path fill="none" stroke="#404040" d="M359.986,-200.379C353.198,-183.453 347.572,-161.388 353,-142 353.676,-139.585 354.448,-137.171 355.303,-134.766"/>
<polygon fill="none" stroke="#404040" points="355.319,-134.727 353.878,-127.662 359.846,-123.614 361.287,-130.68 355.319,-134.727"/>
<text text-anchor="middle" x="391" y="-167.5" font-family="Helvetica,sans-Serif" font-size="10.00"> +m_solverName</text>
<text text-anchor="middle" x="391" y="-156.5" font-family="Helvetica,sans-Serif" font-size="10.00">+_parentFrame</text>
<text text-anchor="middle" x="391" y="-145.5" font-family="Helvetica,sans-Serif" font-size="10.00">+_targetFrame</text>
</g>
<!-- Node5 -->
<g id="node5" class="node"><title>Node5</title>
<polygon fill="none" stroke="#bfbfbf" points="433.5,-200.5 433.5,-257.5 468.5,-257.5 468.5,-200.5 433.5,-200.5"/>
<text text-anchor="middle" x="451" y="-245.5" font-family="Helvetica,sans-Serif" font-size="10.00">bool</text>
<polyline fill="none" stroke="#bfbfbf" points="433.5,-238.5 468.5,-238.5 "/>
<text text-anchor="middle" x="451" y="-226.5" font-family="Helvetica,sans-Serif" font-size="10.00"> </text>
<polyline fill="none" stroke="#bfbfbf" points="433.5,-219.5 468.5,-219.5 "/>
<text text-anchor="middle" x="451" y="-207.5" font-family="Helvetica,sans-Serif" font-size="10.00"> </text>
</g>
<!-- Node5&#45;&gt;Node1 -->
<g id="edge4" class="edge"><title>Node5&#45;&gt;Node1</title>
<path fill="none" stroke="#404040" d="M444.592,-200.326C440.503,-183.381 434.88,-161.314 429,-142 428.317,-139.755 427.608,-137.48 426.881,-135.187"/>
<polygon fill="none" stroke="#404040" points="426.833,-135.039 421.169,-130.575 423.111,-123.631 428.774,-128.094 426.833,-135.039"/>
<text text-anchor="middle" x="480" y="-167.5" font-family="Helvetica,sans-Serif" font-size="10.00"> +initialized</text>
<text text-anchor="middle" x="480" y="-156.5" font-family="Helvetica,sans-Serif" font-size="10.00">+updated</text>
<text text-anchor="middle" x="480" y="-145.5" font-family="Helvetica,sans-Serif" font-size="10.00">+alreadyOptimized</text>
</g>
<!-- Node6 -->
<g id="node6" class="node"><title>Node6</title>
<polygon fill="none" stroke="#bfbfbf" points="528,-200.5 528,-257.5 584,-257.5 584,-200.5 528,-200.5"/>
<text text-anchor="middle" x="556" y="-245.5" font-family="Helvetica,sans-Serif" font-size="10.00">unsigned</text>
<polyline fill="none" stroke="#bfbfbf" points="528,-238.5 584,-238.5 "/>
<text text-anchor="middle" x="556" y="-226.5" font-family="Helvetica,sans-Serif" font-size="10.00"> </text>
<polyline fill="none" stroke="#bfbfbf" points="528,-219.5 584,-219.5 "/>
<text text-anchor="middle" x="556" y="-207.5" font-family="Helvetica,sans-Serif" font-size="10.00"> </text>
</g>
<!-- Node6&#45;&gt;Node1 -->
<g id="edge5" class="edge"><title>Node6&#45;&gt;Node1</title>
<path fill="none" stroke="#404040" d="M550.84,-200.136C546.39,-182.073 538.484,-158.854 525,-142 516.28,-131.1 505.626,-121.251 494.264,-112.503"/>
<polygon fill="none" stroke="#404040" points="494.262,-112.502 487.058,-112.186 484.579,-105.414 491.783,-105.73 494.262,-112.502"/>
<text text-anchor="middle" x="578" y="-162" font-family="Helvetica,sans-Serif" font-size="10.00"> +maxIterations</text>
<text text-anchor="middle" x="578" y="-151" font-family="Helvetica,sans-Serif" font-size="10.00">+verbosityLevel</text>
</g>
<!-- Node7 -->
<g id="node7" class="node"><title>Node7</title>
<polygon fill="none" stroke="#bfbfbf" points="607.5,-200.5 607.5,-257.5 690.5,-257.5 690.5,-200.5 607.5,-200.5"/>
<text text-anchor="middle" x="649" y="-245.5" font-family="Helvetica,sans-Serif" font-size="10.00">VectorDynSize</text>
<polyline fill="none" stroke="#bfbfbf" points="607.5,-238.5 690.5,-238.5 "/>
<text text-anchor="middle" x="649" y="-226.5" font-family="Helvetica,sans-Serif" font-size="10.00"> </text>
<polyline fill="none" stroke="#bfbfbf" points="607.5,-219.5 690.5,-219.5 "/>
<text text-anchor="middle" x="649" y="-207.5" font-family="Helvetica,sans-Serif" font-size="10.00"> </text>
</g>
<!-- Node7&#45;&gt;Node1 -->
<g id="edge6" class="edge"><title>Node7&#45;&gt;Node1</title>
<path fill="none" stroke="#404040" d="M644.897,-200.314C640.786,-181.626 632.702,-157.614 617,-142 584.655,-109.835 538.163,-90.6451 496.591,-79.2555"/>
<polygon fill="none" stroke="#404040" points="496.343,-79.1911 489.53,-81.5551 484.728,-76.1757 491.541,-73.8118 496.343,-79.1911"/>
<text text-anchor="middle" x="668.5" y="-162" font-family="Helvetica,sans-Serif" font-size="10.00"> +lastSolution</text>
<text text-anchor="middle" x="668.5" y="-151" font-family="Helvetica,sans-Serif" font-size="10.00">+tempGuess</text>
</g>
</g>
</svg>
        <g id="navigator" transform="translate(0 0)" fill="#404254">
                <rect fill="#f2f5e9" fill-opacity="0.5" stroke="#606060" stroke-width=".5" x="0" y="0" width="60" height="60"/>
                <use id="zoomplus" xlink:href="#zoomPlus" x="17" y="9" onmousedown="handleZoom(evt,'in')"/>
                <use id="zoomminus" xlink:href="#zoomMin" x="42" y="9" onmousedown="handleZoom(evt,'out')"/>
                <use id="reset" xlink:href="#resetDef" x="30" y="36" onmousedown="handleReset()"/>
                <g id="arrowUp" xlink:href="#dirArrow" transform="translate(30 24)" onmousedown="handlePan(0,-1)">
                  <use xlink:href="#rim" fill="#404040">
                        <set attributeName="fill" to="#808080" begin="arrowUp.mouseover" end="arrowUp.mouseout"/>
                  </use>
                  <path fill="none" stroke="white" stroke-width="1.5" d="M0,-3.0v7 M-2.5,-0.5L0,-3.0L2.5,-0.5"/>
                </g>
                <g id="arrowRight" xlink:href="#dirArrow" transform="rotate(90) translate(36 -43)" onmousedown="handlePan(1,0)">
                  <use xlink:href="#rim" fill="#404040">
                        <set attributeName="fill" to="#808080" begin="arrowRight.mouseover" end="arrowRight.mouseout"/>
                  </use>
                  <path fill="none" stroke="white" stroke-width="1.5" d="M0,-3.0v7 M-2.5,-0.5L0,-3.0L2.5,-0.5"/>
                </g>
                <g id="arrowDown" xlink:href="#dirArrow" transform="rotate(180) translate(-30 -48)" onmousedown="handlePan(0,1)">
                  <use xlink:href="#rim" fill="#404040">
                        <set attributeName="fill" to="#808080" begin="arrowDown.mouseover" end="arrowDown.mouseout"/>
                  </use>
                  <path fill="none" stroke="white" stroke-width="1.5" d="M0,-3.0v7 M-2.5,-0.5L0,-3.0L2.5,-0.5"/>
                </g>
                <g id="arrowLeft" xlink:href="#dirArrow" transform="rotate(270) translate(-36 17)" onmousedown="handlePan(-1,0)">
                  <use xlink:href="#rim" fill="#404040">
                        <set attributeName="fill" to="#808080" begin="arrowLeft.mouseover" end="arrowLeft.mouseout"/>
                  </use>
                  <path fill="none" stroke="white" stroke-width="1.5" d="M0,-3.0v7 M-2.5,-0.5L0,-3.0L2.5,-0.5"/>
                </g>
        </g>
        <svg viewBox="0 0 15 15" width="100%" height="30px" preserveAspectRatio="xMaxYMin meet">
         <g id="arrow_out" transform="scale(0.3 0.3)">
          <a xlink:href="classhuman_1_1_inverse_kinematics_1_1_inverse_kinematics_private__coll__graph_org.svg" target="_base">
           <rect id="button" ry="5" rx="5" y="6" x="6" height="38" width="38"
                fill="#f2f5e9" fill-opacity="0.5" stroke="#606060" stroke-width="1.0"/>
           <path id="arrow"
             d="M 11.500037,31.436501 C 11.940474,20.09759 22.043105,11.32322 32.158766,21.979434 L 37.068811,17.246167 C 37.068811,17.246167 37.088388,32 37.088388,32 L 22.160133,31.978069 C 22.160133,31.978069 26.997745,27.140456 26.997745,27.140456 C 18.528582,18.264221 13.291696,25.230495 11.500037,31.436501 z"
             style="fill:#404040;"/>
          </a>
         </g>
        </svg>
</svg>
