<?xml version="1.0" encoding="UTF-8" standalone="no"?>
<!DOCTYPE svg PUBLIC "-//W3C//DTD SVG 1.1//EN"
 "http://www.w3.org/Graphics/SVG/1.1/DTD/svg11.dtd">
<!-- Generated by graphviz version 2.36.0 (20140111.2315)
 -->
<!-- Title: human::HumanStateProvider::HumanStateProviderPrivate Pages: 1 -->
<!--zoomable 478 -->
<svg id="main" version="1.1" xmlns="http://www.w3.org/2000/svg" xmlns:xlink="http://www.w3.org/1999/xlink" xml:space="preserve" onload="init(evt)">
<style type="text/css"><![CDATA[
.edge:hover path { stroke: red; }
.edge:hover polygon { stroke: red; fill: red; }
]]></style>
<script type="text/javascript"><![CDATA[
var edges = document.getElementsByTagName('g');
if (edges && edges.length) {
  for (var i=0;i<edges.length;i++) {
    if (edges[i].id.substr(0,4)=='edge') {
      edges[i].setAttribute('class','edge');
    }
  }
}
]]></script>
        <defs>
                <circle id="rim" cx="0" cy="0" r="7"/>
                <circle id="rim2" cx="0" cy="0" r="3.5"/>
                <g id="zoomPlus">
                        <use xlink:href="#rim" fill="#404040">
                                <set attributeName="fill" to="#808080" begin="zoomplus.mouseover" end="zoomplus.mouseout"/>
                        </use>
                        <path d="M-4,0h8M0,-4v8" fill="none" stroke="white" stroke-width="1.5" pointer-events="none"/>
                </g>
                <g id="zoomMin">
                        <use xlink:href="#rim" fill="#404040">
                                <set attributeName="fill" to="#808080" begin="zoomminus.mouseover" end="zoomminus.mouseout"/>
                        </use>
                        <path d="M-4,0h8" fill="none" stroke="white" stroke-width="1.5" pointer-events="none"/>
                </g>
                <g id="dirArrow">
                        <path fill="none" stroke="white" stroke-width="1.5" d="M0,-3.0v7 M-2.5,-0.5L0,-3.0L2.5,-0.5"/>
                </g>
               <g id="resetDef">
                       <use xlink:href="#rim2" fill="#404040">
                               <set attributeName="fill" to="#808080" begin="reset.mouseover" end="reset.mouseout"/>
                       </use>
               </g>
        </defs>

<script type="text/javascript">
var viewWidth = 1755;
var viewHeight = 478;
var sectionId = 'dynsection-1';
</script>
<script xlink:href="svgpan.js"/>
<svg id="graph" class="graph">
<g id="viewport">
<title>human::HumanStateProvider::HumanStateProviderPrivate</title>
<!-- Node1 -->
<g id="node1" class="node"><title>Node1</title>
<polygon fill="#bfbfbf" stroke="black" points="880.5,-1 880.5,-113 1039.5,-113 1039.5,-1 880.5,-1"/>
<text text-anchor="start" x="888.5" y="-101" font-family="Helvetica,sans-Serif" font-size="10.00">human::HumanStateProvider</text>
<text text-anchor="middle" x="960" y="-90" font-family="Helvetica,sans-Serif" font-size="10.00">::HumanStateProviderPrivate</text>
<polyline fill="none" stroke="black" points="880.5,-83 1039.5,-83 "/>
<text text-anchor="middle" x="960" y="-71" font-family="Helvetica,sans-Serif" font-size="10.00"> </text>
<polyline fill="none" stroke="black" points="880.5,-64 1039.5,-64 "/>
<text text-anchor="start" x="888.5" y="-52" font-family="Helvetica,sans-Serif" font-size="10.00">+ HumanStateProviderPrivate()</text>
<text text-anchor="start" x="888.5" y="-41" font-family="Helvetica,sans-Serif" font-size="10.00">+ ~HumanStateProviderPrivate()</text>
<text text-anchor="start" x="888.5" y="-30" font-family="Helvetica,sans-Serif" font-size="10.00">+ joints()</text>
<text text-anchor="start" x="888.5" y="-19" font-family="Helvetica,sans-Serif" font-size="10.00">+ baseLink()</text>
<text text-anchor="start" x="888.5" y="-8" font-family="Helvetica,sans-Serif" font-size="10.00">+ setBaseLink()</text>
</g>
<!-- Node2 -->
<g id="node2" class="node"><title>Node2</title>
<g id="a_node2"><a xlink:href="classhuman_1_1_human_state_provider_service.html" target="_top" xlink:title="{human::HumanStateProvider\lService\n||+ HumanStateProviderService()\l+ joints()\l+ setBaseLink()\l+ baseLink()\l+ read()\l+ help()\l+ HumanStateProviderService()\l+ joints()\l+ setBaseLink()\l+ baseLink()\l+ read()\l+ help()\l}">
<polygon fill="none" stroke="black" points="-0.5,-184.5 -0.5,-373.5 154.5,-373.5 154.5,-184.5 -0.5,-184.5"/>
<text text-anchor="start" x="7.5" y="-361.5" font-family="Helvetica,sans-Serif" font-size="10.00">human::HumanStateProvider</text>
<text text-anchor="middle" x="77" y="-350.5" font-family="Helvetica,sans-Serif" font-size="10.00">Service</text>
<polyline fill="none" stroke="black" points="-0.5,-343.5 154.5,-343.5 "/>
<text text-anchor="middle" x="77" y="-331.5" font-family="Helvetica,sans-Serif" font-size="10.00"> </text>
<polyline fill="none" stroke="black" points="-0.5,-324.5 154.5,-324.5 "/>
<text text-anchor="start" x="7.5" y="-312.5" font-family="Helvetica,sans-Serif" font-size="10.00">+ HumanStateProviderService()</text>
<text text-anchor="start" x="7.5" y="-301.5" font-family="Helvetica,sans-Serif" font-size="10.00">+ joints()</text>
<text text-anchor="start" x="7.5" y="-290.5" font-family="Helvetica,sans-Serif" font-size="10.00">+ setBaseLink()</text>
<text text-anchor="start" x="7.5" y="-279.5" font-family="Helvetica,sans-Serif" font-size="10.00">+ baseLink()</text>
<text text-anchor="start" x="7.5" y="-268.5" font-family="Helvetica,sans-Serif" font-size="10.00">+ read()</text>
<text text-anchor="start" x="7.5" y="-257.5" font-family="Helvetica,sans-Serif" font-size="10.00">+ help()</text>
<text text-anchor="start" x="7.5" y="-246.5" font-family="Helvetica,sans-Serif" font-size="10.00">+ HumanStateProviderService()</text>
<text text-anchor="start" x="7.5" y="-235.5" font-family="Helvetica,sans-Serif" font-size="10.00">+ joints()</text>
<text text-anchor="start" x="7.5" y="-224.5" font-family="Helvetica,sans-Serif" font-size="10.00">+ setBaseLink()</text>
<text text-anchor="start" x="7.5" y="-213.5" font-family="Helvetica,sans-Serif" font-size="10.00">+ baseLink()</text>
<text text-anchor="start" x="7.5" y="-202.5" font-family="Helvetica,sans-Serif" font-size="10.00">+ read()</text>
<text text-anchor="start" x="7.5" y="-191.5" font-family="Helvetica,sans-Serif" font-size="10.00">+ help()</text>
</a>
</g>
</g>
<!-- Node2&#45;&gt;Node1 -->
<g id="edge1" class="edge"><title>Node2&#45;&gt;Node1</title>
<path fill="none" stroke="midnightblue" d="M162.532,-185.176C163.021,-184.781 163.51,-184.389 164,-184 200.466,-155.015 210.665,-146.293 255,-132 369.643,-95.041 721.167,-71.3364 880.281,-62.2258"/>
<polygon fill="none" stroke="midnightblue" points="160.061,-182.68 154.646,-191.787 164.558,-188.045 160.061,-182.68"/>
</g>
<!-- Node3 -->
<g id="node3" class="node"><title>Node3</title>
<g id="a_node3"><a xlink:href="classyarp_1_1os_1_1_wire.html" target="_top" xlink:title="{Wire\n||}">
<polygon fill="none" stroke="black" points="58.5,-412.5 58.5,-469.5 95.5,-469.5 95.5,-412.5 58.5,-412.5"/>
<text text-anchor="middle" x="77" y="-457.5" font-family="Helvetica,sans-Serif" font-size="10.00">Wire</text>
<polyline fill="none" stroke="black" points="58.5,-450.5 95.5,-450.5 "/>
<text text-anchor="middle" x="77" y="-438.5" font-family="Helvetica,sans-Serif" font-size="10.00"> </text>
<polyline fill="none" stroke="black" points="58.5,-431.5 95.5,-431.5 "/>
<text text-anchor="middle" x="77" y="-419.5" font-family="Helvetica,sans-Serif" font-size="10.00"> </text>
</a>
</g>
</g>
<!-- Node3&#45;&gt;Node2 -->
<g id="edge2" class="edge"><title>Node3&#45;&gt;Node2</title>
<path fill="none" stroke="midnightblue" d="M71.1677,-402.242C70.7436,-393.408 70.4665,-383.61 70.3364,-373.517"/>
<polygon fill="none" stroke="midnightblue" points="67.6889,-402.713 71.758,-412.495 74.6774,-402.31 67.6889,-402.713"/>
</g>
<!-- Node3&#45;&gt;Node2 -->
<g id="edge3" class="edge"><title>Node3&#45;&gt;Node2</title>
<path fill="none" stroke="midnightblue" d="M82.8323,-402.242C83.2564,-393.408 83.5335,-383.61 83.6636,-373.517"/>
<polygon fill="none" stroke="midnightblue" points="79.3226,-402.31 82.242,-412.495 86.3111,-402.713 79.3226,-402.31"/>
</g>
<!-- Node4 -->
<g id="node4" class="node"><title>Node4</title>
<polygon fill="none" stroke="#bfbfbf" points="173,-250.5 173,-307.5 267,-307.5 267,-250.5 173,-250.5"/>
<text text-anchor="middle" x="220" y="-295.5" font-family="Helvetica,sans-Serif" font-size="10.00">IPreciselyTimed *</text>
<polyline fill="none" stroke="#bfbfbf" points="173,-288.5 267,-288.5 "/>
<text text-anchor="middle" x="220" y="-276.5" font-family="Helvetica,sans-Serif" font-size="10.00"> </text>
<polyline fill="none" stroke="#bfbfbf" points="173,-269.5 267,-269.5 "/>
<text text-anchor="middle" x="220" y="-257.5" font-family="Helvetica,sans-Serif" font-size="10.00"> </text>
</g>
<!-- Node4&#45;&gt;Node1 -->
<g id="edge4" class="edge"><title>Node4&#45;&gt;Node1</title>
<path fill="none" stroke="#404040" d="M224.537,-250.213C231.659,-216.304 248.922,-160.034 288,-132 378.799,-66.8625 706.306,-57.684 868.158,-57.2564"/>
<polygon fill="none" stroke="#404040" points="868.463,-57.2561 874.458,-53.248 880.463,-57.24 874.468,-61.248 868.463,-57.2561"/>
<text text-anchor="middle" x="343.5" y="-146.5" font-family="Helvetica,sans-Serif" font-size="10.00"> +m_frameProviderTimed</text>
</g>
<!-- Node5 -->
<g id="node5" class="node"><title>Node5</title>
<polygon fill="none" stroke="#bfbfbf" points="285,-250.5 285,-307.5 375,-307.5 375,-250.5 285,-250.5"/>
<text text-anchor="middle" x="330" y="-295.5" font-family="Helvetica,sans-Serif" font-size="10.00">IFrameProvider *</text>
<polyline fill="none" stroke="#bfbfbf" points="285,-288.5 375,-288.5 "/>
<text text-anchor="middle" x="330" y="-276.5" font-family="Helvetica,sans-Serif" font-size="10.00"> </text>
<polyline fill="none" stroke="#bfbfbf" points="285,-269.5 375,-269.5 "/>
<text text-anchor="middle" x="330" y="-257.5" font-family="Helvetica,sans-Serif" font-size="10.00"> </text>
</g>
<!-- Node5&#45;&gt;Node1 -->
<g id="edge5" class="edge"><title>Node5&#45;&gt;Node1</title>
<path fill="none" stroke="#404040" d="M341.869,-250.423C351.339,-230.501 365.983,-203.739 384,-184 411.1,-154.312 420.662,-146.889 458,-132 593.837,-77.8322 764.59,-62.7985 867.859,-58.9228"/>
<polygon fill="none" stroke="#404040" points="868.119,-58.914 873.979,-54.7111 880.112,-58.5036 874.252,-62.7064 868.119,-58.914"/>
<text text-anchor="middle" x="500" y="-146.5" font-family="Helvetica,sans-Serif" font-size="10.00"> +m_frameProvider</text>
</g>
<!-- Node6 -->
<g id="node6" class="node"><title>Node6</title>
<polygon fill="none" stroke="#bfbfbf" points="393.5,-245 393.5,-313 546.5,-313 546.5,-245 393.5,-245"/>
<text text-anchor="start" x="401.5" y="-301" font-family="Helvetica,sans-Serif" font-size="10.00">unique_ptr&lt; human::</text>
<text text-anchor="middle" x="470" y="-290" font-family="Helvetica,sans-Serif" font-size="10.00">human::HumanIKWorkerPool &gt;</text>
<polyline fill="none" stroke="#bfbfbf" points="393.5,-283 546.5,-283 "/>
<text text-anchor="middle" x="470" y="-271" font-family="Helvetica,sans-Serif" font-size="10.00"> </text>
<polyline fill="none" stroke="#bfbfbf" points="393.5,-264 546.5,-264 "/>
<text text-anchor="middle" x="470" y="-252" font-family="Helvetica,sans-Serif" font-size="10.00"> </text>
</g>
<!-- Node6&#45;&gt;Node1 -->
<g id="edge6" class="edge"><title>Node6&#45;&gt;Node1</title>
<path fill="none" stroke="#404040" d="M486.696,-244.749C505.545,-210.815 539.479,-159.363 584,-132 670.665,-78.735 787.936,-62.699 868.337,-58.4218"/>
<polygon fill="none" stroke="#404040" points="868.432,-58.4175 874.237,-54.1395 880.418,-57.8526 874.613,-62.1306 868.432,-58.4175"/>
<text text-anchor="middle" x="609" y="-146.5" font-family="Helvetica,sans-Serif" font-size="10.00"> +m_ikPool</text>
</g>
<!-- Node7 -->
<g id="node7" class="node"><title>Node7</title>
<polygon fill="none" stroke="#bfbfbf" points="564.5,-245 564.5,-313 681.5,-313 681.5,-245 564.5,-245"/>
<text text-anchor="start" x="572.5" y="-301" font-family="Helvetica,sans-Serif" font-size="10.00">vector&lt; human::human</text>
<text text-anchor="middle" x="623" y="-290" font-family="Helvetica,sans-Serif" font-size="10.00">::LinkPairInfo &gt;</text>
<polyline fill="none" stroke="#bfbfbf" points="564.5,-283 681.5,-283 "/>
<text text-anchor="middle" x="623" y="-271" font-family="Helvetica,sans-Serif" font-size="10.00"> </text>
<polyline fill="none" stroke="#bfbfbf" points="564.5,-264 681.5,-264 "/>
<text text-anchor="middle" x="623" y="-252" font-family="Helvetica,sans-Serif" font-size="10.00"> </text>
</g>
<!-- Node7&#45;&gt;Node1 -->
<g id="edge7" class="edge"><title>Node7&#45;&gt;Node1</title>
<path fill="none" stroke="#404040" d="M621.911,-244.879C622.695,-211.797 629.269,-161.71 659,-132 688.221,-102.799 790.662,-82.0065 867.984,-70.0404"/>
<polygon fill="none" stroke="#404040" points="868.298,-69.9929 873.631,-65.1395 880.163,-68.1958 874.829,-73.0492 868.298,-69.9929"/>
<text text-anchor="middle" x="689.5" y="-146.5" font-family="Helvetica,sans-Serif" font-size="10.00"> +m_linkPairs</text>
</g>
<!-- Node8 -->
<g id="node8" class="node"><title>Node8</title>
<polygon fill="none" stroke="#bfbfbf" points="699.5,-250.5 699.5,-307.5 744.5,-307.5 744.5,-250.5 699.5,-250.5"/>
<text text-anchor="middle" x="722" y="-295.5" font-family="Helvetica,sans-Serif" font-size="10.00">double</text>
<polyline fill="none" stroke="#bfbfbf" points="699.5,-288.5 744.5,-288.5 "/>
<text text-anchor="middle" x="722" y="-276.5" font-family="Helvetica,sans-Serif" font-size="10.00"> </text>
<polyline fill="none" stroke="#bfbfbf" points="699.5,-269.5 744.5,-269.5 "/>
<text text-anchor="middle" x="722" y="-257.5" font-family="Helvetica,sans-Serif" font-size="10.00"> </text>
</g>
<!-- Node8&#45;&gt;Node1 -->
<g id="edge8" class="edge"><title>Node8&#45;&gt;Node1</title>
<path fill="none" stroke="#404040" d="M717.368,-250.461C713.607,-218.356 712.71,-165.439 740,-132 771.224,-93.7405 822.969,-75.1533 868.433,-66.1714"/>
<polygon fill="none" stroke="#404040" points="868.645,-66.133 873.833,-61.1242 880.451,-63.9865 875.264,-68.9952 868.645,-66.133"/>
<text text-anchor="middle" x="764.5" y="-146.5" font-family="Helvetica,sans-Serif" font-size="10.00"> +m_period</text>
</g>
<!-- Node9 -->
<g id="node9" class="node"><title>Node9</title>
<polygon fill="none" stroke="#bfbfbf" points="763,-250.5 763,-307.5 825,-307.5 825,-250.5 763,-250.5"/>
<text text-anchor="middle" x="794" y="-295.5" font-family="Helvetica,sans-Serif" font-size="10.00">PolyDriver</text>
<polyline fill="none" stroke="#bfbfbf" points="763,-288.5 825,-288.5 "/>
<text text-anchor="middle" x="794" y="-276.5" font-family="Helvetica,sans-Serif" font-size="10.00"> </text>
<polyline fill="none" stroke="#bfbfbf" points="763,-269.5 825,-269.5 "/>
<text text-anchor="middle" x="794" y="-257.5" font-family="Helvetica,sans-Serif" font-size="10.00"> </text>
</g>
<!-- Node9&#45;&gt;Node1 -->
<g id="edge9" class="edge"><title>Node9&#45;&gt;Node1</title>
<path fill="none" stroke="#404040" d="M788.9,-250.292C784.683,-218.751 782.772,-167.07 807,-132 821.985,-110.309 845.148,-94.7451 868.954,-83.6733"/>
<polygon fill="none" stroke="#404040" points="869.28,-83.5317 873.186,-77.4702 880.284,-78.7445 876.378,-84.806 869.28,-83.5317"/>
<text text-anchor="middle" x="846.5" y="-146.5" font-family="Helvetica,sans-Serif" font-size="10.00"> +m_humanDriver</text>
</g>
<!-- Node10 -->
<g id="node10" class="node"><title>Node10</title>
<polygon fill="none" stroke="#bfbfbf" points="843.5,-250.5 843.5,-307.5 948.5,-307.5 948.5,-250.5 843.5,-250.5"/>
<text text-anchor="middle" x="896" y="-295.5" font-family="Helvetica,sans-Serif" font-size="10.00">vector&lt; std::string &gt;</text>
<polyline fill="none" stroke="#bfbfbf" points="843.5,-288.5 948.5,-288.5 "/>
<text text-anchor="middle" x="896" y="-276.5" font-family="Helvetica,sans-Serif" font-size="10.00"> </text>
<polyline fill="none" stroke="#bfbfbf" points="843.5,-269.5 948.5,-269.5 "/>
<text text-anchor="middle" x="896" y="-257.5" font-family="Helvetica,sans-Serif" font-size="10.00"> </text>
</g>
<!-- Node10&#45;&gt;Node1 -->
<g id="edge10" class="edge"><title>Node10&#45;&gt;Node1</title>
<path fill="none" stroke="#404040" d="M890.721,-250.356C886.197,-220.222 882.465,-171.082 897,-132 898.017,-129.265 899.185,-126.561 900.477,-123.898"/>
<polygon fill="none" stroke="#404040" points="900.598,-123.68 900.02,-116.492 906.433,-113.194 907.011,-120.382 900.598,-123.68"/>
<text text-anchor="middle" x="949.5" y="-146.5" font-family="Helvetica,sans-Serif" font-size="10.00"> +m_humanJointNames</text>
</g>
<!-- Node11 -->
<g id="node11" class="node"><title>Node11</title>
<polygon fill="none" stroke="#bfbfbf" points="1002,-250.5 1002,-307.5 1046,-307.5 1046,-250.5 1002,-250.5"/>
<text text-anchor="middle" x="1024" y="-295.5" font-family="Helvetica,sans-Serif" font-size="10.00">mutex</text>
<polyline fill="none" stroke="#bfbfbf" points="1002,-288.5 1046,-288.5 "/>
<text text-anchor="middle" x="1024" y="-276.5" font-family="Helvetica,sans-Serif" font-size="10.00"> </text>
<polyline fill="none" stroke="#bfbfbf" points="1002,-269.5 1046,-269.5 "/>
<text text-anchor="middle" x="1024" y="-257.5" font-family="Helvetica,sans-Serif" font-size="10.00"> </text>
</g>
<!-- Node11&#45;&gt;Node1 -->
<g id="edge11" class="edge"><title>Node11&#45;&gt;Node1</title>
<path fill="none" stroke="#404040" d="M1022.84,-250.379C1020.9,-220.475 1015.74,-171.731 1002,-132 1001.12,-129.448 1000.15,-126.883 999.105,-124.319"/>
<polygon fill="none" stroke="#404040" points="999.01,-124.106 992.918,-120.248 994.136,-113.14 1000.23,-116.998 999.01,-124.106"/>
<text text-anchor="middle" x="1049" y="-146.5" font-family="Helvetica,sans-Serif" font-size="10.00"> +m_objectMutex</text>
</g>
<!-- Node12 -->
<g id="node12" class="node"><title>Node12</title>
<polygon fill="none" stroke="#bfbfbf" points="1064.5,-250.5 1064.5,-307.5 1107.5,-307.5 1107.5,-250.5 1064.5,-250.5"/>
<text text-anchor="middle" x="1086" y="-295.5" font-family="Helvetica,sans-Serif" font-size="10.00">size_t</text>
<polyline fill="none" stroke="#bfbfbf" points="1064.5,-288.5 1107.5,-288.5 "/>
<text text-anchor="middle" x="1086" y="-276.5" font-family="Helvetica,sans-Serif" font-size="10.00"> </text>
<polyline fill="none" stroke="#bfbfbf" points="1064.5,-269.5 1107.5,-269.5 "/>
<text text-anchor="middle" x="1086" y="-257.5" font-family="Helvetica,sans-Serif" font-size="10.00"> </text>
</g>
<!-- Node12&#45;&gt;Node1 -->
<g id="edge12" class="edge"><title>Node12&#45;&gt;Node1</title>
<path fill="none" stroke="#404040" d="M1095.21,-250.315C1103.77,-219.26 1112.29,-168.471 1091,-132 1081.3,-115.373 1066.32,-102.186 1049.91,-91.8366"/>
<polygon fill="none" stroke="#404040" points="1049.9,-91.8272 1042.7,-92.2405 1039.55,-85.754 1046.75,-85.3407 1049.9,-91.8272"/>
<text text-anchor="middle" x="1134" y="-146.5" font-family="Helvetica,sans-Serif" font-size="10.00"> +m_baseLink</text>
</g>
<!-- Node13 -->
<g id="node13" class="node"><title>Node13</title>
<polygon fill="none" stroke="#bfbfbf" points="1126,-245 1126,-313 1222,-313 1222,-245 1126,-245"/>
<text text-anchor="start" x="1134" y="-301" font-family="Helvetica,sans-Serif" font-size="10.00">vector&lt; yarp::sig::</text>
<text text-anchor="middle" x="1174" y="-290" font-family="Helvetica,sans-Serif" font-size="10.00">Vector &gt;</text>
<polyline fill="none" stroke="#bfbfbf" points="1126,-283 1222,-283 "/>
<text text-anchor="middle" x="1174" y="-271" font-family="Helvetica,sans-Serif" font-size="10.00"> </text>
<polyline fill="none" stroke="#bfbfbf" points="1126,-264 1222,-264 "/>
<text text-anchor="middle" x="1174" y="-252" font-family="Helvetica,sans-Serif" font-size="10.00"> </text>
</g>
<!-- Node13&#45;&gt;Node1 -->
<g id="edge13" class="edge"><title>Node13&#45;&gt;Node1</title>
<path fill="none" stroke="#404040" d="M1182.72,-244.708C1189.01,-212.666 1192.76,-164.426 1169,-132 1141.76,-94.8215 1094.27,-76.233 1051.45,-66.9778"/>
<polygon fill="none" stroke="#404040" points="1051.28,-66.945 1044.62,-69.6995 1039.51,-64.6072 1046.17,-61.8527 1051.28,-66.945"/>
<text text-anchor="middle" x="1216" y="-157.5" font-family="Helvetica,sans-Serif" font-size="10.00"> +poses</text>
<text text-anchor="middle" x="1216" y="-146.5" font-family="Helvetica,sans-Serif" font-size="10.00">+accelerations</text>
<text text-anchor="middle" x="1216" y="-135.5" font-family="Helvetica,sans-Serif" font-size="10.00">+velocities</text>
</g>
<!-- Node14 -->
<g id="node14" class="node"><title>Node14</title>
<g id="a_node14"><a xlink:href="classyarp_1_1os_1_1_buffered_port.html" target="_top" xlink:title="{yarp::os::BufferedPort\l\&lt; human::human::HumanState \&gt;\n||}">
<polygon fill="none" stroke="black" points="1240,-245 1240,-313 1400,-313 1400,-245 1240,-245"/>
<text text-anchor="start" x="1248" y="-301" font-family="Helvetica,sans-Serif" font-size="10.00">yarp::os::BufferedPort</text>
<text text-anchor="middle" x="1320" y="-290" font-family="Helvetica,sans-Serif" font-size="10.00">&lt; human::human::HumanState &gt;</text>
<polyline fill="none" stroke="black" points="1240,-283 1400,-283 "/>
<text text-anchor="middle" x="1320" y="-271" font-family="Helvetica,sans-Serif" font-size="10.00"> </text>
<polyline fill="none" stroke="black" points="1240,-264 1400,-264 "/>
<text text-anchor="middle" x="1320" y="-252" font-family="Helvetica,sans-Serif" font-size="10.00"> </text>
</a>
</g>
</g>
<!-- Node14&#45;&gt;Node1 -->
<g id="edge14" class="edge"><title>Node14&#45;&gt;Node1</title>
<path fill="none" stroke="#404040" d="M1313.26,-244.777C1304.74,-211.367 1286.78,-160.799 1252,-132 1195.92,-85.568 1114.48,-67.7525 1051.84,-61.1609"/>
<polygon fill="none" stroke="#404040" points="1051.53,-61.1306 1045.17,-64.5407 1039.58,-59.9871 1045.94,-56.5771 1051.53,-61.1306"/>
<text text-anchor="middle" x="1315" y="-146.5" font-family="Helvetica,sans-Serif" font-size="10.00"> +m_outputPort</text>
</g>
<!-- Node15 -->
<g id="node15" class="node"><title>Node15</title>
<polygon fill="none" stroke="#bfbfbf" points="1418.5,-250.5 1418.5,-307.5 1463.5,-307.5 1463.5,-250.5 1418.5,-250.5"/>
<text text-anchor="middle" x="1441" y="-295.5" font-family="Helvetica,sans-Serif" font-size="10.00">Vector</text>
<polyline fill="none" stroke="#bfbfbf" points="1418.5,-288.5 1463.5,-288.5 "/>
<text text-anchor="middle" x="1441" y="-276.5" font-family="Helvetica,sans-Serif" font-size="10.00"> </text>
<polyline fill="none" stroke="#bfbfbf" points="1418.5,-269.5 1463.5,-269.5 "/>
<text text-anchor="middle" x="1441" y="-257.5" font-family="Helvetica,sans-Serif" font-size="10.00"> </text>
</g>
<!-- Node15&#45;&gt;Node1 -->
<g id="edge15" class="edge"><title>Node15&#45;&gt;Node1</title>
<path fill="none" stroke="#404040" d="M1435.44,-250.482C1430.59,-230.839 1422.22,-204.395 1409,-184 1390.52,-155.502 1383.32,-147.299 1353,-132 1257.53,-83.8372 1134.7,-66.8416 1051.97,-60.944"/>
<polygon fill="none" stroke="#404040" points="1051.79,-60.9318 1045.54,-64.5253 1039.81,-60.1364 1046.07,-56.5429 1051.79,-60.9318"/>
<text text-anchor="middle" x="1441" y="-152" font-family="Helvetica,sans-Serif" font-size="10.00"> +jointsVelocity</text>
<text text-anchor="middle" x="1441" y="-141" font-family="Helvetica,sans-Serif" font-size="10.00">+jointsConfiguration</text>
</g>
<!-- Node16 -->
<g id="node16" class="node"><title>Node16</title>
<polygon fill="none" stroke="#bfbfbf" points="1481.5,-245 1481.5,-313 1598.5,-313 1598.5,-245 1481.5,-245"/>
<text text-anchor="start" x="1489.5" y="-301" font-family="Helvetica,sans-Serif" font-size="10.00">vector&lt; human::human</text>
<text text-anchor="middle" x="1540" y="-290" font-family="Helvetica,sans-Serif" font-size="10.00">::SegmentInfo &gt;</text>
<polyline fill="none" stroke="#bfbfbf" points="1481.5,-283 1598.5,-283 "/>
<text text-anchor="middle" x="1540" y="-271" font-family="Helvetica,sans-Serif" font-size="10.00"> </text>
<polyline fill="none" stroke="#bfbfbf" points="1481.5,-264 1598.5,-264 "/>
<text text-anchor="middle" x="1540" y="-252" font-family="Helvetica,sans-Serif" font-size="10.00"> </text>
</g>
<!-- Node16&#45;&gt;Node1 -->
<g id="edge16" class="edge"><title>Node16&#45;&gt;Node1</title>
<path fill="none" stroke="#404040" d="M1538.06,-244.871C1534.19,-211.037 1522.74,-159.666 1489,-132 1423.94,-78.6471 1185.32,-63.7499 1051.88,-59.598"/>
<polygon fill="none" stroke="#404040" points="1051.7,-59.5926 1045.58,-63.4144 1039.7,-59.2397 1045.82,-55.4178 1051.7,-59.5926"/>
<text text-anchor="middle" x="1548" y="-146.5" font-family="Helvetica,sans-Serif" font-size="10.00"> +m_segments</text>
</g>
<!-- Node17 -->
<g id="node17" class="node"><title>Node17</title>
<polygon fill="none" stroke="#bfbfbf" points="1616.5,-250 1616.5,-308 1645.5,-308 1645.5,-250 1616.5,-250"/>
<polyline fill="none" stroke="#bfbfbf" points="1616.5,-288 1645.5,-288 "/>
<text text-anchor="middle" x="1631" y="-276" font-family="Helvetica,sans-Serif" font-size="10.00"> </text>
<polyline fill="none" stroke="#bfbfbf" points="1616.5,-269 1645.5,-269 "/>
<text text-anchor="middle" x="1631" y="-257" font-family="Helvetica,sans-Serif" font-size="10.00"> </text>
</g>
<!-- Node17&#45;&gt;Node1 -->
<g id="edge17" class="edge"><title>Node17&#45;&gt;Node1</title>
<path fill="none" stroke="#404040" d="M1631.18,-249.727C1629.7,-215.594 1621.44,-159.372 1585,-132 1502.91,-70.3461 1204.59,-59.3326 1051.7,-57.8355"/>
<polygon fill="none" stroke="#404040" points="1051.61,-57.8348 1045.57,-61.7842 1039.61,-57.734 1045.64,-53.7845 1051.61,-57.8348"/>
<text text-anchor="middle" x="1637.5" y="-146.5" font-family="Helvetica,sans-Serif" font-size="10.00"> +m_buffers</text>
</g>
<!-- Node18 -->
<g id="node18" class="node"><title>Node18</title>
<polygon fill="none" stroke="#bfbfbf" points="1688.5,-250.5 1688.5,-307.5 1723.5,-307.5 1723.5,-250.5 1688.5,-250.5"/>
<text text-anchor="middle" x="1706" y="-295.5" font-family="Helvetica,sans-Serif" font-size="10.00">Port</text>
<polyline fill="none" stroke="#bfbfbf" points="1688.5,-288.5 1723.5,-288.5 "/>
<text text-anchor="middle" x="1706" y="-276.5" font-family="Helvetica,sans-Serif" font-size="10.00"> </text>
<polyline fill="none" stroke="#bfbfbf" points="1688.5,-269.5 1723.5,-269.5 "/>
<text text-anchor="middle" x="1706" y="-257.5" font-family="Helvetica,sans-Serif" font-size="10.00"> </text>
</g>
<!-- Node18&#45;&gt;Node1 -->
<g id="edge18" class="edge"><title>Node18&#45;&gt;Node1</title>
<path fill="none" stroke="#404040" d="M1707.45,-250.352C1707.54,-216.857 1702.06,-161.285 1668,-132 1622.17,-92.5941 1232.93,-70.2007 1051.9,-61.8305"/>
<polygon fill="none" stroke="#404040" points="1051.75,-61.8236 1045.57,-65.5455 1039.76,-61.2758 1045.94,-57.5538 1051.75,-61.8236"/>
<text text-anchor="middle" x="1719.5" y="-146.5" font-family="Helvetica,sans-Serif" font-size="10.00"> +m_rpcPort</text>
</g>
</g>
</svg>
        <g id="navigator" transform="translate(0 0)" fill="#404254">
                <rect fill="#f2f5e9" fill-opacity="0.5" stroke="#606060" stroke-width=".5" x="0" y="0" width="60" height="60"/>
                <use id="zoomplus" xlink:href="#zoomPlus" x="17" y="9" onmousedown="handleZoom(evt,'in')"/>
                <use id="zoomminus" xlink:href="#zoomMin" x="42" y="9" onmousedown="handleZoom(evt,'out')"/>
                <use id="reset" xlink:href="#resetDef" x="30" y="36" onmousedown="handleReset()"/>
                <g id="arrowUp" xlink:href="#dirArrow" transform="translate(30 24)" onmousedown="handlePan(0,-1)">
                  <use xlink:href="#rim" fill="#404040">
                        <set attributeName="fill" to="#808080" begin="arrowUp.mouseover" end="arrowUp.mouseout"/>
                  </use>
                  <path fill="none" stroke="white" stroke-width="1.5" d="M0,-3.0v7 M-2.5,-0.5L0,-3.0L2.5,-0.5"/>
                </g>
                <g id="arrowRight" xlink:href="#dirArrow" transform="rotate(90) translate(36 -43)" onmousedown="handlePan(1,0)">
                  <use xlink:href="#rim" fill="#404040">
                        <set attributeName="fill" to="#808080" begin="arrowRight.mouseover" end="arrowRight.mouseout"/>
                  </use>
                  <path fill="none" stroke="white" stroke-width="1.5" d="M0,-3.0v7 M-2.5,-0.5L0,-3.0L2.5,-0.5"/>
                </g>
                <g id="arrowDown" xlink:href="#dirArrow" transform="rotate(180) translate(-30 -48)" onmousedown="handlePan(0,1)">
                  <use xlink:href="#rim" fill="#404040">
                        <set attributeName="fill" to="#808080" begin="arrowDown.mouseover" end="arrowDown.mouseout"/>
                  </use>
                  <path fill="none" stroke="white" stroke-width="1.5" d="M0,-3.0v7 M-2.5,-0.5L0,-3.0L2.5,-0.5"/>
                </g>
                <g id="arrowLeft" xlink:href="#dirArrow" transform="rotate(270) translate(-36 17)" onmousedown="handlePan(-1,0)">
                  <use xlink:href="#rim" fill="#404040">
                        <set attributeName="fill" to="#808080" begin="arrowLeft.mouseover" end="arrowLeft.mouseout"/>
                  </use>
                  <path fill="none" stroke="white" stroke-width="1.5" d="M0,-3.0v7 M-2.5,-0.5L0,-3.0L2.5,-0.5"/>
                </g>
        </g>
        <svg viewBox="0 0 15 15" width="100%" height="30px" preserveAspectRatio="xMaxYMin meet">
         <g id="arrow_out" transform="scale(0.3 0.3)">
          <a xlink:href="classhuman_1_1_human_state_provider_1_1_human_state_provider_private__coll__graph_org.svg" target="_base">
           <rect id="button" ry="5" rx="5" y="6" x="6" height="38" width="38"
                fill="#f2f5e9" fill-opacity="0.5" stroke="#606060" stroke-width="1.0"/>
           <path id="arrow"
             d="M 11.500037,31.436501 C 11.940474,20.09759 22.043105,11.32322 32.158766,21.979434 L 37.068811,17.246167 C 37.068811,17.246167 37.088388,32 37.088388,32 L 22.160133,31.978069 C 22.160133,31.978069 26.997745,27.140456 26.997745,27.140456 C 18.528582,18.264221 13.291696,25.230495 11.500037,31.436501 z"
             style="fill:#404040;"/>
          </a>
         </g>
        </svg>
</svg>
