<?xml version="1.0" encoding="UTF-8" standalone="no"?>
<!DOCTYPE svg PUBLIC "-//W3C//DTD SVG 1.1//EN"
 "http://www.w3.org/Graphics/SVG/1.1/DTD/svg11.dtd">
<!-- Generated by graphviz version 2.36.0 (20140111.2315)
 -->
<!-- Title: WireVocab Pages: 1 -->
<svg width="140pt" height="194pt"
 viewBox="0.00 0.00 140.00 194.00" xmlns="http://www.w3.org/2000/svg" xmlns:xlink="http://www.w3.org/1999/xlink">
<g id="graph0" class="graph" transform="scale(1 1) rotate(0) translate(4 190)">
<title>WireVocab</title>
<!-- Node1 -->
<g id="node1" class="node"><title>Node1</title>
<polygon fill="#bfbfbf" stroke="black" points="33.5,-128.5 33.5,-185.5 98.5,-185.5 98.5,-128.5 33.5,-128.5"/>
<text text-anchor="middle" x="66" y="-173.5" font-family="Helvetica,sans-Serif" font-size="10.00">WireVocab</text>
<polyline fill="none" stroke="black" points="33.5,-166.5 98.5,-166.5 "/>
<text text-anchor="middle" x="66" y="-154.5" font-family="Helvetica,sans-Serif" font-size="10.00"> </text>
<polyline fill="none" stroke="black" points="33.5,-147.5 98.5,-147.5 "/>
<text text-anchor="middle" x="66" y="-135.5" font-family="Helvetica,sans-Serif" font-size="10.00"> </text>
</g>
<!-- Node2 -->
<g id="node2" class="node"><title>Node2</title>
<g id="a_node2"><a xlink:href="classxsens_1_1_xsens_status_vocab.html" target="_top" xlink:title="{xsens::XsensStatusVocab\n||+ fromString()\l+ toString()\l+ fromString()\l+ toString()\l}">
<polygon fill="none" stroke="black" points="-0.5,-1 -0.5,-91 132.5,-91 132.5,-1 -0.5,-1"/>
<text text-anchor="middle" x="66" y="-79" font-family="Helvetica,sans-Serif" font-size="10.00">xsens::XsensStatusVocab</text>
<polyline fill="none" stroke="black" points="-0.5,-72 132.5,-72 "/>
<text text-anchor="middle" x="66" y="-60" font-family="Helvetica,sans-Serif" font-size="10.00"> </text>
<polyline fill="none" stroke="black" points="-0.5,-53 132.5,-53 "/>
<text text-anchor="start" x="7.5" y="-41" font-family="Helvetica,sans-Serif" font-size="10.00">+ fromString()</text>
<text text-anchor="start" x="7.5" y="-30" font-family="Helvetica,sans-Serif" font-size="10.00">+ toString()</text>
<text text-anchor="start" x="7.5" y="-19" font-family="Helvetica,sans-Serif" font-size="10.00">+ fromString()</text>
<text text-anchor="start" x="7.5" y="-8" font-family="Helvetica,sans-Serif" font-size="10.00">+ toString()</text>
</a>
</g>
</g>
<!-- Node1&#45;&gt;Node2 -->
<g id="edge1" class="edge"><title>Node1&#45;&gt;Node2</title>
<path fill="none" stroke="midnightblue" d="M59.5502,-118.484C59.228,-109.643 59.1651,-100.139 59.3617,-91.0399"/>
<polygon fill="none" stroke="midnightblue" points="56.0555,-118.681 60.0476,-128.495 63.0469,-118.333 56.0555,-118.681"/>
</g>
<!-- Node1&#45;&gt;Node2 -->
<g id="edge2" class="edge"><title>Node1&#45;&gt;Node2</title>
<path fill="none" stroke="midnightblue" d="M72.4498,-118.484C72.772,-109.643 72.8349,-100.139 72.6383,-91.0399"/>
<polygon fill="none" stroke="midnightblue" points="68.9531,-118.333 71.9524,-128.495 75.9445,-118.681 68.9531,-118.333"/>
</g>
</g>
</svg>
