<?xml version="1.0" encoding="UTF-8" standalone="no"?>
<!DOCTYPE svg PUBLIC "-//W3C//DTD SVG 1.1//EN"
 "http://www.w3.org/Graphics/SVG/1.1/DTD/svg11.dtd">
<!-- Generated by graphviz version 2.36.0 (20140111.2315)
 -->
<!-- Title: tf2_msgs_TFMessage Pages: 1 -->
<svg width="249pt" height="294pt"
 viewBox="0.00 0.00 249.00 294.00" xmlns="http://www.w3.org/2000/svg" xmlns:xlink="http://www.w3.org/1999/xlink">
<g id="graph0" class="graph" transform="scale(1 1) rotate(0) translate(4 290)">
<title>tf2_msgs_TFMessage</title>
<!-- Node1 -->
<g id="node1" class="node"><title>Node1</title>
<polygon fill="#bfbfbf" stroke="black" points="-0.5,-0.5 -0.5,-167.5 128.5,-167.5 128.5,-0.5 -0.5,-0.5"/>
<text text-anchor="middle" x="64" y="-155.5" font-family="Helvetica,sans-Serif" font-size="10.00">tf2_msgs_TFMessage</text>
<polyline fill="none" stroke="black" points="-0.5,-148.5 128.5,-148.5 "/>
<text text-anchor="middle" x="64" y="-136.5" font-family="Helvetica,sans-Serif" font-size="10.00"> </text>
<polyline fill="none" stroke="black" points="-0.5,-129.5 128.5,-129.5 "/>
<text text-anchor="start" x="7.5" y="-117.5" font-family="Helvetica,sans-Serif" font-size="10.00">+ tf2_msgs_TFMessage()</text>
<text text-anchor="start" x="7.5" y="-106.5" font-family="Helvetica,sans-Serif" font-size="10.00">+ clear()</text>
<text text-anchor="start" x="7.5" y="-95.5" font-family="Helvetica,sans-Serif" font-size="10.00">+ readBare()</text>
<text text-anchor="start" x="7.5" y="-84.5" font-family="Helvetica,sans-Serif" font-size="10.00">+ readBottle()</text>
<text text-anchor="start" x="7.5" y="-73.5" font-family="Helvetica,sans-Serif" font-size="10.00">+ read()</text>
<text text-anchor="start" x="7.5" y="-62.5" font-family="Helvetica,sans-Serif" font-size="10.00">+ writeBare()</text>
<text text-anchor="start" x="7.5" y="-51.5" font-family="Helvetica,sans-Serif" font-size="10.00">+ writeBottle()</text>
<text text-anchor="start" x="7.5" y="-40.5" font-family="Helvetica,sans-Serif" font-size="10.00">+ write()</text>
<text text-anchor="start" x="7.5" y="-29.5" font-family="Helvetica,sans-Serif" font-size="10.00">+ getTypeText()</text>
<text text-anchor="start" x="7.5" y="-18.5" font-family="Helvetica,sans-Serif" font-size="10.00">+ getType()</text>
<text text-anchor="start" x="7.5" y="-7.5" font-family="Helvetica,sans-Serif" font-size="10.00">and 10 more...</text>
</g>
<!-- Node2 -->
<g id="node2" class="node"><title>Node2</title>
<g id="a_node2"><a xlink:href="classyarp_1_1os_1_1idl_1_1_wire_portable.html" target="_top" xlink:title="{WirePortable\n||}">
<polygon fill="none" stroke="black" points="27.5,-222.5 27.5,-279.5 100.5,-279.5 100.5,-222.5 27.5,-222.5"/>
<text text-anchor="middle" x="64" y="-267.5" font-family="Helvetica,sans-Serif" font-size="10.00">WirePortable</text>
<polyline fill="none" stroke="black" points="27.5,-260.5 100.5,-260.5 "/>
<text text-anchor="middle" x="64" y="-248.5" font-family="Helvetica,sans-Serif" font-size="10.00"> </text>
<polyline fill="none" stroke="black" points="27.5,-241.5 100.5,-241.5 "/>
<text text-anchor="middle" x="64" y="-229.5" font-family="Helvetica,sans-Serif" font-size="10.00"> </text>
</a>
</g>
</g>
<!-- Node2&#45;&gt;Node1 -->
<g id="edge1" class="edge"><title>Node2&#45;&gt;Node1</title>
<path fill="none" stroke="midnightblue" d="M58.2207,-212.179C57.5744,-198.802 57.2508,-183.182 57.25,-167.559"/>
<polygon fill="none" stroke="midnightblue" points="54.7391,-212.6 58.8082,-222.383 61.7275,-212.198 54.7391,-212.6"/>
</g>
<!-- Node2&#45;&gt;Node1 -->
<g id="edge2" class="edge"><title>Node2&#45;&gt;Node1</title>
<path fill="none" stroke="midnightblue" d="M69.7793,-212.179C70.4256,-198.802 70.7492,-183.182 70.75,-167.559"/>
<polygon fill="none" stroke="midnightblue" points="66.2725,-212.198 69.1918,-222.383 73.2609,-212.6 66.2725,-212.198"/>
</g>
<!-- Node3 -->
<g id="node3" class="node"><title>Node3</title>
<polygon fill="none" stroke="#bfbfbf" points="119,-217 119,-285 241,-285 241,-217 119,-217"/>
<text text-anchor="start" x="127" y="-273" font-family="Helvetica,sans-Serif" font-size="10.00">vector&lt; geometry_msgs</text>
<text text-anchor="middle" x="180" y="-262" font-family="Helvetica,sans-Serif" font-size="10.00">_TransformStamped &gt;</text>
<polyline fill="none" stroke="#bfbfbf" points="119,-255 241,-255 "/>
<text text-anchor="middle" x="180" y="-243" font-family="Helvetica,sans-Serif" font-size="10.00"> </text>
<polyline fill="none" stroke="#bfbfbf" points="119,-236 241,-236 "/>
<text text-anchor="middle" x="180" y="-224" font-family="Helvetica,sans-Serif" font-size="10.00"> </text>
</g>
<!-- Node3&#45;&gt;Node1 -->
<g id="edge3" class="edge"><title>Node3&#45;&gt;Node1</title>
<path fill="none" stroke="#404040" d="M156.526,-216.61C148.482,-205.168 139.044,-191.744 129.328,-177.924"/>
<polygon fill="none" stroke="#404040" points="129.122,-177.63 122.399,-175.022 122.22,-167.813 128.943,-170.421 129.122,-177.63"/>
<text text-anchor="middle" x="171" y="-189.5" font-family="Helvetica,sans-Serif" font-size="10.00"> +transforms</text>
</g>
</g>
</svg>
