<?xml version="1.0" encoding="UTF-8" standalone="no"?>
<!DOCTYPE svg PUBLIC "-//W3C//DTD SVG 1.1//EN"
 "http://www.w3.org/Graphics/SVG/1.1/DTD/svg11.dtd">
<!-- Generated by graphviz version 2.36.0 (20140111.2315)
 -->
<!-- Title: xsens::XsensSensorsFrame Pages: 1 -->
<svg width="332pt" height="416pt"
 viewBox="0.00 0.00 332.00 416.00" xmlns="http://www.w3.org/2000/svg" xmlns:xlink="http://www.w3.org/1999/xlink">
<g id="graph0" class="graph" transform="scale(1 1) rotate(0) translate(4 412)">
<title>xsens::XsensSensorsFrame</title>
<!-- Node1 -->
<g id="node1" class="node"><title>Node1</title>
<polygon fill="#bfbfbf" stroke="black" points="57.5,-1 57.5,-289 202.5,-289 202.5,-1 57.5,-1"/>
<text text-anchor="middle" x="130" y="-277" font-family="Helvetica,sans-Serif" font-size="10.00">xsens::XsensSensorsFrame</text>
<polyline fill="none" stroke="black" points="57.5,-270 202.5,-270 "/>
<text text-anchor="middle" x="130" y="-258" font-family="Helvetica,sans-Serif" font-size="10.00"> </text>
<polyline fill="none" stroke="black" points="57.5,-251 202.5,-251 "/>
<text text-anchor="start" x="65.5" y="-239" font-family="Helvetica,sans-Serif" font-size="10.00">+ XsensSensorsFrame()</text>
<text text-anchor="start" x="65.5" y="-228" font-family="Helvetica,sans-Serif" font-size="10.00">+ XsensSensorsFrame()</text>
<text text-anchor="start" x="65.5" y="-217" font-family="Helvetica,sans-Serif" font-size="10.00">+ XsensSensorsFrame()</text>
<text text-anchor="start" x="65.5" y="-206" font-family="Helvetica,sans-Serif" font-size="10.00">+ operator=()</text>
<text text-anchor="start" x="65.5" y="-195" font-family="Helvetica,sans-Serif" font-size="10.00">+ read()</text>
<text text-anchor="start" x="65.5" y="-184" font-family="Helvetica,sans-Serif" font-size="10.00">+ read()</text>
<text text-anchor="start" x="65.5" y="-173" font-family="Helvetica,sans-Serif" font-size="10.00">+ write()</text>
<text text-anchor="start" x="65.5" y="-162" font-family="Helvetica,sans-Serif" font-size="10.00">+ write()</text>
<text text-anchor="start" x="65.5" y="-151" font-family="Helvetica,sans-Serif" font-size="10.00">+ toString()</text>
<text text-anchor="start" x="65.5" y="-140" font-family="Helvetica,sans-Serif" font-size="10.00">+ XsensSensorsFrame()</text>
<text text-anchor="start" x="65.5" y="-129" font-family="Helvetica,sans-Serif" font-size="10.00">and 8 more...</text>
<text text-anchor="start" x="65.5" y="-118" font-family="Helvetica,sans-Serif" font-size="10.00">&#45; write_status()</text>
<text text-anchor="start" x="65.5" y="-107" font-family="Helvetica,sans-Serif" font-size="10.00">&#45; nested_write_status()</text>
<text text-anchor="start" x="65.5" y="-96" font-family="Helvetica,sans-Serif" font-size="10.00">&#45; write_sensorsData()</text>
<text text-anchor="start" x="65.5" y="-85" font-family="Helvetica,sans-Serif" font-size="10.00">&#45; nested_write_sensorsData()</text>
<text text-anchor="start" x="65.5" y="-74" font-family="Helvetica,sans-Serif" font-size="10.00">&#45; read_status()</text>
<text text-anchor="start" x="65.5" y="-63" font-family="Helvetica,sans-Serif" font-size="10.00">&#45; nested_read_status()</text>
<text text-anchor="start" x="65.5" y="-52" font-family="Helvetica,sans-Serif" font-size="10.00">&#45; read_sensorsData()</text>
<text text-anchor="start" x="65.5" y="-41" font-family="Helvetica,sans-Serif" font-size="10.00">&#45; nested_read_sensorsData()</text>
<text text-anchor="start" x="65.5" y="-30" font-family="Helvetica,sans-Serif" font-size="10.00">&#45; write_status()</text>
<text text-anchor="start" x="65.5" y="-19" font-family="Helvetica,sans-Serif" font-size="10.00">&#45; nested_write_status()</text>
<text text-anchor="start" x="65.5" y="-8" font-family="Helvetica,sans-Serif" font-size="10.00">and 6 more...</text>
</g>
<!-- Node2 -->
<g id="node2" class="node"><title>Node2</title>
<g id="a_node2"><a xlink:href="classyarp_1_1os_1_1idl_1_1_wire_portable.html" target="_top" xlink:title="{WirePortable\n||}">
<polygon fill="none" stroke="black" points="-0.5,-344.5 -0.5,-401.5 72.5,-401.5 72.5,-344.5 -0.5,-344.5"/>
<text text-anchor="middle" x="36" y="-389.5" font-family="Helvetica,sans-Serif" font-size="10.00">WirePortable</text>
<polyline fill="none" stroke="black" points="-0.5,-382.5 72.5,-382.5 "/>
<text text-anchor="middle" x="36" y="-370.5" font-family="Helvetica,sans-Serif" font-size="10.00"> </text>
<polyline fill="none" stroke="black" points="-0.5,-363.5 72.5,-363.5 "/>
<text text-anchor="middle" x="36" y="-351.5" font-family="Helvetica,sans-Serif" font-size="10.00"> </text>
</a>
</g>
</g>
<!-- Node2&#45;&gt;Node1 -->
<g id="edge1" class="edge"><title>Node2&#45;&gt;Node1</title>
<path fill="none" stroke="midnightblue" d="M46.3403,-334.723C51.1617,-321.531 57.2538,-305.787 63.9484,-289.099"/>
<polygon fill="none" stroke="midnightblue" points="42.9915,-333.693 42.912,-344.288 49.5809,-336.055 42.9915,-333.693"/>
</g>
<!-- Node2&#45;&gt;Node1 -->
<g id="edge2" class="edge"><title>Node2&#45;&gt;Node1</title>
<path fill="none" stroke="midnightblue" d="M56.4879,-335.111C62.6841,-321.839 69.7553,-305.951 77.0134,-289.099"/>
<polygon fill="none" stroke="midnightblue" points="53.2586,-333.752 52.1405,-344.288 59.5847,-336.749 53.2586,-333.752"/>
</g>
<!-- Node3 -->
<g id="node3" class="node"><title>Node3</title>
<polygon fill="none" stroke="#bfbfbf" points="90.5,-339 90.5,-407 233.5,-407 233.5,-339 90.5,-339"/>
<text text-anchor="start" x="98.5" y="-395" font-family="Helvetica,sans-Serif" font-size="10.00">vector&lt; xsens::XsensSensor</text>
<text text-anchor="middle" x="162" y="-384" font-family="Helvetica,sans-Serif" font-size="10.00">Data &gt;</text>
<polyline fill="none" stroke="#bfbfbf" points="90.5,-377 233.5,-377 "/>
<text text-anchor="middle" x="162" y="-365" font-family="Helvetica,sans-Serif" font-size="10.00"> </text>
<polyline fill="none" stroke="#bfbfbf" points="90.5,-358 233.5,-358 "/>
<text text-anchor="middle" x="162" y="-346" font-family="Helvetica,sans-Serif" font-size="10.00"> </text>
</g>
<!-- Node3&#45;&gt;Node1 -->
<g id="edge3" class="edge"><title>Node3&#45;&gt;Node1</title>
<path fill="none" stroke="#404040" d="M157.278,-338.653C155.759,-327.922 153.963,-315.241 152.03,-301.588"/>
<polygon fill="none" stroke="#404040" points="151.982,-301.246 147.18,-295.866 150.299,-289.364 155.101,-294.744 151.982,-301.246"/>
<text text-anchor="middle" x="187.5" y="-311.5" font-family="Helvetica,sans-Serif" font-size="10.00"> +sensorsData</text>
</g>
<!-- Node4 -->
<g id="node4" class="node"><title>Node4</title>
<polygon fill="none" stroke="#bfbfbf" points="251.5,-344.5 251.5,-401.5 324.5,-401.5 324.5,-344.5 251.5,-344.5"/>
<text text-anchor="middle" x="288" y="-389.5" font-family="Helvetica,sans-Serif" font-size="10.00">XsensStatus</text>
<polyline fill="none" stroke="#bfbfbf" points="251.5,-382.5 324.5,-382.5 "/>
<text text-anchor="middle" x="288" y="-370.5" font-family="Helvetica,sans-Serif" font-size="10.00"> </text>
<polyline fill="none" stroke="#bfbfbf" points="251.5,-363.5 324.5,-363.5 "/>
<text text-anchor="middle" x="288" y="-351.5" font-family="Helvetica,sans-Serif" font-size="10.00"> </text>
</g>
<!-- Node4&#45;&gt;Node1 -->
<g id="edge4" class="edge"><title>Node4&#45;&gt;Node1</title>
<path fill="none" stroke="#404040" d="M268.626,-344.288C253.606,-322.804 231.711,-291.486 209.74,-260.059"/>
<polygon fill="none" stroke="#404040" points="209.488,-259.698 202.772,-257.073 202.613,-249.863 209.329,-252.489 209.488,-259.698"/>
<text text-anchor="middle" x="267.5" y="-311.5" font-family="Helvetica,sans-Serif" font-size="10.00"> +status</text>
</g>
</g>
</svg>
