<?xml version="1.0" encoding="UTF-8" standalone="no"?>
<!DOCTYPE svg PUBLIC "-//W3C//DTD SVG 1.1//EN"
 "http://www.w3.org/Graphics/SVG/1.1/DTD/svg11.dtd">
<!-- Generated by graphviz version 2.36.0 (20140111.2315)
 -->
<!-- Title: sensor_msgs_Temperature Pages: 1 -->
<!--zoomable 734 -->
<svg id="main" version="1.1" xmlns="http://www.w3.org/2000/svg" xmlns:xlink="http://www.w3.org/1999/xlink" xml:space="preserve" onload="init(evt)">
<style type="text/css"><![CDATA[
.edge:hover path { stroke: red; }
.edge:hover polygon { stroke: red; fill: red; }
]]></style>
<script type="text/javascript"><![CDATA[
var edges = document.getElementsByTagName('g');
if (edges && edges.length) {
  for (var i=0;i<edges.length;i++) {
    if (edges[i].id.substr(0,4)=='edge') {
      edges[i].setAttribute('class','edge');
    }
  }
}
]]></script>
        <defs>
                <circle id="rim" cx="0" cy="0" r="7"/>
                <circle id="rim2" cx="0" cy="0" r="3.5"/>
                <g id="zoomPlus">
                        <use xlink:href="#rim" fill="#404040">
                                <set attributeName="fill" to="#808080" begin="zoomplus.mouseover" end="zoomplus.mouseout"/>
                        </use>
                        <path d="M-4,0h8M0,-4v8" fill="none" stroke="white" stroke-width="1.5" pointer-events="none"/>
                </g>
                <g id="zoomMin">
                        <use xlink:href="#rim" fill="#404040">
                                <set attributeName="fill" to="#808080" begin="zoomminus.mouseover" end="zoomminus.mouseout"/>
                        </use>
                        <path d="M-4,0h8" fill="none" stroke="white" stroke-width="1.5" pointer-events="none"/>
                </g>
                <g id="dirArrow">
                        <path fill="none" stroke="white" stroke-width="1.5" d="M0,-3.0v7 M-2.5,-0.5L0,-3.0L2.5,-0.5"/>
                </g>
               <g id="resetDef">
                       <use xlink:href="#rim2" fill="#404040">
                               <set attributeName="fill" to="#808080" begin="reset.mouseover" end="reset.mouseout"/>
                       </use>
               </g>
        </defs>

<script type="text/javascript">
var viewWidth = 349;
var viewHeight = 734;
var sectionId = 'dynsection-1';
</script>
<script xlink:href="svgpan.js"/>
<svg id="graph" class="graph">
<g id="viewport">
<title>sensor_msgs_Temperature</title>
<!-- Node1 -->
<g id="node1" class="node"><title>Node1</title>
<polygon fill="#bfbfbf" stroke="black" points="0,-0.5 0,-167.5 150,-167.5 150,-0.5 0,-0.5"/>
<text text-anchor="middle" x="75" y="-155.5" font-family="Helvetica,sans-Serif" font-size="10.00">sensor_msgs_Temperature</text>
<polyline fill="none" stroke="black" points="0,-148.5 150,-148.5 "/>
<text text-anchor="middle" x="75" y="-136.5" font-family="Helvetica,sans-Serif" font-size="10.00"> </text>
<polyline fill="none" stroke="black" points="0,-129.5 150,-129.5 "/>
<text text-anchor="start" x="8" y="-117.5" font-family="Helvetica,sans-Serif" font-size="10.00">+ sensor_msgs_Temperature()</text>
<text text-anchor="start" x="8" y="-106.5" font-family="Helvetica,sans-Serif" font-size="10.00">+ clear()</text>
<text text-anchor="start" x="8" y="-95.5" font-family="Helvetica,sans-Serif" font-size="10.00">+ readBare()</text>
<text text-anchor="start" x="8" y="-84.5" font-family="Helvetica,sans-Serif" font-size="10.00">+ readBottle()</text>
<text text-anchor="start" x="8" y="-73.5" font-family="Helvetica,sans-Serif" font-size="10.00">+ read()</text>
<text text-anchor="start" x="8" y="-62.5" font-family="Helvetica,sans-Serif" font-size="10.00">+ writeBare()</text>
<text text-anchor="start" x="8" y="-51.5" font-family="Helvetica,sans-Serif" font-size="10.00">+ writeBottle()</text>
<text text-anchor="start" x="8" y="-40.5" font-family="Helvetica,sans-Serif" font-size="10.00">+ write()</text>
<text text-anchor="start" x="8" y="-29.5" font-family="Helvetica,sans-Serif" font-size="10.00">+ getTypeText()</text>
<text text-anchor="start" x="8" y="-18.5" font-family="Helvetica,sans-Serif" font-size="10.00">+ getType()</text>
<text text-anchor="start" x="8" y="-7.5" font-family="Helvetica,sans-Serif" font-size="10.00">and 10 more...</text>
</g>
<!-- Node2 -->
<g id="node2" class="node"><title>Node2</title>
<g id="a_node2"><a xlink:href="classyarp_1_1os_1_1idl_1_1_wire_portable.html" target="_top" xlink:title="{WirePortable\n||}">
<polygon fill="none" stroke="black" points="61.5,-668.5 61.5,-725.5 134.5,-725.5 134.5,-668.5 61.5,-668.5"/>
<text text-anchor="middle" x="98" y="-713.5" font-family="Helvetica,sans-Serif" font-size="10.00">WirePortable</text>
<polyline fill="none" stroke="black" points="61.5,-706.5 134.5,-706.5 "/>
<text text-anchor="middle" x="98" y="-694.5" font-family="Helvetica,sans-Serif" font-size="10.00"> </text>
<polyline fill="none" stroke="black" points="61.5,-687.5 134.5,-687.5 "/>
<text text-anchor="middle" x="98" y="-675.5" font-family="Helvetica,sans-Serif" font-size="10.00"> </text>
</a>
</g>
</g>
<!-- Node2&#45;&gt;Node1 -->
<g id="edge1" class="edge"><title>Node2&#45;&gt;Node1</title>
<path fill="none" stroke="midnightblue" d="M87.5497,-658.149C77.6072,-601.024 65.4094,-489.321 61,-394 57.5497,-319.413 59.6767,-300.655 61,-226 61.3343,-207.142 61.9198,-186.872 62.8201,-167.746"/>
<polygon fill="none" stroke="midnightblue" points="84.1389,-658.955 89.3775,-668.164 91.0251,-657.698 84.1389,-658.955"/>
</g>
<!-- Node2&#45;&gt;Node1 -->
<g id="edge2" class="edge"><title>Node2&#45;&gt;Node1</title>
<path fill="none" stroke="midnightblue" d="M99.1645,-658.149C95.6072,-601.024 83.4094,-489.321 79,-394 75.5497,-319.413 77.6767,-300.655 79,-226 79.3343,-207.142 79.9198,-186.872 80.3303,-167.746"/>
<polygon fill="none" stroke="midnightblue" points="95.6715,-658.375 99.7243,-668.164 102.661,-657.984 95.6715,-658.375"/>
</g>
<!-- Node4 -->
<g id="node4" class="node"><title>Node4</title>
<g id="a_node4"><a xlink:href="classstd__msgs___header.html" target="_top" xlink:title="{std_msgs_Header\n||+ std_msgs_Header()\l+ clear()\l+ readBare()\l+ readBottle()\l+ read()\l+ writeBare()\l+ writeBottle()\l+ write()\l+ getTypeText()\l+ getType()\land 10 more...\l}">
<polygon fill="none" stroke="black" points="79.5,-226.5 79.5,-393.5 190.5,-393.5 190.5,-226.5 79.5,-226.5"/>
<text text-anchor="middle" x="135" y="-381.5" font-family="Helvetica,sans-Serif" font-size="10.00">std_msgs_Header</text>
<polyline fill="none" stroke="black" points="79.5,-374.5 190.5,-374.5 "/>
<text text-anchor="middle" x="135" y="-362.5" font-family="Helvetica,sans-Serif" font-size="10.00"> </text>
<polyline fill="none" stroke="black" points="79.5,-355.5 190.5,-355.5 "/>
<text text-anchor="start" x="87.5" y="-343.5" font-family="Helvetica,sans-Serif" font-size="10.00">+ std_msgs_Header()</text>
<text text-anchor="start" x="87.5" y="-332.5" font-family="Helvetica,sans-Serif" font-size="10.00">+ clear()</text>
<text text-anchor="start" x="87.5" y="-321.5" font-family="Helvetica,sans-Serif" font-size="10.00">+ readBare()</text>
<text text-anchor="start" x="87.5" y="-310.5" font-family="Helvetica,sans-Serif" font-size="10.00">+ readBottle()</text>
<text text-anchor="start" x="87.5" y="-299.5" font-family="Helvetica,sans-Serif" font-size="10.00">+ read()</text>
<text text-anchor="start" x="87.5" y="-288.5" font-family="Helvetica,sans-Serif" font-size="10.00">+ writeBare()</text>
<text text-anchor="start" x="87.5" y="-277.5" font-family="Helvetica,sans-Serif" font-size="10.00">+ writeBottle()</text>
<text text-anchor="start" x="87.5" y="-266.5" font-family="Helvetica,sans-Serif" font-size="10.00">+ write()</text>
<text text-anchor="start" x="87.5" y="-255.5" font-family="Helvetica,sans-Serif" font-size="10.00">+ getTypeText()</text>
<text text-anchor="start" x="87.5" y="-244.5" font-family="Helvetica,sans-Serif" font-size="10.00">+ getType()</text>
<text text-anchor="start" x="87.5" y="-233.5" font-family="Helvetica,sans-Serif" font-size="10.00">and 10 more...</text>
</a>
</g>
</g>
<!-- Node2&#45;&gt;Node4 -->
<g id="edge5" class="edge"><title>Node2&#45;&gt;Node4</title>
<path fill="none" stroke="midnightblue" d="M97.4244,-657.976C100.512,-596.85 111.716,-475.318 121.408,-393.57"/>
<polygon fill="none" stroke="midnightblue" points="93.9124,-658.164 96.958,-668.312 100.905,-658.48 93.9124,-658.164"/>
</g>
<!-- Node2&#45;&gt;Node4 -->
<g id="edge6" class="edge"><title>Node2&#45;&gt;Node4</title>
<path fill="none" stroke="midnightblue" d="M105.83,-658.355C114.495,-597.353 126.688,-475.487 132.722,-393.57"/>
<polygon fill="none" stroke="midnightblue" points="102.358,-657.908 104.364,-668.312 109.284,-658.929 102.358,-657.908"/>
</g>
<!-- Node5 -->
<g id="node5" class="node"><title>Node5</title>
<g id="a_node5"><a xlink:href="class_tick_time.html" target="_top" xlink:title="{TickTime\n||+ TickTime()\l+ clear()\l+ readBare()\l+ readBottle()\l+ read()\l+ writeBare()\l+ writeBottle()\l+ write()\l+ getTypeText()\l+ getType()\land 10 more...\l}">
<polygon fill="none" stroke="black" points="135,-442.5 135,-609.5 221,-609.5 221,-442.5 135,-442.5"/>
<text text-anchor="middle" x="178" y="-597.5" font-family="Helvetica,sans-Serif" font-size="10.00">TickTime</text>
<polyline fill="none" stroke="black" points="135,-590.5 221,-590.5 "/>
<text text-anchor="middle" x="178" y="-578.5" font-family="Helvetica,sans-Serif" font-size="10.00"> </text>
<polyline fill="none" stroke="black" points="135,-571.5 221,-571.5 "/>
<text text-anchor="start" x="143" y="-559.5" font-family="Helvetica,sans-Serif" font-size="10.00">+ TickTime()</text>
<text text-anchor="start" x="143" y="-548.5" font-family="Helvetica,sans-Serif" font-size="10.00">+ clear()</text>
<text text-anchor="start" x="143" y="-537.5" font-family="Helvetica,sans-Serif" font-size="10.00">+ readBare()</text>
<text text-anchor="start" x="143" y="-526.5" font-family="Helvetica,sans-Serif" font-size="10.00">+ readBottle()</text>
<text text-anchor="start" x="143" y="-515.5" font-family="Helvetica,sans-Serif" font-size="10.00">+ read()</text>
<text text-anchor="start" x="143" y="-504.5" font-family="Helvetica,sans-Serif" font-size="10.00">+ writeBare()</text>
<text text-anchor="start" x="143" y="-493.5" font-family="Helvetica,sans-Serif" font-size="10.00">+ writeBottle()</text>
<text text-anchor="start" x="143" y="-482.5" font-family="Helvetica,sans-Serif" font-size="10.00">+ write()</text>
<text text-anchor="start" x="143" y="-471.5" font-family="Helvetica,sans-Serif" font-size="10.00">+ getTypeText()</text>
<text text-anchor="start" x="143" y="-460.5" font-family="Helvetica,sans-Serif" font-size="10.00">+ getType()</text>
<text text-anchor="start" x="143" y="-449.5" font-family="Helvetica,sans-Serif" font-size="10.00">and 10 more...</text>
</a>
</g>
</g>
<!-- Node2&#45;&gt;Node5 -->
<g id="edge8" class="edge"><title>Node2&#45;&gt;Node5</title>
<path fill="none" stroke="midnightblue" d="M107.578,-659.14C109.067,-656.053 110.567,-652.976 112,-650 119.455,-634.52 127.293,-617.867 134.898,-601.969"/>
<polygon fill="none" stroke="midnightblue" points="104.339,-657.8 103.216,-668.335 110.664,-660.8 104.339,-657.8"/>
</g>
<!-- Node2&#45;&gt;Node5 -->
<g id="edge9" class="edge"><title>Node2&#45;&gt;Node5</title>
<path fill="none" stroke="midnightblue" d="M125.378,-659.429C126.973,-656.246 128.522,-653.069 130,-650 136.28,-636.959 142.833,-623.085 149.039,-609.531"/>
<polygon fill="none" stroke="midnightblue" points="122.258,-657.844 120.781,-668.335 128.478,-661.055 122.258,-657.844"/>
</g>
<!-- Node3 -->
<g id="node3" class="node"><title>Node3</title>
<polygon fill="none" stroke="#bfbfbf" points="208.5,-281.5 208.5,-338.5 273.5,-338.5 273.5,-281.5 208.5,-281.5"/>
<text text-anchor="middle" x="241" y="-326.5" font-family="Helvetica,sans-Serif" font-size="10.00">NetFloat64</text>
<polyline fill="none" stroke="#bfbfbf" points="208.5,-319.5 273.5,-319.5 "/>
<text text-anchor="middle" x="241" y="-307.5" font-family="Helvetica,sans-Serif" font-size="10.00"> </text>
<polyline fill="none" stroke="#bfbfbf" points="208.5,-300.5 273.5,-300.5 "/>
<text text-anchor="middle" x="241" y="-288.5" font-family="Helvetica,sans-Serif" font-size="10.00"> </text>
</g>
<!-- Node3&#45;&gt;Node1 -->
<g id="edge3" class="edge"><title>Node3&#45;&gt;Node1</title>
<path fill="none" stroke="#404040" d="M229.218,-281.491C221.576,-264.845 210.856,-243.521 199,-226 186.823,-208.004 172.58,-189.82 158.173,-172.766"/>
<polygon fill="none" stroke="#404040" points="157.971,-172.53 151.03,-170.576 150.164,-163.417 157.106,-165.371 157.971,-172.53"/>
<text text-anchor="middle" x="214" y="-200" font-family="Helvetica,sans-Serif" font-size="10.00"> +variance</text>
<text text-anchor="middle" x="214" y="-189" font-family="Helvetica,sans-Serif" font-size="10.00">+temperature</text>
</g>
<!-- Node4&#45;&gt;Node1 -->
<g id="edge4" class="edge"><title>Node4&#45;&gt;Node1</title>
<path fill="none" stroke="#404040" d="M112.829,-226.227C108.759,-211.032 104.482,-195.066 100.328,-179.557"/>
<polygon fill="none" stroke="#404040" points="100.285,-179.398 94.869,-174.637 97.1803,-167.806 102.597,-172.567 100.285,-179.398"/>
<text text-anchor="middle" x="126.5" y="-194.5" font-family="Helvetica,sans-Serif" font-size="10.00"> +header</text>
</g>
<!-- Node5&#45;&gt;Node4 -->
<g id="edge7" class="edge"><title>Node5&#45;&gt;Node4</title>
<path fill="none" stroke="#404040" d="M161.375,-442.262C158.964,-430.265 156.468,-417.839 154.014,-405.63"/>
<polygon fill="none" stroke="#404040" points="153.945,-405.283 148.841,-400.188 151.581,-393.518 156.684,-398.612 153.945,-405.283"/>
<text text-anchor="middle" x="175.5" y="-415.5" font-family="Helvetica,sans-Serif" font-size="10.00"> +stamp</text>
</g>
<!-- Node6 -->
<g id="node6" class="node"><title>Node6</title>
<polygon fill="none" stroke="#bfbfbf" points="167.5,-668.5 167.5,-725.5 228.5,-725.5 228.5,-668.5 167.5,-668.5"/>
<text text-anchor="middle" x="198" y="-713.5" font-family="Helvetica,sans-Serif" font-size="10.00">NetUint32</text>
<polyline fill="none" stroke="#bfbfbf" points="167.5,-706.5 228.5,-706.5 "/>
<text text-anchor="middle" x="198" y="-694.5" font-family="Helvetica,sans-Serif" font-size="10.00"> </text>
<polyline fill="none" stroke="#bfbfbf" points="167.5,-687.5 228.5,-687.5 "/>
<text text-anchor="middle" x="198" y="-675.5" font-family="Helvetica,sans-Serif" font-size="10.00"> </text>
</g>
<!-- Node6&#45;&gt;Node4 -->
<g id="edge11" class="edge"><title>Node6&#45;&gt;Node4</title>
<path fill="none" stroke="#404040" d="M216.745,-668.157C219.951,-662.358 222.914,-656.137 225,-650 244.663,-592.136 245.565,-489.976 230,-442 227.933,-435.628 214.22,-415.821 197.826,-393.475"/>
<polygon fill="none" stroke="#404040" points="197.79,-393.427 191.008,-390.976 190.662,-383.774 197.444,-386.224 197.79,-393.427"/>
<text text-anchor="middle" x="253.5" y="-523.5" font-family="Helvetica,sans-Serif" font-size="10.00"> +seq</text>
</g>
<!-- Node6&#45;&gt;Node5 -->
<g id="edge10" class="edge"><title>Node6&#45;&gt;Node5</title>
<path fill="none" stroke="#404040" d="M194.742,-668.471C193.186,-655.324 191.223,-638.733 189.193,-621.58"/>
<polygon fill="none" stroke="#404040" points="189.191,-621.567 184.514,-616.079 187.781,-609.65 192.459,-615.139 189.191,-621.567"/>
<text text-anchor="middle" x="207" y="-642" font-family="Helvetica,sans-Serif" font-size="10.00"> +sec</text>
<text text-anchor="middle" x="207" y="-631" font-family="Helvetica,sans-Serif" font-size="10.00">+nsec</text>
</g>
<!-- Node7 -->
<g id="node7" class="node"><title>Node7</title>
<polygon fill="none" stroke="#bfbfbf" points="300.5,-497.5 300.5,-554.5 341.5,-554.5 341.5,-497.5 300.5,-497.5"/>
<text text-anchor="middle" x="321" y="-542.5" font-family="Helvetica,sans-Serif" font-size="10.00">string</text>
<polyline fill="none" stroke="#bfbfbf" points="300.5,-535.5 341.5,-535.5 "/>
<text text-anchor="middle" x="321" y="-523.5" font-family="Helvetica,sans-Serif" font-size="10.00"> </text>
<polyline fill="none" stroke="#bfbfbf" points="300.5,-516.5 341.5,-516.5 "/>
<text text-anchor="middle" x="321" y="-504.5" font-family="Helvetica,sans-Serif" font-size="10.00"> </text>
</g>
<!-- Node7&#45;&gt;Node4 -->
<g id="edge12" class="edge"><title>Node7&#45;&gt;Node4</title>
<path fill="none" stroke="#404040" d="M316.252,-497.324C310.289,-471.282 297.44,-433.209 271,-412 247.884,-393.457 230.466,-408.283 201.027,-393.912"/>
<polygon fill="none" stroke="#404040" points="200.932,-393.857 193.735,-394.302 190.556,-387.829 197.754,-387.384 200.932,-393.857"/>
<text text-anchor="middle" x="306.5" y="-415.5" font-family="Helvetica,sans-Serif" font-size="10.00"> +frame_id</text>
</g>
</g>
</svg>
        <g id="navigator" transform="translate(0 0)" fill="#404254">
                <rect fill="#f2f5e9" fill-opacity="0.5" stroke="#606060" stroke-width=".5" x="0" y="0" width="60" height="60"/>
                <use id="zoomplus" xlink:href="#zoomPlus" x="17" y="9" onmousedown="handleZoom(evt,'in')"/>
                <use id="zoomminus" xlink:href="#zoomMin" x="42" y="9" onmousedown="handleZoom(evt,'out')"/>
                <use id="reset" xlink:href="#resetDef" x="30" y="36" onmousedown="handleReset()"/>
                <g id="arrowUp" xlink:href="#dirArrow" transform="translate(30 24)" onmousedown="handlePan(0,-1)">
                  <use xlink:href="#rim" fill="#404040">
                        <set attributeName="fill" to="#808080" begin="arrowUp.mouseover" end="arrowUp.mouseout"/>
                  </use>
                  <path fill="none" stroke="white" stroke-width="1.5" d="M0,-3.0v7 M-2.5,-0.5L0,-3.0L2.5,-0.5"/>
                </g>
                <g id="arrowRight" xlink:href="#dirArrow" transform="rotate(90) translate(36 -43)" onmousedown="handlePan(1,0)">
                  <use xlink:href="#rim" fill="#404040">
                        <set attributeName="fill" to="#808080" begin="arrowRight.mouseover" end="arrowRight.mouseout"/>
                  </use>
                  <path fill="none" stroke="white" stroke-width="1.5" d="M0,-3.0v7 M-2.5,-0.5L0,-3.0L2.5,-0.5"/>
                </g>
                <g id="arrowDown" xlink:href="#dirArrow" transform="rotate(180) translate(-30 -48)" onmousedown="handlePan(0,1)">
                  <use xlink:href="#rim" fill="#404040">
                        <set attributeName="fill" to="#808080" begin="arrowDown.mouseover" end="arrowDown.mouseout"/>
                  </use>
                  <path fill="none" stroke="white" stroke-width="1.5" d="M0,-3.0v7 M-2.5,-0.5L0,-3.0L2.5,-0.5"/>
                </g>
                <g id="arrowLeft" xlink:href="#dirArrow" transform="rotate(270) translate(-36 17)" onmousedown="handlePan(-1,0)">
                  <use xlink:href="#rim" fill="#404040">
                        <set attributeName="fill" to="#808080" begin="arrowLeft.mouseover" end="arrowLeft.mouseout"/>
                  </use>
                  <path fill="none" stroke="white" stroke-width="1.5" d="M0,-3.0v7 M-2.5,-0.5L0,-3.0L2.5,-0.5"/>
                </g>
        </g>
        <svg viewBox="0 0 15 15" width="100%" height="30px" preserveAspectRatio="xMaxYMin meet">
         <g id="arrow_out" transform="scale(0.3 0.3)">
          <a xlink:href="classsensor__msgs___temperature__coll__graph_org.svg" target="_base">
           <rect id="button" ry="5" rx="5" y="6" x="6" height="38" width="38"
                fill="#f2f5e9" fill-opacity="0.5" stroke="#606060" stroke-width="1.0"/>
           <path id="arrow"
             d="M 11.500037,31.436501 C 11.940474,20.09759 22.043105,11.32322 32.158766,21.979434 L 37.068811,17.246167 C 37.068811,17.246167 37.088388,32 37.088388,32 L 22.160133,31.978069 C 22.160133,31.978069 26.997745,27.140456 26.997745,27.140456 C 18.528582,18.264221 13.291696,25.230495 11.500037,31.436501 z"
             style="fill:#404040;"/>
          </a>
         </g>
        </svg>
</svg>
