<?xml version="1.0" encoding="UTF-8" standalone="no"?>
<!DOCTYPE svg PUBLIC "-//W3C//DTD SVG 1.1//EN"
 "http://www.w3.org/Graphics/SVG/1.1/DTD/svg11.dtd">
<!-- Generated by graphviz version 2.36.0 (20140111.2315)
 -->
<!-- Title: xsens::XsensStatusVocab Pages: 1 -->
<svg width="213pt" height="194pt"
 viewBox="0.00 0.00 213.00 194.00" xmlns="http://www.w3.org/2000/svg" xmlns:xlink="http://www.w3.org/1999/xlink">
<g id="graph0" class="graph" transform="scale(1 1) rotate(0) translate(4 190)">
<title>xsens::XsensStatusVocab</title>
<!-- Node1 -->
<g id="node1" class="node"><title>Node1</title>
<polygon fill="#bfbfbf" stroke="black" points="50.5,-1 50.5,-91 183.5,-91 183.5,-1 50.5,-1"/>
<text text-anchor="middle" x="117" y="-79" font-family="Helvetica,sans-Serif" font-size="10.00">xsens::XsensStatusVocab</text>
<polyline fill="none" stroke="black" points="50.5,-72 183.5,-72 "/>
<text text-anchor="middle" x="117" y="-60" font-family="Helvetica,sans-Serif" font-size="10.00"> </text>
<polyline fill="none" stroke="black" points="50.5,-53 183.5,-53 "/>
<text text-anchor="start" x="58.5" y="-41" font-family="Helvetica,sans-Serif" font-size="10.00">+ fromString()</text>
<text text-anchor="start" x="58.5" y="-30" font-family="Helvetica,sans-Serif" font-size="10.00">+ toString()</text>
<text text-anchor="start" x="58.5" y="-19" font-family="Helvetica,sans-Serif" font-size="10.00">+ fromString()</text>
<text text-anchor="start" x="58.5" y="-8" font-family="Helvetica,sans-Serif" font-size="10.00">+ toString()</text>
</g>
<!-- Node2 -->
<g id="node2" class="node"><title>Node2</title>
<g id="a_node2"><a xlink:href="classyarp_1_1os_1_1idl_1_1_wire_vocab.html" target="_top" xlink:title="{yarp::os::idl::WireVocab\n||}">
<polygon fill="none" stroke="black" points="0,-128.5 0,-185.5 122,-185.5 122,-128.5 0,-128.5"/>
<text text-anchor="middle" x="61" y="-173.5" font-family="Helvetica,sans-Serif" font-size="10.00">yarp::os::idl::WireVocab</text>
<polyline fill="none" stroke="black" points="0,-166.5 122,-166.5 "/>
<text text-anchor="middle" x="61" y="-154.5" font-family="Helvetica,sans-Serif" font-size="10.00"> </text>
<polyline fill="none" stroke="black" points="0,-147.5 122,-147.5 "/>
<text text-anchor="middle" x="61" y="-135.5" font-family="Helvetica,sans-Serif" font-size="10.00"> </text>
</a>
</g>
</g>
<!-- Node2&#45;&gt;Node1 -->
<g id="edge1" class="edge"><title>Node2&#45;&gt;Node1</title>
<path fill="none" stroke="midnightblue" d="M79.8309,-119.347C84.4978,-110.263 89.5466,-100.436 94.374,-91.0399"/>
<polygon fill="none" stroke="midnightblue" points="76.5878,-118 75.1312,-128.495 82.8142,-121.199 76.5878,-118"/>
</g>
<!-- Node3 -->
<g id="node3" class="node"><title>Node3</title>
<g id="a_node3"><a xlink:href="classyarp_1_1os_1_1idl_1_1_wire_vocab.html" target="_top" xlink:title="{WireVocab\n||}">
<polygon fill="none" stroke="black" points="140.5,-128.5 140.5,-185.5 205.5,-185.5 205.5,-128.5 140.5,-128.5"/>
<text text-anchor="middle" x="173" y="-173.5" font-family="Helvetica,sans-Serif" font-size="10.00">WireVocab</text>
<polyline fill="none" stroke="black" points="140.5,-166.5 205.5,-166.5 "/>
<text text-anchor="middle" x="173" y="-154.5" font-family="Helvetica,sans-Serif" font-size="10.00"> </text>
<polyline fill="none" stroke="black" points="140.5,-147.5 205.5,-147.5 "/>
<text text-anchor="middle" x="173" y="-135.5" font-family="Helvetica,sans-Serif" font-size="10.00"> </text>
</a>
</g>
</g>
<!-- Node3&#45;&gt;Node1 -->
<g id="edge2" class="edge"><title>Node3&#45;&gt;Node1</title>
<path fill="none" stroke="midnightblue" d="M154.169,-119.347C149.502,-110.263 144.453,-100.436 139.626,-91.0399"/>
<polygon fill="none" stroke="midnightblue" points="151.186,-121.199 158.869,-128.495 157.412,-118 151.186,-121.199"/>
</g>
</g>
</svg>
