<?xml version="1.0" encoding="UTF-8" standalone="no"?>
<!DOCTYPE svg PUBLIC "-//W3C//DTD SVG 1.1//EN"
 "http://www.w3.org/Graphics/SVG/1.1/DTD/svg11.dtd">
<!-- Generated by graphviz version 2.36.0 (20140111.2315)
 -->
<!-- Title: xsens::XsensDriverService_calibrateWithType Pages: 1 -->
<svg width="219pt" height="238pt"
 viewBox="0.00 0.00 219.00 238.00" xmlns="http://www.w3.org/2000/svg" xmlns:xlink="http://www.w3.org/1999/xlink">
<g id="graph0" class="graph" transform="scale(1 1) rotate(0) translate(4 234)">
<title>xsens::XsensDriverService_calibrateWithType</title>
<!-- Node1 -->
<g id="node1" class="node"><title>Node1</title>
<polygon fill="#bfbfbf" stroke="black" points="0,-0.5 0,-123.5 136,-123.5 136,-0.5 0,-0.5"/>
<text text-anchor="start" x="8" y="-111.5" font-family="Helvetica,sans-Serif" font-size="10.00">xsens::XsensDriverService</text>
<text text-anchor="middle" x="68" y="-100.5" font-family="Helvetica,sans-Serif" font-size="10.00">_calibrateWithType</text>
<polyline fill="none" stroke="black" points="0,-93.5 136,-93.5 "/>
<text text-anchor="middle" x="68" y="-81.5" font-family="Helvetica,sans-Serif" font-size="10.00"> </text>
<polyline fill="none" stroke="black" points="0,-74.5 136,-74.5 "/>
<text text-anchor="start" x="8" y="-62.5" font-family="Helvetica,sans-Serif" font-size="10.00">+ init()</text>
<text text-anchor="start" x="8" y="-51.5" font-family="Helvetica,sans-Serif" font-size="10.00">+ write()</text>
<text text-anchor="start" x="8" y="-40.5" font-family="Helvetica,sans-Serif" font-size="10.00">+ read()</text>
<text text-anchor="start" x="8" y="-29.5" font-family="Helvetica,sans-Serif" font-size="10.00">+ init()</text>
<text text-anchor="start" x="8" y="-18.5" font-family="Helvetica,sans-Serif" font-size="10.00">+ write()</text>
<text text-anchor="start" x="8" y="-7.5" font-family="Helvetica,sans-Serif" font-size="10.00">+ read()</text>
</g>
<!-- Node2 -->
<g id="node2" class="node"><title>Node2</title>
<g id="a_node2"><a xlink:href="classyarp_1_1os_1_1_portable.html" target="_top" xlink:title="{Portable\n||}">
<polygon fill="none" stroke="black" points="8.5,-172.5 8.5,-229.5 61.5,-229.5 61.5,-172.5 8.5,-172.5"/>
<text text-anchor="middle" x="35" y="-217.5" font-family="Helvetica,sans-Serif" font-size="10.00">Portable</text>
<polyline fill="none" stroke="black" points="8.5,-210.5 61.5,-210.5 "/>
<text text-anchor="middle" x="35" y="-198.5" font-family="Helvetica,sans-Serif" font-size="10.00"> </text>
<polyline fill="none" stroke="black" points="8.5,-191.5 61.5,-191.5 "/>
<text text-anchor="middle" x="35" y="-179.5" font-family="Helvetica,sans-Serif" font-size="10.00"> </text>
</a>
</g>
</g>
<!-- Node2&#45;&gt;Node1 -->
<g id="edge1" class="edge"><title>Node2&#45;&gt;Node1</title>
<path fill="none" stroke="midnightblue" d="M37.997,-162.204C40.346,-150.223 43.4118,-136.663 46.7177,-123.501"/>
<polygon fill="none" stroke="midnightblue" points="34.5114,-161.805 36.1294,-172.276 41.394,-163.082 34.5114,-161.805"/>
</g>
<!-- Node2&#45;&gt;Node1 -->
<g id="edge2" class="edge"><title>Node2&#45;&gt;Node1</title>
<path fill="none" stroke="midnightblue" d="M50.1075,-162.567C53.5639,-150.497 57.0704,-136.796 60.1356,-123.501"/>
<polygon fill="none" stroke="midnightblue" points="46.7158,-161.693 47.2267,-172.276 53.4267,-163.685 46.7158,-161.693"/>
</g>
<!-- Node3 -->
<g id="node3" class="node"><title>Node3</title>
<polygon fill="none" stroke="#bfbfbf" points="79.5,-172.5 79.5,-229.5 114.5,-229.5 114.5,-172.5 79.5,-172.5"/>
<text text-anchor="middle" x="97" y="-217.5" font-family="Helvetica,sans-Serif" font-size="10.00">bool</text>
<polyline fill="none" stroke="#bfbfbf" points="79.5,-210.5 114.5,-210.5 "/>
<text text-anchor="middle" x="97" y="-198.5" font-family="Helvetica,sans-Serif" font-size="10.00"> </text>
<polyline fill="none" stroke="#bfbfbf" points="79.5,-191.5 114.5,-191.5 "/>
<text text-anchor="middle" x="97" y="-179.5" font-family="Helvetica,sans-Serif" font-size="10.00"> </text>
</g>
<!-- Node3&#45;&gt;Node1 -->
<g id="edge3" class="edge"><title>Node3&#45;&gt;Node1</title>
<path fill="none" stroke="#404040" d="M91.1314,-172.276C88.8505,-161.501 86.1217,-148.609 83.3512,-135.521"/>
<polygon fill="none" stroke="#404040" points="83.292,-135.241 78.1362,-130.2 80.8069,-123.501 85.9627,-128.543 83.292,-135.241"/>
<text text-anchor="middle" x="106" y="-145.5" font-family="Helvetica,sans-Serif" font-size="10.00"> +_return</text>
</g>
<!-- Node4 -->
<g id="node4" class="node"><title>Node4</title>
<polygon fill="none" stroke="#bfbfbf" points="135.5,-172.5 135.5,-229.5 176.5,-229.5 176.5,-172.5 135.5,-172.5"/>
<text text-anchor="middle" x="156" y="-217.5" font-family="Helvetica,sans-Serif" font-size="10.00">string</text>
<polyline fill="none" stroke="#bfbfbf" points="135.5,-210.5 176.5,-210.5 "/>
<text text-anchor="middle" x="156" y="-198.5" font-family="Helvetica,sans-Serif" font-size="10.00"> </text>
<polyline fill="none" stroke="#bfbfbf" points="135.5,-191.5 176.5,-191.5 "/>
<text text-anchor="middle" x="156" y="-179.5" font-family="Helvetica,sans-Serif" font-size="10.00"> </text>
</g>
<!-- Node4&#45;&gt;Node1 -->
<g id="edge4" class="edge"><title>Node4&#45;&gt;Node1</title>
<path fill="none" stroke="#404040" d="M145.285,-172.452C141.025,-162.58 135.763,-151.54 130,-142 128.325,-139.228 126.567,-136.441 124.746,-133.658"/>
<polygon fill="none" stroke="#404040" points="124.669,-133.544 117.986,-130.834 117.918,-123.623 124.6,-126.333 124.669,-133.544"/>
<text text-anchor="middle" x="173" y="-145.5" font-family="Helvetica,sans-Serif" font-size="10.00"> +calibrationType</text>
</g>
</g>
</svg>
