<?xml version="1.0" encoding="UTF-8" standalone="no"?>
<!DOCTYPE svg PUBLIC "-//W3C//DTD SVG 1.1//EN"
 "http://www.w3.org/Graphics/SVG/1.1/DTD/svg11.dtd">
<!-- Generated by graphviz version 2.36.0 (20140111.2315)
 -->
<!-- Title: xsensJointStatePublisherModule Pages: 1 -->
<svg width="1502pt" height="1018pt"
 viewBox="0.00 0.00 1502.00 1018.00" xmlns="http://www.w3.org/2000/svg" xmlns:xlink="http://www.w3.org/1999/xlink">
<g id="graph0" class="graph" transform="scale(1 1) rotate(0) translate(4 1014)">
<title>xsensJointStatePublisherModule</title>
<!-- Node1 -->
<g id="node1" class="node"><title>Node1</title>
<polygon fill="#bfbfbf" stroke="black" points="672,-0.5 672,-189.5 800,-189.5 800,-0.5 672,-0.5"/>
<text text-anchor="start" x="680" y="-177.5" font-family="Helvetica,sans-Serif" font-size="10.00">xsensJointStatePublisher</text>
<text text-anchor="middle" x="736" y="-166.5" font-family="Helvetica,sans-Serif" font-size="10.00">Module</text>
<polyline fill="none" stroke="black" points="672,-159.5 800,-159.5 "/>
<text text-anchor="middle" x="736" y="-147.5" font-family="Helvetica,sans-Serif" font-size="10.00"> </text>
<polyline fill="none" stroke="black" points="672,-140.5 800,-140.5 "/>
<text text-anchor="start" x="680" y="-128.5" font-family="Helvetica,sans-Serif" font-size="10.00">+ getPeriod()</text>
<text text-anchor="start" x="680" y="-117.5" font-family="Helvetica,sans-Serif" font-size="10.00">+ updateModule()</text>
<text text-anchor="start" x="680" y="-106.5" font-family="Helvetica,sans-Serif" font-size="10.00">+ configure()</text>
<text text-anchor="start" x="680" y="-95.5" font-family="Helvetica,sans-Serif" font-size="10.00">+ close()</text>
<text text-anchor="start" x="680" y="-84.5" font-family="Helvetica,sans-Serif" font-size="10.00">+ onRead()</text>
<text text-anchor="start" x="680" y="-73.5" font-family="Helvetica,sans-Serif" font-size="10.00">+ getPeriod()</text>
<text text-anchor="start" x="680" y="-62.5" font-family="Helvetica,sans-Serif" font-size="10.00">+ updateModule()</text>
<text text-anchor="start" x="680" y="-51.5" font-family="Helvetica,sans-Serif" font-size="10.00">+ configure()</text>
<text text-anchor="start" x="680" y="-40.5" font-family="Helvetica,sans-Serif" font-size="10.00">+ close()</text>
<text text-anchor="start" x="680" y="-29.5" font-family="Helvetica,sans-Serif" font-size="10.00">+ onRead()</text>
<text text-anchor="start" x="680" y="-18.5" font-family="Helvetica,sans-Serif" font-size="10.00">+ setRobotPose()</text>
<text text-anchor="start" x="680" y="-7.5" font-family="Helvetica,sans-Serif" font-size="10.00">+ respond()</text>
</g>
<!-- Node2 -->
<g id="node2" class="node"><title>Node2</title>
<g id="a_node2"><a xlink:href="class_r_f_module.html" target="_top" xlink:title="{RFModule\n||}">
<polygon fill="none" stroke="black" points="0,-315.5 0,-372.5 62,-372.5 62,-315.5 0,-315.5"/>
<text text-anchor="middle" x="31" y="-360.5" font-family="Helvetica,sans-Serif" font-size="10.00">RFModule</text>
<polyline fill="none" stroke="black" points="0,-353.5 62,-353.5 "/>
<text text-anchor="middle" x="31" y="-341.5" font-family="Helvetica,sans-Serif" font-size="10.00"> </text>
<polyline fill="none" stroke="black" points="0,-334.5 62,-334.5 "/>
<text text-anchor="middle" x="31" y="-322.5" font-family="Helvetica,sans-Serif" font-size="10.00"> </text>
</a>
</g>
</g>
<!-- Node2&#45;&gt;Node1 -->
<g id="edge1" class="edge"><title>Node2&#45;&gt;Node1</title>
<path fill="none" stroke="midnightblue" d="M33.4251,-305.515C38.875,-289.542 48.2894,-271.889 62,-260 153.634,-180.538 521.508,-123.577 671.73,-103.715"/>
<polygon fill="none" stroke="midnightblue" points="30.0477,-304.593 30.5411,-315.177 36.7552,-306.595 30.0477,-304.593"/>
</g>
<!-- Node2&#45;&gt;Node1 -->
<g id="edge3" class="edge"><title>Node2&#45;&gt;Node1</title>
<path fill="none" stroke="midnightblue" d="M49.8583,-305.515C56.875,-289.542 66.2894,-271.889 80,-260 169.781,-182.145 524.743,-125.89 671.787,-104.965"/>
<polygon fill="none" stroke="midnightblue" points="46.4446,-304.602 45.7823,-315.177 52.8942,-307.323 46.4446,-304.602"/>
</g>
<!-- Node3 -->
<g id="node3" class="node"><title>Node3</title>
<g id="a_node3"><a xlink:href="class_typed_reader_callback.html" target="_top" xlink:title="{TypedReaderCallback\l\&lt; HumanState \&gt;\n||}">
<polygon fill="none" stroke="black" points="80.5,-310 80.5,-378 193.5,-378 193.5,-310 80.5,-310"/>
<text text-anchor="start" x="88.5" y="-366" font-family="Helvetica,sans-Serif" font-size="10.00">TypedReaderCallback</text>
<text text-anchor="middle" x="137" y="-355" font-family="Helvetica,sans-Serif" font-size="10.00">&lt; HumanState &gt;</text>
<polyline fill="none" stroke="black" points="80.5,-348 193.5,-348 "/>
<text text-anchor="middle" x="137" y="-336" font-family="Helvetica,sans-Serif" font-size="10.00"> </text>
<polyline fill="none" stroke="black" points="80.5,-329 193.5,-329 "/>
<text text-anchor="middle" x="137" y="-317" font-family="Helvetica,sans-Serif" font-size="10.00"> </text>
</a>
</g>
</g>
<!-- Node3&#45;&gt;Node1 -->
<g id="edge2" class="edge"><title>Node3&#45;&gt;Node1</title>
<path fill="none" stroke="midnightblue" d="M163.231,-301.412C173.909,-286.901 187.228,-271.41 202,-260 345.529,-149.142 564.305,-112.733 671.812,-101.159"/>
<polygon fill="none" stroke="midnightblue" points="160.205,-299.627 157.258,-309.803 165.908,-303.686 160.205,-299.627"/>
</g>
<!-- Node4 -->
<g id="node4" class="node"><title>Node4</title>
<g id="a_node4"><a xlink:href="class_typed_reader_callback.html" target="_top" xlink:title="{TypedReaderCallback\l\&lt; HumanDynamics \&gt;\n||}">
<polygon fill="none" stroke="black" points="211.5,-310 211.5,-378 324.5,-378 324.5,-310 211.5,-310"/>
<text text-anchor="start" x="219.5" y="-366" font-family="Helvetica,sans-Serif" font-size="10.00">TypedReaderCallback</text>
<text text-anchor="middle" x="268" y="-355" font-family="Helvetica,sans-Serif" font-size="10.00">&lt; HumanDynamics &gt;</text>
<polyline fill="none" stroke="black" points="211.5,-348 324.5,-348 "/>
<text text-anchor="middle" x="268" y="-336" font-family="Helvetica,sans-Serif" font-size="10.00"> </text>
<polyline fill="none" stroke="black" points="211.5,-329 324.5,-329 "/>
<text text-anchor="middle" x="268" y="-317" font-family="Helvetica,sans-Serif" font-size="10.00"> </text>
</a>
</g>
</g>
<!-- Node4&#45;&gt;Node1 -->
<g id="edge4" class="edge"><title>Node4&#45;&gt;Node1</title>
<path fill="none" stroke="midnightblue" d="M287.045,-300.844C302.634,-270.854 327.418,-231.809 360,-208 454.59,-138.88 591.807,-112.081 671.672,-101.937"/>
<polygon fill="none" stroke="midnightblue" points="283.889,-299.33 282.504,-309.834 290.137,-302.486 283.889,-299.33"/>
</g>
<!-- Node5 -->
<g id="node5" class="node"><title>Node5</title>
<g id="a_node5"><a xlink:href="classyarp_1_1os_1_1_buffered_port.html" target="_top" xlink:title="{yarp::os::BufferedPort\l\&lt; HumanDynamics \&gt;\n||}">
<polygon fill="none" stroke="black" points="342.5,-310 342.5,-378 455.5,-378 455.5,-310 342.5,-310"/>
<text text-anchor="start" x="350.5" y="-366" font-family="Helvetica,sans-Serif" font-size="10.00">yarp::os::BufferedPort</text>
<text text-anchor="middle" x="399" y="-355" font-family="Helvetica,sans-Serif" font-size="10.00">&lt; HumanDynamics &gt;</text>
<polyline fill="none" stroke="black" points="342.5,-348 455.5,-348 "/>
<text text-anchor="middle" x="399" y="-336" font-family="Helvetica,sans-Serif" font-size="10.00"> </text>
<polyline fill="none" stroke="black" points="342.5,-329 455.5,-329 "/>
<text text-anchor="middle" x="399" y="-317" font-family="Helvetica,sans-Serif" font-size="10.00"> </text>
</a>
</g>
</g>
<!-- Node5&#45;&gt;Node1 -->
<g id="edge5" class="edge"><title>Node5&#45;&gt;Node1</title>
<path fill="none" stroke="#404040" d="M380.25,-309.84C366.357,-280.372 353.255,-237.514 375,-208 408.968,-161.897 564.419,-126.598 659.915,-108.801"/>
<polygon fill="none" stroke="#404040" points="660.023,-108.781 665.201,-103.763 671.825,-106.614 666.646,-111.632 660.023,-108.781"/>
<text text-anchor="middle" x="434.5" y="-222.5" font-family="Helvetica,sans-Serif" font-size="10.00"> &#45;humanDynamicsDataPort</text>
</g>
<!-- Node6 -->
<g id="node6" class="node"><title>Node6</title>
<g id="a_node6"><a xlink:href="classtf2__msgs___t_f_message.html" target="_top" xlink:title="{tf2_msgs_TFMessage\n||+ tf2_msgs_TFMessage()\l+ clear()\l+ readBare()\l+ readBottle()\l+ read()\l+ writeBare()\l+ writeBottle()\l+ write()\l+ getTypeText()\l+ getType()\land 10 more...\l}">
<polygon fill="none" stroke="black" points="412.5,-714.5 412.5,-881.5 541.5,-881.5 541.5,-714.5 412.5,-714.5"/>
<text text-anchor="middle" x="477" y="-869.5" font-family="Helvetica,sans-Serif" font-size="10.00">tf2_msgs_TFMessage</text>
<polyline fill="none" stroke="black" points="412.5,-862.5 541.5,-862.5 "/>
<text text-anchor="middle" x="477" y="-850.5" font-family="Helvetica,sans-Serif" font-size="10.00"> </text>
<polyline fill="none" stroke="black" points="412.5,-843.5 541.5,-843.5 "/>
<text text-anchor="start" x="420.5" y="-831.5" font-family="Helvetica,sans-Serif" font-size="10.00">+ tf2_msgs_TFMessage()</text>
<text text-anchor="start" x="420.5" y="-820.5" font-family="Helvetica,sans-Serif" font-size="10.00">+ clear()</text>
<text text-anchor="start" x="420.5" y="-809.5" font-family="Helvetica,sans-Serif" font-size="10.00">+ readBare()</text>
<text text-anchor="start" x="420.5" y="-798.5" font-family="Helvetica,sans-Serif" font-size="10.00">+ readBottle()</text>
<text text-anchor="start" x="420.5" y="-787.5" font-family="Helvetica,sans-Serif" font-size="10.00">+ read()</text>
<text text-anchor="start" x="420.5" y="-776.5" font-family="Helvetica,sans-Serif" font-size="10.00">+ writeBare()</text>
<text text-anchor="start" x="420.5" y="-765.5" font-family="Helvetica,sans-Serif" font-size="10.00">+ writeBottle()</text>
<text text-anchor="start" x="420.5" y="-754.5" font-family="Helvetica,sans-Serif" font-size="10.00">+ write()</text>
<text text-anchor="start" x="420.5" y="-743.5" font-family="Helvetica,sans-Serif" font-size="10.00">+ getTypeText()</text>
<text text-anchor="start" x="420.5" y="-732.5" font-family="Helvetica,sans-Serif" font-size="10.00">+ getType()</text>
<text text-anchor="start" x="420.5" y="-721.5" font-family="Helvetica,sans-Serif" font-size="10.00">and 10 more...</text>
</a>
</g>
</g>
<!-- Node6&#45;&gt;Node1 -->
<g id="edge6" class="edge"><title>Node6&#45;&gt;Node1</title>
<path fill="none" stroke="#404040" d="M472.324,-714.246C466.359,-583.4 461.301,-335.8 503,-260 537.351,-197.556 606.836,-153.453 661.029,-126.826"/>
<polygon fill="none" stroke="#404040" points="661.173,-126.757 664.856,-120.556 671.995,-121.571 668.313,-127.771 661.173,-126.757"/>
<text text-anchor="middle" x="477.5" y="-460.5" font-family="Helvetica,sans-Serif" font-size="10.00"> &#45;tf</text>
</g>
<!-- Node7 -->
<g id="node7" class="node"><title>Node7</title>
<g id="a_node7"><a xlink:href="classyarp_1_1os_1_1idl_1_1_wire_portable.html" target="_top" xlink:title="{WirePortable\n||}">
<polygon fill="none" stroke="black" points="592.5,-946.5 592.5,-1003.5 665.5,-1003.5 665.5,-946.5 592.5,-946.5"/>
<text text-anchor="middle" x="629" y="-991.5" font-family="Helvetica,sans-Serif" font-size="10.00">WirePortable</text>
<polyline fill="none" stroke="black" points="592.5,-984.5 665.5,-984.5 "/>
<text text-anchor="middle" x="629" y="-972.5" font-family="Helvetica,sans-Serif" font-size="10.00"> </text>
<polyline fill="none" stroke="black" points="592.5,-965.5 665.5,-965.5 "/>
<text text-anchor="middle" x="629" y="-953.5" font-family="Helvetica,sans-Serif" font-size="10.00"> </text>
</a>
</g>
</g>
<!-- Node7&#45;&gt;Node6 -->
<g id="edge7" class="edge"><title>Node7&#45;&gt;Node6</title>
<path fill="none" stroke="midnightblue" d="M583.661,-950.316C571.883,-942.097 559.819,-932.332 550,-922 538.42,-909.815 527.397,-895.813 517.556,-881.721"/>
<polygon fill="none" stroke="midnightblue" points="581.897,-953.347 592.15,-956.013 585.797,-947.534 581.897,-953.347"/>
</g>
<!-- Node7&#45;&gt;Node6 -->
<g id="edge8" class="edge"><title>Node7&#45;&gt;Node6</title>
<path fill="none" stroke="midnightblue" d="M587.464,-939.86C580.66,-934.256 573.922,-928.231 568,-922 556.42,-909.815 545.397,-895.813 535.255,-881.721"/>
<polygon fill="none" stroke="midnightblue" points="585.439,-942.722 595.435,-946.233 589.81,-937.255 585.439,-942.722"/>
</g>
<!-- Node15 -->
<g id="node15" class="node"><title>Node15</title>
<g id="a_node15"><a xlink:href="classsensor__msgs___joint_state.html" target="_top" xlink:title="{sensor_msgs_JointState\n||+ sensor_msgs_JointState()\l+ clear()\l+ readBare()\l+ readBottle()\l+ read()\l+ writeBare()\l+ writeBottle()\l+ write()\l+ getTypeText()\l+ getType()\land 10 more...\l}">
<polygon fill="none" stroke="black" points="512,-260.5 512,-427.5 652,-427.5 652,-260.5 512,-260.5"/>
<text text-anchor="middle" x="582" y="-415.5" font-family="Helvetica,sans-Serif" font-size="10.00">sensor_msgs_JointState</text>
<polyline fill="none" stroke="black" points="512,-408.5 652,-408.5 "/>
<text text-anchor="middle" x="582" y="-396.5" font-family="Helvetica,sans-Serif" font-size="10.00"> </text>
<polyline fill="none" stroke="black" points="512,-389.5 652,-389.5 "/>
<text text-anchor="start" x="520" y="-377.5" font-family="Helvetica,sans-Serif" font-size="10.00">+ sensor_msgs_JointState()</text>
<text text-anchor="start" x="520" y="-366.5" font-family="Helvetica,sans-Serif" font-size="10.00">+ clear()</text>
<text text-anchor="start" x="520" y="-355.5" font-family="Helvetica,sans-Serif" font-size="10.00">+ readBare()</text>
<text text-anchor="start" x="520" y="-344.5" font-family="Helvetica,sans-Serif" font-size="10.00">+ readBottle()</text>
<text text-anchor="start" x="520" y="-333.5" font-family="Helvetica,sans-Serif" font-size="10.00">+ read()</text>
<text text-anchor="start" x="520" y="-322.5" font-family="Helvetica,sans-Serif" font-size="10.00">+ writeBare()</text>
<text text-anchor="start" x="520" y="-311.5" font-family="Helvetica,sans-Serif" font-size="10.00">+ writeBottle()</text>
<text text-anchor="start" x="520" y="-300.5" font-family="Helvetica,sans-Serif" font-size="10.00">+ write()</text>
<text text-anchor="start" x="520" y="-289.5" font-family="Helvetica,sans-Serif" font-size="10.00">+ getTypeText()</text>
<text text-anchor="start" x="520" y="-278.5" font-family="Helvetica,sans-Serif" font-size="10.00">+ getType()</text>
<text text-anchor="start" x="520" y="-267.5" font-family="Helvetica,sans-Serif" font-size="10.00">and 10 more...</text>
</a>
</g>
</g>
<!-- Node7&#45;&gt;Node15 -->
<g id="edge17" class="edge"><title>Node7&#45;&gt;Node15</title>
<path fill="none" stroke="midnightblue" d="M616.007,-936.32C602.057,-878.456 582.436,-764.108 575,-666 568.871,-585.144 569.063,-492.506 572.023,-427.597"/>
<polygon fill="none" stroke="midnightblue" points="612.635,-937.263 618.454,-946.117 619.426,-935.566 612.635,-937.263"/>
</g>
<!-- Node7&#45;&gt;Node15 -->
<g id="edge18" class="edge"><title>Node7&#45;&gt;Node15</title>
<path fill="none" stroke="midnightblue" d="M627.485,-935.96C619.976,-877.983 600.421,-763.905 593,-666 586.871,-585.144 587.063,-492.506 586.718,-427.597"/>
<polygon fill="none" stroke="midnightblue" points="624.04,-936.622 628.741,-946.117 630.987,-935.763 624.04,-936.622"/>
</g>
<!-- Node17 -->
<g id="node17" class="node"><title>Node17</title>
<g id="a_node17"><a xlink:href="classstd__msgs___header.html" target="_top" xlink:title="{std_msgs_Header\n||+ std_msgs_Header()\l+ clear()\l+ readBare()\l+ readBottle()\l+ read()\l+ writeBare()\l+ writeBottle()\l+ write()\l+ getTypeText()\l+ getType()\land 10 more...\l}">
<polygon fill="none" stroke="black" points="885.5,-498.5 885.5,-665.5 996.5,-665.5 996.5,-498.5 885.5,-498.5"/>
<text text-anchor="middle" x="941" y="-653.5" font-family="Helvetica,sans-Serif" font-size="10.00">std_msgs_Header</text>
<polyline fill="none" stroke="black" points="885.5,-646.5 996.5,-646.5 "/>
<text text-anchor="middle" x="941" y="-634.5" font-family="Helvetica,sans-Serif" font-size="10.00"> </text>
<polyline fill="none" stroke="black" points="885.5,-627.5 996.5,-627.5 "/>
<text text-anchor="start" x="893.5" y="-615.5" font-family="Helvetica,sans-Serif" font-size="10.00">+ std_msgs_Header()</text>
<text text-anchor="start" x="893.5" y="-604.5" font-family="Helvetica,sans-Serif" font-size="10.00">+ clear()</text>
<text text-anchor="start" x="893.5" y="-593.5" font-family="Helvetica,sans-Serif" font-size="10.00">+ readBare()</text>
<text text-anchor="start" x="893.5" y="-582.5" font-family="Helvetica,sans-Serif" font-size="10.00">+ readBottle()</text>
<text text-anchor="start" x="893.5" y="-571.5" font-family="Helvetica,sans-Serif" font-size="10.00">+ read()</text>
<text text-anchor="start" x="893.5" y="-560.5" font-family="Helvetica,sans-Serif" font-size="10.00">+ writeBare()</text>
<text text-anchor="start" x="893.5" y="-549.5" font-family="Helvetica,sans-Serif" font-size="10.00">+ writeBottle()</text>
<text text-anchor="start" x="893.5" y="-538.5" font-family="Helvetica,sans-Serif" font-size="10.00">+ write()</text>
<text text-anchor="start" x="893.5" y="-527.5" font-family="Helvetica,sans-Serif" font-size="10.00">+ getTypeText()</text>
<text text-anchor="start" x="893.5" y="-516.5" font-family="Helvetica,sans-Serif" font-size="10.00">+ getType()</text>
<text text-anchor="start" x="893.5" y="-505.5" font-family="Helvetica,sans-Serif" font-size="10.00">and 10 more...</text>
</a>
</g>
</g>
<!-- Node7&#45;&gt;Node17 -->
<g id="edge21" class="edge"><title>Node7&#45;&gt;Node17</title>
<path fill="none" stroke="midnightblue" d="M631.709,-936.227C642.861,-880.754 676.697,-777.024 741,-714 764.591,-690.878 778.064,-695.581 809,-684 834.277,-674.537 844.78,-681.322 867,-666 873.479,-661.532 879.616,-656.224 885.384,-650.483"/>
<polygon fill="none" stroke="midnightblue" points="628.218,-935.857 629.834,-946.328 635.101,-937.135 628.218,-935.857"/>
</g>
<!-- Node7&#45;&gt;Node17 -->
<g id="edge22" class="edge"><title>Node7&#45;&gt;Node17</title>
<path fill="none" stroke="midnightblue" d="M643.255,-936.573C660.721,-881.186 694.564,-777.155 759,-714 782.591,-690.878 796.064,-695.581 827,-684 852.277,-674.537 862.78,-681.322 885,-666 885.151,-665.896 885.301,-665.792 885.451,-665.687"/>
<polygon fill="none" stroke="midnightblue" points="639.848,-935.738 640.18,-946.328 646.524,-937.842 639.848,-935.738"/>
</g>
<!-- Node18 -->
<g id="node18" class="node"><title>Node18</title>
<g id="a_node18"><a xlink:href="class_tick_time.html" target="_top" xlink:title="{TickTime\n||+ TickTime()\l+ clear()\l+ readBare()\l+ readBottle()\l+ read()\l+ writeBare()\l+ writeBottle()\l+ write()\l+ getTypeText()\l+ getType()\land 10 more...\l}">
<polygon fill="none" stroke="black" points="819,-714.5 819,-881.5 905,-881.5 905,-714.5 819,-714.5"/>
<text text-anchor="middle" x="862" y="-869.5" font-family="Helvetica,sans-Serif" font-size="10.00">TickTime</text>
<polyline fill="none" stroke="black" points="819,-862.5 905,-862.5 "/>
<text text-anchor="middle" x="862" y="-850.5" font-family="Helvetica,sans-Serif" font-size="10.00"> </text>
<polyline fill="none" stroke="black" points="819,-843.5 905,-843.5 "/>
<text text-anchor="start" x="827" y="-831.5" font-family="Helvetica,sans-Serif" font-size="10.00">+ TickTime()</text>
<text text-anchor="start" x="827" y="-820.5" font-family="Helvetica,sans-Serif" font-size="10.00">+ clear()</text>
<text text-anchor="start" x="827" y="-809.5" font-family="Helvetica,sans-Serif" font-size="10.00">+ readBare()</text>
<text text-anchor="start" x="827" y="-798.5" font-family="Helvetica,sans-Serif" font-size="10.00">+ readBottle()</text>
<text text-anchor="start" x="827" y="-787.5" font-family="Helvetica,sans-Serif" font-size="10.00">+ read()</text>
<text text-anchor="start" x="827" y="-776.5" font-family="Helvetica,sans-Serif" font-size="10.00">+ writeBare()</text>
<text text-anchor="start" x="827" y="-765.5" font-family="Helvetica,sans-Serif" font-size="10.00">+ writeBottle()</text>
<text text-anchor="start" x="827" y="-754.5" font-family="Helvetica,sans-Serif" font-size="10.00">+ write()</text>
<text text-anchor="start" x="827" y="-743.5" font-family="Helvetica,sans-Serif" font-size="10.00">+ getTypeText()</text>
<text text-anchor="start" x="827" y="-732.5" font-family="Helvetica,sans-Serif" font-size="10.00">+ getType()</text>
<text text-anchor="start" x="827" y="-721.5" font-family="Helvetica,sans-Serif" font-size="10.00">and 10 more...</text>
</a>
</g>
</g>
<!-- Node7&#45;&gt;Node18 -->
<g id="edge24" class="edge"><title>Node7&#45;&gt;Node18</title>
<path fill="none" stroke="midnightblue" d="M675.021,-955.397C711.892,-940.092 763.16,-915.47 800,-882 806.833,-875.792 813.142,-868.51 818.928,-860.883"/>
<polygon fill="none" stroke="midnightblue" points="673.442,-952.261 665.502,-959.276 676.083,-958.743 673.442,-952.261"/>
</g>
<!-- Node7&#45;&gt;Node18 -->
<g id="edge25" class="edge"><title>Node7&#45;&gt;Node18</title>
<path fill="none" stroke="midnightblue" d="M675.098,-960.864C716.397,-946.31 776.397,-919.797 818,-882 818.253,-881.77 818.505,-881.539 818.757,-881.306"/>
<polygon fill="none" stroke="midnightblue" points="673.873,-957.584 665.545,-964.133 676.14,-964.207 673.873,-957.584"/>
</g>
<!-- Node8 -->
<g id="node8" class="node"><title>Node8</title>
<polygon fill="none" stroke="#bfbfbf" points="395,-941 395,-1009 517,-1009 517,-941 395,-941"/>
<text text-anchor="start" x="403" y="-997" font-family="Helvetica,sans-Serif" font-size="10.00">vector&lt; geometry_msgs</text>
<text text-anchor="middle" x="456" y="-986" font-family="Helvetica,sans-Serif" font-size="10.00">_TransformStamped &gt;</text>
<polyline fill="none" stroke="#bfbfbf" points="395,-979 517,-979 "/>
<text text-anchor="middle" x="456" y="-967" font-family="Helvetica,sans-Serif" font-size="10.00"> </text>
<polyline fill="none" stroke="#bfbfbf" points="395,-960 517,-960 "/>
<text text-anchor="middle" x="456" y="-948" font-family="Helvetica,sans-Serif" font-size="10.00"> </text>
</g>
<!-- Node8&#45;&gt;Node6 -->
<g id="edge9" class="edge"><title>Node8&#45;&gt;Node6</title>
<path fill="none" stroke="#404040" d="M455.165,-940.771C455.18,-927.994 455.606,-913.289 457,-900 457.215,-897.953 457.451,-895.885 457.705,-893.804"/>
<polygon fill="none" stroke="#404040" points="457.725,-893.657 454.576,-887.169 459.353,-881.768 462.502,-888.255 457.725,-893.657"/>
<text text-anchor="middle" x="485" y="-908.5" font-family="Helvetica,sans-Serif" font-size="10.00"> +transforms</text>
</g>
<!-- Node9 -->
<g id="node9" class="node"><title>Node9</title>
<g id="a_node9"><a xlink:href="classyarp_1_1os_1_1_publisher.html" target="_top" xlink:title="{yarp::os::Publisher\l\&lt; tf2_msgs_TFMessage \&gt;\n||}">
<polygon fill="none" stroke="black" points="670,-310 670,-378 802,-378 802,-310 670,-310"/>
<text text-anchor="start" x="678" y="-366" font-family="Helvetica,sans-Serif" font-size="10.00">yarp::os::Publisher</text>
<text text-anchor="middle" x="736" y="-355" font-family="Helvetica,sans-Serif" font-size="10.00">&lt; tf2_msgs_TFMessage &gt;</text>
<polyline fill="none" stroke="black" points="670,-348 802,-348 "/>
<text text-anchor="middle" x="736" y="-336" font-family="Helvetica,sans-Serif" font-size="10.00"> </text>
<polyline fill="none" stroke="black" points="670,-329 802,-329 "/>
<text text-anchor="middle" x="736" y="-317" font-family="Helvetica,sans-Serif" font-size="10.00"> </text>
</a>
</g>
</g>
<!-- Node9&#45;&gt;Node1 -->
<g id="edge10" class="edge"><title>Node9&#45;&gt;Node1</title>
<path fill="none" stroke="#404040" d="M736,-309.945C736,-282.068 736,-240.581 736,-201.541"/>
<polygon fill="none" stroke="#404040" points="736,-201.522 732,-195.522 736,-189.522 740,-195.522 736,-201.522"/>
<text text-anchor="middle" x="764.5" y="-222.5" font-family="Helvetica,sans-Serif" font-size="10.00"> &#45;publisher_tf</text>
</g>
<!-- Node10 -->
<g id="node10" class="node"><title>Node10</title>
<polygon fill="none" stroke="#bfbfbf" points="820,-315.5 820,-372.5 864,-372.5 864,-315.5 820,-315.5"/>
<text text-anchor="middle" x="842" y="-360.5" font-family="Helvetica,sans-Serif" font-size="10.00">Mutex</text>
<polyline fill="none" stroke="#bfbfbf" points="820,-353.5 864,-353.5 "/>
<text text-anchor="middle" x="842" y="-341.5" font-family="Helvetica,sans-Serif" font-size="10.00"> </text>
<polyline fill="none" stroke="#bfbfbf" points="820,-334.5 864,-334.5 "/>
<text text-anchor="middle" x="842" y="-322.5" font-family="Helvetica,sans-Serif" font-size="10.00"> </text>
</g>
<!-- Node10&#45;&gt;Node1 -->
<g id="edge11" class="edge"><title>Node10&#45;&gt;Node1</title>
<path fill="none" stroke="#404040" d="M834.337,-315.318C826.317,-287.648 812.716,-244.135 797,-208 795.924,-205.525 794.812,-203.033 793.67,-200.529"/>
<polygon fill="none" stroke="#404040" points="793.593,-200.365 787.421,-196.636 788.489,-189.504 794.661,-193.234 793.593,-200.365"/>
<text text-anchor="middle" x="828" y="-222.5" font-family="Helvetica,sans-Serif" font-size="10.00"> &#45;mutex</text>
</g>
<!-- Node11 -->
<g id="node11" class="node"><title>Node11</title>
<g id="a_node11"><a xlink:href="classyarp_1_1os_1_1_publisher.html" target="_top" xlink:title="{yarp::os::Publisher\l\&lt; sensor_msgs_JointState \&gt;\n||}">
<polygon fill="none" stroke="black" points="882.5,-310 882.5,-378 1025.5,-378 1025.5,-310 882.5,-310"/>
<text text-anchor="start" x="890.5" y="-366" font-family="Helvetica,sans-Serif" font-size="10.00">yarp::os::Publisher</text>
<text text-anchor="middle" x="954" y="-355" font-family="Helvetica,sans-Serif" font-size="10.00">&lt; sensor_msgs_JointState &gt;</text>
<polyline fill="none" stroke="black" points="882.5,-348 1025.5,-348 "/>
<text text-anchor="middle" x="954" y="-336" font-family="Helvetica,sans-Serif" font-size="10.00"> </text>
<polyline fill="none" stroke="black" points="882.5,-329 1025.5,-329 "/>
<text text-anchor="middle" x="954" y="-317" font-family="Helvetica,sans-Serif" font-size="10.00"> </text>
</a>
</g>
</g>
<!-- Node11&#45;&gt;Node1 -->
<g id="edge12" class="edge"><title>Node11&#45;&gt;Node1</title>
<path fill="none" stroke="#404040" d="M930.1,-309.871C909.52,-281.945 878.55,-241.324 849,-208 836.404,-193.795 822.425,-179.144 808.715,-165.31"/>
<polygon fill="none" stroke="#404040" points="808.709,-165.304 801.639,-163.886 800.228,-156.814 807.299,-158.232 808.709,-165.304"/>
<text text-anchor="middle" x="900" y="-222.5" font-family="Helvetica,sans-Serif" font-size="10.00"> &#45;publisher</text>
</g>
<!-- Node12 -->
<g id="node12" class="node"><title>Node12</title>
<g id="a_node12"><a xlink:href="classyarp_1_1os_1_1_buffered_port.html" target="_top" xlink:title="{yarp::os::BufferedPort\l\&lt; HumanState \&gt;\n||}">
<polygon fill="none" stroke="black" points="1043.5,-310 1043.5,-378 1156.5,-378 1156.5,-310 1043.5,-310"/>
<text text-anchor="start" x="1051.5" y="-366" font-family="Helvetica,sans-Serif" font-size="10.00">yarp::os::BufferedPort</text>
<text text-anchor="middle" x="1100" y="-355" font-family="Helvetica,sans-Serif" font-size="10.00">&lt; HumanState &gt;</text>
<polyline fill="none" stroke="black" points="1043.5,-348 1156.5,-348 "/>
<text text-anchor="middle" x="1100" y="-336" font-family="Helvetica,sans-Serif" font-size="10.00"> </text>
<polyline fill="none" stroke="black" points="1043.5,-329 1156.5,-329 "/>
<text text-anchor="middle" x="1100" y="-317" font-family="Helvetica,sans-Serif" font-size="10.00"> </text>
</a>
</g>
</g>
<!-- Node12&#45;&gt;Node1 -->
<g id="edge13" class="edge"><title>Node12&#45;&gt;Node1</title>
<path fill="none" stroke="#404040" d="M1078.2,-309.68C1066.44,-293.378 1050.88,-274.25 1034,-260 965.994,-202.597 874.785,-155.945 811.259,-127.278"/>
<polygon fill="none" stroke="#404040" points="811.086,-127.201 803.976,-128.409 800.127,-122.311 807.236,-121.103 811.086,-127.201"/>
<text text-anchor="middle" x="1055" y="-222.5" font-family="Helvetica,sans-Serif" font-size="10.00"> &#45;humanStateDataPort</text>
</g>
<!-- Node13 -->
<g id="node13" class="node"><title>Node13</title>
<polygon fill="none" stroke="#bfbfbf" points="1174.5,-315.5 1174.5,-372.5 1235.5,-372.5 1235.5,-315.5 1174.5,-315.5"/>
<text text-anchor="middle" x="1205" y="-360.5" font-family="Helvetica,sans-Serif" font-size="10.00">Transform</text>
<polyline fill="none" stroke="#bfbfbf" points="1174.5,-353.5 1235.5,-353.5 "/>
<text text-anchor="middle" x="1205" y="-341.5" font-family="Helvetica,sans-Serif" font-size="10.00"> </text>
<polyline fill="none" stroke="#bfbfbf" points="1174.5,-334.5 1235.5,-334.5 "/>
<text text-anchor="middle" x="1205" y="-322.5" font-family="Helvetica,sans-Serif" font-size="10.00"> </text>
</g>
<!-- Node13&#45;&gt;Node1 -->
<g id="edge14" class="edge"><title>Node13&#45;&gt;Node1</title>
<path fill="none" stroke="#404040" d="M1196.17,-315.277C1189.62,-297.935 1179.33,-275.941 1165,-260 1154.86,-248.718 1147.42,-251.988 1136,-242 1121.27,-229.111 1124.3,-218.845 1108,-208 1016.86,-147.35 891.742,-118.584 812.376,-105.652"/>
<polygon fill="none" stroke="#404040" points="811.897,-105.577 805.348,-108.595 800.043,-103.711 806.592,-100.693 811.897,-105.577"/>
<text text-anchor="middle" x="1196.5" y="-233.5" font-family="Helvetica,sans-Serif" font-size="10.00"> &#45;humanPelvisWRTGround</text>
<text text-anchor="middle" x="1196.5" y="-222.5" font-family="Helvetica,sans-Serif" font-size="10.00">&#45;robotBaseLinkWRTPelvis</text>
<text text-anchor="middle" x="1196.5" y="-211.5" font-family="Helvetica,sans-Serif" font-size="10.00">&#45;robotBaseLinkWRTGround</text>
</g>
<!-- Node14 -->
<g id="node14" class="node"><title>Node14</title>
<polygon fill="none" stroke="#bfbfbf" points="1261.5,-315.5 1261.5,-372.5 1296.5,-372.5 1296.5,-315.5 1261.5,-315.5"/>
<text text-anchor="middle" x="1279" y="-360.5" font-family="Helvetica,sans-Serif" font-size="10.00">bool</text>
<polyline fill="none" stroke="#bfbfbf" points="1261.5,-353.5 1296.5,-353.5 "/>
<text text-anchor="middle" x="1279" y="-341.5" font-family="Helvetica,sans-Serif" font-size="10.00"> </text>
<polyline fill="none" stroke="#bfbfbf" points="1261.5,-334.5 1296.5,-334.5 "/>
<text text-anchor="middle" x="1279" y="-322.5" font-family="Helvetica,sans-Serif" font-size="10.00"> </text>
</g>
<!-- Node14&#45;&gt;Node1 -->
<g id="edge15" class="edge"><title>Node14&#45;&gt;Node1</title>
<path fill="none" stroke="#404040" d="M1282.83,-315.267C1285.35,-284.848 1284.17,-236.565 1257,-208 1196.78,-144.677 941.74,-113.822 812.192,-101.998"/>
<polygon fill="none" stroke="#404040" points="812.01,-101.982 805.678,-105.432 800.058,-100.913 806.391,-97.4634 812.01,-101.982"/>
<text text-anchor="middle" x="1314" y="-222.5" font-family="Helvetica,sans-Serif" font-size="10.00"> &#45;hasRobotFrame</text>
</g>
<!-- Node15&#45;&gt;Node1 -->
<g id="edge16" class="edge"><title>Node15&#45;&gt;Node1</title>
<path fill="none" stroke="#404040" d="M633.494,-260.409C645.612,-240.973 658.68,-220.014 671.296,-199.779"/>
<polygon fill="none" stroke="#404040" points="671.296,-199.779 671.076,-192.571 677.645,-189.596 677.864,-196.804 671.296,-199.779"/>
<text text-anchor="middle" x="690" y="-222.5" font-family="Helvetica,sans-Serif" font-size="10.00"> &#45;joint_state</text>
</g>
<!-- Node16 -->
<g id="node16" class="node"><title>Node16</title>
<polygon fill="none" stroke="#bfbfbf" points="593.5,-553.5 593.5,-610.5 698.5,-610.5 698.5,-553.5 593.5,-553.5"/>
<text text-anchor="middle" x="646" y="-598.5" font-family="Helvetica,sans-Serif" font-size="10.00">vector&lt; std::string &gt;</text>
<polyline fill="none" stroke="#bfbfbf" points="593.5,-591.5 698.5,-591.5 "/>
<text text-anchor="middle" x="646" y="-579.5" font-family="Helvetica,sans-Serif" font-size="10.00"> </text>
<polyline fill="none" stroke="#bfbfbf" points="593.5,-572.5 698.5,-572.5 "/>
<text text-anchor="middle" x="646" y="-560.5" font-family="Helvetica,sans-Serif" font-size="10.00"> </text>
</g>
<!-- Node16&#45;&gt;Node15 -->
<g id="edge19" class="edge"><title>Node16&#45;&gt;Node15</title>
<path fill="none" stroke="#404040" d="M638.533,-553.466C630.939,-525.463 618.738,-480.472 607.611,-439.442"/>
<polygon fill="none" stroke="#404040" points="607.571,-439.292 602.14,-434.548 604.43,-427.71 609.861,-432.454 607.571,-439.292"/>
<text text-anchor="middle" x="635" y="-460.5" font-family="Helvetica,sans-Serif" font-size="10.00"> +name</text>
</g>
<!-- Node17&#45;&gt;Node15 -->
<g id="edge20" class="edge"><title>Node17&#45;&gt;Node15</title>
<path fill="none" stroke="#404040" d="M885.448,-505.768C882.381,-503.014 879.228,-500.407 876,-498 825.456,-460.301 804.342,-464.297 744,-446 711.123,-436.031 696.598,-444.612 662.685,-428.111"/>
<polygon fill="none" stroke="#404040" points="662.635,-428.084 655.459,-428.799 652.04,-422.45 659.215,-421.735 662.635,-428.084"/>
<text text-anchor="middle" x="868.5" y="-460.5" font-family="Helvetica,sans-Serif" font-size="10.00"> +header</text>
</g>
<!-- Node18&#45;&gt;Node17 -->
<g id="edge23" class="edge"><title>Node18&#45;&gt;Node17</title>
<path fill="none" stroke="#404040" d="M880.212,-714.259C883.147,-703.963 886.415,-693.664 890,-684 890.881,-681.626 891.802,-679.235 892.758,-676.835"/>
<polygon fill="none" stroke="#404040" points="892.839,-676.639 891.456,-669.562 897.457,-665.563 898.84,-672.64 892.839,-676.639"/>
<text text-anchor="middle" x="908.5" y="-687.5" font-family="Helvetica,sans-Serif" font-size="10.00"> +stamp</text>
</g>
<!-- Node19 -->
<g id="node19" class="node"><title>Node19</title>
<polygon fill="none" stroke="#bfbfbf" points="879.5,-946.5 879.5,-1003.5 940.5,-1003.5 940.5,-946.5 879.5,-946.5"/>
<text text-anchor="middle" x="910" y="-991.5" font-family="Helvetica,sans-Serif" font-size="10.00">NetUint32</text>
<polyline fill="none" stroke="#bfbfbf" points="879.5,-984.5 940.5,-984.5 "/>
<text text-anchor="middle" x="910" y="-972.5" font-family="Helvetica,sans-Serif" font-size="10.00"> </text>
<polyline fill="none" stroke="#bfbfbf" points="879.5,-965.5 940.5,-965.5 "/>
<text text-anchor="middle" x="910" y="-953.5" font-family="Helvetica,sans-Serif" font-size="10.00"> </text>
</g>
<!-- Node19&#45;&gt;Node17 -->
<g id="edge27" class="edge"><title>Node19&#45;&gt;Node17</title>
<path fill="none" stroke="#404040" d="M920.613,-946.297C923.154,-938.544 925.549,-930.038 927,-922 941.735,-840.384 944.497,-746.001 943.999,-677.582"/>
<polygon fill="none" stroke="#404040" points="943.998,-677.547 939.937,-671.588 943.875,-665.547 947.937,-671.506 943.998,-677.547"/>
<text text-anchor="middle" x="956.5" y="-795.5" font-family="Helvetica,sans-Serif" font-size="10.00"> +seq</text>
</g>
<!-- Node19&#45;&gt;Node18 -->
<g id="edge26" class="edge"><title>Node19&#45;&gt;Node18</title>
<path fill="none" stroke="#404040" d="M902.394,-946.271C898.391,-931.676 893.223,-912.832 887.928,-893.529"/>
<polygon fill="none" stroke="#404040" points="887.889,-893.386 882.444,-888.658 884.715,-881.814 890.159,-886.542 887.889,-893.386"/>
<text text-anchor="middle" x="909" y="-914" font-family="Helvetica,sans-Serif" font-size="10.00"> +sec</text>
<text text-anchor="middle" x="909" y="-903" font-family="Helvetica,sans-Serif" font-size="10.00">+nsec</text>
</g>
<!-- Node20 -->
<g id="node20" class="node"><title>Node20</title>
<polygon fill="none" stroke="#bfbfbf" points="759.5,-769.5 759.5,-826.5 800.5,-826.5 800.5,-769.5 759.5,-769.5"/>
<text text-anchor="middle" x="780" y="-814.5" font-family="Helvetica,sans-Serif" font-size="10.00">string</text>
<polyline fill="none" stroke="#bfbfbf" points="759.5,-807.5 800.5,-807.5 "/>
<text text-anchor="middle" x="780" y="-795.5" font-family="Helvetica,sans-Serif" font-size="10.00"> </text>
<polyline fill="none" stroke="#bfbfbf" points="759.5,-788.5 800.5,-788.5 "/>
<text text-anchor="middle" x="780" y="-776.5" font-family="Helvetica,sans-Serif" font-size="10.00"> </text>
</g>
<!-- Node20&#45;&gt;Node17 -->
<g id="edge28" class="edge"><title>Node20&#45;&gt;Node17</title>
<path fill="none" stroke="#404040" d="M787.329,-769.412C792.391,-752.737 800.013,-731.411 810,-714 818.636,-698.945 821.129,-694.433 835,-684 850.904,-672.038 860.279,-678.203 876,-666 876.099,-665.923 876.199,-665.846 876.298,-665.768"/>
<polygon fill="none" stroke="#404040" points="876.193,-665.857 878.169,-658.922 885.33,-658.078 883.355,-665.013 876.193,-665.857"/>
<text text-anchor="middle" x="858.5" y="-687.5" font-family="Helvetica,sans-Serif" font-size="10.00"> +frame_id</text>
</g>
<!-- Node21 -->
<g id="node21" class="node"><title>Node21</title>
<polygon fill="none" stroke="#bfbfbf" points="716.5,-553.5 716.5,-610.5 867.5,-610.5 867.5,-553.5 716.5,-553.5"/>
<text text-anchor="middle" x="792" y="-598.5" font-family="Helvetica,sans-Serif" font-size="10.00">vector&lt; yarp::os::NetFloat64 &gt;</text>
<polyline fill="none" stroke="#bfbfbf" points="716.5,-591.5 867.5,-591.5 "/>
<text text-anchor="middle" x="792" y="-579.5" font-family="Helvetica,sans-Serif" font-size="10.00"> </text>
<polyline fill="none" stroke="#bfbfbf" points="716.5,-572.5 867.5,-572.5 "/>
<text text-anchor="middle" x="792" y="-560.5" font-family="Helvetica,sans-Serif" font-size="10.00"> </text>
</g>
<!-- Node21&#45;&gt;Node15 -->
<g id="edge29" class="edge"><title>Node21&#45;&gt;Node15</title>
<path fill="none" stroke="#404040" d="M767.499,-553.466C741.237,-523.952 698.183,-475.567 660.161,-432.838"/>
<polygon fill="none" stroke="#404040" points="660.109,-432.78 653.133,-430.957 652.132,-423.815 659.109,-425.639 660.109,-432.78"/>
<text text-anchor="middle" x="720" y="-471.5" font-family="Helvetica,sans-Serif" font-size="10.00"> +effort</text>
<text text-anchor="middle" x="720" y="-460.5" font-family="Helvetica,sans-Serif" font-size="10.00">+velocity</text>
<text text-anchor="middle" x="720" y="-449.5" font-family="Helvetica,sans-Serif" font-size="10.00">+position</text>
</g>
<!-- Node22 -->
<g id="node22" class="node"><title>Node22</title>
<polygon fill="none" stroke="#bfbfbf" points="1315,-315.5 1315,-372.5 1441,-372.5 1441,-315.5 1315,-315.5"/>
<text text-anchor="middle" x="1378" y="-360.5" font-family="Helvetica,sans-Serif" font-size="10.00">vector&lt; EffortPublisher &gt;</text>
<polyline fill="none" stroke="#bfbfbf" points="1315,-353.5 1441,-353.5 "/>
<text text-anchor="middle" x="1378" y="-341.5" font-family="Helvetica,sans-Serif" font-size="10.00"> </text>
<polyline fill="none" stroke="#bfbfbf" points="1315,-334.5 1441,-334.5 "/>
<text text-anchor="middle" x="1378" y="-322.5" font-family="Helvetica,sans-Serif" font-size="10.00"> </text>
</g>
<!-- Node22&#45;&gt;Node1 -->
<g id="edge30" class="edge"><title>Node22&#45;&gt;Node1</title>
<path fill="none" stroke="#404040" d="M1381.98,-315.375C1384.69,-284.822 1383.72,-236.197 1356,-208 1281.28,-131.985 960.98,-106.798 812.335,-99.1044"/>
<polygon fill="none" stroke="#404040" points="812.199,-99.0977 806.006,-102.792 800.214,-98.4963 806.407,-94.802 812.199,-99.0977"/>
<text text-anchor="middle" x="1400" y="-222.5" font-family="Helvetica,sans-Serif" font-size="10.00"> &#45;effortsList</text>
</g>
<!-- Node23 -->
<g id="node23" class="node"><title>Node23</title>
<polygon fill="none" stroke="#bfbfbf" points="1459.5,-315.5 1459.5,-372.5 1494.5,-372.5 1494.5,-315.5 1459.5,-315.5"/>
<text text-anchor="middle" x="1477" y="-360.5" font-family="Helvetica,sans-Serif" font-size="10.00">Port</text>
<polyline fill="none" stroke="#bfbfbf" points="1459.5,-353.5 1494.5,-353.5 "/>
<text text-anchor="middle" x="1477" y="-341.5" font-family="Helvetica,sans-Serif" font-size="10.00"> </text>
<polyline fill="none" stroke="#bfbfbf" points="1459.5,-334.5 1494.5,-334.5 "/>
<text text-anchor="middle" x="1477" y="-322.5" font-family="Helvetica,sans-Serif" font-size="10.00"> </text>
</g>
<!-- Node23&#45;&gt;Node1 -->
<g id="edge31" class="edge"><title>Node23&#45;&gt;Node1</title>
<path fill="none" stroke="#404040" d="M1475.46,-315.352C1472.13,-284.062 1461.66,-234.069 1429,-208 1334.71,-132.747 971.832,-106.905 812.155,-99.0557"/>
<polygon fill="none" stroke="#404040" points="812.083,-99.0523 805.899,-102.761 800.097,-98.4783 806.281,-94.7699 812.083,-99.0523"/>
<text text-anchor="middle" x="1474" y="-222.5" font-family="Helvetica,sans-Serif" font-size="10.00"> &#45;rpcPort</text>
</g>
</g>
</svg>
