<?xml version="1.0" encoding="UTF-8" standalone="no"?>
<!DOCTYPE svg PUBLIC "-//W3C//DTD SVG 1.1//EN"
 "http://www.w3.org/Graphics/SVG/1.1/DTD/svg11.dtd">
<!-- Generated by graphviz version 2.36.0 (20140111.2315)
 -->
<!-- Title: human::InverseKinematics Pages: 1 -->
<!--zoomable 510 -->
<svg id="main" version="1.1" xmlns="http://www.w3.org/2000/svg" xmlns:xlink="http://www.w3.org/1999/xlink" xml:space="preserve" onload="init(evt)">
<style type="text/css"><![CDATA[
.edge:hover path { stroke: red; }
.edge:hover polygon { stroke: red; fill: red; }
]]></style>
<script type="text/javascript"><![CDATA[
var edges = document.getElementsByTagName('g');
if (edges && edges.length) {
  for (var i=0;i<edges.length;i++) {
    if (edges[i].id.substr(0,4)=='edge') {
      edges[i].setAttribute('class','edge');
    }
  }
}
]]></script>
        <defs>
                <circle id="rim" cx="0" cy="0" r="7"/>
                <circle id="rim2" cx="0" cy="0" r="3.5"/>
                <g id="zoomPlus">
                        <use xlink:href="#rim" fill="#404040">
                                <set attributeName="fill" to="#808080" begin="zoomplus.mouseover" end="zoomplus.mouseout"/>
                        </use>
                        <path d="M-4,0h8M0,-4v8" fill="none" stroke="white" stroke-width="1.5" pointer-events="none"/>
                </g>
                <g id="zoomMin">
                        <use xlink:href="#rim" fill="#404040">
                                <set attributeName="fill" to="#808080" begin="zoomminus.mouseover" end="zoomminus.mouseout"/>
                        </use>
                        <path d="M-4,0h8" fill="none" stroke="white" stroke-width="1.5" pointer-events="none"/>
                </g>
                <g id="dirArrow">
                        <path fill="none" stroke="white" stroke-width="1.5" d="M0,-3.0v7 M-2.5,-0.5L0,-3.0L2.5,-0.5"/>
                </g>
               <g id="resetDef">
                       <use xlink:href="#rim2" fill="#404040">
                               <set attributeName="fill" to="#808080" begin="reset.mouseover" end="reset.mouseout"/>
                       </use>
               </g>
        </defs>

<script type="text/javascript">
var viewWidth = 707;
var viewHeight = 510;
var sectionId = 'dynsection-0';
</script>
<script xlink:href="svgpan.js"/>
<svg id="graph" class="graph">
<g id="viewport">
<title>human::InverseKinematics</title>
<!-- Node1 -->
<g id="node1" class="node"><title>Node1</title>
<polygon fill="#bfbfbf" stroke="black" points="329,-0.5 329,-189.5 473,-189.5 473,-0.5 329,-0.5"/>
<text text-anchor="middle" x="401" y="-177.5" font-family="Helvetica,sans-Serif" font-size="10.00">human::InverseKinematics</text>
<polyline fill="none" stroke="black" points="329,-170.5 473,-170.5 "/>
<text text-anchor="middle" x="401" y="-158.5" font-family="Helvetica,sans-Serif" font-size="10.00"> </text>
<polyline fill="none" stroke="black" points="329,-151.5 473,-151.5 "/>
<text text-anchor="start" x="337" y="-139.5" font-family="Helvetica,sans-Serif" font-size="10.00">+ InverseKinematics()</text>
<text text-anchor="start" x="337" y="-128.5" font-family="Helvetica,sans-Serif" font-size="10.00">+ InverseKinematics()</text>
<text text-anchor="start" x="337" y="-117.5" font-family="Helvetica,sans-Serif" font-size="10.00">+ ~InverseKinematics()</text>
<text text-anchor="start" x="337" y="-106.5" font-family="Helvetica,sans-Serif" font-size="10.00">+ setModelfromURDF()</text>
<text text-anchor="start" x="337" y="-95.5" font-family="Helvetica,sans-Serif" font-size="10.00">+ setModelfromURDF()</text>
<text text-anchor="start" x="337" y="-84.5" font-family="Helvetica,sans-Serif" font-size="10.00">+ setModel()</text>
<text text-anchor="start" x="337" y="-73.5" font-family="Helvetica,sans-Serif" font-size="10.00">+ setWeights()</text>
<text text-anchor="start" x="337" y="-62.5" font-family="Helvetica,sans-Serif" font-size="10.00">+ setDesiredPosition()</text>
<text text-anchor="start" x="337" y="-51.5" font-family="Helvetica,sans-Serif" font-size="10.00">+ setDesiredQuaternion()</text>
<text text-anchor="start" x="337" y="-40.5" font-family="Helvetica,sans-Serif" font-size="10.00">+ setDesiredTransformation()</text>
<text text-anchor="start" x="337" y="-29.5" font-family="Helvetica,sans-Serif" font-size="10.00">and 15 more...</text>
<text text-anchor="start" x="337" y="-18.5" font-family="Helvetica,sans-Serif" font-size="10.00">&#45; InverseKinematics()</text>
<text text-anchor="start" x="337" y="-7.5" font-family="Helvetica,sans-Serif" font-size="10.00">&#45; operator=()</text>
</g>
<!-- Node2 -->
<g id="node2" class="node"><title>Node2</title>
<g id="a_node2"><a xlink:href="classhuman_1_1_inverse_kinematics_1_1_inverse_kinematics_private.html" target="_top" xlink:title="{human::InverseKinematics\l::InverseKinematicsPrivate\n||+ InverseKinematicsPrivate()\l+ update()\l+ getReducedModel()\l+ getFrameIndeces()\l+ removeUnsupportedJoints()\l+ autoSelectJointsFromTraversal()\l}">
<polygon fill="none" stroke="black" points="317.5,-238.5 317.5,-361.5 484.5,-361.5 484.5,-238.5 317.5,-238.5"/>
<text text-anchor="start" x="325.5" y="-349.5" font-family="Helvetica,sans-Serif" font-size="10.00">human::InverseKinematics</text>
<text text-anchor="middle" x="401" y="-338.5" font-family="Helvetica,sans-Serif" font-size="10.00">::InverseKinematicsPrivate</text>
<polyline fill="none" stroke="black" points="317.5,-331.5 484.5,-331.5 "/>
<text text-anchor="middle" x="401" y="-319.5" font-family="Helvetica,sans-Serif" font-size="10.00"> </text>
<polyline fill="none" stroke="black" points="317.5,-312.5 484.5,-312.5 "/>
<text text-anchor="start" x="325.5" y="-300.5" font-family="Helvetica,sans-Serif" font-size="10.00">+ InverseKinematicsPrivate()</text>
<text text-anchor="start" x="325.5" y="-289.5" font-family="Helvetica,sans-Serif" font-size="10.00">+ update()</text>
<text text-anchor="start" x="325.5" y="-278.5" font-family="Helvetica,sans-Serif" font-size="10.00">+ getReducedModel()</text>
<text text-anchor="start" x="325.5" y="-267.5" font-family="Helvetica,sans-Serif" font-size="10.00">+ getFrameIndeces()</text>
<text text-anchor="start" x="325.5" y="-256.5" font-family="Helvetica,sans-Serif" font-size="10.00">+ removeUnsupportedJoints()</text>
<text text-anchor="start" x="325.5" y="-245.5" font-family="Helvetica,sans-Serif" font-size="10.00">+ autoSelectJointsFromTraversal()</text>
</a>
</g>
</g>
<!-- Node2&#45;&gt;Node1 -->
<g id="edge1" class="edge"><title>Node2&#45;&gt;Node1</title>
<path fill="none" stroke="#404040" d="M401,-238.368C401,-226.77 401,-214.317 401,-201.777"/>
<polygon fill="none" stroke="#404040" points="401,-201.753 397,-195.753 401,-189.753 405,-195.753 401,-201.753"/>
<text text-anchor="middle" x="422.5" y="-211.5" font-family="Helvetica,sans-Serif" font-size="10.00"> &#45;m_pimpl</text>
</g>
<!-- Node3 -->
<g id="node3" class="node"><title>Node3</title>
<polygon fill="none" stroke="#bfbfbf" points="0,-433 0,-501 146,-501 146,-433 0,-433"/>
<text text-anchor="start" x="8" y="-489" font-family="Helvetica,sans-Serif" font-size="10.00">SmartPtr&lt; InverseKinematics</text>
<text text-anchor="middle" x="73" y="-478" font-family="Helvetica,sans-Serif" font-size="10.00">V2IPOPT &gt;</text>
<polyline fill="none" stroke="#bfbfbf" points="0,-471 146,-471 "/>
<text text-anchor="middle" x="73" y="-459" font-family="Helvetica,sans-Serif" font-size="10.00"> </text>
<polyline fill="none" stroke="#bfbfbf" points="0,-452 146,-452 "/>
<text text-anchor="middle" x="73" y="-440" font-family="Helvetica,sans-Serif" font-size="10.00"> </text>
</g>
<!-- Node3&#45;&gt;Node2 -->
<g id="edge2" class="edge"><title>Node3&#45;&gt;Node2</title>
<path fill="none" stroke="#404040" d="M122.796,-432.836C149.067,-416.006 182.168,-395.83 213,-380 242.603,-364.801 275.811,-350.113 305.987,-337.61"/>
<polygon fill="none" stroke="#404040" points="306.288,-337.487 310.32,-331.508 317.389,-332.929 313.358,-338.908 306.288,-337.487"/>
<text text-anchor="middle" x="246.5" y="-394.5" font-family="Helvetica,sans-Serif" font-size="10.00"> +solverPointer</text>
</g>
<!-- Node4 -->
<g id="node4" class="node"><title>Node4</title>
<polygon fill="none" stroke="#bfbfbf" points="164.5,-438.5 164.5,-495.5 335.5,-495.5 335.5,-438.5 164.5,-438.5"/>
<text text-anchor="middle" x="250" y="-483.5" font-family="Helvetica,sans-Serif" font-size="10.00">SmartPtr&lt; Ipopt::IpoptApplication &gt;</text>
<polyline fill="none" stroke="#bfbfbf" points="164.5,-476.5 335.5,-476.5 "/>
<text text-anchor="middle" x="250" y="-464.5" font-family="Helvetica,sans-Serif" font-size="10.00"> </text>
<polyline fill="none" stroke="#bfbfbf" points="164.5,-457.5 335.5,-457.5 "/>
<text text-anchor="middle" x="250" y="-445.5" font-family="Helvetica,sans-Serif" font-size="10.00"> </text>
</g>
<!-- Node4&#45;&gt;Node2 -->
<g id="edge3" class="edge"><title>Node4&#45;&gt;Node2</title>
<path fill="none" stroke="#404040" d="M267.166,-438.434C278.632,-420.927 294.576,-398.218 311,-380 313.958,-376.719 317.046,-373.438 320.22,-370.18"/>
<polygon fill="none" stroke="#404040" points="320.301,-370.099 321.725,-363.029 328.798,-361.625 327.374,-368.694 320.301,-370.099"/>
<text text-anchor="middle" x="329" y="-394.5" font-family="Helvetica,sans-Serif" font-size="10.00"> +loader</text>
</g>
<!-- Node5 -->
<g id="node5" class="node"><title>Node5</title>
<polygon fill="none" stroke="#bfbfbf" points="353.5,-438.5 353.5,-495.5 394.5,-495.5 394.5,-438.5 353.5,-438.5"/>
<text text-anchor="middle" x="374" y="-483.5" font-family="Helvetica,sans-Serif" font-size="10.00">string</text>
<polyline fill="none" stroke="#bfbfbf" points="353.5,-476.5 394.5,-476.5 "/>
<text text-anchor="middle" x="374" y="-464.5" font-family="Helvetica,sans-Serif" font-size="10.00"> </text>
<polyline fill="none" stroke="#bfbfbf" points="353.5,-457.5 394.5,-457.5 "/>
<text text-anchor="middle" x="374" y="-445.5" font-family="Helvetica,sans-Serif" font-size="10.00"> </text>
</g>
<!-- Node5&#45;&gt;Node2 -->
<g id="edge4" class="edge"><title>Node5&#45;&gt;Node2</title>
<path fill="none" stroke="#404040" d="M359.986,-438.379C353.198,-421.453 347.572,-399.388 353,-380 353.676,-377.585 354.448,-375.171 355.303,-372.766"/>
<polygon fill="none" stroke="#404040" points="355.319,-372.727 353.878,-365.662 359.846,-361.614 361.287,-368.68 355.319,-372.727"/>
<text text-anchor="middle" x="391" y="-405.5" font-family="Helvetica,sans-Serif" font-size="10.00"> +m_solverName</text>
<text text-anchor="middle" x="391" y="-394.5" font-family="Helvetica,sans-Serif" font-size="10.00">+_parentFrame</text>
<text text-anchor="middle" x="391" y="-383.5" font-family="Helvetica,sans-Serif" font-size="10.00">+_targetFrame</text>
</g>
<!-- Node6 -->
<g id="node6" class="node"><title>Node6</title>
<polygon fill="none" stroke="#bfbfbf" points="433.5,-438.5 433.5,-495.5 468.5,-495.5 468.5,-438.5 433.5,-438.5"/>
<text text-anchor="middle" x="451" y="-483.5" font-family="Helvetica,sans-Serif" font-size="10.00">bool</text>
<polyline fill="none" stroke="#bfbfbf" points="433.5,-476.5 468.5,-476.5 "/>
<text text-anchor="middle" x="451" y="-464.5" font-family="Helvetica,sans-Serif" font-size="10.00"> </text>
<polyline fill="none" stroke="#bfbfbf" points="433.5,-457.5 468.5,-457.5 "/>
<text text-anchor="middle" x="451" y="-445.5" font-family="Helvetica,sans-Serif" font-size="10.00"> </text>
</g>
<!-- Node6&#45;&gt;Node2 -->
<g id="edge5" class="edge"><title>Node6&#45;&gt;Node2</title>
<path fill="none" stroke="#404040" d="M444.592,-438.326C440.503,-421.381 434.88,-399.314 429,-380 428.317,-377.755 427.608,-375.48 426.881,-373.187"/>
<polygon fill="none" stroke="#404040" points="426.833,-373.039 421.169,-368.575 423.111,-361.631 428.774,-366.094 426.833,-373.039"/>
<text text-anchor="middle" x="480" y="-405.5" font-family="Helvetica,sans-Serif" font-size="10.00"> +initialized</text>
<text text-anchor="middle" x="480" y="-394.5" font-family="Helvetica,sans-Serif" font-size="10.00">+updated</text>
<text text-anchor="middle" x="480" y="-383.5" font-family="Helvetica,sans-Serif" font-size="10.00">+alreadyOptimized</text>
</g>
<!-- Node7 -->
<g id="node7" class="node"><title>Node7</title>
<polygon fill="none" stroke="#bfbfbf" points="528,-438.5 528,-495.5 584,-495.5 584,-438.5 528,-438.5"/>
<text text-anchor="middle" x="556" y="-483.5" font-family="Helvetica,sans-Serif" font-size="10.00">unsigned</text>
<polyline fill="none" stroke="#bfbfbf" points="528,-476.5 584,-476.5 "/>
<text text-anchor="middle" x="556" y="-464.5" font-family="Helvetica,sans-Serif" font-size="10.00"> </text>
<polyline fill="none" stroke="#bfbfbf" points="528,-457.5 584,-457.5 "/>
<text text-anchor="middle" x="556" y="-445.5" font-family="Helvetica,sans-Serif" font-size="10.00"> </text>
</g>
<!-- Node7&#45;&gt;Node2 -->
<g id="edge6" class="edge"><title>Node7&#45;&gt;Node2</title>
<path fill="none" stroke="#404040" d="M550.84,-438.136C546.39,-420.073 538.484,-396.854 525,-380 516.28,-369.1 505.626,-359.251 494.264,-350.503"/>
<polygon fill="none" stroke="#404040" points="494.262,-350.502 487.058,-350.186 484.579,-343.414 491.783,-343.73 494.262,-350.502"/>
<text text-anchor="middle" x="578" y="-400" font-family="Helvetica,sans-Serif" font-size="10.00"> +maxIterations</text>
<text text-anchor="middle" x="578" y="-389" font-family="Helvetica,sans-Serif" font-size="10.00">+verbosityLevel</text>
</g>
<!-- Node8 -->
<g id="node8" class="node"><title>Node8</title>
<polygon fill="none" stroke="#bfbfbf" points="607.5,-438.5 607.5,-495.5 690.5,-495.5 690.5,-438.5 607.5,-438.5"/>
<text text-anchor="middle" x="649" y="-483.5" font-family="Helvetica,sans-Serif" font-size="10.00">VectorDynSize</text>
<polyline fill="none" stroke="#bfbfbf" points="607.5,-476.5 690.5,-476.5 "/>
<text text-anchor="middle" x="649" y="-464.5" font-family="Helvetica,sans-Serif" font-size="10.00"> </text>
<polyline fill="none" stroke="#bfbfbf" points="607.5,-457.5 690.5,-457.5 "/>
<text text-anchor="middle" x="649" y="-445.5" font-family="Helvetica,sans-Serif" font-size="10.00"> </text>
</g>
<!-- Node8&#45;&gt;Node2 -->
<g id="edge7" class="edge"><title>Node8&#45;&gt;Node2</title>
<path fill="none" stroke="#404040" d="M644.897,-438.314C640.786,-419.626 632.702,-395.614 617,-380 584.655,-347.835 538.163,-328.645 496.591,-317.256"/>
<polygon fill="none" stroke="#404040" points="496.343,-317.191 489.53,-319.555 484.728,-314.176 491.541,-311.812 496.343,-317.191"/>
<text text-anchor="middle" x="668.5" y="-400" font-family="Helvetica,sans-Serif" font-size="10.00"> +lastSolution</text>
<text text-anchor="middle" x="668.5" y="-389" font-family="Helvetica,sans-Serif" font-size="10.00">+tempGuess</text>
</g>
</g>
</svg>
        <g id="navigator" transform="translate(0 0)" fill="#404254">
                <rect fill="#f2f5e9" fill-opacity="0.5" stroke="#606060" stroke-width=".5" x="0" y="0" width="60" height="60"/>
                <use id="zoomplus" xlink:href="#zoomPlus" x="17" y="9" onmousedown="handleZoom(evt,'in')"/>
                <use id="zoomminus" xlink:href="#zoomMin" x="42" y="9" onmousedown="handleZoom(evt,'out')"/>
                <use id="reset" xlink:href="#resetDef" x="30" y="36" onmousedown="handleReset()"/>
                <g id="arrowUp" xlink:href="#dirArrow" transform="translate(30 24)" onmousedown="handlePan(0,-1)">
                  <use xlink:href="#rim" fill="#404040">
                        <set attributeName="fill" to="#808080" begin="arrowUp.mouseover" end="arrowUp.mouseout"/>
                  </use>
                  <path fill="none" stroke="white" stroke-width="1.5" d="M0,-3.0v7 M-2.5,-0.5L0,-3.0L2.5,-0.5"/>
                </g>
                <g id="arrowRight" xlink:href="#dirArrow" transform="rotate(90) translate(36 -43)" onmousedown="handlePan(1,0)">
                  <use xlink:href="#rim" fill="#404040">
                        <set attributeName="fill" to="#808080" begin="arrowRight.mouseover" end="arrowRight.mouseout"/>
                  </use>
                  <path fill="none" stroke="white" stroke-width="1.5" d="M0,-3.0v7 M-2.5,-0.5L0,-3.0L2.5,-0.5"/>
                </g>
                <g id="arrowDown" xlink:href="#dirArrow" transform="rotate(180) translate(-30 -48)" onmousedown="handlePan(0,1)">
                  <use xlink:href="#rim" fill="#404040">
                        <set attributeName="fill" to="#808080" begin="arrowDown.mouseover" end="arrowDown.mouseout"/>
                  </use>
                  <path fill="none" stroke="white" stroke-width="1.5" d="M0,-3.0v7 M-2.5,-0.5L0,-3.0L2.5,-0.5"/>
                </g>
                <g id="arrowLeft" xlink:href="#dirArrow" transform="rotate(270) translate(-36 17)" onmousedown="handlePan(-1,0)">
                  <use xlink:href="#rim" fill="#404040">
                        <set attributeName="fill" to="#808080" begin="arrowLeft.mouseover" end="arrowLeft.mouseout"/>
                  </use>
                  <path fill="none" stroke="white" stroke-width="1.5" d="M0,-3.0v7 M-2.5,-0.5L0,-3.0L2.5,-0.5"/>
                </g>
        </g>
        <svg viewBox="0 0 15 15" width="100%" height="30px" preserveAspectRatio="xMaxYMin meet">
         <g id="arrow_out" transform="scale(0.3 0.3)">
          <a xlink:href="classhuman_1_1_inverse_kinematics__coll__graph_org.svg" target="_base">
           <rect id="button" ry="5" rx="5" y="6" x="6" height="38" width="38"
                fill="#f2f5e9" fill-opacity="0.5" stroke="#606060" stroke-width="1.0"/>
           <path id="arrow"
             d="M 11.500037,31.436501 C 11.940474,20.09759 22.043105,11.32322 32.158766,21.979434 L 37.068811,17.246167 C 37.068811,17.246167 37.088388,32 37.088388,32 L 22.160133,31.978069 C 22.160133,31.978069 26.997745,27.140456 26.997745,27.140456 C 18.528582,18.264221 13.291696,25.230495 11.500037,31.436501 z"
             style="fill:#404040;"/>
          </a>
         </g>
        </svg>
</svg>
