<?xml version="1.0" encoding="UTF-8" standalone="no"?>
<!DOCTYPE svg PUBLIC "-//W3C//DTD SVG 1.1//EN"
 "http://www.w3.org/Graphics/SVG/1.1/DTD/svg11.dtd">
<!-- Generated by graphviz version 2.36.0 (20140111.2315)
 -->
<!-- Title: human::AbstractForceReader Pages: 1 -->
<svg width="272pt" height="376pt"
 viewBox="0.00 0.00 272.00 376.00" xmlns="http://www.w3.org/2000/svg" xmlns:xlink="http://www.w3.org/1999/xlink">
<g id="graph0" class="graph" transform="scale(1 1) rotate(0) translate(4 372)">
<title>human::AbstractForceReader</title>
<!-- Node1 -->
<g id="node1" class="node"><title>Node1</title>
<polygon fill="#bfbfbf" stroke="black" points="57.5,-116.5 57.5,-261.5 202.5,-261.5 202.5,-116.5 57.5,-116.5"/>
<text text-anchor="middle" x="130" y="-249.5" font-family="Helvetica,sans-Serif" font-size="10.00">human::AbstractForceReader</text>
<polyline fill="none" stroke="black" points="57.5,-242.5 202.5,-242.5 "/>
<text text-anchor="start" x="65.5" y="-230.5" font-family="Helvetica,sans-Serif" font-size="10.00">&#45; m_frameTransformer</text>
<text text-anchor="start" x="65.5" y="-219.5" font-family="Helvetica,sans-Serif" font-size="10.00">&#45; m_attachedLink</text>
<text text-anchor="start" x="65.5" y="-208.5" font-family="Helvetica,sans-Serif" font-size="10.00">&#45; m_referenceFrame</text>
<text text-anchor="start" x="65.5" y="-197.5" font-family="Helvetica,sans-Serif" font-size="10.00">&#45; m_packedForce</text>
<text text-anchor="start" x="65.5" y="-186.5" font-family="Helvetica,sans-Serif" font-size="10.00">&#45; m_forceBuffer</text>
<polyline fill="none" stroke="black" points="57.5,-179.5 202.5,-179.5 "/>
<text text-anchor="start" x="65.5" y="-167.5" font-family="Helvetica,sans-Serif" font-size="10.00">+ AbstractForceReader()</text>
<text text-anchor="start" x="65.5" y="-156.5" font-family="Helvetica,sans-Serif" font-size="10.00">+ setTransformer()</text>
<text text-anchor="start" x="65.5" y="-145.5" font-family="Helvetica,sans-Serif" font-size="10.00">+ getTransformer()</text>
<text text-anchor="start" x="65.5" y="-134.5" font-family="Helvetica,sans-Serif" font-size="10.00">+ readForce()</text>
<text text-anchor="start" x="65.5" y="-123.5" font-family="Helvetica,sans-Serif" font-size="10.00"># lowLevelRead()</text>
</g>
<!-- Node3 -->
<g id="node3" class="node"><title>Node3</title>
<g id="a_node3"><a xlink:href="classhuman_1_1_f_t_force_reader.html" target="_top" xlink:title="Implementation of the ForceReader interface for handling forces coming from devices. ">
<polygon fill="none" stroke="black" points="0,-6 0,-74 120,-74 120,-6 0,-6"/>
<text text-anchor="middle" x="60" y="-62" font-family="Helvetica,sans-Serif" font-size="10.00">human::FTForceReader</text>
<polyline fill="none" stroke="black" points="0,-55 120,-55 "/>
<text text-anchor="start" x="8" y="-43" font-family="Helvetica,sans-Serif" font-size="10.00">&#45; m_sensor</text>
<polyline fill="none" stroke="black" points="0,-36 120,-36 "/>
<text text-anchor="start" x="8" y="-24" font-family="Helvetica,sans-Serif" font-size="10.00">+ FTForceReader()</text>
<text text-anchor="start" x="8" y="-13" font-family="Helvetica,sans-Serif" font-size="10.00"># lowLevelRead()</text>
</a>
</g>
</g>
<!-- Node1&#45;&gt;Node3 -->
<g id="edge2" class="edge"><title>Node1&#45;&gt;Node3</title>
<path fill="none" stroke="midnightblue" d="M91.3886,-106.916C85.8819,-95.3519 80.4956,-84.0408 75.783,-74.1443"/>
<polygon fill="none" stroke="midnightblue" points="88.3608,-108.699 95.8202,-116.223 94.6809,-105.689 88.3608,-108.699"/>
</g>
<!-- Node4 -->
<g id="node4" class="node"><title>Node4</title>
<g id="a_node4"><a xlink:href="classhuman_1_1_port_force_reader.html" target="_top" xlink:title="Implementation of the ForceReader interface for handling forces coming from a YARP port...">
<polygon fill="none" stroke="black" points="138,-0.5 138,-79.5 264,-79.5 264,-0.5 138,-0.5"/>
<text text-anchor="middle" x="201" y="-67.5" font-family="Helvetica,sans-Serif" font-size="10.00">human::PortForceReader</text>
<polyline fill="none" stroke="black" points="138,-60.5 264,-60.5 "/>
<text text-anchor="start" x="146" y="-48.5" font-family="Helvetica,sans-Serif" font-size="10.00">&#45; m_bufferedPort</text>
<text text-anchor="start" x="146" y="-37.5" font-family="Helvetica,sans-Serif" font-size="10.00">&#45; m_internal_buffer</text>
<polyline fill="none" stroke="black" points="138,-30.5 264,-30.5 "/>
<text text-anchor="start" x="146" y="-18.5" font-family="Helvetica,sans-Serif" font-size="10.00">+ PortForceReader()</text>
<text text-anchor="start" x="146" y="-7.5" font-family="Helvetica,sans-Serif" font-size="10.00"># lowLevelRead()</text>
</a>
</g>
</g>
<!-- Node1&#45;&gt;Node4 -->
<g id="edge3" class="edge"><title>Node1&#45;&gt;Node4</title>
<path fill="none" stroke="midnightblue" d="M169.063,-107.124C173.631,-97.6644 178.121,-88.3698 182.224,-79.875"/>
<polygon fill="none" stroke="midnightblue" points="165.866,-105.696 164.668,-116.223 172.169,-108.74 165.866,-105.696"/>
</g>
<!-- Node2 -->
<g id="node2" class="node"><title>Node2</title>
<g id="a_node2"><a xlink:href="classhuman_1_1_force_reader.html" target="_top" xlink:title="Interface for reading forces from device and sensors. ">
<polygon fill="none" stroke="black" points="76,-299 76,-367 184,-367 184,-299 76,-299"/>
<text text-anchor="middle" x="130" y="-355" font-family="Helvetica,sans-Serif" font-size="10.00">human::ForceReader</text>
<polyline fill="none" stroke="black" points="76,-348 184,-348 "/>
<text text-anchor="middle" x="130" y="-336" font-family="Helvetica,sans-Serif" font-size="10.00"> </text>
<polyline fill="none" stroke="black" points="76,-329 184,-329 "/>
<text text-anchor="start" x="84" y="-317" font-family="Helvetica,sans-Serif" font-size="10.00">+ readForce()</text>
<text text-anchor="start" x="84" y="-306" font-family="Helvetica,sans-Serif" font-size="10.00">+ ~ForceReader()</text>
</a>
</g>
</g>
<!-- Node2&#45;&gt;Node1 -->
<g id="edge1" class="edge"><title>Node2&#45;&gt;Node1</title>
<path fill="none" stroke="midnightblue" d="M130,-288.643C130,-280.101 130,-270.926 130,-261.735"/>
<polygon fill="none" stroke="midnightblue" points="126.5,-288.707 130,-298.707 133.5,-288.707 126.5,-288.707"/>
</g>
</g>
</svg>
