<?xml version="1.0" encoding="UTF-8" standalone="no"?>
<!DOCTYPE svg PUBLIC "-//W3C//DTD SVG 1.1//EN"
 "http://www.w3.org/Graphics/SVG/1.1/DTD/svg11.dtd">
<!-- Generated by graphviz version 2.36.0 (20140111.2315)
 -->
<!-- Title: human::InverseKinematics::InverseKinematicsPrivate Pages: 1 -->
<svg width="707pt" height="272pt"
 viewBox="0.00 0.00 707.00 272.00" xmlns="http://www.w3.org/2000/svg" xmlns:xlink="http://www.w3.org/1999/xlink">
<g id="graph0" class="graph" transform="scale(1 1) rotate(0) translate(4 268)">
<title>human::InverseKinematics::InverseKinematicsPrivate</title>
<!-- Node1 -->
<g id="node1" class="node"><title>Node1</title>
<polygon fill="#bfbfbf" stroke="black" points="317.5,-0.5 317.5,-123.5 484.5,-123.5 484.5,-0.5 317.5,-0.5"/>
<text text-anchor="start" x="325.5" y="-111.5" font-family="Helvetica,sans-Serif" font-size="10.00">human::InverseKinematics</text>
<text text-anchor="middle" x="401" y="-100.5" font-family="Helvetica,sans-Serif" font-size="10.00">::InverseKinematicsPrivate</text>
<polyline fill="none" stroke="black" points="317.5,-93.5 484.5,-93.5 "/>
<text text-anchor="middle" x="401" y="-81.5" font-family="Helvetica,sans-Serif" font-size="10.00"> </text>
<polyline fill="none" stroke="black" points="317.5,-74.5 484.5,-74.5 "/>
<text text-anchor="start" x="325.5" y="-62.5" font-family="Helvetica,sans-Serif" font-size="10.00">+ InverseKinematicsPrivate()</text>
<text text-anchor="start" x="325.5" y="-51.5" font-family="Helvetica,sans-Serif" font-size="10.00">+ update()</text>
<text text-anchor="start" x="325.5" y="-40.5" font-family="Helvetica,sans-Serif" font-size="10.00">+ getReducedModel()</text>
<text text-anchor="start" x="325.5" y="-29.5" font-family="Helvetica,sans-Serif" font-size="10.00">+ getFrameIndeces()</text>
<text text-anchor="start" x="325.5" y="-18.5" font-family="Helvetica,sans-Serif" font-size="10.00">+ removeUnsupportedJoints()</text>
<text text-anchor="start" x="325.5" y="-7.5" font-family="Helvetica,sans-Serif" font-size="10.00">+ autoSelectJointsFromTraversal()</text>
</g>
<!-- Node2 -->
<g id="node2" class="node"><title>Node2</title>
<polygon fill="none" stroke="#bfbfbf" points="0,-195 0,-263 146,-263 146,-195 0,-195"/>
<text text-anchor="start" x="8" y="-251" font-family="Helvetica,sans-Serif" font-size="10.00">SmartPtr&lt; InverseKinematics</text>
<text text-anchor="middle" x="73" y="-240" font-family="Helvetica,sans-Serif" font-size="10.00">V2IPOPT &gt;</text>
<polyline fill="none" stroke="#bfbfbf" points="0,-233 146,-233 "/>
<text text-anchor="middle" x="73" y="-221" font-family="Helvetica,sans-Serif" font-size="10.00"> </text>
<polyline fill="none" stroke="#bfbfbf" points="0,-214 146,-214 "/>
<text text-anchor="middle" x="73" y="-202" font-family="Helvetica,sans-Serif" font-size="10.00"> </text>
</g>
<!-- Node2&#45;&gt;Node1 -->
<g id="edge1" class="edge"><title>Node2&#45;&gt;Node1</title>
<path fill="none" stroke="#404040" d="M122.796,-194.836C149.067,-178.006 182.168,-157.83 213,-142 242.603,-126.801 275.811,-112.113 305.987,-99.6105"/>
<polygon fill="none" stroke="#404040" points="306.288,-99.4866 310.32,-93.5075 317.389,-94.929 313.358,-100.908 306.288,-99.4866"/>
<text text-anchor="middle" x="246.5" y="-156.5" font-family="Helvetica,sans-Serif" font-size="10.00"> +solverPointer</text>
</g>
<!-- Node3 -->
<g id="node3" class="node"><title>Node3</title>
<polygon fill="none" stroke="#bfbfbf" points="164.5,-200.5 164.5,-257.5 335.5,-257.5 335.5,-200.5 164.5,-200.5"/>
<text text-anchor="middle" x="250" y="-245.5" font-family="Helvetica,sans-Serif" font-size="10.00">SmartPtr&lt; Ipopt::IpoptApplication &gt;</text>
<polyline fill="none" stroke="#bfbfbf" points="164.5,-238.5 335.5,-238.5 "/>
<text text-anchor="middle" x="250" y="-226.5" font-family="Helvetica,sans-Serif" font-size="10.00"> </text>
<polyline fill="none" stroke="#bfbfbf" points="164.5,-219.5 335.5,-219.5 "/>
<text text-anchor="middle" x="250" y="-207.5" font-family="Helvetica,sans-Serif" font-size="10.00"> </text>
</g>
<!-- Node3&#45;&gt;Node1 -->
<g id="edge2" class="edge"><title>Node3&#45;&gt;Node1</title>
<path fill="none" stroke="#404040" d="M267.166,-200.434C278.632,-182.927 294.576,-160.218 311,-142 313.958,-138.719 317.046,-135.438 320.22,-132.18"/>
<polygon fill="none" stroke="#404040" points="320.301,-132.099 321.725,-125.029 328.798,-123.625 327.374,-130.694 320.301,-132.099"/>
<text text-anchor="middle" x="329" y="-156.5" font-family="Helvetica,sans-Serif" font-size="10.00"> +loader</text>
</g>
<!-- Node4 -->
<g id="node4" class="node"><title>Node4</title>
<polygon fill="none" stroke="#bfbfbf" points="353.5,-200.5 353.5,-257.5 394.5,-257.5 394.5,-200.5 353.5,-200.5"/>
<text text-anchor="middle" x="374" y="-245.5" font-family="Helvetica,sans-Serif" font-size="10.00">string</text>
<polyline fill="none" stroke="#bfbfbf" points="353.5,-238.5 394.5,-238.5 "/>
<text text-anchor="middle" x="374" y="-226.5" font-family="Helvetica,sans-Serif" font-size="10.00"> </text>
<polyline fill="none" stroke="#bfbfbf" points="353.5,-219.5 394.5,-219.5 "/>
<text text-anchor="middle" x="374" y="-207.5" font-family="Helvetica,sans-Serif" font-size="10.00"> </text>
</g>
<!-- Node4&#45;&gt;Node1 -->
<g id="edge3" class="edge"><title>Node4&#45;&gt;Node1</title>
<path fill="none" stroke="#404040" d="M359.986,-200.379C353.198,-183.453 347.572,-161.388 353,-142 353.676,-139.585 354.448,-137.171 355.303,-134.766"/>
<polygon fill="none" stroke="#404040" points="355.319,-134.727 353.878,-127.662 359.846,-123.614 361.287,-130.68 355.319,-134.727"/>
<text text-anchor="middle" x="391" y="-167.5" font-family="Helvetica,sans-Serif" font-size="10.00"> +m_solverName</text>
<text text-anchor="middle" x="391" y="-156.5" font-family="Helvetica,sans-Serif" font-size="10.00">+_parentFrame</text>
<text text-anchor="middle" x="391" y="-145.5" font-family="Helvetica,sans-Serif" font-size="10.00">+_targetFrame</text>
</g>
<!-- Node5 -->
<g id="node5" class="node"><title>Node5</title>
<polygon fill="none" stroke="#bfbfbf" points="433.5,-200.5 433.5,-257.5 468.5,-257.5 468.5,-200.5 433.5,-200.5"/>
<text text-anchor="middle" x="451" y="-245.5" font-family="Helvetica,sans-Serif" font-size="10.00">bool</text>
<polyline fill="none" stroke="#bfbfbf" points="433.5,-238.5 468.5,-238.5 "/>
<text text-anchor="middle" x="451" y="-226.5" font-family="Helvetica,sans-Serif" font-size="10.00"> </text>
<polyline fill="none" stroke="#bfbfbf" points="433.5,-219.5 468.5,-219.5 "/>
<text text-anchor="middle" x="451" y="-207.5" font-family="Helvetica,sans-Serif" font-size="10.00"> </text>
</g>
<!-- Node5&#45;&gt;Node1 -->
<g id="edge4" class="edge"><title>Node5&#45;&gt;Node1</title>
<path fill="none" stroke="#404040" d="M444.592,-200.326C440.503,-183.381 434.88,-161.314 429,-142 428.317,-139.755 427.608,-137.48 426.881,-135.187"/>
<polygon fill="none" stroke="#404040" points="426.833,-135.039 421.169,-130.575 423.111,-123.631 428.774,-128.094 426.833,-135.039"/>
<text text-anchor="middle" x="480" y="-167.5" font-family="Helvetica,sans-Serif" font-size="10.00"> +initialized</text>
<text text-anchor="middle" x="480" y="-156.5" font-family="Helvetica,sans-Serif" font-size="10.00">+updated</text>
<text text-anchor="middle" x="480" y="-145.5" font-family="Helvetica,sans-Serif" font-size="10.00">+alreadyOptimized</text>
</g>
<!-- Node6 -->
<g id="node6" class="node"><title>Node6</title>
<polygon fill="none" stroke="#bfbfbf" points="528,-200.5 528,-257.5 584,-257.5 584,-200.5 528,-200.5"/>
<text text-anchor="middle" x="556" y="-245.5" font-family="Helvetica,sans-Serif" font-size="10.00">unsigned</text>
<polyline fill="none" stroke="#bfbfbf" points="528,-238.5 584,-238.5 "/>
<text text-anchor="middle" x="556" y="-226.5" font-family="Helvetica,sans-Serif" font-size="10.00"> </text>
<polyline fill="none" stroke="#bfbfbf" points="528,-219.5 584,-219.5 "/>
<text text-anchor="middle" x="556" y="-207.5" font-family="Helvetica,sans-Serif" font-size="10.00"> </text>
</g>
<!-- Node6&#45;&gt;Node1 -->
<g id="edge5" class="edge"><title>Node6&#45;&gt;Node1</title>
<path fill="none" stroke="#404040" d="M550.84,-200.136C546.39,-182.073 538.484,-158.854 525,-142 516.28,-131.1 505.626,-121.251 494.264,-112.503"/>
<polygon fill="none" stroke="#404040" points="494.262,-112.502 487.058,-112.186 484.579,-105.414 491.783,-105.73 494.262,-112.502"/>
<text text-anchor="middle" x="578" y="-162" font-family="Helvetica,sans-Serif" font-size="10.00"> +maxIterations</text>
<text text-anchor="middle" x="578" y="-151" font-family="Helvetica,sans-Serif" font-size="10.00">+verbosityLevel</text>
</g>
<!-- Node7 -->
<g id="node7" class="node"><title>Node7</title>
<polygon fill="none" stroke="#bfbfbf" points="607.5,-200.5 607.5,-257.5 690.5,-257.5 690.5,-200.5 607.5,-200.5"/>
<text text-anchor="middle" x="649" y="-245.5" font-family="Helvetica,sans-Serif" font-size="10.00">VectorDynSize</text>
<polyline fill="none" stroke="#bfbfbf" points="607.5,-238.5 690.5,-238.5 "/>
<text text-anchor="middle" x="649" y="-226.5" font-family="Helvetica,sans-Serif" font-size="10.00"> </text>
<polyline fill="none" stroke="#bfbfbf" points="607.5,-219.5 690.5,-219.5 "/>
<text text-anchor="middle" x="649" y="-207.5" font-family="Helvetica,sans-Serif" font-size="10.00"> </text>
</g>
<!-- Node7&#45;&gt;Node1 -->
<g id="edge6" class="edge"><title>Node7&#45;&gt;Node1</title>
<path fill="none" stroke="#404040" d="M644.897,-200.314C640.786,-181.626 632.702,-157.614 617,-142 584.655,-109.835 538.163,-90.6451 496.591,-79.2555"/>
<polygon fill="none" stroke="#404040" points="496.343,-79.1911 489.53,-81.5551 484.728,-76.1757 491.541,-73.8118 496.343,-79.1911"/>
<text text-anchor="middle" x="668.5" y="-162" font-family="Helvetica,sans-Serif" font-size="10.00"> +lastSolution</text>
<text text-anchor="middle" x="668.5" y="-151" font-family="Helvetica,sans-Serif" font-size="10.00">+tempGuess</text>
</g>
</g>
</svg>
