<?xml version="1.0" encoding="UTF-8" standalone="no"?>
<!DOCTYPE svg PUBLIC "-//W3C//DTD SVG 1.1//EN"
 "http://www.w3.org/Graphics/SVG/1.1/DTD/svg11.dtd">
<!-- Generated by graphviz version 2.36.0 (20140111.2315)
 -->
<!-- Title: xsens::XsensSegmentData::Editor Pages: 1 -->
<svg width="512pt" height="1526pt"
 viewBox="0.00 0.00 512.00 1526.00" xmlns="http://www.w3.org/2000/svg" xmlns:xlink="http://www.w3.org/1999/xlink">
<g id="graph0" class="graph" transform="scale(1 1) rotate(0) translate(4 1522)">
<title>xsens::XsensSegmentData::Editor</title>
<!-- Node1 -->
<g id="node1" class="node"><title>Node1</title>
<polygon fill="#bfbfbf" stroke="black" points="2.5,-0.5 2.5,-299.5 167.5,-299.5 167.5,-0.5 2.5,-0.5"/>
<text text-anchor="start" x="10.5" y="-287.5" font-family="Helvetica,sans-Serif" font-size="10.00">xsens::XsensSegmentData</text>
<text text-anchor="middle" x="85" y="-276.5" font-family="Helvetica,sans-Serif" font-size="10.00">::Editor</text>
<polyline fill="none" stroke="black" points="2.5,-269.5 167.5,-269.5 "/>
<text text-anchor="middle" x="85" y="-257.5" font-family="Helvetica,sans-Serif" font-size="10.00"> </text>
<polyline fill="none" stroke="black" points="2.5,-250.5 167.5,-250.5 "/>
<text text-anchor="start" x="10.5" y="-238.5" font-family="Helvetica,sans-Serif" font-size="10.00">+ Editor()</text>
<text text-anchor="start" x="10.5" y="-227.5" font-family="Helvetica,sans-Serif" font-size="10.00">+ Editor()</text>
<text text-anchor="start" x="10.5" y="-216.5" font-family="Helvetica,sans-Serif" font-size="10.00">+ edit()</text>
<text text-anchor="start" x="10.5" y="-205.5" font-family="Helvetica,sans-Serif" font-size="10.00">+ ~Editor()</text>
<text text-anchor="start" x="10.5" y="-194.5" font-family="Helvetica,sans-Serif" font-size="10.00">+ isValid()</text>
<text text-anchor="start" x="10.5" y="-183.5" font-family="Helvetica,sans-Serif" font-size="10.00">+ state()</text>
<text text-anchor="start" x="10.5" y="-172.5" font-family="Helvetica,sans-Serif" font-size="10.00">+ begin()</text>
<text text-anchor="start" x="10.5" y="-161.5" font-family="Helvetica,sans-Serif" font-size="10.00">+ end()</text>
<text text-anchor="start" x="10.5" y="-150.5" font-family="Helvetica,sans-Serif" font-size="10.00">+ set_position()</text>
<text text-anchor="start" x="10.5" y="-139.5" font-family="Helvetica,sans-Serif" font-size="10.00">+ set_velocity()</text>
<text text-anchor="start" x="10.5" y="-128.5" font-family="Helvetica,sans-Serif" font-size="10.00">and 60 more...</text>
<text text-anchor="start" x="10.5" y="-117.5" font-family="Helvetica,sans-Serif" font-size="10.00">&#45; communicate()</text>
<text text-anchor="start" x="10.5" y="-106.5" font-family="Helvetica,sans-Serif" font-size="10.00">&#45; mark_dirty()</text>
<text text-anchor="start" x="10.5" y="-95.5" font-family="Helvetica,sans-Serif" font-size="10.00">&#45; mark_dirty_position()</text>
<text text-anchor="start" x="10.5" y="-84.5" font-family="Helvetica,sans-Serif" font-size="10.00">&#45; mark_dirty_velocity()</text>
<text text-anchor="start" x="10.5" y="-73.5" font-family="Helvetica,sans-Serif" font-size="10.00">&#45; mark_dirty_acceleration()</text>
<text text-anchor="start" x="10.5" y="-62.5" font-family="Helvetica,sans-Serif" font-size="10.00">&#45; mark_dirty_orientation()</text>
<text text-anchor="start" x="10.5" y="-51.5" font-family="Helvetica,sans-Serif" font-size="10.00">&#45; mark_dirty_angularVelocity()</text>
<text text-anchor="start" x="10.5" y="-40.5" font-family="Helvetica,sans-Serif" font-size="10.00">&#45; mark_dirty_angularAcceleration()</text>
<text text-anchor="start" x="10.5" y="-29.5" font-family="Helvetica,sans-Serif" font-size="10.00">&#45; dirty_flags()</text>
<text text-anchor="start" x="10.5" y="-18.5" font-family="Helvetica,sans-Serif" font-size="10.00">&#45; communicate()</text>
<text text-anchor="start" x="10.5" y="-7.5" font-family="Helvetica,sans-Serif" font-size="10.00">and 8 more...</text>
</g>
<!-- Node2 -->
<g id="node2" class="node"><title>Node2</title>
<g id="a_node2"><a xlink:href="classyarp_1_1os_1_1_wire.html" target="_top" xlink:title="{Wire\n||}">
<polygon fill="none" stroke="black" points="-0.5,-540.5 -0.5,-597.5 36.5,-597.5 36.5,-540.5 -0.5,-540.5"/>
<text text-anchor="middle" x="18" y="-585.5" font-family="Helvetica,sans-Serif" font-size="10.00">Wire</text>
<polyline fill="none" stroke="black" points="-0.5,-578.5 36.5,-578.5 "/>
<text text-anchor="middle" x="18" y="-566.5" font-family="Helvetica,sans-Serif" font-size="10.00"> </text>
<polyline fill="none" stroke="black" points="-0.5,-559.5 36.5,-559.5 "/>
<text text-anchor="middle" x="18" y="-547.5" font-family="Helvetica,sans-Serif" font-size="10.00"> </text>
</a>
</g>
</g>
<!-- Node2&#45;&gt;Node1 -->
<g id="edge1" class="edge"><title>Node2&#45;&gt;Node1</title>
<path fill="none" stroke="midnightblue" d="M19.984,-530.256C25.9831,-478.434 40.6272,-382.277 54.6017,-299.756"/>
<polygon fill="none" stroke="midnightblue" points="16.492,-529.992 18.8703,-540.317 23.4495,-530.762 16.492,-529.992"/>
</g>
<!-- Node2&#45;&gt;Node1 -->
<g id="edge3" class="edge"><title>Node2&#45;&gt;Node1</title>
<path fill="none" stroke="midnightblue" d="M28.1447,-530.256C38.7982,-478.434 55.0537,-382.277 67.5965,-299.756"/>
<polygon fill="none" stroke="midnightblue" points="24.662,-529.81 26.0256,-540.317 31.5117,-531.253 24.662,-529.81"/>
</g>
<!-- Node3 -->
<g id="node3" class="node"><title>Node3</title>
<g id="a_node3"><a xlink:href="classyarp_1_1os_1_1_port_writer.html" target="_top" xlink:title="{PortWriter\n||}">
<polygon fill="none" stroke="black" points="54.5,-540.5 54.5,-597.5 115.5,-597.5 115.5,-540.5 54.5,-540.5"/>
<text text-anchor="middle" x="85" y="-585.5" font-family="Helvetica,sans-Serif" font-size="10.00">PortWriter</text>
<polyline fill="none" stroke="black" points="54.5,-578.5 115.5,-578.5 "/>
<text text-anchor="middle" x="85" y="-566.5" font-family="Helvetica,sans-Serif" font-size="10.00"> </text>
<polyline fill="none" stroke="black" points="54.5,-559.5 115.5,-559.5 "/>
<text text-anchor="middle" x="85" y="-547.5" font-family="Helvetica,sans-Serif" font-size="10.00"> </text>
</a>
</g>
</g>
<!-- Node3&#45;&gt;Node1 -->
<g id="edge2" class="edge"><title>Node3&#45;&gt;Node1</title>
<path fill="none" stroke="midnightblue" d="M80.9197,-530.256C78.5925,-478.434 77.7868,-382.277 78.5026,-299.756"/>
<polygon fill="none" stroke="midnightblue" points="77.4276,-530.504 81.4223,-540.317 84.4189,-530.154 77.4276,-530.504"/>
</g>
<!-- Node3&#45;&gt;Node1 -->
<g id="edge4" class="edge"><title>Node3&#45;&gt;Node1</title>
<path fill="none" stroke="midnightblue" d="M89.0803,-530.256C91.4075,-478.434 92.2132,-382.277 91.4974,-299.756"/>
<polygon fill="none" stroke="midnightblue" points="85.5811,-530.154 88.5777,-540.317 92.5724,-530.504 85.5811,-530.154"/>
</g>
<!-- Node4 -->
<g id="node4" class="node"><title>Node4</title>
<polygon fill="none" stroke="#bfbfbf" points="133.5,-540.5 133.5,-597.5 162.5,-597.5 162.5,-540.5 133.5,-540.5"/>
<text text-anchor="middle" x="148" y="-585.5" font-family="Helvetica,sans-Serif" font-size="10.00">int</text>
<polyline fill="none" stroke="#bfbfbf" points="133.5,-578.5 162.5,-578.5 "/>
<text text-anchor="middle" x="148" y="-566.5" font-family="Helvetica,sans-Serif" font-size="10.00"> </text>
<polyline fill="none" stroke="#bfbfbf" points="133.5,-559.5 162.5,-559.5 "/>
<text text-anchor="middle" x="148" y="-547.5" font-family="Helvetica,sans-Serif" font-size="10.00"> </text>
</g>
<!-- Node4&#45;&gt;Node1 -->
<g id="edge5" class="edge"><title>Node4&#45;&gt;Node1</title>
<path fill="none" stroke="#404040" d="M143.818,-540.317C136.81,-493.93 122.192,-397.175 109.283,-311.731"/>
<polygon fill="none" stroke="#404040" points="109.267,-311.622 104.415,-306.287 107.474,-299.756 112.325,-305.092 109.267,-311.622"/>
<text text-anchor="middle" x="150.5" y="-365" font-family="Helvetica,sans-Serif" font-size="10.00"> &#45;dirty_count</text>
<text text-anchor="middle" x="150.5" y="-354" font-family="Helvetica,sans-Serif" font-size="10.00">&#45;group</text>
</g>
<!-- Node5 -->
<g id="node5" class="node"><title>Node5</title>
<g id="a_node5"><a xlink:href="classxsens_1_1_xsens_segment_data.html" target="_top" xlink:title="{xsens::XsensSegmentData\n||+ XsensSegmentData()\l+ XsensSegmentData()\l+ XsensSegmentData()\l+ operator=()\l+ read()\l+ read()\l+ write()\l+ write()\l+ toString()\l+ XsensSegmentData()\land 8 more...\l&#45; write_position()\l&#45; nested_write_position()\l&#45; write_velocity()\l&#45; nested_write_velocity()\l&#45; write_acceleration()\l&#45; nested_write_acceleration()\l&#45; write_orientation()\l&#45; nested_write_orientation()\l&#45; write_angularVelocity()\l&#45; nested_write_angularVelocity()\land 38 more...\l}">
<polygon fill="none" stroke="black" points="181,-425 181,-713 337,-713 337,-425 181,-425"/>
<text text-anchor="middle" x="259" y="-701" font-family="Helvetica,sans-Serif" font-size="10.00">xsens::XsensSegmentData</text>
<polyline fill="none" stroke="black" points="181,-694 337,-694 "/>
<text text-anchor="middle" x="259" y="-682" font-family="Helvetica,sans-Serif" font-size="10.00"> </text>
<polyline fill="none" stroke="black" points="181,-675 337,-675 "/>
<text text-anchor="start" x="189" y="-663" font-family="Helvetica,sans-Serif" font-size="10.00">+ XsensSegmentData()</text>
<text text-anchor="start" x="189" y="-652" font-family="Helvetica,sans-Serif" font-size="10.00">+ XsensSegmentData()</text>
<text text-anchor="start" x="189" y="-641" font-family="Helvetica,sans-Serif" font-size="10.00">+ XsensSegmentData()</text>
<text text-anchor="start" x="189" y="-630" font-family="Helvetica,sans-Serif" font-size="10.00">+ operator=()</text>
<text text-anchor="start" x="189" y="-619" font-family="Helvetica,sans-Serif" font-size="10.00">+ read()</text>
<text text-anchor="start" x="189" y="-608" font-family="Helvetica,sans-Serif" font-size="10.00">+ read()</text>
<text text-anchor="start" x="189" y="-597" font-family="Helvetica,sans-Serif" font-size="10.00">+ write()</text>
<text text-anchor="start" x="189" y="-586" font-family="Helvetica,sans-Serif" font-size="10.00">+ write()</text>
<text text-anchor="start" x="189" y="-575" font-family="Helvetica,sans-Serif" font-size="10.00">+ toString()</text>
<text text-anchor="start" x="189" y="-564" font-family="Helvetica,sans-Serif" font-size="10.00">+ XsensSegmentData()</text>
<text text-anchor="start" x="189" y="-553" font-family="Helvetica,sans-Serif" font-size="10.00">and 8 more...</text>
<text text-anchor="start" x="189" y="-542" font-family="Helvetica,sans-Serif" font-size="10.00">&#45; write_position()</text>
<text text-anchor="start" x="189" y="-531" font-family="Helvetica,sans-Serif" font-size="10.00">&#45; nested_write_position()</text>
<text text-anchor="start" x="189" y="-520" font-family="Helvetica,sans-Serif" font-size="10.00">&#45; write_velocity()</text>
<text text-anchor="start" x="189" y="-509" font-family="Helvetica,sans-Serif" font-size="10.00">&#45; nested_write_velocity()</text>
<text text-anchor="start" x="189" y="-498" font-family="Helvetica,sans-Serif" font-size="10.00">&#45; write_acceleration()</text>
<text text-anchor="start" x="189" y="-487" font-family="Helvetica,sans-Serif" font-size="10.00">&#45; nested_write_acceleration()</text>
<text text-anchor="start" x="189" y="-476" font-family="Helvetica,sans-Serif" font-size="10.00">&#45; write_orientation()</text>
<text text-anchor="start" x="189" y="-465" font-family="Helvetica,sans-Serif" font-size="10.00">&#45; nested_write_orientation()</text>
<text text-anchor="start" x="189" y="-454" font-family="Helvetica,sans-Serif" font-size="10.00">&#45; write_angularVelocity()</text>
<text text-anchor="start" x="189" y="-443" font-family="Helvetica,sans-Serif" font-size="10.00">&#45; nested_write_angularVelocity()</text>
<text text-anchor="start" x="189" y="-432" font-family="Helvetica,sans-Serif" font-size="10.00">and 38 more...</text>
</a>
</g>
</g>
<!-- Node5&#45;&gt;Node1 -->
<g id="edge6" class="edge"><title>Node5&#45;&gt;Node1</title>
<path fill="none" stroke="#404040" d="M221.025,-424.819C209.952,-389.334 196.793,-351.805 182,-318 179.201,-311.605 176.216,-305.145 173.094,-298.674"/>
<polygon fill="none" stroke="#404040" points="173.029,-298.542 166.786,-294.932 167.718,-287.781 173.96,-291.391 173.029,-298.542"/>
<text text-anchor="middle" x="224.5" y="-359.5" font-family="Helvetica,sans-Serif" font-size="10.00"> &#45;obj</text>
</g>
<!-- Node6 -->
<g id="node6" class="node"><title>Node6</title>
<g id="a_node6"><a xlink:href="classyarp_1_1os_1_1idl_1_1_wire_portable.html" target="_top" xlink:title="{WirePortable\n||}">
<polygon fill="none" stroke="black" points="232.5,-1460.5 232.5,-1517.5 305.5,-1517.5 305.5,-1460.5 232.5,-1460.5"/>
<text text-anchor="middle" x="269" y="-1505.5" font-family="Helvetica,sans-Serif" font-size="10.00">WirePortable</text>
<polyline fill="none" stroke="black" points="232.5,-1498.5 305.5,-1498.5 "/>
<text text-anchor="middle" x="269" y="-1486.5" font-family="Helvetica,sans-Serif" font-size="10.00"> </text>
<polyline fill="none" stroke="black" points="232.5,-1479.5 305.5,-1479.5 "/>
<text text-anchor="middle" x="269" y="-1467.5" font-family="Helvetica,sans-Serif" font-size="10.00"> </text>
</a>
</g>
</g>
<!-- Node6&#45;&gt;Node5 -->
<g id="edge7" class="edge"><title>Node6&#45;&gt;Node5</title>
<path fill="none" stroke="midnightblue" d="M260.39,-1450.25C243.238,-1342.67 211.287,-1025.28 227,-762 227.945,-746.166 229.325,-729.636 231.003,-713.206"/>
<polygon fill="none" stroke="midnightblue" points="256.966,-1451 262.052,-1460.29 263.872,-1449.85 256.966,-1451"/>
</g>
<!-- Node6&#45;&gt;Node5 -->
<g id="edge8" class="edge"><title>Node6&#45;&gt;Node5</title>
<path fill="none" stroke="midnightblue" d="M268.59,-1450.25C261.238,-1342.67 229.287,-1025.28 245,-762 245.945,-746.166 247.325,-729.636 248.89,-713.206"/>
<polygon fill="none" stroke="midnightblue" points="265.101,-1450.54 269.239,-1460.29 272.086,-1450.09 265.101,-1450.54"/>
</g>
<!-- Node7 -->
<g id="node7" class="node"><title>Node7</title>
<g id="a_node7"><a xlink:href="classxsens_1_1_quaternion.html" target="_top" xlink:title="{xsens::Quaternion\n||+ Quaternion()\l+ Quaternion()\l+ Quaternion()\l+ operator=()\l+ read()\l+ read()\l+ write()\l+ write()\l+ toString()\l+ Quaternion()\land 8 more...\l&#45; write_w()\l&#45; nested_write_w()\l&#45; write_imaginary()\l&#45; nested_write_imaginary()\l&#45; read_w()\l&#45; nested_read_w()\l&#45; read_imaginary()\l&#45; nested_read_imaginary()\l&#45; write_w()\l&#45; nested_write_w()\land 6 more...\l}">
<polygon fill="none" stroke="black" points="245.5,-763 245.5,-1051 376.5,-1051 376.5,-763 245.5,-763"/>
<text text-anchor="middle" x="311" y="-1039" font-family="Helvetica,sans-Serif" font-size="10.00">xsens::Quaternion</text>
<polyline fill="none" stroke="black" points="245.5,-1032 376.5,-1032 "/>
<text text-anchor="middle" x="311" y="-1020" font-family="Helvetica,sans-Serif" font-size="10.00"> </text>
<polyline fill="none" stroke="black" points="245.5,-1013 376.5,-1013 "/>
<text text-anchor="start" x="253.5" y="-1001" font-family="Helvetica,sans-Serif" font-size="10.00">+ Quaternion()</text>
<text text-anchor="start" x="253.5" y="-990" font-family="Helvetica,sans-Serif" font-size="10.00">+ Quaternion()</text>
<text text-anchor="start" x="253.5" y="-979" font-family="Helvetica,sans-Serif" font-size="10.00">+ Quaternion()</text>
<text text-anchor="start" x="253.5" y="-968" font-family="Helvetica,sans-Serif" font-size="10.00">+ operator=()</text>
<text text-anchor="start" x="253.5" y="-957" font-family="Helvetica,sans-Serif" font-size="10.00">+ read()</text>
<text text-anchor="start" x="253.5" y="-946" font-family="Helvetica,sans-Serif" font-size="10.00">+ read()</text>
<text text-anchor="start" x="253.5" y="-935" font-family="Helvetica,sans-Serif" font-size="10.00">+ write()</text>
<text text-anchor="start" x="253.5" y="-924" font-family="Helvetica,sans-Serif" font-size="10.00">+ write()</text>
<text text-anchor="start" x="253.5" y="-913" font-family="Helvetica,sans-Serif" font-size="10.00">+ toString()</text>
<text text-anchor="start" x="253.5" y="-902" font-family="Helvetica,sans-Serif" font-size="10.00">+ Quaternion()</text>
<text text-anchor="start" x="253.5" y="-891" font-family="Helvetica,sans-Serif" font-size="10.00">and 8 more...</text>
<text text-anchor="start" x="253.5" y="-880" font-family="Helvetica,sans-Serif" font-size="10.00">&#45; write_w()</text>
<text text-anchor="start" x="253.5" y="-869" font-family="Helvetica,sans-Serif" font-size="10.00">&#45; nested_write_w()</text>
<text text-anchor="start" x="253.5" y="-858" font-family="Helvetica,sans-Serif" font-size="10.00">&#45; write_imaginary()</text>
<text text-anchor="start" x="253.5" y="-847" font-family="Helvetica,sans-Serif" font-size="10.00">&#45; nested_write_imaginary()</text>
<text text-anchor="start" x="253.5" y="-836" font-family="Helvetica,sans-Serif" font-size="10.00">&#45; read_w()</text>
<text text-anchor="start" x="253.5" y="-825" font-family="Helvetica,sans-Serif" font-size="10.00">&#45; nested_read_w()</text>
<text text-anchor="start" x="253.5" y="-814" font-family="Helvetica,sans-Serif" font-size="10.00">&#45; read_imaginary()</text>
<text text-anchor="start" x="253.5" y="-803" font-family="Helvetica,sans-Serif" font-size="10.00">&#45; nested_read_imaginary()</text>
<text text-anchor="start" x="253.5" y="-792" font-family="Helvetica,sans-Serif" font-size="10.00">&#45; write_w()</text>
<text text-anchor="start" x="253.5" y="-781" font-family="Helvetica,sans-Serif" font-size="10.00">&#45; nested_write_w()</text>
<text text-anchor="start" x="253.5" y="-770" font-family="Helvetica,sans-Serif" font-size="10.00">and 6 more...</text>
</a>
</g>
</g>
<!-- Node6&#45;&gt;Node7 -->
<g id="edge10" class="edge"><title>Node6&#45;&gt;Node7</title>
<path fill="none" stroke="midnightblue" d="M266.437,-1450.23C267.708,-1380.85 278.681,-1228.46 288,-1100 289.149,-1084.17 290.353,-1067.6 291.61,-1051.11"/>
<polygon fill="none" stroke="midnightblue" points="262.937,-1450.2 266.32,-1460.24 269.937,-1450.28 262.937,-1450.2"/>
</g>
<!-- Node6&#45;&gt;Node7 -->
<g id="edge11" class="edge"><title>Node6&#45;&gt;Node7</title>
<path fill="none" stroke="midnightblue" d="M276.996,-1450.23C285.708,-1380.85 296.681,-1228.46 306,-1100 307.149,-1084.17 308.353,-1067.6 309.495,-1051.11"/>
<polygon fill="none" stroke="midnightblue" points="273.513,-1449.87 275.672,-1460.24 280.452,-1450.79 273.513,-1449.87"/>
</g>
<!-- Node9 -->
<g id="node9" class="node"><title>Node9</title>
<g id="a_node9"><a xlink:href="classxsens_1_1_vector3.html" target="_top" xlink:title="{xsens::Vector3\n||+ Vector3()\l+ Vector3()\l+ Vector3()\l+ operator=()\l+ read()\l+ read()\l+ write()\l+ write()\l+ toString()\l+ Vector3()\land 8 more...\l&#45; write_x()\l&#45; nested_write_x()\l&#45; write_y()\l&#45; nested_write_y()\l&#45; write_z()\l&#45; nested_write_z()\l&#45; read_x()\l&#45; nested_read_x()\l&#45; read_y()\l&#45; nested_read_y()\land 14 more...\l}">
<polygon fill="none" stroke="black" points="306.5,-1101 306.5,-1389 401.5,-1389 401.5,-1101 306.5,-1101"/>
<text text-anchor="middle" x="354" y="-1377" font-family="Helvetica,sans-Serif" font-size="10.00">xsens::Vector3</text>
<polyline fill="none" stroke="black" points="306.5,-1370 401.5,-1370 "/>
<text text-anchor="middle" x="354" y="-1358" font-family="Helvetica,sans-Serif" font-size="10.00"> </text>
<polyline fill="none" stroke="black" points="306.5,-1351 401.5,-1351 "/>
<text text-anchor="start" x="314.5" y="-1339" font-family="Helvetica,sans-Serif" font-size="10.00">+ Vector3()</text>
<text text-anchor="start" x="314.5" y="-1328" font-family="Helvetica,sans-Serif" font-size="10.00">+ Vector3()</text>
<text text-anchor="start" x="314.5" y="-1317" font-family="Helvetica,sans-Serif" font-size="10.00">+ Vector3()</text>
<text text-anchor="start" x="314.5" y="-1306" font-family="Helvetica,sans-Serif" font-size="10.00">+ operator=()</text>
<text text-anchor="start" x="314.5" y="-1295" font-family="Helvetica,sans-Serif" font-size="10.00">+ read()</text>
<text text-anchor="start" x="314.5" y="-1284" font-family="Helvetica,sans-Serif" font-size="10.00">+ read()</text>
<text text-anchor="start" x="314.5" y="-1273" font-family="Helvetica,sans-Serif" font-size="10.00">+ write()</text>
<text text-anchor="start" x="314.5" y="-1262" font-family="Helvetica,sans-Serif" font-size="10.00">+ write()</text>
<text text-anchor="start" x="314.5" y="-1251" font-family="Helvetica,sans-Serif" font-size="10.00">+ toString()</text>
<text text-anchor="start" x="314.5" y="-1240" font-family="Helvetica,sans-Serif" font-size="10.00">+ Vector3()</text>
<text text-anchor="start" x="314.5" y="-1229" font-family="Helvetica,sans-Serif" font-size="10.00">and 8 more...</text>
<text text-anchor="start" x="314.5" y="-1218" font-family="Helvetica,sans-Serif" font-size="10.00">&#45; write_x()</text>
<text text-anchor="start" x="314.5" y="-1207" font-family="Helvetica,sans-Serif" font-size="10.00">&#45; nested_write_x()</text>
<text text-anchor="start" x="314.5" y="-1196" font-family="Helvetica,sans-Serif" font-size="10.00">&#45; write_y()</text>
<text text-anchor="start" x="314.5" y="-1185" font-family="Helvetica,sans-Serif" font-size="10.00">&#45; nested_write_y()</text>
<text text-anchor="start" x="314.5" y="-1174" font-family="Helvetica,sans-Serif" font-size="10.00">&#45; write_z()</text>
<text text-anchor="start" x="314.5" y="-1163" font-family="Helvetica,sans-Serif" font-size="10.00">&#45; nested_write_z()</text>
<text text-anchor="start" x="314.5" y="-1152" font-family="Helvetica,sans-Serif" font-size="10.00">&#45; read_x()</text>
<text text-anchor="start" x="314.5" y="-1141" font-family="Helvetica,sans-Serif" font-size="10.00">&#45; nested_read_x()</text>
<text text-anchor="start" x="314.5" y="-1130" font-family="Helvetica,sans-Serif" font-size="10.00">&#45; read_y()</text>
<text text-anchor="start" x="314.5" y="-1119" font-family="Helvetica,sans-Serif" font-size="10.00">&#45; nested_read_y()</text>
<text text-anchor="start" x="314.5" y="-1108" font-family="Helvetica,sans-Serif" font-size="10.00">and 14 more...</text>
</a>
</g>
</g>
<!-- Node6&#45;&gt;Node9 -->
<g id="edge14" class="edge"><title>Node6&#45;&gt;Node9</title>
<path fill="none" stroke="midnightblue" d="M279.241,-1450.79C280.553,-1447.84 281.831,-1444.89 283,-1442 291.243,-1421.66 299.104,-1399.78 306.415,-1378.27"/>
<polygon fill="none" stroke="midnightblue" points="275.96,-1449.55 275.024,-1460.1 282.337,-1452.44 275.96,-1449.55"/>
</g>
<!-- Node6&#45;&gt;Node9 -->
<g id="edge15" class="edge"><title>Node6&#45;&gt;Node9</title>
<path fill="none" stroke="midnightblue" d="M297.064,-1451.07C298.47,-1448.03 299.793,-1444.98 301,-1442 307.869,-1425.05 314.473,-1407.03 320.57,-1389.05"/>
<polygon fill="none" stroke="midnightblue" points="293.895,-1449.58 292.623,-1460.1 300.177,-1452.67 293.895,-1449.58"/>
</g>
<!-- Node7&#45;&gt;Node5 -->
<g id="edge9" class="edge"><title>Node7&#45;&gt;Node5</title>
<path fill="none" stroke="#404040" d="M288.796,-762.531C286.882,-750.163 284.94,-737.614 283.013,-725.159"/>
<polygon fill="none" stroke="#404040" points="283.006,-725.115 278.135,-719.798 281.171,-713.257 286.041,-718.574 283.006,-725.115"/>
<text text-anchor="middle" x="312.5" y="-735.5" font-family="Helvetica,sans-Serif" font-size="10.00"> +orientation</text>
</g>
<!-- Node8 -->
<g id="node8" class="node"><title>Node8</title>
<polygon fill="none" stroke="#bfbfbf" points="391.5,-1460.5 391.5,-1517.5 436.5,-1517.5 436.5,-1460.5 391.5,-1460.5"/>
<text text-anchor="middle" x="414" y="-1505.5" font-family="Helvetica,sans-Serif" font-size="10.00">double</text>
<polyline fill="none" stroke="#bfbfbf" points="391.5,-1498.5 436.5,-1498.5 "/>
<text text-anchor="middle" x="414" y="-1486.5" font-family="Helvetica,sans-Serif" font-size="10.00"> </text>
<polyline fill="none" stroke="#bfbfbf" points="391.5,-1479.5 436.5,-1479.5 "/>
<text text-anchor="middle" x="414" y="-1467.5" font-family="Helvetica,sans-Serif" font-size="10.00"> </text>
</g>
<!-- Node8&#45;&gt;Node7 -->
<g id="edge12" class="edge"><title>Node8&#45;&gt;Node7</title>
<path fill="none" stroke="#404040" d="M419.599,-1460.37C420.598,-1454.34 421.484,-1447.98 422,-1442 423.299,-1426.94 422.294,-1423.11 422,-1408 419.333,-1271.03 449.332,-1231.22 410,-1100 403.794,-1079.3 395.496,-1074.87 382.775,-1054.46"/>
<polygon fill="none" stroke="#404040" points="382.635,-1054.22 376.164,-1051.04 376.61,-1043.84 383.082,-1047.02 382.635,-1054.22"/>
<text text-anchor="middle" x="439.5" y="-1242.5" font-family="Helvetica,sans-Serif" font-size="10.00"> +w</text>
</g>
<!-- Node8&#45;&gt;Node9 -->
<g id="edge16" class="edge"><title>Node8&#45;&gt;Node9</title>
<path fill="none" stroke="#404040" d="M407.117,-1460.24C403.22,-1444.52 398.002,-1423.48 392.355,-1400.7"/>
<polygon fill="none" stroke="#404040" points="392.348,-1400.67 387.022,-1395.81 389.46,-1389.02 394.787,-1393.88 392.348,-1400.67"/>
<text text-anchor="middle" x="410.5" y="-1433.5" font-family="Helvetica,sans-Serif" font-size="10.00"> +x</text>
<text text-anchor="middle" x="410.5" y="-1422.5" font-family="Helvetica,sans-Serif" font-size="10.00">+y</text>
<text text-anchor="middle" x="410.5" y="-1411.5" font-family="Helvetica,sans-Serif" font-size="10.00">+z</text>
</g>
<!-- Node9&#45;&gt;Node5 -->
<g id="edge17" class="edge"><title>Node9&#45;&gt;Node5</title>
<path fill="none" stroke="#404040" d="M392.763,-1100.8C412.314,-1002.6 424.46,-870.894 385,-762 375.635,-736.157 361.812,-736.484 346,-714 345.357,-713.085 344.713,-712.166 344.07,-711.242"/>
<polygon fill="none" stroke="#404040" points="343.963,-711.085 337.271,-708.397 337.18,-701.186 343.871,-703.875 343.963,-711.085"/>
<text text-anchor="middle" x="458" y="-926.5" font-family="Helvetica,sans-Serif" font-size="10.00"> +velocity</text>
<text text-anchor="middle" x="458" y="-915.5" font-family="Helvetica,sans-Serif" font-size="10.00">+acceleration</text>
<text text-anchor="middle" x="458" y="-904.5" font-family="Helvetica,sans-Serif" font-size="10.00">+angularAcceleration</text>
<text text-anchor="middle" x="458" y="-893.5" font-family="Helvetica,sans-Serif" font-size="10.00">+position</text>
<text text-anchor="middle" x="458" y="-882.5" font-family="Helvetica,sans-Serif" font-size="10.00">+angularVelocity</text>
</g>
<!-- Node9&#45;&gt;Node7 -->
<g id="edge13" class="edge"><title>Node9&#45;&gt;Node7</title>
<path fill="none" stroke="#404040" d="M335.639,-1100.53C334.057,-1088.16 332.451,-1075.61 330.857,-1063.16"/>
<polygon fill="none" stroke="#404040" points="330.857,-1063.16 326.127,-1057.72 329.333,-1051.26 334.063,-1056.7 330.857,-1063.16"/>
<text text-anchor="middle" x="359" y="-1073.5" font-family="Helvetica,sans-Serif" font-size="10.00"> +imaginary</text>
</g>
<!-- Node10 -->
<g id="node10" class="node"><title>Node10</title>
<polygon fill="none" stroke="#bfbfbf" points="355.5,-540.5 355.5,-597.5 390.5,-597.5 390.5,-540.5 355.5,-540.5"/>
<text text-anchor="middle" x="373" y="-585.5" font-family="Helvetica,sans-Serif" font-size="10.00">bool</text>
<polyline fill="none" stroke="#bfbfbf" points="355.5,-578.5 390.5,-578.5 "/>
<text text-anchor="middle" x="373" y="-566.5" font-family="Helvetica,sans-Serif" font-size="10.00"> </text>
<polyline fill="none" stroke="#bfbfbf" points="355.5,-559.5 390.5,-559.5 "/>
<text text-anchor="middle" x="373" y="-547.5" font-family="Helvetica,sans-Serif" font-size="10.00"> </text>
</g>
<!-- Node10&#45;&gt;Node1 -->
<g id="edge18" class="edge"><title>Node10&#45;&gt;Node1</title>
<path fill="none" stroke="#404040" d="M372.439,-540.229C370.805,-510.069 365.104,-461.226 346,-424 305.363,-344.813 234.441,-272.849 176.776,-222.711"/>
<polygon fill="none" stroke="#404040" points="176.739,-222.679 169.582,-221.799 167.642,-214.853 174.799,-215.734 176.739,-222.679"/>
<text text-anchor="middle" x="395" y="-398" font-family="Helvetica,sans-Serif" font-size="10.00"> &#45;is_dirty_angularVelocity</text>
<text text-anchor="middle" x="395" y="-387" font-family="Helvetica,sans-Serif" font-size="10.00">&#45;is_dirty_velocity</text>
<text text-anchor="middle" x="395" y="-376" font-family="Helvetica,sans-Serif" font-size="10.00">&#45;is_dirty</text>
<text text-anchor="middle" x="395" y="-365" font-family="Helvetica,sans-Serif" font-size="10.00">&#45;is_dirty_position</text>
<text text-anchor="middle" x="395" y="-354" font-family="Helvetica,sans-Serif" font-size="10.00">&#45;obj_owned</text>
<text text-anchor="middle" x="395" y="-343" font-family="Helvetica,sans-Serif" font-size="10.00">&#45;is_dirty_acceleration</text>
<text text-anchor="middle" x="395" y="-332" font-family="Helvetica,sans-Serif" font-size="10.00">&#45;is_dirty_angularAcceleration</text>
<text text-anchor="middle" x="395" y="-321" font-family="Helvetica,sans-Serif" font-size="10.00">&#45;is_dirty_orientation</text>
</g>
</g>
</svg>
