<?xml version="1.0" encoding="UTF-8" standalone="no"?>
<!DOCTYPE svg PUBLIC "-//W3C//DTD SVG 1.1//EN"
 "http://www.w3.org/Graphics/SVG/1.1/DTD/svg11.dtd">
<!-- Generated by graphviz version 2.36.0 (20140111.2315)
 -->
<!-- Title: geometry_msgs_Vector3 Pages: 1 -->
<svg width="197pt" height="304pt"
 viewBox="0.00 0.00 197.00 304.00" xmlns="http://www.w3.org/2000/svg" xmlns:xlink="http://www.w3.org/1999/xlink">
<g id="graph0" class="graph" transform="scale(1 1) rotate(0) translate(4 300)">
<title>geometry_msgs_Vector3</title>
<!-- Node1 -->
<g id="node1" class="node"><title>Node1</title>
<polygon fill="#bfbfbf" stroke="black" points="0,-0.5 0,-167.5 140,-167.5 140,-0.5 0,-0.5"/>
<text text-anchor="middle" x="70" y="-155.5" font-family="Helvetica,sans-Serif" font-size="10.00">geometry_msgs_Vector3</text>
<polyline fill="none" stroke="black" points="0,-148.5 140,-148.5 "/>
<text text-anchor="middle" x="70" y="-136.5" font-family="Helvetica,sans-Serif" font-size="10.00"> </text>
<polyline fill="none" stroke="black" points="0,-129.5 140,-129.5 "/>
<text text-anchor="start" x="8" y="-117.5" font-family="Helvetica,sans-Serif" font-size="10.00">+ geometry_msgs_Vector3()</text>
<text text-anchor="start" x="8" y="-106.5" font-family="Helvetica,sans-Serif" font-size="10.00">+ clear()</text>
<text text-anchor="start" x="8" y="-95.5" font-family="Helvetica,sans-Serif" font-size="10.00">+ readBare()</text>
<text text-anchor="start" x="8" y="-84.5" font-family="Helvetica,sans-Serif" font-size="10.00">+ readBottle()</text>
<text text-anchor="start" x="8" y="-73.5" font-family="Helvetica,sans-Serif" font-size="10.00">+ read()</text>
<text text-anchor="start" x="8" y="-62.5" font-family="Helvetica,sans-Serif" font-size="10.00">+ writeBare()</text>
<text text-anchor="start" x="8" y="-51.5" font-family="Helvetica,sans-Serif" font-size="10.00">+ writeBottle()</text>
<text text-anchor="start" x="8" y="-40.5" font-family="Helvetica,sans-Serif" font-size="10.00">+ write()</text>
<text text-anchor="start" x="8" y="-29.5" font-family="Helvetica,sans-Serif" font-size="10.00">+ getTypeText()</text>
<text text-anchor="start" x="8" y="-18.5" font-family="Helvetica,sans-Serif" font-size="10.00">+ getType()</text>
<text text-anchor="start" x="8" y="-7.5" font-family="Helvetica,sans-Serif" font-size="10.00">and 10 more...</text>
</g>
<!-- Node2 -->
<g id="node2" class="node"><title>Node2</title>
<g id="a_node2"><a xlink:href="classyarp_1_1os_1_1idl_1_1_wire_portable.html" target="_top" xlink:title="{WirePortable\n||}">
<polygon fill="none" stroke="black" points="33.5,-238.5 33.5,-295.5 106.5,-295.5 106.5,-238.5 33.5,-238.5"/>
<text text-anchor="middle" x="70" y="-283.5" font-family="Helvetica,sans-Serif" font-size="10.00">WirePortable</text>
<polyline fill="none" stroke="black" points="33.5,-276.5 106.5,-276.5 "/>
<text text-anchor="middle" x="70" y="-264.5" font-family="Helvetica,sans-Serif" font-size="10.00"> </text>
<polyline fill="none" stroke="black" points="33.5,-257.5 106.5,-257.5 "/>
<text text-anchor="middle" x="70" y="-245.5" font-family="Helvetica,sans-Serif" font-size="10.00"> </text>
</a>
</g>
</g>
<!-- Node2&#45;&gt;Node1 -->
<g id="edge1" class="edge"><title>Node2&#45;&gt;Node1</title>
<path fill="none" stroke="midnightblue" d="M64.3708,-227.754C63.5188,-210.221 63.1526,-188.709 63.272,-167.754"/>
<polygon fill="none" stroke="midnightblue" points="60.898,-228.332 64.964,-238.115 67.8866,-227.932 60.898,-228.332"/>
</g>
<!-- Node2&#45;&gt;Node1 -->
<g id="edge2" class="edge"><title>Node2&#45;&gt;Node1</title>
<path fill="none" stroke="midnightblue" d="M75.6292,-227.754C76.4812,-210.221 76.8474,-188.709 76.728,-167.754"/>
<polygon fill="none" stroke="midnightblue" points="72.1134,-227.932 75.036,-238.115 79.102,-228.332 72.1134,-227.932"/>
</g>
<!-- Node3 -->
<g id="node3" class="node"><title>Node3</title>
<polygon fill="none" stroke="#bfbfbf" points="124.5,-238.5 124.5,-295.5 189.5,-295.5 189.5,-238.5 124.5,-238.5"/>
<text text-anchor="middle" x="157" y="-283.5" font-family="Helvetica,sans-Serif" font-size="10.00">NetFloat64</text>
<polyline fill="none" stroke="#bfbfbf" points="124.5,-276.5 189.5,-276.5 "/>
<text text-anchor="middle" x="157" y="-264.5" font-family="Helvetica,sans-Serif" font-size="10.00"> </text>
<polyline fill="none" stroke="#bfbfbf" points="124.5,-257.5 189.5,-257.5 "/>
<text text-anchor="middle" x="157" y="-245.5" font-family="Helvetica,sans-Serif" font-size="10.00"> </text>
</g>
<!-- Node3&#45;&gt;Node1 -->
<g id="edge3" class="edge"><title>Node3&#45;&gt;Node1</title>
<path fill="none" stroke="#404040" d="M143.597,-238.115C135.809,-221.913 125.496,-200.457 115.063,-178.753"/>
<polygon fill="none" stroke="#404040" points="114.976,-178.57 108.771,-174.895 109.777,-167.754 115.981,-171.429 114.976,-178.57"/>
<text text-anchor="middle" x="140.5" y="-211.5" font-family="Helvetica,sans-Serif" font-size="10.00"> +x</text>
<text text-anchor="middle" x="140.5" y="-200.5" font-family="Helvetica,sans-Serif" font-size="10.00">+y</text>
<text text-anchor="middle" x="140.5" y="-189.5" font-family="Helvetica,sans-Serif" font-size="10.00">+z</text>
</g>
</g>
</svg>
