<?xml version="1.0" encoding="UTF-8" standalone="no"?>
<!DOCTYPE svg PUBLIC "-//W3C//DTD SVG 1.1//EN"
 "http://www.w3.org/Graphics/SVG/1.1/DTD/svg11.dtd">
<!-- Generated by graphviz version 2.36.0 (20140111.2315)
 -->
<!-- Title: HumanTFBridge Pages: 1 -->
<svg width="222pt" height="96pt"
 viewBox="0.00 0.00 222.00 96.00" xmlns="http://www.w3.org/2000/svg" xmlns:xlink="http://www.w3.org/1999/xlink">
<g id="graph0" class="graph" transform="scale(1 1) rotate(0) translate(4 92)">
<title>HumanTFBridge</title>
<!-- Node1 -->
<g id="node1" class="node"><title>Node1</title>
<polygon fill="#bfbfbf" stroke="black" points="45,-0.5 45,-19.5 133,-19.5 133,-0.5 45,-0.5"/>
<text text-anchor="middle" x="89" y="-7.5" font-family="Helvetica,sans-Serif" font-size="10.00">HumanTFBridge</text>
</g>
<!-- Node2 -->
<g id="node2" class="node"><title>Node2</title>
<polygon fill="none" stroke="#bfbfbf" points="0,-62.5 0,-81.5 62,-81.5 62,-62.5 0,-62.5"/>
<text text-anchor="middle" x="31" y="-69.5" font-family="Helvetica,sans-Serif" font-size="10.00">RFModule</text>
</g>
<!-- Node2&#45;&gt;Node1 -->
<g id="edge1" class="edge"><title>Node2&#45;&gt;Node1</title>
<path fill="none" stroke="midnightblue" d="M46.2803,-55.1928C57.2997,-43.7935 71.7533,-28.8414 80.7054,-19.5806"/>
<polygon fill="midnightblue" stroke="midnightblue" points="43.7438,-52.781 39.31,-62.4035 48.7767,-57.6461 43.7438,-52.781"/>
</g>
<!-- Node3 -->
<g id="node3" class="node"><title>Node3</title>
<polygon fill="none" stroke="#bfbfbf" points="80,-57 80,-87 214,-87 214,-57 80,-57"/>
<text text-anchor="start" x="88" y="-75" font-family="Helvetica,sans-Serif" font-size="10.00">TypedReaderCallback</text>
<text text-anchor="middle" x="147" y="-64" font-family="Helvetica,sans-Serif" font-size="10.00">&lt; XsensSegmentsFrame &gt;</text>
</g>
<!-- Node3&#45;&gt;Node1 -->
<g id="edge2" class="edge"><title>Node3&#45;&gt;Node1</title>
<path fill="none" stroke="midnightblue" d="M126.044,-49.3217C116.159,-39.0958 104.92,-27.4692 97.4395,-19.7305"/>
<polygon fill="midnightblue" stroke="midnightblue" points="123.788,-52.0235 133.255,-56.7808 128.821,-47.1583 123.788,-52.0235"/>
</g>
</g>
</svg>
