<?xml version="1.0" encoding="UTF-8" standalone="no"?>
<!DOCTYPE svg PUBLIC "-//W3C//DTD SVG 1.1//EN"
 "http://www.w3.org/Graphics/SVG/1.1/DTD/svg11.dtd">
<!-- Generated by graphviz version 2.36.0 (20140111.2315)
 -->
<!-- Title: human::PortForceReader Pages: 1 -->
<svg width="152pt" height="376pt"
 viewBox="0.00 0.00 152.00 376.00" xmlns="http://www.w3.org/2000/svg" xmlns:xlink="http://www.w3.org/1999/xlink">
<g id="graph0" class="graph" transform="scale(1 1) rotate(0) translate(4 372)">
<title>human::PortForceReader</title>
<!-- Node1 -->
<g id="node1" class="node"><title>Node1</title>
<polygon fill="#bfbfbf" stroke="black" points="9,-0.5 9,-79.5 135,-79.5 135,-0.5 9,-0.5"/>
<text text-anchor="middle" x="72" y="-67.5" font-family="Helvetica,sans-Serif" font-size="10.00">human::PortForceReader</text>
<polyline fill="none" stroke="black" points="9,-60.5 135,-60.5 "/>
<text text-anchor="start" x="17" y="-48.5" font-family="Helvetica,sans-Serif" font-size="10.00">&#45; m_bufferedPort</text>
<text text-anchor="start" x="17" y="-37.5" font-family="Helvetica,sans-Serif" font-size="10.00">&#45; m_internal_buffer</text>
<polyline fill="none" stroke="black" points="9,-30.5 135,-30.5 "/>
<text text-anchor="start" x="17" y="-18.5" font-family="Helvetica,sans-Serif" font-size="10.00">+ PortForceReader()</text>
<text text-anchor="start" x="17" y="-7.5" font-family="Helvetica,sans-Serif" font-size="10.00"># lowLevelRead()</text>
</g>
<!-- Node2 -->
<g id="node2" class="node"><title>Node2</title>
<g id="a_node2"><a xlink:href="classhuman_1_1_abstract_force_reader.html" target="_top" xlink:title="Abstract class for implementing code required from its derived classes. ">
<polygon fill="none" stroke="black" points="-0.5,-116.5 -0.5,-261.5 144.5,-261.5 144.5,-116.5 -0.5,-116.5"/>
<text text-anchor="middle" x="72" y="-249.5" font-family="Helvetica,sans-Serif" font-size="10.00">human::AbstractForceReader</text>
<polyline fill="none" stroke="black" points="-0.5,-242.5 144.5,-242.5 "/>
<text text-anchor="start" x="7.5" y="-230.5" font-family="Helvetica,sans-Serif" font-size="10.00">&#45; m_frameTransformer</text>
<text text-anchor="start" x="7.5" y="-219.5" font-family="Helvetica,sans-Serif" font-size="10.00">&#45; m_attachedLink</text>
<text text-anchor="start" x="7.5" y="-208.5" font-family="Helvetica,sans-Serif" font-size="10.00">&#45; m_referenceFrame</text>
<text text-anchor="start" x="7.5" y="-197.5" font-family="Helvetica,sans-Serif" font-size="10.00">&#45; m_packedForce</text>
<text text-anchor="start" x="7.5" y="-186.5" font-family="Helvetica,sans-Serif" font-size="10.00">&#45; m_forceBuffer</text>
<polyline fill="none" stroke="black" points="-0.5,-179.5 144.5,-179.5 "/>
<text text-anchor="start" x="7.5" y="-167.5" font-family="Helvetica,sans-Serif" font-size="10.00">+ AbstractForceReader()</text>
<text text-anchor="start" x="7.5" y="-156.5" font-family="Helvetica,sans-Serif" font-size="10.00">+ setTransformer()</text>
<text text-anchor="start" x="7.5" y="-145.5" font-family="Helvetica,sans-Serif" font-size="10.00">+ getTransformer()</text>
<text text-anchor="start" x="7.5" y="-134.5" font-family="Helvetica,sans-Serif" font-size="10.00">+ readForce()</text>
<text text-anchor="start" x="7.5" y="-123.5" font-family="Helvetica,sans-Serif" font-size="10.00"># lowLevelRead()</text>
</a>
</g>
</g>
<!-- Node2&#45;&gt;Node1 -->
<g id="edge1" class="edge"><title>Node2&#45;&gt;Node1</title>
<path fill="none" stroke="midnightblue" d="M72,-105.954C72,-96.8992 72,-88.0195 72,-79.875"/>
<polygon fill="none" stroke="midnightblue" points="68.5001,-106.222 72,-116.223 75.5001,-106.223 68.5001,-106.222"/>
</g>
<!-- Node3 -->
<g id="node3" class="node"><title>Node3</title>
<g id="a_node3"><a xlink:href="classhuman_1_1_force_reader.html" target="_top" xlink:title="Interface for reading forces from device and sensors. ">
<polygon fill="none" stroke="black" points="18,-299 18,-367 126,-367 126,-299 18,-299"/>
<text text-anchor="middle" x="72" y="-355" font-family="Helvetica,sans-Serif" font-size="10.00">human::ForceReader</text>
<polyline fill="none" stroke="black" points="18,-348 126,-348 "/>
<text text-anchor="middle" x="72" y="-336" font-family="Helvetica,sans-Serif" font-size="10.00"> </text>
<polyline fill="none" stroke="black" points="18,-329 126,-329 "/>
<text text-anchor="start" x="26" y="-317" font-family="Helvetica,sans-Serif" font-size="10.00">+ readForce()</text>
<text text-anchor="start" x="26" y="-306" font-family="Helvetica,sans-Serif" font-size="10.00">+ ~ForceReader()</text>
</a>
</g>
</g>
<!-- Node3&#45;&gt;Node2 -->
<g id="edge2" class="edge"><title>Node3&#45;&gt;Node2</title>
<path fill="none" stroke="midnightblue" d="M72,-288.643C72,-280.101 72,-270.926 72,-261.735"/>
<polygon fill="none" stroke="midnightblue" points="68.5001,-288.707 72,-298.707 75.5001,-288.707 68.5001,-288.707"/>
</g>
</g>
</svg>
