<?xml version="1.0" encoding="UTF-8" standalone="no"?>
<!DOCTYPE svg PUBLIC "-//W3C//DTD SVG 1.1//EN"
 "http://www.w3.org/Graphics/SVG/1.1/DTD/svg11.dtd">
<!-- Generated by graphviz version 2.36.0 (20140111.2315)
 -->
<!-- Title: human::FTForceReader Pages: 1 -->
<svg width="443pt" height="356pt"
 viewBox="0.00 0.00 443.00 356.00" xmlns="http://www.w3.org/2000/svg" xmlns:xlink="http://www.w3.org/1999/xlink">
<g id="graph0" class="graph" transform="scale(1 1) rotate(0) translate(4 352)">
<title>human::FTForceReader</title>
<!-- Node1 -->
<g id="node1" class="node"><title>Node1</title>
<polygon fill="#bfbfbf" stroke="black" points="243,-1 243,-69 363,-69 363,-1 243,-1"/>
<text text-anchor="middle" x="303" y="-57" font-family="Helvetica,sans-Serif" font-size="10.00">human::FTForceReader</text>
<polyline fill="none" stroke="black" points="243,-50 363,-50 "/>
<text text-anchor="middle" x="303" y="-38" font-family="Helvetica,sans-Serif" font-size="10.00"> </text>
<polyline fill="none" stroke="black" points="243,-31 363,-31 "/>
<text text-anchor="start" x="251" y="-19" font-family="Helvetica,sans-Serif" font-size="10.00">+ FTForceReader()</text>
<text text-anchor="start" x="251" y="-8" font-family="Helvetica,sans-Serif" font-size="10.00"># lowLevelRead()</text>
</g>
<!-- Node2 -->
<g id="node2" class="node"><title>Node2</title>
<g id="a_node2"><a xlink:href="classhuman_1_1_abstract_force_reader.html" target="_top" xlink:title="Abstract class for implementing code required from its derived classes. ">
<polygon fill="none" stroke="black" points="128.5,-118.5 128.5,-219.5 273.5,-219.5 273.5,-118.5 128.5,-118.5"/>
<text text-anchor="middle" x="201" y="-207.5" font-family="Helvetica,sans-Serif" font-size="10.00">human::AbstractForceReader</text>
<polyline fill="none" stroke="black" points="128.5,-200.5 273.5,-200.5 "/>
<text text-anchor="middle" x="201" y="-188.5" font-family="Helvetica,sans-Serif" font-size="10.00"> </text>
<polyline fill="none" stroke="black" points="128.5,-181.5 273.5,-181.5 "/>
<text text-anchor="start" x="136.5" y="-169.5" font-family="Helvetica,sans-Serif" font-size="10.00">+ AbstractForceReader()</text>
<text text-anchor="start" x="136.5" y="-158.5" font-family="Helvetica,sans-Serif" font-size="10.00">+ setTransformer()</text>
<text text-anchor="start" x="136.5" y="-147.5" font-family="Helvetica,sans-Serif" font-size="10.00">+ getTransformer()</text>
<text text-anchor="start" x="136.5" y="-136.5" font-family="Helvetica,sans-Serif" font-size="10.00">+ readForce()</text>
<text text-anchor="start" x="136.5" y="-125.5" font-family="Helvetica,sans-Serif" font-size="10.00"># lowLevelRead()</text>
</a>
</g>
</g>
<!-- Node2&#45;&gt;Node1 -->
<g id="edge1" class="edge"><title>Node2&#45;&gt;Node1</title>
<path fill="none" stroke="midnightblue" d="M245.579,-110.31C256.394,-96.3135 267.601,-81.8106 277.212,-69.3731"/>
<polygon fill="none" stroke="midnightblue" points="242.616,-108.42 239.271,-118.473 248.155,-112.7 242.616,-108.42"/>
</g>
<!-- Node3 -->
<g id="node3" class="node"><title>Node3</title>
<g id="a_node3"><a xlink:href="classhuman_1_1_force_reader.html" target="_top" xlink:title="Interface for reading forces from device and sensors. ">
<polygon fill="none" stroke="black" points="0,-279 0,-347 108,-347 108,-279 0,-279"/>
<text text-anchor="middle" x="54" y="-335" font-family="Helvetica,sans-Serif" font-size="10.00">human::ForceReader</text>
<polyline fill="none" stroke="black" points="0,-328 108,-328 "/>
<text text-anchor="middle" x="54" y="-316" font-family="Helvetica,sans-Serif" font-size="10.00"> </text>
<polyline fill="none" stroke="black" points="0,-309 108,-309 "/>
<text text-anchor="start" x="8" y="-297" font-family="Helvetica,sans-Serif" font-size="10.00">+ readForce()</text>
<text text-anchor="start" x="8" y="-286" font-family="Helvetica,sans-Serif" font-size="10.00">+ ~ForceReader()</text>
</a>
</g>
</g>
<!-- Node3&#45;&gt;Node2 -->
<g id="edge2" class="edge"><title>Node3&#45;&gt;Node2</title>
<path fill="none" stroke="midnightblue" d="M95.9573,-271.47C112.713,-255.284 132.168,-236.49 149.749,-219.508"/>
<polygon fill="none" stroke="midnightblue" points="93.2256,-269.242 88.465,-278.707 98.089,-274.277 93.2256,-269.242"/>
</g>
<!-- Node4 -->
<g id="node4" class="node"><title>Node4</title>
<polygon fill="none" stroke="#bfbfbf" points="126.5,-284.5 126.5,-341.5 167.5,-341.5 167.5,-284.5 126.5,-284.5"/>
<text text-anchor="middle" x="147" y="-329.5" font-family="Helvetica,sans-Serif" font-size="10.00">string</text>
<polyline fill="none" stroke="#bfbfbf" points="126.5,-322.5 167.5,-322.5 "/>
<text text-anchor="middle" x="147" y="-310.5" font-family="Helvetica,sans-Serif" font-size="10.00"> </text>
<polyline fill="none" stroke="#bfbfbf" points="126.5,-303.5 167.5,-303.5 "/>
<text text-anchor="middle" x="147" y="-291.5" font-family="Helvetica,sans-Serif" font-size="10.00"> </text>
</g>
<!-- Node4&#45;&gt;Node2 -->
<g id="edge3" class="edge"><title>Node4&#45;&gt;Node2</title>
<path fill="none" stroke="#404040" d="M143.243,-284.205C142.343,-270.002 142.848,-252.668 148,-238 148.887,-235.476 149.908,-232.972 151.041,-230.499"/>
<polygon fill="none" stroke="#404040" points="151.045,-230.491 150.31,-223.318 156.649,-219.88 157.384,-227.054 151.045,-230.491"/>
<text text-anchor="middle" x="190.5" y="-252" font-family="Helvetica,sans-Serif" font-size="10.00"> &#45;m_attachedLink</text>
<text text-anchor="middle" x="190.5" y="-241" font-family="Helvetica,sans-Serif" font-size="10.00">&#45;m_referenceFrame</text>
</g>
<!-- Node5 -->
<g id="node5" class="node"><title>Node5</title>
<polygon fill="none" stroke="#bfbfbf" points="232.5,-284.5 232.5,-341.5 277.5,-341.5 277.5,-284.5 232.5,-284.5"/>
<text text-anchor="middle" x="255" y="-329.5" font-family="Helvetica,sans-Serif" font-size="10.00">Vector</text>
<polyline fill="none" stroke="#bfbfbf" points="232.5,-322.5 277.5,-322.5 "/>
<text text-anchor="middle" x="255" y="-310.5" font-family="Helvetica,sans-Serif" font-size="10.00"> </text>
<polyline fill="none" stroke="#bfbfbf" points="232.5,-303.5 277.5,-303.5 "/>
<text text-anchor="middle" x="255" y="-291.5" font-family="Helvetica,sans-Serif" font-size="10.00"> </text>
</g>
<!-- Node5&#45;&gt;Node2 -->
<g id="edge4" class="edge"><title>Node5&#45;&gt;Node2</title>
<path fill="none" stroke="#404040" d="M247.823,-284.259C243.924,-270.226 238.732,-253.027 233,-238 232.11,-235.667 231.174,-233.302 230.204,-230.924"/>
<polygon fill="none" stroke="#404040" points="230.155,-230.808 224.127,-226.85 225.462,-219.763 231.49,-223.721 230.155,-230.808"/>
<text text-anchor="middle" x="278" y="-252" font-family="Helvetica,sans-Serif" font-size="10.00"> &#45;m_packedForce</text>
<text text-anchor="middle" x="278" y="-241" font-family="Helvetica,sans-Serif" font-size="10.00">&#45;m_forceBuffer</text>
</g>
<!-- Node6 -->
<g id="node6" class="node"><title>Node6</title>
<g id="a_node6"><a xlink:href="classhuman_1_1_frame_transformer.html" target="_top" xlink:title="Interface for transforming forces into human frames. In general, given two generic frames A and B...">
<polygon fill="none" stroke="black" points="296,-279 296,-347 428,-347 428,-279 296,-279"/>
<text text-anchor="middle" x="362" y="-335" font-family="Helvetica,sans-Serif" font-size="10.00">human::FrameTransformer</text>
<polyline fill="none" stroke="black" points="296,-328 428,-328 "/>
<text text-anchor="middle" x="362" y="-316" font-family="Helvetica,sans-Serif" font-size="10.00"> </text>
<polyline fill="none" stroke="black" points="296,-309 428,-309 "/>
<text text-anchor="start" x="304" y="-297" font-family="Helvetica,sans-Serif" font-size="10.00">+ transformForceFrame()</text>
<text text-anchor="start" x="304" y="-286" font-family="Helvetica,sans-Serif" font-size="10.00">+ ~FrameTransformer()</text>
</a>
</g>
</g>
<!-- Node6&#45;&gt;Node2 -->
<g id="edge5" class="edge"><title>Node6&#45;&gt;Node2</title>
<path fill="none" stroke="#404040" d="M348.535,-278.846C341.611,-264.901 332.064,-249.322 320,-238 308.853,-227.539 301.701,-228.118 284.829,-220.429"/>
<polygon fill="none" stroke="#404040" points="284.382,-220.204 277.224,-221.074 273.668,-214.801 280.826,-213.931 284.382,-220.204"/>
<text text-anchor="middle" x="386.5" y="-246.5" font-family="Helvetica,sans-Serif" font-size="10.00"> &#45;m_frameTransformer</text>
</g>
<!-- Node7 -->
<g id="node7" class="node"><title>Node7</title>
<polygon fill="none" stroke="#bfbfbf" points="292,-140.5 292,-197.5 382,-197.5 382,-140.5 292,-140.5"/>
<text text-anchor="middle" x="337" y="-185.5" font-family="Helvetica,sans-Serif" font-size="10.00">IAnalogSensor &amp;</text>
<polyline fill="none" stroke="#bfbfbf" points="292,-178.5 382,-178.5 "/>
<text text-anchor="middle" x="337" y="-166.5" font-family="Helvetica,sans-Serif" font-size="10.00"> </text>
<polyline fill="none" stroke="#bfbfbf" points="292,-159.5 382,-159.5 "/>
<text text-anchor="middle" x="337" y="-147.5" font-family="Helvetica,sans-Serif" font-size="10.00"> </text>
</g>
<!-- Node7&#45;&gt;Node1 -->
<g id="edge6" class="edge"><title>Node7&#45;&gt;Node1</title>
<path fill="none" stroke="#404040" d="M329.872,-140.328C325.454,-123.175 319.674,-100.734 314.607,-81.0627"/>
<polygon fill="none" stroke="#404040" points="314.556,-80.8646 309.186,-76.052 311.563,-69.2439 316.933,-74.0565 314.556,-80.8646"/>
<text text-anchor="middle" x="343.5" y="-91.5" font-family="Helvetica,sans-Serif" font-size="10.00"> &#45;m_sensor</text>
</g>
</g>
</svg>
