<?xml version="1.0" encoding="UTF-8" standalone="no"?>
<!DOCTYPE svg PUBLIC "-//W3C//DTD SVG 1.1//EN"
 "http://www.w3.org/Graphics/SVG/1.1/DTD/svg11.dtd">
<!-- Generated by graphviz version 2.36.0 (20140111.2315)
 -->
<!-- Title: human::LinkDynamicsEstimation Pages: 1 -->
<svg width="416pt" height="426pt"
 viewBox="0.00 0.00 416.00 426.00" xmlns="http://www.w3.org/2000/svg" xmlns:xlink="http://www.w3.org/1999/xlink">
<g id="graph0" class="graph" transform="scale(1 1) rotate(0) translate(4 422)">
<title>human::LinkDynamicsEstimation</title>
<!-- Node1 -->
<g id="node1" class="node"><title>Node1</title>
<polygon fill="#bfbfbf" stroke="black" points="130,-1 130,-289 302,-289 302,-1 130,-1"/>
<text text-anchor="middle" x="216" y="-277" font-family="Helvetica,sans-Serif" font-size="10.00">human::LinkDynamicsEstimation</text>
<polyline fill="none" stroke="black" points="130,-270 302,-270 "/>
<text text-anchor="middle" x="216" y="-258" font-family="Helvetica,sans-Serif" font-size="10.00"> </text>
<polyline fill="none" stroke="black" points="130,-251 302,-251 "/>
<text text-anchor="start" x="138" y="-239" font-family="Helvetica,sans-Serif" font-size="10.00">+ LinkDynamicsEstimation()</text>
<text text-anchor="start" x="138" y="-228" font-family="Helvetica,sans-Serif" font-size="10.00">+ LinkDynamicsEstimation()</text>
<text text-anchor="start" x="138" y="-217" font-family="Helvetica,sans-Serif" font-size="10.00">+ LinkDynamicsEstimation()</text>
<text text-anchor="start" x="138" y="-206" font-family="Helvetica,sans-Serif" font-size="10.00">+ operator=()</text>
<text text-anchor="start" x="138" y="-195" font-family="Helvetica,sans-Serif" font-size="10.00">+ read()</text>
<text text-anchor="start" x="138" y="-184" font-family="Helvetica,sans-Serif" font-size="10.00">+ read()</text>
<text text-anchor="start" x="138" y="-173" font-family="Helvetica,sans-Serif" font-size="10.00">+ write()</text>
<text text-anchor="start" x="138" y="-162" font-family="Helvetica,sans-Serif" font-size="10.00">+ write()</text>
<text text-anchor="start" x="138" y="-151" font-family="Helvetica,sans-Serif" font-size="10.00">+ toString()</text>
<text text-anchor="start" x="138" y="-140" font-family="Helvetica,sans-Serif" font-size="10.00">+ LinkDynamicsEstimation()</text>
<text text-anchor="start" x="138" y="-129" font-family="Helvetica,sans-Serif" font-size="10.00">and 8 more...</text>
<text text-anchor="start" x="138" y="-118" font-family="Helvetica,sans-Serif" font-size="10.00">&#45; write_linkName()</text>
<text text-anchor="start" x="138" y="-107" font-family="Helvetica,sans-Serif" font-size="10.00">&#45; nested_write_linkName()</text>
<text text-anchor="start" x="138" y="-96" font-family="Helvetica,sans-Serif" font-size="10.00">&#45; write_spatialAcceleration()</text>
<text text-anchor="start" x="138" y="-85" font-family="Helvetica,sans-Serif" font-size="10.00">&#45; nested_write_spatialAcceleration()</text>
<text text-anchor="start" x="138" y="-74" font-family="Helvetica,sans-Serif" font-size="10.00">&#45; write_netWrench()</text>
<text text-anchor="start" x="138" y="-63" font-family="Helvetica,sans-Serif" font-size="10.00">&#45; nested_write_netWrench()</text>
<text text-anchor="start" x="138" y="-52" font-family="Helvetica,sans-Serif" font-size="10.00">&#45; write_externalWrench()</text>
<text text-anchor="start" x="138" y="-41" font-family="Helvetica,sans-Serif" font-size="10.00">&#45; nested_write_externalWrench()</text>
<text text-anchor="start" x="138" y="-30" font-family="Helvetica,sans-Serif" font-size="10.00">&#45; read_linkName()</text>
<text text-anchor="start" x="138" y="-19" font-family="Helvetica,sans-Serif" font-size="10.00">&#45; nested_read_linkName()</text>
<text text-anchor="start" x="138" y="-8" font-family="Helvetica,sans-Serif" font-size="10.00">and 22 more...</text>
</g>
<!-- Node2 -->
<g id="node2" class="node"><title>Node2</title>
<g id="a_node2"><a xlink:href="classyarp_1_1os_1_1idl_1_1_wire_portable.html" target="_top" xlink:title="{yarp::os::idl::WirePortable\n||}">
<polygon fill="none" stroke="black" points="0,-360.5 0,-417.5 130,-417.5 130,-360.5 0,-360.5"/>
<text text-anchor="middle" x="65" y="-405.5" font-family="Helvetica,sans-Serif" font-size="10.00">yarp::os::idl::WirePortable</text>
<polyline fill="none" stroke="black" points="0,-398.5 130,-398.5 "/>
<text text-anchor="middle" x="65" y="-386.5" font-family="Helvetica,sans-Serif" font-size="10.00"> </text>
<polyline fill="none" stroke="black" points="0,-379.5 130,-379.5 "/>
<text text-anchor="middle" x="65" y="-367.5" font-family="Helvetica,sans-Serif" font-size="10.00"> </text>
</a>
</g>
</g>
<!-- Node2&#45;&gt;Node1 -->
<g id="edge1" class="edge"><title>Node2&#45;&gt;Node1</title>
<path fill="none" stroke="midnightblue" d="M87.7439,-351.55C99.3583,-332.936 114.303,-308.985 129.863,-284.048"/>
<polygon fill="none" stroke="midnightblue" points="84.646,-349.903 82.3216,-360.24 90.5847,-353.608 84.646,-349.903"/>
</g>
<!-- Node3 -->
<g id="node3" class="node"><title>Node3</title>
<g id="a_node3"><a xlink:href="classyarp_1_1os_1_1idl_1_1_wire_portable.html" target="_top" xlink:title="{WirePortable\n||}">
<polygon fill="none" stroke="black" points="148.5,-360.5 148.5,-417.5 221.5,-417.5 221.5,-360.5 148.5,-360.5"/>
<text text-anchor="middle" x="185" y="-405.5" font-family="Helvetica,sans-Serif" font-size="10.00">WirePortable</text>
<polyline fill="none" stroke="black" points="148.5,-398.5 221.5,-398.5 "/>
<text text-anchor="middle" x="185" y="-386.5" font-family="Helvetica,sans-Serif" font-size="10.00"> </text>
<polyline fill="none" stroke="black" points="148.5,-379.5 221.5,-379.5 "/>
<text text-anchor="middle" x="185" y="-367.5" font-family="Helvetica,sans-Serif" font-size="10.00"> </text>
</a>
</g>
</g>
<!-- Node3&#45;&gt;Node1 -->
<g id="edge2" class="edge"><title>Node3&#45;&gt;Node1</title>
<path fill="none" stroke="midnightblue" d="M189.849,-350.149C192.045,-333.002 194.795,-311.539 197.679,-289.024"/>
<polygon fill="none" stroke="midnightblue" points="186.355,-349.876 188.556,-360.24 193.298,-350.765 186.355,-349.876"/>
</g>
<!-- Node4 -->
<g id="node4" class="node"><title>Node4</title>
<polygon fill="none" stroke="#bfbfbf" points="239.5,-360.5 239.5,-417.5 280.5,-417.5 280.5,-360.5 239.5,-360.5"/>
<text text-anchor="middle" x="260" y="-405.5" font-family="Helvetica,sans-Serif" font-size="10.00">string</text>
<polyline fill="none" stroke="#bfbfbf" points="239.5,-398.5 280.5,-398.5 "/>
<text text-anchor="middle" x="260" y="-386.5" font-family="Helvetica,sans-Serif" font-size="10.00"> </text>
<polyline fill="none" stroke="#bfbfbf" points="239.5,-379.5 280.5,-379.5 "/>
<text text-anchor="middle" x="260" y="-367.5" font-family="Helvetica,sans-Serif" font-size="10.00"> </text>
</g>
<!-- Node4&#45;&gt;Node1 -->
<g id="edge3" class="edge"><title>Node4&#45;&gt;Node1</title>
<path fill="none" stroke="#404040" d="M254.953,-360.24C252.108,-344.593 248.303,-323.667 244.184,-301.011"/>
<polygon fill="none" stroke="#404040" points="244.151,-300.83 239.142,-295.643 242.004,-289.024 247.013,-294.212 244.151,-300.83"/>
<text text-anchor="middle" x="277.5" y="-322.5" font-family="Helvetica,sans-Serif" font-size="10.00"> +linkName</text>
</g>
<!-- Node5 -->
<g id="node5" class="node"><title>Node5</title>
<polygon fill="none" stroke="#bfbfbf" points="304.5,-360.5 304.5,-417.5 349.5,-417.5 349.5,-360.5 304.5,-360.5"/>
<text text-anchor="middle" x="327" y="-405.5" font-family="Helvetica,sans-Serif" font-size="10.00">Vector</text>
<polyline fill="none" stroke="#bfbfbf" points="304.5,-398.5 349.5,-398.5 "/>
<text text-anchor="middle" x="327" y="-386.5" font-family="Helvetica,sans-Serif" font-size="10.00"> </text>
<polyline fill="none" stroke="#bfbfbf" points="304.5,-379.5 349.5,-379.5 "/>
<text text-anchor="middle" x="327" y="-367.5" font-family="Helvetica,sans-Serif" font-size="10.00"> </text>
</g>
<!-- Node5&#45;&gt;Node1 -->
<g id="edge4" class="edge"><title>Node5&#45;&gt;Node1</title>
<path fill="none" stroke="#404040" d="M321.109,-360.445C317.345,-344.773 311.877,-324.952 305,-308 303.971,-305.463 302.912,-302.915 301.825,-300.36"/>
<polygon fill="none" stroke="#404040" points="301.716,-300.112 295.644,-296.223 296.898,-289.122 302.97,-293.011 301.716,-300.112"/>
<text text-anchor="middle" x="362" y="-333.5" font-family="Helvetica,sans-Serif" font-size="10.00"> +spatialAcceleration</text>
<text text-anchor="middle" x="362" y="-322.5" font-family="Helvetica,sans-Serif" font-size="10.00">+externalWrench</text>
<text text-anchor="middle" x="362" y="-311.5" font-family="Helvetica,sans-Serif" font-size="10.00">+netWrench</text>
</g>
</g>
</svg>
