<?xml version="1.0" encoding="UTF-8" standalone="no"?>
<!DOCTYPE svg PUBLIC "-//W3C//DTD SVG 1.1//EN"
 "http://www.w3.org/Graphics/SVG/1.1/DTD/svg11.dtd">
<!-- Generated by graphviz version 2.36.0 (20140111.2315)
 -->
<!-- Title: yarp::sig::VectorOf&lt; T &gt; Pages: 1 -->
<svg width="223pt" height="108pt"
 viewBox="0.00 0.00 223.00 108.00" xmlns="http://www.w3.org/2000/svg" xmlns:xlink="http://www.w3.org/1999/xlink">
<g id="graph0" class="graph" transform="scale(1 1) rotate(0) translate(4 104)">
<title>yarp::sig::VectorOf&lt; T &gt;</title>
<!-- Node1 -->
<g id="node1" class="node"><title>Node1</title>
<polygon fill="#bfbfbf" stroke="black" points="45.5,-80.5 45.5,-99.5 168.5,-99.5 168.5,-80.5 45.5,-80.5"/>
<text text-anchor="middle" x="107" y="-87.5" font-family="Helvetica,sans-Serif" font-size="10.00">yarp::sig::VectorOf&lt; T &gt;</text>
</g>
<!-- Node2 -->
<g id="node2" class="node"><title>Node2</title>
<g id="a_node2"><a xlink:href="classyarp_1_1sig_1_1_vector_of.html" target="_top" xlink:title="yarp::sig::VectorOf\l\&lt; double \&gt;">
<polygon fill="none" stroke="black" points="-0.5,-1 -0.5,-31 98.5,-31 98.5,-1 -0.5,-1"/>
<text text-anchor="start" x="7.5" y="-19" font-family="Helvetica,sans-Serif" font-size="10.00">yarp::sig::VectorOf</text>
<text text-anchor="middle" x="49" y="-8" font-family="Helvetica,sans-Serif" font-size="10.00">&lt; double &gt;</text>
</a>
</g>
</g>
<!-- Node1&#45;&gt;Node2 -->
<g id="edge1" class="edge"><title>Node1&#45;&gt;Node2</title>
<path fill="none" stroke="orange" stroke-dasharray="5,2" d="M93.84,-72.6634C83.787,-60.1839 70.0705,-43.1565 60.4643,-31.2316"/>
<polygon fill="orange" stroke="orange" points="91.1199,-74.866 100.119,-80.4579 96.5712,-70.4747 91.1199,-74.866"/>
<text text-anchor="middle" x="110" y="-53.5" font-family="Helvetica,sans-Serif" font-size="10.00"> &lt; double &gt;</text>
</g>
<!-- Node3 -->
<g id="node3" class="node"><title>Node3</title>
<g id="a_node3"><a xlink:href="classyarp_1_1sig_1_1_vector_of.html" target="_top" xlink:title="yarp::sig::VectorOf\l\&lt; int \&gt;">
<polygon fill="none" stroke="black" points="116.5,-1 116.5,-31 215.5,-31 215.5,-1 116.5,-1"/>
<text text-anchor="start" x="124.5" y="-19" font-family="Helvetica,sans-Serif" font-size="10.00">yarp::sig::VectorOf</text>
<text text-anchor="middle" x="166" y="-8" font-family="Helvetica,sans-Serif" font-size="10.00">&lt; int &gt;</text>
</a>
</g>
</g>
<!-- Node1&#45;&gt;Node3 -->
<g id="edge2" class="edge"><title>Node1&#45;&gt;Node3</title>
<path fill="none" stroke="orange" stroke-dasharray="5,2" d="M126.976,-73.9019C131.193,-70.2483 135.44,-66.1826 139,-62 147.031,-52.5645 154.15,-40.454 159.058,-31.1737"/>
<polygon fill="orange" stroke="orange" points="124.622,-71.3058 119.09,-80.3419 129.049,-76.7276 124.622,-71.3058"/>
<text text-anchor="middle" x="163" y="-53.5" font-family="Helvetica,sans-Serif" font-size="10.00"> &lt; int &gt;</text>
</g>
</g>
</svg>
