<?xml version="1.0" encoding="UTF-8" standalone="no"?>
<!DOCTYPE svg PUBLIC "-//W3C//DTD SVG 1.1//EN"
 "http://www.w3.org/Graphics/SVG/1.1/DTD/svg11.dtd">
<!-- Generated by graphviz version 2.36.0 (20140111.2315)
 -->
<!-- Title: human::ForceReader Pages: 1 -->
<svg width="272pt" height="140pt"
 viewBox="0.00 0.00 272.00 140.00" xmlns="http://www.w3.org/2000/svg" xmlns:xlink="http://www.w3.org/1999/xlink">
<g id="graph0" class="graph" transform="scale(1 1) rotate(0) translate(4 136)">
<title>human::ForceReader</title>
<!-- Node1 -->
<g id="node1" class="node"><title>Node1</title>
<polygon fill="#bfbfbf" stroke="black" points="76,-112.5 76,-131.5 184,-131.5 184,-112.5 76,-112.5"/>
<text text-anchor="middle" x="130" y="-119.5" font-family="Helvetica,sans-Serif" font-size="10.00">human::ForceReader</text>
</g>
<!-- Node2 -->
<g id="node2" class="node"><title>Node2</title>
<g id="a_node2"><a xlink:href="classhuman_1_1_abstract_force_reader.html" target="_top" xlink:title="Abstract class for implementing code required from its derived classes. ">
<polygon fill="none" stroke="black" points="57.5,-56.5 57.5,-75.5 202.5,-75.5 202.5,-56.5 57.5,-56.5"/>
<text text-anchor="middle" x="130" y="-63.5" font-family="Helvetica,sans-Serif" font-size="10.00">human::AbstractForceReader</text>
</a>
</g>
</g>
<!-- Node1&#45;&gt;Node2 -->
<g id="edge1" class="edge"><title>Node1&#45;&gt;Node2</title>
<path fill="none" stroke="midnightblue" d="M130,-101.805C130,-92.9102 130,-82.7798 130,-75.7511"/>
<polygon fill="midnightblue" stroke="midnightblue" points="126.5,-102.083 130,-112.083 133.5,-102.083 126.5,-102.083"/>
</g>
<!-- Node3 -->
<g id="node3" class="node"><title>Node3</title>
<g id="a_node3"><a xlink:href="classhuman_1_1_f_t_force_reader.html" target="_top" xlink:title="Implementation of the ForceReader interface for handling forces coming from devices. ">
<polygon fill="none" stroke="black" points="0,-0.5 0,-19.5 120,-19.5 120,-0.5 0,-0.5"/>
<text text-anchor="middle" x="60" y="-7.5" font-family="Helvetica,sans-Serif" font-size="10.00">human::FTForceReader</text>
</a>
</g>
</g>
<!-- Node2&#45;&gt;Node3 -->
<g id="edge2" class="edge"><title>Node2&#45;&gt;Node3</title>
<path fill="none" stroke="midnightblue" d="M110.686,-50.1008C98.0883,-40.3824 82.0719,-28.0269 71.4513,-19.8339"/>
<polygon fill="midnightblue" stroke="midnightblue" points="108.698,-52.9871 118.753,-56.324 112.973,-47.4446 108.698,-52.9871"/>
</g>
<!-- Node4 -->
<g id="node4" class="node"><title>Node4</title>
<g id="a_node4"><a xlink:href="classhuman_1_1_port_force_reader.html" target="_top" xlink:title="Implementation of the ForceReader interface for handling forces coming from a YARP port...">
<polygon fill="none" stroke="black" points="138,-0.5 138,-19.5 264,-19.5 264,-0.5 138,-0.5"/>
<text text-anchor="middle" x="201" y="-7.5" font-family="Helvetica,sans-Serif" font-size="10.00">human::PortForceReader</text>
</a>
</g>
</g>
<!-- Node2&#45;&gt;Node4 -->
<g id="edge3" class="edge"><title>Node2&#45;&gt;Node4</title>
<path fill="none" stroke="midnightblue" d="M149.59,-50.1008C162.368,-40.3824 178.613,-28.0269 189.385,-19.8339"/>
<polygon fill="midnightblue" stroke="midnightblue" points="147.248,-47.4844 141.407,-56.324 151.486,-53.0561 147.248,-47.4844"/>
</g>
</g>
</svg>
