<?xml version="1.0" encoding="UTF-8" standalone="no"?>
<!DOCTYPE svg PUBLIC "-//W3C//DTD SVG 1.1//EN"
 "http://www.w3.org/Graphics/SVG/1.1/DTD/svg11.dtd">
<!-- Generated by graphviz version 2.36.0 (20140111.2315)
 -->
<!-- Title: HumanTFBridge Pages: 1 -->
<svg width="222pt" height="282pt"
 viewBox="0.00 0.00 222.00 282.00" xmlns="http://www.w3.org/2000/svg" xmlns:xlink="http://www.w3.org/1999/xlink">
<g id="graph0" class="graph" transform="scale(1 1) rotate(0) translate(4 278)">
<title>HumanTFBridge</title>
<!-- Node1 -->
<g id="node1" class="node"><title>Node1</title>
<polygon fill="#bfbfbf" stroke="black" points="43,-0.5 43,-167.5 135,-167.5 135,-0.5 43,-0.5"/>
<text text-anchor="middle" x="89" y="-155.5" font-family="Helvetica,sans-Serif" font-size="10.00">HumanTFBridge</text>
<polyline fill="none" stroke="black" points="43,-148.5 135,-148.5 "/>
<text text-anchor="start" x="51" y="-136.5" font-family="Helvetica,sans-Serif" font-size="10.00">&#45; client_port</text>
<text text-anchor="start" x="51" y="-125.5" font-family="Helvetica,sans-Serif" font-size="10.00">&#45; xsensDataPort</text>
<text text-anchor="start" x="51" y="-114.5" font-family="Helvetica,sans-Serif" font-size="10.00">&#45; xsensDriver</text>
<text text-anchor="start" x="51" y="-103.5" font-family="Helvetica,sans-Serif" font-size="10.00">&#45; publisher_tf</text>
<text text-anchor="start" x="51" y="-92.5" font-family="Helvetica,sans-Serif" font-size="10.00">&#45; tf</text>
<text text-anchor="start" x="51" y="-81.5" font-family="Helvetica,sans-Serif" font-size="10.00">&#45; segments</text>
<text text-anchor="start" x="51" y="-70.5" font-family="Helvetica,sans-Serif" font-size="10.00">&#45; fakeSegments</text>
<polyline fill="none" stroke="black" points="43,-63.5 135,-63.5 "/>
<text text-anchor="start" x="51" y="-51.5" font-family="Helvetica,sans-Serif" font-size="10.00">+ getPeriod()</text>
<text text-anchor="start" x="51" y="-40.5" font-family="Helvetica,sans-Serif" font-size="10.00">+ updateModule()</text>
<text text-anchor="start" x="51" y="-29.5" font-family="Helvetica,sans-Serif" font-size="10.00">+ configure()</text>
<text text-anchor="start" x="51" y="-18.5" font-family="Helvetica,sans-Serif" font-size="10.00">+ close()</text>
<text text-anchor="start" x="51" y="-7.5" font-family="Helvetica,sans-Serif" font-size="10.00">+ onRead()</text>
</g>
<!-- Node2 -->
<g id="node2" class="node"><title>Node2</title>
<g id="a_node2"><a xlink:href="class_r_f_module.html" target="_top" xlink:title="{RFModule\n||}">
<polygon fill="none" stroke="black" points="0,-210.5 0,-267.5 62,-267.5 62,-210.5 0,-210.5"/>
<text text-anchor="middle" x="31" y="-255.5" font-family="Helvetica,sans-Serif" font-size="10.00">RFModule</text>
<polyline fill="none" stroke="black" points="0,-248.5 62,-248.5 "/>
<text text-anchor="middle" x="31" y="-236.5" font-family="Helvetica,sans-Serif" font-size="10.00"> </text>
<polyline fill="none" stroke="black" points="0,-229.5 62,-229.5 "/>
<text text-anchor="middle" x="31" y="-217.5" font-family="Helvetica,sans-Serif" font-size="10.00"> </text>
</a>
</g>
</g>
<!-- Node2&#45;&gt;Node1 -->
<g id="edge1" class="edge"><title>Node2&#45;&gt;Node1</title>
<path fill="none" stroke="midnightblue" d="M45.0482,-200.942C48.9157,-190.74 53.2717,-179.249 57.6996,-167.568"/>
<polygon fill="none" stroke="midnightblue" points="41.7754,-199.702 41.5034,-210.293 48.3209,-202.183 41.7754,-199.702"/>
</g>
<!-- Node3 -->
<g id="node3" class="node"><title>Node3</title>
<g id="a_node3"><a xlink:href="class_typed_reader_callback.html" target="_top" xlink:title="{TypedReaderCallback\l\&lt; XsensSegmentsFrame \&gt;\n||}">
<polygon fill="none" stroke="black" points="80,-205 80,-273 214,-273 214,-205 80,-205"/>
<text text-anchor="start" x="88" y="-261" font-family="Helvetica,sans-Serif" font-size="10.00">TypedReaderCallback</text>
<text text-anchor="middle" x="147" y="-250" font-family="Helvetica,sans-Serif" font-size="10.00">&lt; XsensSegmentsFrame &gt;</text>
<polyline fill="none" stroke="black" points="80,-243 214,-243 "/>
<text text-anchor="middle" x="147" y="-231" font-family="Helvetica,sans-Serif" font-size="10.00"> </text>
<polyline fill="none" stroke="black" points="80,-224 214,-224 "/>
<text text-anchor="middle" x="147" y="-212" font-family="Helvetica,sans-Serif" font-size="10.00"> </text>
</a>
</g>
</g>
<!-- Node3&#45;&gt;Node1 -->
<g id="edge2" class="edge"><title>Node3&#45;&gt;Node1</title>
<path fill="none" stroke="midnightblue" d="M130.83,-195.344C127.54,-186.666 123.974,-177.26 120.359,-167.724"/>
<polygon fill="none" stroke="midnightblue" points="127.597,-196.691 134.415,-204.801 134.143,-194.21 127.597,-196.691"/>
</g>
</g>
</svg>
