<?xml version="1.0" encoding="UTF-8" standalone="no"?>
<!DOCTYPE svg PUBLIC "-//W3C//DTD SVG 1.1//EN"
 "http://www.w3.org/Graphics/SVG/1.1/DTD/svg11.dtd">
<!-- Generated by graphviz version 2.36.0 (20140111.2315)
 -->
<!-- Title: xsensJointStatePublisherModule Pages: 1 -->
<svg width="332pt" height="436pt"
 viewBox="0.00 0.00 332.00 436.00" xmlns="http://www.w3.org/2000/svg" xmlns:xlink="http://www.w3.org/1999/xlink">
<g id="graph0" class="graph" transform="scale(1 1) rotate(0) translate(4 432)">
<title>xsensJointStatePublisherModule</title>
<!-- Node1 -->
<g id="node1" class="node"><title>Node1</title>
<polygon fill="#bfbfbf" stroke="black" points="14,-0.5 14,-321.5 154,-321.5 154,-0.5 14,-0.5"/>
<text text-anchor="start" x="22" y="-309.5" font-family="Helvetica,sans-Serif" font-size="10.00">xsensJointStatePublisher</text>
<text text-anchor="middle" x="84" y="-298.5" font-family="Helvetica,sans-Serif" font-size="10.00">Module</text>
<polyline fill="none" stroke="black" points="14,-291.5 154,-291.5 "/>
<text text-anchor="start" x="22" y="-279.5" font-family="Helvetica,sans-Serif" font-size="10.00">&#45; humanDynamicsDataPort</text>
<text text-anchor="start" x="22" y="-268.5" font-family="Helvetica,sans-Serif" font-size="10.00">&#45; effortsList</text>
<text text-anchor="start" x="22" y="-257.5" font-family="Helvetica,sans-Serif" font-size="10.00">&#45; rpcPort</text>
<text text-anchor="start" x="22" y="-246.5" font-family="Helvetica,sans-Serif" font-size="10.00">&#45; humanStateDataPort</text>
<text text-anchor="start" x="22" y="-235.5" font-family="Helvetica,sans-Serif" font-size="10.00">&#45; publisher</text>
<text text-anchor="start" x="22" y="-224.5" font-family="Helvetica,sans-Serif" font-size="10.00">&#45; publisher_tf</text>
<text text-anchor="start" x="22" y="-213.5" font-family="Helvetica,sans-Serif" font-size="10.00">&#45; joint_state</text>
<text text-anchor="start" x="22" y="-202.5" font-family="Helvetica,sans-Serif" font-size="10.00">&#45; tf</text>
<text text-anchor="start" x="22" y="-191.5" font-family="Helvetica,sans-Serif" font-size="10.00">&#45; mutex</text>
<text text-anchor="start" x="22" y="-180.5" font-family="Helvetica,sans-Serif" font-size="10.00">&#45; hasRobotFrame</text>
<text text-anchor="start" x="22" y="-169.5" font-family="Helvetica,sans-Serif" font-size="10.00">&#45; robotBaseLinkWRTGround</text>
<text text-anchor="start" x="22" y="-158.5" font-family="Helvetica,sans-Serif" font-size="10.00">&#45; robotBaseLinkWRTPelvis</text>
<text text-anchor="start" x="22" y="-147.5" font-family="Helvetica,sans-Serif" font-size="10.00">&#45; humanPelvisWRTGround</text>
<polyline fill="none" stroke="black" points="14,-140.5 154,-140.5 "/>
<text text-anchor="start" x="22" y="-128.5" font-family="Helvetica,sans-Serif" font-size="10.00">+ getPeriod()</text>
<text text-anchor="start" x="22" y="-117.5" font-family="Helvetica,sans-Serif" font-size="10.00">+ updateModule()</text>
<text text-anchor="start" x="22" y="-106.5" font-family="Helvetica,sans-Serif" font-size="10.00">+ configure()</text>
<text text-anchor="start" x="22" y="-95.5" font-family="Helvetica,sans-Serif" font-size="10.00">+ close()</text>
<text text-anchor="start" x="22" y="-84.5" font-family="Helvetica,sans-Serif" font-size="10.00">+ onRead()</text>
<text text-anchor="start" x="22" y="-73.5" font-family="Helvetica,sans-Serif" font-size="10.00">+ getPeriod()</text>
<text text-anchor="start" x="22" y="-62.5" font-family="Helvetica,sans-Serif" font-size="10.00">+ updateModule()</text>
<text text-anchor="start" x="22" y="-51.5" font-family="Helvetica,sans-Serif" font-size="10.00">+ configure()</text>
<text text-anchor="start" x="22" y="-40.5" font-family="Helvetica,sans-Serif" font-size="10.00">+ close()</text>
<text text-anchor="start" x="22" y="-29.5" font-family="Helvetica,sans-Serif" font-size="10.00">+ onRead()</text>
<text text-anchor="start" x="22" y="-18.5" font-family="Helvetica,sans-Serif" font-size="10.00">+ setRobotPose()</text>
<text text-anchor="start" x="22" y="-7.5" font-family="Helvetica,sans-Serif" font-size="10.00">+ respond()</text>
</g>
<!-- Node2 -->
<g id="node2" class="node"><title>Node2</title>
<g id="a_node2"><a xlink:href="class_r_f_module.html" target="_top" xlink:title="{RFModule\n||}">
<polygon fill="none" stroke="black" points="0,-364.5 0,-421.5 62,-421.5 62,-364.5 0,-364.5"/>
<text text-anchor="middle" x="31" y="-409.5" font-family="Helvetica,sans-Serif" font-size="10.00">RFModule</text>
<polyline fill="none" stroke="black" points="0,-402.5 62,-402.5 "/>
<text text-anchor="middle" x="31" y="-390.5" font-family="Helvetica,sans-Serif" font-size="10.00"> </text>
<polyline fill="none" stroke="black" points="0,-383.5 62,-383.5 "/>
<text text-anchor="middle" x="31" y="-371.5" font-family="Helvetica,sans-Serif" font-size="10.00"> </text>
</a>
</g>
</g>
<!-- Node2&#45;&gt;Node1 -->
<g id="edge1" class="edge"><title>Node2&#45;&gt;Node1</title>
<path fill="none" stroke="midnightblue" d="M34.5286,-354.335C36.2724,-344.675 38.438,-333.657 40.8839,-321.897"/>
<polygon fill="none" stroke="midnightblue" points="31.0683,-353.806 32.8085,-364.257 37.9654,-355.002 31.0683,-353.806"/>
</g>
<!-- Node2&#45;&gt;Node1 -->
<g id="edge3" class="edge"><title>Node2&#45;&gt;Node1</title>
<path fill="none" stroke="midnightblue" d="M44.7435,-354.643C47.4763,-344.909 50.4187,-333.782 53.4245,-321.897"/>
<polygon fill="none" stroke="midnightblue" points="41.3791,-353.679 41.9775,-364.257 48.1062,-355.614 41.3791,-353.679"/>
</g>
<!-- Node3 -->
<g id="node3" class="node"><title>Node3</title>
<g id="a_node3"><a xlink:href="class_typed_reader_callback.html" target="_top" xlink:title="{TypedReaderCallback\l\&lt; HumanState \&gt;\n||}">
<polygon fill="none" stroke="black" points="80.5,-359 80.5,-427 193.5,-427 193.5,-359 80.5,-359"/>
<text text-anchor="start" x="88.5" y="-415" font-family="Helvetica,sans-Serif" font-size="10.00">TypedReaderCallback</text>
<text text-anchor="middle" x="137" y="-404" font-family="Helvetica,sans-Serif" font-size="10.00">&lt; HumanState &gt;</text>
<polyline fill="none" stroke="black" points="80.5,-397 193.5,-397 "/>
<text text-anchor="middle" x="137" y="-385" font-family="Helvetica,sans-Serif" font-size="10.00"> </text>
<polyline fill="none" stroke="black" points="80.5,-378 193.5,-378 "/>
<text text-anchor="middle" x="137" y="-366" font-family="Helvetica,sans-Serif" font-size="10.00"> </text>
</a>
</g>
</g>
<!-- Node3&#45;&gt;Node1 -->
<g id="edge2" class="edge"><title>Node3&#45;&gt;Node1</title>
<path fill="none" stroke="midnightblue" d="M127.045,-348.8C125.119,-340.439 122.998,-331.235 120.761,-321.53"/>
<polygon fill="none" stroke="midnightblue" points="123.637,-349.597 129.293,-358.556 130.458,-348.025 123.637,-349.597"/>
</g>
<!-- Node4 -->
<g id="node4" class="node"><title>Node4</title>
<g id="a_node4"><a xlink:href="class_typed_reader_callback.html" target="_top" xlink:title="{TypedReaderCallback\l\&lt; HumanDynamics \&gt;\n||}">
<polygon fill="none" stroke="black" points="211.5,-359 211.5,-427 324.5,-427 324.5,-359 211.5,-359"/>
<text text-anchor="start" x="219.5" y="-415" font-family="Helvetica,sans-Serif" font-size="10.00">TypedReaderCallback</text>
<text text-anchor="middle" x="268" y="-404" font-family="Helvetica,sans-Serif" font-size="10.00">&lt; HumanDynamics &gt;</text>
<polyline fill="none" stroke="black" points="211.5,-397 324.5,-397 "/>
<text text-anchor="middle" x="268" y="-385" font-family="Helvetica,sans-Serif" font-size="10.00"> </text>
<polyline fill="none" stroke="black" points="211.5,-378 324.5,-378 "/>
<text text-anchor="middle" x="268" y="-366" font-family="Helvetica,sans-Serif" font-size="10.00"> </text>
</a>
</g>
</g>
<!-- Node4&#45;&gt;Node1 -->
<g id="edge4" class="edge"><title>Node4&#45;&gt;Node1</title>
<path fill="none" stroke="midnightblue" d="M234.836,-350.545C212.363,-322.453 181.82,-284.274 154.095,-249.618"/>
<polygon fill="none" stroke="midnightblue" points="232.265,-352.934 241.245,-358.556 237.731,-348.561 232.265,-352.934"/>
</g>
</g>
</svg>
