<?xml version="1.0" encoding="UTF-8" standalone="no"?>
<!DOCTYPE svg PUBLIC "-//W3C//DTD SVG 1.1//EN"
 "http://www.w3.org/Graphics/SVG/1.1/DTD/svg11.dtd">
<!-- Generated by graphviz version 2.36.0 (20140111.2315)
 -->
<!-- Title: Portable Pages: 1 -->
<!--zoomable 248 -->
<svg id="main" version="1.1" xmlns="http://www.w3.org/2000/svg" xmlns:xlink="http://www.w3.org/1999/xlink" xml:space="preserve" onload="init(evt)">
<style type="text/css"><![CDATA[
.edge:hover path { stroke: red; }
.edge:hover polygon { stroke: red; fill: red; }
]]></style>
<script type="text/javascript"><![CDATA[
var edges = document.getElementsByTagName('g');
if (edges && edges.length) {
  for (var i=0;i<edges.length;i++) {
    if (edges[i].id.substr(0,4)=='edge') {
      edges[i].setAttribute('class','edge');
    }
  }
}
]]></script>
        <defs>
                <circle id="rim" cx="0" cy="0" r="7"/>
                <circle id="rim2" cx="0" cy="0" r="3.5"/>
                <g id="zoomPlus">
                        <use xlink:href="#rim" fill="#404040">
                                <set attributeName="fill" to="#808080" begin="zoomplus.mouseover" end="zoomplus.mouseout"/>
                        </use>
                        <path d="M-4,0h8M0,-4v8" fill="none" stroke="white" stroke-width="1.5" pointer-events="none"/>
                </g>
                <g id="zoomMin">
                        <use xlink:href="#rim" fill="#404040">
                                <set attributeName="fill" to="#808080" begin="zoomminus.mouseover" end="zoomminus.mouseout"/>
                        </use>
                        <path d="M-4,0h8" fill="none" stroke="white" stroke-width="1.5" pointer-events="none"/>
                </g>
                <g id="dirArrow">
                        <path fill="none" stroke="white" stroke-width="1.5" d="M0,-3.0v7 M-2.5,-0.5L0,-3.0L2.5,-0.5"/>
                </g>
               <g id="resetDef">
                       <use xlink:href="#rim2" fill="#404040">
                               <set attributeName="fill" to="#808080" begin="reset.mouseover" end="reset.mouseout"/>
                       </use>
               </g>
        </defs>

<script type="text/javascript">
var viewWidth = 2167;
var viewHeight = 248;
var sectionId = 'dynsection-0';
</script>
<script xlink:href="svgpan.js"/>
<svg id="graph" class="graph">
<g id="viewport">
<title>Portable</title>
<!-- Node1 -->
<g id="node1" class="node"><title>Node1</title>
<polygon fill="#bfbfbf" stroke="black" points="1063.5,-182.5 1063.5,-239.5 1116.5,-239.5 1116.5,-182.5 1063.5,-182.5"/>
<text text-anchor="middle" x="1090" y="-227.5" font-family="Helvetica,sans-Serif" font-size="10.00">Portable</text>
<polyline fill="none" stroke="black" points="1063.5,-220.5 1116.5,-220.5 "/>
<text text-anchor="middle" x="1090" y="-208.5" font-family="Helvetica,sans-Serif" font-size="10.00"> </text>
<polyline fill="none" stroke="black" points="1063.5,-201.5 1116.5,-201.5 "/>
<text text-anchor="middle" x="1090" y="-189.5" font-family="Helvetica,sans-Serif" font-size="10.00"> </text>
</g>
<!-- Node2 -->
<g id="node2" class="node"><title>Node2</title>
<g id="a_node2"><a xlink:href="classhuman_1_1_human_state_provider_service__base_link.html" target="_top" xlink:title="{human::HumanStateProvider\lService_baseLink\n|+ _return\l|+ init()\l+ write()\l+ read()\l+ init()\l+ write()\l+ read()\l}">
<polygon fill="none" stroke="black" points="-0.5,-11.5 -0.5,-134.5 142.5,-134.5 142.5,-11.5 -0.5,-11.5"/>
<text text-anchor="start" x="7.5" y="-122.5" font-family="Helvetica,sans-Serif" font-size="10.00">human::HumanStateProvider</text>
<text text-anchor="middle" x="71" y="-111.5" font-family="Helvetica,sans-Serif" font-size="10.00">Service_baseLink</text>
<polyline fill="none" stroke="black" points="-0.5,-104.5 142.5,-104.5 "/>
<text text-anchor="start" x="7.5" y="-92.5" font-family="Helvetica,sans-Serif" font-size="10.00">+ _return</text>
<polyline fill="none" stroke="black" points="-0.5,-85.5 142.5,-85.5 "/>
<text text-anchor="start" x="7.5" y="-73.5" font-family="Helvetica,sans-Serif" font-size="10.00">+ init()</text>
<text text-anchor="start" x="7.5" y="-62.5" font-family="Helvetica,sans-Serif" font-size="10.00">+ write()</text>
<text text-anchor="start" x="7.5" y="-51.5" font-family="Helvetica,sans-Serif" font-size="10.00">+ read()</text>
<text text-anchor="start" x="7.5" y="-40.5" font-family="Helvetica,sans-Serif" font-size="10.00">+ init()</text>
<text text-anchor="start" x="7.5" y="-29.5" font-family="Helvetica,sans-Serif" font-size="10.00">+ write()</text>
<text text-anchor="start" x="7.5" y="-18.5" font-family="Helvetica,sans-Serif" font-size="10.00">+ read()</text>
</a>
</g>
</g>
<!-- Node1&#45;&gt;Node2 -->
<g id="edge1" class="edge"><title>Node1&#45;&gt;Node2</title>
<path fill="none" stroke="midnightblue" d="M1052.99,-208.992C888.199,-204.127 226.663,-181.838 142,-146 134.945,-143.014 128.098,-139.137 121.61,-134.732"/>
<polygon fill="none" stroke="midnightblue" points="1053.02,-212.494 1063.11,-209.287 1053.22,-205.497 1053.02,-212.494"/>
</g>
<!-- Node1&#45;&gt;Node2 -->
<g id="edge2" class="edge"><title>Node1&#45;&gt;Node2</title>
<path fill="none" stroke="midnightblue" d="M1053.07,-208.81C890.462,-203.592 243.651,-181.41 160,-146 152.945,-143.014 146.098,-139.137 139.536,-134.732"/>
<polygon fill="none" stroke="midnightblue" points="1052.96,-212.308 1063.07,-209.129 1053.19,-205.312 1052.96,-212.308"/>
</g>
<!-- Node3 -->
<g id="node3" class="node"><title>Node3</title>
<g id="a_node3"><a xlink:href="classhuman_1_1_human_state_provider_service__joints.html" target="_top" xlink:title="{human::HumanStateProvider\lService_joints\n|+ _return\l|+ init()\l+ write()\l+ read()\l+ init()\l+ write()\l+ read()\l}">
<polygon fill="none" stroke="black" points="160.5,-11.5 160.5,-134.5 303.5,-134.5 303.5,-11.5 160.5,-11.5"/>
<text text-anchor="start" x="168.5" y="-122.5" font-family="Helvetica,sans-Serif" font-size="10.00">human::HumanStateProvider</text>
<text text-anchor="middle" x="232" y="-111.5" font-family="Helvetica,sans-Serif" font-size="10.00">Service_joints</text>
<polyline fill="none" stroke="black" points="160.5,-104.5 303.5,-104.5 "/>
<text text-anchor="start" x="168.5" y="-92.5" font-family="Helvetica,sans-Serif" font-size="10.00">+ _return</text>
<polyline fill="none" stroke="black" points="160.5,-85.5 303.5,-85.5 "/>
<text text-anchor="start" x="168.5" y="-73.5" font-family="Helvetica,sans-Serif" font-size="10.00">+ init()</text>
<text text-anchor="start" x="168.5" y="-62.5" font-family="Helvetica,sans-Serif" font-size="10.00">+ write()</text>
<text text-anchor="start" x="168.5" y="-51.5" font-family="Helvetica,sans-Serif" font-size="10.00">+ read()</text>
<text text-anchor="start" x="168.5" y="-40.5" font-family="Helvetica,sans-Serif" font-size="10.00">+ init()</text>
<text text-anchor="start" x="168.5" y="-29.5" font-family="Helvetica,sans-Serif" font-size="10.00">+ write()</text>
<text text-anchor="start" x="168.5" y="-18.5" font-family="Helvetica,sans-Serif" font-size="10.00">+ read()</text>
</a>
</g>
</g>
<!-- Node1&#45;&gt;Node3 -->
<g id="edge3" class="edge"><title>Node1&#45;&gt;Node3</title>
<path fill="none" stroke="midnightblue" d="M1053.08,-210.064C916.246,-209.882 439.9,-205.086 303,-146 295.966,-142.964 289.133,-139.054 282.654,-134.627"/>
<polygon fill="none" stroke="midnightblue" points="1053.43,-213.564 1063.44,-210.069 1053.44,-206.564 1053.43,-213.564"/>
</g>
<!-- Node1&#45;&gt;Node3 -->
<g id="edge4" class="edge"><title>Node1&#45;&gt;Node3</title>
<path fill="none" stroke="midnightblue" d="M1053.12,-210.051C918.532,-209.708 455.628,-204.105 321,-146 313.966,-142.964 307.133,-139.054 300.58,-134.627"/>
<polygon fill="none" stroke="midnightblue" points="1053.31,-213.551 1063.32,-210.068 1053.33,-206.551 1053.31,-213.551"/>
</g>
<!-- Node4 -->
<g id="node4" class="node"><title>Node4</title>
<g id="a_node4"><a xlink:href="classhuman_1_1_human_state_provider_service__set_base_link.html" target="_top" xlink:title="{human::HumanStateProvider\lService_setBaseLink\n|+ baseLink\l+ _return\l|+ init()\l+ write()\l+ read()\l+ init()\l+ write()\l+ read()\l}">
<polygon fill="none" stroke="black" points="321.5,-6 321.5,-140 464.5,-140 464.5,-6 321.5,-6"/>
<text text-anchor="start" x="329.5" y="-128" font-family="Helvetica,sans-Serif" font-size="10.00">human::HumanStateProvider</text>
<text text-anchor="middle" x="393" y="-117" font-family="Helvetica,sans-Serif" font-size="10.00">Service_setBaseLink</text>
<polyline fill="none" stroke="black" points="321.5,-110 464.5,-110 "/>
<text text-anchor="start" x="329.5" y="-98" font-family="Helvetica,sans-Serif" font-size="10.00">+ baseLink</text>
<text text-anchor="start" x="329.5" y="-87" font-family="Helvetica,sans-Serif" font-size="10.00">+ _return</text>
<polyline fill="none" stroke="black" points="321.5,-80 464.5,-80 "/>
<text text-anchor="start" x="329.5" y="-68" font-family="Helvetica,sans-Serif" font-size="10.00">+ init()</text>
<text text-anchor="start" x="329.5" y="-57" font-family="Helvetica,sans-Serif" font-size="10.00">+ write()</text>
<text text-anchor="start" x="329.5" y="-46" font-family="Helvetica,sans-Serif" font-size="10.00">+ read()</text>
<text text-anchor="start" x="329.5" y="-35" font-family="Helvetica,sans-Serif" font-size="10.00">+ init()</text>
<text text-anchor="start" x="329.5" y="-24" font-family="Helvetica,sans-Serif" font-size="10.00">+ write()</text>
<text text-anchor="start" x="329.5" y="-13" font-family="Helvetica,sans-Serif" font-size="10.00">+ read()</text>
</a>
</g>
</g>
<!-- Node1&#45;&gt;Node4 -->
<g id="edge5" class="edge"><title>Node1&#45;&gt;Node4</title>
<path fill="none" stroke="midnightblue" d="M1052.99,-209.21C935.128,-206.137 571.026,-192.724 465,-146 461.04,-144.255 457.138,-142.242 453.321,-140.024"/>
<polygon fill="none" stroke="midnightblue" points="1053.21,-212.717 1063.29,-209.469 1053.38,-205.719 1053.21,-212.717"/>
</g>
<!-- Node1&#45;&gt;Node4 -->
<g id="edge6" class="edge"><title>Node1&#45;&gt;Node4</title>
<path fill="none" stroke="midnightblue" d="M1053.43,-209.011C938.49,-205.58 586.879,-191.778 483,-146 476.802,-143.269 470.745,-139.881 464.887,-136.077"/>
<polygon fill="none" stroke="midnightblue" points="1053.39,-212.511 1063.49,-209.302 1053.6,-205.514 1053.39,-212.511"/>
</g>
<!-- Node5 -->
<g id="node5" class="node"><title>Node5</title>
<g id="a_node5"><a xlink:href="classxsens_1_1_xsens_driver_service__abort_calibration.html" target="_top" xlink:title="{xsens::XsensDriverService\l_abortCalibration\n||+ init()\l+ write()\l+ read()\l+ init()\l+ write()\l+ read()\l}">
<polygon fill="none" stroke="black" points="483,-11.5 483,-134.5 619,-134.5 619,-11.5 483,-11.5"/>
<text text-anchor="start" x="491" y="-122.5" font-family="Helvetica,sans-Serif" font-size="10.00">xsens::XsensDriverService</text>
<text text-anchor="middle" x="551" y="-111.5" font-family="Helvetica,sans-Serif" font-size="10.00">_abortCalibration</text>
<polyline fill="none" stroke="black" points="483,-104.5 619,-104.5 "/>
<text text-anchor="middle" x="551" y="-92.5" font-family="Helvetica,sans-Serif" font-size="10.00"> </text>
<polyline fill="none" stroke="black" points="483,-85.5 619,-85.5 "/>
<text text-anchor="start" x="491" y="-73.5" font-family="Helvetica,sans-Serif" font-size="10.00">+ init()</text>
<text text-anchor="start" x="491" y="-62.5" font-family="Helvetica,sans-Serif" font-size="10.00">+ write()</text>
<text text-anchor="start" x="491" y="-51.5" font-family="Helvetica,sans-Serif" font-size="10.00">+ read()</text>
<text text-anchor="start" x="491" y="-40.5" font-family="Helvetica,sans-Serif" font-size="10.00">+ init()</text>
<text text-anchor="start" x="491" y="-29.5" font-family="Helvetica,sans-Serif" font-size="10.00">+ write()</text>
<text text-anchor="start" x="491" y="-18.5" font-family="Helvetica,sans-Serif" font-size="10.00">+ read()</text>
</a>
</g>
</g>
<!-- Node1&#45;&gt;Node5 -->
<g id="edge7" class="edge"><title>Node1&#45;&gt;Node5</title>
<path fill="none" stroke="midnightblue" d="M1053.18,-208.036C955.975,-202.1 695.532,-182.475 619,-146 612.391,-142.85 605.968,-138.927 599.868,-134.549"/>
<polygon fill="none" stroke="midnightblue" points="1053.22,-211.544 1063.41,-208.646 1053.63,-204.557 1053.22,-211.544"/>
</g>
<!-- Node1&#45;&gt;Node5 -->
<g id="edge8" class="edge"><title>Node1&#45;&gt;Node5</title>
<path fill="none" stroke="midnightblue" d="M1053.08,-207.47C958.64,-200.917 711.255,-181.39 637,-146 630.391,-142.85 623.968,-138.927 617.799,-134.549"/>
<polygon fill="none" stroke="midnightblue" points="1053.09,-210.978 1063.3,-208.17 1053.56,-203.994 1053.09,-210.978"/>
</g>
<!-- Node6 -->
<g id="node6" class="node"><title>Node6</title>
<g id="a_node6"><a xlink:href="classxsens_1_1_xsens_driver_service__body_dimensions.html" target="_top" xlink:title="{xsens::XsensDriverService\l_bodyDimensions\n|+ _return\l|+ init()\l+ write()\l+ read()\l+ init()\l+ write()\l+ read()\l}">
<polygon fill="none" stroke="black" points="637,-11.5 637,-134.5 773,-134.5 773,-11.5 637,-11.5"/>
<text text-anchor="start" x="645" y="-122.5" font-family="Helvetica,sans-Serif" font-size="10.00">xsens::XsensDriverService</text>
<text text-anchor="middle" x="705" y="-111.5" font-family="Helvetica,sans-Serif" font-size="10.00">_bodyDimensions</text>
<polyline fill="none" stroke="black" points="637,-104.5 773,-104.5 "/>
<text text-anchor="start" x="645" y="-92.5" font-family="Helvetica,sans-Serif" font-size="10.00">+ _return</text>
<polyline fill="none" stroke="black" points="637,-85.5 773,-85.5 "/>
<text text-anchor="start" x="645" y="-73.5" font-family="Helvetica,sans-Serif" font-size="10.00">+ init()</text>
<text text-anchor="start" x="645" y="-62.5" font-family="Helvetica,sans-Serif" font-size="10.00">+ write()</text>
<text text-anchor="start" x="645" y="-51.5" font-family="Helvetica,sans-Serif" font-size="10.00">+ read()</text>
<text text-anchor="start" x="645" y="-40.5" font-family="Helvetica,sans-Serif" font-size="10.00">+ init()</text>
<text text-anchor="start" x="645" y="-29.5" font-family="Helvetica,sans-Serif" font-size="10.00">+ write()</text>
<text text-anchor="start" x="645" y="-18.5" font-family="Helvetica,sans-Serif" font-size="10.00">+ read()</text>
</a>
</g>
</g>
<!-- Node1&#45;&gt;Node6 -->
<g id="edge9" class="edge"><title>Node1&#45;&gt;Node6</title>
<path fill="none" stroke="midnightblue" d="M1053.12,-209.002C991.414,-206.004 865.581,-194.007 773,-146 766.826,-142.799 760.788,-138.961 755.012,-134.747"/>
<polygon fill="none" stroke="midnightblue" points="1053.02,-212.501 1063.16,-209.437 1053.32,-205.508 1053.02,-212.501"/>
</g>
<!-- Node1&#45;&gt;Node6 -->
<g id="edge10" class="edge"><title>Node1&#45;&gt;Node6</title>
<path fill="none" stroke="midnightblue" d="M1052.98,-208.349C994.229,-204.412 877.95,-191.087 791,-146 784.826,-142.799 778.788,-138.961 772.953,-134.747"/>
<polygon fill="none" stroke="midnightblue" points="1053.06,-211.861 1063.26,-208.981 1053.49,-204.874 1053.06,-211.861"/>
</g>
<!-- Node7 -->
<g id="node7" class="node"><title>Node7</title>
<g id="a_node7"><a xlink:href="classxsens_1_1_xsens_driver_service__calibrate.html" target="_top" xlink:title="{xsens::XsensDriverService\l_calibrate\n|+ _return\l|+ init()\l+ write()\l+ read()\l+ init()\l+ write()\l+ read()\l}">
<polygon fill="none" stroke="black" points="791,-11.5 791,-134.5 927,-134.5 927,-11.5 791,-11.5"/>
<text text-anchor="start" x="799" y="-122.5" font-family="Helvetica,sans-Serif" font-size="10.00">xsens::XsensDriverService</text>
<text text-anchor="middle" x="859" y="-111.5" font-family="Helvetica,sans-Serif" font-size="10.00">_calibrate</text>
<polyline fill="none" stroke="black" points="791,-104.5 927,-104.5 "/>
<text text-anchor="start" x="799" y="-92.5" font-family="Helvetica,sans-Serif" font-size="10.00">+ _return</text>
<polyline fill="none" stroke="black" points="791,-85.5 927,-85.5 "/>
<text text-anchor="start" x="799" y="-73.5" font-family="Helvetica,sans-Serif" font-size="10.00">+ init()</text>
<text text-anchor="start" x="799" y="-62.5" font-family="Helvetica,sans-Serif" font-size="10.00">+ write()</text>
<text text-anchor="start" x="799" y="-51.5" font-family="Helvetica,sans-Serif" font-size="10.00">+ read()</text>
<text text-anchor="start" x="799" y="-40.5" font-family="Helvetica,sans-Serif" font-size="10.00">+ init()</text>
<text text-anchor="start" x="799" y="-29.5" font-family="Helvetica,sans-Serif" font-size="10.00">+ write()</text>
<text text-anchor="start" x="799" y="-18.5" font-family="Helvetica,sans-Serif" font-size="10.00">+ read()</text>
</a>
</g>
</g>
<!-- Node1&#45;&gt;Node7 -->
<g id="edge11" class="edge"><title>Node1&#45;&gt;Node7</title>
<path fill="none" stroke="midnightblue" d="M1053.63,-201.17C1019.06,-190.83 966.971,-171.782 927,-146 921.617,-142.528 916.267,-138.659 911.064,-134.568"/>
<polygon fill="none" stroke="midnightblue" points="1052.75,-204.558 1063.33,-203.975 1054.7,-197.834 1052.75,-204.558"/>
</g>
<!-- Node1&#45;&gt;Node7 -->
<g id="edge12" class="edge"><title>Node1&#45;&gt;Node7</title>
<path fill="none" stroke="midnightblue" d="M1053.57,-196.476C1023.12,-185.528 979.538,-168.278 945,-146 939.002,-142.131 933.044,-137.77 927.222,-133.156"/>
<polygon fill="none" stroke="midnightblue" points="1052.76,-199.904 1063.36,-199.945 1055.1,-193.306 1052.76,-199.904"/>
</g>
<!-- Node8 -->
<g id="node8" class="node"><title>Node8</title>
<g id="a_node8"><a xlink:href="classxsens_1_1_xsens_driver_service__calibrate_async.html" target="_top" xlink:title="{xsens::XsensDriverService\l_calibrateAsync\n||+ init()\l+ write()\l+ read()\l+ init()\l+ write()\l+ read()\l}">
<polygon fill="none" stroke="black" points="945,-11.5 945,-134.5 1081,-134.5 1081,-11.5 945,-11.5"/>
<text text-anchor="start" x="953" y="-122.5" font-family="Helvetica,sans-Serif" font-size="10.00">xsens::XsensDriverService</text>
<text text-anchor="middle" x="1013" y="-111.5" font-family="Helvetica,sans-Serif" font-size="10.00">_calibrateAsync</text>
<polyline fill="none" stroke="black" points="945,-104.5 1081,-104.5 "/>
<text text-anchor="middle" x="1013" y="-92.5" font-family="Helvetica,sans-Serif" font-size="10.00"> </text>
<polyline fill="none" stroke="black" points="945,-85.5 1081,-85.5 "/>
<text text-anchor="start" x="953" y="-73.5" font-family="Helvetica,sans-Serif" font-size="10.00">+ init()</text>
<text text-anchor="start" x="953" y="-62.5" font-family="Helvetica,sans-Serif" font-size="10.00">+ write()</text>
<text text-anchor="start" x="953" y="-51.5" font-family="Helvetica,sans-Serif" font-size="10.00">+ read()</text>
<text text-anchor="start" x="953" y="-40.5" font-family="Helvetica,sans-Serif" font-size="10.00">+ init()</text>
<text text-anchor="start" x="953" y="-29.5" font-family="Helvetica,sans-Serif" font-size="10.00">+ write()</text>
<text text-anchor="start" x="953" y="-18.5" font-family="Helvetica,sans-Serif" font-size="10.00">+ read()</text>
</a>
</g>
</g>
<!-- Node1&#45;&gt;Node8 -->
<g id="edge13" class="edge"><title>Node1&#45;&gt;Node8</title>
<path fill="none" stroke="midnightblue" d="M1063.37,-173.66C1056,-161.651 1048.02,-147.946 1040.61,-134.623"/>
<polygon fill="none" stroke="midnightblue" points="1060.61,-175.843 1068.87,-182.478 1066.55,-172.141 1060.61,-175.843"/>
</g>
<!-- Node1&#45;&gt;Node8 -->
<g id="edge14" class="edge"><title>Node1&#45;&gt;Node8</title>
<path fill="none" stroke="midnightblue" d="M1075.29,-173.306C1069.1,-161.382 1061.63,-147.815 1054.04,-134.623"/>
<polygon fill="none" stroke="midnightblue" points="1072.31,-175.157 1079.97,-182.478 1078.55,-171.979 1072.31,-175.157"/>
</g>
<!-- Node9 -->
<g id="node9" class="node"><title>Node9</title>
<g id="a_node9"><a xlink:href="classxsens_1_1_xsens_driver_service__calibrate_async_with_type.html" target="_top" xlink:title="{xsens::XsensDriverService\l_calibrateAsyncWithType\n|+ calibrationType\l|+ init()\l+ write()\l+ read()\l+ init()\l+ write()\l+ read()\l}">
<polygon fill="none" stroke="black" points="1099,-11.5 1099,-134.5 1235,-134.5 1235,-11.5 1099,-11.5"/>
<text text-anchor="start" x="1107" y="-122.5" font-family="Helvetica,sans-Serif" font-size="10.00">xsens::XsensDriverService</text>
<text text-anchor="middle" x="1167" y="-111.5" font-family="Helvetica,sans-Serif" font-size="10.00">_calibrateAsyncWithType</text>
<polyline fill="none" stroke="black" points="1099,-104.5 1235,-104.5 "/>
<text text-anchor="start" x="1107" y="-92.5" font-family="Helvetica,sans-Serif" font-size="10.00">+ calibrationType</text>
<polyline fill="none" stroke="black" points="1099,-85.5 1235,-85.5 "/>
<text text-anchor="start" x="1107" y="-73.5" font-family="Helvetica,sans-Serif" font-size="10.00">+ init()</text>
<text text-anchor="start" x="1107" y="-62.5" font-family="Helvetica,sans-Serif" font-size="10.00">+ write()</text>
<text text-anchor="start" x="1107" y="-51.5" font-family="Helvetica,sans-Serif" font-size="10.00">+ read()</text>
<text text-anchor="start" x="1107" y="-40.5" font-family="Helvetica,sans-Serif" font-size="10.00">+ init()</text>
<text text-anchor="start" x="1107" y="-29.5" font-family="Helvetica,sans-Serif" font-size="10.00">+ write()</text>
<text text-anchor="start" x="1107" y="-18.5" font-family="Helvetica,sans-Serif" font-size="10.00">+ read()</text>
</a>
</g>
</g>
<!-- Node1&#45;&gt;Node9 -->
<g id="edge15" class="edge"><title>Node1&#45;&gt;Node9</title>
<path fill="none" stroke="midnightblue" d="M1104.71,-173.306C1110.9,-161.382 1118.37,-147.815 1125.96,-134.623"/>
<polygon fill="none" stroke="midnightblue" points="1101.45,-171.979 1100.03,-182.478 1107.69,-175.157 1101.45,-171.979"/>
</g>
<!-- Node1&#45;&gt;Node9 -->
<g id="edge16" class="edge"><title>Node1&#45;&gt;Node9</title>
<path fill="none" stroke="midnightblue" d="M1116.63,-173.66C1124,-161.651 1131.98,-147.946 1139.39,-134.623"/>
<polygon fill="none" stroke="midnightblue" points="1113.45,-172.141 1111.13,-182.478 1119.39,-175.843 1113.45,-172.141"/>
</g>
<!-- Node10 -->
<g id="node10" class="node"><title>Node10</title>
<g id="a_node10"><a xlink:href="classxsens_1_1_xsens_driver_service__calibrate_with_type.html" target="_top" xlink:title="{xsens::XsensDriverService\l_calibrateWithType\n|+ calibrationType\l+ _return\l|+ init()\l+ write()\l+ read()\l+ init()\l+ write()\l+ read()\l}">
<polygon fill="none" stroke="black" points="1253,-6 1253,-140 1389,-140 1389,-6 1253,-6"/>
<text text-anchor="start" x="1261" y="-128" font-family="Helvetica,sans-Serif" font-size="10.00">xsens::XsensDriverService</text>
<text text-anchor="middle" x="1321" y="-117" font-family="Helvetica,sans-Serif" font-size="10.00">_calibrateWithType</text>
<polyline fill="none" stroke="black" points="1253,-110 1389,-110 "/>
<text text-anchor="start" x="1261" y="-98" font-family="Helvetica,sans-Serif" font-size="10.00">+ calibrationType</text>
<text text-anchor="start" x="1261" y="-87" font-family="Helvetica,sans-Serif" font-size="10.00">+ _return</text>
<polyline fill="none" stroke="black" points="1253,-80 1389,-80 "/>
<text text-anchor="start" x="1261" y="-68" font-family="Helvetica,sans-Serif" font-size="10.00">+ init()</text>
<text text-anchor="start" x="1261" y="-57" font-family="Helvetica,sans-Serif" font-size="10.00">+ write()</text>
<text text-anchor="start" x="1261" y="-46" font-family="Helvetica,sans-Serif" font-size="10.00">+ read()</text>
<text text-anchor="start" x="1261" y="-35" font-family="Helvetica,sans-Serif" font-size="10.00">+ init()</text>
<text text-anchor="start" x="1261" y="-24" font-family="Helvetica,sans-Serif" font-size="10.00">+ write()</text>
<text text-anchor="start" x="1261" y="-13" font-family="Helvetica,sans-Serif" font-size="10.00">+ read()</text>
</a>
</g>
</g>
<!-- Node1&#45;&gt;Node10 -->
<g id="edge17" class="edge"><title>Node1&#45;&gt;Node10</title>
<path fill="none" stroke="midnightblue" d="M1126.43,-196.476C1156.88,-185.528 1200.46,-168.278 1235,-146 1241,-142.131 1246.96,-137.77 1252.78,-133.156"/>
<polygon fill="none" stroke="midnightblue" points="1124.9,-193.306 1116.64,-199.945 1127.24,-199.904 1124.9,-193.306"/>
</g>
<!-- Node1&#45;&gt;Node10 -->
<g id="edge18" class="edge"><title>Node1&#45;&gt;Node10</title>
<path fill="none" stroke="midnightblue" d="M1126.37,-201.17C1160.94,-190.83 1213.03,-171.782 1253,-146 1255.92,-144.115 1258.83,-142.113 1261.72,-140.023"/>
<polygon fill="none" stroke="midnightblue" points="1125.3,-197.834 1116.67,-203.975 1127.25,-204.558 1125.3,-197.834"/>
</g>
<!-- Node11 -->
<g id="node11" class="node"><title>Node11</title>
<g id="a_node11"><a xlink:href="classxsens_1_1_xsens_driver_service__segments.html" target="_top" xlink:title="{xsens::XsensDriverService\l_segments\n|+ _return\l|+ init()\l+ write()\l+ read()\l+ init()\l+ write()\l+ read()\l}">
<polygon fill="none" stroke="black" points="1407,-11.5 1407,-134.5 1543,-134.5 1543,-11.5 1407,-11.5"/>
<text text-anchor="start" x="1415" y="-122.5" font-family="Helvetica,sans-Serif" font-size="10.00">xsens::XsensDriverService</text>
<text text-anchor="middle" x="1475" y="-111.5" font-family="Helvetica,sans-Serif" font-size="10.00">_segments</text>
<polyline fill="none" stroke="black" points="1407,-104.5 1543,-104.5 "/>
<text text-anchor="start" x="1415" y="-92.5" font-family="Helvetica,sans-Serif" font-size="10.00">+ _return</text>
<polyline fill="none" stroke="black" points="1407,-85.5 1543,-85.5 "/>
<text text-anchor="start" x="1415" y="-73.5" font-family="Helvetica,sans-Serif" font-size="10.00">+ init()</text>
<text text-anchor="start" x="1415" y="-62.5" font-family="Helvetica,sans-Serif" font-size="10.00">+ write()</text>
<text text-anchor="start" x="1415" y="-51.5" font-family="Helvetica,sans-Serif" font-size="10.00">+ read()</text>
<text text-anchor="start" x="1415" y="-40.5" font-family="Helvetica,sans-Serif" font-size="10.00">+ init()</text>
<text text-anchor="start" x="1415" y="-29.5" font-family="Helvetica,sans-Serif" font-size="10.00">+ write()</text>
<text text-anchor="start" x="1415" y="-18.5" font-family="Helvetica,sans-Serif" font-size="10.00">+ read()</text>
</a>
</g>
</g>
<!-- Node1&#45;&gt;Node11 -->
<g id="edge19" class="edge"><title>Node1&#45;&gt;Node11</title>
<path fill="none" stroke="midnightblue" d="M1127.02,-208.349C1185.77,-204.412 1302.05,-191.087 1389,-146 1395.17,-142.799 1401.21,-138.961 1407.05,-134.747"/>
<polygon fill="none" stroke="midnightblue" points="1126.51,-204.874 1116.74,-208.981 1126.94,-211.861 1126.51,-204.874"/>
</g>
<!-- Node1&#45;&gt;Node11 -->
<g id="edge20" class="edge"><title>Node1&#45;&gt;Node11</title>
<path fill="none" stroke="midnightblue" d="M1126.88,-209.002C1188.59,-206.004 1314.42,-194.007 1407,-146 1413.17,-142.799 1419.21,-138.961 1424.99,-134.747"/>
<polygon fill="none" stroke="midnightblue" points="1126.68,-205.508 1116.84,-209.437 1126.98,-212.501 1126.68,-205.508"/>
</g>
<!-- Node12 -->
<g id="node12" class="node"><title>Node12</title>
<g id="a_node12"><a xlink:href="classxsens_1_1_xsens_driver_service__set_body_dimension.html" target="_top" xlink:title="{xsens::XsensDriverService\l_setBodyDimension\n|+ dimensionKey\l+ dimensionValue\l+ _return\l|+ init()\l+ write()\l+ read()\l+ init()\l+ write()\l+ read()\l}">
<polygon fill="none" stroke="black" points="1561,-0.5 1561,-145.5 1697,-145.5 1697,-0.5 1561,-0.5"/>
<text text-anchor="start" x="1569" y="-133.5" font-family="Helvetica,sans-Serif" font-size="10.00">xsens::XsensDriverService</text>
<text text-anchor="middle" x="1629" y="-122.5" font-family="Helvetica,sans-Serif" font-size="10.00">_setBodyDimension</text>
<polyline fill="none" stroke="black" points="1561,-115.5 1697,-115.5 "/>
<text text-anchor="start" x="1569" y="-103.5" font-family="Helvetica,sans-Serif" font-size="10.00">+ dimensionKey</text>
<text text-anchor="start" x="1569" y="-92.5" font-family="Helvetica,sans-Serif" font-size="10.00">+ dimensionValue</text>
<text text-anchor="start" x="1569" y="-81.5" font-family="Helvetica,sans-Serif" font-size="10.00">+ _return</text>
<polyline fill="none" stroke="black" points="1561,-74.5 1697,-74.5 "/>
<text text-anchor="start" x="1569" y="-62.5" font-family="Helvetica,sans-Serif" font-size="10.00">+ init()</text>
<text text-anchor="start" x="1569" y="-51.5" font-family="Helvetica,sans-Serif" font-size="10.00">+ write()</text>
<text text-anchor="start" x="1569" y="-40.5" font-family="Helvetica,sans-Serif" font-size="10.00">+ read()</text>
<text text-anchor="start" x="1569" y="-29.5" font-family="Helvetica,sans-Serif" font-size="10.00">+ init()</text>
<text text-anchor="start" x="1569" y="-18.5" font-family="Helvetica,sans-Serif" font-size="10.00">+ write()</text>
<text text-anchor="start" x="1569" y="-7.5" font-family="Helvetica,sans-Serif" font-size="10.00">+ read()</text>
</a>
</g>
</g>
<!-- Node1&#45;&gt;Node12 -->
<g id="edge21" class="edge"><title>Node1&#45;&gt;Node12</title>
<path fill="none" stroke="midnightblue" d="M1126.92,-207.47C1221.36,-200.917 1468.74,-181.39 1543,-146 1549.11,-143.087 1555.07,-139.511 1560.81,-135.526"/>
<polygon fill="none" stroke="midnightblue" points="1126.44,-203.994 1116.7,-208.17 1126.91,-210.978 1126.44,-203.994"/>
</g>
<!-- Node1&#45;&gt;Node12 -->
<g id="edge22" class="edge"><title>Node1&#45;&gt;Node12</title>
<path fill="none" stroke="midnightblue" d="M1126.82,-208.036C1224.03,-202.1 1484.47,-182.475 1561,-146 1561.33,-145.843 1561.66,-145.683 1561.99,-145.522"/>
<polygon fill="none" stroke="midnightblue" points="1126.37,-204.557 1116.59,-208.646 1126.78,-211.544 1126.37,-204.557"/>
</g>
<!-- Node13 -->
<g id="node13" class="node"><title>Node13</title>
<g id="a_node13"><a xlink:href="classxsens_1_1_xsens_driver_service__set_body_dimensions.html" target="_top" xlink:title="{xsens::XsensDriverService\l_setBodyDimensions\n|+ dimensions\l+ _return\l|+ init()\l+ write()\l+ read()\l+ init()\l+ write()\l+ read()\l}">
<polygon fill="none" stroke="black" points="1715,-6 1715,-140 1851,-140 1851,-6 1715,-6"/>
<text text-anchor="start" x="1723" y="-128" font-family="Helvetica,sans-Serif" font-size="10.00">xsens::XsensDriverService</text>
<text text-anchor="middle" x="1783" y="-117" font-family="Helvetica,sans-Serif" font-size="10.00">_setBodyDimensions</text>
<polyline fill="none" stroke="black" points="1715,-110 1851,-110 "/>
<text text-anchor="start" x="1723" y="-98" font-family="Helvetica,sans-Serif" font-size="10.00">+ dimensions</text>
<text text-anchor="start" x="1723" y="-87" font-family="Helvetica,sans-Serif" font-size="10.00">+ _return</text>
<polyline fill="none" stroke="black" points="1715,-80 1851,-80 "/>
<text text-anchor="start" x="1723" y="-68" font-family="Helvetica,sans-Serif" font-size="10.00">+ init()</text>
<text text-anchor="start" x="1723" y="-57" font-family="Helvetica,sans-Serif" font-size="10.00">+ write()</text>
<text text-anchor="start" x="1723" y="-46" font-family="Helvetica,sans-Serif" font-size="10.00">+ read()</text>
<text text-anchor="start" x="1723" y="-35" font-family="Helvetica,sans-Serif" font-size="10.00">+ init()</text>
<text text-anchor="start" x="1723" y="-24" font-family="Helvetica,sans-Serif" font-size="10.00">+ write()</text>
<text text-anchor="start" x="1723" y="-13" font-family="Helvetica,sans-Serif" font-size="10.00">+ read()</text>
</a>
</g>
</g>
<!-- Node1&#45;&gt;Node13 -->
<g id="edge23" class="edge"><title>Node1&#45;&gt;Node13</title>
<path fill="none" stroke="midnightblue" d="M1126.62,-209.131C1241.72,-206.038 1593.71,-193.084 1697,-146 1703.16,-143.191 1709.15,-139.691 1714.92,-135.756"/>
<polygon fill="none" stroke="midnightblue" points="1126.46,-205.634 1116.55,-209.392 1126.64,-212.632 1126.46,-205.634"/>
</g>
<!-- Node1&#45;&gt;Node13 -->
<g id="edge24" class="edge"><title>Node1&#45;&gt;Node13</title>
<path fill="none" stroke="midnightblue" d="M1127.05,-209.31C1245.06,-206.558 1609.57,-194.057 1715,-146 1718.83,-144.254 1722.59,-142.241 1726.27,-140.022"/>
<polygon fill="none" stroke="midnightblue" points="1126.66,-205.818 1116.74,-209.54 1126.81,-212.816 1126.66,-205.818"/>
</g>
<!-- Node14 -->
<g id="node14" class="node"><title>Node14</title>
<g id="a_node14"><a xlink:href="classxsens_1_1_xsens_driver_service__start_acquisition.html" target="_top" xlink:title="{xsens::XsensDriverService\l_startAcquisition\n||+ init()\l+ write()\l+ read()\l+ init()\l+ write()\l+ read()\l}">
<polygon fill="none" stroke="black" points="1869,-11.5 1869,-134.5 2005,-134.5 2005,-11.5 1869,-11.5"/>
<text text-anchor="start" x="1877" y="-122.5" font-family="Helvetica,sans-Serif" font-size="10.00">xsens::XsensDriverService</text>
<text text-anchor="middle" x="1937" y="-111.5" font-family="Helvetica,sans-Serif" font-size="10.00">_startAcquisition</text>
<polyline fill="none" stroke="black" points="1869,-104.5 2005,-104.5 "/>
<text text-anchor="middle" x="1937" y="-92.5" font-family="Helvetica,sans-Serif" font-size="10.00"> </text>
<polyline fill="none" stroke="black" points="1869,-85.5 2005,-85.5 "/>
<text text-anchor="start" x="1877" y="-73.5" font-family="Helvetica,sans-Serif" font-size="10.00">+ init()</text>
<text text-anchor="start" x="1877" y="-62.5" font-family="Helvetica,sans-Serif" font-size="10.00">+ write()</text>
<text text-anchor="start" x="1877" y="-51.5" font-family="Helvetica,sans-Serif" font-size="10.00">+ read()</text>
<text text-anchor="start" x="1877" y="-40.5" font-family="Helvetica,sans-Serif" font-size="10.00">+ init()</text>
<text text-anchor="start" x="1877" y="-29.5" font-family="Helvetica,sans-Serif" font-size="10.00">+ write()</text>
<text text-anchor="start" x="1877" y="-18.5" font-family="Helvetica,sans-Serif" font-size="10.00">+ read()</text>
</a>
</g>
</g>
<!-- Node1&#45;&gt;Node14 -->
<g id="edge25" class="edge"><title>Node1&#45;&gt;Node14</title>
<path fill="none" stroke="midnightblue" d="M1126.96,-210.103C1260.82,-209.922 1718.47,-204.768 1851,-146 1857.86,-142.958 1864.5,-139.044 1870.84,-134.615"/>
<polygon fill="none" stroke="midnightblue" points="1126.8,-206.602 1116.81,-210.107 1126.81,-213.602 1126.8,-206.602"/>
</g>
<!-- Node1&#45;&gt;Node14 -->
<g id="edge26" class="edge"><title>Node1&#45;&gt;Node14</title>
<path fill="none" stroke="midnightblue" d="M1127.06,-210.108C1263.27,-210.081 1734.24,-205.76 1869,-146 1875.86,-142.958 1882.5,-139.044 1888.77,-134.615"/>
<polygon fill="none" stroke="midnightblue" points="1126.75,-206.608 1116.74,-210.101 1126.74,-213.608 1126.75,-206.608"/>
</g>
<!-- Node15 -->
<g id="node15" class="node"><title>Node15</title>
<g id="a_node15"><a xlink:href="classxsens_1_1_xsens_driver_service__stop_acquisition.html" target="_top" xlink:title="{xsens::XsensDriverService\l_stopAcquisition\n||+ init()\l+ write()\l+ read()\l+ init()\l+ write()\l+ read()\l}">
<polygon fill="none" stroke="black" points="2023,-11.5 2023,-134.5 2159,-134.5 2159,-11.5 2023,-11.5"/>
<text text-anchor="start" x="2031" y="-122.5" font-family="Helvetica,sans-Serif" font-size="10.00">xsens::XsensDriverService</text>
<text text-anchor="middle" x="2091" y="-111.5" font-family="Helvetica,sans-Serif" font-size="10.00">_stopAcquisition</text>
<polyline fill="none" stroke="black" points="2023,-104.5 2159,-104.5 "/>
<text text-anchor="middle" x="2091" y="-92.5" font-family="Helvetica,sans-Serif" font-size="10.00"> </text>
<polyline fill="none" stroke="black" points="2023,-85.5 2159,-85.5 "/>
<text text-anchor="start" x="2031" y="-73.5" font-family="Helvetica,sans-Serif" font-size="10.00">+ init()</text>
<text text-anchor="start" x="2031" y="-62.5" font-family="Helvetica,sans-Serif" font-size="10.00">+ write()</text>
<text text-anchor="start" x="2031" y="-51.5" font-family="Helvetica,sans-Serif" font-size="10.00">+ read()</text>
<text text-anchor="start" x="2031" y="-40.5" font-family="Helvetica,sans-Serif" font-size="10.00">+ init()</text>
<text text-anchor="start" x="2031" y="-29.5" font-family="Helvetica,sans-Serif" font-size="10.00">+ write()</text>
<text text-anchor="start" x="2031" y="-18.5" font-family="Helvetica,sans-Serif" font-size="10.00">+ read()</text>
</a>
</g>
</g>
<!-- Node1&#45;&gt;Node15 -->
<g id="edge27" class="edge"><title>Node1&#45;&gt;Node15</title>
<path fill="none" stroke="midnightblue" d="M1127.32,-208.791C1288.97,-203.57 1923.21,-181.599 2005,-146 2011.88,-143.005 2018.53,-139.123 2024.89,-134.715"/>
<polygon fill="none" stroke="midnightblue" points="1126.82,-205.305 1116.94,-209.124 1127.05,-212.301 1126.82,-205.305"/>
</g>
<!-- Node1&#45;&gt;Node15 -->
<g id="edge28" class="edge"><title>Node1&#45;&gt;Node15</title>
<path fill="none" stroke="midnightblue" d="M1126.97,-208.989C1290.11,-204.148 1940.13,-182.07 2023,-146 2029.88,-143.005 2036.53,-139.123 2042.81,-134.715"/>
<polygon fill="none" stroke="midnightblue" points="1126.4,-205.504 1116.51,-209.295 1126.6,-212.501 1126.4,-205.504"/>
</g>
</g>
</svg>
        <g id="navigator" transform="translate(0 0)" fill="#404254">
                <rect fill="#f2f5e9" fill-opacity="0.5" stroke="#606060" stroke-width=".5" x="0" y="0" width="60" height="60"/>
                <use id="zoomplus" xlink:href="#zoomPlus" x="17" y="9" onmousedown="handleZoom(evt,'in')"/>
                <use id="zoomminus" xlink:href="#zoomMin" x="42" y="9" onmousedown="handleZoom(evt,'out')"/>
                <use id="reset" xlink:href="#resetDef" x="30" y="36" onmousedown="handleReset()"/>
                <g id="arrowUp" xlink:href="#dirArrow" transform="translate(30 24)" onmousedown="handlePan(0,-1)">
                  <use xlink:href="#rim" fill="#404040">
                        <set attributeName="fill" to="#808080" begin="arrowUp.mouseover" end="arrowUp.mouseout"/>
                  </use>
                  <path fill="none" stroke="white" stroke-width="1.5" d="M0,-3.0v7 M-2.5,-0.5L0,-3.0L2.5,-0.5"/>
                </g>
                <g id="arrowRight" xlink:href="#dirArrow" transform="rotate(90) translate(36 -43)" onmousedown="handlePan(1,0)">
                  <use xlink:href="#rim" fill="#404040">
                        <set attributeName="fill" to="#808080" begin="arrowRight.mouseover" end="arrowRight.mouseout"/>
                  </use>
                  <path fill="none" stroke="white" stroke-width="1.5" d="M0,-3.0v7 M-2.5,-0.5L0,-3.0L2.5,-0.5"/>
                </g>
                <g id="arrowDown" xlink:href="#dirArrow" transform="rotate(180) translate(-30 -48)" onmousedown="handlePan(0,1)">
                  <use xlink:href="#rim" fill="#404040">
                        <set attributeName="fill" to="#808080" begin="arrowDown.mouseover" end="arrowDown.mouseout"/>
                  </use>
                  <path fill="none" stroke="white" stroke-width="1.5" d="M0,-3.0v7 M-2.5,-0.5L0,-3.0L2.5,-0.5"/>
                </g>
                <g id="arrowLeft" xlink:href="#dirArrow" transform="rotate(270) translate(-36 17)" onmousedown="handlePan(-1,0)">
                  <use xlink:href="#rim" fill="#404040">
                        <set attributeName="fill" to="#808080" begin="arrowLeft.mouseover" end="arrowLeft.mouseout"/>
                  </use>
                  <path fill="none" stroke="white" stroke-width="1.5" d="M0,-3.0v7 M-2.5,-0.5L0,-3.0L2.5,-0.5"/>
                </g>
        </g>
        <svg viewBox="0 0 15 15" width="100%" height="30px" preserveAspectRatio="xMaxYMin meet">
         <g id="arrow_out" transform="scale(0.3 0.3)">
          <a xlink:href="classyarp_1_1os_1_1_portable__inherit__graph_org.svg" target="_base">
           <rect id="button" ry="5" rx="5" y="6" x="6" height="38" width="38"
                fill="#f2f5e9" fill-opacity="0.5" stroke="#606060" stroke-width="1.0"/>
           <path id="arrow"
             d="M 11.500037,31.436501 C 11.940474,20.09759 22.043105,11.32322 32.158766,21.979434 L 37.068811,17.246167 C 37.068811,17.246167 37.088388,32 37.088388,32 L 22.160133,31.978069 C 22.160133,31.978069 26.997745,27.140456 26.997745,27.140456 C 18.528582,18.264221 13.291696,25.230495 11.500037,31.436501 z"
             style="fill:#404040;"/>
          </a>
         </g>
        </svg>
</svg>
