<?xml version="1.0" encoding="UTF-8" standalone="no"?>
<!DOCTYPE svg PUBLIC "-//W3C//DTD SVG 1.1//EN"
 "http://www.w3.org/Graphics/SVG/1.1/DTD/svg11.dtd">
<!-- Generated by graphviz version 2.36.0 (20140111.2315)
 -->
<!-- Title: xsens::XsensSegmentsFrame Pages: 1 -->
<svg width="342pt" height="416pt"
 viewBox="0.00 0.00 342.00 416.00" xmlns="http://www.w3.org/2000/svg" xmlns:xlink="http://www.w3.org/1999/xlink">
<g id="graph0" class="graph" transform="scale(1 1) rotate(0) translate(4 412)">
<title>xsens::XsensSegmentsFrame</title>
<!-- Node1 -->
<g id="node1" class="node"><title>Node1</title>
<polygon fill="#bfbfbf" stroke="black" points="57.5,-1 57.5,-289 210.5,-289 210.5,-1 57.5,-1"/>
<text text-anchor="middle" x="134" y="-277" font-family="Helvetica,sans-Serif" font-size="10.00">xsens::XsensSegmentsFrame</text>
<polyline fill="none" stroke="black" points="57.5,-270 210.5,-270 "/>
<text text-anchor="middle" x="134" y="-258" font-family="Helvetica,sans-Serif" font-size="10.00"> </text>
<polyline fill="none" stroke="black" points="57.5,-251 210.5,-251 "/>
<text text-anchor="start" x="65.5" y="-239" font-family="Helvetica,sans-Serif" font-size="10.00">+ XsensSegmentsFrame()</text>
<text text-anchor="start" x="65.5" y="-228" font-family="Helvetica,sans-Serif" font-size="10.00">+ XsensSegmentsFrame()</text>
<text text-anchor="start" x="65.5" y="-217" font-family="Helvetica,sans-Serif" font-size="10.00">+ XsensSegmentsFrame()</text>
<text text-anchor="start" x="65.5" y="-206" font-family="Helvetica,sans-Serif" font-size="10.00">+ operator=()</text>
<text text-anchor="start" x="65.5" y="-195" font-family="Helvetica,sans-Serif" font-size="10.00">+ read()</text>
<text text-anchor="start" x="65.5" y="-184" font-family="Helvetica,sans-Serif" font-size="10.00">+ read()</text>
<text text-anchor="start" x="65.5" y="-173" font-family="Helvetica,sans-Serif" font-size="10.00">+ write()</text>
<text text-anchor="start" x="65.5" y="-162" font-family="Helvetica,sans-Serif" font-size="10.00">+ write()</text>
<text text-anchor="start" x="65.5" y="-151" font-family="Helvetica,sans-Serif" font-size="10.00">+ toString()</text>
<text text-anchor="start" x="65.5" y="-140" font-family="Helvetica,sans-Serif" font-size="10.00">+ XsensSegmentsFrame()</text>
<text text-anchor="start" x="65.5" y="-129" font-family="Helvetica,sans-Serif" font-size="10.00">and 8 more...</text>
<text text-anchor="start" x="65.5" y="-118" font-family="Helvetica,sans-Serif" font-size="10.00">&#45; write_status()</text>
<text text-anchor="start" x="65.5" y="-107" font-family="Helvetica,sans-Serif" font-size="10.00">&#45; nested_write_status()</text>
<text text-anchor="start" x="65.5" y="-96" font-family="Helvetica,sans-Serif" font-size="10.00">&#45; write_segmentsData()</text>
<text text-anchor="start" x="65.5" y="-85" font-family="Helvetica,sans-Serif" font-size="10.00">&#45; nested_write_segmentsData()</text>
<text text-anchor="start" x="65.5" y="-74" font-family="Helvetica,sans-Serif" font-size="10.00">&#45; read_status()</text>
<text text-anchor="start" x="65.5" y="-63" font-family="Helvetica,sans-Serif" font-size="10.00">&#45; nested_read_status()</text>
<text text-anchor="start" x="65.5" y="-52" font-family="Helvetica,sans-Serif" font-size="10.00">&#45; read_segmentsData()</text>
<text text-anchor="start" x="65.5" y="-41" font-family="Helvetica,sans-Serif" font-size="10.00">&#45; nested_read_segmentsData()</text>
<text text-anchor="start" x="65.5" y="-30" font-family="Helvetica,sans-Serif" font-size="10.00">&#45; write_status()</text>
<text text-anchor="start" x="65.5" y="-19" font-family="Helvetica,sans-Serif" font-size="10.00">&#45; nested_write_status()</text>
<text text-anchor="start" x="65.5" y="-8" font-family="Helvetica,sans-Serif" font-size="10.00">and 6 more...</text>
</g>
<!-- Node2 -->
<g id="node2" class="node"><title>Node2</title>
<g id="a_node2"><a xlink:href="classyarp_1_1os_1_1idl_1_1_wire_portable.html" target="_top" xlink:title="{WirePortable\n||}">
<polygon fill="none" stroke="black" points="-0.5,-344.5 -0.5,-401.5 72.5,-401.5 72.5,-344.5 -0.5,-344.5"/>
<text text-anchor="middle" x="36" y="-389.5" font-family="Helvetica,sans-Serif" font-size="10.00">WirePortable</text>
<polyline fill="none" stroke="black" points="-0.5,-382.5 72.5,-382.5 "/>
<text text-anchor="middle" x="36" y="-370.5" font-family="Helvetica,sans-Serif" font-size="10.00"> </text>
<polyline fill="none" stroke="black" points="-0.5,-363.5 72.5,-363.5 "/>
<text text-anchor="middle" x="36" y="-351.5" font-family="Helvetica,sans-Serif" font-size="10.00"> </text>
</a>
</g>
</g>
<!-- Node2&#45;&gt;Node1 -->
<g id="edge1" class="edge"><title>Node2&#45;&gt;Node1</title>
<path fill="none" stroke="midnightblue" d="M47,-334.723C52.055,-321.531 58.4257,-305.787 65.4156,-289.099"/>
<polygon fill="none" stroke="midnightblue" points="43.6471,-333.696 43.4025,-344.288 50.199,-336.16 43.6471,-333.696"/>
</g>
<!-- Node2&#45;&gt;Node1 -->
<g id="edge2" class="edge"><title>Node2&#45;&gt;Node1</title>
<path fill="none" stroke="midnightblue" d="M57.1408,-335.111C63.5719,-321.839 70.9243,-305.951 78.4806,-289.099"/>
<polygon fill="none" stroke="midnightblue" points="53.9002,-333.769 52.631,-344.288 60.1826,-336.857 53.9002,-333.769"/>
</g>
<!-- Node3 -->
<g id="node3" class="node"><title>Node3</title>
<polygon fill="none" stroke="#bfbfbf" points="91,-339 91,-407 243,-407 243,-339 91,-339"/>
<text text-anchor="start" x="99" y="-395" font-family="Helvetica,sans-Serif" font-size="10.00">vector&lt; xsens::XsensSegment</text>
<text text-anchor="middle" x="167" y="-384" font-family="Helvetica,sans-Serif" font-size="10.00">Data &gt;</text>
<polyline fill="none" stroke="#bfbfbf" points="91,-377 243,-377 "/>
<text text-anchor="middle" x="167" y="-365" font-family="Helvetica,sans-Serif" font-size="10.00"> </text>
<polyline fill="none" stroke="#bfbfbf" points="91,-358 243,-358 "/>
<text text-anchor="middle" x="167" y="-346" font-family="Helvetica,sans-Serif" font-size="10.00"> </text>
</g>
<!-- Node3&#45;&gt;Node1 -->
<g id="edge3" class="edge"><title>Node3&#45;&gt;Node1</title>
<path fill="none" stroke="#404040" d="M162.131,-338.653C160.564,-327.922 158.712,-315.241 156.719,-301.588"/>
<polygon fill="none" stroke="#404040" points="156.668,-301.239 151.843,-295.879 154.934,-289.364 159.759,-294.724 156.668,-301.239"/>
<text text-anchor="middle" x="196.5" y="-311.5" font-family="Helvetica,sans-Serif" font-size="10.00"> +segmentsData</text>
</g>
<!-- Node4 -->
<g id="node4" class="node"><title>Node4</title>
<polygon fill="none" stroke="#bfbfbf" points="261.5,-344.5 261.5,-401.5 334.5,-401.5 334.5,-344.5 261.5,-344.5"/>
<text text-anchor="middle" x="298" y="-389.5" font-family="Helvetica,sans-Serif" font-size="10.00">XsensStatus</text>
<polyline fill="none" stroke="#bfbfbf" points="261.5,-382.5 334.5,-382.5 "/>
<text text-anchor="middle" x="298" y="-370.5" font-family="Helvetica,sans-Serif" font-size="10.00"> </text>
<polyline fill="none" stroke="#bfbfbf" points="261.5,-363.5 334.5,-363.5 "/>
<text text-anchor="middle" x="298" y="-351.5" font-family="Helvetica,sans-Serif" font-size="10.00"> </text>
</g>
<!-- Node4&#45;&gt;Node1 -->
<g id="edge4" class="edge"><title>Node4&#45;&gt;Node1</title>
<path fill="none" stroke="#404040" d="M277.89,-344.288C262.57,-323.176 240.359,-292.568 217.954,-261.692"/>
<polygon fill="none" stroke="#404040" points="217.729,-261.382 210.967,-258.875 210.681,-251.67 217.442,-254.176 217.729,-261.382"/>
<text text-anchor="middle" x="277.5" y="-311.5" font-family="Helvetica,sans-Serif" font-size="10.00"> +status</text>
</g>
</g>
</svg>
