<?xml version="1.0" encoding="UTF-8" standalone="no"?>
<!DOCTYPE svg PUBLIC "-//W3C//DTD SVG 1.1//EN"
 "http://www.w3.org/Graphics/SVG/1.1/DTD/svg11.dtd">
<!-- Generated by graphviz version 2.36.0 (20140111.2315)
 -->
<!-- Title: HumanTFBridge Pages: 1 -->
<svg width="985pt" height="454pt"
 viewBox="0.00 0.00 985.00 454.00" xmlns="http://www.w3.org/2000/svg" xmlns:xlink="http://www.w3.org/1999/xlink">
<g id="graph0" class="graph" transform="scale(1 1) rotate(0) translate(4 450)">
<title>HumanTFBridge</title>
<!-- Node1 -->
<g id="node1" class="node"><title>Node1</title>
<polygon fill="#bfbfbf" stroke="black" points="476,-0.5 476,-101.5 568,-101.5 568,-0.5 476,-0.5"/>
<text text-anchor="middle" x="522" y="-89.5" font-family="Helvetica,sans-Serif" font-size="10.00">HumanTFBridge</text>
<polyline fill="none" stroke="black" points="476,-82.5 568,-82.5 "/>
<text text-anchor="middle" x="522" y="-70.5" font-family="Helvetica,sans-Serif" font-size="10.00"> </text>
<polyline fill="none" stroke="black" points="476,-63.5 568,-63.5 "/>
<text text-anchor="start" x="484" y="-51.5" font-family="Helvetica,sans-Serif" font-size="10.00">+ getPeriod()</text>
<text text-anchor="start" x="484" y="-40.5" font-family="Helvetica,sans-Serif" font-size="10.00">+ updateModule()</text>
<text text-anchor="start" x="484" y="-29.5" font-family="Helvetica,sans-Serif" font-size="10.00">+ configure()</text>
<text text-anchor="start" x="484" y="-18.5" font-family="Helvetica,sans-Serif" font-size="10.00">+ close()</text>
<text text-anchor="start" x="484" y="-7.5" font-family="Helvetica,sans-Serif" font-size="10.00">+ onRead()</text>
</g>
<!-- Node2 -->
<g id="node2" class="node"><title>Node2</title>
<g id="a_node2"><a xlink:href="class_r_f_module.html" target="_top" xlink:title="{RFModule\n||}">
<polygon fill="none" stroke="black" points="0,-215.5 0,-272.5 62,-272.5 62,-215.5 0,-215.5"/>
<text text-anchor="middle" x="31" y="-260.5" font-family="Helvetica,sans-Serif" font-size="10.00">RFModule</text>
<polyline fill="none" stroke="black" points="0,-253.5 62,-253.5 "/>
<text text-anchor="middle" x="31" y="-241.5" font-family="Helvetica,sans-Serif" font-size="10.00"> </text>
<polyline fill="none" stroke="black" points="0,-234.5 62,-234.5 "/>
<text text-anchor="middle" x="31" y="-222.5" font-family="Helvetica,sans-Serif" font-size="10.00"> </text>
</a>
</g>
</g>
<!-- Node2&#45;&gt;Node1 -->
<g id="edge1" class="edge"><title>Node2&#45;&gt;Node1</title>
<path fill="none" stroke="midnightblue" d="M41.1176,-205.4C47.2704,-189.241 56.7672,-171.471 71,-160 133.686,-109.476 373.694,-71.9778 475.697,-57.99"/>
<polygon fill="none" stroke="midnightblue" points="37.6943,-204.588 37.7063,-215.183 44.3039,-206.893 37.6943,-204.588"/>
</g>
<!-- Node3 -->
<g id="node3" class="node"><title>Node3</title>
<g id="a_node3"><a xlink:href="class_typed_reader_callback.html" target="_top" xlink:title="{TypedReaderCallback\l\&lt; XsensSegmentsFrame \&gt;\n||}">
<polygon fill="none" stroke="black" points="80,-210 80,-278 214,-278 214,-210 80,-210"/>
<text text-anchor="start" x="88" y="-266" font-family="Helvetica,sans-Serif" font-size="10.00">TypedReaderCallback</text>
<text text-anchor="middle" x="147" y="-255" font-family="Helvetica,sans-Serif" font-size="10.00">&lt; XsensSegmentsFrame &gt;</text>
<polyline fill="none" stroke="black" points="80,-248 214,-248 "/>
<text text-anchor="middle" x="147" y="-236" font-family="Helvetica,sans-Serif" font-size="10.00"> </text>
<polyline fill="none" stroke="black" points="80,-229 214,-229 "/>
<text text-anchor="middle" x="147" y="-217" font-family="Helvetica,sans-Serif" font-size="10.00"> </text>
</a>
</g>
</g>
<!-- Node3&#45;&gt;Node1 -->
<g id="edge2" class="edge"><title>Node3&#45;&gt;Node1</title>
<path fill="none" stroke="midnightblue" d="M177.762,-201.792C190.446,-187.016 206.129,-171.248 223,-160 303.594,-106.27 414.208,-75.4516 475.805,-61.3826"/>
<polygon fill="none" stroke="midnightblue" points="174.748,-199.941 171.034,-209.864 180.125,-204.423 174.748,-199.941"/>
</g>
<!-- Node4 -->
<g id="node4" class="node"><title>Node4</title>
<g id="a_node4"><a xlink:href="classtf2__msgs___t_f_message.html" target="_top" xlink:title="{tf2_msgs_TFMessage\n||+ tf2_msgs_TFMessage()\l+ clear()\l+ readBare()\l+ readBottle()\l+ read()\l+ writeBare()\l+ writeBottle()\l+ write()\l+ getTypeText()\l+ getType()\land 10 more...\l}">
<polygon fill="none" stroke="black" points="232.5,-160.5 232.5,-327.5 361.5,-327.5 361.5,-160.5 232.5,-160.5"/>
<text text-anchor="middle" x="297" y="-315.5" font-family="Helvetica,sans-Serif" font-size="10.00">tf2_msgs_TFMessage</text>
<polyline fill="none" stroke="black" points="232.5,-308.5 361.5,-308.5 "/>
<text text-anchor="middle" x="297" y="-296.5" font-family="Helvetica,sans-Serif" font-size="10.00"> </text>
<polyline fill="none" stroke="black" points="232.5,-289.5 361.5,-289.5 "/>
<text text-anchor="start" x="240.5" y="-277.5" font-family="Helvetica,sans-Serif" font-size="10.00">+ tf2_msgs_TFMessage()</text>
<text text-anchor="start" x="240.5" y="-266.5" font-family="Helvetica,sans-Serif" font-size="10.00">+ clear()</text>
<text text-anchor="start" x="240.5" y="-255.5" font-family="Helvetica,sans-Serif" font-size="10.00">+ readBare()</text>
<text text-anchor="start" x="240.5" y="-244.5" font-family="Helvetica,sans-Serif" font-size="10.00">+ readBottle()</text>
<text text-anchor="start" x="240.5" y="-233.5" font-family="Helvetica,sans-Serif" font-size="10.00">+ read()</text>
<text text-anchor="start" x="240.5" y="-222.5" font-family="Helvetica,sans-Serif" font-size="10.00">+ writeBare()</text>
<text text-anchor="start" x="240.5" y="-211.5" font-family="Helvetica,sans-Serif" font-size="10.00">+ writeBottle()</text>
<text text-anchor="start" x="240.5" y="-200.5" font-family="Helvetica,sans-Serif" font-size="10.00">+ write()</text>
<text text-anchor="start" x="240.5" y="-189.5" font-family="Helvetica,sans-Serif" font-size="10.00">+ getTypeText()</text>
<text text-anchor="start" x="240.5" y="-178.5" font-family="Helvetica,sans-Serif" font-size="10.00">+ getType()</text>
<text text-anchor="start" x="240.5" y="-167.5" font-family="Helvetica,sans-Serif" font-size="10.00">and 10 more...</text>
</a>
</g>
</g>
<!-- Node4&#45;&gt;Node1 -->
<g id="edge3" class="edge"><title>Node4&#45;&gt;Node1</title>
<path fill="none" stroke="#404040" d="M361.534,-168.847C364.677,-165.801 367.84,-162.838 371,-160 400.387,-133.608 436.242,-107.734 465.638,-87.9306"/>
<polygon fill="none" stroke="#404040" points="465.763,-87.8476 468.534,-81.1904 475.745,-81.1883 472.974,-87.8455 465.763,-87.8476"/>
<text text-anchor="middle" x="425.5" y="-128.5" font-family="Helvetica,sans-Serif" font-size="10.00"> &#45;tf</text>
</g>
<!-- Node5 -->
<g id="node5" class="node"><title>Node5</title>
<g id="a_node5"><a xlink:href="classyarp_1_1os_1_1idl_1_1_wire_portable.html" target="_top" xlink:title="{WirePortable\n||}">
<polygon fill="none" stroke="black" points="260.5,-382.5 260.5,-439.5 333.5,-439.5 333.5,-382.5 260.5,-382.5"/>
<text text-anchor="middle" x="297" y="-427.5" font-family="Helvetica,sans-Serif" font-size="10.00">WirePortable</text>
<polyline fill="none" stroke="black" points="260.5,-420.5 333.5,-420.5 "/>
<text text-anchor="middle" x="297" y="-408.5" font-family="Helvetica,sans-Serif" font-size="10.00"> </text>
<polyline fill="none" stroke="black" points="260.5,-401.5 333.5,-401.5 "/>
<text text-anchor="middle" x="297" y="-389.5" font-family="Helvetica,sans-Serif" font-size="10.00"> </text>
</a>
</g>
</g>
<!-- Node5&#45;&gt;Node4 -->
<g id="edge4" class="edge"><title>Node5&#45;&gt;Node4</title>
<path fill="none" stroke="midnightblue" d="M291.221,-372.179C290.574,-358.802 290.251,-343.182 290.25,-327.559"/>
<polygon fill="none" stroke="midnightblue" points="287.739,-372.6 291.808,-382.383 294.728,-372.198 287.739,-372.6"/>
</g>
<!-- Node5&#45;&gt;Node4 -->
<g id="edge5" class="edge"><title>Node5&#45;&gt;Node4</title>
<path fill="none" stroke="midnightblue" d="M302.779,-372.179C303.426,-358.802 303.749,-343.182 303.75,-327.559"/>
<polygon fill="none" stroke="midnightblue" points="299.272,-372.198 302.192,-382.383 306.261,-372.6 299.272,-372.198"/>
</g>
<!-- Node6 -->
<g id="node6" class="node"><title>Node6</title>
<polygon fill="none" stroke="#bfbfbf" points="352,-377 352,-445 474,-445 474,-377 352,-377"/>
<text text-anchor="start" x="360" y="-433" font-family="Helvetica,sans-Serif" font-size="10.00">vector&lt; geometry_msgs</text>
<text text-anchor="middle" x="413" y="-422" font-family="Helvetica,sans-Serif" font-size="10.00">_TransformStamped &gt;</text>
<polyline fill="none" stroke="#bfbfbf" points="352,-415 474,-415 "/>
<text text-anchor="middle" x="413" y="-403" font-family="Helvetica,sans-Serif" font-size="10.00"> </text>
<polyline fill="none" stroke="#bfbfbf" points="352,-396 474,-396 "/>
<text text-anchor="middle" x="413" y="-384" font-family="Helvetica,sans-Serif" font-size="10.00"> </text>
</g>
<!-- Node6&#45;&gt;Node4 -->
<g id="edge6" class="edge"><title>Node6&#45;&gt;Node4</title>
<path fill="none" stroke="#404040" d="M389.526,-376.61C381.482,-365.168 372.044,-351.744 362.328,-337.924"/>
<polygon fill="none" stroke="#404040" points="362.122,-337.63 355.399,-335.022 355.22,-327.813 361.943,-330.421 362.122,-337.63"/>
<text text-anchor="middle" x="404" y="-349.5" font-family="Helvetica,sans-Serif" font-size="10.00"> +transforms</text>
</g>
<!-- Node7 -->
<g id="node7" class="node"><title>Node7</title>
<g id="a_node7"><a xlink:href="classyarp_1_1os_1_1_buffered_port.html" target="_top" xlink:title="{yarp::os::BufferedPort\l\&lt; XsensSegmentsFrame \&gt;\n||}">
<polygon fill="none" stroke="black" points="380,-210 380,-278 514,-278 514,-210 380,-210"/>
<text text-anchor="start" x="388" y="-266" font-family="Helvetica,sans-Serif" font-size="10.00">yarp::os::BufferedPort</text>
<text text-anchor="middle" x="447" y="-255" font-family="Helvetica,sans-Serif" font-size="10.00">&lt; XsensSegmentsFrame &gt;</text>
<polyline fill="none" stroke="black" points="380,-248 514,-248 "/>
<text text-anchor="middle" x="447" y="-236" font-family="Helvetica,sans-Serif" font-size="10.00"> </text>
<polyline fill="none" stroke="black" points="380,-229 514,-229 "/>
<text text-anchor="middle" x="447" y="-217" font-family="Helvetica,sans-Serif" font-size="10.00"> </text>
</a>
</g>
</g>
<!-- Node7&#45;&gt;Node1 -->
<g id="edge7" class="edge"><title>Node7&#45;&gt;Node1</title>
<path fill="none" stroke="#404040" d="M460.064,-209.73C470.493,-183.172 485.387,-145.241 497.956,-113.232"/>
<polygon fill="none" stroke="#404040" points="498.083,-112.909 496.553,-105.862 502.469,-101.739 503.999,-108.786 498.083,-112.909"/>
<text text-anchor="middle" x="530" y="-128.5" font-family="Helvetica,sans-Serif" font-size="10.00"> &#45;xsensDataPort</text>
</g>
<!-- Node8 -->
<g id="node8" class="node"><title>Node8</title>
<g id="a_node8"><a xlink:href="classyarp_1_1os_1_1_publisher.html" target="_top" xlink:title="{yarp::os::Publisher\l\&lt; tf2_msgs_TFMessage \&gt;\n||}">
<polygon fill="none" stroke="black" points="532,-210 532,-278 664,-278 664,-210 532,-210"/>
<text text-anchor="start" x="540" y="-266" font-family="Helvetica,sans-Serif" font-size="10.00">yarp::os::Publisher</text>
<text text-anchor="middle" x="598" y="-255" font-family="Helvetica,sans-Serif" font-size="10.00">&lt; tf2_msgs_TFMessage &gt;</text>
<polyline fill="none" stroke="black" points="532,-248 664,-248 "/>
<text text-anchor="middle" x="598" y="-236" font-family="Helvetica,sans-Serif" font-size="10.00"> </text>
<polyline fill="none" stroke="black" points="532,-229 664,-229 "/>
<text text-anchor="middle" x="598" y="-217" font-family="Helvetica,sans-Serif" font-size="10.00"> </text>
</a>
</g>
</g>
<!-- Node8&#45;&gt;Node1 -->
<g id="edge8" class="edge"><title>Node8&#45;&gt;Node1</title>
<path fill="none" stroke="#404040" d="M594.023,-209.776C590.143,-184.368 582.882,-148.906 570,-120 568.834,-117.383 567.56,-114.763 566.203,-112.157"/>
<polygon fill="none" stroke="#404040" points="566.118,-112.007 559.683,-108.753 560.212,-101.561 566.647,-104.816 566.118,-112.007"/>
<text text-anchor="middle" x="606.5" y="-128.5" font-family="Helvetica,sans-Serif" font-size="10.00"> &#45;publisher_tf</text>
</g>
<!-- Node9 -->
<g id="node9" class="node"><title>Node9</title>
<polygon fill="none" stroke="#bfbfbf" points="682,-215.5 682,-272.5 768,-272.5 768,-215.5 682,-215.5"/>
<text text-anchor="middle" x="725" y="-260.5" font-family="Helvetica,sans-Serif" font-size="10.00">vector&lt; string &gt;</text>
<polyline fill="none" stroke="#bfbfbf" points="682,-253.5 768,-253.5 "/>
<text text-anchor="middle" x="725" y="-241.5" font-family="Helvetica,sans-Serif" font-size="10.00"> </text>
<polyline fill="none" stroke="#bfbfbf" points="682,-234.5 768,-234.5 "/>
<text text-anchor="middle" x="725" y="-222.5" font-family="Helvetica,sans-Serif" font-size="10.00"> </text>
</g>
<!-- Node9&#45;&gt;Node1 -->
<g id="edge9" class="edge"><title>Node9&#45;&gt;Node1</title>
<path fill="none" stroke="#404040" d="M709.101,-215.434C699.266,-198.959 686.061,-177.835 673,-160 659.215,-141.176 656.9,-134.967 639,-120 620.819,-104.798 598.801,-91.019 578.792,-79.9012"/>
<polygon fill="none" stroke="#404040" points="578.779,-79.8946 571.598,-80.5491 568.232,-74.1718 575.413,-73.5174 578.779,-79.8946"/>
<text text-anchor="middle" x="695" y="-134" font-family="Helvetica,sans-Serif" font-size="10.00"> &#45;fakeSegments</text>
<text text-anchor="middle" x="695" y="-123" font-family="Helvetica,sans-Serif" font-size="10.00">&#45;segments</text>
</g>
<!-- Node10 -->
<g id="node10" class="node"><title>Node10</title>
<g id="a_node10"><a xlink:href="classxsens_1_1_xsens_driver_service.html" target="_top" xlink:title="{xsens::XsensDriverService\n||+ XsensDriverService()\l+ calibrateAsync()\l+ calibrateAsyncWithType()\l+ calibrate()\l+ calibrateWithType()\l+ abortCalibration()\l+ startAcquisition()\l+ stopAcquisition()\l+ segments()\l+ bodyDimensions()\land 18 more...\l}">
<polygon fill="none" stroke="black" points="786,-160.5 786,-327.5 924,-327.5 924,-160.5 786,-160.5"/>
<text text-anchor="middle" x="855" y="-315.5" font-family="Helvetica,sans-Serif" font-size="10.00">xsens::XsensDriverService</text>
<polyline fill="none" stroke="black" points="786,-308.5 924,-308.5 "/>
<text text-anchor="middle" x="855" y="-296.5" font-family="Helvetica,sans-Serif" font-size="10.00"> </text>
<polyline fill="none" stroke="black" points="786,-289.5 924,-289.5 "/>
<text text-anchor="start" x="794" y="-277.5" font-family="Helvetica,sans-Serif" font-size="10.00">+ XsensDriverService()</text>
<text text-anchor="start" x="794" y="-266.5" font-family="Helvetica,sans-Serif" font-size="10.00">+ calibrateAsync()</text>
<text text-anchor="start" x="794" y="-255.5" font-family="Helvetica,sans-Serif" font-size="10.00">+ calibrateAsyncWithType()</text>
<text text-anchor="start" x="794" y="-244.5" font-family="Helvetica,sans-Serif" font-size="10.00">+ calibrate()</text>
<text text-anchor="start" x="794" y="-233.5" font-family="Helvetica,sans-Serif" font-size="10.00">+ calibrateWithType()</text>
<text text-anchor="start" x="794" y="-222.5" font-family="Helvetica,sans-Serif" font-size="10.00">+ abortCalibration()</text>
<text text-anchor="start" x="794" y="-211.5" font-family="Helvetica,sans-Serif" font-size="10.00">+ startAcquisition()</text>
<text text-anchor="start" x="794" y="-200.5" font-family="Helvetica,sans-Serif" font-size="10.00">+ stopAcquisition()</text>
<text text-anchor="start" x="794" y="-189.5" font-family="Helvetica,sans-Serif" font-size="10.00">+ segments()</text>
<text text-anchor="start" x="794" y="-178.5" font-family="Helvetica,sans-Serif" font-size="10.00">+ bodyDimensions()</text>
<text text-anchor="start" x="794" y="-167.5" font-family="Helvetica,sans-Serif" font-size="10.00">and 18 more...</text>
</a>
</g>
</g>
<!-- Node10&#45;&gt;Node1 -->
<g id="edge10" class="edge"><title>Node10&#45;&gt;Node1</title>
<path fill="none" stroke="#404040" d="M785.842,-160.292C770.078,-145.197 752.481,-130.824 734,-120 685.728,-91.7277 624.277,-73.6886 579.978,-63.3485"/>
<polygon fill="none" stroke="#404040" points="579.953,-63.3431 573.219,-65.9214 568.249,-60.6966 574.983,-58.1184 579.953,-63.3431"/>
<text text-anchor="middle" x="794.5" y="-128.5" font-family="Helvetica,sans-Serif" font-size="10.00"> &#45;xsensDriver</text>
</g>
<!-- Node11 -->
<g id="node11" class="node"><title>Node11</title>
<g id="a_node11"><a xlink:href="classyarp_1_1os_1_1_wire.html" target="_top" xlink:title="{Wire\n||}">
<polygon fill="none" stroke="black" points="836.5,-382.5 836.5,-439.5 873.5,-439.5 873.5,-382.5 836.5,-382.5"/>
<text text-anchor="middle" x="855" y="-427.5" font-family="Helvetica,sans-Serif" font-size="10.00">Wire</text>
<polyline fill="none" stroke="black" points="836.5,-420.5 873.5,-420.5 "/>
<text text-anchor="middle" x="855" y="-408.5" font-family="Helvetica,sans-Serif" font-size="10.00"> </text>
<polyline fill="none" stroke="black" points="836.5,-401.5 873.5,-401.5 "/>
<text text-anchor="middle" x="855" y="-389.5" font-family="Helvetica,sans-Serif" font-size="10.00"> </text>
</a>
</g>
</g>
<!-- Node11&#45;&gt;Node10 -->
<g id="edge11" class="edge"><title>Node11&#45;&gt;Node10</title>
<path fill="none" stroke="midnightblue" d="M849.221,-372.179C848.574,-358.802 848.251,-343.182 848.25,-327.559"/>
<polygon fill="none" stroke="midnightblue" points="845.739,-372.6 849.808,-382.383 852.728,-372.198 845.739,-372.6"/>
</g>
<!-- Node11&#45;&gt;Node10 -->
<g id="edge12" class="edge"><title>Node11&#45;&gt;Node10</title>
<path fill="none" stroke="midnightblue" d="M860.779,-372.179C861.426,-358.802 861.749,-343.182 861.75,-327.559"/>
<polygon fill="none" stroke="midnightblue" points="857.272,-372.198 860.192,-382.383 864.261,-372.6 857.272,-372.198"/>
</g>
<!-- Node12 -->
<g id="node12" class="node"><title>Node12</title>
<polygon fill="none" stroke="#bfbfbf" points="942.5,-215.5 942.5,-272.5 977.5,-272.5 977.5,-215.5 942.5,-215.5"/>
<text text-anchor="middle" x="960" y="-260.5" font-family="Helvetica,sans-Serif" font-size="10.00">Port</text>
<polyline fill="none" stroke="#bfbfbf" points="942.5,-253.5 977.5,-253.5 "/>
<text text-anchor="middle" x="960" y="-241.5" font-family="Helvetica,sans-Serif" font-size="10.00"> </text>
<polyline fill="none" stroke="#bfbfbf" points="942.5,-234.5 977.5,-234.5 "/>
<text text-anchor="middle" x="960" y="-222.5" font-family="Helvetica,sans-Serif" font-size="10.00"> </text>
</g>
<!-- Node12&#45;&gt;Node1 -->
<g id="edge13" class="edge"><title>Node12&#45;&gt;Node1</title>
<path fill="none" stroke="#404040" d="M957.129,-215.226C953.939,-197.42 947.207,-174.928 933,-160 884.724,-109.275 682.048,-74.3923 580.502,-59.7491"/>
<polygon fill="none" stroke="#404040" points="580.224,-59.7096 573.721,-62.8265 568.343,-58.0228 574.845,-54.9059 580.224,-59.7096"/>
<text text-anchor="middle" x="932" y="-128.5" font-family="Helvetica,sans-Serif" font-size="10.00"> &#45;client_port</text>
</g>
</g>
</svg>
