<?xml version="1.0" encoding="UTF-8" standalone="no"?>
<!DOCTYPE svg PUBLIC "-//W3C//DTD SVG 1.1//EN"
 "http://www.w3.org/Graphics/SVG/1.1/DTD/svg11.dtd">
<!-- Generated by graphviz version 2.36.0 (20140111.2315)
 -->
<!-- Title: xsens::XsensSegmentsFrame::Editor Pages: 1 -->
<!--zoomable 786 -->
<svg id="main" version="1.1" xmlns="http://www.w3.org/2000/svg" xmlns:xlink="http://www.w3.org/1999/xlink" xml:space="preserve" onload="init(evt)">
<style type="text/css"><![CDATA[
.edge:hover path { stroke: red; }
.edge:hover polygon { stroke: red; fill: red; }
]]></style>
<script type="text/javascript"><![CDATA[
var edges = document.getElementsByTagName('g');
if (edges && edges.length) {
  for (var i=0;i<edges.length;i++) {
    if (edges[i].id.substr(0,4)=='edge') {
      edges[i].setAttribute('class','edge');
    }
  }
}
]]></script>
        <defs>
                <circle id="rim" cx="0" cy="0" r="7"/>
                <circle id="rim2" cx="0" cy="0" r="3.5"/>
                <g id="zoomPlus">
                        <use xlink:href="#rim" fill="#404040">
                                <set attributeName="fill" to="#808080" begin="zoomplus.mouseover" end="zoomplus.mouseout"/>
                        </use>
                        <path d="M-4,0h8M0,-4v8" fill="none" stroke="white" stroke-width="1.5" pointer-events="none"/>
                </g>
                <g id="zoomMin">
                        <use xlink:href="#rim" fill="#404040">
                                <set attributeName="fill" to="#808080" begin="zoomminus.mouseover" end="zoomminus.mouseout"/>
                        </use>
                        <path d="M-4,0h8" fill="none" stroke="white" stroke-width="1.5" pointer-events="none"/>
                </g>
                <g id="dirArrow">
                        <path fill="none" stroke="white" stroke-width="1.5" d="M0,-3.0v7 M-2.5,-0.5L0,-3.0L2.5,-0.5"/>
                </g>
               <g id="resetDef">
                       <use xlink:href="#rim2" fill="#404040">
                               <set attributeName="fill" to="#808080" begin="reset.mouseover" end="reset.mouseout"/>
                       </use>
               </g>
        </defs>

<script type="text/javascript">
var viewWidth = 479;
var viewHeight = 786;
var sectionId = 'dynsection-1';
</script>
<script xlink:href="svgpan.js"/>
<svg id="graph" class="graph">
<g id="viewport">
<title>xsens::XsensSegmentsFrame::Editor</title>
<!-- Node1 -->
<g id="node1" class="node"><title>Node1</title>
<polygon fill="#bfbfbf" stroke="black" points="10.5,-1 10.5,-289 159.5,-289 159.5,-1 10.5,-1"/>
<text text-anchor="start" x="18.5" y="-277" font-family="Helvetica,sans-Serif" font-size="10.00">xsens::XsensSegmentsFrame</text>
<text text-anchor="middle" x="85" y="-266" font-family="Helvetica,sans-Serif" font-size="10.00">::Editor</text>
<polyline fill="none" stroke="black" points="10.5,-259 159.5,-259 "/>
<text text-anchor="middle" x="85" y="-247" font-family="Helvetica,sans-Serif" font-size="10.00"> </text>
<polyline fill="none" stroke="black" points="10.5,-240 159.5,-240 "/>
<text text-anchor="start" x="18.5" y="-228" font-family="Helvetica,sans-Serif" font-size="10.00">+ Editor()</text>
<text text-anchor="start" x="18.5" y="-217" font-family="Helvetica,sans-Serif" font-size="10.00">+ Editor()</text>
<text text-anchor="start" x="18.5" y="-206" font-family="Helvetica,sans-Serif" font-size="10.00">+ edit()</text>
<text text-anchor="start" x="18.5" y="-195" font-family="Helvetica,sans-Serif" font-size="10.00">+ ~Editor()</text>
<text text-anchor="start" x="18.5" y="-184" font-family="Helvetica,sans-Serif" font-size="10.00">+ isValid()</text>
<text text-anchor="start" x="18.5" y="-173" font-family="Helvetica,sans-Serif" font-size="10.00">+ state()</text>
<text text-anchor="start" x="18.5" y="-162" font-family="Helvetica,sans-Serif" font-size="10.00">+ begin()</text>
<text text-anchor="start" x="18.5" y="-151" font-family="Helvetica,sans-Serif" font-size="10.00">+ end()</text>
<text text-anchor="start" x="18.5" y="-140" font-family="Helvetica,sans-Serif" font-size="10.00">+ set_status()</text>
<text text-anchor="start" x="18.5" y="-129" font-family="Helvetica,sans-Serif" font-size="10.00">+ set_segmentsData()</text>
<text text-anchor="start" x="18.5" y="-118" font-family="Helvetica,sans-Serif" font-size="10.00">and 30 more...</text>
<text text-anchor="start" x="18.5" y="-107" font-family="Helvetica,sans-Serif" font-size="10.00">&#45; communicate()</text>
<text text-anchor="start" x="18.5" y="-96" font-family="Helvetica,sans-Serif" font-size="10.00">&#45; mark_dirty()</text>
<text text-anchor="start" x="18.5" y="-85" font-family="Helvetica,sans-Serif" font-size="10.00">&#45; mark_dirty_status()</text>
<text text-anchor="start" x="18.5" y="-74" font-family="Helvetica,sans-Serif" font-size="10.00">&#45; mark_dirty_segmentsData()</text>
<text text-anchor="start" x="18.5" y="-63" font-family="Helvetica,sans-Serif" font-size="10.00">&#45; dirty_flags()</text>
<text text-anchor="start" x="18.5" y="-52" font-family="Helvetica,sans-Serif" font-size="10.00">&#45; communicate()</text>
<text text-anchor="start" x="18.5" y="-41" font-family="Helvetica,sans-Serif" font-size="10.00">&#45; mark_dirty()</text>
<text text-anchor="start" x="18.5" y="-30" font-family="Helvetica,sans-Serif" font-size="10.00">&#45; mark_dirty_status()</text>
<text text-anchor="start" x="18.5" y="-19" font-family="Helvetica,sans-Serif" font-size="10.00">&#45; mark_dirty_segmentsData()</text>
<text text-anchor="start" x="18.5" y="-8" font-family="Helvetica,sans-Serif" font-size="10.00">&#45; dirty_flags()</text>
</g>
<!-- Node2 -->
<g id="node2" class="node"><title>Node2</title>
<g id="a_node2"><a xlink:href="classyarp_1_1os_1_1_wire.html" target="_top" xlink:title="{Wire\n||}">
<polygon fill="none" stroke="black" points="-0.5,-486.5 -0.5,-543.5 36.5,-543.5 36.5,-486.5 -0.5,-486.5"/>
<text text-anchor="middle" x="18" y="-531.5" font-family="Helvetica,sans-Serif" font-size="10.00">Wire</text>
<polyline fill="none" stroke="black" points="-0.5,-524.5 36.5,-524.5 "/>
<text text-anchor="middle" x="18" y="-512.5" font-family="Helvetica,sans-Serif" font-size="10.00"> </text>
<polyline fill="none" stroke="black" points="-0.5,-505.5 36.5,-505.5 "/>
<text text-anchor="middle" x="18" y="-493.5" font-family="Helvetica,sans-Serif" font-size="10.00"> </text>
</a>
</g>
</g>
<!-- Node2&#45;&gt;Node1 -->
<g id="edge1" class="edge"><title>Node2&#45;&gt;Node1</title>
<path fill="none" stroke="midnightblue" d="M20.5581,-476.389C26.5213,-432.411 39.4799,-357.003 52.3045,-289.324"/>
<polygon fill="none" stroke="midnightblue" points="17.083,-475.972 19.2625,-486.34 24.0244,-476.876 17.083,-475.972"/>
</g>
<!-- Node2&#45;&gt;Node1 -->
<g id="edge3" class="edge"><title>Node2&#45;&gt;Node1</title>
<path fill="none" stroke="midnightblue" d="M29.1371,-476.389C39.1876,-432.411 53.6874,-357.003 65.5069,-289.324"/>
<polygon fill="none" stroke="midnightblue" points="25.6791,-475.806 26.8093,-486.34 32.4951,-477.4 25.6791,-475.806"/>
</g>
<!-- Node3 -->
<g id="node3" class="node"><title>Node3</title>
<g id="a_node3"><a xlink:href="classyarp_1_1os_1_1_port_writer.html" target="_top" xlink:title="{PortWriter\n||}">
<polygon fill="none" stroke="black" points="54.5,-486.5 54.5,-543.5 115.5,-543.5 115.5,-486.5 54.5,-486.5"/>
<text text-anchor="middle" x="85" y="-531.5" font-family="Helvetica,sans-Serif" font-size="10.00">PortWriter</text>
<polyline fill="none" stroke="black" points="54.5,-524.5 115.5,-524.5 "/>
<text text-anchor="middle" x="85" y="-512.5" font-family="Helvetica,sans-Serif" font-size="10.00"> </text>
<polyline fill="none" stroke="black" points="54.5,-505.5 115.5,-505.5 "/>
<text text-anchor="middle" x="85" y="-493.5" font-family="Helvetica,sans-Serif" font-size="10.00"> </text>
</a>
</g>
</g>
<!-- Node3&#45;&gt;Node1 -->
<g id="edge2" class="edge"><title>Node3&#45;&gt;Node1</title>
<path fill="none" stroke="midnightblue" d="M80.6976,-476.111C78.6636,-432.093 77.8973,-356.86 78.3988,-289.324"/>
<polygon fill="none" stroke="midnightblue" points="77.2148,-476.534 81.2266,-486.34 84.2054,-476.173 77.2148,-476.534"/>
</g>
<!-- Node3&#45;&gt;Node1 -->
<g id="edge4" class="edge"><title>Node3&#45;&gt;Node1</title>
<path fill="none" stroke="midnightblue" d="M89.3024,-476.111C91.3364,-432.093 92.1027,-356.86 91.6012,-289.324"/>
<polygon fill="none" stroke="midnightblue" points="85.7946,-476.173 88.7734,-486.34 92.7852,-476.534 85.7946,-476.173"/>
</g>
<!-- Node4 -->
<g id="node4" class="node"><title>Node4</title>
<g id="a_node4"><a xlink:href="classxsens_1_1_xsens_segments_frame.html" target="_top" xlink:title="{xsens::XsensSegmentsFrame\n||+ XsensSegmentsFrame()\l+ XsensSegmentsFrame()\l+ XsensSegmentsFrame()\l+ operator=()\l+ read()\l+ read()\l+ write()\l+ write()\l+ toString()\l+ XsensSegmentsFrame()\land 8 more...\l&#45; write_status()\l&#45; nested_write_status()\l&#45; write_segmentsData()\l&#45; nested_write_segmentsData()\l&#45; read_status()\l&#45; nested_read_status()\l&#45; read_segmentsData()\l&#45; nested_read_segmentsData()\l&#45; write_status()\l&#45; nested_write_status()\land 6 more...\l}">
<polygon fill="none" stroke="black" points="133.5,-371 133.5,-659 286.5,-659 286.5,-371 133.5,-371"/>
<text text-anchor="middle" x="210" y="-647" font-family="Helvetica,sans-Serif" font-size="10.00">xsens::XsensSegmentsFrame</text>
<polyline fill="none" stroke="black" points="133.5,-640 286.5,-640 "/>
<text text-anchor="middle" x="210" y="-628" font-family="Helvetica,sans-Serif" font-size="10.00"> </text>
<polyline fill="none" stroke="black" points="133.5,-621 286.5,-621 "/>
<text text-anchor="start" x="141.5" y="-609" font-family="Helvetica,sans-Serif" font-size="10.00">+ XsensSegmentsFrame()</text>
<text text-anchor="start" x="141.5" y="-598" font-family="Helvetica,sans-Serif" font-size="10.00">+ XsensSegmentsFrame()</text>
<text text-anchor="start" x="141.5" y="-587" font-family="Helvetica,sans-Serif" font-size="10.00">+ XsensSegmentsFrame()</text>
<text text-anchor="start" x="141.5" y="-576" font-family="Helvetica,sans-Serif" font-size="10.00">+ operator=()</text>
<text text-anchor="start" x="141.5" y="-565" font-family="Helvetica,sans-Serif" font-size="10.00">+ read()</text>
<text text-anchor="start" x="141.5" y="-554" font-family="Helvetica,sans-Serif" font-size="10.00">+ read()</text>
<text text-anchor="start" x="141.5" y="-543" font-family="Helvetica,sans-Serif" font-size="10.00">+ write()</text>
<text text-anchor="start" x="141.5" y="-532" font-family="Helvetica,sans-Serif" font-size="10.00">+ write()</text>
<text text-anchor="start" x="141.5" y="-521" font-family="Helvetica,sans-Serif" font-size="10.00">+ toString()</text>
<text text-anchor="start" x="141.5" y="-510" font-family="Helvetica,sans-Serif" font-size="10.00">+ XsensSegmentsFrame()</text>
<text text-anchor="start" x="141.5" y="-499" font-family="Helvetica,sans-Serif" font-size="10.00">and 8 more...</text>
<text text-anchor="start" x="141.5" y="-488" font-family="Helvetica,sans-Serif" font-size="10.00">&#45; write_status()</text>
<text text-anchor="start" x="141.5" y="-477" font-family="Helvetica,sans-Serif" font-size="10.00">&#45; nested_write_status()</text>
<text text-anchor="start" x="141.5" y="-466" font-family="Helvetica,sans-Serif" font-size="10.00">&#45; write_segmentsData()</text>
<text text-anchor="start" x="141.5" y="-455" font-family="Helvetica,sans-Serif" font-size="10.00">&#45; nested_write_segmentsData()</text>
<text text-anchor="start" x="141.5" y="-444" font-family="Helvetica,sans-Serif" font-size="10.00">&#45; read_status()</text>
<text text-anchor="start" x="141.5" y="-433" font-family="Helvetica,sans-Serif" font-size="10.00">&#45; nested_read_status()</text>
<text text-anchor="start" x="141.5" y="-422" font-family="Helvetica,sans-Serif" font-size="10.00">&#45; read_segmentsData()</text>
<text text-anchor="start" x="141.5" y="-411" font-family="Helvetica,sans-Serif" font-size="10.00">&#45; nested_read_segmentsData()</text>
<text text-anchor="start" x="141.5" y="-400" font-family="Helvetica,sans-Serif" font-size="10.00">&#45; write_status()</text>
<text text-anchor="start" x="141.5" y="-389" font-family="Helvetica,sans-Serif" font-size="10.00">&#45; nested_write_status()</text>
<text text-anchor="start" x="141.5" y="-378" font-family="Helvetica,sans-Serif" font-size="10.00">and 6 more...</text>
</a>
</g>
</g>
<!-- Node4&#45;&gt;Node1 -->
<g id="edge5" class="edge"><title>Node4&#45;&gt;Node1</title>
<path fill="none" stroke="#404040" d="M161.403,-370.931C153.564,-347.852 145.417,-323.868 137.491,-300.533"/>
<polygon fill="none" stroke="#404040" points="137.479,-300.498 131.762,-296.104 133.62,-289.136 139.337,-293.531 137.479,-300.498"/>
<text text-anchor="middle" x="161.5" y="-327.5" font-family="Helvetica,sans-Serif" font-size="10.00"> &#45;obj</text>
</g>
<!-- Node5 -->
<g id="node5" class="node"><title>Node5</title>
<g id="a_node5"><a xlink:href="classyarp_1_1os_1_1idl_1_1_wire_portable.html" target="_top" xlink:title="{WirePortable\n||}">
<polygon fill="none" stroke="black" points="75.5,-714.5 75.5,-771.5 148.5,-771.5 148.5,-714.5 75.5,-714.5"/>
<text text-anchor="middle" x="112" y="-759.5" font-family="Helvetica,sans-Serif" font-size="10.00">WirePortable</text>
<polyline fill="none" stroke="black" points="75.5,-752.5 148.5,-752.5 "/>
<text text-anchor="middle" x="112" y="-740.5" font-family="Helvetica,sans-Serif" font-size="10.00"> </text>
<polyline fill="none" stroke="black" points="75.5,-733.5 148.5,-733.5 "/>
<text text-anchor="middle" x="112" y="-721.5" font-family="Helvetica,sans-Serif" font-size="10.00"> </text>
</a>
</g>
</g>
<!-- Node5&#45;&gt;Node4 -->
<g id="edge6" class="edge"><title>Node5&#45;&gt;Node4</title>
<path fill="none" stroke="midnightblue" d="M123,-704.723C128.055,-691.531 134.426,-675.787 141.416,-659.099"/>
<polygon fill="none" stroke="midnightblue" points="119.647,-703.696 119.402,-714.288 126.199,-706.16 119.647,-703.696"/>
</g>
<!-- Node5&#45;&gt;Node4 -->
<g id="edge7" class="edge"><title>Node5&#45;&gt;Node4</title>
<path fill="none" stroke="midnightblue" d="M133.141,-705.111C139.572,-691.839 146.924,-675.951 154.481,-659.099"/>
<polygon fill="none" stroke="midnightblue" points="129.9,-703.769 128.631,-714.288 136.183,-706.857 129.9,-703.769"/>
</g>
<!-- Node6 -->
<g id="node6" class="node"><title>Node6</title>
<polygon fill="none" stroke="#bfbfbf" points="167,-709 167,-777 319,-777 319,-709 167,-709"/>
<text text-anchor="start" x="175" y="-765" font-family="Helvetica,sans-Serif" font-size="10.00">vector&lt; xsens::XsensSegment</text>
<text text-anchor="middle" x="243" y="-754" font-family="Helvetica,sans-Serif" font-size="10.00">Data &gt;</text>
<polyline fill="none" stroke="#bfbfbf" points="167,-747 319,-747 "/>
<text text-anchor="middle" x="243" y="-735" font-family="Helvetica,sans-Serif" font-size="10.00"> </text>
<polyline fill="none" stroke="#bfbfbf" points="167,-728 319,-728 "/>
<text text-anchor="middle" x="243" y="-716" font-family="Helvetica,sans-Serif" font-size="10.00"> </text>
</g>
<!-- Node6&#45;&gt;Node4 -->
<g id="edge8" class="edge"><title>Node6&#45;&gt;Node4</title>
<path fill="none" stroke="#404040" d="M238.131,-708.653C236.564,-697.922 234.712,-685.241 232.719,-671.588"/>
<polygon fill="none" stroke="#404040" points="232.668,-671.239 227.843,-665.879 230.934,-659.364 235.759,-664.724 232.668,-671.239"/>
<text text-anchor="middle" x="272.5" y="-681.5" font-family="Helvetica,sans-Serif" font-size="10.00"> +segmentsData</text>
</g>
<!-- Node7 -->
<g id="node7" class="node"><title>Node7</title>
<polygon fill="none" stroke="#bfbfbf" points="337.5,-714.5 337.5,-771.5 410.5,-771.5 410.5,-714.5 337.5,-714.5"/>
<text text-anchor="middle" x="374" y="-759.5" font-family="Helvetica,sans-Serif" font-size="10.00">XsensStatus</text>
<polyline fill="none" stroke="#bfbfbf" points="337.5,-752.5 410.5,-752.5 "/>
<text text-anchor="middle" x="374" y="-740.5" font-family="Helvetica,sans-Serif" font-size="10.00"> </text>
<polyline fill="none" stroke="#bfbfbf" points="337.5,-733.5 410.5,-733.5 "/>
<text text-anchor="middle" x="374" y="-721.5" font-family="Helvetica,sans-Serif" font-size="10.00"> </text>
</g>
<!-- Node7&#45;&gt;Node4 -->
<g id="edge9" class="edge"><title>Node7&#45;&gt;Node4</title>
<path fill="none" stroke="#404040" d="M348.021,-714.455C337.247,-703.106 324.581,-689.862 313,-678 305.097,-669.905 301.931,-668.942 295,-660 294.644,-659.541 294.289,-659.081 293.934,-658.618"/>
<polygon fill="none" stroke="#404040" points="293.715,-658.324 286.922,-655.904 286.543,-648.702 293.336,-651.123 293.715,-658.324"/>
<text text-anchor="middle" x="342.5" y="-681.5" font-family="Helvetica,sans-Serif" font-size="10.00"> +status</text>
</g>
<!-- Node8 -->
<g id="node8" class="node"><title>Node8</title>
<polygon fill="none" stroke="#bfbfbf" points="304.5,-486.5 304.5,-543.5 333.5,-543.5 333.5,-486.5 304.5,-486.5"/>
<text text-anchor="middle" x="319" y="-531.5" font-family="Helvetica,sans-Serif" font-size="10.00">int</text>
<polyline fill="none" stroke="#bfbfbf" points="304.5,-524.5 333.5,-524.5 "/>
<text text-anchor="middle" x="319" y="-512.5" font-family="Helvetica,sans-Serif" font-size="10.00"> </text>
<polyline fill="none" stroke="#bfbfbf" points="304.5,-505.5 333.5,-505.5 "/>
<text text-anchor="middle" x="319" y="-493.5" font-family="Helvetica,sans-Serif" font-size="10.00"> </text>
</g>
<!-- Node8&#45;&gt;Node1 -->
<g id="edge10" class="edge"><title>Node8&#45;&gt;Node1</title>
<path fill="none" stroke="#404040" d="M319.075,-486.286C318.118,-456.175 313.477,-407.374 295,-370 265.052,-309.424 213.27,-253.915 168.622,-213.307"/>
<polygon fill="none" stroke="#404040" points="168.438,-213.142 161.3,-212.114 159.505,-205.13 166.642,-206.158 168.438,-213.142"/>
<text text-anchor="middle" x="311.5" y="-333" font-family="Helvetica,sans-Serif" font-size="10.00"> &#45;dirty_count</text>
<text text-anchor="middle" x="311.5" y="-322" font-family="Helvetica,sans-Serif" font-size="10.00">&#45;group</text>
</g>
<!-- Node9 -->
<g id="node9" class="node"><title>Node9</title>
<polygon fill="none" stroke="#bfbfbf" points="365.5,-486.5 365.5,-543.5 400.5,-543.5 400.5,-486.5 365.5,-486.5"/>
<text text-anchor="middle" x="383" y="-531.5" font-family="Helvetica,sans-Serif" font-size="10.00">bool</text>
<polyline fill="none" stroke="#bfbfbf" points="365.5,-524.5 400.5,-524.5 "/>
<text text-anchor="middle" x="383" y="-512.5" font-family="Helvetica,sans-Serif" font-size="10.00"> </text>
<polyline fill="none" stroke="#bfbfbf" points="365.5,-505.5 400.5,-505.5 "/>
<text text-anchor="middle" x="383" y="-493.5" font-family="Helvetica,sans-Serif" font-size="10.00"> </text>
</g>
<!-- Node9&#45;&gt;Node1 -->
<g id="edge11" class="edge"><title>Node9&#45;&gt;Node1</title>
<path fill="none" stroke="#404040" d="M384.298,-486.369C384.916,-444.182 380.594,-362.839 343,-308 301.366,-247.268 228.714,-204.681 171.092,-178.464"/>
<polygon fill="none" stroke="#404040" points="170.748,-178.311 163.641,-179.53 159.782,-173.438 166.89,-172.219 170.748,-178.311"/>
<text text-anchor="middle" x="417.5" y="-344" font-family="Helvetica,sans-Serif" font-size="10.00"> &#45;is_dirty_segmentsData</text>
<text text-anchor="middle" x="417.5" y="-333" font-family="Helvetica,sans-Serif" font-size="10.00">&#45;is_dirty_status</text>
<text text-anchor="middle" x="417.5" y="-322" font-family="Helvetica,sans-Serif" font-size="10.00">&#45;is_dirty</text>
<text text-anchor="middle" x="417.5" y="-311" font-family="Helvetica,sans-Serif" font-size="10.00">&#45;obj_owned</text>
</g>
</g>
</svg>
        <g id="navigator" transform="translate(0 0)" fill="#404254">
                <rect fill="#f2f5e9" fill-opacity="0.5" stroke="#606060" stroke-width=".5" x="0" y="0" width="60" height="60"/>
                <use id="zoomplus" xlink:href="#zoomPlus" x="17" y="9" onmousedown="handleZoom(evt,'in')"/>
                <use id="zoomminus" xlink:href="#zoomMin" x="42" y="9" onmousedown="handleZoom(evt,'out')"/>
                <use id="reset" xlink:href="#resetDef" x="30" y="36" onmousedown="handleReset()"/>
                <g id="arrowUp" xlink:href="#dirArrow" transform="translate(30 24)" onmousedown="handlePan(0,-1)">
                  <use xlink:href="#rim" fill="#404040">
                        <set attributeName="fill" to="#808080" begin="arrowUp.mouseover" end="arrowUp.mouseout"/>
                  </use>
                  <path fill="none" stroke="white" stroke-width="1.5" d="M0,-3.0v7 M-2.5,-0.5L0,-3.0L2.5,-0.5"/>
                </g>
                <g id="arrowRight" xlink:href="#dirArrow" transform="rotate(90) translate(36 -43)" onmousedown="handlePan(1,0)">
                  <use xlink:href="#rim" fill="#404040">
                        <set attributeName="fill" to="#808080" begin="arrowRight.mouseover" end="arrowRight.mouseout"/>
                  </use>
                  <path fill="none" stroke="white" stroke-width="1.5" d="M0,-3.0v7 M-2.5,-0.5L0,-3.0L2.5,-0.5"/>
                </g>
                <g id="arrowDown" xlink:href="#dirArrow" transform="rotate(180) translate(-30 -48)" onmousedown="handlePan(0,1)">
                  <use xlink:href="#rim" fill="#404040">
                        <set attributeName="fill" to="#808080" begin="arrowDown.mouseover" end="arrowDown.mouseout"/>
                  </use>
                  <path fill="none" stroke="white" stroke-width="1.5" d="M0,-3.0v7 M-2.5,-0.5L0,-3.0L2.5,-0.5"/>
                </g>
                <g id="arrowLeft" xlink:href="#dirArrow" transform="rotate(270) translate(-36 17)" onmousedown="handlePan(-1,0)">
                  <use xlink:href="#rim" fill="#404040">
                        <set attributeName="fill" to="#808080" begin="arrowLeft.mouseover" end="arrowLeft.mouseout"/>
                  </use>
                  <path fill="none" stroke="white" stroke-width="1.5" d="M0,-3.0v7 M-2.5,-0.5L0,-3.0L2.5,-0.5"/>
                </g>
        </g>
        <svg viewBox="0 0 15 15" width="100%" height="30px" preserveAspectRatio="xMaxYMin meet">
         <g id="arrow_out" transform="scale(0.3 0.3)">
          <a xlink:href="classxsens_1_1_xsens_segments_frame_1_1_editor__coll__graph_org.svg" target="_base">
           <rect id="button" ry="5" rx="5" y="6" x="6" height="38" width="38"
                fill="#f2f5e9" fill-opacity="0.5" stroke="#606060" stroke-width="1.0"/>
           <path id="arrow"
             d="M 11.500037,31.436501 C 11.940474,20.09759 22.043105,11.32322 32.158766,21.979434 L 37.068811,17.246167 C 37.068811,17.246167 37.088388,32 37.088388,32 L 22.160133,31.978069 C 22.160133,31.978069 26.997745,27.140456 26.997745,27.140456 C 18.528582,18.264221 13.291696,25.230495 11.500037,31.436501 z"
             style="fill:#404040;"/>
          </a>
         </g>
        </svg>
</svg>
