<?xml version="1.0" encoding="UTF-8" standalone="no"?>
<!DOCTYPE svg PUBLIC "-//W3C//DTD SVG 1.1//EN"
 "http://www.w3.org/Graphics/SVG/1.1/DTD/svg11.dtd">
<!-- Generated by graphviz version 2.36.0 (20140111.2315)
 -->
<!-- Title: /home/travis/build/robotology/human&#45;dynamics&#45;estimation/human&#45;state&#45;provider/src Pages: 1 -->
<svg width="152pt" height="295pt"
 viewBox="0.00 0.00 152.00 295.00" xmlns="http://www.w3.org/2000/svg" xmlns:xlink="http://www.w3.org/1999/xlink">
<g id="graph0" class="graph" transform="scale(1 1) rotate(0) translate(4 291)">
<title>/home/travis/build/robotology/human&#45;dynamics&#45;estimation/human&#45;state&#45;provider/src</title>
<g id="clust1" class="cluster"><title>clusterdir_f7cdf6a76c900ccaf2b76cb1d807761c</title>
<g id="a_clust1"><a xlink:href="dir_f7cdf6a76c900ccaf2b76cb1d807761c.html" target="_top" xlink:title="human&#45;state&#45;provider">
<polygon fill="#ddddee" stroke="black" points="28,-208 28,-279 136,-279 136,-208 28,-208"/>
<text text-anchor="middle" x="82" y="-267" font-family="Helvetica,sans-Serif" font-size="10.00">human&#45;state&#45;provider</text>
</a>
</g>
</g>
<!-- dir_b7fd2004e8e553417ddcb75d2be5ed12 -->
<g id="node1" class="node"><title>dir_b7fd2004e8e553417ddcb75d2be5ed12</title>
<g id="a_node1"><a xlink:href="dir_b7fd2004e8e553417ddcb75d2be5ed12.html" target="_top" xlink:title="src">
<polygon fill="#eeeeff" stroke="black" points="109,-252 55,-252 55,-216 109,-216 109,-252"/>
<text text-anchor="middle" x="82" y="-231.5" font-family="Helvetica,sans-Serif" font-size="10.00">src</text>
</a>
</g>
</g>
<!-- dir_92750c5906190cfd5685208e117eb963 -->
<g id="node2" class="node"><title>dir_92750c5906190cfd5685208e117eb963</title>
<g id="a_node2"><a xlink:href="dir_92750c5906190cfd5685208e117eb963.html" target="_top" xlink:title="include">
<polygon fill="none" stroke="red" points="54,-180 0,-180 0,-144 54,-144 54,-180"/>
<text text-anchor="middle" x="27" y="-159.5" font-family="Helvetica,sans-Serif" font-size="10.00">include</text>
</a>
</g>
</g>
<!-- dir_b7fd2004e8e553417ddcb75d2be5ed12&#45;&gt;dir_92750c5906190cfd5685208e117eb963 -->
<g id="edge3" class="edge"><title>dir_b7fd2004e8e553417ddcb75d2be5ed12&#45;&gt;dir_92750c5906190cfd5685208e117eb963</title>
<path fill="none" stroke="black" d="M68.4045,-215.697C61.8773,-207.389 53.932,-197.277 46.7534,-188.141"/>
<polygon fill="black" stroke="black" points="49.3695,-185.805 40.4391,-180.104 43.8653,-190.13 49.3695,-185.805"/>
<g id="a_edge3&#45;headlabel"><a xlink:href="dir_000071_000073.html" target="_top" xlink:title="8">
<text text-anchor="middle" x="53.8229" y="-184.377" font-family="Helvetica,sans-Serif" font-size="10.00">8</text>
</a>
</g>
</g>
<!-- dir_4fef79e7177ba769987a8da36c892c5f -->
<g id="node3" class="node"><title>dir_4fef79e7177ba769987a8da36c892c5f</title>
<g id="a_node3"><a xlink:href="dir_4fef79e7177ba769987a8da36c892c5f.html" target="_top" xlink:title="build">
<polygon fill="none" stroke="red" points="90,-36 36,-36 36,-0 90,-0 90,-36"/>
<text text-anchor="middle" x="63" y="-15.5" font-family="Helvetica,sans-Serif" font-size="10.00">build</text>
</a>
</g>
</g>
<!-- dir_b7fd2004e8e553417ddcb75d2be5ed12&#45;&gt;dir_4fef79e7177ba769987a8da36c892c5f -->
<g id="edge4" class="edge"><title>dir_b7fd2004e8e553417ddcb75d2be5ed12&#45;&gt;dir_4fef79e7177ba769987a8da36c892c5f</title>
<path fill="none" stroke="black" d="M92.9012,-215.914C110.636,-185.802 141.68,-121.762 120,-72 115.067,-60.6765 106.389,-50.6824 97.2708,-42.5119"/>
<polygon fill="black" stroke="black" points="99.4987,-39.8124 89.5799,-36.0884 95.0115,-45.185 99.4987,-39.8124"/>
<g id="a_edge4&#45;headlabel"><a xlink:href="dir_000071_000000.html" target="_top" xlink:title="2">
<text text-anchor="middle" x="104.078" y="-37.4374" font-family="Helvetica,sans-Serif" font-size="10.00">2</text>
</a>
</g>
</g>
<!-- dir_86293029b285126631b92f7fc162dc0c -->
<g id="node4" class="node"><title>dir_86293029b285126631b92f7fc162dc0c</title>
<g id="a_node4"><a xlink:href="dir_86293029b285126631b92f7fc162dc0c.html" target="_top" xlink:title="inverse&#45;kinematics">
<polygon fill="none" stroke="red" points="111.5,-108 14.5,-108 14.5,-72 111.5,-72 111.5,-108"/>
<text text-anchor="middle" x="63" y="-87.5" font-family="Helvetica,sans-Serif" font-size="10.00">inverse&#45;kinematics</text>
</a>
</g>
</g>
<!-- dir_b7fd2004e8e553417ddcb75d2be5ed12&#45;&gt;dir_86293029b285126631b92f7fc162dc0c -->
<g id="edge5" class="edge"><title>dir_b7fd2004e8e553417ddcb75d2be5ed12&#45;&gt;dir_86293029b285126631b92f7fc162dc0c</title>
<path fill="none" stroke="black" d="M79.7082,-215.871C76.47,-191.67 70.5212,-147.211 66.6653,-118.393"/>
<polygon fill="black" stroke="black" points="70.0953,-117.637 65.3,-108.189 63.1572,-118.565 70.0953,-117.637"/>
<g id="a_edge5&#45;headlabel"><a xlink:href="dir_000071_000077.html" target="_top" xlink:title="2">
<text text-anchor="middle" x="73.3862" y="-118.323" font-family="Helvetica,sans-Serif" font-size="10.00">2</text>
</a>
</g>
</g>
<!-- dir_92750c5906190cfd5685208e117eb963&#45;&gt;dir_4fef79e7177ba769987a8da36c892c5f -->
<g id="edge1" class="edge"><title>dir_92750c5906190cfd5685208e117eb963&#45;&gt;dir_4fef79e7177ba769987a8da36c892c5f</title>
<path fill="none" stroke="black" d="M16.2559,-143.696C6.31542,-125.33 -5.46519,-95.7395 5,-72 10.0294,-60.5912 18.8616,-50.5727 28.1398,-42.4061"/>
<polygon fill="black" stroke="black" points="30.4497,-45.0382 35.9646,-35.9919 26.012,-39.6246 30.4497,-45.0382"/>
<g id="a_edge1&#45;headlabel"><a xlink:href="dir_000073_000000.html" target="_top" xlink:title="2">
<text text-anchor="middle" x="29.4697" y="-47.0128" font-family="Helvetica,sans-Serif" font-size="10.00">2</text>
</a>
</g>
</g>
<!-- dir_92750c5906190cfd5685208e117eb963&#45;&gt;dir_86293029b285126631b92f7fc162dc0c -->
<g id="edge2" class="edge"><title>dir_92750c5906190cfd5685208e117eb963&#45;&gt;dir_86293029b285126631b92f7fc162dc0c</title>
<path fill="none" stroke="black" d="M35.8989,-143.697C39.9968,-135.728 44.9488,-126.1 49.4927,-117.264"/>
<polygon fill="black" stroke="black" points="52.7425,-118.598 54.2035,-108.104 46.5174,-115.396 52.7425,-118.598"/>
<g id="a_edge2&#45;headlabel"><a xlink:href="dir_000073_000077.html" target="_top" xlink:title="1">
<text text-anchor="middle" x="53.6235" y="-120.593" font-family="Helvetica,sans-Serif" font-size="10.00">1</text>
</a>
</g>
</g>
<!-- dir_86293029b285126631b92f7fc162dc0c&#45;&gt;dir_4fef79e7177ba769987a8da36c892c5f -->
<g id="edge6" class="edge"><title>dir_86293029b285126631b92f7fc162dc0c&#45;&gt;dir_4fef79e7177ba769987a8da36c892c5f</title>
<path fill="none" stroke="black" d="M63,-71.6966C63,-63.9827 63,-54.7125 63,-46.1124"/>
<polygon fill="black" stroke="black" points="66.5001,-46.1043 63,-36.1043 59.5001,-46.1044 66.5001,-46.1043"/>
<g id="a_edge6&#45;headlabel"><a xlink:href="dir_000077_000000.html" target="_top" xlink:title="2">
<text text-anchor="middle" x="69.3393" y="-47.199" font-family="Helvetica,sans-Serif" font-size="10.00">2</text>
</a>
</g>
</g>
</g>
</svg>
