<?xml version="1.0" encoding="UTF-8" standalone="no"?>
<!DOCTYPE svg PUBLIC "-//W3C//DTD SVG 1.1//EN"
 "http://www.w3.org/Graphics/SVG/1.1/DTD/svg11.dtd">
<!-- Generated by graphviz version 2.36.0 (20140111.2315)
 -->
<!-- Title: /home/travis/build/robotology/human&#45;dynamics&#45;estimation/human&#45;forces&#45;provider/src Pages: 1 -->
<svg width="137pt" height="223pt"
 viewBox="0.00 0.00 137.00 223.00" xmlns="http://www.w3.org/2000/svg" xmlns:xlink="http://www.w3.org/1999/xlink">
<g id="graph0" class="graph" transform="scale(1 1) rotate(0) translate(4 219)">
<title>/home/travis/build/robotology/human&#45;dynamics&#45;estimation/human&#45;forces&#45;provider/src</title>
<g id="clust1" class="cluster"><title>clusterdir_9aeabf4b45d2a7e2ec56e7f8c250cd5d</title>
<g id="a_clust1"><a xlink:href="dir_9aeabf4b45d2a7e2ec56e7f8c250cd5d.html" target="_top" xlink:title="human&#45;forces&#45;provider">
<polygon fill="#ddddee" stroke="black" points="8,-136 8,-207 121,-207 121,-136 8,-136"/>
<text text-anchor="middle" x="64.5" y="-195" font-family="Helvetica,sans-Serif" font-size="10.00">human&#45;forces&#45;provider</text>
</a>
</g>
</g>
<!-- dir_c133bf4f266bc23f3ac9b31542a725cc -->
<g id="node1" class="node"><title>dir_c133bf4f266bc23f3ac9b31542a725cc</title>
<g id="a_node1"><a xlink:href="dir_c133bf4f266bc23f3ac9b31542a725cc.html" target="_top" xlink:title="src">
<polygon fill="#eeeeff" stroke="black" points="91,-180 37,-180 37,-144 91,-144 91,-180"/>
<text text-anchor="middle" x="64" y="-159.5" font-family="Helvetica,sans-Serif" font-size="10.00">src</text>
</a>
</g>
</g>
<!-- dir_4fef79e7177ba769987a8da36c892c5f -->
<g id="node2" class="node"><title>dir_4fef79e7177ba769987a8da36c892c5f</title>
<g id="a_node2"><a xlink:href="dir_4fef79e7177ba769987a8da36c892c5f.html" target="_top" xlink:title="build">
<polygon fill="none" stroke="red" points="91,-36 37,-36 37,-0 91,-0 91,-36"/>
<text text-anchor="middle" x="64" y="-15.5" font-family="Helvetica,sans-Serif" font-size="10.00">build</text>
</a>
</g>
</g>
<!-- dir_c133bf4f266bc23f3ac9b31542a725cc&#45;&gt;dir_4fef79e7177ba769987a8da36c892c5f -->
<g id="edge2" class="edge"><title>dir_c133bf4f266bc23f3ac9b31542a725cc&#45;&gt;dir_4fef79e7177ba769987a8da36c892c5f</title>
<path fill="none" stroke="black" d="M60.7517,-143.888C58.9542,-133.542 56.9053,-120.063 56,-108 54.8026,-92.0449 54.8026,-87.9551 56,-72 56.6366,-63.5179 57.8384,-54.3361 59.1208,-46.0356"/>
<polygon fill="black" stroke="black" points="62.5836,-46.5472 60.7517,-36.1119 55.6763,-45.412 62.5836,-46.5472"/>
<g id="a_edge2&#45;headlabel"><a xlink:href="dir_000069_000000.html" target="_top" xlink:title="1">
<text text-anchor="middle" x="64.8024" y="-48.0546" font-family="Helvetica,sans-Serif" font-size="10.00">1</text>
</a>
</g>
</g>
<!-- dir_7e0969b740bab7931205ebe7abc54660 -->
<g id="node3" class="node"><title>dir_7e0969b740bab7931205ebe7abc54660</title>
<g id="a_node3"><a xlink:href="dir_7e0969b740bab7931205ebe7abc54660.html" target="_top" xlink:title="include">
<polygon fill="none" stroke="black" points="119,-108 65,-108 65,-72 119,-72 119,-108"/>
<text text-anchor="middle" x="92" y="-87.5" font-family="Helvetica,sans-Serif" font-size="10.00">include</text>
</a>
</g>
</g>
<!-- dir_c133bf4f266bc23f3ac9b31542a725cc&#45;&gt;dir_7e0969b740bab7931205ebe7abc54660 -->
<g id="edge3" class="edge"><title>dir_c133bf4f266bc23f3ac9b31542a725cc&#45;&gt;dir_7e0969b740bab7931205ebe7abc54660</title>
<path fill="none" stroke="black" d="M70.9214,-143.697C74.0747,-135.813 77.8783,-126.304 81.3814,-117.546"/>
<polygon fill="black" stroke="black" points="84.694,-118.689 85.1583,-108.104 78.1946,-116.089 84.694,-118.689"/>
<g id="a_edge3&#45;headlabel"><a xlink:href="dir_000069_000072.html" target="_top" xlink:title="17">
<text text-anchor="middle" x="85.9952" y="-120.581" font-family="Helvetica,sans-Serif" font-size="10.00">17</text>
</a>
</g>
</g>
<!-- dir_7e0969b740bab7931205ebe7abc54660&#45;&gt;dir_4fef79e7177ba769987a8da36c892c5f -->
<g id="edge1" class="edge"><title>dir_7e0969b740bab7931205ebe7abc54660&#45;&gt;dir_4fef79e7177ba769987a8da36c892c5f</title>
<path fill="none" stroke="black" d="M85.0786,-71.6966C81.9253,-63.8132 78.1217,-54.3042 74.6186,-45.5464"/>
<polygon fill="black" stroke="black" points="77.8054,-44.0892 70.8417,-36.1043 71.306,-46.689 77.8054,-44.0892"/>
<g id="a_edge1&#45;headlabel"><a xlink:href="dir_000072_000000.html" target="_top" xlink:title="3">
<text text-anchor="middle" x="81.7765" y="-43.8723" font-family="Helvetica,sans-Serif" font-size="10.00">3</text>
</a>
</g>
</g>
</g>
</svg>
