<?xml version="1.0" encoding="UTF-8" standalone="no"?>
<!DOCTYPE svg PUBLIC "-//W3C//DTD SVG 1.1//EN"
 "http://www.w3.org/Graphics/SVG/1.1/DTD/svg11.dtd">
<!-- Generated by graphviz version 2.36.0 (20140111.2315)
 -->
<!-- Title: /home/travis/build/robotology/human&#45;dynamics&#45;estimation/human&#45;state&#45;provider/include Pages: 1 -->
<svg width="182pt" height="231pt"
 viewBox="0.00 0.00 182.00 231.00" xmlns="http://www.w3.org/2000/svg" xmlns:xlink="http://www.w3.org/1999/xlink">
<g id="graph0" class="graph" transform="scale(1 1) rotate(0) translate(4 227)">
<title>/home/travis/build/robotology/human&#45;dynamics&#45;estimation/human&#45;state&#45;provider/include</title>
<g id="clust1" class="cluster"><title>clusterdir_f7cdf6a76c900ccaf2b76cb1d807761c</title>
<g id="a_clust1"><a xlink:href="dir_f7cdf6a76c900ccaf2b76cb1d807761c.html" target="_top" xlink:title="human&#45;state&#45;provider">
<polygon fill="#ddddee" stroke="black" points="8,-128 8,-215 166,-215 166,-128 8,-128"/>
<text text-anchor="middle" x="87" y="-203" font-family="Helvetica,sans-Serif" font-size="10.00">human&#45;state&#45;provider</text>
</a>
</g>
</g>
<g id="clust2" class="cluster"><title>clusterdir_92750c5906190cfd5685208e117eb963</title>
<g id="a_clust2"><a xlink:href="dir_92750c5906190cfd5685208e117eb963.html" target="_top">
<polygon fill="#eeeeff" stroke="black" points="16,-136 16,-188 158,-188 158,-136 16,-136"/>
</a>
</g>
</g>
<!-- dir_92750c5906190cfd5685208e117eb963 -->
<g id="node1" class="node"><title>dir_92750c5906190cfd5685208e117eb963</title>
<text text-anchor="middle" x="123" y="-159.5" font-family="Helvetica,sans-Serif" font-size="10.00">include</text>
</g>
<!-- dir_b79e7d77f4784f7b8cf201a03d2cd1cb -->
<g id="node2" class="node"><title>dir_b79e7d77f4784f7b8cf201a03d2cd1cb</title>
<g id="a_node2"><a xlink:href="dir_b79e7d77f4784f7b8cf201a03d2cd1cb.html" target="_top" xlink:title="private">
<polygon fill="white" stroke="black" points="78,-180 24,-180 24,-144 78,-144 78,-180"/>
<text text-anchor="middle" x="51" y="-159.5" font-family="Helvetica,sans-Serif" font-size="10.00">private</text>
</a>
</g>
</g>
<!-- dir_4fef79e7177ba769987a8da36c892c5f -->
<g id="node3" class="node"><title>dir_4fef79e7177ba769987a8da36c892c5f</title>
<g id="a_node3"><a xlink:href="dir_4fef79e7177ba769987a8da36c892c5f.html" target="_top" xlink:title="build">
<polygon fill="none" stroke="red" points="78,-36 24,-36 24,-0 78,-0 78,-36"/>
<text text-anchor="middle" x="51" y="-15.5" font-family="Helvetica,sans-Serif" font-size="10.00">build</text>
</a>
</g>
</g>
<!-- dir_b79e7d77f4784f7b8cf201a03d2cd1cb&#45;&gt;dir_4fef79e7177ba769987a8da36c892c5f -->
<g id="edge1" class="edge"><title>dir_b79e7d77f4784f7b8cf201a03d2cd1cb&#45;&gt;dir_4fef79e7177ba769987a8da36c892c5f</title>
<path fill="none" stroke="black" d="M43.1071,-143.745C38.8928,-133.577 34.1428,-120.327 32,-108 29.2598,-92.2364 29.2598,-87.7636 32,-72 33.5234,-63.2364 36.3645,-54.0062 39.3941,-45.7484"/>
<polygon fill="black" stroke="black" points="42.7242,-46.8428 43.1071,-36.2548 36.2051,-44.2931 42.7242,-46.8428"/>
<g id="a_edge1&#45;headlabel"><a xlink:href="dir_000074_000000.html" target="_top" xlink:title="2">
<text text-anchor="middle" x="44.0592" y="-48.7246" font-family="Helvetica,sans-Serif" font-size="10.00">2</text>
</a>
</g>
</g>
<!-- dir_86293029b285126631b92f7fc162dc0c -->
<g id="node4" class="node"><title>dir_86293029b285126631b92f7fc162dc0c</title>
<g id="a_node4"><a xlink:href="dir_86293029b285126631b92f7fc162dc0c.html" target="_top" xlink:title="inverse&#45;kinematics">
<polygon fill="none" stroke="red" points="138.5,-108 41.5,-108 41.5,-72 138.5,-72 138.5,-108"/>
<text text-anchor="middle" x="90" y="-87.5" font-family="Helvetica,sans-Serif" font-size="10.00">inverse&#45;kinematics</text>
</a>
</g>
</g>
<!-- dir_b79e7d77f4784f7b8cf201a03d2cd1cb&#45;&gt;dir_86293029b285126631b92f7fc162dc0c -->
<g id="edge2" class="edge"><title>dir_b79e7d77f4784f7b8cf201a03d2cd1cb&#45;&gt;dir_86293029b285126631b92f7fc162dc0c</title>
<path fill="none" stroke="black" d="M60.6405,-143.697C65.1271,-135.644 70.5588,-125.894 75.5241,-116.982"/>
<polygon fill="black" stroke="black" points="78.6609,-118.544 80.4704,-108.104 72.5459,-115.137 78.6609,-118.544"/>
<g id="a_edge2&#45;headlabel"><a xlink:href="dir_000074_000077.html" target="_top" xlink:title="1">
<text text-anchor="middle" x="79.3917" y="-120.565" font-family="Helvetica,sans-Serif" font-size="10.00">1</text>
</a>
</g>
</g>
<!-- dir_86293029b285126631b92f7fc162dc0c&#45;&gt;dir_4fef79e7177ba769987a8da36c892c5f -->
<g id="edge3" class="edge"><title>dir_86293029b285126631b92f7fc162dc0c&#45;&gt;dir_4fef79e7177ba769987a8da36c892c5f</title>
<path fill="none" stroke="black" d="M80.3595,-71.6966C75.8729,-63.6436 70.4412,-53.8945 65.4759,-44.9824"/>
<polygon fill="black" stroke="black" points="68.4541,-43.1366 60.5296,-36.1043 62.3391,-46.5435 68.4541,-43.1366"/>
<g id="a_edge3&#45;headlabel"><a xlink:href="dir_000077_000000.html" target="_top" xlink:title="2">
<text text-anchor="middle" x="72.6839" y="-42.3948" font-family="Helvetica,sans-Serif" font-size="10.00">2</text>
</a>
</g>
</g>
</g>
</svg>
