<?xml version="1.0" encoding="UTF-8" standalone="no"?>
<!DOCTYPE svg PUBLIC "-//W3C//DTD SVG 1.1//EN"
 "http://www.w3.org/Graphics/SVG/1.1/DTD/svg11.dtd">
<!-- Generated by graphviz version 2.36.0 (20140111.2315)
 -->
<!-- Title: /home/travis/build/robotology/human&#45;dynamics&#45;estimation/human&#45;state&#45;provider Pages: 1 -->
<svg width="220pt" height="276pt"
 viewBox="0.00 0.00 220.00 276.00" xmlns="http://www.w3.org/2000/svg" xmlns:xlink="http://www.w3.org/1999/xlink">
<g id="graph0" class="graph" transform="scale(1 1) rotate(0) translate(4 272)">
<title>/home/travis/build/robotology/human&#45;dynamics&#45;estimation/human&#45;state&#45;provider</title>
<g id="clust1" class="cluster"><title>clusterdir_f7cdf6a76c900ccaf2b76cb1d807761c</title>
<g id="a_clust1"><a xlink:href="dir_f7cdf6a76c900ccaf2b76cb1d807761c.html" target="_top">
<polygon fill="#eeeeff" stroke="black" points="8,-136 8,-260 204,-260 204,-136 8,-136"/>
</a>
</g>
</g>
<!-- dir_f7cdf6a76c900ccaf2b76cb1d807761c -->
<g id="node1" class="node"><title>dir_f7cdf6a76c900ccaf2b76cb1d807761c</title>
<text text-anchor="middle" x="142" y="-231.5" font-family="Helvetica,sans-Serif" font-size="10.00">human&#45;state&#45;provider</text>
</g>
<!-- dir_92750c5906190cfd5685208e117eb963 -->
<g id="node2" class="node"><title>dir_92750c5906190cfd5685208e117eb963</title>
<g id="a_node2"><a xlink:href="dir_92750c5906190cfd5685208e117eb963.html" target="_top" xlink:title="include">
<polygon fill="white" stroke="red" points="70,-180 16,-180 16,-144 70,-144 70,-180"/>
<text text-anchor="middle" x="43" y="-159.5" font-family="Helvetica,sans-Serif" font-size="10.00">include</text>
</a>
</g>
</g>
<!-- dir_4fef79e7177ba769987a8da36c892c5f -->
<g id="node4" class="node"><title>dir_4fef79e7177ba769987a8da36c892c5f</title>
<g id="a_node4"><a xlink:href="dir_4fef79e7177ba769987a8da36c892c5f.html" target="_top" xlink:title="build">
<polygon fill="none" stroke="red" points="106,-36 52,-36 52,-0 106,-0 106,-36"/>
<text text-anchor="middle" x="79" y="-15.5" font-family="Helvetica,sans-Serif" font-size="10.00">build</text>
</a>
</g>
</g>
<!-- dir_92750c5906190cfd5685208e117eb963&#45;&gt;dir_4fef79e7177ba769987a8da36c892c5f -->
<g id="edge1" class="edge"><title>dir_92750c5906190cfd5685208e117eb963&#45;&gt;dir_4fef79e7177ba769987a8da36c892c5f</title>
<path fill="none" stroke="black" d="M32.2559,-143.696C22.3154,-125.33 10.5348,-95.7395 21,-72 26.0294,-60.5912 34.8616,-50.5727 44.1398,-42.4061"/>
<polygon fill="black" stroke="black" points="46.4497,-45.0382 51.9646,-35.9919 42.012,-39.6246 46.4497,-45.0382"/>
<g id="a_edge1&#45;headlabel"><a xlink:href="dir_000073_000000.html" target="_top" xlink:title="2">
<text text-anchor="middle" x="45.4697" y="-47.0128" font-family="Helvetica,sans-Serif" font-size="10.00">2</text>
</a>
</g>
</g>
<!-- dir_86293029b285126631b92f7fc162dc0c -->
<g id="node5" class="node"><title>dir_86293029b285126631b92f7fc162dc0c</title>
<g id="a_node5"><a xlink:href="dir_86293029b285126631b92f7fc162dc0c.html" target="_top" xlink:title="inverse&#45;kinematics">
<polygon fill="none" stroke="red" points="127.5,-108 30.5,-108 30.5,-72 127.5,-72 127.5,-108"/>
<text text-anchor="middle" x="79" y="-87.5" font-family="Helvetica,sans-Serif" font-size="10.00">inverse&#45;kinematics</text>
</a>
</g>
</g>
<!-- dir_92750c5906190cfd5685208e117eb963&#45;&gt;dir_86293029b285126631b92f7fc162dc0c -->
<g id="edge2" class="edge"><title>dir_92750c5906190cfd5685208e117eb963&#45;&gt;dir_86293029b285126631b92f7fc162dc0c</title>
<path fill="none" stroke="black" d="M51.8989,-143.697C55.9968,-135.728 60.9488,-126.1 65.4927,-117.264"/>
<polygon fill="black" stroke="black" points="68.7425,-118.598 70.2035,-108.104 62.5174,-115.396 68.7425,-118.598"/>
<g id="a_edge2&#45;headlabel"><a xlink:href="dir_000073_000077.html" target="_top" xlink:title="1">
<text text-anchor="middle" x="69.6235" y="-120.593" font-family="Helvetica,sans-Serif" font-size="10.00">1</text>
</a>
</g>
</g>
<!-- dir_b7fd2004e8e553417ddcb75d2be5ed12 -->
<g id="node3" class="node"><title>dir_b7fd2004e8e553417ddcb75d2be5ed12</title>
<g id="a_node3"><a xlink:href="dir_b7fd2004e8e553417ddcb75d2be5ed12.html" target="_top" xlink:title="src">
<polygon fill="white" stroke="black" points="70,-252 16,-252 16,-216 70,-216 70,-252"/>
<text text-anchor="middle" x="43" y="-231.5" font-family="Helvetica,sans-Serif" font-size="10.00">src</text>
</a>
</g>
</g>
<!-- dir_b7fd2004e8e553417ddcb75d2be5ed12&#45;&gt;dir_92750c5906190cfd5685208e117eb963 -->
<g id="edge3" class="edge"><title>dir_b7fd2004e8e553417ddcb75d2be5ed12&#45;&gt;dir_92750c5906190cfd5685208e117eb963</title>
<path fill="none" stroke="black" d="M43,-215.697C43,-207.983 43,-198.712 43,-190.112"/>
<polygon fill="black" stroke="black" points="46.5001,-190.104 43,-180.104 39.5001,-190.104 46.5001,-190.104"/>
<g id="a_edge3&#45;headlabel"><a xlink:href="dir_000071_000073.html" target="_top" xlink:title="8">
<text text-anchor="middle" x="49.3393" y="-191.199" font-family="Helvetica,sans-Serif" font-size="10.00">8</text>
</a>
</g>
</g>
<!-- dir_b7fd2004e8e553417ddcb75d2be5ed12&#45;&gt;dir_4fef79e7177ba769987a8da36c892c5f -->
<g id="edge4" class="edge"><title>dir_b7fd2004e8e553417ddcb75d2be5ed12&#45;&gt;dir_4fef79e7177ba769987a8da36c892c5f</title>
<path fill="none" stroke="black" d="M63.1125,-215.618C86.8004,-193.506 124.398,-152.775 136,-108 140.013,-92.5115 142.391,-86.6684 136,-72 131.067,-60.6765 122.389,-50.6824 113.271,-42.5119"/>
<polygon fill="black" stroke="black" points="115.499,-39.8124 105.58,-36.0884 111.011,-45.185 115.499,-39.8124"/>
<g id="a_edge4&#45;headlabel"><a xlink:href="dir_000071_000000.html" target="_top" xlink:title="2">
<text text-anchor="middle" x="120.078" y="-37.4374" font-family="Helvetica,sans-Serif" font-size="10.00">2</text>
</a>
</g>
</g>
<!-- dir_b7fd2004e8e553417ddcb75d2be5ed12&#45;&gt;dir_86293029b285126631b92f7fc162dc0c -->
<g id="edge5" class="edge"><title>dir_b7fd2004e8e553417ddcb75d2be5ed12&#45;&gt;dir_86293029b285126631b92f7fc162dc0c</title>
<path fill="none" stroke="black" d="M58.6099,-215.774C66.3729,-206.03 74.9459,-193.184 79,-180 85.1593,-159.97 84.7926,-136.184 83.0858,-118.244"/>
<polygon fill="black" stroke="black" points="86.5474,-117.708 81.9309,-108.172 79.5929,-118.505 86.5474,-117.708"/>
<g id="a_edge5&#45;headlabel"><a xlink:href="dir_000071_000077.html" target="_top" xlink:title="2">
<text text-anchor="middle" x="89.7775" y="-118.456" font-family="Helvetica,sans-Serif" font-size="10.00">2</text>
</a>
</g>
</g>
<!-- dir_86293029b285126631b92f7fc162dc0c&#45;&gt;dir_4fef79e7177ba769987a8da36c892c5f -->
<g id="edge6" class="edge"><title>dir_86293029b285126631b92f7fc162dc0c&#45;&gt;dir_4fef79e7177ba769987a8da36c892c5f</title>
<path fill="none" stroke="black" d="M79,-71.6966C79,-63.9827 79,-54.7125 79,-46.1124"/>
<polygon fill="black" stroke="black" points="82.5001,-46.1043 79,-36.1043 75.5001,-46.1044 82.5001,-46.1043"/>
<g id="a_edge6&#45;headlabel"><a xlink:href="dir_000077_000000.html" target="_top" xlink:title="2">
<text text-anchor="middle" x="85.3393" y="-47.199" font-family="Helvetica,sans-Serif" font-size="10.00">2</text>
</a>
</g>
</g>
</g>
</svg>
