<?xml version="1.0" encoding="UTF-8" standalone="no"?>
<!DOCTYPE svg PUBLIC "-//W3C//DTD SVG 1.1//EN"
 "http://www.w3.org/Graphics/SVG/1.1/DTD/svg11.dtd">
<!-- Generated by graphviz version 2.36.0 (20140111.2315)
 -->
<!-- Title: /home/travis/build/robotology/human&#45;dynamics&#45;estimation/human&#45;forces&#45;provider Pages: 1 -->
<svg width="226pt" height="204pt"
 viewBox="0.00 0.00 226.00 204.00" xmlns="http://www.w3.org/2000/svg" xmlns:xlink="http://www.w3.org/1999/xlink">
<g id="graph0" class="graph" transform="scale(1 1) rotate(0) translate(4 200)">
<title>/home/travis/build/robotology/human&#45;dynamics&#45;estimation/human&#45;forces&#45;provider</title>
<g id="clust1" class="cluster"><title>clusterdir_9aeabf4b45d2a7e2ec56e7f8c250cd5d</title>
<g id="a_clust1"><a xlink:href="dir_9aeabf4b45d2a7e2ec56e7f8c250cd5d.html" target="_top">
<polygon fill="#eeeeff" stroke="black" points="8,-64 8,-188 210,-188 210,-64 8,-64"/>
</a>
</g>
</g>
<!-- dir_9aeabf4b45d2a7e2ec56e7f8c250cd5d -->
<g id="node1" class="node"><title>dir_9aeabf4b45d2a7e2ec56e7f8c250cd5d</title>
<text text-anchor="middle" x="145" y="-159.5" font-family="Helvetica,sans-Serif" font-size="10.00">human&#45;forces&#45;provider</text>
</g>
<!-- dir_7e0969b740bab7931205ebe7abc54660 -->
<g id="node2" class="node"><title>dir_7e0969b740bab7931205ebe7abc54660</title>
<g id="a_node2"><a xlink:href="dir_7e0969b740bab7931205ebe7abc54660.html" target="_top" xlink:title="include">
<polygon fill="white" stroke="black" points="70,-108 16,-108 16,-72 70,-72 70,-108"/>
<text text-anchor="middle" x="43" y="-87.5" font-family="Helvetica,sans-Serif" font-size="10.00">include</text>
</a>
</g>
</g>
<!-- dir_4fef79e7177ba769987a8da36c892c5f -->
<g id="node4" class="node"><title>dir_4fef79e7177ba769987a8da36c892c5f</title>
<g id="a_node4"><a xlink:href="dir_4fef79e7177ba769987a8da36c892c5f.html" target="_top" xlink:title="build">
<polygon fill="none" stroke="red" points="97,-36 43,-36 43,-0 97,-0 97,-36"/>
<text text-anchor="middle" x="70" y="-15.5" font-family="Helvetica,sans-Serif" font-size="10.00">build</text>
</a>
</g>
</g>
<!-- dir_7e0969b740bab7931205ebe7abc54660&#45;&gt;dir_4fef79e7177ba769987a8da36c892c5f -->
<g id="edge1" class="edge"><title>dir_7e0969b740bab7931205ebe7abc54660&#45;&gt;dir_4fef79e7177ba769987a8da36c892c5f</title>
<path fill="none" stroke="black" d="M49.6742,-71.6966C52.7149,-63.8132 56.3827,-54.3042 59.7607,-45.5464"/>
<polygon fill="black" stroke="black" points="63.0693,-46.6939 63.4026,-36.1043 56.5383,-44.1748 63.0693,-46.6939"/>
<g id="a_edge1&#45;headlabel"><a xlink:href="dir_000072_000000.html" target="_top" xlink:title="3">
<text text-anchor="middle" x="64.4248" y="-48.5695" font-family="Helvetica,sans-Serif" font-size="10.00">3</text>
</a>
</g>
</g>
<!-- dir_c133bf4f266bc23f3ac9b31542a725cc -->
<g id="node3" class="node"><title>dir_c133bf4f266bc23f3ac9b31542a725cc</title>
<g id="a_node3"><a xlink:href="dir_c133bf4f266bc23f3ac9b31542a725cc.html" target="_top" xlink:title="src">
<polygon fill="white" stroke="black" points="70,-180 16,-180 16,-144 70,-144 70,-180"/>
<text text-anchor="middle" x="43" y="-159.5" font-family="Helvetica,sans-Serif" font-size="10.00">src</text>
</a>
</g>
</g>
<!-- dir_c133bf4f266bc23f3ac9b31542a725cc&#45;&gt;dir_7e0969b740bab7931205ebe7abc54660 -->
<g id="edge3" class="edge"><title>dir_c133bf4f266bc23f3ac9b31542a725cc&#45;&gt;dir_7e0969b740bab7931205ebe7abc54660</title>
<path fill="none" stroke="black" d="M43,-143.697C43,-135.983 43,-126.712 43,-118.112"/>
<polygon fill="black" stroke="black" points="46.5001,-118.104 43,-108.104 39.5001,-118.104 46.5001,-118.104"/>
<g id="a_edge3&#45;headlabel"><a xlink:href="dir_000069_000072.html" target="_top" xlink:title="17">
<text text-anchor="middle" x="49.3393" y="-119.199" font-family="Helvetica,sans-Serif" font-size="10.00">17</text>
</a>
</g>
</g>
<!-- dir_c133bf4f266bc23f3ac9b31542a725cc&#45;&gt;dir_4fef79e7177ba769987a8da36c892c5f -->
<g id="edge2" class="edge"><title>dir_c133bf4f266bc23f3ac9b31542a725cc&#45;&gt;dir_4fef79e7177ba769987a8da36c892c5f</title>
<path fill="none" stroke="black" d="M58.6099,-143.774C66.3729,-134.03 74.9459,-121.184 79,-108 85.2198,-87.7736 82.2688,-63.865 78.1475,-45.9241"/>
<polygon fill="black" stroke="black" points="81.5104,-44.9471 75.6461,-36.1232 74.7278,-46.6782 81.5104,-44.9471"/>
<g id="a_edge2&#45;headlabel"><a xlink:href="dir_000069_000000.html" target="_top" xlink:title="1">
<text text-anchor="middle" x="85.1503" y="-45.228" font-family="Helvetica,sans-Serif" font-size="10.00">1</text>
</a>
</g>
</g>
</g>
</svg>
