<?xml version="1.0" encoding="UTF-8" standalone="no"?>
<!DOCTYPE svg PUBLIC "-//W3C//DTD SVG 1.1//EN"
 "http://www.w3.org/Graphics/SVG/1.1/DTD/svg11.dtd">
<!-- Generated by graphviz version 2.36.0 (20140111.2315)
 -->
<!-- Title: /home/travis/build/robotology/human&#45;dynamics&#45;estimation/human&#45;state&#45;provider/src Pages: 1 -->
<svg width="132pt" height="223pt"
 viewBox="0.00 0.00 132.00 223.00" xmlns="http://www.w3.org/2000/svg" xmlns:xlink="http://www.w3.org/1999/xlink">
<g id="graph0" class="graph" transform="scale(1 1) rotate(0) translate(4 219)">
<title>/home/travis/build/robotology/human&#45;dynamics&#45;estimation/human&#45;state&#45;provider/src</title>
<g id="clust1" class="cluster"><title>clusterdir_f7cdf6a76c900ccaf2b76cb1d807761c</title>
<g id="a_clust1"><a xlink:href="dir_f7cdf6a76c900ccaf2b76cb1d807761c.html" target="_top" xlink:title="human&#45;state&#45;provider">
<polygon fill="#ddddee" stroke="black" points="8,-136 8,-207 116,-207 116,-136 8,-136"/>
<text text-anchor="middle" x="62" y="-195" font-family="Helvetica,sans-Serif" font-size="10.00">human&#45;state&#45;provider</text>
</a>
</g>
</g>
<!-- dir_b7fd2004e8e553417ddcb75d2be5ed12 -->
<g id="node1" class="node"><title>dir_b7fd2004e8e553417ddcb75d2be5ed12</title>
<g id="a_node1"><a xlink:href="dir_b7fd2004e8e553417ddcb75d2be5ed12.html" target="_top" xlink:title="src">
<polygon fill="#eeeeff" stroke="black" points="89,-180 35,-180 35,-144 89,-144 89,-180"/>
<text text-anchor="middle" x="62" y="-159.5" font-family="Helvetica,sans-Serif" font-size="10.00">src</text>
</a>
</g>
</g>
<!-- dir_92750c5906190cfd5685208e117eb963 -->
<g id="node2" class="node"><title>dir_92750c5906190cfd5685208e117eb963</title>
<g id="a_node2"><a xlink:href="dir_92750c5906190cfd5685208e117eb963.html" target="_top" xlink:title="include">
<polygon fill="none" stroke="red" points="62,-108 8,-108 8,-72 62,-72 62,-108"/>
<text text-anchor="middle" x="35" y="-87.5" font-family="Helvetica,sans-Serif" font-size="10.00">include</text>
</a>
</g>
</g>
<!-- dir_b7fd2004e8e553417ddcb75d2be5ed12&#45;&gt;dir_92750c5906190cfd5685208e117eb963 -->
<g id="edge2" class="edge"><title>dir_b7fd2004e8e553417ddcb75d2be5ed12&#45;&gt;dir_92750c5906190cfd5685208e117eb963</title>
<path fill="none" stroke="black" d="M55.3258,-143.697C52.2851,-135.813 48.6173,-126.304 45.2393,-117.546"/>
<polygon fill="black" stroke="black" points="48.4617,-116.175 41.5974,-108.104 41.9307,-118.694 48.4617,-116.175"/>
<g id="a_edge2&#45;headlabel"><a xlink:href="dir_000012_000015.html" target="_top" xlink:title="8">
<text text-anchor="middle" x="52.4043" y="-116.007" font-family="Helvetica,sans-Serif" font-size="10.00">8</text>
</a>
</g>
</g>
<!-- dir_86293029b285126631b92f7fc162dc0c -->
<g id="node3" class="node"><title>dir_86293029b285126631b92f7fc162dc0c</title>
<g id="a_node3"><a xlink:href="dir_86293029b285126631b92f7fc162dc0c.html" target="_top" xlink:title="inverse&#45;kinematics">
<polygon fill="none" stroke="red" points="110.5,-36 13.5,-36 13.5,-0 110.5,-0 110.5,-36"/>
<text text-anchor="middle" x="62" y="-15.5" font-family="Helvetica,sans-Serif" font-size="10.00">inverse&#45;kinematics</text>
</a>
</g>
</g>
<!-- dir_b7fd2004e8e553417ddcb75d2be5ed12&#45;&gt;dir_86293029b285126631b92f7fc162dc0c -->
<g id="edge3" class="edge"><title>dir_b7fd2004e8e553417ddcb75d2be5ed12&#45;&gt;dir_86293029b285126631b92f7fc162dc0c</title>
<path fill="none" stroke="black" d="M65.6538,-143.908C67.6758,-133.569 69.9808,-120.09 71,-108 72.3441,-92.0566 72.3441,-87.9434 71,-72 70.2834,-63.4991 68.9311,-54.3119 67.4884,-46.0122"/>
<polygon fill="black" stroke="black" points="70.9142,-45.2892 65.6538,-36.0925 64.0309,-46.5623 70.9142,-45.2892"/>
<g id="a_edge3&#45;headlabel"><a xlink:href="dir_000012_000019.html" target="_top" xlink:title="2">
<text text-anchor="middle" x="74.3597" y="-45.8075" font-family="Helvetica,sans-Serif" font-size="10.00">2</text>
</a>
</g>
</g>
<!-- dir_92750c5906190cfd5685208e117eb963&#45;&gt;dir_86293029b285126631b92f7fc162dc0c -->
<g id="edge1" class="edge"><title>dir_92750c5906190cfd5685208e117eb963&#45;&gt;dir_86293029b285126631b92f7fc162dc0c</title>
<path fill="none" stroke="black" d="M41.6742,-71.6966C44.7149,-63.8132 48.3827,-54.3042 51.7607,-45.5464"/>
<polygon fill="black" stroke="black" points="55.0693,-46.6939 55.4026,-36.1043 48.5383,-44.1748 55.0693,-46.6939"/>
<g id="a_edge1&#45;headlabel"><a xlink:href="dir_000015_000019.html" target="_top" xlink:title="1">
<text text-anchor="middle" x="56.4248" y="-48.5695" font-family="Helvetica,sans-Serif" font-size="10.00">1</text>
</a>
</g>
</g>
</g>
</svg>
