<?xml version="1.0" encoding="UTF-8" standalone="no"?>
<!DOCTYPE svg PUBLIC "-//W3C//DTD SVG 1.1//EN"
 "http://www.w3.org/Graphics/SVG/1.1/DTD/svg11.dtd">
<!-- Generated by graphviz version 2.36.0 (20140111.2315)
 -->
<!-- Title: /home/travis/build/robotology/human&#45;dynamics&#45;estimation/inverse&#45;kinematics Pages: 1 -->
<svg width="336pt" height="148pt"
 viewBox="0.00 0.00 336.00 148.00" xmlns="http://www.w3.org/2000/svg" xmlns:xlink="http://www.w3.org/1999/xlink">
<g id="graph0" class="graph" transform="scale(1 1) rotate(0) translate(4 144)">
<title>/home/travis/build/robotology/human&#45;dynamics&#45;estimation/inverse&#45;kinematics</title>
<g id="clust1" class="cluster"><title>clusterdir_86293029b285126631b92f7fc162dc0c</title>
<g id="a_clust1"><a xlink:href="dir_86293029b285126631b92f7fc162dc0c.html" target="_top">
<polygon fill="#eeeeff" stroke="black" points="8,-8 8,-132 266,-132 266,-8 8,-8"/>
</a>
</g>
</g>
<!-- dir_86293029b285126631b92f7fc162dc0c -->
<g id="node1" class="node"><title>dir_86293029b285126631b92f7fc162dc0c</title>
<text text-anchor="middle" x="209" y="-103.5" font-family="Helvetica,sans-Serif" font-size="10.00">inverse&#45;kinematics</text>
</g>
<!-- dir_105f8059bcaf1ceb133899bd2d884662 -->
<g id="node2" class="node"><title>dir_105f8059bcaf1ceb133899bd2d884662</title>
<g id="a_node2"><a xlink:href="dir_105f8059bcaf1ceb133899bd2d884662.html" target="_top" xlink:title="include">
<polygon fill="white" stroke="red" points="106,-52 52,-52 52,-16 106,-16 106,-52"/>
<text text-anchor="middle" x="79" y="-31.5" font-family="Helvetica,sans-Serif" font-size="10.00">include</text>
</a>
</g>
</g>
<!-- dir_6b34f156714e41479a0299a049fec2d1 -->
<g id="node3" class="node"><title>dir_6b34f156714e41479a0299a049fec2d1</title>
<g id="a_node3"><a xlink:href="dir_6b34f156714e41479a0299a049fec2d1.html" target="_top" xlink:title="src">
<polygon fill="white" stroke="black" points="70,-124 16,-124 16,-88 70,-88 70,-124"/>
<text text-anchor="middle" x="43" y="-103.5" font-family="Helvetica,sans-Serif" font-size="10.00">src</text>
</a>
</g>
</g>
<!-- dir_6b34f156714e41479a0299a049fec2d1&#45;&gt;dir_105f8059bcaf1ceb133899bd2d884662 -->
<g id="edge3" class="edge"><title>dir_6b34f156714e41479a0299a049fec2d1&#45;&gt;dir_105f8059bcaf1ceb133899bd2d884662</title>
<path fill="none" stroke="black" d="M51.8989,-87.6966C55.9968,-79.7284 60.9488,-70.0995 65.4927,-61.2641"/>
<polygon fill="black" stroke="black" points="68.7425,-62.598 70.2035,-52.1043 62.5174,-59.3965 68.7425,-62.598"/>
<g id="a_edge3&#45;headlabel"><a xlink:href="dir_000081_000078.html" target="_top" xlink:title="4">
<text text-anchor="middle" x="69.6235" y="-64.5931" font-family="Helvetica,sans-Serif" font-size="10.00">4</text>
</a>
</g>
</g>
<!-- dir_aa4c0947743ef75c9665e924ad7f1a49 -->
<g id="node4" class="node"><title>dir_aa4c0947743ef75c9665e924ad7f1a49</title>
<g id="a_node4"><a xlink:href="dir_aa4c0947743ef75c9665e924ad7f1a49.html" target="_top" xlink:title="tests">
<polygon fill="white" stroke="black" points="142,-124 88,-124 88,-88 142,-88 142,-124"/>
<text text-anchor="middle" x="115" y="-103.5" font-family="Helvetica,sans-Serif" font-size="10.00">tests</text>
</a>
</g>
</g>
<!-- dir_aa4c0947743ef75c9665e924ad7f1a49&#45;&gt;dir_105f8059bcaf1ceb133899bd2d884662 -->
<g id="edge1" class="edge"><title>dir_aa4c0947743ef75c9665e924ad7f1a49&#45;&gt;dir_105f8059bcaf1ceb133899bd2d884662</title>
<path fill="none" stroke="black" d="M106.101,-87.6966C102.003,-79.7284 97.0512,-70.0995 92.5073,-61.2641"/>
<polygon fill="black" stroke="black" points="95.4826,-59.3965 87.7965,-52.1043 89.2575,-62.598 95.4826,-59.3965"/>
<g id="a_edge1&#45;headlabel"><a xlink:href="dir_000082_000078.html" target="_top" xlink:title="2">
<text text-anchor="middle" x="99.6514" y="-58.7946" font-family="Helvetica,sans-Serif" font-size="10.00">2</text>
</a>
</g>
</g>
<!-- dir_4fef79e7177ba769987a8da36c892c5f -->
<g id="node5" class="node"><title>dir_4fef79e7177ba769987a8da36c892c5f</title>
<g id="a_node5"><a xlink:href="dir_4fef79e7177ba769987a8da36c892c5f.html" target="_top" xlink:title="build">
<polygon fill="none" stroke="red" points="328,-52 274,-52 274,-16 328,-16 328,-52"/>
<text text-anchor="middle" x="301" y="-31.5" font-family="Helvetica,sans-Serif" font-size="10.00">build</text>
</a>
</g>
</g>
<!-- dir_aa4c0947743ef75c9665e924ad7f1a49&#45;&gt;dir_4fef79e7177ba769987a8da36c892c5f -->
<g id="edge2" class="edge"><title>dir_aa4c0947743ef75c9665e924ad7f1a49&#45;&gt;dir_4fef79e7177ba769987a8da36c892c5f</title>
<path fill="none" stroke="black" d="M142.336,-91.5818C145.236,-90.3118 148.162,-89.0926 151,-88 199.445,-69.3507 216.931,-72.856 264.234,-54.2242"/>
<polygon fill="black" stroke="black" points="265.831,-57.3527 273.768,-50.3341 263.187,-50.8715 265.831,-57.3527"/>
<g id="a_edge2&#45;headlabel"><a xlink:href="dir_000082_000000.html" target="_top" xlink:title="2">
<text text-anchor="middle" x="263.576" y="-58.8395" font-family="Helvetica,sans-Serif" font-size="10.00">2</text>
</a>
</g>
</g>
</g>
</svg>
