<?xml version="1.0" encoding="UTF-8" standalone="no"?>
<!DOCTYPE svg PUBLIC "-//W3C//DTD SVG 1.1//EN"
 "http://www.w3.org/Graphics/SVG/1.1/DTD/svg11.dtd">
<!-- Generated by graphviz version 2.36.0 (20140111.2315)
 -->
<!-- Title: /home/travis/build/robotology/human&#45;dynamics&#45;estimation/human&#45;state&#45;provider/include/private Pages: 1 -->
<svg width="139pt" height="223pt"
 viewBox="0.00 0.00 139.00 223.00" xmlns="http://www.w3.org/2000/svg" xmlns:xlink="http://www.w3.org/1999/xlink">
<g id="graph0" class="graph" transform="scale(1 1) rotate(0) translate(4 219)">
<title>/home/travis/build/robotology/human&#45;dynamics&#45;estimation/human&#45;state&#45;provider/include/private</title>
<g id="clust1" class="cluster"><title>clusterdir_92750c5906190cfd5685208e117eb963</title>
<g id="a_clust1"><a xlink:href="dir_92750c5906190cfd5685208e117eb963.html" target="_top" xlink:title="include">
<polygon fill="#ddddee" stroke="black" points="8,-136 8,-207 78,-207 78,-136 8,-136"/>
<text text-anchor="middle" x="43" y="-195" font-family="Helvetica,sans-Serif" font-size="10.00">include</text>
</a>
</g>
</g>
<!-- dir_b79e7d77f4784f7b8cf201a03d2cd1cb -->
<g id="node1" class="node"><title>dir_b79e7d77f4784f7b8cf201a03d2cd1cb</title>
<g id="a_node1"><a xlink:href="dir_b79e7d77f4784f7b8cf201a03d2cd1cb.html" target="_top" xlink:title="private">
<polygon fill="#eeeeff" stroke="black" points="70,-180 16,-180 16,-144 70,-144 70,-180"/>
<text text-anchor="middle" x="43" y="-159.5" font-family="Helvetica,sans-Serif" font-size="10.00">private</text>
</a>
</g>
</g>
<!-- dir_4fef79e7177ba769987a8da36c892c5f -->
<g id="node2" class="node"><title>dir_4fef79e7177ba769987a8da36c892c5f</title>
<g id="a_node2"><a xlink:href="dir_4fef79e7177ba769987a8da36c892c5f.html" target="_top" xlink:title="build">
<polygon fill="none" stroke="red" points="70,-36 16,-36 16,-0 70,-0 70,-36"/>
<text text-anchor="middle" x="43" y="-15.5" font-family="Helvetica,sans-Serif" font-size="10.00">build</text>
</a>
</g>
</g>
<!-- dir_b79e7d77f4784f7b8cf201a03d2cd1cb&#45;&gt;dir_4fef79e7177ba769987a8da36c892c5f -->
<g id="edge1" class="edge"><title>dir_b79e7d77f4784f7b8cf201a03d2cd1cb&#45;&gt;dir_4fef79e7177ba769987a8da36c892c5f</title>
<path fill="none" stroke="black" d="M35.1071,-143.745C30.8928,-133.577 26.1428,-120.327 24,-108 21.2598,-92.2364 21.2598,-87.7636 24,-72 25.5234,-63.2364 28.3645,-54.0062 31.3941,-45.7484"/>
<polygon fill="black" stroke="black" points="34.7242,-46.8428 35.1071,-36.2548 28.2051,-44.2931 34.7242,-46.8428"/>
<g id="a_edge1&#45;headlabel"><a xlink:href="dir_000074_000000.html" target="_top" xlink:title="2">
<text text-anchor="middle" x="36.0592" y="-48.7246" font-family="Helvetica,sans-Serif" font-size="10.00">2</text>
</a>
</g>
</g>
<!-- dir_86293029b285126631b92f7fc162dc0c -->
<g id="node3" class="node"><title>dir_86293029b285126631b92f7fc162dc0c</title>
<g id="a_node3"><a xlink:href="dir_86293029b285126631b92f7fc162dc0c.html" target="_top" xlink:title="inverse&#45;kinematics">
<polygon fill="none" stroke="red" points="130.5,-108 33.5,-108 33.5,-72 130.5,-72 130.5,-108"/>
<text text-anchor="middle" x="82" y="-87.5" font-family="Helvetica,sans-Serif" font-size="10.00">inverse&#45;kinematics</text>
</a>
</g>
</g>
<!-- dir_b79e7d77f4784f7b8cf201a03d2cd1cb&#45;&gt;dir_86293029b285126631b92f7fc162dc0c -->
<g id="edge2" class="edge"><title>dir_b79e7d77f4784f7b8cf201a03d2cd1cb&#45;&gt;dir_86293029b285126631b92f7fc162dc0c</title>
<path fill="none" stroke="black" d="M52.6405,-143.697C57.1271,-135.644 62.5588,-125.894 67.5241,-116.982"/>
<polygon fill="black" stroke="black" points="70.6609,-118.544 72.4704,-108.104 64.5459,-115.137 70.6609,-118.544"/>
<g id="a_edge2&#45;headlabel"><a xlink:href="dir_000074_000077.html" target="_top" xlink:title="1">
<text text-anchor="middle" x="71.3917" y="-120.565" font-family="Helvetica,sans-Serif" font-size="10.00">1</text>
</a>
</g>
</g>
<!-- dir_86293029b285126631b92f7fc162dc0c&#45;&gt;dir_4fef79e7177ba769987a8da36c892c5f -->
<g id="edge3" class="edge"><title>dir_86293029b285126631b92f7fc162dc0c&#45;&gt;dir_4fef79e7177ba769987a8da36c892c5f</title>
<path fill="none" stroke="black" d="M72.3595,-71.6966C67.8729,-63.6436 62.4412,-53.8945 57.4759,-44.9824"/>
<polygon fill="black" stroke="black" points="60.4541,-43.1366 52.5296,-36.1043 54.3391,-46.5435 60.4541,-43.1366"/>
<g id="a_edge3&#45;headlabel"><a xlink:href="dir_000077_000000.html" target="_top" xlink:title="2">
<text text-anchor="middle" x="64.6839" y="-42.3948" font-family="Helvetica,sans-Serif" font-size="10.00">2</text>
</a>
</g>
</g>
</g>
</svg>
