<?xml version="1.0" encoding="UTF-8" standalone="no"?>
<!DOCTYPE svg PUBLIC "-//W3C//DTD SVG 1.1//EN"
 "http://www.w3.org/Graphics/SVG/1.1/DTD/svg11.dtd">
<!-- Generated by graphviz version 2.36.0 (20140111.2315)
 -->
<!-- Title: /home/travis/build/robotology/human&#45;dynamics&#45;estimation/build/human&#45;viz&#45;bridge/autogenerated/data/include/thrift/Quaternion.h Pages: 1 -->
<svg width="1762pt" height="384pt"
 viewBox="0.00 0.00 1762.00 384.00" xmlns="http://www.w3.org/2000/svg" xmlns:xlink="http://www.w3.org/1999/xlink">
<g id="graph0" class="graph" transform="scale(1 1) rotate(0) translate(4 380)">
<title>/home/travis/build/robotology/human&#45;dynamics&#45;estimation/build/human&#45;viz&#45;bridge/autogenerated/data/include/thrift/Quaternion.h</title>
<!-- Node1 -->
<g id="node1" class="node"><title>Node1</title>
<polygon fill="#bfbfbf" stroke="black" points="450.5,-312.5 450.5,-375.5 603.5,-375.5 603.5,-312.5 450.5,-312.5"/>
<text text-anchor="start" x="458.5" y="-363.5" font-family="Helvetica,sans-Serif" font-size="10.00">/home/travis/build</text>
<text text-anchor="start" x="458.5" y="-352.5" font-family="Helvetica,sans-Serif" font-size="10.00">/robotology/human&#45;dynamics</text>
<text text-anchor="start" x="458.5" y="-341.5" font-family="Helvetica,sans-Serif" font-size="10.00">&#45;estimation/build/human</text>
<text text-anchor="start" x="458.5" y="-330.5" font-family="Helvetica,sans-Serif" font-size="10.00">&#45;viz&#45;bridge/autogenerated</text>
<text text-anchor="middle" x="527" y="-319.5" font-family="Helvetica,sans-Serif" font-size="10.00">/data/include/thrift/Quaternion.h</text>
</g>
<!-- Node2 -->
<g id="node2" class="node"><title>Node2</title>
<g id="a_node2"><a xlink:href="human-viz-bridge_2__yarp__idl___2thrift_2xsensframe_2_quaternion_8cpp.html" target="_top" xlink:title="/home/travis/build\l/robotology/human&#45;dynamics\l&#45;estimation/build/human\l&#45;viz&#45;bridge/_yarp_idl_/thrift\l/xsensframe/Quaternion.cpp">
<polygon fill="none" stroke="black" points="0,-212.5 0,-275.5 142,-275.5 142,-212.5 0,-212.5"/>
<text text-anchor="start" x="8" y="-263.5" font-family="Helvetica,sans-Serif" font-size="10.00">/home/travis/build</text>
<text text-anchor="start" x="8" y="-252.5" font-family="Helvetica,sans-Serif" font-size="10.00">/robotology/human&#45;dynamics</text>
<text text-anchor="start" x="8" y="-241.5" font-family="Helvetica,sans-Serif" font-size="10.00">&#45;estimation/build/human</text>
<text text-anchor="start" x="8" y="-230.5" font-family="Helvetica,sans-Serif" font-size="10.00">&#45;viz&#45;bridge/_yarp_idl_/thrift</text>
<text text-anchor="middle" x="71" y="-219.5" font-family="Helvetica,sans-Serif" font-size="10.00">/xsensframe/Quaternion.cpp</text>
</a>
</g>
</g>
<!-- Node1&#45;&gt;Node2 -->
<g id="edge1" class="edge"><title>Node1&#45;&gt;Node2</title>
<path fill="none" stroke="midnightblue" d="M440.287,-332.401C363.383,-321.857 248.465,-303.291 151,-276 148.131,-275.197 145.223,-274.33 142.298,-273.414"/>
<polygon fill="midnightblue" stroke="midnightblue" points="440.031,-335.898 450.41,-333.772 440.971,-328.961 440.031,-335.898"/>
</g>
<!-- Node3 -->
<g id="node3" class="node"><title>Node3</title>
<g id="a_node3"><a xlink:href="__yarp__idl___2thrift_2xsensframe_2_xsens_segment_data_8h.html" target="_top" xlink:title="/home/travis/build\l/robotology/human&#45;dynamics\l&#45;estimation/build/human\l&#45;viz&#45;bridge/_yarp_idl_/thrift\l/xsensframe/XsensSegmentData.h">
<polygon fill="none" stroke="black" points="160,-212.5 160,-275.5 330,-275.5 330,-212.5 160,-212.5"/>
<text text-anchor="start" x="168" y="-263.5" font-family="Helvetica,sans-Serif" font-size="10.00">/home/travis/build</text>
<text text-anchor="start" x="168" y="-252.5" font-family="Helvetica,sans-Serif" font-size="10.00">/robotology/human&#45;dynamics</text>
<text text-anchor="start" x="168" y="-241.5" font-family="Helvetica,sans-Serif" font-size="10.00">&#45;estimation/build/human</text>
<text text-anchor="start" x="168" y="-230.5" font-family="Helvetica,sans-Serif" font-size="10.00">&#45;viz&#45;bridge/_yarp_idl_/thrift</text>
<text text-anchor="middle" x="245" y="-219.5" font-family="Helvetica,sans-Serif" font-size="10.00">/xsensframe/XsensSegmentData.h</text>
</a>
</g>
</g>
<!-- Node1&#45;&gt;Node3 -->
<g id="edge2" class="edge"><title>Node1&#45;&gt;Node3</title>
<path fill="none" stroke="midnightblue" d="M440.568,-312.963C405.48,-300.77 365.061,-286.723 330.108,-274.577"/>
<polygon fill="midnightblue" stroke="midnightblue" points="439.72,-316.374 450.315,-316.351 442.018,-309.762 439.72,-316.374"/>
</g>
<!-- Node5 -->
<g id="node5" class="node"><title>Node5</title>
<g id="a_node5"><a xlink:href="__yarp__idl___2thrift_2xsensframe_2_xsens_sensor_data_8h.html" target="_top" xlink:title="/home/travis/build\l/robotology/human&#45;dynamics\l&#45;estimation/build/human\l&#45;viz&#45;bridge/_yarp_idl_/thrift\l/xsensframe/XsensSensorData.h">
<polygon fill="none" stroke="black" points="348.5,-212.5 348.5,-275.5 509.5,-275.5 509.5,-212.5 348.5,-212.5"/>
<text text-anchor="start" x="356.5" y="-263.5" font-family="Helvetica,sans-Serif" font-size="10.00">/home/travis/build</text>
<text text-anchor="start" x="356.5" y="-252.5" font-family="Helvetica,sans-Serif" font-size="10.00">/robotology/human&#45;dynamics</text>
<text text-anchor="start" x="356.5" y="-241.5" font-family="Helvetica,sans-Serif" font-size="10.00">&#45;estimation/build/human</text>
<text text-anchor="start" x="356.5" y="-230.5" font-family="Helvetica,sans-Serif" font-size="10.00">&#45;viz&#45;bridge/_yarp_idl_/thrift</text>
<text text-anchor="middle" x="429" y="-219.5" font-family="Helvetica,sans-Serif" font-size="10.00">/xsensframe/XsensSensorData.h</text>
</a>
</g>
</g>
<!-- Node1&#45;&gt;Node5 -->
<g id="edge4" class="edge"><title>Node1&#45;&gt;Node5</title>
<path fill="none" stroke="midnightblue" d="M488.974,-304.974C479.253,-295.253 468.926,-284.926 459.63,-275.63"/>
<polygon fill="midnightblue" stroke="midnightblue" points="486.715,-307.665 496.261,-312.261 491.665,-302.715 486.715,-307.665"/>
</g>
<!-- Node6 -->
<g id="node6" class="node"><title>Node6</title>
<g id="a_node6"><a xlink:href="autogenerated_2data_2include_2thrift_2_xsens_segment_data_8h.html" target="_top" xlink:title="/home/travis/build\l/robotology/human&#45;dynamics\l&#45;estimation/build/human\l&#45;viz&#45;bridge/autogenerated\l/data/include/thrift/XsensSegmentData.h">
<polygon fill="none" stroke="black" points="528,-212.5 528,-275.5 722,-275.5 722,-212.5 528,-212.5"/>
<text text-anchor="start" x="536" y="-263.5" font-family="Helvetica,sans-Serif" font-size="10.00">/home/travis/build</text>
<text text-anchor="start" x="536" y="-252.5" font-family="Helvetica,sans-Serif" font-size="10.00">/robotology/human&#45;dynamics</text>
<text text-anchor="start" x="536" y="-241.5" font-family="Helvetica,sans-Serif" font-size="10.00">&#45;estimation/build/human</text>
<text text-anchor="start" x="536" y="-230.5" font-family="Helvetica,sans-Serif" font-size="10.00">&#45;viz&#45;bridge/autogenerated</text>
<text text-anchor="middle" x="625" y="-219.5" font-family="Helvetica,sans-Serif" font-size="10.00">/data/include/thrift/XsensSegmentData.h</text>
</a>
</g>
</g>
<!-- Node1&#45;&gt;Node6 -->
<g id="edge6" class="edge"><title>Node1&#45;&gt;Node6</title>
<path fill="none" stroke="midnightblue" d="M565.026,-304.974C574.747,-295.253 585.074,-284.926 594.37,-275.63"/>
<polygon fill="midnightblue" stroke="midnightblue" points="562.335,-302.715 557.739,-312.261 567.285,-307.665 562.335,-302.715"/>
</g>
<!-- Node14 -->
<g id="node14" class="node"><title>Node14</title>
<g id="a_node14"><a xlink:href="autogenerated_2data_2include_2thrift_2_xsens_sensor_data_8h.html" target="_top" xlink:title="/home/travis/build\l/robotology/human&#45;dynamics\l&#45;estimation/build/human\l&#45;viz&#45;bridge/autogenerated\l/data/include/thrift/XsensSensorData.h">
<polygon fill="none" stroke="black" points="998.5,-212.5 998.5,-275.5 1183.5,-275.5 1183.5,-212.5 998.5,-212.5"/>
<text text-anchor="start" x="1006.5" y="-263.5" font-family="Helvetica,sans-Serif" font-size="10.00">/home/travis/build</text>
<text text-anchor="start" x="1006.5" y="-252.5" font-family="Helvetica,sans-Serif" font-size="10.00">/robotology/human&#45;dynamics</text>
<text text-anchor="start" x="1006.5" y="-241.5" font-family="Helvetica,sans-Serif" font-size="10.00">&#45;estimation/build/human</text>
<text text-anchor="start" x="1006.5" y="-230.5" font-family="Helvetica,sans-Serif" font-size="10.00">&#45;viz&#45;bridge/autogenerated</text>
<text text-anchor="middle" x="1091" y="-219.5" font-family="Helvetica,sans-Serif" font-size="10.00">/data/include/thrift/XsensSensorData.h</text>
</a>
</g>
</g>
<!-- Node1&#45;&gt;Node14 -->
<g id="edge15" class="edge"><title>Node1&#45;&gt;Node14</title>
<path fill="none" stroke="midnightblue" d="M613.807,-327.917C717.841,-309.84 891.449,-279.674 998.111,-261.14"/>
<polygon fill="midnightblue" stroke="midnightblue" points="612.904,-324.521 603.651,-329.681 614.102,-331.418 612.904,-324.521"/>
</g>
<!-- Node21 -->
<g id="node21" class="node"><title>Node21</title>
<g id="a_node21"><a xlink:href="human-viz-bridge_2autogenerated_2data_2src_2_quaternion_8cpp.html" target="_top" xlink:title="/home/travis/build\l/robotology/human&#45;dynamics\l&#45;estimation/build/human\l&#45;viz&#45;bridge/autogenerated\l/data/src/Quaternion.cpp">
<polygon fill="none" stroke="black" points="1202,-212.5 1202,-275.5 1344,-275.5 1344,-212.5 1202,-212.5"/>
<text text-anchor="start" x="1210" y="-263.5" font-family="Helvetica,sans-Serif" font-size="10.00">/home/travis/build</text>
<text text-anchor="start" x="1210" y="-252.5" font-family="Helvetica,sans-Serif" font-size="10.00">/robotology/human&#45;dynamics</text>
<text text-anchor="start" x="1210" y="-241.5" font-family="Helvetica,sans-Serif" font-size="10.00">&#45;estimation/build/human</text>
<text text-anchor="start" x="1210" y="-230.5" font-family="Helvetica,sans-Serif" font-size="10.00">&#45;viz&#45;bridge/autogenerated</text>
<text text-anchor="middle" x="1273" y="-219.5" font-family="Helvetica,sans-Serif" font-size="10.00">/data/src/Quaternion.cpp</text>
</a>
</g>
</g>
<!-- Node1&#45;&gt;Node21 -->
<g id="edge23" class="edge"><title>Node1&#45;&gt;Node21</title>
<path fill="none" stroke="midnightblue" d="M613.776,-341.556C741.904,-337.791 988.502,-324.285 1192,-276 1195.22,-275.235 1198.49,-274.373 1201.77,-273.436"/>
<polygon fill="midnightblue" stroke="midnightblue" points="613.528,-338.061 603.63,-341.841 613.725,-345.058 613.528,-338.061"/>
</g>
<!-- Node4 -->
<g id="node4" class="node"><title>Node4</title>
<g id="a_node4"><a xlink:href="_xsens_frame__index_8h.html" target="_top" xlink:title="/home/travis/build\l/robotology/human&#45;dynamics\l&#45;estimation/build/human\l&#45;viz&#45;bridge/_yarp_idl_/thrift\l/xsensframe/XsensFrame_index.h">
<polygon fill="none" stroke="black" points="180,-0.5 180,-63.5 346,-63.5 346,-0.5 180,-0.5"/>
<text text-anchor="start" x="188" y="-51.5" font-family="Helvetica,sans-Serif" font-size="10.00">/home/travis/build</text>
<text text-anchor="start" x="188" y="-40.5" font-family="Helvetica,sans-Serif" font-size="10.00">/robotology/human&#45;dynamics</text>
<text text-anchor="start" x="188" y="-29.5" font-family="Helvetica,sans-Serif" font-size="10.00">&#45;estimation/build/human</text>
<text text-anchor="start" x="188" y="-18.5" font-family="Helvetica,sans-Serif" font-size="10.00">&#45;viz&#45;bridge/_yarp_idl_/thrift</text>
<text text-anchor="middle" x="263" y="-7.5" font-family="Helvetica,sans-Serif" font-size="10.00">/xsensframe/XsensFrame_index.h</text>
</a>
</g>
</g>
<!-- Node3&#45;&gt;Node4 -->
<g id="edge3" class="edge"><title>Node3&#45;&gt;Node4</title>
<path fill="none" stroke="midnightblue" d="M206.051,-204.449C199.473,-195.757 193.612,-186.093 190,-176 178.619,-144.197 176.409,-130.923 190,-100 196.091,-86.1415 206.621,-73.8937 217.817,-63.7868"/>
<polygon fill="midnightblue" stroke="midnightblue" points="203.521,-206.887 212.527,-212.467 208.966,-202.489 203.521,-206.887"/>
</g>
<!-- Node5&#45;&gt;Node4 -->
<g id="edge5" class="edge"><title>Node5&#45;&gt;Node4</title>
<path fill="none" stroke="midnightblue" d="M338.423,-212.128C284.125,-197.658 253.267,-217.084 223,-176 198.382,-142.584 220.55,-94.6394 240.393,-63.6571"/>
<polygon fill="midnightblue" stroke="midnightblue" points="337.504,-215.506 348.087,-214.998 339.497,-208.796 337.504,-215.506"/>
</g>
<!-- Node7 -->
<g id="node7" class="node"><title>Node7</title>
<g id="a_node7"><a xlink:href="__yarp__idl___2thrift_2xsensframe_2_xsens_segments_frame_8h.html" target="_top" xlink:title="/home/travis/build\l/robotology/human&#45;dynamics\l&#45;estimation/build/human\l&#45;viz&#45;bridge/_yarp_idl_/thrift\l/xsensframe/XsensSegmentsFrame.h">
<polygon fill="none" stroke="black" points="232,-106.5 232,-169.5 414,-169.5 414,-106.5 232,-106.5"/>
<text text-anchor="start" x="240" y="-157.5" font-family="Helvetica,sans-Serif" font-size="10.00">/home/travis/build</text>
<text text-anchor="start" x="240" y="-146.5" font-family="Helvetica,sans-Serif" font-size="10.00">/robotology/human&#45;dynamics</text>
<text text-anchor="start" x="240" y="-135.5" font-family="Helvetica,sans-Serif" font-size="10.00">&#45;estimation/build/human</text>
<text text-anchor="start" x="240" y="-124.5" font-family="Helvetica,sans-Serif" font-size="10.00">&#45;viz&#45;bridge/_yarp_idl_/thrift</text>
<text text-anchor="middle" x="323" y="-113.5" font-family="Helvetica,sans-Serif" font-size="10.00">/xsensframe/XsensSegmentsFrame.h</text>
</a>
</g>
</g>
<!-- Node6&#45;&gt;Node7 -->
<g id="edge7" class="edge"><title>Node6&#45;&gt;Node7</title>
<path fill="none" stroke="midnightblue" d="M521.049,-209.274C489.483,-198.831 454.755,-187.137 423,-176 417.061,-173.917 410.935,-171.735 404.778,-169.516"/>
<polygon fill="midnightblue" stroke="midnightblue" points="520.144,-212.661 530.737,-212.473 522.339,-206.014 520.144,-212.661"/>
</g>
<!-- Node8 -->
<g id="node8" class="node"><title>Node8</title>
<g id="a_node8"><a xlink:href="__yarp__idl___2thrift_2xsensframe_2_xsens_segment_data_8cpp.html" target="_top" xlink:title="/home/travis/build\l/robotology/human&#45;dynamics\l&#45;estimation/build/human\l&#45;viz&#45;bridge/_yarp_idl_/thrift\l/xsensframe/XsensSegmentData.cpp">
<polygon fill="none" stroke="black" points="614,-106.5 614,-169.5 794,-169.5 794,-106.5 614,-106.5"/>
<text text-anchor="start" x="622" y="-157.5" font-family="Helvetica,sans-Serif" font-size="10.00">/home/travis/build</text>
<text text-anchor="start" x="622" y="-146.5" font-family="Helvetica,sans-Serif" font-size="10.00">/robotology/human&#45;dynamics</text>
<text text-anchor="start" x="622" y="-135.5" font-family="Helvetica,sans-Serif" font-size="10.00">&#45;estimation/build/human</text>
<text text-anchor="start" x="622" y="-124.5" font-family="Helvetica,sans-Serif" font-size="10.00">&#45;viz&#45;bridge/_yarp_idl_/thrift</text>
<text text-anchor="middle" x="704" y="-113.5" font-family="Helvetica,sans-Serif" font-size="10.00">/xsensframe/XsensSegmentData.cpp</text>
</a>
</g>
</g>
<!-- Node6&#45;&gt;Node8 -->
<g id="edge9" class="edge"><title>Node6&#45;&gt;Node8</title>
<path fill="none" stroke="midnightblue" d="M654.423,-204.266C663.069,-192.884 672.404,-180.594 680.618,-169.781"/>
<polygon fill="midnightblue" stroke="midnightblue" points="651.537,-202.279 648.275,-212.359 657.111,-206.513 651.537,-202.279"/>
</g>
<!-- Node9 -->
<g id="node9" class="node"><title>Node9</title>
<g id="a_node9"><a xlink:href="autogenerated_2data_2include_2thrift_2_xsens_segments_frame_8h.html" target="_top" xlink:title="/home/travis/build\l/robotology/human&#45;dynamics\l&#45;estimation/build/human\l&#45;viz&#45;bridge/autogenerated\l/data/include/thrift/XsensSegments\lFrame.h">
<polygon fill="none" stroke="black" points="1004,-101 1004,-175 1174,-175 1174,-101 1004,-101"/>
<text text-anchor="start" x="1012" y="-163" font-family="Helvetica,sans-Serif" font-size="10.00">/home/travis/build</text>
<text text-anchor="start" x="1012" y="-152" font-family="Helvetica,sans-Serif" font-size="10.00">/robotology/human&#45;dynamics</text>
<text text-anchor="start" x="1012" y="-141" font-family="Helvetica,sans-Serif" font-size="10.00">&#45;estimation/build/human</text>
<text text-anchor="start" x="1012" y="-130" font-family="Helvetica,sans-Serif" font-size="10.00">&#45;viz&#45;bridge/autogenerated</text>
<text text-anchor="start" x="1012" y="-119" font-family="Helvetica,sans-Serif" font-size="10.00">/data/include/thrift/XsensSegments</text>
<text text-anchor="middle" x="1089" y="-108" font-family="Helvetica,sans-Serif" font-size="10.00">Frame.h</text>
</a>
</g>
</g>
<!-- Node6&#45;&gt;Node9 -->
<g id="edge10" class="edge"><title>Node6&#45;&gt;Node9</title>
<path fill="none" stroke="midnightblue" d="M732.413,-229.057C806.704,-218.066 907.382,-200.487 994,-176 997.236,-175.085 1000.52,-174.102 1003.81,-173.067"/>
<polygon fill="midnightblue" stroke="midnightblue" points="731.497,-225.653 722.109,-230.564 732.511,-232.579 731.497,-225.653"/>
</g>
<!-- Node13 -->
<g id="node13" class="node"><title>Node13</title>
<g id="a_node13"><a xlink:href="autogenerated_2data_2src_2_xsens_segment_data_8cpp.html" target="_top" xlink:title="/home/travis/build\l/robotology/human&#45;dynamics\l&#45;estimation/build/human\l&#45;viz&#45;bridge/autogenerated\l/data/src/XsensSegmentData.cpp">
<polygon fill="none" stroke="black" points="432,-106.5 432,-169.5 596,-169.5 596,-106.5 432,-106.5"/>
<text text-anchor="start" x="440" y="-157.5" font-family="Helvetica,sans-Serif" font-size="10.00">/home/travis/build</text>
<text text-anchor="start" x="440" y="-146.5" font-family="Helvetica,sans-Serif" font-size="10.00">/robotology/human&#45;dynamics</text>
<text text-anchor="start" x="440" y="-135.5" font-family="Helvetica,sans-Serif" font-size="10.00">&#45;estimation/build/human</text>
<text text-anchor="start" x="440" y="-124.5" font-family="Helvetica,sans-Serif" font-size="10.00">&#45;viz&#45;bridge/autogenerated</text>
<text text-anchor="middle" x="514" y="-113.5" font-family="Helvetica,sans-Serif" font-size="10.00">/data/src/XsensSegmentData.cpp</text>
</a>
</g>
</g>
<!-- Node6&#45;&gt;Node13 -->
<g id="edge14" class="edge"><title>Node6&#45;&gt;Node13</title>
<path fill="none" stroke="midnightblue" d="M584.718,-205.258C572.277,-193.602 558.73,-180.909 546.853,-169.781"/>
<polygon fill="midnightblue" stroke="midnightblue" points="582.606,-208.076 592.297,-212.359 587.392,-202.968 582.606,-208.076"/>
</g>
<!-- Node7&#45;&gt;Node4 -->
<g id="edge8" class="edge"><title>Node7&#45;&gt;Node4</title>
<path fill="none" stroke="midnightblue" d="M300.27,-97.6021C293.812,-86.4077 286.876,-74.3842 280.758,-63.7813"/>
<polygon fill="midnightblue" stroke="midnightblue" points="297.294,-99.4462 305.323,-106.359 303.357,-95.9482 297.294,-99.4462"/>
</g>
<!-- Node10 -->
<g id="node10" class="node"><title>Node10</title>
<g id="a_node10"><a xlink:href="__yarp__idl___2thrift_2xsensframe_2_xsens_segments_frame_8cpp.html" target="_top" xlink:title="/home/travis/build\l/robotology/human&#45;dynamics\l&#45;estimation/build/human\l&#45;viz&#45;bridge/_yarp_idl_/thrift\l/xsensframe/XsensSegmentsFrame.cpp">
<polygon fill="none" stroke="black" points="791,-0.5 791,-63.5 983,-63.5 983,-0.5 791,-0.5"/>
<text text-anchor="start" x="799" y="-51.5" font-family="Helvetica,sans-Serif" font-size="10.00">/home/travis/build</text>
<text text-anchor="start" x="799" y="-40.5" font-family="Helvetica,sans-Serif" font-size="10.00">/robotology/human&#45;dynamics</text>
<text text-anchor="start" x="799" y="-29.5" font-family="Helvetica,sans-Serif" font-size="10.00">&#45;estimation/build/human</text>
<text text-anchor="start" x="799" y="-18.5" font-family="Helvetica,sans-Serif" font-size="10.00">&#45;viz&#45;bridge/_yarp_idl_/thrift</text>
<text text-anchor="middle" x="887" y="-7.5" font-family="Helvetica,sans-Serif" font-size="10.00">/xsensframe/XsensSegmentsFrame.cpp</text>
</a>
</g>
</g>
<!-- Node9&#45;&gt;Node10 -->
<g id="edge11" class="edge"><title>Node9&#45;&gt;Node10</title>
<path fill="none" stroke="midnightblue" d="M1009.97,-96.3095C988.863,-85.4443 966.415,-73.8868 946.554,-63.6612"/>
<polygon fill="midnightblue" stroke="midnightblue" points="1008.42,-99.452 1018.92,-100.918 1011.63,-93.2284 1008.42,-99.452"/>
</g>
<!-- Node11 -->
<g id="node11" class="node"><title>Node11</title>
<g id="a_node11"><a xlink:href="autogenerated_2data_2src_2_xsens_segments_frame_8cpp.html" target="_top" xlink:title="/home/travis/build\l/robotology/human&#45;dynamics\l&#45;estimation/build/human\l&#45;viz&#45;bridge/autogenerated\l/data/src/XsensSegmentsFrame.cpp">
<polygon fill="none" stroke="black" points="1001,-0.5 1001,-63.5 1177,-63.5 1177,-0.5 1001,-0.5"/>
<text text-anchor="start" x="1009" y="-51.5" font-family="Helvetica,sans-Serif" font-size="10.00">/home/travis/build</text>
<text text-anchor="start" x="1009" y="-40.5" font-family="Helvetica,sans-Serif" font-size="10.00">/robotology/human&#45;dynamics</text>
<text text-anchor="start" x="1009" y="-29.5" font-family="Helvetica,sans-Serif" font-size="10.00">&#45;estimation/build/human</text>
<text text-anchor="start" x="1009" y="-18.5" font-family="Helvetica,sans-Serif" font-size="10.00">&#45;viz&#45;bridge/autogenerated</text>
<text text-anchor="middle" x="1089" y="-7.5" font-family="Helvetica,sans-Serif" font-size="10.00">/data/src/XsensSegmentsFrame.cpp</text>
</a>
</g>
</g>
<!-- Node9&#45;&gt;Node11 -->
<g id="edge12" class="edge"><title>Node9&#45;&gt;Node11</title>
<path fill="none" stroke="midnightblue" d="M1089,-90.78C1089,-81.6565 1089,-72.2926 1089,-63.8307"/>
<polygon fill="midnightblue" stroke="midnightblue" points="1085.5,-90.9177 1089,-100.918 1092.5,-90.9178 1085.5,-90.9177"/>
</g>
<!-- Node12 -->
<g id="node12" class="node"><title>Node12</title>
<g id="a_node12"><a xlink:href="_human_t_f_bridge_8cpp.html" target="_top" xlink:title="/home/travis/build\l/robotology/human&#45;dynamics\l&#45;estimation/human&#45;viz&#45;bridge\l/src/HumanTFBridge.cpp">
<polygon fill="none" stroke="black" points="1195,-6 1195,-58 1337,-58 1337,-6 1195,-6"/>
<text text-anchor="start" x="1203" y="-46" font-family="Helvetica,sans-Serif" font-size="10.00">/home/travis/build</text>
<text text-anchor="start" x="1203" y="-35" font-family="Helvetica,sans-Serif" font-size="10.00">/robotology/human&#45;dynamics</text>
<text text-anchor="start" x="1203" y="-24" font-family="Helvetica,sans-Serif" font-size="10.00">&#45;estimation/human&#45;viz&#45;bridge</text>
<text text-anchor="middle" x="1266" y="-13" font-family="Helvetica,sans-Serif" font-size="10.00">/src/HumanTFBridge.cpp</text>
</a>
</g>
</g>
<!-- Node9&#45;&gt;Node12 -->
<g id="edge13" class="edge"><title>Node9&#45;&gt;Node12</title>
<path fill="none" stroke="midnightblue" d="M1159.27,-95.7134C1180.94,-82.9783 1204.14,-69.347 1223.36,-58.0569"/>
<polygon fill="midnightblue" stroke="midnightblue" points="1157.26,-92.8341 1150.41,-100.918 1160.8,-98.8694 1157.26,-92.8341"/>
</g>
<!-- Node15 -->
<g id="node15" class="node"><title>Node15</title>
<g id="a_node15"><a xlink:href="__yarp__idl___2thrift_2xsensframe_2_xsens_sensors_frame_8h.html" target="_top" xlink:title="/home/travis/build\l/robotology/human&#45;dynamics\l&#45;estimation/build/human\l&#45;viz&#45;bridge/_yarp_idl_/thrift\l/xsensframe/XsensSensorsFrame.h">
<polygon fill="none" stroke="black" points="812.5,-106.5 812.5,-169.5 985.5,-169.5 985.5,-106.5 812.5,-106.5"/>
<text text-anchor="start" x="820.5" y="-157.5" font-family="Helvetica,sans-Serif" font-size="10.00">/home/travis/build</text>
<text text-anchor="start" x="820.5" y="-146.5" font-family="Helvetica,sans-Serif" font-size="10.00">/robotology/human&#45;dynamics</text>
<text text-anchor="start" x="820.5" y="-135.5" font-family="Helvetica,sans-Serif" font-size="10.00">&#45;estimation/build/human</text>
<text text-anchor="start" x="820.5" y="-124.5" font-family="Helvetica,sans-Serif" font-size="10.00">&#45;viz&#45;bridge/_yarp_idl_/thrift</text>
<text text-anchor="middle" x="899" y="-113.5" font-family="Helvetica,sans-Serif" font-size="10.00">/xsensframe/XsensSensorsFrame.h</text>
</a>
</g>
</g>
<!-- Node14&#45;&gt;Node15 -->
<g id="edge16" class="edge"><title>Node14&#45;&gt;Node15</title>
<path fill="none" stroke="midnightblue" d="M1025.73,-207.647C1002.86,-195.258 977.385,-181.458 955.308,-169.5"/>
<polygon fill="midnightblue" stroke="midnightblue" points="1024.23,-210.814 1034.69,-212.499 1027.57,-204.659 1024.23,-210.814"/>
</g>
<!-- Node16 -->
<g id="node16" class="node"><title>Node16</title>
<g id="a_node16"><a xlink:href="__yarp__idl___2thrift_2xsensframe_2_xsens_sensor_data_8cpp.html" target="_top" xlink:title="/home/travis/build\l/robotology/human&#45;dynamics\l&#45;estimation/build/human\l&#45;viz&#45;bridge/_yarp_idl_/thrift\l/xsensframe/XsensSensorData.cpp">
<polygon fill="none" stroke="black" points="1582,-106.5 1582,-169.5 1754,-169.5 1754,-106.5 1582,-106.5"/>
<text text-anchor="start" x="1590" y="-157.5" font-family="Helvetica,sans-Serif" font-size="10.00">/home/travis/build</text>
<text text-anchor="start" x="1590" y="-146.5" font-family="Helvetica,sans-Serif" font-size="10.00">/robotology/human&#45;dynamics</text>
<text text-anchor="start" x="1590" y="-135.5" font-family="Helvetica,sans-Serif" font-size="10.00">&#45;estimation/build/human</text>
<text text-anchor="start" x="1590" y="-124.5" font-family="Helvetica,sans-Serif" font-size="10.00">&#45;viz&#45;bridge/_yarp_idl_/thrift</text>
<text text-anchor="middle" x="1668" y="-113.5" font-family="Helvetica,sans-Serif" font-size="10.00">/xsensframe/XsensSensorData.cpp</text>
</a>
</g>
</g>
<!-- Node14&#45;&gt;Node16 -->
<g id="edge18" class="edge"><title>Node14&#45;&gt;Node16</title>
<path fill="none" stroke="midnightblue" d="M1193.52,-212.075C1360.88,-180.562 1410.44,-214.048 1572,-176 1579.48,-174.239 1587.15,-172.026 1594.74,-169.562"/>
<polygon fill="midnightblue" stroke="midnightblue" points="1192.79,-208.651 1183.64,-213.985 1194.12,-215.524 1192.79,-208.651"/>
</g>
<!-- Node17 -->
<g id="node17" class="node"><title>Node17</title>
<g id="a_node17"><a xlink:href="autogenerated_2data_2include_2thrift_2_xsens_sensors_frame_8h.html" target="_top" xlink:title="/home/travis/build\l/robotology/human&#45;dynamics\l&#45;estimation/build/human\l&#45;viz&#45;bridge/autogenerated\l/data/include/thrift/XsensSensorsFrame.h">
<polygon fill="none" stroke="black" points="1366.5,-106.5 1366.5,-169.5 1563.5,-169.5 1563.5,-106.5 1366.5,-106.5"/>
<text text-anchor="start" x="1374.5" y="-157.5" font-family="Helvetica,sans-Serif" font-size="10.00">/home/travis/build</text>
<text text-anchor="start" x="1374.5" y="-146.5" font-family="Helvetica,sans-Serif" font-size="10.00">/robotology/human&#45;dynamics</text>
<text text-anchor="start" x="1374.5" y="-135.5" font-family="Helvetica,sans-Serif" font-size="10.00">&#45;estimation/build/human</text>
<text text-anchor="start" x="1374.5" y="-124.5" font-family="Helvetica,sans-Serif" font-size="10.00">&#45;viz&#45;bridge/autogenerated</text>
<text text-anchor="middle" x="1465" y="-113.5" font-family="Helvetica,sans-Serif" font-size="10.00">/data/include/thrift/XsensSensorsFrame.h</text>
</a>
</g>
</g>
<!-- Node14&#45;&gt;Node17 -->
<g id="edge19" class="edge"><title>Node14&#45;&gt;Node17</title>
<path fill="none" stroke="midnightblue" d="M1193.47,-211.966C1266.92,-193.342 1288.09,-195.3 1357,-176 1364.06,-174.022 1371.34,-171.843 1378.62,-169.563"/>
<polygon fill="midnightblue" stroke="midnightblue" points="1192.56,-208.586 1183.75,-214.472 1194.31,-215.364 1192.56,-208.586"/>
</g>
<!-- Node20 -->
<g id="node20" class="node"><title>Node20</title>
<g id="a_node20"><a xlink:href="autogenerated_2data_2src_2_xsens_sensor_data_8cpp.html" target="_top" xlink:title="/home/travis/build\l/robotology/human&#45;dynamics\l&#45;estimation/build/human\l&#45;viz&#45;bridge/autogenerated\l/data/src/XsensSensorData.cpp">
<polygon fill="none" stroke="black" points="1192,-106.5 1192,-169.5 1348,-169.5 1348,-106.5 1192,-106.5"/>
<text text-anchor="start" x="1200" y="-157.5" font-family="Helvetica,sans-Serif" font-size="10.00">/home/travis/build</text>
<text text-anchor="start" x="1200" y="-146.5" font-family="Helvetica,sans-Serif" font-size="10.00">/robotology/human&#45;dynamics</text>
<text text-anchor="start" x="1200" y="-135.5" font-family="Helvetica,sans-Serif" font-size="10.00">&#45;estimation/build/human</text>
<text text-anchor="start" x="1200" y="-124.5" font-family="Helvetica,sans-Serif" font-size="10.00">&#45;viz&#45;bridge/autogenerated</text>
<text text-anchor="middle" x="1270" y="-113.5" font-family="Helvetica,sans-Serif" font-size="10.00">/data/src/XsensSensorData.cpp</text>
</a>
</g>
</g>
<!-- Node14&#45;&gt;Node20 -->
<g id="edge22" class="edge"><title>Node14&#45;&gt;Node20</title>
<path fill="none" stroke="midnightblue" d="M1152.61,-207.204C1173.68,-194.964 1197.03,-181.394 1217.33,-169.601"/>
<polygon fill="midnightblue" stroke="midnightblue" points="1150.63,-204.309 1143.74,-212.359 1154.14,-210.362 1150.63,-204.309"/>
</g>
<!-- Node15&#45;&gt;Node4 -->
<g id="edge17" class="edge"><title>Node15&#45;&gt;Node4</title>
<path fill="none" stroke="midnightblue" d="M815.419,-103.424C811.248,-102.178 807.093,-101.026 803,-100 644.246,-60.1971 453.048,-43.582 346.028,-36.9994"/>
<polygon fill="midnightblue" stroke="midnightblue" points="814.569,-106.825 825.159,-106.486 816.669,-100.148 814.569,-106.825"/>
</g>
<!-- Node18 -->
<g id="node18" class="node"><title>Node18</title>
<g id="a_node18"><a xlink:href="__yarp__idl___2thrift_2xsensframe_2_xsens_sensors_frame_8cpp.html" target="_top" xlink:title="/home/travis/build\l/robotology/human&#45;dynamics\l&#45;estimation/build/human\l&#45;viz&#45;bridge/_yarp_idl_/thrift\l/xsensframe/XsensSensorsFrame.cpp">
<polygon fill="none" stroke="black" points="1364,-0.5 1364,-63.5 1548,-63.5 1548,-0.5 1364,-0.5"/>
<text text-anchor="start" x="1372" y="-51.5" font-family="Helvetica,sans-Serif" font-size="10.00">/home/travis/build</text>
<text text-anchor="start" x="1372" y="-40.5" font-family="Helvetica,sans-Serif" font-size="10.00">/robotology/human&#45;dynamics</text>
<text text-anchor="start" x="1372" y="-29.5" font-family="Helvetica,sans-Serif" font-size="10.00">&#45;estimation/build/human</text>
<text text-anchor="start" x="1372" y="-18.5" font-family="Helvetica,sans-Serif" font-size="10.00">&#45;viz&#45;bridge/_yarp_idl_/thrift</text>
<text text-anchor="middle" x="1456" y="-7.5" font-family="Helvetica,sans-Serif" font-size="10.00">/xsensframe/XsensSensorsFrame.cpp</text>
</a>
</g>
</g>
<!-- Node17&#45;&gt;Node18 -->
<g id="edge20" class="edge"><title>Node17&#45;&gt;Node18</title>
<path fill="none" stroke="midnightblue" d="M1461.48,-96.2683C1460.54,-85.4576 1459.54,-73.9643 1458.66,-63.7813"/>
<polygon fill="midnightblue" stroke="midnightblue" points="1458,-96.6981 1462.35,-106.359 1464.97,-96.0945 1458,-96.6981"/>
</g>
<!-- Node19 -->
<g id="node19" class="node"><title>Node19</title>
<g id="a_node19"><a xlink:href="autogenerated_2data_2src_2_xsens_sensors_frame_8cpp.html" target="_top" xlink:title="/home/travis/build\l/robotology/human&#45;dynamics\l&#45;estimation/build/human\l&#45;viz&#45;bridge/autogenerated\l/data/src/XsensSensorsFrame.cpp">
<polygon fill="none" stroke="black" points="1566,-0.5 1566,-63.5 1734,-63.5 1734,-0.5 1566,-0.5"/>
<text text-anchor="start" x="1574" y="-51.5" font-family="Helvetica,sans-Serif" font-size="10.00">/home/travis/build</text>
<text text-anchor="start" x="1574" y="-40.5" font-family="Helvetica,sans-Serif" font-size="10.00">/robotology/human&#45;dynamics</text>
<text text-anchor="start" x="1574" y="-29.5" font-family="Helvetica,sans-Serif" font-size="10.00">&#45;estimation/build/human</text>
<text text-anchor="start" x="1574" y="-18.5" font-family="Helvetica,sans-Serif" font-size="10.00">&#45;viz&#45;bridge/autogenerated</text>
<text text-anchor="middle" x="1650" y="-7.5" font-family="Helvetica,sans-Serif" font-size="10.00">/data/src/XsensSensorsFrame.cpp</text>
</a>
</g>
</g>
<!-- Node17&#45;&gt;Node19 -->
<g id="edge21" class="edge"><title>Node17&#45;&gt;Node19</title>
<path fill="none" stroke="midnightblue" d="M1528.38,-101.368C1550.23,-89.0854 1574.49,-75.4463 1595.56,-63.6015"/>
<polygon fill="midnightblue" stroke="midnightblue" points="1526.51,-98.4077 1519.51,-106.359 1529.94,-104.51 1526.51,-98.4077"/>
</g>
</g>
</svg>
