<?xml version="1.0" encoding="UTF-8" standalone="no"?>
<!DOCTYPE svg PUBLIC "-//W3C//DTD SVG 1.1//EN"
 "http://www.w3.org/Graphics/SVG/1.1/DTD/svg11.dtd">
<!-- Generated by graphviz version 2.36.0 (20140111.2315)
 -->
<!-- Title: /home/travis/build/robotology/human&#45;dynamics&#45;estimation/build/human&#45;state&#45;provider/_yarp_idl_/thrifts/humanstate/Quaternion.h Pages: 1 -->
<svg width="238pt" height="184pt"
 viewBox="0.00 0.00 238.00 184.00" xmlns="http://www.w3.org/2000/svg" xmlns:xlink="http://www.w3.org/1999/xlink">
<g id="graph0" class="graph" transform="scale(1 1) rotate(0) translate(4 180)">
<title>/home/travis/build/robotology/human&#45;dynamics&#45;estimation/build/human&#45;state&#45;provider/_yarp_idl_/thrifts/humanstate/Quaternion.h</title>
<!-- Node1 -->
<g id="node1" class="node"><title>Node1</title>
<polygon fill="#bfbfbf" stroke="black" points="24,-112.5 24,-175.5 186,-175.5 186,-112.5 24,-112.5"/>
<text text-anchor="start" x="32" y="-163.5" font-family="Helvetica,sans-Serif" font-size="10.00">/home/travis/build</text>
<text text-anchor="start" x="32" y="-152.5" font-family="Helvetica,sans-Serif" font-size="10.00">/robotology/human&#45;dynamics</text>
<text text-anchor="start" x="32" y="-141.5" font-family="Helvetica,sans-Serif" font-size="10.00">&#45;estimation/build/human</text>
<text text-anchor="start" x="32" y="-130.5" font-family="Helvetica,sans-Serif" font-size="10.00">&#45;state&#45;provider/_yarp_idl</text>
<text text-anchor="middle" x="105" y="-119.5" font-family="Helvetica,sans-Serif" font-size="10.00">_/thrifts/humanstate/Quaternion.h</text>
</g>
<!-- Node2 -->
<g id="node2" class="node"><title>Node2</title>
<polygon fill="none" stroke="#bfbfbf" points="0,-0.5 0,-19.5 80,-19.5 80,-0.5 0,-0.5"/>
<text text-anchor="middle" x="40" y="-7.5" font-family="Helvetica,sans-Serif" font-size="10.00">yarp/os/Wire.h</text>
</g>
<!-- Node1&#45;&gt;Node2 -->
<g id="edge1" class="edge"><title>Node1&#45;&gt;Node2</title>
<path fill="none" stroke="midnightblue" d="M76.3389,-112.265C67.6574,-101.492 58.8759,-88.8561 53,-76 46.34,-61.4283 43.079,-43.4821 41.4898,-30.1412"/>
<polygon fill="midnightblue" stroke="midnightblue" points="44.9357,-29.4158 40.4802,-19.8034 37.9689,-30.0963 44.9357,-29.4158"/>
</g>
<!-- Node3 -->
<g id="node3" class="node"><title>Node3</title>
<polygon fill="none" stroke="#bfbfbf" points="110,-0.5 110,-19.5 230,-19.5 230,-0.5 110,-0.5"/>
<text text-anchor="middle" x="170" y="-7.5" font-family="Helvetica,sans-Serif" font-size="10.00">yarp/os/idl/WireTypes.h</text>
</g>
<!-- Node1&#45;&gt;Node3 -->
<g id="edge2" class="edge"><title>Node1&#45;&gt;Node3</title>
<path fill="none" stroke="midnightblue" d="M133.661,-112.265C142.343,-101.492 151.124,-88.8561 157,-76 163.66,-61.4283 166.921,-43.4821 168.51,-30.1412"/>
<polygon fill="midnightblue" stroke="midnightblue" points="172.031,-30.0963 169.52,-19.8034 165.064,-29.4158 172.031,-30.0963"/>
</g>
<!-- Node4 -->
<g id="node4" class="node"><title>Node4</title>
<g id="a_node4"><a xlink:href="human-state-provider_2autogenerated_2include_2thrifts_2_vector3_8h.html" target="_top" xlink:title="thrifts/Vector3.h">
<polygon fill="none" stroke="black" points="62,-56.5 62,-75.5 148,-75.5 148,-56.5 62,-56.5"/>
<text text-anchor="middle" x="105" y="-63.5" font-family="Helvetica,sans-Serif" font-size="10.00">thrifts/Vector3.h</text>
</a>
</g>
</g>
<!-- Node1&#45;&gt;Node4 -->
<g id="edge3" class="edge"><title>Node1&#45;&gt;Node4</title>
<path fill="none" stroke="midnightblue" d="M105,-112.088C105,-103.15 105,-93.6688 105,-85.7195"/>
<polygon fill="midnightblue" stroke="midnightblue" points="108.5,-85.7181 105,-75.7182 101.5,-85.7182 108.5,-85.7181"/>
</g>
<!-- Node4&#45;&gt;Node2 -->
<g id="edge4" class="edge"><title>Node4&#45;&gt;Node2</title>
<path fill="none" stroke="midnightblue" d="M94.5566,-56.324C84.8538,-48.2631 70.1847,-36.0765 58.5003,-26.3695"/>
<polygon fill="midnightblue" stroke="midnightblue" points="60.5619,-23.532 50.6334,-19.8339 56.0887,-28.9163 60.5619,-23.532"/>
</g>
<!-- Node4&#45;&gt;Node3 -->
<g id="edge5" class="edge"><title>Node4&#45;&gt;Node3</title>
<path fill="none" stroke="midnightblue" d="M115.443,-56.324C125.146,-48.2631 139.815,-36.0765 151.5,-26.3695"/>
<polygon fill="midnightblue" stroke="midnightblue" points="153.911,-28.9163 159.367,-19.8339 149.438,-23.532 153.911,-28.9163"/>
</g>
</g>
</svg>
