<?xml version="1.0" encoding="UTF-8" standalone="no"?>
<!DOCTYPE svg PUBLIC "-//W3C//DTD SVG 1.1//EN"
 "http://www.w3.org/Graphics/SVG/1.1/DTD/svg11.dtd">
<!-- Generated by graphviz version 2.36.0 (20140111.2315)
 -->
<!-- Title: /home/travis/build/robotology/human&#45;dynamics&#45;estimation/human&#45;robot&#45;pose/src/main.cpp Pages: 1 -->
<svg width="673pt" height="174pt"
 viewBox="0.00 0.00 673.00 174.00" xmlns="http://www.w3.org/2000/svg" xmlns:xlink="http://www.w3.org/1999/xlink">
<g id="graph0" class="graph" transform="scale(1 1) rotate(0) translate(4 170)">
<title>/home/travis/build/robotology/human&#45;dynamics&#45;estimation/human&#45;robot&#45;pose/src/main.cpp</title>
<!-- Node1 -->
<g id="node1" class="node"><title>Node1</title>
<polygon fill="#bfbfbf" stroke="black" points="272,-113 272,-165 414,-165 414,-113 272,-113"/>
<text text-anchor="start" x="280" y="-153" font-family="Helvetica,sans-Serif" font-size="10.00">/home/travis/build</text>
<text text-anchor="start" x="280" y="-142" font-family="Helvetica,sans-Serif" font-size="10.00">/robotology/human&#45;dynamics</text>
<text text-anchor="start" x="280" y="-131" font-family="Helvetica,sans-Serif" font-size="10.00">&#45;estimation/human&#45;robot</text>
<text text-anchor="middle" x="343" y="-120" font-family="Helvetica,sans-Serif" font-size="10.00">&#45;pose/src/main.cpp</text>
</g>
<!-- Node2 -->
<g id="node2" class="node"><title>Node2</title>
<polygon fill="none" stroke="#bfbfbf" points="-0.5,-56.5 -0.5,-75.5 106.5,-75.5 106.5,-56.5 -0.5,-56.5"/>
<text text-anchor="middle" x="53" y="-63.5" font-family="Helvetica,sans-Serif" font-size="10.00">yarp/os/LogStream.h</text>
</g>
<!-- Node1&#45;&gt;Node2 -->
<g id="edge1" class="edge"><title>Node1&#45;&gt;Node2</title>
<path fill="none" stroke="midnightblue" d="M271.687,-120.541C217.314,-107.229 144.114,-89.3072 97.7326,-77.9518"/>
<polygon fill="midnightblue" stroke="midnightblue" points="98.5195,-74.5411 87.974,-75.5626 96.8548,-81.3403 98.5195,-74.5411"/>
</g>
<!-- Node3 -->
<g id="node3" class="node"><title>Node3</title>
<polygon fill="none" stroke="#bfbfbf" points="124.5,-56.5 124.5,-75.5 221.5,-75.5 221.5,-56.5 124.5,-56.5"/>
<text text-anchor="middle" x="173" y="-63.5" font-family="Helvetica,sans-Serif" font-size="10.00">yarp/os/Network.h</text>
</g>
<!-- Node1&#45;&gt;Node3 -->
<g id="edge2" class="edge"><title>Node1&#45;&gt;Node3</title>
<path fill="none" stroke="midnightblue" d="M283.064,-112.968C256.04,-101.681 225.303,-88.8441 203.192,-79.6097"/>
<polygon fill="midnightblue" stroke="midnightblue" points="204.261,-76.2632 193.685,-75.6389 201.563,-82.7225 204.261,-76.2632"/>
</g>
<!-- Node4 -->
<g id="node4" class="node"><title>Node4</title>
<polygon fill="none" stroke="#bfbfbf" points="239.5,-56.5 239.5,-75.5 322.5,-75.5 322.5,-56.5 239.5,-56.5"/>
<text text-anchor="middle" x="281" y="-63.5" font-family="Helvetica,sans-Serif" font-size="10.00">yarp/os/Node.h</text>
</g>
<!-- Node1&#45;&gt;Node4 -->
<g id="edge3" class="edge"><title>Node1&#45;&gt;Node4</title>
<path fill="none" stroke="midnightblue" d="M320.967,-112.768C312.421,-102.982 302.88,-92.0561 295.264,-83.3346"/>
<polygon fill="midnightblue" stroke="midnightblue" points="297.861,-80.9874 288.647,-75.7572 292.588,-85.5917 297.861,-80.9874"/>
</g>
<!-- Node5 -->
<g id="node5" class="node"><title>Node5</title>
<polygon fill="none" stroke="#bfbfbf" points="340.5,-56.5 340.5,-75.5 469.5,-75.5 469.5,-56.5 340.5,-56.5"/>
<text text-anchor="middle" x="405" y="-63.5" font-family="Helvetica,sans-Serif" font-size="10.00">yarp/os/ResourceFinder.h</text>
</g>
<!-- Node1&#45;&gt;Node5 -->
<g id="edge4" class="edge"><title>Node1&#45;&gt;Node5</title>
<path fill="none" stroke="midnightblue" d="M365.033,-112.768C373.579,-102.982 383.12,-92.0561 390.736,-83.3346"/>
<polygon fill="midnightblue" stroke="midnightblue" points="393.412,-85.5917 397.353,-75.7572 388.139,-80.9874 393.412,-85.5917"/>
</g>
<!-- Node6 -->
<g id="node6" class="node"><title>Node6</title>
<g id="a_node6"><a xlink:href="_human_robot_pose_8h.html" target="_top" xlink:title="HumanRobotPose.h">
<polygon fill="none" stroke="black" points="487.5,-56.5 487.5,-75.5 592.5,-75.5 592.5,-56.5 487.5,-56.5"/>
<text text-anchor="middle" x="540" y="-63.5" font-family="Helvetica,sans-Serif" font-size="10.00">HumanRobotPose.h</text>
</a>
</g>
</g>
<!-- Node1&#45;&gt;Node6 -->
<g id="edge5" class="edge"><title>Node1&#45;&gt;Node6</title>
<path fill="none" stroke="midnightblue" d="M412.455,-112.968C444.336,-101.478 480.675,-88.381 506.388,-79.1141"/>
<polygon fill="midnightblue" stroke="midnightblue" points="507.809,-82.3222 516.03,-75.6389 505.436,-75.7368 507.809,-82.3222"/>
</g>
<!-- Node9 -->
<g id="node9" class="node"><title>Node9</title>
<polygon fill="none" stroke="#bfbfbf" points="611,-56.5 611,-75.5 665,-75.5 665,-56.5 611,-56.5"/>
<text text-anchor="middle" x="638" y="-63.5" font-family="Helvetica,sans-Serif" font-size="10.00">iostream</text>
</g>
<!-- Node1&#45;&gt;Node9 -->
<g id="edge8" class="edge"><title>Node1&#45;&gt;Node9</title>
<path fill="none" stroke="midnightblue" d="M414.194,-120.947C466.01,-108.523 537.865,-91.2646 601,-76 601.1,-75.9757 601.201,-75.9514 601.302,-75.9271"/>
<polygon fill="midnightblue" stroke="midnightblue" points="602.03,-79.352 610.924,-73.5952 600.381,-72.5489 602.03,-79.352"/>
</g>
<!-- Node7 -->
<g id="node7" class="node"><title>Node7</title>
<polygon fill="none" stroke="#bfbfbf" points="465,-0.5 465,-19.5 517,-19.5 517,-0.5 465,-0.5"/>
<text text-anchor="middle" x="491" y="-7.5" font-family="Helvetica,sans-Serif" font-size="10.00">memory</text>
</g>
<!-- Node6&#45;&gt;Node7 -->
<g id="edge6" class="edge"><title>Node6&#45;&gt;Node7</title>
<path fill="none" stroke="midnightblue" d="M531.909,-56.083C524.845,-48.2982 514.412,-36.8015 505.851,-27.3665"/>
<polygon fill="midnightblue" stroke="midnightblue" points="508.253,-24.8047 498.941,-19.7511 503.069,-29.5087 508.253,-24.8047"/>
</g>
<!-- Node8 -->
<g id="node8" class="node"><title>Node8</title>
<polygon fill="none" stroke="#bfbfbf" points="535.5,-0.5 535.5,-19.5 640.5,-19.5 640.5,-0.5 535.5,-0.5"/>
<text text-anchor="middle" x="588" y="-7.5" font-family="Helvetica,sans-Serif" font-size="10.00">yarp/os/RFModule.h</text>
</g>
<!-- Node6&#45;&gt;Node8 -->
<g id="edge7" class="edge"><title>Node6&#45;&gt;Node8</title>
<path fill="none" stroke="midnightblue" d="M547.926,-56.083C554.846,-48.2982 565.065,-36.8015 573.452,-27.3665"/>
<polygon fill="midnightblue" stroke="midnightblue" points="576.194,-29.5505 580.221,-19.7511 570.962,-24.8999 576.194,-29.5505"/>
</g>
</g>
</svg>
