<?xml version="1.0" encoding="UTF-8" standalone="no"?>
<!DOCTYPE svg PUBLIC "-//W3C//DTD SVG 1.1//EN"
 "http://www.w3.org/Graphics/SVG/1.1/DTD/svg11.dtd">
<!-- Generated by graphviz version 2.36.0 (20140111.2315)
 -->
<!-- Title: /home/travis/build/robotology/human&#45;dynamics&#45;estimation/human&#45;dynamics&#45;estimator/src/main.cpp Pages: 1 -->
<svg width="2118pt" height="186pt"
 viewBox="0.00 0.00 2118.00 186.00" xmlns="http://www.w3.org/2000/svg" xmlns:xlink="http://www.w3.org/1999/xlink">
<g id="graph0" class="graph" transform="scale(1 1) rotate(0) translate(4 182)">
<title>/home/travis/build/robotology/human&#45;dynamics&#45;estimation/human&#45;dynamics&#45;estimator/src/main.cpp</title>
<!-- Node1 -->
<g id="node1" class="node"><title>Node1</title>
<polygon fill="#bfbfbf" stroke="black" points="1038,-125 1038,-177 1180,-177 1180,-125 1038,-125"/>
<text text-anchor="start" x="1046" y="-165" font-family="Helvetica,sans-Serif" font-size="10.00">/home/travis/build</text>
<text text-anchor="start" x="1046" y="-154" font-family="Helvetica,sans-Serif" font-size="10.00">/robotology/human&#45;dynamics</text>
<text text-anchor="start" x="1046" y="-143" font-family="Helvetica,sans-Serif" font-size="10.00">&#45;estimation/human&#45;dynamics</text>
<text text-anchor="middle" x="1109" y="-132" font-family="Helvetica,sans-Serif" font-size="10.00">&#45;estimator/src/main.cpp</text>
</g>
<!-- Node2 -->
<g id="node2" class="node"><title>Node2</title>
<polygon fill="none" stroke="#bfbfbf" points="935.5,-68.5 935.5,-87.5 1042.5,-87.5 1042.5,-68.5 935.5,-68.5"/>
<text text-anchor="middle" x="989" y="-75.5" font-family="Helvetica,sans-Serif" font-size="10.00">yarp/os/LogStream.h</text>
</g>
<!-- Node1&#45;&gt;Node2 -->
<g id="edge1" class="edge"><title>Node1&#45;&gt;Node2</title>
<path fill="none" stroke="midnightblue" d="M1066.69,-124.968C1048.48,-114.19 1027.87,-101.997 1012.46,-92.879"/>
<polygon fill="midnightblue" stroke="midnightblue" points="1013.99,-89.7188 1003.6,-87.6389 1010.43,-95.7433 1013.99,-89.7188"/>
</g>
<!-- Node3 -->
<g id="node3" class="node"><title>Node3</title>
<polygon fill="none" stroke="#bfbfbf" points="1060.5,-68.5 1060.5,-87.5 1157.5,-87.5 1157.5,-68.5 1060.5,-68.5"/>
<text text-anchor="middle" x="1109" y="-75.5" font-family="Helvetica,sans-Serif" font-size="10.00">yarp/os/Network.h</text>
</g>
<!-- Node1&#45;&gt;Node3 -->
<g id="edge2" class="edge"><title>Node1&#45;&gt;Node3</title>
<path fill="none" stroke="midnightblue" d="M1109,-124.768C1109,-115.89 1109,-106.074 1109,-97.8165"/>
<polygon fill="midnightblue" stroke="midnightblue" points="1112.5,-97.7571 1109,-87.7572 1105.5,-97.7572 1112.5,-97.7571"/>
</g>
<!-- Node4 -->
<g id="node4" class="node"><title>Node4</title>
<g id="a_node4"><a xlink:href="_human_dynamics_estimator_8h.html" target="_top" xlink:title="HumanDynamicsEstimator.h">
<polygon fill="none" stroke="black" points="1175.5,-68.5 1175.5,-87.5 1318.5,-87.5 1318.5,-68.5 1175.5,-68.5"/>
<text text-anchor="middle" x="1247" y="-75.5" font-family="Helvetica,sans-Serif" font-size="10.00">HumanDynamicsEstimator.h</text>
</a>
</g>
</g>
<!-- Node1&#45;&gt;Node4 -->
<g id="edge3" class="edge"><title>Node1&#45;&gt;Node4</title>
<path fill="none" stroke="midnightblue" d="M1157.65,-124.968C1179,-113.986 1203.2,-101.537 1221.02,-92.3662"/>
<polygon fill="midnightblue" stroke="midnightblue" points="1222.92,-95.3261 1230.21,-87.6389 1219.72,-89.1016 1222.92,-95.3261"/>
</g>
<!-- Node5 -->
<g id="node5" class="node"><title>Node5</title>
<polygon fill="none" stroke="#bfbfbf" points="0,-6.5 0,-25.5 128,-25.5 128,-6.5 0,-6.5"/>
<text text-anchor="middle" x="64" y="-13.5" font-family="Helvetica,sans-Serif" font-size="10.00">thrifts/HumanDynamics.h</text>
</g>
<!-- Node4&#45;&gt;Node5 -->
<g id="edge4" class="edge"><title>Node4&#45;&gt;Node5</title>
<path fill="none" stroke="midnightblue" d="M1175.47,-68.7556C1172.27,-68.4805 1169.1,-68.2265 1166,-68 709.599,-34.7087 591.387,-86.2434 137,-32 128.039,-30.9303 118.542,-29.3299 109.466,-27.5675"/>
<polygon fill="midnightblue" stroke="midnightblue" points="109.946,-24.0936 99.4493,-25.5285 108.55,-30.9529 109.946,-24.0936"/>
</g>
<!-- Node6 -->
<g id="node6" class="node"><title>Node6</title>
<polygon fill="none" stroke="#bfbfbf" points="146.5,-6.5 146.5,-25.5 253.5,-25.5 253.5,-6.5 146.5,-6.5"/>
<text text-anchor="middle" x="200" y="-13.5" font-family="Helvetica,sans-Serif" font-size="10.00">thrifts/HumanState.h</text>
</g>
<!-- Node4&#45;&gt;Node6 -->
<g id="edge5" class="edge"><title>Node4&#45;&gt;Node6</title>
<path fill="none" stroke="midnightblue" d="M1175.47,-68.7746C1172.27,-68.4943 1169.1,-68.234 1166,-68 765.485,-37.8035 660.9,-86.7726 263,-32 255.649,-30.9881 247.901,-29.5009 240.449,-27.8508"/>
<polygon fill="midnightblue" stroke="midnightblue" points="241.071,-24.4018 230.536,-25.529 239.474,-31.2174 241.071,-24.4018"/>
</g>
<!-- Node7 -->
<g id="node7" class="node"><title>Node7</title>
<polygon fill="none" stroke="#bfbfbf" points="272,-6.5 272,-25.5 386,-25.5 386,-6.5 272,-6.5"/>
<text text-anchor="middle" x="329" y="-13.5" font-family="Helvetica,sans-Serif" font-size="10.00">thrifts/HumanForces.h</text>
</g>
<!-- Node4&#45;&gt;Node7 -->
<g id="edge6" class="edge"><title>Node4&#45;&gt;Node7</title>
<path fill="none" stroke="midnightblue" d="M1175.47,-68.8011C1172.27,-68.5136 1169.1,-68.2446 1166,-68 824.021,-41.045 734.916,-78.1929 395,-32 387.222,-30.9431 379.01,-29.4165 371.12,-27.7373"/>
<polygon fill="midnightblue" stroke="midnightblue" points="371.877,-24.3202 361.354,-25.5525 370.349,-31.1513 371.877,-24.3202"/>
</g>
<!-- Node8 -->
<g id="node8" class="node"><title>Node8</title>
<polygon fill="none" stroke="#bfbfbf" points="404.5,-6.5 404.5,-25.5 553.5,-25.5 553.5,-6.5 404.5,-6.5"/>
<text text-anchor="middle" x="479" y="-13.5" font-family="Helvetica,sans-Serif" font-size="10.00">iDynTree/Core/SparseMatrix.h</text>
</g>
<!-- Node4&#45;&gt;Node8 -->
<g id="edge7" class="edge"><title>Node4&#45;&gt;Node8</title>
<path fill="none" stroke="midnightblue" d="M1175.47,-68.8511C1172.27,-68.5501 1169.1,-68.2646 1166,-68 898.052,-45.1439 829.014,-63.9695 562,-32 551.859,-30.7858 541.082,-29.1197 530.769,-27.3381"/>
<polygon fill="midnightblue" stroke="midnightblue" points="531.112,-23.8439 520.652,-25.5305 529.88,-30.7348 531.112,-23.8439"/>
</g>
<!-- Node9 -->
<g id="node9" class="node"><title>Node9</title>
<polygon fill="none" stroke="#bfbfbf" points="571,-1 571,-31 677,-31 677,-1 571,-1"/>
<text text-anchor="start" x="579" y="-19" font-family="Helvetica,sans-Serif" font-size="10.00">iDynTree/Estimation</text>
<text text-anchor="middle" x="624" y="-8" font-family="Helvetica,sans-Serif" font-size="10.00">/BerdyHelper.h</text>
</g>
<!-- Node4&#45;&gt;Node9 -->
<g id="edge8" class="edge"><title>Node4&#45;&gt;Node9</title>
<path fill="none" stroke="midnightblue" d="M1175.46,-68.9107C1172.26,-68.5936 1169.1,-68.2883 1166,-68 956.316,-48.494 899.108,-64.7383 687.517,-32.0758"/>
<polygon fill="midnightblue" stroke="midnightblue" points="687.744,-28.5688 677.324,-30.4831 686.663,-35.4849 687.744,-28.5688"/>
</g>
<!-- Node10 -->
<g id="node10" class="node"><title>Node10</title>
<polygon fill="none" stroke="#bfbfbf" points="695.5,-6.5 695.5,-25.5 856.5,-25.5 856.5,-6.5 695.5,-6.5"/>
<text text-anchor="middle" x="776" y="-13.5" font-family="Helvetica,sans-Serif" font-size="10.00">iDynTree/KinDynComputations.h</text>
</g>
<!-- Node4&#45;&gt;Node10 -->
<g id="edge9" class="edge"><title>Node4&#45;&gt;Node10</title>
<path fill="none" stroke="midnightblue" d="M1175.44,-69.0014C1081.91,-58.4716 923.172,-40.3233 865,-32 854.995,-30.5685 844.382,-28.9062 834.102,-27.2201"/>
<polygon fill="midnightblue" stroke="midnightblue" points="834.408,-23.7229 823.969,-25.5339 833.258,-30.6279 834.408,-23.7229"/>
</g>
<!-- Node11 -->
<g id="node11" class="node"><title>Node11</title>
<polygon fill="none" stroke="#bfbfbf" points="874.5,-6.5 874.5,-25.5 985.5,-25.5 985.5,-6.5 874.5,-6.5"/>
<text text-anchor="middle" x="930" y="-13.5" font-family="Helvetica,sans-Serif" font-size="10.00">yarp/dev/PolyDriver.h</text>
</g>
<!-- Node4&#45;&gt;Node11 -->
<g id="edge10" class="edge"><title>Node4&#45;&gt;Node11</title>
<path fill="none" stroke="midnightblue" d="M1194.73,-68.4514C1143.66,-59.9145 1063.79,-46.0709 995,-32 988.745,-30.7207 982.17,-29.2968 975.703,-27.8499"/>
<polygon fill="midnightblue" stroke="midnightblue" points="976.217,-24.3777 965.69,-25.5749 974.666,-31.2037 976.217,-24.3777"/>
</g>
<!-- Node12 -->
<g id="node12" class="node"><title>Node12</title>
<polygon fill="none" stroke="#bfbfbf" points="1003.5,-6.5 1003.5,-25.5 1118.5,-25.5 1118.5,-6.5 1003.5,-6.5"/>
<text text-anchor="middle" x="1061" y="-13.5" font-family="Helvetica,sans-Serif" font-size="10.00">yarp/os/BufferedPort.h</text>
</g>
<!-- Node4&#45;&gt;Node12 -->
<g id="edge11" class="edge"><title>Node4&#45;&gt;Node12</title>
<path fill="none" stroke="midnightblue" d="M1220.35,-68.4035C1188.03,-57.9777 1133.4,-40.3557 1097.27,-28.6992"/>
<polygon fill="midnightblue" stroke="midnightblue" points="1098.19,-25.3197 1087.6,-25.5806 1096.04,-31.9817 1098.19,-25.3197"/>
</g>
<!-- Node13 -->
<g id="node13" class="node"><title>Node13</title>
<polygon fill="none" stroke="#bfbfbf" points="1136.5,-6.5 1136.5,-25.5 1241.5,-25.5 1241.5,-6.5 1136.5,-6.5"/>
<text text-anchor="middle" x="1189" y="-13.5" font-family="Helvetica,sans-Serif" font-size="10.00">yarp/os/RFModule.h</text>
</g>
<!-- Node4&#45;&gt;Node13 -->
<g id="edge12" class="edge"><title>Node4&#45;&gt;Node13</title>
<path fill="none" stroke="midnightblue" d="M1238.69,-68.4035C1229.73,-59.1361 1215.28,-44.1828 1204.26,-32.7876"/>
<polygon fill="midnightblue" stroke="midnightblue" points="1206.76,-30.3379 1197.29,-25.5806 1201.73,-35.2031 1206.76,-30.3379"/>
</g>
<!-- Node14 -->
<g id="node14" class="node"><title>Node14</title>
<polygon fill="none" stroke="#bfbfbf" points="1259.5,-6.5 1259.5,-25.5 1350.5,-25.5 1350.5,-6.5 1259.5,-6.5"/>
<text text-anchor="middle" x="1305" y="-13.5" font-family="Helvetica,sans-Serif" font-size="10.00">yarp/sig/Vector.h</text>
</g>
<!-- Node4&#45;&gt;Node14 -->
<g id="edge13" class="edge"><title>Node4&#45;&gt;Node14</title>
<path fill="none" stroke="midnightblue" d="M1255.31,-68.4035C1264.27,-59.1361 1278.72,-44.1828 1289.74,-32.7876"/>
<polygon fill="midnightblue" stroke="midnightblue" points="1292.27,-35.2031 1296.71,-25.5806 1287.24,-30.3379 1292.27,-35.2031"/>
</g>
<!-- Node15 -->
<g id="node15" class="node"><title>Node15</title>
<polygon fill="none" stroke="#bfbfbf" points="1368.5,-6.5 1368.5,-25.5 1433.5,-25.5 1433.5,-6.5 1368.5,-6.5"/>
<text text-anchor="middle" x="1401" y="-13.5" font-family="Helvetica,sans-Serif" font-size="10.00">Eigen/Core</text>
</g>
<!-- Node4&#45;&gt;Node15 -->
<g id="edge14" class="edge"><title>Node4&#45;&gt;Node15</title>
<path fill="none" stroke="midnightblue" d="M1269.06,-68.4035C1295.37,-58.1559 1339.51,-40.9561 1369.42,-29.3021"/>
<polygon fill="midnightblue" stroke="midnightblue" points="1370.93,-32.4722 1378.98,-25.5806 1368.39,-25.9497 1370.93,-32.4722"/>
</g>
<!-- Node16 -->
<g id="node16" class="node"><title>Node16</title>
<polygon fill="none" stroke="#bfbfbf" points="1451.5,-6.5 1451.5,-25.5 1524.5,-25.5 1524.5,-6.5 1451.5,-6.5"/>
<text text-anchor="middle" x="1488" y="-13.5" font-family="Helvetica,sans-Serif" font-size="10.00">Eigen/Dense</text>
</g>
<!-- Node4&#45;&gt;Node16 -->
<g id="edge15" class="edge"><title>Node4&#45;&gt;Node16</title>
<path fill="none" stroke="midnightblue" d="M1288.73,-68.4872C1328.4,-60.1326 1389.61,-46.5561 1442,-32 1445.81,-30.9424 1449.77,-29.7671 1453.7,-28.5531"/>
<polygon fill="midnightblue" stroke="midnightblue" points="1454.83,-31.8669 1463.29,-25.5005 1452.7,-25.1961 1454.83,-31.8669"/>
</g>
<!-- Node17 -->
<g id="node17" class="node"><title>Node17</title>
<polygon fill="none" stroke="#bfbfbf" points="1543,-6.5 1543,-25.5 1639,-25.5 1639,-6.5 1543,-6.5"/>
<text text-anchor="middle" x="1591" y="-13.5" font-family="Helvetica,sans-Serif" font-size="10.00">Eigen/SparseCore</text>
</g>
<!-- Node4&#45;&gt;Node17 -->
<g id="edge16" class="edge"><title>Node4&#45;&gt;Node17</title>
<path fill="none" stroke="midnightblue" d="M1312.93,-68.4777C1371.11,-60.5172 1458.07,-47.546 1533,-32 1538.54,-30.8511 1544.34,-29.5136 1550.04,-28.1193"/>
<polygon fill="midnightblue" stroke="midnightblue" points="1551.29,-31.4157 1560.13,-25.577 1549.57,-24.6281 1551.29,-31.4157"/>
</g>
<!-- Node18 -->
<g id="node18" class="node"><title>Node18</title>
<polygon fill="none" stroke="#bfbfbf" points="1657,-6.5 1657,-25.5 1773,-25.5 1773,-6.5 1657,-6.5"/>
<text text-anchor="middle" x="1715" y="-13.5" font-family="Helvetica,sans-Serif" font-size="10.00">Eigen/SparseCholesky</text>
</g>
<!-- Node4&#45;&gt;Node18 -->
<g id="edge17" class="edge"><title>Node4&#45;&gt;Node18</title>
<path fill="none" stroke="midnightblue" d="M1318.67,-71.3189C1399.15,-64.3925 1533.48,-51.1869 1648,-32 1655.27,-30.7813 1662.95,-29.2754 1670.4,-27.6924"/>
<polygon fill="midnightblue" stroke="midnightblue" points="1671.35,-31.0672 1680.37,-25.5057 1669.85,-24.2298 1671.35,-31.0672"/>
</g>
<!-- Node19 -->
<g id="node19" class="node"><title>Node19</title>
<polygon fill="none" stroke="#bfbfbf" points="1791,-6.5 1791,-25.5 1879,-25.5 1879,-6.5 1791,-6.5"/>
<text text-anchor="middle" x="1835" y="-13.5" font-family="Helvetica,sans-Serif" font-size="10.00">Eigen/SparseLU</text>
</g>
<!-- Node4&#45;&gt;Node19 -->
<g id="edge18" class="edge"><title>Node4&#45;&gt;Node19</title>
<path fill="none" stroke="midnightblue" d="M1318.81,-75.2021C1421.86,-71.662 1617.31,-61.3656 1781,-32 1786.57,-31.0014 1792.39,-29.6829 1798.06,-28.2414"/>
<polygon fill="midnightblue" stroke="midnightblue" points="1799.29,-31.5365 1808.03,-25.5562 1797.47,-24.7774 1799.29,-31.5365"/>
</g>
<!-- Node20 -->
<g id="node20" class="node"><title>Node20</title>
<polygon fill="none" stroke="#bfbfbf" points="1897.5,-6.5 1897.5,-25.5 1956.5,-25.5 1956.5,-6.5 1897.5,-6.5"/>
<text text-anchor="middle" x="1927" y="-13.5" font-family="Helvetica,sans-Serif" font-size="10.00">functional</text>
</g>
<!-- Node4&#45;&gt;Node20 -->
<g id="edge19" class="edge"><title>Node4&#45;&gt;Node20</title>
<path fill="none" stroke="midnightblue" d="M1318.69,-74.5615C1462.25,-69.251 1780.41,-55.2187 1887,-32 1890.51,-31.2349 1894.13,-30.2218 1897.68,-29.082"/>
<polygon fill="midnightblue" stroke="midnightblue" points="1899.15,-32.2766 1907.4,-25.6353 1896.81,-25.6792 1899.15,-32.2766"/>
</g>
<!-- Node21 -->
<g id="node21" class="node"><title>Node21</title>
<polygon fill="none" stroke="#bfbfbf" points="1974.5,-6.5 1974.5,-25.5 2057.5,-25.5 2057.5,-6.5 1974.5,-6.5"/>
<text text-anchor="middle" x="2016" y="-13.5" font-family="Helvetica,sans-Serif" font-size="10.00">unordered_map</text>
</g>
<!-- Node4&#45;&gt;Node21 -->
<g id="edge20" class="edge"><title>Node4&#45;&gt;Node21</title>
<path fill="none" stroke="midnightblue" d="M1318.7,-77.7757C1448.62,-78.0165 1731.14,-73.1853 1965,-32 1970.26,-31.0733 1975.75,-29.7987 1981.1,-28.3809"/>
<polygon fill="midnightblue" stroke="midnightblue" points="1982.44,-31.6368 1991.1,-25.5317 1980.53,-24.9045 1982.44,-31.6368"/>
</g>
<!-- Node22 -->
<g id="node22" class="node"><title>Node22</title>
<polygon fill="none" stroke="#bfbfbf" points="2075.5,-6.5 2075.5,-25.5 2110.5,-25.5 2110.5,-6.5 2075.5,-6.5"/>
<text text-anchor="middle" x="2093" y="-13.5" font-family="Helvetica,sans-Serif" font-size="10.00">map</text>
</g>
<!-- Node4&#45;&gt;Node22 -->
<g id="edge21" class="edge"><title>Node4&#45;&gt;Node22</title>
<path fill="none" stroke="midnightblue" d="M1318.64,-77.1682C1491.37,-76.9159 1926.79,-72.1807 2066,-32 2067.7,-31.5093 2069.41,-30.8958 2071.1,-30.1994"/>
<polygon fill="midnightblue" stroke="midnightblue" points="2072.96,-33.1832 2080.34,-25.581 2069.83,-26.922 2072.96,-33.1832"/>
</g>
</g>
</svg>
