<?xml version="1.0" encoding="UTF-8" standalone="no"?>
<!DOCTYPE svg PUBLIC "-//W3C//DTD SVG 1.1//EN"
 "http://www.w3.org/Graphics/SVG/1.1/DTD/svg11.dtd">
<!-- Generated by graphviz version 2.36.0 (20140111.2315)
 -->
<!-- Title: /home/travis/build/robotology/human&#45;dynamics&#45;estimation/build/human&#45;viz&#45;bridge/autogenerated/data/include/thrift/Vector3.h Pages: 1 -->
<!--zoomable 484 -->
<svg id="main" version="1.1" xmlns="http://www.w3.org/2000/svg" xmlns:xlink="http://www.w3.org/1999/xlink" xml:space="preserve" onload="init(evt)">
<style type="text/css"><![CDATA[
.edge:hover path { stroke: red; }
.edge:hover polygon { stroke: red; fill: red; }
]]></style>
<script type="text/javascript"><![CDATA[
var edges = document.getElementsByTagName('g');
if (edges && edges.length) {
  for (var i=0;i<edges.length;i++) {
    if (edges[i].id.substr(0,4)=='edge') {
      edges[i].setAttribute('class','edge');
    }
  }
}
]]></script>
        <defs>
                <circle id="rim" cx="0" cy="0" r="7"/>
                <circle id="rim2" cx="0" cy="0" r="3.5"/>
                <g id="zoomPlus">
                        <use xlink:href="#rim" fill="#404040">
                                <set attributeName="fill" to="#808080" begin="zoomplus.mouseover" end="zoomplus.mouseout"/>
                        </use>
                        <path d="M-4,0h8M0,-4v8" fill="none" stroke="white" stroke-width="1.5" pointer-events="none"/>
                </g>
                <g id="zoomMin">
                        <use xlink:href="#rim" fill="#404040">
                                <set attributeName="fill" to="#808080" begin="zoomminus.mouseover" end="zoomminus.mouseout"/>
                        </use>
                        <path d="M-4,0h8" fill="none" stroke="white" stroke-width="1.5" pointer-events="none"/>
                </g>
                <g id="dirArrow">
                        <path fill="none" stroke="white" stroke-width="1.5" d="M0,-3.0v7 M-2.5,-0.5L0,-3.0L2.5,-0.5"/>
                </g>
               <g id="resetDef">
                       <use xlink:href="#rim2" fill="#404040">
                               <set attributeName="fill" to="#808080" begin="reset.mouseover" end="reset.mouseout"/>
                       </use>
               </g>
        </defs>

<script type="text/javascript">
var viewWidth = 1783;
var viewHeight = 484;
var sectionId = 'dynsection-1';
</script>
<script xlink:href="svgpan.js"/>
<svg id="graph" class="graph">
<g id="viewport">
<title>/home/travis/build/robotology/human&#45;dynamics&#45;estimation/build/human&#45;viz&#45;bridge/autogenerated/data/include/thrift/Vector3.h</title>
<!-- Node1 -->
<g id="node1" class="node"><title>Node1</title>
<polygon fill="#bfbfbf" stroke="black" points="400,-412.5 400,-475.5 542,-475.5 542,-412.5 400,-412.5"/>
<text text-anchor="start" x="408" y="-463.5" font-family="Helvetica,sans-Serif" font-size="10.00">/home/travis/build</text>
<text text-anchor="start" x="408" y="-452.5" font-family="Helvetica,sans-Serif" font-size="10.00">/robotology/human&#45;dynamics</text>
<text text-anchor="start" x="408" y="-441.5" font-family="Helvetica,sans-Serif" font-size="10.00">&#45;estimation/build/human</text>
<text text-anchor="start" x="408" y="-430.5" font-family="Helvetica,sans-Serif" font-size="10.00">&#45;viz&#45;bridge/autogenerated</text>
<text text-anchor="middle" x="471" y="-419.5" font-family="Helvetica,sans-Serif" font-size="10.00">/data/include/thrift/Vector3.h</text>
</g>
<!-- Node2 -->
<g id="node2" class="node"><title>Node2</title>
<g id="a_node2"><a xlink:href="human-viz-bridge_2__yarp__idl___2thrift_2xsensframe_2_quaternion_8h.html" target="_top" xlink:title="/home/travis/build\l/robotology/human&#45;dynamics\l&#45;estimation/build/human\l&#45;viz&#45;bridge/_yarp_idl_/thrift\l/xsensframe/Quaternion.h">
<polygon fill="none" stroke="black" points="142,-312.5 142,-375.5 284,-375.5 284,-312.5 142,-312.5"/>
<text text-anchor="start" x="150" y="-363.5" font-family="Helvetica,sans-Serif" font-size="10.00">/home/travis/build</text>
<text text-anchor="start" x="150" y="-352.5" font-family="Helvetica,sans-Serif" font-size="10.00">/robotology/human&#45;dynamics</text>
<text text-anchor="start" x="150" y="-341.5" font-family="Helvetica,sans-Serif" font-size="10.00">&#45;estimation/build/human</text>
<text text-anchor="start" x="150" y="-330.5" font-family="Helvetica,sans-Serif" font-size="10.00">&#45;viz&#45;bridge/_yarp_idl_/thrift</text>
<text text-anchor="middle" x="213" y="-319.5" font-family="Helvetica,sans-Serif" font-size="10.00">/xsensframe/Quaternion.h</text>
</a>
</g>
</g>
<!-- Node1&#45;&gt;Node2 -->
<g id="edge1" class="edge"><title>Node1&#45;&gt;Node2</title>
<path fill="none" stroke="midnightblue" d="M390.392,-412.382C356.451,-399.489 317.282,-384.611 284.398,-372.12"/>
<polygon fill="midnightblue" stroke="midnightblue" points="389.226,-415.683 399.817,-415.962 391.712,-409.139 389.226,-415.683"/>
</g>
<!-- Node4 -->
<g id="node4" class="node"><title>Node4</title>
<g id="a_node4"><a xlink:href="human-viz-bridge_2__yarp__idl___2thrift_2xsensframe_2_vector3_8cpp.html" target="_top" xlink:title="/home/travis/build\l/robotology/human&#45;dynamics\l&#45;estimation/build/human\l&#45;viz&#45;bridge/_yarp_idl_/thrift\l/xsensframe/Vector3.cpp">
<polygon fill="none" stroke="black" points="657,-312.5 657,-375.5 799,-375.5 799,-312.5 657,-312.5"/>
<text text-anchor="start" x="665" y="-363.5" font-family="Helvetica,sans-Serif" font-size="10.00">/home/travis/build</text>
<text text-anchor="start" x="665" y="-352.5" font-family="Helvetica,sans-Serif" font-size="10.00">/robotology/human&#45;dynamics</text>
<text text-anchor="start" x="665" y="-341.5" font-family="Helvetica,sans-Serif" font-size="10.00">&#45;estimation/build/human</text>
<text text-anchor="start" x="665" y="-330.5" font-family="Helvetica,sans-Serif" font-size="10.00">&#45;viz&#45;bridge/_yarp_idl_/thrift</text>
<text text-anchor="middle" x="728" y="-319.5" font-family="Helvetica,sans-Serif" font-size="10.00">/xsensframe/Vector3.cpp</text>
</a>
</g>
</g>
<!-- Node1&#45;&gt;Node4 -->
<g id="edge3" class="edge"><title>Node1&#45;&gt;Node4</title>
<path fill="none" stroke="midnightblue" d="M551.593,-412.268C585.243,-399.436 624.008,-384.654 656.614,-372.221"/>
<polygon fill="midnightblue" stroke="midnightblue" points="550.344,-408.998 542.248,-415.832 552.838,-415.539 550.344,-408.998"/>
</g>
<!-- Node5 -->
<g id="node5" class="node"><title>Node5</title>
<g id="a_node5"><a xlink:href="__yarp__idl___2thrift_2xsensframe_2_xsens_segment_data_8h.html" target="_top" xlink:title="/home/travis/build\l/robotology/human&#45;dynamics\l&#45;estimation/build/human\l&#45;viz&#45;bridge/_yarp_idl_/thrift\l/xsensframe/XsensSegmentData.h">
<polygon fill="none" stroke="black" points="0,-212.5 0,-275.5 170,-275.5 170,-212.5 0,-212.5"/>
<text text-anchor="start" x="8" y="-263.5" font-family="Helvetica,sans-Serif" font-size="10.00">/home/travis/build</text>
<text text-anchor="start" x="8" y="-252.5" font-family="Helvetica,sans-Serif" font-size="10.00">/robotology/human&#45;dynamics</text>
<text text-anchor="start" x="8" y="-241.5" font-family="Helvetica,sans-Serif" font-size="10.00">&#45;estimation/build/human</text>
<text text-anchor="start" x="8" y="-230.5" font-family="Helvetica,sans-Serif" font-size="10.00">&#45;viz&#45;bridge/_yarp_idl_/thrift</text>
<text text-anchor="middle" x="85" y="-219.5" font-family="Helvetica,sans-Serif" font-size="10.00">/xsensframe/XsensSegmentData.h</text>
</a>
</g>
</g>
<!-- Node1&#45;&gt;Node5 -->
<g id="edge4" class="edge"><title>Node1&#45;&gt;Node5</title>
<path fill="none" stroke="midnightblue" d="M389.686,-436.015C302.298,-426.958 170.825,-408.356 133,-376 103.458,-350.729 92.0916,-305.653 87.7223,-275.539"/>
<polygon fill="midnightblue" stroke="midnightblue" points="389.548,-439.518 399.85,-437.046 390.254,-432.554 389.548,-439.518"/>
</g>
<!-- Node6 -->
<g id="node6" class="node"><title>Node6</title>
<g id="a_node6"><a xlink:href="__yarp__idl___2thrift_2xsensframe_2_xsens_sensor_data_8h.html" target="_top" xlink:title="/home/travis/build\l/robotology/human&#45;dynamics\l&#45;estimation/build/human\l&#45;viz&#45;bridge/_yarp_idl_/thrift\l/xsensframe/XsensSensorData.h">
<polygon fill="none" stroke="black" points="247.5,-212.5 247.5,-275.5 408.5,-275.5 408.5,-212.5 247.5,-212.5"/>
<text text-anchor="start" x="255.5" y="-263.5" font-family="Helvetica,sans-Serif" font-size="10.00">/home/travis/build</text>
<text text-anchor="start" x="255.5" y="-252.5" font-family="Helvetica,sans-Serif" font-size="10.00">/robotology/human&#45;dynamics</text>
<text text-anchor="start" x="255.5" y="-241.5" font-family="Helvetica,sans-Serif" font-size="10.00">&#45;estimation/build/human</text>
<text text-anchor="start" x="255.5" y="-230.5" font-family="Helvetica,sans-Serif" font-size="10.00">&#45;viz&#45;bridge/_yarp_idl_/thrift</text>
<text text-anchor="middle" x="328" y="-219.5" font-family="Helvetica,sans-Serif" font-size="10.00">/xsensframe/XsensSensorData.h</text>
</a>
</g>
</g>
<!-- Node1&#45;&gt;Node6 -->
<g id="edge6" class="edge"><title>Node1&#45;&gt;Node6</title>
<path fill="none" stroke="midnightblue" d="M443.043,-404.29C415.837,-366.621 375.049,-310.145 350.055,-275.538"/>
<polygon fill="midnightblue" stroke="midnightblue" points="440.277,-406.439 448.97,-412.496 445.952,-402.34 440.277,-406.439"/>
</g>
<!-- Node7 -->
<g id="node7" class="node"><title>Node7</title>
<g id="a_node7"><a xlink:href="human-viz-bridge_2autogenerated_2data_2include_2thrift_2_quaternion_8h.html" target="_top" xlink:title="/home/travis/build\l/robotology/human&#45;dynamics\l&#45;estimation/build/human\l&#45;viz&#45;bridge/autogenerated\l/data/include/thrift/Quaternion.h">
<polygon fill="none" stroke="black" points="447.5,-312.5 447.5,-375.5 600.5,-375.5 600.5,-312.5 447.5,-312.5"/>
<text text-anchor="start" x="455.5" y="-363.5" font-family="Helvetica,sans-Serif" font-size="10.00">/home/travis/build</text>
<text text-anchor="start" x="455.5" y="-352.5" font-family="Helvetica,sans-Serif" font-size="10.00">/robotology/human&#45;dynamics</text>
<text text-anchor="start" x="455.5" y="-341.5" font-family="Helvetica,sans-Serif" font-size="10.00">&#45;estimation/build/human</text>
<text text-anchor="start" x="455.5" y="-330.5" font-family="Helvetica,sans-Serif" font-size="10.00">&#45;viz&#45;bridge/autogenerated</text>
<text text-anchor="middle" x="524" y="-319.5" font-family="Helvetica,sans-Serif" font-size="10.00">/data/include/thrift/Quaternion.h</text>
</a>
</g>
</g>
<!-- Node1&#45;&gt;Node7 -->
<g id="edge8" class="edge"><title>Node1&#45;&gt;Node7</title>
<path fill="none" stroke="midnightblue" d="M492.496,-403.252C497.477,-394.042 502.703,-384.379 507.435,-375.63"/>
<polygon fill="midnightblue" stroke="midnightblue" points="489.303,-401.8 487.624,-412.261 495.46,-405.13 489.303,-401.8"/>
</g>
<!-- Node9 -->
<g id="node9" class="node"><title>Node9</title>
<g id="a_node9"><a xlink:href="autogenerated_2data_2include_2thrift_2_xsens_segment_data_8h.html" target="_top" xlink:title="/home/travis/build\l/robotology/human&#45;dynamics\l&#45;estimation/build/human\l&#45;viz&#45;bridge/autogenerated\l/data/include/thrift/XsensSegmentData.h">
<polygon fill="none" stroke="black" points="427,-212.5 427,-275.5 621,-275.5 621,-212.5 427,-212.5"/>
<text text-anchor="start" x="435" y="-263.5" font-family="Helvetica,sans-Serif" font-size="10.00">/home/travis/build</text>
<text text-anchor="start" x="435" y="-252.5" font-family="Helvetica,sans-Serif" font-size="10.00">/robotology/human&#45;dynamics</text>
<text text-anchor="start" x="435" y="-241.5" font-family="Helvetica,sans-Serif" font-size="10.00">&#45;estimation/build/human</text>
<text text-anchor="start" x="435" y="-230.5" font-family="Helvetica,sans-Serif" font-size="10.00">&#45;viz&#45;bridge/autogenerated</text>
<text text-anchor="middle" x="524" y="-219.5" font-family="Helvetica,sans-Serif" font-size="10.00">/data/include/thrift/XsensSegmentData.h</text>
</a>
</g>
</g>
<!-- Node1&#45;&gt;Node9 -->
<g id="edge30" class="edge"><title>Node1&#45;&gt;Node9</title>
<path fill="none" stroke="midnightblue" d="M447.181,-403.293C434.385,-376.518 423.863,-340.935 438,-312 444.979,-297.715 456.638,-285.591 469.153,-275.748"/>
<polygon fill="midnightblue" stroke="midnightblue" points="444.133,-405.022 451.765,-412.371 450.381,-401.867 444.133,-405.022"/>
</g>
<!-- Node17 -->
<g id="node17" class="node"><title>Node17</title>
<g id="a_node17"><a xlink:href="autogenerated_2data_2include_2thrift_2_xsens_sensor_data_8h.html" target="_top" xlink:title="/home/travis/build\l/robotology/human&#45;dynamics\l&#45;estimation/build/human\l&#45;viz&#45;bridge/autogenerated\l/data/include/thrift/XsensSensorData.h">
<polygon fill="none" stroke="black" points="1077.5,-212.5 1077.5,-275.5 1262.5,-275.5 1262.5,-212.5 1077.5,-212.5"/>
<text text-anchor="start" x="1085.5" y="-263.5" font-family="Helvetica,sans-Serif" font-size="10.00">/home/travis/build</text>
<text text-anchor="start" x="1085.5" y="-252.5" font-family="Helvetica,sans-Serif" font-size="10.00">/robotology/human&#45;dynamics</text>
<text text-anchor="start" x="1085.5" y="-241.5" font-family="Helvetica,sans-Serif" font-size="10.00">&#45;estimation/build/human</text>
<text text-anchor="start" x="1085.5" y="-230.5" font-family="Helvetica,sans-Serif" font-size="10.00">&#45;viz&#45;bridge/autogenerated</text>
<text text-anchor="middle" x="1170" y="-219.5" font-family="Helvetica,sans-Serif" font-size="10.00">/data/include/thrift/XsensSensorData.h</text>
</a>
</g>
</g>
<!-- Node1&#45;&gt;Node17 -->
<g id="edge31" class="edge"><title>Node1&#45;&gt;Node17</title>
<path fill="none" stroke="midnightblue" d="M551.362,-413.479C571.627,-403.596 592.337,-391.146 609,-376 633.649,-353.595 619.976,-330.005 648,-312 704.862,-275.467 882.978,-284.716 950,-276 991.883,-270.553 1038.19,-264.095 1077.47,-258.486"/>
<polygon fill="midnightblue" stroke="midnightblue" points="549.655,-410.413 542.098,-417.839 552.636,-416.747 549.655,-410.413"/>
</g>
<!-- Node25 -->
<g id="node25" class="node"><title>Node25</title>
<g id="a_node25"><a xlink:href="human-viz-bridge_2autogenerated_2data_2src_2_vector3_8cpp.html" target="_top" xlink:title="/home/travis/build\l/robotology/human&#45;dynamics\l&#45;estimation/build/human\l&#45;viz&#45;bridge/autogenerated\l/data/src/Vector3.cpp">
<polygon fill="none" stroke="black" points="817,-312.5 817,-375.5 959,-375.5 959,-312.5 817,-312.5"/>
<text text-anchor="start" x="825" y="-363.5" font-family="Helvetica,sans-Serif" font-size="10.00">/home/travis/build</text>
<text text-anchor="start" x="825" y="-352.5" font-family="Helvetica,sans-Serif" font-size="10.00">/robotology/human&#45;dynamics</text>
<text text-anchor="start" x="825" y="-341.5" font-family="Helvetica,sans-Serif" font-size="10.00">&#45;estimation/build/human</text>
<text text-anchor="start" x="825" y="-330.5" font-family="Helvetica,sans-Serif" font-size="10.00">&#45;viz&#45;bridge/autogenerated</text>
<text text-anchor="middle" x="888" y="-319.5" font-family="Helvetica,sans-Serif" font-size="10.00">/data/src/Vector3.cpp</text>
</a>
</g>
</g>
<!-- Node1&#45;&gt;Node25 -->
<g id="edge32" class="edge"><title>Node1&#45;&gt;Node25</title>
<path fill="none" stroke="midnightblue" d="M552.133,-430.928C620.99,-419.721 722.013,-401.002 808,-376 810.861,-375.168 813.762,-374.277 816.682,-373.341"/>
<polygon fill="midnightblue" stroke="midnightblue" points="551.528,-427.48 542.213,-432.527 552.642,-434.391 551.528,-427.48"/>
</g>
<!-- Node3 -->
<g id="node3" class="node"><title>Node3</title>
<g id="a_node3"><a xlink:href="_xsens_frame__index_8h.html" target="_top" xlink:title="/home/travis/build\l/robotology/human&#45;dynamics\l&#45;estimation/build/human\l&#45;viz&#45;bridge/_yarp_idl_/thrift\l/xsensframe/XsensFrame_index.h">
<polygon fill="none" stroke="black" points="142,-0.5 142,-63.5 308,-63.5 308,-0.5 142,-0.5"/>
<text text-anchor="start" x="150" y="-51.5" font-family="Helvetica,sans-Serif" font-size="10.00">/home/travis/build</text>
<text text-anchor="start" x="150" y="-40.5" font-family="Helvetica,sans-Serif" font-size="10.00">/robotology/human&#45;dynamics</text>
<text text-anchor="start" x="150" y="-29.5" font-family="Helvetica,sans-Serif" font-size="10.00">&#45;estimation/build/human</text>
<text text-anchor="start" x="150" y="-18.5" font-family="Helvetica,sans-Serif" font-size="10.00">&#45;viz&#45;bridge/_yarp_idl_/thrift</text>
<text text-anchor="middle" x="225" y="-7.5" font-family="Helvetica,sans-Serif" font-size="10.00">/xsensframe/XsensFrame_index.h</text>
</a>
</g>
</g>
<!-- Node2&#45;&gt;Node3 -->
<g id="edge2" class="edge"><title>Node2&#45;&gt;Node3</title>
<path fill="none" stroke="midnightblue" d="M213.606,-302.241C214.455,-253.949 216.326,-171.074 220,-100 220.614,-88.1183 221.533,-75.0684 222.416,-63.6675"/>
<polygon fill="midnightblue" stroke="midnightblue" points="210.105,-302.236 213.435,-312.294 217.104,-302.355 210.105,-302.236"/>
</g>
<!-- Node5&#45;&gt;Node3 -->
<g id="edge5" class="edge"><title>Node5&#45;&gt;Node3</title>
<path fill="none" stroke="midnightblue" d="M107.685,-203.6C124.834,-174.463 149.382,-134.094 173,-100 181.385,-87.8963 191.153,-75.0252 199.945,-63.8331"/>
<polygon fill="midnightblue" stroke="midnightblue" points="104.645,-201.865 102.61,-212.262 110.685,-205.403 104.645,-201.865"/>
</g>
<!-- Node6&#45;&gt;Node3 -->
<g id="edge7" class="edge"><title>Node6&#45;&gt;Node3</title>
<path fill="none" stroke="midnightblue" d="M269.012,-205.779C259.269,-197.132 250.305,-187.146 244,-176 224.27,-141.122 221.781,-93.9824 222.688,-63.5321"/>
<polygon fill="midnightblue" stroke="midnightblue" points="267.041,-208.693 276.957,-212.423 271.531,-203.323 267.041,-208.693"/>
</g>
<!-- Node7&#45;&gt;Node5 -->
<g id="edge10" class="edge"><title>Node7&#45;&gt;Node5</title>
<path fill="none" stroke="midnightblue" d="M437.075,-323.595C359.681,-306.318 247.123,-281.191 170.243,-264.029"/>
<polygon fill="midnightblue" stroke="midnightblue" points="436.759,-327.111 447.281,-325.874 438.284,-320.279 436.759,-327.111"/>
</g>
<!-- Node7&#45;&gt;Node6 -->
<g id="edge11" class="edge"><title>Node7&#45;&gt;Node6</title>
<path fill="none" stroke="midnightblue" d="M453.846,-307.923C432.675,-297.337 409.612,-285.806 389.082,-275.541"/>
<polygon fill="midnightblue" stroke="midnightblue" points="452.281,-311.054 462.791,-312.395 455.412,-304.793 452.281,-311.054"/>
</g>
<!-- Node8 -->
<g id="node8" class="node"><title>Node8</title>
<g id="a_node8"><a xlink:href="human-viz-bridge_2__yarp__idl___2thrift_2xsensframe_2_quaternion_8cpp.html" target="_top" xlink:title="/home/travis/build\l/robotology/human&#45;dynamics\l&#45;estimation/build/human\l&#45;viz&#45;bridge/_yarp_idl_/thrift\l/xsensframe/Quaternion.cpp">
<polygon fill="none" stroke="black" points="799,-212.5 799,-275.5 941,-275.5 941,-212.5 799,-212.5"/>
<text text-anchor="start" x="807" y="-263.5" font-family="Helvetica,sans-Serif" font-size="10.00">/home/travis/build</text>
<text text-anchor="start" x="807" y="-252.5" font-family="Helvetica,sans-Serif" font-size="10.00">/robotology/human&#45;dynamics</text>
<text text-anchor="start" x="807" y="-241.5" font-family="Helvetica,sans-Serif" font-size="10.00">&#45;estimation/build/human</text>
<text text-anchor="start" x="807" y="-230.5" font-family="Helvetica,sans-Serif" font-size="10.00">&#45;viz&#45;bridge/_yarp_idl_/thrift</text>
<text text-anchor="middle" x="870" y="-219.5" font-family="Helvetica,sans-Serif" font-size="10.00">/xsensframe/Quaternion.cpp</text>
</a>
</g>
</g>
<!-- Node7&#45;&gt;Node8 -->
<g id="edge9" class="edge"><title>Node7&#45;&gt;Node8</title>
<path fill="none" stroke="midnightblue" d="M610.592,-313.222C612.07,-312.805 613.54,-312.397 615,-312 691.622,-291.156 713.825,-298.424 790,-276 792.858,-275.159 795.757,-274.26 798.675,-273.317"/>
<polygon fill="midnightblue" stroke="midnightblue" points="609.361,-309.935 600.745,-316.1 611.325,-316.654 609.361,-309.935"/>
</g>
<!-- Node7&#45;&gt;Node9 -->
<g id="edge12" class="edge"><title>Node7&#45;&gt;Node9</title>
<path fill="none" stroke="midnightblue" d="M524,-302.099C524,-293.238 524,-284.015 524,-275.63"/>
<polygon fill="midnightblue" stroke="midnightblue" points="520.5,-302.261 524,-312.261 527.5,-302.261 520.5,-302.261"/>
</g>
<!-- Node7&#45;&gt;Node17 -->
<g id="edge21" class="edge"><title>Node7&#45;&gt;Node17</title>
<path fill="none" stroke="midnightblue" d="M610.544,-313.026C612.037,-312.669 613.523,-312.327 615,-312 761.212,-279.659 801.395,-294.45 950,-276 991.914,-270.796 1038.22,-264.373 1077.5,-258.724"/>
<polygon fill="midnightblue" stroke="midnightblue" points="609.433,-309.697 600.614,-315.569 611.169,-316.478 609.433,-309.697"/>
</g>
<!-- Node24 -->
<g id="node24" class="node"><title>Node24</title>
<g id="a_node24"><a xlink:href="human-viz-bridge_2autogenerated_2data_2src_2_quaternion_8cpp.html" target="_top" xlink:title="/home/travis/build\l/robotology/human&#45;dynamics\l&#45;estimation/build/human\l&#45;viz&#45;bridge/autogenerated\l/data/src/Quaternion.cpp">
<polygon fill="none" stroke="black" points="639,-212.5 639,-275.5 781,-275.5 781,-212.5 639,-212.5"/>
<text text-anchor="start" x="647" y="-263.5" font-family="Helvetica,sans-Serif" font-size="10.00">/home/travis/build</text>
<text text-anchor="start" x="647" y="-252.5" font-family="Helvetica,sans-Serif" font-size="10.00">/robotology/human&#45;dynamics</text>
<text text-anchor="start" x="647" y="-241.5" font-family="Helvetica,sans-Serif" font-size="10.00">&#45;estimation/build/human</text>
<text text-anchor="start" x="647" y="-230.5" font-family="Helvetica,sans-Serif" font-size="10.00">&#45;viz&#45;bridge/autogenerated</text>
<text text-anchor="middle" x="710" y="-219.5" font-family="Helvetica,sans-Serif" font-size="10.00">/data/src/Quaternion.cpp</text>
</a>
</g>
</g>
<!-- Node7&#45;&gt;Node24 -->
<g id="edge29" class="edge"><title>Node7&#45;&gt;Node24</title>
<path fill="none" stroke="midnightblue" d="M591.113,-307.639C611.057,-297.131 632.725,-285.715 652.034,-275.541"/>
<polygon fill="midnightblue" stroke="midnightblue" points="589.302,-304.637 582.086,-312.395 592.565,-310.83 589.302,-304.637"/>
</g>
<!-- Node10 -->
<g id="node10" class="node"><title>Node10</title>
<g id="a_node10"><a xlink:href="__yarp__idl___2thrift_2xsensframe_2_xsens_segments_frame_8h.html" target="_top" xlink:title="/home/travis/build\l/robotology/human&#45;dynamics\l&#45;estimation/build/human\l&#45;viz&#45;bridge/_yarp_idl_/thrift\l/xsensframe/XsensSegmentsFrame.h">
<polygon fill="none" stroke="black" points="253,-106.5 253,-169.5 435,-169.5 435,-106.5 253,-106.5"/>
<text text-anchor="start" x="261" y="-157.5" font-family="Helvetica,sans-Serif" font-size="10.00">/home/travis/build</text>
<text text-anchor="start" x="261" y="-146.5" font-family="Helvetica,sans-Serif" font-size="10.00">/robotology/human&#45;dynamics</text>
<text text-anchor="start" x="261" y="-135.5" font-family="Helvetica,sans-Serif" font-size="10.00">&#45;estimation/build/human</text>
<text text-anchor="start" x="261" y="-124.5" font-family="Helvetica,sans-Serif" font-size="10.00">&#45;viz&#45;bridge/_yarp_idl_/thrift</text>
<text text-anchor="middle" x="344" y="-113.5" font-family="Helvetica,sans-Serif" font-size="10.00">/xsensframe/XsensSegmentsFrame.h</text>
</a>
</g>
</g>
<!-- Node9&#45;&gt;Node10 -->
<g id="edge13" class="edge"><title>Node9&#45;&gt;Node10</title>
<path fill="none" stroke="midnightblue" d="M462.045,-207.204C440.861,-194.964 417.374,-181.394 396.964,-169.601"/>
<polygon fill="midnightblue" stroke="midnightblue" points="460.558,-210.387 470.968,-212.359 464.06,-204.326 460.558,-210.387"/>
</g>
<!-- Node11 -->
<g id="node11" class="node"><title>Node11</title>
<g id="a_node11"><a xlink:href="__yarp__idl___2thrift_2xsensframe_2_xsens_segment_data_8cpp.html" target="_top" xlink:title="/home/travis/build\l/robotology/human&#45;dynamics\l&#45;estimation/build/human\l&#45;viz&#45;bridge/_yarp_idl_/thrift\l/xsensframe/XsensSegmentData.cpp">
<polygon fill="none" stroke="black" points="635,-106.5 635,-169.5 815,-169.5 815,-106.5 635,-106.5"/>
<text text-anchor="start" x="643" y="-157.5" font-family="Helvetica,sans-Serif" font-size="10.00">/home/travis/build</text>
<text text-anchor="start" x="643" y="-146.5" font-family="Helvetica,sans-Serif" font-size="10.00">/robotology/human&#45;dynamics</text>
<text text-anchor="start" x="643" y="-135.5" font-family="Helvetica,sans-Serif" font-size="10.00">&#45;estimation/build/human</text>
<text text-anchor="start" x="643" y="-124.5" font-family="Helvetica,sans-Serif" font-size="10.00">&#45;viz&#45;bridge/_yarp_idl_/thrift</text>
<text text-anchor="middle" x="725" y="-113.5" font-family="Helvetica,sans-Serif" font-size="10.00">/xsensframe/XsensSegmentData.cpp</text>
</a>
</g>
</g>
<!-- Node9&#45;&gt;Node11 -->
<g id="edge15" class="edge"><title>Node9&#45;&gt;Node11</title>
<path fill="none" stroke="midnightblue" d="M592.008,-207.812C616.035,-195.38 642.839,-181.511 666.053,-169.5"/>
<polygon fill="midnightblue" stroke="midnightblue" points="590.222,-204.795 582.949,-212.499 593.438,-211.012 590.222,-204.795"/>
</g>
<!-- Node12 -->
<g id="node12" class="node"><title>Node12</title>
<g id="a_node12"><a xlink:href="autogenerated_2data_2include_2thrift_2_xsens_segments_frame_8h.html" target="_top" xlink:title="/home/travis/build\l/robotology/human&#45;dynamics\l&#45;estimation/build/human\l&#45;viz&#45;bridge/autogenerated\l/data/include/thrift/XsensSegments\lFrame.h">
<polygon fill="none" stroke="black" points="1025,-101 1025,-175 1195,-175 1195,-101 1025,-101"/>
<text text-anchor="start" x="1033" y="-163" font-family="Helvetica,sans-Serif" font-size="10.00">/home/travis/build</text>
<text text-anchor="start" x="1033" y="-152" font-family="Helvetica,sans-Serif" font-size="10.00">/robotology/human&#45;dynamics</text>
<text text-anchor="start" x="1033" y="-141" font-family="Helvetica,sans-Serif" font-size="10.00">&#45;estimation/build/human</text>
<text text-anchor="start" x="1033" y="-130" font-family="Helvetica,sans-Serif" font-size="10.00">&#45;viz&#45;bridge/autogenerated</text>
<text text-anchor="start" x="1033" y="-119" font-family="Helvetica,sans-Serif" font-size="10.00">/data/include/thrift/XsensSegments</text>
<text text-anchor="middle" x="1110" y="-108" font-family="Helvetica,sans-Serif" font-size="10.00">Frame.h</text>
</a>
</g>
</g>
<!-- Node9&#45;&gt;Node12 -->
<g id="edge16" class="edge"><title>Node9&#45;&gt;Node12</title>
<path fill="none" stroke="midnightblue" d="M631.163,-211.933C800.709,-181.07 850.944,-214.814 1015,-176 1018.27,-175.226 1021.58,-174.363 1024.91,-173.428"/>
<polygon fill="midnightblue" stroke="midnightblue" points="630.339,-208.526 621.152,-213.805 631.625,-215.407 630.339,-208.526"/>
</g>
<!-- Node16 -->
<g id="node16" class="node"><title>Node16</title>
<g id="a_node16"><a xlink:href="autogenerated_2data_2src_2_xsens_segment_data_8cpp.html" target="_top" xlink:title="/home/travis/build\l/robotology/human&#45;dynamics\l&#45;estimation/build/human\l&#45;viz&#45;bridge/autogenerated\l/data/src/XsensSegmentData.cpp">
<polygon fill="none" stroke="black" points="453,-106.5 453,-169.5 617,-169.5 617,-106.5 453,-106.5"/>
<text text-anchor="start" x="461" y="-157.5" font-family="Helvetica,sans-Serif" font-size="10.00">/home/travis/build</text>
<text text-anchor="start" x="461" y="-146.5" font-family="Helvetica,sans-Serif" font-size="10.00">/robotology/human&#45;dynamics</text>
<text text-anchor="start" x="461" y="-135.5" font-family="Helvetica,sans-Serif" font-size="10.00">&#45;estimation/build/human</text>
<text text-anchor="start" x="461" y="-124.5" font-family="Helvetica,sans-Serif" font-size="10.00">&#45;viz&#45;bridge/autogenerated</text>
<text text-anchor="middle" x="535" y="-113.5" font-family="Helvetica,sans-Serif" font-size="10.00">/data/src/XsensSegmentData.cpp</text>
</a>
</g>
</g>
<!-- Node9&#45;&gt;Node16 -->
<g id="edge20" class="edge"><title>Node9&#45;&gt;Node16</title>
<path fill="none" stroke="midnightblue" d="M528.308,-202.268C529.452,-191.458 530.667,-179.964 531.744,-169.781"/>
<polygon fill="midnightblue" stroke="midnightblue" points="524.812,-202.046 527.241,-212.359 531.773,-202.783 524.812,-202.046"/>
</g>
<!-- Node10&#45;&gt;Node3 -->
<g id="edge14" class="edge"><title>Node10&#45;&gt;Node3</title>
<path fill="none" stroke="midnightblue" d="M301.192,-99.5879C287.751,-87.8413 273.074,-75.0141 260.221,-63.7813"/>
<polygon fill="midnightblue" stroke="midnightblue" points="299.107,-102.414 308.94,-106.359 303.713,-97.1431 299.107,-102.414"/>
</g>
<!-- Node13 -->
<g id="node13" class="node"><title>Node13</title>
<g id="a_node13"><a xlink:href="__yarp__idl___2thrift_2xsensframe_2_xsens_segments_frame_8cpp.html" target="_top" xlink:title="/home/travis/build\l/robotology/human&#45;dynamics\l&#45;estimation/build/human\l&#45;viz&#45;bridge/_yarp_idl_/thrift\l/xsensframe/XsensSegmentsFrame.cpp">
<polygon fill="none" stroke="black" points="812,-0.5 812,-63.5 1004,-63.5 1004,-0.5 812,-0.5"/>
<text text-anchor="start" x="820" y="-51.5" font-family="Helvetica,sans-Serif" font-size="10.00">/home/travis/build</text>
<text text-anchor="start" x="820" y="-40.5" font-family="Helvetica,sans-Serif" font-size="10.00">/robotology/human&#45;dynamics</text>
<text text-anchor="start" x="820" y="-29.5" font-family="Helvetica,sans-Serif" font-size="10.00">&#45;estimation/build/human</text>
<text text-anchor="start" x="820" y="-18.5" font-family="Helvetica,sans-Serif" font-size="10.00">&#45;viz&#45;bridge/_yarp_idl_/thrift</text>
<text text-anchor="middle" x="908" y="-7.5" font-family="Helvetica,sans-Serif" font-size="10.00">/xsensframe/XsensSegmentsFrame.cpp</text>
</a>
</g>
</g>
<!-- Node12&#45;&gt;Node13 -->
<g id="edge17" class="edge"><title>Node12&#45;&gt;Node13</title>
<path fill="none" stroke="midnightblue" d="M1030.97,-96.3095C1009.86,-85.4443 987.415,-73.8868 967.554,-63.6612"/>
<polygon fill="midnightblue" stroke="midnightblue" points="1029.42,-99.452 1039.92,-100.918 1032.63,-93.2284 1029.42,-99.452"/>
</g>
<!-- Node14 -->
<g id="node14" class="node"><title>Node14</title>
<g id="a_node14"><a xlink:href="autogenerated_2data_2src_2_xsens_segments_frame_8cpp.html" target="_top" xlink:title="/home/travis/build\l/robotology/human&#45;dynamics\l&#45;estimation/build/human\l&#45;viz&#45;bridge/autogenerated\l/data/src/XsensSegmentsFrame.cpp">
<polygon fill="none" stroke="black" points="1022,-0.5 1022,-63.5 1198,-63.5 1198,-0.5 1022,-0.5"/>
<text text-anchor="start" x="1030" y="-51.5" font-family="Helvetica,sans-Serif" font-size="10.00">/home/travis/build</text>
<text text-anchor="start" x="1030" y="-40.5" font-family="Helvetica,sans-Serif" font-size="10.00">/robotology/human&#45;dynamics</text>
<text text-anchor="start" x="1030" y="-29.5" font-family="Helvetica,sans-Serif" font-size="10.00">&#45;estimation/build/human</text>
<text text-anchor="start" x="1030" y="-18.5" font-family="Helvetica,sans-Serif" font-size="10.00">&#45;viz&#45;bridge/autogenerated</text>
<text text-anchor="middle" x="1110" y="-7.5" font-family="Helvetica,sans-Serif" font-size="10.00">/data/src/XsensSegmentsFrame.cpp</text>
</a>
</g>
</g>
<!-- Node12&#45;&gt;Node14 -->
<g id="edge18" class="edge"><title>Node12&#45;&gt;Node14</title>
<path fill="none" stroke="midnightblue" d="M1110,-90.78C1110,-81.6565 1110,-72.2926 1110,-63.8307"/>
<polygon fill="midnightblue" stroke="midnightblue" points="1106.5,-90.9177 1110,-100.918 1113.5,-90.9178 1106.5,-90.9177"/>
</g>
<!-- Node15 -->
<g id="node15" class="node"><title>Node15</title>
<g id="a_node15"><a xlink:href="_human_t_f_bridge_8cpp.html" target="_top" xlink:title="/home/travis/build\l/robotology/human&#45;dynamics\l&#45;estimation/human&#45;viz&#45;bridge\l/src/HumanTFBridge.cpp">
<polygon fill="none" stroke="black" points="1216,-6 1216,-58 1358,-58 1358,-6 1216,-6"/>
<text text-anchor="start" x="1224" y="-46" font-family="Helvetica,sans-Serif" font-size="10.00">/home/travis/build</text>
<text text-anchor="start" x="1224" y="-35" font-family="Helvetica,sans-Serif" font-size="10.00">/robotology/human&#45;dynamics</text>
<text text-anchor="start" x="1224" y="-24" font-family="Helvetica,sans-Serif" font-size="10.00">&#45;estimation/human&#45;viz&#45;bridge</text>
<text text-anchor="middle" x="1287" y="-13" font-family="Helvetica,sans-Serif" font-size="10.00">/src/HumanTFBridge.cpp</text>
</a>
</g>
</g>
<!-- Node12&#45;&gt;Node15 -->
<g id="edge19" class="edge"><title>Node12&#45;&gt;Node15</title>
<path fill="none" stroke="midnightblue" d="M1180.27,-95.7134C1201.94,-82.9783 1225.14,-69.347 1244.36,-58.0569"/>
<polygon fill="midnightblue" stroke="midnightblue" points="1178.26,-92.8341 1171.41,-100.918 1181.8,-98.8694 1178.26,-92.8341"/>
</g>
<!-- Node18 -->
<g id="node18" class="node"><title>Node18</title>
<g id="a_node18"><a xlink:href="__yarp__idl___2thrift_2xsensframe_2_xsens_sensors_frame_8h.html" target="_top" xlink:title="/home/travis/build\l/robotology/human&#45;dynamics\l&#45;estimation/build/human\l&#45;viz&#45;bridge/_yarp_idl_/thrift\l/xsensframe/XsensSensorsFrame.h">
<polygon fill="none" stroke="black" points="833.5,-106.5 833.5,-169.5 1006.5,-169.5 1006.5,-106.5 833.5,-106.5"/>
<text text-anchor="start" x="841.5" y="-157.5" font-family="Helvetica,sans-Serif" font-size="10.00">/home/travis/build</text>
<text text-anchor="start" x="841.5" y="-146.5" font-family="Helvetica,sans-Serif" font-size="10.00">/robotology/human&#45;dynamics</text>
<text text-anchor="start" x="841.5" y="-135.5" font-family="Helvetica,sans-Serif" font-size="10.00">&#45;estimation/build/human</text>
<text text-anchor="start" x="841.5" y="-124.5" font-family="Helvetica,sans-Serif" font-size="10.00">&#45;viz&#45;bridge/_yarp_idl_/thrift</text>
<text text-anchor="middle" x="920" y="-113.5" font-family="Helvetica,sans-Serif" font-size="10.00">/xsensframe/XsensSensorsFrame.h</text>
</a>
</g>
</g>
<!-- Node17&#45;&gt;Node18 -->
<g id="edge22" class="edge"><title>Node17&#45;&gt;Node18</title>
<path fill="none" stroke="midnightblue" d="M1087.38,-208.631C1057,-195.992 1022.83,-181.776 993.318,-169.5"/>
<polygon fill="midnightblue" stroke="midnightblue" points="1086.1,-211.89 1096.68,-212.499 1088.79,-205.427 1086.1,-211.89"/>
</g>
<!-- Node19 -->
<g id="node19" class="node"><title>Node19</title>
<g id="a_node19"><a xlink:href="__yarp__idl___2thrift_2xsensframe_2_xsens_sensor_data_8cpp.html" target="_top" xlink:title="/home/travis/build\l/robotology/human&#45;dynamics\l&#45;estimation/build/human\l&#45;viz&#45;bridge/_yarp_idl_/thrift\l/xsensframe/XsensSensorData.cpp">
<polygon fill="none" stroke="black" points="1213,-106.5 1213,-169.5 1385,-169.5 1385,-106.5 1213,-106.5"/>
<text text-anchor="start" x="1221" y="-157.5" font-family="Helvetica,sans-Serif" font-size="10.00">/home/travis/build</text>
<text text-anchor="start" x="1221" y="-146.5" font-family="Helvetica,sans-Serif" font-size="10.00">/robotology/human&#45;dynamics</text>
<text text-anchor="start" x="1221" y="-135.5" font-family="Helvetica,sans-Serif" font-size="10.00">&#45;estimation/build/human</text>
<text text-anchor="start" x="1221" y="-124.5" font-family="Helvetica,sans-Serif" font-size="10.00">&#45;viz&#45;bridge/_yarp_idl_/thrift</text>
<text text-anchor="middle" x="1299" y="-113.5" font-family="Helvetica,sans-Serif" font-size="10.00">/xsensframe/XsensSensorData.cpp</text>
</a>
</g>
</g>
<!-- Node17&#45;&gt;Node19 -->
<g id="edge24" class="edge"><title>Node17&#45;&gt;Node19</title>
<path fill="none" stroke="midnightblue" d="M1216,-205.917C1230.68,-194.081 1246.76,-181.119 1260.82,-169.781"/>
<polygon fill="midnightblue" stroke="midnightblue" points="1213.59,-203.358 1208.01,-212.359 1217.99,-208.807 1213.59,-203.358"/>
</g>
<!-- Node20 -->
<g id="node20" class="node"><title>Node20</title>
<g id="a_node20"><a xlink:href="autogenerated_2data_2include_2thrift_2_xsens_sensors_frame_8h.html" target="_top" xlink:title="/home/travis/build\l/robotology/human&#45;dynamics\l&#45;estimation/build/human\l&#45;viz&#45;bridge/autogenerated\l/data/include/thrift/XsensSensorsFrame.h">
<polygon fill="none" stroke="black" points="1403.5,-106.5 1403.5,-169.5 1600.5,-169.5 1600.5,-106.5 1403.5,-106.5"/>
<text text-anchor="start" x="1411.5" y="-157.5" font-family="Helvetica,sans-Serif" font-size="10.00">/home/travis/build</text>
<text text-anchor="start" x="1411.5" y="-146.5" font-family="Helvetica,sans-Serif" font-size="10.00">/robotology/human&#45;dynamics</text>
<text text-anchor="start" x="1411.5" y="-135.5" font-family="Helvetica,sans-Serif" font-size="10.00">&#45;estimation/build/human</text>
<text text-anchor="start" x="1411.5" y="-124.5" font-family="Helvetica,sans-Serif" font-size="10.00">&#45;viz&#45;bridge/autogenerated</text>
<text text-anchor="middle" x="1502" y="-113.5" font-family="Helvetica,sans-Serif" font-size="10.00">/data/include/thrift/XsensSensorsFrame.h</text>
</a>
</g>
</g>
<!-- Node17&#45;&gt;Node20 -->
<g id="edge25" class="edge"><title>Node17&#45;&gt;Node20</title>
<path fill="none" stroke="midnightblue" d="M1272.23,-213.346C1310.53,-201.994 1354.36,-188.713 1394,-176 1400.42,-173.942 1407.03,-171.778 1413.69,-169.573"/>
<polygon fill="midnightblue" stroke="midnightblue" points="1271.21,-209.996 1262.62,-216.189 1273.2,-216.709 1271.21,-209.996"/>
</g>
<!-- Node23 -->
<g id="node23" class="node"><title>Node23</title>
<g id="a_node23"><a xlink:href="autogenerated_2data_2src_2_xsens_sensor_data_8cpp.html" target="_top" xlink:title="/home/travis/build\l/robotology/human&#45;dynamics\l&#45;estimation/build/human\l&#45;viz&#45;bridge/autogenerated\l/data/src/XsensSensorData.cpp">
<polygon fill="none" stroke="black" points="1619,-106.5 1619,-169.5 1775,-169.5 1775,-106.5 1619,-106.5"/>
<text text-anchor="start" x="1627" y="-157.5" font-family="Helvetica,sans-Serif" font-size="10.00">/home/travis/build</text>
<text text-anchor="start" x="1627" y="-146.5" font-family="Helvetica,sans-Serif" font-size="10.00">/robotology/human&#45;dynamics</text>
<text text-anchor="start" x="1627" y="-135.5" font-family="Helvetica,sans-Serif" font-size="10.00">&#45;estimation/build/human</text>
<text text-anchor="start" x="1627" y="-124.5" font-family="Helvetica,sans-Serif" font-size="10.00">&#45;viz&#45;bridge/autogenerated</text>
<text text-anchor="middle" x="1697" y="-113.5" font-family="Helvetica,sans-Serif" font-size="10.00">/data/src/XsensSensorData.cpp</text>
</a>
</g>
</g>
<!-- Node17&#45;&gt;Node23 -->
<g id="edge28" class="edge"><title>Node17&#45;&gt;Node23</title>
<path fill="none" stroke="midnightblue" d="M1272.83,-234.534C1362.77,-225.427 1496.28,-207.77 1609,-176 1615.54,-174.157 1622.24,-171.955 1628.89,-169.556"/>
<polygon fill="midnightblue" stroke="midnightblue" points="1272.23,-231.076 1262.63,-235.549 1272.92,-238.041 1272.23,-231.076"/>
</g>
<!-- Node18&#45;&gt;Node3 -->
<g id="edge23" class="edge"><title>Node18&#45;&gt;Node3</title>
<path fill="none" stroke="midnightblue" d="M836.584,-103.407C832.359,-102.16 828.148,-101.013 824,-100 643.314,-55.8539 424.763,-40.7114 308.037,-35.5789"/>
<polygon fill="midnightblue" stroke="midnightblue" points="835.858,-106.847 846.446,-106.48 837.94,-100.164 835.858,-106.847"/>
</g>
<!-- Node21 -->
<g id="node21" class="node"><title>Node21</title>
<g id="a_node21"><a xlink:href="__yarp__idl___2thrift_2xsensframe_2_xsens_sensors_frame_8cpp.html" target="_top" xlink:title="/home/travis/build\l/robotology/human&#45;dynamics\l&#45;estimation/build/human\l&#45;viz&#45;bridge/_yarp_idl_/thrift\l/xsensframe/XsensSensorsFrame.cpp">
<polygon fill="none" stroke="black" points="1393,-0.5 1393,-63.5 1577,-63.5 1577,-0.5 1393,-0.5"/>
<text text-anchor="start" x="1401" y="-51.5" font-family="Helvetica,sans-Serif" font-size="10.00">/home/travis/build</text>
<text text-anchor="start" x="1401" y="-40.5" font-family="Helvetica,sans-Serif" font-size="10.00">/robotology/human&#45;dynamics</text>
<text text-anchor="start" x="1401" y="-29.5" font-family="Helvetica,sans-Serif" font-size="10.00">&#45;estimation/build/human</text>
<text text-anchor="start" x="1401" y="-18.5" font-family="Helvetica,sans-Serif" font-size="10.00">&#45;viz&#45;bridge/_yarp_idl_/thrift</text>
<text text-anchor="middle" x="1485" y="-7.5" font-family="Helvetica,sans-Serif" font-size="10.00">/xsensframe/XsensSensorsFrame.cpp</text>
</a>
</g>
</g>
<!-- Node20&#45;&gt;Node21 -->
<g id="edge26" class="edge"><title>Node20&#45;&gt;Node21</title>
<path fill="none" stroke="midnightblue" d="M1495.34,-96.2683C1493.57,-85.4576 1491.7,-73.9643 1490.03,-63.7813"/>
<polygon fill="midnightblue" stroke="midnightblue" points="1491.92,-97.0547 1496.99,-106.359 1498.83,-95.9254 1491.92,-97.0547"/>
</g>
<!-- Node22 -->
<g id="node22" class="node"><title>Node22</title>
<g id="a_node22"><a xlink:href="autogenerated_2data_2src_2_xsens_sensors_frame_8cpp.html" target="_top" xlink:title="/home/travis/build\l/robotology/human&#45;dynamics\l&#45;estimation/build/human\l&#45;viz&#45;bridge/autogenerated\l/data/src/XsensSensorsFrame.cpp">
<polygon fill="none" stroke="black" points="1595,-0.5 1595,-63.5 1763,-63.5 1763,-0.5 1595,-0.5"/>
<text text-anchor="start" x="1603" y="-51.5" font-family="Helvetica,sans-Serif" font-size="10.00">/home/travis/build</text>
<text text-anchor="start" x="1603" y="-40.5" font-family="Helvetica,sans-Serif" font-size="10.00">/robotology/human&#45;dynamics</text>
<text text-anchor="start" x="1603" y="-29.5" font-family="Helvetica,sans-Serif" font-size="10.00">&#45;estimation/build/human</text>
<text text-anchor="start" x="1603" y="-18.5" font-family="Helvetica,sans-Serif" font-size="10.00">&#45;viz&#45;bridge/autogenerated</text>
<text text-anchor="middle" x="1679" y="-7.5" font-family="Helvetica,sans-Serif" font-size="10.00">/data/src/XsensSensorsFrame.cpp</text>
</a>
</g>
</g>
<!-- Node20&#45;&gt;Node22 -->
<g id="edge27" class="edge"><title>Node20&#45;&gt;Node22</title>
<path fill="none" stroke="midnightblue" d="M1562.92,-101.204C1583.75,-88.9642 1606.85,-75.3936 1626.92,-63.6015"/>
<polygon fill="midnightblue" stroke="midnightblue" points="1561,-98.2754 1554.15,-106.359 1564.54,-104.311 1561,-98.2754"/>
</g>
</g>
</svg>
        <g id="navigator" transform="translate(0 0)" fill="#404254">
                <rect fill="#f2f5e9" fill-opacity="0.5" stroke="#606060" stroke-width=".5" x="0" y="0" width="60" height="60"/>
                <use id="zoomplus" xlink:href="#zoomPlus" x="17" y="9" onmousedown="handleZoom(evt,'in')"/>
                <use id="zoomminus" xlink:href="#zoomMin" x="42" y="9" onmousedown="handleZoom(evt,'out')"/>
                <use id="reset" xlink:href="#resetDef" x="30" y="36" onmousedown="handleReset()"/>
                <g id="arrowUp" xlink:href="#dirArrow" transform="translate(30 24)" onmousedown="handlePan(0,-1)">
                  <use xlink:href="#rim" fill="#404040">
                        <set attributeName="fill" to="#808080" begin="arrowUp.mouseover" end="arrowUp.mouseout"/>
                  </use>
                  <path fill="none" stroke="white" stroke-width="1.5" d="M0,-3.0v7 M-2.5,-0.5L0,-3.0L2.5,-0.5"/>
                </g>
                <g id="arrowRight" xlink:href="#dirArrow" transform="rotate(90) translate(36 -43)" onmousedown="handlePan(1,0)">
                  <use xlink:href="#rim" fill="#404040">
                        <set attributeName="fill" to="#808080" begin="arrowRight.mouseover" end="arrowRight.mouseout"/>
                  </use>
                  <path fill="none" stroke="white" stroke-width="1.5" d="M0,-3.0v7 M-2.5,-0.5L0,-3.0L2.5,-0.5"/>
                </g>
                <g id="arrowDown" xlink:href="#dirArrow" transform="rotate(180) translate(-30 -48)" onmousedown="handlePan(0,1)">
                  <use xlink:href="#rim" fill="#404040">
                        <set attributeName="fill" to="#808080" begin="arrowDown.mouseover" end="arrowDown.mouseout"/>
                  </use>
                  <path fill="none" stroke="white" stroke-width="1.5" d="M0,-3.0v7 M-2.5,-0.5L0,-3.0L2.5,-0.5"/>
                </g>
                <g id="arrowLeft" xlink:href="#dirArrow" transform="rotate(270) translate(-36 17)" onmousedown="handlePan(-1,0)">
                  <use xlink:href="#rim" fill="#404040">
                        <set attributeName="fill" to="#808080" begin="arrowLeft.mouseover" end="arrowLeft.mouseout"/>
                  </use>
                  <path fill="none" stroke="white" stroke-width="1.5" d="M0,-3.0v7 M-2.5,-0.5L0,-3.0L2.5,-0.5"/>
                </g>
        </g>
        <svg viewBox="0 0 15 15" width="100%" height="30px" preserveAspectRatio="xMaxYMin meet">
         <g id="arrow_out" transform="scale(0.3 0.3)">
          <a xlink:href="human-viz-bridge_2autogenerated_2data_2include_2thrift_2_vector3_8h__dep__incl_org.svg" target="_base">
           <rect id="button" ry="5" rx="5" y="6" x="6" height="38" width="38"
                fill="#f2f5e9" fill-opacity="0.5" stroke="#606060" stroke-width="1.0"/>
           <path id="arrow"
             d="M 11.500037,31.436501 C 11.940474,20.09759 22.043105,11.32322 32.158766,21.979434 L 37.068811,17.246167 C 37.068811,17.246167 37.088388,32 37.088388,32 L 22.160133,31.978069 C 22.160133,31.978069 26.997745,27.140456 26.997745,27.140456 C 18.528582,18.264221 13.291696,25.230495 11.500037,31.436501 z"
             style="fill:#404040;"/>
          </a>
         </g>
        </svg>
</svg>
