<?xml version="1.0" encoding="UTF-8" standalone="no"?>
<!DOCTYPE svg PUBLIC "-//W3C//DTD SVG 1.1//EN"
 "http://www.w3.org/Graphics/SVG/1.1/DTD/svg11.dtd">
<!-- Generated by graphviz version 2.36.0 (20140111.2315)
 -->
<!-- Title: /home/travis/build/robotology/human&#45;dynamics&#45;estimation/build/human&#45;state&#45;provider/autogenerated/include/thrifts/Vector3.h Pages: 1 -->
<!--zoomable 472 -->
<svg id="main" version="1.1" xmlns="http://www.w3.org/2000/svg" xmlns:xlink="http://www.w3.org/1999/xlink" xml:space="preserve" onload="init(evt)">
<style type="text/css"><![CDATA[
.edge:hover path { stroke: red; }
.edge:hover polygon { stroke: red; fill: red; }
]]></style>
<script type="text/javascript"><![CDATA[
var edges = document.getElementsByTagName('g');
if (edges && edges.length) {
  for (var i=0;i<edges.length;i++) {
    if (edges[i].id.substr(0,4)=='edge') {
      edges[i].setAttribute('class','edge');
    }
  }
}
]]></script>
        <defs>
                <circle id="rim" cx="0" cy="0" r="7"/>
                <circle id="rim2" cx="0" cy="0" r="3.5"/>
                <g id="zoomPlus">
                        <use xlink:href="#rim" fill="#404040">
                                <set attributeName="fill" to="#808080" begin="zoomplus.mouseover" end="zoomplus.mouseout"/>
                        </use>
                        <path d="M-4,0h8M0,-4v8" fill="none" stroke="white" stroke-width="1.5" pointer-events="none"/>
                </g>
                <g id="zoomMin">
                        <use xlink:href="#rim" fill="#404040">
                                <set attributeName="fill" to="#808080" begin="zoomminus.mouseover" end="zoomminus.mouseout"/>
                        </use>
                        <path d="M-4,0h8" fill="none" stroke="white" stroke-width="1.5" pointer-events="none"/>
                </g>
                <g id="dirArrow">
                        <path fill="none" stroke="white" stroke-width="1.5" d="M0,-3.0v7 M-2.5,-0.5L0,-3.0L2.5,-0.5"/>
                </g>
               <g id="resetDef">
                       <use xlink:href="#rim2" fill="#404040">
                               <set attributeName="fill" to="#808080" begin="reset.mouseover" end="reset.mouseout"/>
                       </use>
               </g>
        </defs>

<script type="text/javascript">
var viewWidth = 1869;
var viewHeight = 472;
var sectionId = 'dynsection-1';
</script>
<script xlink:href="svgpan.js"/>
<svg id="graph" class="graph">
<g id="viewport">
<title>/home/travis/build/robotology/human&#45;dynamics&#45;estimation/build/human&#45;state&#45;provider/autogenerated/include/thrifts/Vector3.h</title>
<!-- Node1 -->
<g id="node1" class="node"><title>Node1</title>
<polygon fill="#bfbfbf" stroke="black" points="710.5,-400.5 710.5,-463.5 853.5,-463.5 853.5,-400.5 710.5,-400.5"/>
<text text-anchor="start" x="718.5" y="-451.5" font-family="Helvetica,sans-Serif" font-size="10.00">/home/travis/build</text>
<text text-anchor="start" x="718.5" y="-440.5" font-family="Helvetica,sans-Serif" font-size="10.00">/robotology/human&#45;dynamics</text>
<text text-anchor="start" x="718.5" y="-429.5" font-family="Helvetica,sans-Serif" font-size="10.00">&#45;estimation/build/human</text>
<text text-anchor="start" x="718.5" y="-418.5" font-family="Helvetica,sans-Serif" font-size="10.00">&#45;state&#45;provider/autogenerated</text>
<text text-anchor="middle" x="782" y="-407.5" font-family="Helvetica,sans-Serif" font-size="10.00">/include/thrifts/Vector3.h</text>
</g>
<!-- Node2 -->
<g id="node2" class="node"><title>Node2</title>
<g id="a_node2"><a xlink:href="__yarp__idl___2thrifts_2humanstate_2_human_state_8h.html" target="_top" xlink:title="/home/travis/build\l/robotology/human&#45;dynamics\l&#45;estimation/build/human\l&#45;state&#45;provider/_yarp_idl\l_/thrifts/humanstate/HumanState.h">
<polygon fill="none" stroke="black" points="572,-200.5 572,-263.5 742,-263.5 742,-200.5 572,-200.5"/>
<text text-anchor="start" x="580" y="-251.5" font-family="Helvetica,sans-Serif" font-size="10.00">/home/travis/build</text>
<text text-anchor="start" x="580" y="-240.5" font-family="Helvetica,sans-Serif" font-size="10.00">/robotology/human&#45;dynamics</text>
<text text-anchor="start" x="580" y="-229.5" font-family="Helvetica,sans-Serif" font-size="10.00">&#45;estimation/build/human</text>
<text text-anchor="start" x="580" y="-218.5" font-family="Helvetica,sans-Serif" font-size="10.00">&#45;state&#45;provider/_yarp_idl</text>
<text text-anchor="middle" x="657" y="-207.5" font-family="Helvetica,sans-Serif" font-size="10.00">_/thrifts/humanstate/HumanState.h</text>
</a>
</g>
</g>
<!-- Node1&#45;&gt;Node2 -->
<g id="edge1" class="edge"><title>Node1&#45;&gt;Node2</title>
<path fill="none" stroke="midnightblue" d="M757.261,-391.814C733.481,-354.147 698.035,-297.999 676.279,-263.538"/>
<polygon fill="midnightblue" stroke="midnightblue" points="754.445,-393.909 762.743,-400.496 760.364,-390.172 754.445,-393.909"/>
</g>
<!-- Node4 -->
<g id="node4" class="node"><title>Node4</title>
<g id="a_node4"><a xlink:href="human-state-provider_2__yarp__idl___2thrifts_2humanstate_2_quaternion_8h.html" target="_top" xlink:title="/home/travis/build\l/robotology/human&#45;dynamics\l&#45;estimation/build/human\l&#45;state&#45;provider/_yarp_idl\l_/thrifts/humanstate/Quaternion.h">
<polygon fill="none" stroke="black" points="243,-300.5 243,-363.5 405,-363.5 405,-300.5 243,-300.5"/>
<text text-anchor="start" x="251" y="-351.5" font-family="Helvetica,sans-Serif" font-size="10.00">/home/travis/build</text>
<text text-anchor="start" x="251" y="-340.5" font-family="Helvetica,sans-Serif" font-size="10.00">/robotology/human&#45;dynamics</text>
<text text-anchor="start" x="251" y="-329.5" font-family="Helvetica,sans-Serif" font-size="10.00">&#45;estimation/build/human</text>
<text text-anchor="start" x="251" y="-318.5" font-family="Helvetica,sans-Serif" font-size="10.00">&#45;state&#45;provider/_yarp_idl</text>
<text text-anchor="middle" x="324" y="-307.5" font-family="Helvetica,sans-Serif" font-size="10.00">_/thrifts/humanstate/Quaternion.h</text>
</a>
</g>
</g>
<!-- Node1&#45;&gt;Node4 -->
<g id="edge3" class="edge"><title>Node1&#45;&gt;Node4</title>
<path fill="none" stroke="midnightblue" d="M700.5,-413.561C617.119,-395.72 488.322,-368.161 405.09,-350.351"/>
<polygon fill="midnightblue" stroke="midnightblue" points="699.926,-417.018 710.438,-415.688 701.391,-410.173 699.926,-417.018"/>
</g>
<!-- Node5 -->
<g id="node5" class="node"><title>Node5</title>
<g id="a_node5"><a xlink:href="human-state-provider_2__yarp__idl___2thrifts_2humanstate_2_vector3_8cpp.html" target="_top" xlink:title="/home/travis/build\l/robotology/human&#45;dynamics\l&#45;estimation/build/human\l&#45;state&#45;provider/_yarp_idl\l_/thrifts/humanstate/Vector3.cpp">
<polygon fill="none" stroke="black" points="921.5,-300.5 921.5,-363.5 1080.5,-363.5 1080.5,-300.5 921.5,-300.5"/>
<text text-anchor="start" x="929.5" y="-351.5" font-family="Helvetica,sans-Serif" font-size="10.00">/home/travis/build</text>
<text text-anchor="start" x="929.5" y="-340.5" font-family="Helvetica,sans-Serif" font-size="10.00">/robotology/human&#45;dynamics</text>
<text text-anchor="start" x="929.5" y="-329.5" font-family="Helvetica,sans-Serif" font-size="10.00">&#45;estimation/build/human</text>
<text text-anchor="start" x="929.5" y="-318.5" font-family="Helvetica,sans-Serif" font-size="10.00">&#45;state&#45;provider/_yarp_idl</text>
<text text-anchor="middle" x="1001" y="-307.5" font-family="Helvetica,sans-Serif" font-size="10.00">_/thrifts/humanstate/Vector3.cpp</text>
</a>
</g>
</g>
<!-- Node1&#45;&gt;Node5 -->
<g id="edge5" class="edge"><title>Node1&#45;&gt;Node5</title>
<path fill="none" stroke="midnightblue" d="M859.753,-396.206C883.582,-385.543 909.606,-373.898 932.75,-363.541"/>
<polygon fill="midnightblue" stroke="midnightblue" points="858.09,-393.116 850.392,-400.395 860.95,-399.505 858.09,-393.116"/>
</g>
<!-- Node6 -->
<g id="node6" class="node"><title>Node6</title>
<g id="a_node6"><a xlink:href="autogenerated_2include_2thrifts_2_human_state_8h.html" target="_top" xlink:title="/home/travis/build\l/robotology/human&#45;dynamics\l&#45;estimation/build/human\l&#45;state&#45;provider/autogenerated\l/include/thrifts/HumanState.h">
<polygon fill="none" stroke="black" points="760,-200.5 760,-263.5 904,-263.5 904,-200.5 760,-200.5"/>
<text text-anchor="start" x="768" y="-251.5" font-family="Helvetica,sans-Serif" font-size="10.00">/home/travis/build</text>
<text text-anchor="start" x="768" y="-240.5" font-family="Helvetica,sans-Serif" font-size="10.00">/robotology/human&#45;dynamics</text>
<text text-anchor="start" x="768" y="-229.5" font-family="Helvetica,sans-Serif" font-size="10.00">&#45;estimation/build/human</text>
<text text-anchor="start" x="768" y="-218.5" font-family="Helvetica,sans-Serif" font-size="10.00">&#45;state&#45;provider/autogenerated</text>
<text text-anchor="middle" x="832" y="-207.5" font-family="Helvetica,sans-Serif" font-size="10.00">/include/thrifts/HumanState.h</text>
</a>
</g>
</g>
<!-- Node1&#45;&gt;Node6 -->
<g id="edge6" class="edge"><title>Node1&#45;&gt;Node6</title>
<path fill="none" stroke="midnightblue" d="M759.376,-391.358C747.248,-364.612 737.335,-329.036 751,-300 757.683,-285.799 769.017,-273.578 781.123,-263.61"/>
<polygon fill="midnightblue" stroke="midnightblue" points="756.244,-392.922 763.724,-400.426 762.556,-389.895 756.244,-392.922"/>
</g>
<!-- Node23 -->
<g id="node23" class="node"><title>Node23</title>
<g id="a_node23"><a xlink:href="human-state-provider_2autogenerated_2include_2thrifts_2_quaternion_8h.html" target="_top" xlink:title="/home/travis/build\l/robotology/human&#45;dynamics\l&#45;estimation/build/human\l&#45;state&#45;provider/autogenerated\l/include/thrifts/Quaternion.h">
<polygon fill="none" stroke="black" points="760.5,-300.5 760.5,-363.5 903.5,-363.5 903.5,-300.5 760.5,-300.5"/>
<text text-anchor="start" x="768.5" y="-351.5" font-family="Helvetica,sans-Serif" font-size="10.00">/home/travis/build</text>
<text text-anchor="start" x="768.5" y="-340.5" font-family="Helvetica,sans-Serif" font-size="10.00">/robotology/human&#45;dynamics</text>
<text text-anchor="start" x="768.5" y="-329.5" font-family="Helvetica,sans-Serif" font-size="10.00">&#45;estimation/build/human</text>
<text text-anchor="start" x="768.5" y="-318.5" font-family="Helvetica,sans-Serif" font-size="10.00">&#45;state&#45;provider/autogenerated</text>
<text text-anchor="middle" x="832" y="-307.5" font-family="Helvetica,sans-Serif" font-size="10.00">/include/thrifts/Quaternion.h</text>
</a>
</g>
</g>
<!-- Node1&#45;&gt;Node23 -->
<g id="edge25" class="edge"><title>Node1&#45;&gt;Node23</title>
<path fill="none" stroke="midnightblue" d="M802.279,-391.252C806.979,-382.042 811.909,-372.379 816.373,-363.63"/>
<polygon fill="midnightblue" stroke="midnightblue" points="799.11,-389.763 797.683,-400.261 805.346,-392.944 799.11,-389.763"/>
</g>
<!-- Node26 -->
<g id="node26" class="node"><title>Node26</title>
<g id="a_node26"><a xlink:href="human-state-provider_2autogenerated_2src_2_vector3_8cpp.html" target="_top" xlink:title="/home/travis/build\l/robotology/human&#45;dynamics\l&#45;estimation/build/human\l&#45;state&#45;provider/autogenerated\l/src/Vector3.cpp">
<polygon fill="none" stroke="black" points="1098.5,-300.5 1098.5,-363.5 1241.5,-363.5 1241.5,-300.5 1098.5,-300.5"/>
<text text-anchor="start" x="1106.5" y="-351.5" font-family="Helvetica,sans-Serif" font-size="10.00">/home/travis/build</text>
<text text-anchor="start" x="1106.5" y="-340.5" font-family="Helvetica,sans-Serif" font-size="10.00">/robotology/human&#45;dynamics</text>
<text text-anchor="start" x="1106.5" y="-329.5" font-family="Helvetica,sans-Serif" font-size="10.00">&#45;estimation/build/human</text>
<text text-anchor="start" x="1106.5" y="-318.5" font-family="Helvetica,sans-Serif" font-size="10.00">&#45;state&#45;provider/autogenerated</text>
<text text-anchor="middle" x="1170" y="-307.5" font-family="Helvetica,sans-Serif" font-size="10.00">/src/Vector3.cpp</text>
</a>
</g>
</g>
<!-- Node1&#45;&gt;Node26 -->
<g id="edge30" class="edge"><title>Node1&#45;&gt;Node26</title>
<path fill="none" stroke="midnightblue" d="M863.974,-416.594C926.308,-404.803 1013.86,-386.439 1089,-364 1092.03,-363.095 1095.11,-362.13 1098.21,-361.121"/>
<polygon fill="midnightblue" stroke="midnightblue" points="862.988,-413.218 853.805,-418.501 864.279,-420.098 862.988,-413.218"/>
</g>
<!-- Node3 -->
<g id="node3" class="node"><title>Node3</title>
<g id="a_node3"><a xlink:href="_human_state__index_8h.html" target="_top" xlink:title="/home/travis/build\l/robotology/human&#45;dynamics\l&#45;estimation/build/human\l&#45;state&#45;provider/_yarp_idl\l_/thrifts/humanstate/HumanState_index.h">
<polygon fill="none" stroke="black" points="0,-100.5 0,-163.5 198,-163.5 198,-100.5 0,-100.5"/>
<text text-anchor="start" x="8" y="-151.5" font-family="Helvetica,sans-Serif" font-size="10.00">/home/travis/build</text>
<text text-anchor="start" x="8" y="-140.5" font-family="Helvetica,sans-Serif" font-size="10.00">/robotology/human&#45;dynamics</text>
<text text-anchor="start" x="8" y="-129.5" font-family="Helvetica,sans-Serif" font-size="10.00">&#45;estimation/build/human</text>
<text text-anchor="start" x="8" y="-118.5" font-family="Helvetica,sans-Serif" font-size="10.00">&#45;state&#45;provider/_yarp_idl</text>
<text text-anchor="middle" x="99" y="-107.5" font-family="Helvetica,sans-Serif" font-size="10.00">_/thrifts/humanstate/HumanState_index.h</text>
</a>
</g>
</g>
<!-- Node2&#45;&gt;Node3 -->
<g id="edge2" class="edge"><title>Node2&#45;&gt;Node3</title>
<path fill="none" stroke="midnightblue" d="M561.721,-220.51C470.182,-209.564 328.274,-190.313 207,-164 204.045,-163.359 201.052,-162.682 198.037,-161.975"/>
<polygon fill="midnightblue" stroke="midnightblue" points="561.457,-224.003 571.8,-221.706 562.282,-217.052 561.457,-224.003"/>
</g>
<!-- Node4&#45;&gt;Node3 -->
<g id="edge4" class="edge"><title>Node4&#45;&gt;Node3</title>
<path fill="none" stroke="midnightblue" d="M281.62,-293.705C238.827,-256.048 173.524,-198.581 133.703,-163.538"/>
<polygon fill="midnightblue" stroke="midnightblue" points="279.517,-296.518 289.337,-300.496 284.142,-291.263 279.517,-296.518"/>
</g>
<!-- Node7 -->
<g id="node7" class="node"><title>Node7</title>
<g id="a_node7"><a xlink:href="__yarp__idl___2thrifts_2humanstate_2_human_state_8cpp.html" target="_top" xlink:title="/home/travis/build\l/robotology/human&#45;dynamics\l&#45;estimation/build/human\l&#45;state&#45;provider/_yarp_idl\l_/thrifts/humanstate/HumanState.cpp">
<polygon fill="none" stroke="black" points="1221,-100.5 1221,-163.5 1401,-163.5 1401,-100.5 1221,-100.5"/>
<text text-anchor="start" x="1229" y="-151.5" font-family="Helvetica,sans-Serif" font-size="10.00">/home/travis/build</text>
<text text-anchor="start" x="1229" y="-140.5" font-family="Helvetica,sans-Serif" font-size="10.00">/robotology/human&#45;dynamics</text>
<text text-anchor="start" x="1229" y="-129.5" font-family="Helvetica,sans-Serif" font-size="10.00">&#45;estimation/build/human</text>
<text text-anchor="start" x="1229" y="-118.5" font-family="Helvetica,sans-Serif" font-size="10.00">&#45;state&#45;provider/_yarp_idl</text>
<text text-anchor="middle" x="1311" y="-107.5" font-family="Helvetica,sans-Serif" font-size="10.00">_/thrifts/humanstate/HumanState.cpp</text>
</a>
</g>
</g>
<!-- Node6&#45;&gt;Node7 -->
<g id="edge7" class="edge"><title>Node6&#45;&gt;Node7</title>
<path fill="none" stroke="midnightblue" d="M913.695,-200.075C913.797,-200.05 913.898,-200.025 914,-200 1043.12,-168.26 1080.97,-191.798 1211,-164 1214.29,-163.297 1217.62,-162.534 1220.98,-161.723"/>
<polygon fill="midnightblue" stroke="midnightblue" points="912.882,-196.669 904.137,-202.651 914.704,-203.428 912.882,-196.669"/>
</g>
<!-- Node8 -->
<g id="node8" class="node"><title>Node8</title>
<g id="a_node8"><a xlink:href="autogenerated_2src_2_human_state_8cpp.html" target="_top" xlink:title="/home/travis/build\l/robotology/human&#45;dynamics\l&#45;estimation/build/human\l&#45;state&#45;provider/autogenerated\l/src/HumanState.cpp">
<polygon fill="none" stroke="black" points="1419.5,-100.5 1419.5,-163.5 1562.5,-163.5 1562.5,-100.5 1419.5,-100.5"/>
<text text-anchor="start" x="1427.5" y="-151.5" font-family="Helvetica,sans-Serif" font-size="10.00">/home/travis/build</text>
<text text-anchor="start" x="1427.5" y="-140.5" font-family="Helvetica,sans-Serif" font-size="10.00">/robotology/human&#45;dynamics</text>
<text text-anchor="start" x="1427.5" y="-129.5" font-family="Helvetica,sans-Serif" font-size="10.00">&#45;estimation/build/human</text>
<text text-anchor="start" x="1427.5" y="-118.5" font-family="Helvetica,sans-Serif" font-size="10.00">&#45;state&#45;provider/autogenerated</text>
<text text-anchor="middle" x="1491" y="-107.5" font-family="Helvetica,sans-Serif" font-size="10.00">/src/HumanState.cpp</text>
</a>
</g>
</g>
<!-- Node6&#45;&gt;Node8 -->
<g id="edge8" class="edge"><title>Node6&#45;&gt;Node8</title>
<path fill="none" stroke="midnightblue" d="M913.693,-200.068C913.796,-200.045 913.898,-200.023 914,-200 1129.84,-152.425 1194.25,-212.015 1410,-164 1413.09,-163.313 1416.21,-162.53 1419.35,-161.672"/>
<polygon fill="midnightblue" stroke="midnightblue" points="912.952,-196.646 904.091,-202.454 914.64,-203.439 912.952,-196.646"/>
</g>
<!-- Node9 -->
<g id="node9" class="node"><title>Node9</title>
<g id="a_node9"><a xlink:href="_human_dynamics_estimator_8h.html" target="_top" xlink:title="/home/travis/build\l/robotology/human&#45;dynamics\l&#45;estimation/human&#45;dynamics\l&#45;estimator/include/HumanDynamicsEstimator.h">
<polygon fill="none" stroke="black" points="1580.5,-106 1580.5,-158 1803.5,-158 1803.5,-106 1580.5,-106"/>
<text text-anchor="start" x="1588.5" y="-146" font-family="Helvetica,sans-Serif" font-size="10.00">/home/travis/build</text>
<text text-anchor="start" x="1588.5" y="-135" font-family="Helvetica,sans-Serif" font-size="10.00">/robotology/human&#45;dynamics</text>
<text text-anchor="start" x="1588.5" y="-124" font-family="Helvetica,sans-Serif" font-size="10.00">&#45;estimation/human&#45;dynamics</text>
<text text-anchor="middle" x="1692" y="-113" font-family="Helvetica,sans-Serif" font-size="10.00">&#45;estimator/include/HumanDynamicsEstimator.h</text>
</a>
</g>
</g>
<!-- Node6&#45;&gt;Node9 -->
<g id="edge9" class="edge"><title>Node6&#45;&gt;Node9</title>
<path fill="none" stroke="midnightblue" d="M913.693,-200.065C913.795,-200.043 913.898,-200.022 914,-200 1200.13,-139.585 1281.97,-208.503 1571,-164 1581.29,-162.416 1591.97,-160.336 1602.54,-158.002"/>
<polygon fill="midnightblue" stroke="midnightblue" points="912.978,-196.637 904.076,-202.381 914.617,-203.442 912.978,-196.637"/>
</g>
<!-- Node12 -->
<g id="node12" class="node"><title>Node12</title>
<g id="a_node12"><a xlink:href="_human_forces_provider_8h.html" target="_top" xlink:title="/home/travis/build\l/robotology/human&#45;dynamics\l&#45;estimation/human&#45;forces\l&#45;provider/include/HumanForcesProvider.h">
<polygon fill="none" stroke="black" points="440.5,-106 440.5,-158 637.5,-158 637.5,-106 440.5,-106"/>
<text text-anchor="start" x="448.5" y="-146" font-family="Helvetica,sans-Serif" font-size="10.00">/home/travis/build</text>
<text text-anchor="start" x="448.5" y="-135" font-family="Helvetica,sans-Serif" font-size="10.00">/robotology/human&#45;dynamics</text>
<text text-anchor="start" x="448.5" y="-124" font-family="Helvetica,sans-Serif" font-size="10.00">&#45;estimation/human&#45;forces</text>
<text text-anchor="middle" x="539" y="-113" font-family="Helvetica,sans-Serif" font-size="10.00">&#45;provider/include/HumanForcesProvider.h</text>
</a>
</g>
</g>
<!-- Node6&#45;&gt;Node12 -->
<g id="edge12" class="edge"><title>Node6&#45;&gt;Node12</title>
<path fill="none" stroke="midnightblue" d="M750.164,-199.764C702.926,-183.4 658.985,-169.412 622.187,-158.037"/>
<polygon fill="midnightblue" stroke="midnightblue" points="749.06,-203.085 759.655,-203.068 751.362,-196.475 749.06,-203.085"/>
</g>
<!-- Node15 -->
<g id="node15" class="node"><title>Node15</title>
<g id="a_node15"><a xlink:href="_robot_frame_transformer_8h.html" target="_top" xlink:title="/home/travis/build\l/robotology/human&#45;dynamics\l&#45;estimation/human&#45;forces\l&#45;provider/include/RobotFrameTransformer.h">
<polygon fill="none" stroke="black" points="216,-106 216,-158 422,-158 422,-106 216,-106"/>
<text text-anchor="start" x="224" y="-146" font-family="Helvetica,sans-Serif" font-size="10.00">/home/travis/build</text>
<text text-anchor="start" x="224" y="-135" font-family="Helvetica,sans-Serif" font-size="10.00">/robotology/human&#45;dynamics</text>
<text text-anchor="start" x="224" y="-124" font-family="Helvetica,sans-Serif" font-size="10.00">&#45;estimation/human&#45;forces</text>
<text text-anchor="middle" x="319" y="-113" font-family="Helvetica,sans-Serif" font-size="10.00">&#45;provider/include/RobotFrameTransformer.h</text>
</a>
</g>
</g>
<!-- Node6&#45;&gt;Node15 -->
<g id="edge15" class="edge"><title>Node6&#45;&gt;Node15</title>
<path fill="none" stroke="midnightblue" d="M750.059,-200.006C610.075,-167.248 568.36,-190.563 431,-164 422.185,-162.295 413.051,-160.247 403.974,-158.025"/>
<polygon fill="midnightblue" stroke="midnightblue" points="749.326,-203.429 759.866,-202.354 750.956,-196.622 749.326,-203.429"/>
</g>
<!-- Node17 -->
<g id="node17" class="node"><title>Node17</title>
<g id="a_node17"><a xlink:href="_human_state_provider_private_8h.html" target="_top" xlink:title="/home/travis/build\l/robotology/human&#45;dynamics\l&#45;estimation/human&#45;state\l&#45;provider/include/private\l/HumanStateProviderPrivate.h">
<polygon fill="none" stroke="black" points="655.5,-100.5 655.5,-163.5 804.5,-163.5 804.5,-100.5 655.5,-100.5"/>
<text text-anchor="start" x="663.5" y="-151.5" font-family="Helvetica,sans-Serif" font-size="10.00">/home/travis/build</text>
<text text-anchor="start" x="663.5" y="-140.5" font-family="Helvetica,sans-Serif" font-size="10.00">/robotology/human&#45;dynamics</text>
<text text-anchor="start" x="663.5" y="-129.5" font-family="Helvetica,sans-Serif" font-size="10.00">&#45;estimation/human&#45;state</text>
<text text-anchor="start" x="663.5" y="-118.5" font-family="Helvetica,sans-Serif" font-size="10.00">&#45;provider/include/private</text>
<text text-anchor="middle" x="730" y="-107.5" font-family="Helvetica,sans-Serif" font-size="10.00">/HumanStateProviderPrivate.h</text>
</a>
</g>
</g>
<!-- Node6&#45;&gt;Node17 -->
<g id="edge18" class="edge"><title>Node6&#45;&gt;Node17</title>
<path fill="none" stroke="midnightblue" d="M792.719,-193.259C782.515,-183.456 771.65,-173.017 761.88,-163.63"/>
<polygon fill="midnightblue" stroke="midnightblue" points="790.37,-195.857 800.006,-200.261 795.22,-190.809 790.37,-195.857"/>
</g>
<!-- Node19 -->
<g id="node19" class="node"><title>Node19</title>
<g id="a_node19"><a xlink:href="_human_state_provider_8cpp.html" target="_top" xlink:title="/home/travis/build\l/robotology/human&#45;dynamics\l&#45;estimation/human&#45;state\l&#45;provider/src/HumanStateProvider.cpp">
<polygon fill="none" stroke="black" points="996.5,-6 996.5,-58 1179.5,-58 1179.5,-6 996.5,-6"/>
<text text-anchor="start" x="1004.5" y="-46" font-family="Helvetica,sans-Serif" font-size="10.00">/home/travis/build</text>
<text text-anchor="start" x="1004.5" y="-35" font-family="Helvetica,sans-Serif" font-size="10.00">/robotology/human&#45;dynamics</text>
<text text-anchor="start" x="1004.5" y="-24" font-family="Helvetica,sans-Serif" font-size="10.00">&#45;estimation/human&#45;state</text>
<text text-anchor="middle" x="1088" y="-13" font-family="Helvetica,sans-Serif" font-size="10.00">&#45;provider/src/HumanStateProvider.cpp</text>
</a>
</g>
</g>
<!-- Node6&#45;&gt;Node19 -->
<g id="edge22" class="edge"><title>Node6&#45;&gt;Node19</title>
<path fill="none" stroke="midnightblue" d="M827.009,-190.188C825.857,-161.559 829.414,-124.217 851,-100 892.605,-53.325 926.879,-81.1765 987,-64 993.614,-62.1105 1000.46,-60.1093 1007.32,-58.0698"/>
<polygon fill="midnightblue" stroke="midnightblue" points="823.523,-190.531 827.622,-200.3 830.51,-190.107 823.523,-190.531"/>
</g>
<!-- Node21 -->
<g id="node21" class="node"><title>Node21</title>
<g id="a_node21"><a xlink:href="_human_joint_state_bridge_8cpp.html" target="_top" xlink:title="/home/travis/build\l/robotology/human&#45;dynamics\l&#45;estimation/human&#45;viz&#45;bridge\l/src/HumanJointStateBridge.cpp">
<polygon fill="none" stroke="black" points="860,-106 860,-158 1018,-158 1018,-106 860,-106"/>
<text text-anchor="start" x="868" y="-146" font-family="Helvetica,sans-Serif" font-size="10.00">/home/travis/build</text>
<text text-anchor="start" x="868" y="-135" font-family="Helvetica,sans-Serif" font-size="10.00">/robotology/human&#45;dynamics</text>
<text text-anchor="start" x="868" y="-124" font-family="Helvetica,sans-Serif" font-size="10.00">&#45;estimation/human&#45;viz&#45;bridge</text>
<text text-anchor="middle" x="939" y="-113" font-family="Helvetica,sans-Serif" font-size="10.00">/src/HumanJointStateBridge.cpp</text>
</a>
</g>
</g>
<!-- Node6&#45;&gt;Node21 -->
<g id="edge23" class="edge"><title>Node6&#45;&gt;Node21</title>
<path fill="none" stroke="midnightblue" d="M873.03,-193.421C885.957,-181.581 899.914,-168.799 911.646,-158.054"/>
<polygon fill="midnightblue" stroke="midnightblue" points="870.572,-190.926 865.562,-200.261 875.3,-196.088 870.572,-190.926"/>
</g>
<!-- Node22 -->
<g id="node22" class="node"><title>Node22</title>
<g id="a_node22"><a xlink:href="_robot_base_pose_publisher_8cpp.html" target="_top" xlink:title="/home/travis/build\l/robotology/human&#45;dynamics\l&#45;estimation/human&#45;viz&#45;bridge\l/src/RobotBasePosePublisher.cpp">
<polygon fill="none" stroke="black" points="1035.5,-106 1035.5,-158 1202.5,-158 1202.5,-106 1035.5,-106"/>
<text text-anchor="start" x="1043.5" y="-146" font-family="Helvetica,sans-Serif" font-size="10.00">/home/travis/build</text>
<text text-anchor="start" x="1043.5" y="-135" font-family="Helvetica,sans-Serif" font-size="10.00">/robotology/human&#45;dynamics</text>
<text text-anchor="start" x="1043.5" y="-124" font-family="Helvetica,sans-Serif" font-size="10.00">&#45;estimation/human&#45;viz&#45;bridge</text>
<text text-anchor="middle" x="1119" y="-113" font-family="Helvetica,sans-Serif" font-size="10.00">/src/RobotBasePosePublisher.cpp</text>
</a>
</g>
</g>
<!-- Node6&#45;&gt;Node22 -->
<g id="edge24" class="edge"><title>Node6&#45;&gt;Node22</title>
<path fill="none" stroke="midnightblue" d="M913.703,-200.104C913.802,-200.069 913.901,-200.035 914,-200 963.358,-182.75 976.309,-180.267 1026,-164 1031.9,-162.067 1038.01,-160.056 1044.15,-158.027"/>
<polygon fill="midnightblue" stroke="midnightblue" points="912.619,-196.775 904.365,-203.416 914.959,-203.372 912.619,-196.775"/>
</g>
<!-- Node10 -->
<g id="node10" class="node"><title>Node10</title>
<g id="a_node10"><a xlink:href="_human_dynamics_estimator_8cpp.html" target="_top" xlink:title="/home/travis/build\l/robotology/human&#45;dynamics\l&#45;estimation/human&#45;dynamics\l&#45;estimator/src/HumanDynamicsEstimator.cpp">
<polygon fill="none" stroke="black" points="1485,-6 1485,-58 1701,-58 1701,-6 1485,-6"/>
<text text-anchor="start" x="1493" y="-46" font-family="Helvetica,sans-Serif" font-size="10.00">/home/travis/build</text>
<text text-anchor="start" x="1493" y="-35" font-family="Helvetica,sans-Serif" font-size="10.00">/robotology/human&#45;dynamics</text>
<text text-anchor="start" x="1493" y="-24" font-family="Helvetica,sans-Serif" font-size="10.00">&#45;estimation/human&#45;dynamics</text>
<text text-anchor="middle" x="1593" y="-13" font-family="Helvetica,sans-Serif" font-size="10.00">&#45;estimator/src/HumanDynamicsEstimator.cpp</text>
</a>
</g>
</g>
<!-- Node9&#45;&gt;Node10 -->
<g id="edge10" class="edge"><title>Node9&#45;&gt;Node10</title>
<path fill="none" stroke="midnightblue" d="M1659.33,-98.6592C1646.02,-85.4842 1630.87,-70.4852 1618.41,-58.1519"/>
<polygon fill="midnightblue" stroke="midnightblue" points="1656.94,-101.215 1666.51,-105.763 1661.86,-96.24 1656.94,-101.215"/>
</g>
<!-- Node11 -->
<g id="node11" class="node"><title>Node11</title>
<g id="a_node11"><a xlink:href="human-dynamics-estimator_2src_2main_8cpp.html" target="_top" xlink:title="/home/travis/build\l/robotology/human&#45;dynamics\l&#45;estimation/human&#45;dynamics\l&#45;estimator/src/main.cpp">
<polygon fill="none" stroke="black" points="1719,-6 1719,-58 1861,-58 1861,-6 1719,-6"/>
<text text-anchor="start" x="1727" y="-46" font-family="Helvetica,sans-Serif" font-size="10.00">/home/travis/build</text>
<text text-anchor="start" x="1727" y="-35" font-family="Helvetica,sans-Serif" font-size="10.00">/robotology/human&#45;dynamics</text>
<text text-anchor="start" x="1727" y="-24" font-family="Helvetica,sans-Serif" font-size="10.00">&#45;estimation/human&#45;dynamics</text>
<text text-anchor="middle" x="1790" y="-13" font-family="Helvetica,sans-Serif" font-size="10.00">&#45;estimator/src/main.cpp</text>
</a>
</g>
</g>
<!-- Node9&#45;&gt;Node11 -->
<g id="edge11" class="edge"><title>Node9&#45;&gt;Node11</title>
<path fill="none" stroke="midnightblue" d="M1724.34,-98.6592C1737.52,-85.4842 1752.51,-70.4852 1764.85,-58.1519"/>
<polygon fill="midnightblue" stroke="midnightblue" points="1721.83,-96.2166 1717.24,-105.763 1726.78,-101.166 1721.83,-96.2166"/>
</g>
<!-- Node13 -->
<g id="node13" class="node"><title>Node13</title>
<g id="a_node13"><a xlink:href="_human_forces_provider_8cpp.html" target="_top" xlink:title="/home/travis/build\l/robotology/human&#45;dynamics\l&#45;estimation/human&#45;forces\l&#45;provider/src/HumanForcesProvider.cpp">
<polygon fill="none" stroke="black" points="242,-6 242,-58 432,-58 432,-6 242,-6"/>
<text text-anchor="start" x="250" y="-46" font-family="Helvetica,sans-Serif" font-size="10.00">/home/travis/build</text>
<text text-anchor="start" x="250" y="-35" font-family="Helvetica,sans-Serif" font-size="10.00">/robotology/human&#45;dynamics</text>
<text text-anchor="start" x="250" y="-24" font-family="Helvetica,sans-Serif" font-size="10.00">&#45;estimation/human&#45;forces</text>
<text text-anchor="middle" x="337" y="-13" font-family="Helvetica,sans-Serif" font-size="10.00">&#45;provider/src/HumanForcesProvider.cpp</text>
</a>
</g>
</g>
<!-- Node12&#45;&gt;Node13 -->
<g id="edge13" class="edge"><title>Node12&#45;&gt;Node13</title>
<path fill="none" stroke="midnightblue" d="M478.163,-101.485C449.602,-87.6286 415.921,-71.2885 388.623,-58.0449"/>
<polygon fill="midnightblue" stroke="midnightblue" points="476.717,-104.674 487.242,-105.89 479.773,-98.3759 476.717,-104.674"/>
</g>
<!-- Node14 -->
<g id="node14" class="node"><title>Node14</title>
<g id="a_node14"><a xlink:href="human-forces-provider_2src_2main_8cpp.html" target="_top" xlink:title="/home/travis/build\l/robotology/human&#45;dynamics\l&#45;estimation/human&#45;forces\l&#45;provider/src/main.cpp">
<polygon fill="none" stroke="black" points="450,-6 450,-58 592,-58 592,-6 450,-6"/>
<text text-anchor="start" x="458" y="-46" font-family="Helvetica,sans-Serif" font-size="10.00">/home/travis/build</text>
<text text-anchor="start" x="458" y="-35" font-family="Helvetica,sans-Serif" font-size="10.00">/robotology/human&#45;dynamics</text>
<text text-anchor="start" x="458" y="-24" font-family="Helvetica,sans-Serif" font-size="10.00">&#45;estimation/human&#45;forces</text>
<text text-anchor="middle" x="521" y="-13" font-family="Helvetica,sans-Serif" font-size="10.00">&#45;provider/src/main.cpp</text>
</a>
</g>
</g>
<!-- Node12&#45;&gt;Node14 -->
<g id="edge14" class="edge"><title>Node12&#45;&gt;Node14</title>
<path fill="none" stroke="midnightblue" d="M532.517,-95.7033C530.235,-83.2767 527.717,-69.5716 525.62,-58.1519"/>
<polygon fill="midnightblue" stroke="midnightblue" points="529.116,-96.5594 534.365,-105.763 536,-95.2948 529.116,-96.5594"/>
</g>
<!-- Node15&#45;&gt;Node13 -->
<g id="edge16" class="edge"><title>Node15&#45;&gt;Node13</title>
<path fill="none" stroke="midnightblue" d="M325.483,-95.7033C327.765,-83.2767 330.283,-69.5716 332.38,-58.1519"/>
<polygon fill="midnightblue" stroke="midnightblue" points="322,-95.2948 323.635,-105.763 328.884,-96.5594 322,-95.2948"/>
</g>
<!-- Node16 -->
<g id="node16" class="node"><title>Node16</title>
<g id="a_node16"><a xlink:href="_robot_frame_transformer_8cpp.html" target="_top" xlink:title="/home/travis/build\l/robotology/human&#45;dynamics\l&#45;estimation/human&#45;forces\l&#45;provider/src/RobotFrameTransformer.cpp">
<polygon fill="none" stroke="black" points="24.5,-6 24.5,-58 223.5,-58 223.5,-6 24.5,-6"/>
<text text-anchor="start" x="32.5" y="-46" font-family="Helvetica,sans-Serif" font-size="10.00">/home/travis/build</text>
<text text-anchor="start" x="32.5" y="-35" font-family="Helvetica,sans-Serif" font-size="10.00">/robotology/human&#45;dynamics</text>
<text text-anchor="start" x="32.5" y="-24" font-family="Helvetica,sans-Serif" font-size="10.00">&#45;estimation/human&#45;forces</text>
<text text-anchor="middle" x="124" y="-13" font-family="Helvetica,sans-Serif" font-size="10.00">&#45;provider/src/RobotFrameTransformer.cpp</text>
</a>
</g>
</g>
<!-- Node15&#45;&gt;Node16 -->
<g id="edge17" class="edge"><title>Node15&#45;&gt;Node16</title>
<path fill="none" stroke="midnightblue" d="M259.913,-101.305C232.418,-87.4872 200.072,-71.2311 173.834,-58.0449"/>
<polygon fill="midnightblue" stroke="midnightblue" points="258.529,-104.527 269.036,-105.89 261.672,-98.272 258.529,-104.527"/>
</g>
<!-- Node18 -->
<g id="node18" class="node"><title>Node18</title>
<g id="a_node18"><a xlink:href="_human_i_k_worker_pool_8cpp.html" target="_top" xlink:title="/home/travis/build\l/robotology/human&#45;dynamics\l&#45;estimation/human&#45;state\l&#45;provider/src/HumanIKWorkerPool.cpp">
<polygon fill="none" stroke="black" points="610.5,-6 610.5,-58 795.5,-58 795.5,-6 610.5,-6"/>
<text text-anchor="start" x="618.5" y="-46" font-family="Helvetica,sans-Serif" font-size="10.00">/home/travis/build</text>
<text text-anchor="start" x="618.5" y="-35" font-family="Helvetica,sans-Serif" font-size="10.00">/robotology/human&#45;dynamics</text>
<text text-anchor="start" x="618.5" y="-24" font-family="Helvetica,sans-Serif" font-size="10.00">&#45;estimation/human&#45;state</text>
<text text-anchor="middle" x="703" y="-13" font-family="Helvetica,sans-Serif" font-size="10.00">&#45;provider/src/HumanIKWorkerPool.cpp</text>
</a>
</g>
</g>
<!-- Node17&#45;&gt;Node18 -->
<g id="edge19" class="edge"><title>Node17&#45;&gt;Node18</title>
<path fill="none" stroke="midnightblue" d="M718.818,-90.4152C715.796,-79.4451 712.614,-67.8949 709.903,-58.0536"/>
<polygon fill="midnightblue" stroke="midnightblue" points="715.501,-91.5499 721.531,-100.261 722.249,-89.6906 715.501,-91.5499"/>
</g>
<!-- Node17&#45;&gt;Node19 -->
<g id="edge20" class="edge"><title>Node17&#45;&gt;Node19</title>
<path fill="none" stroke="midnightblue" d="M814.295,-101.06C815.536,-100.699 816.772,-100.346 818,-100 891.926,-79.1987 912.665,-83.2854 987,-64 994.102,-62.1575 1001.45,-60.134 1008.79,-58.031"/>
<polygon fill="midnightblue" stroke="midnightblue" points="813.249,-97.7196 804.683,-103.955 815.267,-104.422 813.249,-97.7196"/>
</g>
<!-- Node20 -->
<g id="node20" class="node"><title>Node20</title>
<g id="a_node20"><a xlink:href="_human_state_provider_private_8cpp.html" target="_top" xlink:title="/home/travis/build\l/robotology/human&#45;dynamics\l&#45;estimation/human&#45;state\l&#45;provider/src/HumanStateProvider\lPrivate.cpp">
<polygon fill="none" stroke="black" points="814,-0.5 814,-63.5 978,-63.5 978,-0.5 814,-0.5"/>
<text text-anchor="start" x="822" y="-51.5" font-family="Helvetica,sans-Serif" font-size="10.00">/home/travis/build</text>
<text text-anchor="start" x="822" y="-40.5" font-family="Helvetica,sans-Serif" font-size="10.00">/robotology/human&#45;dynamics</text>
<text text-anchor="start" x="822" y="-29.5" font-family="Helvetica,sans-Serif" font-size="10.00">&#45;estimation/human&#45;state</text>
<text text-anchor="start" x="822" y="-18.5" font-family="Helvetica,sans-Serif" font-size="10.00">&#45;provider/src/HumanStateProvider</text>
<text text-anchor="middle" x="896" y="-7.5" font-family="Helvetica,sans-Serif" font-size="10.00">Private.cpp</text>
</a>
</g>
</g>
<!-- Node17&#45;&gt;Node20 -->
<g id="edge21" class="edge"><title>Node17&#45;&gt;Node20</title>
<path fill="none" stroke="midnightblue" d="M791.038,-94.9656C808.468,-84.6757 827.29,-73.5639 844.117,-63.6299"/>
<polygon fill="midnightblue" stroke="midnightblue" points="788.9,-92.1633 782.068,-100.261 792.459,-98.1912 788.9,-92.1633"/>
</g>
<!-- Node23&#45;&gt;Node2 -->
<g id="edge26" class="edge"><title>Node23&#45;&gt;Node2</title>
<path fill="none" stroke="midnightblue" d="M768.158,-295.249C749.642,-284.88 729.598,-273.655 711.696,-263.63"/>
<polygon fill="midnightblue" stroke="midnightblue" points="766.674,-298.429 777.109,-300.261 770.094,-292.321 766.674,-298.429"/>
</g>
<!-- Node23&#45;&gt;Node6 -->
<g id="edge28" class="edge"><title>Node23&#45;&gt;Node6</title>
<path fill="none" stroke="midnightblue" d="M832,-290.099C832,-281.238 832,-272.015 832,-263.63"/>
<polygon fill="midnightblue" stroke="midnightblue" points="828.5,-290.261 832,-300.261 835.5,-290.261 828.5,-290.261"/>
</g>
<!-- Node24 -->
<g id="node24" class="node"><title>Node24</title>
<g id="a_node24"><a xlink:href="human-state-provider_2__yarp__idl___2thrifts_2humanstate_2_quaternion_8cpp.html" target="_top" xlink:title="/home/travis/build\l/robotology/human&#45;dynamics\l&#45;estimation/build/human\l&#45;state&#45;provider/_yarp_idl\l_/thrifts/humanstate/Quaternion.cpp">
<polygon fill="none" stroke="black" points="1083.5,-200.5 1083.5,-263.5 1256.5,-263.5 1256.5,-200.5 1083.5,-200.5"/>
<text text-anchor="start" x="1091.5" y="-251.5" font-family="Helvetica,sans-Serif" font-size="10.00">/home/travis/build</text>
<text text-anchor="start" x="1091.5" y="-240.5" font-family="Helvetica,sans-Serif" font-size="10.00">/robotology/human&#45;dynamics</text>
<text text-anchor="start" x="1091.5" y="-229.5" font-family="Helvetica,sans-Serif" font-size="10.00">&#45;estimation/build/human</text>
<text text-anchor="start" x="1091.5" y="-218.5" font-family="Helvetica,sans-Serif" font-size="10.00">&#45;state&#45;provider/_yarp_idl</text>
<text text-anchor="middle" x="1170" y="-207.5" font-family="Helvetica,sans-Serif" font-size="10.00">_/thrifts/humanstate/Quaternion.cpp</text>
</a>
</g>
</g>
<!-- Node23&#45;&gt;Node24 -->
<g id="edge27" class="edge"><title>Node23&#45;&gt;Node24</title>
<path fill="none" stroke="midnightblue" d="M913.716,-299.951C985.02,-279.178 1006.3,-282.458 1074,-264 1077.04,-263.171 1080.13,-262.305 1083.24,-261.412"/>
<polygon fill="midnightblue" stroke="midnightblue" points="912.389,-296.694 903.801,-302.898 914.384,-303.404 912.389,-296.694"/>
</g>
<!-- Node25 -->
<g id="node25" class="node"><title>Node25</title>
<g id="a_node25"><a xlink:href="human-state-provider_2autogenerated_2src_2_quaternion_8cpp.html" target="_top" xlink:title="/home/travis/build\l/robotology/human&#45;dynamics\l&#45;estimation/build/human\l&#45;state&#45;provider/autogenerated\l/src/Quaternion.cpp">
<polygon fill="none" stroke="black" points="922.5,-200.5 922.5,-263.5 1065.5,-263.5 1065.5,-200.5 922.5,-200.5"/>
<text text-anchor="start" x="930.5" y="-251.5" font-family="Helvetica,sans-Serif" font-size="10.00">/home/travis/build</text>
<text text-anchor="start" x="930.5" y="-240.5" font-family="Helvetica,sans-Serif" font-size="10.00">/robotology/human&#45;dynamics</text>
<text text-anchor="start" x="930.5" y="-229.5" font-family="Helvetica,sans-Serif" font-size="10.00">&#45;estimation/build/human</text>
<text text-anchor="start" x="930.5" y="-218.5" font-family="Helvetica,sans-Serif" font-size="10.00">&#45;state&#45;provider/autogenerated</text>
<text text-anchor="middle" x="994" y="-207.5" font-family="Helvetica,sans-Serif" font-size="10.00">/src/Quaternion.cpp</text>
</a>
</g>
</g>
<!-- Node23&#45;&gt;Node25 -->
<g id="edge29" class="edge"><title>Node23&#45;&gt;Node25</title>
<path fill="none" stroke="midnightblue" d="M891.567,-294.966C908.577,-284.676 926.945,-273.564 943.367,-263.63"/>
<polygon fill="midnightblue" stroke="midnightblue" points="889.558,-292.09 882.813,-300.261 893.181,-298.08 889.558,-292.09"/>
</g>
</g>
</svg>
        <g id="navigator" transform="translate(0 0)" fill="#404254">
                <rect fill="#f2f5e9" fill-opacity="0.5" stroke="#606060" stroke-width=".5" x="0" y="0" width="60" height="60"/>
                <use id="zoomplus" xlink:href="#zoomPlus" x="17" y="9" onmousedown="handleZoom(evt,'in')"/>
                <use id="zoomminus" xlink:href="#zoomMin" x="42" y="9" onmousedown="handleZoom(evt,'out')"/>
                <use id="reset" xlink:href="#resetDef" x="30" y="36" onmousedown="handleReset()"/>
                <g id="arrowUp" xlink:href="#dirArrow" transform="translate(30 24)" onmousedown="handlePan(0,-1)">
                  <use xlink:href="#rim" fill="#404040">
                        <set attributeName="fill" to="#808080" begin="arrowUp.mouseover" end="arrowUp.mouseout"/>
                  </use>
                  <path fill="none" stroke="white" stroke-width="1.5" d="M0,-3.0v7 M-2.5,-0.5L0,-3.0L2.5,-0.5"/>
                </g>
                <g id="arrowRight" xlink:href="#dirArrow" transform="rotate(90) translate(36 -43)" onmousedown="handlePan(1,0)">
                  <use xlink:href="#rim" fill="#404040">
                        <set attributeName="fill" to="#808080" begin="arrowRight.mouseover" end="arrowRight.mouseout"/>
                  </use>
                  <path fill="none" stroke="white" stroke-width="1.5" d="M0,-3.0v7 M-2.5,-0.5L0,-3.0L2.5,-0.5"/>
                </g>
                <g id="arrowDown" xlink:href="#dirArrow" transform="rotate(180) translate(-30 -48)" onmousedown="handlePan(0,1)">
                  <use xlink:href="#rim" fill="#404040">
                        <set attributeName="fill" to="#808080" begin="arrowDown.mouseover" end="arrowDown.mouseout"/>
                  </use>
                  <path fill="none" stroke="white" stroke-width="1.5" d="M0,-3.0v7 M-2.5,-0.5L0,-3.0L2.5,-0.5"/>
                </g>
                <g id="arrowLeft" xlink:href="#dirArrow" transform="rotate(270) translate(-36 17)" onmousedown="handlePan(-1,0)">
                  <use xlink:href="#rim" fill="#404040">
                        <set attributeName="fill" to="#808080" begin="arrowLeft.mouseover" end="arrowLeft.mouseout"/>
                  </use>
                  <path fill="none" stroke="white" stroke-width="1.5" d="M0,-3.0v7 M-2.5,-0.5L0,-3.0L2.5,-0.5"/>
                </g>
        </g>
        <svg viewBox="0 0 15 15" width="100%" height="30px" preserveAspectRatio="xMaxYMin meet">
         <g id="arrow_out" transform="scale(0.3 0.3)">
          <a xlink:href="human-state-provider_2autogenerated_2include_2thrifts_2_vector3_8h__dep__incl_org.svg" target="_base">
           <rect id="button" ry="5" rx="5" y="6" x="6" height="38" width="38"
                fill="#f2f5e9" fill-opacity="0.5" stroke="#606060" stroke-width="1.0"/>
           <path id="arrow"
             d="M 11.500037,31.436501 C 11.940474,20.09759 22.043105,11.32322 32.158766,21.979434 L 37.068811,17.246167 C 37.068811,17.246167 37.088388,32 37.088388,32 L 22.160133,31.978069 C 22.160133,31.978069 26.997745,27.140456 26.997745,27.140456 C 18.528582,18.264221 13.291696,25.230495 11.500037,31.436501 z"
             style="fill:#404040;"/>
          </a>
         </g>
        </svg>
</svg>
