<?xml version="1.0" encoding="UTF-8" standalone="no"?>
<!DOCTYPE svg PUBLIC "-//W3C//DTD SVG 1.1//EN"
 "http://www.w3.org/Graphics/SVG/1.1/DTD/svg11.dtd">
<!-- Generated by graphviz version 2.36.0 (20140111.2315)
 -->
<!-- Title: /home/travis/build/robotology/human&#45;dynamics&#45;estimation/build/human&#45;viz&#45;bridge/_yarp_idl_/thrift/xsensframe/Quaternion.cpp Pages: 1 -->
<svg width="235pt" height="240pt"
 viewBox="0.00 0.00 235.00 240.00" xmlns="http://www.w3.org/2000/svg" xmlns:xlink="http://www.w3.org/1999/xlink">
<g id="graph0" class="graph" transform="scale(1 1) rotate(0) translate(4 236)">
<title>/home/travis/build/robotology/human&#45;dynamics&#45;estimation/build/human&#45;viz&#45;bridge/_yarp_idl_/thrift/xsensframe/Quaternion.cpp</title>
<!-- Node1 -->
<g id="node1" class="node"><title>Node1</title>
<polygon fill="#bfbfbf" stroke="black" points="33,-168.5 33,-231.5 175,-231.5 175,-168.5 33,-168.5"/>
<text text-anchor="start" x="41" y="-219.5" font-family="Helvetica,sans-Serif" font-size="10.00">/home/travis/build</text>
<text text-anchor="start" x="41" y="-208.5" font-family="Helvetica,sans-Serif" font-size="10.00">/robotology/human&#45;dynamics</text>
<text text-anchor="start" x="41" y="-197.5" font-family="Helvetica,sans-Serif" font-size="10.00">&#45;estimation/build/human</text>
<text text-anchor="start" x="41" y="-186.5" font-family="Helvetica,sans-Serif" font-size="10.00">&#45;viz&#45;bridge/_yarp_idl_/thrift</text>
<text text-anchor="middle" x="104" y="-175.5" font-family="Helvetica,sans-Serif" font-size="10.00">/xsensframe/Quaternion.cpp</text>
</g>
<!-- Node2 -->
<g id="node2" class="node"><title>Node2</title>
<g id="a_node2"><a xlink:href="human-viz-bridge_2autogenerated_2data_2include_2thrift_2_quaternion_8h.html" target="_top" xlink:title="thrift/Quaternion.h">
<polygon fill="none" stroke="black" points="56.5,-112.5 56.5,-131.5 151.5,-131.5 151.5,-112.5 56.5,-112.5"/>
<text text-anchor="middle" x="104" y="-119.5" font-family="Helvetica,sans-Serif" font-size="10.00">thrift/Quaternion.h</text>
</a>
</g>
</g>
<!-- Node1&#45;&gt;Node2 -->
<g id="edge1" class="edge"><title>Node1&#45;&gt;Node2</title>
<path fill="none" stroke="midnightblue" d="M104,-168.088C104,-159.15 104,-149.669 104,-141.719"/>
<polygon fill="midnightblue" stroke="midnightblue" points="107.5,-141.718 104,-131.718 100.5,-141.718 107.5,-141.718"/>
</g>
<!-- Node3 -->
<g id="node3" class="node"><title>Node3</title>
<polygon fill="none" stroke="#bfbfbf" points="0,-0.5 0,-19.5 80,-19.5 80,-0.5 0,-0.5"/>
<text text-anchor="middle" x="40" y="-7.5" font-family="Helvetica,sans-Serif" font-size="10.00">yarp/os/Wire.h</text>
</g>
<!-- Node2&#45;&gt;Node3 -->
<g id="edge2" class="edge"><title>Node2&#45;&gt;Node3</title>
<path fill="none" stroke="midnightblue" d="M90.3545,-112.359C78.8567,-104.344 62.8981,-91.3601 54,-76 45.7725,-61.7976 42.3655,-43.3198 40.9624,-29.6973"/>
<polygon fill="midnightblue" stroke="midnightblue" points="44.4425,-29.3021 40.1932,-19.5967 37.4627,-29.8337 44.4425,-29.3021"/>
</g>
<!-- Node4 -->
<g id="node4" class="node"><title>Node4</title>
<polygon fill="none" stroke="#bfbfbf" points="108,-0.5 108,-19.5 228,-19.5 228,-0.5 108,-0.5"/>
<text text-anchor="middle" x="168" y="-7.5" font-family="Helvetica,sans-Serif" font-size="10.00">yarp/os/idl/WireTypes.h</text>
</g>
<!-- Node2&#45;&gt;Node4 -->
<g id="edge3" class="edge"><title>Node2&#45;&gt;Node4</title>
<path fill="none" stroke="midnightblue" d="M117.316,-112.265C128.547,-104.191 144.165,-91.1708 153,-76 161.287,-61.7701 164.996,-43.2954 166.656,-29.681"/>
<polygon fill="midnightblue" stroke="midnightblue" points="170.153,-29.8764 167.624,-19.5879 163.185,-29.2082 170.153,-29.8764"/>
</g>
<!-- Node5 -->
<g id="node5" class="node"><title>Node5</title>
<g id="a_node5"><a xlink:href="human-viz-bridge_2autogenerated_2data_2include_2thrift_2_vector3_8h.html" target="_top" xlink:title="thrift/Vector3.h">
<polygon fill="none" stroke="black" points="63.5,-56.5 63.5,-75.5 144.5,-75.5 144.5,-56.5 63.5,-56.5"/>
<text text-anchor="middle" x="104" y="-63.5" font-family="Helvetica,sans-Serif" font-size="10.00">thrift/Vector3.h</text>
</a>
</g>
</g>
<!-- Node2&#45;&gt;Node5 -->
<g id="edge4" class="edge"><title>Node2&#45;&gt;Node5</title>
<path fill="none" stroke="midnightblue" d="M104,-112.083C104,-105.006 104,-94.8611 104,-85.9865"/>
<polygon fill="midnightblue" stroke="midnightblue" points="107.5,-85.751 104,-75.7511 100.5,-85.7511 107.5,-85.751"/>
</g>
<!-- Node5&#45;&gt;Node3 -->
<g id="edge5" class="edge"><title>Node5&#45;&gt;Node3</title>
<path fill="none" stroke="midnightblue" d="M93.7173,-56.324C84.1637,-48.2631 69.7203,-36.0765 58.2157,-26.3695"/>
<polygon fill="midnightblue" stroke="midnightblue" points="60.3698,-23.6076 50.4698,-19.8339 55.8557,-28.9577 60.3698,-23.6076"/>
</g>
<!-- Node5&#45;&gt;Node4 -->
<g id="edge6" class="edge"><title>Node5&#45;&gt;Node4</title>
<path fill="none" stroke="midnightblue" d="M114.283,-56.324C123.836,-48.2631 138.28,-36.0765 149.784,-26.3695"/>
<polygon fill="midnightblue" stroke="midnightblue" points="152.144,-28.9577 157.53,-19.8339 147.63,-23.6076 152.144,-28.9577"/>
</g>
</g>
</svg>
