<?xml version="1.0" encoding="UTF-8" standalone="no"?>
<!DOCTYPE svg PUBLIC "-//W3C//DTD SVG 1.1//EN"
 "http://www.w3.org/Graphics/SVG/1.1/DTD/svg11.dtd">
<!-- Generated by graphviz version 2.36.0 (20140111.2315)
 -->
<!-- Title: /home/travis/build/robotology/human&#45;dynamics&#45;estimation/human&#45;state&#45;provider/src/main.cpp Pages: 1 -->
<svg width="511pt" height="174pt"
 viewBox="0.00 0.00 511.00 174.00" xmlns="http://www.w3.org/2000/svg" xmlns:xlink="http://www.w3.org/1999/xlink">
<g id="graph0" class="graph" transform="scale(1 1) rotate(0) translate(4 170)">
<title>/home/travis/build/robotology/human&#45;dynamics&#45;estimation/human&#45;state&#45;provider/src/main.cpp</title>
<!-- Node1 -->
<g id="node1" class="node"><title>Node1</title>
<polygon fill="#bfbfbf" stroke="black" points="167,-113 167,-165 309,-165 309,-113 167,-113"/>
<text text-anchor="start" x="175" y="-153" font-family="Helvetica,sans-Serif" font-size="10.00">/home/travis/build</text>
<text text-anchor="start" x="175" y="-142" font-family="Helvetica,sans-Serif" font-size="10.00">/robotology/human&#45;dynamics</text>
<text text-anchor="start" x="175" y="-131" font-family="Helvetica,sans-Serif" font-size="10.00">&#45;estimation/human&#45;state</text>
<text text-anchor="middle" x="238" y="-120" font-family="Helvetica,sans-Serif" font-size="10.00">&#45;provider/src/main.cpp</text>
</g>
<!-- Node2 -->
<g id="node2" class="node"><title>Node2</title>
<polygon fill="none" stroke="#bfbfbf" points="-0.5,-56.5 -0.5,-75.5 106.5,-75.5 106.5,-56.5 -0.5,-56.5"/>
<text text-anchor="middle" x="53" y="-63.5" font-family="Helvetica,sans-Serif" font-size="10.00">yarp/os/LogStream.h</text>
</g>
<!-- Node1&#45;&gt;Node2 -->
<g id="edge1" class="edge"><title>Node1&#45;&gt;Node2</title>
<path fill="none" stroke="midnightblue" d="M172.776,-112.968C142.969,-101.529 109.013,-88.4969 84.886,-79.2373"/>
<polygon fill="midnightblue" stroke="midnightblue" points="86.0999,-75.9544 75.5098,-75.6389 83.5918,-82.4896 86.0999,-75.9544"/>
</g>
<!-- Node3 -->
<g id="node3" class="node"><title>Node3</title>
<polygon fill="none" stroke="#bfbfbf" points="124.5,-56.5 124.5,-75.5 221.5,-75.5 221.5,-56.5 124.5,-56.5"/>
<text text-anchor="middle" x="173" y="-63.5" font-family="Helvetica,sans-Serif" font-size="10.00">yarp/os/Network.h</text>
</g>
<!-- Node1&#45;&gt;Node3 -->
<g id="edge2" class="edge"><title>Node1&#45;&gt;Node3</title>
<path fill="none" stroke="midnightblue" d="M214.9,-112.768C205.941,-102.982 195.939,-92.0561 187.954,-83.3346"/>
<polygon fill="midnightblue" stroke="midnightblue" points="190.351,-80.7696 181.017,-75.7572 185.188,-85.4964 190.351,-80.7696"/>
</g>
<!-- Node4 -->
<g id="node4" class="node"><title>Node4</title>
<polygon fill="none" stroke="#bfbfbf" points="239.5,-56.5 239.5,-75.5 368.5,-75.5 368.5,-56.5 239.5,-56.5"/>
<text text-anchor="middle" x="304" y="-63.5" font-family="Helvetica,sans-Serif" font-size="10.00">yarp/os/ResourceFinder.h</text>
</g>
<!-- Node1&#45;&gt;Node4 -->
<g id="edge3" class="edge"><title>Node1&#45;&gt;Node4</title>
<path fill="none" stroke="midnightblue" d="M261.455,-112.768C270.552,-102.982 280.708,-92.0561 288.816,-83.3346"/>
<polygon fill="midnightblue" stroke="midnightblue" points="291.615,-85.4644 295.86,-75.7572 286.488,-80.6985 291.615,-85.4644"/>
</g>
<!-- Node5 -->
<g id="node5" class="node"><title>Node5</title>
<g id="a_node5"><a xlink:href="_human_state_provider_8h.html" target="_top" xlink:title="HumanStateProvider.h">
<polygon fill="none" stroke="black" points="387,-56.5 387,-75.5 503,-75.5 503,-56.5 387,-56.5"/>
<text text-anchor="middle" x="445" y="-63.5" font-family="Helvetica,sans-Serif" font-size="10.00">HumanStateProvider.h</text>
</a>
</g>
</g>
<!-- Node1&#45;&gt;Node5 -->
<g id="edge4" class="edge"><title>Node1&#45;&gt;Node5</title>
<path fill="none" stroke="midnightblue" d="M309.238,-113.566C343.401,-101.848 382.776,-88.3426 410.293,-78.9042"/>
<polygon fill="midnightblue" stroke="midnightblue" points="411.54,-82.1769 419.863,-75.6217 409.269,-75.5555 411.54,-82.1769"/>
</g>
<!-- Node6 -->
<g id="node6" class="node"><title>Node6</title>
<polygon fill="none" stroke="#bfbfbf" points="392.5,-0.5 392.5,-19.5 497.5,-19.5 497.5,-0.5 392.5,-0.5"/>
<text text-anchor="middle" x="445" y="-7.5" font-family="Helvetica,sans-Serif" font-size="10.00">yarp/os/RFModule.h</text>
</g>
<!-- Node5&#45;&gt;Node6 -->
<g id="edge5" class="edge"><title>Node5&#45;&gt;Node6</title>
<path fill="none" stroke="midnightblue" d="M445,-56.083C445,-49.0059 445,-38.8611 445,-29.9865"/>
<polygon fill="midnightblue" stroke="midnightblue" points="448.5,-29.751 445,-19.7511 441.5,-29.7511 448.5,-29.751"/>
</g>
</g>
</svg>
