<?xml version="1.0" encoding="UTF-8" standalone="no"?>
<!DOCTYPE svg PUBLIC "-//W3C//DTD SVG 1.1//EN"
 "http://www.w3.org/Graphics/SVG/1.1/DTD/svg11.dtd">
<!-- Generated by graphviz version 2.36.0 (20140111.2315)
 -->
<!-- Title: /home/travis/build/robotology/human&#45;dynamics&#45;estimation/build/human&#45;state&#45;provider/autogenerated/src/Quaternion.cpp Pages: 1 -->
<svg width="238pt" height="240pt"
 viewBox="0.00 0.00 238.00 240.00" xmlns="http://www.w3.org/2000/svg" xmlns:xlink="http://www.w3.org/1999/xlink">
<g id="graph0" class="graph" transform="scale(1 1) rotate(0) translate(4 236)">
<title>/home/travis/build/robotology/human&#45;dynamics&#45;estimation/build/human&#45;state&#45;provider/autogenerated/src/Quaternion.cpp</title>
<!-- Node1 -->
<g id="node1" class="node"><title>Node1</title>
<polygon fill="#bfbfbf" stroke="black" points="33.5,-168.5 33.5,-231.5 176.5,-231.5 176.5,-168.5 33.5,-168.5"/>
<text text-anchor="start" x="41.5" y="-219.5" font-family="Helvetica,sans-Serif" font-size="10.00">/home/travis/build</text>
<text text-anchor="start" x="41.5" y="-208.5" font-family="Helvetica,sans-Serif" font-size="10.00">/robotology/human&#45;dynamics</text>
<text text-anchor="start" x="41.5" y="-197.5" font-family="Helvetica,sans-Serif" font-size="10.00">&#45;estimation/build/human</text>
<text text-anchor="start" x="41.5" y="-186.5" font-family="Helvetica,sans-Serif" font-size="10.00">&#45;state&#45;provider/autogenerated</text>
<text text-anchor="middle" x="105" y="-175.5" font-family="Helvetica,sans-Serif" font-size="10.00">/src/Quaternion.cpp</text>
</g>
<!-- Node2 -->
<g id="node2" class="node"><title>Node2</title>
<g id="a_node2"><a xlink:href="human-state-provider_2autogenerated_2include_2thrifts_2_quaternion_8h.html" target="_top" xlink:title="thrifts/Quaternion.h">
<polygon fill="none" stroke="black" points="55,-112.5 55,-131.5 155,-131.5 155,-112.5 55,-112.5"/>
<text text-anchor="middle" x="105" y="-119.5" font-family="Helvetica,sans-Serif" font-size="10.00">thrifts/Quaternion.h</text>
</a>
</g>
</g>
<!-- Node1&#45;&gt;Node2 -->
<g id="edge1" class="edge"><title>Node1&#45;&gt;Node2</title>
<path fill="none" stroke="midnightblue" d="M105,-168.088C105,-159.15 105,-149.669 105,-141.719"/>
<polygon fill="midnightblue" stroke="midnightblue" points="108.5,-141.718 105,-131.718 101.5,-141.718 108.5,-141.718"/>
</g>
<!-- Node3 -->
<g id="node3" class="node"><title>Node3</title>
<polygon fill="none" stroke="#bfbfbf" points="0,-0.5 0,-19.5 80,-19.5 80,-0.5 0,-0.5"/>
<text text-anchor="middle" x="40" y="-7.5" font-family="Helvetica,sans-Serif" font-size="10.00">yarp/os/Wire.h</text>
</g>
<!-- Node2&#45;&gt;Node3 -->
<g id="edge2" class="edge"><title>Node2&#45;&gt;Node3</title>
<path fill="none" stroke="midnightblue" d="M90.273,-112.203C78.3169,-104.265 62.0133,-91.4747 53,-76 44.7643,-61.8604 41.6668,-43.3757 40.5404,-29.7345"/>
<polygon fill="midnightblue" stroke="midnightblue" points="44.028,-29.4113 39.9883,-19.6169 37.0384,-29.7928 44.028,-29.4113"/>
</g>
<!-- Node4 -->
<g id="node4" class="node"><title>Node4</title>
<polygon fill="none" stroke="#bfbfbf" points="110,-0.5 110,-19.5 230,-19.5 230,-0.5 110,-0.5"/>
<text text-anchor="middle" x="170" y="-7.5" font-family="Helvetica,sans-Serif" font-size="10.00">yarp/os/idl/WireTypes.h</text>
</g>
<!-- Node2&#45;&gt;Node4 -->
<g id="edge3" class="edge"><title>Node2&#45;&gt;Node4</title>
<path fill="none" stroke="midnightblue" d="M119.727,-112.203C131.683,-104.265 147.987,-91.4747 157,-76 165.236,-61.8604 168.333,-43.3757 169.46,-29.7345"/>
<polygon fill="midnightblue" stroke="midnightblue" points="172.962,-29.7928 170.012,-19.6169 165.972,-29.4113 172.962,-29.7928"/>
</g>
<!-- Node5 -->
<g id="node5" class="node"><title>Node5</title>
<g id="a_node5"><a xlink:href="human-state-provider_2autogenerated_2include_2thrifts_2_vector3_8h.html" target="_top" xlink:title="thrifts/Vector3.h">
<polygon fill="none" stroke="black" points="62,-56.5 62,-75.5 148,-75.5 148,-56.5 62,-56.5"/>
<text text-anchor="middle" x="105" y="-63.5" font-family="Helvetica,sans-Serif" font-size="10.00">thrifts/Vector3.h</text>
</a>
</g>
</g>
<!-- Node2&#45;&gt;Node5 -->
<g id="edge4" class="edge"><title>Node2&#45;&gt;Node5</title>
<path fill="none" stroke="midnightblue" d="M105,-112.083C105,-105.006 105,-94.8611 105,-85.9865"/>
<polygon fill="midnightblue" stroke="midnightblue" points="108.5,-85.751 105,-75.7511 101.5,-85.7511 108.5,-85.751"/>
</g>
<!-- Node5&#45;&gt;Node3 -->
<g id="edge5" class="edge"><title>Node5&#45;&gt;Node3</title>
<path fill="none" stroke="midnightblue" d="M94.5566,-56.324C84.8538,-48.2631 70.1847,-36.0765 58.5003,-26.3695"/>
<polygon fill="midnightblue" stroke="midnightblue" points="60.5619,-23.532 50.6334,-19.8339 56.0887,-28.9163 60.5619,-23.532"/>
</g>
<!-- Node5&#45;&gt;Node4 -->
<g id="edge6" class="edge"><title>Node5&#45;&gt;Node4</title>
<path fill="none" stroke="midnightblue" d="M115.443,-56.324C125.146,-48.2631 139.815,-36.0765 151.5,-26.3695"/>
<polygon fill="midnightblue" stroke="midnightblue" points="153.911,-28.9163 159.367,-19.8339 149.438,-23.532 153.911,-28.9163"/>
</g>
</g>
</svg>
