<?xml version="1.0" encoding="UTF-8" standalone="no"?>
<!DOCTYPE svg PUBLIC "-//W3C//DTD SVG 1.1//EN"
 "http://www.w3.org/Graphics/SVG/1.1/DTD/svg11.dtd">
<!-- Generated by graphviz version 2.36.0 (20140111.2315)
 -->
<!-- Title: /home/travis/build/robotology/human&#45;dynamics&#45;estimation/human&#45;dynamics&#45;estimator/src/main.cpp Pages: 1 -->
<!--zoomable 354 -->
<svg id="main" version="1.1" xmlns="http://www.w3.org/2000/svg" xmlns:xlink="http://www.w3.org/1999/xlink" xml:space="preserve" onload="init(evt)">
<style type="text/css"><![CDATA[
.edge:hover path { stroke: red; }
.edge:hover polygon { stroke: red; fill: red; }
]]></style>
<script type="text/javascript"><![CDATA[
var edges = document.getElementsByTagName('g');
if (edges && edges.length) {
  for (var i=0;i<edges.length;i++) {
    if (edges[i].id.substr(0,4)=='edge') {
      edges[i].setAttribute('class','edge');
    }
  }
}
]]></script>
        <defs>
                <circle id="rim" cx="0" cy="0" r="7"/>
                <circle id="rim2" cx="0" cy="0" r="3.5"/>
                <g id="zoomPlus">
                        <use xlink:href="#rim" fill="#404040">
                                <set attributeName="fill" to="#808080" begin="zoomplus.mouseover" end="zoomplus.mouseout"/>
                        </use>
                        <path d="M-4,0h8M0,-4v8" fill="none" stroke="white" stroke-width="1.5" pointer-events="none"/>
                </g>
                <g id="zoomMin">
                        <use xlink:href="#rim" fill="#404040">
                                <set attributeName="fill" to="#808080" begin="zoomminus.mouseover" end="zoomminus.mouseout"/>
                        </use>
                        <path d="M-4,0h8" fill="none" stroke="white" stroke-width="1.5" pointer-events="none"/>
                </g>
                <g id="dirArrow">
                        <path fill="none" stroke="white" stroke-width="1.5" d="M0,-3.0v7 M-2.5,-0.5L0,-3.0L2.5,-0.5"/>
                </g>
               <g id="resetDef">
                       <use xlink:href="#rim2" fill="#404040">
                               <set attributeName="fill" to="#808080" begin="reset.mouseover" end="reset.mouseout"/>
                       </use>
               </g>
        </defs>

<script type="text/javascript">
var viewWidth = 2264;
var viewHeight = 354;
var sectionId = 'dynsection-0';
</script>
<script xlink:href="svgpan.js"/>
<svg id="graph" class="graph">
<g id="viewport">
<title>/home/travis/build/robotology/human&#45;dynamics&#45;estimation/human&#45;dynamics&#45;estimator/src/main.cpp</title>
<!-- Node1 -->
<g id="node1" class="node"><title>Node1</title>
<polygon fill="#bfbfbf" stroke="black" points="1170.58,-293 1170.58,-345 1312.58,-345 1312.58,-293 1170.58,-293"/>
<text text-anchor="start" x="1178.58" y="-333" font-family="Helvetica,sans-Serif" font-size="10.00">/home/travis/build</text>
<text text-anchor="start" x="1178.58" y="-322" font-family="Helvetica,sans-Serif" font-size="10.00">/robotology/human&#45;dynamics</text>
<text text-anchor="start" x="1178.58" y="-311" font-family="Helvetica,sans-Serif" font-size="10.00">&#45;estimation/human&#45;dynamics</text>
<text text-anchor="middle" x="1241.58" y="-300" font-family="Helvetica,sans-Serif" font-size="10.00">&#45;estimator/src/main.cpp</text>
</g>
<!-- Node2 -->
<g id="node2" class="node"><title>Node2</title>
<polygon fill="none" stroke="#bfbfbf" points="1068.08,-236.5 1068.08,-255.5 1175.08,-255.5 1175.08,-236.5 1068.08,-236.5"/>
<text text-anchor="middle" x="1121.58" y="-243.5" font-family="Helvetica,sans-Serif" font-size="10.00">yarp/os/LogStream.h</text>
</g>
<!-- Node1&#45;&gt;Node2 -->
<g id="edge1" class="edge"><title>Node1&#45;&gt;Node2</title>
<path fill="none" stroke="midnightblue" d="M1199.28,-292.968C1181.06,-282.19 1160.45,-269.997 1145.04,-260.879"/>
<polygon fill="midnightblue" stroke="midnightblue" points="1146.57,-257.719 1136.18,-255.639 1143.01,-263.743 1146.57,-257.719"/>
</g>
<!-- Node3 -->
<g id="node3" class="node"><title>Node3</title>
<polygon fill="none" stroke="#bfbfbf" points="1193.08,-236.5 1193.08,-255.5 1290.08,-255.5 1290.08,-236.5 1193.08,-236.5"/>
<text text-anchor="middle" x="1241.58" y="-243.5" font-family="Helvetica,sans-Serif" font-size="10.00">yarp/os/Network.h</text>
</g>
<!-- Node1&#45;&gt;Node3 -->
<g id="edge2" class="edge"><title>Node1&#45;&gt;Node3</title>
<path fill="none" stroke="midnightblue" d="M1241.58,-292.768C1241.58,-283.89 1241.58,-274.074 1241.58,-265.816"/>
<polygon fill="midnightblue" stroke="midnightblue" points="1245.08,-265.757 1241.58,-255.757 1238.08,-265.757 1245.08,-265.757"/>
</g>
<!-- Node4 -->
<g id="node4" class="node"><title>Node4</title>
<g id="a_node4"><a xlink:href="_human_dynamics_estimator_8h.html" target="_top" xlink:title="HumanDynamicsEstimator.h">
<polygon fill="none" stroke="black" points="1308.08,-236.5 1308.08,-255.5 1451.08,-255.5 1451.08,-236.5 1308.08,-236.5"/>
<text text-anchor="middle" x="1379.58" y="-243.5" font-family="Helvetica,sans-Serif" font-size="10.00">HumanDynamicsEstimator.h</text>
</a>
</g>
</g>
<!-- Node1&#45;&gt;Node4 -->
<g id="edge3" class="edge"><title>Node1&#45;&gt;Node4</title>
<path fill="none" stroke="midnightblue" d="M1290.24,-292.968C1311.58,-281.986 1335.78,-269.537 1353.6,-260.366"/>
<polygon fill="midnightblue" stroke="midnightblue" points="1355.5,-263.326 1362.79,-255.639 1352.3,-257.102 1355.5,-263.326"/>
</g>
<!-- Node5 -->
<g id="node5" class="node"><title>Node5</title>
<g id="a_node5"><a xlink:href="autogenerated_2include_2thrifts_2_human_dynamics_8h.html" target="_top" xlink:title="thrifts/HumanDynamics.h">
<polygon fill="none" stroke="black" points="255.583,-112.5 255.583,-131.5 383.583,-131.5 383.583,-112.5 255.583,-112.5"/>
<text text-anchor="middle" x="319.583" y="-119.5" font-family="Helvetica,sans-Serif" font-size="10.00">thrifts/HumanDynamics.h</text>
</a>
</g>
</g>
<!-- Node4&#45;&gt;Node5 -->
<g id="edge4" class="edge"><title>Node4&#45;&gt;Node5</title>
<path fill="none" stroke="midnightblue" d="M1308.05,-236.798C1304.85,-236.511 1301.69,-236.243 1298.58,-236 1124.71,-222.363 685.122,-236.524 514.583,-200 451.145,-186.414 381.514,-154.419 345.068,-136.236"/>
<polygon fill="midnightblue" stroke="midnightblue" points="346.204,-132.889 335.7,-131.5 343.046,-139.136 346.204,-132.889"/>
</g>
<!-- Node9 -->
<g id="node9" class="node"><title>Node9</title>
<polygon fill="none" stroke="#bfbfbf" points="0.0832366,-0.5 0.0832366,-19.5 91.0832,-19.5 91.0832,-0.5 0.0832366,-0.5"/>
<text text-anchor="middle" x="45.5832" y="-7.5" font-family="Helvetica,sans-Serif" font-size="10.00">yarp/sig/Vector.h</text>
</g>
<!-- Node4&#45;&gt;Node9 -->
<g id="edge38" class="edge"><title>Node4&#45;&gt;Node9</title>
<path fill="none" stroke="midnightblue" d="M1308.06,-236.778C1304.86,-236.497 1301.69,-236.235 1298.58,-236 906.051,-206.246 804.571,-245.775 413.583,-200 256.627,-181.625 205.937,-202.653 64.5832,-132 31.3694,-115.399 17.6597,-109.933 2.58324,-76 -5.57497,-57.6379 10.2007,-38.7068 24.8884,-26.0455"/>
<polygon fill="midnightblue" stroke="midnightblue" points="27.179,-28.6949 32.7774,-19.7 22.7916,-23.2404 27.179,-28.6949"/>
</g>
<!-- Node11 -->
<g id="node11" class="node"><title>Node11</title>
<g id="a_node11"><a xlink:href="autogenerated_2include_2thrifts_2_human_state_8h.html" target="_top" xlink:title="thrifts/HumanState.h">
<polygon fill="none" stroke="black" points="534.083,-174.5 534.083,-193.5 641.083,-193.5 641.083,-174.5 534.083,-174.5"/>
<text text-anchor="middle" x="587.583" y="-181.5" font-family="Helvetica,sans-Serif" font-size="10.00">thrifts/HumanState.h</text>
</a>
</g>
</g>
<!-- Node4&#45;&gt;Node11 -->
<g id="edge15" class="edge"><title>Node4&#45;&gt;Node11</title>
<path fill="none" stroke="midnightblue" d="M1308.05,-236.835C1304.85,-236.538 1301.69,-236.258 1298.58,-236 1010.69,-212.04 935.381,-242.14 649.583,-200 642.59,-198.969 635.23,-197.519 628.121,-195.924"/>
<polygon fill="midnightblue" stroke="midnightblue" points="628.494,-192.416 617.956,-193.515 626.879,-199.227 628.494,-192.416"/>
</g>
<!-- Node14 -->
<g id="node14" class="node"><title>Node14</title>
<g id="a_node14"><a xlink:href="autogenerated_2include_2thrifts_2_human_forces_8h.html" target="_top" xlink:title="thrifts/HumanForces.h">
<polygon fill="none" stroke="black" points="495.583,-112.5 495.583,-131.5 609.583,-131.5 609.583,-112.5 495.583,-112.5"/>
<text text-anchor="middle" x="552.583" y="-119.5" font-family="Helvetica,sans-Serif" font-size="10.00">thrifts/HumanForces.h</text>
</a>
</g>
</g>
<!-- Node4&#45;&gt;Node14 -->
<g id="edge26" class="edge"><title>Node4&#45;&gt;Node14</title>
<path fill="none" stroke="midnightblue" d="M1308.05,-236.8C1304.85,-236.513 1301.69,-236.244 1298.58,-236 1255.67,-232.621 554.306,-231.138 524.583,-200 508.608,-183.265 524.235,-156.713 537.756,-139.573"/>
<polygon fill="midnightblue" stroke="midnightblue" points="540.721,-141.485 544.456,-131.571 535.353,-136.991 540.721,-141.485"/>
</g>
<!-- Node16 -->
<g id="node16" class="node"><title>Node16</title>
<polygon fill="none" stroke="#bfbfbf" points="659.083,-174.5 659.083,-193.5 808.083,-193.5 808.083,-174.5 659.083,-174.5"/>
<text text-anchor="middle" x="733.583" y="-181.5" font-family="Helvetica,sans-Serif" font-size="10.00">iDynTree/Core/SparseMatrix.h</text>
</g>
<!-- Node4&#45;&gt;Node16 -->
<g id="edge32" class="edge"><title>Node4&#45;&gt;Node16</title>
<path fill="none" stroke="midnightblue" d="M1308.04,-236.909C1304.85,-236.593 1301.68,-236.288 1298.58,-236 1084.68,-216.135 1029.68,-227.139 816.583,-200 806.669,-198.737 796.142,-197.082 786.034,-195.333"/>
<polygon fill="midnightblue" stroke="midnightblue" points="786.561,-191.872 776.102,-193.563 785.334,-198.763 786.561,-191.872"/>
</g>
<!-- Node17 -->
<g id="node17" class="node"><title>Node17</title>
<polygon fill="none" stroke="#bfbfbf" points="825.583,-169 825.583,-199 931.583,-199 931.583,-169 825.583,-169"/>
<text text-anchor="start" x="833.583" y="-187" font-family="Helvetica,sans-Serif" font-size="10.00">iDynTree/Estimation</text>
<text text-anchor="middle" x="878.583" y="-176" font-family="Helvetica,sans-Serif" font-size="10.00">/BerdyHelper.h</text>
</g>
<!-- Node4&#45;&gt;Node17 -->
<g id="edge33" class="edge"><title>Node4&#45;&gt;Node17</title>
<path fill="none" stroke="midnightblue" d="M1308.03,-237.009C1304.84,-236.665 1301.68,-236.328 1298.58,-236 1142.82,-219.515 1099.97,-226.56 941.68,-200.039"/>
<polygon fill="midnightblue" stroke="midnightblue" points="942.028,-196.548 931.584,-198.329 940.859,-203.45 942.028,-196.548"/>
</g>
<!-- Node18 -->
<g id="node18" class="node"><title>Node18</title>
<polygon fill="none" stroke="#bfbfbf" points="950.083,-174.5 950.083,-193.5 1111.08,-193.5 1111.08,-174.5 950.083,-174.5"/>
<text text-anchor="middle" x="1030.58" y="-181.5" font-family="Helvetica,sans-Serif" font-size="10.00">iDynTree/KinDynComputations.h</text>
</g>
<!-- Node4&#45;&gt;Node18 -->
<g id="edge34" class="edge"><title>Node4&#45;&gt;Node18</title>
<path fill="none" stroke="midnightblue" d="M1329.95,-236.467C1266.76,-225.604 1157.71,-206.855 1090.11,-195.235"/>
<polygon fill="midnightblue" stroke="midnightblue" points="1090.49,-191.748 1080.04,-193.503 1089.31,-198.647 1090.49,-191.748"/>
</g>
<!-- Node19 -->
<g id="node19" class="node"><title>Node19</title>
<polygon fill="none" stroke="#bfbfbf" points="1129.08,-174.5 1129.08,-193.5 1240.08,-193.5 1240.08,-174.5 1129.08,-174.5"/>
<text text-anchor="middle" x="1184.58" y="-181.5" font-family="Helvetica,sans-Serif" font-size="10.00">yarp/dev/PolyDriver.h</text>
</g>
<!-- Node4&#45;&gt;Node19 -->
<g id="edge35" class="edge"><title>Node4&#45;&gt;Node19</title>
<path fill="none" stroke="midnightblue" d="M1351.64,-236.403C1317.62,-225.933 1260,-208.205 1222.12,-196.55"/>
<polygon fill="midnightblue" stroke="midnightblue" points="1223.06,-193.176 1212.47,-193.581 1221,-199.867 1223.06,-193.176"/>
</g>
<!-- Node20 -->
<g id="node20" class="node"><title>Node20</title>
<polygon fill="none" stroke="#bfbfbf" points="1258.08,-174.5 1258.08,-193.5 1373.08,-193.5 1373.08,-174.5 1258.08,-174.5"/>
<text text-anchor="middle" x="1315.58" y="-181.5" font-family="Helvetica,sans-Serif" font-size="10.00">yarp/os/BufferedPort.h</text>
</g>
<!-- Node4&#45;&gt;Node20 -->
<g id="edge36" class="edge"><title>Node4&#45;&gt;Node20</title>
<path fill="none" stroke="midnightblue" d="M1370.41,-236.403C1360.43,-227.047 1344.27,-211.895 1332.07,-200.46"/>
<polygon fill="midnightblue" stroke="midnightblue" points="1334.43,-197.867 1324.74,-193.581 1329.64,-202.973 1334.43,-197.867"/>
</g>
<!-- Node21 -->
<g id="node21" class="node"><title>Node21</title>
<polygon fill="none" stroke="#bfbfbf" points="1391.08,-174.5 1391.08,-193.5 1496.08,-193.5 1496.08,-174.5 1391.08,-174.5"/>
<text text-anchor="middle" x="1443.58" y="-181.5" font-family="Helvetica,sans-Serif" font-size="10.00">yarp/os/RFModule.h</text>
</g>
<!-- Node4&#45;&gt;Node21 -->
<g id="edge37" class="edge"><title>Node4&#45;&gt;Node21</title>
<path fill="none" stroke="midnightblue" d="M1388.75,-236.403C1398.73,-227.047 1414.9,-211.895 1427.09,-200.46"/>
<polygon fill="midnightblue" stroke="midnightblue" points="1429.53,-202.973 1434.43,-193.581 1424.74,-197.867 1429.53,-202.973"/>
</g>
<!-- Node22 -->
<g id="node22" class="node"><title>Node22</title>
<polygon fill="none" stroke="#bfbfbf" points="1514.08,-174.5 1514.08,-193.5 1579.08,-193.5 1579.08,-174.5 1514.08,-174.5"/>
<text text-anchor="middle" x="1546.58" y="-181.5" font-family="Helvetica,sans-Serif" font-size="10.00">Eigen/Core</text>
</g>
<!-- Node4&#45;&gt;Node22 -->
<g id="edge39" class="edge"><title>Node4&#45;&gt;Node22</title>
<path fill="none" stroke="midnightblue" d="M1403.51,-236.403C1432.28,-226.067 1480.74,-208.656 1513.18,-196.999"/>
<polygon fill="midnightblue" stroke="midnightblue" points="1514.47,-200.256 1522.7,-193.581 1512.11,-193.668 1514.47,-200.256"/>
</g>
<!-- Node23 -->
<g id="node23" class="node"><title>Node23</title>
<polygon fill="none" stroke="#bfbfbf" points="1597.08,-174.5 1597.08,-193.5 1670.08,-193.5 1670.08,-174.5 1597.08,-174.5"/>
<text text-anchor="middle" x="1633.58" y="-181.5" font-family="Helvetica,sans-Serif" font-size="10.00">Eigen/Dense</text>
</g>
<!-- Node4&#45;&gt;Node23 -->
<g id="edge40" class="edge"><title>Node4&#45;&gt;Node23</title>
<path fill="none" stroke="midnightblue" d="M1425.35,-236.495C1467.71,-228.294 1532.3,-214.951 1587.58,-200 1591.4,-198.969 1595.36,-197.81 1599.29,-196.605"/>
<polygon fill="midnightblue" stroke="midnightblue" points="1600.42,-199.921 1608.89,-193.564 1598.3,-193.247 1600.42,-199.921"/>
</g>
<!-- Node24 -->
<g id="node24" class="node"><title>Node24</title>
<polygon fill="none" stroke="#bfbfbf" points="1688.58,-174.5 1688.58,-193.5 1784.58,-193.5 1784.58,-174.5 1688.58,-174.5"/>
<text text-anchor="middle" x="1736.58" y="-181.5" font-family="Helvetica,sans-Serif" font-size="10.00">Eigen/SparseCore</text>
</g>
<!-- Node4&#45;&gt;Node24 -->
<g id="edge41" class="edge"><title>Node4&#45;&gt;Node24</title>
<path fill="none" stroke="midnightblue" d="M1450.02,-236.495C1510.85,-228.653 1600.92,-215.843 1678.58,-200 1684.33,-198.828 1690.36,-197.445 1696.26,-196"/>
<polygon fill="midnightblue" stroke="midnightblue" points="1697.18,-199.379 1706.02,-193.538 1695.47,-192.592 1697.18,-199.379"/>
</g>
<!-- Node25 -->
<g id="node25" class="node"><title>Node25</title>
<polygon fill="none" stroke="#bfbfbf" points="1802.58,-174.5 1802.58,-193.5 1918.58,-193.5 1918.58,-174.5 1802.58,-174.5"/>
<text text-anchor="middle" x="1860.58" y="-181.5" font-family="Helvetica,sans-Serif" font-size="10.00">Eigen/SparseCholesky</text>
</g>
<!-- Node4&#45;&gt;Node25 -->
<g id="edge42" class="edge"><title>Node4&#45;&gt;Node25</title>
<path fill="none" stroke="midnightblue" d="M1451.34,-239.654C1534.16,-232.917 1674.29,-219.773 1793.58,-200 1800.86,-198.794 1808.53,-197.295 1815.99,-195.714"/>
<polygon fill="midnightblue" stroke="midnightblue" points="1816.94,-199.089 1825.95,-193.529 1815.44,-192.252 1816.94,-199.089"/>
</g>
<!-- Node26 -->
<g id="node26" class="node"><title>Node26</title>
<polygon fill="none" stroke="#bfbfbf" points="1936.58,-174.5 1936.58,-193.5 2024.58,-193.5 2024.58,-174.5 1936.58,-174.5"/>
<text text-anchor="middle" x="1980.58" y="-181.5" font-family="Helvetica,sans-Serif" font-size="10.00">Eigen/SparseLU</text>
</g>
<!-- Node4&#45;&gt;Node26 -->
<g id="edge43" class="edge"><title>Node4&#45;&gt;Node26</title>
<path fill="none" stroke="midnightblue" d="M1451.38,-243.406C1556.46,-240.102 1757.97,-230.076 1926.58,-200 1932.15,-199.007 1937.97,-197.691 1943.65,-196.251"/>
<polygon fill="midnightblue" stroke="midnightblue" points="1944.87,-199.547 1953.62,-193.567 1943.05,-192.787 1944.87,-199.547"/>
</g>
<!-- Node27 -->
<g id="node27" class="node"><title>Node27</title>
<polygon fill="none" stroke="#bfbfbf" points="2043.08,-174.5 2043.08,-193.5 2102.08,-193.5 2102.08,-174.5 2043.08,-174.5"/>
<text text-anchor="middle" x="2072.58" y="-181.5" font-family="Helvetica,sans-Serif" font-size="10.00">functional</text>
</g>
<!-- Node4&#45;&gt;Node27 -->
<g id="edge44" class="edge"><title>Node4&#45;&gt;Node27</title>
<path fill="none" stroke="midnightblue" d="M1451.33,-242.676C1597.13,-237.524 1923.48,-223.688 2032.58,-200 2036.1,-199.237 2039.71,-198.226 2043.27,-197.087"/>
<polygon fill="midnightblue" stroke="midnightblue" points="2044.73,-200.282 2052.99,-193.641 2042.39,-193.684 2044.73,-200.282"/>
</g>
<!-- Node28 -->
<g id="node28" class="node"><title>Node28</title>
<polygon fill="none" stroke="#bfbfbf" points="2120.08,-174.5 2120.08,-193.5 2203.08,-193.5 2203.08,-174.5 2120.08,-174.5"/>
<text text-anchor="middle" x="2161.58" y="-181.5" font-family="Helvetica,sans-Serif" font-size="10.00">unordered_map</text>
</g>
<!-- Node4&#45;&gt;Node28 -->
<g id="edge45" class="edge"><title>Node4&#45;&gt;Node28</title>
<path fill="none" stroke="midnightblue" d="M1451.29,-245.893C1582.96,-246.36 1871.7,-241.933 2110.58,-200 2115.85,-199.076 2121.34,-197.803 2126.68,-196.386"/>
<polygon fill="midnightblue" stroke="midnightblue" points="2128.03,-199.642 2136.69,-193.537 2126.11,-192.91 2128.03,-199.642"/>
</g>
<!-- Node29 -->
<g id="node29" class="node"><title>Node29</title>
<polygon fill="none" stroke="#bfbfbf" points="2221.08,-174.5 2221.08,-193.5 2256.08,-193.5 2256.08,-174.5 2221.08,-174.5"/>
<text text-anchor="middle" x="2238.58" y="-181.5" font-family="Helvetica,sans-Serif" font-size="10.00">map</text>
</g>
<!-- Node4&#45;&gt;Node29 -->
<g id="edge46" class="edge"><title>Node4&#45;&gt;Node29</title>
<path fill="none" stroke="midnightblue" d="M1451.39,-245.241C1626.2,-245.168 2069.89,-240.831 2211.58,-200 2213.28,-199.51 2214.99,-198.897 2216.68,-198.201"/>
<polygon fill="midnightblue" stroke="midnightblue" points="2218.54,-201.185 2225.92,-193.583 2215.41,-194.924 2218.54,-201.185"/>
</g>
<!-- Node6 -->
<g id="node6" class="node"><title>Node6</title>
<polygon fill="none" stroke="#bfbfbf" points="408.583,-0.5 408.583,-19.5 488.583,-19.5 488.583,-0.5 408.583,-0.5"/>
<text text-anchor="middle" x="448.583" y="-7.5" font-family="Helvetica,sans-Serif" font-size="10.00">yarp/os/Wire.h</text>
</g>
<!-- Node5&#45;&gt;Node6 -->
<g id="edge5" class="edge"><title>Node5&#45;&gt;Node6</title>
<path fill="none" stroke="midnightblue" d="M288.309,-112.484C254.415,-101.724 207.775,-81.4949 228.583,-56 249.57,-30.2859 339.97,-18.8702 398.158,-14.1083"/>
<polygon fill="midnightblue" stroke="midnightblue" points="398.571,-17.5868 408.269,-13.3208 398.027,-10.608 398.571,-17.5868"/>
</g>
<!-- Node7 -->
<g id="node7" class="node"><title>Node7</title>
<polygon fill="none" stroke="#bfbfbf" points="554.583,-0.5 554.583,-19.5 674.583,-19.5 674.583,-0.5 554.583,-0.5"/>
<text text-anchor="middle" x="614.583" y="-7.5" font-family="Helvetica,sans-Serif" font-size="10.00">yarp/os/idl/WireTypes.h</text>
</g>
<!-- Node5&#45;&gt;Node7 -->
<g id="edge6" class="edge"><title>Node5&#45;&gt;Node7</title>
<path fill="none" stroke="midnightblue" d="M342.731,-112.368C394.969,-92.89 522.117,-45.479 582.163,-23.089"/>
<polygon fill="midnightblue" stroke="midnightblue" points="583.396,-26.3647 591.543,-19.5914 580.95,-19.8059 583.396,-26.3647"/>
</g>
<!-- Node8 -->
<g id="node8" class="node"><title>Node8</title>
<g id="a_node8"><a xlink:href="autogenerated_2include_2thrifts_2_joint_dynamics_estimation_8h.html" target="_top" xlink:title="thrifts/JointDynamicsEstimation.h">
<polygon fill="none" stroke="black" points="237.583,-56.5 237.583,-75.5 401.583,-75.5 401.583,-56.5 237.583,-56.5"/>
<text text-anchor="middle" x="319.583" y="-63.5" font-family="Helvetica,sans-Serif" font-size="10.00">thrifts/JointDynamicsEstimation.h</text>
</a>
</g>
</g>
<!-- Node5&#45;&gt;Node8 -->
<g id="edge7" class="edge"><title>Node5&#45;&gt;Node8</title>
<path fill="none" stroke="midnightblue" d="M319.583,-112.083C319.583,-105.006 319.583,-94.8611 319.583,-85.9865"/>
<polygon fill="midnightblue" stroke="midnightblue" points="323.083,-85.751 319.583,-75.7511 316.083,-85.7511 323.083,-85.751"/>
</g>
<!-- Node10 -->
<g id="node10" class="node"><title>Node10</title>
<g id="a_node10"><a xlink:href="autogenerated_2include_2thrifts_2_link_dynamics_estimation_8h.html" target="_top" xlink:title="thrifts/LinkDynamicsEstimation.h">
<polygon fill="none" stroke="black" points="20.0832,-56.5 20.0832,-75.5 181.083,-75.5 181.083,-56.5 20.0832,-56.5"/>
<text text-anchor="middle" x="100.583" y="-63.5" font-family="Helvetica,sans-Serif" font-size="10.00">thrifts/LinkDynamicsEstimation.h</text>
</a>
</g>
</g>
<!-- Node5&#45;&gt;Node10 -->
<g id="edge11" class="edge"><title>Node5&#45;&gt;Node10</title>
<path fill="none" stroke="midnightblue" d="M284.882,-112.444C246.998,-103.102 186.234,-88.1194 144.921,-77.9326"/>
<polygon fill="midnightblue" stroke="midnightblue" points="145.669,-74.5123 135.122,-75.5164 143.993,-81.3088 145.669,-74.5123"/>
</g>
<!-- Node8&#45;&gt;Node6 -->
<g id="edge8" class="edge"><title>Node8&#45;&gt;Node6</title>
<path fill="none" stroke="midnightblue" d="M340.024,-56.4435C361.254,-47.5566 394.682,-33.5632 418.838,-23.4514"/>
<polygon fill="midnightblue" stroke="midnightblue" points="420.366,-26.6064 428.238,-19.5164 417.663,-20.1493 420.366,-26.6064"/>
</g>
<!-- Node8&#45;&gt;Node7 -->
<g id="edge9" class="edge"><title>Node8&#45;&gt;Node7</title>
<path fill="none" stroke="midnightblue" d="M366.327,-56.4435C418.328,-46.9246 502.335,-31.5472 558.007,-21.3563"/>
<polygon fill="midnightblue" stroke="midnightblue" points="558.852,-24.7599 568.058,-19.5164 557.592,-17.8743 558.852,-24.7599"/>
</g>
<!-- Node8&#45;&gt;Node9 -->
<g id="edge10" class="edge"><title>Node8&#45;&gt;Node9</title>
<path fill="none" stroke="midnightblue" d="M276.167,-56.4435C228.068,-46.9641 150.488,-31.6747 98.7771,-21.4835"/>
<polygon fill="midnightblue" stroke="midnightblue" points="99.2843,-18.0162 88.7962,-19.5164 97.9307,-24.8841 99.2843,-18.0162"/>
</g>
<!-- Node10&#45;&gt;Node6 -->
<g id="edge12" class="edge"><title>Node10&#45;&gt;Node6</title>
<path fill="none" stroke="midnightblue" d="M155.725,-56.4435C222.49,-46.0834 333.977,-28.7837 398.421,-18.7838"/>
<polygon fill="midnightblue" stroke="midnightblue" points="399.001,-22.2358 408.346,-17.2437 397.927,-15.3186 399.001,-22.2358"/>
</g>
<!-- Node10&#45;&gt;Node7 -->
<g id="edge13" class="edge"><title>Node10&#45;&gt;Node7</title>
<path fill="none" stroke="midnightblue" d="M181.178,-56.5328C281.086,-46.0367 449.726,-28.3196 544.502,-18.3627"/>
<polygon fill="midnightblue" stroke="midnightblue" points="544.981,-21.8317 554.56,-17.3059 544.249,-14.87 544.981,-21.8317"/>
</g>
<!-- Node10&#45;&gt;Node9 -->
<g id="edge14" class="edge"><title>Node10&#45;&gt;Node9</title>
<path fill="none" stroke="midnightblue" d="M91.5011,-56.083C83.4119,-48.1409 71.3878,-36.3354 61.6731,-26.7973"/>
<polygon fill="midnightblue" stroke="midnightblue" points="64.0841,-24.2595 54.4964,-19.7511 59.18,-29.2545 64.0841,-24.2595"/>
</g>
<!-- Node11&#45;&gt;Node6 -->
<g id="edge16" class="edge"><title>Node11&#45;&gt;Node6</title>
<path fill="none" stroke="midnightblue" d="M556.544,-174.48C534.144,-166.82 504.76,-153.417 486.583,-132 461.378,-102.302 452.862,-55.8671 450.006,-30.0089"/>
<polygon fill="midnightblue" stroke="midnightblue" points="453.459,-29.3448 449.052,-19.7101 446.489,-29.9903 453.459,-29.3448"/>
</g>
<!-- Node11&#45;&gt;Node7 -->
<g id="edge17" class="edge"><title>Node11&#45;&gt;Node7</title>
<path fill="none" stroke="midnightblue" d="M622.648,-174.43C631.437,-172.306 640.851,-170.051 649.583,-168 719.697,-151.532 754.888,-181.095 807.583,-132 826.614,-114.269 820.764,-101.729 824.583,-76 825.888,-67.2075 830.171,-62.9126 824.583,-56 807.131,-34.412 738.934,-22.713 684.928,-16.7028"/>
<polygon fill="midnightblue" stroke="midnightblue" points="684.995,-13.1902 674.68,-15.6105 684.253,-20.1507 684.995,-13.1902"/>
</g>
<!-- Node11&#45;&gt;Node9 -->
<g id="edge25" class="edge"><title>Node11&#45;&gt;Node9</title>
<path fill="none" stroke="midnightblue" d="M533.811,-181.64C403.164,-177.065 75.0266,-157.524 10.5832,-76 -1.62193,-60.5598 13.4094,-40.2547 27.3931,-26.477"/>
<polygon fill="midnightblue" stroke="midnightblue" points="29.9034,-28.9229 34.8744,-19.5666 25.1537,-23.7808 29.9034,-28.9229"/>
</g>
<!-- Node12 -->
<g id="node12" class="node"><title>Node12</title>
<g id="a_node12"><a xlink:href="human-state-provider_2autogenerated_2include_2thrifts_2_quaternion_8h.html" target="_top" xlink:title="thrifts/Quaternion.h">
<polygon fill="none" stroke="black" points="698.583,-112.5 698.583,-131.5 798.583,-131.5 798.583,-112.5 698.583,-112.5"/>
<text text-anchor="middle" x="748.583" y="-119.5" font-family="Helvetica,sans-Serif" font-size="10.00">thrifts/Quaternion.h</text>
</a>
</g>
</g>
<!-- Node11&#45;&gt;Node12 -->
<g id="edge18" class="edge"><title>Node11&#45;&gt;Node12</title>
<path fill="none" stroke="midnightblue" d="M610.651,-174.403C638.268,-164.111 684.703,-146.806 715.98,-135.15"/>
<polygon fill="midnightblue" stroke="midnightblue" points="717.41,-138.352 725.559,-131.581 714.966,-131.793 717.41,-138.352"/>
</g>
<!-- Node13 -->
<g id="node13" class="node"><title>Node13</title>
<g id="a_node13"><a xlink:href="human-state-provider_2autogenerated_2include_2thrifts_2_vector3_8h.html" target="_top" xlink:title="thrifts/Vector3.h">
<polygon fill="none" stroke="black" points="679.583,-56.5 679.583,-75.5 765.583,-75.5 765.583,-56.5 679.583,-56.5"/>
<text text-anchor="middle" x="722.583" y="-63.5" font-family="Helvetica,sans-Serif" font-size="10.00">thrifts/Vector3.h</text>
</a>
</g>
</g>
<!-- Node11&#45;&gt;Node13 -->
<g id="edge24" class="edge"><title>Node11&#45;&gt;Node13</title>
<path fill="none" stroke="midnightblue" d="M597.73,-174.281C620.613,-154.619 676.462,-106.63 705.068,-82.0498"/>
<polygon fill="midnightblue" stroke="midnightblue" points="707.382,-84.6766 712.685,-75.5048 702.82,-79.3673 707.382,-84.6766"/>
</g>
<!-- Node12&#45;&gt;Node6 -->
<g id="edge19" class="edge"><title>Node12&#45;&gt;Node6</title>
<path fill="none" stroke="midnightblue" d="M757.083,-112.468C769.416,-99.0628 789.276,-72.8598 774.583,-56 765.613,-45.7065 588.228,-25.6905 498.975,-16.2142"/>
<polygon fill="midnightblue" stroke="midnightblue" points="499.116,-12.7098 488.803,-15.1395 498.38,-19.671 499.116,-12.7098"/>
</g>
<!-- Node12&#45;&gt;Node7 -->
<g id="edge20" class="edge"><title>Node12&#45;&gt;Node7</title>
<path fill="none" stroke="midnightblue" d="M766.374,-112.492C789.336,-100.373 824.447,-77.2487 807.583,-56 792.257,-36.6898 733.61,-24.8975 684.946,-18.2573"/>
<polygon fill="midnightblue" stroke="midnightblue" points="685.103,-14.748 674.733,-16.9177 684.193,-21.6885 685.103,-14.748"/>
</g>
<!-- Node12&#45;&gt;Node13 -->
<g id="edge21" class="edge"><title>Node12&#45;&gt;Node13</title>
<path fill="none" stroke="midnightblue" d="M744.29,-112.083C740.731,-104.691 735.561,-93.9533 731.159,-84.8111"/>
<polygon fill="midnightblue" stroke="midnightblue" points="734.288,-83.2427 726.797,-75.7511 727.981,-86.2795 734.288,-83.2427"/>
</g>
<!-- Node13&#45;&gt;Node6 -->
<g id="edge22" class="edge"><title>Node13&#45;&gt;Node6</title>
<path fill="none" stroke="midnightblue" d="M679.469,-56.5031C630.442,-46.8408 550.507,-31.0872 498.733,-20.8835"/>
<polygon fill="midnightblue" stroke="midnightblue" points="499.259,-17.4199 488.771,-18.9202 497.905,-24.2878 499.259,-17.4199"/>
</g>
<!-- Node13&#45;&gt;Node7 -->
<g id="edge23" class="edge"><title>Node13&#45;&gt;Node7</title>
<path fill="none" stroke="midnightblue" d="M705.231,-56.324C687.911,-47.6641 661.068,-34.2424 641.081,-24.249"/>
<polygon fill="midnightblue" stroke="midnightblue" points="642.402,-20.9962 631.892,-19.6545 639.271,-27.2572 642.402,-20.9962"/>
</g>
<!-- Node14&#45;&gt;Node6 -->
<g id="edge27" class="edge"><title>Node14&#45;&gt;Node6</title>
<path fill="none" stroke="midnightblue" d="M544.423,-112.368C527.032,-93.9744 486.091,-50.6712 463.76,-27.0519"/>
<polygon fill="midnightblue" stroke="midnightblue" points="466.119,-24.4534 456.706,-19.5914 461.033,-29.2625 466.119,-24.4534"/>
</g>
<!-- Node14&#45;&gt;Node7 -->
<g id="edge28" class="edge"><title>Node14&#45;&gt;Node7</title>
<path fill="none" stroke="midnightblue" d="M582.831,-112.488C600.708,-105.726 621.884,-94.2949 632.583,-76 641.241,-61.197 634.102,-42.058 626.406,-28.3888"/>
<polygon fill="midnightblue" stroke="midnightblue" points="629.166,-26.1978 620.923,-19.5424 623.217,-29.8859 629.166,-26.1978"/>
</g>
<!-- Node15 -->
<g id="node15" class="node"><title>Node15</title>
<g id="a_node15"><a xlink:href="autogenerated_2include_2thrifts_2_force6_d_8h.html" target="_top" xlink:title="thrifts/Force6D.h">
<polygon fill="none" stroke="black" points="533.583,-56.5 533.583,-75.5 623.583,-75.5 623.583,-56.5 533.583,-56.5"/>
<text text-anchor="middle" x="578.583" y="-63.5" font-family="Helvetica,sans-Serif" font-size="10.00">thrifts/Force6D.h</text>
</a>
</g>
</g>
<!-- Node14&#45;&gt;Node15 -->
<g id="edge29" class="edge"><title>Node14&#45;&gt;Node15</title>
<path fill="none" stroke="midnightblue" d="M556.877,-112.083C560.436,-104.691 565.606,-93.9533 570.008,-84.8111"/>
<polygon fill="midnightblue" stroke="midnightblue" points="573.185,-86.2795 574.37,-75.7511 566.878,-83.2427 573.185,-86.2795"/>
</g>
<!-- Node15&#45;&gt;Node6 -->
<g id="edge30" class="edge"><title>Node15&#45;&gt;Node6</title>
<path fill="none" stroke="midnightblue" d="M557.984,-56.4435C536.59,-47.5566 502.902,-33.5632 478.559,-23.4514"/>
<polygon fill="midnightblue" stroke="midnightblue" points="479.663,-20.1203 469.086,-19.5164 476.978,-26.5848 479.663,-20.1203"/>
</g>
<!-- Node15&#45;&gt;Node7 -->
<g id="edge31" class="edge"><title>Node15&#45;&gt;Node7</title>
<path fill="none" stroke="midnightblue" d="M584.528,-56.083C589.561,-48.5341 596.92,-37.4948 603.097,-28.2298"/>
<polygon fill="midnightblue" stroke="midnightblue" points="606.114,-30.0131 608.749,-19.7511 600.29,-26.1301 606.114,-30.0131"/>
</g>
</g>
</svg>
        <g id="navigator" transform="translate(0 0)" fill="#404254">
                <rect fill="#f2f5e9" fill-opacity="0.5" stroke="#606060" stroke-width=".5" x="0" y="0" width="60" height="60"/>
                <use id="zoomplus" xlink:href="#zoomPlus" x="17" y="9" onmousedown="handleZoom(evt,'in')"/>
                <use id="zoomminus" xlink:href="#zoomMin" x="42" y="9" onmousedown="handleZoom(evt,'out')"/>
                <use id="reset" xlink:href="#resetDef" x="30" y="36" onmousedown="handleReset()"/>
                <g id="arrowUp" xlink:href="#dirArrow" transform="translate(30 24)" onmousedown="handlePan(0,-1)">
                  <use xlink:href="#rim" fill="#404040">
                        <set attributeName="fill" to="#808080" begin="arrowUp.mouseover" end="arrowUp.mouseout"/>
                  </use>
                  <path fill="none" stroke="white" stroke-width="1.5" d="M0,-3.0v7 M-2.5,-0.5L0,-3.0L2.5,-0.5"/>
                </g>
                <g id="arrowRight" xlink:href="#dirArrow" transform="rotate(90) translate(36 -43)" onmousedown="handlePan(1,0)">
                  <use xlink:href="#rim" fill="#404040">
                        <set attributeName="fill" to="#808080" begin="arrowRight.mouseover" end="arrowRight.mouseout"/>
                  </use>
                  <path fill="none" stroke="white" stroke-width="1.5" d="M0,-3.0v7 M-2.5,-0.5L0,-3.0L2.5,-0.5"/>
                </g>
                <g id="arrowDown" xlink:href="#dirArrow" transform="rotate(180) translate(-30 -48)" onmousedown="handlePan(0,1)">
                  <use xlink:href="#rim" fill="#404040">
                        <set attributeName="fill" to="#808080" begin="arrowDown.mouseover" end="arrowDown.mouseout"/>
                  </use>
                  <path fill="none" stroke="white" stroke-width="1.5" d="M0,-3.0v7 M-2.5,-0.5L0,-3.0L2.5,-0.5"/>
                </g>
                <g id="arrowLeft" xlink:href="#dirArrow" transform="rotate(270) translate(-36 17)" onmousedown="handlePan(-1,0)">
                  <use xlink:href="#rim" fill="#404040">
                        <set attributeName="fill" to="#808080" begin="arrowLeft.mouseover" end="arrowLeft.mouseout"/>
                  </use>
                  <path fill="none" stroke="white" stroke-width="1.5" d="M0,-3.0v7 M-2.5,-0.5L0,-3.0L2.5,-0.5"/>
                </g>
        </g>
        <svg viewBox="0 0 15 15" width="100%" height="30px" preserveAspectRatio="xMaxYMin meet">
         <g id="arrow_out" transform="scale(0.3 0.3)">
          <a xlink:href="human-dynamics-estimator_2src_2main_8cpp__incl_org.svg" target="_base">
           <rect id="button" ry="5" rx="5" y="6" x="6" height="38" width="38"
                fill="#f2f5e9" fill-opacity="0.5" stroke="#606060" stroke-width="1.0"/>
           <path id="arrow"
             d="M 11.500037,31.436501 C 11.940474,20.09759 22.043105,11.32322 32.158766,21.979434 L 37.068811,17.246167 C 37.068811,17.246167 37.088388,32 37.088388,32 L 22.160133,31.978069 C 22.160133,31.978069 26.997745,27.140456 26.997745,27.140456 C 18.528582,18.264221 13.291696,25.230495 11.500037,31.436501 z"
             style="fill:#404040;"/>
          </a>
         </g>
        </svg>
</svg>
