<?xml version="1.0" encoding="UTF-8" standalone="no"?>
<!DOCTYPE svg PUBLIC "-//W3C//DTD SVG 1.1//EN"
 "http://www.w3.org/Graphics/SVG/1.1/DTD/svg11.dtd">
<!-- Generated by graphviz version 2.36.0 (20140111.2315)
 -->
<!-- Title: /home/travis/build/robotology/human&#45;dynamics&#45;estimation/build/human&#45;viz&#45;bridge/_yarp_idl_/thrift/xsensframe/Quaternion.h Pages: 1 -->
<svg width="235pt" height="184pt"
 viewBox="0.00 0.00 235.00 184.00" xmlns="http://www.w3.org/2000/svg" xmlns:xlink="http://www.w3.org/1999/xlink">
<g id="graph0" class="graph" transform="scale(1 1) rotate(0) translate(4 180)">
<title>/home/travis/build/robotology/human&#45;dynamics&#45;estimation/build/human&#45;viz&#45;bridge/_yarp_idl_/thrift/xsensframe/Quaternion.h</title>
<!-- Node1 -->
<g id="node1" class="node"><title>Node1</title>
<polygon fill="#bfbfbf" stroke="black" points="33,-112.5 33,-175.5 175,-175.5 175,-112.5 33,-112.5"/>
<text text-anchor="start" x="41" y="-163.5" font-family="Helvetica,sans-Serif" font-size="10.00">/home/travis/build</text>
<text text-anchor="start" x="41" y="-152.5" font-family="Helvetica,sans-Serif" font-size="10.00">/robotology/human&#45;dynamics</text>
<text text-anchor="start" x="41" y="-141.5" font-family="Helvetica,sans-Serif" font-size="10.00">&#45;estimation/build/human</text>
<text text-anchor="start" x="41" y="-130.5" font-family="Helvetica,sans-Serif" font-size="10.00">&#45;viz&#45;bridge/_yarp_idl_/thrift</text>
<text text-anchor="middle" x="104" y="-119.5" font-family="Helvetica,sans-Serif" font-size="10.00">/xsensframe/Quaternion.h</text>
</g>
<!-- Node2 -->
<g id="node2" class="node"><title>Node2</title>
<polygon fill="none" stroke="#bfbfbf" points="0,-0.5 0,-19.5 80,-19.5 80,-0.5 0,-0.5"/>
<text text-anchor="middle" x="40" y="-7.5" font-family="Helvetica,sans-Serif" font-size="10.00">yarp/os/Wire.h</text>
</g>
<!-- Node1&#45;&gt;Node2 -->
<g id="edge1" class="edge"><title>Node1&#45;&gt;Node2</title>
<path fill="none" stroke="midnightblue" d="M76.8375,-112.4C68.4151,-101.54 59.8257,-88.8166 54,-76 47.3499,-61.3697 43.7923,-43.4287 41.9305,-30.1046"/>
<polygon fill="midnightblue" stroke="midnightblue" points="45.3589,-29.2968 40.6957,-19.7834 38.4084,-30.1284 45.3589,-29.2968"/>
</g>
<!-- Node3 -->
<g id="node3" class="node"><title>Node3</title>
<polygon fill="none" stroke="#bfbfbf" points="108,-0.5 108,-19.5 228,-19.5 228,-0.5 108,-0.5"/>
<text text-anchor="middle" x="168" y="-7.5" font-family="Helvetica,sans-Serif" font-size="10.00">yarp/os/idl/WireTypes.h</text>
</g>
<!-- Node1&#45;&gt;Node3 -->
<g id="edge2" class="edge"><title>Node1&#45;&gt;Node3</title>
<path fill="none" stroke="midnightblue" d="M130.496,-112.278C138.74,-101.409 147.184,-88.711 153,-76 159.776,-61.1905 163.634,-43.0375 165.735,-29.6831"/>
<polygon fill="midnightblue" stroke="midnightblue" points="169.203,-30.1593 167.112,-19.7727 162.269,-29.1958 169.203,-30.1593"/>
</g>
<!-- Node4 -->
<g id="node4" class="node"><title>Node4</title>
<g id="a_node4"><a xlink:href="human-viz-bridge_2autogenerated_2data_2include_2thrift_2_vector3_8h.html" target="_top" xlink:title="thrift/Vector3.h">
<polygon fill="none" stroke="black" points="63.5,-56.5 63.5,-75.5 144.5,-75.5 144.5,-56.5 63.5,-56.5"/>
<text text-anchor="middle" x="104" y="-63.5" font-family="Helvetica,sans-Serif" font-size="10.00">thrift/Vector3.h</text>
</a>
</g>
</g>
<!-- Node1&#45;&gt;Node4 -->
<g id="edge3" class="edge"><title>Node1&#45;&gt;Node4</title>
<path fill="none" stroke="midnightblue" d="M104,-112.088C104,-103.15 104,-93.6688 104,-85.7195"/>
<polygon fill="midnightblue" stroke="midnightblue" points="107.5,-85.7181 104,-75.7182 100.5,-85.7182 107.5,-85.7181"/>
</g>
<!-- Node4&#45;&gt;Node2 -->
<g id="edge4" class="edge"><title>Node4&#45;&gt;Node2</title>
<path fill="none" stroke="midnightblue" d="M93.7173,-56.324C84.1637,-48.2631 69.7203,-36.0765 58.2157,-26.3695"/>
<polygon fill="midnightblue" stroke="midnightblue" points="60.3698,-23.6076 50.4698,-19.8339 55.8557,-28.9577 60.3698,-23.6076"/>
</g>
<!-- Node4&#45;&gt;Node3 -->
<g id="edge5" class="edge"><title>Node4&#45;&gt;Node3</title>
<path fill="none" stroke="midnightblue" d="M114.283,-56.324C123.836,-48.2631 138.28,-36.0765 149.784,-26.3695"/>
<polygon fill="midnightblue" stroke="midnightblue" points="152.144,-28.9577 157.53,-19.8339 147.63,-23.6076 152.144,-28.9577"/>
</g>
</g>
</svg>
