<?xml version="1.0" encoding="UTF-8" standalone="no"?>
<!DOCTYPE svg PUBLIC "-//W3C//DTD SVG 1.1//EN"
 "http://www.w3.org/Graphics/SVG/1.1/DTD/svg11.dtd">
<!-- Generated by graphviz version 2.36.0 (20140111.2315)
 -->
<!-- Title: /home/travis/build/robotology/human&#45;dynamics&#45;estimation/build/human&#45;state&#45;provider/autogenerated/include/thrifts/Quaternion.h Pages: 1 -->
<svg width="1825pt" height="372pt"
 viewBox="0.00 0.00 1825.00 372.00" xmlns="http://www.w3.org/2000/svg" xmlns:xlink="http://www.w3.org/1999/xlink">
<g id="graph0" class="graph" transform="scale(1 1) rotate(0) translate(4 368)">
<title>/home/travis/build/robotology/human&#45;dynamics&#45;estimation/build/human&#45;state&#45;provider/autogenerated/include/thrifts/Quaternion.h</title>
<!-- Node1 -->
<g id="node1" class="node"><title>Node1</title>
<polygon fill="#bfbfbf" stroke="black" points="864.5,-300.5 864.5,-363.5 1007.5,-363.5 1007.5,-300.5 864.5,-300.5"/>
<text text-anchor="start" x="872.5" y="-351.5" font-family="Helvetica,sans-Serif" font-size="10.00">/home/travis/build</text>
<text text-anchor="start" x="872.5" y="-340.5" font-family="Helvetica,sans-Serif" font-size="10.00">/robotology/human&#45;dynamics</text>
<text text-anchor="start" x="872.5" y="-329.5" font-family="Helvetica,sans-Serif" font-size="10.00">&#45;estimation/build/human</text>
<text text-anchor="start" x="872.5" y="-318.5" font-family="Helvetica,sans-Serif" font-size="10.00">&#45;state&#45;provider/autogenerated</text>
<text text-anchor="middle" x="936" y="-307.5" font-family="Helvetica,sans-Serif" font-size="10.00">/include/thrifts/Quaternion.h</text>
</g>
<!-- Node2 -->
<g id="node2" class="node"><title>Node2</title>
<g id="a_node2"><a xlink:href="__yarp__idl___2thrifts_2humanstate_2_human_state_8h.html" target="_top" xlink:title="/home/travis/build\l/robotology/human&#45;dynamics\l&#45;estimation/build/human\l&#45;state&#45;provider/_yarp_idl\l_/thrifts/humanstate/HumanState.h">
<polygon fill="none" stroke="black" points="349,-200.5 349,-263.5 519,-263.5 519,-200.5 349,-200.5"/>
<text text-anchor="start" x="357" y="-251.5" font-family="Helvetica,sans-Serif" font-size="10.00">/home/travis/build</text>
<text text-anchor="start" x="357" y="-240.5" font-family="Helvetica,sans-Serif" font-size="10.00">/robotology/human&#45;dynamics</text>
<text text-anchor="start" x="357" y="-229.5" font-family="Helvetica,sans-Serif" font-size="10.00">&#45;estimation/build/human</text>
<text text-anchor="start" x="357" y="-218.5" font-family="Helvetica,sans-Serif" font-size="10.00">&#45;state&#45;provider/_yarp_idl</text>
<text text-anchor="middle" x="434" y="-207.5" font-family="Helvetica,sans-Serif" font-size="10.00">_/thrifts/humanstate/HumanState.h</text>
</a>
</g>
</g>
<!-- Node1&#45;&gt;Node2 -->
<g id="edge1" class="edge"><title>Node1&#45;&gt;Node2</title>
<path fill="none" stroke="midnightblue" d="M854.504,-315.09C762.363,-297.103 613.018,-267.948 519.326,-249.657"/>
<polygon fill="midnightblue" stroke="midnightblue" points="853.857,-318.53 864.342,-317.011 855.198,-311.66 853.857,-318.53"/>
</g>
<!-- Node4 -->
<g id="node4" class="node"><title>Node4</title>
<g id="a_node4"><a xlink:href="human-state-provider_2__yarp__idl___2thrifts_2humanstate_2_quaternion_8cpp.html" target="_top" xlink:title="/home/travis/build\l/robotology/human&#45;dynamics\l&#45;estimation/build/human\l&#45;state&#45;provider/_yarp_idl\l_/thrifts/humanstate/Quaternion.cpp">
<polygon fill="none" stroke="black" points="761.5,-200.5 761.5,-263.5 934.5,-263.5 934.5,-200.5 761.5,-200.5"/>
<text text-anchor="start" x="769.5" y="-251.5" font-family="Helvetica,sans-Serif" font-size="10.00">/home/travis/build</text>
<text text-anchor="start" x="769.5" y="-240.5" font-family="Helvetica,sans-Serif" font-size="10.00">/robotology/human&#45;dynamics</text>
<text text-anchor="start" x="769.5" y="-229.5" font-family="Helvetica,sans-Serif" font-size="10.00">&#45;estimation/build/human</text>
<text text-anchor="start" x="769.5" y="-218.5" font-family="Helvetica,sans-Serif" font-size="10.00">&#45;state&#45;provider/_yarp_idl</text>
<text text-anchor="middle" x="848" y="-207.5" font-family="Helvetica,sans-Serif" font-size="10.00">_/thrifts/humanstate/Quaternion.cpp</text>
</a>
</g>
</g>
<!-- Node1&#45;&gt;Node4 -->
<g id="edge3" class="edge"><title>Node1&#45;&gt;Node4</title>
<path fill="none" stroke="midnightblue" d="M901.597,-292.687C892.944,-283.051 883.77,-272.835 875.504,-263.63"/>
<polygon fill="midnightblue" stroke="midnightblue" points="899.112,-295.159 908.398,-300.261 904.321,-290.482 899.112,-295.159"/>
</g>
<!-- Node5 -->
<g id="node5" class="node"><title>Node5</title>
<g id="a_node5"><a xlink:href="autogenerated_2include_2thrifts_2_human_state_8h.html" target="_top" xlink:title="/home/travis/build\l/robotology/human&#45;dynamics\l&#45;estimation/build/human\l&#45;state&#45;provider/autogenerated\l/include/thrifts/HumanState.h">
<polygon fill="none" stroke="black" points="953,-200.5 953,-263.5 1097,-263.5 1097,-200.5 953,-200.5"/>
<text text-anchor="start" x="961" y="-251.5" font-family="Helvetica,sans-Serif" font-size="10.00">/home/travis/build</text>
<text text-anchor="start" x="961" y="-240.5" font-family="Helvetica,sans-Serif" font-size="10.00">/robotology/human&#45;dynamics</text>
<text text-anchor="start" x="961" y="-229.5" font-family="Helvetica,sans-Serif" font-size="10.00">&#45;estimation/build/human</text>
<text text-anchor="start" x="961" y="-218.5" font-family="Helvetica,sans-Serif" font-size="10.00">&#45;state&#45;provider/autogenerated</text>
<text text-anchor="middle" x="1025" y="-207.5" font-family="Helvetica,sans-Serif" font-size="10.00">/include/thrifts/HumanState.h</text>
</a>
</g>
</g>
<!-- Node1&#45;&gt;Node5 -->
<g id="edge4" class="edge"><title>Node1&#45;&gt;Node5</title>
<path fill="none" stroke="midnightblue" d="M970.794,-292.687C979.546,-283.051 988.824,-272.835 997.183,-263.63"/>
<polygon fill="midnightblue" stroke="midnightblue" points="968.048,-290.505 963.916,-300.261 973.23,-295.211 968.048,-290.505"/>
</g>
<!-- Node22 -->
<g id="node22" class="node"><title>Node22</title>
<g id="a_node22"><a xlink:href="human-state-provider_2autogenerated_2src_2_quaternion_8cpp.html" target="_top" xlink:title="/home/travis/build\l/robotology/human&#45;dynamics\l&#45;estimation/build/human\l&#45;state&#45;provider/autogenerated\l/src/Quaternion.cpp">
<polygon fill="none" stroke="black" points="1115.5,-200.5 1115.5,-263.5 1258.5,-263.5 1258.5,-200.5 1115.5,-200.5"/>
<text text-anchor="start" x="1123.5" y="-251.5" font-family="Helvetica,sans-Serif" font-size="10.00">/home/travis/build</text>
<text text-anchor="start" x="1123.5" y="-240.5" font-family="Helvetica,sans-Serif" font-size="10.00">/robotology/human&#45;dynamics</text>
<text text-anchor="start" x="1123.5" y="-229.5" font-family="Helvetica,sans-Serif" font-size="10.00">&#45;estimation/build/human</text>
<text text-anchor="start" x="1123.5" y="-218.5" font-family="Helvetica,sans-Serif" font-size="10.00">&#45;state&#45;provider/autogenerated</text>
<text text-anchor="middle" x="1187" y="-207.5" font-family="Helvetica,sans-Serif" font-size="10.00">/src/Quaternion.cpp</text>
</a>
</g>
</g>
<!-- Node1&#45;&gt;Node22 -->
<g id="edge23" class="edge"><title>Node1&#45;&gt;Node22</title>
<path fill="none" stroke="midnightblue" d="M1017.24,-299.279C1048.83,-286.946 1084.71,-272.939 1115.31,-260.989"/>
<polygon fill="midnightblue" stroke="midnightblue" points="1015.63,-296.151 1007.59,-303.048 1018.18,-302.672 1015.63,-296.151"/>
</g>
<!-- Node3 -->
<g id="node3" class="node"><title>Node3</title>
<g id="a_node3"><a xlink:href="_human_state__index_8h.html" target="_top" xlink:title="/home/travis/build\l/robotology/human&#45;dynamics\l&#45;estimation/build/human\l&#45;state&#45;provider/_yarp_idl\l_/thrifts/humanstate/HumanState_index.h">
<polygon fill="none" stroke="black" points="0,-100.5 0,-163.5 198,-163.5 198,-100.5 0,-100.5"/>
<text text-anchor="start" x="8" y="-151.5" font-family="Helvetica,sans-Serif" font-size="10.00">/home/travis/build</text>
<text text-anchor="start" x="8" y="-140.5" font-family="Helvetica,sans-Serif" font-size="10.00">/robotology/human&#45;dynamics</text>
<text text-anchor="start" x="8" y="-129.5" font-family="Helvetica,sans-Serif" font-size="10.00">&#45;estimation/build/human</text>
<text text-anchor="start" x="8" y="-118.5" font-family="Helvetica,sans-Serif" font-size="10.00">&#45;state&#45;provider/_yarp_idl</text>
<text text-anchor="middle" x="99" y="-107.5" font-family="Helvetica,sans-Serif" font-size="10.00">_/thrifts/humanstate/HumanState_index.h</text>
</a>
</g>
</g>
<!-- Node2&#45;&gt;Node3 -->
<g id="edge2" class="edge"><title>Node2&#45;&gt;Node3</title>
<path fill="none" stroke="midnightblue" d="M338.773,-203.143C294.817,-190.284 242.644,-175.021 198.209,-162.022"/>
<polygon fill="midnightblue" stroke="midnightblue" points="338.018,-206.568 348.599,-206.017 339.984,-199.85 338.018,-206.568"/>
</g>
<!-- Node6 -->
<g id="node6" class="node"><title>Node6</title>
<g id="a_node6"><a xlink:href="__yarp__idl___2thrifts_2humanstate_2_human_state_8cpp.html" target="_top" xlink:title="/home/travis/build\l/robotology/human&#45;dynamics\l&#45;estimation/build/human\l&#45;state&#45;provider/_yarp_idl\l_/thrifts/humanstate/HumanState.cpp">
<polygon fill="none" stroke="black" points="216,-100.5 216,-163.5 396,-163.5 396,-100.5 216,-100.5"/>
<text text-anchor="start" x="224" y="-151.5" font-family="Helvetica,sans-Serif" font-size="10.00">/home/travis/build</text>
<text text-anchor="start" x="224" y="-140.5" font-family="Helvetica,sans-Serif" font-size="10.00">/robotology/human&#45;dynamics</text>
<text text-anchor="start" x="224" y="-129.5" font-family="Helvetica,sans-Serif" font-size="10.00">&#45;estimation/build/human</text>
<text text-anchor="start" x="224" y="-118.5" font-family="Helvetica,sans-Serif" font-size="10.00">&#45;state&#45;provider/_yarp_idl</text>
<text text-anchor="middle" x="306" y="-107.5" font-family="Helvetica,sans-Serif" font-size="10.00">_/thrifts/humanstate/HumanState.cpp</text>
</a>
</g>
</g>
<!-- Node5&#45;&gt;Node6 -->
<g id="edge5" class="edge"><title>Node5&#45;&gt;Node6</title>
<path fill="none" stroke="midnightblue" d="M943.307,-200.067C943.205,-200.045 943.102,-200.022 943,-200 708.827,-149.076 640.551,-208.114 405,-164 402.079,-163.453 399.123,-162.848 396.15,-162.194"/>
<polygon fill="midnightblue" stroke="midnightblue" points="942.367,-203.44 952.914,-202.431 944.04,-196.643 942.367,-203.44"/>
</g>
<!-- Node7 -->
<g id="node7" class="node"><title>Node7</title>
<g id="a_node7"><a xlink:href="autogenerated_2src_2_human_state_8cpp.html" target="_top" xlink:title="/home/travis/build\l/robotology/human&#45;dynamics\l&#45;estimation/build/human\l&#45;state&#45;provider/autogenerated\l/src/HumanState.cpp">
<polygon fill="none" stroke="black" points="414.5,-100.5 414.5,-163.5 557.5,-163.5 557.5,-100.5 414.5,-100.5"/>
<text text-anchor="start" x="422.5" y="-151.5" font-family="Helvetica,sans-Serif" font-size="10.00">/home/travis/build</text>
<text text-anchor="start" x="422.5" y="-140.5" font-family="Helvetica,sans-Serif" font-size="10.00">/robotology/human&#45;dynamics</text>
<text text-anchor="start" x="422.5" y="-129.5" font-family="Helvetica,sans-Serif" font-size="10.00">&#45;estimation/build/human</text>
<text text-anchor="start" x="422.5" y="-118.5" font-family="Helvetica,sans-Serif" font-size="10.00">&#45;state&#45;provider/autogenerated</text>
<text text-anchor="middle" x="486" y="-107.5" font-family="Helvetica,sans-Serif" font-size="10.00">/src/HumanState.cpp</text>
</a>
</g>
</g>
<!-- Node5&#45;&gt;Node7 -->
<g id="edge6" class="edge"><title>Node5&#45;&gt;Node7</title>
<path fill="none" stroke="midnightblue" d="M943.306,-200.071C943.204,-200.047 943.102,-200.024 943,-200 779.486,-161.982 730.436,-202.351 567,-164 563.922,-163.278 560.803,-162.465 557.672,-161.582"/>
<polygon fill="midnightblue" stroke="midnightblue" points="942.329,-203.434 952.887,-202.548 944.081,-196.657 942.329,-203.434"/>
</g>
<!-- Node8 -->
<g id="node8" class="node"><title>Node8</title>
<g id="a_node8"><a xlink:href="_human_dynamics_estimator_8h.html" target="_top" xlink:title="/home/travis/build\l/robotology/human&#45;dynamics\l&#45;estimation/human&#45;dynamics\l&#45;estimator/include/HumanDynamicsEstimator.h">
<polygon fill="none" stroke="black" points="575.5,-106 575.5,-158 798.5,-158 798.5,-106 575.5,-106"/>
<text text-anchor="start" x="583.5" y="-146" font-family="Helvetica,sans-Serif" font-size="10.00">/home/travis/build</text>
<text text-anchor="start" x="583.5" y="-135" font-family="Helvetica,sans-Serif" font-size="10.00">/robotology/human&#45;dynamics</text>
<text text-anchor="start" x="583.5" y="-124" font-family="Helvetica,sans-Serif" font-size="10.00">&#45;estimation/human&#45;dynamics</text>
<text text-anchor="middle" x="687" y="-113" font-family="Helvetica,sans-Serif" font-size="10.00">&#45;estimator/include/HumanDynamicsEstimator.h</text>
</a>
</g>
</g>
<!-- Node5&#45;&gt;Node8 -->
<g id="edge7" class="edge"><title>Node5&#45;&gt;Node8</title>
<path fill="none" stroke="midnightblue" d="M943.299,-200.096C943.199,-200.064 943.1,-200.032 943,-200 927.462,-195.045 850.396,-174.972 784.84,-158.078"/>
<polygon fill="midnightblue" stroke="midnightblue" points="942.115,-203.391 952.709,-203.197 944.307,-196.742 942.115,-203.391"/>
</g>
<!-- Node11 -->
<g id="node11" class="node"><title>Node11</title>
<g id="a_node11"><a xlink:href="_human_forces_provider_8h.html" target="_top" xlink:title="/home/travis/build\l/robotology/human&#45;dynamics\l&#45;estimation/human&#45;forces\l&#45;provider/include/HumanForcesProvider.h">
<polygon fill="none" stroke="black" points="816.5,-106 816.5,-158 1013.5,-158 1013.5,-106 816.5,-106"/>
<text text-anchor="start" x="824.5" y="-146" font-family="Helvetica,sans-Serif" font-size="10.00">/home/travis/build</text>
<text text-anchor="start" x="824.5" y="-135" font-family="Helvetica,sans-Serif" font-size="10.00">/robotology/human&#45;dynamics</text>
<text text-anchor="start" x="824.5" y="-124" font-family="Helvetica,sans-Serif" font-size="10.00">&#45;estimation/human&#45;forces</text>
<text text-anchor="middle" x="915" y="-113" font-family="Helvetica,sans-Serif" font-size="10.00">&#45;provider/include/HumanForcesProvider.h</text>
</a>
</g>
</g>
<!-- Node5&#45;&gt;Node11 -->
<g id="edge10" class="edge"><title>Node5&#45;&gt;Node11</title>
<path fill="none" stroke="midnightblue" d="M982.82,-193.421C969.53,-181.581 955.182,-168.799 943.121,-158.054"/>
<polygon fill="midnightblue" stroke="midnightblue" points="980.702,-196.222 990.497,-200.261 985.359,-190.996 980.702,-196.222"/>
</g>
<!-- Node14 -->
<g id="node14" class="node"><title>Node14</title>
<g id="a_node14"><a xlink:href="_robot_frame_transformer_8h.html" target="_top" xlink:title="/home/travis/build\l/robotology/human&#45;dynamics\l&#45;estimation/human&#45;forces\l&#45;provider/include/RobotFrameTransformer.h">
<polygon fill="none" stroke="black" points="1032,-106 1032,-158 1238,-158 1238,-106 1032,-106"/>
<text text-anchor="start" x="1040" y="-146" font-family="Helvetica,sans-Serif" font-size="10.00">/home/travis/build</text>
<text text-anchor="start" x="1040" y="-135" font-family="Helvetica,sans-Serif" font-size="10.00">/robotology/human&#45;dynamics</text>
<text text-anchor="start" x="1040" y="-124" font-family="Helvetica,sans-Serif" font-size="10.00">&#45;estimation/human&#45;forces</text>
<text text-anchor="middle" x="1135" y="-113" font-family="Helvetica,sans-Serif" font-size="10.00">&#45;provider/include/RobotFrameTransformer.h</text>
</a>
</g>
</g>
<!-- Node5&#45;&gt;Node14 -->
<g id="edge13" class="edge"><title>Node5&#45;&gt;Node14</title>
<path fill="none" stroke="midnightblue" d="M1067.18,-193.421C1080.47,-181.581 1094.82,-168.799 1106.88,-158.054"/>
<polygon fill="midnightblue" stroke="midnightblue" points="1064.64,-190.996 1059.5,-200.261 1069.3,-196.222 1064.64,-190.996"/>
</g>
<!-- Node16 -->
<g id="node16" class="node"><title>Node16</title>
<g id="a_node16"><a xlink:href="_human_state_provider_private_8h.html" target="_top" xlink:title="/home/travis/build\l/robotology/human&#45;dynamics\l&#45;estimation/human&#45;state\l&#45;provider/include/private\l/HumanStateProviderPrivate.h">
<polygon fill="none" stroke="black" points="1261.5,-100.5 1261.5,-163.5 1410.5,-163.5 1410.5,-100.5 1261.5,-100.5"/>
<text text-anchor="start" x="1269.5" y="-151.5" font-family="Helvetica,sans-Serif" font-size="10.00">/home/travis/build</text>
<text text-anchor="start" x="1269.5" y="-140.5" font-family="Helvetica,sans-Serif" font-size="10.00">/robotology/human&#45;dynamics</text>
<text text-anchor="start" x="1269.5" y="-129.5" font-family="Helvetica,sans-Serif" font-size="10.00">&#45;estimation/human&#45;state</text>
<text text-anchor="start" x="1269.5" y="-118.5" font-family="Helvetica,sans-Serif" font-size="10.00">&#45;provider/include/private</text>
<text text-anchor="middle" x="1336" y="-107.5" font-family="Helvetica,sans-Serif" font-size="10.00">/HumanStateProviderPrivate.h</text>
</a>
</g>
</g>
<!-- Node5&#45;&gt;Node16 -->
<g id="edge16" class="edge"><title>Node5&#45;&gt;Node16</title>
<path fill="none" stroke="midnightblue" d="M1106.7,-200.095C1106.8,-200.063 1106.9,-200.032 1107,-200 1168.25,-180.611 1185.5,-182.583 1247,-164 1251.7,-162.58 1256.52,-161.068 1261.37,-159.503"/>
<polygon fill="midnightblue" stroke="midnightblue" points="1105.7,-196.74 1097.29,-203.18 1107.88,-203.392 1105.7,-196.74"/>
</g>
<!-- Node18 -->
<g id="node18" class="node"><title>Node18</title>
<g id="a_node18"><a xlink:href="_human_state_provider_8cpp.html" target="_top" xlink:title="/home/travis/build\l/robotology/human&#45;dynamics\l&#45;estimation/human&#45;state\l&#45;provider/src/HumanStateProvider.cpp">
<polygon fill="none" stroke="black" points="1634.5,-6 1634.5,-58 1817.5,-58 1817.5,-6 1634.5,-6"/>
<text text-anchor="start" x="1642.5" y="-46" font-family="Helvetica,sans-Serif" font-size="10.00">/home/travis/build</text>
<text text-anchor="start" x="1642.5" y="-35" font-family="Helvetica,sans-Serif" font-size="10.00">/robotology/human&#45;dynamics</text>
<text text-anchor="start" x="1642.5" y="-24" font-family="Helvetica,sans-Serif" font-size="10.00">&#45;estimation/human&#45;state</text>
<text text-anchor="middle" x="1726" y="-13" font-family="Helvetica,sans-Serif" font-size="10.00">&#45;provider/src/HumanStateProvider.cpp</text>
</a>
</g>
</g>
<!-- Node5&#45;&gt;Node18 -->
<g id="edge20" class="edge"><title>Node5&#45;&gt;Node18</title>
<path fill="none" stroke="midnightblue" d="M1106.69,-200.074C1106.8,-200.049 1106.9,-200.025 1107,-200 1174.82,-183.535 1360.43,-201.952 1419,-164 1446.76,-146.012 1430.14,-119.303 1457,-100 1519.01,-55.4425 1551.1,-83.2211 1625,-64 1632.1,-62.1532 1639.45,-60.1267 1646.79,-58.0218"/>
<polygon fill="midnightblue" stroke="midnightblue" points="1105.89,-196.666 1097.13,-202.627 1107.7,-203.43 1105.89,-196.666"/>
</g>
<!-- Node20 -->
<g id="node20" class="node"><title>Node20</title>
<g id="a_node20"><a xlink:href="_human_joint_state_bridge_8cpp.html" target="_top" xlink:title="/home/travis/build\l/robotology/human&#45;dynamics\l&#45;estimation/human&#45;viz&#45;bridge\l/src/HumanJointStateBridge.cpp">
<polygon fill="none" stroke="black" points="1466,-106 1466,-158 1624,-158 1624,-106 1466,-106"/>
<text text-anchor="start" x="1474" y="-146" font-family="Helvetica,sans-Serif" font-size="10.00">/home/travis/build</text>
<text text-anchor="start" x="1474" y="-135" font-family="Helvetica,sans-Serif" font-size="10.00">/robotology/human&#45;dynamics</text>
<text text-anchor="start" x="1474" y="-124" font-family="Helvetica,sans-Serif" font-size="10.00">&#45;estimation/human&#45;viz&#45;bridge</text>
<text text-anchor="middle" x="1545" y="-113" font-family="Helvetica,sans-Serif" font-size="10.00">/src/HumanJointStateBridge.cpp</text>
</a>
</g>
</g>
<!-- Node5&#45;&gt;Node20 -->
<g id="edge21" class="edge"><title>Node5&#45;&gt;Node20</title>
<path fill="none" stroke="midnightblue" d="M1106.69,-200.073C1106.8,-200.048 1106.9,-200.024 1107,-200 1257.01,-164.448 1301.31,-196.569 1452,-164 1459.65,-162.346 1467.56,-160.286 1475.38,-158.018"/>
<polygon fill="midnightblue" stroke="midnightblue" points="1105.91,-196.661 1097.12,-202.583 1107.68,-203.432 1105.91,-196.661"/>
</g>
<!-- Node21 -->
<g id="node21" class="node"><title>Node21</title>
<g id="a_node21"><a xlink:href="_robot_base_pose_publisher_8cpp.html" target="_top" xlink:title="/home/travis/build\l/robotology/human&#45;dynamics\l&#45;estimation/human&#45;viz&#45;bridge\l/src/RobotBasePosePublisher.cpp">
<polygon fill="none" stroke="black" points="1641.5,-106 1641.5,-158 1808.5,-158 1808.5,-106 1641.5,-106"/>
<text text-anchor="start" x="1649.5" y="-146" font-family="Helvetica,sans-Serif" font-size="10.00">/home/travis/build</text>
<text text-anchor="start" x="1649.5" y="-135" font-family="Helvetica,sans-Serif" font-size="10.00">/robotology/human&#45;dynamics</text>
<text text-anchor="start" x="1649.5" y="-124" font-family="Helvetica,sans-Serif" font-size="10.00">&#45;estimation/human&#45;viz&#45;bridge</text>
<text text-anchor="middle" x="1725" y="-113" font-family="Helvetica,sans-Serif" font-size="10.00">/src/RobotBasePosePublisher.cpp</text>
</a>
</g>
</g>
<!-- Node5&#45;&gt;Node21 -->
<g id="edge22" class="edge"><title>Node5&#45;&gt;Node21</title>
<path fill="none" stroke="midnightblue" d="M1106.69,-200.067C1106.8,-200.045 1106.9,-200.022 1107,-200 1335.5,-150.113 1402.56,-209.343 1632,-164 1640.01,-162.416 1648.29,-160.337 1656.45,-158.003"/>
<polygon fill="midnightblue" stroke="midnightblue" points="1105.96,-196.644 1097.09,-202.438 1107.64,-203.44 1105.96,-196.644"/>
</g>
<!-- Node9 -->
<g id="node9" class="node"><title>Node9</title>
<g id="a_node9"><a xlink:href="_human_dynamics_estimator_8cpp.html" target="_top" xlink:title="/home/travis/build\l/robotology/human&#45;dynamics\l&#45;estimation/human&#45;dynamics\l&#45;estimator/src/HumanDynamicsEstimator.cpp">
<polygon fill="none" stroke="black" points="269,-6 269,-58 485,-58 485,-6 269,-6"/>
<text text-anchor="start" x="277" y="-46" font-family="Helvetica,sans-Serif" font-size="10.00">/home/travis/build</text>
<text text-anchor="start" x="277" y="-35" font-family="Helvetica,sans-Serif" font-size="10.00">/robotology/human&#45;dynamics</text>
<text text-anchor="start" x="277" y="-24" font-family="Helvetica,sans-Serif" font-size="10.00">&#45;estimation/human&#45;dynamics</text>
<text text-anchor="middle" x="377" y="-13" font-family="Helvetica,sans-Serif" font-size="10.00">&#45;estimator/src/HumanDynamicsEstimator.cpp</text>
</a>
</g>
</g>
<!-- Node8&#45;&gt;Node9 -->
<g id="edge8" class="edge"><title>Node8&#45;&gt;Node9</title>
<path fill="none" stroke="midnightblue" d="M597.881,-102.827C553.171,-88.6929 499.477,-71.7185 456.224,-58.0449"/>
<polygon fill="midnightblue" stroke="midnightblue" points="596.98,-106.213 607.57,-105.89 599.09,-99.5383 596.98,-106.213"/>
</g>
<!-- Node10 -->
<g id="node10" class="node"><title>Node10</title>
<g id="a_node10"><a xlink:href="human-dynamics-estimator_2src_2main_8cpp.html" target="_top" xlink:title="/home/travis/build\l/robotology/human&#45;dynamics\l&#45;estimation/human&#45;dynamics\l&#45;estimator/src/main.cpp">
<polygon fill="none" stroke="black" points="503,-6 503,-58 645,-58 645,-6 503,-6"/>
<text text-anchor="start" x="511" y="-46" font-family="Helvetica,sans-Serif" font-size="10.00">/home/travis/build</text>
<text text-anchor="start" x="511" y="-35" font-family="Helvetica,sans-Serif" font-size="10.00">/robotology/human&#45;dynamics</text>
<text text-anchor="start" x="511" y="-24" font-family="Helvetica,sans-Serif" font-size="10.00">&#45;estimation/human&#45;dynamics</text>
<text text-anchor="middle" x="574" y="-13" font-family="Helvetica,sans-Serif" font-size="10.00">&#45;estimator/src/main.cpp</text>
</a>
</g>
</g>
<!-- Node8&#45;&gt;Node10 -->
<g id="edge9" class="edge"><title>Node8&#45;&gt;Node10</title>
<path fill="none" stroke="midnightblue" d="M650.131,-99.0247C634.838,-85.7622 617.354,-70.5994 603.002,-58.1519"/>
<polygon fill="midnightblue" stroke="midnightblue" points="648.052,-101.855 657.9,-105.763 652.638,-96.5665 648.052,-101.855"/>
</g>
<!-- Node12 -->
<g id="node12" class="node"><title>Node12</title>
<g id="a_node12"><a xlink:href="_human_forces_provider_8cpp.html" target="_top" xlink:title="/home/travis/build\l/robotology/human&#45;dynamics\l&#45;estimation/human&#45;forces\l&#45;provider/src/HumanForcesProvider.cpp">
<polygon fill="none" stroke="black" points="823,-6 823,-58 1013,-58 1013,-6 823,-6"/>
<text text-anchor="start" x="831" y="-46" font-family="Helvetica,sans-Serif" font-size="10.00">/home/travis/build</text>
<text text-anchor="start" x="831" y="-35" font-family="Helvetica,sans-Serif" font-size="10.00">/robotology/human&#45;dynamics</text>
<text text-anchor="start" x="831" y="-24" font-family="Helvetica,sans-Serif" font-size="10.00">&#45;estimation/human&#45;forces</text>
<text text-anchor="middle" x="918" y="-13" font-family="Helvetica,sans-Serif" font-size="10.00">&#45;provider/src/HumanForcesProvider.cpp</text>
</a>
</g>
</g>
<!-- Node11&#45;&gt;Node12 -->
<g id="edge11" class="edge"><title>Node11&#45;&gt;Node12</title>
<path fill="none" stroke="midnightblue" d="M916.081,-95.7033C916.461,-83.2767 916.88,-69.5716 917.23,-58.1519"/>
<polygon fill="midnightblue" stroke="midnightblue" points="912.58,-95.6601 915.773,-105.763 919.577,-95.8744 912.58,-95.6601"/>
</g>
<!-- Node13 -->
<g id="node13" class="node"><title>Node13</title>
<g id="a_node13"><a xlink:href="human-forces-provider_2src_2main_8cpp.html" target="_top" xlink:title="/home/travis/build\l/robotology/human&#45;dynamics\l&#45;estimation/human&#45;forces\l&#45;provider/src/main.cpp">
<polygon fill="none" stroke="black" points="663,-6 663,-58 805,-58 805,-6 663,-6"/>
<text text-anchor="start" x="671" y="-46" font-family="Helvetica,sans-Serif" font-size="10.00">/home/travis/build</text>
<text text-anchor="start" x="671" y="-35" font-family="Helvetica,sans-Serif" font-size="10.00">/robotology/human&#45;dynamics</text>
<text text-anchor="start" x="671" y="-24" font-family="Helvetica,sans-Serif" font-size="10.00">&#45;estimation/human&#45;forces</text>
<text text-anchor="middle" x="734" y="-13" font-family="Helvetica,sans-Serif" font-size="10.00">&#45;provider/src/main.cpp</text>
</a>
</g>
</g>
<!-- Node11&#45;&gt;Node13 -->
<g id="edge12" class="edge"><title>Node11&#45;&gt;Node13</title>
<path fill="none" stroke="midnightblue" d="M859.292,-100.837C834.028,-87.159 804.498,-71.1704 780.454,-58.1519"/>
<polygon fill="midnightblue" stroke="midnightblue" points="857.928,-104.079 868.388,-105.763 861.261,-97.9234 857.928,-104.079"/>
</g>
<!-- Node14&#45;&gt;Node12 -->
<g id="edge14" class="edge"><title>Node14&#45;&gt;Node12</title>
<path fill="none" stroke="midnightblue" d="M1070.04,-101.665C1039.28,-87.7701 1002.91,-71.3458 973.457,-58.0449"/>
<polygon fill="midnightblue" stroke="midnightblue" points="1068.84,-104.964 1079.4,-105.89 1071.73,-98.5841 1068.84,-104.964"/>
</g>
<!-- Node15 -->
<g id="node15" class="node"><title>Node15</title>
<g id="a_node15"><a xlink:href="_robot_frame_transformer_8cpp.html" target="_top" xlink:title="/home/travis/build\l/robotology/human&#45;dynamics\l&#45;estimation/human&#45;forces\l&#45;provider/src/RobotFrameTransformer.cpp">
<polygon fill="none" stroke="black" points="1031.5,-6 1031.5,-58 1230.5,-58 1230.5,-6 1031.5,-6"/>
<text text-anchor="start" x="1039.5" y="-46" font-family="Helvetica,sans-Serif" font-size="10.00">/home/travis/build</text>
<text text-anchor="start" x="1039.5" y="-35" font-family="Helvetica,sans-Serif" font-size="10.00">/robotology/human&#45;dynamics</text>
<text text-anchor="start" x="1039.5" y="-24" font-family="Helvetica,sans-Serif" font-size="10.00">&#45;estimation/human&#45;forces</text>
<text text-anchor="middle" x="1131" y="-13" font-family="Helvetica,sans-Serif" font-size="10.00">&#45;provider/src/RobotFrameTransformer.cpp</text>
</a>
</g>
</g>
<!-- Node14&#45;&gt;Node15 -->
<g id="edge15" class="edge"><title>Node14&#45;&gt;Node15</title>
<path fill="none" stroke="midnightblue" d="M1133.56,-95.7033C1133.05,-83.2767 1132.49,-69.5716 1132.03,-58.1519"/>
<polygon fill="midnightblue" stroke="midnightblue" points="1130.06,-95.9137 1133.97,-105.763 1137.06,-95.6281 1130.06,-95.9137"/>
</g>
<!-- Node17 -->
<g id="node17" class="node"><title>Node17</title>
<g id="a_node17"><a xlink:href="_human_i_k_worker_pool_8cpp.html" target="_top" xlink:title="/home/travis/build\l/robotology/human&#45;dynamics\l&#45;estimation/human&#45;state\l&#45;provider/src/HumanIKWorkerPool.cpp">
<polygon fill="none" stroke="black" points="1248.5,-6 1248.5,-58 1433.5,-58 1433.5,-6 1248.5,-6"/>
<text text-anchor="start" x="1256.5" y="-46" font-family="Helvetica,sans-Serif" font-size="10.00">/home/travis/build</text>
<text text-anchor="start" x="1256.5" y="-35" font-family="Helvetica,sans-Serif" font-size="10.00">/robotology/human&#45;dynamics</text>
<text text-anchor="start" x="1256.5" y="-24" font-family="Helvetica,sans-Serif" font-size="10.00">&#45;estimation/human&#45;state</text>
<text text-anchor="middle" x="1341" y="-13" font-family="Helvetica,sans-Serif" font-size="10.00">&#45;provider/src/HumanIKWorkerPool.cpp</text>
</a>
</g>
</g>
<!-- Node16&#45;&gt;Node17 -->
<g id="edge17" class="edge"><title>Node16&#45;&gt;Node17</title>
<path fill="none" stroke="midnightblue" d="M1338.09,-90.0792C1338.64,-79.2096 1339.22,-67.7945 1339.72,-58.0536"/>
<polygon fill="midnightblue" stroke="midnightblue" points="1334.58,-90.0957 1337.57,-100.261 1341.57,-90.4524 1334.58,-90.0957"/>
</g>
<!-- Node16&#45;&gt;Node18 -->
<g id="edge18" class="edge"><title>Node16&#45;&gt;Node18</title>
<path fill="none" stroke="midnightblue" d="M1420.28,-101.003C1421.53,-100.66 1422.77,-100.325 1424,-100 1511.75,-76.8475 1536.79,-85.3535 1625,-64 1632.4,-62.209 1640.05,-60.184 1647.68,-58.048"/>
<polygon fill="midnightblue" stroke="midnightblue" points="1419.27,-97.6503 1410.64,-103.785 1421.21,-104.376 1419.27,-97.6503"/>
</g>
<!-- Node19 -->
<g id="node19" class="node"><title>Node19</title>
<g id="a_node19"><a xlink:href="_human_state_provider_private_8cpp.html" target="_top" xlink:title="/home/travis/build\l/robotology/human&#45;dynamics\l&#45;estimation/human&#45;state\l&#45;provider/src/HumanStateProvider\lPrivate.cpp">
<polygon fill="none" stroke="black" points="1452,-0.5 1452,-63.5 1616,-63.5 1616,-0.5 1452,-0.5"/>
<text text-anchor="start" x="1460" y="-51.5" font-family="Helvetica,sans-Serif" font-size="10.00">/home/travis/build</text>
<text text-anchor="start" x="1460" y="-40.5" font-family="Helvetica,sans-Serif" font-size="10.00">/robotology/human&#45;dynamics</text>
<text text-anchor="start" x="1460" y="-29.5" font-family="Helvetica,sans-Serif" font-size="10.00">&#45;estimation/human&#45;state</text>
<text text-anchor="start" x="1460" y="-18.5" font-family="Helvetica,sans-Serif" font-size="10.00">&#45;provider/src/HumanStateProvider</text>
<text text-anchor="middle" x="1534" y="-7.5" font-family="Helvetica,sans-Serif" font-size="10.00">Private.cpp</text>
</a>
</g>
</g>
<!-- Node16&#45;&gt;Node19 -->
<g id="edge19" class="edge"><title>Node16&#45;&gt;Node19</title>
<path fill="none" stroke="midnightblue" d="M1406.87,-95.9229C1428.26,-85.3373 1451.55,-73.8062 1472.29,-63.541"/>
<polygon fill="midnightblue" stroke="midnightblue" points="1405.24,-92.8225 1397.83,-100.395 1408.35,-99.0962 1405.24,-92.8225"/>
</g>
</g>
</svg>
