<?xml version="1.0" encoding="UTF-8" standalone="no"?>
<!DOCTYPE svg PUBLIC "-//W3C//DTD SVG 1.1//EN"
 "http://www.w3.org/Graphics/SVG/1.1/DTD/svg11.dtd">
<!-- Generated by graphviz version 2.36.0 (20140111.2315)
 -->
<!-- Title: /home/travis/build/robotology/human&#45;dynamics&#45;estimation/human&#45;forces&#45;provider/src/main.cpp Pages: 1 -->
<svg width="773pt" height="342pt"
 viewBox="0.00 0.00 773.00 342.00" xmlns="http://www.w3.org/2000/svg" xmlns:xlink="http://www.w3.org/1999/xlink">
<g id="graph0" class="graph" transform="scale(1 1) rotate(0) translate(4 338)">
<title>/home/travis/build/robotology/human&#45;dynamics&#45;estimation/human&#45;forces&#45;provider/src/main.cpp</title>
<!-- Node1 -->
<g id="node1" class="node"><title>Node1</title>
<polygon fill="#bfbfbf" stroke="black" points="457,-281 457,-333 599,-333 599,-281 457,-281"/>
<text text-anchor="start" x="465" y="-321" font-family="Helvetica,sans-Serif" font-size="10.00">/home/travis/build</text>
<text text-anchor="start" x="465" y="-310" font-family="Helvetica,sans-Serif" font-size="10.00">/robotology/human&#45;dynamics</text>
<text text-anchor="start" x="465" y="-299" font-family="Helvetica,sans-Serif" font-size="10.00">&#45;estimation/human&#45;forces</text>
<text text-anchor="middle" x="528" y="-288" font-family="Helvetica,sans-Serif" font-size="10.00">&#45;provider/src/main.cpp</text>
</g>
<!-- Node2 -->
<g id="node2" class="node"><title>Node2</title>
<g id="a_node2"><a xlink:href="_human_forces_provider_8h.html" target="_top" xlink:title="HumanForcesProvider.h">
<polygon fill="none" stroke="black" points="334,-224.5 334,-243.5 456,-243.5 456,-224.5 334,-224.5"/>
<text text-anchor="middle" x="395" y="-231.5" font-family="Helvetica,sans-Serif" font-size="10.00">HumanForcesProvider.h</text>
</a>
</g>
</g>
<!-- Node1&#45;&gt;Node2 -->
<g id="edge1" class="edge"><title>Node1&#45;&gt;Node2</title>
<path fill="none" stroke="midnightblue" d="M481.109,-280.968C460.538,-269.986 437.217,-257.537 420.038,-248.366"/>
<polygon fill="midnightblue" stroke="midnightblue" points="421.653,-245.261 411.183,-243.639 418.356,-251.436 421.653,-245.261"/>
</g>
<!-- Node15 -->
<g id="node15" class="node"><title>Node15</title>
<polygon fill="none" stroke="#bfbfbf" points="474.5,-224.5 474.5,-243.5 581.5,-243.5 581.5,-224.5 474.5,-224.5"/>
<text text-anchor="middle" x="528" y="-231.5" font-family="Helvetica,sans-Serif" font-size="10.00">yarp/os/LogStream.h</text>
</g>
<!-- Node1&#45;&gt;Node15 -->
<g id="edge24" class="edge"><title>Node1&#45;&gt;Node15</title>
<path fill="none" stroke="midnightblue" d="M528,-280.768C528,-271.89 528,-262.074 528,-253.816"/>
<polygon fill="midnightblue" stroke="midnightblue" points="531.5,-253.757 528,-243.757 524.5,-253.757 531.5,-253.757"/>
</g>
<!-- Node16 -->
<g id="node16" class="node"><title>Node16</title>
<polygon fill="none" stroke="#bfbfbf" points="599.5,-224.5 599.5,-243.5 696.5,-243.5 696.5,-224.5 599.5,-224.5"/>
<text text-anchor="middle" x="648" y="-231.5" font-family="Helvetica,sans-Serif" font-size="10.00">yarp/os/Network.h</text>
</g>
<!-- Node1&#45;&gt;Node16 -->
<g id="edge25" class="edge"><title>Node1&#45;&gt;Node16</title>
<path fill="none" stroke="midnightblue" d="M570.308,-280.968C588.524,-270.19 609.131,-257.997 624.542,-248.879"/>
<polygon fill="midnightblue" stroke="midnightblue" points="626.575,-251.743 633.399,-243.639 623.01,-245.719 626.575,-251.743"/>
</g>
<!-- Node3 -->
<g id="node3" class="node"><title>Node3</title>
<polygon fill="none" stroke="#bfbfbf" points="-0.5,-168.5 -0.5,-187.5 104.5,-187.5 104.5,-168.5 -0.5,-168.5"/>
<text text-anchor="middle" x="52" y="-175.5" font-family="Helvetica,sans-Serif" font-size="10.00">yarp/os/RFModule.h</text>
</g>
<!-- Node2&#45;&gt;Node3 -->
<g id="edge2" class="edge"><title>Node2&#45;&gt;Node3</title>
<path fill="none" stroke="midnightblue" d="M340.651,-224.444C279.238,-214.775 179.434,-199.063 114.755,-188.88"/>
<polygon fill="midnightblue" stroke="midnightblue" points="115.11,-185.393 104.688,-187.295 114.022,-192.308 115.11,-185.393"/>
</g>
<!-- Node4 -->
<g id="node4" class="node"><title>Node4</title>
<polygon fill="none" stroke="#bfbfbf" points="122.5,-168.5 122.5,-187.5 237.5,-187.5 237.5,-168.5 122.5,-168.5"/>
<text text-anchor="middle" x="180" y="-175.5" font-family="Helvetica,sans-Serif" font-size="10.00">yarp/os/BufferedPort.h</text>
</g>
<!-- Node2&#45;&gt;Node4 -->
<g id="edge3" class="edge"><title>Node2&#45;&gt;Node4</title>
<path fill="none" stroke="midnightblue" d="M360.933,-224.444C323.82,-215.122 264.339,-200.183 223.785,-189.997"/>
<polygon fill="midnightblue" stroke="midnightblue" points="224.459,-186.558 213.908,-187.516 222.754,-193.347 224.459,-186.558"/>
</g>
<!-- Node5 -->
<g id="node5" class="node"><title>Node5</title>
<polygon fill="none" stroke="#bfbfbf" points="255.5,-168.5 255.5,-187.5 366.5,-187.5 366.5,-168.5 255.5,-168.5"/>
<text text-anchor="middle" x="311" y="-175.5" font-family="Helvetica,sans-Serif" font-size="10.00">yarp/dev/PolyDriver.h</text>
</g>
<!-- Node2&#45;&gt;Node5 -->
<g id="edge4" class="edge"><title>Node2&#45;&gt;Node5</title>
<path fill="none" stroke="midnightblue" d="M381.504,-224.324C368.4,-215.9 348.288,-202.971 332.893,-193.074"/>
<polygon fill="midnightblue" stroke="midnightblue" points="334.767,-190.118 324.463,-187.655 330.982,-196.006 334.767,-190.118"/>
</g>
<!-- Node6 -->
<g id="node6" class="node"><title>Node6</title>
<polygon fill="none" stroke="#bfbfbf" points="279.5,-112.5 279.5,-131.5 370.5,-131.5 370.5,-112.5 279.5,-112.5"/>
<text text-anchor="middle" x="325" y="-119.5" font-family="Helvetica,sans-Serif" font-size="10.00">yarp/sig/Vector.h</text>
</g>
<!-- Node2&#45;&gt;Node6 -->
<g id="edge5" class="edge"><title>Node2&#45;&gt;Node6</title>
<path fill="none" stroke="midnightblue" d="M393.851,-224.386C391.794,-211.324 386.564,-186.112 375,-168 367.439,-156.157 355.941,-145.507 345.877,-137.544"/>
<polygon fill="midnightblue" stroke="midnightblue" points="347.972,-134.74 337.878,-131.519 343.76,-140.331 347.972,-134.74"/>
</g>
<!-- Node7 -->
<g id="node7" class="node"><title>Node7</title>
<g id="a_node7"><a xlink:href="autogenerated_2include_2thrifts_2_human_forces_8h.html" target="_top" xlink:title="thrifts/HumanForces.h">
<polygon fill="none" stroke="black" points="589,-112.5 589,-131.5 703,-131.5 703,-112.5 589,-112.5"/>
<text text-anchor="middle" x="646" y="-119.5" font-family="Helvetica,sans-Serif" font-size="10.00">thrifts/HumanForces.h</text>
</a>
</g>
</g>
<!-- Node2&#45;&gt;Node7 -->
<g id="edge6" class="edge"><title>Node2&#45;&gt;Node7</title>
<path fill="none" stroke="midnightblue" d="M430.503,-224.487C460.201,-216.762 503.316,-204.124 539,-188 570.747,-173.655 604.685,-151.793 625.625,-137.45"/>
<polygon fill="midnightblue" stroke="midnightblue" points="627.798,-140.202 634.018,-131.625 623.807,-134.451 627.798,-140.202"/>
</g>
<!-- Node11 -->
<g id="node11" class="node"><title>Node11</title>
<g id="a_node11"><a xlink:href="autogenerated_2include_2thrifts_2_human_state_8h.html" target="_top" xlink:title="thrifts/HumanState.h">
<polygon fill="none" stroke="black" points="423.5,-168.5 423.5,-187.5 530.5,-187.5 530.5,-168.5 423.5,-168.5"/>
<text text-anchor="middle" x="477" y="-175.5" font-family="Helvetica,sans-Serif" font-size="10.00">thrifts/HumanState.h</text>
</a>
</g>
</g>
<!-- Node2&#45;&gt;Node11 -->
<g id="edge12" class="edge"><title>Node2&#45;&gt;Node11</title>
<path fill="none" stroke="midnightblue" d="M408.175,-224.324C420.847,-215.979 440.233,-203.212 455.206,-193.352"/>
<polygon fill="midnightblue" stroke="midnightblue" points="457.431,-196.078 463.858,-187.655 453.581,-190.231 457.431,-196.078"/>
</g>
<!-- Node14 -->
<g id="node14" class="node"><title>Node14</title>
<polygon fill="none" stroke="#bfbfbf" points="587,-168.5 587,-187.5 757,-187.5 757,-168.5 587,-168.5"/>
<text text-anchor="middle" x="672" y="-175.5" font-family="Helvetica,sans-Serif" font-size="10.00">geometry_msgs/WrenchStamped.h</text>
</g>
<!-- Node2&#45;&gt;Node14 -->
<g id="edge23" class="edge"><title>Node2&#45;&gt;Node14</title>
<path fill="none" stroke="midnightblue" d="M438.891,-224.444C487.517,-214.964 565.946,-199.675 618.224,-189.483"/>
<polygon fill="midnightblue" stroke="midnightblue" points="619.168,-192.865 628.314,-187.516 617.829,-185.995 619.168,-192.865"/>
</g>
<!-- Node8 -->
<g id="node8" class="node"><title>Node8</title>
<polygon fill="none" stroke="#bfbfbf" points="685,-0.5 685,-19.5 765,-19.5 765,-0.5 685,-0.5"/>
<text text-anchor="middle" x="725" y="-7.5" font-family="Helvetica,sans-Serif" font-size="10.00">yarp/os/Wire.h</text>
</g>
<!-- Node7&#45;&gt;Node8 -->
<g id="edge7" class="edge"><title>Node7&#45;&gt;Node8</title>
<path fill="none" stroke="midnightblue" d="M685.255,-112.475C704.996,-105.99 727.184,-94.8434 739,-76 747.981,-61.6771 742.104,-42.4688 735.43,-28.6525"/>
<polygon fill="midnightblue" stroke="midnightblue" points="738.438,-26.8544 730.631,-19.6919 732.267,-30.1596 738.438,-26.8544"/>
</g>
<!-- Node9 -->
<g id="node9" class="node"><title>Node9</title>
<polygon fill="none" stroke="#bfbfbf" points="448,-0.5 448,-19.5 568,-19.5 568,-0.5 448,-0.5"/>
<text text-anchor="middle" x="508" y="-7.5" font-family="Helvetica,sans-Serif" font-size="10.00">yarp/os/idl/WireTypes.h</text>
</g>
<!-- Node7&#45;&gt;Node9 -->
<g id="edge8" class="edge"><title>Node7&#45;&gt;Node9</title>
<path fill="none" stroke="midnightblue" d="M635.171,-112.368C611.692,-93.6531 555.862,-49.1509 526.608,-25.8324"/>
<polygon fill="midnightblue" stroke="midnightblue" points="528.78,-23.0877 518.778,-19.5914 524.416,-28.5615 528.78,-23.0877"/>
</g>
<!-- Node10 -->
<g id="node10" class="node"><title>Node10</title>
<g id="a_node10"><a xlink:href="autogenerated_2include_2thrifts_2_force6_d_8h.html" target="_top" xlink:title="thrifts/Force6D.h">
<polygon fill="none" stroke="black" points="607,-56.5 607,-75.5 697,-75.5 697,-56.5 607,-56.5"/>
<text text-anchor="middle" x="652" y="-63.5" font-family="Helvetica,sans-Serif" font-size="10.00">thrifts/Force6D.h</text>
</a>
</g>
</g>
<!-- Node7&#45;&gt;Node10 -->
<g id="edge9" class="edge"><title>Node7&#45;&gt;Node10</title>
<path fill="none" stroke="midnightblue" d="M646.991,-112.083C647.786,-104.927 648.929,-94.6353 649.923,-85.6911"/>
<polygon fill="midnightblue" stroke="midnightblue" points="653.402,-86.0765 651.028,-75.7511 646.445,-85.3034 653.402,-86.0765"/>
</g>
<!-- Node10&#45;&gt;Node8 -->
<g id="edge10" class="edge"><title>Node10&#45;&gt;Node8</title>
<path fill="none" stroke="midnightblue" d="M663.729,-56.324C674.837,-48.1066 691.742,-35.6017 704.983,-25.8069"/>
<polygon fill="midnightblue" stroke="midnightblue" points="707.1,-28.5948 713.058,-19.8339 702.937,-22.9671 707.1,-28.5948"/>
</g>
<!-- Node10&#45;&gt;Node9 -->
<g id="edge11" class="edge"><title>Node10&#45;&gt;Node9</title>
<path fill="none" stroke="midnightblue" d="M629.183,-56.4435C605.168,-47.4381 567.171,-33.1891 540.131,-23.049"/>
<polygon fill="midnightblue" stroke="midnightblue" points="541.303,-19.7506 530.71,-19.5164 538.845,-26.3049 541.303,-19.7506"/>
</g>
<!-- Node11&#45;&gt;Node6 -->
<g id="edge22" class="edge"><title>Node11&#45;&gt;Node6</title>
<path fill="none" stroke="midnightblue" d="M452.915,-168.444C427.455,-159.399 387.106,-145.064 358.541,-134.916"/>
<polygon fill="midnightblue" stroke="midnightblue" points="359.567,-131.566 348.972,-131.516 357.223,-138.162 359.567,-131.566"/>
</g>
<!-- Node11&#45;&gt;Node8 -->
<g id="edge13" class="edge"><title>Node11&#45;&gt;Node8</title>
<path fill="none" stroke="midnightblue" d="M530.686,-171.196C590.375,-163.972 682.3,-150.315 712,-132 738.71,-115.529 744.908,-105.713 755,-76 760.781,-58.9799 750.455,-40.4452 740.377,-27.5394"/>
<polygon fill="midnightblue" stroke="midnightblue" points="742.775,-24.9566 733.639,-19.5916 737.436,-29.4829 742.775,-24.9566"/>
</g>
<!-- Node11&#45;&gt;Node9 -->
<g id="edge14" class="edge"><title>Node11&#45;&gt;Node9</title>
<path fill="none" stroke="midnightblue" d="M458.016,-168.398C444.114,-160.954 426.286,-148.741 418,-132 414.057,-124.034 415.777,-120.606 418,-112 425.115,-84.4562 430.405,-77.5293 449,-56 459.334,-44.0357 473.318,-33.2013 485.078,-25.1628"/>
<polygon fill="midnightblue" stroke="midnightblue" points="487.115,-28.0122 493.541,-19.5883 483.264,-22.1666 487.115,-28.0122"/>
</g>
<!-- Node12 -->
<g id="node12" class="node"><title>Node12</title>
<g id="a_node12"><a xlink:href="human-state-provider_2autogenerated_2include_2thrifts_2_quaternion_8h.html" target="_top" xlink:title="thrifts/Quaternion.h">
<polygon fill="none" stroke="black" points="427,-112.5 427,-131.5 527,-131.5 527,-112.5 427,-112.5"/>
<text text-anchor="middle" x="477" y="-119.5" font-family="Helvetica,sans-Serif" font-size="10.00">thrifts/Quaternion.h</text>
</a>
</g>
</g>
<!-- Node11&#45;&gt;Node12 -->
<g id="edge15" class="edge"><title>Node11&#45;&gt;Node12</title>
<path fill="none" stroke="midnightblue" d="M477,-168.083C477,-161.006 477,-150.861 477,-141.986"/>
<polygon fill="midnightblue" stroke="midnightblue" points="480.5,-141.751 477,-131.751 473.5,-141.751 480.5,-141.751"/>
</g>
<!-- Node13 -->
<g id="node13" class="node"><title>Node13</title>
<g id="a_node13"><a xlink:href="human-state-provider_2autogenerated_2include_2thrifts_2_vector3_8h.html" target="_top" xlink:title="thrifts/Vector3.h">
<polygon fill="none" stroke="black" points="465,-56.5 465,-75.5 551,-75.5 551,-56.5 465,-56.5"/>
<text text-anchor="middle" x="508" y="-63.5" font-family="Helvetica,sans-Serif" font-size="10.00">thrifts/Vector3.h</text>
</a>
</g>
</g>
<!-- Node11&#45;&gt;Node13 -->
<g id="edge21" class="edge"><title>Node11&#45;&gt;Node13</title>
<path fill="none" stroke="midnightblue" d="M495.984,-168.398C509.886,-160.954 527.714,-148.741 536,-132 544.048,-115.74 533.497,-96.6128 523.125,-83.3354"/>
<polygon fill="midnightblue" stroke="midnightblue" points="525.663,-80.9169 516.532,-75.5438 520.32,-85.4385 525.663,-80.9169"/>
</g>
<!-- Node12&#45;&gt;Node8 -->
<g id="edge16" class="edge"><title>Node12&#45;&gt;Node8</title>
<path fill="none" stroke="midnightblue" d="M527.254,-117.163C586.566,-111.629 680.386,-99.3987 706,-76 718.866,-64.247 723.203,-44.3144 724.574,-29.6136"/>
<polygon fill="midnightblue" stroke="midnightblue" points="728.069,-29.7946 725.137,-19.6138 721.08,-29.4013 728.069,-29.7946"/>
</g>
<!-- Node12&#45;&gt;Node9 -->
<g id="edge17" class="edge"><title>Node12&#45;&gt;Node9</title>
<path fill="none" stroke="midnightblue" d="M470.2,-112.348C461.113,-99.6623 447.126,-75.4144 456,-56 461.777,-43.3602 473.052,-32.911 483.631,-25.2737"/>
<polygon fill="midnightblue" stroke="midnightblue" points="485.849,-28.0009 492.217,-19.5333 481.958,-22.1817 485.849,-28.0009"/>
</g>
<!-- Node12&#45;&gt;Node13 -->
<g id="edge18" class="edge"><title>Node12&#45;&gt;Node13</title>
<path fill="none" stroke="midnightblue" d="M482.119,-112.083C486.408,-104.613 492.658,-93.7244 497.942,-84.5199"/>
<polygon fill="midnightblue" stroke="midnightblue" points="501.033,-86.1662 502.976,-75.7511 494.962,-82.6811 501.033,-86.1662"/>
</g>
<!-- Node13&#45;&gt;Node8 -->
<g id="edge19" class="edge"><title>Node13&#45;&gt;Node8</title>
<path fill="none" stroke="midnightblue" d="M542.384,-56.4435C579.922,-47.1024 640.131,-32.1194 681.067,-21.9326"/>
<polygon fill="midnightblue" stroke="midnightblue" points="681.918,-25.3278 690.777,-19.5164 680.227,-18.5349 681.918,-25.3278"/>
</g>
<!-- Node13&#45;&gt;Node9 -->
<g id="edge20" class="edge"><title>Node13&#45;&gt;Node9</title>
<path fill="none" stroke="midnightblue" d="M508,-56.083C508,-49.0059 508,-38.8611 508,-29.9865"/>
<polygon fill="midnightblue" stroke="midnightblue" points="511.5,-29.751 508,-19.7511 504.5,-29.7511 511.5,-29.751"/>
</g>
</g>
</svg>
