<?xml version="1.0" encoding="UTF-8" standalone="no"?>
<!DOCTYPE svg PUBLIC "-//W3C//DTD SVG 1.1//EN"
 "http://www.w3.org/Graphics/SVG/1.1/DTD/svg11.dtd">
<!-- Generated by graphviz version 2.36.0 (20140111.2315)
 -->
<!-- Title: Graphical Class Hierarchy Pages: 1 -->
<svg width="242pt" height="675pt"
 viewBox="0.00 0.00 242.00 675.00" xmlns="http://www.w3.org/2000/svg" xmlns:xlink="http://www.w3.org/1999/xlink">
<g id="graph0" class="graph" transform="scale(1 1) rotate(0) translate(4 671)">
<title>Graphical Class Hierarchy</title>
<!-- Node1 -->
<g id="node1" class="node"><title>Node1</title>
<g id="a_node1"><a xlink:href="classyarp_1_1os_1_1_portable.html" target="_top" xlink:title="Portable">
<polygon fill="none" stroke="black" points="0.5,-323.5 0.5,-342.5 53.5,-342.5 53.5,-323.5 0.5,-323.5"/>
<text text-anchor="middle" x="27" y="-330.5" font-family="Helvetica,sans-Serif" font-size="10.00">Portable</text>
</a>
</g>
</g>
<!-- Node2 -->
<g id="node2" class="node"><title>Node2</title>
<g id="a_node2"><a xlink:href="classhuman_1_1_human_state_provider_service__base_link.html" target="_top" xlink:title="human::HumanStateProvider\lService_baseLink">
<polygon fill="none" stroke="black" points="90.5,-637 90.5,-667 233.5,-667 233.5,-637 90.5,-637"/>
<text text-anchor="start" x="98.5" y="-655" font-family="Helvetica,sans-Serif" font-size="10.00">human::HumanStateProvider</text>
<text text-anchor="middle" x="162" y="-644" font-family="Helvetica,sans-Serif" font-size="10.00">Service_baseLink</text>
</a>
</g>
</g>
<!-- Node1&#45;&gt;Node2 -->
<g id="edge1" class="edge"><title>Node1&#45;&gt;Node2</title>
<path fill="none" stroke="midnightblue" d="M29.6786,-352.882C35.0515,-412.064 53.6404,-585.547 90,-627 93.3608,-630.832 97.3454,-634.076 101.686,-636.823"/>
<polygon fill="midnightblue" stroke="midnightblue" points="33.1409,-352.298 28.7789,-342.642 26.1678,-352.91 33.1409,-352.298"/>
</g>
<!-- Node3 -->
<g id="node3" class="node"><title>Node3</title>
<g id="a_node3"><a xlink:href="classhuman_1_1_human_state_provider_service__joints.html" target="_top" xlink:title="human::HumanStateProvider\lService_joints">
<polygon fill="none" stroke="black" points="90.5,-588 90.5,-618 233.5,-618 233.5,-588 90.5,-588"/>
<text text-anchor="start" x="98.5" y="-606" font-family="Helvetica,sans-Serif" font-size="10.00">human::HumanStateProvider</text>
<text text-anchor="middle" x="162" y="-595" font-family="Helvetica,sans-Serif" font-size="10.00">Service_joints</text>
</a>
</g>
</g>
<!-- Node1&#45;&gt;Node3 -->
<g id="edge2" class="edge"><title>Node1&#45;&gt;Node3</title>
<path fill="none" stroke="midnightblue" d="M27.1204,-353.071C26.2273,-399.018 30.5407,-512.888 90,-578 93.5249,-581.86 97.6816,-585.124 102.187,-587.884"/>
<polygon fill="midnightblue" stroke="midnightblue" points="30.6233,-353.025 27.4293,-342.923 23.6266,-352.812 30.6233,-353.025"/>
</g>
<!-- Node4 -->
<g id="node4" class="node"><title>Node4</title>
<g id="a_node4"><a xlink:href="classhuman_1_1_human_state_provider_service__set_base_link.html" target="_top" xlink:title="human::HumanStateProvider\lService_setBaseLink">
<polygon fill="none" stroke="black" points="90.5,-539 90.5,-569 233.5,-569 233.5,-539 90.5,-539"/>
<text text-anchor="start" x="98.5" y="-557" font-family="Helvetica,sans-Serif" font-size="10.00">human::HumanStateProvider</text>
<text text-anchor="middle" x="162" y="-546" font-family="Helvetica,sans-Serif" font-size="10.00">Service_setBaseLink</text>
</a>
</g>
</g>
<!-- Node1&#45;&gt;Node4 -->
<g id="edge3" class="edge"><title>Node1&#45;&gt;Node4</title>
<path fill="none" stroke="midnightblue" d="M28.6449,-352.702C30.9798,-391.655 41.6436,-479.062 90,-529 93.7272,-532.849 98.0817,-536.107 102.767,-538.863"/>
<polygon fill="midnightblue" stroke="midnightblue" points="32.1388,-352.488 28.1687,-342.665 25.1467,-352.82 32.1388,-352.488"/>
</g>
<!-- Node5 -->
<g id="node5" class="node"><title>Node5</title>
<g id="a_node5"><a xlink:href="classxsens_1_1_xsens_driver_service__abort_calibration.html" target="_top" xlink:title="xsens::XsensDriverService\l_abortCalibration">
<polygon fill="none" stroke="black" points="94,-490 94,-520 230,-520 230,-490 94,-490"/>
<text text-anchor="start" x="102" y="-508" font-family="Helvetica,sans-Serif" font-size="10.00">xsens::XsensDriverService</text>
<text text-anchor="middle" x="162" y="-497" font-family="Helvetica,sans-Serif" font-size="10.00">_abortCalibration</text>
</a>
</g>
</g>
<!-- Node1&#45;&gt;Node5 -->
<g id="edge4" class="edge"><title>Node1&#45;&gt;Node5</title>
<path fill="none" stroke="midnightblue" d="M31.1127,-352.871C37.0337,-384.175 52.8156,-445.003 90,-480 94.092,-483.851 98.8125,-487.114 103.835,-489.878"/>
<polygon fill="midnightblue" stroke="midnightblue" points="34.5187,-352.028 29.356,-342.776 27.6223,-353.228 34.5187,-352.028"/>
</g>
<!-- Node6 -->
<g id="node6" class="node"><title>Node6</title>
<g id="a_node6"><a xlink:href="classxsens_1_1_xsens_driver_service__body_dimensions.html" target="_top" xlink:title="xsens::XsensDriverService\l_bodyDimensions">
<polygon fill="none" stroke="black" points="94,-441 94,-471 230,-471 230,-441 94,-441"/>
<text text-anchor="start" x="102" y="-459" font-family="Helvetica,sans-Serif" font-size="10.00">xsens::XsensDriverService</text>
<text text-anchor="middle" x="162" y="-448" font-family="Helvetica,sans-Serif" font-size="10.00">_bodyDimensions</text>
</a>
</g>
</g>
<!-- Node1&#45;&gt;Node6 -->
<g id="edge5" class="edge"><title>Node1&#45;&gt;Node6</title>
<path fill="none" stroke="midnightblue" d="M35.3596,-351.838C44.8467,-373.796 63.3545,-409.776 90,-431 94.8042,-434.827 100.238,-438.091 105.907,-440.87"/>
<polygon fill="midnightblue" stroke="midnightblue" points="38.5863,-350.482 31.5344,-342.575 32.1163,-353.154 38.5863,-350.482"/>
</g>
<!-- Node7 -->
<g id="node7" class="node"><title>Node7</title>
<g id="a_node7"><a xlink:href="classxsens_1_1_xsens_driver_service__calibrate.html" target="_top" xlink:title="xsens::XsensDriverService\l_calibrate">
<polygon fill="none" stroke="black" points="94,-392 94,-422 230,-422 230,-392 94,-392"/>
<text text-anchor="start" x="102" y="-410" font-family="Helvetica,sans-Serif" font-size="10.00">xsens::XsensDriverService</text>
<text text-anchor="middle" x="162" y="-399" font-family="Helvetica,sans-Serif" font-size="10.00">_calibrate</text>
</a>
</g>
</g>
<!-- Node1&#45;&gt;Node7 -->
<g id="edge6" class="edge"><title>Node1&#45;&gt;Node7</title>
<path fill="none" stroke="midnightblue" d="M45.9633,-349.831C57.7686,-360.199 73.9495,-373.155 90,-382 96.7527,-385.721 104.164,-389.055 111.572,-391.983"/>
<polygon fill="midnightblue" stroke="midnightblue" points="47.9753,-346.932 38.205,-342.835 43.2873,-352.131 47.9753,-346.932"/>
</g>
<!-- Node8 -->
<g id="node8" class="node"><title>Node8</title>
<g id="a_node8"><a xlink:href="classxsens_1_1_xsens_driver_service__calibrate_async.html" target="_top" xlink:title="xsens::XsensDriverService\l_calibrateAsync">
<polygon fill="none" stroke="black" points="94,-343 94,-373 230,-373 230,-343 94,-343"/>
<text text-anchor="start" x="102" y="-361" font-family="Helvetica,sans-Serif" font-size="10.00">xsens::XsensDriverService</text>
<text text-anchor="middle" x="162" y="-350" font-family="Helvetica,sans-Serif" font-size="10.00">_calibrateAsync</text>
</a>
</g>
</g>
<!-- Node1&#45;&gt;Node8 -->
<g id="edge7" class="edge"><title>Node1&#45;&gt;Node8</title>
<path fill="none" stroke="midnightblue" d="M63.7346,-339.717C73.1153,-341.48 83.5435,-343.441 93.9886,-345.404"/>
<polygon fill="midnightblue" stroke="midnightblue" points="64.1182,-336.228 53.6437,-337.82 62.825,-343.107 64.1182,-336.228"/>
</g>
<!-- Node9 -->
<g id="node9" class="node"><title>Node9</title>
<g id="a_node9"><a xlink:href="classxsens_1_1_xsens_driver_service__calibrate_async_with_type.html" target="_top" xlink:title="xsens::XsensDriverService\l_calibrateAsyncWithType">
<polygon fill="none" stroke="black" points="94,-294 94,-324 230,-324 230,-294 94,-294"/>
<text text-anchor="start" x="102" y="-312" font-family="Helvetica,sans-Serif" font-size="10.00">xsens::XsensDriverService</text>
<text text-anchor="middle" x="162" y="-301" font-family="Helvetica,sans-Serif" font-size="10.00">_calibrateAsyncWithType</text>
</a>
</g>
</g>
<!-- Node1&#45;&gt;Node9 -->
<g id="edge8" class="edge"><title>Node1&#45;&gt;Node9</title>
<path fill="none" stroke="midnightblue" d="M63.7346,-326.552C73.1153,-324.859 83.5435,-322.977 93.9886,-321.092"/>
<polygon fill="midnightblue" stroke="midnightblue" points="62.8632,-323.152 53.6437,-328.373 64.1064,-330.041 62.8632,-323.152"/>
</g>
<!-- Node10 -->
<g id="node10" class="node"><title>Node10</title>
<g id="a_node10"><a xlink:href="classxsens_1_1_xsens_driver_service__calibrate_with_type.html" target="_top" xlink:title="xsens::XsensDriverService\l_calibrateWithType">
<polygon fill="none" stroke="black" points="94,-245 94,-275 230,-275 230,-245 94,-245"/>
<text text-anchor="start" x="102" y="-263" font-family="Helvetica,sans-Serif" font-size="10.00">xsens::XsensDriverService</text>
<text text-anchor="middle" x="162" y="-252" font-family="Helvetica,sans-Serif" font-size="10.00">_calibrateWithType</text>
</a>
</g>
</g>
<!-- Node1&#45;&gt;Node10 -->
<g id="edge9" class="edge"><title>Node1&#45;&gt;Node10</title>
<path fill="none" stroke="midnightblue" d="M46.0192,-316.534C57.8464,-306.386 74.0309,-293.697 90,-285 96.7712,-281.312 104.193,-277.997 111.605,-275.077"/>
<polygon fill="midnightblue" stroke="midnightblue" points="43.4354,-314.146 38.2425,-323.381 48.061,-319.4 43.4354,-314.146"/>
</g>
<!-- Node11 -->
<g id="node11" class="node"><title>Node11</title>
<g id="a_node11"><a xlink:href="classxsens_1_1_xsens_driver_service__segments.html" target="_top" xlink:title="xsens::XsensDriverService\l_segments">
<polygon fill="none" stroke="black" points="94,-196 94,-226 230,-226 230,-196 94,-196"/>
<text text-anchor="start" x="102" y="-214" font-family="Helvetica,sans-Serif" font-size="10.00">xsens::XsensDriverService</text>
<text text-anchor="middle" x="162" y="-203" font-family="Helvetica,sans-Serif" font-size="10.00">_segments</text>
</a>
</g>
</g>
<!-- Node1&#45;&gt;Node11 -->
<g id="edge10" class="edge"><title>Node1&#45;&gt;Node11</title>
<path fill="none" stroke="midnightblue" d="M35.6868,-313.724C45.3022,-291.938 63.7541,-256.807 90,-236 94.8131,-232.184 100.252,-228.927 105.925,-226.152"/>
<polygon fill="midnightblue" stroke="midnightblue" points="32.3407,-312.652 31.681,-323.226 38.7909,-315.371 32.3407,-312.652"/>
</g>
<!-- Node12 -->
<g id="node12" class="node"><title>Node12</title>
<g id="a_node12"><a xlink:href="classxsens_1_1_xsens_driver_service__set_body_dimension.html" target="_top" xlink:title="xsens::XsensDriverService\l_setBodyDimension">
<polygon fill="none" stroke="black" points="94,-147 94,-177 230,-177 230,-147 94,-147"/>
<text text-anchor="start" x="102" y="-165" font-family="Helvetica,sans-Serif" font-size="10.00">xsens::XsensDriverService</text>
<text text-anchor="middle" x="162" y="-154" font-family="Helvetica,sans-Serif" font-size="10.00">_setBodyDimension</text>
</a>
</g>
</g>
<!-- Node1&#45;&gt;Node12 -->
<g id="edge11" class="edge"><title>Node1&#45;&gt;Node12</title>
<path fill="none" stroke="midnightblue" d="M31.1531,-313.262C37.13,-282.168 52.9877,-221.75 90,-187 94.0967,-183.154 98.8203,-179.894 103.845,-177.133"/>
<polygon fill="midnightblue" stroke="midnightblue" points="27.6749,-312.832 29.3773,-323.289 34.5676,-314.053 27.6749,-312.832"/>
</g>
<!-- Node13 -->
<g id="node13" class="node"><title>Node13</title>
<g id="a_node13"><a xlink:href="classxsens_1_1_xsens_driver_service__set_body_dimensions.html" target="_top" xlink:title="xsens::XsensDriverService\l_setBodyDimensions">
<polygon fill="none" stroke="black" points="94,-98 94,-128 230,-128 230,-98 94,-98"/>
<text text-anchor="start" x="102" y="-116" font-family="Helvetica,sans-Serif" font-size="10.00">xsens::XsensDriverService</text>
<text text-anchor="middle" x="162" y="-105" font-family="Helvetica,sans-Serif" font-size="10.00">_setBodyDimensions</text>
</a>
</g>
</g>
<!-- Node1&#45;&gt;Node13 -->
<g id="edge12" class="edge"><title>Node1&#45;&gt;Node13</title>
<path fill="none" stroke="midnightblue" d="M28.7084,-312.895C31.1626,-273.893 42.038,-187.458 90,-138 93.73,-134.154 98.0864,-130.898 102.773,-128.143"/>
<polygon fill="midnightblue" stroke="midnightblue" points="25.1878,-313.221 28.1853,-323.383 32.1792,-313.57 25.1878,-313.221"/>
</g>
<!-- Node14 -->
<g id="node14" class="node"><title>Node14</title>
<g id="a_node14"><a xlink:href="classxsens_1_1_xsens_driver_service__start_acquisition.html" target="_top" xlink:title="xsens::XsensDriverService\l_startAcquisition">
<polygon fill="none" stroke="black" points="94,-49 94,-79 230,-79 230,-49 94,-49"/>
<text text-anchor="start" x="102" y="-67" font-family="Helvetica,sans-Serif" font-size="10.00">xsens::XsensDriverService</text>
<text text-anchor="middle" x="162" y="-56" font-family="Helvetica,sans-Serif" font-size="10.00">_startAcquisition</text>
</a>
</g>
</g>
<!-- Node1&#45;&gt;Node14 -->
<g id="edge13" class="edge"><title>Node1&#45;&gt;Node14</title>
<path fill="none" stroke="midnightblue" d="M27.1477,-313.01C26.3117,-267.246 30.7371,-153.834 90,-89 93.5268,-85.1417 97.6848,-81.8788 102.191,-79.1194"/>
<polygon fill="midnightblue" stroke="midnightblue" points="23.6523,-313.223 27.4434,-323.116 30.6493,-313.018 23.6523,-313.223"/>
</g>
<!-- Node15 -->
<g id="node15" class="node"><title>Node15</title>
<g id="a_node15"><a xlink:href="classxsens_1_1_xsens_driver_service__stop_acquisition.html" target="_top" xlink:title="xsens::XsensDriverService\l_stopAcquisition">
<polygon fill="none" stroke="black" points="94,-0 94,-30 230,-30 230,-0 94,-0"/>
<text text-anchor="start" x="102" y="-18" font-family="Helvetica,sans-Serif" font-size="10.00">xsens::XsensDriverService</text>
<text text-anchor="middle" x="162" y="-7" font-family="Helvetica,sans-Serif" font-size="10.00">_stopAcquisition</text>
</a>
</g>
</g>
<!-- Node1&#45;&gt;Node15 -->
<g id="edge14" class="edge"><title>Node1&#45;&gt;Node15</title>
<path fill="none" stroke="midnightblue" d="M29.6881,-313.185C35.0878,-254.203 53.7445,-81.3051 90,-40 93.3621,-36.1696 97.3476,-32.9261 101.689,-30.1796"/>
<polygon fill="midnightblue" stroke="midnightblue" points="26.1803,-313.12 28.7837,-323.39 33.1529,-313.738 26.1803,-313.12"/>
</g>
</g>
</svg>
