<?xml version="1.0" encoding="UTF-8" standalone="no"?>
<!DOCTYPE svg PUBLIC "-//W3C//DTD SVG 1.1//EN"
 "http://www.w3.org/Graphics/SVG/1.1/DTD/svg11.dtd">
<!-- Generated by graphviz version 2.36.0 (20140111.2315)
 -->
<!-- Title: Graphical Class Hierarchy Pages: 1 -->
<svg width="536pt" height="28pt"
 viewBox="0.00 0.00 536.00 28.00" xmlns="http://www.w3.org/2000/svg" xmlns:xlink="http://www.w3.org/1999/xlink">
<g id="graph0" class="graph" transform="scale(1 1) rotate(0) translate(4 24)">
<title>Graphical Class Hierarchy</title>
<!-- Node1 -->
<g id="node1" class="node"><title>Node1</title>
<g id="a_node1"><a xlink:href="classhuman_1_1_frame_transformer.html" target="_top" xlink:title="Interface for transforming forces into human frames. In general, given two generic frames A and B...">
<polygon fill="none" stroke="black" points="0,-0.5 0,-19.5 132,-19.5 132,-0.5 0,-0.5"/>
<text text-anchor="middle" x="66" y="-7.5" font-family="Helvetica,sans-Serif" font-size="10.00">human::FrameTransformer</text>
</a>
</g>
</g>
<!-- Node2 -->
<g id="node2" class="node"><title>Node2</title>
<g id="a_node2"><a xlink:href="classhuman_1_1_generic_frame_transformer.html" target="_top" xlink:title="Implementation of the FrameTransformer interface for the conversion of the robot forces into human fo...">
<polygon fill="none" stroke="black" points="168,-0.5 168,-19.5 334,-19.5 334,-0.5 168,-0.5"/>
<text text-anchor="middle" x="251" y="-7.5" font-family="Helvetica,sans-Serif" font-size="10.00">human::GenericFrameTransformer</text>
</a>
</g>
</g>
<!-- Node1&#45;&gt;Node2 -->
<g id="edge1" class="edge"><title>Node1&#45;&gt;Node2</title>
<path fill="none" stroke="midnightblue" d="M142.237,-10C150.696,-10 159.346,-10 167.886,-10"/>
<polygon fill="midnightblue" stroke="midnightblue" points="142.034,-6.5001 132.034,-10 142.034,-13.5001 142.034,-6.5001"/>
</g>
<!-- Node3 -->
<g id="node3" class="node"><title>Node3</title>
<g id="a_node3"><a xlink:href="classhuman_1_1_robot_frame_transformer.html" target="_top" xlink:title="Implementation of the FrameTransformer interface for the conversion of the robot forces into human fo...">
<polygon fill="none" stroke="black" points="370,-0.5 370,-19.5 528,-19.5 528,-0.5 370,-0.5"/>
<text text-anchor="middle" x="449" y="-7.5" font-family="Helvetica,sans-Serif" font-size="10.00">human::RobotFrameTransformer</text>
</a>
</g>
</g>
<!-- Node2&#45;&gt;Node3 -->
<g id="edge2" class="edge"><title>Node2&#45;&gt;Node3</title>
<path fill="none" stroke="midnightblue" d="M344.505,-10C352.932,-10 361.414,-10 369.699,-10"/>
<polygon fill="midnightblue" stroke="midnightblue" points="344.27,-6.5001 334.27,-10 344.27,-13.5001 344.27,-6.5001"/>
</g>
</g>
</svg>
