<?xml version="1.0" encoding="UTF-8" standalone="no"?>
<!DOCTYPE svg PUBLIC "-//W3C//DTD SVG 1.1//EN"
 "http://www.w3.org/Graphics/SVG/1.1/DTD/svg11.dtd">
<!-- Generated by graphviz version 2.36.0 (20140111.2315)
 -->
<!-- Title: Graphical Class Hierarchy Pages: 1 -->
<svg width="460pt" height="66pt"
 viewBox="0.00 0.00 460.00 66.00" xmlns="http://www.w3.org/2000/svg" xmlns:xlink="http://www.w3.org/1999/xlink">
<g id="graph0" class="graph" transform="scale(1 1) rotate(0) translate(4 62)">
<title>Graphical Class Hierarchy</title>
<!-- Node1 -->
<g id="node1" class="node"><title>Node1</title>
<g id="a_node1"><a xlink:href="classhuman_1_1_force_reader.html" target="_top" xlink:title="Interface for reading forces from device and sensors. ">
<polygon fill="none" stroke="black" points="0,-19.5 0,-38.5 108,-38.5 108,-19.5 0,-19.5"/>
<text text-anchor="middle" x="54" y="-26.5" font-family="Helvetica,sans-Serif" font-size="10.00">human::ForceReader</text>
</a>
</g>
</g>
<!-- Node2 -->
<g id="node2" class="node"><title>Node2</title>
<g id="a_node2"><a xlink:href="classhuman_1_1_abstract_force_reader.html" target="_top" xlink:title="Abstract class for implementing code required from its derived classes. ">
<polygon fill="none" stroke="black" points="144.5,-19.5 144.5,-38.5 289.5,-38.5 289.5,-19.5 144.5,-19.5"/>
<text text-anchor="middle" x="217" y="-26.5" font-family="Helvetica,sans-Serif" font-size="10.00">human::AbstractForceReader</text>
</a>
</g>
</g>
<!-- Node1&#45;&gt;Node2 -->
<g id="edge1" class="edge"><title>Node1&#45;&gt;Node2</title>
<path fill="none" stroke="midnightblue" d="M118.358,-29C126.846,-29 135.6,-29 144.22,-29"/>
<polygon fill="midnightblue" stroke="midnightblue" points="118.164,-25.5001 108.164,-29 118.164,-32.5001 118.164,-25.5001"/>
</g>
<!-- Node3 -->
<g id="node3" class="node"><title>Node3</title>
<g id="a_node3"><a xlink:href="classhuman_1_1_f_t_force_reader.html" target="_top" xlink:title="Implementation of the ForceReader interface for handling forces coming from devices. ">
<polygon fill="none" stroke="black" points="329,-38.5 329,-57.5 449,-57.5 449,-38.5 329,-38.5"/>
<text text-anchor="middle" x="389" y="-45.5" font-family="Helvetica,sans-Serif" font-size="10.00">human::FTForceReader</text>
</a>
</g>
</g>
<!-- Node2&#45;&gt;Node3 -->
<g id="edge2" class="edge"><title>Node2&#45;&gt;Node3</title>
<path fill="none" stroke="midnightblue" d="M299.773,-38.1394C309.574,-39.2348 319.432,-40.3366 328.826,-41.3864"/>
<polygon fill="midnightblue" stroke="midnightblue" points="299.93,-34.6351 289.603,-37.0026 299.152,-41.5918 299.93,-34.6351"/>
</g>
<!-- Node4 -->
<g id="node4" class="node"><title>Node4</title>
<g id="a_node4"><a xlink:href="classhuman_1_1_port_force_reader.html" target="_top" xlink:title="Implementation of the ForceReader interface for handling forces coming from a YARP port...">
<polygon fill="none" stroke="black" points="326,-0.5 326,-19.5 452,-19.5 452,-0.5 326,-0.5"/>
<text text-anchor="middle" x="389" y="-7.5" font-family="Helvetica,sans-Serif" font-size="10.00">human::PortForceReader</text>
</a>
</g>
</g>
<!-- Node2&#45;&gt;Node4 -->
<g id="edge3" class="edge"><title>Node2&#45;&gt;Node4</title>
<path fill="none" stroke="midnightblue" d="M299.565,-19.8839C308.426,-18.8936 317.337,-17.8977 325.911,-16.9394"/>
<polygon fill="midnightblue" stroke="midnightblue" points="299.152,-16.4082 289.603,-20.9974 299.93,-23.3649 299.152,-16.4082"/>
</g>
</g>
</svg>
