<?xml version="1.0" encoding="UTF-8" standalone="no"?>
<!DOCTYPE svg PUBLIC "-//W3C//DTD SVG 1.1//EN"
 "http://www.w3.org/Graphics/SVG/1.1/DTD/svg11.dtd">
<!-- Generated by graphviz version 2.36.0 (20140111.2315)
 -->
<!-- Title: Graphical Class Hierarchy Pages: 1 -->
<svg width="302pt" height="305pt"
 viewBox="0.00 0.00 302.00 305.00" xmlns="http://www.w3.org/2000/svg" xmlns:xlink="http://www.w3.org/1999/xlink">
<g id="graph0" class="graph" transform="scale(1 1) rotate(0) translate(4 301)">
<title>Graphical Class Hierarchy</title>
<!-- Node1 -->
<g id="node1" class="node"><title>Node1</title>
<polygon fill="none" stroke="#bfbfbf" points="26,-144.5 26,-163.5 88,-163.5 88,-144.5 26,-144.5"/>
<text text-anchor="middle" x="57" y="-151.5" font-family="Helvetica,sans-Serif" font-size="10.00">RFModule</text>
</g>
<!-- Node2 -->
<g id="node2" class="node"><title>Node2</title>
<g id="a_node2"><a xlink:href="classhuman_1_1_human_state_provider.html" target="_top" xlink:title="human::HumanStateProvider">
<polygon fill="none" stroke="black" points="150.5,-87.5 150.5,-106.5 293.5,-106.5 293.5,-87.5 150.5,-87.5"/>
<text text-anchor="middle" x="222" y="-94.5" font-family="Helvetica,sans-Serif" font-size="10.00">human::HumanStateProvider</text>
</a>
</g>
</g>
<!-- Node1&#45;&gt;Node2 -->
<g id="edge1" class="edge"><title>Node1&#45;&gt;Node2</title>
<path fill="none" stroke="midnightblue" d="M88.1831,-140.368C105.96,-132.633 129.009,-123.11 150,-116 160.152,-112.561 171.286,-109.334 181.665,-106.549"/>
<polygon fill="midnightblue" stroke="midnightblue" points="86.6399,-137.223 78.8962,-144.453 89.459,-143.63 86.6399,-137.223"/>
</g>
<!-- Node3 -->
<g id="node3" class="node"><title>Node3</title>
<g id="a_node3"><a xlink:href="class_human_dynamics_estimator.html" target="_top" xlink:title="HumanDynamicsEstimator">
<polygon fill="none" stroke="black" points="155,-239.5 155,-258.5 289,-258.5 289,-239.5 155,-239.5"/>
<text text-anchor="middle" x="222" y="-246.5" font-family="Helvetica,sans-Serif" font-size="10.00">HumanDynamicsEstimator</text>
</a>
</g>
</g>
<!-- Node1&#45;&gt;Node3 -->
<g id="edge2" class="edge"><title>Node1&#45;&gt;Node3</title>
<path fill="none" stroke="midnightblue" d="M73.9844,-170.943C91.1923,-188.219 120.138,-214.607 150,-230 157.372,-233.8 165.578,-236.896 173.719,-239.399"/>
<polygon fill="midnightblue" stroke="midnightblue" points="76.4292,-168.437 66.9429,-163.719 71.4164,-173.323 76.4292,-168.437"/>
</g>
<!-- Node4 -->
<g id="node4" class="node"><title>Node4</title>
<g id="a_node4"><a xlink:href="class_human_effort_bridge.html" target="_top" xlink:title="HumanEffortBridge">
<polygon fill="none" stroke="black" points="172,-277.5 172,-296.5 272,-296.5 272,-277.5 172,-277.5"/>
<text text-anchor="middle" x="222" y="-284.5" font-family="Helvetica,sans-Serif" font-size="10.00">HumanEffortBridge</text>
</a>
</g>
</g>
<!-- Node1&#45;&gt;Node4 -->
<g id="edge3" class="edge"><title>Node1&#45;&gt;Node4</title>
<path fill="none" stroke="midnightblue" d="M67.985,-172.665C82.5808,-198.128 112.168,-243.395 150,-268 156.632,-272.313 164.216,-275.652 171.902,-278.235"/>
<polygon fill="midnightblue" stroke="midnightblue" points="70.8997,-170.704 62.9808,-163.666 64.7819,-174.106 70.8997,-170.704"/>
</g>
<!-- Node5 -->
<g id="node5" class="node"><title>Node5</title>
<g id="a_node5"><a xlink:href="class_human_forces_provider.html" target="_top" xlink:title="HumanForcesProvider">
<polygon fill="none" stroke="black" points="165,-201.5 165,-220.5 279,-220.5 279,-201.5 165,-201.5"/>
<text text-anchor="middle" x="222" y="-208.5" font-family="Helvetica,sans-Serif" font-size="10.00">HumanForcesProvider</text>
</a>
</g>
</g>
<!-- Node1&#45;&gt;Node5 -->
<g id="edge4" class="edge"><title>Node1&#45;&gt;Node5</title>
<path fill="none" stroke="midnightblue" d="M88.1831,-167.632C105.96,-175.367 129.009,-184.89 150,-192 160.152,-195.439 171.286,-198.666 181.665,-201.451"/>
<polygon fill="midnightblue" stroke="midnightblue" points="89.459,-164.37 78.8962,-163.547 86.6399,-170.777 89.459,-164.37"/>
</g>
<!-- Node6 -->
<g id="node6" class="node"><title>Node6</title>
<g id="a_node6"><a xlink:href="class_human_robot_pose.html" target="_top" xlink:title="HumanRobotPose">
<polygon fill="none" stroke="black" points="173.5,-163.5 173.5,-182.5 270.5,-182.5 270.5,-163.5 173.5,-163.5"/>
<text text-anchor="middle" x="222" y="-170.5" font-family="Helvetica,sans-Serif" font-size="10.00">HumanRobotPose</text>
</a>
</g>
</g>
<!-- Node1&#45;&gt;Node6 -->
<g id="edge5" class="edge"><title>Node1&#45;&gt;Node6</title>
<path fill="none" stroke="midnightblue" d="M98.2609,-158.693C120.96,-161.339 149.454,-164.66 173.272,-167.437"/>
<polygon fill="midnightblue" stroke="midnightblue" points="98.6151,-155.211 88.277,-157.529 97.8045,-162.164 98.6151,-155.211"/>
</g>
<!-- Node7 -->
<g id="node7" class="node"><title>Node7</title>
<g id="a_node7"><a xlink:href="class_human_t_f_bridge.html" target="_top" xlink:title="HumanTFBridge">
<polygon fill="none" stroke="black" points="178,-49.5 178,-68.5 266,-68.5 266,-49.5 178,-49.5"/>
<text text-anchor="middle" x="222" y="-56.5" font-family="Helvetica,sans-Serif" font-size="10.00">HumanTFBridge</text>
</a>
</g>
</g>
<!-- Node1&#45;&gt;Node7 -->
<g id="edge6" class="edge"><title>Node1&#45;&gt;Node7</title>
<path fill="none" stroke="midnightblue" d="M73.9844,-137.057C91.1923,-119.781 120.138,-93.3935 150,-78 158.62,-73.5566 168.379,-70.0769 177.842,-67.3803"/>
<polygon fill="midnightblue" stroke="midnightblue" points="71.4164,-134.677 66.9429,-144.281 76.4292,-139.563 71.4164,-134.677"/>
</g>
<!-- Node8 -->
<g id="node8" class="node"><title>Node8</title>
<g id="a_node8"><a xlink:href="class_robot_base_pose_publisher.html" target="_top" xlink:title="RobotBasePosePublisher">
<polygon fill="none" stroke="black" points="158,-125.5 158,-144.5 286,-144.5 286,-125.5 158,-125.5"/>
<text text-anchor="middle" x="222" y="-132.5" font-family="Helvetica,sans-Serif" font-size="10.00">RobotBasePosePublisher</text>
</a>
</g>
</g>
<!-- Node1&#45;&gt;Node8 -->
<g id="edge7" class="edge"><title>Node1&#45;&gt;Node8</title>
<path fill="none" stroke="midnightblue" d="M98.3771,-149.293C116.303,-147.204 137.826,-144.695 157.801,-142.367"/>
<polygon fill="midnightblue" stroke="midnightblue" points="97.8045,-145.836 88.277,-150.471 98.6151,-152.789 97.8045,-145.836"/>
</g>
<!-- Node9 -->
<g id="node9" class="node"><title>Node9</title>
<g id="a_node9"><a xlink:href="classxsens_joint_state_publisher_module.html" target="_top" xlink:title="xsensJointStatePublisher\lModule">
<polygon fill="none" stroke="black" points="158,-0 158,-30 286,-30 286,-0 158,-0"/>
<text text-anchor="start" x="166" y="-18" font-family="Helvetica,sans-Serif" font-size="10.00">xsensJointStatePublisher</text>
<text text-anchor="middle" x="222" y="-7" font-family="Helvetica,sans-Serif" font-size="10.00">Module</text>
</a>
</g>
</g>
<!-- Node1&#45;&gt;Node9 -->
<g id="edge8" class="edge"><title>Node1&#45;&gt;Node9</title>
<path fill="none" stroke="midnightblue" d="M68.4845,-135.368C83.4781,-110.31 113.328,-65.9145 150,-40 155.443,-36.1538 161.535,-32.8478 167.802,-30.0195"/>
<polygon fill="midnightblue" stroke="midnightblue" points="65.3279,-133.833 63.3177,-144.235 71.3762,-137.357 65.3279,-133.833"/>
</g>
<!-- Node10 -->
<g id="node10" class="node"><title>Node10</title>
<polygon fill="none" stroke="#bfbfbf" points="0.5,-277.5 0.5,-296.5 113.5,-296.5 113.5,-277.5 0.5,-277.5"/>
<text text-anchor="middle" x="57" y="-284.5" font-family="Helvetica,sans-Serif" font-size="10.00">TypedReaderCallback</text>
</g>
<!-- Node10&#45;&gt;Node4 -->
<g id="edge9" class="edge"><title>Node10&#45;&gt;Node4</title>
<path fill="none" stroke="midnightblue" d="M124.005,-287C140,-287 156.823,-287 171.883,-287"/>
<polygon fill="midnightblue" stroke="midnightblue" points="123.639,-283.5 113.639,-287 123.639,-290.5 123.639,-283.5"/>
</g>
<!-- Node11 -->
<g id="node11" class="node"><title>Node11</title>
<polygon fill="none" stroke="#bfbfbf" points="0.5,-27.5 0.5,-46.5 113.5,-46.5 113.5,-27.5 0.5,-27.5"/>
<text text-anchor="middle" x="57" y="-34.5" font-family="Helvetica,sans-Serif" font-size="10.00">TypedReaderCallback</text>
</g>
<!-- Node11&#45;&gt;Node7 -->
<g id="edge10" class="edge"><title>Node11&#45;&gt;Node7</title>
<path fill="none" stroke="midnightblue" d="M123.659,-45.862C141.944,-48.3299 161.335,-50.9471 177.957,-53.1905"/>
<polygon fill="midnightblue" stroke="midnightblue" points="124.018,-42.3787 113.639,-44.5096 123.081,-49.3158 124.018,-42.3787"/>
</g>
<!-- Node11&#45;&gt;Node9 -->
<g id="edge11" class="edge"><title>Node11&#45;&gt;Node9</title>
<path fill="none" stroke="midnightblue" d="M123.793,-28.12C135.003,-26.607 146.625,-25.0384 157.767,-23.5346"/>
<polygon fill="midnightblue" stroke="midnightblue" points="123.081,-24.6842 113.639,-29.4904 124.018,-31.6213 123.081,-24.6842"/>
</g>
</g>
</svg>
