<?xml version="1.0" encoding="UTF-8" standalone="no"?>
<!DOCTYPE svg PUBLIC "-//W3C//DTD SVG 1.1//EN"
 "http://www.w3.org/Graphics/SVG/1.1/DTD/svg11.dtd">
<!-- Generated by graphviz version 2.36.0 (20140111.2315)
 -->
<!-- Title: Graphical Class Hierarchy Pages: 1 -->
<svg width="454pt" height="180pt"
 viewBox="0.00 0.00 454.00 180.00" xmlns="http://www.w3.org/2000/svg" xmlns:xlink="http://www.w3.org/1999/xlink">
<g id="graph0" class="graph" transform="scale(1 1) rotate(0) translate(4 176)">
<title>Graphical Class Hierarchy</title>
<!-- Node1 -->
<g id="node1" class="node"><title>Node1</title>
<polygon fill="none" stroke="#bfbfbf" points="8,-76.5 8,-95.5 82,-95.5 82,-76.5 8,-76.5"/>
<text text-anchor="middle" x="45" y="-83.5" font-family="Helvetica,sans-Serif" font-size="10.00">DeviceDriver</text>
</g>
<!-- Node2 -->
<g id="node2" class="node"><title>Node2</title>
<g id="a_node2"><a xlink:href="classyarp_1_1dev_1_1_read_only_control_board_remapper.html" target="_top" xlink:title="yarp::dev::ReadOnlyControl\lBoardRemapper">
<polygon fill="none" stroke="black" points="128,-76 128,-106 266,-106 266,-76 128,-76"/>
<text text-anchor="start" x="136" y="-94" font-family="Helvetica,sans-Serif" font-size="10.00">yarp::dev::ReadOnlyControl</text>
<text text-anchor="middle" x="197" y="-83" font-family="Helvetica,sans-Serif" font-size="10.00">BoardRemapper</text>
</a>
</g>
</g>
<!-- Node1&#45;&gt;Node2 -->
<g id="edge1" class="edge"><title>Node1&#45;&gt;Node2</title>
<path fill="none" stroke="midnightblue" d="M92.6423,-87.5547C103.771,-87.9257 115.877,-88.3292 127.755,-88.7252"/>
<polygon fill="midnightblue" stroke="midnightblue" points="92.4219,-84.0455 82.3108,-87.2104 92.1886,-91.0417 92.4219,-84.0455"/>
</g>
<!-- Node4 -->
<g id="node4" class="node"><title>Node4</title>
<g id="a_node4"><a xlink:href="classyarp_1_1dev_1_1_read_only_remote_control_board.html" target="_top" xlink:title="Readonly version of the remote control board. ">
<polygon fill="none" stroke="black" points="126.5,-27 126.5,-57 267.5,-57 267.5,-27 126.5,-27"/>
<text text-anchor="start" x="134.5" y="-45" font-family="Helvetica,sans-Serif" font-size="10.00">yarp::dev::ReadOnlyRemote</text>
<text text-anchor="middle" x="197" y="-34" font-family="Helvetica,sans-Serif" font-size="10.00">ControlBoard</text>
</a>
</g>
</g>
<!-- Node1&#45;&gt;Node4 -->
<g id="edge3" class="edge"><title>Node1&#45;&gt;Node4</title>
<path fill="none" stroke="midnightblue" d="M88.4611,-73.5447C105.936,-68.4187 126.335,-62.4351 144.641,-57.0654"/>
<polygon fill="midnightblue" stroke="midnightblue" points="87.1583,-70.2794 78.5478,-76.4527 89.1286,-76.9963 87.1583,-70.2794"/>
</g>
<!-- Node3 -->
<g id="node3" class="node"><title>Node3</title>
<g id="a_node3"><a xlink:href="classyarp_1_1dev_1_1_read_only_remote_control_board_remapper.html" target="_top" xlink:title="yarp::dev::ReadOnlyRemote\lControlBoardRemapper">
<polygon fill="none" stroke="black" points="304.5,-76 304.5,-106 445.5,-106 445.5,-76 304.5,-76"/>
<text text-anchor="start" x="312.5" y="-94" font-family="Helvetica,sans-Serif" font-size="10.00">yarp::dev::ReadOnlyRemote</text>
<text text-anchor="middle" x="375" y="-83" font-family="Helvetica,sans-Serif" font-size="10.00">ControlBoardRemapper</text>
</a>
</g>
</g>
<!-- Node2&#45;&gt;Node3 -->
<g id="edge2" class="edge"><title>Node2&#45;&gt;Node3</title>
<path fill="none" stroke="midnightblue" d="M276.168,-91C285.569,-91 295.123,-91 304.391,-91"/>
<polygon fill="midnightblue" stroke="midnightblue" points="276.046,-87.5001 266.046,-91 276.046,-94.5001 276.046,-87.5001"/>
</g>
<!-- Node5 -->
<g id="node5" class="node"><title>Node5</title>
<polygon fill="none" stroke="#bfbfbf" points="17,-38.5 17,-57.5 73,-57.5 73,-38.5 17,-38.5"/>
<text text-anchor="middle" x="45" y="-45.5" font-family="Helvetica,sans-Serif" font-size="10.00">IAxisInfo</text>
</g>
<!-- Node5&#45;&gt;Node2 -->
<g id="edge4" class="edge"><title>Node5&#45;&gt;Node2</title>
<path fill="none" stroke="midnightblue" d="M82.8511,-58.564C101.125,-63.8025 123.517,-70.2214 143.544,-75.9626"/>
<polygon fill="midnightblue" stroke="midnightblue" points="83.7412,-55.1782 73.1639,-55.787 81.8122,-61.9072 83.7412,-55.1782"/>
</g>
<!-- Node5&#45;&gt;Node4 -->
<g id="edge5" class="edge"><title>Node5&#45;&gt;Node4</title>
<path fill="none" stroke="midnightblue" d="M83.5445,-46.4982C96.526,-45.979 111.522,-45.3791 126.246,-44.7901"/>
<polygon fill="midnightblue" stroke="midnightblue" points="83.016,-43.0165 73.1639,-46.9134 83.2958,-50.0109 83.016,-43.0165"/>
</g>
<!-- Node6 -->
<g id="node6" class="node"><title>Node6</title>
<polygon fill="none" stroke="#bfbfbf" points="1,-0.5 1,-19.5 89,-19.5 89,-0.5 1,-0.5"/>
<text text-anchor="middle" x="45" y="-7.5" font-family="Helvetica,sans-Serif" font-size="10.00">IEncodersTimed</text>
</g>
<!-- Node6&#45;&gt;Node2 -->
<g id="edge6" class="edge"><title>Node6&#45;&gt;Node2</title>
<path fill="none" stroke="midnightblue" d="M81.9852,-24.112C84.7711,-25.6309 87.4778,-27.262 90,-29 108.893,-42.0187 106.697,-53.5983 126,-66 131.863,-69.7666 138.367,-73.0566 144.981,-75.9033"/>
<polygon fill="midnightblue" stroke="midnightblue" points="83.4619,-20.9378 72.9457,-19.6488 80.3628,-27.2144 83.4619,-20.9378"/>
</g>
<!-- Node6&#45;&gt;Node4 -->
<g id="edge7" class="edge"><title>Node6&#45;&gt;Node4</title>
<path fill="none" stroke="midnightblue" d="M99.4297,-21.3983C108.18,-23.2651 117.359,-25.2232 126.431,-27.1585"/>
<polygon fill="midnightblue" stroke="midnightblue" points="99.8964,-17.9192 89.3862,-19.2557 98.4359,-24.7652 99.8964,-17.9192"/>
</g>
<!-- Node7 -->
<g id="node7" class="node"><title>Node7</title>
<polygon fill="none" stroke="#bfbfbf" points="0,-114.5 0,-133.5 90,-133.5 90,-114.5 0,-114.5"/>
<text text-anchor="middle" x="45" y="-121.5" font-family="Helvetica,sans-Serif" font-size="10.00">IMultipleWrapper</text>
</g>
<!-- Node7&#45;&gt;Node2 -->
<g id="edge8" class="edge"><title>Node7&#45;&gt;Node2</title>
<path fill="none" stroke="midnightblue" d="M99.2211,-112.291C108.488,-110.253 118.241,-108.107 127.843,-105.995"/>
<polygon fill="midnightblue" stroke="midnightblue" points="98.4006,-108.888 89.3862,-114.455 99.9047,-115.725 98.4006,-108.888"/>
</g>
<!-- Node8 -->
<g id="node8" class="node"><title>Node8</title>
<polygon fill="none" stroke="#bfbfbf" points="1.5,-152.5 1.5,-171.5 88.5,-171.5 88.5,-152.5 1.5,-152.5"/>
<text text-anchor="middle" x="45" y="-159.5" font-family="Helvetica,sans-Serif" font-size="10.00">IPreciselyTimed</text>
</g>
<!-- Node8&#45;&gt;Node2 -->
<g id="edge9" class="edge"><title>Node8&#45;&gt;Node2</title>
<path fill="none" stroke="midnightblue" d="M78.132,-148.339C82.1411,-146.572 86.1744,-144.763 90,-143 115.876,-131.075 144.903,-116.769 166.03,-106.184"/>
<polygon fill="midnightblue" stroke="midnightblue" points="76.7004,-145.145 68.9301,-152.348 79.4958,-151.563 76.7004,-145.145"/>
</g>
</g>
</svg>
