<?xml version="1.0" encoding="UTF-8" standalone="no"?>
<!DOCTYPE svg PUBLIC "-//W3C//DTD SVG 1.1//EN"
 "http://www.w3.org/Graphics/SVG/1.1/DTD/svg11.dtd">
<!-- Generated by graphviz version 2.36.0 (20140111.2315)
 -->
<!-- Title: Graphical Class Hierarchy Pages: 1 -->
<svg width="194pt" height="66pt"
 viewBox="0.00 0.00 194.00 66.00" xmlns="http://www.w3.org/2000/svg" xmlns:xlink="http://www.w3.org/1999/xlink">
<g id="graph0" class="graph" transform="scale(1 1) rotate(0) translate(4 62)">
<title>Graphical Class Hierarchy</title>
<!-- Node1 -->
<g id="node1" class="node"><title>Node1</title>
<polygon fill="none" stroke="#bfbfbf" points="0.5,-38.5 0.5,-57.5 61.5,-57.5 61.5,-38.5 0.5,-38.5"/>
<text text-anchor="middle" x="31" y="-45.5" font-family="Helvetica,sans-Serif" font-size="10.00">PortWriter</text>
</g>
<!-- Node2 -->
<g id="node2" class="node"><title>Node2</title>
<g id="a_node2"><a xlink:href="classjoint_data_1_1_editor.html" target="_top" xlink:title="jointData::Editor">
<polygon fill="none" stroke="black" points="98.5,-19.5 98.5,-38.5 185.5,-38.5 185.5,-19.5 98.5,-19.5"/>
<text text-anchor="middle" x="142" y="-26.5" font-family="Helvetica,sans-Serif" font-size="10.00">jointData::Editor</text>
</a>
</g>
</g>
<!-- Node1&#45;&gt;Node2 -->
<g id="edge1" class="edge"><title>Node1&#45;&gt;Node2</title>
<path fill="none" stroke="midnightblue" d="M71.8964,-41.0456C80.4479,-39.5549 89.5174,-37.974 98.1745,-36.465"/>
<polygon fill="midnightblue" stroke="midnightblue" points="71.0351,-37.6429 61.7847,-42.8082 72.2372,-44.5389 71.0351,-37.6429"/>
</g>
<!-- Node3 -->
<g id="node3" class="node"><title>Node3</title>
<polygon fill="none" stroke="#bfbfbf" points="12.5,-0.5 12.5,-19.5 49.5,-19.5 49.5,-0.5 12.5,-0.5"/>
<text text-anchor="middle" x="31" y="-7.5" font-family="Helvetica,sans-Serif" font-size="10.00">Wire</text>
</g>
<!-- Node3&#45;&gt;Node2 -->
<g id="edge2" class="edge"><title>Node3&#45;&gt;Node2</title>
<path fill="none" stroke="midnightblue" d="M59.5393,-14.8004C71.2327,-16.8387 85.1395,-19.2628 98.1232,-21.5261"/>
<polygon fill="midnightblue" stroke="midnightblue" points="59.9652,-11.322 49.5127,-13.0527 58.7631,-18.218 59.9652,-11.322"/>
</g>
</g>
</svg>
