<?xml version="1.0" encoding="UTF-8" standalone="no"?>
<!DOCTYPE svg PUBLIC "-//W3C//DTD SVG 1.1//EN"
 "http://www.w3.org/Graphics/SVG/1.1/DTD/svg11.dtd">
<!-- Generated by graphviz version 2.36.0 (20140111.2315)
 -->
<!-- Title: Graphical Class Hierarchy Pages: 1 -->
<svg width="450pt" height="820pt"
 viewBox="0.00 0.00 450.00 820.00" xmlns="http://www.w3.org/2000/svg" xmlns:xlink="http://www.w3.org/1999/xlink">
<g id="graph0" class="graph" transform="scale(1 1) rotate(0) translate(4 816)">
<title>Graphical Class Hierarchy</title>
<!-- Node1 -->
<g id="node1" class="node"><title>Node1</title>
<g id="a_node1"><a xlink:href="classyarp_1_1os_1_1_port_writer.html" target="_top" xlink:title="PortWriter">
<polygon fill="none" stroke="black" points="0.5,-448.5 0.5,-467.5 61.5,-467.5 61.5,-448.5 0.5,-448.5"/>
<text text-anchor="middle" x="31" y="-455.5" font-family="Helvetica,sans-Serif" font-size="10.00">PortWriter</text>
</a>
</g>
</g>
<!-- Node2 -->
<g id="node2" class="node"><title>Node2</title>
<g id="a_node2"><a xlink:href="classhuman_1_1_force6_d_1_1_editor.html" target="_top" xlink:title="human::Force6D::Editor">
<polygon fill="none" stroke="black" points="119.5,-235.5 119.5,-254.5 240.5,-254.5 240.5,-235.5 119.5,-235.5"/>
<text text-anchor="middle" x="180" y="-242.5" font-family="Helvetica,sans-Serif" font-size="10.00">human::Force6D::Editor</text>
</a>
</g>
</g>
<!-- Node1&#45;&gt;Node2 -->
<g id="edge1" class="edge"><title>Node1&#45;&gt;Node2</title>
<path fill="none" stroke="midnightblue" d="M49.1673,-440.749C53.9327,-435.153 58.6992,-428.661 62,-422 93.7862,-357.855 47.8028,-316.041 98,-265 103.891,-259.01 111.27,-254.708 119.161,-251.636"/>
<polygon fill="midnightblue" stroke="midnightblue" points="46.5069,-438.472 42.3572,-448.22 51.6803,-443.188 46.5069,-438.472"/>
</g>
<!-- Node3 -->
<g id="node3" class="node"><title>Node3</title>
<g id="a_node3"><a xlink:href="classhuman_1_1_human_dynamics_1_1_editor.html" target="_top" xlink:title="human::HumanDynamics\l::Editor">
<polygon fill="none" stroke="black" points="116,-186 116,-216 244,-216 244,-186 116,-186"/>
<text text-anchor="start" x="124" y="-204" font-family="Helvetica,sans-Serif" font-size="10.00">human::HumanDynamics</text>
<text text-anchor="middle" x="180" y="-193" font-family="Helvetica,sans-Serif" font-size="10.00">::Editor</text>
</a>
</g>
</g>
<!-- Node1&#45;&gt;Node3 -->
<g id="edge2" class="edge"><title>Node1&#45;&gt;Node3</title>
<path fill="none" stroke="midnightblue" d="M49.3491,-440.837C54.1211,-435.244 58.8457,-428.732 62,-422 99.5799,-341.8 39.1652,-292.203 98,-226 102.986,-220.39 109.2,-216.022 115.955,-212.626"/>
<polygon fill="midnightblue" stroke="midnightblue" points="46.6895,-438.558 42.5009,-448.29 51.8441,-443.294 46.6895,-438.558"/>
</g>
<!-- Node4 -->
<g id="node4" class="node"><title>Node4</title>
<g id="a_node4"><a xlink:href="classhuman_1_1_human_forces_1_1_editor.html" target="_top" xlink:title="human::HumanForces\l::Editor">
<polygon fill="none" stroke="black" points="123.5,-137 123.5,-167 236.5,-167 236.5,-137 123.5,-137"/>
<text text-anchor="start" x="131.5" y="-155" font-family="Helvetica,sans-Serif" font-size="10.00">human::HumanForces</text>
<text text-anchor="middle" x="180" y="-144" font-family="Helvetica,sans-Serif" font-size="10.00">::Editor</text>
</a>
</g>
</g>
<!-- Node1&#45;&gt;Node4 -->
<g id="edge3" class="edge"><title>Node1&#45;&gt;Node4</title>
<path fill="none" stroke="midnightblue" d="M49.499,-440.905C54.2766,-435.315 58.9666,-428.787 62,-422 106.909,-321.521 26.3721,-260.56 98,-177 104.705,-169.178 113.799,-163.765 123.475,-160.028"/>
<polygon fill="midnightblue" stroke="midnightblue" points="46.8396,-438.626 42.6195,-448.344 51.9788,-443.379 46.8396,-438.626"/>
</g>
<!-- Node5 -->
<g id="node5" class="node"><title>Node5</title>
<g id="a_node5"><a xlink:href="classhuman_1_1_human_state_1_1_editor.html" target="_top" xlink:title="human::HumanState::\lEditor">
<polygon fill="none" stroke="black" points="123.5,-88 123.5,-118 236.5,-118 236.5,-88 123.5,-88"/>
<text text-anchor="start" x="131.5" y="-106" font-family="Helvetica,sans-Serif" font-size="10.00">human::HumanState::</text>
<text text-anchor="middle" x="180" y="-95" font-family="Helvetica,sans-Serif" font-size="10.00">Editor</text>
</a>
</g>
</g>
<!-- Node1&#45;&gt;Node5 -->
<g id="edge4" class="edge"><title>Node1&#45;&gt;Node5</title>
<path fill="none" stroke="midnightblue" d="M49.6005,-440.95C54.3818,-435.362 59.0484,-428.823 62,-422 114.267,-301.178 13.5327,-228.971 98,-128 104.61,-120.098 113.662,-114.649 123.325,-110.901"/>
<polygon fill="midnightblue" stroke="midnightblue" points="46.9409,-438.67 42.6998,-448.379 52.0698,-443.434 46.9409,-438.67"/>
</g>
<!-- Node6 -->
<g id="node6" class="node"><title>Node6</title>
<g id="a_node6"><a xlink:href="classhuman_1_1_joint_dynamics_estimation_1_1_editor.html" target="_top" xlink:title="human::JointDynamicsEstimation\l::Editor">
<polygon fill="none" stroke="black" points="98,-782 98,-812 262,-812 262,-782 98,-782"/>
<text text-anchor="start" x="106" y="-800" font-family="Helvetica,sans-Serif" font-size="10.00">human::JointDynamicsEstimation</text>
<text text-anchor="middle" x="180" y="-789" font-family="Helvetica,sans-Serif" font-size="10.00">::Editor</text>
</a>
</g>
</g>
<!-- Node1&#45;&gt;Node6 -->
<g id="edge5" class="edge"><title>Node1&#45;&gt;Node6</title>
<path fill="none" stroke="midnightblue" d="M33.5604,-477.691C38.8406,-539.494 57.9849,-728.115 98,-772 101.471,-775.806 105.506,-779.039 109.888,-781.784"/>
<polygon fill="midnightblue" stroke="midnightblue" points="37.0458,-477.368 32.734,-467.691 30.0696,-477.945 37.0458,-477.368"/>
</g>
<!-- Node7 -->
<g id="node7" class="node"><title>Node7</title>
<g id="a_node7"><a xlink:href="classhuman_1_1_link_dynamics_estimation_1_1_editor.html" target="_top" xlink:title="human::LinkDynamicsEstimation\l::Editor">
<polygon fill="none" stroke="black" points="99.5,-733 99.5,-763 260.5,-763 260.5,-733 99.5,-733"/>
<text text-anchor="start" x="107.5" y="-751" font-family="Helvetica,sans-Serif" font-size="10.00">human::LinkDynamicsEstimation</text>
<text text-anchor="middle" x="180" y="-740" font-family="Helvetica,sans-Serif" font-size="10.00">::Editor</text>
</a>
</g>
</g>
<!-- Node1&#45;&gt;Node7 -->
<g id="edge6" class="edge"><title>Node1&#45;&gt;Node7</title>
<path fill="none" stroke="midnightblue" d="M34.4009,-477.779C41.4792,-532.974 63.9269,-686.989 98,-723 101.641,-726.848 105.86,-730.109 110.423,-732.871"/>
<polygon fill="midnightblue" stroke="midnightblue" points="37.8393,-477.067 33.1252,-467.579 30.8934,-477.936 37.8393,-477.067"/>
</g>
<!-- Node8 -->
<g id="node8" class="node"><title>Node8</title>
<g id="a_node8"><a xlink:href="classhuman_1_1_quaternion_1_1_editor.html" target="_top" xlink:title="human::Quaternion::\lEditor">
<polygon fill="none" stroke="black" points="127.5,-684 127.5,-714 232.5,-714 232.5,-684 127.5,-684"/>
<text text-anchor="start" x="135.5" y="-702" font-family="Helvetica,sans-Serif" font-size="10.00">human::Quaternion::</text>
<text text-anchor="middle" x="180" y="-691" font-family="Helvetica,sans-Serif" font-size="10.00">Editor</text>
</a>
</g>
</g>
<!-- Node1&#45;&gt;Node8 -->
<g id="edge7" class="edge"><title>Node1&#45;&gt;Node8</title>
<path fill="none" stroke="midnightblue" d="M32.1895,-477.862C33.691,-520.017 43.2175,-619.063 98,-674 106.002,-682.024 116.518,-687.483 127.312,-691.194"/>
<polygon fill="midnightblue" stroke="midnightblue" points="35.6866,-477.694 31.9502,-467.78 28.6885,-477.86 35.6866,-477.694"/>
</g>
<!-- Node9 -->
<g id="node9" class="node"><title>Node9</title>
<g id="a_node9"><a xlink:href="classhuman_1_1_vector3_1_1_editor.html" target="_top" xlink:title="human::Vector3::Editor">
<polygon fill="none" stroke="black" points="121.5,-645.5 121.5,-664.5 238.5,-664.5 238.5,-645.5 121.5,-645.5"/>
<text text-anchor="middle" x="180" y="-652.5" font-family="Helvetica,sans-Serif" font-size="10.00">human::Vector3::Editor</text>
</a>
</g>
</g>
<!-- Node1&#45;&gt;Node9 -->
<g id="edge8" class="edge"><title>Node1&#45;&gt;Node9</title>
<path fill="none" stroke="midnightblue" d="M33.409,-477.889C37.1342,-514.836 50.5224,-594.101 98,-636 104.606,-641.83 112.663,-645.961 121.105,-648.87"/>
<polygon fill="midnightblue" stroke="midnightblue" points="36.8909,-477.528 32.536,-467.87 29.9173,-478.136 36.8909,-477.528"/>
</g>
<!-- Node10 -->
<g id="node10" class="node"><title>Node10</title>
<g id="a_node10"><a xlink:href="classjoint_data_1_1_editor.html" target="_top" xlink:title="jointData::Editor">
<polygon fill="none" stroke="black" points="136.5,-607.5 136.5,-626.5 223.5,-626.5 223.5,-607.5 136.5,-607.5"/>
<text text-anchor="middle" x="180" y="-614.5" font-family="Helvetica,sans-Serif" font-size="10.00">jointData::Editor</text>
</a>
</g>
</g>
<!-- Node1&#45;&gt;Node10 -->
<g id="edge9" class="edge"><title>Node1&#45;&gt;Node10</title>
<path fill="none" stroke="midnightblue" d="M35.7498,-477.686C42.5894,-508.04 60.0374,-566 98,-597 108.771,-605.795 122.854,-610.807 136.251,-613.635"/>
<polygon fill="midnightblue" stroke="midnightblue" points="39.1662,-476.923 33.6916,-467.853 32.3147,-478.358 39.1662,-476.923"/>
</g>
<!-- Node11 -->
<g id="node11" class="node"><title>Node11</title>
<g id="a_node11"><a xlink:href="classxsens_1_1_frame_referece_1_1_editor.html" target="_top" xlink:title="xsens::FrameReferece\l::Editor">
<polygon fill="none" stroke="black" points="122,-558 122,-588 238,-588 238,-558 122,-558"/>
<text text-anchor="start" x="130" y="-576" font-family="Helvetica,sans-Serif" font-size="10.00">xsens::FrameReferece</text>
<text text-anchor="middle" x="180" y="-565" font-family="Helvetica,sans-Serif" font-size="10.00">::Editor</text>
</a>
</g>
</g>
<!-- Node1&#45;&gt;Node11 -->
<g id="edge10" class="edge"><title>Node1&#45;&gt;Node11</title>
<path fill="none" stroke="midnightblue" d="M41.0485,-476.685C51.8594,-497.096 71.8202,-529.361 98,-548 105.193,-553.121 113.464,-557.215 121.913,-560.482"/>
<polygon fill="midnightblue" stroke="midnightblue" points="44.145,-475.052 36.4891,-467.728 37.9068,-478.228 44.145,-475.052"/>
</g>
<!-- Node12 -->
<g id="node12" class="node"><title>Node12</title>
<g id="a_node12"><a xlink:href="classxsens_1_1_quaternion_1_1_editor.html" target="_top" xlink:title="xsens::Quaternion::\lEditor">
<polygon fill="none" stroke="black" points="129,-509 129,-539 231,-539 231,-509 129,-509"/>
<text text-anchor="start" x="137" y="-527" font-family="Helvetica,sans-Serif" font-size="10.00">xsens::Quaternion::</text>
<text text-anchor="middle" x="180" y="-516" font-family="Helvetica,sans-Serif" font-size="10.00">Editor</text>
</a>
</g>
</g>
<!-- Node1&#45;&gt;Node12 -->
<g id="edge11" class="edge"><title>Node1&#45;&gt;Node12</title>
<path fill="none" stroke="midnightblue" d="M53.4701,-473.3C66.01,-481.727 82.394,-491.888 98,-499 107.776,-503.455 118.563,-507.403 128.99,-510.769"/>
<polygon fill="midnightblue" stroke="midnightblue" points="55.3088,-470.317 45.0846,-467.539 51.3448,-476.087 55.3088,-470.317"/>
</g>
<!-- Node13 -->
<g id="node13" class="node"><title>Node13</title>
<g id="a_node13"><a xlink:href="classxsens_1_1_vector3_1_1_editor.html" target="_top" xlink:title="xsens::Vector3::Editor">
<polygon fill="none" stroke="black" points="123,-470.5 123,-489.5 237,-489.5 237,-470.5 123,-470.5"/>
<text text-anchor="middle" x="180" y="-477.5" font-family="Helvetica,sans-Serif" font-size="10.00">xsens::Vector3::Editor</text>
</a>
</g>
</g>
<!-- Node1&#45;&gt;Node13 -->
<g id="edge12" class="edge"><title>Node1&#45;&gt;Node13</title>
<path fill="none" stroke="midnightblue" d="M71.6637,-463.936C87.3964,-466.291 105.775,-469.041 122.832,-471.594"/>
<polygon fill="midnightblue" stroke="midnightblue" points="72.1556,-460.471 61.7476,-462.452 71.1194,-467.394 72.1556,-460.471"/>
</g>
<!-- Node14 -->
<g id="node14" class="node"><title>Node14</title>
<g id="a_node14"><a xlink:href="classxsens_1_1_xsens_segment_data_1_1_editor.html" target="_top" xlink:title="xsens::XsensSegmentData\l::Editor">
<polygon fill="none" stroke="black" points="111.5,-421 111.5,-451 248.5,-451 248.5,-421 111.5,-421"/>
<text text-anchor="start" x="119.5" y="-439" font-family="Helvetica,sans-Serif" font-size="10.00">xsens::XsensSegmentData</text>
<text text-anchor="middle" x="180" y="-428" font-family="Helvetica,sans-Serif" font-size="10.00">::Editor</text>
</a>
</g>
</g>
<!-- Node1&#45;&gt;Node14 -->
<g id="edge13" class="edge"><title>Node1&#45;&gt;Node14</title>
<path fill="none" stroke="midnightblue" d="M71.991,-452.015C84.1558,-450.194 97.8787,-448.141 111.339,-446.126"/>
<polygon fill="midnightblue" stroke="midnightblue" points="71.1194,-448.606 61.7476,-453.548 72.1556,-455.529 71.1194,-448.606"/>
</g>
<!-- Node15 -->
<g id="node15" class="node"><title>Node15</title>
<g id="a_node15"><a xlink:href="classxsens_1_1_xsens_segments_frame_1_1_editor.html" target="_top" xlink:title="xsens::XsensSegmentsFrame\l::Editor">
<polygon fill="none" stroke="black" points="105.5,-372 105.5,-402 254.5,-402 254.5,-372 105.5,-372"/>
<text text-anchor="start" x="113.5" y="-390" font-family="Helvetica,sans-Serif" font-size="10.00">xsens::XsensSegmentsFrame</text>
<text text-anchor="middle" x="180" y="-379" font-family="Helvetica,sans-Serif" font-size="10.00">::Editor</text>
</a>
</g>
</g>
<!-- Node1&#45;&gt;Node15 -->
<g id="edge14" class="edge"><title>Node1&#45;&gt;Node15</title>
<path fill="none" stroke="midnightblue" d="M51.4348,-442.044C64.0795,-432.29 81.2747,-420.162 98,-412 105.671,-408.256 114.024,-404.926 122.356,-402.013"/>
<polygon fill="midnightblue" stroke="midnightblue" points="49.1447,-439.393 43.4695,-448.34 53.4853,-444.885 49.1447,-439.393"/>
</g>
<!-- Node16 -->
<g id="node16" class="node"><title>Node16</title>
<g id="a_node16"><a xlink:href="classxsens_1_1_xsens_sensor_data_1_1_editor.html" target="_top" xlink:title="xsens::XsensSensorData\l::Editor">
<polygon fill="none" stroke="black" points="116,-323 116,-353 244,-353 244,-323 116,-323"/>
<text text-anchor="start" x="124" y="-341" font-family="Helvetica,sans-Serif" font-size="10.00">xsens::XsensSensorData</text>
<text text-anchor="middle" x="180" y="-330" font-family="Helvetica,sans-Serif" font-size="10.00">::Editor</text>
</a>
</g>
</g>
<!-- Node1&#45;&gt;Node16 -->
<g id="edge15" class="edge"><title>Node1&#45;&gt;Node16</title>
<path fill="none" stroke="midnightblue" d="M47.4784,-440.479C52.3142,-434.733 57.5455,-428.223 62,-422 79.8808,-397.022 73.7546,-381.862 98,-363 103.343,-358.843 109.382,-355.373 115.693,-352.477"/>
<polygon fill="midnightblue" stroke="midnightblue" points="44.6802,-438.365 40.8129,-448.229 49.9873,-442.929 44.6802,-438.365"/>
</g>
<!-- Node17 -->
<g id="node17" class="node"><title>Node17</title>
<g id="a_node17"><a xlink:href="classxsens_1_1_xsens_sensors_frame_1_1_editor.html" target="_top" xlink:title="xsens::XsensSensorsFrame\l::Editor">
<polygon fill="none" stroke="black" points="110,-274 110,-304 250,-304 250,-274 110,-274"/>
<text text-anchor="start" x="118" y="-292" font-family="Helvetica,sans-Serif" font-size="10.00">xsens::XsensSensorsFrame</text>
<text text-anchor="middle" x="180" y="-281" font-family="Helvetica,sans-Serif" font-size="10.00">::Editor</text>
</a>
</g>
</g>
<!-- Node1&#45;&gt;Node17 -->
<g id="edge16" class="edge"><title>Node1&#45;&gt;Node17</title>
<path fill="none" stroke="midnightblue" d="M48.5646,-440.789C53.382,-435.129 58.3291,-428.59 62,-422 86.6225,-377.799 61.8247,-349.374 98,-314 101.998,-310.09 106.595,-306.79 111.523,-304.005"/>
<polygon fill="midnightblue" stroke="midnightblue" points="45.8444,-438.579 41.7633,-448.357 51.0509,-443.258 45.8444,-438.579"/>
</g>
<!-- Node18 -->
<g id="node18" class="node"><title>Node18</title>
<g id="a_node18"><a xlink:href="classyarp_1_1os_1_1_wire.html" target="_top" xlink:title="Wire">
<polygon fill="none" stroke="black" points="12.5,-393.5 12.5,-412.5 49.5,-412.5 49.5,-393.5 12.5,-393.5"/>
<text text-anchor="middle" x="31" y="-400.5" font-family="Helvetica,sans-Serif" font-size="10.00">Wire</text>
</a>
</g>
</g>
<!-- Node18&#45;&gt;Node2 -->
<g id="edge17" class="edge"><title>Node18&#45;&gt;Node2</title>
<path fill="none" stroke="midnightblue" d="M35.8844,-383.055C42.8452,-352.809 60.3827,-295.631 98,-265 104.29,-259.878 111.704,-256.04 119.45,-253.169"/>
<polygon fill="midnightblue" stroke="midnightblue" points="32.38,-382.706 33.7147,-393.217 39.2257,-384.168 32.38,-382.706"/>
</g>
<!-- Node18&#45;&gt;Node3 -->
<g id="edge18" class="edge"><title>Node18&#45;&gt;Node3</title>
<path fill="none" stroke="midnightblue" d="M33.7744,-383.048C38.0858,-346.605 52.3799,-269.068 98,-226 103.137,-221.151 109.195,-217.241 115.648,-214.089"/>
<polygon fill="midnightblue" stroke="midnightblue" points="30.2572,-383.031 32.6984,-393.341 37.2193,-383.759 30.2572,-383.031"/>
</g>
<!-- Node18&#45;&gt;Node4 -->
<g id="edge19" class="edge"><title>Node18&#45;&gt;Node4</title>
<path fill="none" stroke="midnightblue" d="M31.8675,-383.127C32.685,-339.58 40.8656,-235.011 98,-177 105.022,-169.87 114.029,-164.764 123.471,-161.109"/>
<polygon fill="midnightblue" stroke="midnightblue" points="28.3667,-383.238 31.7951,-393.263 35.3666,-383.288 28.3667,-383.238"/>
</g>
<!-- Node18&#45;&gt;Node5 -->
<g id="edge20" class="edge"><title>Node18&#45;&gt;Node5</title>
<path fill="none" stroke="midnightblue" d="M34.2076,-383.22C40.9055,-326.609 62.7225,-165.604 98,-128 104.847,-120.701 113.772,-115.516 123.187,-111.837"/>
<polygon fill="midnightblue" stroke="midnightblue" points="30.7071,-383.024 33.0392,-393.359 37.6611,-383.826 30.7071,-383.024"/>
</g>
<!-- Node18&#45;&gt;Node6 -->
<g id="edge23" class="edge"><title>Node18&#45;&gt;Node6</title>
<path fill="none" stroke="midnightblue" d="M49.6605,-420.025C54.444,-425.612 59.0968,-432.156 62,-439 91.0681,-507.52 50.6471,-714.574 98,-772 101.183,-775.861 104.95,-779.137 109.089,-781.915"/>
<polygon fill="midnightblue" stroke="midnightblue" points="52.1235,-417.534 42.7472,-412.6 47.0006,-422.304 52.1235,-417.534"/>
</g>
<!-- Node18&#45;&gt;Node7 -->
<g id="edge24" class="edge"><title>Node18&#45;&gt;Node7</title>
<path fill="none" stroke="midnightblue" d="M49.5826,-420.058C54.3632,-425.646 59.0339,-432.183 62,-439 112.764,-555.666 16.1555,-625.586 98,-723 101.219,-726.831 105.011,-730.086 109.169,-732.849"/>
<polygon fill="midnightblue" stroke="midnightblue" points="52.0537,-417.575 42.6856,-412.627 46.923,-422.337 52.0537,-417.575"/>
</g>
<!-- Node18&#45;&gt;Node8 -->
<g id="edge25" class="edge"><title>Node18&#45;&gt;Node8</title>
<path fill="none" stroke="midnightblue" d="M49.4733,-420.106C54.2499,-425.697 58.9458,-432.222 62,-439 105.41,-535.334 28.9877,-593.988 98,-674 105.594,-682.804 116.214,-688.555 127.27,-692.299"/>
<polygon fill="midnightblue" stroke="midnightblue" points="51.9557,-417.636 42.5991,-412.665 46.8139,-422.386 51.9557,-417.636"/>
</g>
<!-- Node18&#45;&gt;Node9 -->
<g id="edge26" class="edge"><title>Node18&#45;&gt;Node9</title>
<path fill="none" stroke="midnightblue" d="M49.3529,-420.162C54.1251,-425.754 58.8488,-432.267 62,-439 99.7291,-519.613 36.6454,-571.521 98,-636 104.372,-642.697 112.621,-647.233 121.41,-650.27"/>
<polygon fill="midnightblue" stroke="midnightblue" points="51.8475,-417.704 42.5039,-412.709 46.6933,-422.44 51.8475,-417.704"/>
</g>
<!-- Node18&#45;&gt;Node10 -->
<g id="edge27" class="edge"><title>Node18&#45;&gt;Node10</title>
<path fill="none" stroke="midnightblue" d="M49.173,-420.248C53.9386,-425.844 58.7038,-432.337 62,-439 93.934,-503.555 47.5344,-545.615 98,-597 108.048,-607.231 122.438,-612.54 136.309,-615.204"/>
<polygon fill="midnightblue" stroke="midnightblue" points="51.6855,-417.809 42.3617,-412.777 46.5126,-422.525 51.6855,-417.809"/>
</g>
<!-- Node18&#45;&gt;Node11 -->
<g id="edge28" class="edge"><title>Node18&#45;&gt;Node11</title>
<path fill="none" stroke="midnightblue" d="M48.5757,-420.205C53.3936,-425.865 58.3382,-432.405 62,-439 86.7663,-483.604 61.5723,-512.28 98,-548 104.62,-554.491 112.887,-559.302 121.59,-562.866"/>
<polygon fill="midnightblue" stroke="midnightblue" points="51.0609,-417.734 41.7719,-412.639 45.8557,-422.415 51.0609,-417.734"/>
</g>
<!-- Node18&#45;&gt;Node12 -->
<g id="edge29" class="edge"><title>Node18&#45;&gt;Node12</title>
<path fill="none" stroke="midnightblue" d="M47.5063,-420.501C52.3436,-426.247 57.5687,-432.761 62,-439 80.0079,-464.354 73.5257,-479.814 98,-499 106.918,-505.991 117.8,-511.039 128.657,-514.679"/>
<polygon fill="midnightblue" stroke="midnightblue" points="50.0127,-418.048 40.8342,-412.756 44.7092,-422.617 50.0127,-418.048"/>
</g>
<!-- Node18&#45;&gt;Node13 -->
<g id="edge30" class="edge"><title>Node18&#45;&gt;Node13</title>
<path fill="none" stroke="midnightblue" d="M47.2733,-419.97C59.7234,-432.794 78.3987,-449.865 98,-460 106.363,-464.324 115.701,-467.742 124.98,-470.435"/>
<polygon fill="midnightblue" stroke="midnightblue" points="49.7741,-417.521 40.3732,-412.635 44.6753,-422.317 49.7741,-417.521"/>
</g>
<!-- Node18&#45;&gt;Node14 -->
<g id="edge32" class="edge"><title>Node18&#45;&gt;Node14</title>
<path fill="none" stroke="midnightblue" d="M59.7206,-409.223C74.5304,-412.548 93.4603,-416.797 111.855,-420.927"/>
<polygon fill="midnightblue" stroke="midnightblue" points="60.2555,-405.756 49.7316,-406.981 58.7221,-412.586 60.2555,-405.756"/>
</g>
<!-- Node18&#45;&gt;Node15 -->
<g id="edge33" class="edge"><title>Node18&#45;&gt;Node15</title>
<path fill="none" stroke="midnightblue" d="M59.89,-399.964C72.9567,-398.542 89.2037,-396.774 105.454,-395.005"/>
<polygon fill="midnightblue" stroke="midnightblue" points="59.2942,-396.508 49.7316,-401.07 60.0517,-403.467 59.2942,-396.508"/>
</g>
<!-- Node18&#45;&gt;Node16 -->
<g id="edge34" class="edge"><title>Node18&#45;&gt;Node16</title>
<path fill="none" stroke="midnightblue" d="M53.9992,-387.791C66.4915,-379.642 82.6571,-369.891 98,-363 106.189,-359.322 115.075,-355.977 123.86,-353.016"/>
<polygon fill="midnightblue" stroke="midnightblue" points="51.9966,-384.919 45.6164,-393.378 55.8788,-390.744 51.9966,-384.919"/>
</g>
<!-- Node18&#45;&gt;Node17 -->
<g id="edge35" class="edge"><title>Node18&#45;&gt;Node17</title>
<path fill="none" stroke="midnightblue" d="M41.249,-384.248C52.1396,-364.051 72.078,-332.351 98,-314 103.405,-310.173 109.413,-306.92 115.645,-304.155"/>
<polygon fill="midnightblue" stroke="midnightblue" points="38.0104,-382.891 36.5186,-393.38 44.226,-386.111 38.0104,-382.891"/>
</g>
<!-- Node19 -->
<g id="node19" class="node"><title>Node19</title>
<g id="a_node19"><a xlink:href="classhuman_1_1_human_state_provider_service.html" target="_top" xlink:title="human::HumanStateProvider\lService">
<polygon fill="none" stroke="black" points="108.5,-39 108.5,-69 251.5,-69 251.5,-39 108.5,-39"/>
<text text-anchor="start" x="116.5" y="-57" font-family="Helvetica,sans-Serif" font-size="10.00">human::HumanStateProvider</text>
<text text-anchor="middle" x="180" y="-46" font-family="Helvetica,sans-Serif" font-size="10.00">Service</text>
</a>
</g>
</g>
<!-- Node18&#45;&gt;Node19 -->
<g id="edge21" class="edge"><title>Node18&#45;&gt;Node19</title>
<path fill="none" stroke="midnightblue" d="M33.437,-383.108C38.3983,-319.793 56.8138,-124.453 98,-79 101.459,-75.183 105.486,-71.9424 109.861,-69.1919"/>
<polygon fill="midnightblue" stroke="midnightblue" points="29.9283,-383.092 32.6647,-393.327 36.9084,-383.62 29.9283,-383.092"/>
</g>
<!-- Node21 -->
<g id="node21" class="node"><title>Node21</title>
<g id="a_node21"><a xlink:href="classxsens_1_1_xsens_driver_service.html" target="_top" xlink:title="xsens::XsensDriverService">
<polygon fill="none" stroke="black" points="112,-0.5 112,-19.5 248,-19.5 248,-0.5 112,-0.5"/>
<text text-anchor="middle" x="180" y="-7.5" font-family="Helvetica,sans-Serif" font-size="10.00">xsens::XsensDriverService</text>
</a>
</g>
</g>
<!-- Node18&#45;&gt;Node21 -->
<g id="edge31" class="edge"><title>Node18&#45;&gt;Node21</title>
<path fill="none" stroke="midnightblue" d="M32.7091,-383.15C35.6096,-313.4 48.8611,-80.9567 98,-29 101.97,-24.8023 106.677,-21.4526 111.794,-18.7882"/>
<polygon fill="midnightblue" stroke="midnightblue" points="29.2086,-383.098 32.3165,-393.227 36.2032,-383.371 29.2086,-383.098"/>
</g>
<!-- Node20 -->
<g id="node20" class="node"><title>Node20</title>
<g id="a_node20"><a xlink:href="classhuman_1_1_human_state_provider_1_1_human_state_provider_private.html" target="_top" xlink:title="human::HumanStateProvider\l::HumanStateProviderPrivate">
<polygon fill="none" stroke="black" points="298,-39 298,-69 442,-69 442,-39 298,-39"/>
<text text-anchor="start" x="306" y="-57" font-family="Helvetica,sans-Serif" font-size="10.00">human::HumanStateProvider</text>
<text text-anchor="middle" x="370" y="-46" font-family="Helvetica,sans-Serif" font-size="10.00">::HumanStateProviderPrivate</text>
</a>
</g>
</g>
<!-- Node19&#45;&gt;Node20 -->
<g id="edge22" class="edge"><title>Node19&#45;&gt;Node20</title>
<path fill="none" stroke="midnightblue" d="M261.56,-54C273.594,-54 285.929,-54 297.753,-54"/>
<polygon fill="midnightblue" stroke="midnightblue" points="261.539,-50.5001 251.539,-54 261.539,-57.5001 261.539,-50.5001"/>
</g>
</g>
</svg>
