<?xml version="1.0" encoding="UTF-8" standalone="no"?>
<!DOCTYPE svg PUBLIC "-//W3C//DTD SVG 1.1//EN"
 "http://www.w3.org/Graphics/SVG/1.1/DTD/svg11.dtd">
<!-- Generated by graphviz version 2.36.0 (20140111.2315)
 -->
<!-- Title: Graphical Class Hierarchy Pages: 1 -->
<svg width="226pt" height="66pt"
 viewBox="0.00 0.00 226.00 66.00" xmlns="http://www.w3.org/2000/svg" xmlns:xlink="http://www.w3.org/1999/xlink">
<g id="graph0" class="graph" transform="scale(1 1) rotate(0) translate(4 62)">
<title>Graphical Class Hierarchy</title>
<!-- Node1 -->
<g id="node1" class="node"><title>Node1</title>
<polygon fill="none" stroke="#bfbfbf" points="0,-19.5 0,-38.5 42,-38.5 42,-19.5 0,-19.5"/>
<text text-anchor="middle" x="21" y="-26.5" font-family="Helvetica,sans-Serif" font-size="10.00">TNLP</text>
</g>
<!-- Node2 -->
<g id="node2" class="node"><title>Node2</title>
<g id="a_node2"><a xlink:href="class_inverse_kinematics_i_p_o_p_t.html" target="_top" xlink:title="InverseKinematicsIPOPT">
<polygon fill="none" stroke="black" points="84,-38.5 84,-57.5 212,-57.5 212,-38.5 84,-38.5"/>
<text text-anchor="middle" x="148" y="-45.5" font-family="Helvetica,sans-Serif" font-size="10.00">InverseKinematicsIPOPT</text>
</a>
</g>
</g>
<!-- Node1&#45;&gt;Node2 -->
<g id="edge1" class="edge"><title>Node1&#45;&gt;Node2</title>
<path fill="none" stroke="midnightblue" d="M52.0343,-33.5652C61.7972,-35.0492 73.0233,-36.7555 84.2597,-38.4635"/>
<polygon fill="midnightblue" stroke="midnightblue" points="52.4958,-30.0952 42.0834,-32.0527 51.4439,-37.0158 52.4958,-30.0952"/>
</g>
<!-- Node3 -->
<g id="node3" class="node"><title>Node3</title>
<g id="a_node3"><a xlink:href="class_inverse_kinematics_v2_i_p_o_p_t.html" target="_top" xlink:title="InverseKinematicsV2IPOPT">
<polygon fill="none" stroke="black" points="78,-0.5 78,-19.5 218,-19.5 218,-0.5 78,-0.5"/>
<text text-anchor="middle" x="148" y="-7.5" font-family="Helvetica,sans-Serif" font-size="10.00">InverseKinematicsV2IPOPT</text>
</a>
</g>
</g>
<!-- Node1&#45;&gt;Node3 -->
<g id="edge2" class="edge"><title>Node1&#45;&gt;Node3</title>
<path fill="none" stroke="midnightblue" d="M52.0343,-24.4348C61.7972,-22.9508 73.0233,-21.2445 84.2597,-19.5365"/>
<polygon fill="midnightblue" stroke="midnightblue" points="51.4439,-20.9842 42.0834,-25.9473 52.4958,-27.9048 51.4439,-20.9842"/>
</g>
</g>
</svg>
