<?xml version="1.0" encoding="UTF-8" standalone="no"?>
<!DOCTYPE svg PUBLIC "-//W3C//DTD SVG 1.1//EN"
 "http://www.w3.org/Graphics/SVG/1.1/DTD/svg11.dtd">
<!-- Generated by graphviz version 2.36.0 (20140111.2315)
 -->
<!-- Title: Graphical Class Hierarchy Pages: 1 -->
<svg width="286pt" height="77pt"
 viewBox="0.00 0.00 286.00 77.00" xmlns="http://www.w3.org/2000/svg" xmlns:xlink="http://www.w3.org/1999/xlink">
<g id="graph0" class="graph" transform="scale(1 1) rotate(0) translate(4 73)">
<title>Graphical Class Hierarchy</title>
<!-- Node1 -->
<g id="node1" class="node"><title>Node1</title>
<g id="a_node1"><a xlink:href="class_r_f_module.html" target="_top" xlink:title="RFModule">
<polygon fill="none" stroke="black" points="26,-47.5 26,-66.5 88,-66.5 88,-47.5 26,-47.5"/>
<text text-anchor="middle" x="57" y="-54.5" font-family="Helvetica,sans-Serif" font-size="10.00">RFModule</text>
</a>
</g>
</g>
<!-- Node2 -->
<g id="node2" class="node"><title>Node2</title>
<g id="a_node2"><a xlink:href="class_human_t_f_bridge.html" target="_top" xlink:title="HumanTFBridge">
<polygon fill="none" stroke="black" points="170,-49.5 170,-68.5 258,-68.5 258,-49.5 170,-49.5"/>
<text text-anchor="middle" x="214" y="-56.5" font-family="Helvetica,sans-Serif" font-size="10.00">HumanTFBridge</text>
</a>
</g>
</g>
<!-- Node1&#45;&gt;Node2 -->
<g id="edge1" class="edge"><title>Node1&#45;&gt;Node2</title>
<path fill="none" stroke="midnightblue" d="M98.268,-57.5196C120.261,-57.8034 147.502,-58.1549 169.92,-58.4441"/>
<polygon fill="midnightblue" stroke="midnightblue" points="98.2979,-54.0198 88.2535,-57.3904 98.2075,-61.0192 98.2979,-54.0198"/>
</g>
<!-- Node3 -->
<g id="node3" class="node"><title>Node3</title>
<g id="a_node3"><a xlink:href="classxsens_joint_state_publisher_module.html" target="_top" xlink:title="xsensJointStatePublisher\lModule">
<polygon fill="none" stroke="black" points="150,-0 150,-30 278,-30 278,-0 150,-0"/>
<text text-anchor="start" x="158" y="-18" font-family="Helvetica,sans-Serif" font-size="10.00">xsensJointStatePublisher</text>
<text text-anchor="middle" x="214" y="-7" font-family="Helvetica,sans-Serif" font-size="10.00">Module</text>
</a>
</g>
</g>
<!-- Node1&#45;&gt;Node3 -->
<g id="edge2" class="edge"><title>Node1&#45;&gt;Node3</title>
<path fill="none" stroke="midnightblue" d="M97.9066,-46.1866C116.016,-41.2795 137.74,-35.393 157.412,-30.0626"/>
<polygon fill="midnightblue" stroke="midnightblue" points="96.9901,-42.8087 88.2535,-48.8023 98.8209,-49.565 96.9901,-42.8087"/>
</g>
<!-- Node4 -->
<g id="node4" class="node"><title>Node4</title>
<g id="a_node4"><a xlink:href="class_typed_reader_callback.html" target="_top" xlink:title="TypedReaderCallback">
<polygon fill="none" stroke="black" points="0.5,-8.5 0.5,-27.5 113.5,-27.5 113.5,-8.5 0.5,-8.5"/>
<text text-anchor="middle" x="57" y="-15.5" font-family="Helvetica,sans-Serif" font-size="10.00">TypedReaderCallback</text>
</a>
</g>
</g>
<!-- Node4&#45;&gt;Node2 -->
<g id="edge3" class="edge"><title>Node4&#45;&gt;Node2</title>
<path fill="none" stroke="midnightblue" d="M103.657,-30.077C127.051,-36.2651 155.131,-43.6927 176.977,-49.4714"/>
<polygon fill="midnightblue" stroke="midnightblue" points="104.512,-26.6829 93.9497,-27.5093 102.722,-33.4502 104.512,-26.6829"/>
</g>
<!-- Node4&#45;&gt;Node3 -->
<g id="edge4" class="edge"><title>Node4&#45;&gt;Node3</title>
<path fill="none" stroke="midnightblue" d="M123.638,-16.7296C132.359,-16.5608 141.286,-16.388 149.963,-16.2201"/>
<polygon fill="midnightblue" stroke="midnightblue" points="123.451,-13.2325 113.521,-16.9254 123.587,-20.2311 123.451,-13.2325"/>
</g>
</g>
</svg>
