<?xml version="1.0" encoding="UTF-8" standalone="no"?>
<!DOCTYPE svg PUBLIC "-//W3C//DTD SVG 1.1//EN"
 "http://www.w3.org/Graphics/SVG/1.1/DTD/svg11.dtd">
<!-- Generated by graphviz version 2.36.0 (20140111.2315)
 -->
<!-- Title: Graphical Class Hierarchy Pages: 1 -->
<svg width="250pt" height="142pt"
 viewBox="0.00 0.00 250.00 142.00" xmlns="http://www.w3.org/2000/svg" xmlns:xlink="http://www.w3.org/1999/xlink">
<g id="graph0" class="graph" transform="scale(1 1) rotate(0) translate(4 138)">
<title>Graphical Class Hierarchy</title>
<!-- Node1 -->
<g id="node1" class="node"><title>Node1</title>
<g id="a_node1"><a xlink:href="classyarp_1_1os_1_1_r_f_module.html" target="_top" xlink:title="RFModule">
<polygon fill="none" stroke="black" points="0,-57.5 0,-76.5 62,-76.5 62,-57.5 0,-57.5"/>
<text text-anchor="middle" x="31" y="-64.5" font-family="Helvetica,sans-Serif" font-size="10.00">RFModule</text>
</a>
</g>
</g>
<!-- Node2 -->
<g id="node2" class="node"><title>Node2</title>
<g id="a_node2"><a xlink:href="classhuman_1_1_human_state_provider.html" target="_top" xlink:title="human::HumanStateProvider">
<polygon fill="none" stroke="black" points="98.5,-114.5 98.5,-133.5 241.5,-133.5 241.5,-114.5 98.5,-114.5"/>
<text text-anchor="middle" x="170" y="-121.5" font-family="Helvetica,sans-Serif" font-size="10.00">human::HumanStateProvider</text>
</a>
</g>
</g>
<!-- Node1&#45;&gt;Node2 -->
<g id="edge1" class="edge"><title>Node1&#45;&gt;Node2</title>
<path fill="none" stroke="midnightblue" d="M54.8476,-82.1353C67.2195,-89.8141 83.0047,-98.8021 98,-105 106.844,-108.656 116.6,-111.8 125.975,-114.419"/>
<polygon fill="midnightblue" stroke="midnightblue" points="56.4381,-78.999 46.1216,-76.5863 52.6818,-84.9058 56.4381,-78.999"/>
</g>
<!-- Node3 -->
<g id="node3" class="node"><title>Node3</title>
<g id="a_node3"><a xlink:href="class_human_dynamics_estimator.html" target="_top" xlink:title="HumanDynamicsEstimator">
<polygon fill="none" stroke="black" points="103,-76.5 103,-95.5 237,-95.5 237,-76.5 103,-76.5"/>
<text text-anchor="middle" x="170" y="-83.5" font-family="Helvetica,sans-Serif" font-size="10.00">HumanDynamicsEstimator</text>
</a>
</g>
</g>
<!-- Node1&#45;&gt;Node3 -->
<g id="edge2" class="edge"><title>Node1&#45;&gt;Node3</title>
<path fill="none" stroke="midnightblue" d="M72.1188,-72.5639C81.756,-73.9005 92.3036,-75.3633 102.78,-76.8162"/>
<polygon fill="midnightblue" stroke="midnightblue" points="72.4513,-69.0766 62.0652,-71.1696 71.4896,-76.0102 72.4513,-69.0766"/>
</g>
<!-- Node4 -->
<g id="node4" class="node"><title>Node4</title>
<g id="a_node4"><a xlink:href="class_human_forces_provider.html" target="_top" xlink:title="HumanForcesProvider">
<polygon fill="none" stroke="black" points="113,-38.5 113,-57.5 227,-57.5 227,-38.5 113,-38.5"/>
<text text-anchor="middle" x="170" y="-45.5" font-family="Helvetica,sans-Serif" font-size="10.00">HumanForcesProvider</text>
</a>
</g>
</g>
<!-- Node1&#45;&gt;Node4 -->
<g id="edge3" class="edge"><title>Node1&#45;&gt;Node4</title>
<path fill="none" stroke="midnightblue" d="M72.2998,-61.411C84.9794,-59.6525 99.2206,-57.6774 112.796,-55.7947"/>
<polygon fill="midnightblue" stroke="midnightblue" points="71.4896,-57.9898 62.0652,-62.8304 72.4513,-64.9234 71.4896,-57.9898"/>
</g>
<!-- Node5 -->
<g id="node5" class="node"><title>Node5</title>
<g id="a_node5"><a xlink:href="class_robot_base_pose_publisher.html" target="_top" xlink:title="RobotBasePosePublisher">
<polygon fill="none" stroke="black" points="106,-0.5 106,-19.5 234,-19.5 234,-0.5 106,-0.5"/>
<text text-anchor="middle" x="170" y="-7.5" font-family="Helvetica,sans-Serif" font-size="10.00">RobotBasePosePublisher</text>
</a>
</g>
</g>
<!-- Node1&#45;&gt;Node5 -->
<g id="edge4" class="edge"><title>Node1&#45;&gt;Node5</title>
<path fill="none" stroke="midnightblue" d="M54.8476,-51.8647C67.2195,-44.1859 83.0047,-35.1979 98,-29 106.844,-25.3444 116.6,-22.2 125.975,-19.5809"/>
<polygon fill="midnightblue" stroke="midnightblue" points="52.6818,-49.0942 46.1216,-57.4137 56.4381,-55.001 52.6818,-49.0942"/>
</g>
</g>
</svg>
