<?xml version="1.0" encoding="UTF-8" standalone="no"?>
<!DOCTYPE svg PUBLIC "-//W3C//DTD SVG 1.1//EN"
 "http://www.w3.org/Graphics/SVG/1.1/DTD/svg11.dtd">
<!-- Generated by graphviz version 2.36.0 (20140111.2315)
 -->
<!-- Title: /home/travis/build/robotology/human&#45;dynamics&#45;estimation/yarp/ReadOnlyRemoteControlBoard/jointData.h Pages: 1 -->
<svg width="495pt" height="332pt"
 viewBox="0.00 0.00 495.00 332.00" xmlns="http://www.w3.org/2000/svg" xmlns:xlink="http://www.w3.org/1999/xlink">
<g id="graph0" class="graph" transform="scale(1 1) rotate(0) translate(4 328)">
<title>/home/travis/build/robotology/human&#45;dynamics&#45;estimation/yarp/ReadOnlyRemoteControlBoard/jointData.h</title>
<!-- Node1 -->
<g id="node1" class="node"><title>Node1</title>
<polygon fill="#bfbfbf" stroke="black" points="97.5,-271 97.5,-323 264.5,-323 264.5,-271 97.5,-271"/>
<text text-anchor="start" x="105.5" y="-311" font-family="Helvetica,sans-Serif" font-size="10.00">/home/travis/build</text>
<text text-anchor="start" x="105.5" y="-300" font-family="Helvetica,sans-Serif" font-size="10.00">/robotology/human&#45;dynamics</text>
<text text-anchor="start" x="105.5" y="-289" font-family="Helvetica,sans-Serif" font-size="10.00">&#45;estimation/yarp/ReadOnlyRemote</text>
<text text-anchor="middle" x="181" y="-278" font-family="Helvetica,sans-Serif" font-size="10.00">ControlBoard/jointData.h</text>
</g>
<!-- Node2 -->
<g id="node2" class="node"><title>Node2</title>
<g id="a_node2"><a xlink:href="joint_data_8cpp.html" target="_top" xlink:title="/home/travis/build\l/robotology/human&#45;dynamics\l&#45;estimation/yarp/ReadOnlyRemote\lControlBoard/jointData.cpp">
<polygon fill="none" stroke="black" points="-0.5,-181 -0.5,-233 166.5,-233 166.5,-181 -0.5,-181"/>
<text text-anchor="start" x="7.5" y="-221" font-family="Helvetica,sans-Serif" font-size="10.00">/home/travis/build</text>
<text text-anchor="start" x="7.5" y="-210" font-family="Helvetica,sans-Serif" font-size="10.00">/robotology/human&#45;dynamics</text>
<text text-anchor="start" x="7.5" y="-199" font-family="Helvetica,sans-Serif" font-size="10.00">&#45;estimation/yarp/ReadOnlyRemote</text>
<text text-anchor="middle" x="83" y="-188" font-family="Helvetica,sans-Serif" font-size="10.00">ControlBoard/jointData.cpp</text>
</a>
</g>
</g>
<!-- Node1&#45;&gt;Node2 -->
<g id="edge1" class="edge"><title>Node1&#45;&gt;Node2</title>
<path fill="none" stroke="midnightblue" d="M145.309,-263.951C134.037,-253.829 121.749,-242.795 111.087,-233.221"/>
<polygon fill="midnightblue" stroke="midnightblue" points="143.138,-266.706 152.917,-270.783 147.815,-261.497 143.138,-266.706"/>
</g>
<!-- Node3 -->
<g id="node3" class="node"><title>Node3</title>
<g id="a_node3"><a xlink:href="state_extended_reader_8hpp.html" target="_top" xlink:title="/home/travis/build\l/robotology/human&#45;dynamics\l&#45;estimation/yarp/ReadOnlyRemote\lControlBoard/stateExtendedReader.hpp">
<polygon fill="none" stroke="black" points="185,-181 185,-233 375,-233 375,-181 185,-181"/>
<text text-anchor="start" x="193" y="-221" font-family="Helvetica,sans-Serif" font-size="10.00">/home/travis/build</text>
<text text-anchor="start" x="193" y="-210" font-family="Helvetica,sans-Serif" font-size="10.00">/robotology/human&#45;dynamics</text>
<text text-anchor="start" x="193" y="-199" font-family="Helvetica,sans-Serif" font-size="10.00">&#45;estimation/yarp/ReadOnlyRemote</text>
<text text-anchor="middle" x="280" y="-188" font-family="Helvetica,sans-Serif" font-size="10.00">ControlBoard/stateExtendedReader.hpp</text>
</a>
</g>
</g>
<!-- Node1&#45;&gt;Node3 -->
<g id="edge2" class="edge"><title>Node1&#45;&gt;Node3</title>
<path fill="none" stroke="midnightblue" d="M217.056,-263.951C228.442,-253.829 240.856,-242.795 251.626,-233.221"/>
<polygon fill="midnightblue" stroke="midnightblue" points="214.518,-261.523 209.369,-270.783 219.169,-266.755 214.518,-261.523"/>
</g>
<!-- Node4 -->
<g id="node4" class="node"><title>Node4</title>
<g id="a_node4"><a xlink:href="_read_only_remote_control_board_8h.html" target="_top" xlink:title="/home/travis/build\l/robotology/human&#45;dynamics\l&#45;estimation/yarp/ReadOnlyRemote\lControlBoard/ReadOnlyRemoteControlBoard.h">
<polygon fill="none" stroke="black" points="59,-91 59,-143 279,-143 279,-91 59,-91"/>
<text text-anchor="start" x="67" y="-131" font-family="Helvetica,sans-Serif" font-size="10.00">/home/travis/build</text>
<text text-anchor="start" x="67" y="-120" font-family="Helvetica,sans-Serif" font-size="10.00">/robotology/human&#45;dynamics</text>
<text text-anchor="start" x="67" y="-109" font-family="Helvetica,sans-Serif" font-size="10.00">&#45;estimation/yarp/ReadOnlyRemote</text>
<text text-anchor="middle" x="169" y="-98" font-family="Helvetica,sans-Serif" font-size="10.00">ControlBoard/ReadOnlyRemoteControlBoard.h</text>
</a>
</g>
</g>
<!-- Node3&#45;&gt;Node4 -->
<g id="edge3" class="edge"><title>Node3&#45;&gt;Node4</title>
<path fill="none" stroke="midnightblue" d="M240.309,-174.534C227.343,-164.254 213.121,-152.979 200.813,-143.221"/>
<polygon fill="midnightblue" stroke="midnightblue" points="238.181,-177.313 248.192,-180.783 242.53,-171.828 238.181,-177.313"/>
</g>
<!-- Node6 -->
<g id="node6" class="node"><title>Node6</title>
<g id="a_node6"><a xlink:href="state_extended_reader_8cpp.html" target="_top" xlink:title="/home/travis/build\l/robotology/human&#45;dynamics\l&#45;estimation/yarp/ReadOnlyRemote\lControlBoard/stateExtendedReader.cpp">
<polygon fill="none" stroke="black" points="297,-91 297,-143 487,-143 487,-91 297,-91"/>
<text text-anchor="start" x="305" y="-131" font-family="Helvetica,sans-Serif" font-size="10.00">/home/travis/build</text>
<text text-anchor="start" x="305" y="-120" font-family="Helvetica,sans-Serif" font-size="10.00">/robotology/human&#45;dynamics</text>
<text text-anchor="start" x="305" y="-109" font-family="Helvetica,sans-Serif" font-size="10.00">&#45;estimation/yarp/ReadOnlyRemote</text>
<text text-anchor="middle" x="392" y="-98" font-family="Helvetica,sans-Serif" font-size="10.00">ControlBoard/stateExtendedReader.cpp</text>
</a>
</g>
</g>
<!-- Node3&#45;&gt;Node6 -->
<g id="edge5" class="edge"><title>Node3&#45;&gt;Node6</title>
<path fill="none" stroke="midnightblue" d="M320.048,-174.534C333.131,-164.254 347.481,-152.979 359.901,-143.221"/>
<polygon fill="midnightblue" stroke="midnightblue" points="317.796,-171.852 312.095,-180.783 322.12,-177.357 317.796,-171.852"/>
</g>
<!-- Node5 -->
<g id="node5" class="node"><title>Node5</title>
<g id="a_node5"><a xlink:href="_read_only_remote_control_board_8cpp.html" target="_top" xlink:title="/home/travis/build\l/robotology/human&#45;dynamics\l&#45;estimation/yarp/ReadOnlyRemote\lControlBoard/ReadOnlyRemoteControlBoard.cpp">
<polygon fill="none" stroke="black" points="54,-1 54,-53 284,-53 284,-1 54,-1"/>
<text text-anchor="start" x="62" y="-41" font-family="Helvetica,sans-Serif" font-size="10.00">/home/travis/build</text>
<text text-anchor="start" x="62" y="-30" font-family="Helvetica,sans-Serif" font-size="10.00">/robotology/human&#45;dynamics</text>
<text text-anchor="start" x="62" y="-19" font-family="Helvetica,sans-Serif" font-size="10.00">&#45;estimation/yarp/ReadOnlyRemote</text>
<text text-anchor="middle" x="169" y="-8" font-family="Helvetica,sans-Serif" font-size="10.00">ControlBoard/ReadOnlyRemoteControlBoard.cpp</text>
</a>
</g>
</g>
<!-- Node4&#45;&gt;Node5 -->
<g id="edge4" class="edge"><title>Node4&#45;&gt;Node5</title>
<path fill="none" stroke="midnightblue" d="M169,-80.4892C169,-71.3088 169,-61.616 169,-53.0921"/>
<polygon fill="midnightblue" stroke="midnightblue" points="165.5,-80.5467 169,-90.5468 172.5,-80.5468 165.5,-80.5467"/>
</g>
</g>
</svg>
