<?xml version="1.0" encoding="UTF-8" standalone="no"?>
<!DOCTYPE svg PUBLIC "-//W3C//DTD SVG 1.1//EN"
 "http://www.w3.org/Graphics/SVG/1.1/DTD/svg11.dtd">
<!-- Generated by graphviz version 2.36.0 (20140111.2315)
 -->
<!-- Title: /home/travis/build/robotology/human&#45;dynamics&#45;estimation/yarp/ReadOnlyRemoteControlBoard/stateExtendedReader.cpp Pages: 1 -->
<!--zoomable 242 -->
<svg id="main" version="1.1" xmlns="http://www.w3.org/2000/svg" xmlns:xlink="http://www.w3.org/1999/xlink" xml:space="preserve" onload="init(evt)">
<style type="text/css"><![CDATA[
.edge:hover path { stroke: red; }
.edge:hover polygon { stroke: red; fill: red; }
]]></style>
<script type="text/javascript"><![CDATA[
var edges = document.getElementsByTagName('g');
if (edges && edges.length) {
  for (var i=0;i<edges.length;i++) {
    if (edges[i].id.substr(0,4)=='edge') {
      edges[i].setAttribute('class','edge');
    }
  }
}
]]></script>
        <defs>
                <circle id="rim" cx="0" cy="0" r="7"/>
                <circle id="rim2" cx="0" cy="0" r="3.5"/>
                <g id="zoomPlus">
                        <use xlink:href="#rim" fill="#404040">
                                <set attributeName="fill" to="#808080" begin="zoomplus.mouseover" end="zoomplus.mouseout"/>
                        </use>
                        <path d="M-4,0h8M0,-4v8" fill="none" stroke="white" stroke-width="1.5" pointer-events="none"/>
                </g>
                <g id="zoomMin">
                        <use xlink:href="#rim" fill="#404040">
                                <set attributeName="fill" to="#808080" begin="zoomminus.mouseover" end="zoomminus.mouseout"/>
                        </use>
                        <path d="M-4,0h8" fill="none" stroke="white" stroke-width="1.5" pointer-events="none"/>
                </g>
                <g id="dirArrow">
                        <path fill="none" stroke="white" stroke-width="1.5" d="M0,-3.0v7 M-2.5,-0.5L0,-3.0L2.5,-0.5"/>
                </g>
               <g id="resetDef">
                       <use xlink:href="#rim2" fill="#404040">
                               <set attributeName="fill" to="#808080" begin="reset.mouseover" end="reset.mouseout"/>
                       </use>
               </g>
        </defs>

<script type="text/javascript">
var viewWidth = 2178;
var viewHeight = 242;
var sectionId = 'dynsection-0';
</script>
<script xlink:href="svgpan.js"/>
<svg id="graph" class="graph">
<g id="viewport">
<title>/home/travis/build/robotology/human&#45;dynamics&#45;estimation/yarp/ReadOnlyRemoteControlBoard/stateExtendedReader.cpp</title>
<!-- Node1 -->
<g id="node1" class="node"><title>Node1</title>
<polygon fill="#bfbfbf" stroke="black" points="805,-181 805,-233 995,-233 995,-181 805,-181"/>
<text text-anchor="start" x="813" y="-221" font-family="Helvetica,sans-Serif" font-size="10.00">/home/travis/build</text>
<text text-anchor="start" x="813" y="-210" font-family="Helvetica,sans-Serif" font-size="10.00">/robotology/human&#45;dynamics</text>
<text text-anchor="start" x="813" y="-199" font-family="Helvetica,sans-Serif" font-size="10.00">&#45;estimation/yarp/ReadOnlyRemote</text>
<text text-anchor="middle" x="900" y="-188" font-family="Helvetica,sans-Serif" font-size="10.00">ControlBoard/stateExtendedReader.cpp</text>
</g>
<!-- Node2 -->
<g id="node2" class="node"><title>Node2</title>
<g id="a_node2"><a xlink:href="state_extended_reader_8hpp.html" target="_top" xlink:title="stateExtendedReader.hpp">
<polygon fill="none" stroke="black" points="835,-124.5 835,-143.5 965,-143.5 965,-124.5 835,-124.5"/>
<text text-anchor="middle" x="900" y="-131.5" font-family="Helvetica,sans-Serif" font-size="10.00">stateExtendedReader.hpp</text>
</a>
</g>
</g>
<!-- Node1&#45;&gt;Node2 -->
<g id="edge1" class="edge"><title>Node1&#45;&gt;Node2</title>
<path fill="none" stroke="midnightblue" d="M900,-180.768C900,-171.89 900,-162.074 900,-153.816"/>
<polygon fill="midnightblue" stroke="midnightblue" points="903.5,-153.757 900,-143.757 896.5,-153.757 903.5,-153.757"/>
</g>
<!-- Node3 -->
<g id="node3" class="node"><title>Node3</title>
<polygon fill="none" stroke="#bfbfbf" points="-0.5,-62.5 -0.5,-81.5 48.5,-81.5 48.5,-62.5 -0.5,-62.5"/>
<text text-anchor="middle" x="24" y="-69.5" font-family="Helvetica,sans-Serif" font-size="10.00">string.h</text>
</g>
<!-- Node1&#45;&gt;Node3 -->
<g id="edge22" class="edge"><title>Node1&#45;&gt;Node3</title>
<path fill="none" stroke="midnightblue" d="M804.813,-197.016C696.912,-186.377 515.877,-167.145 361,-144 225.125,-123.694 188.068,-129.177 57,-88 54.7204,-87.2838 52.391,-86.4501 50.0769,-85.5495"/>
<polygon fill="midnightblue" stroke="midnightblue" points="51.3872,-82.3034 40.8157,-81.6004 48.6414,-88.7424 51.3872,-82.3034"/>
</g>
<!-- Node4 -->
<g id="node4" class="node"><title>Node4</title>
<polygon fill="none" stroke="#bfbfbf" points="66.5,-62.5 66.5,-81.5 179.5,-81.5 179.5,-62.5 66.5,-62.5"/>
<text text-anchor="middle" x="123" y="-69.5" font-family="Helvetica,sans-Serif" font-size="10.00">yarp/os/PortablePair.h</text>
</g>
<!-- Node1&#45;&gt;Node4 -->
<g id="edge23" class="edge"><title>Node1&#45;&gt;Node4</title>
<path fill="none" stroke="midnightblue" d="M804.619,-193.475C718.145,-181.798 587.273,-163.321 474,-144 346.319,-122.222 314.677,-115.011 188,-88 181.83,-86.6845 175.344,-85.2498 168.954,-83.806"/>
<polygon fill="midnightblue" stroke="midnightblue" points="169.581,-80.3591 159.053,-81.5458 168.023,-87.1836 169.581,-80.3591"/>
</g>
<!-- Node5 -->
<g id="node5" class="node"><title>Node5</title>
<polygon fill="none" stroke="#bfbfbf" points="197.5,-62.5 197.5,-81.5 312.5,-81.5 312.5,-62.5 197.5,-62.5"/>
<text text-anchor="middle" x="255" y="-69.5" font-family="Helvetica,sans-Serif" font-size="10.00">yarp/os/BufferedPort.h</text>
</g>
<!-- Node1&#45;&gt;Node5 -->
<g id="edge24" class="edge"><title>Node1&#45;&gt;Node5</title>
<path fill="none" stroke="midnightblue" d="M804.709,-189.723C736.871,-177.842 643.64,-160.919 562,-144 468.067,-124.534 358.774,-98.4222 299.237,-83.9029"/>
<polygon fill="midnightblue" stroke="midnightblue" points="299.962,-80.477 289.417,-81.5029 298.3,-87.2769 299.962,-80.477"/>
</g>
<!-- Node6 -->
<g id="node6" class="node"><title>Node6</title>
<polygon fill="none" stroke="#bfbfbf" points="331,-62.5 331,-81.5 413,-81.5 413,-62.5 331,-62.5"/>
<text text-anchor="middle" x="372" y="-69.5" font-family="Helvetica,sans-Serif" font-size="10.00">yarp/os/Time.h</text>
</g>
<!-- Node1&#45;&gt;Node6 -->
<g id="edge25" class="edge"><title>Node1&#45;&gt;Node6</title>
<path fill="none" stroke="midnightblue" d="M804.868,-183.979C708.145,-161.247 554.133,-124.106 422,-88 417.918,-86.8847 413.663,-85.6773 409.432,-84.4485"/>
<polygon fill="midnightblue" stroke="midnightblue" points="410.281,-81.05 399.699,-81.5757 408.299,-87.7636 410.281,-81.05"/>
</g>
<!-- Node7 -->
<g id="node7" class="node"><title>Node7</title>
<polygon fill="none" stroke="#bfbfbf" points="431.5,-62.5 431.5,-81.5 528.5,-81.5 528.5,-62.5 431.5,-62.5"/>
<text text-anchor="middle" x="480" y="-69.5" font-family="Helvetica,sans-Serif" font-size="10.00">yarp/os/Network.h</text>
</g>
<!-- Node1&#45;&gt;Node7 -->
<g id="edge26" class="edge"><title>Node1&#45;&gt;Node7</title>
<path fill="none" stroke="midnightblue" d="M821.001,-180.984C730.14,-152.211 584.803,-106.188 517.034,-84.7275"/>
<polygon fill="midnightblue" stroke="midnightblue" points="517.819,-81.3047 507.229,-81.6224 515.705,-87.9781 517.819,-81.3047"/>
</g>
<!-- Node8 -->
<g id="node8" class="node"><title>Node8</title>
<polygon fill="none" stroke="#bfbfbf" points="547,-62.5 547,-81.5 637,-81.5 637,-62.5 547,-62.5"/>
<text text-anchor="middle" x="592" y="-69.5" font-family="Helvetica,sans-Serif" font-size="10.00">yarp/os/Thread.h</text>
</g>
<!-- Node1&#45;&gt;Node8 -->
<g id="edge27" class="edge"><title>Node1&#45;&gt;Node8</title>
<path fill="none" stroke="midnightblue" d="M842.068,-180.984C776.394,-152.625 671.911,-107.507 621.336,-85.668"/>
<polygon fill="midnightblue" stroke="midnightblue" points="622.536,-82.3736 611.968,-81.6224 619.761,-88.8001 622.536,-82.3736"/>
</g>
<!-- Node9 -->
<g id="node9" class="node"><title>Node9</title>
<polygon fill="none" stroke="#bfbfbf" points="655,-62.5 655,-81.5 743,-81.5 743,-62.5 655,-62.5"/>
<text text-anchor="middle" x="699" y="-69.5" font-family="Helvetica,sans-Serif" font-size="10.00">yarp/os/Vocab.h</text>
</g>
<!-- Node1&#45;&gt;Node9 -->
<g id="edge28" class="edge"><title>Node1&#45;&gt;Node9</title>
<path fill="none" stroke="midnightblue" d="M862.193,-180.984C820.407,-153.334 754.543,-109.753 720.685,-87.349"/>
<polygon fill="midnightblue" stroke="midnightblue" points="722.302,-84.2218 712.031,-81.6224 718.439,-90.0596 722.302,-84.2218"/>
</g>
<!-- Node10 -->
<g id="node10" class="node"><title>Node10</title>
<polygon fill="none" stroke="#bfbfbf" points="760.5,-62.5 760.5,-81.5 849.5,-81.5 849.5,-62.5 760.5,-62.5"/>
<text text-anchor="middle" x="805" y="-69.5" font-family="Helvetica,sans-Serif" font-size="10.00">yarp/os/Stamp.h</text>
</g>
<!-- Node1&#45;&gt;Node10 -->
<g id="edge29" class="edge"><title>Node1&#45;&gt;Node10</title>
<path fill="none" stroke="midnightblue" d="M861.677,-180.904C848.761,-170.792 835.284,-158.155 826,-144 815.551,-128.068 810.162,-106.785 807.476,-91.6867"/>
<polygon fill="midnightblue" stroke="midnightblue" points="810.895,-90.8874 805.911,-81.5381 803.976,-91.9549 810.895,-90.8874"/>
</g>
<!-- Node11 -->
<g id="node11" class="node"><title>Node11</title>
<polygon fill="none" stroke="#bfbfbf" points="1082,-62.5 1082,-81.5 1192,-81.5 1192,-62.5 1082,-62.5"/>
<text text-anchor="middle" x="1137" y="-69.5" font-family="Helvetica,sans-Serif" font-size="10.00">yarp/os/Semaphore.h</text>
</g>
<!-- Node1&#45;&gt;Node11 -->
<g id="edge30" class="edge"><title>Node1&#45;&gt;Node11</title>
<path fill="none" stroke="midnightblue" d="M944.578,-180.984C994.27,-153.097 1072.84,-109.006 1112.45,-86.7792"/>
<polygon fill="midnightblue" stroke="midnightblue" points="1114.63,-89.5686 1121.64,-81.6224 1111.2,-83.4641 1114.63,-89.5686"/>
</g>
<!-- Node13 -->
<g id="node13" class="node"><title>Node13</title>
<polygon fill="none" stroke="#bfbfbf" points="978.5,-0.5 978.5,-19.5 1069.5,-19.5 1069.5,-0.5 978.5,-0.5"/>
<text text-anchor="middle" x="1024" y="-7.5" font-family="Helvetica,sans-Serif" font-size="10.00">yarp/sig/Vector.h</text>
</g>
<!-- Node1&#45;&gt;Node13 -->
<g id="edge32" class="edge"><title>Node1&#45;&gt;Node13</title>
<path fill="none" stroke="midnightblue" d="M995.348,-203.112C1252.9,-194.329 1947.78,-163.761 2015,-88 2024.44,-77.3615 2024.83,-66.2822 2015,-56 1982.53,-22.0188 1284.64,-13.2685 1079.95,-11.429"/>
<polygon fill="midnightblue" stroke="midnightblue" points="1079.76,-7.92729 1069.73,-11.3392 1079.7,-14.927 1079.76,-7.92729"/>
</g>
<!-- Node14 -->
<g id="node14" class="node"><title>Node14</title>
<polygon fill="none" stroke="#bfbfbf" points="1210,-62.5 1210,-81.5 1376,-81.5 1376,-62.5 1210,-62.5"/>
<text text-anchor="middle" x="1293" y="-69.5" font-family="Helvetica,sans-Serif" font-size="10.00">yarp/dev/ControlBoardInterfaces.h</text>
</g>
<!-- Node1&#45;&gt;Node14 -->
<g id="edge33" class="edge"><title>Node1&#45;&gt;Node14</title>
<path fill="none" stroke="midnightblue" d="M971.774,-180.98C1018.96,-164.604 1082.09,-142.83 1138,-124 1178.7,-110.294 1225.55,-94.9368 1256.99,-84.6901"/>
<polygon fill="midnightblue" stroke="midnightblue" points="1258.21,-87.9753 1266.63,-81.5514 1256.04,-81.3192 1258.21,-87.9753"/>
</g>
<!-- Node15 -->
<g id="node15" class="node"><title>Node15</title>
<polygon fill="none" stroke="#bfbfbf" points="1394.5,-62.5 1394.5,-81.5 1505.5,-81.5 1505.5,-62.5 1394.5,-62.5"/>
<text text-anchor="middle" x="1450" y="-69.5" font-family="Helvetica,sans-Serif" font-size="10.00">yarp/dev/PolyDriver.h</text>
</g>
<!-- Node1&#45;&gt;Node15 -->
<g id="edge34" class="edge"><title>Node1&#45;&gt;Node15</title>
<path fill="none" stroke="midnightblue" d="M995.175,-182.985C1114.93,-154.027 1315.69,-105.479 1404.91,-83.9039"/>
<polygon fill="midnightblue" stroke="midnightblue" points="1405.82,-87.2848 1414.72,-81.5323 1404.17,-80.4809 1405.82,-87.2848"/>
</g>
<!-- Node16 -->
<g id="node16" class="node"><title>Node16</title>
<polygon fill="none" stroke="#bfbfbf" points="1523,-57 1523,-87 1681,-87 1681,-57 1523,-57"/>
<text text-anchor="start" x="1531" y="-75" font-family="Helvetica,sans-Serif" font-size="10.00">yarp/dev/ControlBoardInterfaces</text>
<text text-anchor="middle" x="1602" y="-64" font-family="Helvetica,sans-Serif" font-size="10.00">Impl.h</text>
</g>
<!-- Node1&#45;&gt;Node16 -->
<g id="edge35" class="edge"><title>Node1&#45;&gt;Node16</title>
<path fill="none" stroke="midnightblue" d="M995.04,-187.994C1132.94,-161.867 1386.35,-113.857 1517.85,-88.9425"/>
<polygon fill="midnightblue" stroke="midnightblue" points="1518.7,-92.3435 1527.88,-87.0431 1517.4,-85.4659 1518.7,-92.3435"/>
</g>
<!-- Node17 -->
<g id="node17" class="node"><title>Node17</title>
<polygon fill="none" stroke="#bfbfbf" points="1699,-62.5 1699,-81.5 1855,-81.5 1855,-62.5 1699,-62.5"/>
<text text-anchor="middle" x="1777" y="-69.5" font-family="Helvetica,sans-Serif" font-size="10.00">yarp/dev/ControlBoardHelpers.h</text>
</g>
<!-- Node1&#45;&gt;Node17 -->
<g id="edge36" class="edge"><title>Node1&#45;&gt;Node17</title>
<path fill="none" stroke="midnightblue" d="M995.132,-192.411C1143.49,-171.075 1438.89,-128.014 1689,-88 1698.43,-86.4918 1708.41,-84.8408 1718.14,-83.2032"/>
<polygon fill="midnightblue" stroke="midnightblue" points="1718.88,-86.6283 1728.15,-81.508 1717.71,-79.7265 1718.88,-86.6283"/>
</g>
<!-- Node18 -->
<g id="node18" class="node"><title>Node18</title>
<polygon fill="none" stroke="#bfbfbf" points="1873.5,-62.5 1873.5,-81.5 2006.5,-81.5 2006.5,-62.5 1873.5,-62.5"/>
<text text-anchor="middle" x="1940" y="-69.5" font-family="Helvetica,sans-Serif" font-size="10.00">yarp/dev/PreciselyTimed.h</text>
</g>
<!-- Node1&#45;&gt;Node18 -->
<g id="edge37" class="edge"><title>Node1&#45;&gt;Node18</title>
<path fill="none" stroke="midnightblue" d="M995.083,-196.728C1168.39,-179.302 1547.05,-138.801 1864,-88 1872.3,-86.669 1881.09,-85.0933 1889.62,-83.4718"/>
<polygon fill="midnightblue" stroke="midnightblue" points="1890.32,-86.9004 1899.47,-81.5592 1888.99,-80.0286 1890.32,-86.9004"/>
</g>
<!-- Node22 -->
<g id="node22" class="node"><title>Node22</title>
<polygon fill="none" stroke="#bfbfbf" points="2063.5,-124.5 2063.5,-143.5 2170.5,-143.5 2170.5,-124.5 2063.5,-124.5"/>
<text text-anchor="middle" x="2117" y="-131.5" font-family="Helvetica,sans-Serif" font-size="10.00">yarp/os/LogStream.h</text>
</g>
<!-- Node1&#45;&gt;Node22 -->
<g id="edge31" class="edge"><title>Node1&#45;&gt;Node22</title>
<path fill="none" stroke="midnightblue" d="M995.139,-203.367C1192.13,-197.363 1658.89,-180.286 2049,-144 2050.3,-143.879 2051.61,-143.752 2052.94,-143.619"/>
<polygon fill="midnightblue" stroke="midnightblue" points="2053.65,-147.062 2063.22,-142.51 2052.9,-140.103 2053.65,-147.062"/>
</g>
<!-- Node2&#45;&gt;Node3 -->
<g id="edge2" class="edge"><title>Node2&#45;&gt;Node3</title>
<path fill="none" stroke="midnightblue" d="M834.744,-132.643C663.468,-131.207 204.167,-124.011 57,-88 54.3409,-87.3493 51.6326,-86.4867 48.9687,-85.5029"/>
<polygon fill="midnightblue" stroke="midnightblue" points="50.2549,-82.2467 39.6816,-81.5711 47.5258,-88.6928 50.2549,-82.2467"/>
</g>
<!-- Node2&#45;&gt;Node4 -->
<g id="edge3" class="edge"><title>Node2&#45;&gt;Node4</title>
<path fill="none" stroke="midnightblue" d="M834.838,-132.439C709.104,-130.572 424.538,-122.53 188,-88 180.51,-86.9066 172.608,-85.3937 164.992,-83.7469"/>
<polygon fill="midnightblue" stroke="midnightblue" points="165.73,-80.3255 155.203,-81.5288 164.183,-87.1524 165.73,-80.3255"/>
</g>
<!-- Node2&#45;&gt;Node5 -->
<g id="edge4" class="edge"><title>Node2&#45;&gt;Node5</title>
<path fill="none" stroke="midnightblue" d="M834.646,-130.946C727.18,-126.891 506.639,-115.712 322,-88 314.459,-86.8683 306.504,-85.3656 298.812,-83.7479"/>
<polygon fill="midnightblue" stroke="midnightblue" points="299.426,-80.2994 288.908,-81.5767 297.926,-87.137 299.426,-80.2994"/>
</g>
<!-- Node2&#45;&gt;Node6 -->
<g id="edge5" class="edge"><title>Node2&#45;&gt;Node6</title>
<path fill="none" stroke="midnightblue" d="M834.863,-130.941C742.322,-127.097 567.828,-116.448 422,-88 416.959,-87.0166 411.7,-85.7335 406.565,-84.3316"/>
<polygon fill="midnightblue" stroke="midnightblue" points="407.516,-80.9632 396.937,-81.5368 405.565,-87.6857 407.516,-80.9632"/>
</g>
<!-- Node2&#45;&gt;Node7 -->
<g id="edge6" class="edge"><title>Node2&#45;&gt;Node7</title>
<path fill="none" stroke="midnightblue" d="M834.867,-127.464C762.09,-120.685 640.959,-107.628 538,-88 532.109,-86.877 525.93,-85.4991 519.891,-84.0379"/>
<polygon fill="midnightblue" stroke="midnightblue" points="520.488,-80.5789 509.936,-81.5306 518.778,-87.367 520.488,-80.5789"/>
</g>
<!-- Node2&#45;&gt;Node8 -->
<g id="edge7" class="edge"><title>Node2&#45;&gt;Node8</title>
<path fill="none" stroke="midnightblue" d="M842.943,-124.491C791.258,-116.404 713.148,-103.238 646,-88 640.969,-86.8584 635.707,-85.5464 630.523,-84.1834"/>
<polygon fill="midnightblue" stroke="midnightblue" points="631.303,-80.7686 620.736,-81.5311 629.472,-87.5249 631.303,-80.7686"/>
</g>
<!-- Node2&#45;&gt;Node9 -->
<g id="edge8" class="edge"><title>Node2&#45;&gt;Node9</title>
<path fill="none" stroke="midnightblue" d="M871.202,-124.403C836.126,-113.933 776.737,-96.2049 737.693,-84.5501"/>
<polygon fill="midnightblue" stroke="midnightblue" points="738.328,-81.0872 727.745,-81.5806 736.326,-87.7948 738.328,-81.0872"/>
</g>
<!-- Node2&#45;&gt;Node10 -->
<g id="edge9" class="edge"><title>Node2&#45;&gt;Node10</title>
<path fill="none" stroke="midnightblue" d="M886.389,-124.403C870.939,-114.646 845.51,-98.5854 827.184,-87.0109"/>
<polygon fill="midnightblue" stroke="midnightblue" points="828.91,-83.9613 818.586,-81.5806 825.172,-89.8798 828.91,-83.9613"/>
</g>
<!-- Node2&#45;&gt;Node11 -->
<g id="edge10" class="edge"><title>Node2&#45;&gt;Node11</title>
<path fill="none" stroke="midnightblue" d="M933.705,-124.467C975.733,-113.827 1047.64,-95.6215 1093.71,-83.9593"/>
<polygon fill="midnightblue" stroke="midnightblue" points="1094.58,-87.3506 1103.41,-81.5034 1092.86,-80.5647 1094.58,-87.3506"/>
</g>
<!-- Node12 -->
<g id="node12" class="node"><title>Node12</title>
<polygon fill="none" stroke="#bfbfbf" points="988,-62.5 988,-81.5 1064,-81.5 1064,-62.5 988,-62.5"/>
<text text-anchor="middle" x="1026" y="-69.5" font-family="Helvetica,sans-Serif" font-size="10.00">yarp/os/Log.h</text>
</g>
<!-- Node2&#45;&gt;Node12 -->
<g id="edge11" class="edge"><title>Node2&#45;&gt;Node12</title>
<path fill="none" stroke="midnightblue" d="M918.053,-124.403C939.198,-114.334 974.44,-97.5522 998.878,-85.9151"/>
<polygon fill="midnightblue" stroke="midnightblue" points="1000.46,-89.04 1007.98,-81.5806 997.447,-82.72 1000.46,-89.04"/>
</g>
<!-- Node2&#45;&gt;Node13 -->
<g id="edge12" class="edge"><title>Node2&#45;&gt;Node13</title>
<path fill="none" stroke="midnightblue" d="M908.918,-124.226C929.652,-103.826 981.346,-52.9657 1007.82,-26.9198"/>
<polygon fill="midnightblue" stroke="midnightblue" points="1010.49,-29.2027 1015.16,-19.6944 1005.58,-24.2129 1010.49,-29.2027"/>
</g>
<!-- Node2&#45;&gt;Node14 -->
<g id="edge13" class="edge"><title>Node2&#45;&gt;Node14</title>
<path fill="none" stroke="midnightblue" d="M958.583,-124.476C1019.27,-115.591 1116.82,-101.154 1201,-88 1210.83,-86.4634 1221.25,-84.7994 1231.41,-83.1579"/>
<polygon fill="midnightblue" stroke="midnightblue" points="1232.13,-86.5861 1241.44,-81.5294 1231.01,-79.6765 1232.13,-86.5861"/>
</g>
<!-- Node2&#45;&gt;Node15 -->
<g id="edge14" class="edge"><title>Node2&#45;&gt;Node15</title>
<path fill="none" stroke="midnightblue" d="M965.069,-129.745C1058.48,-124.443 1235.77,-112.031 1385,-88 1392.15,-86.8481 1399.69,-85.3633 1407,-83.7772"/>
<polygon fill="midnightblue" stroke="midnightblue" points="1407.78,-87.1888 1416.77,-81.5733 1406.24,-80.3605 1407.78,-87.1888"/>
</g>
<!-- Node2&#45;&gt;Node16 -->
<g id="edge15" class="edge"><title>Node2&#45;&gt;Node16</title>
<path fill="none" stroke="midnightblue" d="M965.177,-130.275C1075.72,-125.202 1307.18,-112.635 1512.82,-88.0673"/>
<polygon fill="midnightblue" stroke="midnightblue" points="1513.39,-91.5236 1522.9,-86.8505 1512.55,-84.574 1513.39,-91.5236"/>
</g>
<!-- Node2&#45;&gt;Node17 -->
<g id="edge16" class="edge"><title>Node2&#45;&gt;Node17</title>
<path fill="none" stroke="midnightblue" d="M965.155,-131.748C1100.43,-128.606 1421.46,-118.335 1689,-88 1699.96,-86.7568 1711.64,-85.0447 1722.78,-83.2208"/>
<polygon fill="midnightblue" stroke="midnightblue" points="1723.54,-86.641 1732.82,-81.5245 1722.38,-79.7387 1723.54,-86.641"/>
</g>
<!-- Node2&#45;&gt;Node18 -->
<g id="edge17" class="edge"><title>Node2&#45;&gt;Node18</title>
<path fill="none" stroke="midnightblue" d="M965.157,-133.28C1121.05,-133.228 1527.61,-128.819 1864,-88 1873.31,-86.8697 1883.2,-85.2415 1892.64,-83.4706"/>
<polygon fill="midnightblue" stroke="midnightblue" points="1893.54,-86.8626 1902.68,-81.5099 1892.19,-79.9925 1893.54,-86.8626"/>
</g>
<!-- Node19 -->
<g id="node19" class="node"><title>Node19</title>
<g id="a_node19"><a xlink:href="joint_data_8h.html" target="_top" xlink:title="jointData.h">
<polygon fill="none" stroke="black" points="868,-62.5 868,-81.5 932,-81.5 932,-62.5 868,-62.5"/>
<text text-anchor="middle" x="900" y="-69.5" font-family="Helvetica,sans-Serif" font-size="10.00">jointData.h</text>
</a>
</g>
</g>
<!-- Node2&#45;&gt;Node19 -->
<g id="edge18" class="edge"><title>Node2&#45;&gt;Node19</title>
<path fill="none" stroke="midnightblue" d="M900,-124.403C900,-115.938 900,-102.728 900,-91.8199"/>
<polygon fill="midnightblue" stroke="midnightblue" points="903.5,-91.5806 900,-81.5806 896.5,-91.5806 903.5,-91.5806"/>
</g>
<!-- Node19&#45;&gt;Node13 -->
<g id="edge21" class="edge"><title>Node19&#45;&gt;Node13</title>
<path fill="none" stroke="midnightblue" d="M917.766,-62.4035C938.484,-52.3787 972.952,-35.7006 996.989,-24.0699"/>
<polygon fill="midnightblue" stroke="midnightblue" points="998.79,-27.0868 1006.27,-19.5806 995.741,-20.7857 998.79,-27.0868"/>
</g>
<!-- Node20 -->
<g id="node20" class="node"><title>Node20</title>
<polygon fill="none" stroke="#bfbfbf" points="742,-0.5 742,-19.5 822,-19.5 822,-0.5 742,-0.5"/>
<text text-anchor="middle" x="782" y="-7.5" font-family="Helvetica,sans-Serif" font-size="10.00">yarp/os/Wire.h</text>
</g>
<!-- Node19&#45;&gt;Node20 -->
<g id="edge19" class="edge"><title>Node19&#45;&gt;Node20</title>
<path fill="none" stroke="midnightblue" d="M883.093,-62.4035C863.466,-52.4232 830.869,-35.8487 808.01,-24.2253"/>
<polygon fill="midnightblue" stroke="midnightblue" points="809.375,-20.9933 798.875,-19.5806 806.203,-27.233 809.375,-20.9933"/>
</g>
<!-- Node21 -->
<g id="node21" class="node"><title>Node21</title>
<polygon fill="none" stroke="#bfbfbf" points="840,-0.5 840,-19.5 960,-19.5 960,-0.5 840,-0.5"/>
<text text-anchor="middle" x="900" y="-7.5" font-family="Helvetica,sans-Serif" font-size="10.00">yarp/os/idl/WireTypes.h</text>
</g>
<!-- Node19&#45;&gt;Node21 -->
<g id="edge20" class="edge"><title>Node19&#45;&gt;Node21</title>
<path fill="none" stroke="midnightblue" d="M900,-62.4035C900,-53.9381 900,-40.7283 900,-29.8199"/>
<polygon fill="midnightblue" stroke="midnightblue" points="903.5,-29.5806 900,-19.5806 896.5,-29.5806 903.5,-29.5806"/>
</g>
</g>
</svg>
        <g id="navigator" transform="translate(0 0)" fill="#404254">
                <rect fill="#f2f5e9" fill-opacity="0.5" stroke="#606060" stroke-width=".5" x="0" y="0" width="60" height="60"/>
                <use id="zoomplus" xlink:href="#zoomPlus" x="17" y="9" onmousedown="handleZoom(evt,'in')"/>
                <use id="zoomminus" xlink:href="#zoomMin" x="42" y="9" onmousedown="handleZoom(evt,'out')"/>
                <use id="reset" xlink:href="#resetDef" x="30" y="36" onmousedown="handleReset()"/>
                <g id="arrowUp" xlink:href="#dirArrow" transform="translate(30 24)" onmousedown="handlePan(0,-1)">
                  <use xlink:href="#rim" fill="#404040">
                        <set attributeName="fill" to="#808080" begin="arrowUp.mouseover" end="arrowUp.mouseout"/>
                  </use>
                  <path fill="none" stroke="white" stroke-width="1.5" d="M0,-3.0v7 M-2.5,-0.5L0,-3.0L2.5,-0.5"/>
                </g>
                <g id="arrowRight" xlink:href="#dirArrow" transform="rotate(90) translate(36 -43)" onmousedown="handlePan(1,0)">
                  <use xlink:href="#rim" fill="#404040">
                        <set attributeName="fill" to="#808080" begin="arrowRight.mouseover" end="arrowRight.mouseout"/>
                  </use>
                  <path fill="none" stroke="white" stroke-width="1.5" d="M0,-3.0v7 M-2.5,-0.5L0,-3.0L2.5,-0.5"/>
                </g>
                <g id="arrowDown" xlink:href="#dirArrow" transform="rotate(180) translate(-30 -48)" onmousedown="handlePan(0,1)">
                  <use xlink:href="#rim" fill="#404040">
                        <set attributeName="fill" to="#808080" begin="arrowDown.mouseover" end="arrowDown.mouseout"/>
                  </use>
                  <path fill="none" stroke="white" stroke-width="1.5" d="M0,-3.0v7 M-2.5,-0.5L0,-3.0L2.5,-0.5"/>
                </g>
                <g id="arrowLeft" xlink:href="#dirArrow" transform="rotate(270) translate(-36 17)" onmousedown="handlePan(-1,0)">
                  <use xlink:href="#rim" fill="#404040">
                        <set attributeName="fill" to="#808080" begin="arrowLeft.mouseover" end="arrowLeft.mouseout"/>
                  </use>
                  <path fill="none" stroke="white" stroke-width="1.5" d="M0,-3.0v7 M-2.5,-0.5L0,-3.0L2.5,-0.5"/>
                </g>
        </g>
        <svg viewBox="0 0 15 15" width="100%" height="30px" preserveAspectRatio="xMaxYMin meet">
         <g id="arrow_out" transform="scale(0.3 0.3)">
          <a xlink:href="state_extended_reader_8cpp__incl_org.svg" target="_base">
           <rect id="button" ry="5" rx="5" y="6" x="6" height="38" width="38"
                fill="#f2f5e9" fill-opacity="0.5" stroke="#606060" stroke-width="1.0"/>
           <path id="arrow"
             d="M 11.500037,31.436501 C 11.940474,20.09759 22.043105,11.32322 32.158766,21.979434 L 37.068811,17.246167 C 37.068811,17.246167 37.088388,32 37.088388,32 L 22.160133,31.978069 C 22.160133,31.978069 26.997745,27.140456 26.997745,27.140456 C 18.528582,18.264221 13.291696,25.230495 11.500037,31.436501 z"
             style="fill:#404040;"/>
          </a>
         </g>
        </svg>
</svg>
