<?xml version="1.0" encoding="UTF-8" standalone="no"?>
<!DOCTYPE svg PUBLIC "-//W3C//DTD SVG 1.1//EN"
 "http://www.w3.org/Graphics/SVG/1.1/DTD/svg11.dtd">
<!-- Generated by graphviz version 2.36.0 (20140111.2315)
 -->
<!-- Title: /home/travis/build/robotology/human&#45;dynamics&#45;estimation/yarp/ReadOnlyRemoteControlBoard/stateExtendedReader.hpp Pages: 1 -->
<!--zoomable 186 -->
<svg id="main" version="1.1" xmlns="http://www.w3.org/2000/svg" xmlns:xlink="http://www.w3.org/1999/xlink" xml:space="preserve" onload="init(evt)">
<style type="text/css"><![CDATA[
.edge:hover path { stroke: red; }
.edge:hover polygon { stroke: red; fill: red; }
]]></style>
<script type="text/javascript"><![CDATA[
var edges = document.getElementsByTagName('g');
if (edges && edges.length) {
  for (var i=0;i<edges.length;i++) {
    if (edges[i].id.substr(0,4)=='edge') {
      edges[i].setAttribute('class','edge');
    }
  }
}
]]></script>
        <defs>
                <circle id="rim" cx="0" cy="0" r="7"/>
                <circle id="rim2" cx="0" cy="0" r="3.5"/>
                <g id="zoomPlus">
                        <use xlink:href="#rim" fill="#404040">
                                <set attributeName="fill" to="#808080" begin="zoomplus.mouseover" end="zoomplus.mouseout"/>
                        </use>
                        <path d="M-4,0h8M0,-4v8" fill="none" stroke="white" stroke-width="1.5" pointer-events="none"/>
                </g>
                <g id="zoomMin">
                        <use xlink:href="#rim" fill="#404040">
                                <set attributeName="fill" to="#808080" begin="zoomminus.mouseover" end="zoomminus.mouseout"/>
                        </use>
                        <path d="M-4,0h8" fill="none" stroke="white" stroke-width="1.5" pointer-events="none"/>
                </g>
                <g id="dirArrow">
                        <path fill="none" stroke="white" stroke-width="1.5" d="M0,-3.0v7 M-2.5,-0.5L0,-3.0L2.5,-0.5"/>
                </g>
               <g id="resetDef">
                       <use xlink:href="#rim2" fill="#404040">
                               <set attributeName="fill" to="#808080" begin="reset.mouseover" end="reset.mouseout"/>
                       </use>
               </g>
        </defs>

<script type="text/javascript">
var viewWidth = 2102;
var viewHeight = 186;
var sectionId = 'dynsection-0';
</script>
<script xlink:href="svgpan.js"/>
<svg id="graph" class="graph">
<g id="viewport">
<title>/home/travis/build/robotology/human&#45;dynamics&#45;estimation/yarp/ReadOnlyRemoteControlBoard/stateExtendedReader.hpp</title>
<!-- Node1 -->
<g id="node1" class="node"><title>Node1</title>
<polygon fill="#bfbfbf" stroke="black" points="828,-125 828,-177 1018,-177 1018,-125 828,-125"/>
<text text-anchor="start" x="836" y="-165" font-family="Helvetica,sans-Serif" font-size="10.00">/home/travis/build</text>
<text text-anchor="start" x="836" y="-154" font-family="Helvetica,sans-Serif" font-size="10.00">/robotology/human&#45;dynamics</text>
<text text-anchor="start" x="836" y="-143" font-family="Helvetica,sans-Serif" font-size="10.00">&#45;estimation/yarp/ReadOnlyRemote</text>
<text text-anchor="middle" x="923" y="-132" font-family="Helvetica,sans-Serif" font-size="10.00">ControlBoard/stateExtendedReader.hpp</text>
</g>
<!-- Node2 -->
<g id="node2" class="node"><title>Node2</title>
<polygon fill="none" stroke="#bfbfbf" points="-0.5,-62.5 -0.5,-81.5 48.5,-81.5 48.5,-62.5 -0.5,-62.5"/>
<text text-anchor="middle" x="24" y="-69.5" font-family="Helvetica,sans-Serif" font-size="10.00">string.h</text>
</g>
<!-- Node1&#45;&gt;Node2 -->
<g id="edge1" class="edge"><title>Node1&#45;&gt;Node2</title>
<path fill="none" stroke="midnightblue" d="M827.662,-147.425C633.943,-141.497 200.525,-124.503 57,-88 54.3469,-87.3252 51.6426,-86.4467 48.9811,-85.4531"/>
<polygon fill="midnightblue" stroke="midnightblue" points="50.2695,-82.1977 39.6971,-81.5088 47.5324,-88.6404 50.2695,-82.1977"/>
</g>
<!-- Node3 -->
<g id="node3" class="node"><title>Node3</title>
<polygon fill="none" stroke="#bfbfbf" points="66.5,-62.5 66.5,-81.5 179.5,-81.5 179.5,-62.5 66.5,-62.5"/>
<text text-anchor="middle" x="123" y="-69.5" font-family="Helvetica,sans-Serif" font-size="10.00">yarp/os/PortablePair.h</text>
</g>
<!-- Node1&#45;&gt;Node3 -->
<g id="edge2" class="edge"><title>Node1&#45;&gt;Node3</title>
<path fill="none" stroke="midnightblue" d="M827.922,-146.316C687.336,-139.89 416.039,-123.743 188,-88 180.763,-86.8657 173.135,-85.3762 165.749,-83.7764"/>
<polygon fill="midnightblue" stroke="midnightblue" points="166.415,-80.3386 155.889,-81.5493 164.873,-87.1666 166.415,-80.3386"/>
</g>
<!-- Node4 -->
<g id="node4" class="node"><title>Node4</title>
<polygon fill="none" stroke="#bfbfbf" points="197.5,-62.5 197.5,-81.5 312.5,-81.5 312.5,-62.5 197.5,-62.5"/>
<text text-anchor="middle" x="255" y="-69.5" font-family="Helvetica,sans-Serif" font-size="10.00">yarp/os/BufferedPort.h</text>
</g>
<!-- Node1&#45;&gt;Node4 -->
<g id="edge3" class="edge"><title>Node1&#45;&gt;Node4</title>
<path fill="none" stroke="midnightblue" d="M827.821,-143.651C708.938,-134.924 499.552,-116.931 322,-88 314.721,-86.8139 307.046,-85.3248 299.592,-83.7486"/>
<polygon fill="midnightblue" stroke="midnightblue" points="300.141,-80.2858 289.624,-81.5654 298.643,-87.1238 300.141,-80.2858"/>
</g>
<!-- Node5 -->
<g id="node5" class="node"><title>Node5</title>
<polygon fill="none" stroke="#bfbfbf" points="331,-62.5 331,-81.5 413,-81.5 413,-62.5 331,-62.5"/>
<text text-anchor="middle" x="372" y="-69.5" font-family="Helvetica,sans-Serif" font-size="10.00">yarp/os/Time.h</text>
</g>
<!-- Node1&#45;&gt;Node5 -->
<g id="edge4" class="edge"><title>Node1&#45;&gt;Node5</title>
<path fill="none" stroke="midnightblue" d="M827.566,-142.999C726.178,-134.445 561.585,-117.356 422,-88 417.208,-86.9922 412.212,-85.7416 407.31,-84.3956"/>
<polygon fill="midnightblue" stroke="midnightblue" points="408.059,-80.9686 397.48,-81.546 406.11,-87.6918 408.059,-80.9686"/>
</g>
<!-- Node6 -->
<g id="node6" class="node"><title>Node6</title>
<polygon fill="none" stroke="#bfbfbf" points="431.5,-62.5 431.5,-81.5 528.5,-81.5 528.5,-62.5 431.5,-62.5"/>
<text text-anchor="middle" x="480" y="-69.5" font-family="Helvetica,sans-Serif" font-size="10.00">yarp/os/Network.h</text>
</g>
<!-- Node1&#45;&gt;Node6 -->
<g id="edge5" class="edge"><title>Node1&#45;&gt;Node6</title>
<path fill="none" stroke="midnightblue" d="M827.614,-137.169C749.426,-126.046 636.072,-108.532 538,-88 532.465,-86.8412 526.664,-85.4979 520.961,-84.1008"/>
<polygon fill="midnightblue" stroke="midnightblue" points="521.43,-80.6096 510.878,-81.5561 519.717,-87.3968 521.43,-80.6096"/>
</g>
<!-- Node7 -->
<g id="node7" class="node"><title>Node7</title>
<polygon fill="none" stroke="#bfbfbf" points="547,-62.5 547,-81.5 637,-81.5 637,-62.5 547,-62.5"/>
<text text-anchor="middle" x="592" y="-69.5" font-family="Helvetica,sans-Serif" font-size="10.00">yarp/os/Thread.h</text>
</g>
<!-- Node1&#45;&gt;Node7 -->
<g id="edge6" class="edge"><title>Node1&#45;&gt;Node7</title>
<path fill="none" stroke="midnightblue" d="M827.849,-129.952C774.274,-118.351 706.23,-103.096 646,-88 641.293,-86.8202 636.37,-85.5308 631.494,-84.2192"/>
<polygon fill="midnightblue" stroke="midnightblue" points="632.206,-80.7854 621.637,-81.524 630.36,-87.5376 632.206,-80.7854"/>
</g>
<!-- Node8 -->
<g id="node8" class="node"><title>Node8</title>
<polygon fill="none" stroke="#bfbfbf" points="655,-62.5 655,-81.5 743,-81.5 743,-62.5 655,-62.5"/>
<text text-anchor="middle" x="699" y="-69.5" font-family="Helvetica,sans-Serif" font-size="10.00">yarp/os/Vocab.h</text>
</g>
<!-- Node1&#45;&gt;Node8 -->
<g id="edge7" class="edge"><title>Node1&#45;&gt;Node8</title>
<path fill="none" stroke="midnightblue" d="M849.964,-124.894C810.795,-111.429 764.363,-95.4684 733.435,-84.8371"/>
<polygon fill="midnightblue" stroke="midnightblue" points="734.562,-81.5236 723.968,-81.5826 732.287,-88.1434 734.562,-81.5236"/>
</g>
<!-- Node9 -->
<g id="node9" class="node"><title>Node9</title>
<polygon fill="none" stroke="#bfbfbf" points="760.5,-62.5 760.5,-81.5 849.5,-81.5 849.5,-62.5 760.5,-62.5"/>
<text text-anchor="middle" x="805" y="-69.5" font-family="Helvetica,sans-Serif" font-size="10.00">yarp/os/Stamp.h</text>
</g>
<!-- Node1&#45;&gt;Node9 -->
<g id="edge8" class="edge"><title>Node1&#45;&gt;Node9</title>
<path fill="none" stroke="midnightblue" d="M884.362,-124.787C865.259,-112.321 842.909,-97.7371 826.804,-87.2278"/>
<polygon fill="midnightblue" stroke="midnightblue" points="828.402,-84.0914 818.114,-81.5577 824.576,-89.9537 828.402,-84.0914"/>
</g>
<!-- Node10 -->
<g id="node10" class="node"><title>Node10</title>
<polygon fill="none" stroke="#bfbfbf" points="868,-62.5 868,-81.5 978,-81.5 978,-62.5 868,-62.5"/>
<text text-anchor="middle" x="923" y="-69.5" font-family="Helvetica,sans-Serif" font-size="10.00">yarp/os/Semaphore.h</text>
</g>
<!-- Node1&#45;&gt;Node10 -->
<g id="edge9" class="edge"><title>Node1&#45;&gt;Node10</title>
<path fill="none" stroke="midnightblue" d="M923,-124.787C923,-114.069 923,-101.785 923,-91.8708"/>
<polygon fill="midnightblue" stroke="midnightblue" points="926.5,-91.5577 923,-81.5577 919.5,-91.5577 926.5,-91.5577"/>
</g>
<!-- Node11 -->
<g id="node11" class="node"><title>Node11</title>
<polygon fill="none" stroke="#bfbfbf" points="996,-62.5 996,-81.5 1072,-81.5 1072,-62.5 996,-62.5"/>
<text text-anchor="middle" x="1034" y="-69.5" font-family="Helvetica,sans-Serif" font-size="10.00">yarp/os/Log.h</text>
</g>
<!-- Node1&#45;&gt;Node11 -->
<g id="edge10" class="edge"><title>Node1&#45;&gt;Node11</title>
<path fill="none" stroke="midnightblue" d="M959.346,-124.787C977.148,-112.438 997.947,-98.0096 1013.06,-87.5235"/>
<polygon fill="midnightblue" stroke="midnightblue" points="1015.44,-90.1334 1021.66,-81.5577 1011.45,-84.3817 1015.44,-90.1334"/>
</g>
<!-- Node12 -->
<g id="node12" class="node"><title>Node12</title>
<polygon fill="none" stroke="#bfbfbf" points="1410.5,-0.5 1410.5,-19.5 1501.5,-19.5 1501.5,-0.5 1410.5,-0.5"/>
<text text-anchor="middle" x="1456" y="-7.5" font-family="Helvetica,sans-Serif" font-size="10.00">yarp/sig/Vector.h</text>
</g>
<!-- Node1&#45;&gt;Node12 -->
<g id="edge11" class="edge"><title>Node1&#45;&gt;Node12</title>
<path fill="none" stroke="midnightblue" d="M1001.71,-124.878C1027.81,-115.062 1056.44,-102.62 1081,-88 1099.97,-76.7065 1098.81,-64.9289 1119,-56 1168.12,-34.2822 1317.68,-20.7026 1400.07,-14.6647"/>
<polygon fill="midnightblue" stroke="midnightblue" points="1400.54,-18.1402 1410.26,-13.9313 1400.04,-11.1582 1400.54,-18.1402"/>
</g>
<!-- Node13 -->
<g id="node13" class="node"><title>Node13</title>
<polygon fill="none" stroke="#bfbfbf" points="1128,-62.5 1128,-81.5 1294,-81.5 1294,-62.5 1128,-62.5"/>
<text text-anchor="middle" x="1211" y="-69.5" font-family="Helvetica,sans-Serif" font-size="10.00">yarp/dev/ControlBoardInterfaces.h</text>
</g>
<!-- Node1&#45;&gt;Node13 -->
<g id="edge12" class="edge"><title>Node1&#45;&gt;Node13</title>
<path fill="none" stroke="midnightblue" d="M1016.9,-124.894C1068.24,-111.167 1129.29,-94.8456 1169.03,-84.222"/>
<polygon fill="midnightblue" stroke="midnightblue" points="1170.14,-87.5468 1178.9,-81.5826 1168.33,-80.7844 1170.14,-87.5468"/>
</g>
<!-- Node14 -->
<g id="node14" class="node"><title>Node14</title>
<polygon fill="none" stroke="#bfbfbf" points="1312.5,-62.5 1312.5,-81.5 1423.5,-81.5 1423.5,-62.5 1312.5,-62.5"/>
<text text-anchor="middle" x="1368" y="-69.5" font-family="Helvetica,sans-Serif" font-size="10.00">yarp/dev/PolyDriver.h</text>
</g>
<!-- Node1&#45;&gt;Node14 -->
<g id="edge13" class="edge"><title>Node1&#45;&gt;Node14</title>
<path fill="none" stroke="midnightblue" d="M1018.18,-136.227C1095.22,-124.656 1206.42,-107.001 1303,-88 1309.57,-86.7082 1316.48,-85.2353 1323.25,-83.729"/>
<polygon fill="midnightblue" stroke="midnightblue" points="1324.03,-87.1411 1333.01,-81.5153 1322.48,-80.3145 1324.03,-87.1411"/>
</g>
<!-- Node15 -->
<g id="node15" class="node"><title>Node15</title>
<polygon fill="none" stroke="#bfbfbf" points="1441,-57 1441,-87 1599,-87 1599,-57 1441,-57"/>
<text text-anchor="start" x="1449" y="-75" font-family="Helvetica,sans-Serif" font-size="10.00">yarp/dev/ControlBoardInterfaces</text>
<text text-anchor="middle" x="1520" y="-64" font-family="Helvetica,sans-Serif" font-size="10.00">Impl.h</text>
</g>
<!-- Node1&#45;&gt;Node15 -->
<g id="edge14" class="edge"><title>Node1&#45;&gt;Node15</title>
<path fill="none" stroke="midnightblue" d="M1018.4,-139.752C1118.51,-128.685 1280.71,-109.87 1430.57,-88.1705"/>
<polygon fill="midnightblue" stroke="midnightblue" points="1431.48,-91.574 1440.87,-86.6702 1430.47,-84.647 1431.48,-91.574"/>
</g>
<!-- Node16 -->
<g id="node16" class="node"><title>Node16</title>
<polygon fill="none" stroke="#bfbfbf" points="1617,-62.5 1617,-81.5 1773,-81.5 1773,-62.5 1617,-62.5"/>
<text text-anchor="middle" x="1695" y="-69.5" font-family="Helvetica,sans-Serif" font-size="10.00">yarp/dev/ControlBoardHelpers.h</text>
</g>
<!-- Node1&#45;&gt;Node16 -->
<g id="edge15" class="edge"><title>Node1&#45;&gt;Node16</title>
<path fill="none" stroke="midnightblue" d="M1018.14,-143.744C1150.51,-134.502 1397.57,-115.298 1607,-88 1617.37,-86.649 1628.38,-84.9687 1638.97,-83.2264"/>
<polygon fill="midnightblue" stroke="midnightblue" points="1639.69,-86.6548 1648.97,-81.5456 1638.53,-79.7516 1639.69,-86.6548"/>
</g>
<!-- Node17 -->
<g id="node17" class="node"><title>Node17</title>
<polygon fill="none" stroke="#bfbfbf" points="1791.5,-62.5 1791.5,-81.5 1924.5,-81.5 1924.5,-62.5 1791.5,-62.5"/>
<text text-anchor="middle" x="1858" y="-69.5" font-family="Helvetica,sans-Serif" font-size="10.00">yarp/dev/PreciselyTimed.h</text>
</g>
<!-- Node1&#45;&gt;Node17 -->
<g id="edge16" class="edge"><title>Node1&#45;&gt;Node17</title>
<path fill="none" stroke="midnightblue" d="M1018.09,-146.953C1176.92,-141.01 1506,-125.055 1782,-88 1790.91,-86.8038 1800.35,-85.2096 1809.43,-83.5068"/>
<polygon fill="midnightblue" stroke="midnightblue" points="1810.34,-86.8959 1819.49,-81.5536 1809.01,-80.0243 1810.34,-86.8959"/>
</g>
<!-- Node18 -->
<g id="node18" class="node"><title>Node18</title>
<g id="a_node18"><a xlink:href="joint_data_8h.html" target="_top" xlink:title="jointData.h">
<polygon fill="none" stroke="black" points="1943,-62.5 1943,-81.5 2007,-81.5 2007,-62.5 1943,-62.5"/>
<text text-anchor="middle" x="1975" y="-69.5" font-family="Helvetica,sans-Serif" font-size="10.00">jointData.h</text>
</a>
</g>
</g>
<!-- Node1&#45;&gt;Node18 -->
<g id="edge17" class="edge"><title>Node1&#45;&gt;Node18</title>
<path fill="none" stroke="midnightblue" d="M1018.07,-147.576C1234.74,-141.499 1759.82,-123.495 1933,-88 1936.98,-87.1838 1941.1,-86.0715 1945.12,-84.8189"/>
<polygon fill="midnightblue" stroke="midnightblue" points="1946.49,-88.0504 1954.82,-81.5049 1944.23,-81.4264 1946.49,-88.0504"/>
</g>
<!-- Node18&#45;&gt;Node12 -->
<g id="edge20" class="edge"><title>Node18&#45;&gt;Node12</title>
<path fill="none" stroke="midnightblue" d="M1954.37,-62.4777C1947.66,-60.0195 1940.11,-57.578 1933,-56 1783.23,-22.7367 1601.66,-14.0454 1511.86,-11.7855"/>
<polygon fill="midnightblue" stroke="midnightblue" points="1511.71,-8.28118 1501.63,-11.5462 1511.55,-15.2793 1511.71,-8.28118"/>
</g>
<!-- Node19 -->
<g id="node19" class="node"><title>Node19</title>
<polygon fill="none" stroke="#bfbfbf" points="1876,-0.5 1876,-19.5 1956,-19.5 1956,-0.5 1876,-0.5"/>
<text text-anchor="middle" x="1916" y="-7.5" font-family="Helvetica,sans-Serif" font-size="10.00">yarp/os/Wire.h</text>
</g>
<!-- Node18&#45;&gt;Node19 -->
<g id="edge18" class="edge"><title>Node18&#45;&gt;Node19</title>
<path fill="none" stroke="midnightblue" d="M1966.55,-62.4035C1957.43,-53.1361 1942.73,-38.1828 1931.52,-26.7876"/>
<polygon fill="midnightblue" stroke="midnightblue" points="1933.94,-24.2569 1924.44,-19.5806 1928.95,-29.1649 1933.94,-24.2569"/>
</g>
<!-- Node20 -->
<g id="node20" class="node"><title>Node20</title>
<polygon fill="none" stroke="#bfbfbf" points="1974,-0.5 1974,-19.5 2094,-19.5 2094,-0.5 1974,-0.5"/>
<text text-anchor="middle" x="2034" y="-7.5" font-family="Helvetica,sans-Serif" font-size="10.00">yarp/os/idl/WireTypes.h</text>
</g>
<!-- Node18&#45;&gt;Node20 -->
<g id="edge19" class="edge"><title>Node18&#45;&gt;Node20</title>
<path fill="none" stroke="midnightblue" d="M1983.45,-62.4035C1992.57,-53.1361 2007.27,-38.1828 2018.48,-26.7876"/>
<polygon fill="midnightblue" stroke="midnightblue" points="2021.05,-29.1649 2025.56,-19.5806 2016.06,-24.2569 2021.05,-29.1649"/>
</g>
</g>
</svg>
        <g id="navigator" transform="translate(0 0)" fill="#404254">
                <rect fill="#f2f5e9" fill-opacity="0.5" stroke="#606060" stroke-width=".5" x="0" y="0" width="60" height="60"/>
                <use id="zoomplus" xlink:href="#zoomPlus" x="17" y="9" onmousedown="handleZoom(evt,'in')"/>
                <use id="zoomminus" xlink:href="#zoomMin" x="42" y="9" onmousedown="handleZoom(evt,'out')"/>
                <use id="reset" xlink:href="#resetDef" x="30" y="36" onmousedown="handleReset()"/>
                <g id="arrowUp" xlink:href="#dirArrow" transform="translate(30 24)" onmousedown="handlePan(0,-1)">
                  <use xlink:href="#rim" fill="#404040">
                        <set attributeName="fill" to="#808080" begin="arrowUp.mouseover" end="arrowUp.mouseout"/>
                  </use>
                  <path fill="none" stroke="white" stroke-width="1.5" d="M0,-3.0v7 M-2.5,-0.5L0,-3.0L2.5,-0.5"/>
                </g>
                <g id="arrowRight" xlink:href="#dirArrow" transform="rotate(90) translate(36 -43)" onmousedown="handlePan(1,0)">
                  <use xlink:href="#rim" fill="#404040">
                        <set attributeName="fill" to="#808080" begin="arrowRight.mouseover" end="arrowRight.mouseout"/>
                  </use>
                  <path fill="none" stroke="white" stroke-width="1.5" d="M0,-3.0v7 M-2.5,-0.5L0,-3.0L2.5,-0.5"/>
                </g>
                <g id="arrowDown" xlink:href="#dirArrow" transform="rotate(180) translate(-30 -48)" onmousedown="handlePan(0,1)">
                  <use xlink:href="#rim" fill="#404040">
                        <set attributeName="fill" to="#808080" begin="arrowDown.mouseover" end="arrowDown.mouseout"/>
                  </use>
                  <path fill="none" stroke="white" stroke-width="1.5" d="M0,-3.0v7 M-2.5,-0.5L0,-3.0L2.5,-0.5"/>
                </g>
                <g id="arrowLeft" xlink:href="#dirArrow" transform="rotate(270) translate(-36 17)" onmousedown="handlePan(-1,0)">
                  <use xlink:href="#rim" fill="#404040">
                        <set attributeName="fill" to="#808080" begin="arrowLeft.mouseover" end="arrowLeft.mouseout"/>
                  </use>
                  <path fill="none" stroke="white" stroke-width="1.5" d="M0,-3.0v7 M-2.5,-0.5L0,-3.0L2.5,-0.5"/>
                </g>
        </g>
        <svg viewBox="0 0 15 15" width="100%" height="30px" preserveAspectRatio="xMaxYMin meet">
         <g id="arrow_out" transform="scale(0.3 0.3)">
          <a xlink:href="state_extended_reader_8hpp__incl_org.svg" target="_base">
           <rect id="button" ry="5" rx="5" y="6" x="6" height="38" width="38"
                fill="#f2f5e9" fill-opacity="0.5" stroke="#606060" stroke-width="1.0"/>
           <path id="arrow"
             d="M 11.500037,31.436501 C 11.940474,20.09759 22.043105,11.32322 32.158766,21.979434 L 37.068811,17.246167 C 37.068811,17.246167 37.088388,32 37.088388,32 L 22.160133,31.978069 C 22.160133,31.978069 26.997745,27.140456 26.997745,27.140456 C 18.528582,18.264221 13.291696,25.230495 11.500037,31.436501 z"
             style="fill:#404040;"/>
          </a>
         </g>
        </svg>
</svg>
