<?xml version="1.0" encoding="UTF-8" standalone="no"?>
<!DOCTYPE svg PUBLIC "-//W3C//DTD SVG 1.1//EN"
 "http://www.w3.org/Graphics/SVG/1.1/DTD/svg11.dtd">
<!-- Generated by graphviz version 2.36.0 (20140111.2315)
 -->
<!-- Title: human::LinkPairInfo Pages: 1 -->
<svg width="1102pt" height="260pt"
 viewBox="0.00 0.00 1102.00 260.00" xmlns="http://www.w3.org/2000/svg" xmlns:xlink="http://www.w3.org/1999/xlink">
<g id="graph0" class="graph" transform="scale(1 1) rotate(0) translate(4 256)">
<title>human::LinkPairInfo</title>
<!-- Node1 -->
<g id="node1" class="node"><title>Node1</title>
<polygon fill="#bfbfbf" stroke="black" points="497,-0.5 497,-79.5 601,-79.5 601,-0.5 497,-0.5"/>
<text text-anchor="middle" x="549" y="-67.5" font-family="Helvetica,sans-Serif" font-size="10.00">human::LinkPairInfo</text>
<polyline fill="none" stroke="black" points="497,-60.5 601,-60.5 "/>
<text text-anchor="middle" x="549" y="-48.5" font-family="Helvetica,sans-Serif" font-size="10.00"> </text>
<polyline fill="none" stroke="black" points="497,-41.5 601,-41.5 "/>
<text text-anchor="start" x="505" y="-29.5" font-family="Helvetica,sans-Serif" font-size="10.00">+ LinkPairInfo()</text>
<text text-anchor="start" x="505" y="-18.5" font-family="Helvetica,sans-Serif" font-size="10.00">+ LinkPairInfo()</text>
<text text-anchor="start" x="505" y="-7.5" font-family="Helvetica,sans-Serif" font-size="10.00">+ LinkPairInfo()</text>
</g>
<!-- Node2 -->
<g id="node2" class="node"><title>Node2</title>
<polygon fill="none" stroke="#bfbfbf" points="-0.5,-177.5 -0.5,-234.5 80.5,-234.5 80.5,-177.5 -0.5,-177.5"/>
<text text-anchor="middle" x="40" y="-222.5" font-family="Helvetica,sans-Serif" font-size="10.00">MatrixDynSize</text>
<polyline fill="none" stroke="#bfbfbf" points="-0.5,-215.5 80.5,-215.5 "/>
<text text-anchor="middle" x="40" y="-203.5" font-family="Helvetica,sans-Serif" font-size="10.00"> </text>
<polyline fill="none" stroke="#bfbfbf" points="-0.5,-196.5 80.5,-196.5 "/>
<text text-anchor="middle" x="40" y="-184.5" font-family="Helvetica,sans-Serif" font-size="10.00"> </text>
</g>
<!-- Node2&#45;&gt;Node1 -->
<g id="edge1" class="edge"><title>Node2&#45;&gt;Node1</title>
<path fill="none" stroke="#404040" d="M58.7139,-177.148C77.2282,-152.024 107.965,-116.292 144,-98 202.214,-68.45 385.76,-51.9421 484.55,-44.9865"/>
<polygon fill="none" stroke="#404040" points="484.773,-44.9712 490.483,-40.5681 496.744,-44.1461 491.033,-48.5492 484.773,-44.9712"/>
<text text-anchor="middle" x="184" y="-128.5" font-family="Helvetica,sans-Serif" font-size="10.00"> +relativeJacobian</text>
<text text-anchor="middle" x="184" y="-117.5" font-family="Helvetica,sans-Serif" font-size="10.00">+parentJacobian</text>
<text text-anchor="middle" x="184" y="-106.5" font-family="Helvetica,sans-Serif" font-size="10.00">+childJacobian</text>
</g>
<!-- Node3 -->
<g id="node3" class="node"><title>Node3</title>
<polygon fill="none" stroke="#bfbfbf" points="99,-172 99,-240 241,-240 241,-172 99,-172"/>
<text text-anchor="start" x="107" y="-228" font-family="Helvetica,sans-Serif" font-size="10.00">unique_ptr&lt; human::</text>
<text text-anchor="middle" x="170" y="-217" font-family="Helvetica,sans-Serif" font-size="10.00">human::InverseKinematics &gt;</text>
<polyline fill="none" stroke="#bfbfbf" points="99,-210 241,-210 "/>
<text text-anchor="middle" x="170" y="-198" font-family="Helvetica,sans-Serif" font-size="10.00"> </text>
<polyline fill="none" stroke="#bfbfbf" points="99,-191 241,-191 "/>
<text text-anchor="middle" x="170" y="-179" font-family="Helvetica,sans-Serif" font-size="10.00"> </text>
</g>
<!-- Node3&#45;&gt;Node1 -->
<g id="edge2" class="edge"><title>Node3&#45;&gt;Node1</title>
<path fill="none" stroke="#404040" d="M197.079,-171.925C218.664,-147.774 250.991,-116.192 286,-98 348.823,-65.354 429.426,-51.3846 484.746,-45.4198"/>
<polygon fill="none" stroke="#404040" points="484.906,-45.4037 490.474,-40.8217 496.845,-44.1992 491.277,-48.7813 484.906,-45.4037"/>
<text text-anchor="middle" x="308.5" y="-117.5" font-family="Helvetica,sans-Serif" font-size="10.00"> +ikSolver</text>
</g>
<!-- Node4 -->
<g id="node4" class="node"><title>Node4</title>
<polygon fill="none" stroke="#bfbfbf" points="259.5,-161 259.5,-251 420.5,-251 420.5,-161 259.5,-161"/>
<text text-anchor="start" x="267.5" y="-239" font-family="Helvetica,sans-Serif" font-size="10.00">ColPivHouseholderQR</text>
<text text-anchor="start" x="267.5" y="-228" font-family="Helvetica,sans-Serif" font-size="10.00">&lt; Eigen::Matrix&lt; double,</text>
<text text-anchor="start" x="267.5" y="-217" font-family="Helvetica,sans-Serif" font-size="10.00"> Eigen::Dynamic, Eigen</text>
<text text-anchor="middle" x="340" y="-206" font-family="Helvetica,sans-Serif" font-size="10.00">::Dynamic, Eigen::RowMajor &gt; &gt;</text>
<polyline fill="none" stroke="#bfbfbf" points="259.5,-199 420.5,-199 "/>
<text text-anchor="middle" x="340" y="-187" font-family="Helvetica,sans-Serif" font-size="10.00"> </text>
<polyline fill="none" stroke="#bfbfbf" points="259.5,-180 420.5,-180 "/>
<text text-anchor="middle" x="340" y="-168" font-family="Helvetica,sans-Serif" font-size="10.00"> </text>
</g>
<!-- Node4&#45;&gt;Node1 -->
<g id="edge3" class="edge"><title>Node4&#45;&gt;Node1</title>
<path fill="none" stroke="#404040" d="M333.356,-160.814C332.641,-139.614 335.765,-115.16 350,-98 367.313,-77.1306 433.361,-61.0591 484.673,-51.3805"/>
<polygon fill="none" stroke="#404040" points="484.894,-51.3402 490.075,-46.324 496.697,-49.1769 491.517,-54.193 484.894,-51.3402"/>
<text text-anchor="middle" x="405.5" y="-117.5" font-family="Helvetica,sans-Serif" font-size="10.00"> +jacobianDecomposition</text>
</g>
<!-- Node5 -->
<g id="node5" class="node"><title>Node5</title>
<polygon fill="none" stroke="#bfbfbf" points="439,-177.5 439,-234.5 507,-234.5 507,-177.5 439,-177.5"/>
<text text-anchor="middle" x="473" y="-222.5" font-family="Helvetica,sans-Serif" font-size="10.00">FrameIndex</text>
<polyline fill="none" stroke="#bfbfbf" points="439,-215.5 507,-215.5 "/>
<text text-anchor="middle" x="473" y="-203.5" font-family="Helvetica,sans-Serif" font-size="10.00"> </text>
<polyline fill="none" stroke="#bfbfbf" points="439,-196.5 507,-196.5 "/>
<text text-anchor="middle" x="473" y="-184.5" font-family="Helvetica,sans-Serif" font-size="10.00"> </text>
</g>
<!-- Node5&#45;&gt;Node1 -->
<g id="edge4" class="edge"><title>Node5&#45;&gt;Node1</title>
<path fill="none" stroke="#404040" d="M466.799,-177.058C463.26,-154.496 461.668,-122.573 474,-98 477.466,-91.0935 482.208,-84.7946 487.636,-79.1145"/>
<polygon fill="none" stroke="#404040" points="487.876,-78.89 489.531,-71.8713 496.646,-70.6993 494.992,-77.718 487.876,-78.89"/>
<text text-anchor="middle" x="539" y="-134" font-family="Helvetica,sans-Serif" font-size="10.00"> +parentFrameModelIndex</text>
<text text-anchor="middle" x="539" y="-123" font-family="Helvetica,sans-Serif" font-size="10.00">+childFrameSegmentsIndex</text>
<text text-anchor="middle" x="539" y="-112" font-family="Helvetica,sans-Serif" font-size="10.00">+childFrameModelIndex</text>
<text text-anchor="middle" x="539" y="-101" font-family="Helvetica,sans-Serif" font-size="10.00">+parentFrameSegmentsIndex</text>
</g>
<!-- Node6 -->
<g id="node6" class="node"><title>Node6</title>
<polygon fill="none" stroke="#bfbfbf" points="605.5,-177.5 605.5,-234.5 646.5,-234.5 646.5,-177.5 605.5,-177.5"/>
<text text-anchor="middle" x="626" y="-222.5" font-family="Helvetica,sans-Serif" font-size="10.00">string</text>
<polyline fill="none" stroke="#bfbfbf" points="605.5,-215.5 646.5,-215.5 "/>
<text text-anchor="middle" x="626" y="-203.5" font-family="Helvetica,sans-Serif" font-size="10.00"> </text>
<polyline fill="none" stroke="#bfbfbf" points="605.5,-196.5 646.5,-196.5 "/>
<text text-anchor="middle" x="626" y="-184.5" font-family="Helvetica,sans-Serif" font-size="10.00"> </text>
</g>
<!-- Node6&#45;&gt;Node1 -->
<g id="edge5" class="edge"><title>Node6&#45;&gt;Node1</title>
<path fill="none" stroke="#404040" d="M624.546,-177.194C622.397,-154.712 617.09,-122.829 604,-98 602.46,-95.0786 600.725,-92.2037 598.845,-89.3923"/>
<polygon fill="none" stroke="#404040" points="598.66,-89.1444 591.868,-86.7215 591.492,-79.5202 598.284,-81.943 598.66,-89.1444"/>
<text text-anchor="middle" x="663" y="-123" font-family="Helvetica,sans-Serif" font-size="10.00"> +childFrameName</text>
<text text-anchor="middle" x="663" y="-112" font-family="Helvetica,sans-Serif" font-size="10.00">+parentFrameName</text>
</g>
<!-- Node7 -->
<g id="node7" class="node"><title>Node7</title>
<polygon fill="none" stroke="#bfbfbf" points="689,-172 689,-240 785,-240 785,-172 689,-172"/>
<text text-anchor="start" x="697" y="-228" font-family="Helvetica,sans-Serif" font-size="10.00">vector&lt; std::pair&lt;</text>
<text text-anchor="middle" x="737" y="-217" font-family="Helvetica,sans-Serif" font-size="10.00"> size_t, size_t &gt; &gt;</text>
<polyline fill="none" stroke="#bfbfbf" points="689,-210 785,-210 "/>
<text text-anchor="middle" x="737" y="-198" font-family="Helvetica,sans-Serif" font-size="10.00"> </text>
<polyline fill="none" stroke="#bfbfbf" points="689,-191 785,-191 "/>
<text text-anchor="middle" x="737" y="-179" font-family="Helvetica,sans-Serif" font-size="10.00"> </text>
</g>
<!-- Node7&#45;&gt;Node1 -->
<g id="edge6" class="edge"><title>Node7&#45;&gt;Node1</title>
<path fill="none" stroke="#404040" d="M736.922,-171.723C735.135,-148.418 729.084,-117.988 711,-98 685.97,-70.3339 646.703,-56.0955 613.098,-48.7679"/>
<polygon fill="none" stroke="#404040" points="612.781,-48.705 606.117,-51.4604 601.01,-46.3689 607.674,-43.6135 612.781,-48.705"/>
<text text-anchor="middle" x="792" y="-117.5" font-family="Helvetica,sans-Serif" font-size="10.00"> +consideredJointLocations</text>
</g>
<!-- Node8 -->
<g id="node8" class="node"><title>Node8</title>
<polygon fill="none" stroke="#bfbfbf" points="817.5,-172 817.5,-240 942.5,-240 942.5,-172 817.5,-172"/>
<text text-anchor="start" x="825.5" y="-228" font-family="Helvetica,sans-Serif" font-size="10.00">unique_ptr&lt; iDynTree</text>
<text text-anchor="middle" x="880" y="-217" font-family="Helvetica,sans-Serif" font-size="10.00">::KinDynComputations &gt;</text>
<polyline fill="none" stroke="#bfbfbf" points="817.5,-210 942.5,-210 "/>
<text text-anchor="middle" x="880" y="-198" font-family="Helvetica,sans-Serif" font-size="10.00"> </text>
<polyline fill="none" stroke="#bfbfbf" points="817.5,-191 942.5,-191 "/>
<text text-anchor="middle" x="880" y="-179" font-family="Helvetica,sans-Serif" font-size="10.00"> </text>
</g>
<!-- Node8&#45;&gt;Node1 -->
<g id="edge7" class="edge"><title>Node8&#45;&gt;Node1</title>
<path fill="none" stroke="#404040" d="M881.559,-171.903C880.795,-148.064 875.604,-116.89 856,-98 822.142,-65.3748 693.206,-50.792 613.592,-44.7803"/>
<polygon fill="none" stroke="#404040" points="613.228,-44.754 606.955,-48.3104 601.26,-43.8875 607.533,-40.3312 613.228,-44.754"/>
<text text-anchor="middle" x="929.5" y="-117.5" font-family="Helvetica,sans-Serif" font-size="10.00"> +kinDynComputations</text>
</g>
<!-- Node9 -->
<g id="node9" class="node"><title>Node9</title>
<polygon fill="none" stroke="#bfbfbf" points="962.5,-177.5 962.5,-234.5 1045.5,-234.5 1045.5,-177.5 962.5,-177.5"/>
<text text-anchor="middle" x="1004" y="-222.5" font-family="Helvetica,sans-Serif" font-size="10.00">VectorDynSize</text>
<polyline fill="none" stroke="#bfbfbf" points="962.5,-215.5 1045.5,-215.5 "/>
<text text-anchor="middle" x="1004" y="-203.5" font-family="Helvetica,sans-Serif" font-size="10.00"> </text>
<polyline fill="none" stroke="#bfbfbf" points="962.5,-196.5 1045.5,-196.5 "/>
<text text-anchor="middle" x="1004" y="-184.5" font-family="Helvetica,sans-Serif" font-size="10.00"> </text>
</g>
<!-- Node9&#45;&gt;Node1 -->
<g id="edge8" class="edge"><title>Node9&#45;&gt;Node1</title>
<path fill="none" stroke="#404040" d="M1006.49,-177.052C1007,-152.576 1003.38,-117.896 982,-98 929.809,-49.4323 720.641,-41.4608 613.286,-40.6506"/>
<polygon fill="none" stroke="#404040" points="613.029,-40.6493 607.008,-44.6176 601.029,-40.586 607.05,-36.6177 613.029,-40.6493"/>
<text text-anchor="middle" x="1048.5" y="-123" font-family="Helvetica,sans-Serif" font-size="10.00"> +jointConfigurations</text>
<text text-anchor="middle" x="1048.5" y="-112" font-family="Helvetica,sans-Serif" font-size="10.00">+jointVelocities</text>
</g>
</g>
</svg>
