<?xml version="1.0" encoding="UTF-8" standalone="no"?>
<!DOCTYPE svg PUBLIC "-//W3C//DTD SVG 1.1//EN"
 "http://www.w3.org/Graphics/SVG/1.1/DTD/svg11.dtd">
<!-- Generated by graphviz version 2.36.0 (20140111.2315)
 -->
<!-- Title: IKSolverLog Pages: 1 -->
<svg width="202pt" height="182pt"
 viewBox="0.00 0.00 202.00 182.00" xmlns="http://www.w3.org/2000/svg" xmlns:xlink="http://www.w3.org/1999/xlink">
<g id="graph0" class="graph" transform="scale(1 1) rotate(0) translate(4 178)">
<title>IKSolverLog</title>
<!-- Node1 -->
<g id="node1" class="node"><title>Node1</title>
<polygon fill="#bfbfbf" stroke="black" points="59,-0.5 59,-57.5 129,-57.5 129,-0.5 59,-0.5"/>
<text text-anchor="middle" x="94" y="-45.5" font-family="Helvetica,sans-Serif" font-size="10.00">IKSolverLog</text>
<polyline fill="none" stroke="black" points="59,-38.5 129,-38.5 "/>
<text text-anchor="middle" x="94" y="-26.5" font-family="Helvetica,sans-Serif" font-size="10.00"> </text>
<polyline fill="none" stroke="black" points="59,-19.5 129,-19.5 "/>
<text text-anchor="middle" x="94" y="-7.5" font-family="Helvetica,sans-Serif" font-size="10.00"> </text>
</g>
<!-- Node2 -->
<g id="node2" class="node"><title>Node2</title>
<polygon fill="none" stroke="#bfbfbf" points="0,-116.5 0,-173.5 90,-173.5 90,-116.5 0,-116.5"/>
<text text-anchor="middle" x="45" y="-161.5" font-family="Helvetica,sans-Serif" font-size="10.00">vector&lt; double &gt;</text>
<polyline fill="none" stroke="#bfbfbf" points="0,-154.5 90,-154.5 "/>
<text text-anchor="middle" x="45" y="-142.5" font-family="Helvetica,sans-Serif" font-size="10.00"> </text>
<polyline fill="none" stroke="#bfbfbf" points="0,-135.5 90,-135.5 "/>
<text text-anchor="middle" x="45" y="-123.5" font-family="Helvetica,sans-Serif" font-size="10.00"> </text>
</g>
<!-- Node2&#45;&gt;Node1 -->
<g id="edge1" class="edge"><title>Node2&#45;&gt;Node1</title>
<path fill="none" stroke="#404040" d="M46.726,-116.263C48.3026,-103.551 51.3028,-88.5539 57,-76 58.26,-73.2235 59.7269,-70.4711 61.3355,-67.7746"/>
<polygon fill="none" stroke="#404040" points="61.4032,-67.674 61.4358,-60.463 68.1047,-57.7196 68.0721,-64.9306 61.4032,-67.674"/>
<text text-anchor="middle" x="89.5" y="-90" font-family="Helvetica,sans-Serif" font-size="10.00"> +elapsedTime</text>
<text text-anchor="middle" x="89.5" y="-79" font-family="Helvetica,sans-Serif" font-size="10.00">+angleError</text>
</g>
<!-- Node3 -->
<g id="node3" class="node"><title>Node3</title>
<polygon fill="none" stroke="#bfbfbf" points="108,-116.5 108,-173.5 180,-173.5 180,-116.5 108,-116.5"/>
<text text-anchor="middle" x="144" y="-161.5" font-family="Helvetica,sans-Serif" font-size="10.00">vector&lt; int &gt;</text>
<polyline fill="none" stroke="#bfbfbf" points="108,-154.5 180,-154.5 "/>
<text text-anchor="middle" x="144" y="-142.5" font-family="Helvetica,sans-Serif" font-size="10.00"> </text>
<polyline fill="none" stroke="#bfbfbf" points="108,-135.5 180,-135.5 "/>
<text text-anchor="middle" x="144" y="-123.5" font-family="Helvetica,sans-Serif" font-size="10.00"> </text>
</g>
<!-- Node3&#45;&gt;Node1 -->
<g id="edge2" class="edge"><title>Node3&#45;&gt;Node1</title>
<path fill="none" stroke="#404040" d="M136.644,-116.313C132.902,-103.749 127.895,-88.8584 122,-76 120.817,-73.4185 119.52,-70.802 118.153,-68.1952"/>
<polygon fill="none" stroke="#404040" points="118.111,-68.1206 111.692,-64.8365 112.254,-57.6473 118.674,-60.9314 118.111,-68.1206"/>
<text text-anchor="middle" x="162" y="-84.5" font-family="Helvetica,sans-Serif" font-size="10.00"> +timeInstants</text>
</g>
</g>
</svg>
