<?xml version="1.0" encoding="UTF-8" standalone="no"?>
<!DOCTYPE svg PUBLIC "-//W3C//DTD SVG 1.1//EN"
 "http://www.w3.org/Graphics/SVG/1.1/DTD/svg11.dtd">
<!-- Generated by graphviz version 2.36.0 (20140111.2315)
 -->
<!-- Title: human::HumanIKWorkerPool::WorkerTaskData Pages: 1 -->
<!--zoomable 388 -->
<svg id="main" version="1.1" xmlns="http://www.w3.org/2000/svg" xmlns:xlink="http://www.w3.org/1999/xlink" xml:space="preserve" onload="init(evt)">
<style type="text/css"><![CDATA[
.edge:hover path { stroke: red; }
.edge:hover polygon { stroke: red; fill: red; }
]]></style>
<script type="text/javascript"><![CDATA[
var edges = document.getElementsByTagName('g');
if (edges && edges.length) {
  for (var i=0;i<edges.length;i++) {
    if (edges[i].id.substr(0,4)=='edge') {
      edges[i].setAttribute('class','edge');
    }
  }
}
]]></script>
        <defs>
                <circle id="rim" cx="0" cy="0" r="7"/>
                <circle id="rim2" cx="0" cy="0" r="3.5"/>
                <g id="zoomPlus">
                        <use xlink:href="#rim" fill="#404040">
                                <set attributeName="fill" to="#808080" begin="zoomplus.mouseover" end="zoomplus.mouseout"/>
                        </use>
                        <path d="M-4,0h8M0,-4v8" fill="none" stroke="white" stroke-width="1.5" pointer-events="none"/>
                </g>
                <g id="zoomMin">
                        <use xlink:href="#rim" fill="#404040">
                                <set attributeName="fill" to="#808080" begin="zoomminus.mouseover" end="zoomminus.mouseout"/>
                        </use>
                        <path d="M-4,0h8" fill="none" stroke="white" stroke-width="1.5" pointer-events="none"/>
                </g>
                <g id="dirArrow">
                        <path fill="none" stroke="white" stroke-width="1.5" d="M0,-3.0v7 M-2.5,-0.5L0,-3.0L2.5,-0.5"/>
                </g>
               <g id="resetDef">
                       <use xlink:href="#rim2" fill="#404040">
                               <set attributeName="fill" to="#808080" begin="reset.mouseover" end="reset.mouseout"/>
                       </use>
               </g>
        </defs>

<script type="text/javascript">
var viewWidth = 1376;
var viewHeight = 388;
var sectionId = 'dynsection-0';
</script>
<script xlink:href="svgpan.js"/>
<svg id="graph" class="graph">
<g id="viewport">
<title>human::HumanIKWorkerPool::WorkerTaskData</title>
<!-- Node1 -->
<g id="node1" class="node"><title>Node1</title>
<polygon fill="#bfbfbf" stroke="black" points="1053,-1 1053,-69 1197,-69 1197,-1 1053,-1"/>
<text text-anchor="start" x="1061" y="-57" font-family="Helvetica,sans-Serif" font-size="10.00">human::HumanIKWorkerPool</text>
<text text-anchor="middle" x="1125" y="-46" font-family="Helvetica,sans-Serif" font-size="10.00">::WorkerTaskData</text>
<polyline fill="none" stroke="black" points="1053,-39 1197,-39 "/>
<text text-anchor="middle" x="1125" y="-27" font-family="Helvetica,sans-Serif" font-size="10.00"> </text>
<polyline fill="none" stroke="black" points="1053,-20 1197,-20 "/>
<text text-anchor="middle" x="1125" y="-8" font-family="Helvetica,sans-Serif" font-size="10.00"> </text>
</g>
<!-- Node2 -->
<g id="node2" class="node"><title>Node2</title>
<g id="a_node2"><a xlink:href="structhuman_1_1_link_pair_info.html" target="_top" xlink:title="{human::LinkPairInfo\n||+ LinkPairInfo()\l+ LinkPairInfo()\l+ LinkPairInfo()\l}">
<polygon fill="none" stroke="black" points="471,-128.5 471,-207.5 575,-207.5 575,-128.5 471,-128.5"/>
<text text-anchor="middle" x="523" y="-195.5" font-family="Helvetica,sans-Serif" font-size="10.00">human::LinkPairInfo</text>
<polyline fill="none" stroke="black" points="471,-188.5 575,-188.5 "/>
<text text-anchor="middle" x="523" y="-176.5" font-family="Helvetica,sans-Serif" font-size="10.00"> </text>
<polyline fill="none" stroke="black" points="471,-169.5 575,-169.5 "/>
<text text-anchor="start" x="479" y="-157.5" font-family="Helvetica,sans-Serif" font-size="10.00">+ LinkPairInfo()</text>
<text text-anchor="start" x="479" y="-146.5" font-family="Helvetica,sans-Serif" font-size="10.00">+ LinkPairInfo()</text>
<text text-anchor="start" x="479" y="-135.5" font-family="Helvetica,sans-Serif" font-size="10.00">+ LinkPairInfo()</text>
</a>
</g>
</g>
<!-- Node2&#45;&gt;Node1 -->
<g id="edge1" class="edge"><title>Node2&#45;&gt;Node1</title>
<path fill="none" stroke="#404040" d="M575.109,-155.661C679.427,-132.96 914.718,-81.7591 1041.05,-54.2678"/>
<polygon fill="none" stroke="#404040" points="1041.2,-54.2347 1046.22,-49.0504 1052.93,-51.6831 1047.92,-56.8674 1041.2,-54.2347"/>
<text text-anchor="middle" x="899" y="-96.5" font-family="Helvetica,sans-Serif" font-size="10.00"> +pairInfo</text>
</g>
<!-- Node3 -->
<g id="node3" class="node"><title>Node3</title>
<polygon fill="none" stroke="#bfbfbf" points="141.5,-305.5 141.5,-362.5 222.5,-362.5 222.5,-305.5 141.5,-305.5"/>
<text text-anchor="middle" x="182" y="-350.5" font-family="Helvetica,sans-Serif" font-size="10.00">MatrixDynSize</text>
<polyline fill="none" stroke="#bfbfbf" points="141.5,-343.5 222.5,-343.5 "/>
<text text-anchor="middle" x="182" y="-331.5" font-family="Helvetica,sans-Serif" font-size="10.00"> </text>
<polyline fill="none" stroke="#bfbfbf" points="141.5,-324.5 222.5,-324.5 "/>
<text text-anchor="middle" x="182" y="-312.5" font-family="Helvetica,sans-Serif" font-size="10.00"> </text>
</g>
<!-- Node3&#45;&gt;Node2 -->
<g id="edge2" class="edge"><title>Node3&#45;&gt;Node2</title>
<path fill="none" stroke="#404040" d="M187.785,-305.309C194.422,-280.658 207.803,-245.558 233,-226 267.508,-199.215 384.404,-182.845 458.826,-174.884"/>
<polygon fill="none" stroke="#404040" points="458.904,-174.876 464.457,-170.276 470.839,-173.633 465.286,-178.233 458.904,-174.876"/>
<text text-anchor="middle" x="273" y="-256.5" font-family="Helvetica,sans-Serif" font-size="10.00"> +relativeJacobian</text>
<text text-anchor="middle" x="273" y="-245.5" font-family="Helvetica,sans-Serif" font-size="10.00">+parentJacobian</text>
<text text-anchor="middle" x="273" y="-234.5" font-family="Helvetica,sans-Serif" font-size="10.00">+childJacobian</text>
</g>
<!-- Node4 -->
<g id="node4" class="node"><title>Node4</title>
<polygon fill="none" stroke="#bfbfbf" points="384,-300 384,-368 526,-368 526,-300 384,-300"/>
<text text-anchor="start" x="392" y="-356" font-family="Helvetica,sans-Serif" font-size="10.00">unique_ptr&lt; human::</text>
<text text-anchor="middle" x="455" y="-345" font-family="Helvetica,sans-Serif" font-size="10.00">human::InverseKinematics &gt;</text>
<polyline fill="none" stroke="#bfbfbf" points="384,-338 526,-338 "/>
<text text-anchor="middle" x="455" y="-326" font-family="Helvetica,sans-Serif" font-size="10.00"> </text>
<polyline fill="none" stroke="#bfbfbf" points="384,-319 526,-319 "/>
<text text-anchor="middle" x="455" y="-307" font-family="Helvetica,sans-Serif" font-size="10.00"> </text>
</g>
<!-- Node4&#45;&gt;Node2 -->
<g id="edge3" class="edge"><title>Node4&#45;&gt;Node2</title>
<path fill="none" stroke="#404040" d="M448.396,-299.594C445.68,-277.652 445.293,-248.884 456,-226 457.925,-221.885 460.308,-217.956 463.016,-214.227"/>
<polygon fill="none" stroke="#404040" points="463.168,-214.044 463.937,-206.874 470.852,-204.827 470.082,-211.997 463.168,-214.044"/>
<text text-anchor="middle" x="478.5" y="-245.5" font-family="Helvetica,sans-Serif" font-size="10.00"> +ikSolver</text>
</g>
<!-- Node5 -->
<g id="node5" class="node"><title>Node5</title>
<polygon fill="none" stroke="#bfbfbf" points="544.5,-289 544.5,-379 705.5,-379 705.5,-289 544.5,-289"/>
<text text-anchor="start" x="552.5" y="-367" font-family="Helvetica,sans-Serif" font-size="10.00">ColPivHouseholderQR</text>
<text text-anchor="start" x="552.5" y="-356" font-family="Helvetica,sans-Serif" font-size="10.00">&lt; Eigen::Matrix&lt; double,</text>
<text text-anchor="start" x="552.5" y="-345" font-family="Helvetica,sans-Serif" font-size="10.00"> Eigen::Dynamic, Eigen</text>
<text text-anchor="middle" x="625" y="-334" font-family="Helvetica,sans-Serif" font-size="10.00">::Dynamic, Eigen::RowMajor &gt; &gt;</text>
<polyline fill="none" stroke="#bfbfbf" points="544.5,-327 705.5,-327 "/>
<text text-anchor="middle" x="625" y="-315" font-family="Helvetica,sans-Serif" font-size="10.00"> </text>
<polyline fill="none" stroke="#bfbfbf" points="544.5,-308 705.5,-308 "/>
<text text-anchor="middle" x="625" y="-296" font-family="Helvetica,sans-Serif" font-size="10.00"> </text>
</g>
<!-- Node5&#45;&gt;Node2 -->
<g id="edge4" class="edge"><title>Node5&#45;&gt;Node2</title>
<path fill="none" stroke="#404040" d="M544.353,-294.186C536.271,-287.22 529.159,-279.191 524,-270 515.574,-254.988 513.463,-236.637 514.063,-219.715"/>
<polygon fill="none" stroke="#404040" points="514.065,-219.683 510.507,-213.411 514.928,-207.714 518.486,-213.986 514.065,-219.683"/>
<text text-anchor="middle" x="579.5" y="-245.5" font-family="Helvetica,sans-Serif" font-size="10.00"> +jacobianDecomposition</text>
</g>
<!-- Node6 -->
<g id="node6" class="node"><title>Node6</title>
<polygon fill="none" stroke="#bfbfbf" points="830,-305.5 830,-362.5 898,-362.5 898,-305.5 830,-305.5"/>
<text text-anchor="middle" x="864" y="-350.5" font-family="Helvetica,sans-Serif" font-size="10.00">FrameIndex</text>
<polyline fill="none" stroke="#bfbfbf" points="830,-343.5 898,-343.5 "/>
<text text-anchor="middle" x="864" y="-331.5" font-family="Helvetica,sans-Serif" font-size="10.00"> </text>
<polyline fill="none" stroke="#bfbfbf" points="830,-324.5 898,-324.5 "/>
<text text-anchor="middle" x="864" y="-312.5" font-family="Helvetica,sans-Serif" font-size="10.00"> </text>
</g>
<!-- Node6&#45;&gt;Node2 -->
<g id="edge5" class="edge"><title>Node6&#45;&gt;Node2</title>
<path fill="none" stroke="#404040" d="M866.268,-305.284C866.63,-280.963 862.918,-246.382 842,-226 806.607,-191.514 669.574,-177.517 587.061,-172.128"/>
<polygon fill="none" stroke="#404040" points="587.03,-172.126 580.793,-175.745 575.053,-171.38 581.291,-167.761 587.03,-172.126"/>
<text text-anchor="middle" x="929" y="-262" font-family="Helvetica,sans-Serif" font-size="10.00"> +parentFrameModelIndex</text>
<text text-anchor="middle" x="929" y="-251" font-family="Helvetica,sans-Serif" font-size="10.00">+childFrameSegmentsIndex</text>
<text text-anchor="middle" x="929" y="-240" font-family="Helvetica,sans-Serif" font-size="10.00">+childFrameModelIndex</text>
<text text-anchor="middle" x="929" y="-229" font-family="Helvetica,sans-Serif" font-size="10.00">+parentFrameSegmentsIndex</text>
</g>
<!-- Node7 -->
<g id="node7" class="node"><title>Node7</title>
<polygon fill="none" stroke="#bfbfbf" points="735.5,-305.5 735.5,-362.5 776.5,-362.5 776.5,-305.5 735.5,-305.5"/>
<text text-anchor="middle" x="756" y="-350.5" font-family="Helvetica,sans-Serif" font-size="10.00">string</text>
<polyline fill="none" stroke="#bfbfbf" points="735.5,-343.5 776.5,-343.5 "/>
<text text-anchor="middle" x="756" y="-331.5" font-family="Helvetica,sans-Serif" font-size="10.00"> </text>
<polyline fill="none" stroke="#bfbfbf" points="735.5,-324.5 776.5,-324.5 "/>
<text text-anchor="middle" x="756" y="-312.5" font-family="Helvetica,sans-Serif" font-size="10.00"> </text>
</g>
<!-- Node7&#45;&gt;Node2 -->
<g id="edge6" class="edge"><title>Node7&#45;&gt;Node2</title>
<path fill="none" stroke="#404040" d="M735.301,-306.337C729.046,-299.618 721.76,-292.924 714,-288 691.926,-273.993 677.994,-286.843 658,-270 641.124,-255.784 650.688,-241.518 635,-226 621.258,-212.407 603.614,-201.396 586.414,-192.807"/>
<polygon fill="none" stroke="#404040" points="586.068,-192.643 578.933,-193.692 575.221,-187.51 582.355,-186.461 586.068,-192.643"/>
<text text-anchor="middle" x="702" y="-251" font-family="Helvetica,sans-Serif" font-size="10.00"> +childFrameName</text>
<text text-anchor="middle" x="702" y="-240" font-family="Helvetica,sans-Serif" font-size="10.00">+parentFrameName</text>
</g>
<!-- Node11 -->
<g id="node11" class="node"><title>Node11</title>
<g id="a_node11"><a xlink:href="structhuman_1_1_segment_info.html" target="_top" xlink:title="{human::SegmentInfo\n||}">
<polygon fill="none" stroke="black" points="1077.5,-139.5 1077.5,-196.5 1184.5,-196.5 1184.5,-139.5 1077.5,-139.5"/>
<text text-anchor="middle" x="1131" y="-184.5" font-family="Helvetica,sans-Serif" font-size="10.00">human::SegmentInfo</text>
<polyline fill="none" stroke="black" points="1077.5,-177.5 1184.5,-177.5 "/>
<text text-anchor="middle" x="1131" y="-165.5" font-family="Helvetica,sans-Serif" font-size="10.00"> </text>
<polyline fill="none" stroke="black" points="1077.5,-158.5 1184.5,-158.5 "/>
<text text-anchor="middle" x="1131" y="-146.5" font-family="Helvetica,sans-Serif" font-size="10.00"> </text>
</a>
</g>
</g>
<!-- Node7&#45;&gt;Node11 -->
<g id="edge12" class="edge"><title>Node7&#45;&gt;Node11</title>
<path fill="none" stroke="#404040" d="M749.756,-305.109C746.139,-281.011 745.556,-246.867 765,-226 804.648,-183.45 970.985,-172.572 1065.19,-169.852"/>
<polygon fill="none" stroke="#404040" points="1065.43,-169.846 1071.32,-165.691 1077.43,-169.533 1071.53,-173.688 1065.43,-169.846"/>
<text text-anchor="middle" x="801.5" y="-245.5" font-family="Helvetica,sans-Serif" font-size="10.00"> +segmentName</text>
</g>
<!-- Node8 -->
<g id="node8" class="node"><title>Node8</title>
<polygon fill="none" stroke="#bfbfbf" points="0,-300 0,-368 96,-368 96,-300 0,-300"/>
<text text-anchor="start" x="8" y="-356" font-family="Helvetica,sans-Serif" font-size="10.00">vector&lt; std::pair&lt;</text>
<text text-anchor="middle" x="48" y="-345" font-family="Helvetica,sans-Serif" font-size="10.00"> size_t, size_t &gt; &gt;</text>
<polyline fill="none" stroke="#bfbfbf" points="0,-338 96,-338 "/>
<text text-anchor="middle" x="48" y="-326" font-family="Helvetica,sans-Serif" font-size="10.00"> </text>
<polyline fill="none" stroke="#bfbfbf" points="0,-319 96,-319 "/>
<text text-anchor="middle" x="48" y="-307" font-family="Helvetica,sans-Serif" font-size="10.00"> </text>
</g>
<!-- Node8&#45;&gt;Node2 -->
<g id="edge7" class="edge"><title>Node8&#45;&gt;Node2</title>
<path fill="none" stroke="#404040" d="M47.7954,-299.932C49.5385,-275.784 56.102,-244.204 77,-226 132.613,-177.555 349.136,-169.572 458.715,-168.713"/>
<polygon fill="none" stroke="#404040" points="458.893,-168.712 464.87,-164.678 470.893,-168.644 464.916,-172.678 458.893,-168.712"/>
<text text-anchor="middle" x="137" y="-245.5" font-family="Helvetica,sans-Serif" font-size="10.00"> +consideredJointLocations</text>
</g>
<!-- Node9 -->
<g id="node9" class="node"><title>Node9</title>
<polygon fill="none" stroke="#bfbfbf" points="240.5,-300 240.5,-368 365.5,-368 365.5,-300 240.5,-300"/>
<text text-anchor="start" x="248.5" y="-356" font-family="Helvetica,sans-Serif" font-size="10.00">unique_ptr&lt; iDynTree</text>
<text text-anchor="middle" x="303" y="-345" font-family="Helvetica,sans-Serif" font-size="10.00">::KinDynComputations &gt;</text>
<polyline fill="none" stroke="#bfbfbf" points="240.5,-338 365.5,-338 "/>
<text text-anchor="middle" x="303" y="-326" font-family="Helvetica,sans-Serif" font-size="10.00"> </text>
<polyline fill="none" stroke="#bfbfbf" points="240.5,-319 365.5,-319 "/>
<text text-anchor="middle" x="303" y="-307" font-family="Helvetica,sans-Serif" font-size="10.00"> </text>
</g>
<!-- Node9&#45;&gt;Node2 -->
<g id="edge8" class="edge"><title>Node9&#45;&gt;Node2</title>
<path fill="none" stroke="#404040" d="M307.243,-299.788C311.931,-276.206 321.711,-245.407 342,-226 373.364,-195.999 420.382,-181.781 458.636,-175.046"/>
<polygon fill="none" stroke="#404040" points="458.868,-175.009 464.16,-170.111 470.717,-173.112 465.424,-178.01 458.868,-175.009"/>
<text text-anchor="middle" x="392.5" y="-245.5" font-family="Helvetica,sans-Serif" font-size="10.00"> +kinDynComputations</text>
</g>
<!-- Node10 -->
<g id="node10" class="node"><title>Node10</title>
<polygon fill="none" stroke="#bfbfbf" points="1024.5,-305.5 1024.5,-362.5 1107.5,-362.5 1107.5,-305.5 1024.5,-305.5"/>
<text text-anchor="middle" x="1066" y="-350.5" font-family="Helvetica,sans-Serif" font-size="10.00">VectorDynSize</text>
<polyline fill="none" stroke="#bfbfbf" points="1024.5,-343.5 1107.5,-343.5 "/>
<text text-anchor="middle" x="1066" y="-331.5" font-family="Helvetica,sans-Serif" font-size="10.00"> </text>
<polyline fill="none" stroke="#bfbfbf" points="1024.5,-324.5 1107.5,-324.5 "/>
<text text-anchor="middle" x="1066" y="-312.5" font-family="Helvetica,sans-Serif" font-size="10.00"> </text>
</g>
<!-- Node10&#45;&gt;Node2 -->
<g id="edge9" class="edge"><title>Node10&#45;&gt;Node2</title>
<path fill="none" stroke="#404040" d="M1040.38,-305.432C1031.33,-294.849 1021.55,-282.341 1014,-270 1002.89,-251.827 1012.06,-238.749 995,-226 931.984,-178.918 701.15,-170.347 587.329,-169.041"/>
<polygon fill="none" stroke="#404040" points="587.036,-169.039 580.998,-172.981 575.036,-168.923 581.075,-164.981 587.036,-169.039"/>
<text text-anchor="middle" x="1059.5" y="-251" font-family="Helvetica,sans-Serif" font-size="10.00"> +jointConfigurations</text>
<text text-anchor="middle" x="1059.5" y="-240" font-family="Helvetica,sans-Serif" font-size="10.00">+jointVelocities</text>
</g>
<!-- Node10&#45;&gt;Node11 -->
<g id="edge14" class="edge"><title>Node10&#45;&gt;Node11</title>
<path fill="none" stroke="#404040" d="M1088.38,-305.191C1095.9,-294.681 1103.71,-282.284 1109,-270 1117.33,-250.666 1122.64,-227.844 1125.96,-208.789"/>
<polygon fill="none" stroke="#404040" points="1125.97,-208.737 1122.96,-202.181 1127.86,-196.887 1130.86,-203.443 1125.97,-208.737"/>
<text text-anchor="middle" x="1148.5" y="-245.5" font-family="Helvetica,sans-Serif" font-size="10.00"> +velocities</text>
</g>
<!-- Node11&#45;&gt;Node1 -->
<g id="edge10" class="edge"><title>Node11&#45;&gt;Node1</title>
<path fill="none" stroke="#404040" d="M1128.17,-139.486C1127.32,-130.138 1126.49,-119.624 1126,-110 1125.53,-100.721 1125.25,-90.7794 1125.08,-81.2903"/>
<polygon fill="none" stroke="#404040" points="1125.08,-81.1691 1121,-75.221 1124.93,-69.1701 1129,-75.1182 1125.08,-81.1691"/>
<text text-anchor="middle" x="1165" y="-102" font-family="Helvetica,sans-Serif" font-size="10.00"> +childFrameInfo</text>
<text text-anchor="middle" x="1165" y="-91" font-family="Helvetica,sans-Serif" font-size="10.00">+parentFrameInfo</text>
</g>
<!-- Node12 -->
<g id="node12" class="node"><title>Node12</title>
<polygon fill="none" stroke="#bfbfbf" points="1174.5,-305.5 1174.5,-362.5 1235.5,-362.5 1235.5,-305.5 1174.5,-305.5"/>
<text text-anchor="middle" x="1205" y="-350.5" font-family="Helvetica,sans-Serif" font-size="10.00">Transform</text>
<polyline fill="none" stroke="#bfbfbf" points="1174.5,-343.5 1235.5,-343.5 "/>
<text text-anchor="middle" x="1205" y="-331.5" font-family="Helvetica,sans-Serif" font-size="10.00"> </text>
<polyline fill="none" stroke="#bfbfbf" points="1174.5,-324.5 1235.5,-324.5 "/>
<text text-anchor="middle" x="1205" y="-312.5" font-family="Helvetica,sans-Serif" font-size="10.00"> </text>
</g>
<!-- Node12&#45;&gt;Node11 -->
<g id="edge11" class="edge"><title>Node12&#45;&gt;Node11</title>
<path fill="none" stroke="#404040" d="M1201.47,-305.446C1197.82,-283.11 1190.8,-251.301 1178,-226 1174.54,-219.165 1170.14,-212.417 1165.42,-206.088"/>
<polygon fill="none" stroke="#404040" points="1165.3,-205.933 1158.44,-203.72 1157.84,-196.534 1164.7,-198.747 1165.3,-205.933"/>
<text text-anchor="middle" x="1233.5" y="-245.5" font-family="Helvetica,sans-Serif" font-size="10.00"> +poseWRTWorld</text>
</g>
<!-- Node13 -->
<g id="node13" class="node"><title>Node13</title>
<polygon fill="none" stroke="#bfbfbf" points="1284.5,-305.5 1284.5,-362.5 1329.5,-362.5 1329.5,-305.5 1284.5,-305.5"/>
<text text-anchor="middle" x="1307" y="-350.5" font-family="Helvetica,sans-Serif" font-size="10.00">Vector</text>
<polyline fill="none" stroke="#bfbfbf" points="1284.5,-343.5 1329.5,-343.5 "/>
<text text-anchor="middle" x="1307" y="-331.5" font-family="Helvetica,sans-Serif" font-size="10.00"> </text>
<polyline fill="none" stroke="#bfbfbf" points="1284.5,-324.5 1329.5,-324.5 "/>
<text text-anchor="middle" x="1307" y="-312.5" font-family="Helvetica,sans-Serif" font-size="10.00"> </text>
</g>
<!-- Node13&#45;&gt;Node11 -->
<g id="edge13" class="edge"><title>Node13&#45;&gt;Node11</title>
<path fill="none" stroke="#404040" d="M1306.74,-305.347C1304.98,-281.068 1298.49,-246.514 1277,-226 1251.26,-201.435 1232.12,-220.99 1199,-208 1194.57,-206.261 1190.07,-204.268 1185.62,-202.124"/>
<polygon fill="none" stroke="#404040" points="1185.38,-202 1178.21,-202.832 1174.69,-196.54 1181.85,-195.708 1185.38,-202"/>
<text text-anchor="middle" x="1334.5" y="-245.5" font-family="Helvetica,sans-Serif" font-size="10.00"> +accelerations</text>
</g>
<!-- Node14 -->
<g id="node14" class="node"><title>Node14</title>
<polygon fill="none" stroke="#bfbfbf" points="1208.5,-139.5 1208.5,-196.5 1243.5,-196.5 1243.5,-139.5 1208.5,-139.5"/>
<text text-anchor="middle" x="1226" y="-184.5" font-family="Helvetica,sans-Serif" font-size="10.00">long</text>
<polyline fill="none" stroke="#bfbfbf" points="1208.5,-177.5 1243.5,-177.5 "/>
<text text-anchor="middle" x="1226" y="-165.5" font-family="Helvetica,sans-Serif" font-size="10.00"> </text>
<polyline fill="none" stroke="#bfbfbf" points="1208.5,-158.5 1243.5,-158.5 "/>
<text text-anchor="middle" x="1226" y="-146.5" font-family="Helvetica,sans-Serif" font-size="10.00"> </text>
</g>
<!-- Node14&#45;&gt;Node1 -->
<g id="edge15" class="edge"><title>Node14&#45;&gt;Node1</title>
<path fill="none" stroke="#404040" d="M1223.18,-139.293C1220.41,-123.092 1214.91,-102.954 1204,-88 1201.33,-84.3352 1198.31,-80.8557 1195.06,-77.5644"/>
<polygon fill="none" stroke="#404040" points="1194.84,-77.3662 1187.71,-76.2892 1185.96,-69.2932 1193.09,-70.3702 1194.84,-77.3662"/>
<text text-anchor="middle" x="1239" y="-96.5" font-family="Helvetica,sans-Serif" font-size="10.00"> +identifier</text>
</g>
</g>
</svg>
        <g id="navigator" transform="translate(0 0)" fill="#404254">
                <rect fill="#f2f5e9" fill-opacity="0.5" stroke="#606060" stroke-width=".5" x="0" y="0" width="60" height="60"/>
                <use id="zoomplus" xlink:href="#zoomPlus" x="17" y="9" onmousedown="handleZoom(evt,'in')"/>
                <use id="zoomminus" xlink:href="#zoomMin" x="42" y="9" onmousedown="handleZoom(evt,'out')"/>
                <use id="reset" xlink:href="#resetDef" x="30" y="36" onmousedown="handleReset()"/>
                <g id="arrowUp" xlink:href="#dirArrow" transform="translate(30 24)" onmousedown="handlePan(0,-1)">
                  <use xlink:href="#rim" fill="#404040">
                        <set attributeName="fill" to="#808080" begin="arrowUp.mouseover" end="arrowUp.mouseout"/>
                  </use>
                  <path fill="none" stroke="white" stroke-width="1.5" d="M0,-3.0v7 M-2.5,-0.5L0,-3.0L2.5,-0.5"/>
                </g>
                <g id="arrowRight" xlink:href="#dirArrow" transform="rotate(90) translate(36 -43)" onmousedown="handlePan(1,0)">
                  <use xlink:href="#rim" fill="#404040">
                        <set attributeName="fill" to="#808080" begin="arrowRight.mouseover" end="arrowRight.mouseout"/>
                  </use>
                  <path fill="none" stroke="white" stroke-width="1.5" d="M0,-3.0v7 M-2.5,-0.5L0,-3.0L2.5,-0.5"/>
                </g>
                <g id="arrowDown" xlink:href="#dirArrow" transform="rotate(180) translate(-30 -48)" onmousedown="handlePan(0,1)">
                  <use xlink:href="#rim" fill="#404040">
                        <set attributeName="fill" to="#808080" begin="arrowDown.mouseover" end="arrowDown.mouseout"/>
                  </use>
                  <path fill="none" stroke="white" stroke-width="1.5" d="M0,-3.0v7 M-2.5,-0.5L0,-3.0L2.5,-0.5"/>
                </g>
                <g id="arrowLeft" xlink:href="#dirArrow" transform="rotate(270) translate(-36 17)" onmousedown="handlePan(-1,0)">
                  <use xlink:href="#rim" fill="#404040">
                        <set attributeName="fill" to="#808080" begin="arrowLeft.mouseover" end="arrowLeft.mouseout"/>
                  </use>
                  <path fill="none" stroke="white" stroke-width="1.5" d="M0,-3.0v7 M-2.5,-0.5L0,-3.0L2.5,-0.5"/>
                </g>
        </g>
        <svg viewBox="0 0 15 15" width="100%" height="30px" preserveAspectRatio="xMaxYMin meet">
         <g id="arrow_out" transform="scale(0.3 0.3)">
          <a xlink:href="structhuman_1_1_human_i_k_worker_pool_1_1_worker_task_data__coll__graph_org.svg" target="_base">
           <rect id="button" ry="5" rx="5" y="6" x="6" height="38" width="38"
                fill="#f2f5e9" fill-opacity="0.5" stroke="#606060" stroke-width="1.0"/>
           <path id="arrow"
             d="M 11.500037,31.436501 C 11.940474,20.09759 22.043105,11.32322 32.158766,21.979434 L 37.068811,17.246167 C 37.068811,17.246167 37.088388,32 37.088388,32 L 22.160133,31.978069 C 22.160133,31.978069 26.997745,27.140456 26.997745,27.140456 C 18.528582,18.264221 13.291696,25.230495 11.500037,31.436501 z"
             style="fill:#404040;"/>
          </a>
         </g>
        </svg>
</svg>
