<?xml version="1.0" encoding="UTF-8" standalone="no"?>
<!DOCTYPE svg PUBLIC "-//W3C//DTD SVG 1.1//EN"
 "http://www.w3.org/Graphics/SVG/1.1/DTD/svg11.dtd">
<!-- Generated by graphviz version 2.36.0 (20140111.2315)
 -->
<!-- Title: EffortPublisher Pages: 1 -->
<!--zoomable 840 -->
<svg id="main" version="1.1" xmlns="http://www.w3.org/2000/svg" xmlns:xlink="http://www.w3.org/1999/xlink" xml:space="preserve" onload="init(evt)">
<style type="text/css"><![CDATA[
.edge:hover path { stroke: red; }
.edge:hover polygon { stroke: red; fill: red; }
]]></style>
<script type="text/javascript"><![CDATA[
var edges = document.getElementsByTagName('g');
if (edges && edges.length) {
  for (var i=0;i<edges.length;i++) {
    if (edges[i].id.substr(0,4)=='edge') {
      edges[i].setAttribute('class','edge');
    }
  }
}
]]></script>
        <defs>
                <circle id="rim" cx="0" cy="0" r="7"/>
                <circle id="rim2" cx="0" cy="0" r="3.5"/>
                <g id="zoomPlus">
                        <use xlink:href="#rim" fill="#404040">
                                <set attributeName="fill" to="#808080" begin="zoomplus.mouseover" end="zoomplus.mouseout"/>
                        </use>
                        <path d="M-4,0h8M0,-4v8" fill="none" stroke="white" stroke-width="1.5" pointer-events="none"/>
                </g>
                <g id="zoomMin">
                        <use xlink:href="#rim" fill="#404040">
                                <set attributeName="fill" to="#808080" begin="zoomminus.mouseover" end="zoomminus.mouseout"/>
                        </use>
                        <path d="M-4,0h8" fill="none" stroke="white" stroke-width="1.5" pointer-events="none"/>
                </g>
                <g id="dirArrow">
                        <path fill="none" stroke="white" stroke-width="1.5" d="M0,-3.0v7 M-2.5,-0.5L0,-3.0L2.5,-0.5"/>
                </g>
               <g id="resetDef">
                       <use xlink:href="#rim2" fill="#404040">
                               <set attributeName="fill" to="#808080" begin="reset.mouseover" end="reset.mouseout"/>
                       </use>
               </g>
        </defs>

<script type="text/javascript">
var viewWidth = 691;
var viewHeight = 840;
var sectionId = 'dynsection-0';
</script>
<script xlink:href="svgpan.js"/>
<svg id="graph" class="graph">
<g id="viewport">
<title>EffortPublisher</title>
<!-- Node1 -->
<g id="node1" class="node"><title>Node1</title>
<polygon fill="#bfbfbf" stroke="black" points="367.5,-0.5 367.5,-57.5 448.5,-57.5 448.5,-0.5 367.5,-0.5"/>
<text text-anchor="middle" x="408" y="-45.5" font-family="Helvetica,sans-Serif" font-size="10.00">EffortPublisher</text>
<polyline fill="none" stroke="black" points="367.5,-38.5 448.5,-38.5 "/>
<text text-anchor="middle" x="408" y="-26.5" font-family="Helvetica,sans-Serif" font-size="10.00"> </text>
<polyline fill="none" stroke="black" points="367.5,-19.5 448.5,-19.5 "/>
<text text-anchor="middle" x="408" y="-7.5" font-family="Helvetica,sans-Serif" font-size="10.00"> </text>
</g>
<!-- Node2 -->
<g id="node2" class="node"><title>Node2</title>
<polygon fill="none" stroke="#bfbfbf" points="-0.5,-603.5 -0.5,-660.5 40.5,-660.5 40.5,-603.5 -0.5,-603.5"/>
<text text-anchor="middle" x="20" y="-648.5" font-family="Helvetica,sans-Serif" font-size="10.00">string</text>
<polyline fill="none" stroke="#bfbfbf" points="-0.5,-641.5 40.5,-641.5 "/>
<text text-anchor="middle" x="20" y="-629.5" font-family="Helvetica,sans-Serif" font-size="10.00"> </text>
<polyline fill="none" stroke="#bfbfbf" points="-0.5,-622.5 40.5,-622.5 "/>
<text text-anchor="middle" x="20" y="-610.5" font-family="Helvetica,sans-Serif" font-size="10.00"> </text>
</g>
<!-- Node2&#45;&gt;Node1 -->
<g id="edge1" class="edge"><title>Node2&#45;&gt;Node1</title>
<path fill="none" stroke="#404040" d="M17.7641,-603.207C12.3857,-515.752 8.58819,-243.846 154,-106 208.969,-53.891 298.219,-37.3707 354.966,-32.2173"/>
<polygon fill="none" stroke="#404040" points="355.294,-32.1912 360.955,-27.7247 367.255,-31.2326 361.594,-35.6991 355.294,-32.1912"/>
<text text-anchor="middle" x="74" y="-306" font-family="Helvetica,sans-Serif" font-size="10.00"> +jointEffort</text>
<text text-anchor="middle" x="74" y="-295" font-family="Helvetica,sans-Serif" font-size="10.00">+linkEffort</text>
</g>
<!-- Node6 -->
<g id="node6" class="node"><title>Node6</title>
<g id="a_node6"><a xlink:href="classstd__msgs___header.html" target="_top" xlink:title="{std_msgs_Header\n||+ std_msgs_Header()\l+ clear()\l+ readBare()\l+ readBottle()\l+ read()\l+ writeBare()\l+ writeBottle()\l+ write()\l+ getTypeText()\l+ getType()\land 10 more...\l}">
<polygon fill="none" stroke="black" points="82.5,-332.5 82.5,-499.5 193.5,-499.5 193.5,-332.5 82.5,-332.5"/>
<text text-anchor="middle" x="138" y="-487.5" font-family="Helvetica,sans-Serif" font-size="10.00">std_msgs_Header</text>
<polyline fill="none" stroke="black" points="82.5,-480.5 193.5,-480.5 "/>
<text text-anchor="middle" x="138" y="-468.5" font-family="Helvetica,sans-Serif" font-size="10.00"> </text>
<polyline fill="none" stroke="black" points="82.5,-461.5 193.5,-461.5 "/>
<text text-anchor="start" x="90.5" y="-449.5" font-family="Helvetica,sans-Serif" font-size="10.00">+ std_msgs_Header()</text>
<text text-anchor="start" x="90.5" y="-438.5" font-family="Helvetica,sans-Serif" font-size="10.00">+ clear()</text>
<text text-anchor="start" x="90.5" y="-427.5" font-family="Helvetica,sans-Serif" font-size="10.00">+ readBare()</text>
<text text-anchor="start" x="90.5" y="-416.5" font-family="Helvetica,sans-Serif" font-size="10.00">+ readBottle()</text>
<text text-anchor="start" x="90.5" y="-405.5" font-family="Helvetica,sans-Serif" font-size="10.00">+ read()</text>
<text text-anchor="start" x="90.5" y="-394.5" font-family="Helvetica,sans-Serif" font-size="10.00">+ writeBare()</text>
<text text-anchor="start" x="90.5" y="-383.5" font-family="Helvetica,sans-Serif" font-size="10.00">+ writeBottle()</text>
<text text-anchor="start" x="90.5" y="-372.5" font-family="Helvetica,sans-Serif" font-size="10.00">+ write()</text>
<text text-anchor="start" x="90.5" y="-361.5" font-family="Helvetica,sans-Serif" font-size="10.00">+ getTypeText()</text>
<text text-anchor="start" x="90.5" y="-350.5" font-family="Helvetica,sans-Serif" font-size="10.00">+ getType()</text>
<text text-anchor="start" x="90.5" y="-339.5" font-family="Helvetica,sans-Serif" font-size="10.00">and 10 more...</text>
</a>
</g>
</g>
<!-- Node2&#45;&gt;Node6 -->
<g id="edge14" class="edge"><title>Node2&#45;&gt;Node6</title>
<path fill="none" stroke="#404040" d="M19.4222,-603.062C20.0142,-579.253 23.5036,-544.744 37,-518 46.0207,-500.125 59.3983,-483.478 73.4871,-469.063"/>
<polygon fill="none" stroke="#404040" points="73.7593,-468.796 75.2355,-461.737 82.3187,-460.385 80.8425,-467.444 73.7593,-468.796"/>
<text text-anchor="middle" x="60.5" y="-521.5" font-family="Helvetica,sans-Serif" font-size="10.00"> +frame_id</text>
</g>
<!-- Node3 -->
<g id="node3" class="node"><title>Node3</title>
<g id="a_node3"><a xlink:href="classsensor__msgs___temperature.html" target="_top" xlink:title="{sensor_msgs_Temperature\n||+ sensor_msgs_Temperature()\l+ clear()\l+ readBare()\l+ readBottle()\l+ read()\l+ writeBare()\l+ writeBottle()\l+ write()\l+ getTypeText()\l+ getType()\land 10 more...\l}">
<polygon fill="none" stroke="black" points="163,-106.5 163,-273.5 313,-273.5 313,-106.5 163,-106.5"/>
<text text-anchor="middle" x="238" y="-261.5" font-family="Helvetica,sans-Serif" font-size="10.00">sensor_msgs_Temperature</text>
<polyline fill="none" stroke="black" points="163,-254.5 313,-254.5 "/>
<text text-anchor="middle" x="238" y="-242.5" font-family="Helvetica,sans-Serif" font-size="10.00"> </text>
<polyline fill="none" stroke="black" points="163,-235.5 313,-235.5 "/>
<text text-anchor="start" x="171" y="-223.5" font-family="Helvetica,sans-Serif" font-size="10.00">+ sensor_msgs_Temperature()</text>
<text text-anchor="start" x="171" y="-212.5" font-family="Helvetica,sans-Serif" font-size="10.00">+ clear()</text>
<text text-anchor="start" x="171" y="-201.5" font-family="Helvetica,sans-Serif" font-size="10.00">+ readBare()</text>
<text text-anchor="start" x="171" y="-190.5" font-family="Helvetica,sans-Serif" font-size="10.00">+ readBottle()</text>
<text text-anchor="start" x="171" y="-179.5" font-family="Helvetica,sans-Serif" font-size="10.00">+ read()</text>
<text text-anchor="start" x="171" y="-168.5" font-family="Helvetica,sans-Serif" font-size="10.00">+ writeBare()</text>
<text text-anchor="start" x="171" y="-157.5" font-family="Helvetica,sans-Serif" font-size="10.00">+ writeBottle()</text>
<text text-anchor="start" x="171" y="-146.5" font-family="Helvetica,sans-Serif" font-size="10.00">+ write()</text>
<text text-anchor="start" x="171" y="-135.5" font-family="Helvetica,sans-Serif" font-size="10.00">+ getTypeText()</text>
<text text-anchor="start" x="171" y="-124.5" font-family="Helvetica,sans-Serif" font-size="10.00">+ getType()</text>
<text text-anchor="start" x="171" y="-113.5" font-family="Helvetica,sans-Serif" font-size="10.00">and 10 more...</text>
</a>
</g>
</g>
<!-- Node3&#45;&gt;Node1 -->
<g id="edge2" class="edge"><title>Node3&#45;&gt;Node1</title>
<path fill="none" stroke="#404040" d="M313.183,-113.276C326.271,-100.63 339.892,-87.796 353,-76 356.8,-72.5808 360.795,-69.075 364.826,-65.5983"/>
<polygon fill="none" stroke="#404040" points="365.087,-65.3761 367.06,-58.44 374.221,-57.5934 372.248,-64.5294 365.087,-65.3761"/>
<text text-anchor="middle" x="378.5" y="-79.5" font-family="Helvetica,sans-Serif" font-size="10.00"> +effortMsg</text>
</g>
<!-- Node4 -->
<g id="node4" class="node"><title>Node4</title>
<g id="a_node4"><a xlink:href="classyarp_1_1os_1_1idl_1_1_wire_portable.html" target="_top" xlink:title="{WirePortable\n||}">
<polygon fill="none" stroke="black" points="227.5,-774.5 227.5,-831.5 300.5,-831.5 300.5,-774.5 227.5,-774.5"/>
<text text-anchor="middle" x="264" y="-819.5" font-family="Helvetica,sans-Serif" font-size="10.00">WirePortable</text>
<polyline fill="none" stroke="black" points="227.5,-812.5 300.5,-812.5 "/>
<text text-anchor="middle" x="264" y="-800.5" font-family="Helvetica,sans-Serif" font-size="10.00"> </text>
<polyline fill="none" stroke="black" points="227.5,-793.5 300.5,-793.5 "/>
<text text-anchor="middle" x="264" y="-781.5" font-family="Helvetica,sans-Serif" font-size="10.00"> </text>
</a>
</g>
</g>
<!-- Node4&#45;&gt;Node3 -->
<g id="edge3" class="edge"><title>Node4&#45;&gt;Node3</title>
<path fill="none" stroke="midnightblue" d="M277.933,-764.985C279.13,-762.015 280.185,-759.002 281,-756 332.484,-566.397 286.444,-510.463 288,-314 288.077,-304.223 290.555,-301.438 288,-292 286.329,-285.825 284.175,-279.641 281.701,-273.543"/>
<polygon fill="none" stroke="midnightblue" points="274.674,-763.697 273.75,-774.251 281.055,-766.577 274.674,-763.697"/>
</g>
<!-- Node4&#45;&gt;Node3 -->
<g id="edge4" class="edge"><title>Node4&#45;&gt;Node3</title>
<path fill="none" stroke="midnightblue" d="M295.891,-764.985C297.13,-762.015 298.185,-759.002 299,-756 350.484,-566.397 304.444,-510.463 306,-314 306.077,-304.223 308.555,-301.438 306,-292 304.329,-285.825 302.175,-279.641 299.667,-273.543"/>
<polygon fill="none" stroke="midnightblue" points="292.611,-763.728 291.382,-774.251 298.905,-766.791 292.611,-763.728"/>
</g>
<!-- Node4&#45;&gt;Node6 -->
<g id="edge7" class="edge"><title>Node4&#45;&gt;Node6</title>
<path fill="none" stroke="midnightblue" d="M259.817,-763.945C258.142,-712.935 255.595,-620.426 227,-548 225.69,-544.681 210.305,-523.779 192.642,-499.61"/>
<polygon fill="none" stroke="midnightblue" points="256.327,-764.304 260.171,-774.177 263.323,-764.062 256.327,-764.304"/>
</g>
<!-- Node4&#45;&gt;Node6 -->
<g id="edge8" class="edge"><title>Node4&#45;&gt;Node6</title>
<path fill="none" stroke="midnightblue" d="M272.016,-763.945C276.142,-712.935 273.595,-620.426 245,-548 243.331,-543.773 218.831,-511.023 193.623,-479.33"/>
<polygon fill="none" stroke="midnightblue" points="268.506,-763.891 271.042,-774.177 275.474,-764.554 268.506,-763.891"/>
</g>
<!-- Node7 -->
<g id="node7" class="node"><title>Node7</title>
<g id="a_node7"><a xlink:href="class_tick_time.html" target="_top" xlink:title="{TickTime\n||+ TickTime()\l+ clear()\l+ readBare()\l+ readBottle()\l+ read()\l+ writeBare()\l+ writeBottle()\l+ write()\l+ getTypeText()\l+ getType()\land 10 more...\l}">
<polygon fill="none" stroke="black" points="141,-548.5 141,-715.5 227,-715.5 227,-548.5 141,-548.5"/>
<text text-anchor="middle" x="184" y="-703.5" font-family="Helvetica,sans-Serif" font-size="10.00">TickTime</text>
<polyline fill="none" stroke="black" points="141,-696.5 227,-696.5 "/>
<text text-anchor="middle" x="184" y="-684.5" font-family="Helvetica,sans-Serif" font-size="10.00"> </text>
<polyline fill="none" stroke="black" points="141,-677.5 227,-677.5 "/>
<text text-anchor="start" x="149" y="-665.5" font-family="Helvetica,sans-Serif" font-size="10.00">+ TickTime()</text>
<text text-anchor="start" x="149" y="-654.5" font-family="Helvetica,sans-Serif" font-size="10.00">+ clear()</text>
<text text-anchor="start" x="149" y="-643.5" font-family="Helvetica,sans-Serif" font-size="10.00">+ readBare()</text>
<text text-anchor="start" x="149" y="-632.5" font-family="Helvetica,sans-Serif" font-size="10.00">+ readBottle()</text>
<text text-anchor="start" x="149" y="-621.5" font-family="Helvetica,sans-Serif" font-size="10.00">+ read()</text>
<text text-anchor="start" x="149" y="-610.5" font-family="Helvetica,sans-Serif" font-size="10.00">+ writeBare()</text>
<text text-anchor="start" x="149" y="-599.5" font-family="Helvetica,sans-Serif" font-size="10.00">+ writeBottle()</text>
<text text-anchor="start" x="149" y="-588.5" font-family="Helvetica,sans-Serif" font-size="10.00">+ write()</text>
<text text-anchor="start" x="149" y="-577.5" font-family="Helvetica,sans-Serif" font-size="10.00">+ getTypeText()</text>
<text text-anchor="start" x="149" y="-566.5" font-family="Helvetica,sans-Serif" font-size="10.00">+ getType()</text>
<text text-anchor="start" x="149" y="-555.5" font-family="Helvetica,sans-Serif" font-size="10.00">and 10 more...</text>
</a>
</g>
</g>
<!-- Node4&#45;&gt;Node7 -->
<g id="edge10" class="edge"><title>Node4&#45;&gt;Node7</title>
<path fill="none" stroke="midnightblue" d="M236.622,-765.429C235.027,-762.246 233.478,-759.069 232,-756 225.72,-742.959 219.167,-729.085 212.961,-715.531"/>
<polygon fill="none" stroke="midnightblue" points="233.522,-767.055 241.219,-774.335 239.742,-763.844 233.522,-767.055"/>
</g>
<!-- Node4&#45;&gt;Node7 -->
<g id="edge11" class="edge"><title>Node4&#45;&gt;Node7</title>
<path fill="none" stroke="midnightblue" d="M254.422,-765.14C252.933,-762.053 251.433,-758.976 250,-756 242.545,-740.52 234.707,-723.867 227.102,-707.969"/>
<polygon fill="none" stroke="midnightblue" points="251.336,-766.8 258.784,-774.335 257.661,-763.8 251.336,-766.8"/>
</g>
<!-- Node5 -->
<g id="node5" class="node"><title>Node5</title>
<polygon fill="none" stroke="#bfbfbf" points="211.5,-387.5 211.5,-444.5 276.5,-444.5 276.5,-387.5 211.5,-387.5"/>
<text text-anchor="middle" x="244" y="-432.5" font-family="Helvetica,sans-Serif" font-size="10.00">NetFloat64</text>
<polyline fill="none" stroke="#bfbfbf" points="211.5,-425.5 276.5,-425.5 "/>
<text text-anchor="middle" x="244" y="-413.5" font-family="Helvetica,sans-Serif" font-size="10.00"> </text>
<polyline fill="none" stroke="#bfbfbf" points="211.5,-406.5 276.5,-406.5 "/>
<text text-anchor="middle" x="244" y="-394.5" font-family="Helvetica,sans-Serif" font-size="10.00"> </text>
</g>
<!-- Node5&#45;&gt;Node3 -->
<g id="edge5" class="edge"><title>Node5&#45;&gt;Node3</title>
<path fill="none" stroke="#404040" d="M242.311,-387.147C241.157,-366.87 239.713,-338.744 239,-314 238.736,-304.845 238.533,-295.304 238.377,-285.765"/>
<polygon fill="none" stroke="#404040" points="238.376,-285.711 234.29,-279.769 238.204,-273.712 242.29,-279.654 238.376,-285.711"/>
<text text-anchor="middle" x="268" y="-306" font-family="Helvetica,sans-Serif" font-size="10.00"> +variance</text>
<text text-anchor="middle" x="268" y="-295" font-family="Helvetica,sans-Serif" font-size="10.00">+temperature</text>
</g>
<!-- Node6&#45;&gt;Node3 -->
<g id="edge6" class="edge"><title>Node6&#45;&gt;Node3</title>
<path fill="none" stroke="#404040" d="M174.952,-332.227C181.802,-316.883 189.003,-300.753 195.991,-285.101"/>
<polygon fill="none" stroke="#404040" points="196.141,-284.764 194.934,-277.655 201.033,-273.806 202.239,-280.916 196.141,-284.764"/>
<text text-anchor="middle" x="210.5" y="-300.5" font-family="Helvetica,sans-Serif" font-size="10.00"> +header</text>
</g>
<!-- Node7&#45;&gt;Node6 -->
<g id="edge9" class="edge"><title>Node7&#45;&gt;Node6</title>
<path fill="none" stroke="#404040" d="M166.215,-548.262C163.636,-536.265 160.965,-523.839 158.341,-511.63"/>
<polygon fill="none" stroke="#404040" points="158.259,-511.25 153.088,-506.225 155.738,-499.518 160.909,-504.543 158.259,-511.25"/>
<text text-anchor="middle" x="179.5" y="-521.5" font-family="Helvetica,sans-Serif" font-size="10.00"> +stamp</text>
</g>
<!-- Node8 -->
<g id="node8" class="node"><title>Node8</title>
<polygon fill="none" stroke="#bfbfbf" points="88.5,-774.5 88.5,-831.5 149.5,-831.5 149.5,-774.5 88.5,-774.5"/>
<text text-anchor="middle" x="119" y="-819.5" font-family="Helvetica,sans-Serif" font-size="10.00">NetUint32</text>
<polyline fill="none" stroke="#bfbfbf" points="88.5,-812.5 149.5,-812.5 "/>
<text text-anchor="middle" x="119" y="-800.5" font-family="Helvetica,sans-Serif" font-size="10.00"> </text>
<polyline fill="none" stroke="#bfbfbf" points="88.5,-793.5 149.5,-793.5 "/>
<text text-anchor="middle" x="119" y="-781.5" font-family="Helvetica,sans-Serif" font-size="10.00"> </text>
</g>
<!-- Node8&#45;&gt;Node6 -->
<g id="edge13" class="edge"><title>Node8&#45;&gt;Node6</title>
<path fill="none" stroke="#404040" d="M114.127,-774.216C111.431,-757.422 108.357,-735.551 107,-716 101.828,-641.513 98.3445,-622.163 107,-548 108.382,-536.161 110.443,-523.84 112.859,-511.699"/>
<polygon fill="none" stroke="#404040" points="112.924,-511.388 110.237,-504.696 115.38,-499.642 118.067,-506.334 112.924,-511.388"/>
<text text-anchor="middle" x="119.5" y="-629.5" font-family="Helvetica,sans-Serif" font-size="10.00"> +seq</text>
</g>
<!-- Node8&#45;&gt;Node7 -->
<g id="edge12" class="edge"><title>Node8&#45;&gt;Node7</title>
<path fill="none" stroke="#404040" d="M129.588,-774.471C134.693,-761.198 141.149,-744.414 147.813,-727.085"/>
<polygon fill="none" stroke="#404040" points="147.904,-726.85 146.324,-719.814 152.211,-715.65 153.791,-722.686 147.904,-726.85"/>
<text text-anchor="middle" x="158" y="-748" font-family="Helvetica,sans-Serif" font-size="10.00"> +sec</text>
<text text-anchor="middle" x="158" y="-737" font-family="Helvetica,sans-Serif" font-size="10.00">+nsec</text>
</g>
<!-- Node9 -->
<g id="node9" class="node"><title>Node9</title>
<g id="a_node9"><a xlink:href="classyarp_1_1os_1_1_publisher.html" target="_top" xlink:title="{yarp::os::Publisher\l\&lt; sensor_msgs_Temperature \&gt;\n||}">
<polygon fill="none" stroke="black" points="331.5,-156 331.5,-224 484.5,-224 484.5,-156 331.5,-156"/>
<text text-anchor="start" x="339.5" y="-212" font-family="Helvetica,sans-Serif" font-size="10.00">yarp::os::Publisher</text>
<text text-anchor="middle" x="408" y="-201" font-family="Helvetica,sans-Serif" font-size="10.00">&lt; sensor_msgs_Temperature &gt;</text>
<polyline fill="none" stroke="black" points="331.5,-194 484.5,-194 "/>
<text text-anchor="middle" x="408" y="-182" font-family="Helvetica,sans-Serif" font-size="10.00"> </text>
<polyline fill="none" stroke="black" points="331.5,-175 484.5,-175 "/>
<text text-anchor="middle" x="408" y="-163" font-family="Helvetica,sans-Serif" font-size="10.00"> </text>
</a>
</g>
</g>
<!-- Node9&#45;&gt;Node1 -->
<g id="edge15" class="edge"><title>Node9&#45;&gt;Node1</title>
<path fill="none" stroke="#404040" d="M408,-155.668C408,-130.705 408,-96.4461 408,-70.0031"/>
<polygon fill="none" stroke="#404040" points="408,-69.7248 404,-63.7248 408,-57.7248 412,-63.7248 408,-69.7248"/>
<text text-anchor="middle" x="432.5" y="-79.5" font-family="Helvetica,sans-Serif" font-size="10.00"> +publisher</text>
</g>
<!-- Node10 -->
<g id="node10" class="node"><title>Node10</title>
<polygon fill="none" stroke="#bfbfbf" points="503,-161.5 503,-218.5 589,-218.5 589,-161.5 503,-161.5"/>
<text text-anchor="middle" x="546" y="-206.5" font-family="Helvetica,sans-Serif" font-size="10.00">vector&lt; string &gt;</text>
<polyline fill="none" stroke="#bfbfbf" points="503,-199.5 589,-199.5 "/>
<text text-anchor="middle" x="546" y="-187.5" font-family="Helvetica,sans-Serif" font-size="10.00"> </text>
<polyline fill="none" stroke="#bfbfbf" points="503,-180.5 589,-180.5 "/>
<text text-anchor="middle" x="546" y="-168.5" font-family="Helvetica,sans-Serif" font-size="10.00"> </text>
</g>
<!-- Node10&#45;&gt;Node1 -->
<g id="edge16" class="edge"><title>Node10&#45;&gt;Node1</title>
<path fill="none" stroke="#404040" d="M530.665,-161.283C520.851,-144.561 507.308,-123.231 493,-106 480.546,-91.0015 475.475,-89.0582 461,-76 457.234,-72.603 453.292,-69.0945 449.33,-65.6006"/>
<polygon fill="none" stroke="#404040" points="449.149,-65.4423 442.001,-64.4967 440.124,-57.534 447.273,-58.4796 449.149,-65.4423"/>
<text text-anchor="middle" x="516.5" y="-79.5" font-family="Helvetica,sans-Serif" font-size="10.00"> +realJointsNames</text>
</g>
<!-- Node11 -->
<g id="node11" class="node"><title>Node11</title>
<polygon fill="none" stroke="#bfbfbf" points="611,-161.5 611,-218.5 683,-218.5 683,-161.5 611,-161.5"/>
<text text-anchor="middle" x="647" y="-206.5" font-family="Helvetica,sans-Serif" font-size="10.00">vector&lt; int &gt;</text>
<polyline fill="none" stroke="#bfbfbf" points="611,-199.5 683,-199.5 "/>
<text text-anchor="middle" x="647" y="-187.5" font-family="Helvetica,sans-Serif" font-size="10.00"> </text>
<polyline fill="none" stroke="#bfbfbf" points="611,-180.5 683,-180.5 "/>
<text text-anchor="middle" x="647" y="-168.5" font-family="Helvetica,sans-Serif" font-size="10.00"> </text>
</g>
<!-- Node11&#45;&gt;Node1 -->
<g id="edge17" class="edge"><title>Node11&#45;&gt;Node1</title>
<path fill="none" stroke="#404040" d="M634.833,-161.334C621.314,-134.317 596.718,-94.6298 562,-76 530.201,-58.9365 491.226,-47.3734 460.443,-40.1083"/>
<polygon fill="none" stroke="#404040" points="460.356,-40.0889 453.621,-42.6655 448.653,-37.4395 455.388,-34.8629 460.356,-40.0889"/>
<text text-anchor="middle" x="598" y="-79.5" font-family="Helvetica,sans-Serif" font-size="10.00"> +indices</text>
</g>
</g>
</svg>
        <g id="navigator" transform="translate(0 0)" fill="#404254">
                <rect fill="#f2f5e9" fill-opacity="0.5" stroke="#606060" stroke-width=".5" x="0" y="0" width="60" height="60"/>
                <use id="zoomplus" xlink:href="#zoomPlus" x="17" y="9" onmousedown="handleZoom(evt,'in')"/>
                <use id="zoomminus" xlink:href="#zoomMin" x="42" y="9" onmousedown="handleZoom(evt,'out')"/>
                <use id="reset" xlink:href="#resetDef" x="30" y="36" onmousedown="handleReset()"/>
                <g id="arrowUp" xlink:href="#dirArrow" transform="translate(30 24)" onmousedown="handlePan(0,-1)">
                  <use xlink:href="#rim" fill="#404040">
                        <set attributeName="fill" to="#808080" begin="arrowUp.mouseover" end="arrowUp.mouseout"/>
                  </use>
                  <path fill="none" stroke="white" stroke-width="1.5" d="M0,-3.0v7 M-2.5,-0.5L0,-3.0L2.5,-0.5"/>
                </g>
                <g id="arrowRight" xlink:href="#dirArrow" transform="rotate(90) translate(36 -43)" onmousedown="handlePan(1,0)">
                  <use xlink:href="#rim" fill="#404040">
                        <set attributeName="fill" to="#808080" begin="arrowRight.mouseover" end="arrowRight.mouseout"/>
                  </use>
                  <path fill="none" stroke="white" stroke-width="1.5" d="M0,-3.0v7 M-2.5,-0.5L0,-3.0L2.5,-0.5"/>
                </g>
                <g id="arrowDown" xlink:href="#dirArrow" transform="rotate(180) translate(-30 -48)" onmousedown="handlePan(0,1)">
                  <use xlink:href="#rim" fill="#404040">
                        <set attributeName="fill" to="#808080" begin="arrowDown.mouseover" end="arrowDown.mouseout"/>
                  </use>
                  <path fill="none" stroke="white" stroke-width="1.5" d="M0,-3.0v7 M-2.5,-0.5L0,-3.0L2.5,-0.5"/>
                </g>
                <g id="arrowLeft" xlink:href="#dirArrow" transform="rotate(270) translate(-36 17)" onmousedown="handlePan(-1,0)">
                  <use xlink:href="#rim" fill="#404040">
                        <set attributeName="fill" to="#808080" begin="arrowLeft.mouseover" end="arrowLeft.mouseout"/>
                  </use>
                  <path fill="none" stroke="white" stroke-width="1.5" d="M0,-3.0v7 M-2.5,-0.5L0,-3.0L2.5,-0.5"/>
                </g>
        </g>
        <svg viewBox="0 0 15 15" width="100%" height="30px" preserveAspectRatio="xMaxYMin meet">
         <g id="arrow_out" transform="scale(0.3 0.3)">
          <a xlink:href="struct_effort_publisher__coll__graph_org.svg" target="_base">
           <rect id="button" ry="5" rx="5" y="6" x="6" height="38" width="38"
                fill="#f2f5e9" fill-opacity="0.5" stroke="#606060" stroke-width="1.0"/>
           <path id="arrow"
             d="M 11.500037,31.436501 C 11.940474,20.09759 22.043105,11.32322 32.158766,21.979434 L 37.068811,17.246167 C 37.068811,17.246167 37.088388,32 37.088388,32 L 22.160133,31.978069 C 22.160133,31.978069 26.997745,27.140456 26.997745,27.140456 C 18.528582,18.264221 13.291696,25.230495 11.500037,31.436501 z"
             style="fill:#404040;"/>
          </a>
         </g>
        </svg>
</svg>
