<?xml version="1.0" encoding="UTF-8" standalone="no"?>
<!DOCTYPE svg PUBLIC "-//W3C//DTD SVG 1.1//EN"
 "http://www.w3.org/Graphics/SVG/1.1/DTD/svg11.dtd">
<!-- Generated by graphviz version 2.36.0 (20140111.2315)
 -->
<!-- Title: HumanDynamicsEstimator::SensorKey Pages: 1 -->
<svg width="170pt" height="184pt"
 viewBox="0.00 0.00 170.00 184.00" xmlns="http://www.w3.org/2000/svg" xmlns:xlink="http://www.w3.org/1999/xlink">
<g id="graph0" class="graph" transform="scale(1 1) rotate(0) translate(4 180)">
<title>HumanDynamicsEstimator::SensorKey</title>
<!-- Node1 -->
<g id="node1" class="node"><title>Node1</title>
<polygon fill="#bfbfbf" stroke="black" points="0,-1 0,-69 134,-69 134,-1 0,-1"/>
<text text-anchor="start" x="8" y="-57" font-family="Helvetica,sans-Serif" font-size="10.00">HumanDynamicsEstimator</text>
<text text-anchor="middle" x="67" y="-46" font-family="Helvetica,sans-Serif" font-size="10.00">::SensorKey</text>
<polyline fill="none" stroke="black" points="0,-39 134,-39 "/>
<text text-anchor="middle" x="67" y="-27" font-family="Helvetica,sans-Serif" font-size="10.00"> </text>
<polyline fill="none" stroke="black" points="0,-20 134,-20 "/>
<text text-anchor="start" x="8" y="-8" font-family="Helvetica,sans-Serif" font-size="10.00">+ operator==()</text>
</g>
<!-- Node2 -->
<g id="node2" class="node"><title>Node2</title>
<polygon fill="none" stroke="#bfbfbf" points="2.5,-118.5 2.5,-175.5 43.5,-175.5 43.5,-118.5 2.5,-118.5"/>
<text text-anchor="middle" x="23" y="-163.5" font-family="Helvetica,sans-Serif" font-size="10.00">string</text>
<polyline fill="none" stroke="#bfbfbf" points="2.5,-156.5 43.5,-156.5 "/>
<text text-anchor="middle" x="23" y="-144.5" font-family="Helvetica,sans-Serif" font-size="10.00"> </text>
<polyline fill="none" stroke="#bfbfbf" points="2.5,-137.5 43.5,-137.5 "/>
<text text-anchor="middle" x="23" y="-125.5" font-family="Helvetica,sans-Serif" font-size="10.00"> </text>
</g>
<!-- Node2&#45;&gt;Node1 -->
<g id="edge1" class="edge"><title>Node2&#45;&gt;Node1</title>
<path fill="none" stroke="#404040" d="M34.1031,-118.242C38.6641,-106.84 44.0611,-93.3474 49.1505,-80.6237"/>
<polygon fill="none" stroke="#404040" points="49.2485,-80.3785 47.763,-73.3221 53.7053,-69.2368 55.1908,-76.2932 49.2485,-80.3785"/>
<text text-anchor="middle" x="53.5" y="-91.5" font-family="Helvetica,sans-Serif" font-size="10.00"> +id</text>
</g>
<!-- Node3 -->
<g id="node3" class="node"><title>Node3</title>
<polygon fill="none" stroke="#bfbfbf" points="62,-118.5 62,-175.5 162,-175.5 162,-118.5 62,-118.5"/>
<text text-anchor="middle" x="112" y="-163.5" font-family="Helvetica,sans-Serif" font-size="10.00">BerdySensorTypes</text>
<polyline fill="none" stroke="#bfbfbf" points="62,-156.5 162,-156.5 "/>
<text text-anchor="middle" x="112" y="-144.5" font-family="Helvetica,sans-Serif" font-size="10.00"> </text>
<polyline fill="none" stroke="#bfbfbf" points="62,-137.5 162,-137.5 "/>
<text text-anchor="middle" x="112" y="-125.5" font-family="Helvetica,sans-Serif" font-size="10.00"> </text>
</g>
<!-- Node3&#45;&gt;Node1 -->
<g id="edge2" class="edge"><title>Node3&#45;&gt;Node1</title>
<path fill="none" stroke="#404040" d="M100.645,-118.242C95.9799,-106.84 90.4603,-93.3474 85.2551,-80.6237"/>
<polygon fill="none" stroke="#404040" points="85.1405,-80.3434 79.1665,-76.3046 80.5969,-69.2368 86.5709,-73.2755 85.1405,-80.3434"/>
<text text-anchor="middle" x="107" y="-91.5" font-family="Helvetica,sans-Serif" font-size="10.00"> +type</text>
</g>
</g>
</svg>
