<?xml version="1.0" encoding="UTF-8" standalone="no"?>
<!DOCTYPE svg PUBLIC "-//W3C//DTD SVG 1.1//EN"
 "http://www.w3.org/Graphics/SVG/1.1/DTD/svg11.dtd">
<!-- Generated by graphviz version 2.36.0 (20140111.2315)
 -->
<!-- Title: human::SegmentInfo Pages: 1 -->
<svg width="367pt" height="172pt"
 viewBox="0.00 0.00 367.00 172.00" xmlns="http://www.w3.org/2000/svg" xmlns:xlink="http://www.w3.org/1999/xlink">
<g id="graph0" class="graph" transform="scale(1 1) rotate(0) translate(4 168)">
<title>human::SegmentInfo</title>
<!-- Node1 -->
<g id="node1" class="node"><title>Node1</title>
<polygon fill="#bfbfbf" stroke="black" points="126.5,-0.5 126.5,-57.5 233.5,-57.5 233.5,-0.5 126.5,-0.5"/>
<text text-anchor="middle" x="180" y="-45.5" font-family="Helvetica,sans-Serif" font-size="10.00">human::SegmentInfo</text>
<polyline fill="none" stroke="black" points="126.5,-38.5 233.5,-38.5 "/>
<text text-anchor="middle" x="180" y="-26.5" font-family="Helvetica,sans-Serif" font-size="10.00"> </text>
<polyline fill="none" stroke="black" points="126.5,-19.5 233.5,-19.5 "/>
<text text-anchor="middle" x="180" y="-7.5" font-family="Helvetica,sans-Serif" font-size="10.00"> </text>
</g>
<!-- Node2 -->
<g id="node2" class="node"><title>Node2</title>
<polygon fill="none" stroke="#bfbfbf" points="-0.5,-106.5 -0.5,-163.5 60.5,-163.5 60.5,-106.5 -0.5,-106.5"/>
<text text-anchor="middle" x="30" y="-151.5" font-family="Helvetica,sans-Serif" font-size="10.00">Transform</text>
<polyline fill="none" stroke="#bfbfbf" points="-0.5,-144.5 60.5,-144.5 "/>
<text text-anchor="middle" x="30" y="-132.5" font-family="Helvetica,sans-Serif" font-size="10.00"> </text>
<polyline fill="none" stroke="#bfbfbf" points="-0.5,-125.5 60.5,-125.5 "/>
<text text-anchor="middle" x="30" y="-113.5" font-family="Helvetica,sans-Serif" font-size="10.00"> </text>
</g>
<!-- Node2&#45;&gt;Node1 -->
<g id="edge1" class="edge"><title>Node2&#45;&gt;Node1</title>
<path fill="none" stroke="#404040" d="M32.111,-106.499C34.2169,-95.8254 38.2721,-84.2185 46,-76 63.8826,-56.9821 89.9692,-45.8268 114.384,-39.2834"/>
<polygon fill="none" stroke="#404040" points="114.528,-39.2487 119.419,-33.9502 126.192,-36.4275 121.3,-41.7259 114.528,-39.2487"/>
<text text-anchor="middle" x="85.5" y="-79.5" font-family="Helvetica,sans-Serif" font-size="10.00"> +poseWRTWorld</text>
</g>
<!-- Node3 -->
<g id="node3" class="node"><title>Node3</title>
<polygon fill="none" stroke="#bfbfbf" points="111.5,-106.5 111.5,-163.5 152.5,-163.5 152.5,-106.5 111.5,-106.5"/>
<text text-anchor="middle" x="132" y="-151.5" font-family="Helvetica,sans-Serif" font-size="10.00">string</text>
<polyline fill="none" stroke="#bfbfbf" points="111.5,-144.5 152.5,-144.5 "/>
<text text-anchor="middle" x="132" y="-132.5" font-family="Helvetica,sans-Serif" font-size="10.00"> </text>
<polyline fill="none" stroke="#bfbfbf" points="111.5,-125.5 152.5,-125.5 "/>
<text text-anchor="middle" x="132" y="-113.5" font-family="Helvetica,sans-Serif" font-size="10.00"> </text>
</g>
<!-- Node3&#45;&gt;Node1 -->
<g id="edge2" class="edge"><title>Node3&#45;&gt;Node1</title>
<path fill="none" stroke="#404040" d="M128.231,-106.234C127.972,-96.3405 128.976,-85.342 133,-76 134.289,-73.0065 135.876,-70.1087 137.676,-67.3223"/>
<polygon fill="none" stroke="#404040" points="137.705,-67.2847 138.169,-60.0885 144.99,-57.749 144.526,-64.9452 137.705,-67.2847"/>
<text text-anchor="middle" x="169.5" y="-79.5" font-family="Helvetica,sans-Serif" font-size="10.00"> +segmentName</text>
</g>
<!-- Node4 -->
<g id="node4" class="node"><title>Node4</title>
<polygon fill="none" stroke="#bfbfbf" points="205.5,-106.5 205.5,-163.5 250.5,-163.5 250.5,-106.5 205.5,-106.5"/>
<text text-anchor="middle" x="228" y="-151.5" font-family="Helvetica,sans-Serif" font-size="10.00">Vector</text>
<polyline fill="none" stroke="#bfbfbf" points="205.5,-144.5 250.5,-144.5 "/>
<text text-anchor="middle" x="228" y="-132.5" font-family="Helvetica,sans-Serif" font-size="10.00"> </text>
<polyline fill="none" stroke="#bfbfbf" points="205.5,-125.5 250.5,-125.5 "/>
<text text-anchor="middle" x="228" y="-113.5" font-family="Helvetica,sans-Serif" font-size="10.00"> </text>
</g>
<!-- Node4&#45;&gt;Node1 -->
<g id="edge3" class="edge"><title>Node4&#45;&gt;Node1</title>
<path fill="none" stroke="#404040" d="M218.542,-106.498C214.93,-96.7336 210.573,-85.7506 206,-76 204.861,-73.5706 203.642,-71.0959 202.378,-68.6178"/>
<polygon fill="none" stroke="#404040" points="202.289,-68.4506 195.936,-65.0394 196.641,-57.8629 202.994,-61.2741 202.289,-68.4506"/>
<text text-anchor="middle" x="243.5" y="-79.5" font-family="Helvetica,sans-Serif" font-size="10.00"> +accelerations</text>
</g>
<!-- Node5 -->
<g id="node5" class="node"><title>Node5</title>
<polygon fill="none" stroke="#bfbfbf" points="276.5,-106.5 276.5,-163.5 359.5,-163.5 359.5,-106.5 276.5,-106.5"/>
<text text-anchor="middle" x="318" y="-151.5" font-family="Helvetica,sans-Serif" font-size="10.00">VectorDynSize</text>
<polyline fill="none" stroke="#bfbfbf" points="276.5,-144.5 359.5,-144.5 "/>
<text text-anchor="middle" x="318" y="-132.5" font-family="Helvetica,sans-Serif" font-size="10.00"> </text>
<polyline fill="none" stroke="#bfbfbf" points="276.5,-125.5 359.5,-125.5 "/>
<text text-anchor="middle" x="318" y="-113.5" font-family="Helvetica,sans-Serif" font-size="10.00"> </text>
</g>
<!-- Node5&#45;&gt;Node1 -->
<g id="edge4" class="edge"><title>Node5&#45;&gt;Node1</title>
<path fill="none" stroke="#404040" d="M304.794,-106.444C298.696,-95.8877 290.649,-84.3803 281,-76 270.424,-66.8142 257.709,-59.1358 244.923,-52.8495"/>
<polygon fill="none" stroke="#404040" points="244.617,-52.7082 237.493,-53.8264 233.72,-47.6806 240.844,-46.5624 244.617,-52.7082"/>
<text text-anchor="middle" x="316.5" y="-79.5" font-family="Helvetica,sans-Serif" font-size="10.00"> +velocities</text>
</g>
</g>
</svg>
