<?xml version="1.0" encoding="UTF-8" standalone="no"?>
<!DOCTYPE svg PUBLIC "-//W3C//DTD SVG 1.1//EN"
 "http://www.w3.org/Graphics/SVG/1.1/DTD/svg11.dtd">
<!-- Generated by graphviz version 2.36.0 (20140111.2315)
 -->
<!-- Title: IKErrorLog Pages: 1 -->
<svg width="218pt" height="182pt"
 viewBox="0.00 0.00 218.00 182.00" xmlns="http://www.w3.org/2000/svg" xmlns:xlink="http://www.w3.org/1999/xlink">
<g id="graph0" class="graph" transform="scale(1 1) rotate(0) translate(4 178)">
<title>IKErrorLog</title>
<!-- Node1 -->
<g id="node1" class="node"><title>Node1</title>
<polygon fill="#bfbfbf" stroke="black" points="70.5,-0.5 70.5,-57.5 133.5,-57.5 133.5,-0.5 70.5,-0.5"/>
<text text-anchor="middle" x="102" y="-45.5" font-family="Helvetica,sans-Serif" font-size="10.00">IKErrorLog</text>
<polyline fill="none" stroke="black" points="70.5,-38.5 133.5,-38.5 "/>
<text text-anchor="middle" x="102" y="-26.5" font-family="Helvetica,sans-Serif" font-size="10.00"> </text>
<polyline fill="none" stroke="black" points="70.5,-19.5 133.5,-19.5 "/>
<text text-anchor="middle" x="102" y="-7.5" font-family="Helvetica,sans-Serif" font-size="10.00"> </text>
</g>
<!-- Node2 -->
<g id="node2" class="node"><title>Node2</title>
<polygon fill="none" stroke="#bfbfbf" points="0,-116.5 0,-173.5 90,-173.5 90,-116.5 0,-116.5"/>
<text text-anchor="middle" x="45" y="-161.5" font-family="Helvetica,sans-Serif" font-size="10.00">vector&lt; double &gt;</text>
<polyline fill="none" stroke="#bfbfbf" points="0,-154.5 90,-154.5 "/>
<text text-anchor="middle" x="45" y="-142.5" font-family="Helvetica,sans-Serif" font-size="10.00"> </text>
<polyline fill="none" stroke="#bfbfbf" points="0,-135.5 90,-135.5 "/>
<text text-anchor="middle" x="45" y="-123.5" font-family="Helvetica,sans-Serif" font-size="10.00"> </text>
</g>
<!-- Node2&#45;&gt;Node1 -->
<g id="edge1" class="edge"><title>Node2&#45;&gt;Node1</title>
<path fill="none" stroke="#404040" d="M40.2372,-116.303C39.2936,-103.458 40.0561,-88.3389 46,-76 49.5953,-68.5365 55.0457,-61.8693 61.1591,-56.0824"/>
<polygon fill="none" stroke="#404040" points="61.2792,-55.9811 63.2862,-49.0549 70.4515,-48.2436 68.4445,-55.1698 61.2792,-55.9811"/>
<text text-anchor="middle" x="91.5" y="-90" font-family="Helvetica,sans-Serif" font-size="10.00"> +ik_minus_opensim</text>
<text text-anchor="middle" x="91.5" y="-79" font-family="Helvetica,sans-Serif" font-size="10.00">+jointsIK</text>
</g>
<!-- Node3 -->
<g id="node3" class="node"><title>Node3</title>
<polygon fill="none" stroke="#bfbfbf" points="123,-116.5 123,-173.5 195,-173.5 195,-116.5 123,-116.5"/>
<text text-anchor="middle" x="159" y="-161.5" font-family="Helvetica,sans-Serif" font-size="10.00">vector&lt; int &gt;</text>
<polyline fill="none" stroke="#bfbfbf" points="123,-154.5 195,-154.5 "/>
<text text-anchor="middle" x="159" y="-142.5" font-family="Helvetica,sans-Serif" font-size="10.00"> </text>
<polyline fill="none" stroke="#bfbfbf" points="123,-135.5 195,-135.5 "/>
<text text-anchor="middle" x="159" y="-123.5" font-family="Helvetica,sans-Serif" font-size="10.00"> </text>
</g>
<!-- Node3&#45;&gt;Node1 -->
<g id="edge2" class="edge"><title>Node3&#45;&gt;Node1</title>
<path fill="none" stroke="#404040" d="M152.346,-116.347C148.721,-103.652 143.61,-88.6458 137,-76 135.576,-73.2764 133.992,-70.5462 132.307,-67.8499"/>
<polygon fill="none" stroke="#404040" points="132.162,-67.6359 125.484,-64.915 125.427,-57.7041 132.105,-60.425 132.162,-67.6359"/>
<text text-anchor="middle" x="178" y="-84.5" font-family="Helvetica,sans-Serif" font-size="10.00"> +timeInstants</text>
</g>
</g>
</svg>
